<svg id="图层_1" data-name="图层 1" xmlns="http://www.w3.org/2000/svg" viewBox="0 0 191.06 33.23"><defs><style>.cls-1{fill:#d7000f;}.cls-1,.cls-2{fill-rule:evenodd;}.cls-2{fill:#3e3a39;}</style></defs><title>CAA</title><path class="cls-1" d="M3.69,6.06H35V9.52H3.69V6.06ZM35,25.38V23.79h-3.9v1.59H21.23v-3H35V18.91H21.23V16H35V12.44H3.69V16H17.42v2.92H3.69v3.46H17.42v3H3.69v3.46H35V25.38Zm0,6.38v3.46H3.69V31.76Z" transform="translate(-3.69 -4.64)"/><path class="cls-2" d="M177.52,33.62V32.2h1.15l-1.15-3v-2h1.24L182,35.22h-2.13l-.62-1.6ZM190.9,31h-.8v-.44l2.3-2.39h.27v1.59h1.86V31h-1.86v1.95c0,.45,0,.71.18.89a.83.83,0,0,0,.62.18.79.79,0,0,0,.44-.09,2.24,2.24,0,0,0,.62-.18V35a2.6,2.6,0,0,1-.89.18,2.37,2.37,0,0,1-.79.09,2,2,0,0,1-1.51-.54,3.12,3.12,0,0,1-.44-1.86V31ZM184,35.22v-5.5h1.68v1.51a5.24,5.24,0,0,1,.89-1.24,1.11,1.11,0,0,1,.88-.36.76.76,0,0,1,.44.09,2.08,2.08,0,0,1,.62.36l-.44,1.5-.53-.26a.53.53,0,0,0-.35-.09,1.11,1.11,0,0,0-.89.44,3.58,3.58,0,0,0-.62,1.15v2.4Zm-6.47-8.07v2.13l-1.24,2.92h1.24v1.42h-1.78l-.7,1.6h-2.13l3.54-8.07Zm-19.23,8.16V34a1.11,1.11,0,0,0,.88-.36,2.47,2.47,0,0,0,.36-1.15,2.18,2.18,0,0,0-.36-1.15,1.2,1.2,0,0,0-.88-.44V29.63h0a2.87,2.87,0,0,1,2.12.8,2.45,2.45,0,0,1,.89,2,2.57,2.57,0,0,1-.89,2,2.87,2.87,0,0,1-2.12.8Zm5.67-.09V30.88h-.71V29.72H164V29.1a2.15,2.15,0,0,1,.62-1.59,2.34,2.34,0,0,1,1.68-.44h.44a1.09,1.09,0,0,1,.45.08v1.24h-.62c-.27,0-.53,0-.62.18a1.89,1.89,0,0,0-.18.89v.26h.71v1.16h-.71v4.34Zm-5.67-5.59v1.25a1.08,1.08,0,0,0-.89.44,1.61,1.61,0,0,0-.36,1.15,1.75,1.75,0,0,0,.36,1.15,1,1,0,0,0,.89.36v1.33a3.25,3.25,0,0,1-2.22-.8,2.81,2.81,0,0,1-.8-2,2.67,2.67,0,0,1,.8-2,3.25,3.25,0,0,1,2.22-.8ZM126,35.31V34.15h.62a2.12,2.12,0,0,0,1-.17,3.14,3.14,0,0,0,1.07-.53V34.6a3.58,3.58,0,0,1-1.15.53,6.85,6.85,0,0,1-1.33.18Zm0-2.57v-.8h1.06a2.63,2.63,0,0,0-.35-.89,1.05,1.05,0,0,0-.71-.26h0V29.63h0a2.67,2.67,0,0,1,2,.8,3.15,3.15,0,0,1,.71,2.31H126Zm18.88,5.14H143l1.6-3.55-2-4.61h1.86l1.07,2.66,1.24-2.66h1.77l-3.63,8.16Zm-13.47-2.66v-5.5h1.68v.71a2.09,2.09,0,0,1,.89-.62,1.71,1.71,0,0,1,1-.18,2.66,2.66,0,0,1,1,.18,1.41,1.41,0,0,1,.63.8,3.94,3.94,0,0,1,1.06-.8,3.27,3.27,0,0,1,1.06-.18,1.54,1.54,0,0,1,1.33.54,2.12,2.12,0,0,1,.53,1.59v3.46h-1.77V31.94a1.32,1.32,0,0,0-.18-.89.53.53,0,0,0-.53-.26,1.05,1.05,0,0,0-.71.26,5,5,0,0,0-.53.62v3.55h-1.68V31.94a2.2,2.2,0,0,0-.18-.89.87.87,0,0,0-1.24,0,2.15,2.15,0,0,0-.62.62v3.55ZM126,29.63v1.16a1,1,0,0,0-.71.26,1.56,1.56,0,0,0-.35.89H126v.8H125a1.18,1.18,0,0,0,.44,1.06,1.31,1.31,0,0,0,.62.35v1.16a2.56,2.56,0,0,1-2-.8,2.88,2.88,0,0,1-.8-2.13,3.19,3.19,0,0,1,.71-2,3.27,3.27,0,0,1,2.13-.71Zm-8.33,5.68V34h.18a.66.66,0,0,0,.44-.09l.53-.27v-2.3a1.17,1.17,0,0,0-.44-.27,1.12,1.12,0,0,0-.53-.09h-.18V29.63a3.65,3.65,0,0,1,.44.09,1.84,1.84,0,0,1,.71.45v-3h1.68v8.07h-1.59v-.45a4.75,4.75,0,0,1-.71.36A1.24,1.24,0,0,1,117.7,35.31Zm0-5.68V31a1.14,1.14,0,0,0-.8.36,1.75,1.75,0,0,0-.35,1.15,1.38,1.38,0,0,0,.35,1.06,1.21,1.21,0,0,0,.8.45v1.33h-.35a2.32,2.32,0,0,1-1.87-.8,2.62,2.62,0,0,1-.7-2,2.62,2.62,0,0,1,.7-2,2.32,2.32,0,0,1,1.87-.8Zm-8.24,5.5v-.89c.09,0,.17-.09.26-.09a2.45,2.45,0,0,1,.45-.26V32.56a7.56,7.56,0,0,0-.71.26v-.88a5.37,5.37,0,0,1,.71-.27v-.18a.54.54,0,0,0-.27-.53.73.73,0,0,0-.44-.17V29.63h.17a2.5,2.5,0,0,1,1.78.45,1.75,1.75,0,0,1,.53,1.41V34c.09.09.09.09.18.09h.26c.09-.09.18-.09.27-.18v1a3.14,3.14,0,0,1-.8.36,1.93,1.93,0,0,1-.71.09,1.26,1.26,0,0,1-.62-.18.48.48,0,0,1-.26-.44,4.26,4.26,0,0,1-.8.44Zm0-5.5v1.16h-.36a2,2,0,0,0-1,.17,3.26,3.26,0,0,0-.89.71V30.25a6,6,0,0,1,1.07-.44,4.4,4.4,0,0,1,1.15-.18Zm0,2.31v.88a.87.87,0,0,0-.44.27.65.65,0,0,0-.36.53.69.69,0,0,0,.18.45.71.71,0,0,0,.44.17h.18v.89a3.13,3.13,0,0,1-.89.18,1.72,1.72,0,0,1-1.24-.36A1.65,1.65,0,0,1,107,33.8a1.24,1.24,0,0,1,.53-1.06,5.76,5.76,0,0,1,1.95-.8ZM93.6,33.62V32.2h1.15l-1.15-3v-2h1.24L98,35.22H95.9l-.62-1.6ZM104.67,35l-.8.27a3.51,3.51,0,0,1-1,.09,3.17,3.17,0,0,1-2.3-.8,2.34,2.34,0,0,1-.89-2,2.35,2.35,0,0,1,.89-2,3.09,3.09,0,0,1,2.21-.8,2.71,2.71,0,0,1,.89.09,1.67,1.67,0,0,1,.88.27v1.33a3.91,3.91,0,0,1-.79-.27,2.18,2.18,0,0,0-.71-.09,1.59,1.59,0,0,0-1.15.36,1.69,1.69,0,0,0,0,2.3,1.69,1.69,0,0,0,1.24.36,2.12,2.12,0,0,0,.7-.09l.8-.27ZM93.6,27.15v2.13L92.36,32.2H93.6v1.42H91.82l-.71,1.6H89l3.54-8.07Zm-14.27,8v-.89c.09,0,.17-.09.26-.09l.54-.26V32.56c-.36.09-.54.18-.8.26v-.88l.8-.27v-.18a.54.54,0,0,0-.27-.53,1,1,0,0,0-.53-.17V29.63h.26a2.26,2.26,0,0,1,1.69.45,1.75,1.75,0,0,1,.53,1.41v2.22c0,.09.09.18.09.27s.09.09.18.09h.26c0-.09.18-.09.27-.18v1a5.63,5.63,0,0,1-.8.36,2.18,2.18,0,0,1-.71.09,1,1,0,0,1-.62-.18.49.49,0,0,1-.27-.44,3.91,3.91,0,0,1-.79.44Zm-26.06-.62a7.14,7.14,0,0,1-1.5.62,4.86,4.86,0,0,1-1.6.18A5.61,5.61,0,0,1,48.4,35,3.5,3.5,0,0,1,47,34.15a3.37,3.37,0,0,1-.88-1.33,5.08,5.08,0,0,1-.36-1.68,4.08,4.08,0,0,1,1.24-3A4.72,4.72,0,0,1,50.35,27a8.73,8.73,0,0,1,1.42.17,9,9,0,0,1,1.42.45v1.95a9.08,9.08,0,0,0-1.33-.71,7.77,7.77,0,0,0-1.42-.18,2.5,2.5,0,0,0-1.86.71,2,2,0,0,0-.71,1.77A2.5,2.5,0,0,0,48.49,33a2.46,2.46,0,0,0,1.86.62,4.23,4.23,0,0,0,1.42-.26,6,6,0,0,0,1.5-.71v1.86Zm26.06-4.88v1.16h-.27a2,2,0,0,0-1,.17,3.56,3.56,0,0,0-1,.71l.09-1.42a3.16,3.16,0,0,1,1.06-.44,4.44,4.44,0,0,1,1.07-.18Zm0,2.31v.88a2,2,0,0,0-.45.27.8.8,0,0,0-.26.53c0,.18,0,.36.18.45a.68.68,0,0,0,.44.17h.09v.89a2.6,2.6,0,0,1-.89.18A1.48,1.48,0,0,1,77.29,35a1.65,1.65,0,0,1-.44-1.15,1.33,1.33,0,0,1,.62-1.06,6,6,0,0,1,1.86-.8ZM68.87,35.22v-5.5h1.77v.71a2.67,2.67,0,0,1,.8-.62,2.22,2.22,0,0,1,1.06-.18,1.54,1.54,0,0,1,1.33.54,2.12,2.12,0,0,1,.54,1.59v3.46H72.59V31.94c0-.36,0-.62-.17-.8a.6.6,0,0,0-.54-.35,1,1,0,0,0-.7.26,4.29,4.29,0,0,0-.54.62v3.55ZM64.17,28a.8.8,0,0,1,.27-.62,1,1,0,0,1,.71-.26.88.88,0,0,1,.62,1.5.8.8,0,0,1-.62.27,1,1,0,0,1-.71-.27.8.8,0,0,1-.27-.62Zm.09,7.27v-5.5H66v5.5Zm-8.33,0V27.15h1.69v3.28a2.38,2.38,0,0,1,.88-.62,1.75,1.75,0,0,1,1-.18,1.87,1.87,0,0,1,1.42.54,2.15,2.15,0,0,1,.44,1.59v3.46H59.66V31.94a1.75,1.75,0,0,0-.18-.8.9.9,0,0,0-.62-.35,1,1,0,0,0-.62.26,2,2,0,0,0-.62.62v3.55Z" transform="translate(-3.69 -4.64)"/><path class="cls-2" d="M101.48,7.39c.18,0,.71.18.71.09a2.73,2.73,0,0,1,.8.62.77.77,0,0,1,.35.89,1.26,1.26,0,0,1-.17.53,1.9,1.9,0,0,1-1.69.18,2.51,2.51,0,0,1-.71-1.33h-.09c-.17-.36-.62-.62-.26-1.07A2.22,2.22,0,0,1,101.48,7.39Z" transform="translate(-3.69 -4.64)"/><path class="cls-2" d="M127.8,8.63a1.55,1.55,0,0,1-1,1.95c-.36.71.44.71.44,1.51a7.61,7.61,0,0,0,.89-.62c.26-.27.88.09,1.06-.18a3.65,3.65,0,0,0,.09-.44.31.31,0,0,1-.09-.18c-.09-.71.53-1.24,1.33-1.68.44,0,.62.79.89.88.08.09.17.18.26-.09.35-.17.44-1.15,1-1.15.88-.09.53.89,1.33,1,.79-.27.7.44.53.79a4,4,0,0,1-2.13,1.07c-.27.09-.8.18-.89.62a4.68,4.68,0,0,0,0,1.06c.09.27.53.18.53.36a2,2,0,0,1,.8,2.12c-.17.45,0,1.07-.71,1.07-1.06.09-.62-1.07-1-.89a10,10,0,0,0-.18,2.3v.09a4.84,4.84,0,0,0-.35,1.78c-.36.26-.27,1.06-.8,1.06a1.25,1.25,0,0,1-1-1.15c-.17-.09-.35-.71-.35-.89a4.73,4.73,0,0,0,.44-1.51,2.6,2.6,0,0,0-.09-1.15c-.35,0-.35.53-.53.8-.09.53-.53.8-.88,1.24a.53.53,0,0,1-.62,0c-.36-.18,0-.44-.18-.8.35-1.33,1.24-2,1.77-3.28.09-.26.44-.35.44-.71s.45-1.06.18-1.15-1,.53-1.59.09c-.62.18-.27,1.15-.71,1.42-.36.53-1.06,1-.71,1.77-.09,1.6-.09,2.75-.27,4.43-.26.27-.35,1.15-.71,1.15-.7,0-1.24-1.24-1.32-1.86.44-.62.17-1.24.35-1.77.18-.35,0-.71.09-1.15-.09-.18-.09-.36-.18-.44-.53.26-1.15,1.41-1.95,1.15,0-.18-.35-.53-.18-.71.36-.18.63-.71.89-1a1.89,1.89,0,0,1,.8-.44c0-.26.26-.35.35-.53s.09-.44.36-.44a8.15,8.15,0,0,0,.79-1.07c.09-.44,0-.88.09-1.33s-.7-.35-.79-.79c-.18-.62.35-.62.44-1a2.35,2.35,0,0,0,.8-.26c.26-.54-.09-.89-.18-1.42a.52.52,0,0,1,.27-.53c.61-.09,1-.18,1.32.35Z" transform="translate(-3.69 -4.64)"/><path class="cls-2" d="M136.66,8.1c.18.09.45.36.62.18.27.26.71.26.89.62-.09.53-.09,1.5-.71,1.59-.26.09-.62-.09-.88,0A1.61,1.61,0,0,0,136,11c-.35-.08-.53.54-.88.09-.18-.17,0-.26.08-.53-.17-.09.27-.44.27-.53s0-.27.09-.44c0-.54-.62-.62-.44-1.15.18-.36.35-.63.7-.71C136.13,7.83,136.49,7.83,136.66,8.1Z" transform="translate(-3.69 -4.64)"/><path class="cls-2" d="M107.86,9.34a3.69,3.69,0,0,0-.26,1.15c-.36.36-1,.36-1.42.71-.27.09-.36.09-.53.27s-.18.53.09.62c.71-.09.88-.44,1.33-.53.17,0,0,.79.08,1a1.56,1.56,0,0,1-.88.8c-.18.09-.62.18-.62.35-.27.27-.45.09-.45.62,0,.18-.35.36-.17.45l.88-.36c.45-.09.45-.44,1-.26.18.09.62-.45.62-.09,0,.18.18.71,0,1s-.36.18-.62.27l-.27-.09c-.44,0-.71.53-1.06.8a1.41,1.41,0,0,1-.53.35c-.36.27-.8.09-.8.45.18.08.18.61.44.61a1.27,1.27,0,0,0,1.15-.17c.71,0,1.78-.36,2.22.17.27.45-.53,1.07-1.06,1.07a15.87,15.87,0,0,0-1.6.88v.09c.09.09-.35.09-.18.18a18.59,18.59,0,0,1,3,1.24,5.32,5.32,0,0,0,1.77.8,4.83,4.83,0,0,0,1.86.35,15,15,0,0,0,4-.09c.27.09-.09.8-.71,1a3.3,3.3,0,0,1-.89,1.06c-.35.62-1.15.27-1.86.27-.88-.18-2,.09-2.92-.53-.53,0-1.15-.09-1.33-.54a1.36,1.36,0,0,1-.62-.61A7,7,0,0,0,106,21.22c-.26-.09-.18-.36-.44-.45-1.24-.53-1.33-1.42-1.6-1a5.12,5.12,0,0,1-1.06,1.5c-.09.27-.62.36-.62.71-.18.18-.53.27-.71.45a2.29,2.29,0,0,1-1,1.06c-.62.09-1,.09-1.6.18-.35.09-1.15.09-1.33-.18,0-.18.71-.53.89-.62a5.63,5.63,0,0,0,.89-.53,7.67,7.67,0,0,0,.7-.89c.09-.09.36-.18.45-.35.44-.27.53-.71.79-1,.09-.17.09-.35-.08-.44s-.18-.18-.27-.18c-.27.09-.62.36-.8.36a2.45,2.45,0,0,1-1.06-.36c-.09-.09.18-.53.27-.79.26-.09.44-.45.7-.45.36-.26,1,0,1.33-.09s.71-.17.8-.44c-.09-.44.27-.8-.18-1.06-.71,0-1.06.44-1.77,0-.18-.18-.53-.54-.35-.8.7-.62,1.15-.36,2-.62.18-.09,1.25,0,1.69-.36a1.27,1.27,0,0,0,.09-.62.48.48,0,0,0-.62-.08c-.54.17-1.16.53-1.51.44-.09-.18-.62-.44-.62-.71.27-.36.71-.36,1.06-.53s1.51-.62,2-.89a1.23,1.23,0,0,0,.09-.8c-.62.36-1.59.18-2.21.54-.45-.45-1.42.44-1.6-.45a3.2,3.2,0,0,1,1.51-.88,13.72,13.72,0,0,1,2-.45c.18-.17.36,0,.54-.09.79-.26.79-.79,2.21-.88C107.15,9.43,107.77,9,107.86,9.34Z" transform="translate(-3.69 -4.64)"/><path class="cls-2" d="M139.68,10.85c.26.53.79,1.24.35,1.86-.35.44-1.33.35-1.86.26-.35.18-.53,0-.89.27a1.08,1.08,0,0,0-.79.09c0,.44.35.09.44.44.35.09.09.8.27,1.07-.09,1.77.17,2,0,3.63.35.53.17,2.13.17,2.57a3.74,3.74,0,0,1-.79,2c-.54.17-1,.88-1.6.62-.35-.18-.18-.62-.44-.89a3.05,3.05,0,0,0-1.07-.62c-.53-.35-2.21.62-2.39-.35-.09-.09.27-.54.44-.62a1.58,1.58,0,0,1,1.42,0h1.24c.8-.18.89-1.24,1.06-2-.08-.09-.17-.44-.08-.53,0-1,.26-1.78.26-2.66a3.73,3.73,0,0,1,.09-1.42V14.3a3.35,3.35,0,0,1-.09-.79c-.26.08-1,0-1.24.35-.35,0-.62.09-.88-.09s-.8-.8-.62-1.24c.53-.44,1.68-.09,2.39-.53.53,0,.88-.62,1.33-.53.62,0,1-.36,1.51-.53.35-.18.7-.71,1.32-.45Z" transform="translate(-3.69 -4.64)"/><path class="cls-2" d="M193.29,11.82c-.18-.17-.18-.44-.53-.53-.27-.62-.89-.71-1.51-1a2.17,2.17,0,0,0-1.33.26c-.35.09-.71.36-1.06.27.09-.45.53-.62.44-1.07h.09c-.09-.62-.18-.79-.62-1l-.44-.09L187.44,8h-.18v2.84a.17.17,0,0,1,.27,0l1.06.17v.09c-.35.09-.79.27-1.33.45V12.8c.71-.27,1.33-.53,1.78-.71.35,0,1.06-.27,1.24-.09.17,0,.08.44.17.62-.26.27-1.77.62-1.77,1.24-.26-.18-.8-.53-1.24-.35-.09.08-.09.08-.18.08v2l.45-.09c.62-.08.71-.7,1.33-.79.26-.27-.36-.45-.18-.8.44.35.71-.18,1.33-.18.53.18,1-.71,1.51-.35.62.09.88-.36,1.32-.62C193.11,12.09,193.56,12.35,193.29,11.82Zm-6-3.81c-.7,0-1.86-.09-2.12.27-.18.62.35,1.06.44,1.24.53.62,0,1.15-.18,1.86.09.18.62.09.8,0s.71-.44,1.06-.53V8Zm0,3.55V12.8a5.17,5.17,0,0,1-1.15.26c-.71.18-1.24-.09-1.77,0-.27.45.09,1.33-.27,1.86.09.18.27,0,.45,0,.26-.35,1.15-.44,1.5-.62v-.08a1.87,1.87,0,0,1,.54-.18,1.19,1.19,0,0,1,.7-.45v2h-.17c-.53,0-1.51.45-1.86.27-.18.18-.45,0-.53,0-.45,0-.89-.44-1.16-.09-.26.53-.53.71-1.33.71-.71-.18-.44-.89-1.06-1.42,0-.09-.09-.18-.09-.26,0-1.07,1.6-1.33,1.24-2.66a.78.78,0,0,1,.44-.89,2.69,2.69,0,0,1,1.07.62,2.17,2.17,0,0,1,.35.62A8.73,8.73,0,0,0,187.26,11.56Z" transform="translate(-3.69 -4.64)"/><path class="cls-2" d="M166.17,13.24c-.71-.71-.79-1.06-1.24-1.15-.17.09-.88.09-1.15.18a.73.73,0,0,0-.44.26c-.27-.09-1.33.27-1.42,0v-.26l.27-.8c.17-.62.62-.71.7-1,.45-2,1.24-1.5,1.6-2.3-.09-.71-.62-2-1.33-2.3a1.82,1.82,0,0,0-1.15.62c-.53.35-.8.17-1.42.53-.35.09-.53,0-.8.17s.36,1.33.62,1.33c.27.18.53-.17.89-.08.27.35-1.15.26-1.51.79h-.09V10c.09-.09.18-.09.54.18,0,0,.53-.18.62-.09.17.35-.62.35-1.16.53v1.33c.09.09.36.18.36.27s.26.53.18.62a.8.8,0,0,1-.54.26v1.42h.45c.44-.09.71-.35,1.24-.18a6.26,6.26,0,0,1,1.68-.26c.18.26,0,.35-.09.8.09.35-.09.53-.26,1.06.44.35.8.62,1.15.53s.8-.8,1.33-.89c.35-.7.88-.35,1-1.06-.09-.18.09-1.06,0-1.24ZM159.7,7V5.89A2.11,2.11,0,0,1,159.7,7Zm0,2.3c-.35-.18-.26-.26-.62-.35-.62.09-.79.09-1-.27l.18-.26A7.29,7.29,0,0,0,159.7,7V5.8c-.17-.27-.53-.8-.79-.8s-.54.35-.71.62-.53,1-.8,1.33c-.36.62-.89-.53-1.68.35-.27.18.26,1,.35,1.24.18,0-.09.36-.09.53s-.18.18-.62.54a.56.56,0,0,0,.27.71c.71-.09,1.06-1.25,1.41-1.25a.77.77,0,0,1,.63.71c0,.27-.36.45-.45.54a2.76,2.76,0,0,1-1.33.17,1.35,1.35,0,0,0-.53.36c-.09.53.44.53.8.88.09.09-.62.71-.09.8a7.55,7.55,0,0,1,.89-.18,2.12,2.12,0,0,0,1.41.89c-.17.18-2,.27-3.19.62-.44.18-.53-.09-.53,0-.26.09.18-.53-.09-.62-.08-.09-.44-.27-.35-.44s-.18-.8.09-.62c1.24,1,1.06-.53,1-.8s-.35.27-.62.09c-.17-.36-.26-.09-.26-.36.35-.09.71-.26.79-.53.09-.09,0-.35-.08-.53-.54-.53-1.16.09-1.24-.09s-.71-.26.08-.35c.8-.27,1.78-.89,1.33-1.69-.17-.26,0-.88-.44-.88a3.56,3.56,0,0,0-1,1.06c-.18.09-.36.36-.54.27-.35.79-1.24.17-1.5,1-.18.53-.45.71.53.89.44.09.09,1.5.18,1.77a6.81,6.81,0,0,1,.17,1.15c-.17.36,1.16.53,1.16.89a6.85,6.85,0,0,1-1.87.35c-.26-.44-.53-1.15-1.15-1.24l-.53.62a5.05,5.05,0,0,0-.09,1.69,3.42,3.42,0,0,0-.35.62c.09.62-.53,1.15-.71,1.68a1.32,1.32,0,0,0,.53,1.15c.53,0,1.06-.53,1.33-.71.09-.53.8-.62.8-1.24.17-.35,0-1.33.17-1.77h.45c.44,0,.71.27,1.15,0,.18.09.44.09.53.18.71,0,1.33-.27,1.77-.27.8-.26,1.86-.26,2.66-.44a2.77,2.77,0,0,1,1.15-.18V13.06h-.17c-.09,0-.45.27-.36-.44.09-.35-1.06-.53-.62-1.86.18-.27.53-.36.62-.44.27-.09.36-.27.53-.36V9.25Zm0,1.33v1.33a.64.64,0,0,0-.26-.09c-.09-.09-.36-.53-.27-.71S159.35,10.67,159.7,10.58Z" transform="translate(-3.69 -4.64)"/><path class="cls-2" d="M179.73,13a1.42,1.42,0,0,1,.44-.88c.54-.71,1.6-.89,1.69-1.69v-.17a2.15,2.15,0,0,0-.18-.62,3.37,3.37,0,0,0-1.51-.54,4.28,4.28,0,0,0-1.5.54v1.5c.18,0,.35-.09.53,0v.45c-.18.17-.18.79-.53.88v1.07a2.08,2.08,0,0,1,.62,1.06c-.09.27-.35.18-.62,0v3.72c.27-.09.8-.09.88-.26a3.89,3.89,0,0,0,1.07-1.24,3.42,3.42,0,0,0,.09-2.13C180.53,14,179.91,13.68,179.73,13Zm-1.06-3.36a5.45,5.45,0,0,0-1.42.88,23.42,23.42,0,0,1-2.66,1.07c-.18.26.45.79.71.88a.49.49,0,0,0,.53-.09c.45-.17.53-.44.8-.35a12.53,12.53,0,0,1-.53,4.16,7.05,7.05,0,0,1-.36,2.4c0,.18-.09.44-.09.53l-.08.26a17.54,17.54,0,0,0-.36,2.13h0l-.17.18a11.75,11.75,0,0,0,.08,1.68c.09.45.18,1.24.71,1.33,1.16.09,1.33-1,1.87-1.68a7.13,7.13,0,0,0-.18-1.95V18.65c.08-.18.18-2.22.35-2.13,0,0,.35.09.35.35s-.26,1.42.45,1.42h0V14.57h-.09c0-.09-.44.09-.44-.09-.27-.26,0-.62.35-1h.18v-1c-.27.44-.53-.26-.62-.35s-.18-.53-.27-.8c.27-.09.18-.18.36-.18a1.12,1.12,0,0,0,.53-.09Z" transform="translate(-3.69 -4.64)"/><path class="cls-2" d="M59.48,7.75c-.27-.18-.27,0-.71.17h-.18c-.09.18-.71-.44-1-.44-.36-.27-1.25,0-1.6.09a3.21,3.21,0,0,0-.53.09v3c.18-.09.44-.18.44,0a.42.42,0,0,1-.17.35c-.09.09-.18.18-.27.18v1.42a3.47,3.47,0,0,0,1.68-.18,2.73,2.73,0,0,0,.8-.62c0-.09.35-.53.27-.62a.69.69,0,0,0-.71-.35h-.71c-.18-.09-.36.09-.45-.09-.17-1.06.89-.62,1.42-.89.8-.35.8-.44,1.07-1.06C59,8.46,59.57,8.28,59.48,7.75Zm-4-.09a1.07,1.07,0,0,1-.8.09c-.53-.09-.26-.62-.53-1,.18-.44-.27-.8-.18-1.24-.17-.18-.35-.62-.53-.62l-.09-.09-.26-.18L52.57,5a1.52,1.52,0,0,0-.36,1.06,11.64,11.64,0,0,1,.09,2.57.54.54,0,0,1-.53.27,1.32,1.32,0,0,0-.53.17V10.4a.08.08,0,0,1,.08-.08c.18-.09.27-.36.63-.27h.26A1.49,1.49,0,0,1,52,11.11a1.07,1.07,0,0,1-.71.36.08.08,0,0,1-.08.09v.79h.26c0,.09-.09.18-.26.27v1.77c.26-.09.71-.53.88-.17-.17.88.09,1.59-.09,2.39C52,17.76,52,18.91,52,20.15a14.8,14.8,0,0,1-.45,3.55c.09.26-.09,1.77.27,1.86.53.09,1.15-.62,1.68-.8.09-.62.71-.8.71-1.42a2.12,2.12,0,0,0-.09-.79c.44-1,.09-1.78.27-2.75.09-.45-.09-.8.17-1.15a11.34,11.34,0,0,0-.08-2.4,8,8,0,0,1,0-2.92.94.94,0,0,1,.79-.71h.27V11.2c-.18,0-.27,0-.35.09S55,11.2,55,11h.09c.09-.26.17-.17.35-.26a.09.09,0,0,1,.09-.09ZM51.24,9.07c-.18,0-.27.09-.36.09-.26.18-.53.62-.8.71s-.35.89-.62,1.15c-.17.09-.62.18-.53-.17s-.18-.27,0-.45c-.09-.79.27-1.59-.09-2.12-.17,0-.35-.53-.44-.36-.27-.09-.53-.35-.71-.35-.09.18-.26.18-.18.35l-.08,1c0,.09.17.09,0,.26,0,.27-.18.54-.18.8s-.36.18-.53.62c-.45.27-.36,1.24-.45,1.6-.17.17,0,.62-.26.62v.26c0,.18-.18.27-.09.36s-.18.26-.27.44A2.55,2.55,0,0,0,45.83,15l.53.45c.36.17.53.08.89,0a3.94,3.94,0,0,0,1.06-1.07l.62.53c1,.36,1.33-.35,2.22-.44l.09-.09V12.62c-.27.09-.62.09-.62.27a6,6,0,0,1-1.16.26c0-.71,1.07-.8,1.78-.8v-.79c-.36.17-1.24-.09-1-.18.36-.53.62-1,1-1Z" transform="translate(-3.69 -4.64)"/><path class="cls-2" d="M86.24,14.92v-.44a1.49,1.49,0,0,1-.18-.44,4.48,4.48,0,0,1-.17-1.15c-.36-.45-.09-1-.27-1.6.09-.27-.53-1.95-.44-1.95a6.29,6.29,0,0,0-.27-2.48,8.72,8.72,0,0,0-1.24-.71c-.27-.09-.18-.18-.62-.18s-.71-.17-1.15-.26c-.18-.27-.89-.36-1.15-.36-.09.18-.54.18-.8.27V7l1.68-.27c1.77.36,1.86.89,1.77,1.86.18.36,0,.89.18,1.24,0,.09.09.45,0,.62a4.43,4.43,0,0,1,.27,2.4c-.36-.45-.45-1.24-.8-1.51a3.06,3.06,0,0,1-1-.27,15.18,15.18,0,0,0-1.78.36c-.17.18,0,.35.09.44A1.23,1.23,0,0,1,81.54,13c0,.18,0,.54-.26.62s.09.27.09.45c-.09.35-.09.35-.36.53a.37.37,0,0,1-.53-.27,4,4,0,0,1-.53-.79v5c.26-.27.35-1,.62-1.33.53,0,.26.44.62.71.18.44,1.06.44,1.33.8.18.08.26,1.06.8.44.44-.44-.36-1.33-.27-2.13-.09-.62-.35-.09-.62-.09a1.13,1.13,0,0,1-.89-.88c.45-.8.89-1.42.18-2.22.71-.62,1.33,0,1.68,0,.18,0,.45-.62.71-.44a18.26,18.26,0,0,1,.09,5.85c.27.26-.17.44,0,.79A1.91,1.91,0,0,1,84,21.22c-.09.7-.54,1-1.07,1.33a1.16,1.16,0,0,1-.62.44c-.26.44-1.24-.36-1.59.09s.53.71.88.79a1.12,1.12,0,0,0,1.24.27c.36,0,.71-.09,1.16-.09s1.06-.09,1.32-.53c.45-.18.45-1.06.62-1.51.54-1.59.18-2.48.36-4-.18-.27.09-.45,0-.63h0a7.36,7.36,0,0,0,0-1.41,4.3,4.3,0,0,0-.09-1.07ZM80,22V20.33a1.34,1.34,0,0,1,.26-.18c.27-.09.54.09.62.09a6.38,6.38,0,0,0,.71.8.84.84,0,0,1,0,.8c-.17.35-1,.17-1.59.17Zm0-10.63v0Zm0-5.76c-.09.09-.18.09-.27.18-.35.17-.53-.09-.88.17,0,.09-.45.09-.45.09l-.17.18V7.3a.67.67,0,0,0,.35-.09c.35,0,.8-.17,1.24-.17H80V5.62Zm-1.77,17h.08c.36-.08.54-.53,1-.53A1.7,1.7,0,0,1,80,22V20.33c-.36.09-.71.27-.89.18s-.53.09-.88.17v1.95Zm0-2.65c.35-.18.7-.27.79-.54.36-.26.62-.62,1-.88h0V13.42c-.36-.27-.45-1-.8-1.33,0-.27.62-.44.71-.62a.09.09,0,0,0,.09-.09V11c-.09-.08-.09-.17-.18-.26a2.73,2.73,0,0,0-.8-.62c-.09-.09-.53.09-.71,0a.08.08,0,0,0-.08-.09v3.28c.08.09.08.26.17.35.27,0,.18.27.27.45a.67.67,0,0,1,.35.35c.18.27.45.18.62,1-.17.35-.44.44-.62.7a7.94,7.94,0,0,1-.79.27V20Zm0-4.61v-.45c.08.18,0,.27,0,.45Zm0-.45v-.53c0,.09.08.09.08.18C78.09,14.66,78.26,14.84,78.18,14.92Zm0-8.68a9,9,0,0,1-1.51.8H76.4l-.17.17c-.45-.17-.8.18-1.07.36a6.72,6.72,0,0,1-2,1c-.08.09-.26.36-.08.45a1.54,1.54,0,0,0,1.5,0c.27,0,.62-.18.89.17.09.54.18.89.62,1.07.53.35.53.26.71.79h0v.09c-.18.36-1.07.89-1.24,1.16-.09-.09-.71.53-.71.44a3.58,3.58,0,0,1-1.69,0c-.26-.36,0-.8,0-1.15s.36-1.42,0-1.69c-.44-.09-.7.62-1,.8,0,.27-.27.44-.18.71-.17.09-.17.44-.17.71-.18.18-.18,1.06-.27,1.33-.27.53-.44,1.06-.71,1.5a11.09,11.09,0,0,0-.44,2.48A2.17,2.17,0,0,1,70,18.47c-.09.62-.26,1.51.18,2,.18.35.53.53.62.88.36.18.36.71.89.62a1.74,1.74,0,0,0,.71-1.41c.26-.8-.36-1.6-.18-2.31a25,25,0,0,1,.62-4.52.54.54,0,0,1,.62-.09l1.15.18c.44.18,0,.36,0,.62-.09.62-.62.44-.8,1a4.82,4.82,0,0,0,.89,1c.8,0,.62-.44,1.24-.53.18.35-.27.8-.44,1.06-.09,0-.09.09-.18.27a3.61,3.61,0,0,1-1,.53,2.1,2.1,0,0,1-.8-.36c-.09.09-.45-.08-.53.09-.27.45,0,.62.17,1,.45.27.53.71,1,1s.71,0,1.24.27c.44-.09,1.15-.71,1.68-.89.27.36-.53.8-.62,1-.26.18-.35.53-.62.62-.26.53-1.15.18-1.5.53s-.71,1-.54,1.51c.54.7,1,.88,2.57.7a3.88,3.88,0,0,1,1.78-.53V20.68c-.45.18-.89.27-1-.08.09-.27.53-.45,1-.62V16.43a3,3,0,0,0-.8.36c-.09-.36.62-.8.71-1.16a.31.31,0,0,1,.09-.26v-.45h0v-.53a3.11,3.11,0,0,0-.45-.53c-.53,0-.88.09-1-.18s-.09-.44.18-.62a.68.68,0,0,1,1.06.18c.09,0,.09,0,.18.09V10.05a1.73,1.73,0,0,1-.8-1c-.36-.26-1.15.09-1.42-.44.27-.71.89-.53,1.33-1,.35,0,.44-.27.71-.18,0-.09.09-.09.18-.18Z" transform="translate(-3.69 -4.64)"/><path class="cls-2" d="M161.92,15.63a1.73,1.73,0,0,1,.09,1.16,7,7,0,0,1-1,.35c-.26.18-1.15.62-1.68.89s-.62.35.27.62a20.69,20.69,0,0,0,2.3-.36c.62.09,1.06-.26,1.51.18.26.18.53,1,.35,1.15,0,.44-.71.27-1.06.44a15.81,15.81,0,0,1-2-.26c-.36-.09-.8.18-1.33.18-.53.44-.18,1.15-.09,1.86.09.17,0,.44,0,.71a2.25,2.25,0,0,1-1,1.94c-.18.09-.36.36-.62.36a1.77,1.77,0,0,1-1.51-.18,6.47,6.47,0,0,1-1.15-.44c-.36-.27-1.33,0-1.6-.27-.09-.17.09-.35.09-.44.44-.18,1.6-.09,1.95-.27.27.18,1.06-.26,1.33-.17.26-.36.18-.8.18-1.33a1.61,1.61,0,0,0,.17-1.42c-.44-.18-2,.53-2.39.35a15.74,15.74,0,0,1-2-.17c0-.45-.88-.45-.53-1.07,0,0,.09.09.09,0a19,19,0,0,1,3.1-.17l1.33-.18c.27-.18-.09-.44,0-.8l.18-.26c.26-.09.8-.09,1.06-.18a1,1,0,0,0,.71-.36c.18-.26.53-.7-.18-.7a12,12,0,0,0-2.3.53c-.44.35-.09.17-.71.35a11.54,11.54,0,0,1-1.42-.53.79.79,0,0,1-.35-.53c.18-.45.88-.27,1.24-.45l.09.09A8.74,8.74,0,0,0,159,15a4.24,4.24,0,0,0,1.07,0C160.77,15.19,161.57,14.92,161.92,15.63Z" transform="translate(-3.69 -4.64)"/><path class="cls-2" d="M190.28,16.52c.08.18-.27.71-.62,1a1.7,1.7,0,0,1-1.07.45c-.17.09-1.15,0-1.24.09s-.09.17.09.26.36,0,.53.09.45.8.45.89c-.27.26-.09.53-.27.79,0,.36-.53,1.69-.27,1.86a2.28,2.28,0,0,0,2.13-.26c.44.09,1.6.26,1.86,0,.62-.53.27-1.68,1.6-2.22.35-.09.26.18.44.27-.44,1,.27,1.24.09,1.77a1.84,1.84,0,0,0,.62.62c.09.36.27.8-.09,1.06l-.71.18-.8.27a6,6,0,0,1-1.77-.09,8.18,8.18,0,0,0-2.13.27,6.35,6.35,0,0,0-1.77.08c-.35,0-.79-.44-1.24-.53-.35-.53,0-1.95.09-2.66l-.09-.62c-.26.09-.8.8-1.06,1,0,.26-.35.26-.35.53-.54.35-.27,1.33-1.07,1.51-.44.08-1.06,0-1.42.08-.26-.08-1.5.63-1.59.27a2.05,2.05,0,0,1,.26-.62l.45-.71a.74.74,0,0,0,.35-.35c.36-.45.71-.45,1-.89.17-.09.53-.8.7-.88.36-.45,1-.63.8-1.16,0-.26-.53-.17-.71-.08a.68.68,0,0,0-.44.17c-.27-.09-1.33.44-1.42.18-.26-.53,1.15-1.51,1.42-1.95a2.32,2.32,0,0,1,.71-.35,3.6,3.6,0,0,0,1.33-.18c.53-.36,2.21-.27,2.75-.62C188.42,16.08,190,16.16,190.28,16.52Z" transform="translate(-3.69 -4.64)"/><path class="cls-2" d="M108.66,5.62c.09.18,0,.44.18.62a1.52,1.52,0,0,1,.09.89c-.18.26-.71.44-.8.53-.27.26-.18.44-.53.62a7.33,7.33,0,0,0-1.42.26h-.27a2.55,2.55,0,0,1-1.68.62c-.27,0-.27-.09-.36-.26.45-.36.8-.71,1.33-1.07.18-.35.27-.35.36-.7s.8-.8.8-1.07c.35-.17.35-.17.44-.44s0-.71.35-.71c0-.18.18-.18.27-.27A1.74,1.74,0,0,1,108.66,5.62Z" transform="translate(-3.69 -4.64)"/></svg>