<?xml version="1.0" encoding="UTF-8"?>
<svg xmlns="http://www.w3.org/2000/svg" xmlns:xlink="http://www.w3.org/1999/xlink" width="252pt" height="252pt" viewBox="0 0 252 252" version="1.1">
<g id="surface1">
<path style=" stroke:none;fill-rule:nonzero;fill:rgb(12.54902%,24.313725%,43.137255%);fill-opacity:1;" d="M 97.8125 74.722656 C 93.503906 73.390625 89.328125 71.761719 85.292969 69.859375 C 77.316406 75.625 70.539062 83.09375 65.5625 91.933594 C 71.835938 95.441406 78.441406 98.417969 85.304688 100.800781 C 87.960938 91.328125 92.230469 82.527344 97.8125 74.722656 Z M 97.8125 74.722656 "/>
<path style=" stroke:none;fill-rule:nonzero;fill:rgb(12.54902%,24.313725%,43.137255%);fill-opacity:1;" d="M 153.472656 73.921875 C 157.683594 72.636719 161.78125 71.070312 165.71875 69.230469 C 159.582031 64.933594 152.644531 61.535156 145.039062 59.363281 C 142.667969 58.683594 140.285156 58.140625 137.902344 57.722656 C 143.78125 62.402344 149.027344 67.847656 153.472656 73.921875 Z M 153.472656 73.921875 "/>
<path style=" stroke:none;fill-rule:nonzero;fill:rgb(12.54902%,24.313725%,43.137255%);fill-opacity:1;" d="M 99.367188 74.203125 C 107.664062 76.636719 116.417969 77.96875 125.480469 78.007812 L 125.445312 56.683594 C 122.234375 56.710938 119.0625 56.957031 115.9375 57.414062 C 109.652344 62.203125 104.058594 67.847656 99.367188 74.203125 Z M 99.367188 74.203125 "/>
<path style=" stroke:none;fill-rule:nonzero;fill:rgb(12.54902%,24.313725%,43.137255%);fill-opacity:1;" d="M 152.507812 74.203125 C 147.816406 67.847656 142.222656 62.203125 135.9375 57.414062 C 132.742188 56.945312 129.542969 56.695312 126.382812 56.671875 L 126.417969 77.996094 C 135.46875 77.957031 144.222656 76.636719 152.507812 74.203125 Z M 152.507812 74.203125 "/>
<path style=" stroke:none;fill-rule:nonzero;fill:rgb(12.54902%,24.313725%,43.137255%);fill-opacity:1;" d="M 97.625 161.289062 L 97.132812 159.941406 C 97.082031 159.832031 97.082031 159.84375 97.023438 159.695312 L 95.886719 157.140625 C 95.800781 156.941406 95.726562 156.816406 95.625 156.632812 L 94.875 155.164062 C 94.269531 154.136719 93.738281 153.089844 93.121094 152.078125 L 92.167969 150.433594 C 92.082031 150.273438 91.984375 150.125 91.886719 149.941406 L 91.132812 148.472656 C 91.046875 148.273438 90.960938 148.125 90.886719 147.941406 L 90.21875 146.398438 C 89.453125 144.59375 88.910156 142.679688 88.453125 140.792969 C 88.417969 140.632812 88.390625 140.484375 88.367188 140.335938 C 87.144531 140.039062 85.921875 139.753906 84.710938 139.433594 C 87.035156 151.1875 91.835938 162.054688 98.566406 171.460938 C 98.640625 169.4375 98.847656 167.410156 98.640625 165.386719 C 98.503906 164.003906 98.109375 162.621094 97.625 161.289062 Z M 97.625 161.289062 "/>
<path style=" stroke:none;fill-rule:nonzero;fill:rgb(12.54902%,24.313725%,43.137255%);fill-opacity:1;" d="M 113.972656 57.710938 C 103.9375 59.476562 94.441406 63.4375 86.167969 69.230469 C 90.109375 71.054688 94.195312 72.625 98.40625 73.910156 C 102.847656 67.847656 108.097656 62.390625 113.972656 57.710938 Z M 113.972656 57.710938 "/>
<path style=" stroke:none;fill-rule:nonzero;fill:rgb(12.54902%,24.313725%,43.137255%);fill-opacity:1;" d="M 153.101562 75.019531 C 144.632812 77.527344 135.679688 78.910156 126.417969 78.945312 L 126.46875 107.628906 C 140.160156 107.566406 153.347656 105.28125 165.660156 101.121094 C 163.015625 91.625 158.71875 82.824219 153.101562 75.019531 Z M 153.101562 75.019531 "/>
<path style=" stroke:none;fill-rule:nonzero;fill:rgb(12.54902%,24.313725%,43.137255%);fill-opacity:1;" d="M 86.207031 101.109375 C 88.972656 102.046875 91.785156 102.875 94.640625 103.613281 C 99.28125 95.800781 105.085938 88.625 113.171875 83.738281 C 114.023438 83.253906 115.605469 82.429688 116.664062 82.773438 C 118.355469 83.328125 120.960938 82.316406 122.296875 83.316406 L 122.359375 83.367188 C 122.371094 83.378906 122.382812 83.378906 122.382812 83.390625 C 122.394531 83.402344 122.40625 83.402344 122.40625 83.414062 C 122.839844 83.8125 123.125 84.441406 123.195312 85.046875 C 123.210938 85.167969 123.210938 85.625 123.195312 85.75 C 123.183594 85.886719 123.183594 85.824219 123.160156 85.910156 L 123.160156 85.921875 C 123.171875 85.898438 123.109375 86.070312 123.160156 85.921875 C 123.160156 85.921875 123.148438 85.945312 123.136719 85.984375 C 122.9375 86.441406 122.59375 86.738281 122.109375 86.933594 L 121.566406 87.121094 C 121.40625 87.167969 121.171875 87.242188 121.011719 87.292969 C 119.210938 87.847656 117.617188 88.242188 115.714844 88.859375 L 114.589844 89.269531 C 113.691406 89.613281 112.863281 90.035156 112.023438 90.476562 C 107.207031 93.550781 102.503906 99.738281 99.910156 104.578125 L 99.773438 104.851562 C 108.085938 106.640625 116.691406 107.617188 125.53125 107.640625 L 125.480469 78.957031 C 116.207031 78.910156 107.246094 77.539062 98.773438 75.019531 C 93.15625 82.8125 88.859375 91.613281 86.207031 101.109375 Z M 86.207031 101.109375 "/>
<path style=" stroke:none;fill-rule:nonzero;fill:rgb(12.54902%,24.313725%,43.137255%);fill-opacity:1;" d="M 169.644531 123.382812 C 169.644531 128.421875 169.203125 133.347656 168.351562 138.148438 C 177.671875 135.59375 186.660156 132.210938 195.230469 128.085938 C 195.625 115.578125 192.585938 103.429688 186.769531 92.785156 C 180.4375 96.316406 173.757812 99.332031 166.804688 101.726562 C 168.660156 108.640625 169.644531 115.898438 169.644531 123.382812 Z M 169.644531 123.382812 "/>
<path style=" stroke:none;fill-rule:nonzero;fill:rgb(12.54902%,24.313725%,43.137255%);fill-opacity:1;" d="M 135.496094 144.804688 C 139.53125 149.335938 142.605469 154.683594 145.988281 159.671875 L 147.222656 161.4375 C 147.902344 162.335938 148.707031 163.238281 149.65625 163.878906 C 149.742188 163.941406 149.78125 163.964844 149.867188 164.027344 C 150.25 164.300781 150.621094 164.535156 151.039062 164.730469 C 151.175781 164.792969 151.175781 164.804688 151.285156 164.855469 L 152.347656 165.3125 C 153.65625 165.757812 155.175781 166.054688 156.757812 166.175781 C 161.65625 158.066406 165.226562 149.050781 167.113281 139.457031 C 156.84375 142.175781 146.164062 143.878906 135.199219 144.507812 C 135.308594 144.605469 135.410156 144.707031 135.496094 144.804688 Z M 135.496094 144.804688 "/>
<path style=" stroke:none;fill-rule:nonzero;fill:rgb(12.54902%,24.313725%,43.137255%);fill-opacity:1;" d="M 165.90625 102.035156 C 153.507812 106.21875 140.25 108.515625 126.46875 108.578125 L 126.519531 138.902344 C 127.582031 139.261719 128.507812 139.71875 129.507812 140.222656 C 131.210938 141.285156 132.851562 142.308594 134.296875 143.605469 C 145.65625 143.015625 156.707031 141.261719 167.335938 138.433594 C 168.238281 133.554688 168.707031 128.53125 168.707031 123.394531 C 168.695312 116.011719 167.734375 108.851562 165.90625 102.035156 Z M 165.90625 102.035156 "/>
<path style=" stroke:none;fill-rule:nonzero;fill:rgb(12.54902%,24.313725%,43.137255%);fill-opacity:1;" d="M 82.21875 123.382812 C 82.21875 115.886719 83.207031 108.628906 85.058594 101.714844 C 78.105469 99.304688 71.4375 96.304688 65.105469 92.761719 C 62.710938 97.15625 60.746094 101.863281 59.300781 106.875 C 57.277344 113.949219 56.425781 121.085938 56.636719 128.0625 C 65.203125 132.1875 74.191406 135.570312 83.515625 138.136719 C 82.664062 133.347656 82.21875 128.421875 82.21875 123.382812 Z M 82.21875 123.382812 "/>
<path style=" stroke:none;fill-rule:nonzero;fill:rgb(12.54902%,24.313725%,43.137255%);fill-opacity:1;" d="M 166.558594 100.8125 C 173.4375 98.429688 180.042969 95.453125 186.300781 91.960938 C 181.449219 83.355469 174.769531 75.773438 166.609375 69.859375 C 162.570312 71.761719 158.375 73.402344 154.050781 74.734375 C 159.632812 82.539062 163.90625 91.34375 166.558594 100.8125 Z M 166.558594 100.8125 "/>
<path style=" stroke:none;fill-rule:nonzero;fill:rgb(12.54902%,24.313725%,43.137255%);fill-opacity:1;" d="M 90.207031 113.839844 C 90.6875 112.367188 91.144531 110.886719 91.761719 109.457031 L 94.144531 104.453125 C 91.378906 103.726562 88.652344 102.921875 85.972656 102.023438 C 84.15625 108.835938 83.179688 116 83.179688 123.382812 C 83.179688 128.519531 83.648438 133.53125 84.550781 138.410156 C 85.761719 138.730469 86.984375 139.027344 88.207031 139.324219 C 86.636719 130.582031 87.402344 122.457031 90.207031 113.839844 Z M 90.207031 113.839844 "/>
<path style=" stroke:none;fill-rule:nonzero;fill:rgb(12.54902%,24.313725%,43.137255%);fill-opacity:1;" d="M 99.144531 106.070312 C 98.664062 107.097656 98.230469 108.171875 97.824219 109.207031 C 97.464844 110.109375 97.195312 111.011719 96.910156 111.925781 L 96.738281 112.515625 C 95.097656 119.097656 94.996094 124.011719 96.046875 130.582031 C 97.726562 136.679688 99.6875 138.976562 106.46875 138.175781 C 109.269531 137.839844 112.824219 137.484375 115.652344 137.410156 L 117.046875 137.359375 C 119.148438 137.320312 120.738281 137.542969 122.753906 137.839844 C 123.726562 138.039062 124.640625 138.308594 125.566406 138.59375 L 125.519531 108.566406 C 116.53125 108.542969 107.777344 107.542969 99.332031 105.703125 Z M 99.144531 106.070312 "/>
<path style=" stroke:none;fill-rule:nonzero;fill:rgb(12.54902%,24.313725%,43.137255%);fill-opacity:1;" d="M 115.726562 186.117188 L 115.726562 183.363281 C 112.800781 182.636719 109.542969 181.957031 106.121094 181.414062 L 106.121094 184.226562 C 109.714844 184.734375 112.925781 185.414062 115.726562 186.117188 Z M 115.726562 186.117188 "/>
<path style=" stroke:none;fill-rule:nonzero;fill:rgb(12.54902%,24.313725%,43.137255%);fill-opacity:1;" d="M 159.375 183.253906 L 159.375 180.179688 C 155.484375 180.238281 151.535156 180.597656 147.730469 181.140625 L 147.730469 183.980469 C 151.285156 183.535156 155.1875 183.253906 159.375 183.253906 Z M 159.375 183.253906 "/>
<path style=" stroke:none;fill-rule:nonzero;fill:rgb(12.54902%,24.313725%,43.137255%);fill-opacity:1;" d="M 145.988281 184.226562 L 145.988281 181.414062 C 142.570312 181.957031 139.324219 182.636719 136.382812 183.363281 L 136.382812 186.117188 C 139.1875 185.414062 142.410156 184.734375 145.988281 184.226562 Z M 145.988281 184.226562 "/>
<path style=" stroke:none;fill-rule:nonzero;fill:rgb(12.54902%,24.313725%,43.137255%);fill-opacity:1;" d="M 177.957031 184.820312 L 179.3125 183.5625 C 177.957031 182.460938 174.042969 181.4375 171.375 180.945312 C 168.054688 180.328125 164.496094 180.191406 161.113281 180.164062 L 161.113281 183.265625 C 166.683594 183.4375 171.398438 184.265625 176.300781 186.253906 Z M 177.957031 184.820312 "/>
<path style=" stroke:none;fill-rule:nonzero;fill:rgb(12.54902%,24.313725%,43.137255%);fill-opacity:1;" d="M 126.828125 186.449219 L 126.828125 188.785156 C 126.828125 188.882812 126.9375 188.957031 127.039062 188.917969 C 127.46875 188.773438 128.125 188.535156 128.902344 188.289062 C 130.480469 187.773438 132.421875 187.167969 134.667969 186.5625 L 134.667969 183.808594 C 131.554688 184.648438 128.890625 185.523438 126.925781 186.316406 C 126.851562 186.339844 126.828125 186.386719 126.828125 186.449219 Z M 126.828125 186.449219 "/>
<path style=" stroke:none;fill-rule:nonzero;fill:rgb(12.54902%,24.313725%,43.137255%);fill-opacity:1;" d="M 125.199219 186.316406 C 123.222656 185.511719 120.566406 184.636719 117.457031 183.808594 L 117.457031 186.5625 C 119.714844 187.167969 121.652344 187.773438 123.222656 188.289062 C 124 188.550781 124.640625 188.773438 125.085938 188.917969 C 125.183594 188.957031 125.296875 188.882812 125.296875 188.785156 L 125.296875 186.449219 C 125.296875 186.386719 125.257812 186.339844 125.199219 186.316406 Z M 125.199219 186.316406 "/>
<path style=" stroke:none;fill-rule:nonzero;fill:rgb(12.54902%,24.313725%,43.137255%);fill-opacity:1;" d="M 126.023438 196.464844 L 126.097656 196.464844 C 126.136719 196.464844 126.171875 196.464844 126.210938 196.453125 C 126.40625 196.4375 126.605469 196.402344 126.789062 196.339844 C 129.804688 195.488281 132.507812 194.574219 134.421875 194.09375 C 149.039062 190.449219 154.582031 190.179688 168.929688 191.785156 C 170.746094 190.585938 172.4375 189.425781 174.089844 188.042969 C 172.808594 187.277344 169.78125 186.648438 168.1875 186.363281 C 166.660156 186.09375 164.855469 185.832031 162.941406 185.671875 C 160.597656 185.476562 150.988281 184.882812 139.878906 187.128906 C 136.445312 187.820312 132.988281 188.773438 129.382812 190.042969 C 128.949219 190.191406 127.0625 190.832031 126.074219 191.214844 L 126.050781 191.214844 C 125.0625 190.847656 123.171875 190.191406 122.742188 190.042969 C 119.136719 188.773438 115.664062 187.820312 112.246094 187.128906 C 101.132812 184.894531 91.527344 185.476562 89.179688 185.671875 C 87.269531 185.832031 85.464844 186.09375 83.933594 186.363281 C 82.339844 186.648438 79.316406 187.289062 78.03125 188.042969 C 79.6875 189.425781 81.390625 190.585938 83.191406 191.785156 C 97.539062 190.167969 103.085938 190.449219 117.703125 194.09375 C 119.617188 194.574219 122.320312 195.488281 125.332031 196.339844 C 125.53125 196.390625 125.714844 196.425781 125.914062 196.453125 C 125.949219 196.464844 125.988281 196.464844 126.023438 196.464844 Z M 126.023438 196.464844 "/>
<path style=" stroke:none;fill-rule:nonzero;fill:rgb(12.54902%,24.313725%,43.137255%);fill-opacity:1;" d="M 74.167969 184.820312 L 75.835938 186.265625 C 80.734375 184.265625 85.453125 183.449219 91.019531 183.277344 L 91.019531 180.179688 C 87.636719 180.203125 84.082031 180.339844 80.761719 180.957031 C 78.09375 181.449219 74.179688 182.476562 72.820312 183.574219 Z M 74.167969 184.820312 "/>
<path style=" stroke:none;fill-rule:nonzero;fill:rgb(12.54902%,24.313725%,43.137255%);fill-opacity:1;" d="M 104.394531 183.992188 L 104.394531 181.152344 C 100.589844 180.609375 96.625 180.253906 92.738281 180.191406 L 92.738281 183.265625 C 96.921875 183.253906 100.824219 183.535156 104.394531 183.992188 Z M 104.394531 183.992188 "/>
<path style=" stroke:none;fill-rule:nonzero;fill:rgb(12.54902%,24.313725%,43.137255%);fill-opacity:1;" d="M 67.671875 175.671875 C 67.253906 175.796875 66.746094 175.941406 66.5625 176.351562 C 66.449219 176.609375 66.511719 176.929688 66.820312 177.3125 C 67.980469 178.722656 69.242188 180.105469 70.613281 181.4375 C 85.648438 174.523438 108.269531 177.414062 123.566406 183.054688 C 124.753906 183.488281 125.273438 183.585938 125.914062 183.597656 L 126.199219 183.597656 C 126.839844 183.574219 127.359375 183.488281 128.542969 183.054688 C 143.839844 177.414062 166.460938 174.523438 181.5 181.4375 C 182.859375 180.105469 184.128906 178.734375 185.289062 177.3125 C 185.585938 176.929688 185.660156 176.621094 185.550781 176.351562 C 185.363281 175.941406 184.859375 175.796875 184.4375 175.671875 C 182.609375 175.152344 180.855469 174.695312 179.164062 174.300781 C 190.773438 161.535156 197.859375 144.59375 197.859375 125.988281 C 197.859375 89.429688 170.546875 59.265625 135.222656 54.746094 C 135.074219 54.722656 134.925781 54.710938 134.777344 54.683594 C 133.851562 54.574219 132.9375 54.472656 132 54.402344 C 131.605469 54.363281 131.210938 54.339844 130.816406 54.3125 C 130.113281 54.265625 129.394531 54.226562 128.691406 54.203125 C 128.109375 54.179688 127.53125 54.164062 126.949219 54.152344 C 126.628906 54.152344 126.320312 54.128906 126.011719 54.128906 C 125.742188 54.128906 125.46875 54.140625 125.210938 54.152344 C 124.566406 54.164062 123.925781 54.179688 123.296875 54.203125 C 122.714844 54.226562 122.136719 54.253906 121.554688 54.289062 C 120.988281 54.328125 120.417969 54.375 119.851562 54.414062 C 119.171875 54.472656 118.503906 54.535156 117.828125 54.609375 C 117.40625 54.660156 117 54.710938 116.578125 54.769531 C 115.753906 54.882812 114.9375 54.992188 114.109375 55.128906 C 113.886719 55.164062 113.664062 55.203125 113.441406 55.253906 C 112.441406 55.425781 111.457031 55.621094 110.46875 55.832031 C 110.441406 55.832031 110.429688 55.84375 110.40625 55.84375 C 102.441406 57.609375 94.972656 60.683594 88.242188 64.859375 C 88.007812 65.007812 87.785156 65.15625 87.550781 65.300781 C 86.871094 65.734375 86.195312 66.167969 85.527344 66.625 C 84.886719 67.066406 84.242188 67.523438 83.613281 67.980469 C 83.378906 68.15625 83.144531 68.316406 82.910156 68.488281 C 70.746094 77.5625 61.339844 90.515625 56.84375 106.183594 C 49.941406 130.234375 56.054688 155.953125 72.761719 174.339844 C 71.128906 174.734375 69.4375 175.164062 67.671875 175.671875 Z M 55.660156 125.988281 C 55.660156 87.207031 87.21875 55.648438 126 55.648438 C 164.78125 55.648438 196.339844 87.207031 196.339844 125.988281 C 196.339844 144.496094 189.140625 161.335938 177.414062 173.90625 C 177.015625 173.820312 176.609375 173.734375 176.214844 173.660156 C 183.648438 165.832031 189.363281 156.164062 192.550781 145.074219 C 194.070312 139.777344 194.90625 134.445312 195.15625 129.160156 C 186.535156 133.273438 177.511719 136.644531 168.140625 139.1875 C 166.289062 148.902344 162.746094 158.015625 157.84375 166.238281 C 160.460938 166.300781 163.113281 165.832031 165.027344 164.609375 C 168.917969 162.128906 169.214844 157.582031 167.523438 153.742188 C 166.867188 152.25 165.757812 150.84375 165.757812 150.855469 C 176.3125 159.816406 169.757812 169.878906 158.558594 172.164062 C 158.003906 172.277344 157.433594 172.386719 156.855469 172.449219 C 155.175781 172.621094 154.570312 172.632812 152.707031 172.621094 C 152.3125 172.621094 151.679688 172.585938 151.285156 172.558594 C 147.792969 172.3125 144.445312 171.5 141.371094 169.695312 L 140.46875 169.175781 C 140.347656 169.101562 140.273438 169.078125 140.160156 169.015625 L 139.570312 168.671875 C 139.371094 168.546875 139.199219 168.4375 138.988281 168.3125 C 136.53125 166.78125 135.839844 165.597656 135.816406 168.472656 C 135.816406 169.140625 136.027344 169.71875 136.273438 170.3125 L 136.988281 171.90625 C 137.394531 172.757812 137.828125 173.585938 138.101562 174.484375 C 138.148438 174.660156 138.148438 174.660156 138.1875 174.855469 C 138.199219 174.894531 138.199219 174.929688 138.210938 174.96875 C 136.0625 175.449219 133.925781 176.003906 131.804688 176.632812 C 131.1875 176.660156 130.457031 176.695312 130.136719 176.191406 C 129.914062 175.84375 129.59375 174.042969 129.46875 173.648438 C 129.246094 172.957031 129.050781 172.25 128.765625 171.585938 L 128.714844 171.472656 C 128.703125 171.460938 128.691406 171.410156 128.691406 171.398438 C 128.65625 171.3125 128.679688 171.363281 128.628906 171.265625 C 128.566406 171.140625 128.542969 171.066406 128.480469 170.941406 C 128.40625 170.792969 128.257812 170.5 128.160156 170.335938 L 127.617188 169.484375 C 127.199219 168.832031 126.703125 168.238281 126.210938 167.632812 C 126.125 167.535156 126.085938 167.472656 126 167.375 L 124.46875 165.632812 C 124.320312 165.449219 124.160156 165.347656 124 165.164062 C 123.816406 164.964844 123.742188 164.867188 123.542969 164.683594 C 122.742188 163.917969 121.371094 162.804688 120.296875 162.300781 C 120.34375 162.460938 120.753906 162.71875 120.902344 162.84375 C 121 162.917969 121.011719 162.917969 121.109375 162.992188 C 121.257812 163.113281 121.371094 163.238281 121.519531 163.363281 C 122.34375 164.054688 123.050781 164.84375 123.777344 165.609375 C 123.875 165.71875 124.011719 165.878906 124.109375 166.003906 C 124.199219 166.113281 124.199219 166.140625 124.296875 166.238281 C 125.53125 167.546875 127.605469 170.867188 128.039062 172.546875 L 128.183594 173.164062 C 128.285156 173.648438 128.480469 174.660156 128.085938 174.980469 C 127.640625 175.351562 126.085938 175.203125 125.273438 175.203125 C 124.40625 175.203125 122.960938 175.289062 122.171875 175.203125 C 121.46875 175.128906 120.753906 174.375 120.949219 173.449219 C 120.976562 173.351562 121.109375 172.78125 121.148438 172.585938 C 121.578125 169.734375 121.40625 164.375 119.457031 162.730469 C 118.332031 161.792969 117.0625 163.175781 116.542969 164.039062 L 116.160156 164.746094 C 115.8125 165.484375 115.617188 166.214844 115.445312 167.003906 C 115.023438 168.90625 115.222656 173.089844 115.023438 175.214844 C 112.53125 174.621094 110.023438 174.128906 107.492188 173.722656 C 107.640625 170.96875 108.058594 169.042969 106.578125 165.941406 C 106.109375 165.066406 104.972656 163.804688 104.207031 163.089844 L 102.800781 161.84375 C 102.789062 161.832031 102.777344 161.832031 102.777344 161.816406 L 100.714844 160.175781 C 100.464844 159.980469 99.898438 159.484375 99.640625 159.421875 L 101.554688 161.300781 C 101.628906 161.375 101.664062 161.410156 101.738281 161.484375 L 102.515625 162.261719 C 102.527344 162.273438 102.527344 162.289062 102.539062 162.289062 L 102.613281 162.375 C 102.628906 162.386719 102.628906 162.398438 102.640625 162.398438 C 103.121094 162.941406 103.652344 163.421875 104.121094 163.980469 C 104.578125 164.523438 105.085938 165.039062 105.441406 165.660156 C 105.835938 166.335938 106.058594 166.96875 106.292969 167.78125 C 106.601562 168.894531 106.726562 171.769531 106.542969 173.558594 C 104.246094 173.214844 101.921875 172.929688 99.578125 172.734375 C 99.121094 172.695312 98.675781 172.660156 98.230469 172.632812 C 91.121094 162.855469 86.058594 151.496094 83.699219 139.1875 C 74.328125 136.644531 65.289062 133.261719 56.660156 129.148438 C 57.425781 145.914062 64.300781 161.730469 75.660156 173.722656 C 75.304688 173.792969 74.945312 173.867188 74.585938 173.941406 C 62.871094 161.363281 55.660156 144.507812 55.660156 125.988281 Z M 55.660156 125.988281 "/>
<path style=" stroke:none;fill-rule:nonzero;fill:rgb(12.54902%,24.313725%,43.137255%);fill-opacity:1;" d="M 111.554688 230.8125 C 110.800781 231.640625 109.875 232.332031 108.789062 232.875 L 108.601562 232.960938 L 108.332031 235.011719 L 108.949219 234.738281 C 109.542969 234.480469 110.085938 234.207031 110.554688 233.910156 L 109.480469 242 L 111.480469 242.257812 L 113 230.835938 L 111.675781 230.664062 Z M 111.554688 230.8125 "/>
<path style=" stroke:none;fill-rule:nonzero;fill:rgb(12.54902%,24.313725%,43.137255%);fill-opacity:1;" d="M 123.445312 232.664062 C 123.085938 232.28125 122.679688 231.984375 122.234375 231.777344 C 121.777344 231.566406 121.332031 231.453125 120.886719 231.441406 C 120.457031 231.417969 119.960938 231.492188 119.40625 231.640625 C 118.839844 231.800781 118.332031 232.097656 117.925781 232.527344 C 117.519531 232.949219 117.195312 233.492188 116.988281 234.132812 C 116.777344 234.789062 116.726562 235.527344 116.851562 236.332031 C 116.972656 237.195312 117.417969 237.898438 118.171875 238.429688 C 118.753906 238.839844 119.46875 239.046875 120.308594 239.058594 C 119.726562 240.121094 119.023438 241.28125 118.210938 242.519531 L 117.839844 243.074219 L 120.097656 243.171875 L 120.222656 242.988281 C 121.976562 240.320312 123.085938 238.53125 123.554688 237.664062 C 124.050781 236.75 124.296875 236 124.320312 235.382812 C 124.34375 234.777344 124.308594 234.269531 124.183594 233.875 C 124.050781 233.46875 123.800781 233.058594 123.445312 232.664062 Z M 121.988281 236.085938 C 121.742188 236.515625 121.503906 236.824219 121.269531 236.984375 C 121.050781 237.132812 120.738281 237.222656 120.359375 237.246094 C 119.988281 237.257812 119.691406 237.121094 119.382812 236.824219 C 119.074219 236.515625 118.902344 236.148438 118.875 235.703125 C 118.839844 235.234375 118.9375 234.777344 119.160156 234.355469 C 119.371094 233.949219 119.617188 233.703125 119.9375 233.578125 C 120.222656 233.480469 120.417969 233.441406 120.578125 233.441406 C 120.652344 233.441406 120.714844 233.453125 120.765625 233.453125 C 121.097656 233.46875 121.382812 233.601562 121.667969 233.851562 C 121.9375 234.097656 122.097656 234.394531 122.148438 234.738281 C 122.195312 235.109375 122.136719 235.589844 121.988281 236.085938 Z M 121.988281 236.085938 "/>
<path style=" stroke:none;fill-rule:nonzero;fill:rgb(12.54902%,24.313725%,43.137255%);fill-opacity:1;" d="M 133.199219 236.53125 C 132.914062 236.074219 132.46875 235.726562 131.890625 235.480469 C 130.976562 235.109375 130.023438 235 128.976562 235.34375 C 129.085938 234.863281 129.183594 234.292969 129.285156 233.652344 L 133.347656 233.492188 L 133.273438 231.601562 L 127.640625 231.824219 L 127.59375 232.132812 C 126.875 236.28125 126.667969 237.34375 126.628906 237.515625 L 126.492188 237.960938 L 128.246094 238.097656 L 128.371094 237.914062 C 128.640625 237.515625 128.976562 237.257812 129.40625 237.148438 C 129.851562 237.023438 130.257812 237 130.617188 237.097656 C 130.964844 237.183594 131.234375 237.367188 131.46875 237.675781 C 131.703125 237.984375 131.839844 238.355469 131.878906 238.824219 C 131.914062 239.308594 131.851562 239.75 131.703125 240.132812 C 131.554688 240.503906 131.308594 240.8125 130.949219 241.046875 C 130.605469 241.28125 130.125 241.355469 129.507812 241.269531 C 128.964844 241.195312 128.53125 240.679688 128.246094 239.726562 L 128.136719 239.355469 L 126.308594 239.9375 L 126.394531 240.28125 C 126.667969 241.371094 127.136719 242.136719 127.789062 242.578125 C 128.433594 243.011719 129.113281 243.246094 129.804688 243.257812 C 129.851562 243.257812 129.902344 243.257812 129.964844 243.257812 C 130.582031 243.257812 131.136719 243.148438 131.617188 242.9375 C 132.136719 242.714844 132.570312 242.417969 132.925781 242.0625 C 133.285156 241.691406 133.554688 241.234375 133.730469 240.691406 C 133.890625 240.171875 133.964844 239.664062 133.976562 239.160156 C 133.976562 238.664062 133.914062 238.195312 133.777344 237.777344 C 133.65625 237.367188 133.457031 236.9375 133.199219 236.53125 Z M 133.199219 236.53125 "/>
<path style=" stroke:none;fill-rule:nonzero;fill:rgb(12.54902%,24.313725%,43.137255%);fill-opacity:1;" d="M 143.605469 236.046875 C 143.273438 235.527344 142.71875 235.109375 141.941406 234.800781 C 141.347656 234.554688 140.644531 234.527344 139.828125 234.726562 L 141.839844 230.46875 L 139.519531 230.761719 L 137.382812 235.257812 C 137.085938 235.9375 136.867188 236.503906 136.730469 236.960938 C 136.582031 237.441406 136.53125 238.011719 136.570312 238.652344 C 136.605469 239.308594 136.792969 239.972656 137.125 240.628906 C 137.46875 241.320312 138.011719 241.824219 138.742188 242.136719 C 139.210938 242.332031 139.730469 242.429688 140.285156 242.429688 C 140.582031 242.429688 140.878906 242.40625 141.199219 242.34375 C 142.125 242.183594 142.839844 241.8125 143.324219 241.257812 C 143.78125 240.714844 144.089844 240.121094 144.210938 239.503906 C 144.335938 238.898438 144.359375 238.296875 144.261719 237.691406 C 144.136719 237.085938 143.925781 236.542969 143.605469 236.046875 Z M 141.851562 239.863281 C 141.570312 240.269531 141.175781 240.492188 140.667969 240.515625 C 140.136719 240.542969 139.703125 240.429688 139.359375 240.132812 C 139 239.839844 138.777344 239.457031 138.679688 238.949219 C 138.582031 238.417969 138.617188 237.925781 138.816406 237.40625 C 138.988281 236.949219 139.324219 236.664062 139.839844 236.53125 C 140.050781 236.480469 140.25 236.441406 140.445312 236.441406 C 140.765625 236.441406 141.0625 236.515625 141.359375 236.652344 C 141.792969 236.863281 142.050781 237.320312 142.148438 238.058594 C 142.25 238.824219 142.148438 239.429688 141.851562 239.863281 Z M 141.851562 239.863281 "/>
<path style=" stroke:none;fill-rule:nonzero;fill:rgb(12.54902%,24.313725%,43.137255%);fill-opacity:1;" d="M 29.164062 133.0625 C 29.238281 134.1875 29.570312 135.050781 30.175781 135.679688 C 30.769531 136.308594 31.535156 136.59375 32.449219 136.53125 C 32.621094 136.519531 32.832031 136.496094 33.066406 136.457031 L 33.289062 135.261719 C 32.878906 135.347656 32.582031 135.394531 32.375 135.410156 C 31.71875 135.457031 31.164062 135.308594 30.707031 134.976562 C 30.25 134.644531 30.003906 134.199219 29.964844 133.65625 C 29.878906 132.332031 31.101562 131.582031 33.644531 131.40625 C 36.609375 131.210938 38.128906 131.691406 38.214844 132.878906 C 38.289062 134 37.632812 134.605469 36.238281 134.691406 C 36.089844 134.703125 35.867188 134.703125 35.597656 134.71875 L 36.214844 135.851562 C 38.175781 135.71875 39.089844 134.628906 38.953125 132.582031 C 38.867188 131.273438 38.324219 130.234375 37.335938 129.480469 C 36.347656 128.730469 35.113281 128.40625 33.609375 128.507812 C 30.460938 128.753906 28.976562 130.257812 29.164062 133.0625 Z M 29.164062 133.0625 "/>
<path style=" stroke:none;fill-rule:nonzero;fill:rgb(12.54902%,24.313725%,43.137255%);fill-opacity:1;" d="M 31.3125 147.148438 L 40.632812 145.457031 L 40.152344 142.753906 L 36.398438 143.433594 L 35.992188 141.222656 L 39.746094 140.542969 L 39.261719 137.839844 L 29.929688 139.53125 L 30.421875 142.234375 L 35.066406 141.398438 L 35.460938 143.605469 L 30.816406 144.445312 Z M 31.3125 147.148438 "/>
<path style=" stroke:none;fill-rule:nonzero;fill:rgb(12.54902%,24.313725%,43.137255%);fill-opacity:1;" d="M 34.941406 156.632812 L 33.816406 152.816406 L 37.421875 151.753906 L 38.226562 154.496094 L 39.140625 154.226562 L 38.335938 151.496094 L 41.089844 150.679688 L 42.042969 153.941406 L 42.953125 153.683594 L 41.226562 147.78125 L 32.140625 150.445312 L 34.027344 156.890625 Z M 34.941406 156.632812 "/>
<path style=" stroke:none;fill-rule:nonzero;fill:rgb(12.54902%,24.313725%,43.137255%);fill-opacity:1;" d="M 37.511719 165.769531 L 46.289062 162.1875 L 45.941406 161.335938 L 39.941406 163.78125 L 44.3125 157.335938 L 43.660156 155.71875 L 34.878906 159.300781 L 35.226562 160.152344 L 40.78125 157.890625 L 36.71875 163.820312 Z M 37.511719 165.769531 "/>
<path style=" stroke:none;fill-rule:nonzero;fill:rgb(12.54902%,24.313725%,43.137255%);fill-opacity:1;" d="M 42.558594 175.511719 L 47.066406 173.078125 L 45.214844 169.644531 L 44.375 170.101562 L 45.027344 171.300781 L 42.980469 172.410156 C 42.3125 172.769531 41.820312 172.660156 41.496094 172.054688 C 41.226562 171.546875 41.277344 171.066406 41.660156 170.632812 C 42.042969 170.191406 42.894531 169.621094 44.214844 168.894531 C 45.632812 168.128906 46.671875 167.707031 47.3125 167.660156 C 47.957031 167.597656 48.4375 167.878906 48.769531 168.484375 C 49.214844 169.3125 48.980469 170.042969 48.03125 170.644531 L 47.585938 170.90625 L 47.386719 171.015625 L 48.523438 171.867188 C 49.917969 170.683594 50.191406 169.324219 49.363281 167.78125 C 48.734375 166.609375 47.820312 165.878906 46.621094 165.597656 C 45.425781 165.3125 44.164062 165.523438 42.855469 166.226562 C 41.511719 166.953125 40.660156 167.855469 40.289062 168.941406 C 39.917969 170.027344 40.066406 171.175781 40.730469 172.410156 C 41.140625 173.164062 41.757812 173.746094 42.597656 174.152344 L 42.164062 174.722656 Z M 42.558594 175.511719 "/>
<path style=" stroke:none;fill-rule:nonzero;fill:rgb(12.54902%,24.313725%,43.137255%);fill-opacity:1;" d="M 52.746094 182.140625 C 55.339844 180.328125 55.84375 178.277344 54.253906 175.992188 L 52.003906 172.769531 L 44.226562 178.191406 L 46.386719 181.289062 C 48.03125 183.660156 50.152344 183.945312 52.746094 182.140625 Z M 52.929688 175.472656 L 53.339844 176.066406 C 53.722656 176.609375 53.746094 177.152344 53.425781 177.683594 C 53.105469 178.214844 52.324219 178.90625 51.105469 179.769531 C 49.882812 180.621094 48.957031 181.117188 48.339844 181.226562 C 47.722656 181.351562 47.226562 181.128906 46.84375 180.585938 L 46.4375 179.992188 Z M 52.929688 175.472656 "/>
<path style=" stroke:none;fill-rule:nonzero;fill:rgb(12.54902%,24.313725%,43.137255%);fill-opacity:1;" d="M 57.785156 190.488281 L 62.574219 186.300781 L 61.96875 185.609375 L 57.179688 189.796875 C 56.054688 190.785156 55.078125 190.808594 54.253906 189.871094 C 53.832031 189.390625 53.648438 188.957031 53.722656 188.574219 C 53.796875 188.191406 54.140625 187.734375 54.769531 187.179688 L 59.625 182.929688 L 57.808594 180.855469 L 53.015625 185.042969 C 51.375 186.476562 51.351562 188.105469 52.929688 189.90625 C 54.523438 191.734375 56.140625 191.933594 57.785156 190.488281 Z M 57.785156 190.488281 "/>
<path style=" stroke:none;fill-rule:nonzero;fill:rgb(12.54902%,24.313725%,43.137255%);fill-opacity:1;" d="M 64.539062 201.15625 C 66.402344 202.6875 68.03125 202.601562 69.414062 200.921875 L 73.4375 195.996094 L 72.722656 195.414062 L 68.699219 200.339844 C 67.746094 201.5 66.796875 201.6875 65.820312 200.894531 C 65.328125 200.488281 65.082031 200.09375 65.09375 199.699219 C 65.105469 199.316406 65.363281 198.796875 65.894531 198.15625 L 69.980469 193.167969 L 67.859375 191.425781 L 63.832031 196.351562 C 62.449219 198.019531 62.683594 199.625 64.539062 201.15625 Z M 64.539062 201.15625 "/>
<path style=" stroke:none;fill-rule:nonzero;fill:rgb(12.54902%,24.313725%,43.137255%);fill-opacity:1;" d="M 74.082031 200.699219 L 74.105469 207.882812 L 75.871094 209.046875 L 81.070312 201.117188 L 80.292969 200.601562 L 76.734375 206.019531 L 76.675781 198.242188 L 75.21875 197.277344 L 70.019531 205.21875 L 70.796875 205.722656 Z M 74.082031 200.699219 "/>
<path style=" stroke:none;fill-rule:nonzero;fill:rgb(12.54902%,24.313725%,43.137255%);fill-opacity:1;" d="M 78.683594 210.605469 L 83.203125 202.269531 L 85.625 203.582031 L 81.105469 211.917969 Z M 78.683594 210.605469 "/>
<path style=" stroke:none;fill-rule:nonzero;fill:rgb(12.54902%,24.313725%,43.137255%);fill-opacity:1;" d="M 94.070312 207.527344 L 93.132812 207.105469 L 88.34375 212.847656 L 89.550781 205.515625 L 87.007812 204.390625 L 85.453125 214.070312 L 87.710938 215.070312 Z M 94.070312 207.527344 "/>
<path style=" stroke:none;fill-rule:nonzero;fill:rgb(12.54902%,24.313725%,43.137255%);fill-opacity:1;" d="M 101.023438 210.886719 L 101.332031 209.972656 L 95.492188 208.03125 L 92.492188 217.019531 L 98.875 219.15625 L 99.171875 218.257812 L 95.40625 216.996094 L 96.589844 213.429688 L 99.304688 214.328125 L 99.601562 213.429688 L 96.898438 212.527344 L 97.800781 209.8125 Z M 101.023438 210.886719 "/>
<path style=" stroke:none;fill-rule:nonzero;fill:rgb(12.54902%,24.313725%,43.137255%);fill-opacity:1;" d="M 108.972656 219.355469 C 109.097656 218.464844 109.085938 217.847656 108.949219 217.503906 C 108.8125 217.15625 108.429688 216.773438 107.8125 216.378906 C 109.21875 216.328125 110.046875 215.75 110.292969 214.625 C 110.457031 213.898438 110.28125 213.242188 109.75 212.664062 C 109.234375 212.09375 108.453125 211.6875 107.417969 211.464844 L 103.441406 210.589844 L 101.394531 219.847656 L 104.070312 220.441406 L 105.058594 215.996094 L 105.515625 216.09375 C 106.378906 216.28125 106.691406 216.910156 106.453125 217.984375 L 106.320312 218.675781 L 106.207031 219.230469 C 106.058594 219.875 106.035156 220.429688 106.132812 220.898438 L 109.046875 221.539062 C 108.851562 221.144531 108.835938 220.417969 108.972656 219.355469 Z M 107.652344 214.082031 C 107.417969 215.144531 106.789062 215.5625 105.777344 215.34375 L 105.234375 215.21875 L 105.9375 212.03125 L 106.480469 212.15625 C 107.492188 212.378906 107.886719 213.019531 107.652344 214.082031 Z M 107.652344 214.082031 "/>
<path style=" stroke:none;fill-rule:nonzero;fill:rgb(12.54902%,24.313725%,43.137255%);fill-opacity:1;" d="M 118.789062 219.910156 C 118.960938 218.390625 117.960938 217.109375 115.789062 216.070312 C 114.664062 215.527344 114.132812 214.984375 114.195312 214.417969 C 114.28125 213.664062 114.851562 213.34375 115.898438 213.464844 C 117.234375 213.613281 117.839844 214.242188 117.714844 215.328125 C 117.691406 215.503906 117.640625 215.710938 117.554688 215.960938 L 118.851562 215.871094 C 119.0625 214.007812 118.136719 212.960938 116.0625 212.722656 C 115.046875 212.613281 114.207031 212.773438 113.53125 213.230469 C 112.851562 213.675781 112.46875 214.328125 112.367188 215.167969 C 112.195312 216.664062 113 217.859375 114.777344 218.75 C 116.011719 219.367188 116.589844 219.996094 116.519531 220.613281 C 116.417969 221.453125 115.839844 221.8125 114.765625 221.699219 C 113.429688 221.550781 112.824219 220.886719 112.949219 219.726562 C 112.988281 219.429688 113.074219 219.082031 113.222656 218.699219 L 111.875 218.835938 C 111.824219 219.046875 111.800781 219.230469 111.777344 219.378906 C 111.566406 221.183594 112.640625 222.21875 114.972656 222.492188 C 116.023438 222.613281 116.898438 222.441406 117.605469 221.972656 C 118.296875 221.492188 118.691406 220.800781 118.789062 219.910156 Z M 118.789062 219.910156 "/>
<path style=" stroke:none;fill-rule:nonzero;fill:rgb(12.54902%,24.313725%,43.137255%);fill-opacity:1;" d="M 121.269531 222.816406 L 121.589844 213.339844 L 124.34375 213.433594 L 124.023438 222.910156 Z M 121.269531 222.816406 "/>
<path style=" stroke:none;fill-rule:nonzero;fill:rgb(12.54902%,24.313725%,43.137255%);fill-opacity:1;" d="M 128.640625 222.898438 L 131.554688 222.773438 L 131.210938 214.253906 L 133.53125 214.15625 L 133.496094 213.207031 L 125.914062 213.527344 L 125.949219 214.476562 L 128.296875 214.378906 Z M 128.640625 222.898438 "/>
<path style=" stroke:none;fill-rule:nonzero;fill:rgb(12.54902%,24.313725%,43.137255%);fill-opacity:1;" d="M 137.804688 222.21875 L 140.519531 221.859375 L 140.0625 218.390625 L 141.558594 212.15625 L 140.46875 212.304688 L 139.359375 217.058594 L 136.828125 212.785156 L 134 213.167969 L 137.335938 218.75 Z M 137.804688 222.21875 "/>
<path style=" stroke:none;fill-rule:nonzero;fill:rgb(12.54902%,24.313725%,43.137255%);fill-opacity:1;" d="M 151.65625 209.453125 C 148.914062 210.292969 148.015625 212.230469 148.953125 215.292969 C 149.929688 218.492188 151.769531 219.675781 154.445312 218.847656 C 157.140625 218.019531 158.003906 216.058594 157.039062 212.921875 C 156.089844 209.796875 154.300781 208.636719 151.65625 209.453125 Z M 154.226562 218.121094 C 153.730469 218.269531 153.3125 218.09375 152.964844 217.613281 C 152.621094 217.121094 152.210938 216.09375 151.742188 214.550781 C 151.273438 212.996094 151.039062 211.921875 151.039062 211.328125 C 151.050781 210.722656 151.296875 210.355469 151.792969 210.207031 C 152.285156 210.058594 152.707031 210.230469 153.050781 210.722656 C 153.398438 211.21875 153.804688 212.242188 154.273438 213.785156 C 154.742188 215.34375 154.976562 216.417969 154.976562 217.007812 C 154.976562 217.601562 154.730469 217.972656 154.226562 218.121094 Z M 154.226562 218.121094 "/>
<path style=" stroke:none;fill-rule:nonzero;fill:rgb(12.54902%,24.313725%,43.137255%);fill-opacity:1;" d="M 164.3125 209.242188 L 161.621094 210.378906 L 160.386719 207.464844 L 163.558594 206.117188 L 163.1875 205.242188 L 157.484375 207.648438 L 161.175781 216.390625 L 163.707031 215.316406 L 161.992188 211.242188 L 164.683594 210.121094 Z M 164.3125 209.242188 "/>
<path style=" stroke:none;fill-rule:nonzero;fill:rgb(12.54902%,24.313725%,43.137255%);fill-opacity:1;" d="M 169.027344 203.328125 L 171.027344 202.105469 L 175.5 209.367188 L 177.980469 207.835938 L 173.511719 200.574219 L 175.488281 199.351562 L 174.992188 198.550781 L 168.535156 202.527344 Z M 169.027344 203.328125 "/>
<path style=" stroke:none;fill-rule:nonzero;fill:rgb(12.54902%,24.313725%,43.137255%);fill-opacity:1;" d="M 187.289062 201.191406 L 186.710938 200.4375 L 183.535156 202.824219 L 181.277344 199.820312 L 183.5625 198.105469 L 182.980469 197.339844 L 180.710938 199.070312 L 178.980469 196.773438 L 181.683594 194.734375 L 181.117188 193.96875 L 176.214844 197.671875 L 181.917969 205.242188 Z M 187.289062 201.191406 "/>
<path style=" stroke:none;fill-rule:nonzero;fill:rgb(12.54902%,24.313725%,43.137255%);fill-opacity:1;" d="M 192.167969 197.054688 C 192.996094 196.289062 193.464844 195.488281 193.574219 194.625 C 193.6875 193.773438 193.4375 192.996094 192.808594 192.328125 C 192.683594 192.203125 192.539062 192.054688 192.363281 191.882812 L 191.289062 192.449219 C 191.613281 192.710938 191.847656 192.921875 191.980469 193.066406 C 192.425781 193.550781 192.660156 194.070312 192.683594 194.636719 C 192.710938 195.203125 192.523438 195.671875 192.128906 196.042969 C 191.15625 196.945312 189.808594 196.453125 188.066406 194.585938 C 186.054688 192.414062 185.476562 190.921875 186.351562 190.105469 C 187.179688 189.339844 188.054688 189.476562 189.007812 190.5 C 189.105469 190.609375 189.253906 190.773438 189.425781 190.992188 L 189.917969 189.796875 C 188.585938 188.351562 187.152344 188.316406 185.648438 189.710938 C 184.683594 190.597656 184.214844 191.671875 184.253906 192.90625 C 184.289062 194.15625 184.808594 195.316406 185.832031 196.425781 C 187.992188 198.761719 190.105469 198.957031 192.167969 197.054688 Z M 192.167969 197.054688 "/>
<path style=" stroke:none;fill-rule:nonzero;fill:rgb(12.54902%,24.313725%,43.137255%);fill-opacity:1;" d="M 199.984375 188.636719 L 201.785156 186.5625 L 194.625 180.351562 L 192.820312 182.425781 L 195.710938 184.917969 L 194.242188 186.609375 L 191.351562 184.117188 L 189.550781 186.191406 L 196.710938 192.402344 L 198.511719 190.328125 L 194.957031 187.242188 L 196.425781 185.550781 Z M 199.984375 188.636719 "/>
<path style=" stroke:none;fill-rule:nonzero;fill:rgb(12.54902%,24.313725%,43.137255%);fill-opacity:1;" d="M 207.796875 178.140625 L 200.007812 172.757812 L 199.476562 173.511719 L 204.808594 177.203125 L 197.019531 177.066406 L 196.03125 178.5 L 203.835938 183.894531 L 204.351562 183.128906 L 199.414062 179.722656 L 206.601562 179.871094 Z M 207.796875 178.140625 "/>
<path style=" stroke:none;fill-rule:nonzero;fill:rgb(12.54902%,24.313725%,43.137255%);fill-opacity:1;" d="M 211.515625 172.015625 C 212.847656 169.546875 212.082031 167.535156 209.207031 165.980469 C 206.328125 164.421875 204.230469 164.867188 202.921875 167.300781 C 201.5625 169.820312 202.292969 171.832031 205.105469 173.351562 C 208.046875 174.929688 210.179688 174.484375 211.515625 172.015625 Z M 203.808594 169.054688 C 203.390625 168.621094 203.304688 168.175781 203.550781 167.71875 C 203.796875 167.261719 204.21875 167.089844 204.808594 167.203125 C 205.402344 167.3125 206.414062 167.757812 207.835938 168.523438 C 209.265625 169.289062 210.179688 169.894531 210.601562 170.324219 C 211.019531 170.757812 211.105469 171.203125 210.859375 171.660156 C 210.613281 172.117188 210.195312 172.289062 209.601562 172.175781 C 209.007812 172.066406 208.007812 171.621094 206.574219 170.855469 C 205.144531 170.078125 204.230469 169.484375 203.808594 169.054688 Z M 203.808594 169.054688 "/>
<path style=" stroke:none;fill-rule:nonzero;fill:rgb(12.54902%,24.313725%,43.137255%);fill-opacity:1;" d="M 217.121094 159.359375 L 216.242188 159.003906 L 214.75 162.597656 L 206.871094 159.347656 L 205.824219 161.890625 L 214.589844 165.511719 Z M 217.121094 159.359375 "/>
<path style=" stroke:none;fill-rule:nonzero;fill:rgb(12.54902%,24.313725%,43.137255%);fill-opacity:1;" d="M 219.121094 153.570312 C 219.921875 150.878906 218.75 149.0625 215.613281 148.136719 C 212.476562 147.210938 210.515625 148.078125 209.738281 150.71875 C 208.921875 153.460938 210.046875 155.285156 213.121094 156.1875 C 216.316406 157.140625 218.328125 156.273438 219.121094 153.570312 Z M 214.046875 153.460938 C 212.488281 153.003906 211.464844 152.609375 210.972656 152.261719 C 210.476562 151.929688 210.304688 151.507812 210.453125 151.015625 C 210.601562 150.519531 210.972656 150.261719 211.578125 150.25 C 212.179688 150.238281 213.253906 150.460938 214.796875 150.917969 C 216.355469 151.371094 217.378906 151.769531 217.875 152.113281 C 218.367188 152.445312 218.539062 152.867188 218.390625 153.359375 C 218.242188 153.855469 217.875 154.113281 217.269531 154.125 C 216.675781 154.136719 215.601562 153.917969 214.046875 153.460938 Z M 214.046875 153.460938 "/>
<path style=" stroke:none;fill-rule:nonzero;fill:rgb(12.54902%,24.313725%,43.137255%);fill-opacity:1;" d="M 222.144531 139.039062 L 217.109375 138.148438 L 216.429688 141.988281 L 217.367188 142.148438 L 217.601562 140.804688 L 219.898438 141.210938 C 220.652344 141.347656 220.960938 141.742188 220.835938 142.410156 C 220.738281 142.976562 220.40625 143.324219 219.835938 143.421875 C 219.269531 143.53125 218.242188 143.457031 216.75 143.1875 C 215.15625 142.902344 214.09375 142.59375 213.550781 142.234375 C 213.007812 141.878906 212.796875 141.359375 212.921875 140.679688 C 213.082031 139.753906 213.726562 139.335938 214.835938 139.445312 L 215.34375 139.519531 L 215.5625 139.558594 L 215.207031 138.1875 C 213.378906 138.25 212.316406 139.148438 212.007812 140.867188 C 211.773438 142.175781 212.046875 143.308594 212.8125 144.285156 C 213.578125 145.25 214.6875 145.867188 216.144531 146.125 C 217.652344 146.382812 218.886719 146.210938 219.847656 145.59375 C 220.8125 144.976562 221.417969 143.976562 221.652344 142.59375 C 221.800781 141.753906 221.675781 140.914062 221.269531 140.0625 L 221.960938 139.878906 Z M 222.144531 139.039062 "/>
<path style=" stroke:none;fill-rule:nonzero;fill:rgb(12.54902%,24.313725%,43.137255%);fill-opacity:1;" d="M 222.789062 131.65625 L 219.292969 131.40625 L 213.503906 128.667969 L 213.414062 129.753906 L 217.847656 131.816406 L 213.15625 133.40625 L 212.945312 136.261719 L 219.09375 134.148438 L 222.589844 134.394531 Z M 222.789062 131.65625 "/>
<path style=" stroke:none;fill-rule:nonzero;fill:rgb(12.54902%,24.313725%,43.137255%);fill-opacity:1;" d="M 126 0 C 56.414062 0 0 56.414062 0 126 C 0 195.585938 56.414062 252 126 252 C 195.585938 252 252 195.585938 252 126 C 252 56.402344 195.585938 0 126 0 Z M 211.527344 211.527344 C 188.683594 234.367188 158.3125 246.949219 126 246.949219 C 93.6875 246.949219 63.316406 234.367188 40.472656 211.527344 C 17.632812 188.683594 5.050781 158.3125 5.050781 126 C 5.050781 93.6875 17.632812 63.316406 40.472656 40.472656 C 63.316406 17.632812 93.6875 5.050781 126 5.050781 C 158.3125 5.050781 188.683594 17.632812 211.527344 40.472656 C 234.367188 63.316406 246.949219 93.6875 246.949219 126 C 246.960938 158.300781 234.382812 188.671875 211.527344 211.527344 Z M 211.527344 211.527344 "/>
<path style=" stroke:none;fill-rule:nonzero;fill:rgb(12.54902%,24.313725%,43.137255%);fill-opacity:1;" d="M 126 8.816406 C 61.289062 8.816406 8.828125 61.277344 8.828125 125.988281 C 8.828125 183.253906 49.917969 230.925781 104.207031 241.132812 L 104.207031 239.605469 C 81.613281 235.320312 60.832031 224.390625 44.214844 207.773438 C 22.371094 185.933594 10.335938 156.878906 10.335938 125.988281 C 10.335938 95.097656 22.359375 66.042969 44.214844 44.203125 C 66.054688 22.359375 95.109375 10.320312 126 10.320312 C 156.890625 10.320312 185.945312 22.347656 207.785156 44.203125 C 229.628906 66.042969 241.664062 95.097656 241.664062 125.988281 C 241.664062 156.878906 229.640625 185.933594 207.785156 207.773438 C 191.363281 224.195312 170.882812 235.074219 148.59375 239.457031 L 148.59375 240.972656 C 202.5 230.441406 243.183594 182.96875 243.183594 125.988281 C 243.183594 61.277344 190.722656 8.816406 126 8.816406 Z M 126 8.816406 "/>
<path style=" stroke:none;fill-rule:nonzero;fill:rgb(12.54902%,24.313725%,43.137255%);fill-opacity:1;" d="M 214.539062 90.316406 C 214.773438 89.835938 215.019531 89.355469 215.21875 88.847656 C 215.355469 88.515625 215.402344 88.167969 215.316406 87.796875 C 215.28125 87.796875 215.242188 87.796875 215.21875 87.8125 C 215.15625 87.835938 215.082031 87.859375 215.019531 87.886719 C 214.253906 88.195312 213.652344 88.710938 213.09375 89.304688 C 212.464844 89.972656 212.007812 90.738281 211.589844 91.550781 C 211.476562 91.761719 211.378906 91.960938 211.269531 92.167969 C 211.179688 92.144531 211.105469 92.132812 211.046875 92.109375 C 210.429688 91.859375 209.824219 91.613281 209.207031 91.367188 C 208.390625 91.019531 207.574219 90.675781 206.722656 90.429688 C 205.996094 90.21875 205.253906 90.082031 204.5 90.109375 C 204.179688 90.121094 203.882812 90.21875 203.636719 90.429688 C 203.207031 90.785156 203.007812 91.269531 202.882812 91.785156 C 202.808594 92.109375 202.75 92.441406 202.824219 92.847656 C 202.933594 92.835938 203.042969 92.824219 203.15625 92.824219 C 203.488281 92.835938 203.824219 92.859375 204.15625 92.875 C 204.996094 92.910156 205.796875 93.109375 206.589844 93.402344 C 207.921875 93.898438 209.28125 94.34375 210.613281 94.835938 C 211.550781 95.195312 212.464844 95.640625 213.269531 96.242188 C 214.179688 96.933594 215.15625 97.554688 216.109375 98.195312 C 216.6875 98.578125 217.21875 99.007812 217.652344 99.566406 C 217.6875 99.613281 217.726562 99.6875 217.773438 99.773438 C 217.6875 99.761719 217.664062 99.773438 217.636719 99.75 C 217.242188 99.527344 216.835938 99.304688 216.441406 99.082031 C 215.527344 98.566406 214.613281 98.023438 213.6875 97.515625 C 212.871094 97.082031 211.984375 96.773438 211.070312 96.652344 C 210.859375 96.625 210.636719 96.625 210.441406 96.664062 C 210.144531 96.726562 209.859375 96.835938 209.5625 96.921875 C 209.230469 97.023438 208.898438 97.058594 208.574219 96.898438 C 208.179688 96.714844 207.796875 96.492188 207.402344 96.316406 C 206.921875 96.097656 206.441406 95.886719 205.945312 95.699219 C 205.613281 95.578125 205.265625 95.539062 204.933594 95.578125 C 204.898438 95.886719 204.871094 96.15625 204.835938 96.429688 C 204.796875 96.875 204.945312 97.21875 205.328125 97.464844 C 205.796875 97.761719 206.28125 98.058594 206.75 98.355469 C 206.996094 98.515625 207.265625 98.625 207.488281 98.835938 C 207.441406 98.910156 207.414062 98.984375 207.367188 99.023438 C 206.871094 99.503906 206.390625 99.996094 205.859375 100.441406 C 205.476562 100.761719 205.042969 101.011719 204.613281 101.269531 C 204.328125 101.441406 204.242188 101.417969 204.070312 101.132812 C 203.882812 100.863281 203.734375 100.566406 203.699219 100.246094 C 203.660156 99.847656 203.648438 99.453125 203.648438 99.058594 C 203.648438 98.566406 203.6875 98.058594 203.699219 97.566406 C 203.699219 97.417969 203.660156 97.269531 203.636719 97.109375 C 203.167969 97.316406 202.75 97.539062 202.5625 98.007812 C 202.414062 98.378906 202.265625 98.75 202.167969 99.132812 C 201.859375 100.28125 201.835938 101.417969 202.265625 102.554688 C 202.464844 103.085938 202.835938 103.378906 203.367188 103.515625 C 203.996094 103.675781 204.574219 103.480469 205.117188 103.183594 C 206.082031 102.652344 206.921875 101.9375 207.722656 101.183594 C 208.144531 100.800781 208.574219 100.429688 209.007812 100.046875 C 209.207031 99.875 209.230469 99.875 209.464844 100.023438 C 209.957031 100.320312 210.378906 100.703125 210.710938 101.171875 C 211.144531 101.777344 211.550781 102.394531 211.972656 103.011719 C 212.269531 103.441406 212.601562 103.863281 213.007812 104.207031 C 213.34375 104.480469 213.738281 104.46875 214.058594 104.160156 C 214.15625 104.070312 214.242188 103.960938 214.304688 103.851562 C 214.578125 103.394531 214.738281 102.898438 214.578125 102.367188 C 214.378906 101.738281 213.984375 101.230469 213.503906 100.800781 C 213.058594 100.390625 212.5625 100.046875 212.121094 99.652344 C 211.75 99.332031 211.414062 98.972656 211.070312 98.640625 C 211.019531 98.589844 210.996094 98.515625 210.945312 98.429688 C 211.058594 98.40625 211.132812 98.390625 211.195312 98.390625 C 211.984375 98.34375 212.761719 98.429688 213.503906 98.6875 C 214.328125 98.972656 215.058594 99.441406 215.773438 99.921875 C 216.269531 100.257812 216.738281 100.601562 217.242188 100.910156 C 217.75 101.230469 218.28125 101.480469 218.859375 101.589844 C 219.195312 101.652344 219.539062 101.6875 219.886719 101.628906 C 219.886719 101.492188 219.898438 101.367188 219.898438 101.246094 C 219.886719 100.6875 219.710938 100.195312 219.292969 99.789062 C 218.847656 99.367188 218.441406 98.921875 217.996094 98.503906 C 217.046875 97.601562 215.972656 96.875 214.859375 96.183594 C 214.09375 95.714844 213.316406 95.28125 212.539062 94.835938 C 211.601562 94.292969 210.675781 93.761719 209.648438 93.390625 C 209.253906 93.242188 208.898438 93.046875 208.5625 92.773438 C 208.339844 92.589844 208.132812 92.378906 208.007812 92.019531 C 208.144531 92.035156 208.230469 92.019531 208.316406 92.046875 C 208.648438 92.144531 208.984375 92.242188 209.292969 92.378906 C 209.761719 92.589844 210.207031 92.835938 210.664062 93.058594 C 211.488281 93.464844 212.328125 93.859375 213.15625 94.28125 C 214.441406 94.933594 215.699219 95.652344 216.886719 96.464844 C 217.132812 96.640625 217.367188 96.8125 217.625 96.960938 C 218.824219 97.601562 220.109375 98.035156 221.441406 98.292969 C 222.898438 98.578125 224.367188 98.664062 225.835938 98.699219 C 226.640625 98.714844 227.394531 98.589844 228.132812 98.316406 C 228.257812 98.269531 228.394531 98.207031 228.527344 98.15625 C 228.429688 97.773438 228.355469 97.429688 228.257812 97.097656 C 228.070312 96.429688 227.6875 95.886719 227.15625 95.441406 C 226.703125 95.058594 226.171875 94.800781 225.664062 94.515625 C 225.257812 94.28125 224.847656 94.058594 224.453125 93.8125 C 224.34375 93.738281 224.246094 93.613281 224.195312 93.492188 C 223.996094 93.109375 223.984375 92.675781 223.933594 92.230469 C 224.121094 92.230469 224.269531 92.21875 224.417969 92.230469 C 224.984375 92.292969 225.554688 92.355469 226.109375 92.441406 C 226.789062 92.527344 227.453125 92.601562 228.144531 92.539062 C 228.515625 92.503906 228.789062 92.355469 228.984375 92.035156 C 229.601562 91.046875 230.234375 90.058594 230.851562 89.070312 C 230.996094 88.835938 230.972656 88.539062 230.800781 88.367188 C 230.601562 88.15625 230.304688 88.121094 230.046875 88.28125 C 229.910156 88.355469 229.789062 88.441406 229.652344 88.515625 C 228.761719 89.019531 227.847656 89.476562 226.863281 89.8125 C 226.046875 90.082031 225.207031 90.195312 224.355469 90.269531 C 223.441406 90.355469 222.652344 90.09375 221.910156 89.613281 C 221.40625 89.28125 220.984375 88.847656 220.550781 88.441406 C 220.304688 88.21875 220.242188 87.984375 220.292969 87.664062 C 220.355469 87.242188 220.378906 86.8125 220.390625 86.390625 C 220.40625 86.179688 220.332031 85.972656 220.230469 85.761719 C 220.121094 85.8125 220.023438 85.847656 219.933594 85.898438 C 219.304688 86.269531 218.738281 86.75 218.242188 87.292969 C 217.625 87.972656 217.058594 88.6875 216.453125 89.367188 C 215.910156 89.984375 215.328125 90.539062 214.613281 90.960938 C 214.503906 91.035156 214.367188 91.082031 214.207031 91.167969 C 214.230469 91.046875 214.230469 90.984375 214.253906 90.933594 C 214.328125 90.710938 214.441406 90.515625 214.539062 90.316406 Z M 220.023438 94.6875 C 219.886719 94.800781 219.566406 94.800781 219.453125 94.675781 C 219.34375 94.550781 219.355469 94.242188 219.464844 94.144531 C 219.601562 94.023438 219.921875 94.035156 220.035156 94.15625 C 220.144531 94.28125 220.132812 94.601562 220.023438 94.6875 Z M 223.007812 93.859375 C 223.640625 94.726562 224.539062 95.269531 225.378906 95.898438 C 225.554688 96.035156 225.726562 96.167969 225.921875 96.316406 C 225.835938 96.367188 225.800781 96.40625 225.75 96.417969 C 224.761719 96.625 223.773438 96.773438 222.761719 96.625 C 222.242188 96.550781 221.761719 96.378906 221.304688 96.097656 C 221.257812 96.070312 221.21875 96.023438 221.144531 95.949219 C 221.578125 95.527344 222.046875 95.183594 222.515625 94.800781 C 222.34375 94.492188 222.183594 94.183594 222.007812 93.859375 C 222.304688 93.824219 222.550781 93.773438 222.800781 93.75 C 222.875 93.75 222.972656 93.800781 223.007812 93.859375 Z M 219.257812 89.476562 C 219.675781 89.835938 220.082031 90.21875 220.492188 90.710938 C 220.046875 90.726562 219.6875 90.699219 219.28125 90.675781 C 219.242188 90.253906 219.21875 89.886719 219.195312 89.503906 C 219.207031 89.503906 219.230469 89.492188 219.257812 89.476562 Z M 218.859375 91.578125 C 219.476562 91.636719 220.09375 91.699219 220.699219 91.800781 C 221.097656 91.859375 221.492188 91.972656 221.886719 92.082031 C 222.023438 92.121094 222.132812 92.207031 222.269531 92.269531 C 222.257812 92.539062 222.097656 92.6875 221.898438 92.8125 C 221.625 92.972656 221.316406 92.972656 221.007812 92.960938 C 220.132812 92.921875 219.167969 92.378906 218.664062 91.613281 C 218.738281 91.589844 218.800781 91.578125 218.859375 91.578125 Z M 216.5625 91.6875 C 216.652344 91.417969 216.886719 91.230469 217.183594 91.230469 C 217.367188 91.230469 217.492188 91.316406 217.527344 91.503906 C 217.589844 91.773438 217.492188 91.996094 217.34375 92.167969 C 217.144531 92.34375 216.875 92.355469 216.6875 92.21875 C 216.550781 92.109375 216.503906 91.886719 216.5625 91.6875 Z M 214.453125 93.402344 C 214.847656 93.738281 215.292969 93.875 215.800781 93.898438 C 216.121094 93.910156 216.453125 93.933594 216.773438 93.933594 C 216.960938 93.933594 217.046875 94.007812 217.109375 94.183594 C 217.195312 94.429688 217.292969 94.675781 217.378906 94.921875 C 217.402344 94.984375 217.402344 95.058594 217.417969 95.167969 C 217.15625 95.082031 216.945312 95.023438 216.726562 94.949219 C 215.824219 94.640625 214.921875 94.332031 214.082031 93.859375 C 213.625 93.601562 213.195312 93.304688 212.8125 92.921875 C 212.761719 92.875 212.738281 92.8125 212.675781 92.738281 C 212.933594 92.664062 213.144531 92.738281 213.34375 92.800781 C 213.738281 92.933594 214.121094 93.121094 214.453125 93.402344 Z M 214.453125 93.402344 "/>
<path style=" stroke:none;fill-rule:nonzero;fill:rgb(12.54902%,24.313725%,43.137255%);fill-opacity:1;" d="M 149.695312 36.300781 C 148.867188 36.917969 148.039062 37.535156 147.199219 38.152344 C 146.65625 38.558594 146.027344 38.792969 145.410156 39.039062 C 144.953125 39.226562 144.507812 39.4375 144.0625 39.644531 C 143.691406 39.820312 143.457031 40.113281 143.261719 40.460938 C 142.691406 41.460938 142.632812 42.535156 142.765625 43.632812 C 142.792969 43.855469 142.816406 43.867188 143.039062 43.878906 C 144.175781 43.992188 145.324219 43.980469 146.457031 43.953125 C 147.695312 43.929688 148.929688 43.894531 150.164062 43.855469 C 151.050781 43.832031 151.941406 43.867188 152.828125 43.929688 C 153.59375 43.980469 154.375 44.027344 155.136719 44.078125 C 155.496094 44.101562 155.804688 43.992188 156.066406 43.746094 C 156.546875 43.277344 156.695312 42.707031 156.496094 42.078125 C 156.386719 41.695312 156.140625 41.421875 155.757812 41.277344 C 155.078125 41.003906 154.359375 40.867188 153.632812 40.855469 C 152.804688 40.832031 151.964844 40.867188 151.136719 40.855469 C 150.484375 40.84375 149.816406 40.820312 149.175781 40.660156 C 149.078125 40.632812 148.988281 40.597656 148.867188 40.558594 C 149.027344 40.25 149.261719 40.054688 149.472656 39.855469 C 150.050781 39.3125 150.71875 38.878906 151.386719 38.4375 C 151.964844 38.054688 152.535156 37.65625 153.039062 37.164062 C 153.65625 36.558594 154.324219 36.015625 155.039062 35.535156 C 156.027344 34.878906 157.078125 34.335938 158.214844 34.003906 C 158.90625 33.804688 159.632812 33.707031 160.335938 33.558594 C 160.804688 33.460938 161.273438 33.347656 161.78125 33.238281 C 161.769531 32.832031 161.71875 32.472656 161.632812 32.125 C 161.496094 31.609375 161.289062 31.113281 160.890625 30.730469 C 160.238281 30.101562 159.433594 29.878906 158.546875 29.964844 C 157.929688 30.027344 157.335938 30.199219 156.742188 30.386719 C 156.410156 30.484375 156.078125 30.582031 155.742188 30.667969 C 154.867188 30.867188 153.964844 30.890625 153.0625 30.917969 C 152.136719 30.941406 151.210938 30.976562 150.285156 31.015625 C 149.78125 31.039062 149.324219 31.214844 148.902344 31.496094 C 148.421875 31.832031 148.015625 32.25 147.621094 32.667969 C 147.507812 32.792969 147.445312 32.980469 147.410156 33.140625 C 147.335938 33.507812 147.484375 33.71875 147.855469 33.832031 C 148.460938 34.003906 149.078125 34.050781 149.695312 34.015625 C 150.410156 33.980469 151.113281 33.90625 151.828125 33.855469 C 152.136719 33.832031 152.460938 33.804688 152.84375 33.84375 C 152.695312 33.964844 152.609375 34.050781 152.507812 34.125 C 151.609375 34.84375 150.65625 35.570312 149.695312 36.300781 Z M 149.695312 36.300781 "/>
<path style=" stroke:none;fill-rule:nonzero;fill:rgb(12.54902%,24.313725%,43.137255%);fill-opacity:1;" d="M 183.300781 56.90625 C 181.929688 56.96875 180.5625 56.929688 179.191406 56.796875 C 178.546875 56.734375 177.917969 56.695312 177.277344 56.660156 C 177.078125 56.648438 176.894531 56.671875 176.722656 56.769531 C 176.414062 56.945312 176.179688 57.191406 175.929688 57.4375 C 175.941406 57.476562 175.957031 57.511719 175.96875 57.523438 C 176.003906 57.574219 176.054688 57.621094 176.105469 57.660156 C 176.734375 58.265625 177.460938 58.722656 178.277344 59.019531 C 178.796875 59.203125 179.328125 59.351562 179.894531 59.253906 C 180.078125 59.214844 180.277344 59.226562 180.472656 59.214844 C 182.078125 59.140625 183.695312 59.078125 185.300781 58.992188 C 186.488281 58.933594 187.648438 58.769531 188.808594 58.511719 C 189.5 58.351562 190.179688 58.179688 190.871094 58.066406 C 192.042969 57.871094 193.214844 57.882812 194.390625 58.105469 C 195.230469 58.265625 196.042969 58.523438 196.847656 58.796875 C 197.464844 59.019531 198.09375 59.203125 198.746094 59.316406 C 199.574219 59.449219 200.179688 59.09375 200.613281 58.4375 C 200.96875 57.90625 200.847656 57.511719 200.414062 57.191406 C 200.351562 57.140625 200.277344 57.09375 200.21875 57.042969 C 199.910156 56.757812 199.539062 56.597656 199.128906 56.5625 C 198.636719 56.523438 198.144531 56.511719 197.648438 56.476562 C 197.242188 56.449219 196.847656 56.375 196.5 56.140625 C 196.453125 56.105469 196.414062 56.054688 196.351562 55.980469 C 196.6875 55.796875 196.996094 55.609375 197.316406 55.449219 C 198.351562 54.894531 199.414062 54.363281 200.4375 53.78125 C 201.351562 53.265625 202.167969 52.621094 202.835938 51.796875 C 203.144531 51.414062 203.425781 51.003906 203.585938 50.523438 C 203.761719 50.03125 203.859375 49.535156 203.785156 49.015625 C 203.710938 48.484375 203.339844 48.03125 202.871094 47.992188 C 202.835938 48.042969 202.796875 48.101562 202.761719 48.164062 C 202.539062 48.574219 202.328125 48.96875 202.105469 49.375 C 201.859375 49.832031 201.5625 50.277344 201.203125 50.660156 C 200.402344 51.511719 199.464844 52.191406 198.464844 52.796875 C 197.625 53.300781 196.773438 53.78125 195.921875 54.265625 C 195.378906 54.574219 194.808594 54.820312 194.191406 54.96875 C 193.339844 55.164062 192.5 55.179688 191.683594 54.820312 C 191.375 54.683594 191.105469 54.472656 190.832031 54.277344 C 190.414062 53.96875 190.019531 53.621094 189.597656 53.3125 C 189.363281 53.140625 189.082031 53.03125 188.785156 53.003906 C 187.90625 52.945312 187.316406 54.03125 187.660156 54.710938 C 187.859375 55.105469 188.066406 55.488281 188.277344 55.871094 C 188.402344 56.105469 188.535156 56.351562 188.683594 56.621094 C 188.449219 56.636719 188.277344 56.648438 188.09375 56.648438 C 186.5 56.746094 184.894531 56.832031 183.300781 56.90625 Z M 183.300781 56.90625 "/>
<path style=" stroke:none;fill-rule:nonzero;fill:rgb(12.54902%,24.313725%,43.137255%);fill-opacity:1;" d="M 189.375 69.671875 C 189.226562 69.90625 189.128906 70.179688 189.117188 70.511719 C 189.476562 70.550781 189.808594 70.597656 190.128906 70.625 C 190.957031 70.671875 191.757812 70.574219 192.488281 70.144531 C 192.957031 69.859375 193.328125 69.476562 193.5 68.921875 C 193.660156 68.414062 193.660156 67.894531 193.5625 67.378906 C 193.328125 66.179688 192.773438 65.140625 192.042969 64.179688 C 191.488281 63.4375 190.820312 62.785156 190.128906 62.179688 C 189.734375 61.832031 189.265625 61.757812 188.773438 61.820312 C 188.699219 61.832031 188.597656 61.894531 188.5625 61.957031 C 188.289062 62.4375 188.253906 63.105469 188.710938 63.625 C 189.105469 64.082031 189.488281 64.550781 189.859375 65.03125 C 190.363281 65.699219 190.636719 66.449219 190.574219 67.316406 C 190.539062 67.734375 190.4375 68.128906 190.203125 68.476562 C 189.917969 68.871094 189.636719 69.265625 189.375 69.671875 Z M 189.375 69.671875 "/>
<path style=" stroke:none;fill-rule:nonzero;fill:rgb(12.54902%,24.313725%,43.137255%);fill-opacity:1;" d="M 56.476562 55.695312 C 56.351562 56.523438 56.265625 57.363281 56.09375 58.179688 C 55.894531 59.179688 55.648438 60.167969 55.414062 61.167969 C 55.300781 61.625 55.203125 62.066406 55.214844 62.535156 C 55.238281 63.066406 55.425781 63.511719 55.882812 63.847656 C 56.042969 63.722656 56.203125 63.625 56.339844 63.5 C 56.796875 63.117188 57.277344 62.746094 57.695312 62.316406 C 58.140625 61.871094 58.339844 61.316406 58.167969 60.671875 C 57.957031 59.894531 57.746094 59.117188 57.574219 58.328125 C 57.363281 57.351562 57.265625 56.363281 57.402344 55.375 C 57.476562 54.796875 57.621094 54.226562 57.929688 53.671875 C 58.019531 53.683594 58.078125 53.695312 58.140625 53.707031 C 58.375 53.722656 58.488281 53.84375 58.511719 54.078125 C 58.523438 54.226562 58.585938 54.363281 58.609375 54.5 C 59.066406 56.5625 59.242188 58.660156 59.277344 60.769531 C 59.316406 63.242188 59.167969 65.710938 59.042969 68.167969 C 59.03125 68.363281 59.03125 68.574219 59.019531 68.832031 C 59.265625 68.710938 59.476562 68.625 59.671875 68.523438 C 60.09375 68.339844 60.300781 68.007812 60.339844 67.5625 C 60.386719 66.957031 60.449219 66.351562 60.523438 65.746094 C 60.535156 65.574219 60.574219 65.414062 60.625 65.167969 C 60.722656 65.277344 60.785156 65.339844 60.820312 65.402344 C 61.191406 65.90625 61.390625 66.5 61.625 67.066406 C 61.796875 67.5 62.007812 67.921875 62.214844 68.328125 C 62.402344 68.6875 62.722656 68.832031 63.117188 68.820312 C 63.5 68.808594 63.847656 68.660156 64.117188 68.390625 C 64.351562 68.167969 64.277344 67.871094 64.300781 67.597656 C 64.300781 67.574219 64.300781 67.539062 64.300781 67.511719 C 64.277344 67.117188 64.253906 66.722656 64.203125 66.339844 C 64.179688 66.09375 64.253906 65.921875 64.414062 65.757812 C 64.625 65.539062 64.820312 65.316406 65.03125 65.105469 C 65.167969 64.96875 65.214844 64.820312 65.214844 64.636719 C 65.230469 63.980469 65.066406 63.363281 64.746094 62.796875 C 64.242188 61.871094 63.511719 61.152344 62.722656 60.476562 C 62.167969 60.007812 61.796875 59.425781 61.625 58.722656 C 61.476562 58.128906 61.4375 57.523438 61.476562 56.90625 C 61.523438 56.152344 61.648438 55.414062 61.871094 54.683594 C 62.007812 54.253906 62.339844 54.164062 62.671875 54.460938 C 62.808594 54.585938 62.917969 54.734375 63.019531 54.894531 C 63.476562 55.648438 63.933594 56.386719 64.476562 57.078125 C 64.832031 57.535156 65.15625 58.019531 65.464844 58.5 C 66.167969 59.585938 66.832031 60.683594 67.550781 61.757812 C 68.242188 62.785156 68.957031 63.796875 69.710938 64.785156 C 70.773438 66.179688 71.980469 67.464844 73.167969 68.761719 C 73.363281 68.980469 73.613281 69.15625 73.847656 69.351562 C 73.945312 69.4375 74.03125 69.425781 74.117188 69.339844 C 74.253906 69.214844 74.390625 69.09375 74.539062 68.96875 C 74.636719 68.882812 74.675781 68.796875 74.625 68.671875 C 74.488281 68.339844 74.402344 67.980469 74.230469 67.671875 C 73.601562 66.539062 72.820312 65.488281 72.019531 64.464844 C 71.03125 63.203125 70.042969 61.945312 69.082031 60.660156 C 68.660156 60.105469 68.289062 59.523438 67.945312 58.933594 C 67.414062 58.03125 67.277344 57.066406 67.585938 56.042969 C 67.820312 55.253906 67.996094 54.4375 68.15625 53.636719 C 68.277344 53.03125 68.265625 52.414062 68.054688 51.832031 C 67.933594 51.488281 67.746094 51.164062 67.585938 50.832031 C 67.304688 50.265625 66.871094 49.855469 66.304688 49.574219 C 65.808594 49.324219 65.328125 49.089844 64.820312 48.855469 C 64.609375 48.757812 64.425781 48.632812 64.316406 48.425781 C 64.140625 48.089844 63.980469 47.769531 63.820312 47.425781 C 63.636719 47.003906 63.449219 46.574219 63.277344 46.140625 C 63.203125 45.957031 63.054688 45.882812 62.859375 45.882812 C 62.402344 45.867188 61.992188 45.992188 61.636719 46.25 C 60.710938 46.917969 60.253906 47.832031 60.277344 48.992188 C 60.289062 49.757812 60.425781 50.511719 60.597656 51.25 C 60.785156 52.054688 60.859375 52.855469 60.785156 53.683594 C 60.683594 54.609375 60.660156 55.535156 60.699219 56.476562 C 60.722656 57.214844 60.734375 57.96875 60.609375 58.695312 C 60.585938 58.832031 60.550781 58.96875 60.523438 59.105469 C 60.425781 59.042969 60.375 58.980469 60.339844 58.917969 C 60.054688 58.363281 59.96875 57.757812 59.917969 57.152344 C 59.820312 55.882812 59.722656 54.597656 59.660156 53.328125 C 59.597656 52.164062 59.625 51.015625 59.832031 49.867188 C 59.90625 49.4375 59.820312 49.03125 59.625 48.648438 C 59.277344 48.003906 58.757812 47.5 58.265625 46.96875 C 58.214844 46.90625 58.09375 46.882812 58.019531 46.894531 C 57.671875 46.929688 57.328125 46.980469 56.957031 47.03125 C 56.957031 47.203125 56.957031 47.363281 56.96875 47.511719 C 57.054688 48.511719 57.140625 49.511719 57.214844 50.511719 C 57.289062 51.511719 57.265625 52.5 56.980469 53.460938 C 56.757812 54.179688 56.597656 54.929688 56.476562 55.695312 Z M 62.082031 48.621094 C 62.203125 48.414062 62.226562 48.386719 62.449219 48.484375 C 62.609375 48.558594 62.773438 48.648438 62.882812 48.769531 C 63.09375 48.980469 63.289062 49.214844 63.449219 49.460938 C 63.757812 49.90625 64.15625 50.238281 64.597656 50.523438 C 64.746094 50.621094 64.894531 50.722656 65.03125 50.820312 C 65.847656 51.398438 66.15625 52.238281 66.191406 53.203125 C 66.203125 53.523438 66.128906 53.820312 65.980469 54.089844 C 65.882812 54.277344 65.832031 54.300781 65.636719 54.214844 C 65.277344 54.042969 64.945312 53.832031 64.757812 53.460938 C 64.511719 52.980469 64.289062 52.5 64.054688 52.015625 C 63.882812 51.671875 63.722656 51.300781 63.523438 50.96875 C 63.316406 50.609375 62.945312 50.449219 62.585938 50.300781 C 62.300781 50.191406 62.007812 50.089844 61.683594 49.980469 C 61.785156 49.5 61.832031 49.042969 62.082031 48.621094 Z M 61.03125 61.96875 C 61.191406 61.808594 61.535156 61.859375 61.722656 62.066406 C 61.882812 62.253906 61.894531 62.535156 61.757812 62.683594 C 61.609375 62.832031 61.328125 62.808594 61.140625 62.648438 C 61.128906 62.636719 61.128906 62.636719 61.117188 62.625 C 60.90625 62.425781 60.871094 62.128906 61.03125 61.96875 Z M 61.03125 61.96875 "/>
<path style=" stroke:none;fill-rule:nonzero;fill:rgb(12.54902%,24.313725%,43.137255%);fill-opacity:1;" d="M 55.609375 47.535156 C 55.710938 47.015625 55.683594 46.535156 55.328125 46.101562 C 55.003906 45.71875 54.5625 45.574219 54.078125 45.386719 C 54.019531 45.5 53.957031 45.585938 53.90625 45.683594 C 53.683594 46.066406 53.460938 46.449219 53.253906 46.84375 C 53.164062 47.003906 53.042969 47.042969 52.894531 47.015625 C 52.546875 46.957031 52.203125 46.894531 51.871094 46.808594 C 51.597656 46.746094 51.339844 46.660156 51.015625 46.574219 C 51.078125 46.746094 51.117188 46.867188 51.179688 46.992188 C 51.351562 47.3125 51.535156 47.632812 51.722656 47.96875 C 51.894531 48.277344 52.054688 48.585938 52.214844 48.894531 C 52.363281 49.175781 52.414062 49.472656 52.351562 49.796875 C 52.300781 50.066406 52.265625 50.351562 52.214844 50.621094 C 52.078125 51.265625 51.945312 51.894531 51.808594 52.523438 C 51.796875 52.609375 51.796875 52.695312 51.78125 52.832031 C 51.957031 52.746094 52.089844 52.683594 52.214844 52.609375 C 52.722656 52.300781 53.226562 51.980469 53.734375 51.660156 C 53.796875 51.621094 53.871094 51.597656 53.957031 51.5625 C 54.191406 52.722656 54.191406 53.882812 54.511719 54.980469 C 54.535156 54.992188 54.574219 55.003906 54.597656 55.003906 C 54.796875 54.734375 55.003906 54.460938 55.179688 54.179688 C 55.597656 53.488281 55.785156 52.757812 55.574219 51.957031 C 55.511719 51.695312 55.449219 51.4375 55.414062 51.164062 C 55.265625 50.375 55.214844 49.585938 55.363281 48.792969 C 55.425781 48.386719 55.523438 47.957031 55.609375 47.535156 Z M 55.609375 47.535156 "/>
<path style=" stroke:none;fill-rule:nonzero;fill:rgb(12.54902%,24.313725%,43.137255%);fill-opacity:1;" d="M 109.714844 34.78125 C 110.160156 34.496094 110.554688 34.152344 110.9375 33.792969 C 111.875 32.941406 112.675781 31.953125 113.441406 30.953125 C 114.296875 29.832031 115.148438 28.71875 116 27.609375 C 116.320312 27.1875 116.566406 26.71875 116.652344 26.1875 C 116.714844 25.855469 116.691406 25.535156 116.503906 25.226562 C 116.40625 25.0625 116.28125 25.003906 116.097656 25.027344 C 115.640625 25.089844 115.195312 25.175781 114.765625 25.335938 C 114.097656 25.582031 113.429688 25.816406 112.75 26.050781 C 111.839844 26.371094 110.886719 26.558594 109.949219 26.753906 C 108.949219 26.964844 107.972656 27.226562 107.058594 27.683594 C 106.492188 27.964844 106.046875 28.375 105.75 28.929688 C 105.578125 29.25 105.453125 29.59375 105.429688 29.992188 C 105.492188 29.992188 105.542969 29.992188 105.589844 29.992188 C 106.171875 29.855469 106.75 29.707031 107.320312 29.570312 C 107.777344 29.460938 108.21875 29.335938 108.675781 29.226562 C 108.789062 29.199219 108.898438 29.199219 109.011719 29.199219 C 109 29.570312 108.875 29.878906 108.628906 30.164062 C 108.28125 30.570312 107.8125 30.816406 107.355469 31.089844 C 107.121094 31.226562 106.886719 31.359375 106.628906 31.507812 C 107.035156 31.90625 107.492188 32.152344 107.925781 32.433594 C 107.863281 32.546875 107.8125 32.632812 107.761719 32.707031 C 107.589844 32.980469 107.40625 33.238281 107.234375 33.507812 C 106.9375 33.992188 106.75 34.484375 106.9375 35.066406 C 106.960938 35.125 106.972656 35.199219 107 35.261719 C 107.160156 35.855469 107.269531 36.449219 107.132812 37.078125 C 106.925781 38.039062 106.492188 38.855469 105.761719 39.496094 C 105.28125 39.917969 104.984375 40.4375 104.875 41.066406 C 104.738281 41.820312 104.886719 42.523438 105.28125 43.164062 C 105.394531 43.351562 105.441406 43.363281 105.640625 43.289062 C 105.863281 43.214844 106.070312 43.117188 106.292969 43.027344 C 106.394531 42.992188 106.492188 42.980469 106.617188 42.941406 C 106.617188 43.140625 106.628906 43.300781 106.628906 43.449219 C 106.628906 43.820312 106.617188 44.191406 106.726562 44.546875 C 106.835938 44.90625 107.046875 45.164062 107.394531 45.3125 C 107.8125 45.511719 108.257812 45.546875 108.703125 45.4375 C 109.160156 45.324219 109.578125 45.117188 109.984375 44.882812 C 110.675781 44.472656 111.394531 44.128906 112.171875 43.917969 C 112.542969 43.820312 112.914062 43.734375 113.269531 43.597656 C 113.875 43.386719 114.296875 43.015625 114.332031 42.300781 C 114.109375 42.164062 113.863281 42.101562 113.617188 42.066406 C 112.738281 41.917969 111.925781 42.128906 111.132812 42.449219 C 110.46875 42.707031 109.839844 43.015625 109.171875 43.300781 C 108.851562 43.4375 108.527344 43.570312 108.144531 43.609375 C 108.132812 43.511719 108.121094 43.425781 108.121094 43.351562 C 108.109375 42.84375 108.269531 42.375 108.515625 41.929688 C 108.863281 41.324219 109.34375 40.84375 109.789062 40.324219 C 110.074219 40.003906 110.332031 39.660156 110.589844 39.324219 C 110.691406 39.203125 110.703125 39.066406 110.652344 38.917969 C 110.578125 38.644531 110.441406 38.410156 110.246094 38.226562 C 109.960938 37.980469 109.664062 37.746094 109.367188 37.511719 C 108.851562 37.101562 108.8125 37.039062 108.835938 36.375 C 108.863281 35.707031 109.109375 35.164062 109.714844 34.78125 Z M 110.046875 31.273438 C 110.332031 30.929688 110.628906 30.582031 110.925781 30.261719 C 111.121094 30.050781 111.222656 29.816406 111.171875 29.519531 C 111.109375 29.1875 111.058594 28.855469 111.011719 28.507812 C 110.984375 28.386719 111 28.285156 111.121094 28.199219 C 111.789062 27.753906 112.457031 27.324219 113.257812 27.164062 C 113.515625 27.101562 113.789062 27.050781 114.085938 27.136719 C 114.035156 27.300781 114 27.433594 113.949219 27.570312 C 113.566406 28.621094 113.046875 29.59375 112.296875 30.433594 C 111.703125 31.101562 110.984375 31.59375 110.132812 31.878906 C 110.023438 31.917969 109.910156 31.941406 109.789062 31.964844 C 109.75 31.976562 109.714844 31.964844 109.601562 31.953125 C 109.765625 31.683594 109.886719 31.460938 110.046875 31.273438 Z M 110.046875 31.273438 "/>
<path style=" stroke:none;fill-rule:nonzero;fill:rgb(12.54902%,24.313725%,43.137255%);fill-opacity:1;" d="M 96.578125 47.117188 C 96.183594 47.917969 95.800781 48.734375 95.550781 49.597656 C 95.464844 49.894531 95.40625 50.203125 95.332031 50.5 C 95.726562 50.734375 96.097656 50.917969 96.503906 51.015625 C 96.898438 51.117188 97.28125 51.066406 97.589844 50.769531 C 97.773438 50.597656 97.949219 50.414062 98.097656 50.203125 C 98.40625 49.769531 98.589844 49.277344 98.761719 48.769531 C 99.007812 48.066406 99.230469 47.351562 99.492188 46.648438 C 99.898438 45.511719 100.332031 44.375 100.75 43.25 C 100.996094 42.597656 101.246094 41.941406 101.527344 41.300781 C 101.777344 40.746094 102.070312 40.226562 102.34375 39.683594 C 102.589844 39.203125 102.800781 38.707031 102.898438 38.175781 C 102.9375 38.015625 102.9375 37.84375 102.960938 37.671875 C 102.824219 37.707031 102.726562 37.769531 102.664062 37.84375 C 102.46875 38.066406 102.230469 38.273438 102.070312 38.523438 C 101.777344 38.964844 101.527344 39.449219 101.257812 39.90625 C 100.996094 40.351562 100.714844 40.78125 100.441406 41.214844 C 100.390625 41.300781 100.34375 41.410156 100.15625 41.375 C 100.132812 41.175781 100.082031 40.980469 100.082031 40.78125 C 100.082031 40.25 100.292969 39.792969 100.566406 39.363281 C 100.875 38.894531 101.195312 38.449219 101.492188 37.980469 C 101.75 37.570312 101.960938 37.128906 101.984375 36.621094 C 102.011719 36.039062 101.875 35.535156 101.34375 35.199219 C 101.183594 35.101562 101.011719 34.992188 100.847656 34.890625 C 100.675781 34.78125 100.503906 34.683594 100.304688 34.558594 C 100.613281 33.804688 100.921875 33.101562 101.320312 32.433594 C 101.640625 31.90625 102.046875 31.460938 102.554688 31.078125 C 102.789062 30.902344 103.011719 30.707031 103.230469 30.523438 C 103.492188 30.3125 103.527344 30.015625 103.441406 29.71875 C 103.28125 29.175781 102.777344 28.855469 102.21875 28.867188 C 101.207031 28.902344 100.257812 29.164062 99.355469 29.632812 C 98.800781 29.917969 98.292969 30.273438 97.824219 30.695312 C 97.714844 30.792969 97.675781 30.902344 97.6875 31.050781 C 97.714844 31.460938 97.933594 31.757812 98.257812 31.964844 C 98.515625 32.140625 98.800781 32.261719 99.082031 32.410156 C 99.195312 32.460938 99.292969 32.507812 99.269531 32.667969 C 99.15625 33.25 99.058594 33.84375 98.9375 34.421875 C 98.875 34.71875 98.714844 34.964844 98.464844 35.140625 C 97.972656 35.496094 97.464844 35.855469 96.984375 36.226562 C 96.527344 36.582031 96.082031 36.964844 95.625 37.324219 C 95.476562 37.4375 95.453125 37.597656 95.441406 37.769531 C 95.417969 38.300781 95.578125 38.804688 95.664062 39.324219 C 95.6875 39.484375 95.761719 39.585938 95.910156 39.644531 C 96.167969 39.757812 96.429688 39.878906 96.675781 40.015625 C 96.960938 40.175781 97.21875 40.375 97.332031 40.695312 C 97.515625 41.226562 97.699219 41.746094 97.835938 42.277344 C 98.023438 42.980469 98.023438 43.671875 97.773438 44.375 C 97.441406 45.335938 97.007812 46.226562 96.578125 47.117188 Z M 96.578125 47.117188 "/>
<path style=" stroke:none;fill-rule:nonzero;fill:rgb(12.54902%,24.313725%,43.137255%);fill-opacity:1;" d="M 104.332031 29.667969 C 104.304688 29.695312 104.28125 29.707031 104.269531 29.730469 C 103.949219 30.324219 103.789062 30.964844 103.824219 31.644531 C 103.886719 33.113281 104.503906 34.335938 105.566406 35.347656 C 105.75 35.523438 105.949219 35.671875 106.144531 35.832031 C 107.144531 33.769531 106.171875 30.644531 104.332031 29.667969 Z M 104.332031 29.667969 "/>
<path style=" stroke:none;fill-rule:nonzero;fill:rgb(12.54902%,24.313725%,43.137255%);fill-opacity:1;" d="M 35.289062 80.898438 C 35.152344 80.785156 34.992188 80.6875 34.878906 80.601562 C 34.410156 80.835938 33.980469 81.058594 33.535156 81.265625 C 33.101562 81.476562 32.667969 81.699219 32.238281 81.910156 C 32.175781 81.945312 32.089844 81.984375 32.066406 82.046875 C 31.941406 82.355469 31.84375 82.675781 31.730469 83.007812 C 33.496094 83.859375 35.324219 84.453125 37.101562 85.230469 C 37.089844 85.722656 36.964844 86.179688 36.832031 86.636719 C 36.597656 87.378906 36.238281 88.070312 35.890625 88.761719 C 35.546875 89.441406 35.214844 90.132812 34.890625 90.824219 C 34.707031 91.242188 34.582031 91.675781 34.570312 92.144531 C 34.570312 92.328125 34.582031 92.515625 34.695312 92.675781 C 34.792969 92.824219 34.953125 92.886719 35.089844 92.8125 C 35.746094 92.476562 36.410156 92.167969 36.992188 91.699219 C 37.363281 91.390625 37.609375 91.019531 37.71875 90.539062 C 37.820312 90.082031 37.917969 89.625 38.027344 89.179688 C 38.261719 88.242188 38.570312 87.328125 38.992188 86.441406 C 39.054688 86.316406 39.113281 86.207031 39.175781 86.09375 C 39.25 86.105469 39.300781 86.105469 39.347656 86.132812 C 39.953125 86.390625 40.570312 86.613281 41.152344 86.933594 C 42.1875 87.503906 43.1875 88.121094 44.203125 88.726562 C 44.410156 88.847656 44.425781 88.886719 44.375 89.132812 C 44.3125 89.441406 44.238281 89.738281 44.164062 90.035156 C 44.089844 90.355469 44.054688 90.675781 44.140625 91.007812 C 44.214844 91.242188 44.277344 91.292969 44.5 91.183594 C 44.695312 91.082031 44.894531 90.984375 45.066406 90.847656 C 45.351562 90.613281 45.609375 90.355469 45.894531 90.109375 C 46.140625 89.886719 46.152344 89.886719 46.410156 90.070312 C 47.089844 90.539062 47.746094 91.035156 48.425781 91.492188 C 48.992188 91.859375 49.574219 92.195312 50.152344 92.539062 C 50.25 92.589844 50.375 92.625 50.488281 92.625 C 50.769531 92.601562 51.042969 92.503906 51.3125 92.367188 C 51.128906 91.824219 50.84375 91.355469 50.472656 90.933594 C 49.796875 90.144531 48.957031 89.539062 48.101562 88.933594 C 47.792969 88.710938 47.472656 88.488281 47.164062 88.269531 C 47.3125 87.699219 47.511719 87.207031 47.78125 86.722656 C 48.128906 86.082031 48.5 85.464844 48.855469 84.835938 C 49.054688 84.476562 49.25 84.132812 49.449219 83.773438 C 49.585938 83.515625 49.585938 83.488281 49.375 83.304688 C 49.089844 83.046875 48.808594 82.785156 48.484375 82.550781 C 48.042969 82.230469 47.535156 82.046875 46.957031 81.984375 C 46.695312 82.5625 46.425781 83.132812 46.175781 83.710938 C 45.792969 84.578125 45.4375 85.429688 45.054688 86.292969 C 45.003906 86.402344 44.929688 86.503906 44.84375 86.625 C 44.734375 86.589844 44.644531 86.578125 44.558594 86.539062 C 44.203125 86.390625 43.84375 86.253906 43.484375 86.09375 C 42.632812 85.710938 41.832031 85.253906 41.066406 84.722656 C 40.804688 84.550781 40.609375 84.316406 40.472656 84.019531 C 40.386719 83.824219 40.300781 83.625 40.203125 83.441406 C 40.089844 83.230469 39.980469 83.007812 39.84375 82.8125 C 39.660156 82.527344 39.398438 82.390625 39.054688 82.441406 C 38.644531 82.488281 38.238281 82.515625 37.84375 82.5625 C 37.644531 82.589844 37.460938 82.574219 37.289062 82.453125 C 37.101562 82.328125 36.917969 82.21875 36.730469 82.070312 C 36.25 81.6875 35.769531 81.292969 35.289062 80.898438 Z M 35.289062 80.898438 "/>
<path style=" stroke:none;fill-rule:nonzero;fill:rgb(12.54902%,24.313725%,43.137255%);fill-opacity:1;" d="M 41.140625 96.933594 C 41.25 97.023438 41.375 97.109375 41.484375 97.195312 C 42.042969 97.613281 42.621094 97.972656 43.289062 98.15625 C 43.769531 98.292969 44.25 98.332031 44.757812 98.207031 C 44.855469 97.464844 44.808594 96.75 44.621094 96.046875 C 44.386719 95.167969 44.117188 94.304688 43.832031 93.441406 C 43.570312 92.625 43.300781 91.800781 43.1875 90.945312 C 43.175781 90.835938 43.152344 90.726562 43.140625 90.601562 C 42.25 90.464844 41.363281 90.402344 40.472656 90.417969 C 40.410156 90.550781 40.351562 90.664062 40.300781 90.773438 C 40.089844 91.34375 39.894531 91.898438 39.683594 92.464844 C 39.496094 92.960938 39.300781 93.453125 39.113281 93.960938 C 39.054688 94.121094 38.953125 94.207031 38.78125 94.242188 C 38.597656 94.28125 38.410156 94.332031 38.214844 94.378906 C 37.964844 94.441406 37.71875 94.515625 37.410156 94.601562 C 37.535156 94.800781 37.621094 94.949219 37.707031 95.097656 C 37.964844 95.503906 38.152344 95.921875 38.128906 96.429688 C 38.113281 96.699219 38.113281 96.972656 38.113281 97.242188 C 38.128906 97.652344 38.289062 97.847656 38.65625 97.972656 C 38.980469 98.082031 39.277344 98.023438 39.546875 97.863281 C 39.769531 97.726562 39.980469 97.566406 40.1875 97.417969 C 40.386719 97.269531 40.585938 97.109375 40.78125 96.960938 C 40.929688 96.847656 41.027344 96.847656 41.140625 96.933594 Z M 41.621094 93.710938 C 41.632812 94.34375 41.632812 94.949219 41.644531 95.566406 C 41.3125 95.589844 41.042969 95.492188 40.746094 95.453125 C 40.671875 94.835938 41.113281 93.933594 41.621094 93.710938 Z M 41.621094 93.710938 "/>
<path style=" stroke:none;fill-rule:nonzero;fill:rgb(12.54902%,24.313725%,43.137255%);fill-opacity:1;" d="M 37.730469 99.75 C 37.386719 99.492188 37.015625 99.304688 36.558594 99.207031 C 36.609375 99.378906 36.644531 99.515625 36.683594 99.652344 C 36.90625 100.355469 37.164062 101.046875 37.335938 101.75 C 37.546875 102.613281 37.683594 103.492188 37.832031 104.367188 C 37.941406 104.996094 38.066406 105.617188 38.3125 106.21875 C 38.460938 106.589844 38.707031 106.863281 39.101562 106.972656 C 39.4375 107.070312 39.78125 107.132812 40.113281 107.207031 C 40.140625 107.144531 40.164062 107.109375 40.175781 107.085938 C 40.558594 106.144531 40.546875 105.183594 40.324219 104.207031 C 40.078125 103.144531 39.621094 102.15625 39.039062 101.246094 C 38.683594 100.675781 38.273438 100.15625 37.730469 99.75 Z M 37.730469 99.75 "/>
<path style=" stroke:none;fill-rule:nonzero;fill:rgb(12.54902%,24.313725%,43.137255%);fill-opacity:1;" d="M 41.101562 76.042969 C 41.203125 75.785156 41.261719 75.511719 41.324219 75.242188 C 41.375 74.984375 41.351562 74.96875 41.113281 74.871094 C 40.460938 74.601562 39.769531 74.511719 39.066406 74.625 C 38.273438 74.734375 37.582031 75.042969 37.101562 75.722656 C 36.890625 76.019531 36.792969 76.351562 36.78125 76.734375 C 37.90625 77.070312 39.015625 77.390625 40.039062 78.03125 C 40.4375 77.339844 40.84375 76.722656 41.101562 76.042969 Z M 41.101562 76.042969 "/>
</g>
</svg>
