<?xml version="1.0" encoding="UTF-8"?>
<svg xmlns="http://www.w3.org/2000/svg" xmlns:xlink="http://www.w3.org/1999/xlink" width="253pt" height="251pt" viewBox="0 0 253 251" version="1.1">
<g id="surface1">
<path style=" stroke:none;fill-rule:evenodd;fill:rgb(0%,29.411765%,61.176471%);fill-opacity:1;" d="M 121.714844 69.230469 C 125.316406 68.875 128.921875 68.875 132.523438 69.230469 L 134.996094 62.253906 L 135.109375 62.253906 C 140.910156 62.96875 146.574219 64.515625 151.9375 66.777344 L 152.046875 66.804688 L 150.699219 74.113281 C 153.972656 75.632812 157.109375 77.425781 160.050781 79.519531 L 165.660156 74.691406 L 165.742188 74.75 C 170.28125 78.195312 174.351562 82.25 177.816406 86.773438 L 177.898438 86.914062 L 172.863281 86.914062 L 173.003906 86.746094 C 170.886719 84.265625 168.601562 81.949219 166.128906 79.851562 L 160.574219 84.621094 L 160.488281 84.539062 C 156.171875 81.039062 151.304688 78.222656 146.136719 76.210938 L 146.023438 76.183594 L 147.371094 68.957031 C 144.320312 67.851562 141.15625 67.023438 137.96875 66.445312 L 135.519531 73.371094 L 135.410156 73.339844 C 132.660156 72.898438 129.882812 72.679688 127.105469 72.679688 C 124.328125 72.679688 121.550781 72.898438 118.800781 73.339844 L 118.691406 73.371094 L 116.242188 66.445312 C 113.050781 67.023438 109.890625 67.878906 106.835938 68.957031 L 108.183594 76.183594 L 108.074219 76.210938 C 102.878906 78.222656 98.039062 81.039062 93.71875 84.539062 L 93.636719 84.621094 L 88.082031 79.851562 C 85.609375 81.976562 83.296875 84.265625 81.207031 86.746094 L 81.371094 86.914062 L 76.339844 86.914062 L 76.421875 86.773438 C 79.886719 82.25 83.957031 78.195312 88.496094 74.75 L 88.578125 74.691406 L 94.1875 79.492188 C 97.128906 77.394531 100.265625 75.574219 103.539062 74.085938 L 102.191406 66.777344 L 102.300781 66.75 C 107.691406 64.488281 113.355469 62.941406 119.15625 62.226562 L 119.265625 62.226562 Z M 121.714844 69.230469 "/>
<path style=" stroke:none;fill-rule:evenodd;fill:rgb(0%,29.411765%,61.176471%);fill-opacity:1;" d="M 127.105469 76.402344 C 138.546875 76.402344 149.050781 80.292969 157.410156 86.855469 L 154.273438 86.855469 C 146.574219 81.449219 137.199219 78.277344 127.078125 78.277344 C 116.957031 78.277344 107.578125 81.449219 99.878906 86.855469 L 96.800781 86.855469 C 105.160156 80.292969 115.691406 76.402344 127.105469 76.402344 Z M 127.105469 76.402344 "/>
<path style=" stroke:none;fill-rule:evenodd;fill:rgb(0%,29.411765%,61.176471%);fill-opacity:1;" d="M 190.21875 102.027344 C 193.957031 106.21875 196.40625 111.210938 196.296875 118.382812 C 198.191406 116.894531 198.90625 110.632812 202.207031 108.289062 C 203.003906 117.140625 199.566406 123.488281 194.234375 129.140625 C 193.847656 123.457031 189.421875 127.015625 188.183594 113.058594 C 190.410156 114.355469 190.492188 117.886719 193.929688 119.789062 C 189.96875 112.617188 190.355469 109.28125 190.21875 102.027344 Z M 179.628906 170.734375 C 179.683594 171.507812 179.796875 172.28125 179.878906 172.695312 C 177.871094 173.273438 175.917969 174.015625 174.074219 175.285156 C 176.933594 171.5625 178.0625 165.851562 177.429688 161.796875 C 172.726562 168.472656 166.183594 173.632812 166.816406 180.941406 C 166.761719 181.410156 166.789062 182.238281 166.789062 182.898438 C 164.476562 183.589844 162.304688 184.609375 160.1875 186.320312 C 159.800781 186.621094 159.28125 187.257812 159.199219 187.117188 C 159.113281 186.980469 159.664062 186.402344 159.996094 185.960938 C 162.664062 182.539062 164.367188 177.878906 165.878906 174.265625 C 155.871094 181.988281 153.230469 181.683594 148.003906 188.359375 C 146.519531 190.261719 139.863281 191.613281 137.71875 192.054688 C 137.199219 192.167969 137.199219 192.855469 137.691406 192.828125 C 140.140625 192.609375 144.539062 192.910156 146.21875 193.546875 C 154.960938 196.910156 161.78125 195.144531 170.914062 190.261719 C 166.101562 190.675781 161.289062 190.402344 156.476562 189.050781 C 157.273438 188.773438 158.015625 188.058594 158.867188 188.25 C 169.316406 190.648438 176.578125 186.734375 183.726562 179.203125 C 177.511719 180.804688 172.699219 181.355469 167.886719 182.566406 L 167.886719 182.539062 C 168.191406 181.628906 169.648438 180.914062 169.648438 180.914062 C 176.796875 177.796875 184.636719 180.554688 192.03125 168.554688 C 188.292969 170.902344 184.46875 171.425781 180.675781 172.472656 C 180.675781 171.867188 180.621094 171.121094 181.03125 170.375 C 186.476562 165.054688 193.378906 167.371094 200.144531 152.394531 C 196.679688 152.890625 193.160156 155.839844 190.191406 158.074219 C 190.410156 157.300781 190.796875 156.308594 191.289062 155.398438 C 197.175781 150.1875 202.894531 146.269531 203.800781 137.882812 C 201.933594 139.761719 198.769531 141.636719 196.40625 142.988281 C 200.613281 136.644531 204.65625 129.332031 203.800781 120.09375 C 202.152344 127.707031 197.476562 128.589844 194.78125 134.410156 C 193.269531 129.941406 191.539062 127.484375 189.117188 124.589844 C 188.429688 137.636719 193.433594 137.167969 193.847656 146.574219 L 191.976562 148.0625 C 191.976562 143.539062 190.410156 138.878906 188.128906 135.097656 C 187.796875 141.9375 185.183594 150.132812 189.253906 155.921875 C 189.613281 157.082031 189.558594 157.992188 189.449219 158.570312 C 187.878906 159.703125 186.476562 160.585938 185.378906 160.667969 C 186.066406 156.695312 186.066406 152.171875 184.523438 148.144531 C 183.480469 155.507812 178.476562 161.414062 179.628906 170.734375 Z M 179.628906 170.734375 "/>
<path style=" stroke:none;fill-rule:evenodd;fill:rgb(0%,29.411765%,61.176471%);fill-opacity:1;" d="M 63.992188 102.027344 C 60.253906 106.21875 57.804688 111.210938 57.914062 118.382812 C 56.015625 116.894531 55.300781 110.632812 52.003906 108.289062 C 51.203125 117.140625 54.613281 123.488281 59.976562 129.140625 C 60.363281 123.457031 64.789062 127.015625 66.027344 113.058594 C 63.773438 114.355469 63.71875 117.886719 60.28125 119.789062 C 64.265625 112.617188 63.882812 109.28125 63.992188 102.027344 Z M 74.609375 170.734375 C 74.550781 171.507812 74.441406 172.28125 74.359375 172.695312 C 76.367188 173.273438 78.292969 174.015625 80.164062 175.285156 C 77.273438 171.5625 76.175781 165.851562 76.808594 161.796875 C 81.511719 168.472656 88.054688 173.632812 87.421875 180.941406 C 87.476562 181.410156 87.449219 182.238281 87.449219 182.898438 C 89.761719 183.589844 91.933594 184.609375 94.050781 186.320312 C 94.433594 186.621094 94.957031 187.257812 95.039062 187.117188 C 95.121094 186.980469 94.574219 186.402344 94.242188 185.960938 C 91.574219 182.539062 89.84375 177.878906 88.359375 174.265625 C 98.339844 181.988281 101.007812 181.683594 106.234375 188.359375 C 107.71875 190.261719 114.371094 191.613281 116.515625 192.054688 C 117.039062 192.167969 117.039062 192.855469 116.546875 192.828125 C 114.097656 192.609375 109.699219 192.910156 108.019531 193.546875 C 99.273438 196.910156 92.453125 195.144531 83.324219 190.261719 C 88.136719 190.675781 92.949219 190.402344 97.761719 189.050781 C 96.964844 188.773438 96.222656 188.058594 95.371094 188.25 C 84.921875 190.648438 77.660156 186.734375 70.484375 179.203125 C 76.699219 180.804688 81.511719 181.355469 86.324219 182.566406 L 86.324219 182.539062 C 86.019531 181.628906 84.5625 180.914062 84.5625 180.914062 C 77.414062 177.796875 69.574219 180.554688 62.175781 168.554688 C 65.890625 170.902344 69.738281 171.425781 73.535156 172.472656 C 73.535156 171.867188 73.589844 171.121094 73.175781 170.375 C 67.734375 165.054688 60.828125 167.371094 54.066406 152.394531 C 57.53125 152.890625 61.023438 155.839844 64.019531 158.074219 C 63.800781 157.300781 63.414062 156.308594 62.921875 155.398438 C 57.035156 150.1875 51.316406 146.269531 50.40625 137.882812 C 52.277344 139.761719 55.441406 141.636719 57.804688 142.988281 C 53.597656 136.644531 49.554688 129.332031 50.40625 120.09375 C 52.058594 127.707031 56.734375 128.589844 59.425781 134.410156 C 60.941406 129.941406 62.671875 127.484375 65.09375 124.589844 C 65.78125 137.636719 60.773438 137.167969 60.363281 146.574219 L 62.234375 148.0625 C 62.234375 143.539062 63.800781 138.878906 66.082031 135.097656 C 66.414062 141.9375 69.023438 150.132812 64.953125 155.921875 C 64.597656 157.082031 64.652344 157.992188 64.761719 158.570312 C 66.328125 159.703125 67.734375 160.585938 68.832031 160.667969 C 68.144531 156.695312 68.144531 152.171875 69.683594 148.144531 C 70.757812 155.507812 75.734375 161.414062 74.609375 170.734375 Z M 74.609375 170.734375 "/>
<path style=" stroke:none;fill-rule:evenodd;fill:rgb(0%,29.411765%,61.176471%);fill-opacity:1;" d="M 127.105469 193.296875 L 130.570312 187.257812 L 123.613281 187.257812 Z M 194.808594 86.828125 L 127.105469 204.46875 L 59.398438 86.828125 C 104.554688 86.828125 149.683594 86.828125 194.808594 86.828125 Z M 127.078125 170.515625 L 123.859375 164.941406 L 114.261719 164.941406 L 112.53125 167.949219 L 114.015625 170.515625 Z M 122.789062 163.09375 L 119.046875 156.613281 L 115.308594 163.09375 Z M 111.046875 163.09375 L 114.261719 157.523438 L 106.507812 157.523438 L 109.726562 163.09375 Z M 115.335938 155.648438 L 116.929688 152.890625 L 115.308594 150.074219 L 106.699219 150.074219 L 104.472656 153.964844 L 105.433594 155.648438 Z M 114.207031 148.199219 L 110.988281 142.628906 L 110.960938 142.628906 L 107.746094 148.199219 Z M 103.511719 148.199219 L 106.726562 142.628906 L 97.953125 142.628906 L 101.171875 148.199219 Z M 107.773438 140.78125 L 110.988281 135.210938 L 93.664062 135.210938 L 96.882812 140.78125 Z M 111.015625 135.179688 L 114.234375 140.753906 L 123.914062 140.753906 L 127.132812 135.179688 Z M 115.28125 142.628906 L 119.046875 149.164062 L 122.816406 142.628906 Z M 127.132812 135.179688 L 130.351562 140.753906 L 140.03125 140.753906 L 143.246094 135.179688 Z M 131.394531 142.628906 L 135.164062 149.164062 L 138.929688 142.628906 Z M 143.246094 135.179688 L 146.464844 140.753906 L 157.382812 140.753906 L 160.601562 135.179688 Z M 147.511719 142.628906 L 150.726562 148.199219 L 153.066406 148.199219 L 156.28125 142.628906 Z M 149.765625 153.964844 L 147.511719 150.074219 L 138.929688 150.074219 L 137.308594 152.890625 L 138.902344 155.648438 L 148.800781 155.648438 Z M 146.4375 148.199219 L 143.21875 142.628906 L 143.191406 142.628906 L 139.976562 148.199219 Z M 139.976562 157.523438 L 143.191406 163.09375 L 144.539062 163.09375 L 147.757812 157.523438 Z M 141.707031 167.976562 L 139.976562 164.941406 L 130.378906 164.941406 L 127.160156 170.515625 L 140.222656 170.515625 Z M 138.902344 163.09375 L 135.164062 156.613281 L 131.421875 163.09375 Z M 121.191406 152.890625 L 122.789062 155.648438 L 131.449219 155.648438 L 133.046875 152.890625 L 131.421875 150.074219 L 122.84375 150.074219 Z M 123.859375 157.523438 L 127.078125 163.09375 L 127.160156 163.09375 L 130.378906 157.523438 Z M 130.324219 148.199219 L 127.105469 142.628906 L 127.078125 142.628906 L 123.859375 148.199219 Z M 69.050781 92.429688 L 185.210938 92.429688 L 172.371094 114.742188 L 81.894531 114.742188 Z M 85.085938 120.316406 L 169.125 120.316406 L 165.90625 125.886719 L 88.300781 125.886719 Z M 131.671875 185.410156 L 134.886719 179.835938 L 119.351562 179.835938 L 122.566406 185.410156 Z M 135.960938 177.960938 L 139.175781 172.390625 L 115.085938 172.390625 L 118.304688 177.960938 Z M 161.644531 133.332031 L 92.59375 133.332031 L 89.375 127.761719 L 164.863281 127.761719 Z M 161.644531 133.332031 "/>
<path style=" stroke:none;fill-rule:evenodd;fill:rgb(0%,29.411765%,61.176471%);fill-opacity:1;" d="M 127.105469 1.242188 C 195.746094 1.242188 251.378906 57.039062 251.378906 125.886719 C 251.378906 194.730469 195.746094 250.53125 127.105469 250.53125 C 58.464844 250.53125 2.832031 194.730469 2.832031 125.886719 C 2.832031 57.039062 58.464844 1.242188 127.105469 1.242188 Z M 127.105469 8.660156 C 62.5625 8.660156 10.230469 61.121094 10.230469 125.886719 C 10.230469 190.648438 62.535156 243.113281 127.105469 243.113281 C 191.648438 243.113281 243.953125 190.621094 243.953125 125.886719 C 243.953125 61.148438 191.648438 8.660156 127.105469 8.660156 Z M 127.105469 8.660156 "/>
<path style=" stroke:none;fill-rule:evenodd;fill:rgb(0%,29.411765%,61.176471%);fill-opacity:1;" d="M 150.976562 37.097656 C 150.589844 38.421875 150.203125 39.332031 150.039062 40.378906 C 149.984375 40.792969 152.679688 40.105469 152.953125 40.078125 C 152.984375 40.078125 153.011719 40.078125 153.039062 40.078125 C 153.066406 40.078125 153.121094 40.050781 153.148438 40.050781 C 153.640625 39.9375 154.164062 39.882812 154.660156 39.746094 L 155.925781 39.332031 L 156.144531 39.25 L 156.390625 39.167969 C 156.476562 39.140625 156.585938 39.058594 156.585938 38.972656 C 156.585938 38.890625 156.585938 38.78125 156.585938 38.699219 C 156.585938 38.617188 156.476562 38.585938 156.585938 38.53125 C 156.667969 38.503906 156.476562 38.3125 156.75 38.367188 L 156.941406 38.449219 L 157.109375 38.53125 C 157.246094 38.617188 157.382812 38.78125 157.492188 38.890625 C 157.683594 39.085938 157.824219 39.277344 157.933594 39.496094 C 158.015625 39.664062 158.125 40.132812 158.152344 40.296875 L 158.125 40.296875 L 158.125 40.410156 C 158.125 40.4375 157.960938 40.878906 157.933594 40.878906 C 157.933594 40.960938 157.878906 41.097656 157.796875 41.152344 L 157.796875 41.179688 C 157.683594 41.261719 157.628906 41.234375 157.464844 41.320312 C 157.410156 41.539062 156.75 41.703125 156.558594 41.703125 C 156.53125 41.675781 155.511719 41.871094 154.550781 42.035156 C 153.175781 42.339844 151.773438 42.53125 150.976562 42.671875 L 150.890625 42.699219 L 150.863281 42.671875 C 150.753906 42.699219 150.644531 42.699219 150.5625 42.726562 C 150.34375 42.78125 149.902344 42.78125 149.957031 42.972656 C 150.09375 43.441406 149.984375 43.964844 150.507812 44.988281 C 150.671875 45.289062 150.835938 46.421875 150.976562 46.835938 C 151.140625 47.332031 151.441406 48.242188 151.636719 48.710938 C 151.773438 49.125 152.074219 49.675781 152.265625 50.089844 C 152.40625 50.394531 152.488281 50.722656 152.625 51.027344 C 153.011719 51.828125 153.3125 52.296875 153.808594 52.929688 C 153.972656 53.125 154.246094 53.511719 154.414062 53.675781 C 154.578125 53.839844 154.824219 54.0625 155.015625 54.199219 C 155.429688 54.53125 155.925781 54.777344 156.335938 55 C 157.050781 55.386719 157.65625 55.660156 158.125 55.800781 C 158.371094 55.882812 158.648438 55.9375 158.785156 55.992188 C 159.140625 56.128906 159.003906 56.183594 158.261719 56.351562 C 157.824219 56.460938 157.078125 56.710938 156.089844 56.765625 C 155.734375 56.792969 155.238281 56.792969 154.824219 56.875 C 154.328125 56.957031 153.671875 56.683594 153.203125 56.40625 C 152.707031 56.101562 152.40625 55.9375 151.992188 55.359375 C 151.800781 55.109375 151.664062 54.722656 151.496094 54.449219 C 150.949219 53.539062 150.507812 52.738281 150.316406 52.019531 C 150.09375 51.359375 149.957031 50.558594 149.792969 50.035156 C 149.296875 48.40625 148.996094 47.332031 148.664062 46.53125 C 148.554688 46.253906 148.527344 46.171875 148.335938 46.144531 C 148.171875 46.117188 148.113281 46.285156 148.058594 46.367188 C 147.59375 47.082031 147.234375 47.964844 146.738281 48.683594 C 146.300781 49.316406 145.695312 49.8125 145.144531 50.308594 C 144.457031 50.945312 143.6875 51.523438 142.613281 51.6875 C 142.285156 51.746094 141.789062 51.746094 141.40625 51.71875 C 140.71875 51.6875 139.976562 51.441406 138.929688 51.191406 C 137.859375 50.972656 136.042969 50.808594 134.914062 50.421875 C 133.789062 50.035156 133.734375 49.839844 134.308594 49.59375 C 135.628906 49.566406 138.765625 49.621094 139.976562 49.425781 C 141.15625 49.261719 142.039062 48.792969 143.027344 48.046875 C 143.523438 47.664062 143.878906 47.195312 144.320312 46.667969 C 144.675781 46.253906 145.171875 45.621094 145.363281 45.070312 C 145.476562 45.015625 145.886719 44.269531 146.273438 43.46875 C 145.96875 43.496094 145.722656 43.46875 145.476562 43.496094 C 145.035156 43.550781 144.703125 43.550781 144.429688 43.609375 C 143.878906 43.71875 143.578125 43.882812 143.414062 43.910156 C 143.136719 43.9375 143.082031 43.9375 142.726562 43.992188 C 142.449219 44.023438 142.421875 44.160156 142.121094 44.214844 C 141.84375 44.242188 141.84375 44.269531 141.625 44.351562 C 141.488281 44.40625 141.265625 44.40625 141.210938 44.492188 C 140.910156 44.738281 140.550781 44.65625 140.304688 44.792969 C 140.058594 44.820312 139.5625 44.628906 139.398438 44.269531 C 139.398438 44.269531 139.203125 43.828125 139.175781 43.773438 C 139.039062 43.441406 138.902344 43.222656 138.875 43.222656 C 138.902344 42.394531 139.5625 42.117188 140.058594 42.035156 L 140.9375 41.898438 C 141.433594 41.953125 142.066406 41.703125 142.917969 41.566406 C 144.015625 41.375 145.363281 41.375 146.546875 41.070312 C 146.796875 41.015625 146.988281 40.960938 147.179688 40.90625 C 147.398438 40.351562 147.648438 39.746094 147.921875 39.113281 C 148.390625 37.320312 149.957031 33.152344 150.480469 30.671875 L 150.949219 27.746094 L 150.921875 27.746094 C 150.976562 27.363281 150.535156 26.808594 150.589844 26.453125 L 150.617188 26.507812 C 150.617188 26.425781 150.644531 26.367188 150.617188 26.3125 L 150.644531 26.339844 C 150.671875 26.121094 150.808594 25.925781 151.003906 25.816406 L 151.25 25.84375 C 151.9375 25.953125 152.652344 26.285156 153.285156 26.5625 L 153.285156 26.589844 L 153.421875 26.671875 C 153.476562 26.671875 153.558594 26.835938 153.558594 26.921875 C 153.671875 26.976562 153.808594 27.085938 153.808594 27.25 C 153.863281 27.277344 154 27.445312 154 27.582031 L 154.027344 27.582031 C 154.054688 27.804688 154.191406 27.859375 154.191406 28.105469 C 154.441406 28.355469 153.917969 29.183594 153.78125 29.402344 L 153.726562 29.402344 C 153.671875 29.761719 153.503906 30.257812 153.285156 30.535156 L 153.121094 30.949219 C 153.121094 30.949219 153.09375 31.003906 153.09375 31.03125 C 152.40625 32.355469 151.496094 35.359375 150.976562 37.097656 Z M 150.976562 37.097656 "/>
<path style=" stroke:none;fill-rule:evenodd;fill:rgb(0%,29.411765%,61.176471%);fill-opacity:1;" d="M 181.828125 50.28125 C 182.324219 50.558594 182.214844 50.863281 182.269531 51.277344 C 182.296875 51.496094 182.433594 51.660156 182.40625 51.9375 C 182.324219 52.351562 181.472656 53.234375 181.199219 53.289062 C 180.867188 53.34375 180.59375 53.316406 180.234375 53.316406 C 180.015625 53.398438 179.765625 53.480469 179.546875 53.566406 C 178.75 53.839844 177.871094 52.074219 178.117188 51.386719 C 178.667969 51.027344 179.246094 51.054688 179.878906 50.917969 C 180.179688 50.835938 180.425781 50.585938 180.730469 50.476562 C 181.03125 50.394531 181.5 50.367188 181.828125 50.28125 Z M 202.730469 48.601562 C 201.164062 48.988281 199.128906 49.289062 198.300781 49.566406 C 198.136719 49.621094 198.054688 49.980469 198.082031 50.089844 C 198.164062 50.367188 198.328125 50.695312 198.328125 50.945312 C 198.21875 51.054688 197.558594 50.972656 197.3125 51.027344 C 196.898438 51.109375 196.707031 51.054688 196.183594 51.082031 C 195.441406 51.082031 195.167969 51.027344 194.863281 51.304688 C 194.671875 51.46875 194.976562 52.902344 194.671875 53.371094 C 194.371094 53.894531 193.378906 53.757812 193.296875 54.335938 C 193.546875 54.613281 193.628906 54.863281 193.488281 55.191406 C 193.765625 55.304688 194.316406 55.164062 194.835938 55.136719 C 195.167969 55.109375 195.386719 55.21875 195.609375 55.027344 C 195.664062 55 195.71875 54.945312 195.746094 54.890625 C 195.664062 54.28125 195.550781 53.757812 195.882812 53.152344 C 195.9375 53.039062 196.128906 52.40625 196.679688 52.214844 C 197.039062 52.074219 197.148438 51.496094 197.476562 51.441406 C 197.945312 51.359375 198.328125 51.46875 198.632812 51.605469 C 199.292969 52.214844 198.605469 53.011719 198.933594 53.757812 C 199.375 54.035156 201.492188 53.125 201.988281 52.929688 C 201.988281 52.902344 201.988281 52.875 202.015625 52.875 C 201.191406 52.214844 200.199219 51.632812 200.253906 50.808594 C 200.996094 50.007812 202.566406 51.109375 203.445312 51.46875 C 204.105469 51.746094 204.488281 51.386719 205.011719 51.632812 C 205.78125 51.964844 206.167969 55.605469 205.175781 55.992188 C 203.171875 55.359375 198.632812 56.296875 196.324219 56.847656 C 196.296875 56.875 196.296875 56.929688 196.265625 56.957031 C 196.378906 57.152344 196.324219 57.234375 196.296875 57.425781 C 197.257812 58.199219 198.441406 58.804688 199.511719 59.605469 C 199.84375 59.855469 200.226562 60.460938 200.613281 61.675781 C 200.859375 62.417969 199.898438 62.667969 199.703125 62.886719 C 199.292969 63.164062 198.90625 62.941406 198.082031 62.914062 C 197.613281 62.914062 196.953125 62.667969 196.378906 62.53125 C 195.828125 62.390625 195.359375 62.363281 194.726562 62.144531 C 194.234375 61.976562 193.296875 61.839844 192.773438 61.675781 C 191.703125 61.316406 190.601562 61.039062 189.558594 60.738281 C 189.363281 60.707031 189.171875 60.679688 189.117188 60.652344 C 189.007812 60.652344 188.871094 60.570312 188.789062 60.515625 L 188.761719 60.542969 L 188.429688 60.378906 C 188.429688 60.378906 188.402344 60.351562 188.375 60.351562 C 188.292969 60.324219 188.183594 60.269531 188.101562 60.238281 C 187.933594 60.183594 187.769531 60.101562 187.605469 60.019531 C 187.441406 59.964844 187.300781 59.964844 187.21875 59.992188 L 187.054688 59.855469 L 186.863281 60.074219 L 187.300781 60.433594 C 187.359375 60.707031 188.15625 60.765625 188.375 60.957031 L 188.402344 60.929688 L 188.980469 61.148438 C 189.035156 61.261719 189.503906 61.507812 189.613281 61.589844 C 189.613281 61.675781 189.640625 61.757812 189.695312 61.8125 L 189.722656 62.058594 C 189.804688 62.117188 189.777344 62.28125 189.832031 62.363281 L 189.75 62.445312 C 189.886719 62.558594 189.859375 62.558594 189.859375 62.695312 C 189.859375 62.75 189.804688 62.804688 189.777344 62.832031 L 189.804688 62.859375 L 189.804688 63.246094 L 189.640625 63.46875 L 189.75 63.441406 L 189.558594 63.660156 L 189.53125 63.632812 L 189.503906 63.660156 L 189.117188 63.660156 L 189.117188 63.6875 L 188.734375 63.714844 L 188.648438 63.769531 L 188.429688 63.851562 L 188.320312 63.769531 C 188.210938 63.9375 188.183594 63.851562 187.988281 63.882812 L 187.90625 63.796875 L 187.878906 63.851562 C 187.273438 63.796875 187.191406 63.714844 186.613281 63.714844 C 186.503906 63.714844 186.285156 63.714844 186.148438 63.796875 C 186.011719 63.851562 186.011719 63.9375 185.925781 64.019531 C 185.816406 64.101562 185.679688 64.238281 185.734375 64.378906 C 185.789062 64.515625 186.121094 64.625 186.203125 64.679688 C 186.175781 64.652344 186.257812 64.707031 186.3125 64.734375 L 186.285156 64.734375 C 186.394531 64.820312 186.585938 64.820312 186.671875 64.902344 C 186.671875 64.902344 187.578125 65.230469 188.375 65.589844 C 189.226562 65.976562 190.328125 66.554688 190.355469 66.554688 L 190.328125 66.554688 C 191.097656 67.164062 190.824219 67.054688 191.152344 67.90625 L 191.097656 67.964844 C 191.234375 68.074219 191.207031 68.101562 191.234375 68.238281 L 191.152344 68.347656 L 191.261719 68.433594 C 191.261719 68.707031 191.539062 69.285156 191.34375 69.507812 C 190.824219 70.085938 191.042969 69.976562 190.300781 69.699219 C 189.996094 69.589844 189.558594 69.230469 189.28125 69.121094 C 188.703125 68.847656 188.210938 68.542969 187.660156 68.292969 C 187 67.992188 186.449219 67.578125 185.871094 67.328125 C 185.238281 67.054688 184.964844 66.667969 184.46875 66.5 C 184.496094 66.472656 184.113281 66.472656 184.058594 66.445312 C 182.957031 67.660156 181.335938 70.390625 180.371094 71.605469 C 180.125 72.347656 179.546875 72.652344 178.996094 73.066406 L 178.96875 73.039062 L 178.476562 73.617188 L 178.503906 73.617188 C 178.476562 73.644531 178.449219 73.644531 178.421875 73.671875 L 177.871094 74.003906 L 177.816406 73.976562 C 177.648438 74.167969 177.457031 74.363281 177.347656 74.25 C 177.046875 73.976562 176.164062 73.121094 175.257812 72.320312 L 175.257812 72.292969 L 175.09375 71.824219 L 175.121094 71.769531 L 175.011719 71.6875 C 175.011719 71.605469 174.816406 71.273438 174.871094 71.191406 C 174.871094 71.078125 174.707031 70.695312 174.625 70.609375 L 174.488281 70.363281 C 174.488281 70.363281 174.183594 70.003906 174.183594 69.867188 C 174.128906 69.316406 173.9375 67.660156 173.523438 67.328125 C 173.523438 67.246094 173.496094 67.191406 173.441406 67.136719 L 173.332031 66.582031 L 173.414062 66.417969 L 173.25 66.253906 C 173.25 66.226562 173.277344 66.199219 173.277344 66.171875 C 173.523438 66.113281 173.910156 66.613281 174.515625 67.246094 C 174.898438 67.660156 175.3125 67.90625 175.726562 68.347656 C 176.027344 68.707031 176.21875 69.148438 176.46875 69.453125 C 176.660156 69.671875 176.796875 69.867188 176.960938 70.003906 C 177.074219 70.085938 177.210938 70.113281 177.238281 70.140625 C 177.292969 70.085938 177.320312 70.03125 177.375 69.976562 C 177.980469 69.175781 178.75 67.933594 179.246094 67.273438 C 179.683594 66.695312 180.34375 65.867188 180.976562 65.203125 C 180.398438 64.707031 176.300781 63.082031 176.109375 63.164062 L 176.164062 63.136719 C 175.640625 62.695312 174.296875 62.417969 174.210938 61.5625 C 174.183594 61.589844 174.183594 61.480469 174.183594 61.453125 L 174.210938 61.425781 C 174.046875 61.289062 174.019531 61.066406 173.910156 60.902344 L 173.964844 60.847656 C 173.828125 60.738281 173.550781 59.992188 173.664062 59.855469 L 173.609375 59.46875 L 173.636719 59.441406 L 173.550781 59.273438 C 173.496094 59.328125 173.550781 59.109375 173.609375 59.054688 L 173.550781 59 C 173.550781 58.917969 173.550781 58.886719 173.523438 58.804688 C 173.609375 58.75 173.800781 58.335938 173.964844 58.363281 C 174.324219 57.921875 175.039062 58.804688 175.339844 58.804688 C 176.851562 59.550781 176.6875 59.828125 177.953125 60.460938 C 179.355469 61.179688 181.199219 62.199219 181.417969 62.363281 L 181.527344 62.417969 C 181.800781 62.640625 182.792969 62.886719 183.371094 62.886719 C 184.058594 62.914062 184.414062 62.445312 184.800781 62.171875 L 185.074219 62.144531 C 185.265625 62.117188 185.460938 62.003906 185.625 61.867188 L 186.066406 61.480469 C 185.652344 61.148438 185.488281 60.707031 185.101562 60.40625 L 184.910156 60.210938 L 184.9375 60.183594 C 184.496094 59.796875 184.113281 59.632812 184.003906 59.054688 L 184.003906 59.027344 L 183.976562 59 L 184.085938 58.640625 C 184.195312 58.667969 184.523438 58.640625 184.609375 58.558594 C 184.71875 58.613281 185.210938 58.722656 185.351562 58.695312 C 185.433594 58.695312 185.542969 58.804688 185.597656 58.859375 L 185.679688 58.75 C 185.925781 58.945312 187.054688 58.859375 187.359375 58.832031 L 187.441406 58.886719 L 187.496094 58.832031 C 187.6875 58.886719 187.851562 58.886719 188.015625 58.972656 C 188.046875 58.972656 188.101562 58.972656 188.128906 58.972656 L 188.15625 58.945312 L 188.238281 58.945312 C 188.429688 58.917969 188.621094 58.917969 188.816406 58.917969 C 189.007812 58.917969 189.226562 59 189.421875 59.027344 C 191.976562 59.632812 194.671875 59.882812 197.011719 59.9375 C 197.039062 59.910156 197.039062 59.882812 197.066406 59.855469 C 197.066406 59.828125 197.066406 59.828125 197.066406 59.796875 C 195.414062 58.363281 192.609375 57.8125 190.546875 57.09375 C 189.199219 56.625 187.523438 56.019531 186.367188 55.605469 C 186.203125 55.578125 185.984375 55.441406 185.789062 55.273438 C 185.761719 55.246094 185.734375 55.246094 185.707031 55.246094 C 185.679688 55.21875 185.625 55.191406 185.570312 55.191406 C 185.542969 55.191406 185.542969 55.191406 185.515625 55.191406 C 185.488281 55.164062 185.433594 55.136719 185.40625 55.136719 C 185.324219 55.164062 185.296875 55.164062 185.296875 55.164062 C 185.265625 55.136719 185.238281 55.136719 185.210938 55.109375 L 184.691406 54.667969 L 184.664062 54.695312 C 184.578125 54.640625 184.523438 54.558594 184.441406 54.53125 L 184.167969 54.308594 C 184.167969 54.308594 184.140625 54.28125 184.113281 54.253906 C 184.085938 54.199219 184.058594 54.144531 184.003906 54.089844 L 183.011719 53.261719 C 183.011719 53.234375 182.984375 53.207031 182.957031 53.207031 C 182.957031 53.179688 182.929688 53.152344 182.902344 53.125 C 182.875 53.070312 182.847656 53.011719 182.820312 52.984375 C 182.820312 52.929688 182.792969 52.875 182.738281 52.847656 L 182.792969 52.875 C 182.792969 52.847656 182.792969 52.820312 182.792969 52.792969 L 182.820312 52.738281 L 183.066406 52.433594 C 183.09375 52.40625 183.09375 52.378906 183.09375 52.351562 C 183.121094 52.324219 183.121094 52.296875 183.121094 52.296875 L 183.261719 52.128906 L 183.175781 52.128906 C 183.234375 52.128906 183.261719 52.101562 183.289062 52.074219 C 183.316406 52.074219 183.316406 52.074219 183.34375 52.046875 C 183.371094 51.992188 183.507812 51.992188 183.5625 51.992188 C 183.589844 51.992188 183.617188 51.992188 183.644531 51.992188 C 183.671875 51.992188 183.726562 52.019531 183.78125 52.019531 L 184.003906 52.1875 L 184.085938 52.074219 C 184.113281 52.074219 184.140625 52.074219 184.167969 52.074219 C 184.195312 52.074219 184.222656 52.101562 184.277344 52.101562 C 184.304688 52.128906 184.332031 52.128906 184.359375 52.128906 C 184.386719 52.160156 184.414062 52.160156 184.441406 52.1875 C 184.496094 52.214844 184.550781 52.269531 184.609375 52.296875 C 184.636719 52.296875 184.636719 52.324219 184.664062 52.324219 L 184.882812 52.515625 L 184.9375 52.460938 C 184.964844 52.460938 184.964844 52.488281 184.992188 52.488281 C 185.019531 52.515625 185.128906 52.542969 185.183594 52.570312 C 185.210938 52.601562 185.238281 52.601562 185.296875 52.601562 C 185.324219 52.601562 185.378906 52.628906 185.40625 52.628906 C 185.460938 52.65625 185.488281 52.65625 185.515625 52.683594 L 185.542969 52.65625 C 185.570312 52.65625 185.597656 52.65625 185.597656 52.65625 C 185.625 52.65625 185.652344 52.683594 185.679688 52.683594 C 185.707031 52.710938 185.761719 52.710938 185.789062 52.710938 C 185.816406 52.710938 185.84375 52.738281 185.898438 52.738281 C 185.925781 52.765625 185.984375 52.765625 186.011719 52.765625 C 186.039062 52.765625 186.066406 52.765625 186.09375 52.792969 C 186.121094 52.820312 186.148438 52.820312 186.175781 52.847656 C 186.203125 52.847656 186.230469 52.847656 186.257812 52.847656 C 186.285156 52.847656 186.3125 52.875 186.339844 52.875 C 186.367188 52.875 186.394531 52.902344 186.421875 52.902344 C 186.476562 52.902344 186.53125 52.957031 186.585938 52.957031 C 186.613281 52.957031 186.640625 52.984375 186.640625 52.984375 C 186.808594 53.011719 186.945312 53.039062 187.082031 53.070312 C 188.980469 53.34375 191.097656 55.359375 192.472656 52.738281 C 192.417969 52.542969 192.554688 51.882812 192.28125 51.800781 C 191.867188 51.828125 191.234375 51.910156 190.824219 51.9375 C 190.4375 51.910156 189.585938 52.019531 188.980469 51.855469 C 188.734375 51.800781 188.511719 51.71875 188.375 51.632812 C 188.375 51.605469 188.375 51.605469 188.375 51.578125 C 188.539062 51.386719 188.703125 51.136719 188.925781 51 C 189.832031 50.394531 191.125 50.308594 192.113281 50.0625 C 192.058594 49.757812 191.921875 49.34375 191.921875 48.929688 C 191.867188 48.132812 191.34375 48.710938 190.933594 48.628906 C 190.519531 48.546875 191.070312 48.765625 190.933594 49.234375 C 190.796875 49.730469 189.585938 49.785156 189.253906 49.867188 C 188.925781 49.953125 188.648438 49.757812 188.375 50.035156 C 187.796875 50.613281 187.273438 52.046875 186.230469 51.386719 C 186.039062 51.277344 184.855469 49.730469 185.046875 49.621094 C 185.15625 49.34375 185.570312 48.820312 185.652344 48.683594 C 186.066406 48.1875 186.699219 47.25 186.890625 46.476562 C 186.972656 46.171875 186.863281 45.871094 186.835938 45.621094 C 186.808594 45.484375 186.945312 45.457031 187.027344 45.429688 C 187.632812 45.84375 188.183594 46.945312 188.210938 47.578125 C 188.621094 48.433594 189.804688 46.089844 190.300781 45.703125 C 190.710938 45.402344 191.179688 45.785156 191.289062 46.035156 C 191.398438 46.285156 191.289062 47.195312 191.015625 47.523438 C 190.738281 47.855469 191.425781 48.019531 191.425781 48.019531 L 192.113281 47.136719 C 192.113281 47.136719 192.253906 46.585938 191.894531 46.199219 C 191.648438 45.925781 191.484375 44.960938 191.59375 44.546875 C 191.757812 44.023438 192.472656 44.875 192.609375 44.820312 C 193.105469 44.875 193.433594 45.015625 193.902344 45.261719 C 194.234375 45.429688 194.398438 45.59375 194.671875 45.757812 C 195.332031 46.171875 194.699219 47.636719 195.46875 47.691406 C 197.339844 47.109375 199.402344 46.558594 201.273438 45.84375 L 201.464844 45.757812 C 201.628906 45.730469 202.125 45.675781 202.179688 45.566406 C 202.207031 45.566406 202.234375 45.539062 202.261719 45.539062 C 202.289062 45.511719 202.371094 45.484375 202.425781 45.457031 C 202.621094 45.34375 202.839844 45.316406 203.003906 45.152344 C 203.03125 45.152344 203.085938 45.125 203.113281 45.097656 C 203.171875 45.070312 203.226562 45.042969 203.253906 45.015625 C 203.472656 44.875 203.914062 44.546875 203.886719 44.296875 C 203.886719 44.214844 203.914062 44.214844 203.941406 44.132812 C 204.214844 43.691406 204.132812 43.992188 204.242188 43.550781 C 204.269531 43.523438 204.296875 43.46875 204.324219 43.414062 L 204.378906 43.332031 C 204.40625 43.332031 204.40625 43.332031 204.40625 43.332031 C 204.738281 43.550781 204.515625 43.332031 204.792969 43.523438 C 204.820312 43.550781 204.820312 43.582031 204.847656 43.582031 C 204.847656 43.609375 204.875 43.609375 204.902344 43.636719 C 204.957031 43.746094 205.398438 44.132812 205.425781 44.160156 C 205.425781 44.1875 205.453125 44.1875 205.453125 44.1875 C 205.480469 44.242188 205.507812 44.269531 205.535156 44.296875 C 205.699219 44.40625 205.589844 44.324219 205.699219 44.492188 C 205.753906 44.601562 205.863281 44.683594 205.949219 44.738281 C 205.976562 44.765625 205.976562 44.792969 206.03125 44.820312 C 206.03125 44.847656 206.058594 44.875 206.085938 44.875 C 206.085938 44.902344 206.113281 44.902344 206.113281 44.933594 C 206.113281 44.988281 206.167969 45.042969 206.195312 45.097656 C 206.195312 45.125 206.222656 45.152344 206.25 45.179688 C 206.277344 45.234375 206.277344 45.261719 206.332031 45.289062 C 206.359375 45.316406 206.386719 45.375 206.414062 45.402344 C 206.414062 45.429688 206.441406 45.429688 206.46875 45.457031 C 206.496094 45.484375 206.496094 45.511719 206.523438 45.511719 C 206.523438 45.511719 206.550781 45.539062 206.550781 45.539062 C 206.550781 45.566406 206.550781 45.566406 206.578125 45.59375 C 206.578125 45.648438 206.609375 45.675781 206.636719 45.757812 C 206.636719 45.757812 206.636719 45.8125 206.664062 45.84375 C 206.691406 45.898438 206.71875 45.953125 206.71875 46.007812 C 206.71875 46.0625 206.746094 46.117188 206.773438 46.171875 C 206.800781 46.253906 206.800781 46.226562 206.800781 46.3125 C 206.800781 46.339844 206.800781 46.367188 206.800781 46.421875 C 206.800781 46.476562 206.800781 46.53125 206.828125 46.585938 C 206.828125 46.613281 206.828125 46.667969 206.828125 46.726562 C 206.828125 46.726562 206.828125 46.753906 206.828125 46.753906 C 206.828125 46.78125 206.828125 46.808594 206.828125 46.863281 C 206.828125 46.890625 206.828125 46.917969 206.828125 46.972656 C 206.828125 47 206.800781 47.027344 206.828125 47.054688 C 206.800781 47.109375 206.800781 47.164062 206.828125 47.222656 C 206.828125 47.25 206.800781 47.304688 206.828125 47.359375 C 206.828125 47.386719 206.828125 47.441406 206.828125 47.46875 C 206.828125 47.496094 206.828125 47.523438 206.828125 47.550781 C 206.828125 47.578125 206.800781 47.636719 206.800781 47.691406 C 206.800781 47.71875 206.800781 47.746094 206.800781 47.773438 L 206.636719 48.019531 C 206.578125 48.046875 206.550781 48.074219 206.523438 48.132812 C 206.496094 48.160156 206.46875 48.1875 206.441406 48.214844 C 206.386719 48.242188 206.332031 48.351562 206.222656 48.433594 C 206.167969 48.460938 206.113281 48.546875 206.058594 48.546875 C 206.03125 48.546875 205.976562 48.574219 205.949219 48.574219 C 205.949219 48.574219 205.921875 48.574219 205.921875 48.574219 C 205.753906 48.574219 205.398438 48.601562 205.261719 48.65625 C 205.234375 48.65625 205.121094 48.65625 205.09375 48.683594 C 205.011719 48.683594 205.011719 48.683594 204.957031 48.710938 C 204.929688 48.710938 204.875 48.710938 204.847656 48.710938 C 204.820312 48.710938 204.765625 48.710938 204.738281 48.710938 C 204.710938 48.710938 204.683594 48.710938 204.628906 48.710938 C 204.214844 48.628906 203.828125 48.65625 203.417969 48.710938 C 203.363281 48.710938 203.308594 48.683594 203.28125 48.683594 C 203.253906 48.683594 203.226562 48.683594 203.199219 48.683594 C 203.171875 48.683594 203.140625 48.65625 203.113281 48.683594 Z M 202.730469 48.601562 "/>
<path style=" stroke:none;fill-rule:evenodd;fill:rgb(0%,29.411765%,61.176471%);fill-opacity:1;" d="M 111.210938 45.207031 C 111.871094 45.097656 112.421875 44.738281 112.96875 44.433594 C 113.300781 44.242188 113.65625 44.023438 114.042969 43.9375 C 115.308594 43.691406 116.160156 44.820312 115.691406 46.089844 C 115.390625 46.917969 115.058594 47.71875 114.757812 48.515625 C 114.648438 48.792969 114.566406 49.097656 114.453125 49.484375 C 114.8125 49.621094 115.113281 49.730469 115.445312 49.839844 C 115.773438 49.953125 116.105469 50.007812 116.433594 50.117188 C 117.398438 50.367188 117.589844 50.558594 117.617188 51.191406 C 117.644531 51.910156 117.09375 52.683594 116.40625 52.902344 C 115.636719 53.152344 114.949219 53.011719 114.316406 52.488281 C 113.960938 52.1875 113.628906 51.910156 113.273438 51.605469 C 112.53125 52.488281 111.816406 53.289062 111.128906 54.144531 C 110.496094 54.890625 109.3125 55.109375 108.488281 54.585938 C 108.433594 54.558594 108.378906 54.503906 108.351562 54.476562 C 107.277344 53.675781 107.304688 53.398438 108.433594 52.710938 C 109.230469 52.214844 110 51.6875 110.742188 51.136719 C 111.046875 50.917969 111.238281 50.613281 111.511719 50.339844 C 111.347656 49.980469 111.210938 49.675781 111.101562 49.34375 C 110.90625 48.738281 111.074219 48.515625 111.675781 48.515625 C 112.007812 48.515625 112.335938 48.515625 112.722656 48.515625 C 112.886719 47.882812 113.050781 47.277344 113.191406 46.753906 C 112.75 46.367188 112.335938 46.339844 111.898438 46.53125 C 111.703125 46.613281 111.484375 46.78125 111.292969 46.726562 C 110.414062 46.558594 110.136719 47.164062 109.726562 47.71875 C 108.460938 49.425781 107.46875 51.277344 106.507812 53.152344 C 106.09375 53.953125 105.601562 54.695312 105.132812 55.46875 C 104.96875 55.714844 104.71875 55.910156 104.472656 56.101562 C 104.171875 56.351562 103.839844 56.351562 103.566406 56.046875 C 103.207031 55.660156 102.851562 55.273438 102.574219 54.832031 C 102.328125 54.449219 102.273438 53.980469 102.464844 53.480469 C 102.878906 52.460938 103.425781 51.523438 104.253906 50.808594 C 105.738281 49.511719 106.835938 47.992188 107.71875 46.226562 C 107.9375 45.8125 108.210938 45.457031 108.515625 44.988281 C 108.351562 44.738281 108.15625 44.433594 107.964844 44.1875 C 107.828125 43.992188 107.636719 43.828125 107.523438 43.609375 C 107.167969 42.945312 107.441406 42.367188 108.183594 42.230469 C 108.597656 42.144531 109.039062 42.144531 109.476562 42.089844 C 110.386719 41.953125 110.988281 41.347656 111.210938 40.464844 C 111.292969 40.160156 111.265625 39.910156 110.960938 39.746094 C 110.6875 39.609375 110.523438 39.773438 110.328125 39.96875 C 109.285156 41.097656 108.488281 41.179688 107.25 40.351562 C 107.441406 39.882812 107.664062 39.386719 107.855469 38.917969 C 107.195312 38.421875 107.167969 38.394531 106.699219 38.890625 C 106.371094 39.222656 106.039062 39.441406 105.515625 39.140625 C 105.574219 38.808594 105.628906 38.476562 105.65625 38.144531 C 105.683594 37.816406 105.683594 37.484375 105.710938 37.152344 C 105.242188 37.015625 105.078125 37.320312 104.886719 37.539062 C 104.746094 37.707031 104.636719 37.898438 104.554688 38.089844 C 103.621094 40.820312 101.96875 43.167969 100.648438 45.703125 C 99.6875 47.523438 98.753906 49.34375 97.84375 51.164062 C 97.128906 52.601562 96.46875 54.089844 95.726562 55.523438 C 95.09375 56.738281 94.378906 57.894531 93.691406 59.082031 C 93.609375 59.246094 93.472656 59.386719 93.363281 59.523438 C 92.539062 60.433594 92.179688 60.351562 91.683594 59.21875 C 91.601562 59.054688 91.519531 58.859375 91.410156 58.722656 C 90.777344 57.976562 90.859375 57.179688 91.191406 56.351562 C 91.519531 55.550781 91.90625 54.75 92.179688 53.921875 C 92.316406 53.511719 92.703125 53.703125 92.894531 53.480469 C 93.363281 52.902344 93.941406 52.40625 94.324219 51.773438 C 97.597656 46.339844 100.84375 40.90625 104.085938 35.472656 C 104.308594 35.085938 104.5 34.753906 104.445312 34.257812 C 104.417969 33.59375 104.914062 33.152344 105.378906 32.851562 C 105.738281 32.628906 105.984375 32.355469 106.175781 31.996094 C 106.835938 31.003906 107.496094 30.039062 108.128906 29.042969 C 108.238281 28.851562 108.296875 28.628906 108.460938 28.21875 C 107.828125 28.464844 107.414062 28.628906 107.003906 28.796875 C 105.792969 29.320312 104.554688 29.84375 103.34375 30.394531 C 103.042969 30.535156 102.738281 30.726562 102.4375 30.890625 C 101.144531 31.582031 99.824219 31.859375 98.421875 31.277344 C 97.570312 30.917969 97.296875 30.507812 97.351562 29.707031 C 99.027344 29.292969 100.734375 28.960938 102.355469 28.410156 C 103.976562 27.859375 105.628906 27.304688 107.25 26.3125 C 106.148438 25.597656 105.1875 24.960938 104.199219 24.355469 C 103.703125 24.050781 103.398438 23.664062 103.398438 23.085938 C 103.398438 22.617188 103.648438 22.371094 104.085938 22.507812 C 105.1875 22.8125 106.289062 22.78125 107.414062 22.8125 C 108.074219 22.839844 108.761719 23.03125 109.367188 23.308594 C 110.21875 23.722656 110.359375 24.21875 110.027344 25.265625 C 110.328125 25.15625 110.578125 25.101562 110.796875 24.988281 C 111.539062 24.632812 112.28125 24.21875 113.050781 23.886719 C 114.261719 23.390625 114.675781 23.777344 115.03125 24.660156 C 115.085938 24.824219 115.199219 24.988281 115.253906 25.183594 C 115.582031 26.121094 115.199219 26.867188 114.261719 27.140625 C 113.382812 27.390625 112.476562 27.609375 111.59375 27.886719 C 111.292969 27.96875 110.933594 28.160156 110.769531 28.410156 C 109.449219 30.203125 108.15625 32.023438 106.863281 33.84375 C 106.78125 33.953125 106.753906 34.0625 106.699219 34.203125 C 106.835938 34.367188 106.921875 34.5625 107.085938 34.699219 C 107.523438 35.140625 107.746094 35.113281 108.101562 34.589844 C 108.324219 34.257812 108.542969 33.925781 108.816406 33.621094 C 109.808594 32.4375 110.660156 31.222656 110.714844 29.597656 C 111.292969 29.238281 111.84375 29.429688 112.308594 29.707031 C 112.503906 29.816406 112.640625 30.175781 112.613281 30.394531 C 112.53125 31.03125 112.335938 31.636719 112.171875 32.300781 C 112.804688 32.742188 112.886719 32.769531 113.382812 32.269531 C 113.765625 31.914062 114.125 31.5 114.371094 31.058594 C 114.59375 30.671875 114.839844 30.617188 115.199219 30.617188 C 115.859375 30.671875 116.40625 31.140625 116.683594 31.859375 C 116.929688 32.519531 116.65625 32.988281 116.132812 33.402344 C 115.636719 33.761719 115.171875 34.203125 114.621094 34.476562 C 113.546875 35.085938 112.859375 36.023438 112.226562 37.015625 C 112.171875 37.125 112.144531 37.234375 112.089844 37.375 C 112.476562 37.734375 112.804688 37.707031 113.136719 37.347656 C 113.410156 37.015625 113.65625 36.65625 113.988281 36.355469 C 114.261719 36.078125 114.621094 35.828125 114.976562 35.691406 C 115.527344 35.5 115.886719 35.746094 116.105469 36.324219 C 116.242188 36.65625 116.40625 36.988281 116.628906 37.292969 C 116.984375 37.816406 116.984375 38.230469 116.488281 38.671875 C 116.132812 39 115.691406 39.277344 115.308594 39.582031 C 114.703125 40.050781 114.675781 40.1875 114.894531 40.933594 C 115.113281 41.675781 115.003906 42.007812 114.316406 42.394531 C 113.710938 42.726562 113.109375 43.027344 112.503906 43.359375 C 111.703125 43.800781 111.320312 44.40625 111.210938 45.207031 Z M 109.917969 36.960938 C 110.273438 36.296875 110.632812 35.746094 110.90625 35.167969 C 110.988281 35.003906 110.90625 34.644531 110.769531 34.53125 C 110.660156 34.449219 110.300781 34.503906 110.136719 34.644531 C 109.53125 35.058594 109.285156 35.746094 108.953125 36.4375 C 109.257812 36.601562 109.503906 36.738281 109.917969 36.960938 Z M 106.148438 42.394531 C 106.011719 42.863281 105.929688 43.195312 105.875 43.386719 C 106.09375 43.964844 106.480469 44.492188 106.425781 44.988281 C 106.371094 45.511719 105.984375 46.0625 105.628906 46.503906 C 104.941406 47.277344 104.003906 47.441406 102.601562 46.3125 C 103.042969 44.519531 104.058594 43.332031 106.148438 42.394531 Z M 106.148438 42.394531 "/>
<path style=" stroke:none;fill-rule:evenodd;fill:rgb(0%,29.411765%,61.176471%);fill-opacity:1;" d="M 59.675781 35.527344 C 59.757812 35.527344 59.730469 35.445312 60.140625 35.5 C 60.472656 35.664062 60.472656 35.636719 60.800781 35.71875 C 61.132812 35.800781 61.738281 36.242188 62.289062 36.65625 C 62.835938 37.042969 63.636719 38.0625 63.855469 38.945312 C 64.074219 39.828125 64.019531 40.90625 63.828125 41.675781 C 63.773438 41.871094 63.496094 42.558594 63.277344 43.46875 C 63.03125 44.519531 62.863281 45.8125 62.507812 47.222656 C 62.34375 47.910156 62.039062 48.710938 61.875 49.34375 C 61.710938 50.0625 61.601562 50.75 61.460938 51.277344 C 61.296875 51.910156 61.105469 52.378906 61.023438 52.628906 C 60.609375 53.839844 60.113281 55.523438 59.785156 55.742188 C 59.785156 55.742188 59.894531 53.566406 59.976562 51.910156 C 60.003906 51.191406 60.03125 50.585938 60.03125 50.308594 C 60.003906 49.484375 60.199219 48.601562 60.199219 47.773438 C 60.226562 45.539062 60.171875 43.359375 60.140625 40.960938 C 60.171875 40.078125 60.058594 39.277344 59.894531 38.449219 C 59.757812 37.566406 59.261719 35.855469 59.675781 35.527344 Z M 72.105469 61.234375 L 72.984375 62.144531 L 73.066406 62.171875 C 73.398438 62.695312 73.699219 63.300781 73.890625 63.769531 C 74.003906 64.019531 74.140625 64.183594 74.25 64.292969 C 74.386719 64.460938 74.578125 64.378906 74.964844 64.210938 C 75.183594 64.128906 75.378906 64.238281 75.570312 64.210938 C 75.816406 64.183594 75.984375 64.292969 76.09375 64.378906 C 76.203125 64.460938 76.53125 64.734375 76.613281 64.984375 C 76.726562 65.316406 76.753906 65.671875 76.78125 65.894531 C 76.863281 66.28125 76.835938 66.554688 76.835938 66.554688 C 76.835938 67.082031 76.835938 67.328125 76.890625 67.796875 C 77 68.433594 76.972656 68.902344 76.972656 68.902344 C 77.21875 68.984375 77.359375 68.816406 77.550781 68.652344 C 78.015625 68.210938 78.375 67.273438 78.375 67.273438 C 78.648438 66.417969 79.007812 66.363281 79.253906 66.199219 C 79.503906 66.03125 80.4375 66.199219 80.933594 66.613281 C 81.484375 67.054688 81.484375 67.824219 81.289062 68.074219 C 80.796875 68.789062 80.328125 69.316406 79.804688 70.003906 C 79.421875 70.527344 79.035156 71.21875 78.675781 71.742188 C 78.648438 71.851562 78.074219 72.320312 77.933594 73.039062 C 77.796875 73.644531 76.808594 74.140625 76.503906 74.085938 C 75.925781 73.976562 74.441406 73.589844 74.25 72.957031 C 74.085938 72.460938 73.835938 71.605469 73.78125 71.464844 C 73.699219 71.300781 73.753906 69.839844 73.371094 69.011719 C 73.121094 68.460938 72.902344 68.128906 72.792969 67.769531 C 72.710938 67.523438 72.628906 67.464844 72.433594 67.410156 C 72.433594 67.410156 72.105469 67.4375 71.71875 67.464844 C 71.472656 67.496094 71.199219 67.714844 70.949219 67.714844 C 70.785156 67.714844 70.371094 67.714844 70.234375 67.6875 C 70.070312 67.632812 70.015625 67.4375 70.179688 67.164062 C 70.234375 67.082031 70.261719 66.804688 70.371094 66.695312 C 70.453125 66.613281 70.539062 66.5 70.621094 66.417969 C 70.648438 66.363281 70.757812 66.253906 70.8125 66.226562 C 71.199219 65.8125 71.773438 65.535156 71.773438 65.535156 L 71.71875 65.425781 C 71.636719 65.261719 71.609375 65.148438 71.445312 64.984375 C 71.308594 64.847656 71.003906 64.625 70.785156 64.351562 C 70.59375 64.128906 69.960938 63 69.628906 62.253906 L 69.191406 61.617188 L 68.996094 61.839844 C 68.832031 62.117188 68.832031 62.558594 68.558594 62.75 C 68.585938 62.804688 68.199219 63.273438 68.28125 63.410156 L 68.199219 63.714844 L 68.171875 63.742188 C 68.253906 63.882812 68.144531 63.964844 68.171875 64.101562 C 68.089844 64.15625 67.429688 66.527344 67.320312 66.390625 C 67.320312 66.417969 67.320312 66.445312 67.320312 66.5 C 67.046875 66.75 66.769531 66.777344 66.414062 66.886719 C 66.328125 66.777344 66.054688 66.96875 65.917969 67.023438 L 65.726562 66.914062 C 64.925781 66.363281 64.734375 65.453125 64.816406 64.570312 C 64.84375 64.542969 64.953125 63.851562 64.925781 63.769531 C 64.984375 63.578125 64.789062 63.523438 64.898438 63.082031 C 64.984375 62.859375 65.039062 62.53125 64.984375 62.308594 L 64.984375 62.144531 C 65.066406 61.921875 65.066406 61.730469 64.984375 61.425781 C 65.011719 61.34375 64.984375 61.261719 65.039062 61.179688 C 65.011719 61.121094 65.175781 60.488281 65.175781 60.351562 C 65.203125 60.128906 65.285156 59.769531 65.3125 59.523438 C 65.394531 59.46875 65.449219 58.832031 65.476562 58.695312 C 65.476562 58.695312 65.503906 57.398438 65.503906 57.234375 L 65.503906 57.179688 L 65.613281 56.820312 C 65.53125 56.652344 65.753906 55.992188 65.753906 55.964844 C 65.613281 55.9375 65.726562 55.164062 65.726562 55.164062 L 65.78125 54.863281 C 65.726562 54.777344 65.753906 54.667969 65.699219 54.585938 C 65.640625 54.503906 65.558594 54.421875 65.503906 54.308594 L 65.257812 54.476562 C 65.339844 54.585938 65.066406 54.972656 64.953125 55.054688 C 64.953125 55.082031 64.488281 56.101562 64.324219 56.214844 C 64.351562 56.269531 64.019531 57.125 63.9375 57.207031 C 63.964844 57.261719 63.277344 58.335938 63.386719 58.503906 C 63.359375 58.667969 62.949219 59.414062 62.949219 59.414062 C 62.78125 59.550781 62.507812 60.324219 62.5625 60.40625 C 62.507812 60.488281 62.507812 60.679688 62.425781 60.738281 L 62.425781 60.765625 C 62.371094 60.902344 62.09375 61.316406 62.148438 61.398438 C 62.09375 61.480469 62.121094 61.675781 62.011719 61.730469 C 61.902344 62.089844 61.710938 62.308594 61.65625 62.695312 L 61.628906 62.722656 L 61.65625 62.75 L 61.574219 63 C 61.515625 63.273438 61.351562 63.742188 61.242188 64.074219 L 61.214844 64.183594 C 61.1875 64.320312 61.023438 64.929688 61.050781 65.011719 C 60.996094 65.09375 61.023438 65.289062 60.941406 65.371094 C 60.828125 66.03125 60.199219 67.109375 60.113281 67.605469 C 60.058594 67.964844 58.90625 68.847656 58.546875 68.902344 C 58.519531 68.875 57.996094 68.984375 57.914062 69.011719 C 57.914062 68.984375 57.144531 69.230469 57.035156 69.257812 C 57.035156 69.257812 55.441406 69.726562 55.246094 69.757812 C 55.21875 69.699219 54.640625 69.949219 54.558594 69.589844 L 54.367188 68.761719 C 54.476562 68.597656 54.476562 67.6875 54.640625 67.605469 L 54.640625 67.578125 C 54.671875 67.4375 55 66.554688 55 66.527344 C 55.054688 66.445312 55.359375 66.003906 55.328125 65.976562 L 55.441406 65.839844 C 55.90625 65.398438 59.566406 59.164062 59.566406 59.164062 C 59.949219 58.667969 60.253906 57.621094 60.746094 57.261719 L 60.746094 57.234375 C 60.828125 57.066406 61.628906 55.910156 61.628906 55.910156 C 61.710938 55.714844 62.480469 54.585938 62.480469 54.558594 C 62.5625 54.449219 63.058594 53.867188 63.03125 53.8125 C 63.386719 53.566406 63.414062 52.902344 63.691406 52.710938 L 63.691406 52.683594 C 63.773438 52.515625 63.828125 52.242188 64.019531 52.128906 C 64.101562 52.019531 64.183594 51.882812 64.074219 51.746094 L 64.101562 51.746094 L 63.085938 50.253906 C 63.140625 50.171875 63.496094 49.289062 63.46875 49.261719 C 63.496094 49.125 64.707031 47.054688 64.761719 47.027344 C 64.597656 47 65.011719 46.917969 65.121094 46.808594 L 65.367188 46.945312 C 65.421875 47.027344 65.503906 47.082031 65.558594 47.164062 C 65.613281 47.136719 65.808594 47.441406 65.835938 47.46875 L 65.835938 47.414062 C 65.835938 47.496094 66.441406 48.460938 66.550781 48.628906 L 66.742188 48.378906 C 66.988281 48.296875 68.390625 47.054688 68.308594 46.917969 C 68.914062 46.503906 68.777344 46.613281 69.355469 46.53125 L 69.710938 46.78125 C 70.566406 47.222656 69.824219 48.074219 69.90625 48.1875 C 69.851562 48.378906 69.824219 48.847656 69.710938 48.929688 C 69.796875 49.042969 69.546875 50.117188 69.492188 50.144531 L 69.519531 50.171875 L 68.804688 51.46875 C 68.832031 51.496094 68.667969 52.628906 68.585938 52.683594 C 68.613281 52.710938 68.832031 54.390625 69.21875 54.945312 C 69.21875 54.945312 69.492188 55.441406 69.519531 55.46875 L 69.960938 54.53125 C 70.289062 54.28125 70.289062 53.289062 70.648438 53.039062 C 70.566406 52.929688 71.691406 52.128906 71.636719 52.128906 C 72.433594 51.828125 73.671875 51.660156 74.222656 52.488281 C 74.25 52.378906 74.609375 53.152344 74.359375 53.316406 C 74.414062 53.398438 74.359375 53.511719 74.332031 53.703125 L 74.332031 55.578125 C 74.332031 55.578125 74.332031 55.882812 74.359375 55.9375 C 74.277344 55.992188 74.222656 56.984375 74.222656 57.179688 L 74.222656 57.535156 C 74.167969 57.59375 74.222656 58.390625 74.195312 58.585938 C 74.058594 58.945312 74.03125 59.164062 73.863281 59.441406 C 73.726562 59.6875 73.425781 59.9375 73.175781 60.269531 C 72.792969 60.820312 72.628906 60.875 72.105469 61.234375 Z M 72.132812 56.183594 C 72.078125 56.820312 72.214844 57.066406 72.023438 57.566406 C 72.132812 57.703125 71.773438 58.445312 71.664062 58.613281 L 71.664062 58.640625 L 71.199219 58.972656 L 70.316406 57.703125 C 70.371094 57.675781 70.34375 57.480469 70.539062 57.207031 L 70.539062 57.234375 L 70.976562 56.074219 L 71.253906 55.632812 L 71.445312 55.21875 L 71.691406 55.054688 L 71.996094 55.191406 C 71.996094 55.496094 72.105469 55.828125 72.132812 56.183594 Z M 66.359375 62.75 C 66.136719 62.28125 66.273438 61.066406 66.246094 60.597656 C 66.246094 60.269531 66.441406 59.578125 66.46875 59.386719 C 66.496094 59.191406 66.742188 58.226562 66.6875 58.171875 L 66.796875 58.035156 L 66.933594 58.003906 L 67.101562 58.226562 L 67.59375 59 C 67.734375 59.300781 68.035156 59.550781 67.675781 60.15625 C 67.621094 60.296875 67.648438 60.488281 67.457031 60.902344 C 67.457031 60.902344 67.292969 61.207031 67.15625 61.535156 C 67.074219 61.757812 66.988281 62.003906 66.851562 62.253906 C 66.742188 62.472656 66.605469 62.695312 66.46875 62.832031 C 66.414062 62.832031 66.414062 62.832031 66.359375 62.75 Z M 66.359375 62.75 "/>
<path style=" stroke:none;fill-rule:evenodd;fill:rgb(0%,29.411765%,61.176471%);fill-opacity:1;" d="M 85.441406 111.296875 L 85.441406 109.585938 C 86.40625 109.558594 87.066406 109.445312 87.421875 109.199219 C 87.78125 108.949219 87.945312 108.535156 87.945312 107.902344 L 87.945312 100.484375 C 87.945312 99.792969 87.808594 99.351562 87.503906 99.160156 C 87.230469 98.9375 86.542969 98.828125 85.441406 98.800781 L 85.441406 97.199219 C 86.433594 97.171875 87.285156 97.117188 88.054688 96.980469 C 88.824219 96.84375 89.484375 96.152344 90.089844 95.875 L 91.988281 95.875 L 91.988281 107.902344 C 91.988281 108.535156 92.152344 108.976562 92.511719 109.199219 C 92.867188 109.445312 93.554688 109.558594 94.574219 109.585938 L 94.574219 111.296875 Z M 85.441406 111.296875 "/>
<path style=" stroke:none;fill-rule:evenodd;fill:rgb(0%,29.411765%,61.176471%);fill-opacity:1;" d="M 115.5 104.839844 C 114.839844 105.253906 114.152344 105.558594 113.464844 105.75 C 112.777344 105.945312 112.035156 106.054688 111.238281 106.054688 C 109.476562 106.054688 108.046875 105.613281 106.949219 104.703125 C 105.847656 103.820312 105.296875 102.660156 105.296875 101.253906 C 105.296875 99.710938 105.957031 98.46875 107.25 97.53125 C 108.542969 96.566406 110.273438 96.097656 112.363281 96.097656 C 114.703125 96.097656 116.488281 96.730469 117.753906 98 C 119.019531 99.269531 119.652344 101.0625 119.652344 103.378906 C 119.652344 105.890625 118.964844 107.820312 117.5625 109.199219 C 116.160156 110.578125 114.207031 111.265625 111.675781 111.265625 C 110.054688 111.265625 108.707031 110.992188 107.636719 110.441406 C 106.589844 109.886719 106.066406 109.199219 106.066406 108.398438 C 106.066406 107.902344 106.234375 107.515625 106.589844 107.210938 C 106.949219 106.910156 107.386719 106.773438 107.964844 106.773438 C 108.871094 106.773438 109.503906 107.324219 109.863281 108.425781 C 109.917969 108.5625 109.945312 108.675781 109.972656 108.730469 C 110.054688 109.035156 110.21875 109.226562 110.441406 109.335938 C 110.660156 109.445312 111.015625 109.503906 111.511719 109.503906 C 112.75 109.503906 113.710938 109.089844 114.425781 108.261719 C 115.140625 107.433594 115.5 106.300781 115.5 104.839844 Z M 115.28125 101.089844 C 115.28125 100.152344 115.03125 99.40625 114.566406 98.910156 C 114.070312 98.386719 113.382812 98.136719 112.503906 98.136719 C 111.566406 98.136719 110.878906 98.386719 110.359375 98.910156 C 109.835938 99.40625 109.585938 100.152344 109.585938 101.0625 C 109.585938 101.972656 109.835938 102.6875 110.328125 103.1875 C 110.824219 103.710938 111.484375 103.957031 112.308594 103.957031 C 113.273438 103.957031 114.015625 103.710938 114.511719 103.214844 C 115.003906 102.71875 115.28125 102.027344 115.28125 101.089844 Z M 115.28125 101.089844 "/>
<path style=" stroke:none;fill-rule:evenodd;fill:rgb(0%,29.411765%,61.176471%);fill-opacity:1;" d="M 166.539062 104.839844 C 165.878906 105.253906 165.191406 105.558594 164.503906 105.75 C 163.816406 105.945312 163.074219 106.054688 162.277344 106.054688 C 160.515625 106.054688 159.085938 105.613281 157.988281 104.703125 C 156.886719 103.820312 156.335938 102.660156 156.335938 101.253906 C 156.335938 99.710938 156.996094 98.46875 158.289062 97.53125 C 159.582031 96.566406 161.316406 96.097656 163.40625 96.097656 C 165.742188 96.097656 167.53125 96.730469 168.796875 98 C 170.058594 99.269531 170.691406 101.0625 170.691406 103.378906 C 170.691406 105.890625 170.003906 107.820312 168.601562 109.199219 C 167.199219 110.578125 165.246094 111.265625 162.71875 111.265625 C 161.066406 111.265625 159.746094 110.992188 158.675781 110.441406 C 157.628906 109.886719 157.109375 109.199219 157.109375 108.398438 C 157.109375 107.902344 157.273438 107.515625 157.628906 107.210938 C 157.988281 106.910156 158.425781 106.773438 159.003906 106.773438 C 159.914062 106.773438 160.546875 107.324219 160.902344 108.425781 C 160.957031 108.5625 160.984375 108.675781 161.011719 108.730469 C 161.09375 109.035156 161.261719 109.226562 161.480469 109.335938 C 161.699219 109.445312 162.058594 109.503906 162.550781 109.503906 C 163.789062 109.503906 164.753906 109.089844 165.46875 108.261719 C 166.183594 107.433594 166.539062 106.300781 166.539062 104.839844 Z M 166.320312 101.089844 C 166.320312 100.152344 166.074219 99.40625 165.605469 98.910156 C 165.109375 98.386719 164.421875 98.136719 163.542969 98.136719 C 162.609375 98.136719 161.921875 98.386719 161.398438 98.910156 C 160.875 99.40625 160.628906 100.152344 160.628906 101.0625 C 160.628906 101.972656 160.875 102.6875 161.371094 103.1875 C 161.863281 103.710938 162.523438 103.957031 163.378906 103.957031 C 164.339844 103.957031 165.082031 103.710938 165.578125 103.214844 C 166.074219 102.71875 166.320312 102.027344 166.320312 101.089844 Z M 166.320312 101.089844 "/>
<path style=" stroke:none;fill-rule:evenodd;fill:rgb(0%,29.411765%,61.176471%);fill-opacity:1;" d="M 130.378906 111.296875 C 131.585938 106.386719 133.265625 105.859375 137.554688 104.152344 C 139.644531 103.296875 140.304688 101.695312 140.304688 100.398438 C 140.304688 99.628906 139.835938 99.019531 139.371094 98.605469 C 138.902344 98.195312 138.269531 97.972656 137.417969 97.972656 C 136.757812 97.972656 136.207031 98.109375 135.710938 98.386719 C 135.246094 98.664062 134.996094 98.964844 134.996094 99.296875 C 134.996094 99.351562 135.109375 99.546875 135.300781 99.902344 C 135.519531 100.261719 135.601562 100.59375 135.601562 100.953125 C 135.601562 101.449219 135.410156 101.835938 135.023438 102.136719 C 134.640625 102.441406 134.117188 102.578125 133.484375 102.578125 C 132.851562 102.578125 132.359375 102.386719 132 102.027344 C 131.640625 101.640625 131.449219 101.144531 131.449219 100.511719 C 131.449219 97.367188 135.546875 95.933594 138.023438 95.933594 C 140.058594 95.933594 141.925781 96.429688 143.164062 97.28125 C 145.53125 98.910156 145.613281 103.074219 142.972656 104.566406 C 140.828125 105.777344 134.75 105.75 134.667969 107.847656 C 134.640625 108.34375 134.832031 108.949219 136.042969 108.921875 C 137.113281 108.867188 141.761719 108.839844 142.53125 108.234375 C 143.027344 107.847656 143.359375 107.210938 143.742188 106.386719 L 145.253906 106.386719 L 145.585938 111.351562 L 130.378906 111.351562 Z M 130.378906 111.296875 "/>
<path style=" stroke:none;fill-rule:evenodd;fill:rgb(0%,29.411765%,61.176471%);fill-opacity:1;" d="M 208.230469 89.558594 C 208.339844 89.808594 208.476562 90 208.585938 90.195312 C 208.726562 90.386719 208.863281 90.554688 209.054688 90.691406 C 209.328125 90.9375 209.632812 91.132812 209.960938 91.269531 C 210.292969 91.40625 210.675781 91.546875 211.0625 91.65625 C 211.859375 91.878906 212.738281 92.097656 213.675781 92.347656 C 214.609375 92.566406 215.65625 92.816406 216.753906 93.089844 C 217.46875 93.257812 217.992188 93.339844 218.351562 93.3125 C 218.707031 93.285156 219.257812 93.144531 220.027344 92.898438 L 222.117188 92.179688 C 222.363281 92.097656 222.558594 91.988281 222.722656 91.820312 C 222.886719 91.65625 222.96875 91.4375 222.996094 91.132812 C 222.996094 90.996094 222.996094 90.71875 222.941406 90.332031 C 222.886719 89.917969 222.859375 89.644531 222.804688 89.449219 L 223.601562 89.175781 L 226.40625 97.3125 L 225.609375 97.585938 C 225.527344 97.394531 225.417969 97.144531 225.253906 96.785156 C 225.085938 96.429688 224.949219 96.207031 224.839844 96.070312 C 224.648438 95.847656 224.425781 95.738281 224.234375 95.710938 C 224.015625 95.683594 223.765625 95.710938 223.519531 95.792969 L 220.933594 96.675781 C 220.714844 96.757812 220.523438 96.8125 220.328125 96.898438 C 220.164062 96.953125 220.027344 97.035156 219.917969 97.117188 C 219.808594 97.199219 219.671875 97.339844 219.503906 97.53125 C 219.339844 97.722656 219.121094 97.972656 218.871094 98.25 C 218.128906 99.105469 217.414062 99.902344 216.753906 100.703125 C 216.09375 101.476562 215.460938 102.21875 214.886719 102.9375 C 214.582031 103.296875 214.363281 103.65625 214.199219 103.957031 C 214.058594 104.289062 213.949219 104.59375 213.894531 104.867188 C 213.867188 105.089844 213.867188 105.335938 213.894531 105.640625 C 213.921875 105.917969 213.976562 106.164062 214.03125 106.386719 L 213.234375 106.660156 L 210.347656 98.277344 L 211.144531 98 C 211.421875 98.773438 211.667969 99.269531 211.832031 99.515625 C 212.023438 99.765625 212.191406 99.847656 212.328125 99.792969 C 212.410156 99.765625 212.546875 99.65625 212.738281 99.488281 C 212.933594 99.324219 213.234375 99.019531 213.621094 98.605469 C 213.976562 98.222656 214.472656 97.667969 215.105469 96.953125 C 215.738281 96.234375 216.480469 95.378906 217.304688 94.386719 C 214.773438 93.78125 213.015625 93.394531 212.023438 93.171875 C 211.035156 92.953125 210.457031 92.898438 210.265625 92.953125 C 210.015625 93.035156 209.90625 93.230469 209.878906 93.558594 C 209.851562 93.890625 209.933594 94.386719 210.128906 95.050781 L 209.328125 95.324219 L 207.460938 89.890625 Z M 153.09375 211.472656 C 152.898438 211.53125 152.597656 211.640625 152.210938 211.804688 C 151.828125 211.972656 151.523438 212.164062 151.304688 212.382812 C 151.058594 212.605469 150.921875 212.964844 150.921875 213.460938 C 150.890625 213.957031 150.976562 214.644531 151.167969 215.585938 L 152.265625 221.238281 C 152.597656 222.894531 152.296875 224.355469 151.359375 225.570312 C 150.425781 226.78125 149.023438 227.609375 147.152344 227.96875 C 144.980469 228.382812 143.191406 228.246094 141.816406 227.472656 C 140.441406 226.726562 139.589844 225.484375 139.234375 223.722656 L 137.71875 215.96875 C 137.664062 215.722656 137.582031 215.5 137.445312 215.363281 C 137.308594 215.199219 137.085938 215.085938 136.785156 215.003906 C 136.59375 214.949219 136.34375 214.921875 136.042969 214.921875 C 135.765625 214.921875 135.519531 214.921875 135.355469 214.921875 L 135.191406 214.09375 L 143.136719 212.550781 L 143.300781 213.378906 C 143.082031 213.433594 142.835938 213.515625 142.613281 213.597656 C 142.394531 213.679688 142.148438 213.792969 141.925781 213.902344 C 141.679688 214.039062 141.515625 214.234375 141.460938 214.425781 C 141.40625 214.644531 141.40625 214.867188 141.460938 215.144531 L 143 222.78125 C 143.300781 224.273438 143.851562 225.320312 144.648438 225.871094 C 145.449219 226.425781 146.492188 226.589844 147.757812 226.339844 C 148.996094 226.09375 149.902344 225.542969 150.480469 224.632812 C 151.058594 223.722656 151.167969 222.5625 150.890625 221.074219 L 149.875 215.914062 C 149.710938 215.003906 149.488281 214.316406 149.296875 213.902344 C 149.078125 213.488281 148.828125 213.183594 148.527344 213.046875 C 148.308594 212.9375 147.949219 212.855469 147.484375 212.796875 C 146.988281 212.769531 146.65625 212.742188 146.464844 212.742188 L 146.300781 211.886719 L 152.925781 210.589844 Z M 172.671875 202.8125 C 172.507812 202.925781 172.261719 203.089844 171.929688 203.28125 C 171.601562 203.503906 171.351562 203.777344 171.1875 204.109375 C 171.023438 204.414062 170.996094 204.773438 171.105469 205.269531 C 171.214844 205.738281 171.460938 206.398438 171.847656 207.253906 L 176.523438 217.320312 L 174.734375 218.148438 L 160.984375 211.308594 L 163.984375 217.902344 C 164.367188 218.730469 164.699219 219.308594 165 219.695312 C 165.300781 220.082031 165.632812 220.300781 165.960938 220.382812 C 166.210938 220.4375 166.566406 220.4375 167.007812 220.382812 C 167.449219 220.300781 167.804688 220.246094 168.050781 220.191406 L 168.410156 220.960938 L 162.332031 223.777344 L 161.976562 223.003906 C 162.222656 222.867188 162.496094 222.671875 162.800781 222.453125 C 163.101562 222.230469 163.324219 221.984375 163.460938 221.707031 C 163.625 221.402344 163.679688 221.019531 163.597656 220.605469 C 163.515625 220.164062 163.265625 219.5 162.828125 218.589844 L 159.71875 211.914062 C 159.554688 211.585938 159.363281 211.28125 159.140625 211.03125 C 158.894531 210.785156 158.621094 210.621094 158.316406 210.507812 C 157.988281 210.398438 157.628906 210.34375 157.273438 210.34375 C 156.914062 210.34375 156.53125 210.398438 156.117188 210.507812 L 155.761719 209.738281 L 161.066406 207.28125 L 173.113281 213.265625 L 170.636719 207.945312 C 170.253906 207.089844 169.894531 206.480469 169.59375 206.125 C 169.289062 205.765625 168.960938 205.542969 168.628906 205.460938 C 168.355469 205.40625 168.023438 205.40625 167.585938 205.460938 C 167.144531 205.515625 166.816406 205.597656 166.566406 205.65625 L 166.210938 204.910156 L 172.289062 202.097656 Z M 190.355469 208.46875 L 183.289062 213.324219 L 182.820312 212.632812 C 182.984375 212.523438 183.203125 212.328125 183.507812 212.082031 C 183.808594 211.859375 184.003906 211.667969 184.085938 211.53125 C 184.25 211.28125 184.304688 211.0625 184.304688 210.867188 C 184.277344 210.675781 184.195312 210.453125 184.03125 210.234375 L 177.816406 201.1875 C 177.675781 200.992188 177.511719 200.828125 177.320312 200.71875 C 177.128906 200.605469 176.90625 200.605469 176.605469 200.660156 C 176.414062 200.691406 176.164062 200.773438 175.835938 200.910156 C 175.503906 201.046875 175.230469 201.160156 175.011719 201.269531 L 174.542969 200.578125 L 181.609375 195.726562 L 182.078125 196.414062 C 181.914062 196.550781 181.691406 196.746094 181.445312 196.964844 C 181.199219 197.1875 181.003906 197.378906 180.867188 197.574219 C 180.675781 197.820312 180.621094 198.042969 180.648438 198.261719 C 180.675781 198.484375 180.785156 198.703125 180.921875 198.898438 L 187.136719 207.945312 C 187.273438 208.164062 187.441406 208.328125 187.632812 208.414062 C 187.824219 208.523438 188.074219 208.523438 188.347656 208.46875 C 188.511719 208.441406 188.761719 208.359375 189.089844 208.191406 C 189.421875 208.054688 189.695312 207.917969 189.886719 207.777344 Z M 196.953125 182.042969 C 196.789062 182.238281 196.652344 182.429688 196.570312 182.625 C 196.460938 182.816406 196.378906 183.066406 196.296875 183.3125 C 196.183594 183.671875 196.15625 183.976562 196.183594 184.25 C 196.210938 184.527344 196.296875 184.828125 196.433594 185.214844 C 196.625 185.710938 196.925781 186.484375 197.3125 187.449219 C 197.699219 188.414062 198.136719 189.519531 198.632812 190.761719 C 199.074219 191.863281 199.566406 193.105469 200.117188 194.402344 C 200.667969 195.726562 201.191406 196.992188 201.683594 198.179688 L 200.117188 199.722656 C 197.640625 198.648438 195.113281 197.574219 192.554688 196.496094 C 189.996094 195.394531 188.210938 194.648438 187.191406 194.234375 C 186.808594 194.097656 186.503906 194.015625 186.257812 193.988281 C 186.011719 193.960938 185.707031 194.015625 185.324219 194.097656 C 185.046875 194.179688 184.828125 194.261719 184.664062 194.347656 C 184.496094 194.429688 184.277344 194.566406 184.03125 194.757812 L 183.425781 194.152344 L 189.421875 188.277344 L 189.996094 188.855469 C 189.503906 189.464844 189.199219 189.933594 189.089844 190.179688 C 188.980469 190.457031 188.953125 190.648438 189.0625 190.761719 C 189.117188 190.816406 189.199219 190.871094 189.28125 190.925781 C 189.363281 190.980469 189.476562 191.035156 189.613281 191.089844 C 190.21875 191.394531 191.261719 191.835938 192.71875 192.441406 C 194.175781 193.050781 196.378906 193.988281 199.347656 195.257812 C 198.605469 193.464844 197.945312 191.917969 197.421875 190.703125 C 196.898438 189.464844 196.433594 188.386719 196.019531 187.449219 C 195.828125 186.980469 195.636719 186.566406 195.414062 186.207031 C 195.222656 185.851562 195.03125 185.574219 194.890625 185.4375 C 194.726562 185.269531 194.480469 185.242188 194.121094 185.382812 C 193.765625 185.519531 193.242188 185.878906 192.554688 186.457031 L 191.949219 185.851562 L 196.433594 181.4375 Z M 207.761719 170.375 L 207.324219 171.09375 C 206.71875 170.984375 206.003906 170.957031 205.234375 171.09375 C 204.433594 171.203125 203.859375 171.453125 203.5 171.839844 C 203.335938 172.003906 203.140625 172.253906 202.949219 172.554688 C 202.730469 172.886719 202.566406 173.164062 202.425781 173.382812 L 201.246094 175.285156 L 206.359375 178.402344 L 207.183594 177.050781 C 207.40625 176.691406 207.542969 176.363281 207.652344 176.03125 C 207.734375 175.699219 207.734375 175.339844 207.652344 174.984375 C 207.597656 174.761719 207.433594 174.457031 207.15625 174.074219 C 206.882812 173.714844 206.636719 173.410156 206.386719 173.21875 L 206.828125 172.5 L 212.355469 175.867188 L 211.914062 176.582031 C 211.640625 176.472656 211.253906 176.363281 210.761719 176.25 C 210.265625 176.167969 209.90625 176.140625 209.6875 176.195312 C 209.328125 176.25 209.027344 176.417969 208.78125 176.636719 C 208.53125 176.859375 208.285156 177.160156 208.066406 177.519531 L 207.238281 178.871094 L 211.0625 181.214844 C 211.476562 181.464844 211.804688 181.628906 212.050781 181.714844 C 212.328125 181.796875 212.574219 181.796875 212.796875 181.714844 C 213.015625 181.628906 213.207031 181.464844 213.425781 181.214844 C 213.621094 180.96875 213.867188 180.609375 214.171875 180.140625 C 214.308594 179.921875 214.445312 179.671875 214.636719 179.339844 C 214.828125 179.011719 214.96875 178.761719 215.078125 178.511719 C 215.214844 178.238281 215.324219 177.960938 215.378906 177.6875 C 215.460938 177.4375 215.460938 177.1875 215.40625 177.023438 C 215.269531 176.527344 215.023438 175.921875 214.636719 175.175781 C 214.253906 174.402344 213.921875 173.878906 213.675781 173.574219 L 214.085938 172.886719 L 218.046875 175.671875 L 210.429688 188.085938 L 209.714844 187.644531 C 209.796875 187.449219 209.933594 187.203125 210.074219 186.898438 C 210.210938 186.566406 210.292969 186.347656 210.320312 186.179688 C 210.375 185.878906 210.347656 185.65625 210.238281 185.464844 C 210.128906 185.296875 209.960938 185.132812 209.714844 184.996094 L 200.390625 179.285156 C 200.171875 179.148438 199.953125 179.066406 199.761719 179.039062 C 199.566406 179.011719 199.347656 179.09375 199.074219 179.285156 C 198.90625 179.394531 198.6875 179.589844 198.441406 179.835938 C 198.191406 180.085938 198.027344 180.277344 197.917969 180.417969 L 197.203125 179.976562 L 204.40625 168.253906 Z M 213.894531 156.417969 C 212.933594 156.035156 212.109375 156.035156 211.449219 156.417969 C 210.789062 156.777344 210.265625 157.46875 209.878906 158.460938 L 209.578125 159.261719 L 215.65625 161.632812 L 215.957031 160.859375 C 216.34375 159.867188 216.398438 158.984375 216.09375 158.210938 C 215.765625 157.46875 215.023438 156.890625 213.894531 156.417969 Z M 227.34375 153.71875 L 225.171875 159.261719 C 223.328125 159.648438 221.84375 159.976562 220.742188 160.28125 C 219.613281 160.585938 218.324219 160.972656 216.808594 161.46875 L 216.589844 162.046875 L 220.988281 163.757812 C 221.238281 163.839844 221.457031 163.894531 221.675781 163.867188 C 221.871094 163.839844 222.089844 163.730469 222.308594 163.507812 C 222.421875 163.398438 222.558594 163.234375 222.722656 162.957031 C 222.886719 162.707031 223.023438 162.488281 223.109375 162.296875 L 223.90625 162.597656 L 220.878906 170.292969 L 220.082031 169.992188 C 220.136719 169.769531 220.21875 169.523438 220.300781 169.164062 C 220.386719 168.832031 220.441406 168.582031 220.441406 168.417969 C 220.441406 168.113281 220.359375 167.894531 220.246094 167.730469 C 220.109375 167.5625 219.917969 167.453125 219.671875 167.34375 L 209.46875 163.371094 C 209.21875 163.289062 209 163.234375 208.808594 163.234375 C 208.613281 163.234375 208.394531 163.371094 208.175781 163.589844 C 208.011719 163.785156 207.816406 164.003906 207.652344 164.28125 C 207.488281 164.558594 207.351562 164.777344 207.238281 164.941406 L 206.441406 164.640625 L 209.605469 156.53125 C 210.320312 154.710938 211.144531 153.441406 212.078125 152.722656 C 213.015625 152.007812 214.058594 151.867188 215.214844 152.308594 C 216.234375 152.695312 216.921875 153.304688 217.304688 154.128906 C 217.691406 154.957031 217.828125 156.035156 217.71875 157.359375 C 218.488281 157.136719 219.394531 156.859375 220.414062 156.558594 C 221.429688 156.253906 222.503906 155.921875 223.574219 155.59375 C 223.933594 155.480469 224.34375 155.316406 224.867188 155.097656 C 225.390625 154.875 225.746094 154.65625 225.941406 154.40625 C 226.050781 154.269531 226.160156 154.074219 226.296875 153.855469 C 226.433594 153.632812 226.515625 153.46875 226.574219 153.359375 Z M 229.488281 144.503906 C 229.351562 145.441406 229.128906 146.296875 228.773438 147.070312 C 228.414062 147.839844 228.058594 148.503906 227.671875 149.027344 L 228.332031 149.882812 L 228.195312 150.820312 L 222.640625 150.1875 L 222.75 149.25 C 223.300781 149.109375 223.90625 148.917969 224.511719 148.667969 C 225.140625 148.421875 225.71875 148.117188 226.242188 147.757812 C 226.792969 147.371094 227.261719 146.960938 227.617188 146.433594 C 228.003906 145.9375 228.222656 145.332031 228.332031 144.585938 C 228.46875 143.621094 228.332031 142.820312 227.921875 142.242188 C 227.507812 141.664062 226.929688 141.304688 226.214844 141.222656 C 225.609375 141.140625 225.085938 141.304688 224.621094 141.691406 C 224.152344 142.078125 223.710938 142.710938 223.273438 143.59375 C 222.996094 144.171875 222.75 144.699219 222.503906 145.195312 C 222.253906 145.691406 222.035156 146.132812 221.789062 146.574219 C 221.238281 147.539062 220.550781 148.226562 219.699219 148.613281 C 218.871094 149 217.964844 149.136719 217.03125 149.027344 C 216.425781 148.945312 215.875 148.753906 215.351562 148.394531 C 214.828125 148.0625 214.390625 147.621094 214.003906 147.042969 C 213.648438 146.519531 213.398438 145.855469 213.234375 145.082031 C 213.070312 144.3125 213.070312 143.484375 213.179688 142.601562 C 213.289062 141.746094 213.539062 140.972656 213.867188 140.257812 C 214.199219 139.539062 214.527344 138.988281 214.828125 138.601562 L 214.28125 137.855469 L 214.417969 136.917969 L 219.671875 137.554688 L 219.53125 138.492188 C 218.925781 138.628906 218.324219 138.792969 217.691406 139.015625 C 217.058594 139.234375 216.535156 139.457031 216.09375 139.734375 C 215.628906 140.035156 215.242188 140.394531 214.914062 140.808594 C 214.609375 141.222656 214.390625 141.746094 214.308594 142.378906 C 214.199219 143.152344 214.335938 143.816406 214.71875 144.367188 C 215.105469 144.917969 215.601562 145.25 216.261719 145.332031 C 216.863281 145.414062 217.414062 145.277344 217.855469 144.890625 C 218.296875 144.503906 218.734375 143.898438 219.175781 143.015625 C 219.421875 142.519531 219.699219 141.996094 219.945312 141.441406 C 220.191406 140.917969 220.441406 140.449219 220.660156 140.035156 C 221.210938 139.042969 221.871094 138.324219 222.667969 137.882812 C 223.464844 137.441406 224.371094 137.277344 225.417969 137.441406 C 226.078125 137.527344 226.710938 137.773438 227.289062 138.160156 C 227.863281 138.546875 228.332031 139.042969 228.664062 139.621094 C 229.046875 140.257812 229.296875 140.972656 229.433594 141.773438 C 229.625 142.601562 229.625 143.511719 229.488281 144.503906 Z M 230.503906 125.363281 L 230.257812 133.914062 L 229.40625 133.886719 C 229.40625 133.691406 229.378906 133.386719 229.351562 133.03125 C 229.324219 132.644531 229.296875 132.394531 229.238281 132.230469 C 229.128906 131.953125 228.992188 131.761719 228.828125 131.679688 C 228.664062 131.566406 228.414062 131.511719 228.140625 131.511719 L 217.140625 131.210938 C 216.890625 131.210938 216.671875 131.238281 216.480469 131.320312 C 216.289062 131.402344 216.121094 131.597656 216.011719 131.871094 C 215.929688 132.035156 215.847656 132.285156 215.765625 132.644531 C 215.683594 132.976562 215.628906 133.277344 215.574219 133.527344 L 214.71875 133.5 L 214.96875 124.949219 L 215.820312 124.976562 C 215.847656 125.195312 215.847656 125.472656 215.902344 125.804688 C 215.929688 126.132812 215.984375 126.410156 216.039062 126.632812 C 216.121094 126.90625 216.261719 127.101562 216.480469 127.210938 C 216.671875 127.320312 216.890625 127.375 217.167969 127.375 L 228.167969 127.679688 C 228.414062 127.679688 228.664062 127.652344 228.855469 127.542969 C 229.046875 127.457031 229.210938 127.265625 229.324219 126.988281 C 229.40625 126.851562 229.460938 126.574219 229.542969 126.246094 C 229.625 125.886719 229.652344 125.609375 229.679688 125.363281 Z M 217.746094 107.738281 L 217.855469 108.59375 C 217.222656 108.894531 216.5625 109.335938 215.875 109.945312 C 215.1875 110.523438 214.828125 111.046875 214.828125 111.460938 C 214.828125 111.679688 214.828125 111.984375 214.859375 112.316406 C 214.886719 112.648438 214.914062 112.949219 214.941406 113.199219 L 214.996094 113.695312 L 227.066406 112.175781 C 227.34375 112.148438 227.5625 112.066406 227.753906 111.957031 C 227.949219 111.847656 228.085938 111.625 228.167969 111.351562 C 228.222656 111.183594 228.25 110.910156 228.277344 110.550781 C 228.304688 110.191406 228.304688 109.886719 228.304688 109.640625 L 229.15625 109.53125 L 230.230469 118.082031 L 229.378906 118.191406 C 229.324219 117.996094 229.265625 117.695312 229.183594 117.335938 C 229.101562 116.976562 229.019531 116.703125 228.9375 116.589844 C 228.773438 116.316406 228.609375 116.148438 228.414062 116.09375 C 228.195312 116.011719 227.976562 116.011719 227.699219 116.039062 L 215.515625 117.554688 L 215.574219 118.054688 C 215.601562 118.300781 215.65625 118.578125 215.710938 118.933594 C 215.765625 119.265625 215.820312 119.542969 215.902344 119.789062 C 216.011719 120.203125 216.480469 120.617188 217.277344 121.003906 C 218.074219 121.417969 218.84375 121.667969 219.503906 121.804688 L 219.613281 122.660156 L 215.214844 123.210938 L 213.34375 108.34375 Z M 217.746094 107.738281 "/>
<path style=" stroke:none;fill-rule:evenodd;fill:rgb(0%,29.411765%,61.176471%);fill-opacity:1;" d="M 28.105469 95.269531 C 28.460938 94.195312 28.984375 93.257812 29.644531 92.429688 C 30.304688 91.601562 31.101562 90.96875 31.984375 90.496094 C 32.863281 90.027344 33.851562 89.753906 34.953125 89.699219 C 36.050781 89.617188 37.152344 89.78125 38.308594 90.167969 C 39.460938 90.554688 40.453125 91.105469 41.277344 91.820312 C 42.101562 92.539062 42.761719 93.394531 43.230469 94.332031 C 43.699219 95.269531 43.945312 96.289062 44 97.421875 C 44.054688 98.550781 43.890625 99.65625 43.503906 100.785156 C 43.230469 101.585938 42.871094 102.304688 42.460938 102.910156 C 42.046875 103.515625 41.609375 104.011719 41.222656 104.371094 L 41.578125 105.199219 L 41.277344 106.082031 L 35.886719 104.371094 L 36.191406 103.460938 C 38.003906 103.488281 39.433594 103.269531 40.453125 102.828125 C 41.46875 102.359375 42.15625 101.613281 42.488281 100.566406 C 42.925781 99.269531 42.679688 98.082031 41.773438 97.035156 C 40.863281 95.988281 39.351562 95.105469 37.289062 94.386719 C 36.109375 94 35.0625 93.78125 34.183594 93.726562 C 33.273438 93.667969 32.503906 93.753906 31.871094 93.945312 C 31.210938 94.167969 30.664062 94.496094 30.222656 94.964844 C 29.808594 95.433594 29.480469 95.988281 29.261719 96.648438 C 28.929688 97.613281 28.902344 98.550781 29.175781 99.488281 C 29.453125 100.425781 30.003906 101.394531 30.882812 102.359375 L 30.03125 103.074219 C 29.535156 102.578125 29.09375 102.054688 28.738281 101.503906 C 28.378906 100.980469 28.105469 100.398438 27.941406 99.765625 C 27.746094 99.105469 27.664062 98.386719 27.664062 97.667969 C 27.636719 96.953125 27.800781 96.152344 28.105469 95.269531 Z M 27.828125 143.375 C 28.546875 143.621094 29.316406 143.757812 30.167969 143.789062 C 31.019531 143.816406 31.984375 143.789062 33.027344 143.648438 C 33.90625 143.539062 34.789062 143.375 35.613281 143.125 C 36.4375 142.90625 37.152344 142.574219 37.785156 142.1875 C 38.417969 141.800781 38.886719 141.304688 39.214844 140.753906 C 39.546875 140.203125 39.683594 139.539062 39.574219 138.765625 C 39.40625 137.472656 38.664062 136.53125 37.316406 136.007812 C 35.996094 135.484375 34.183594 135.375 31.925781 135.648438 C 30.964844 135.761719 30.058594 135.953125 29.234375 136.203125 C 28.40625 136.449219 27.691406 136.78125 27.085938 137.167969 C 26.484375 137.582031 26.042969 138.050781 25.738281 138.574219 C 25.4375 139.125 25.328125 139.761719 25.4375 140.476562 C 25.519531 141.195312 25.796875 141.773438 26.207031 142.242188 C 26.621094 142.792969 27.171875 143.152344 27.828125 143.375 Z M 39.214844 144.78125 C 38.609375 145.636719 37.839844 146.324219 36.933594 146.902344 C 35.996094 147.484375 34.925781 147.839844 33.660156 147.980469 C 32.53125 148.117188 31.433594 148.0625 30.386719 147.8125 C 29.316406 147.566406 28.378906 147.125 27.554688 146.519531 C 26.703125 145.855469 26.015625 145.054688 25.4375 144.117188 C 24.886719 143.179688 24.53125 141.996094 24.363281 140.613281 C 24.226562 139.484375 24.28125 138.410156 24.53125 137.386719 C 24.777344 136.339844 25.191406 135.402344 25.824219 134.546875 C 26.425781 133.71875 27.171875 133.003906 28.105469 132.449219 C 29.039062 131.898438 30.113281 131.539062 31.324219 131.375 C 32.585938 131.210938 33.742188 131.292969 34.816406 131.597656 C 35.886719 131.898438 36.851562 132.367188 37.675781 133.03125 C 38.5 133.691406 39.160156 134.492188 39.65625 135.484375 C 40.175781 136.449219 40.507812 137.527344 40.644531 138.683594 C 40.78125 139.84375 40.726562 140.917969 40.480469 141.964844 C 40.203125 143.015625 39.792969 143.953125 39.214844 144.78125 Z M 47.574219 166.101562 C 47.492188 165.910156 47.328125 165.660156 47.136719 165.328125 C 46.941406 164.996094 46.695312 164.722656 46.363281 164.527344 C 46.089844 164.363281 45.703125 164.308594 45.210938 164.363281 C 44.714844 164.445312 44.054688 164.640625 43.175781 164.96875 L 32.835938 169.023438 L 32.121094 167.175781 L 39.792969 153.882812 L 33 156.558594 C 32.148438 156.890625 31.542969 157.191406 31.15625 157.46875 C 30.773438 157.742188 30.523438 158.046875 30.414062 158.378906 C 30.332031 158.625 30.332031 158.957031 30.359375 159.398438 C 30.414062 159.839844 30.441406 160.199219 30.496094 160.445312 L 29.699219 160.75 L 27.253906 154.515625 L 28.050781 154.214844 C 28.1875 154.460938 28.351562 154.738281 28.546875 155.066406 C 28.765625 155.371094 28.984375 155.621094 29.234375 155.785156 C 29.535156 155.980469 29.890625 156.035156 30.332031 155.980469 C 30.773438 155.921875 31.460938 155.703125 32.394531 155.34375 L 39.242188 152.667969 C 39.574219 152.53125 39.875 152.367188 40.148438 152.144531 C 40.398438 151.925781 40.617188 151.648438 40.726562 151.34375 C 40.863281 151.015625 40.949219 150.683594 40.949219 150.324219 C 40.976562 149.964844 40.921875 149.578125 40.863281 149.164062 L 41.664062 148.863281 L 43.808594 154.296875 L 37.097656 165.9375 L 42.597656 163.785156 C 43.476562 163.453125 44.109375 163.121094 44.46875 162.847656 C 44.851562 162.570312 45.101562 162.265625 45.210938 161.9375 C 45.292969 161.660156 45.320312 161.328125 45.265625 160.886719 C 45.238281 160.445312 45.183594 160.117188 45.128906 159.867188 L 45.898438 159.5625 L 48.34375 165.796875 Z M 51.175781 187.449219 C 51.039062 187.257812 50.902344 187.117188 50.792969 186.980469 C 50.683594 186.84375 50.515625 186.707031 50.296875 186.511719 C 50.050781 186.320312 49.828125 186.238281 49.582031 186.265625 C 49.335938 186.292969 49.113281 186.375 48.921875 186.511719 L 47.410156 187.476562 C 47.109375 187.671875 46.859375 187.835938 46.667969 187.972656 C 46.476562 188.113281 46.253906 188.25 45.980469 188.441406 C 45.210938 188.058594 44.300781 187.367188 43.203125 186.402344 C 42.101562 185.410156 41.25 184.417969 40.589844 183.421875 C 39.984375 182.484375 39.574219 181.492188 39.324219 180.5 C 39.078125 179.480469 39.050781 178.484375 39.214844 177.492188 C 39.378906 176.5 39.792969 175.5625 40.398438 174.652344 C 41.003906 173.742188 41.882812 172.941406 42.953125 172.253906 C 43.972656 171.589844 45.015625 171.175781 46.117188 170.957031 C 47.191406 170.734375 48.261719 170.761719 49.28125 170.984375 C 50.296875 171.203125 51.261719 171.671875 52.195312 172.335938 C 53.101562 173.023438 53.925781 173.90625 54.613281 175.011719 C 55.082031 175.753906 55.441406 176.5 55.660156 177.246094 C 55.878906 177.988281 56.015625 178.652344 56.074219 179.175781 L 56.953125 179.421875 L 57.449219 180.222656 L 52.71875 183.339844 L 52.195312 182.539062 C 53.351562 181.160156 54.039062 179.921875 54.339844 178.816406 C 54.613281 177.742188 54.449219 176.691406 53.816406 175.699219 C 53.074219 174.515625 51.976562 173.933594 50.515625 173.960938 C 49.058594 173.988281 47.4375 174.570312 45.621094 175.726562 C 43.699219 176.96875 42.40625 178.238281 41.71875 179.5625 C 41.03125 180.886719 41.058594 182.125 41.800781 183.257812 C 42.15625 183.808594 42.542969 184.222656 42.953125 184.554688 C 43.394531 184.855469 43.78125 185.078125 44.136719 185.160156 L 46.777344 183.476562 C 46.996094 183.339844 47.164062 183.175781 47.246094 183.007812 C 47.355469 182.84375 47.382812 182.59375 47.328125 182.292969 C 47.300781 182.042969 47.21875 181.769531 47.109375 181.464844 C 46.996094 181.160156 46.886719 180.886719 46.777344 180.691406 L 47.492188 180.222656 L 51.835938 187.007812 Z M 59.675781 200.882812 C 60.390625 200.632812 61.078125 200.25 61.765625 199.75 C 62.453125 199.253906 63.167969 198.59375 63.910156 197.847656 C 64.542969 197.1875 65.09375 196.523438 65.585938 195.808594 C 66.082031 195.089844 66.441406 194.402344 66.6875 193.710938 C 66.90625 193.023438 66.988281 192.332031 66.878906 191.699219 C 66.796875 191.0625 66.46875 190.457031 65.890625 189.933594 C 64.925781 189.023438 63.773438 188.773438 62.398438 189.214844 C 61.023438 189.65625 59.566406 190.675781 57.96875 192.332031 C 57.308594 193.050781 56.734375 193.738281 56.238281 194.484375 C 55.742188 195.199219 55.386719 195.917969 55.191406 196.609375 C 54.972656 197.296875 54.945312 197.960938 55.054688 198.566406 C 55.164062 199.171875 55.496094 199.722656 56.015625 200.25 C 56.539062 200.746094 57.117188 201.046875 57.75 201.132812 C 58.382812 201.214844 59.015625 201.132812 59.675781 200.882812 Z M 69.410156 194.785156 C 69.464844 195.808594 69.328125 196.855469 68.96875 197.875 C 68.613281 198.898438 67.980469 199.863281 67.101562 200.800781 C 65.863281 202.097656 64.433594 202.925781 62.835938 203.28125 C 61.242188 203.640625 59.648438 203.476562 58.050781 202.757812 C 57.476562 203.394531 57.144531 204.136719 57.0625 204.9375 C 56.980469 205.738281 57.199219 206.398438 57.695312 206.867188 C 57.996094 207.171875 58.300781 207.390625 58.546875 207.585938 C 58.824219 207.777344 59.070312 207.917969 59.289062 208.054688 L 58.628906 208.742188 C 58.21875 208.578125 57.640625 208.273438 56.925781 207.859375 C 56.210938 207.417969 55.523438 206.894531 54.890625 206.289062 C 54.011719 205.433594 53.515625 204.496094 53.460938 203.421875 C 53.40625 202.34375 53.789062 201.296875 54.613281 200.304688 C 53.925781 199.53125 53.433594 198.675781 53.074219 197.765625 C 52.71875 196.855469 52.523438 195.917969 52.523438 194.953125 C 52.523438 193.988281 52.691406 193.050781 53.074219 192.113281 C 53.433594 191.171875 54.011719 190.292969 54.808594 189.464844 C 55.6875 188.554688 56.648438 187.863281 57.667969 187.421875 C 58.683594 186.980469 59.730469 186.761719 60.800781 186.734375 C 61.847656 186.734375 62.863281 186.953125 63.882812 187.367188 C 64.898438 187.78125 65.835938 188.414062 66.660156 189.214844 C 67.484375 190.015625 68.144531 190.898438 68.640625 191.863281 C 69.078125 192.800781 69.328125 193.792969 69.410156 194.785156 Z M 73.808594 214.617188 L 66.578125 210.011719 L 67.046875 209.296875 C 67.210938 209.378906 67.484375 209.515625 67.816406 209.710938 C 68.144531 209.902344 68.390625 209.984375 68.558594 210.011719 C 68.832031 210.066406 69.078125 210.039062 69.246094 209.957031 C 69.410156 209.875 69.601562 209.679688 69.738281 209.460938 L 75.679688 200.222656 C 75.816406 200 75.898438 199.808594 75.898438 199.585938 C 75.925781 199.367188 75.84375 199.144531 75.679688 198.898438 C 75.570312 198.730469 75.40625 198.539062 75.15625 198.289062 C 74.910156 198.042969 74.691406 197.847656 74.496094 197.683594 L 74.964844 196.964844 L 82.199219 201.574219 L 81.730469 202.289062 C 81.539062 202.207031 81.289062 202.070312 80.988281 201.929688 C 80.683594 201.792969 80.4375 201.683594 80.21875 201.628906 C 79.914062 201.542969 79.695312 201.574219 79.503906 201.710938 C 79.308594 201.820312 79.144531 201.984375 79.007812 202.207031 L 73.066406 211.445312 C 72.929688 211.667969 72.847656 211.886719 72.820312 212.082031 C 72.792969 212.300781 72.875 212.523438 73.039062 212.769531 C 73.121094 212.910156 73.316406 213.101562 73.5625 213.351562 C 73.835938 213.597656 74.058594 213.792969 74.25 213.929688 Z M 101.28125 211.640625 C 101.089844 211.585938 100.816406 211.503906 100.429688 211.390625 C 100.074219 211.28125 99.6875 211.28125 99.328125 211.363281 C 99 211.445312 98.699219 211.667969 98.394531 212.054688 C 98.09375 212.441406 97.761719 213.046875 97.378906 213.902344 L 92.8125 223.996094 L 91.023438 223.195312 L 87.203125 208.328125 L 84.203125 214.949219 C 83.820312 215.777344 83.601562 216.410156 83.515625 216.90625 C 83.433594 217.378906 83.460938 217.789062 83.628906 218.09375 C 83.738281 218.316406 83.984375 218.589844 84.316406 218.867188 C 84.644531 219.140625 84.949219 219.363281 85.140625 219.527344 L 84.78125 220.300781 L 78.675781 217.542969 L 79.035156 216.769531 C 79.308594 216.878906 79.613281 216.964844 79.996094 217.019531 C 80.355469 217.101562 80.710938 217.101562 80.988281 217.046875 C 81.34375 216.964844 81.648438 216.769531 81.921875 216.410156 C 82.199219 216.082031 82.527344 215.445312 82.941406 214.507812 L 85.964844 207.804688 C 86.101562 207.476562 86.210938 207.144531 86.238281 206.785156 C 86.265625 206.425781 86.210938 206.125 86.101562 205.820312 C 85.964844 205.488281 85.800781 205.1875 85.550781 204.9375 C 85.304688 204.660156 85.03125 204.414062 84.671875 204.164062 L 85.03125 203.394531 L 90.363281 205.792969 L 93.71875 218.8125 L 96.140625 213.460938 C 96.523438 212.605469 96.746094 211.941406 96.828125 211.472656 C 96.910156 211.003906 96.855469 210.621094 96.71875 210.316406 C 96.578125 210.066406 96.359375 209.820312 96.03125 209.515625 C 95.699219 209.238281 95.425781 209.019531 95.203125 208.882812 L 95.535156 208.136719 L 101.640625 210.867188 Z M 118.882812 223.140625 C 118.664062 223.113281 118.441406 223.113281 118.25 223.085938 C 118.085938 223.085938 117.835938 223.113281 117.5625 223.140625 C 117.261719 223.167969 117.039062 223.308594 116.902344 223.5 C 116.765625 223.695312 116.683594 223.914062 116.65625 224.164062 L 116.324219 225.925781 C 116.269531 226.285156 116.214844 226.5625 116.1875 226.78125 C 116.160156 227.003906 116.105469 227.277344 116.078125 227.609375 C 115.28125 227.914062 114.152344 228.132812 112.667969 228.246094 C 111.210938 228.355469 109.890625 228.328125 108.707031 228.105469 C 107.609375 227.914062 106.589844 227.554688 105.683594 227.03125 C 104.773438 226.507812 104.003906 225.871094 103.398438 225.046875 C 102.796875 224.246094 102.355469 223.308594 102.136719 222.257812 C 101.886719 221.183594 101.886719 220.023438 102.109375 218.757812 C 102.328125 217.570312 102.710938 216.496094 103.289062 215.554688 C 103.867188 214.617188 104.609375 213.847656 105.488281 213.265625 C 106.34375 212.6875 107.332031 212.273438 108.460938 212.082031 C 109.585938 211.886719 110.769531 211.886719 112.0625 212.109375 C 112.941406 212.273438 113.710938 212.523438 114.398438 212.882812 C 115.085938 213.238281 115.664062 213.570312 116.105469 213.902344 L 116.875 213.433594 L 117.808594 213.597656 L 116.902344 219.167969 L 115.941406 219.003906 C 115.691406 217.238281 115.28125 215.859375 114.648438 214.921875 C 114.042969 213.984375 113.136719 213.40625 111.980469 213.183594 C 110.605469 212.9375 109.421875 213.351562 108.460938 214.398438 C 107.496094 215.472656 106.808594 217.046875 106.425781 219.167969 C 106.011719 221.402344 106.066406 223.222656 106.5625 224.632812 C 107.058594 226.039062 107.992188 226.867188 109.339844 227.085938 C 109.972656 227.195312 110.550781 227.195312 111.074219 227.113281 C 111.59375 227.003906 112.007812 226.867188 112.335938 226.671875 L 112.886719 223.582031 C 112.941406 223.335938 112.914062 223.113281 112.859375 222.921875 C 112.804688 222.726562 112.640625 222.535156 112.390625 222.371094 C 112.199219 222.230469 111.953125 222.09375 111.621094 221.984375 C 111.320312 221.871094 111.046875 221.761719 110.851562 221.707031 L 111.015625 220.878906 L 118.828125 222.3125 Z M 23.511719 126.21875 L 24.144531 117.859375 L 24.996094 117.914062 C 24.996094 118.109375 24.996094 118.355469 24.996094 118.714844 C 24.996094 119.074219 25.023438 119.320312 25.078125 119.433594 C 25.164062 119.707031 25.300781 119.902344 25.464844 120.011719 C 25.628906 120.121094 25.851562 120.203125 26.125 120.203125 L 31.460938 120.617188 L 31.953125 114 L 26.730469 113.613281 C 26.484375 113.585938 26.261719 113.640625 26.042969 113.722656 C 25.851562 113.804688 25.65625 113.96875 25.546875 114.21875 C 25.492188 114.355469 25.410156 114.578125 25.300781 114.910156 C 25.21875 115.238281 25.136719 115.515625 25.109375 115.707031 L 24.253906 115.652344 L 24.886719 107.296875 L 25.738281 107.351562 C 25.738281 107.542969 25.738281 107.792969 25.738281 108.152344 C 25.765625 108.507812 25.796875 108.757812 25.824219 108.921875 C 25.90625 109.199219 26.042969 109.390625 26.207031 109.503906 C 26.398438 109.613281 26.621094 109.695312 26.867188 109.695312 L 37.8125 110.523438 C 38.058594 110.550781 38.28125 110.523438 38.472656 110.441406 C 38.664062 110.355469 38.828125 110.191406 38.96875 109.914062 C 39.078125 109.722656 39.1875 109.445312 39.296875 109.089844 C 39.40625 108.757812 39.460938 108.507812 39.488281 108.371094 L 40.34375 108.425781 L 39.710938 116.785156 L 38.859375 116.730469 C 38.859375 116.507812 38.828125 116.230469 38.800781 115.902344 C 38.773438 115.570312 38.71875 115.351562 38.691406 115.15625 C 38.609375 114.878906 38.472656 114.660156 38.28125 114.550781 C 38.085938 114.4375 37.867188 114.382812 37.621094 114.355469 L 33 114 L 32.503906 120.617188 L 37.015625 120.949219 C 37.261719 120.976562 37.484375 120.921875 37.675781 120.867188 C 37.839844 120.785156 38.03125 120.617188 38.171875 120.34375 C 38.28125 120.148438 38.363281 119.902344 38.472656 119.597656 C 38.582031 119.292969 38.636719 119.046875 38.691406 118.851562 L 39.546875 118.90625 L 38.914062 127.265625 L 38.058594 127.210938 C 38.058594 126.988281 38.058594 126.714844 38.03125 126.410156 C 38.003906 126.105469 37.976562 125.859375 37.921875 125.609375 C 37.839844 125.335938 37.703125 125.140625 37.511719 125.03125 C 37.316406 124.921875 37.097656 124.867188 36.851562 124.839844 L 25.960938 124.121094 C 25.710938 124.09375 25.464844 124.121094 25.273438 124.203125 C 25.078125 124.285156 24.914062 124.453125 24.777344 124.726562 C 24.695312 124.894531 24.613281 125.140625 24.53125 125.472656 C 24.449219 125.804688 24.390625 126.078125 24.363281 126.273438 Z M 23.511719 126.21875 "/>
</g>
</svg>
