<?xml version="1.0" encoding="UTF-8" standalone="no"?>
<svg
   version="1.1"
   width="242"
   height="242"
   id="svg162"
   sodipodi:docname="csu_cropped.svg"
   inkscape:version="1.1 (c68e22c387, 2021-05-23)"
   xmlns:inkscape="http://www.inkscape.org/namespaces/inkscape"
   xmlns:sodipodi="http://sodipodi.sourceforge.net/DTD/sodipodi-0.dtd"
   xmlns="http://www.w3.org/2000/svg"
   xmlns:svg="http://www.w3.org/2000/svg">
  <defs
     id="defs166" />
  <sodipodi:namedview
     id="namedview164"
     pagecolor="#ffffff"
     bordercolor="#666666"
     borderopacity="1.0"
     inkscape:pageshadow="2"
     inkscape:pageopacity="0.0"
     inkscape:pagecheckerboard="0"
     showgrid="false"
     width="595.27557px"
     inkscape:zoom="0.5"
     inkscape:cx="348"
     inkscape:cy="468"
     inkscape:window-width="1920"
     inkscape:window-height="986"
     inkscape:window-x="-11"
     inkscape:window-y="-11"
     inkscape:window-maximized="1"
     inkscape:current-layer="svg162" />
  <path
     d="M -0.11328125,-0.09765625 V 841.79214 H 595.16232 V -0.09765625 Z"
     style="fill:none;stroke:#1b1918;stroke-width:0.216;stroke-linecap:butt;stroke-linejoin:miter;stroke-dasharray:none"
     id="path9" />
  <g
     id="g2305"
     transform="translate(-180.94639,-261.38733)">
    <g
       id="Layer1000"
       clip-path="none">
      <path
         d="m 301.7149,261.4412 c -66.6269,0 -120.6554,54.0195 -120.6554,120.5927 0,66.6352 54.0285,120.6581 120.658,120.6581 66.6431,0 120.6616,-54.0229 120.6616,-120.6581 0,-66.5732 -54.0185,-120.5927 -120.6642,-120.5927 z m 0.008,238.439 c -65.083,0 -117.8507,-52.7599 -117.8507,-117.8463 0,-65.0205 52.7677,-117.7771 117.8507,-117.7771 65.0855,0 117.8496,52.7566 117.8496,117.7771 0,65.0864 -52.7641,117.8463 -117.8496,117.8463 z"
         style="fill:#0070a9;fill-rule:evenodd"
         id="path11" />
    </g>
    <g
       id="g1570"
       clip-path="none">
      <path
         d="m 356.724,456.1319 14.1019,18.9444"
         style="fill:#006fa8;fill-rule:evenodd;stroke:#006fa8;stroke-width:0.8929;stroke-linecap:butt;stroke-linejoin:miter;stroke-dasharray:none"
         id="path1550" />
      <path
         d="m 360.2012,453.4105 15.1614,18.0734"
         style="fill:#006fa8;fill-rule:evenodd;stroke:#006fa8;stroke-width:0.8929;stroke-linecap:butt;stroke-linejoin:miter;stroke-dasharray:none"
         id="path1552" />
      <path
         d="m 363.3762,450.3858 16.4249,17.2053"
         style="fill:#006fa8;fill-rule:evenodd;stroke:#006fa8;stroke-width:0.8929;stroke-linecap:butt;stroke-linejoin:miter;stroke-dasharray:none"
         id="path1554" />
      <path
         d="m 366.7781,447.2869 17.3161,16.1361"
         style="fill:#006fa8;fill-rule:evenodd;stroke:#006fa8;stroke-width:0.8929;stroke-linecap:butt;stroke-linejoin:miter;stroke-dasharray:none"
         id="path1556" />
      <path
         d="m 369.8781,444.1118 18.3162,14.901"
         style="fill:#006fa8;fill-rule:evenodd;stroke:#006fa8;stroke-width:0.8929;stroke-linecap:butt;stroke-linejoin:miter;stroke-dasharray:none"
         id="path1558" />
      <path
         d="m 372.9778,440.6336 19.0828,13.7682"
         style="fill:#006fa8;fill-rule:evenodd;stroke:#006fa8;stroke-width:0.8929;stroke-linecap:butt;stroke-linejoin:miter;stroke-dasharray:none"
         id="path1560" />
      <path
         d="m 375.6995,437.1564 19.9597,12.4783"
         style="fill:#006fa8;fill-rule:evenodd;stroke:#006fa8;stroke-width:0.8929;stroke-linecap:butt;stroke-linejoin:miter;stroke-dasharray:none"
         id="path1562" />
      <path
         d="m 378.4963,433.5277 20.4673,11.2298"
         style="fill:#006fa8;fill-rule:evenodd;stroke:#006fa8;stroke-width:0.8929;stroke-linecap:butt;stroke-linejoin:miter;stroke-dasharray:none"
         id="path1564" />
      <path
         d="m 380.5373,429.4454 21.418,10.3733"
         style="fill:#006fa8;fill-rule:evenodd;stroke:#006fa8;stroke-width:0.8929;stroke-linecap:butt;stroke-linejoin:miter;stroke-dasharray:none"
         id="path1566" />
      <path
         d="m 404.6335,434.8672 -21.9796,-9.0505 z"
         style="fill:#006fa8;fill-rule:evenodd;stroke:#006fa8;stroke-width:0.8929;stroke-linecap:butt;stroke-linejoin:miter;stroke-dasharray:none"
         id="path1568" />
    </g>
    <g
       id="Layer1001"
       clip-path="none">
      <path
         d="m 301.7167,265.4803 c -64.4015,0 -116.6235,52.1878 -116.6235,116.5439 0,64.4141 52.222,116.6307 116.6235,116.6307 64.4211,0 116.6359,-52.2166 116.6359,-116.6307 0,-64.3561 -52.2148,-116.5439 -116.6359,-116.5439 z m 0,232.4217 c -63.9862,0 -115.8688,-51.88 -115.8688,-115.8768 0,-63.9397 51.8826,-115.7906 115.8688,-115.7906 64.0066,0 115.8812,51.8509 115.8812,115.7906 0,63.9968 -51.8746,115.8768 -115.8812,115.8768 z"
         style="fill:#0070a9;fill-rule:evenodd"
         id="path14" />
    </g>
    <g
       id="g1546"
       clip-path="none">
      <path
         d="m 356.724,456.1319 14.1019,18.9444"
         style="fill:#006fa8;fill-rule:evenodd;stroke:#006fa8;stroke-width:0.8929;stroke-linecap:butt;stroke-linejoin:miter;stroke-dasharray:none"
         id="path1526" />
      <path
         d="m 360.2012,453.4105 15.1614,18.0734"
         style="fill:#006fa8;fill-rule:evenodd;stroke:#006fa8;stroke-width:0.8929;stroke-linecap:butt;stroke-linejoin:miter;stroke-dasharray:none"
         id="path1528" />
      <path
         d="m 363.3762,450.3858 16.4249,17.2053"
         style="fill:#006fa8;fill-rule:evenodd;stroke:#006fa8;stroke-width:0.8929;stroke-linecap:butt;stroke-linejoin:miter;stroke-dasharray:none"
         id="path1530" />
      <path
         d="m 366.7781,447.2869 17.3161,16.1361"
         style="fill:#006fa8;fill-rule:evenodd;stroke:#006fa8;stroke-width:0.8929;stroke-linecap:butt;stroke-linejoin:miter;stroke-dasharray:none"
         id="path1532" />
      <path
         d="m 369.8781,444.1118 18.3162,14.901"
         style="fill:#006fa8;fill-rule:evenodd;stroke:#006fa8;stroke-width:0.8929;stroke-linecap:butt;stroke-linejoin:miter;stroke-dasharray:none"
         id="path1534" />
      <path
         d="m 372.9778,440.6336 19.0828,13.7682"
         style="fill:#006fa8;fill-rule:evenodd;stroke:#006fa8;stroke-width:0.8929;stroke-linecap:butt;stroke-linejoin:miter;stroke-dasharray:none"
         id="path1536" />
      <path
         d="m 375.6995,437.1564 19.9597,12.4783"
         style="fill:#006fa8;fill-rule:evenodd;stroke:#006fa8;stroke-width:0.8929;stroke-linecap:butt;stroke-linejoin:miter;stroke-dasharray:none"
         id="path1538" />
      <path
         d="m 378.4963,433.5277 20.4673,11.2298"
         style="fill:#006fa8;fill-rule:evenodd;stroke:#006fa8;stroke-width:0.8929;stroke-linecap:butt;stroke-linejoin:miter;stroke-dasharray:none"
         id="path1540" />
      <path
         d="m 380.5373,429.4454 21.418,10.3733"
         style="fill:#006fa8;fill-rule:evenodd;stroke:#006fa8;stroke-width:0.8929;stroke-linecap:butt;stroke-linejoin:miter;stroke-dasharray:none"
         id="path1542" />
      <path
         d="m 404.6335,434.8672 -21.9796,-9.0505 z"
         style="fill:#006fa8;fill-rule:evenodd;stroke:#006fa8;stroke-width:0.8929;stroke-linecap:butt;stroke-linejoin:miter;stroke-dasharray:none"
         id="path1544" />
    </g>
    <g
       id="Layer1002"
       clip-path="none">
      <path
         d="m 261.4366,478.7467 c -0.9787,-1.1978 -1.2207,-1.5185 -0.4765,-1.8613 0.7398,-0.3351 3.3638,0.0363 2.6446,-2.1377 -0.491,-1.0278 -2.307,-1.9189 -3.3603,-1.9811 0.9389,-1.3953 2.2033,-2.8657 1.0816,-4.3958 -1.3253,-1.7967 -1.4449,-0.6333 -1.8116,-0.007 -0.3608,0.6301 -2.2272,3.6004 -2.3424,3.9301 -0.5069,0.003 -2.883,0.0815 -3.7352,0.4696 -0.8468,0.3852 -1.4722,0.3898 -1.5413,-0.1597 -0.0471,-0.3773 -0.0504,-2.5957 -1.4344,0.0401 -1.4501,2.8276 0.3253,4.6678 1.0906,3.3566 0.7611,-1.3218 0.6254,-1.4761 1.2847,-1.6743 0.6624,-0.2022 3.8784,-1.049 2.9917,0.342 -0.7522,1.6972 -1.1333,1.5442 -1.7623,1.6892 -0.6261,0.1481 -1.7833,0.575 -0.1993,1.8659 -0.0982,0.1602 -2.0518,3.4693 -2.4272,4.1276 -0.3155,0.5315 -0.3731,2.5682 1.1675,1.6619 0.272,-0.2136 0.513,-0.6449 0.9064,-1.2209 2.3121,-3.5667 2.3033,-4.8283 3.5762,-4.3418 2.5924,1.5087 5.2758,2.0439 4.3472,0.2968 z m -2.2385,-2.9069 c 0,0 -0.5025,0.0569 -0.7087,-0.4641 -0.0381,-1.2722 1.4112,-1.0896 1.4112,-1.0896 0.9939,0.1798 1.9516,1.2138 -0.7025,1.5537 z"
         style="fill:#0070a9;fill-rule:evenodd"
         id="path17" />
    </g>
    <g
       id="g1522"
       clip-path="none">
      <path
         d="m 356.724,456.1319 14.1019,18.9444"
         style="fill:#006fa8;fill-rule:evenodd;stroke:#006fa8;stroke-width:0.8929;stroke-linecap:butt;stroke-linejoin:miter;stroke-dasharray:none"
         id="path1502" />
      <path
         d="m 360.2012,453.4105 15.1614,18.0734"
         style="fill:#006fa8;fill-rule:evenodd;stroke:#006fa8;stroke-width:0.8929;stroke-linecap:butt;stroke-linejoin:miter;stroke-dasharray:none"
         id="path1504" />
      <path
         d="m 363.3762,450.3858 16.4249,17.2053"
         style="fill:#006fa8;fill-rule:evenodd;stroke:#006fa8;stroke-width:0.8929;stroke-linecap:butt;stroke-linejoin:miter;stroke-dasharray:none"
         id="path1506" />
      <path
         d="m 366.7781,447.2869 17.3161,16.1361"
         style="fill:#006fa8;fill-rule:evenodd;stroke:#006fa8;stroke-width:0.8929;stroke-linecap:butt;stroke-linejoin:miter;stroke-dasharray:none"
         id="path1508" />
      <path
         d="m 369.8781,444.1118 18.3162,14.901"
         style="fill:#006fa8;fill-rule:evenodd;stroke:#006fa8;stroke-width:0.8929;stroke-linecap:butt;stroke-linejoin:miter;stroke-dasharray:none"
         id="path1510" />
      <path
         d="m 372.9778,440.6336 19.0828,13.7682"
         style="fill:#006fa8;fill-rule:evenodd;stroke:#006fa8;stroke-width:0.8929;stroke-linecap:butt;stroke-linejoin:miter;stroke-dasharray:none"
         id="path1512" />
      <path
         d="m 375.6995,437.1564 19.9597,12.4783"
         style="fill:#006fa8;fill-rule:evenodd;stroke:#006fa8;stroke-width:0.8929;stroke-linecap:butt;stroke-linejoin:miter;stroke-dasharray:none"
         id="path1514" />
      <path
         d="m 378.4963,433.5277 20.4673,11.2298"
         style="fill:#006fa8;fill-rule:evenodd;stroke:#006fa8;stroke-width:0.8929;stroke-linecap:butt;stroke-linejoin:miter;stroke-dasharray:none"
         id="path1516" />
      <path
         d="m 380.5373,429.4454 21.418,10.3733"
         style="fill:#006fa8;fill-rule:evenodd;stroke:#006fa8;stroke-width:0.8929;stroke-linecap:butt;stroke-linejoin:miter;stroke-dasharray:none"
         id="path1518" />
      <path
         d="m 404.6335,434.8672 -21.9796,-9.0505 z"
         style="fill:#006fa8;fill-rule:evenodd;stroke:#006fa8;stroke-width:0.8929;stroke-linecap:butt;stroke-linejoin:miter;stroke-dasharray:none"
         id="path1520" />
    </g>
    <g
       id="Layer1003"
       clip-path="none">
      <path
         d="m 287.992,477.9652 c 0.2322,-1.195 -0.295,-2.2483 -1.5769,-0.412 0,0 -0.2196,0.6406 -0.9471,0.4297 -0.729,-0.2188 -3.5525,-1.3793 -2.6294,0.9312 0.313,0.6645 1.5355,0.7424 1.9518,0.8452 0.4181,0.1044 1.2819,0.457 8e-4,1.5034 -0.5297,0.4271 -1.3439,1.3616 -2.0747,2.0616 -1.3166,0.9159 -1.9011,1.7416 -1.1695,2.0916 1.1978,0.2569 2.5568,-0.5361 4.783,-4.0239 0,0 0.8355,-1.5805 2.1102,-1.3644 1.2395,0.0966 3.9504,-0.1276 3.0449,-1.4396 -0.5305,-0.3446 -1.4467,-0.208 -1.824,-0.054 -0.3749,0.1427 -1.53,0.1268 -1.6691,-0.5688 z"
         style="fill:#0070a9;fill-rule:evenodd"
         id="path20" />
      <path
         d="m 280.0904,485.4496 c 0.1456,-0.6583 -0.1195,-3.6449 -1.5696,-0.808 -1.4555,2.8447 -1.3946,3.8465 -0.9427,4.7607 0.4546,0.9137 1.646,1.547 1.9986,-0.0345 0.3633,-1.5812 0.3579,-3.2565 0.5137,-3.9182 z"
         style="fill:#0070a9;fill-rule:evenodd"
         id="path22" />
      <path
         d="m 283.6157,486.8022 c 0.1063,-0.2098 0.449,-0.2736 0.6103,-0.3667 0.6264,-0.38 0.5793,-0.9568 -0.7761,-0.9879 -1.654,0.2144 -1.5776,1.4202 -0.8761,1.3528 0,0 0.901,0.1852 0.3499,0.6344 -0.5582,0.4588 -0.4837,0.9888 1.0595,1.2279 0,0 1.5398,0.5501 -0.2391,0.962 0,0 -0.9001,0.0576 -1.3635,0.0144 -0.4695,-0.0496 -1.234,0.699 -0.0362,0.9646 1.1932,0.2569 1.8029,0.171 1.5468,1.1809 -1.1251,3.3975 0.4587,3.4162 0.8645,1.7427 0,0 0.2934,-1.7286 0.5123,-2.3653 0.2304,-0.6452 0.7724,-0.8941 1.2428,-0.6087 1.4148,0.7717 2.9112,-0.7336 0.7681,-1.3058 0,0 -1.5902,-0.396 -0.5015,-0.5768 1.4139,-0.1065 2.2671,-0.7612 0.916,-1.2323 0,0 -1.2083,-0.3713 0.0779,-1.3032 0.7373,-0.5112 -0.341,-0.3978 -0.3595,-0.854 -0.0699,-0.3181 0.4837,-0.296 0.8628,-0.3384 0.3934,-0.0461 6.4797,-0.6964 5.0692,2.5409 -1.2677,3.2414 -1.9852,4.394 -2.4823,5.195 -0.4898,0.4693 -1.1464,1.5758 -1.6655,0.404 -0.7538,-1.1942 -1.4308,-0.2155 -0.7363,1.162 0.933,1.1997 1.492,1.7569 2.7819,0.5123 1.3033,-1.2413 4.0095,-6.299 4.4138,-8.7892 0.2152,-0.8522 -0.2348,-2.0048 -1.734,-2.3406 -1.1932,-0.1507 -5.0196,-0.2366 -6.4422,0.1417 -1.4202,0.3746 -1.2873,0.6529 -1.0188,1.2094 -0.0666,0.8478 -0.8152,1.7928 -1.4902,2.0268 -0.5421,0.1986 -1.6335,0.6424 -1.3545,-0.2029 z"
         style="fill:#0070a9;fill-rule:evenodd"
         id="path24" />
    </g>
    <g
       id="g1498"
       clip-path="none">
      <path
         d="m 356.724,456.1319 14.1019,18.9444"
         style="fill:#006fa8;fill-rule:evenodd;stroke:#006fa8;stroke-width:0.8929;stroke-linecap:butt;stroke-linejoin:miter;stroke-dasharray:none"
         id="path1478" />
      <path
         d="m 360.2012,453.4105 15.1614,18.0734"
         style="fill:#006fa8;fill-rule:evenodd;stroke:#006fa8;stroke-width:0.8929;stroke-linecap:butt;stroke-linejoin:miter;stroke-dasharray:none"
         id="path1480" />
      <path
         d="m 363.3762,450.3858 16.4249,17.2053"
         style="fill:#006fa8;fill-rule:evenodd;stroke:#006fa8;stroke-width:0.8929;stroke-linecap:butt;stroke-linejoin:miter;stroke-dasharray:none"
         id="path1482" />
      <path
         d="m 366.7781,447.2869 17.3161,16.1361"
         style="fill:#006fa8;fill-rule:evenodd;stroke:#006fa8;stroke-width:0.8929;stroke-linecap:butt;stroke-linejoin:miter;stroke-dasharray:none"
         id="path1484" />
      <path
         d="m 369.8781,444.1118 18.3162,14.901"
         style="fill:#006fa8;fill-rule:evenodd;stroke:#006fa8;stroke-width:0.8929;stroke-linecap:butt;stroke-linejoin:miter;stroke-dasharray:none"
         id="path1486" />
      <path
         d="m 372.9778,440.6336 19.0828,13.7682"
         style="fill:#006fa8;fill-rule:evenodd;stroke:#006fa8;stroke-width:0.8929;stroke-linecap:butt;stroke-linejoin:miter;stroke-dasharray:none"
         id="path1488" />
      <path
         d="m 375.6995,437.1564 19.9597,12.4783"
         style="fill:#006fa8;fill-rule:evenodd;stroke:#006fa8;stroke-width:0.8929;stroke-linecap:butt;stroke-linejoin:miter;stroke-dasharray:none"
         id="path1490" />
      <path
         d="m 378.4963,433.5277 20.4673,11.2298"
         style="fill:#006fa8;fill-rule:evenodd;stroke:#006fa8;stroke-width:0.8929;stroke-linecap:butt;stroke-linejoin:miter;stroke-dasharray:none"
         id="path1492" />
      <path
         d="m 380.5373,429.4454 21.418,10.3733"
         style="fill:#006fa8;fill-rule:evenodd;stroke:#006fa8;stroke-width:0.8929;stroke-linecap:butt;stroke-linejoin:miter;stroke-dasharray:none"
         id="path1494" />
      <path
         d="m 404.6335,434.8672 -21.9796,-9.0505 z"
         style="fill:#006fa8;fill-rule:evenodd;stroke:#006fa8;stroke-width:0.8929;stroke-linecap:butt;stroke-linejoin:miter;stroke-dasharray:none"
         id="path1496" />
    </g>
    <g
       id="Layer1004"
       clip-path="none">
      <path
         d="m 315.6912,479.4181 c -0.0913,-0.6323 -2.0084,-3.4037 -2.4718,-1.4653 0.3402,1.958 0.7733,5.0922 0.8645,5.6893 0.0939,0.5971 0.3058,1.1075 -0.5757,1.5825 -0.8808,0.4765 -6.0464,1.6352 -5.1845,3.0635 1.2935,1.1037 2.3594,0.2939 2.8544,-0.0268 0.5015,-0.3083 2.9681,-2.2094 2.6808,-0.5032 -0.7573,1.5416 -2.2598,3.7138 -2.5594,4.2366 -0.2924,0.5138 -0.295,2.05 1.6975,0.629 1.9818,-1.5008 2.6239,-4.2418 2.4877,-5.1454 -0.1312,-0.8718 0.225,-1.6602 1.0417,-1.8587 1.1173,-0.2692 5.4202,-0.4094 5.4174,-2.6631 -0.1283,-1.0666 -0.846,-0.8841 -2.0695,-0.1931 -1.2215,0.6928 -3.9368,1.6141 -4.1052,0.5192 -0.2171,-1.3981 -0.0779,-3.8645 -0.0779,-3.8645 z"
         style="fill:#0070a9;fill-rule:evenodd"
         id="path27" />
      <path
         d="m 319.451,489.399 c 0.675,0.666 3.4461,4.137 4.7475,3.7012 1.2935,-0.4375 1.3848,-2.2874 -0.6449,-3.3363 -2.0243,-1.0577 -4.4269,-2.3034 -4.5925,-1.6337 -0.1746,0.6771 0.2461,1.0312 0.4899,1.2688 z"
         style="fill:#0070a9;fill-rule:evenodd"
         id="path29" />
    </g>
    <g
       id="g1474"
       clip-path="none">
      <path
         d="m 356.724,456.1319 14.1019,18.9444"
         style="fill:#006fa8;fill-rule:evenodd;stroke:#006fa8;stroke-width:0.8929;stroke-linecap:butt;stroke-linejoin:miter;stroke-dasharray:none"
         id="path1454" />
      <path
         d="m 360.2012,453.4105 15.1614,18.0734"
         style="fill:#006fa8;fill-rule:evenodd;stroke:#006fa8;stroke-width:0.8929;stroke-linecap:butt;stroke-linejoin:miter;stroke-dasharray:none"
         id="path1456" />
      <path
         d="m 363.3762,450.3858 16.4249,17.2053"
         style="fill:#006fa8;fill-rule:evenodd;stroke:#006fa8;stroke-width:0.8929;stroke-linecap:butt;stroke-linejoin:miter;stroke-dasharray:none"
         id="path1458" />
      <path
         d="m 366.7781,447.2869 17.3161,16.1361"
         style="fill:#006fa8;fill-rule:evenodd;stroke:#006fa8;stroke-width:0.8929;stroke-linecap:butt;stroke-linejoin:miter;stroke-dasharray:none"
         id="path1460" />
      <path
         d="m 369.8781,444.1118 18.3162,14.901"
         style="fill:#006fa8;fill-rule:evenodd;stroke:#006fa8;stroke-width:0.8929;stroke-linecap:butt;stroke-linejoin:miter;stroke-dasharray:none"
         id="path1462" />
      <path
         d="m 372.9778,440.6336 19.0828,13.7682"
         style="fill:#006fa8;fill-rule:evenodd;stroke:#006fa8;stroke-width:0.8929;stroke-linecap:butt;stroke-linejoin:miter;stroke-dasharray:none"
         id="path1464" />
      <path
         d="m 375.6995,437.1564 19.9597,12.4783"
         style="fill:#006fa8;fill-rule:evenodd;stroke:#006fa8;stroke-width:0.8929;stroke-linecap:butt;stroke-linejoin:miter;stroke-dasharray:none"
         id="path1466" />
      <path
         d="m 378.4963,433.5277 20.4673,11.2298"
         style="fill:#006fa8;fill-rule:evenodd;stroke:#006fa8;stroke-width:0.8929;stroke-linecap:butt;stroke-linejoin:miter;stroke-dasharray:none"
         id="path1468" />
      <path
         d="m 380.5373,429.4454 21.418,10.3733"
         style="fill:#006fa8;fill-rule:evenodd;stroke:#006fa8;stroke-width:0.8929;stroke-linecap:butt;stroke-linejoin:miter;stroke-dasharray:none"
         id="path1470" />
      <path
         d="m 404.6335,434.8672 -21.9796,-9.0505 z"
         style="fill:#006fa8;fill-rule:evenodd;stroke:#006fa8;stroke-width:0.8929;stroke-linecap:butt;stroke-linejoin:miter;stroke-dasharray:none"
         id="path1472" />
    </g>
    <g
       id="Layer1005"
       clip-path="none">
      <path
         d="m 204.1793,408.148 0.0406,-2.8004 c 1.5424,-0.037 2.7968,0.296 3.7624,0.9993 0.9659,0.7026 1.6604,1.7551 2.0819,3.1558 0.522,1.7337 0.358,3.3363 -0.4906,4.8088 -0.8479,1.4724 -2.3,2.5167 -4.3534,3.1352 -2.1724,0.6539 -4.0283,0.6007 -5.5689,-0.1587 -1.5388,-0.7599 -2.5843,-2.0544 -3.1344,-3.8827 -0.4801,-1.5957 -0.3996,-3.0362 0.2446,-4.3171 0.38,-0.762 1.0471,-1.4478 2.0021,-2.059 l 1.4085,2.4213 c -0.6298,0.3577 -1.0675,0.8406 -1.312,1.4483 -0.2435,0.6079 -0.2605,1.2616 -0.0504,1.9615 0.2913,0.9682 0.8743,1.6479 1.7507,2.0421 0.8761,0.3942 2.0914,0.3569 3.6461,-0.1119 1.6507,-0.4968 2.7367,-1.1471 3.2587,-1.9515 0.5217,-0.8044 0.6395,-1.6815 0.3541,-2.6312 -0.2106,-0.6997 -0.6146,-1.2359 -1.2128,-1.6069 -0.596,-0.3703 -1.4058,-0.5218 -2.4272,-0.4529 z"
         style="fill:#0070a9;fill-rule:evenodd"
         id="path32" />
      <path
         d="m 207.1656,398.8062 -13.5368,1.6913 -1.2536,-10.0377 2.2892,-0.286 0.9126,7.3034 3.0015,-0.3739 -0.8489,-6.7957 2.2805,-0.2852 0.8488,6.7957 3.6845,-0.4597 -0.9445,-7.5632 2.2804,-0.2851 z"
         style="fill:#0070a9;fill-rule:evenodd"
         id="path34" />
      <path
         d="m 205.6551,383.0865 -13.6191,-0.6149 0.1204,-2.6746 9.3464,-5.1639 -9.0947,-0.4112 0.1152,-2.554 13.6191,0.6148 -0.125,2.7587 -9.1284,5.0896 8.8813,0.4004 z"
         style="fill:#0070a9;fill-rule:evenodd"
         id="path36" />
      <path
         d="m 207.6192,363.3616 -11.0846,-2.3689 -0.846,3.9599 -2.2573,-0.4837 2.2661,-10.6017 2.2572,0.4819 -0.845,3.9494 11.0854,2.3689 z"
         style="fill:#0070a9;fill-rule:evenodd"
         id="path38" />
      <path
         d="m 210.4381,352.0759 -12.6835,-5.0011 2.1253,-5.3902 c 0.5349,-1.3554 1.0374,-2.2956 1.507,-2.8199 0.4695,-0.5248 1.0692,-0.8566 1.7964,-0.9967 0.7293,-0.1391 1.4681,-0.0615 2.2175,0.2343 0.9514,0.3757 1.6275,0.9656 2.0271,1.7689 0.3996,0.8046 0.4598,1.7957 0.1823,2.9722 0.5413,-0.4261 1.0764,-0.7437 1.6054,-0.952 0.5279,-0.2086 1.4059,-0.424 2.6338,-0.646 l 3.0848,-0.5734 -1.2076,3.0627 -3.4904,0.7632 c -1.2456,0.2687 -2.0438,0.4737 -2.3964,0.6151 -0.3517,0.1414 -0.629,0.3286 -0.8311,0.5616 -0.2018,0.233 -0.4189,0.6442 -0.6511,1.2323 l -0.2047,0.5197 5.2943,2.0873 z m -6.3095,-5.448 0.7468,-1.895 c 0.4847,-1.2274 0.7354,-2.0153 0.7522,-2.3622 0.0169,-0.3464 -0.0682,-0.657 -0.2541,-0.9298 -0.1852,-0.2734 -0.4678,-0.4845 -0.8489,-0.6347 -0.4268,-0.1684 -0.8159,-0.19 -1.1685,-0.0656 -0.3525,0.124 -0.6449,0.3801 -0.8779,0.7684 -0.1108,0.196 -0.3703,0.8142 -0.7804,1.8513 l -0.7877,1.9996 z"
         style="fill:#0070a9;fill-rule:evenodd"
         id="path40" />
      <path
         d="m 223.5089,326.1544 -1.5681,2.5551 -3.2653,-0.6061 -2.8536,4.6506 2.0536,2.5813 -1.5293,2.4915 -8.852,-11.6698 1.5239,-2.4836 z m -7.2555,1.5003 -5.3005,-1.0459 3.3523,4.2194 z"
         style="fill:#0070a9;fill-rule:evenodd"
         id="path42" />
      <path
         d="m 226.3821,322.57 -10.2226,-8.8522 1.8019,-2.0807 8.4863,7.3477 4.4808,-5.1737 1.7374,1.5036 z"
         style="fill:#0070a9;fill-rule:evenodd"
         id="path44" />
      <path
         d="m 246.2708,298.2315 2.1837,-1.5748 c 0.5927,0.6969 1.2084,1.1017 1.8471,1.2182 0.6388,0.1162 1.32,-0.0371 2.0439,-0.4588 0.7663,-0.448 1.2482,-0.9458 1.4485,-1.4971 0.1993,-0.5504 0.1728,-1.0425 -0.0807,-1.4774 -0.1631,-0.2782 -0.3827,-0.4685 -0.6599,-0.5683 -0.2782,-0.1011 -0.6627,-0.1036 -1.1536,-0.0116 -0.3348,0.0661 -1.0702,0.2646 -2.205,0.5964 -1.4609,0.4274 -2.5824,0.5616 -3.3657,0.4011 -1.1011,-0.227 -1.925,-0.8067 -2.4681,-1.7394 -0.3497,-0.6001 -0.5076,-1.261 -0.4721,-1.9813 0.0362,-0.7224 0.2949,-1.4061 0.7753,-2.0531 0.4819,-0.6462 1.1754,-1.2336 2.0809,-1.7618 1.4786,-0.8622 2.7818,-1.187 3.9069,-0.9753 1.126,0.2131 2.0233,0.8501 2.6921,1.9101 l -2.3182,1.4922 c -0.4554,-0.5464 -0.9276,-0.8547 -1.4174,-0.9239 -0.4902,-0.071 -1.0693,0.0902 -1.7392,0.4806 -0.692,0.403 -1.15,0.8607 -1.3757,1.3732 -0.1453,0.3286 -0.1294,0.647 0.0486,0.9515 0.163,0.279 0.4191,0.4492 0.7707,0.5094 0.4474,0.0774 1.3289,-0.0851 2.6463,-0.4863 1.3174,-0.4024 2.338,-0.619 3.0635,-0.6498 0.7246,-0.0316 1.3917,0.1136 2.0004,0.4371 0.6094,0.3238 1.1304,0.8584 1.5652,1.6034 0.3935,0.675 0.575,1.4172 0.5442,2.2254 -0.0319,0.809 -0.3073,1.5565 -0.8257,2.2436 -0.5192,0.6861 -1.2909,1.3285 -2.3142,1.9243 -1.4899,0.8694 -2.8348,1.1919 -4.0352,0.9687 -1.2004,-0.2227 -2.2616,-0.9479 -3.1866,-2.1763 z"
         style="fill:#0070a9;fill-rule:evenodd"
         id="path46" />
      <path
         d="m 260.1007,288.0151 c -0.4775,-1.3032 -0.683,-2.4689 -0.6174,-3.4957 0.0522,-0.7578 0.2347,-1.4884 0.5474,-2.191 0.3138,-0.7025 0.7247,-1.288 1.2316,-1.7581 0.6732,-0.6298 1.5308,-1.1348 2.5728,-1.5164 1.8851,-0.6913 3.6073,-0.6601 5.1682,0.0941 1.5602,0.7552 2.7215,2.1739 3.4852,4.2574 0.7565,2.0649 0.7877,3.8863 0.0931,5.465 -0.6954,1.5784 -1.9827,2.7119 -3.8617,3.4011 -1.9029,0.6971 -3.6289,0.6712 -5.1772,-0.0779 -1.5478,-0.7491 -2.695,-2.1421 -3.442,-4.1785 z m 2.6304,-1.0631 c 0.5305,1.4494 1.2678,2.4245 2.2102,2.9267 0.9435,0.5027 1.9305,0.5657 2.9599,0.1869 1.0304,-0.3764 1.7391,-1.0574 2.1282,-2.0412 0.3877,-0.9834 0.3098,-2.2169 -0.233,-3.701 -0.538,-1.467 -1.2608,-2.4421 -2.1681,-2.9282 -0.907,-0.4855 -1.8931,-0.5328 -2.958,-0.144 -1.0649,0.3912 -1.7885,1.0706 -2.1732,2.0395 -0.3834,0.9695 -0.3055,2.1899 0.234,3.6613 z"
         style="fill:#0070a9;fill-rule:evenodd"
         id="path48" />
      <path
         d="m 277.5806,275.0981 2.7138,-0.4691 1.258,7.2795 c 0.1992,1.1554 0.3631,1.8986 0.4891,2.2285 0.2116,0.5302 0.5642,0.9245 1.0584,1.1819 0.4945,0.2579 1.1209,0.3201 1.8793,0.1892 0.7696,-0.1329 1.3235,-0.3898 1.6601,-0.7727 0.3367,-0.3821 0.5059,-0.8093 0.5059,-1.2817 0,-0.4723 -0.0924,-1.2405 -0.2757,-2.304 l -1.2853,-7.4348 2.7143,-0.4688 1.2199,7.0593 c 0.2783,1.6137 0.4022,2.7667 0.3714,3.458 -0.0319,0.6914 -0.2058,1.3009 -0.5203,1.827 -0.3152,0.5272 -0.7794,0.9829 -1.3924,1.3688 -0.6131,0.3863 -1.4512,0.6712 -2.5142,0.8553 -1.2837,0.2214 -2.283,0.2415 -2.9971,0.0594 -0.7149,-0.1807 -1.3051,-0.4757 -1.7718,-0.8823 -0.467,-0.4081 -0.8072,-0.8609 -1.0189,-1.359 -0.3101,-0.7398 -0.5953,-1.8615 -0.855,-3.3654 z"
         style="fill:#0070a9;fill-rule:evenodd"
         id="path50" />
      <path
         d="m 299.6171,286.1937 -0.1001,-11.325 -4.0452,0.0352 -0.0204,-2.3051 10.8331,-0.0951 0.0203,2.3061 -4.0352,0.035 0.099,11.325 z"
         style="fill:#0070a9;fill-rule:evenodd"
         id="path52" />
      <path
         d="m 311.2509,286.4869 2.1243,-13.4792 2.7217,0.4297 -0.8365,5.304 5.3334,0.8419 0.8362,-5.306 2.7207,0.4297 -2.1243,13.4789 -2.7217,-0.429 0.9293,-5.8931 -5.3331,-0.8419 -0.9293,5.8934 z"
         style="fill:#0070a9;fill-rule:evenodd"
         id="path54" />
      <path
         d="m 349.9529,283.5962 2.4079,1.3354 -3.5826,6.4576 c -0.5688,1.024 -0.9072,1.7054 -1.0163,2.041 -0.1671,0.5449 -0.1388,1.0729 0.0844,1.5841 0.2242,0.5099 0.6724,0.9515 1.3446,1.3246 0.6833,0.3785 1.275,0.5253 1.7772,0.4384 0.5015,-0.0866 0.9003,-0.314 1.1971,-0.6817 0.2957,-0.3672 0.7061,-1.0227 1.2294,-1.9659 l 3.658,-6.5952 2.408,1.3346 -3.4736,6.2627 c -0.7946,1.4311 -1.4211,2.4059 -1.8791,2.9256 -0.458,0.5185 -0.9735,0.8841 -1.5496,1.0968 -0.5747,0.2127 -1.2225,0.2769 -1.9417,0.1944 -0.7203,-0.0846 -1.5514,-0.3875 -2.4949,-0.9111 -1.1384,-0.6313 -1.9287,-1.2426 -2.3707,-1.8312 -0.4428,-0.5899 -0.7185,-1.1888 -0.8265,-1.7988 -0.108,-0.6094 -0.0887,-1.1744 0.0584,-1.6961 0.2216,-0.77 0.7025,-1.8222 1.4423,-3.1556 z"
         style="fill:#0070a9;fill-rule:evenodd"
         id="path56" />
      <path
         d="m 357.8279,304.1437 8.5835,-10.5965 2.0811,1.6859 -1.3945,10.5896 5.7319,-7.0764 1.9881,1.6101 -8.5838,10.5965 -2.1464,-1.7392 1.3253,-10.3699 -5.5974,6.9105 z"
         style="fill:#0070a9;fill-rule:evenodd"
         id="path58" />
      <path
         d="m 370.3785,315.1398 9.886,-9.385 1.8949,1.996 -9.8867,9.3845 z"
         style="fill:#0070a9;fill-rule:evenodd"
         id="path60" />
      <path
         d="m 378.1409,324.1407 8.1008,-12.0029 1.7685,2.4065 -6.0881,8.7563 10.1091,-3.2859 1.7294,2.3542 -13.8788,4.1399 z"
         style="fill:#0070a9;fill-rule:evenodd"
         id="path62" />
      <path
         d="m 385.0254,334.3226 12.162,-6.1526 4.5624,9.0173 -2.058,1.0404 -3.3196,-6.5615 -2.6959,1.364 3.0884,6.105 -2.0493,1.0366 -3.0881,-6.1053 -3.3098,1.6743 3.4373,6.7937 -2.05,1.0371 z"
         style="fill:#0070a9;fill-rule:evenodd"
         id="path64" />
      <path
         d="m 391.7353,348.5969 13.0425,-3.9982 1.6992,5.5432 c 0.4269,1.3945 0.62,2.4424 0.5802,3.1468 -0.0417,0.7025 -0.3029,1.3369 -0.7848,1.8995 -0.483,0.5635 -1.1102,0.9638 -1.8809,1.1994 -0.9789,0.3004 -1.8754,0.2605 -2.6895,-0.1196 -0.8142,-0.38 -1.4794,-1.1163 -1.996,-2.2102 -0.1577,0.6714 -0.3783,1.2526 -0.6619,1.7461 -0.2834,0.4906 -0.8363,1.2073 -1.6584,2.1474 l -2.0562,2.3725 -0.9656,-3.1503 2.2547,-2.7739 c 0.8069,-0.987 1.3048,-1.6461 1.4917,-1.9747 0.188,-0.3305 0.288,-0.6501 0.3004,-0.9584 0.0126,-0.3084 -0.0743,-0.7663 -0.2595,-1.3714 l -0.164,-0.5334 -5.4447,1.669 z m 8.3338,0.3274 0.5981,1.9484 c 0.3862,1.2626 0.682,2.0351 0.8851,2.3177 0.2027,0.2808 0.4624,0.4711 0.7776,0.5678 0.3156,0.0985 0.6689,0.0869 1.0605,-0.0326 0.4385,-0.134 0.7566,-0.3598 0.9551,-0.6769 0.1983,-0.3173 0.2674,-0.6999 0.2083,-1.1492 -0.0365,-0.2214 -0.2181,-0.8671 -0.5441,-1.9351 l -0.6308,-2.0551 z"
         style="fill:#0070a9;fill-rule:evenodd"
         id="path66" />
      <path
         d="m 400.4484,363.5362 0.604,2.624 c -0.8707,0.2754 -1.4838,0.6848 -1.8381,1.2286 -0.3554,0.5431 -0.4783,1.2297 -0.3703,2.0609 0.1142,0.8797 0.3862,1.5174 0.8167,1.9152 0.4297,0.3968 0.8949,0.5645 1.3927,0.4989 0.3199,-0.0409 0.5794,-0.171 0.7805,-0.3873 0.1993,-0.217 0.3518,-0.5696 0.4572,-1.0594 0.0689,-0.3333 0.171,-1.088 0.3065,-2.2627 0.1718,-1.5113 0.4845,-2.5967 0.9363,-3.2558 0.6362,-0.9276 1.4902,-1.4609 2.5602,-1.6 0.6895,-0.0903 1.3591,0.0213 2.0094,0.3348 0.6504,0.3119 1.1801,0.8159 1.5892,1.5097 0.4094,0.6946 0.6823,1.562 0.817,2.6001 0.2207,1.6985 0.0149,3.0246 -0.6177,3.9797 -0.6333,0.9551 -1.5671,1.5344 -2.8037,1.7389 l -0.4757,-2.7153 c 0.6804,-0.2065 1.1464,-0.5236 1.4014,-0.9471 0.2544,-0.4233 0.3315,-1.0196 0.2312,-1.7895 -0.1028,-0.7928 -0.3464,-1.3935 -0.7308,-1.7993 -0.2464,-0.2621 -0.5457,-0.3711 -0.8957,-0.3251 -0.3199,0.0417 -0.5768,0.2127 -0.7688,0.513 -0.2446,0.3827 -0.4369,1.258 -0.5776,2.6266 -0.1409,1.3688 -0.3377,2.3946 -0.5902,3.075 -0.2525,0.6805 -0.6457,1.2377 -1.18,1.6736 -0.5352,0.4351 -1.2298,0.7079 -2.0845,0.8203 -0.7753,0.1003 -1.5291,-0.0211 -2.2617,-0.3631 -0.7326,-0.343 -1.3148,-0.8859 -1.7463,-1.6301 -0.4305,-0.7452 -0.7229,-1.7054 -0.8761,-2.8793 -0.2214,-1.7098 0.002,-3.0751 0.6732,-4.0936 0.6707,-1.0207 1.7515,-1.7163 3.2417,-2.0917 z"
         style="fill:#0070a9;fill-rule:evenodd"
         id="path68" />
      <path
         d="m 397.5798,380.4067 13.6394,-0.0605 0.0126,2.7544 -13.6396,0.0602 z"
         style="fill:#0070a9;fill-rule:evenodd"
         id="path70" />
      <path
         d="m 397.1031,391.8605 11.2494,1.3123 0.4688,-4.0178 2.2909,0.2674 -1.2554,10.7596 -2.2902,-0.2675 0.4678,-4.008 -11.2502,-1.312 z"
         style="fill:#0070a9;fill-rule:evenodd"
         id="path72" />
      <path
         d="m 394.3603,406.7998 5.5236,1.5637 8.9628,-2.6553 -0.8795,3.1069 -6.0677,1.6188 4.3356,4.4968 -0.8646,3.0519 -6.2519,-6.9828 -5.5061,-1.5601 z"
         style="fill:#0070a9;fill-rule:evenodd"
         id="path74" />
    </g>
    <g
       id="g1450"
       clip-path="none">
      <path
         d="m 356.724,456.1319 14.1019,18.9444"
         style="fill:#006fa8;fill-rule:evenodd;stroke:#006fa8;stroke-width:0.8929;stroke-linecap:butt;stroke-linejoin:miter;stroke-dasharray:none"
         id="path1430" />
      <path
         d="m 360.2012,453.4105 15.1614,18.0734"
         style="fill:#006fa8;fill-rule:evenodd;stroke:#006fa8;stroke-width:0.8929;stroke-linecap:butt;stroke-linejoin:miter;stroke-dasharray:none"
         id="path1432" />
      <path
         d="m 363.3762,450.3858 16.4249,17.2053"
         style="fill:#006fa8;fill-rule:evenodd;stroke:#006fa8;stroke-width:0.8929;stroke-linecap:butt;stroke-linejoin:miter;stroke-dasharray:none"
         id="path1434" />
      <path
         d="m 366.7781,447.2869 17.3161,16.1361"
         style="fill:#006fa8;fill-rule:evenodd;stroke:#006fa8;stroke-width:0.8929;stroke-linecap:butt;stroke-linejoin:miter;stroke-dasharray:none"
         id="path1436" />
      <path
         d="m 369.8781,444.1118 18.3162,14.901"
         style="fill:#006fa8;fill-rule:evenodd;stroke:#006fa8;stroke-width:0.8929;stroke-linecap:butt;stroke-linejoin:miter;stroke-dasharray:none"
         id="path1438" />
      <path
         d="m 372.9778,440.6336 19.0828,13.7682"
         style="fill:#006fa8;fill-rule:evenodd;stroke:#006fa8;stroke-width:0.8929;stroke-linecap:butt;stroke-linejoin:miter;stroke-dasharray:none"
         id="path1440" />
      <path
         d="m 375.6995,437.1564 19.9597,12.4783"
         style="fill:#006fa8;fill-rule:evenodd;stroke:#006fa8;stroke-width:0.8929;stroke-linecap:butt;stroke-linejoin:miter;stroke-dasharray:none"
         id="path1442" />
      <path
         d="m 378.4963,433.5277 20.4673,11.2298"
         style="fill:#006fa8;fill-rule:evenodd;stroke:#006fa8;stroke-width:0.8929;stroke-linecap:butt;stroke-linejoin:miter;stroke-dasharray:none"
         id="path1444" />
      <path
         d="m 380.5373,429.4454 21.418,10.3733"
         style="fill:#006fa8;fill-rule:evenodd;stroke:#006fa8;stroke-width:0.8929;stroke-linecap:butt;stroke-linejoin:miter;stroke-dasharray:none"
         id="path1446" />
      <path
         d="m 404.6335,434.8672 -21.9796,-9.0505 z"
         style="fill:#006fa8;fill-rule:evenodd;stroke:#006fa8;stroke-width:0.8929;stroke-linecap:butt;stroke-linejoin:miter;stroke-dasharray:none"
         id="path1448" />
    </g>
    <path
       d="m 301.7175,288.9074 c -51.4601,0 -93.1893,41.7009 -93.1893,93.1258 0,51.4706 41.7292,93.1954 93.1893,93.1954 51.477,0 93.2,-41.7248 93.2,-93.1954 0,-51.4249 -41.723,-93.1258 -93.2,-93.1258 z m 0,184.9925 c -50.7275,0 -91.8606,-41.1295 -91.8606,-91.866 0,-50.6912 41.1331,-91.7983 91.8606,-91.7983 50.7444,0 91.8713,41.1071 91.8713,91.7983 0,50.7365 -41.1269,91.866 -91.8713,91.866 z"
       style="fill:#0070a9;fill-rule:evenodd"
       id="path77"
       clip-path="none" />
    <g
       id="g1426"
       clip-path="none">
      <path
         d="m 356.724,456.1319 14.1019,18.9444"
         style="fill:#006fa8;fill-rule:evenodd;stroke:#006fa8;stroke-width:0.8929;stroke-linecap:butt;stroke-linejoin:miter;stroke-dasharray:none"
         id="path1406" />
      <path
         d="m 360.2012,453.4105 15.1614,18.0734"
         style="fill:#006fa8;fill-rule:evenodd;stroke:#006fa8;stroke-width:0.8929;stroke-linecap:butt;stroke-linejoin:miter;stroke-dasharray:none"
         id="path1408" />
      <path
         d="m 363.3762,450.3858 16.4249,17.2053"
         style="fill:#006fa8;fill-rule:evenodd;stroke:#006fa8;stroke-width:0.8929;stroke-linecap:butt;stroke-linejoin:miter;stroke-dasharray:none"
         id="path1410" />
      <path
         d="m 366.7781,447.2869 17.3161,16.1361"
         style="fill:#006fa8;fill-rule:evenodd;stroke:#006fa8;stroke-width:0.8929;stroke-linecap:butt;stroke-linejoin:miter;stroke-dasharray:none"
         id="path1412" />
      <path
         d="m 369.8781,444.1118 18.3162,14.901"
         style="fill:#006fa8;fill-rule:evenodd;stroke:#006fa8;stroke-width:0.8929;stroke-linecap:butt;stroke-linejoin:miter;stroke-dasharray:none"
         id="path1414" />
      <path
         d="m 372.9778,440.6336 19.0828,13.7682"
         style="fill:#006fa8;fill-rule:evenodd;stroke:#006fa8;stroke-width:0.8929;stroke-linecap:butt;stroke-linejoin:miter;stroke-dasharray:none"
         id="path1416" />
      <path
         d="m 375.6995,437.1564 19.9597,12.4783"
         style="fill:#006fa8;fill-rule:evenodd;stroke:#006fa8;stroke-width:0.8929;stroke-linecap:butt;stroke-linejoin:miter;stroke-dasharray:none"
         id="path1418" />
      <path
         d="m 378.4963,433.5277 20.4673,11.2298"
         style="fill:#006fa8;fill-rule:evenodd;stroke:#006fa8;stroke-width:0.8929;stroke-linecap:butt;stroke-linejoin:miter;stroke-dasharray:none"
         id="path1420" />
      <path
         d="m 380.5373,429.4454 21.418,10.3733"
         style="fill:#006fa8;fill-rule:evenodd;stroke:#006fa8;stroke-width:0.8929;stroke-linecap:butt;stroke-linejoin:miter;stroke-dasharray:none"
         id="path1422" />
      <path
         d="m 404.6335,434.8672 -21.9796,-9.0505 z"
         style="fill:#006fa8;fill-rule:evenodd;stroke:#006fa8;stroke-width:0.8929;stroke-linecap:butt;stroke-linejoin:miter;stroke-dasharray:none"
         id="path1424" />
    </g>
    <g
       id="Layer1006"
       clip-path="none">
      <g
         id="Layer1007">
        <path
           d="m 341.948,477.7561 c 0.6207,-0.271 0.9131,-1.3395 -0.0347,-3.3718 -0.2515,-0.5384 -1.7009,-1.529 -1.6283,0.0798 0.2862,1.3714 0.4554,1.4706 0.5891,2.1829 0,0 0.442,1.3838 1.0739,1.1091 z"
           style="fill:#0070a9;fill-rule:evenodd"
           id="path79" />
        <path
           d="m 338.4502,480.3804 c -0.466,2.0109 0.279,3.8092 1.2163,3.5258 0.9427,-0.2783 0.8674,-1.7186 0.3641,-3.0689 -0.217,-0.5881 -1.1091,-2.4715 -1.5804,-0.4569 z"
           style="fill:#0070a9;fill-rule:evenodd"
           id="path81" />
        <path
           d="m 352.5522,471.5354 c -0.9098,-0.5601 -1.8852,0.4536 -2.0349,0.8025 -0.1445,0.3562 -1.4246,1.1888 -1.304,-0.8859 0.0105,-1.5007 1.5421,-2.9891 0.466,-3.9264 -1.0713,-0.9265 -2.5842,0.0249 -2.7377,0.9586 -0.1522,0.9286 0.3863,0.5971 1.1119,0.528 0.3163,-0.0831 0.4066,0.9018 0.3138,1.6301 -0.0888,0.7228 -0.3642,0.7832 -0.5334,-0.0939 -0.1818,-0.8699 -1.3122,-0.5917 -1.7887,-0.1844 -0.4634,0.404 -0.9373,-0.216 -0.5254,-1.0949 0.233,-1.04 -1.8047,-2.7269 -2.3432,-1.4388 0,0 -0.1206,0.8684 0.8895,0.9995 0.7095,0.2569 -0.5006,2.9784 -1.2101,2.0305 -0.2438,-0.3278 -1.8322,-2.4594 -1.2536,-0.0673 0.5731,2.3884 1.9037,5.3986 2.0003,5.6856 0.1044,0.2836 0.1124,0.6308 -0.1311,0.8453 -0.2384,0.225 -4.5873,2.6083 -2.3938,2.9058 1.1561,-0.1399 1.88,-0.7388 2.4097,-1.4334 0.5218,-0.6982 4.9142,-3.3931 5.5219,-4.0026 0.6025,-0.6218 2.3007,-1.43 1.7754,-0.3438 -0.5298,0.3953 0.2064,1.4334 1.9739,-0.2355 0.5863,-0.5246 1.1463,-1.9012 -0.2065,-2.679 z m -6.6567,2.787 c 0.1497,0.7442 -0.5493,1.6195 -0.9134,1.3554 -0.3667,-0.2816 -0.745,-1.4866 -1.0844,-3.0794 -0.1826,-1.4902 1.5823,-1.1145 1.3148,-0.2178 -0.0213,0.2443 -0.359,0.7707 -0.2278,1.1461 0.134,0.3829 0.7547,0.0481 0.9108,0.7957 z m 1.475,0.56 c -0.7876,0.7849 -0.6608,-0.4075 -0.5058,-0.7318 0.1551,-0.3207 0.0913,-0.9942 -0.5094,-1.026 -0.5945,-0.0229 -0.3127,-0.7406 0.1852,-1.6885 0.4873,-0.9533 0.846,-0.0301 0.7547,0.3171 -0.2993,1.1039 -0.0319,1.134 0.8087,1.2402 0.654,0.1188 0.062,1.0988 -0.7334,1.889 z"
           style="fill:#0070a9;fill-rule:evenodd"
           id="path83" />
      </g>
      <g
         id="Layer1008">
        <path
           d="m 349.5985,479.7442 c -0.9185,0.4322 -1.1214,0.0231 -0.0938,-1.3272 1.2536,-1.754 0.4847,-2.4237 -1.0819,-1.4704 -0.7095,0.3348 -0.891,0.4251 -1.7592,1.1428 -0.5521,0.4554 -0.9108,0.5758 -1.9093,1.8374 -1.4892,2.1616 1.4087,1.3145 1.6604,0.434 0.8113,-1.7347 1.6468,0.0355 1.411,0.5688 -0.1175,0.4411 -1.3686,0.9921 -2.2704,2.9146 -0.9,1.9153 1.4671,2.3069 4.145,1.1659 1.2261,-0.5757 1.6366,-2.454 1.2591,-3.0724 -0.3783,-0.6182 -0.6139,-1.3573 0.1337,-1.6779 2.5736,-0.879 0.0612,-1.7896 -1.4946,-0.5156 z m -0.4207,3.6801 c 0,0 -0.0452,0.4695 -0.7786,0.6699 -1.4946,0.2108 -1.2323,-0.6326 -0.0319,-1.6975 1.2047,-1.0685 1.0167,0.6077 0.8105,1.0276 z"
           style="fill:#0070a9;fill-rule:evenodd"
           id="path86" />
      </g>
    </g>
    <g
       id="g1402"
       clip-path="none">
      <path
         d="m 356.724,456.1319 14.1019,18.9444"
         style="fill:#006fa8;fill-rule:evenodd;stroke:#006fa8;stroke-width:0.8929;stroke-linecap:butt;stroke-linejoin:miter;stroke-dasharray:none"
         id="path1382" />
      <path
         d="m 360.2012,453.4105 15.1614,18.0734"
         style="fill:#006fa8;fill-rule:evenodd;stroke:#006fa8;stroke-width:0.8929;stroke-linecap:butt;stroke-linejoin:miter;stroke-dasharray:none"
         id="path1384" />
      <path
         d="m 363.3762,450.3858 16.4249,17.2053"
         style="fill:#006fa8;fill-rule:evenodd;stroke:#006fa8;stroke-width:0.8929;stroke-linecap:butt;stroke-linejoin:miter;stroke-dasharray:none"
         id="path1386" />
      <path
         d="m 366.7781,447.2869 17.3161,16.1361"
         style="fill:#006fa8;fill-rule:evenodd;stroke:#006fa8;stroke-width:0.8929;stroke-linecap:butt;stroke-linejoin:miter;stroke-dasharray:none"
         id="path1388" />
      <path
         d="m 369.8781,444.1118 18.3162,14.901"
         style="fill:#006fa8;fill-rule:evenodd;stroke:#006fa8;stroke-width:0.8929;stroke-linecap:butt;stroke-linejoin:miter;stroke-dasharray:none"
         id="path1390" />
      <path
         d="m 372.9778,440.6336 19.0828,13.7682"
         style="fill:#006fa8;fill-rule:evenodd;stroke:#006fa8;stroke-width:0.8929;stroke-linecap:butt;stroke-linejoin:miter;stroke-dasharray:none"
         id="path1392" />
      <path
         d="m 375.6995,437.1564 19.9597,12.4783"
         style="fill:#006fa8;fill-rule:evenodd;stroke:#006fa8;stroke-width:0.8929;stroke-linecap:butt;stroke-linejoin:miter;stroke-dasharray:none"
         id="path1394" />
      <path
         d="m 378.4963,433.5277 20.4673,11.2298"
         style="fill:#006fa8;fill-rule:evenodd;stroke:#006fa8;stroke-width:0.8929;stroke-linecap:butt;stroke-linejoin:miter;stroke-dasharray:none"
         id="path1396" />
      <path
         d="m 380.5373,429.4454 21.418,10.3733"
         style="fill:#006fa8;fill-rule:evenodd;stroke:#006fa8;stroke-width:0.8929;stroke-linecap:butt;stroke-linejoin:miter;stroke-dasharray:none"
         id="path1398" />
      <path
         d="m 404.6335,434.8672 -21.9796,-9.0505 z"
         style="fill:#006fa8;fill-rule:evenodd;stroke:#006fa8;stroke-width:0.8929;stroke-linecap:butt;stroke-linejoin:miter;stroke-dasharray:none"
         id="path1400" />
    </g>
    <g
       id="Layer1009"
       clip-path="none">
      <path
         d="m 301.7175,291.6297 c -49.9568,0 -90.466,40.4824 -90.466,90.4042 0,49.9658 40.5092,90.4714 90.466,90.4714 49.9727,0 90.4768,-40.5056 90.4768,-90.4714 0,-49.9218 -40.5041,-90.4042 -90.4768,-90.4042 z M 228.509,393.6865 c -9.9719,-9.9631 0.8931,-22.4324 0.8931,-22.4324 l 20.0448,-19.9162 22.3959,22.3959 -5.0479,5.0472 -11.5284,-11.5267 -6.5461,6.5389 c 0,0 -9.2145,8.6545 -1.2032,16.6506 l 11.8012,11.7997 20.0343,-20.0296 10.9668,10.9542 -31.1674,31.1576 z m 83.3583,61.6853 c -9.9459,9.9595 -21.5239,-0.5406 -21.5239,-0.5406 l -25.4746,-26.1058 31.0142,-30.7272 5.1037,5.1045 -20.0297,20.0288 12.6278,12.5889 c 0,0 7.6464,9.2542 15.64,1.2526 l 18.1046,-18.1045 -72.8418,-72.7477 36.4652,-36.4468 c 9.9886,-9.9921 21.5322,0.4668 21.5322,0.4668 l 30.9681,30.8781 -31.7514,31.7511 -4.9893,-4.9885 20.7605,-20.7589 -18.0285,-18.0174 c 0,0 -7.8828,-8.9635 -15.9057,-0.9406 l -18.3676,18.3522 72.8338,72.8114 z m 41.678,-40.9878 -36.4005,-36.3987 5.0461,-5.0453 25.4401,25.4337 2.9298,-2.8845 6.5309,-6.5309 c 6.0428,-6.0418 -2.5852,-14.927 -2.5852,-14.927 l -16.8599,-16.856 10.9421,-10.9375 25.096,25.0765 c 0,0 11.299,11.5711 3.7678,19.0897 z"
         style="fill:#0070a9;fill-rule:evenodd"
         id="path90" />
    </g>
    <g
       id="g1378"
       clip-path="none">
      <path
         d="m 356.724,456.1319 14.1019,18.9444"
         style="fill:#006fa8;fill-rule:evenodd;stroke:#006fa8;stroke-width:0.8929;stroke-linecap:butt;stroke-linejoin:miter;stroke-dasharray:none"
         id="path1358" />
      <path
         d="m 360.2012,453.4105 15.1614,18.0734"
         style="fill:#006fa8;fill-rule:evenodd;stroke:#006fa8;stroke-width:0.8929;stroke-linecap:butt;stroke-linejoin:miter;stroke-dasharray:none"
         id="path1360" />
      <path
         d="m 363.3762,450.3858 16.4249,17.2053"
         style="fill:#006fa8;fill-rule:evenodd;stroke:#006fa8;stroke-width:0.8929;stroke-linecap:butt;stroke-linejoin:miter;stroke-dasharray:none"
         id="path1362" />
      <path
         d="m 366.7781,447.2869 17.3161,16.1361"
         style="fill:#006fa8;fill-rule:evenodd;stroke:#006fa8;stroke-width:0.8929;stroke-linecap:butt;stroke-linejoin:miter;stroke-dasharray:none"
         id="path1364" />
      <path
         d="m 369.8781,444.1118 18.3162,14.901"
         style="fill:#006fa8;fill-rule:evenodd;stroke:#006fa8;stroke-width:0.8929;stroke-linecap:butt;stroke-linejoin:miter;stroke-dasharray:none"
         id="path1366" />
      <path
         d="m 372.9778,440.6336 19.0828,13.7682"
         style="fill:#006fa8;fill-rule:evenodd;stroke:#006fa8;stroke-width:0.8929;stroke-linecap:butt;stroke-linejoin:miter;stroke-dasharray:none"
         id="path1368" />
      <path
         d="m 375.6995,437.1564 19.9597,12.4783"
         style="fill:#006fa8;fill-rule:evenodd;stroke:#006fa8;stroke-width:0.8929;stroke-linecap:butt;stroke-linejoin:miter;stroke-dasharray:none"
         id="path1370" />
      <path
         d="m 378.4963,433.5277 20.4673,11.2298"
         style="fill:#006fa8;fill-rule:evenodd;stroke:#006fa8;stroke-width:0.8929;stroke-linecap:butt;stroke-linejoin:miter;stroke-dasharray:none"
         id="path1372" />
      <path
         d="m 380.5373,429.4454 21.418,10.3733"
         style="fill:#006fa8;fill-rule:evenodd;stroke:#006fa8;stroke-width:0.8929;stroke-linecap:butt;stroke-linejoin:miter;stroke-dasharray:none"
         id="path1374" />
      <path
         d="m 404.6335,434.8672 -21.9796,-9.0505 z"
         style="fill:#006fa8;fill-rule:evenodd;stroke:#006fa8;stroke-width:0.8929;stroke-linecap:butt;stroke-linejoin:miter;stroke-dasharray:none"
         id="path1376" />
    </g>
    <g
       id="Layer1010"
       clip-path="none">
      <path
         d="m 246.2371,456.1319 -14.102,18.9444"
         style="fill:#006fa8;fill-rule:evenodd;stroke:#006fa8;stroke-width:1.4173;stroke-linecap:butt;stroke-linejoin:miter;stroke-dasharray:none"
         id="path93" />
      <path
         d="m 242.7599,453.4105 -15.1615,18.0734"
         style="fill:#006fa8;fill-rule:evenodd;stroke:#006fa8;stroke-width:1.4173;stroke-linecap:butt;stroke-linejoin:miter;stroke-dasharray:none"
         id="path95" />
      <path
         d="M 239.5848,450.3858 223.16,467.5911"
         style="fill:#006fa8;fill-rule:evenodd;stroke:#006fa8;stroke-width:1.4173;stroke-linecap:butt;stroke-linejoin:miter;stroke-dasharray:none"
         id="path97" />
      <path
         d="M 236.1829,447.2869 218.8668,463.423"
         style="fill:#006fa8;fill-rule:evenodd;stroke:#006fa8;stroke-width:1.4173;stroke-linecap:butt;stroke-linejoin:miter;stroke-dasharray:none"
         id="path99" />
      <path
         d="m 233.083,444.1118 -18.3162,14.901"
         style="fill:#006fa8;fill-rule:evenodd;stroke:#006fa8;stroke-width:1.4173;stroke-linecap:butt;stroke-linejoin:miter;stroke-dasharray:none"
         id="path101" />
      <path
         d="m 229.9832,440.6336 -19.0825,13.7682"
         style="fill:#006fa8;fill-rule:evenodd;stroke:#006fa8;stroke-width:1.4173;stroke-linecap:butt;stroke-linejoin:miter;stroke-dasharray:none"
         id="path103" />
      <path
         d="m 227.2618,437.1564 -19.9597,12.4783"
         style="fill:#006fa8;fill-rule:evenodd;stroke:#006fa8;stroke-width:1.4173;stroke-linecap:butt;stroke-linejoin:miter;stroke-dasharray:none"
         id="path105" />
      <path
         d="m 224.4648,433.5277 -20.4673,11.2298"
         style="fill:#006fa8;fill-rule:evenodd;stroke:#006fa8;stroke-width:1.4173;stroke-linecap:butt;stroke-linejoin:miter;stroke-dasharray:none"
         id="path107" />
      <path
         d="m 222.4237,429.4454 -21.4179,10.3733"
         style="fill:#006fa8;fill-rule:evenodd;stroke:#006fa8;stroke-width:1.4173;stroke-linecap:butt;stroke-linejoin:miter;stroke-dasharray:none"
         id="path109" />
      <path
         d="m 198.3278,434.8672 21.9793,-9.0505 z"
         style="fill:#006fa8;fill-rule:evenodd;stroke:#006fa8;stroke-width:1.4173;stroke-linecap:butt;stroke-linejoin:miter;stroke-dasharray:none"
         id="path111" />
    </g>
    <g
       id="g1354"
       clip-path="none">
      <path
         d="m 356.724,456.1319 14.1019,18.9444"
         style="fill:#006fa8;fill-rule:evenodd;stroke:#006fa8;stroke-width:0.8929;stroke-linecap:butt;stroke-linejoin:miter;stroke-dasharray:none"
         id="path1334" />
      <path
         d="m 360.2012,453.4105 15.1614,18.0734"
         style="fill:#006fa8;fill-rule:evenodd;stroke:#006fa8;stroke-width:0.8929;stroke-linecap:butt;stroke-linejoin:miter;stroke-dasharray:none"
         id="path1336" />
      <path
         d="m 363.3762,450.3858 16.4249,17.2053"
         style="fill:#006fa8;fill-rule:evenodd;stroke:#006fa8;stroke-width:0.8929;stroke-linecap:butt;stroke-linejoin:miter;stroke-dasharray:none"
         id="path1338" />
      <path
         d="m 366.7781,447.2869 17.3161,16.1361"
         style="fill:#006fa8;fill-rule:evenodd;stroke:#006fa8;stroke-width:0.8929;stroke-linecap:butt;stroke-linejoin:miter;stroke-dasharray:none"
         id="path1340" />
      <path
         d="m 369.8781,444.1118 18.3162,14.901"
         style="fill:#006fa8;fill-rule:evenodd;stroke:#006fa8;stroke-width:0.8929;stroke-linecap:butt;stroke-linejoin:miter;stroke-dasharray:none"
         id="path1342" />
      <path
         d="m 372.9778,440.6336 19.0828,13.7682"
         style="fill:#006fa8;fill-rule:evenodd;stroke:#006fa8;stroke-width:0.8929;stroke-linecap:butt;stroke-linejoin:miter;stroke-dasharray:none"
         id="path1344" />
      <path
         d="m 375.6995,437.1564 19.9597,12.4783"
         style="fill:#006fa8;fill-rule:evenodd;stroke:#006fa8;stroke-width:0.8929;stroke-linecap:butt;stroke-linejoin:miter;stroke-dasharray:none"
         id="path1346" />
      <path
         d="m 378.4963,433.5277 20.4673,11.2298"
         style="fill:#006fa8;fill-rule:evenodd;stroke:#006fa8;stroke-width:0.8929;stroke-linecap:butt;stroke-linejoin:miter;stroke-dasharray:none"
         id="path1348" />
      <path
         d="m 380.5373,429.4454 21.418,10.3733"
         style="fill:#006fa8;fill-rule:evenodd;stroke:#006fa8;stroke-width:0.8929;stroke-linecap:butt;stroke-linejoin:miter;stroke-dasharray:none"
         id="path1350" />
      <path
         d="m 404.6335,434.8672 -21.9796,-9.0505 z"
         style="fill:#006fa8;fill-rule:evenodd;stroke:#006fa8;stroke-width:0.8929;stroke-linecap:butt;stroke-linejoin:miter;stroke-dasharray:none"
         id="path1352" />
    </g>
  </g>
</svg>
