<?xml version="1.0" encoding="UTF-8"?><svg xmlns="http://www.w3.org/2000/svg" width="200" height="200" viewBox="0 0 200.06 200.04" shape-rendering="geometricPrecision" text-rendering="geometricPrecision" image-rendering="optimizeQuality" fill-rule="evenodd" clip-rule="evenodd"><defs><style>.fil0{fill:#118ccf}.fil1{fill:#b8bdc1}.fil2{fill:#fff}</style></defs><g id="图层_x0020_1"><g id="_1304161504"><path class="fil0" d="M150.46 102.95l-46.93 6.01c.31 10.81-.12 22.05-.12 32.84 0 8.52.54 7.5-3.61 7.49-4.25-.01-3.61.48-3.61-7.35 0-3.3.27-7.92-.03-11.06-.3-3.14-.1-17.73-.1-22.04l-46.53-6.1c-.46 1.52.82 8.77 1.32 10.8.79 3.2 1.86 6.19 3.23 9.19 8.06 17.61 26.27 29.08 45.59 29.2 13.74.09 25.44-5.25 35.44-14.37 4.27-3.89 7.86-9.41 10.44-14.54 3.28-6.54 4.36-12.86 4.91-20.07zM49.44 99.58l46.46-6.04c.34-5.95-.11-12.25-.1-18.25 0-1.92-1.4-2.61-3.06-3.09-4.55-1.33-12.27-1.05-17.39-1.05-1.79 0-4.39.22-6.02.11l-.49-7.28c13.08-2.05 23.94-3.84 37.39-2.86 5.74.41 11.7 1.31 17.17 3.13 2.04.69 13.25 5.05 13.35 6.99-.6 1.15-4.75.51-5.99.35-4.28-.55-16.64-.48-20.43.08-7.69 1.14-6.66 2.79-6.66 7.5 0 2-.21 13.21.12 14.2l46.65 6.02c-.77-7.45-1.66-12.87-5.03-19.61-2.55-5.11-6.15-10.44-10.37-14.33-10.05-9.24-21.5-14.06-35.25-14.07-19.16-.01-37.18 11.44-45.33 28.54-3.33 6.99-4.28 12.02-5.02 19.66zM67.95 29.84c-.38.41 6.18 2.99 6.68 3.16 13.4 4.64 29.39 5.61 43.19 2.34 3.45-.82 11.72-3.25 14.19-5.62-10.2-4.54-20.9-6.91-32.08-6.91-5.86 0-11.76.66-17.47 2.04-4.23 1.01-10.74 2.91-14.51 4.99zM95.42 171.34c1.48-.51 1.6.11 1.86.24.62.3 1.41-.08 1.44-.8-1.08.08-4.19.35-3.47-1.73.48-1.39 3.1-1.38 4.19-.83 1.42.71 1.43 3.04.14 3.81-1.06.63-4.13.8-4.16-.69zm3.43-.55c.02-.01-.04-.06-.04-.04 0 .01-.01-.02-.01-.02 0 .01-.13.24.05.06zm-9.2-.95c.01-1.25.06-.73 1.28-1.24 1.36-.57-.01-.75 2.32-.74v4.52h-1.73v-3.06c-.52.28-1.21.53-1.87.52zm12.67-1.85l4.02-.01.01.94c-2.12-.04-2.79-.29-2.94.53 2.17-.46 4.69 1.14 2.75 2.48-1.17.8-4.32.91-4.75-.61.25-.15.7-.29 1.07-.27 1.21.06.49 1.19 2.54.29 0-.98-.26-1.41-1.4-1.16-1.81.39.1.25-2.09.18l.79-2.37zm5.1 1.33c.15-1.79 3.54-1.7 4.61-1.01 2 1.3-1.39 2.59-2.1 3.14l2.69.02.01.91-5.46-.02c.86-1.99 3.6-1.98 3.72-3.31-.91-.85-1.65-.04-2 .36l-1.47-.09zm24.75.77c-13.53-7.66-34.61-8.51-49.94-5.11-3.55.78-11.63 3.02-14.35 5.26 11.4 4.63 19.68 6.96 32.19 6.96 6.29 0 11.52-.62 17.65-2 1.2-.26 14.87-4.27 14.45-5.11zM155.41 70.77c.37 1.74 1.82 4.48 2.35 6.42.64 2.35 1.4 4.46 1.93 6.88 1.14 5.18 1.97 10.33 2.12 15.63l15.47.03c.38-10.32-3.58-27.15-9.03-35.88l-12.84 6.92zM155.13 132.04l11.84 6.57c1.51-2.22 2.68-5.27 3.87-7.67 2.98-6.05 5.34-15.95 6.04-22.8.14-1.32.5-4.26.4-5.44l-15.46-.03c-.69 12.86-2.02 17.67-6.69 29.37zM22.85 99.7l14.97.03c-.26-4.35.97-11.56 2.03-15.84 1.14-4.59 2.63-9.08 4.47-13.41l-12.41-6.64c-1.91 2.26-5.58 12.8-6.4 15.99-1.62 6.34-2.84 13.34-2.66 19.87zM33.12 138.58c1.32-.08 9.54-5.44 11.76-6.27-2.98-5.94-5.51-14.47-6.41-21.09-.34-2.48-.82-6.05-.65-8.52l-14.97-.03c-.15 2.34.62 7.97 1.07 10.4.59 3.12 1.23 6.39 2.23 9.39 2.1 6.25 3.89 10.33 6.97 16.12zM130.36 34.23c-.03.29 3.01 3 3.59 3.72 1.03 1.29 2.31 2.53 3.38 3.83 2.17 2.65 4.38 5.28 6.32 8.11 2.99 4.36 5.88 8.66 8.22 13.43.4.82 2.08 4.44 2.45 4.89 1.85-.44 10.29-5.67 12.54-6.96-2.38-3.77-4.43-6.59-7.06-10.13-2.46-3.31-5.61-5.98-8.52-8.85-2.6-2.58-6.8-5.44-9.91-7.46-1.67-1.09-3.71-2.31-5.49-3.21-.98-.5-1.81.5-2.71 1.06-.83.51-2.13 1.06-2.81 1.57zM33.3 61.16c1.22 1 10.86 6.24 12.28 6.67 1.25-4.11 8.04-14.31 10.74-18.1 2.04-2.85 4.23-5.33 6.4-8.02 1.62-2.01 6.72-6.97 7-7.42l-5.22-2.77c-7.03 4.04-11.75 7.01-17.71 12.69-2.75 2.63-4.88 5.01-7.3 7.93-2.43 2.95-4.04 6.09-6.19 9.02zM34.76 141.29c2.39 3.14 4.24 6.4 7.02 9.36 2.82 3 5.09 5.46 8.25 8.17 3.07 2.63 6.11 4.75 9.51 6.92.69.44 4.65 2.91 5.15 2.78.63-.17 3.8-2.44 5.31-2.94-4.79-4.83-8.77-8.87-13.09-14.16-1.92-2.35-4.16-5.32-5.73-7.89-.86-1.42-1.78-2.76-2.62-4.2-.53-.93-1.98-3.86-2.48-4.45-1.68 1.13-10.44 5.43-11.32 6.41zM130.75 165.65l-.02.11c.02.03 4.95 2.72 5.19 2.66.63-.15 4.33-2.49 5.16-2.98 3.27-1.95 6.37-4.44 9.3-6.87 4.25-3.52 12.69-12.58 15.01-17.43-.75-.71-10.23-5.93-11.44-6.35-.54.68-1.81 3.33-2.34 4.3-2.44 4.45-5.06 8.17-8.06 12.26-2.9 3.95-9.09 11.26-12.8 14.3zM119.71 38.03c.79 1.18 2.4 2.75 3.37 3.97 4.25 5.4 8.39 12.05 11.46 18.2 1.31 2.62 1.34 2.19 3.29 4.19 4.3 4.4 3.97 5.01 6.69 8.18l6.98-2.92c-.83-3.01-4.16-8.22-5.78-11.14-4.05-7.27-11.01-15.62-16.96-21.51-1.23-1.22-.94-1.57-2.55-1.02-1.61.56-5.31 1.46-6.5 2.05zM48.36 69.29l7.21 3.27c1.27-2.32 4.76-6.42 6.63-8.26 2.1-2.07 1.72-1.62 3.08-4.27 3.34-6.51 6.9-12.45 11.48-18.19.58-.74 3.13-3.54 3.36-4.05-7.46-1.92-6.6-3.02-8.89-.67-6.68 6.87-11.89 12.82-16.97 21.11-1.35 2.21-5.4 8.87-5.9 11.06zM119.18 161.97c2.9.74 5.57 1.5 8.41 2.53 1.26-.89 5.63-5.51 6.77-6.85 4.54-5.35 8.04-9.24 11.84-15.42 1.14-1.87 4.36-6.96 4.87-8.82l-6.63-2.84c-6.32 8.36-5.8 7.82-13.99 14.36-.44.34-4.2 7.61-5.17 8.98-.98 1.38-1.88 2.84-2.94 4.15-.98 1.23-2.28 2.7-3.16 3.91zM49.07 133.54c.28 1.29 3.98 7.23 4.92 8.64 3.24 4.86 8.04 11.1 12.19 15.2 1.7 1.68 5.08 5.55 6.89 6.85l7.69-2.24c-5.26-6.28-6.13-7.42-10.12-14.28-.46-.79-.94-1.98-1.45-2.69-.25-.35-6.83-5.06-10.6-9.98-.58-.76-1.17-1.49-1.75-2.26-.63-.85-1.02-2.15-2.02-1.76-1.38.55-4.61 1.8-5.75 2.52z"/><path class="fil0" d="M69.63 58.13c2.03-1.14 3.78-2.47 5.98-3.54 2.29-1.1 4.28-2.08 6.69-2.92 4.89-1.71 11.16-3.05 16.33-2.95l-.04-8.53c-6.87-.45-8.14-.5-14.97-1.6l-3.97 4.42c-1.24 1.61-2.47 3.11-3.64 4.76-1.02 1.46-6.16 9.17-6.38 10.36zM101.53 40.19v8.53c10.1-.17 19.72 3.69 28.16 8.9-.2-1.06-5.17-8.66-6.13-9.95-1.16-1.57-2.27-3.08-3.51-4.64-1.07-1.33-2.95-3.06-3.8-4.32-4.82 1.04-9.62 1.19-14.72 1.48zM40.88 99.73h5.86c.3-6.6 1.79-13.34 4.51-19.41.84-1.88 1.89-3.54 2.71-5.3L47.14 72c-1.03 1.1-3.71 10.61-4.24 12.67-1.01 3.86-2.14 11.11-2.02 15.06zM47.69 130.82l6.18-2.58c-2.04-3.94-3.76-7.19-4.97-11.42-1.49-5.2-1.82-8.79-2.16-14.14l-5.86-.01c.02 4.74.99 10.69 2.15 15.34.81 3.23 3 10.03 4.66 12.81zM146.04 128.05l6.35 2.66c3.79-8.28 6.27-19.04 6.34-28.02l-5.6-.02c-.26 5.14-.71 9.04-2.19 14-1.33 4.49-2.94 7.28-4.9 11.38zM146.06 75.06c.57 1.49 1.92 3.51 2.62 5.2 2.81 6.79 4.12 11.91 4.45 19.47h5.6c-.04-8.24-2.7-19.87-6.05-27.48l-6.62 2.81zM98.63 159.98l-.04-5.09c-.14-.34-.24-.27-.84-.36-.41-.05-.74-.04-1.16-.04-3.46 0-8.8-1.11-12.15-2.14-3.91-1.2-6.56-2.52-10.13-4.23 2.31 4.35 5.84 8.85 9.29 12.42.68.71.49.82 1.49.64 4.15-.73 9.37-1.29 13.54-1.2zM101.62 154.58l-.09 5.41c3.37-.16 9.44.45 12.95 1.07 1.52.27 1.8-.49 2.85-1.6 2.52-2.65 6.1-7.82 7.73-11.11-1.17.33-3.69 1.72-5.06 2.29-3.96 1.63-7.38 2.51-11.57 3.26-1.48.27-6.8.68-6.81.68zM98.35 170.13l.4-.54c-.42-1.71-2.71-.59-1.75.38.27.27.97.15 1.35.16z"/><g><path class="fil1" d="M132.17 170.09c.42.84-13.25 4.85-14.45 5.11-6.13 1.38-11.36 2-17.65 2-12.51 0-20.79-2.33-32.19-6.96 2.72-2.24 10.8-4.48 14.35-5.26 15.33-3.4 36.41-2.55 49.94 5.11zm-30.55-15.51c.01 0 5.33-.41 6.81-.68 4.19-.75 7.61-1.63 11.57-3.26 1.37-.57 3.89-1.96 5.06-2.29-1.63 3.29-5.21 8.46-7.73 11.11-1.05 1.11-1.33 1.87-2.85 1.6-3.51-.62-9.58-1.23-12.95-1.07l.09-5.41zm-3.03.31l.04 5.09c-4.17-.09-9.39.47-13.54 1.2-1 .18-.81.07-1.49-.64-3.45-3.57-6.98-8.07-9.29-12.42 3.57 1.71 6.22 3.03 10.13 4.23 3.35 1.03 8.69 2.14 12.15 2.14.42 0 .75-.01 1.16.04.6.09.7.02.84.36zm32.16 10.76c3.71-3.04 9.9-10.35 12.8-14.3 3-4.09 5.62-7.81 8.06-12.26.53-.97 1.8-3.62 2.34-4.3 1.21.42 10.69 5.64 11.44 6.35-2.32 4.85-10.76 13.91-15.01 17.43-2.93 2.43-6.03 4.92-9.3 6.87-.83.49-4.53 2.83-5.16 2.98-.24.06-5.17-2.63-5.19-2.66l.02-.11zm-95.99-24.36c.88-.98 9.64-5.28 11.32-6.41.5.59 1.95 3.52 2.48 4.45.84 1.44 1.76 2.78 2.62 4.2 1.57 2.57 3.81 5.54 5.73 7.89 4.32 5.29 8.3 9.33 13.09 14.16-1.51.5-4.68 2.77-5.31 2.94-.5.13-4.46-2.34-5.15-2.78-3.4-2.17-6.44-4.29-9.51-6.92-3.16-2.71-5.43-5.17-8.25-8.17-2.78-2.96-4.63-6.22-7.02-9.36zm14.31-7.75c1.14-.72 4.37-1.97 5.75-2.52 1-.39 1.39.91 2.02 1.76.58.77 1.17 1.5 1.75 2.26 3.77 4.92 10.35 9.63 10.6 9.98.51.71.99 1.9 1.45 2.69 3.99 6.86 4.86 8 10.12 14.28l-7.69 2.24c-1.81-1.3-5.19-5.17-6.89-6.85-4.15-4.1-8.95-10.34-12.19-15.2-.94-1.41-4.64-7.35-4.92-8.64zm70.11 28.43c.88-1.21 2.18-2.68 3.16-3.91 1.06-1.31 1.96-2.77 2.94-4.15.97-1.37 4.73-8.64 5.17-8.98 8.19-6.54 7.67-6 13.99-14.36l6.63 2.84c-.51 1.86-3.73 6.95-4.87 8.82-3.8 6.18-7.3 10.07-11.84 15.42-1.14 1.34-5.51 5.96-6.77 6.85-2.84-1.03-5.51-1.79-8.41-2.53zm31.28-59.02c-.55 7.21-1.63 13.53-4.91 20.07-2.58 5.13-6.17 10.65-10.44 14.54-10 9.12-21.7 14.46-35.44 14.37-19.32-.12-37.53-11.59-45.59-29.2-1.37-3-2.44-5.99-3.23-9.19-.5-2.03-1.78-9.28-1.32-10.8l46.53 6.1c0 4.31-.2 18.9.1 22.04.3 3.14.03 7.76.03 11.06 0 7.83-.64 7.34 3.61 7.35 4.15.01 3.61 1.03 3.61-7.49 0-10.79.43-22.03.12-32.84l46.93-6.01zm-4.42 25.1c1.96-4.1 3.57-6.89 4.9-11.38 1.48-4.96 1.93-8.86 2.19-14l5.6.02c-.07 8.98-2.55 19.74-6.34 28.02l-6.35-2.66zM38.47 111.22c.9 6.62 3.43 15.15 6.41 21.09-2.22.83-10.44 6.19-11.76 6.27-3.08-5.79-4.87-9.87-6.97-16.12-1-3-1.64-6.27-2.23-9.39-.45-2.43-1.22-8.06-1.07-10.4l14.97.03c-.17 2.47.31 6.04.65 8.52zm116.66 20.82c4.67-11.7 6-16.51 6.69-29.37l15.46.03c.1 1.18-.26 4.12-.4 5.44-.7 6.85-3.06 16.75-6.04 22.8-1.19 2.4-2.36 5.45-3.87 7.67l-11.84-6.57zM48.9 116.82c1.21 4.23 2.93 7.48 4.97 11.42l-6.18 2.58c-1.66-2.78-3.85-9.58-4.66-12.81-1.16-4.65-2.13-10.6-2.15-15.34l5.86.01c.34 5.35.67 8.94 2.16 14.14zm7.22-15.48h39.76l.17 5.23-39.93-5.23zm47.56-5.32l40.62 5.3-40.63-.12.01-5.18zm49-23.77c3.35 7.61 6.01 19.24 6.05 27.48h-5.6c-.33-7.56-1.64-12.68-4.45-19.47-.7-1.69-2.05-3.71-2.62-5.2l6.62-2.81zM40.88 99.73c-.12-3.95 1.01-11.2 2.02-15.06.53-2.06 3.21-11.57 4.24-12.67l6.82 3.02c-.82 1.76-1.87 3.42-2.71 5.3-2.72 6.07-4.21 12.81-4.51 19.41h-5.86zm127.37-35.88c5.45 8.73 9.41 25.56 9.03 35.88l-15.47-.03c-.15-5.3-.98-10.45-2.12-15.63-.53-2.42-1.29-4.53-1.93-6.88-.53-1.94-1.98-4.68-2.35-6.42l12.84-6.92zM22.85 99.7c-.18-6.53 1.04-13.53 2.66-19.87.82-3.19 4.49-13.73 6.4-15.99l12.41 6.64a89.384 89.384 0 0 0-4.47 13.41c-1.06 4.28-2.29 11.49-2.03 15.84l-14.97-.03zm26.59-.12c.74-7.64 1.69-12.67 5.02-19.66 8.15-17.1 26.17-28.55 45.33-28.54 13.75.01 25.2 4.83 35.25 14.07 4.22 3.89 7.82 9.22 10.37 14.33 3.37 6.74 4.26 12.16 5.03 19.61l-46.65-6.02c-.33-.99-.12-12.2-.12-14.2 0-4.71-1.03-6.36 6.66-7.5 3.79-.56 16.15-.63 20.43-.08 1.24.16 5.39.8 5.99-.35-.1-1.94-11.31-6.3-13.35-6.99-5.47-1.82-11.43-2.72-17.17-3.13-13.45-.98-24.31.81-37.39 2.86l.49 7.28c1.63.11 4.23-.11 6.02-.11 5.12 0 12.84-.28 17.39 1.05 1.66.48 3.06 1.17 3.06 3.09-.01 6 .44 12.3.1 18.25l-46.46 6.04zm52.09-59.39c5.1-.29 9.9-.44 14.72-1.48.85 1.26 2.73 2.99 3.8 4.32 1.24 1.56 2.35 3.07 3.51 4.64.96 1.29 5.93 8.89 6.13 9.95-8.44-5.21-18.06-9.07-28.16-8.9v-8.53zm-31.9 17.94c.22-1.19 5.36-8.9 6.38-10.36 1.17-1.65 2.4-3.15 3.64-4.76l3.97-4.42c6.83 1.1 8.1 1.15 14.97 1.6l.04 8.53c-5.17-.1-11.44 1.24-16.33 2.95-2.41.84-4.4 1.82-6.69 2.92-2.2 1.07-3.95 2.4-5.98 3.54zm50.08-20.1c1.19-.59 4.89-1.49 6.5-2.05 1.61-.55 1.32-.2 2.55 1.02 5.95 5.89 12.91 14.24 16.96 21.51 1.62 2.92 4.95 8.13 5.78 11.14l-6.98 2.92c-2.72-3.17-2.39-3.78-6.69-8.18-1.95-2-1.98-1.57-3.29-4.19-3.07-6.15-7.21-12.8-11.46-18.2-.97-1.22-2.58-2.79-3.37-3.97zM48.36 69.29c.5-2.19 4.55-8.85 5.9-11.06 5.08-8.29 10.29-14.24 16.97-21.11 2.29-2.35 1.43-1.25 8.89.67-.23.51-2.78 3.31-3.36 4.05-4.58 5.74-8.14 11.68-11.48 18.19-1.36 2.65-.98 2.2-3.08 4.27-1.87 1.84-5.36 5.94-6.63 8.26l-7.21-3.27zM33.3 61.16c2.15-2.93 3.76-6.07 6.19-9.02 2.42-2.92 4.55-5.3 7.3-7.93 5.96-5.68 10.68-8.65 17.71-12.69l5.22 2.77c-.28.45-5.38 5.41-7 7.42-2.17 2.69-4.36 5.17-6.4 8.02-2.7 3.79-9.49 13.99-10.74 18.1-1.42-.43-11.06-5.67-12.28-6.67zm97.06-26.93c.68-.51 1.98-1.06 2.81-1.57.9-.56 1.73-1.56 2.71-1.06 1.78.9 3.82 2.12 5.49 3.21 3.11 2.02 7.31 4.88 9.91 7.46 2.91 2.87 6.06 5.54 8.52 8.85 2.63 3.54 4.68 6.36 7.06 10.13-2.25 1.29-10.69 6.52-12.54 6.96-.37-.45-2.05-4.07-2.45-4.89-2.34-4.77-5.23-9.07-8.22-13.43-1.94-2.83-4.15-5.46-6.32-8.11-1.07-1.3-2.35-2.54-3.38-3.83-.58-.72-3.62-3.43-3.59-3.72zm-62.41-4.39c3.77-2.08 10.28-3.98 14.51-4.99 5.71-1.38 11.61-2.04 17.47-2.04 11.18 0 21.88 2.37 32.08 6.91-2.47 2.37-10.74 4.8-14.19 5.62-13.8 3.27-29.79 2.3-43.19-2.34-.5-.17-7.06-2.75-6.68-3.16zm29.7-9.72c-44.29 1.34-78.91 38.05-77.59 82.36 1.33 44.24 38.27 78.84 82.5 77.51 44.24-1.33 78.84-38.26 77.5-82.46-1.34-44.19-38.2-78.75-82.41-77.41z"/><path class="fil1" d="M2.93 99.87C3 45.77 47.12 2.9 101.02 3c52.85.1 96.15 44.48 96.17 96.61.03 53.43-43.35 97.46-96.73 97.5-53.88.05-97.59-43.71-97.53-97.24zm197.09 3.07C201.68 47.79 158.18 1.72 103.05.05 47.94-1.63 1.7 41.97.05 97.01c-1.66 55.09 41.87 101.38 97 102.99 55.34 1.62 101.3-41.81 102.97-97.06z"/><path class="fil1" d="M44.9 25.22c1.89-1.6 5.43-3.52 7.67-4.88 2.49-1.5 5.29-3.13 7.93-4.47l3.93 7.39-14.63 8.92-4.9-6.96zm-5.36.66c.13.54 7.41 10.04 8.15 10.81l21.48-13.4c-.01-.43-5.4-11-5.85-11.57-2.68.84-21.37 12.07-23.78 14.16zM102.99 16.66l.17 1.07c1.13-.33 1.93-.15 3.17-.69.76-.33 1.81-1 2.01-1.85.45-1.87.64-5.02.68-7.08l8.16 1.22-.16 1.06-7.33-1.2v1.33l7.21 1.1-.26 1.04-6.54-.86-.36 3.24c.57.24 3.2.5 3.56.29l.18-1.35c.68-.35 1.87.13 2.63.15-1.64 2.25-4.04 2.97-6.68 3.35-1.48.2-1.85-.19-1.89 1.47 3.32-.14 4.53.73 8.2-.64.66-.25 1.63-.84 2.13-.98.83 2.12 7.27 4.84 9.86 4.94l.25-1.47c-1.41-.63-6.8-.71-8.01-6l3.73.57-.34 2.37c4.81.74 3.8 1.08 4.17-1.13.09-.54.3-1.43.33-1.95l-7.76-1.44.01-.98 9.33 1.65.33-1.23-9.37-1.78.13-1.03 9.87 2.09.3-1.54c-1.74-.22-4.18-.99-6.01-1.38-2.04-.43-4.06-.85-6.13-1.23-1.94-.35-11.39-1.94-12.74-1.93-.03 2-.3 4.36-.51 6.29-.33 3.13.5 3.31-2.32 4.51zM27.4 45.75l2.72 2.23-3.59 4.41-2.87-2.17 3.74-4.47zm7.33-8.93l2.68 2.3-4.54 5.18-2.61-2.1 4.47-5.38zm-6.17 4.02l-1.84-1.47-3 3.45 1.91 1.51-6.87 8.47 6.33 5.02 6.83-8.41 2.24 1.74 2.96-3.39-2.33-1.93c.81-.52 7.08-7.88 7.28-8.6-.27-.52-5.15-4.81-5.74-5.07l-7.77 8.68zM88.07 5.62l.36 4.21-2.54.37-.11-1.57-4.14.47.14 1.69-.95.19.27 1.54.94.14.63 6.56c1.51-.09 17.08-1.58 17.12-1.61l-.12-3.06-4.53.41.14 1.27c-1.28.12-7.99 1.07-8.59.7l-.55-4.91 2.44-.46.3 2.82 4.09-.3-.25-3.14 2.51-.43.14 1.1-.92.22.23 1.77 4.86-.3-.42-5.19c-1.04.12-6.08 1.22-6.54.94l-.3-3.6-4.21.17zM134.77 17.62l9.16 4.87c-1.34 1-10.06.62-12.46.58-.01.95.22.85 1.15 1.12 3.73 1.04 5.73 1.68 9.8 1.68 2.6 0 2.03-.43 3.24 1.45 1.42 2.2 6.38 8.79 8.52 9.91l1.51-1.29c-.23-.33-1.79-1.82-2.15-2.2-1.82-1.87-4.08-5.75-4.71-8.27l7.85 5.66 1.26-1.36-8.54-6.03 1.83-2.79-3.85-2.44-2.15 2.56-9.5-5.06-.96 1.61z"/><path class="fil1" d="M58.1 23.21l1.32-.86c.13.47.19.57.12 1.06l-.89.61-.55-.81zm2.71-4.82l-.86-1.53-13.79 8.53 1 1.3 4.37-2.53.35.72-4.21 2.61.96 1.48 4.44-2.72.53.88-4.35 2.68.99 1.29 13.13-8.07-.87-1.32-1.7.98-.15-1.08 1.43-.92-.91-1.49-3.91 2.31-.47-.7 4.02-2.42zM158.55 37.7l7.27 8.2c-1.49.39-.99.44-2.72-1.42-.53-.57-1.7-2.1-2.24-2.44l-1.22.9 6.4 7.68c1.18 1.14 1.99-.03 3.11-.56l5.68 7.26 1.26-.74-4.83-6.1c-.24-.3-1.03-.89-.53-1.24.38-.26 1.23.23 1.77.27.62.05 1.41-.12 1.99-.27l-8.7-11.06-1.34.88 4.75 5.74-2.2.35-7.24-8.14-1.21.69z"/><path class="fil1" d="M161.36 34.11c.41.57 2.73 2.93 3.25 3.12l.93-.91 11.34 13.89-.91.65 2.37 4.16 2.81-1.93-1.69-2.5.94-.91-2.86-4.19-1.17 1.34-2.1-2.41c.26-1.88.57-2.27-.74-3.69-.49-.53-1.96-2.41-2.38-2.68l-.42 1.85-1.34-1.45c.22-1.92.54-1.88-.81-3.19-.56-.55-1.67-1.8-2.25-2.18l-.26 1.61-2.39-2.55-2.32 1.97zM72.15 9.09l.72 3.29-2.61.61.4 1.54 2.54-.55 1.23 5.9-1.89.37.35 1.49 8.32-1.67-.28-1.51-2.11.4-1.24-5.9 1.92-.47-.28-1.39-2.01.28-.51-3.08zM6.13 104.74l.1 1.67 8.85-.97-8.27 6.61.19 1.71c.6.34 9.77-.97 11.29-1.07l-.06-1.47c-.59-.31-7.48.76-8.76.8l8.11-6.45-.13-1.96-11.32 1.13zM182.38 109.94l8.56 1.21-9.39 4.31-.26 2.05 11.35 1.52.16-1.53-8.82-1.34c.45-.42 6.73-3.05 8.24-3.79 1.69-.83 1.41-.29 1.65-2.49l-11.33-1.58-.16 1.64zM20.97 151.29l.93 1.31 7.18-5.38-3.76 10.04 1.1 1.4 9.15-6.9-.94-1.3-7.09 5.31 3.73-9.81-1.2-1.65zM57.04 172.25c1.38 1.18 5.49 2.03 3.97 4.51-1.21 1.98-3.26.25-5.85-1.18l1.88-3.33zm-6.42 8.02l1.44.86 2.37-4.22c.69.18 3.68 1.93 4.05 2.46.78 1.09-.96 3.27-1.31 4.64 3.05 1.55 1.37.82 2-.53.91-1.97 1.84-2.74.94-4.4 1.29-.09 2.21-.8 2.72-1.97.62-1.45.16-2.45-.81-3.42-.54-.53-5.29-3.3-5.91-3.42l-5.49 10zM153.25 176.53l.9.83.99-.53-3.17-5.28-4.31 2.6.72 1.32 2.88-1.84c2.61 2.73-2.11 8.44-6 3.67-2.16-2.65-1.94-6.15 1.28-7.07 1.67-.48 1.76.18 2.98.68l1.34-.76c-2.83-3.77-10.71-.34-8.09 6.3 2.52 6.39 9.43 4.64 10.48.08zM164.22 155.15c2.07-.62 4.48 1.22 5.37 3.04 1.07 2.21-.28 4.81-2.62 5.37-3.95.94-9-6.52-2.75-8.41zm-.28-1.6c-3.05.9-5.14 4.14-3.94 7.28 1.06 2.76 4.24 4.95 7.22 4.29 3.04-.68 5-4.22 4.01-7.24-.89-2.72-4.4-5.17-7.29-4.33zM112.48 187.48c-1-5.55 6.71-7.4 7.73-.9.87 5.51-6.55 7.43-7.73.9zm3.49-6.4c-1.99.39-2.42.09-3.97 1.77-1.06 1.16-1.32 2.97-1.24 4.5.19 3.53 2.46 5.71 6.01 5.6 7.77-.22 5.96-13.19-.8-11.87zM41.26 173.3c.22.54 5.78 4.67 6.69 5.22l.94-1.16-5.31-4.04c.07-.42 1.69-2.62 2.1-2.95.96.68 4.18 3.41 4.94 3.62l.87-1.16-4.91-3.72 1.93-2.58 5.3 3.88.87-1.05-6.58-5.14-6.84 9.08zM191.99 85.49l.81 6.74-3.59.46-.74-6.18-1.56.18.83 6.24-3.36.37-.83-6.66-1.45.18 1.07 8.38 11.37-1.46-1.09-8.42zM64.12 182.94l-1.6-.71c-.12 1.58-.76 2.35.41 3.91 1.23 1.65 5.36 3.05 7.09 1.49.89-.8 1.34-2.57.87-3.71-.85-2.04-5.17-3.14-4.62-4.97.84-2.73 5.93-.47 4.65 2.25l1.46.6c1.48-2.68-1.23-5.05-3.62-5.5-3.16-.6-5.5 2.42-3.64 4.85 1.03 1.34 5.78 3.02 3.92 5.24-1.19 1.42-6.26-.05-4.92-3.45zM173.02 153.7l-.92 1.43c2.87 1.74 4.87.13 6.22-2.42 1.47-2.78.35-6.03-3.01-5.55-2.29.33-4.02 4.8-5.93 3.64-1.32-.81-.88-2.23-.13-3.28 1.16-1.61 1.88-1.29 3.36-.93l.74-1.28c-2.35-2.08-5.17.54-6.01 2.69-1.18 3.02 1.57 5.96 4.3 4.3 1.47-.9 4.15-5.31 5.74-2.69.99 1.63-1.68 6.08-4.36 4.09zM178.49 127l10.94 3.15 2.39-8.22-1.41-.4-1.9 6.52-3.47-.94 1.68-5.96-1.42-.43-1.74 5.99-3.18-.94 1.79-6.38-1.35-.46zM183.7 77.03l-.28-1.47c-1.12.57-2.17.57-2.67 2.11-.39 1.19-.24 2.92.25 4.07 1.11 2.64 4.61 3.25 5.79.9.89-1.76-.69-7.74 2.55-6.85 1.14.32 1.69 2.05 1.73 3.11.08 1.86-.37 2.26-1.99 2.93l.28 1.59c3.06-.19 3.55-3.47 2.82-5.9-.31-1.02-.91-2.41-1.87-2.95-1.08-.61-2.8-.41-3.74.38-2.09 1.74.11 6.95-2.09 7.4-1.58.32-2.21-1.02-2.44-2.32-.33-1.95.59-2.1 1.66-3zM150.57 165.56l7.33 8.84 6.47-5.43-.9-1.17-5.25 4.34-2.31-2.84 4.74-3.92-.95-1.17c-1.09.7-4.09 3.74-4.88 3.89l-2.01-2.53 5.1-4.28-.9-1.06-6.44 5.33zM6.63 88.24l5.14.53-.56 5.75-5.08-.51-.3 1.7 11.39 1.19.13-1.57-4.55-.6.55-5.81 4.67.51.09-1.7-11.31-1.2zM29.38 142.87l-.81-1.46c-.89.23-4.04 2.14-5.15 2.72-2.01 1.02-3.76 2.19-5.23-.49-1.41-2.57.69-3.49 2.47-4.54 1.64-.96 3.53-1.87 5.24-2.78l-.75-1.48c-1.53.45-4.66 2.48-6.28 3.28-5.77 2.8-.86 11.21 4.33 8.06 1.81-1.1 4.26-2.32 6.18-3.31zM11.21 84.64l.39-1.6c-4.33-1.91-2.82-7.34 2.39-6.52 5.54.87 5.28 6.71 1.11 7.2l-.29 1.58c5.95.03 7.05-9.16-.32-10.48-6.32-1.14-7.69 4.63-6.17 7.51.74 1.4 1.57 1.62 2.89 2.31zM13.47 121.64l-.79-3.2c.9.38 4.2.2 4.93.63l-4.14 2.57zm-5.84-3.59l.77-.02 2.69.31 1.09 4.38-2.81 1.76.33 1.82 10.02-6.69-.39-1.87-11.99-1.42.29 1.73zM190.39 96.68l-.31 1.58c4.79.95 3.9 6.8-1.02 6.83-6.39.04-5.96-6.2-2.55-6.82l.11-1.62c-5.36.21-5.94 10.14 2.03 10.16 8.22.02 7.1-9.57 1.74-10.13zM182.64 136.2l-.81 1.47c3.53 2.06 1.12 8.17-4.08 5.56-5.12-2.56-3.02-7.93.89-7.18l.75-1.43c-5.42-1.74-9.37 6.45-2.61 10.11 6.7 3.62 11-5.12 5.86-8.53zM34.73 167.72l1.24 1.17 11.05-5.15-1.3-1.43-8.86 4.48 4.34-8.92-1.22-1.27c-.52.39-4.67 9.73-5.25 11.12zM122 179.92l3.48 10.93 1.54-.45-1.47-4.89 5.24-1.79-.44-1.44-5.28 1.75-1.02-3.2 5.95-2.02-.42-1.34zM93.38 194.02c.18-.37.36-2.94.43-3.58.14-1.32.65-1.68 1.48-2.65.42-.5 3.47-4.4 3.55-4.69l-1.97-.19-3.66 5c-.55-1.25-1.12-2.4-1.62-3.58-.82-1.96-.64-2.26-2.87-2.31.25 1.02 2.26 4.76 2.84 5.95.84 1.7.7 1.56.45 3.61-.02.21-.23 1.96-.21 2.04.12.58 1.45.48 1.58.4zM79.03 181.59l3.67.79-2.02 9.9 1.62.3 2.06-9.88 3.67.81.31-1.37-8.96-1.97zM72.68 190.3l1.71.41 3.27-10.96-1.64-.57zM6 101.2l11.35-.01v-1.71L6 99.47zM176.85 130.97l10.59 4.32.59-1.58-10.59-4.35zM28.92 161.38l1.09 1.29 8.47-7.62-1.05-1.37z"/></g><g><path class="fil2" d="M115.97 181.08c6.76-1.32 8.57 11.65.8 11.87-3.55.11-5.82-2.07-6.01-5.6-.08-1.53.18-3.34 1.24-4.5 1.55-1.68 1.98-1.38 3.97-1.77zm-22.59 12.94c-.13.08-1.46.18-1.58-.4-.02-.08.19-1.83.21-2.04.25-2.05.39-1.91-.45-3.61-.58-1.19-2.59-4.93-2.84-5.95 2.23.05 2.05.35 2.87 2.31.5 1.18 1.07 2.33 1.62 3.58l3.66-5 1.97.19c-.08.29-3.13 4.19-3.55 4.69-.83.97-1.34 1.33-1.48 2.65-.07.64-.25 3.21-.43 3.58zm-14-13.85l8.96 1.97-.31 1.37-3.67-.81-2.06 9.88-1.62-.3 2.02-9.9-3.67-.79.35-1.42zm-3.36-.99l1.64.57-3.27 10.96-1.71-.41 3.34-11.12zm53.56-1.71l.42 1.34-5.95 2.02 1.02 3.2 5.28-1.75.44 1.44-5.24 1.79 1.47 4.89-1.54.45-3.48-10.93 7.58-2.45zm-65.46 5.47c-1.34 3.4 3.73 4.87 4.92 3.45 1.86-2.22-2.89-3.9-3.92-5.24-1.86-2.43.48-5.45 3.64-4.85 2.39.45 5.1 2.82 3.62 5.5l-1.46-.6c1.28-2.72-3.81-4.98-4.65-2.25-.55 1.83 3.77 2.93 4.62 4.97.47 1.14.02 2.91-.87 3.71-1.73 1.56-5.86.16-7.09-1.49-1.17-1.56-.53-2.33-.41-3.91l1.6.71zm-8.01-12.67c.62.12 5.37 2.89 5.91 3.42.97.97 1.43 1.97.81 3.42-.51 1.17-1.43 1.88-2.72 1.97.9 1.66-.03 2.43-.94 4.4-.63 1.35 1.05 2.08-2 .53.35-1.37 2.09-3.55 1.31-4.64-.37-.53-3.36-2.28-4.05-2.46l-2.37 4.22-1.44-.86 5.49-10zm97.14 6.26c-1.05 4.56-7.96 6.31-10.48-.08-2.62-6.64 5.26-10.07 8.09-6.3l-1.34.76c-1.22-.5-1.31-1.16-2.98-.68-3.22.92-3.44 4.42-1.28 7.07 3.89 4.77 8.61-.94 6-3.67l-2.88 1.84-.72-1.32 4.31-2.6 3.17 5.28-.99.53-.9-.83zM48.1 164.22l6.58 5.14-.87 1.05-5.3-3.88-1.93 2.58 4.91 3.72-.87 1.16c-.76-.21-3.98-2.94-4.94-3.62-.41.33-2.03 2.53-2.1 2.95l5.31 4.04-.94 1.16c-.91-.55-6.47-4.68-6.69-5.22l6.84-9.08zm108.91-3.99l.9 1.06-5.1 4.28 2.01 2.53c.79-.15 3.79-3.19 4.88-3.89l.95 1.17-4.74 3.92 2.31 2.84 5.25-4.34.9 1.17-6.47 5.43-7.33-8.84 6.44-5.33zm6.93-6.68c2.89-.84 6.4 1.61 7.29 4.33.99 3.02-.97 6.56-4.01 7.24-2.98.66-6.16-1.53-7.22-4.29-1.2-3.14.89-6.38 3.94-7.28zM34.73 167.72c.58-1.39 4.73-10.73 5.25-11.12l1.22 1.27-4.34 8.92 8.86-4.48 1.3 1.43-11.05 5.15-1.24-1.17zm2.7-14.04l1.05 1.37-8.47 7.62-1.09-1.29 8.51-7.7zm-7.36-9.37l1.2 1.65-3.73 9.81 7.09-5.31.94 1.3-9.15 6.9-1.1-1.4 3.76-10.04-7.18 5.38-.93-1.31 9.1-6.98zm142.95 9.39c2.68 1.99 5.35-2.46 4.36-4.09-1.59-2.62-4.27 1.79-5.74 2.69-2.73 1.66-5.48-1.28-4.3-4.3.84-2.15 3.66-4.77 6.01-2.69l-.74 1.28c-1.48-.36-2.2-.68-3.36.93-.75 1.05-1.19 2.47.13 3.28 1.91 1.16 3.64-3.31 5.93-3.64 3.36-.48 4.48 2.77 3.01 5.55-1.35 2.55-3.35 4.16-6.22 2.42l.92-1.43zM29.38 142.87c-1.92.99-4.37 2.21-6.18 3.31-5.19 3.15-10.1-5.26-4.33-8.06 1.62-.8 4.75-2.83 6.28-3.28l.75 1.48c-1.71.91-3.6 1.82-5.24 2.78-1.78 1.05-3.88 1.97-2.47 4.54 1.47 2.68 3.22 1.51 5.23.49 1.11-.58 4.26-2.49 5.15-2.72l.81 1.46zm153.26-6.67c5.14 3.41.84 12.15-5.86 8.53-6.76-3.66-2.81-11.85 2.61-10.11l-.75 1.43c-3.91-.75-6.01 4.62-.89 7.18 5.2 2.61 7.61-3.5 4.08-5.56l.81-1.47zm-5.2-6.84l10.59 4.35-.59 1.58-10.59-4.32.59-1.61zm3.38-10.43l1.35.46-1.79 6.38 3.18.94 1.74-5.99 1.42.43-1.68 5.96 3.47.94 1.9-6.52 1.41.4-2.39 8.22-10.94-3.15 2.33-8.07zm-168.64 3.79l-1.09-4.38-2.69-.31-.77.02-.29-1.73 11.99 1.42.39 1.87L9.7 126.3l-.33-1.82 2.81-1.76zm181.69-12.84c-.24 2.2.04 1.66-1.65 2.49-1.51.74-7.79 3.37-8.24 3.79l8.82 1.34-.16 1.53-11.35-1.52.26-2.05 9.39-4.31-8.56-1.21.16-1.64 11.33 1.58zm-176.42-6.27l.13 1.96-8.11 6.45c1.28-.04 8.17-1.11 8.76-.8l.06 1.47c-1.52.1-10.69 1.41-11.29 1.07l-.19-1.71 8.27-6.61-8.85.97-.1-1.67 11.32-1.13zm80.2-83.49c44.21-1.34 81.07 33.22 82.41 77.41 1.34 44.2-33.26 81.13-77.5 82.46-44.23 1.33-81.17-33.27-82.5-77.51-1.32-44.31 33.3-81.02 77.59-82.36zM6 99.47l11.35.01v1.71L6 101.2v-1.73zm184.39-2.79c5.36.56 6.48 10.15-1.74 10.13-7.97-.02-7.39-9.95-2.03-10.16l-.11 1.62c-3.41.62-3.84 6.86 2.55 6.82 4.92-.03 5.81-5.88 1.02-6.83l.31-1.58zM6.8 86.53l11.31 1.2-.09 1.7-4.67-.51-.55 5.81 4.55.6-.13 1.57-11.39-1.19.3-1.7 5.08.51.56-5.75-5.14-.53.17-1.71zm187.74 7.21l-11.37 1.46-1.07-8.38 1.45-.18.83 6.66 3.36-.37-.83-6.24 1.56-.18.74 6.18 3.59-.46-.81-6.74 1.46-.17 1.09 8.42zm-183.33-9.1c-1.32-.69-2.15-.91-2.89-2.31-1.52-2.88-.15-8.65 6.17-7.51 7.37 1.32 6.27 10.51.32 10.48l.29-1.58c4.17-.49 4.43-6.33-1.11-7.2-5.21-.82-6.72 4.61-2.39 6.52l-.39 1.6zm172.49-7.61c-1.07.9-1.99 1.05-1.66 3 .23 1.3.86 2.64 2.44 2.32 2.2-.45 0-5.66 2.09-7.4.94-.79 2.66-.99 3.74-.38.96.54 1.56 1.93 1.87 2.95.73 2.43.24 5.71-2.82 5.9l-.28-1.59c1.62-.67 2.07-1.07 1.99-2.93-.04-1.06-.59-2.79-1.73-3.11-3.24-.89-1.66 5.09-2.55 6.85-1.18 2.35-4.68 1.74-5.79-.9-.49-1.15-.64-2.88-.25-4.07.5-1.54 1.55-1.54 2.67-2.11l.28 1.47zm-8.87-19.71l-5.68-7.26c-1.12.53-1.93 1.7-3.11.56l-6.4-7.68 1.22-.9c.54.34 1.71 1.87 2.24 2.44 1.73 1.86 1.23 1.81 2.72 1.42l-7.27-8.2 1.21-.69 7.24 8.14 2.2-.35-4.75-5.74 1.34-.88 8.7 11.06c-.58.15-1.37.32-1.99.27-.54-.04-1.39-.53-1.77-.27-.5.35.29.94.53 1.24l4.83 6.1-1.26.74zM36.33 32.16c.59.26 5.47 4.55 5.74 5.07-.2.72-6.47 8.08-7.28 8.6l2.33 1.93-2.96 3.39-2.24-1.74-6.83 8.41-6.33-5.02 6.87-8.47-1.91-1.51 3-3.45 1.84 1.47 7.77-8.68zm127.35-.02l2.39 2.55.26-1.61c.58.38 1.69 1.63 2.25 2.18 1.35 1.31 1.03 1.27.81 3.19l1.34 1.45.42-1.85c.42.27 1.89 2.15 2.38 2.68 1.31 1.42 1 1.81.74 3.69l2.1 2.41 1.17-1.34 2.86 4.19-.94.91 1.69 2.5-2.81 1.93-2.37-4.16.91-.65-11.34-13.89-.93.91c-.52-.19-2.84-2.55-3.25-3.12l2.32-1.97zM39.54 25.88c2.41-2.09 21.1-13.32 23.78-14.16.45.57 5.84 11.14 5.85 11.57l-21.48 13.4c-.74-.77-8.02-10.27-8.15-10.81zm114.64 11.35c-2.14-1.12-7.1-7.71-8.52-9.91-1.21-1.88-.64-1.45-3.24-1.45-4.07 0-6.07-.64-9.8-1.68-.93-.27-1.16-.17-1.15-1.12 2.4.04 11.12.42 12.46-.58l-9.16-4.87.96-1.61 9.5 5.06 2.15-2.56 3.85 2.44-1.83 2.79 8.54 6.03-1.26 1.36-7.85-5.66c.63 2.52 2.89 6.4 4.71 8.27.36.38 1.92 1.87 2.15 2.2l-1.51 1.29zM76.7 8.4l.51 3.08 2.01-.28.28 1.39-1.92.47 1.24 5.9 2.11-.4.28 1.51-8.32 1.67-.35-1.49 1.89-.37-1.23-5.9-2.54.55-.4-1.54 2.61-.61-.72-3.29 4.55-.69zm26.29 8.26c2.82-1.2 1.99-1.38 2.32-4.51.21-1.93.48-4.29.51-6.29 1.35-.01 10.8 1.58 12.74 1.93 2.07.38 4.09.8 6.13 1.23 1.83.39 4.27 1.16 6.01 1.38l-.3 1.54-9.87-2.09-.13 1.03 9.37 1.78-.33 1.23-9.33-1.65-.01.98 7.76 1.44c-.03.52-.24 1.41-.33 1.95-.37 2.21.64 1.87-4.17 1.13l.34-2.37-3.73-.57c1.21 5.29 6.6 5.37 8.01 6l-.25 1.47c-2.59-.1-9.03-2.82-9.86-4.94-.5.14-1.47.73-2.13.98-3.67 1.37-4.88.5-8.2.64.04-1.66.41-1.27 1.89-1.47 2.64-.38 5.04-1.1 6.68-3.35-.76-.02-1.95-.5-2.63-.15l-.18 1.35c-.36.21-2.99-.05-3.56-.29l.36-3.24 6.54.86.26-1.04-7.21-1.1V9.19l7.33 1.2.16-1.06-8.16-1.22c-.04 2.06-.23 5.21-.68 7.08-.2.85-1.25 1.52-2.01 1.85-1.24.54-2.04.36-3.17.69l-.17-1.07zm-10.27-5.72l.25 3.14-4.09.3-.3-2.82-2.44.46.55 4.91c.6.37 7.31-.58 8.59-.7l-.14-1.27 4.53-.41.12 3.06c-.04.03-15.61 1.52-17.12 1.61l-.63-6.56-.94-.14-.27-1.54.95-.19-.14-1.69 4.14-.47.11 1.57 2.54-.37-.36-4.21 4.21-.17.3 3.6c.46.28 5.5-.82 6.54-.94l.42 5.19-4.86.3-.23-1.77.92-.22-.14-1.1-2.51.43zM2.93 99.87c-.06 53.53 43.65 97.29 97.53 97.24 53.38-.04 96.76-44.07 96.73-97.5C197.17 47.48 153.87 3.1 101.02 3 47.12 2.9 3 45.77 2.93 99.87z"/><path class="fil2" d="M103.67 101.2l40.63.12-40.62-5.3zM96.05 106.57l-.17-5.23H56.12zM112.48 187.48c1.18 6.53 8.6 4.61 7.73-.9-1.02-6.5-8.73-4.65-7.73.9zM56.79 20.81l.47.7 3.91-2.31.91 1.49-1.43.92.15 1.08 1.7-.98.87 1.32-13.13 8.07-.99-1.29 4.35-2.68-.53-.88-4.44 2.72-.96-1.48 4.21-2.61-.35-.72-4.37 2.53-1-1.3 13.79-8.53.86 1.53-4.02 2.42zM44.9 25.22l4.9 6.96 14.63-8.92-3.93-7.39c-2.64 1.34-5.44 2.97-7.93 4.47-2.24 1.36-5.78 3.28-7.67 4.88zM164.22 155.15c-6.25 1.89-1.2 9.35 2.75 8.41 2.34-.56 3.69-3.16 2.62-5.37-.89-1.82-3.3-3.66-5.37-3.04zM30.26 42.2l2.61 2.1 4.54-5.18-2.68-2.3zM23.66 50.22l2.87 2.17 3.59-4.41-2.72-2.23zM55.16 175.58c2.59 1.43 4.64 3.16 5.85 1.18 1.52-2.48-2.59-3.33-3.97-4.51l-1.88 3.33zM98.81 170.75c0-.02.06.03.04.04-.18.18-.05-.05-.05-.06 0 0 .01.03.01.02zm-.46-.62c-.38-.01-1.08.11-1.35-.16-.96-.97 1.33-2.09 1.75-.38l-.4.54zm-2.93 1.21c.03 1.49 3.1 1.32 4.16.69 1.29-.77 1.28-3.1-.14-3.81-1.09-.55-3.71-.56-4.19.83-.72 2.08 2.39 1.81 3.47 1.73-.03.72-.82 1.1-1.44.8-.26-.13-.38-.75-1.86-.24zM101.53 170.36c2.19.07.28.21 2.09-.18 1.14-.25 1.4.18 1.4 1.16-2.05.9-1.33-.23-2.54-.29-.37-.02-.82.12-1.07.27.43 1.52 3.58 1.41 4.75.61 1.94-1.34-.58-2.94-2.75-2.48.15-.82.82-.57 2.94-.53l-.01-.94-4.02.01-.79 2.37zM107.42 169.32l1.47.09c.35-.4 1.09-1.21 2-.36-.12 1.33-2.86 1.32-3.72 3.31l5.46.02-.01-.91-2.69-.02c.71-.55 4.1-1.84 2.1-3.14-1.07-.69-4.46-.78-4.61 1.01zM89.65 169.84c.66.01 1.35-.24 1.87-.52v3.06h1.73v-4.52c-2.33-.01-.96.17-2.32.74-1.22.51-1.27-.01-1.28 1.24zM13.47 121.64l4.14-2.57c-.73-.43-4.03-.25-4.93-.63l.79 3.2z"/><path class="fil2" d="M58.65 24.02l.89-.61c.07-.49.01-.59-.12-1.06l-1.32.86.55.81z"/></g></g></g></svg>