<?xml version="1.0" encoding="UTF-8" standalone="no"?>
<svg
   xmlns:dc="http://purl.org/dc/elements/1.1/"
   xmlns:cc="http://creativecommons.org/ns#"
   xmlns:rdf="http://www.w3.org/1999/02/22-rdf-syntax-ns#"
   xmlns:svg="http://www.w3.org/2000/svg"
   xmlns="http://www.w3.org/2000/svg"
   viewBox="0 0 303.80533 311.16666"
   height="311.16666"
   width="303.80533"
   xml:space="preserve"
   id="svg2"
   version="1.1"><metadata
     id="metadata8"><rdf:RDF><cc:Work
         rdf:about=""><dc:format>image/svg+xml</dc:format><dc:type
           rdf:resource="http://purl.org/dc/dcmitype/StillImage" /></cc:Work></rdf:RDF></metadata><defs
     id="defs6"><clipPath
       id="clipPath18"
       clipPathUnits="userSpaceOnUse"><path
         id="path16"
         d="M 0,233.375 H 227.854 V 0 H 0 Z" /></clipPath></defs><g
     transform="matrix(1.3333333,0,0,-1.3333333,0,311.16667)"
     id="g10"><g
       id="g12"><g
         clip-path="url(#clipPath18)"
         id="g14"><g
           transform="translate(16.7583,66.5922)"
           id="g20"><path
             id="path22"
             style="fill:#00569a;fill-opacity:1;fill-rule:nonzero;stroke:none"
             d="m 0,0 c -6.321,17.709 -7.484,33.262 -7.689,39.13 v 98.549 c -2.008,0.404 -4.028,0.727 -6.054,0.957 -0.013,0 -0.371,0.056 -0.548,0.056 -1.36,0 -2.468,-1.1 -2.468,-2.455 V 39.366 c 0.318,-8.97 3.799,-55.229 41.25,-80.466 1.138,-0.758 2.294,-1.505 3.45,-2.207 C 15.621,-32.019 6.247,-17.51 0,0" /></g><g
           transform="translate(215.6773,106.12)"
           id="g24"><path
             id="path26"
             style="fill:#00569a;fill-opacity:1;fill-rule:nonzero;stroke:none"
             d="m 0,0 v 105.921 c 0,1.641 -1.218,2.996 -2.803,3.202 -0.044,0.006 -0.46,0.049 -0.759,0.012 -5.438,-0.653 -10.815,-1.846 -16.012,-3.556 -4.799,-1.585 -8.025,-6.104 -8.025,-11.251 V 22.11 c 1.312,-5.594 2.008,-11.424 2.008,-17.417 0,-41.995 -34.163,-76.165 -76.159,-76.165 -41.995,0 -76.165,34.17 -76.165,76.165 0,5.998 0.696,11.842 2.014,17.442 v 72.193 c 0,5.166 -3.344,9.722 -8.324,11.344 -5.078,1.648 -10.318,2.804 -15.608,3.451 -0.043,0.006 -0.329,0.03 -0.429,0.03 -1.79,0 -3.238,-1.448 -3.238,-3.232 V -0.342 c 0.348,-9.896 4.184,-60.923 45.495,-88.759 0.292,-0.198 0.584,-0.391 0.883,-0.584 1.131,-0.746 2.274,-1.461 3.412,-2.145 0.243,-0.149 0.485,-0.285 0.715,-0.422 l 0.23,-0.137 c 0.492,-0.286 0.983,-0.566 1.486,-0.845 0.037,-0.019 0.075,-0.044 0.112,-0.062 l 0.305,-0.168 c 0.13,-0.081 0.266,-0.156 0.403,-0.23 1.635,-0.883 3.164,-1.666 4.669,-2.387 0.192,-0.093 0.385,-0.187 0.578,-0.274 4.351,-2.076 8.863,-3.835 13.439,-5.24 0.46,-0.143 0.914,-0.286 1.367,-0.423 9.262,-2.722 18.903,-4.102 28.663,-4.102 10.908,0 21.643,1.722 31.913,5.122 0.677,0.224 1.342,0.454 2.007,0.69 l 0.075,0.025 0.056,0.025 c 0.504,0.174 0.995,0.354 1.485,0.541 0.504,0.186 0.982,0.366 1.449,0.553 l 0.385,0.143 c 0.398,0.161 0.839,0.342 1.274,0.522 l 0.094,0.037 c 0.534,0.218 1.013,0.417 1.491,0.628 0.523,0.23 1.033,0.454 1.542,0.684 0.59,0.267 1.168,0.528 1.741,0.808 0.049,0.025 0.105,0.05 0.155,0.074 1.983,0.945 3.934,1.965 5.855,3.034 0,0.006 0.007,0.006 0.007,0.006 2.014,1.125 3.978,2.319 5.899,3.568 0,0.006 0.006,0.006 0.006,0.006 0.317,0.199 0.627,0.41 0.939,0.615 0.316,0.212 0.634,0.423 0.944,0.641 C -3.859,-60.233 -0.305,-9.815 0,0" /></g><g
           transform="translate(42.8843,138.2758)"
           id="g28"><path
             id="path30"
             style="fill:#00569a;fill-opacity:1;fill-rule:nonzero;stroke:none"
             d="m 0,0 c 11.04,28.463 38.726,48.696 71.043,48.696 32.323,0 60.004,-20.239 71.043,-48.709 v 62.185 c 0,1.536 0.23,3.028 0.659,4.432 C 124.035,84.271 98.804,95.099 71.043,95.099 43.276,95.099 18.039,84.264 -0.671,66.598 -0.229,65.193 0,63.702 0,62.172 Z" /></g><g
           transform="translate(59.0581,83.7612)"
           id="g32"><path
             id="path34"
             style="fill:#00569a;fill-opacity:1;fill-rule:nonzero;stroke:none"
             d="M 0,0 C 3.699,-9.411 9.263,-17.691 16.162,-24.261 H 7.938 C 0.604,-17.548 -5.296,-9.287 -9.225,0 Z m -14.694,26.12 h 9.64 C -4.947,17.554 -3.412,9.374 -0.702,1.865 h -9.28 c -2.941,7.54 -4.6,15.714 -4.712,24.255 m 4.712,26.119 h 9.286 C -3.412,44.73 -4.947,36.55 -5.054,27.984 h -9.64 c 0.112,8.541 1.771,16.715 4.712,24.255 m 17.926,26.12 h 8.224 C 9.269,71.795 3.705,63.515 0.007,54.104 h -9.232 c 3.936,9.287 9.829,17.548 17.169,24.255 m 46.919,18.263 c 17.051,0 32.697,-6.166 44.805,-16.398 H 10.064 c 12.109,10.232 27.749,16.398 44.799,16.398 m 64.094,-42.518 h -9.231 c -3.699,9.411 -9.262,17.691 -16.162,24.255 h 8.224 c 7.341,-6.707 13.233,-14.968 17.169,-24.255 m 5.47,-26.12 h -9.642 c -0.105,8.566 -1.64,16.746 -4.357,24.255 h 9.287 c 2.94,-7.54 4.599,-15.714 4.712,-24.255 M 119.715,1.865 h -9.28 c 2.71,7.509 4.245,15.689 4.35,24.255 h 9.642 C 124.314,17.579 122.655,9.405 119.715,1.865 M 101.794,-24.261 H 93.57 c 6.9,6.57 12.463,14.85 16.156,24.261 h 9.231 c -3.929,-9.287 -9.828,-17.548 -17.163,-24.261 M 17.182,0 c 1.174,-1.635 2.461,-3.189 3.835,-4.656 2.691,-7.677 6.34,-14.359 10.679,-19.605 H 18.909 C 11.699,-17.834 5.868,-9.529 2.008,0 Z M 8.473,26.12 C 8.646,17.2 11.357,8.883 15.907,1.865 H 1.287 c -2.785,7.484 -4.37,15.67 -4.475,24.255 z m 7.434,26.119 C 11.357,45.228 8.646,36.917 8.473,27.984 H -3.188 c 0.105,8.585 1.69,16.771 4.475,24.255 z m 5.495,6.931 c -1.523,-1.585 -2.927,-3.275 -4.22,-5.066 H 2.008 c 3.86,9.529 9.691,17.834 16.908,24.255 H 32.268 C 27.886,73.268 24.175,66.723 21.402,59.17 M 53.931,73.449 C 42.717,73.225 32.467,69.01 24.548,62.154 c 2.728,6.415 6.172,11.922 10.144,16.205 h 19.239 z m 0,-92.793 v -4.917 H 34.077 c -3.929,4.426 -7.316,10.07 -9.971,16.596 7.982,-7.08 18.4,-11.449 29.825,-11.679 M 98.798,26.971 C 98.755,2.772 79.056,-16.876 54.869,-16.876 H 54.782 C 30.559,-16.833 10.891,2.915 10.935,27.139 10.984,51.338 30.683,70.987 54.869,70.987 H 54.95 C 79.174,70.937 98.848,51.195 98.798,26.971 M 85.191,62.154 c -7.92,6.85 -18.17,11.071 -29.395,11.295 v 4.91 h 19.238 c 3.979,-4.283 7.422,-9.79 10.157,-16.205 m 7.36,-8.05 c -1.287,1.791 -2.697,3.487 -4.221,5.072 -2.778,7.553 -6.489,14.092 -10.872,19.183 h 13.358 c 7.217,-6.421 13.048,-14.726 16.909,-24.255 z m 8.709,-26.12 c -0.174,8.927 -2.878,17.244 -7.435,24.255 h 14.62 c 2.785,-7.484 4.37,-15.67 4.476,-24.255 z M 93.825,1.865 c 4.557,7.018 7.261,15.328 7.441,24.255 h 11.655 C 112.815,17.535 111.23,9.349 108.445,1.865 Z M 75.655,-24.261 H 55.796 v 4.923 c 11.425,0.224 21.855,4.593 29.837,11.673 -2.654,-6.526 -6.042,-12.17 -9.978,-16.596 m 13.067,19.605 c 1.374,1.467 2.654,3.021 3.829,4.656 h 15.174 C 103.864,-9.529 98.033,-17.834 90.823,-24.261 H 78.03 c 4.345,5.246 7.994,11.928 10.692,19.605 M 54.863,-42.524 c -17.056,0 -32.69,6.172 -44.805,16.398 H 99.675 C 87.56,-36.352 71.92,-42.524 54.863,-42.524 m 0,-3.108 c 40.075,0 72.684,32.609 72.684,72.684 0,40.075 -32.609,72.678 -72.684,72.678 -40.075,0 -72.677,-32.603 -72.677,-72.678 0,-40.075 32.602,-72.684 72.677,-72.684" /></g><g
           transform="translate(102.2251,51.7763)"
           id="g36"><path
             id="path38"
             style="fill:#00569a;fill-opacity:1;fill-rule:nonzero;stroke:none"
             d="M 0,0 V -6.725 H 2.097 V 2.006 H -1.51 L -1.51,0 Z" /></g><g
           transform="translate(107.7486,51.6366)"
           id="g40"><path
             id="path42"
             style="fill:#00569a;fill-opacity:1;fill-rule:nonzero;stroke:none"
             d="M 0,0 C 0.112,0.187 0.273,0.335 0.473,0.447 0.678,0.56 0.901,0.615 1.156,0.615 1.411,0.615 1.642,0.56 1.834,0.454 2.033,0.342 2.182,0.193 2.294,0 2.405,-0.193 2.468,-0.417 2.468,-0.665 2.468,-0.845 2.431,-1.02 2.362,-1.175 2.3,-1.336 2.207,-1.473 2.089,-1.591 1.971,-1.709 1.834,-1.803 1.672,-1.871 1.517,-1.933 1.343,-1.964 1.156,-1.964 0.907,-1.964 0.678,-1.908 0.479,-1.796 0.273,-1.678 0.112,-1.523 0,-1.33 c -0.118,0.199 -0.174,0.416 -0.174,0.665 0,0.248 0.056,0.472 0.174,0.665 m -1.393,-2.878 c 0.268,-0.268 0.573,-0.473 0.914,-0.622 0.336,-0.143 0.684,-0.217 1.039,-0.217 0.26,0 0.478,0.043 0.64,0.124 l -2.598,-2.99 h 2.536 l 2.02,2.394 c 0.237,0.279 0.447,0.54 0.634,0.789 0.18,0.242 0.336,0.491 0.466,0.746 0.131,0.255 0.223,0.528 0.292,0.826 0.062,0.292 0.094,0.635 0.094,1.014 C 4.638,-0.243 4.488,0.28 4.196,0.758 3.897,1.23 3.481,1.61 2.946,1.89 2.412,2.176 1.778,2.313 1.051,2.313 0.342,2.313 -0.261,2.176 -0.758,1.908 -1.249,1.635 -1.629,1.274 -1.89,0.814 -2.15,0.36 -2.281,-0.143 -2.281,-0.696 c 0,-0.448 0.081,-0.858 0.242,-1.225 0.162,-0.373 0.373,-0.69 0.646,-0.957" /></g><g
           transform="translate(116.5718,46.7548)"
           id="g44"><path
             id="path46"
             style="fill:#00569a;fill-opacity:1;fill-rule:nonzero;stroke:none"
             d="m 0,0 c -0.196,-0.106 -0.434,-0.159 -0.712,-0.159 -0.358,0 -0.67,0.089 -0.936,0.267 -0.267,0.178 -0.439,0.413 -0.519,0.702 L -3.823,0.031 c 0.155,-0.412 0.391,-0.759 0.709,-1.038 0.316,-0.281 0.687,-0.494 1.112,-0.639 0.426,-0.145 0.876,-0.217 1.35,-0.217 0.637,0 1.21,0.126 1.715,0.376 0.507,0.25 0.908,0.606 1.201,1.066 0.294,0.461 0.44,1.003 0.44,1.628 0,0.359 -0.055,0.689 -0.163,0.989 C 2.433,2.496 2.279,2.761 2.082,2.993 1.885,3.223 1.646,3.409 1.367,3.551 0.767,3.9 0.026,4.034 -0.853,3.953 l 0.201,1.285 h 2.78 V 7.027 H -2.444 L -3.221,2.228 c 0.232,0.109 0.48,0.192 0.744,0.251 0.265,0.058 0.543,0.087 0.836,0.087 0.467,0 0.869,-0.059 1.204,-0.177 C -0.103,2.271 0.154,2.1 0.334,1.876 0.513,1.652 0.602,1.383 0.602,1.069 0.602,0.833 0.551,0.622 0.447,0.437 0.344,0.251 0.195,0.106 0,0" /></g><g
           transform="translate(126.8345,46.85)"
           id="g48"><path
             id="path50"
             style="fill:#00569a;fill-opacity:1;fill-rule:nonzero;stroke:none"
             d="m 0,0 h -3.264 c 0.434,0.292 0.819,0.581 1.154,0.862 0.335,0.283 0.625,0.56 0.869,0.831 0.244,0.272 0.445,0.542 0.605,0.81 0.159,0.268 0.279,0.539 0.356,0.812 0.078,0.273 0.117,0.55 0.117,0.829 0,0.57 -0.144,1.079 -0.43,1.523 -0.286,0.445 -0.68,0.794 -1.185,1.051 -0.506,0.256 -1.088,0.383 -1.746,0.383 -0.42,0 -0.811,-0.056 -1.171,-0.169 C -5.056,6.819 -5.383,6.654 -5.678,6.437 -5.973,6.22 -6.228,5.954 -6.443,5.638 -6.658,5.322 -6.835,4.962 -6.973,4.556 L -5.229,3.73 c 0.137,0.357 0.285,0.65 0.442,0.881 0.157,0.232 0.33,0.402 0.518,0.514 0.189,0.111 0.393,0.167 0.614,0.167 0.239,0 0.451,-0.056 0.635,-0.167 C -2.835,5.013 -2.689,4.866 -2.582,4.683 -2.476,4.5 -2.423,4.298 -2.423,4.08 -2.423,3.875 -2.477,3.656 -2.585,3.42 -2.693,3.187 -2.863,2.928 -3.093,2.646 -3.323,2.363 -3.618,2.054 -3.978,1.718 -4.339,1.381 -4.77,1.008 -5.273,0.6 -5.776,0.193 -6.357,-0.254 -7.017,-0.741 V -1.799 H 0 Z" /></g><g
           transform="translate(113.9273,76.8798)"
           id="g52"><path
             id="path54"
             style="fill:#00569a;fill-opacity:1;fill-rule:nonzero;stroke:none"
             d="M 0,0 V 33.934 H -7.272 L 0,67.873 V 33.934 h 7.267 z m -7.776,41.038 -20.271,8.361 c -0.429,0.174 -0.646,0.659 -0.497,1.094 1.225,3.462 2.729,6.8 4.476,9.977 2.207,4.009 4.811,7.757 7.763,11.213 0.063,0.075 -0.018,0.187 -0.111,0.15 -1.679,-0.734 -3.295,-1.567 -4.849,-2.5 -2.312,-1.398 -4.482,-3.014 -6.464,-4.823 -3.625,-3.276 -6.652,-7.198 -8.92,-11.562 -1.101,-2.107 -2.014,-4.332 -2.736,-6.632 -1.218,-3.885 -1.884,-8.013 -1.889,-12.295 -0.006,-0.423 0,-0.84 0.012,-1.256 0.019,-0.522 0.466,-0.927 0.989,-0.902 l 6.893,0.355 c 0.497,0.025 0.883,0.435 0.889,0.926 0.044,3.008 0.292,5.974 0.727,8.877 0.081,0.553 0.665,0.876 1.181,0.665 L -9.293,33.902 0,-9.455 7.776,26.859 35.779,15.31 c 0.865,-0.354 1.86,0.031 2.257,0.883 0.541,1.15 1.026,2.325 1.461,3.531 0.316,0.882 -0.118,1.864 -0.988,2.219 L 9.28,34.002 0,77.328 Z" /></g><g
           transform="translate(225.3862,205.2846)"
           id="g56"><path
             id="path58"
             style="fill:#00569a;fill-opacity:1;fill-rule:nonzero;stroke:none"
             d="m 0,0 c -0.176,0 -0.534,-0.056 -0.547,-0.056 -2.026,-0.23 -4.046,-0.553 -6.054,-0.957 v -98.549 c -0.205,-5.868 -1.368,-21.421 -7.689,-39.13 -6.247,-17.511 -15.621,-32.019 -27.941,-43.308 1.156,0.703 2.312,1.449 3.45,2.208 37.451,25.236 40.932,71.496 41.249,80.466 v 96.87 C 2.468,-1.101 1.361,0 0,0" /></g><g
           transform="translate(19.8325,109.7558)"
           id="g60"><path
             id="path62"
             style="fill:#ffffff;fill-opacity:1;fill-rule:nonzero;stroke:none"
             d="M 0,0 C 0,0.812 0.14,1.573 0.418,2.284 0.697,2.996 1.085,3.622 1.582,4.164 2.079,4.707 2.655,5.129 3.31,5.433 3.965,5.737 4.669,5.889 5.421,5.889 6.178,5.889 6.885,5.736 7.542,5.43 8.199,5.124 8.776,4.702 9.272,4.161 9.77,3.621 10.157,2.996 10.437,2.287 10.715,1.578 10.854,0.82 10.854,0.013 c 0,-0.659 -0.09,-1.287 -0.272,-1.884 C 10.4,-2.467 10.161,-2.978 9.866,-3.403 l -1.744,0.911 c 0.225,0.291 0.399,0.644 0.526,1.06 0.127,0.417 0.191,0.853 0.191,1.308 0,0.534 -0.087,1.028 -0.26,1.48 C 8.405,1.81 8.164,2.205 7.856,2.541 7.548,2.877 7.186,3.138 6.771,3.325 6.357,3.512 5.909,3.605 5.428,3.605 4.945,3.605 4.498,3.512 4.083,3.325 3.669,3.138 3.308,2.877 2.999,2.541 2.69,2.205 2.449,1.81 2.276,1.356 2.103,0.904 2.017,0.41 2.017,-0.124 c 0,-0.455 0.063,-0.891 0.19,-1.308 0.126,-0.416 0.302,-0.769 0.525,-1.06 L 0.989,-3.403 C 0.702,-2.995 0.465,-2.494 0.278,-1.899 0.093,-1.305 0,-0.672 0,0" /></g><g
           transform="translate(20.0396,103.3154)"
           id="g64"><path
             id="path66"
             style="fill:#ffffff;fill-opacity:1;fill-rule:nonzero;stroke:none"
             d="m 0,0 10.422,0.916 0.184,-2.1 -4.301,-0.378 0.352,-3.999 4.301,0.378 0.184,-2.093 L 0.721,-8.193 0.537,-6.1 4.863,-5.719 4.512,-1.72 0.185,-2.1 Z" /></g><g
           transform="translate(21.5054,90.8744)"
           id="g68"><path
             id="path70"
             style="fill:#ffffff;fill-opacity:1;fill-rule:nonzero;stroke:none"
             d="M 0,0 10.275,1.962 10.672,-0.109 0.395,-2.07 Z" /></g><g
           transform="translate(22.771,84.5263)"
           id="g72"><path
             id="path74"
             style="fill:#ffffff;fill-opacity:1;fill-rule:nonzero;stroke:none"
             d="M 0,0 10.013,3.035 10.624,1.017 5.23,-5.452 11.966,-3.411 12.577,-5.428 2.565,-8.462 1.953,-6.445 7.347,0.023 0.611,-2.018 Z" /></g><g
           transform="translate(31.8589,71.2563)"
           id="g76"><path
             id="path78"
             style="fill:#ffffff;fill-opacity:1;fill-rule:nonzero;stroke:none"
             d="m 0,0 1.167,-2.522 2.598,2.736 z m -5.437,1.786 11.306,0.478 0.822,-1.778 -7.685,-8.302 -0.954,2.061 1.781,1.828 -1.77,3.826 -2.546,-0.174 z" /></g><g
           transform="translate(36.9419,53.4804)"
           id="g80"><path
             id="path82"
             style="fill:#ffffff;fill-opacity:1;fill-rule:nonzero;stroke:none"
             d="m 0,0 c -0.775,1.099 -1.094,2.119 -0.954,3.062 0.139,0.942 0.736,1.787 1.793,2.533 L 6.354,9.49 7.571,7.768 2.537,4.213 C 1.814,3.703 1.386,3.21 1.249,2.733 1.112,2.257 1.245,1.734 1.647,1.163 2.051,0.593 2.499,0.292 2.994,0.262 3.489,0.232 4.098,0.472 4.818,0.981 L 9.853,4.537 11.069,2.815 5.553,-1.081 C 4.497,-1.827 3.502,-2.109 2.568,-1.927 1.635,-1.744 0.778,-1.102 0,0" /></g><g
           transform="translate(42.1997,46.8661)"
           id="g84"><path
             id="path86"
             style="fill:#ffffff;fill-opacity:1;fill-rule:nonzero;stroke:none"
             d="M 0,0 7.642,7.146 9.081,5.605 7.101,-2.581 12.241,2.226 13.681,0.687 6.039,-6.459 4.6,-4.919 6.581,3.267 1.439,-1.54 Z" /></g><g
           transform="translate(51.4888,37.5204)"
           id="g88"><path
             id="path90"
             style="fill:#ffffff;fill-opacity:1;fill-rule:nonzero;stroke:none"
             d="M 0,0 6.855,7.902 8.448,6.521 1.592,-1.381 Z" /></g><g
           transform="translate(58.0044,32.2406)"
           id="g92"><path
             id="path94"
             style="fill:#ffffff;fill-opacity:1;fill-rule:nonzero;stroke:none"
             d="M 0,0 2.502,11.111 4.429,9.712 2.483,2.013 9.205,6.245 11.127,4.85 1.338,-0.972 Z" /></g><g
           transform="translate(65.6538,27.0981)"
           id="g96"><path
             id="path98"
             style="fill:#ffffff;fill-opacity:1;fill-rule:nonzero;stroke:none"
             d="M 0,0 5.095,9.138 10.312,6.229 9.435,4.657 6.059,6.539 4.833,4.34 8.072,2.534 7.196,0.961 3.957,2.767 2.719,0.546 6.095,-1.336 5.218,-2.908 Z" /></g><g
           transform="translate(78.6255,26.8192)"
           id="g100"><path
             id="path102"
             style="fill:#ffffff;fill-opacity:1;fill-rule:nonzero;stroke:none"
             d="M 0,0 0.829,-0.345 C 1.234,-0.513 1.6,-0.6 1.927,-0.603 2.255,-0.607 2.539,-0.53 2.781,-0.372 3.023,-0.214 3.209,0.019 3.337,0.328 3.532,0.795 3.517,1.225 3.291,1.614 3.066,2.003 2.65,2.323 2.046,2.575 L 1.218,2.921 Z M -4.121,-4.41 -0.098,5.248 3.278,3.841 C 3.955,3.56 4.494,3.198 4.896,2.759 5.298,2.318 5.545,1.824 5.638,1.274 5.731,0.725 5.65,0.144 5.396,-0.468 5.193,-0.952 4.924,-1.352 4.586,-1.666 4.248,-1.981 3.859,-2.203 3.421,-2.332 2.981,-2.46 2.501,-2.491 1.979,-2.424 l 1.636,-5.209 -2.469,1.029 -1.341,4.831 -0.463,0.193 -1.517,-3.64 z" /></g><g
           transform="translate(87.6607,17.3647)"
           id="g104"><path
             id="path106"
             style="fill:#ffffff;fill-opacity:1;fill-rule:nonzero;stroke:none"
             d="M 0,0 C -0.479,0.137 -0.907,0.316 -1.281,0.536 -1.656,0.755 -1.98,0.988 -2.255,1.237 -2.529,1.484 -2.757,1.724 -2.938,1.957 -3.12,2.189 -3.26,2.387 -3.357,2.551 l 1.506,1.337 C -1.747,3.73 -1.62,3.551 -1.471,3.35 -1.32,3.148 -1.146,2.948 -0.945,2.748 -0.745,2.547 -0.52,2.364 -0.268,2.197 -0.016,2.03 0.268,1.902 0.58,1.812 0.872,1.729 1.143,1.7 1.392,1.725 1.64,1.751 1.854,1.833 2.034,1.973 2.214,2.113 2.342,2.315 2.417,2.579 2.486,2.818 2.492,3.038 2.437,3.236 2.381,3.435 2.271,3.631 2.107,3.825 1.944,4.02 1.735,4.225 1.479,4.44 1.223,4.657 0.93,4.898 0.6,5.164 0.355,5.366 0.129,5.581 -0.078,5.81 c -0.208,0.229 -0.38,0.475 -0.517,0.738 -0.135,0.264 -0.224,0.543 -0.263,0.838 -0.04,0.295 -0.014,0.605 0.08,0.93 0.11,0.386 0.296,0.733 0.555,1.041 0.26,0.309 0.577,0.558 0.95,0.75 0.373,0.192 0.786,0.312 1.239,0.357 0.453,0.046 0.93,-0.002 1.43,-0.145 C 3.771,10.211 4.133,10.055 4.48,9.85 4.828,9.645 5.141,9.417 5.421,9.165 5.701,8.913 5.927,8.662 6.099,8.41 L 4.811,7.104 C 4.674,7.305 4.51,7.499 4.316,7.684 4.124,7.869 3.909,8.035 3.674,8.181 3.438,8.328 3.189,8.438 2.927,8.514 2.63,8.599 2.365,8.62 2.13,8.578 1.894,8.535 1.696,8.445 1.538,8.309 1.379,8.171 1.27,8 1.211,7.792 1.162,7.622 1.156,7.465 1.195,7.325 1.233,7.185 1.307,7.051 1.416,6.925 1.524,6.8 1.661,6.67 1.826,6.538 1.99,6.404 2.173,6.261 2.372,6.107 2.799,5.77 3.181,5.447 3.517,5.139 3.853,4.832 4.126,4.52 4.338,4.202 4.549,3.884 4.684,3.546 4.74,3.187 4.798,2.827 4.764,2.428 4.638,1.989 4.454,1.347 4.139,0.841 3.692,0.472 3.246,0.103 2.706,-0.122 2.074,-0.202 1.442,-0.282 0.751,-0.215 0,0" /></g><g
           transform="translate(94.8765,15.7914)"
           id="g108"><path
             id="path110"
             style="fill:#ffffff;fill-opacity:1;fill-rule:nonzero;stroke:none"
             d="M 0,0 1.984,10.271 4.054,9.872 2.07,-0.4 Z" /></g><g
           transform="translate(101.9429,14.6225)"
           id="g112"><path
             id="path114"
             style="fill:#ffffff;fill-opacity:1;fill-rule:nonzero;stroke:none"
             d="M 0,0 0.99,8.592 -1.712,8.903 -1.505,10.705 5.994,9.841 5.786,8.04 3.077,8.352 2.088,-0.24 Z" /></g><g
           transform="translate(112.2925,13.8852)"
           id="g116"><path
             id="path118"
             style="fill:#ffffff;fill-opacity:1;fill-rule:nonzero;stroke:none"
             d="M 0,0 0.027,4.66 -3.837,10.484 -1.3,10.47 1.094,6.747 3.528,10.442 6.066,10.427 2.136,4.648 2.108,-0.012 Z" /></g><g
           transform="translate(130.0689,17.0185)"
           id="g120"><path
             id="path122"
             style="fill:#ffffff;fill-opacity:1;fill-rule:nonzero;stroke:none"
             d="M 0,0 C 0.453,0.078 0.854,0.232 1.201,0.463 1.55,0.693 1.837,0.985 2.063,1.336 2.289,1.688 2.443,2.084 2.526,2.525 2.609,2.966 2.608,3.434 2.524,3.93 2.439,4.426 2.285,4.868 2.061,5.257 1.836,5.645 1.559,5.967 1.229,6.224 0.898,6.481 0.531,6.66 0.127,6.763 -0.277,6.865 -0.707,6.878 -1.16,6.8 -1.604,6.725 -2.003,6.571 -2.353,6.34 -2.702,6.109 -2.99,5.817 -3.217,5.465 -3.442,5.114 -3.596,4.718 -3.677,4.277 -3.758,3.837 -3.756,3.369 -3.672,2.873 -3.587,2.377 -3.434,1.935 -3.211,1.546 -2.988,1.157 -2.712,0.835 -2.383,0.578 -2.053,0.321 -1.685,0.142 -1.277,0.04 -0.87,-0.062 -0.444,-0.076 0,0 m 0.339,-1.948 c -0.739,-0.127 -1.456,-0.107 -2.149,0.057 -0.692,0.165 -1.324,0.451 -1.895,0.857 -0.57,0.407 -1.049,0.91 -1.436,1.512 -0.386,0.6 -0.643,1.271 -0.769,2.013 -0.127,0.742 -0.108,1.46 0.057,2.155 0.166,0.695 0.451,1.329 0.855,1.902 0.403,0.572 0.905,1.051 1.504,1.437 0.598,0.385 1.267,0.641 2.008,0.767 C -0.747,8.878 -0.03,8.859 0.662,8.694 1.354,8.529 1.986,8.243 2.557,7.837 3.128,7.431 3.607,6.927 3.993,6.326 4.38,5.725 4.636,5.054 4.763,4.312 4.89,3.57 4.87,2.852 4.705,2.157 4.54,1.462 4.255,0.828 3.851,0.256 3.447,-0.317 2.945,-0.796 2.347,-1.182 1.748,-1.566 1.079,-1.822 0.339,-1.948" /></g><g
           transform="translate(143.4878,22.9828)"
           id="g124"><path
             id="path126"
             style="fill:#ffffff;fill-opacity:1;fill-rule:nonzero;stroke:none"
             d="m 0,0 -0.516,1.725 -3.478,-1.04 -0.722,2.411 3.759,1.124 -0.516,1.726 -5.778,-1.729 2.997,-10.023 2.021,0.604 -1.246,4.161 z" /></g><g
           transform="translate(156.8032,23.6459)"
           id="g128"><path
             id="path130"
             style="fill:#ffffff;fill-opacity:1;fill-rule:nonzero;stroke:none"
             d="m 0,0 c -0.662,-0.327 -1.339,-0.507 -2.033,-0.544 -0.693,-0.036 -1.363,0.061 -2.008,0.292 -0.646,0.23 -1.235,0.581 -1.769,1.053 -0.533,0.472 -0.97,1.053 -1.31,1.743 -0.326,0.659 -0.521,1.338 -0.584,2.035 -0.065,0.697 0.005,1.374 0.207,2.033 0.202,0.659 0.54,1.263 1.013,1.815 0.472,0.552 1.08,1.011 1.823,1.378 0.42,0.207 0.865,0.371 1.336,0.49 0.471,0.12 0.946,0.188 1.426,0.205 0.48,0.018 0.94,-0.022 1.38,-0.12 L -0.701,8.515 C -1.19,8.655 -1.718,8.69 -2.281,8.622 -2.845,8.553 -3.359,8.404 -3.826,8.173 -4.285,7.947 -4.652,7.667 -4.927,7.337 -5.201,7.005 -5.389,6.638 -5.489,6.235 -5.59,5.832 -5.608,5.409 -5.545,4.966 -5.481,4.524 -5.339,4.079 -5.118,3.632 -4.877,3.143 -4.588,2.734 -4.251,2.406 -3.915,2.077 -3.55,1.83 -3.156,1.667 -2.764,1.502 -2.36,1.425 -1.947,1.436 c 0.413,0.01 0.814,0.112 1.203,0.304 0.311,0.154 0.587,0.352 0.827,0.596 0.24,0.243 0.429,0.512 0.563,0.806 0.137,0.293 0.209,0.595 0.22,0.907 C 0.877,4.36 0.81,4.662 0.666,4.954 L 0.596,5.096 -1.93,3.849 -2.635,5.276 1.816,7.474 2.519,6.053 C 2.801,5.48 2.938,4.898 2.928,4.306 2.917,3.714 2.786,3.143 2.536,2.593 2.285,2.042 1.941,1.542 1.506,1.094 1.069,0.645 0.567,0.28 0,0" /></g><g
           transform="translate(164.2427,27.954)"
           id="g132"><path
             id="path134"
             style="fill:#ffffff;fill-opacity:1;fill-rule:nonzero;stroke:none"
             d="m 0,0 -5.752,8.739 4.99,3.283 L 0.229,10.519 -3,8.394 -1.617,6.291 1.481,8.33 2.472,6.826 -0.627,4.787 0.771,2.663 3.999,4.787 4.989,3.283 Z" /></g><g
           transform="translate(174.9292,38.0023)"
           id="g136"><path
             id="path138"
             style="fill:#ffffff;fill-opacity:1;fill-rule:nonzero;stroke:none"
             d="M 0,0 C 0.35,0.299 0.613,0.638 0.792,1.015 0.972,1.392 1.068,1.789 1.081,2.208 1.094,2.625 1.021,3.044 0.866,3.465 0.71,3.886 0.469,4.287 0.141,4.668 -0.187,5.05 -0.547,5.35 -0.939,5.567 -1.332,5.784 -1.736,5.917 -2.151,5.968 -2.565,6.018 -2.974,5.982 -3.373,5.862 -3.772,5.742 -4.147,5.532 -4.496,5.232 -4.838,4.938 -5.099,4.602 -5.28,4.224 -5.462,3.845 -5.558,3.447 -5.57,3.029 -5.584,2.611 -5.512,2.193 -5.354,1.773 c 0.157,-0.419 0.4,-0.819 0.728,-1.201 0.327,-0.381 0.687,-0.682 1.078,-0.9 0.391,-0.219 0.793,-0.354 1.208,-0.403 0.415,-0.051 0.823,-0.015 1.225,0.107 C -0.714,-0.502 -0.342,-0.294 0,0 m 1.294,-1.496 c -0.568,-0.489 -1.192,-0.841 -1.871,-1.056 -0.679,-0.216 -1.367,-0.297 -2.066,-0.242 -0.699,0.055 -1.369,0.24 -2.009,0.556 -0.641,0.316 -1.206,0.759 -1.697,1.33 -0.49,0.571 -0.843,1.197 -1.059,1.878 -0.216,0.68 -0.299,1.37 -0.248,2.069 0.052,0.699 0.235,1.368 0.55,2.006 0.314,0.639 0.757,1.203 1.326,1.692 0.569,0.489 1.193,0.841 1.872,1.056 0.679,0.215 1.367,0.296 2.066,0.242 C -1.144,7.98 -0.474,7.795 0.166,7.479 0.808,7.163 1.373,6.719 1.863,6.148 2.354,5.578 2.707,4.952 2.923,4.271 3.14,3.59 3.222,2.9 3.17,2.201 3.119,1.502 2.936,0.833 2.621,0.195 2.306,-0.443 1.863,-1.007 1.294,-1.496" /></g><g
           transform="translate(184.7603,44.8573)"
           id="g140"><path
             id="path142"
             style="fill:#ffffff;fill-opacity:1;fill-rule:nonzero;stroke:none"
             d="M 0,0 C -0.333,-0.372 -0.68,-0.679 -1.04,-0.92 -1.4,-1.162 -1.753,-1.353 -2.096,-1.491 -2.438,-1.63 -2.753,-1.73 -3.042,-1.793 -3.329,-1.855 -3.568,-1.895 -3.759,-1.91 l -0.547,1.937 c 0.188,0.025 0.404,0.062 0.65,0.109 0.247,0.047 0.504,0.117 0.771,0.21 0.267,0.092 0.531,0.216 0.791,0.37 0.26,0.155 0.498,0.354 0.715,0.596 0.202,0.226 0.346,0.457 0.432,0.692 0.086,0.235 0.104,0.464 0.056,0.686 -0.046,0.223 -0.172,0.426 -0.378,0.609 -0.185,0.167 -0.38,0.268 -0.583,0.304 C -2.056,3.639 -2.279,3.626 -2.525,3.563 -2.771,3.501 -3.047,3.402 -3.354,3.265 -3.66,3.129 -4.005,2.97 -4.388,2.79 -4.676,2.657 -4.968,2.547 -5.264,2.46 -5.561,2.373 -5.857,2.326 -6.153,2.317 -6.45,2.309 -6.74,2.351 -7.022,2.444 c -0.284,0.093 -0.55,0.252 -0.802,0.478 -0.3,0.267 -0.531,0.585 -0.697,0.953 -0.164,0.368 -0.25,0.762 -0.261,1.181 -0.01,0.42 0.062,0.844 0.218,1.272 0.156,0.428 0.408,0.836 0.754,1.224 0.261,0.29 0.559,0.548 0.895,0.771 0.336,0.224 0.678,0.406 1.026,0.549 0.349,0.142 0.673,0.235 0.975,0.28 L -4.3,7.424 C -4.54,7.39 -4.786,7.325 -5.037,7.232 -5.287,7.14 -5.53,7.019 -5.765,6.871 -5.999,6.723 -6.207,6.546 -6.39,6.343 -6.595,6.114 -6.729,5.883 -6.794,5.653 -6.858,5.422 -6.863,5.206 -6.81,5.003 -6.756,4.8 -6.648,4.627 -6.487,4.484 c 0.133,-0.119 0.27,-0.191 0.414,-0.218 0.143,-0.026 0.295,-0.018 0.456,0.025 0.16,0.042 0.336,0.109 0.527,0.2 0.192,0.091 0.401,0.192 0.625,0.305 0.49,0.236 0.946,0.44 1.37,0.608 0.423,0.169 0.824,0.279 1.201,0.331 0.378,0.052 0.742,0.025 1.09,-0.08 C -0.455,5.55 -0.111,5.346 0.229,5.041 0.728,4.596 1.045,4.092 1.183,3.529 1.32,2.967 1.288,2.383 1.085,1.779 0.882,1.175 0.521,0.582 0,0" /></g><g
           transform="translate(192.4097,54.6249)"
           id="g144"><path
             id="path146"
             style="fill:#ffffff;fill-opacity:1;fill-rule:nonzero;stroke:none"
             d="m 0,0 c -0.464,-0.666 -1.015,-1.209 -1.651,-1.632 -0.637,-0.424 -1.314,-0.715 -2.032,-0.875 -0.717,-0.16 -1.431,-0.176 -2.142,-0.05 -0.711,0.127 -1.375,0.406 -1.991,0.837 -0.621,0.433 -1.113,0.964 -1.476,1.592 -0.363,0.627 -0.594,1.304 -0.691,2.031 -0.098,0.727 -0.058,1.462 0.12,2.203 0.177,0.741 0.498,1.442 0.961,2.103 0.377,0.541 0.811,1.003 1.302,1.387 0.491,0.385 0.979,0.667 1.465,0.846 L -5.228,6.696 C -5.578,6.586 -5.925,6.397 -6.267,6.128 -6.609,5.86 -6.911,5.539 -7.172,5.166 -7.478,4.729 -7.689,4.274 -7.808,3.804 -7.926,3.333 -7.954,2.871 -7.894,2.419 c 0.061,-0.452 0.207,-0.874 0.44,-1.264 0.232,-0.39 0.546,-0.723 0.94,-1 0.396,-0.276 0.817,-0.456 1.263,-0.541 0.446,-0.084 0.892,-0.077 1.338,0.022 0.445,0.098 0.869,0.284 1.27,0.556 0.403,0.272 0.756,0.627 1.062,1.064 0.261,0.374 0.459,0.767 0.594,1.181 0.134,0.414 0.193,0.805 0.176,1.171 L 1.14,3.355 C 1.142,2.856 1.049,2.31 0.86,1.717 0.672,1.123 0.386,0.55 0,0" /></g><g
           transform="translate(195.6948,60.2543)"
           id="g148"><path
             id="path150"
             style="fill:#ffffff;fill-opacity:1;fill-rule:nonzero;stroke:none"
             d="m 0,0 -9.12,5.126 1.033,1.838 9.12,-5.126 z" /></g><g
           transform="translate(198.7085,65.8442)"
           id="g152"><path
             id="path154"
             style="fill:#ffffff;fill-opacity:1;fill-rule:nonzero;stroke:none"
             d="M 0,0 -9.543,4.286 -7.097,9.735 -5.453,8.997 -7.037,5.471 -4.741,4.44 -3.222,7.824 -1.579,7.085 -3.099,3.703 -0.778,2.661 0.805,6.187 2.447,5.449 Z" /></g><g
           transform="translate(202.6851,75.1581)"
           id="g156"><path
             id="path158"
             style="fill:#ffffff;fill-opacity:1;fill-rule:nonzero;stroke:none"
             d="m 0,0 -10.021,3.009 0.607,2.019 8.071,2.407 -6.74,2.023 0.605,2.02 L 2.543,8.469 1.937,6.45 -6.135,4.043 0.605,2.019 Z" /></g><g
           transform="translate(207.1118,92.8031)"
           id="g160"><path
             id="path162"
             style="fill:#ffffff;fill-opacity:1;fill-rule:nonzero;stroke:none"
             d="m 0,0 c -0.125,-0.801 -0.38,-1.532 -0.766,-2.192 -0.384,-0.66 -0.864,-1.22 -1.438,-1.679 -0.574,-0.459 -1.209,-0.789 -1.902,-0.987 -0.695,-0.2 -1.414,-0.241 -2.158,-0.125 -0.747,0.116 -1.422,0.376 -2.024,0.779 -0.603,0.404 -1.108,0.91 -1.515,1.52 -0.407,0.61 -0.694,1.288 -0.861,2.032 -0.167,0.743 -0.188,1.513 -0.064,2.311 0.102,0.651 0.289,1.258 0.56,1.819 0.272,0.562 0.586,1.029 0.943,1.404 L -7.642,3.713 C -7.908,3.46 -8.136,3.138 -8.325,2.747 -8.515,2.354 -8.645,1.934 -8.714,1.483 -8.797,0.956 -8.787,0.456 -8.686,-0.02 c 0.103,-0.474 0.28,-0.901 0.533,-1.281 0.253,-0.379 0.569,-0.693 0.95,-0.941 0.381,-0.249 0.809,-0.409 1.285,-0.484 0.477,-0.074 0.934,-0.05 1.371,0.07 0.439,0.12 0.836,0.323 1.193,0.607 0.356,0.285 0.655,0.638 0.896,1.06 0.241,0.42 0.402,0.895 0.484,1.422 0.071,0.45 0.076,0.89 0.014,1.321 -0.061,0.432 -0.18,0.808 -0.356,1.13 l 1.863,0.631 C -0.232,3.068 -0.075,2.536 0.018,1.921 0.108,1.305 0.104,0.665 0,0" /></g><g
           transform="translate(207.6314,99.3988)"
           id="g164"><path
             id="path166"
             style="fill:#ffffff;fill-opacity:1;fill-rule:nonzero;stroke:none"
             d="m 0,0 -10.454,0.407 0.232,5.969 1.799,-0.07 -0.15,-3.862 2.515,-0.098 0.145,3.706 1.8,-0.07 -0.145,-3.706 2.54,-0.099 0.151,3.862 1.799,-0.071 z" /></g><g
           transform="translate(208.0161,111.7402)"
           id="g168"><path
             id="path170"
             style="fill:#ffffff;fill-opacity:1;fill-rule:nonzero;stroke:none"
             d="M 0,0 C 0,-0.499 -0.055,-0.959 -0.162,-1.38 -0.27,-1.801 -0.404,-2.177 -0.567,-2.508 -0.73,-2.84 -0.898,-3.125 -1.071,-3.364 -1.245,-3.603 -1.397,-3.792 -1.528,-3.93 l -1.7,1.08 c 0.124,0.143 0.26,0.314 0.413,0.514 0.152,0.199 0.296,0.422 0.434,0.67 0.138,0.247 0.252,0.515 0.342,0.803 0.092,0.289 0.137,0.596 0.137,0.921 0,0.304 -0.047,0.572 -0.14,0.804 -0.093,0.232 -0.231,0.415 -0.415,0.55 -0.184,0.134 -0.413,0.201 -0.688,0.201 -0.25,0 -0.461,-0.054 -0.637,-0.162 C -3.958,1.342 -4.116,1.183 -4.258,0.973 -4.399,0.762 -4.538,0.504 -4.677,0.198 -4.813,-0.107 -4.965,-0.456 -5.13,-0.846 -5.257,-1.137 -5.401,-1.413 -5.563,-1.675 -5.727,-1.938 -5.916,-2.171 -6.132,-2.375 -6.347,-2.58 -6.591,-2.741 -6.863,-2.86 -7.136,-2.979 -7.441,-3.039 -7.78,-3.039 c -0.402,0 -0.786,0.082 -1.154,0.247 -0.368,0.165 -0.695,0.401 -0.982,0.706 -0.288,0.306 -0.517,0.67 -0.686,1.093 -0.169,0.424 -0.252,0.895 -0.252,1.415 0,0.391 0.049,0.782 0.151,1.172 0.101,0.39 0.235,0.755 0.399,1.093 0.165,0.338 0.345,0.625 0.539,0.859 L -8.154,2.667 C -8.311,2.481 -8.451,2.27 -8.575,2.033 -8.7,1.797 -8.801,1.545 -8.877,1.278 -8.953,1.011 -8.99,0.742 -8.99,0.468 c 0,-0.308 0.052,-0.569 0.158,-0.784 0.105,-0.215 0.246,-0.38 0.421,-0.495 0.176,-0.114 0.371,-0.172 0.587,-0.172 0.178,0 0.329,0.038 0.453,0.114 0.125,0.076 0.232,0.183 0.323,0.322 0.092,0.139 0.178,0.306 0.26,0.502 0.083,0.194 0.171,0.409 0.264,0.644 0.207,0.503 0.412,0.958 0.615,1.366 0.203,0.407 0.428,0.757 0.675,1.047 0.247,0.291 0.536,0.513 0.866,0.667 0.329,0.154 0.722,0.232 1.179,0.232 0.668,0 1.24,-0.164 1.718,-0.492 0.478,-0.327 0.842,-0.784 1.094,-1.37 C -0.126,1.463 0,0.781 0,0" /></g><g
           transform="translate(60.2437,200.4462)"
           id="g172"><path
             id="path174"
             style="fill:#ffffff;fill-opacity:1;fill-rule:nonzero;stroke:none"
             d="m 0,0 c -0.719,0.043 -1.735,-0.597 -2.336,-1.186 -0.299,-0.293 -0.643,-0.538 -0.989,-0.397 -0.407,0.164 -0.421,0.887 -0.782,1.228 -0.359,0.338 -0.779,0.456 -1.134,0.674 -0.473,0.293 -0.91,0.556 -1.352,0.817 -0.661,0.39 -0.902,0.826 -1.697,0.58 -0.203,-0.061 -0.38,-0.034 -0.612,-0.168 -0.492,-0.841 0.197,-0.956 0.554,-1.862 0.167,-0.478 0.332,-0.953 0.497,-1.423 0.161,-0.348 0.399,-0.568 0.517,-0.874 0.133,-0.357 0.285,-0.846 0.448,-1.202 0.165,-0.371 0.298,-0.665 0.436,-0.979 0.127,-0.291 0.347,-0.473 0.357,-0.716 0.009,-0.274 -0.407,-0.653 -0.519,-0.905 -0.336,-0.738 -0.759,-1.444 -1.081,-2.181 -0.143,-0.331 -0.216,-0.855 -0.509,-1.126 -0.446,-0.412 -1.835,0.396 -1.993,-0.41 0.019,-0.077 0.044,-0.156 0.063,-0.234 0.015,-0.233 -0.142,-0.452 -0.061,-0.702 0.101,-0.316 0.885,-1.065 1.127,-1.207 1.086,-0.636 2.644,-0.606 3.906,-0.342 0.462,0.093 1.125,0.597 1.532,0.603 0.3,-0.266 0.363,-1.033 0.877,-1.149 0.48,-0.1 0.883,0.323 1.301,-0.03 l 0.41,-0.749 c 0.52,-0.502 1.374,-1.295 1.59,-2.039 -0.015,-0.191 -0.029,-0.381 -0.049,-0.573 0.062,-0.287 0.303,-0.642 0.422,-0.926 0.254,-0.589 0.949,-0.874 1.318,-1.126 0.145,-0.119 0.293,-0.236 0.442,-0.354 0.211,-0.106 0.473,-0.104 0.678,-0.185 0.312,-0.123 1.332,-0.623 1.615,-0.529 0.277,0.089 0.886,-0.086 0.988,0.073 0.136,0.226 0.075,1.112 -0.023,1.373 -0.081,0.234 -0.312,0.213 -0.442,0.414 l -0.575,0.77 c -0.486,0.44 -0.854,1.06 -1.101,1.596 -0.219,0.25 -0.449,0.503 -0.672,0.751 -0.161,0.236 -0.319,0.469 -0.479,0.705 -0.161,0.293 -0.495,0.57 -0.729,0.883 -0.267,0.348 -0.182,0.918 -0.449,1.27 -0.221,0.191 -0.31,0.552 -0.41,0.926 -0.107,0.389 0.181,0.632 0.205,1.007 0.023,0.312 0.046,0.625 0.068,0.931 -0.06,0.563 -0.408,1.409 -0.228,1.906 0.126,0.343 0.914,0.714 0.78,1.16 -0.024,0.084 -0.115,0.106 -0.202,0.089 -0.008,0.005 -0.021,0.011 -0.039,0.018 0.046,0.062 0.215,1.029 0.22,1.132 -0.018,0.101 -0.033,0.203 -0.05,0.301 0.132,0.117 0.263,0.234 0.393,0.349 0.2,0.227 0.481,0.716 0.501,0.996 C 2.839,-1.587 1.476,-0.089 0,0 m -3.039,-11.105 c -0.068,-0.175 -0.028,-0.337 -0.231,-0.486 -0.454,0.11 -0.677,0.593 -0.943,1.043 -0.232,0.286 -0.461,0.567 -0.69,0.855 -0.444,0.841 -0.406,1.61 -0.228,2.306 0.068,0.018 0.135,0.038 0.201,0.06 0.401,-0.203 0.561,-0.899 0.723,-1.224 0.519,-1.039 1.524,-1.695 1.168,-2.554 m 4.404,-5.205 c 0,0 -0.81,-0.66 -0.534,0.155 0.038,0.023 0.024,0.445 0.067,0.471 0.053,-0.01 0.215,-0.161 0.268,-0.171 0.114,-0.086 0.199,-0.455 0.199,-0.455 m -2.453,8.983 c -0.077,0.089 -0.147,0.157 -0.208,0.23 -0.652,0.957 -0.846,1.616 -1.021,2.26 0.073,0.015 0.168,0 0.245,0.018 0.716,-1.028 1.414,-2.46 0.984,-2.508 m 0.416,3.318 c -0.495,-0.323 -1.156,0.032 -1.145,0.557 0.01,0.244 0.233,0.381 0.4,0.602 0.223,0.149 0.424,0.221 0.603,0.121 0.433,-0.262 0.298,-1.035 0.142,-1.28" /></g><g
           transform="translate(131.0552,199.1181)"
           id="g176"><path
             id="path178"
             style="fill:#ffffff;fill-opacity:1;fill-rule:nonzero;stroke:none"
             d="m 0,0 c -0.103,0.048 -0.206,0.099 -0.309,0.146 -0.165,0.167 -0.333,0.338 -0.5,0.504 -0.371,0.265 -0.427,-0.021 -0.612,0.53 0.688,1.248 0.191,2.783 0.576,4.098 0.057,0.194 0.145,0.378 0.205,0.572 0.267,0.851 0.1,1.696 0.86,2.31 0.213,0.257 0.497,0.647 0.612,0.983 0.231,0.669 -0.218,1.957 -0.439,2.33 -0.07,0.112 -0.242,0.1 -0.345,0.188 -0.104,0.089 -0.136,0.24 -0.278,0.306 -0.105,0.027 -0.208,0.053 -0.315,0.079 -0.096,0.084 -0.186,0.168 -0.282,0.253 -0.792,0.292 -1.216,-0.196 -1.641,-0.404 -1.667,-0.815 -2.611,-2.332 -4.163,-3.282 -0.151,-0.092 -0.394,-0.15 -0.466,0.012 -0.025,0.057 -0.015,0.124 -0.005,0.186 0.133,0.788 0.31,1.652 0.943,2.139 0.313,0.241 0.705,0.359 1.03,0.584 0.552,0.382 0.852,1.024 1.266,1.552 0.509,0.652 1.217,1.146 2.003,1.401 0.37,0.12 0.766,0.194 1.08,0.423 0.313,0.23 0.509,0.688 0.298,1.014 -0.083,0.129 -0.219,0.221 -0.289,0.359 -0.104,0.208 -0.115,0.553 -0.348,0.547 -0.079,-0.002 -0.146,-0.055 -0.215,-0.093 -0.318,-0.175 -0.709,-0.064 -1.071,-0.08 -0.49,-0.021 -0.934,-0.278 -1.356,-0.527 -0.988,-0.586 -2.001,-1.192 -2.709,-2.098 -0.508,-0.651 -0.835,-1.427 -1.328,-2.089 -0.375,-0.503 -0.839,-0.93 -1.3,-1.355 -0.082,-0.075 -0.178,-0.155 -0.289,-0.143 -0.229,0.025 -0.225,0.358 -0.177,0.584 0.217,1.03 -0.11,2.16 -0.845,2.913 -0.169,0.174 -0.376,0.394 -0.29,0.621 0.075,0.2 0.327,0.252 0.539,0.283 1.551,0.225 2.99,0.886 4.412,1.511 1.493,0.657 2.966,1.308 4.431,2.028 0.213,0.105 0.437,0.22 0.563,0.422 0.167,0.266 0.116,0.614 0.011,0.911 -0.285,0.806 -0.943,1.472 -1.745,1.766 -0.497,0.183 -1.196,0.139 -1.382,-0.356 -0.144,-0.379 0.106,-0.82 -0.026,-1.204 -0.059,-0.171 -0.188,-0.308 -0.316,-0.436 -1.684,-1.684 -3.853,-2.783 -5.982,-3.853 -0.442,-0.221 -0.904,-0.448 -1.397,-0.442 -0.354,0.005 -0.695,0.13 -1.043,0.201 -0.781,0.157 -1.617,0.024 -2.31,-0.368 -0.208,-0.117 -0.422,-0.29 -0.438,-0.527 0.505,0.073 1.018,0.146 1.524,0.083 0.506,-0.062 1.014,-0.279 1.322,-0.687 0.481,-0.64 0.349,-1.535 0.195,-2.321 -0.334,-1.7 -0.67,-3.407 -1.221,-5.049 -0.173,-0.518 -0.379,-1.046 -0.767,-1.43 -0.211,-0.21 -0.476,-0.375 -0.622,-0.634 -0.212,-0.374 -0.127,-0.838 -0.035,-1.258 0.065,-0.303 0.142,-0.626 0.372,-0.835 0.123,-0.111 0.278,-0.179 0.431,-0.243 0.352,-0.149 0.714,-0.295 1.096,-0.308 0.381,-0.012 0.79,0.136 0.99,0.461 0.078,0.127 0.12,0.273 0.161,0.416 0.123,0.426 0.244,0.851 0.365,1.276 0.119,0.417 0.245,0.847 0.518,1.183 0.242,0.299 0.589,0.506 0.81,0.822 0.264,0.376 0.32,0.862 0.555,1.258 0.092,0.158 0.327,0.301 0.433,0.153 C -9.19,7.296 -9.239,7.173 -9.285,7.074 -9.604,6.382 -9.759,5.615 -9.731,4.854 -9.728,4.729 -9.717,4.6 -9.657,4.49 c 0.066,-0.119 0.181,-0.201 0.281,-0.294 0.291,-0.272 0.458,-0.672 0.444,-1.07 0.269,0.227 0.711,0.204 0.954,-0.048 0.215,0.103 0.007,0.411 -0.056,0.642 -0.049,0.177 0.013,0.363 0.078,0.535 0.361,0.964 0.871,2.96 2.036,3.149 C -5.883,7.27 -6.001,7.018 -5.949,6.922 -5.9,6.835 -5.643,6.789 -5.595,6.665 -5.415,6.215 -5.904,4.955 -6.022,4.674 -6.121,4.573 -6.213,4.477 -6.312,4.375 -6.387,4.204 -6.344,4.056 -6.421,3.921 -7.459,2.074 -9.771,0.662 -11.872,0.446 c -0.176,-0.019 -0.342,-0.147 -0.49,-0.197 -0.149,-0.05 -0.511,-0.151 -0.893,-0.198 0.546,-0.175 1.248,-0.167 1.533,-0.171 0.284,-0.005 0.695,0.033 1.034,0.01 0.344,-0.028 0.89,-0.085 1.108,-0.235 0.26,-0.171 0.255,-0.629 0.793,-0.576 0.513,0.049 1.423,0.6 1.812,0.922 0.429,0.355 0.999,0.725 1.371,1.136 0.195,0.215 0.296,0.608 0.577,0.719 0.032,10e-4 0.068,0.003 0.105,0.008 0.211,-0.236 0.228,-0.156 0.489,-0.323 0.521,-0.49 0.837,-0.793 1.182,-1.42 0.426,-0.773 1.007,-1.714 1.719,-2.261 0.289,-0.222 1.274,-0.554 1.644,-0.503 0.093,0.043 0.183,0.082 0.277,0.121 0.139,0.033 0.247,0.008 0.33,0.1 C 1.386,-1.684 0.494,-0.411 0,0 m -4.639,15.193 c 0.05,0.042 0.264,0.229 0.526,0.303 0.262,0.074 0.434,0.237 0.573,0.266 0,0 -0.282,-0.31 -0.65,-0.468 -0.322,-0.137 -0.533,-0.436 -0.613,-0.509 0,0 0.063,0.321 0.164,0.408 M -4.887,14.26 c 0.194,0.195 0.414,0.523 0.536,0.601 0.124,0.08 0.161,0.088 0.253,0.145 0.035,0.059 0.137,0.079 0.308,0.154 0.531,0.356 0.931,0.467 0.945,0.466 -0.435,-0.346 -0.655,-0.654 -1.085,-0.92 -0.132,-0.04 -0.745,-0.571 -0.881,-0.613 -0.218,-0.169 -0.141,-0.434 -0.512,-0.582 -0.033,-0.002 -0.069,-0.005 -0.106,-0.008 -0.013,0.031 -0.031,0.06 -0.047,0.093 -0.103,0.358 0.437,0.509 0.589,0.664 M -3.162,5.391 C -3.234,5.131 -3.522,4.878 -3.558,4.71 -3.533,4.625 -3.508,4.538 -3.485,4.452 -3.401,3.893 -3.511,3.759 -3.728,3.425 -3.735,3.093 -3.188,2.318 -3.779,2.097 -3.831,2.078 -4.529,2.2 -4.626,2.251 -4.687,2.285 -4.699,2.297 -4.724,2.364 -4.821,2.699 -4.46,2.81 -4.401,3.051 -4.42,3.179 -4.44,3.305 -4.462,3.429 c 0.115,0.161 0.191,0.234 0.419,0.268 0.102,0.155 0.302,0.807 0.328,1.007 0.009,0.061 -0.201,0.344 -0.228,0.435 -0.043,0.148 -0.054,0.306 -0.057,0.46 -0.008,0.388 0.174,0.802 0.064,1.184 -0.083,0.292 -0.229,0.645 -0.439,0.862 -0.222,0.228 -0.609,0.321 -0.679,0.674 -0.049,0.244 0.105,0.436 0.173,0.655 0.063,0.201 0.042,0.449 0.138,0.636 0.118,0.229 0.414,0.318 0.547,0.539 0.055,0.093 0.079,0.205 0.146,0.289 0.111,0.141 0.306,0.174 0.483,0.187 0.097,0.007 0.197,0.01 0.289,-0.021 0.317,-0.11 0.368,-0.828 0.407,-1.113 -0.106,-1.33 0.07,-2.807 -0.291,-4.1" /></g><g
           transform="translate(76.4253,212.9452)"
           id="g180"><path
             id="path182"
             style="fill:#ffffff;fill-opacity:1;fill-rule:nonzero;stroke:none"
             d="m 0,0 c -0.675,-0.91 -1.666,-1.491 -2.331,-2.43 -1.946,-2.749 -3.148,-5.79 -2.442,-9.204 0.115,-0.559 0.273,-1.16 0.043,-1.682 -0.444,0.447 -0.739,1.017 -1.028,1.576 -0.361,0.7 -0.722,1.4 -1.084,2.1 -0.115,0.222 -0.235,0.452 -0.434,0.602 -0.199,0.151 -0.499,0.198 -0.693,0.04 -0.179,-0.147 -0.206,-0.419 -0.141,-0.641 0.065,-0.223 0.203,-0.416 0.308,-0.622 0.237,-0.458 0.316,-0.978 0.41,-1.485 0.364,-1.947 1.009,-3.842 1.911,-5.606 0.592,-1.16 1.419,-2.357 2.684,-2.665 0.907,-0.221 1.926,0.105 2.536,0.812 0.136,0.157 0.253,0.332 0.416,0.461 0.172,0.137 0.383,0.212 0.588,0.291 0.94,0.365 1.821,0.854 2.641,1.437 0.9,0.641 2.336,2.301 3.552,1.348 0.508,-0.399 0.684,-1.228 1.315,-1.368 0.537,-0.118 1.009,0.364 1.309,0.824 0.175,0.27 0.341,0.565 0.358,0.887 0.016,0.325 -0.12,0.635 -0.253,0.931 -1.131,2.519 -2.264,5.042 -3.593,7.463 C 5.217,-5.375 4.261,-3.8 4.08,-2.034 4.025,-1.495 4.038,-0.927 3.788,-0.447 3.503,0.1 2.905,0.439 2.294,0.523 1.499,0.633 0.69,0.381 0,0 m 1.518,-5.331 c -0.278,0.355 -0.719,0.616 -0.417,1.065 0.063,0.005 0.126,0.01 0.191,0.017 0.265,-0.277 0.752,-1.129 0.814,-1.47 C 2.033,-5.82 1.948,-5.824 1.84,-5.821 1.697,-5.693 1.666,-5.512 1.518,-5.331 m -5.213,-3.165 c 0.273,0.899 0.642,1.785 1.097,2.621 0.2,0.014 0.594,-0.464 0.532,-0.701 -0.18,-0.286 -0.354,-0.575 -0.535,-0.862 -0.351,-0.71 -0.547,-1.493 -1.15,-2.127 -0.041,0.004 -0.082,0.007 -0.129,0.011 -0.157,0.373 0.096,0.751 0.185,1.058 m 8.162,-4.797 C 4.374,-13.646 4.13,-13.845 4.074,-13.959 3.979,-14.051 3.889,-14.14 3.791,-14.231 3.382,-14.722 2.842,-15.22 2.276,-15.666 c -0.147,-0.089 -0.299,-0.172 -0.448,-0.259 -0.411,-0.327 -0.741,-0.804 -1.131,-1.133 -0.209,-0.183 -0.51,-0.22 -0.666,-0.412 -0.121,-0.151 -0.126,-0.341 -0.262,-0.502 -0.381,-0.16 -0.792,0.445 -1.05,0.77 -0.164,0.212 -0.372,0.273 -0.534,0.443 -0.145,0.15 -0.13,0.355 -0.186,0.503 -0.066,0.083 -0.139,0.165 -0.211,0.249 -0.17,0.212 -0.126,0.407 -0.16,0.575 -0.076,0.346 -0.372,0.691 -0.178,0.947 0.152,0.166 0.469,0.101 0.644,0.302 0.259,0.288 0.165,0.768 0.486,0.956 0.156,-0.125 0.129,-0.358 0.106,-0.505 -0.045,-0.251 -0.114,-0.479 -0.082,-0.768 0.072,-0.184 0.144,-0.376 0.216,-0.565 0.029,-0.231 0.06,-0.462 0.086,-0.694 0.034,-0.248 -0.002,-0.726 0.333,-0.788 1.056,-0.189 1.303,0.719 1.724,1.389 0.667,1.065 1.129,2.156 0.679,3.563 -0.238,0.335 -0.475,0.671 -0.712,1.006 -0.206,0.256 -0.215,0.649 -0.439,0.833 l -0.015,0.03 C 0.449,-9.86 0.418,-9.998 0.387,-10.132 c -0.194,-0.258 -0.679,-0.227 -0.921,-0.306 -0.262,-0.084 -0.482,-0.307 -0.607,-0.459 -0.182,-0.228 -0.128,-0.555 -0.24,-0.806 -0.23,-0.521 -0.462,-1.051 -0.825,-1.518 -0.252,-0.133 -0.541,-0.068 -0.674,0.166 0.032,0.081 0.061,0.165 0.091,0.247 -0.004,0.226 -0.168,0.264 -0.116,0.563 -0.116,0.131 -0.356,0.208 -0.42,0.418 0.005,0.117 0.012,0.233 0.015,0.349 l -0.149,0.285 c 0.014,0.355 0.588,0.763 0.81,1.063 0.33,0.458 0.632,0.885 0.871,1.36 0.216,0.428 0.294,0.894 0.554,1.316 0.062,0.014 0.124,0.024 0.182,0.035 0.565,-0.554 0.994,-1.476 1.524,-2.203 0.425,0.159 0.656,-0.555 0.945,-0.844 0.24,-0.237 1.156,-0.936 1.243,-1.249 0.09,-0.311 -0.017,-1.045 -0.07,-1.36 -0.069,-0.412 -0.471,-0.812 -0.254,-1.316 0.01,-0.005 0.023,-0.015 0.034,-0.021 0.147,-0.002 0.375,0.079 0.466,0.224 0.073,0.241 0.151,0.48 0.224,0.721 0.077,0.16 0.246,0.259 0.342,0.421 0.067,0.11 0.072,0.248 0.174,0.354 0.369,0.358 0.813,-0.24 0.881,-0.601 m -4.424,-0.004 c 0.029,0.275 0.185,0.594 0.186,0.875 -0.047,0.159 -0.088,0.317 -0.132,0.473 0.089,0.143 0.175,0.281 0.264,0.421 0.044,-0.01 0.088,-0.02 0.135,-0.032 0.242,-0.324 0.055,-1.947 -0.293,-2.155 -0.126,0.096 -0.171,0.285 -0.16,0.418 M 1.68,-7.85 C 1.828,-8.294 2.163,-8.66 2.233,-9.018 2.221,-9.041 2.207,-9.06 2.188,-9.084 2.159,-9.105 2.13,-9.125 2.104,-9.147 c -0.76,0.439 -0.963,1.019 -1.611,1.832 -0.178,0.183 -0.349,0.364 -0.529,0.547 -0.237,0.303 0.033,0.49 -0.222,0.762 -0.196,0.005 -0.399,-0.045 -0.562,0.044 -0.154,0.156 -0.313,0.305 -0.463,0.459 -0.466,0.427 -0.859,0.592 -0.792,1.306 0.015,0.13 -0.005,0.25 0.075,0.359 0.049,0.032 0.098,0.066 0.147,0.101 0.134,-0.044 0.251,-0.13 0.409,-0.087 0.08,0.181 0.082,0.321 0.197,0.503 l 0.205,0.108 c 0.255,-0.162 0.216,-0.623 0.305,-0.883 0.133,-0.209 0.271,-0.415 0.407,-0.625 0.695,-0.912 1.639,-2.008 2.01,-3.129 m -2.298,4.78 c -0.088,0.044 -0.122,0.045 -0.193,0.18 0.043,0.154 0.091,0.19 0.207,0.331 0.187,0.099 0.417,0.237 0.577,0.239 0.246,0.016 0.669,-0.539 0.756,-0.86 C 0.693,-3.243 0.67,-3.274 0.564,-3.328 0.169,-3.219 -0.171,-3.027 -0.618,-3.07 m 6.327,-8.727 c -0.019,-0.03 -0.034,-0.057 -0.054,-0.087 -0.341,-0.016 -0.558,0.301 -0.838,0.517 -0.461,0.368 -1.123,0.644 -1.333,1.465 -0.071,0.286 0.064,0.561 0.026,0.835 -0.053,0.155 -0.114,0.311 -0.17,0.469 -0.211,0.415 -0.423,0.837 -0.638,1.248 -0.007,0.145 -0.013,0.285 -0.022,0.427 -0.083,0.305 -0.502,0.167 -0.518,0.528 -0.009,0.116 0.049,0.175 0.096,0.273 0.019,0.002 0.038,0.006 0.056,0.01 0.35,-0.026 0.287,-0.545 0.514,-0.753 0.659,-0.587 0.897,-1.489 1.503,-2.316 0.3,-0.406 0.631,-1.046 0.783,-1.486 0.155,-0.434 0.469,-0.718 0.595,-1.13" /></g><g
           transform="translate(150.27,195.1889)"
           id="g184"><path
             id="path186"
             style="fill:#ffffff;fill-opacity:1;fill-rule:nonzero;stroke:none"
             d="m 0,0 c -0.249,0.582 -0.538,1.137 -0.837,1.716 -0.168,0.331 -0.266,0.736 -0.527,1.038 -0.13,0.114 -0.26,0.23 -0.387,0.343 -0.26,0.295 -0.58,0.702 -0.878,0.97 -0.318,0.205 -0.637,0.409 -0.948,0.611 -0.047,0.306 1.058,1.482 1.333,1.64 0.1,0.062 1.055,-0.155 1.236,-0.178 C -0.284,6.096 0.437,6.053 1.159,6.01 1.404,5.993 1.695,5.753 1.959,5.741 2.251,5.731 2.523,5.982 2.797,6.05 3.052,6.109 3.447,6.008 3.638,6.237 3.991,6.668 3.23,7.202 2.923,7.463 2.335,7.954 1.771,8.951 0.672,9.111 0.509,9.096 0.341,9.082 0.176,9.069 0.151,9.089 0.128,9.104 0.104,9.124 c -0.184,0.248 0.479,1.189 0.667,1.43 0.17,0.226 0.807,0.996 0.855,1.421 -0.044,0.108 -0.09,0.226 -0.135,0.338 0.012,0.099 0.019,0.199 0.028,0.301 -0.061,0.073 -0.126,0.151 -0.185,0.225 -0.25,0.379 -0.187,0.473 -0.822,0.768 -0.184,-0.012 -0.751,0.012 -0.881,-0.071 -0.04,-0.064 -0.087,-0.128 -0.132,-0.193 -0.086,-0.07 -0.174,-0.139 -0.257,-0.212 C -0.897,12.972 -0.859,12.676 -1.024,12.455 -1.516,11.786 -2.039,10.961 -2.59,10.336 -2.762,10.184 -2.934,10.029 -3.105,9.876 -3.275,9.683 -3.325,9.501 -3.51,9.401 -3.939,9.172 -4.545,9.281 -5.069,9.32 -5.826,9.305 -6.577,9.296 -7.335,9.285 -7.563,9.323 -7.799,9.361 -8.027,9.401 -8.744,9.479 -9.373,10.158 -9.887,9.641 -10.493,9.023 -10.08,8.454 -9.609,8.036 -9.388,7.835 -9.251,7.593 -8.97,7.395 -8.165,6.829 -7.081,6.66 -6.377,6.626 -6.257,6.621 -6.17,6.687 -6.029,6.656 -5.783,6.175 -7.181,5.479 -7.49,5.251 -8.66,4.384 -10.06,3.785 -11.448,3.53 -11.941,3.442 -12.504,3.379 -12.995,3.349 -13.29,3.33 -13.49,3.478 -13.728,3.308 c -0.012,-0.057 -0.026,-0.11 -0.039,-0.164 0.121,-0.169 0.322,-0.179 0.518,-0.325 0.189,-0.163 0.382,-0.324 0.574,-0.49 0.238,-0.106 0.478,-0.212 0.713,-0.32 0.553,-0.391 1.185,-0.286 1.677,-0.255 0.296,-0.014 0.587,-0.03 0.883,-0.046 0.22,0.026 0.388,0.205 0.592,0.245 0.914,0.177 1.687,0.65 2.509,1.082 0.423,0.221 1.441,1.043 1.838,1.041 0.196,-0.247 0.209,-0.54 0.275,-0.835 0.076,-0.225 0.149,-0.45 0.227,-0.679 0.097,-0.465 0.132,-0.906 0.207,-1.378 0.082,-0.495 0.375,-1.303 0.631,-1.733 0.172,-0.294 0.417,-0.541 0.562,-0.842 0.29,-0.583 1.457,-1.308 2.082,-0.975 C 0.395,-1.894 0.268,-0.636 0,0" /></g><g
           transform="translate(170.3823,184.3398)"
           id="g188"><path
             id="path190"
             style="fill:#ffffff;fill-opacity:1;fill-rule:nonzero;stroke:none"
             d="M 0,0 C -0.124,0.302 -0.127,0.594 -0.358,0.909 -0.828,1.538 -1.523,1.922 -2.163,2.545 -2.411,2.732 -2.658,2.913 -2.907,3.099 -3.028,3.23 -3.204,3.474 -3.422,3.597 -3.657,3.733 -3.863,3.65 -4.094,3.731 -4.587,3.906 -5.114,4.313 -4.8,4.76 c 0.591,0.131 1.196,0.193 1.81,0.208 0.167,0.037 0.329,0.071 0.489,0.106 0.104,-0.029 0.208,-0.059 0.31,-0.092 0.233,0.136 0.463,0.266 0.699,0.396 0.334,0.317 0.177,0.615 0.321,0.882 L -1.156,6.25 C -0.953,6.32 -0.712,6.092 -0.48,6.027 -0.066,5.912 0.591,5.962 1.001,5.533 1.153,5.376 1.116,5.118 1.332,5.016 1.473,4.944 1.605,4.991 1.733,4.967 2.47,4.828 3.159,4.608 3.855,4.628 3.954,4.613 4.057,4.603 4.153,4.586 4.436,4.627 5.375,4.982 5.401,5.414 5.479,6.669 3.873,8.096 2.309,8.829 1.712,9.104 1.128,9.513 0.52,9.691 0.166,9.748 -0.187,9.807 -0.541,9.865 c -0.231,0.099 -0.465,0.199 -0.699,0.3 -0.555,0.191 -1.058,0.343 -1.652,0.572 -0.137,0.002 -0.274,0.006 -0.405,0.013 -0.141,0.064 -0.272,0.132 -0.404,0.2 -0.211,0.056 -0.417,0.108 -0.681,0.18 -0.188,0.054 -0.336,-0.043 -0.504,-0.034 -0.198,0.071 -0.399,0.143 -0.595,0.21 -0.351,0.054 -0.65,-0.03 -0.979,-0.023 -0.355,0.01 -0.671,0.185 -1.05,0.272 -0.358,0.087 -0.791,0.164 -1.175,0.32 -0.423,0.17 -0.79,0.546 -0.593,0.881 0.434,0.283 1.023,0.19 1.513,0.164 0.665,-0.044 1.355,-0.051 2.036,-0.067 0.442,-0.006 0.959,0.098 1.422,-0.056 0.574,-0.193 0.76,-0.874 1.281,-1.025 0.448,-0.132 0.696,0.251 0.99,0.249 0.135,-0.036 0.264,-0.074 0.399,-0.108 0.585,-0.18 1.016,-0.952 1.48,-1.058 0.43,0.015 0.865,0.031 1.302,0.048 0.126,0.034 0.253,0.067 0.376,0.101 C 1.793,11.001 1.974,10.838 2.277,10.772 2.58,10.698 2.996,10.708 3.291,10.63 3.436,10.551 3.572,10.473 3.715,10.392 3.9,10.325 4.093,10.253 4.282,10.185 4.432,10.056 4.584,9.927 4.73,9.798 5.261,9.348 5.812,9.157 6.319,9.143 6.492,9.137 6.827,9.078 6.992,9.138 8.681,9.758 9.429,11.872 7.735,13.053 7.466,13.101 7.226,13.254 6.974,13.268 6.49,13.308 6.021,13.142 5.555,13.064 5.084,12.987 4.6,13.018 4.12,12.958 3.875,12.93 3.02,12.657 2.807,12.984 c -0.15,0.226 0.091,0.382 0.098,0.625 0.006,0.254 -0.37,0.849 -0.742,1.01 -0.556,0.244 -1.055,0.159 -1.575,0.277 -0.548,0.124 -1.057,0.255 -1.578,0.366 -0.233,0.047 -0.828,-0.053 -1.005,0.242 -0.238,0.359 0.315,0.829 0.204,1.204 -0.12,0.385 -0.684,0.438 -0.949,0.569 -0.228,0.178 -0.451,0.353 -0.678,0.526 -0.531,0.242 -1.032,0.082 -1.449,-0.316 -0.281,-0.264 -0.141,-0.635 -0.144,-0.875 -0.007,-0.739 0.018,-1.585 0.218,-2.291 0.077,-0.269 0.527,-0.858 0.254,-1.118 -0.146,-0.077 -1.744,0.128 -2.039,0.15 -0.781,0.062 -1.622,0.097 -2.414,0.115 -0.171,-0.04 -0.347,-0.075 -0.516,-0.112 -0.216,-0.017 -0.434,-0.038 -0.653,-0.058 -0.06,-0.035 -0.121,-0.068 -0.186,-0.107 -0.643,-0.088 -1.492,-0.353 -1.81,-1.211 -0.052,-0.135 -0.105,-0.271 -0.156,-0.406 -0.018,-0.266 0.169,-0.871 0.575,-1 0.281,-0.094 0.616,-0.016 0.934,-0.128 0.484,-0.174 0.849,-0.386 1.299,-0.512 0.481,-0.136 1.078,-0.143 1.549,-0.127 0.434,0.015 0.838,0.169 1.283,0.156 1.121,-0.033 1.9,-0.344 2.948,-0.692 C -3.103,9.065 -2.467,8.897 -1.823,8.77 -1.487,8.704 -1.15,8.648 -0.812,8.604 -0.706,8.59 -0.467,8.612 -0.381,8.567 -0.258,8.503 0.002,8.205 0.084,8.108 0.282,7.883 0.891,8.007 0.653,7.613 0.476,7.32 -0.176,7.548 -0.42,7.606 -0.952,7.731 -1.717,7.721 -2.241,7.882 -3.214,8.18 -4.206,8.434 -5.22,8.545 -5.916,8.621 -6.594,8.721 -6.825,7.931 -6.915,7.618 -6.64,6.97 -6.481,6.698 -6.323,6.439 -6.102,6.396 -6.139,6.107 -6.312,5.881 -6.568,5.887 -6.78,5.758 -6.943,5.609 -7.111,5.459 -7.274,5.309 c -0.26,-0.093 -0.54,0.102 -0.835,0.183 -0.414,0.083 -0.828,0.168 -1.242,0.253 -0.246,0.086 -0.504,0.172 -0.753,0.258 -0.876,0.179 -1.975,0.121 -2.718,-0.495 -0.173,-0.263 -0.349,-0.524 -0.52,-0.786 -0.375,-0.378 -0.497,-0.774 -0.503,-1.166 -0.007,-0.187 0.118,-0.34 0.152,-0.523 0.071,-0.381 0.142,-0.778 0.317,-1.143 0.453,-0.915 2.142,-2.18 3.246,-2.56 1.268,-0.432 2.287,-0.226 3.443,-0.109 0.29,0.029 0.574,-0.079 0.853,0.025 0.445,0.166 0.975,0.66 1.225,1.256 0.14,0.331 0.1,0.759 0.44,0.953 0.351,-0.098 0.739,-0.42 0.946,-0.701 0.172,-0.236 0.262,-0.523 0.408,-0.747 0.224,-0.354 0.565,-0.785 0.867,-1.106 0.178,-0.183 0.391,-0.175 0.547,-0.214 0.744,-0.181 0.774,-0.32 1.438,0.084 0.166,0.104 0.289,0.188 0.365,0.417 C 0.285,-0.532 0.105,-0.275 0,0 M 5.149,12.418 C 5.299,12.2 4.916,12.329 4.825,12.329 4.736,12.328 4.634,12.303 4.482,12.332 c -0.15,0.03 -0.212,0.008 -0.286,0.015 -0.074,0.006 -0.262,0.064 -0.339,0.115 0,0 1.145,0.171 1.292,-0.044 m -4.801,1.471 c 0.031,-0.029 0.063,-0.057 0.091,-0.086 0.035,-0.238 -0.424,-0.365 -0.555,-0.472 -0.209,-0.169 -0.203,-0.432 -0.422,-0.616 -0.212,-0.182 -0.616,-0.088 -0.896,0.118 -0.22,0.901 1.24,1.096 1.782,1.056 M -7.174,0.77 C -7.942,0.28 -9.029,0.315 -9.939,0.608 c -0.238,0.138 -0.479,0.271 -0.717,0.405 -0.475,0.24 -1.093,0.664 -1.288,1.074 -0.407,0.854 -0.293,2.12 0.893,2.565 0.186,0.068 0.563,-0.09 0.647,-0.044 0.222,0.116 0.327,0.284 0.569,0.24 C -9.453,4.785 -9.355,4.465 -8.987,4.29 -8.677,4.141 -8.361,4.135 -8.07,4.046 -7.938,3.989 -7.803,3.929 -7.672,3.873 -6.713,3.2 -6.535,2.537 -6.732,1.693 -6.796,1.411 -6.804,1.006 -7.174,0.77" /></g><g
           transform="translate(107.6187,206.2392)"
           id="g192"><path
             id="path194"
             style="fill:#ffffff;fill-opacity:1;fill-rule:nonzero;stroke:none"
             d="m 0,0 c -0.434,-0.164 -0.458,-0.488 -0.731,-0.794 -0.302,-0.339 -0.762,-0.361 -1.072,-0.671 -0.083,-0.084 -0.144,-0.191 -0.243,-0.256 -0.126,-0.085 -0.287,-0.088 -0.439,-0.086 -1.936,0.018 -4.299,-0.229 -5.132,1.884 -0.177,0.455 -0.177,1.115 0.104,1.314 0.253,0.186 0.515,-0.059 0.629,-0.171 0.254,-0.252 0.347,-0.71 0.609,-0.95 0.26,-0.242 0.659,-0.125 0.993,-0.27 0.181,-0.103 0.361,-0.207 0.545,-0.312 0.034,0.014 0.067,0.025 0.1,0.039 0.113,0.08 0.099,0.188 0.163,0.295 0.093,0.084 0.187,0.167 0.279,0.254 0.134,0.256 -0.006,1.018 0.022,1.352 0.185,0.189 0.483,0.129 0.766,0.249 0.195,0.136 0.387,0.266 0.581,0.397 0.256,0.253 0.805,1.027 0.886,1.375 0.068,0.287 0.057,0.586 0.142,0.889 0.125,0.444 0.391,0.98 0.173,1.601 C -1.822,6.721 -1.677,7.715 -2.181,8.003 -2.622,8.248 -3.437,8.203 -4.044,7.89 -4.222,7.8 -4.483,7.452 -4.745,7.545 -4.777,7.563 -4.754,7.544 -4.783,7.575 -4.95,7.744 -4.807,8.207 -4.79,8.381 c 0.033,0.228 -0.022,0.464 -0.005,0.726 0.042,0.478 0.289,1.605 -0.365,1.875 -0.366,0.156 -0.896,-0.141 -1.051,-0.371 C -6.342,10.418 -6.316,10.244 -6.388,10.003 -6.46,9.758 -6.634,9.549 -6.669,9.261 -6.67,8.825 -6.676,8.383 -6.678,7.947 -6.794,7.162 -6.606,5.564 -6.901,4.949 -7.025,4.692 -7.333,4.493 -7.521,4.274 -7.775,3.977 -7.942,3.575 -8.249,3.309 -8.744,2.883 -9.132,2.856 -9.432,2.266 -9.515,1.902 -9.599,1.534 -9.683,1.175 c -0.265,-0.696 -0.824,-1.268 -1.167,-1.914 -0.111,-0.208 -0.274,-0.606 -0.456,-0.749 -0.064,-0.038 -0.112,-0.021 -0.176,-0.018 -0.055,0.056 -0.107,0.115 -0.159,0.168 -0.038,0.336 -0.075,0.662 -0.113,0.992 -0.018,0.58 -0.35,1.202 -0.254,1.685 0.056,0.293 0.591,0.569 0.816,0.76 0.266,0.233 0.549,0.747 0.67,1.08 0.269,0.734 -0.285,1.467 -0.541,2.134 -0.195,0.969 -0.386,1.937 -0.572,2.908 -0.014,0.076 -0.029,0.153 -0.066,0.221 -0.083,0.151 -0.257,0.225 -0.378,0.349 -0.139,0.142 -0.199,0.34 -0.256,0.53 -0.057,0.19 -0.119,0.387 -0.258,0.529 -0.956,0.963 -1.348,-1.95 -1.41,-2.34 -0.079,-0.515 -0.308,-0.952 -0.368,-1.489 -0.069,-0.615 -0.11,-1.233 -0.124,-1.852 -0.016,-0.721 0.097,-1.397 -0.419,-1.906 -0.164,-0.178 -0.332,-0.352 -0.498,-0.527 -0.585,-0.427 -1.296,-0.487 -1.529,-1.148 0.141,-0.508 0.887,-0.766 1.392,-0.769 0.482,-0.003 0.793,0.172 1.101,-0.279 0.316,-0.463 0.17,-1.121 0.111,-1.635 -0.087,-0.772 -0.032,-1.56 0.162,-2.312 0.243,-0.939 1.488,-1.62 2.404,-1.421 0.32,0.069 0.594,0.125 0.757,0.3 0.202,0.221 0.159,1.102 0.261,1.438 0.107,0.361 0.367,0.706 0.51,1.048 0.214,0.52 0.43,0.951 0.801,1.354 0.061,0.02 0.123,0.039 0.188,0.058 0.241,-0.169 0.389,-0.501 0.586,-0.721 0.493,-0.551 1.084,-1.082 1.792,-1.333 0.986,-0.351 2.052,-0.393 3.098,-0.432 0.706,-0.026 1.414,-0.051 2.119,0.004 0.705,0.055 1.386,0.173 2.028,0.45 0.406,0.118 0.812,0.238 1.221,0.354 0.905,0.399 1.326,0.993 1.389,1.971 0.013,0.171 -0.021,0.436 -0.123,0.571 C 2.619,-0.455 0.633,0.246 0,0 m -4.684,5.376 c 0.068,0.309 0.371,0.498 0.613,0.689 0.075,0.003 0.147,0.004 0.218,0.004 C -3.276,5.911 -3.79,4.221 -4.006,4.058 -4.28,4.017 -4.348,4.153 -4.528,4.232 -4.68,4.183 -4.721,4.049 -4.801,3.946 c -0.036,10e-4 -0.072,0 -0.11,0.002 -0.172,0.186 -0.346,0.707 -0.088,0.88 0.103,0.058 0.171,-0.007 0.308,0.005 0.05,0.151 -0.036,0.353 0.007,0.543 M -5.81,7.458 C -5.786,8.007 -5.866,8.377 -5.533,8.697 -5.515,8.695 -5.495,8.692 -5.477,8.688 -5.444,8.64 -5.386,7.589 -5.416,7.475 -5.445,7.357 -5.558,7.167 -5.673,7.102 l -0.09,-0.017 c -0.012,0.022 -0.028,0.046 -0.048,0.063 -0.067,0.121 -0.002,0.213 0.001,0.31 M -13.271,5.72 C -13.33,5.425 -13.278,5.04 -13.386,4.777 l -0.069,-0.012 c -0.018,0.006 -0.027,0.01 -0.043,0.011 -0.049,0.137 -0.151,0.786 -0.121,0.968 0.042,0.106 0.08,0.206 0.122,0.311 -0.018,0.166 -0.037,0.331 -0.055,0.494 0.058,0.15 0.114,0.3 0.17,0.449 0.008,0.138 -0.079,0.313 -0.107,0.395 -0.101,0.271 0.156,0.451 0.268,0.589 0.123,0.023 0.178,0.014 0.256,-0.008 0.515,-0.863 -0.183,-1.607 -0.306,-2.254" /></g></g></g></g></svg>