<?xml version="1.0" encoding="UTF-8"?>
<svg xmlns="http://www.w3.org/2000/svg" xmlns:xlink="http://www.w3.org/1999/xlink" width="252pt" height="252pt" viewBox="0 0 252 252" version="1.1">
<g id="surface1">
<path style=" stroke:none;fill-rule:nonzero;fill:rgb(65.490196%,14.901961%,21.960784%);fill-opacity:1;" d="M 126 252 C 56.523438 252 0 195.476562 0 126 C 0 56.523438 56.523438 0 126 0 C 195.480469 0 252 56.523438 252 126 C 252 195.476562 195.476562 252 126 252 Z M 126 3.800781 C 58.621094 3.800781 3.804688 58.621094 3.804688 126 C 3.804688 193.378906 58.621094 248.199219 126 248.199219 C 193.382812 248.199219 248.195312 193.378906 248.195312 126 C 248.195312 58.621094 193.378906 3.800781 126 3.800781 Z M 126 3.800781 "/>
<path style=" stroke:none;fill-rule:nonzero;fill:rgb(65.490196%,14.901961%,21.960784%);fill-opacity:1;" d="M 21.363281 130.28125 C 25.128906 130.023438 27.398438 131.558594 27.527344 133.472656 C 27.59375 134.453125 26.964844 135.289062 26.210938 135.859375 L 24.414062 135.027344 C 24.90625 134.617188 25.242188 134.195312 25.207031 133.664062 C 25.140625 132.691406 23.78125 131.980469 21.582031 132.128906 C 19.335938 132.28125 18.078125 133.054688 18.148438 134.117188 C 18.1875 134.714844 18.675781 135.171875 19.28125 135.484375 L 17.644531 136.550781 C 16.496094 135.988281 15.875 135.1875 15.808594 134.203125 C 15.679688 132.292969 17.539062 130.539062 21.363281 130.28125 Z M 21.363281 130.28125 "/>
<path style=" stroke:none;fill-rule:nonzero;fill:rgb(65.490196%,14.901961%,21.960784%);fill-opacity:1;" d="M 27.644531 137.425781 L 27.90625 139.222656 L 23.644531 139.84375 L 24.007812 142.300781 L 28.265625 141.679688 L 28.527344 143.457031 L 17.328125 145.09375 L 17.066406 143.316406 L 21.671875 142.644531 L 21.3125 140.183594 L 16.707031 140.855469 L 16.445312 139.0625 Z M 27.644531 137.425781 "/>
<path style=" stroke:none;fill-rule:nonzero;fill:rgb(65.490196%,14.901961%,21.960784%);fill-opacity:1;" d="M 28.988281 145.667969 L 29.363281 147.445312 L 18.289062 149.78125 L 17.914062 148.003906 Z M 28.988281 145.667969 "/>
<path style=" stroke:none;fill-rule:nonzero;fill:rgb(65.490196%,14.901961%,21.960784%);fill-opacity:1;" d="M 29.832031 149.640625 L 30.324219 151.421875 L 25.605469 154.675781 L 23.382812 156.058594 L 23.398438 156.109375 C 24.527344 155.6875 26.058594 155.117188 27.363281 154.753906 L 30.96875 153.753906 L 31.429688 155.417969 L 20.523438 158.441406 L 20.03125 156.660156 L 24.796875 153.402344 L 26.988281 152.027344 L 26.976562 151.976562 C 25.78125 152.394531 24.328125 152.953125 23.007812 153.320312 L 19.386719 154.324219 L 18.921875 152.664062 Z M 29.832031 149.640625 "/>
<path style=" stroke:none;fill-rule:nonzero;fill:rgb(65.490196%,14.901961%,21.960784%);fill-opacity:1;" d="M 25.144531 163.824219 L 24.378906 161.726562 L 21.789062 162.203125 L 21.160156 160.46875 L 32.597656 158.804688 L 33.339844 160.84375 L 23.5 166.910156 L 22.851562 165.117188 Z M 27 162.78125 L 27.84375 162.300781 C 28.835938 161.726562 30.039062 161.082031 31.058594 160.5 L 31.042969 160.460938 C 29.867188 160.691406 28.550781 160.957031 27.429688 161.160156 L 26.472656 161.332031 Z M 27 162.78125 "/>
<path style=" stroke:none;fill-rule:nonzero;fill:rgb(65.490196%,14.901961%,21.960784%);fill-opacity:1;" d="M 30.410156 169.515625 L 35.789062 166.871094 L 36.585938 168.492188 L 30.945312 171.261719 C 29.019531 172.207031 28.527344 172.925781 28.894531 173.667969 C 29.257812 174.40625 30.140625 174.480469 32.066406 173.535156 L 37.707031 170.765625 L 38.476562 172.332031 L 33.097656 174.976562 C 29.671875 176.660156 27.679688 176.507812 26.796875 174.707031 C 25.902344 172.894531 26.984375 171.199219 30.410156 169.515625 Z M 30.410156 169.515625 "/>
<path style=" stroke:none;fill-rule:nonzero;fill:rgb(65.490196%,14.901961%,21.960784%);fill-opacity:1;" d="M 39.484375 174.191406 L 40.429688 175.773438 L 36.746094 180.164062 L 34.972656 182.089844 L 35 182.132812 C 35.980469 181.425781 37.304688 180.46875 38.464844 179.773438 L 41.675781 177.851562 L 42.5625 179.328125 L 32.847656 185.144531 L 31.902344 183.5625 L 35.628906 179.15625 L 37.375 177.25 L 37.351562 177.207031 C 36.308594 177.921875 35.054688 178.851562 33.878906 179.554688 L 30.652344 181.484375 L 29.769531 180.007812 Z M 39.484375 174.191406 "/>
<path style=" stroke:none;fill-rule:nonzero;fill:rgb(65.490196%,14.901961%,21.960784%);fill-opacity:1;" d="M 43.839844 181.199219 L 44.863281 182.699219 L 35.539062 189.105469 L 34.507812 187.609375 Z M 43.839844 181.199219 "/>
<path style=" stroke:none;fill-rule:nonzero;fill:rgb(65.490196%,14.901961%,21.960784%);fill-opacity:1;" d="M 45.582031 183.796875 L 46.757812 185.3125 L 43.203125 189.148438 C 42.378906 190.070312 41.539062 190.898438 40.699219 191.828125 L 40.730469 191.867188 C 41.832031 191.28125 42.859375 190.691406 43.953125 190.121094 L 48.554688 187.640625 L 49.683594 189.101562 L 39.339844 194.226562 L 38.011719 192.507812 Z M 45.582031 183.796875 "/>
<path style=" stroke:none;fill-rule:nonzero;fill:rgb(65.490196%,14.901961%,21.960784%);fill-opacity:1;" d="M 50.511719 190.042969 L 53.695312 193.621094 L 52.011719 195.117188 L 50.039062 192.898438 L 48.46875 194.296875 L 50.148438 196.179688 L 48.445312 197.695312 L 46.765625 195.8125 L 44.96875 197.410156 L 47.023438 199.710938 L 45.316406 201.230469 L 42.058594 197.574219 Z M 50.511719 190.042969 "/>
<path style=" stroke:none;fill-rule:nonzero;fill:rgb(65.490196%,14.901961%,21.960784%);fill-opacity:1;" d="M 50.160156 206.078125 L 51.941406 202.25 L 51.316406 201.644531 L 48.539062 204.503906 L 47.238281 203.238281 L 55.121094 195.117188 L 57.105469 197.042969 C 58.265625 198.167969 58.652344 199.691406 56.746094 201.65625 C 55.59375 202.847656 54.476562 203.25 53.539062 203.097656 L 51.621094 207.492188 Z M 52.808594 200.101562 L 53.394531 200.667969 C 54.011719 201.265625 54.730469 201.179688 55.476562 200.417969 C 56.214844 199.652344 56.132812 199.082031 55.515625 198.484375 L 54.929688 197.921875 Z M 52.808594 200.101562 "/>
<path style=" stroke:none;fill-rule:nonzero;fill:rgb(65.490196%,14.901961%,21.960784%);fill-opacity:1;" d="M 53.8125 207.542969 L 55.800781 206.769531 C 55.773438 207.636719 56.003906 208.449219 56.464844 208.835938 C 56.976562 209.261719 57.460938 209.175781 57.855469 208.710938 C 58.273438 208.207031 58.09375 207.777344 57.859375 207.046875 L 57.511719 205.964844 C 57.210938 205.09375 57.28125 203.859375 58.335938 202.605469 C 59.558594 201.148438 61.40625 200.710938 62.632812 201.746094 C 63.300781 202.304688 63.683594 203.285156 63.554688 204.464844 L 61.769531 205.191406 C 61.746094 204.4375 61.585938 203.90625 61.136719 203.527344 C 60.710938 203.167969 60.230469 203.203125 59.839844 203.667969 C 59.441406 204.148438 59.648438 204.640625 59.90625 205.375 L 60.265625 206.414062 C 60.617188 207.445312 60.441406 208.523438 59.410156 209.746094 C 58.199219 211.191406 56.324219 211.78125 54.925781 210.609375 C 54.171875 209.96875 53.71875 208.871094 53.8125 207.542969 Z M 53.8125 207.542969 "/>
<path style=" stroke:none;fill-rule:nonzero;fill:rgb(65.490196%,14.901961%,21.960784%);fill-opacity:1;" d="M 65.988281 204.703125 L 67.441406 205.789062 L 60.652344 214.84375 L 59.203125 213.757812 Z M 65.988281 204.703125 "/>
<path style=" stroke:none;fill-rule:nonzero;fill:rgb(65.490196%,14.901961%,21.960784%);fill-opacity:1;" d="M 69.242188 209.816406 L 67.542969 208.6875 L 68.792969 206.8125 L 73.703125 210.082031 L 72.457031 211.957031 L 70.75 210.824219 L 65.730469 218.371094 L 64.21875 217.367188 Z M 69.242188 209.816406 "/>
<path style=" stroke:none;fill-rule:nonzero;fill:rgb(65.490196%,14.901961%,21.960784%);fill-opacity:1;" d="M 72.4375 217.816406 L 74.105469 210.339844 L 75.777344 211.296875 L 75.070312 213.785156 C 74.820312 214.625 74.597656 215.410156 74.34375 216.28125 L 74.378906 216.300781 C 75.003906 215.640625 75.574219 215.054688 76.183594 214.421875 L 77.976562 212.558594 L 79.621094 213.5 L 74 218.714844 L 72.011719 222.183594 L 70.445312 221.285156 Z M 72.4375 217.816406 "/>
<path style=" stroke:none;fill-rule:nonzero;fill:rgb(65.490196%,14.901961%,21.960784%);fill-opacity:1;" d="M 80.796875 220.375 C 82.292969 216.976562 84.417969 215.617188 86.304688 216.449219 C 88.1875 217.277344 88.617188 219.773438 87.128906 223.160156 C 85.636719 226.558594 83.457031 228.027344 81.574219 227.199219 C 79.6875 226.371094 79.300781 223.773438 80.796875 220.375 Z M 85.4375 222.417969 C 86.320312 220.410156 86.273438 218.976562 85.367188 218.578125 C 84.453125 218.179688 83.378906 219.117188 82.5 221.121094 C 81.609375 223.140625 81.609375 224.652344 82.519531 225.054688 C 83.429688 225.453125 84.550781 224.4375 85.4375 222.417969 Z M 85.4375 222.417969 "/>
<path style=" stroke:none;fill-rule:nonzero;fill:rgb(65.490196%,14.901961%,21.960784%);fill-opacity:1;" d="M 91.117188 218.671875 L 95.660156 220.269531 L 94.914062 222.394531 L 92.082031 221.398438 L 91.257812 223.738281 L 93.6875 224.59375 L 92.9375 226.730469 L 90.507812 225.875 L 89.078125 229.953125 L 87.367188 229.347656 Z M 91.117188 218.671875 "/>
<path style=" stroke:none;fill-rule:nonzero;fill:rgb(65.490196%,14.901961%,21.960784%);fill-opacity:1;" d="M 100.171875 221.628906 L 102.078125 222.070312 L 102.148438 227.097656 C 102.148438 227.769531 102.105469 228.492188 102.089844 229.207031 L 102.136719 229.222656 C 102.441406 228.570312 102.722656 227.902344 103.007812 227.296875 L 105.234375 222.800781 L 107.152344 223.242188 L 104.605469 234.273438 L 102.996094 233.902344 L 103.867188 230.121094 C 104.121094 229.023438 104.636719 227.410156 104.980469 226.351562 L 104.941406 226.339844 L 103.71875 228.835938 L 101.796875 232.644531 L 100.828125 232.417969 L 100.761719 228.160156 L 100.777344 225.382812 L 100.738281 225.371094 C 100.578125 226.472656 100.335938 228.152344 100.082031 229.25 L 99.210938 233.03125 L 97.632812 232.664062 Z M 100.171875 221.628906 "/>
<path style=" stroke:none;fill-rule:nonzero;fill:rgb(65.490196%,14.901961%,21.960784%);fill-opacity:1;" d="M 109.34375 223.578125 L 111.136719 223.867188 L 109.347656 235.042969 L 107.554688 234.753906 Z M 109.34375 223.578125 "/>
<path style=" stroke:none;fill-rule:nonzero;fill:rgb(65.490196%,14.901961%,21.960784%);fill-opacity:1;" d="M 113.351562 224.210938 L 115.1875 224.390625 L 116.535156 229.960938 L 117.03125 232.53125 L 117.078125 232.535156 C 117.09375 231.328125 117.109375 229.695312 117.242188 228.347656 L 117.601562 224.617188 L 119.320312 224.785156 L 118.230469 236.050781 L 116.390625 235.875 L 115.0625 230.261719 L 114.5625 227.71875 L 114.515625 227.714844 C 114.472656 228.976562 114.472656 230.539062 114.34375 231.898438 L 113.984375 235.636719 L 112.265625 235.472656 Z M 113.351562 224.210938 "/>
<path style=" stroke:none;fill-rule:nonzero;fill:rgb(65.490196%,14.901961%,21.960784%);fill-opacity:1;" d="M 121.582031 224.875 L 123.394531 224.9375 L 123.007812 236.246094 L 121.195312 236.1875 Z M 121.582031 224.875 "/>
<path style=" stroke:none;fill-rule:nonzero;fill:rgb(65.490196%,14.901961%,21.960784%);fill-opacity:1;" d="M 125.75 224.96875 L 127.59375 224.945312 L 129.546875 230.332031 L 130.324219 232.828125 L 130.375 232.828125 C 130.257812 231.628906 130.089844 230.003906 130.074219 228.652344 L 130.019531 224.90625 L 131.742188 224.882812 L 131.90625 236.203125 L 130.058594 236.226562 L 128.117188 230.792969 L 127.339844 228.324219 L 127.289062 228.324219 C 127.386719 229.589844 127.5625 231.136719 127.582031 232.503906 L 127.632812 236.261719 L 125.910156 236.289062 Z M 125.75 224.96875 "/>
<path style=" stroke:none;fill-rule:nonzero;fill:rgb(65.490196%,14.901961%,21.960784%);fill-opacity:1;" d="M 134.042969 230.421875 C 133.640625 226.671875 135.097656 224.34375 137.101562 224.128906 C 138.199219 224.011719 139.0625 224.625 139.660156 225.34375 L 138.886719 227.167969 C 138.46875 226.710938 138.035156 226.371094 137.410156 226.4375 C 136.304688 226.554688 135.644531 227.941406 135.878906 230.136719 C 136.117188 232.375 136.917969 233.601562 138.3125 233.457031 C 138.585938 233.425781 138.855469 233.292969 138.996094 233.089844 L 138.804688 231.277344 L 137.613281 231.402344 L 137.378906 229.195312 L 140.171875 228.894531 L 140.730469 234.160156 C 140.289062 234.972656 139.425781 235.691406 138.378906 235.800781 C 136.289062 236.027344 134.445312 234.234375 134.042969 230.421875 Z M 134.042969 230.421875 "/>
<path style=" stroke:none;fill-rule:nonzero;fill:rgb(65.490196%,14.901961%,21.960784%);fill-opacity:1;" d="M 153.164062 233.175781 C 152.515625 233.152344 151.761719 232.894531 151 232.5 C 150.527344 233.320312 149.835938 233.910156 148.914062 234.113281 C 147.261719 234.476562 146.085938 233.167969 145.714844 231.484375 C 145.375 229.941406 145.800781 228.914062 146.367188 228.085938 C 145.902344 227.347656 145.574219 226.613281 145.421875 225.914062 C 145.074219 224.339844 145.558594 222.828125 146.828125 222.546875 C 147.953125 222.296875 148.910156 223.132812 149.25 224.675781 C 149.570312 226.128906 149.015625 227.1875 148.414062 228.132812 C 148.972656 228.726562 149.605469 229.257812 150.246094 229.707031 C 150.445312 228.914062 150.539062 227.988281 150.503906 226.9375 L 152.109375 226.582031 C 152.136719 227.980469 152.011719 229.300781 151.699219 230.550781 C 152.230469 230.789062 152.71875 230.949219 153.105469 230.941406 Z M 147.367188 226.792969 C 147.773438 226.234375 148.058594 225.6875 147.902344 224.976562 C 147.789062 224.472656 147.566406 224.210938 147.242188 224.28125 C 146.894531 224.355469 146.703125 224.851562 146.867188 225.597656 C 146.953125 225.984375 147.125 226.394531 147.367188 226.792969 Z M 148.6875 232.050781 C 148.964844 231.988281 149.230469 231.789062 149.464844 231.488281 C 148.777344 230.953125 148.117188 230.320312 147.523438 229.644531 C 147.347656 230.074219 147.253906 230.5 147.355469 230.957031 C 147.527344 231.746094 148.054688 232.191406 148.6875 232.050781 Z M 148.6875 232.050781 "/>
<path style=" stroke:none;fill-rule:nonzero;fill:rgb(65.490196%,14.901961%,21.960784%);fill-opacity:1;" d="M 157.527344 222.214844 L 155.59375 222.867188 L 154.875 220.734375 L 160.464844 218.851562 L 161.1875 220.984375 L 159.246094 221.640625 L 162.144531 230.230469 L 160.421875 230.808594 Z M 157.527344 222.214844 "/>
<path style=" stroke:none;fill-rule:nonzero;fill:rgb(65.490196%,14.901961%,21.960784%);fill-opacity:1;" d="M 161.992188 218.246094 L 166.410156 216.402344 L 167.28125 218.480469 L 164.535156 219.625 L 165.347656 221.5625 L 167.675781 220.585938 L 168.554688 222.691406 L 166.222656 223.664062 L 167.152344 225.882812 L 169.996094 224.695312 L 170.875 226.796875 L 166.355469 228.6875 Z M 161.992188 218.246094 "/>
<path style=" stroke:none;fill-rule:nonzero;fill:rgb(65.490196%,14.901961%,21.960784%);fill-opacity:1;" d="M 170.558594 220.800781 C 168.859375 217.429688 169.390625 214.742188 171.101562 213.882812 C 171.980469 213.4375 172.996094 213.695312 173.8125 214.167969 L 173.742188 216.144531 C 173.175781 215.851562 172.65625 215.703125 172.175781 215.945312 C 171.308594 216.386719 171.179688 217.914062 172.175781 219.882812 C 173.1875 221.890625 174.394531 222.75 175.34375 222.273438 C 175.878906 222.003906 176.109375 221.378906 176.164062 220.699219 L 177.785156 221.789062 C 177.714844 223.070312 177.21875 223.949219 176.339844 224.394531 C 174.625 225.257812 172.289062 224.222656 170.558594 220.800781 Z M 170.558594 220.800781 "/>
<path style=" stroke:none;fill-rule:nonzero;fill:rgb(65.490196%,14.901961%,21.960784%);fill-opacity:1;" d="M 174.691406 212.238281 L 176.242188 211.292969 L 178.476562 214.972656 L 180.597656 213.683594 L 178.363281 210 L 179.898438 209.070312 L 185.773438 218.742188 L 184.242188 219.671875 L 181.824219 215.695312 L 179.703125 216.984375 L 182.117188 220.964844 L 180.566406 221.910156 Z M 174.691406 212.238281 "/>
<path style=" stroke:none;fill-rule:nonzero;fill:rgb(65.490196%,14.901961%,21.960784%);fill-opacity:1;" d="M 181.707031 207.867188 L 183.199219 206.78125 L 187.902344 210.058594 L 189.976562 211.65625 L 190.019531 211.625 C 189.230469 210.714844 188.15625 209.480469 187.359375 208.386719 L 185.160156 205.359375 L 186.550781 204.347656 L 193.207031 213.5 L 191.71875 214.585938 L 186.996094 211.265625 L 184.9375 209.695312 L 184.894531 209.726562 C 185.707031 210.699219 186.742188 211.867188 187.542969 212.96875 L 189.753906 216.007812 L 188.359375 217.023438 Z M 181.707031 207.867188 "/>
<path style=" stroke:none;fill-rule:nonzero;fill:rgb(65.490196%,14.901961%,21.960784%);fill-opacity:1;" d="M 191.65625 207.460938 C 189.230469 204.652344 188.917969 202.148438 190.476562 200.800781 C 192.035156 199.457031 194.472656 200.140625 196.890625 202.941406 C 199.316406 205.75 199.703125 208.347656 198.148438 209.691406 C 196.589844 211.035156 194.082031 210.269531 191.65625 207.460938 Z M 195.492188 204.148438 C 194.0625 202.488281 192.75 201.914062 191.996094 202.5625 C 191.242188 203.214844 191.628906 204.589844 193.058594 206.25 C 194.5 207.917969 195.863281 208.570312 196.617188 207.917969 C 197.371094 207.269531 196.933594 205.820312 195.492188 204.148438 Z M 195.492188 204.148438 "/>
<path style=" stroke:none;fill-rule:nonzero;fill:rgb(65.490196%,14.901961%,21.960784%);fill-opacity:1;" d="M 194.554688 197.40625 L 195.835938 196.121094 L 202.238281 202.5 L 204.304688 200.425781 L 205.921875 202.035156 L 202.574219 205.398438 Z M 194.554688 197.40625 "/>
<path style=" stroke:none;fill-rule:nonzero;fill:rgb(65.490196%,14.901961%,21.960784%);fill-opacity:1;" d="M 202.84375 196.996094 C 200.035156 194.566406 199.363281 192.136719 200.710938 190.578125 C 202.058594 189.019531 204.570312 189.347656 207.367188 191.765625 C 210.175781 194.191406 210.941406 196.703125 209.59375 198.261719 C 208.246094 199.816406 205.648438 199.425781 202.84375 196.996094 Z M 206.160156 193.160156 C 204.507812 191.730469 203.125 191.351562 202.472656 192.101562 C 201.820312 192.851562 202.402344 194.160156 204.058594 195.59375 C 205.726562 197.035156 207.171875 197.480469 207.820312 196.730469 C 208.472656 195.976562 207.828125 194.601562 206.160156 193.160156 Z M 206.160156 193.160156 "/>
<path style=" stroke:none;fill-rule:nonzero;fill:rgb(65.490196%,14.901961%,21.960784%);fill-opacity:1;" d="M 208.664062 190.3125 C 205.617188 188.082031 204.875 185.441406 206.0625 183.8125 C 206.714844 182.921875 207.746094 182.695312 208.679688 182.734375 L 209.511719 184.539062 C 208.890625 184.539062 208.351562 184.628906 207.976562 185.136719 C 207.320312 186.039062 207.902344 187.457031 209.679688 188.757812 C 211.496094 190.089844 212.949219 190.320312 213.773438 189.191406 C 213.9375 188.972656 214.019531 188.675781 213.964844 188.441406 L 212.492188 187.363281 L 211.785156 188.328125 L 209.992188 187.019531 L 211.652344 184.75 L 215.925781 187.875 C 216.226562 188.75 216.179688 189.871094 215.558594 190.722656 C 214.324219 192.417969 211.757812 192.578125 208.664062 190.3125 Z M 208.664062 190.3125 "/>
<path style=" stroke:none;fill-rule:nonzero;fill:rgb(65.490196%,14.901961%,21.960784%);fill-opacity:1;" d="M 215.726562 182.992188 L 208.316406 181.042969 L 209.335938 179.40625 L 211.796875 180.203125 C 212.625 180.484375 213.398438 180.738281 214.261719 181.027344 L 214.285156 180.996094 C 213.648438 180.34375 213.082031 179.753906 212.472656 179.121094 L 210.679688 177.257812 L 211.683594 175.648438 L 216.683594 181.460938 L 220.074219 183.582031 L 219.117188 185.109375 Z M 215.726562 182.992188 "/>
<path style=" stroke:none;fill-rule:nonzero;fill:rgb(65.490196%,14.901961%,21.960784%);fill-opacity:1;" d="M 216.890625 178.476562 L 218.296875 175.972656 L 219.953125 176.902344 L 218.550781 179.40625 Z M 216.890625 178.476562 "/>
<path style=" stroke:none;fill-rule:nonzero;fill:rgb(65.490196%,14.901961%,21.960784%);fill-opacity:1;" d="M 214 171.394531 L 215.148438 169.023438 C 215.828125 167.617188 216.929688 166.761719 218.890625 167.710938 C 219.796875 168.144531 220.617188 168.960938 220.667969 169.660156 L 220.722656 169.6875 C 221.328125 169.132812 222.347656 168.984375 223.703125 169.640625 C 225.785156 170.648438 226.148438 172.277344 225.429688 173.753906 L 224.191406 176.320312 Z M 219.160156 171.039062 C 219.496094 170.34375 219.191406 169.816406 218.496094 169.476562 C 217.769531 169.125 217.3125 169.300781 216.980469 169.984375 L 216.652344 170.660156 L 218.828125 171.710938 Z M 223.496094 172.96875 C 223.875 172.179688 223.648438 171.574219 222.769531 171.152344 C 221.933594 170.75 221.414062 170.980469 221.03125 171.773438 L 220.636719 172.585938 L 223.101562 173.78125 Z M 223.496094 172.96875 "/>
<path style=" stroke:none;fill-rule:nonzero;fill:rgb(65.490196%,14.901961%,21.960784%);fill-opacity:1;" d="M 217.1875 164.59375 L 218.949219 160.140625 L 221.042969 160.972656 L 219.949219 163.734375 L 221.898438 164.507812 L 222.832031 162.160156 L 224.953125 163.003906 L 224.019531 165.351562 L 226.257812 166.234375 L 227.394531 163.371094 L 229.515625 164.214844 L 227.707031 168.765625 Z M 217.1875 164.59375 "/>
<path style=" stroke:none;fill-rule:nonzero;fill:rgb(65.490196%,14.901961%,21.960784%);fill-opacity:1;" d="M 219.640625 158.121094 L 220.214844 156.394531 L 230.953125 159.972656 L 230.378906 161.695312 Z M 219.640625 158.121094 "/>
<path style=" stroke:none;fill-rule:nonzero;fill:rgb(65.490196%,14.901961%,21.960784%);fill-opacity:1;" d="M 229.828125 157.414062 L 228.820312 155.855469 C 229.640625 155.804688 230.078125 155.527344 230.171875 155.171875 C 230.328125 154.605469 229.984375 154.1875 228.5625 153.796875 L 221.550781 151.875 L 222.027344 150.125 L 229.246094 152.105469 C 231.390625 152.691406 232.941406 153.929688 232.492188 155.558594 C 232.1875 156.695312 231.324219 157.257812 229.828125 157.414062 Z M 229.828125 157.414062 "/>
<path style=" stroke:none;fill-rule:nonzero;fill:rgb(65.490196%,14.901961%,21.960784%);fill-opacity:1;" d="M 222.53125 147.941406 L 222.917969 146.167969 L 233.976562 148.566406 L 233.59375 150.339844 Z M 222.53125 147.941406 "/>
<path style=" stroke:none;fill-rule:nonzero;fill:rgb(65.490196%,14.901961%,21.960784%);fill-opacity:1;" d="M 223.386719 143.972656 L 223.667969 142.148438 L 229.304688 141.105469 L 231.898438 140.753906 L 231.902344 140.703125 C 230.699219 140.625 229.070312 140.519531 227.730469 140.316406 L 224.03125 139.753906 L 224.289062 138.046875 L 235.480469 139.75 L 235.199219 141.574219 L 229.519531 142.597656 L 226.957031 142.957031 L 226.949219 143.007812 C 228.214844 143.117188 229.769531 143.199219 231.125 143.402344 L 234.835938 143.96875 L 234.578125 145.671875 Z M 223.386719 143.972656 "/>
<path style=" stroke:none;fill-rule:nonzero;fill:rgb(65.490196%,14.901961%,21.960784%);fill-opacity:1;" d="M 230.207031 136.625 C 226.441406 136.363281 224.40625 134.523438 224.546875 132.507812 C 224.625 131.40625 225.375 130.667969 226.1875 130.207031 L 227.847656 131.285156 C 227.320312 131.613281 226.914062 131.984375 226.871094 132.609375 C 226.792969 133.722656 228.042969 134.613281 230.246094 134.765625 C 232.488281 134.925781 233.84375 134.347656 233.9375 132.953125 C 233.957031 132.679688 233.871094 132.386719 233.699219 132.214844 L 231.878906 132.085938 L 231.796875 133.28125 L 229.578125 133.125 L 229.777344 130.324219 L 235.054688 130.695312 C 235.777344 131.273438 236.335938 132.246094 236.261719 133.300781 C 236.113281 135.394531 234.03125 136.894531 230.207031 136.625 Z M 230.207031 136.625 "/>
<path style=" stroke:none;fill-rule:nonzero;fill:rgb(65.490196%,14.901961%,21.960784%);fill-opacity:1;" d="M 38.546875 99.457031 C 37.917969 99.09375 37.265625 98.738281 36.578125 98.5 C 34.992188 97.953125 33.378906 97.464844 31.773438 96.976562 C 31.261719 96.820312 30.828125 96.585938 30.46875 96.179688 C 30.140625 95.808594 29.753906 95.558594 29.222656 95.484375 C 28.753906 95.421875 28.289062 95.246094 27.847656 95.066406 C 27.425781 94.894531 27.050781 94.585938 26.617188 94.460938 C 25.714844 94.199219 25.292969 93.578125 25.039062 92.730469 C 24.585938 91.210938 24.09375 89.703125 23.601562 88.199219 C 23.269531 87.1875 22.636719 86.855469 21.699219 87.324219 C 21.058594 87.640625 20.472656 88.117188 19.945312 88.613281 C 19.296875 89.222656 18.824219 89.964844 18.546875 90.839844 C 18.289062 91.632812 18.042969 91.78125 17.253906 91.574219 C 16.289062 91.3125 15.351562 90.941406 14.390625 90.648438 C 13.996094 90.527344 13.53125 90.328125 13.183594 90.4375 C 12.652344 90.605469 12.160156 90.96875 11.714844 91.328125 C 11.261719 91.6875 11.210938 92.230469 11.382812 92.753906 C 11.566406 93.3125 12.027344 93.589844 12.589844 93.566406 C 14.195312 93.507812 15.640625 94.117188 17.125 94.582031 C 17.539062 94.710938 17.769531 94.960938 17.9375 95.367188 C 18.1875 95.984375 18.480469 96.597656 18.824219 97.164062 C 19.648438 98.515625 20.515625 99.847656 21.394531 101.234375 C 21.238281 101.421875 21.167969 101.519531 21.082031 101.601562 C 20.996094 101.6875 20.882812 101.75 20.800781 101.835938 C 20.460938 102.203125 20.476562 102.46875 20.886719 102.734375 C 21.363281 103.039062 21.917969 103.238281 22.457031 103.046875 C 23.34375 102.734375 24.214844 102.351562 25.050781 101.917969 C 25.660156 101.601562 25.925781 101.023438 25.902344 100.308594 C 25.886719 99.917969 25.929688 99.519531 25.988281 99.132812 C 26.046875 98.746094 26.179688 98.375 26.234375 97.988281 C 26.316406 97.414062 26.414062 97.3125 27 97.367188 C 27.886719 97.449219 28.726562 97.691406 29.550781 98.054688 C 32.046875 99.152344 34.664062 99.886719 37.292969 100.582031 C 37.613281 100.664062 37.976562 100.71875 38.28125 100.644531 C 38.53125 100.582031 38.835938 100.34375 38.917969 100.109375 C 38.972656 99.945312 38.742188 99.574219 38.546875 99.457031 Z M 21.023438 90.925781 C 21.351562 91.492188 21.648438 92 21.9375 92.503906 C 21.308594 92.960938 20.519531 92.933594 20.226562 92.488281 C 19.957031 92.074219 20.207031 91.53125 21.023438 90.925781 Z M 22.5625 99.140625 C 21.546875 98.34375 21.140625 97.148438 20.351562 95.972656 C 20.808594 95.96875 21.015625 95.929688 21.207031 95.972656 C 21.625 96.0625 22.027344 96.214844 22.441406 96.308594 C 23.214844 96.480469 23.773438 96.785156 23.820312 97.71875 C 23.839844 98.144531 24.152344 98.554688 24.355469 99.023438 C 23.601562 99.53125 23.128906 99.585938 22.5625 99.140625 Z M 22.5625 99.140625 "/>
<path style=" stroke:none;fill-rule:nonzero;fill:rgb(65.490196%,14.901961%,21.960784%);fill-opacity:1;" d="M 50.277344 64.46875 C 50.03125 63.710938 49.554688 63.253906 48.777344 63.121094 C 48.105469 63 47.433594 62.910156 46.757812 62.820312 C 45.480469 62.652344 45.332031 62.511719 45.109375 61.230469 C 45.019531 60.714844 44.976562 60.179688 44.832031 59.679688 C 44.675781 59.128906 44.292969 59.050781 43.847656 59.414062 C 43.65625 59.574219 43.480469 59.75 43.296875 59.917969 C 43.050781 60.140625 42.703125 60.324219 42.59375 60.601562 C 42.5 60.84375 42.671875 61.195312 42.730469 61.507812 C 42.632812 61.492188 42.566406 61.492188 42.511719 61.472656 C 41.675781 61.207031 41.078125 60.679688 40.597656 59.941406 C 39.652344 58.472656 38.070312 58.511719 37.164062 59.992188 C 37.035156 60.203125 36.929688 60.433594 36.824219 60.65625 C 36.625 61.085938 36.699219 61.476562 37.121094 61.695312 C 37.875 62.097656 38.003906 62.714844 37.9375 63.496094 C 37.863281 64.292969 38.101562 64.429688 39.121094 64.167969 C 39.292969 64.671875 39.457031 65.125 39.605469 65.585938 C 39.835938 66.300781 40.121094 66.574219 40.796875 66.464844 C 41.464844 66.359375 41.75 66.640625 41.988281 67.203125 C 42.390625 68.167969 43.105469 68.914062 43.855469 69.613281 C 44.386719 70.109375 44.867188 69.972656 45 69.261719 C 45.09375 68.730469 45.078125 68.144531 44.957031 67.617188 C 44.761719 66.773438 44.445312 65.960938 44.164062 65.136719 C 44.074219 64.875 43.976562 64.589844 43.792969 64.398438 C 43.652344 64.25 43.335938 64.132812 43.167969 64.195312 C 43.015625 64.25 42.898438 64.570312 42.894531 64.777344 C 42.890625 65.011719 43.054688 65.242188 43.109375 65.484375 C 43.246094 66.089844 43.5 66.679688 43.359375 67.339844 C 43.066406 66.964844 42.835938 66.566406 42.671875 66.144531 C 42.472656 65.625 42.355469 65.074219 42.15625 64.554688 C 41.824219 63.6875 41.363281 63.527344 40.503906 63.921875 C 40.402344 63.96875 40.277344 63.96875 40.113281 63.996094 C 39.917969 63.492188 39.738281 63.019531 39.519531 62.449219 C 40.546875 62.574219 41.328125 62.914062 42.054688 63.402344 C 42.464844 63.679688 42.855469 63.929688 43.382812 64 C 43.695312 64.042969 44.042969 64.347656 44.230469 64.628906 C 44.476562 65.011719 44.601562 65.476562 44.746094 65.914062 C 44.949219 66.53125 45.105469 67.167969 45.3125 67.785156 C 45.433594 68.148438 45.652344 68.464844 46.09375 68.46875 C 46.421875 68.472656 46.714844 68.09375 46.714844 67.558594 C 46.714844 67.070312 46.605469 66.582031 46.535156 66.09375 C 46.492188 65.804688 46.429688 65.519531 46.351562 65.09375 C 47.347656 65.261719 48.101562 65.589844 48.816406 66.144531 C 48.371094 67.257812 47.945312 68.289062 47.550781 69.332031 C 47.394531 69.734375 47.257812 70.152344 47.203125 70.578125 C 47.136719 71.054688 47.375 71.261719 47.863281 71.226562 C 48.929688 71.148438 49.636719 70.574219 50.078125 69.621094 C 50.597656 68.5 51.039062 67.351562 51.109375 66.097656 C 51.121094 65.859375 50.984375 65.589844 50.859375 65.367188 C 50.6875 65.058594 50.382812 64.796875 50.277344 64.46875 Z M 50.277344 64.46875 "/>
<path style=" stroke:none;fill-rule:nonzero;fill:rgb(65.490196%,14.901961%,21.960784%);fill-opacity:1;" d="M 42.109375 59.664062 C 42.839844 59.375 43.621094 57.867188 43.472656 57.125 C 43.316406 56.359375 42.652344 55.972656 41.949219 56.320312 C 41.464844 56.566406 41.015625 56.917969 40.613281 57.289062 C 40.445312 57.441406 40.296875 57.84375 40.382812 58.007812 C 40.667969 58.570312 41.039062 59.101562 41.441406 59.59375 C 41.546875 59.722656 41.917969 59.742188 42.109375 59.664062 Z M 42.109375 59.664062 "/>
<path style=" stroke:none;fill-rule:nonzero;fill:rgb(65.490196%,14.901961%,21.960784%);fill-opacity:1;" d="M 56.066406 62.664062 C 53.09375 61.152344 50.378906 59.242188 47.695312 57.289062 C 44.90625 55.261719 42.683594 52.785156 41.457031 49.488281 C 40.902344 48 39.144531 47.304688 37.675781 47.917969 C 36.992188 48.203125 36.363281 48.617188 35.695312 48.933594 C 34.625 49.4375 34.046875 50.308594 33.757812 51.410156 C 33.207031 53.523438 33.054688 55.6875 33.027344 57.859375 C 33.015625 58.707031 33.457031 59.402344 33.933594 60.054688 C 34.046875 60.210938 34.371094 60.292969 34.578125 60.261719 C 34.6875 60.246094 34.824219 59.925781 34.828125 59.738281 C 34.84375 59.242188 34.820312 58.742188 34.777344 58.253906 C 34.59375 56.230469 35.039062 54.304688 35.714844 52.425781 C 35.96875 51.714844 36.546875 51.519531 37.207031 51.878906 C 37.503906 52.042969 37.757812 52.285156 38.023438 52.492188 C 39.113281 53.308594 40.148438 54.214844 41.300781 54.933594 C 43.507812 56.308594 45.425781 57.996094 47.160156 59.921875 C 47.613281 60.425781 48.101562 60.921875 48.644531 61.320312 C 50.640625 62.796875 52.628906 64.273438 54.335938 66.101562 C 54.613281 66.402344 55.042969 66.625 55.441406 66.746094 C 56.492188 67.058594 57.382812 66.453125 57.527344 65.367188 C 57.570312 65.035156 57.535156 64.691406 57.539062 64.351562 C 57.429688 63.4375 56.769531 63.019531 56.066406 62.664062 Z M 56.066406 62.664062 "/>
<path style=" stroke:none;fill-rule:nonzero;fill:rgb(65.490196%,14.901961%,21.960784%);fill-opacity:1;" d="M 45.15625 73 C 43.871094 72.03125 42.550781 71.109375 41.296875 70.105469 C 39.753906 68.863281 38.285156 67.523438 36.738281 66.289062 C 35.402344 65.222656 34.105469 64.140625 33.171875 62.675781 C 32.910156 62.269531 32.511719 61.921875 32.101562 61.660156 C 31.722656 61.425781 31.257812 61.289062 30.808594 61.210938 C 30.414062 61.148438 29.992188 61.546875 29.945312 61.910156 C 29.894531 62.316406 30.183594 62.453125 30.492188 62.53125 C 30.976562 62.652344 31.160156 63.039062 31.367188 63.425781 C 31.558594 63.769531 31.75 64.132812 32.03125 64.402344 C 33.707031 66.042969 35.414062 67.660156 37.101562 69.292969 C 37.253906 69.441406 37.410156 69.609375 37.507812 69.796875 C 38.078125 70.914062 39.011719 71.660156 40.03125 72.328125 C 40.34375 72.53125 40.621094 72.777344 40.917969 73.003906 C 42.035156 73.84375 43.113281 74.730469 44.273438 75.496094 C 44.878906 75.890625 45.609375 76.148438 46.316406 76.3125 C 47 76.46875 47.5 75.910156 47.347656 75.097656 C 47.199219 74.894531 46.984375 74.511719 46.675781 74.222656 C 46.199219 73.78125 45.675781 73.390625 45.15625 73 Z M 45.15625 73 "/>
<path style=" stroke:none;fill-rule:nonzero;fill:rgb(65.490196%,14.901961%,21.960784%);fill-opacity:1;" d="M 73.742188 23.546875 C 74.476562 23.082031 75.203125 22.605469 75.902344 22.089844 C 76.390625 21.734375 76.414062 21.351562 76.003906 20.910156 C 75.503906 20.367188 74.84375 20.089844 74.128906 19.957031 C 72.785156 19.703125 72.03125 20.402344 72.1875 22.003906 C 72.269531 22.253906 72.363281 22.75 72.582031 23.183594 C 72.847656 23.707031 73.296875 23.828125 73.742188 23.546875 Z M 73.742188 23.546875 "/>
<path style=" stroke:none;fill-rule:nonzero;fill:rgb(65.490196%,14.901961%,21.960784%);fill-opacity:1;" d="M 77.128906 33.722656 C 77.136719 32.59375 76.96875 32.234375 75.933594 31.789062 C 75.617188 31.65625 75.296875 31.535156 74.964844 31.449219 C 74.34375 31.285156 74.15625 31.433594 74.167969 32.066406 C 74.183594 32.914062 74.382812 33.714844 74.707031 34.507812 C 75.4375 36.304688 75.933594 38.15625 75.773438 40.128906 C 75.675781 41.273438 75.65625 42.425781 75.582031 43.570312 C 75.441406 45.753906 75.152344 47.90625 73.863281 49.78125 C 73.757812 49.933594 73.757812 50.164062 73.710938 50.34375 C 74.148438 50.605469 74.382812 50.378906 74.558594 50.117188 C 75.003906 49.445312 75.5 48.789062 75.824219 48.058594 C 76.542969 46.4375 77.082031 44.753906 77.34375 42.980469 C 77.652344 40.851562 77.882812 38.746094 77.339844 36.601562 C 77.105469 35.679688 77.125 34.683594 77.128906 33.722656 Z M 77.128906 33.722656 "/>
<path style=" stroke:none;fill-rule:nonzero;fill:rgb(65.490196%,14.901961%,21.960784%);fill-opacity:1;" d="M 78.621094 23.257812 C 78.226562 22.824219 77.652344 22.695312 77.097656 22.980469 C 76.742188 23.164062 76.40625 23.410156 76.117188 23.683594 C 75.734375 24.046875 75.40625 24.46875 75.058594 24.863281 C 74.105469 25.949219 73.378906 27.28125 71.910156 27.824219 C 71.800781 27.863281 71.710938 27.972656 71.625 28.066406 C 71.382812 28.324219 71.371094 28.617188 71.511719 28.929688 C 71.851562 29.683594 73.058594 30.410156 73.992188 30.335938 C 74.628906 30.347656 75.007812 29.878906 75.210938 29.238281 C 75.453125 28.464844 75.945312 27.921875 76.523438 27.363281 C 77.324219 26.589844 78.007812 25.691406 78.6875 24.800781 C 79.097656 24.25 79.023438 23.699219 78.621094 23.257812 Z M 78.621094 23.257812 "/>
<path style=" stroke:none;fill-rule:nonzero;fill:rgb(65.490196%,14.901961%,21.960784%);fill-opacity:1;" d="M 65.40625 43.0625 C 65.851562 40.769531 66.21875 38.460938 66.757812 36.195312 C 67.179688 34.441406 67.785156 32.734375 68.367188 31.023438 C 68.652344 30.171875 69.058594 29.363281 69.445312 28.550781 C 69.851562 27.695312 69.738281 27.15625 68.851562 26.835938 C 67.429688 26.324219 66.609375 26.347656 65.839844 27.640625 C 64.699219 29.566406 63.640625 31.664062 61.222656 32.421875 C 60.8125 32.550781 60.554688 32.980469 60.558594 33.46875 C 60.5625 33.992188 60.941406 34.226562 61.34375 34.417969 C 62.261719 34.851562 63.355469 34.582031 64.042969 33.761719 C 64.476562 33.246094 64.679688 32.636719 64.757812 31.96875 C 64.878906 30.972656 65.585938 30.308594 66.066406 29.519531 C 66.132812 29.539062 66.203125 29.558594 66.269531 29.578125 C 66.285156 29.808594 66.339844 30.042969 66.3125 30.269531 C 66.148438 31.691406 66.023438 33.117188 65.78125 34.527344 C 65.257812 37.59375 64.726562 40.660156 64.097656 43.710938 C 63.777344 45.261719 63.273438 46.773438 62.785156 48.28125 C 62.445312 49.335938 62.929688 50.636719 63.941406 51.074219 C 64.308594 51.234375 64.671875 51.246094 65.003906 50.992188 C 65.324219 50.746094 65.472656 50.398438 65.394531 50.003906 C 65.355469 49.804688 65.230469 49.601562 65.09375 49.441406 C 64.570312 48.832031 64.390625 48.15625 64.558594 47.359375 C 64.855469 45.933594 65.128906 44.496094 65.40625 43.0625 Z M 65.40625 43.0625 "/>
<path style=" stroke:none;fill-rule:nonzero;fill:rgb(65.490196%,14.901961%,21.960784%);fill-opacity:1;" d="M 72.546875 36.316406 C 72.125 35.527344 71.421875 35.289062 70.566406 35.570312 C 69.710938 35.855469 68.988281 36.335938 68.605469 37.175781 C 68.238281 37.984375 67.777344 38.664062 67.035156 39.195312 C 66.414062 39.640625 66.402344 40.070312 66.789062 40.742188 C 67.050781 41.199219 67.367188 41.625 67.628906 42.082031 C 67.796875 42.375 68.046875 42.445312 68.339844 42.382812 C 69.003906 42.246094 69.679688 42.128906 70.320312 41.917969 C 70.617188 41.820312 70.851562 41.519531 71.097656 41.296875 C 71.371094 41.046875 71.585938 40.71875 71.894531 40.535156 C 72.882812 39.945312 73.101562 39.027344 73.09375 37.757812 C 72.96875 37.402344 72.824219 36.828125 72.546875 36.316406 Z M 70.894531 39.757812 C 70.804688 39.980469 69.171875 39.742188 69.132812 39.359375 C 69.132812 39.359375 68.949219 38.613281 69.378906 38.257812 C 69.808594 37.898438 70.652344 37.324219 70.757812 37.992188 C 70.867188 38.652344 70.988281 39.535156 70.894531 39.757812 Z M 70.894531 39.757812 "/>
<path style=" stroke:none;fill-rule:nonzero;fill:rgb(65.490196%,14.901961%,21.960784%);fill-opacity:1;" d="M 110.710938 9.21875 C 110.132812 8.886719 109.476562 8.625 108.820312 8.492188 C 107.089844 8.144531 106.023438 9.5625 106.082031 10.960938 C 106.105469 11.578125 106.246094 12.195312 106.238281 12.8125 C 106.226562 13.308594 106.082031 13.804688 105.988281 14.304688 C 105.988281 14.316406 105.988281 14.328125 105.984375 14.339844 C 105.984375 14.339844 105.988281 14.34375 105.992188 14.34375 C 106.140625 14.449219 106.285156 14.5625 106.4375 14.652344 C 106.511719 14.695312 106.613281 14.695312 106.746094 14.722656 C 106.910156 14.515625 107.082031 14.304688 107.273438 14.058594 C 107.328125 14.128906 107.414062 14.191406 107.414062 14.253906 C 107.464844 16.207031 107.515625 18.15625 107.53125 20.109375 C 107.535156 20.539062 107.402344 20.964844 107.316406 21.394531 C 107.28125 21.574219 107.222656 21.757812 107.140625 21.921875 C 106.96875 22.289062 106.265625 22.746094 105.941406 22.691406 C 105.453125 22.605469 105.476562 22.128906 105.394531 21.808594 C 105.195312 21.027344 105.058594 20.234375 104.941406 19.4375 C 104.777344 18.324219 104.933594 17.292969 105.625 16.34375 C 106.039062 15.773438 106.339844 15.097656 105.992188 14.347656 C 105.988281 14.347656 105.988281 14.34375 105.984375 14.34375 L 105.980469 14.339844 C 105.984375 14.328125 105.984375 14.320312 105.988281 14.304688 C 106.121094 13.308594 105.492188 12.792969 104.71875 12.414062 C 103.980469 12.046875 103.171875 11.992188 102.351562 12.0625 C 101.46875 12.132812 100.800781 12.519531 100.511719 13.390625 C 100.238281 14.210938 100.4375 14.949219 101.113281 15.480469 C 101.730469 15.960938 102.03125 16.542969 101.964844 17.320312 C 101.949219 17.46875 101.980469 17.628906 102.011719 17.78125 C 102.382812 19.507812 102.722656 21.246094 103.148438 22.957031 C 103.34375 23.722656 103.179688 24.332031 102.640625 24.8125 C 102.234375 25.171875 101.714844 25.417969 101.230469 25.679688 C 100.929688 25.839844 100.605469 25.949219 100.285156 26.070312 C 99.695312 26.300781 99.535156 26.753906 99.585938 27.339844 C 99.714844 28.996094 101.441406 30.292969 103.121094 29.988281 C 103.410156 29.9375 103.699219 29.894531 103.9375 29.859375 C 104.195312 30.824219 104.421875 31.675781 104.683594 32.652344 C 104.273438 32.769531 103.8125 32.902344 103.351562 33.039062 C 102.417969 33.3125 101.945312 34.050781 102.171875 35.046875 C 102.40625 36.09375 103.0625 36.992188 104.035156 36.933594 C 104.25 36.921875 104.480469 36.890625 104.667969 36.792969 C 105.105469 36.566406 105.574219 36.351562 105.929688 36.023438 C 106.84375 35.1875 107.804688 34.511719 109.09375 34.398438 C 109.375 34.371094 109.695312 34.191406 109.894531 33.980469 C 110.253906 33.609375 110.667969 33.507812 111.148438 33.46875 C 112.117188 33.390625 113.046875 33.148438 113.890625 32.652344 C 114.917969 32.042969 115.117188 30.75 114.335938 29.859375 C 113.714844 29.148438 112.945312 28.824219 112.007812 29.03125 C 111.378906 29.167969 110.757812 29.355469 110.074219 29.539062 C 109.898438 29.234375 109.664062 28.9375 109.554688 28.601562 C 109.453125 28.292969 109.414062 27.921875 109.484375 27.605469 C 109.609375 27.015625 110.09375 26.753906 110.648438 26.695312 C 111.335938 26.625 111.765625 26.246094 112.105469 25.6875 C 112.523438 25 112.957031 24.3125 113.429688 23.660156 C 114.046875 22.800781 113.945312 22.003906 113.390625 21.164062 C 112.84375 20.339844 112.074219 20.183594 111.191406 20.34375 C 110.855469 20.402344 110.539062 20.542969 110.210938 20.636719 C 110.019531 20.6875 109.828125 20.71875 109.527344 20.78125 C 109.632812 20.121094 109.730469 19.578125 109.800781 19.03125 C 110.035156 17.230469 109.910156 15.429688 109.707031 13.640625 C 109.613281 12.832031 109.800781 12.179688 110.359375 11.605469 C 110.597656 11.363281 110.824219 11.101562 111.011719 10.816406 C 111.429688 10.175781 111.363281 9.59375 110.710938 9.21875 Z M 107.082031 31.398438 C 106.957031 30.832031 106.839844 30.265625 106.71875 29.703125 C 107.253906 30.3125 107.296875 30.476562 107.082031 31.398438 Z M 106.449219 27.652344 C 106.394531 27.40625 106.328125 27.222656 106.316406 27.035156 C 106.28125 26.386719 106.265625 25.738281 106.242188 25.089844 C 106.207031 24.09375 106.296875 23.976562 107.433594 23.613281 C 107.9375 24.761719 107.550781 26.363281 106.449219 27.652344 Z M 106.449219 27.652344 "/>
<path style=" stroke:none;fill-rule:nonzero;fill:rgb(65.490196%,14.901961%,21.960784%);fill-opacity:1;" d="M 105.988281 14.339844 C 105.988281 14.339844 105.984375 14.335938 105.984375 14.335938 C 105.984375 14.335938 105.984375 14.335938 105.988281 14.339844 Z M 105.988281 14.339844 "/>
<path style=" stroke:none;fill-rule:nonzero;fill:rgb(65.490196%,14.901961%,21.960784%);fill-opacity:1;" d="M 134.054688 32.207031 C 133.855469 31.476562 133.859375 30.738281 134.378906 30.117188 C 134.492188 29.984375 134.75 29.921875 134.941406 29.917969 C 135.109375 29.914062 135.320312 30 135.445312 30.117188 C 136.210938 30.828125 136.898438 30.5 137.578125 29.988281 C 139.179688 28.777344 140.585938 27.382812 141.648438 25.660156 C 142.1875 24.789062 142.191406 24.699219 141.390625 24.09375 C 140.574219 23.476562 140.09375 22.722656 140.167969 21.671875 C 140.238281 20.621094 140.820312 20.109375 141.859375 20.21875 C 142.3125 20.269531 142.757812 20.417969 143.210938 20.476562 C 143.570312 20.523438 143.941406 20.527344 144.300781 20.503906 C 144.710938 20.476562 144.96875 20.242188 145.078125 19.835938 C 145.261719 19.144531 145.574219 18.527344 146.039062 17.972656 C 146.195312 17.789062 146.242188 17.46875 146.242188 17.210938 C 146.253906 16.410156 146.472656 15.695312 147.015625 15.101562 C 147.480469 14.589844 147.59375 14.046875 147.28125 13.414062 C 147.148438 13.144531 147.015625 12.851562 146.976562 12.554688 C 146.910156 12.078125 146.832031 11.574219 146.925781 11.113281 C 147.066406 10.394531 147.558594 10.113281 148.289062 10.207031 C 148.5625 10.238281 148.828125 10.335938 149.101562 10.351562 C 150.539062 10.410156 151.273438 11.316406 151.757812 12.53125 C 152.171875 13.574219 151.738281 14.695312 150.617188 15.4375 C 150.414062 15.570312 150.195312 15.691406 149.972656 15.792969 C 148.738281 16.34375 148.472656 17.390625 148.507812 18.605469 C 148.523438 19.023438 148.703125 19.261719 149.089844 19.4375 C 149.726562 19.734375 150.363281 20.050781 150.949219 20.429688 C 151.636719 20.875 151.765625 21.367188 151.496094 21.988281 C 151.207031 22.644531 150.8125 22.820312 149.996094 22.695312 C 149.359375 22.59375 148.726562 22.507812 148.085938 22.421875 C 147.523438 22.347656 147.09375 22.550781 146.714844 22.988281 C 145.632812 24.25 145.527344 25.832031 146.527344 27.324219 C 147.175781 28.292969 147.8125 29.28125 148.574219 30.152344 C 149.710938 31.453125 151.023438 32.558594 152.664062 33.207031 C 153.015625 33.34375 153.542969 33.371094 153.511719 33.898438 C 153.480469 34.46875 152.9375 34.488281 152.53125 34.515625 C 151.460938 34.597656 150.386719 34.671875 149.316406 34.636719 C 148.894531 34.625 148.421875 34.40625 148.070312 34.152344 C 147.214844 33.53125 146.574219 32.71875 146.164062 31.722656 C 145.652344 30.476562 145.121094 29.242188 144.582031 28.007812 C 144.472656 27.761719 144.292969 27.546875 144.035156 27.140625 C 143.640625 27.632812 143.347656 28.011719 143.042969 28.378906 C 142.125 29.484375 141.261719 30.648438 140.253906 31.667969 C 139.4375 32.503906 138.40625 33.078125 137.15625 33.070312 C 136.574219 33.066406 135.992188 33.140625 135.410156 33.113281 C 134.789062 33.09375 134.234375 32.871094 134.054688 32.207031 Z M 134.054688 32.207031 "/>
<path style=" stroke:none;fill-rule:nonzero;fill:rgb(65.490196%,14.901961%,21.960784%);fill-opacity:1;" d="M 190.929688 25.335938 C 190.558594 25.597656 190.21875 25.914062 189.859375 26.199219 C 189.621094 26.382812 189.398438 26.605469 189.128906 26.730469 C 187.769531 27.339844 186.394531 27.925781 184.996094 28.53125 C 185.855469 27.894531 186.691406 27.292969 187.507812 26.65625 C 187.789062 26.4375 188.070312 26.167969 188.242188 25.863281 C 188.632812 25.179688 188.378906 24.347656 187.6875 23.835938 C 187.175781 23.464844 186.546875 23.566406 185.957031 24.113281 C 185.789062 24.265625 185.605469 24.40625 185.453125 24.53125 C 185.074219 24.097656 184.792969 23.691406 184.429688 23.386719 C 183.613281 22.703125 182.75 22.875 182.191406 23.792969 C 181.96875 24.15625 181.792969 24.546875 181.589844 24.921875 C 180.738281 26.511719 179.898438 28.105469 179.03125 29.683594 C 178.746094 30.191406 178.8125 30.679688 178.972656 31.1875 C 179.207031 31.902344 179.660156 32.125 180.300781 31.746094 C 180.671875 31.527344 180.945312 31.140625 181.261719 30.824219 C 181.265625 30.914062 181.257812 31.03125 181.273438 31.148438 C 181.339844 31.625 181.304688 32.226562 181.820312 32.421875 C 182.371094 32.628906 182.648438 32.058594 182.980469 31.722656 C 183.003906 31.699219 183.023438 31.675781 183.042969 31.65625 C 183.550781 31.089844 184.203125 30.945312 185.039062 30.957031 C 184.839844 31.65625 184.609375 32.207031 183.921875 32.464844 C 183.1875 32.738281 182.441406 32.78125 181.667969 32.738281 C 179.011719 32.574219 176.371094 32.160156 173.699219 32.425781 C 173.378906 32.457031 173.144531 32.394531 172.933594 32.074219 C 172.636719 31.617188 172.226562 31.585938 171.757812 31.867188 C 171.042969 32.300781 170.789062 33.359375 171.21875 34.148438 C 171.699219 35.039062 172.882812 35.554688 173.59375 35.109375 C 174.195312 34.730469 174.835938 34.640625 175.515625 34.609375 C 176.066406 34.585938 176.613281 34.570312 177.160156 34.523438 C 178.808594 34.382812 180.449219 34.175781 182.09375 34.101562 C 183.570312 34.035156 184.230469 34.792969 184.199219 36.382812 C 183.898438 36.460938 183.574219 36.519531 183.261719 36.621094 C 182.890625 36.742188 182.789062 37 183 37.328125 C 183.125 37.527344 183.308594 37.710938 183.503906 37.847656 C 184.203125 38.34375 184.898438 38.84375 185.625 39.292969 C 186.503906 39.835938 187.15625 39.613281 187.628906 38.667969 C 187.890625 38.144531 187.945312 37.609375 187.691406 37.078125 C 187.484375 36.640625 187.230469 36.21875 187.007812 35.785156 C 186.816406 35.414062 186.636719 35.035156 186.472656 34.695312 C 187.507812 33.558594 187.429688 33.84375 187.472656 32.183594 C 187.476562 32.121094 187.46875 32.0625 187.472656 32 C 187.523438 30.9375 188.332031 30.363281 189.367188 30.65625 C 189.660156 30.738281 189.941406 30.867188 190.230469 30.957031 C 191.527344 31.347656 192.292969 30.777344 192.199219 29.425781 C 192.160156 28.855469 192.226562 28.359375 192.484375 27.84375 C 192.890625 27.03125 192.761719 26.234375 192.1875 25.527344 C 191.777344 25.019531 191.460938 24.960938 190.929688 25.335938 Z M 182.65625 28.0625 C 182.59375 28.015625 182.535156 27.972656 182.476562 27.929688 C 182.546875 27.808594 182.59375 27.667969 182.691406 27.574219 C 182.761719 27.503906 182.894531 27.496094 183.105469 27.59375 C 182.957031 27.746094 182.804688 27.90625 182.65625 28.0625 Z M 182.65625 28.0625 "/>
<path style=" stroke:none;fill-rule:nonzero;fill:rgb(65.490196%,14.901961%,21.960784%);fill-opacity:1;" d="M 178.625 35.601562 C 178.175781 35.609375 177.800781 35.847656 177.742188 36.367188 C 177.691406 36.800781 177.96875 37.277344 178.402344 37.472656 C 178.605469 37.5625 178.832031 37.609375 179.050781 37.675781 C 179.097656 37.734375 179.144531 37.796875 179.195312 37.855469 C 177.707031 38.277344 176.730469 39.054688 177.082031 40.78125 C 175.042969 40.296875 173.507812 40.964844 172.183594 42.226562 C 171.867188 42.53125 171.648438 42.976562 171.496094 43.394531 C 171.316406 43.910156 171.234375 44.460938 171.148438 45.003906 C 171.027344 45.773438 171.355469 46.34375 172.109375 46.542969 C 173.042969 46.792969 173.980469 46.875 174.796875 46.15625 C 175.320312 45.691406 175.871094 45.257812 176.382812 44.785156 C 177.21875 44.023438 177.527344 43.984375 178.472656 44.570312 C 178.808594 44.773438 179.144531 45 179.507812 45.148438 C 180.058594 45.375 180.457031 45.160156 180.648438 44.589844 C 180.882812 43.898438 180.679688 43.25 180.15625 42.84375 C 179.203125 42.101562 178.820312 41.222656 178.96875 40.023438 C 179.046875 39.375 179.023438 39.253906 179.664062 39.027344 C 180.035156 38.890625 180.425781 38.800781 180.785156 38.640625 C 181.433594 38.351562 181.855469 37.605469 181.796875 36.933594 C 181.734375 36.199219 181.234375 35.839844 180.605469 35.726562 C 179.964844 35.609375 179.285156 35.585938 178.625 35.601562 Z M 175.386719 43.472656 C 175 43.929688 174.546875 44.324219 174.121094 44.742188 C 174.042969 44.703125 173.964844 44.667969 173.886719 44.628906 C 173.890625 44.207031 173.84375 43.78125 173.917969 43.375 C 173.964844 43.101562 174.140625 42.816406 174.335938 42.609375 C 174.597656 42.328125 174.933594 42.359375 175.242188 42.59375 C 175.570312 42.847656 175.621094 43.191406 175.386719 43.472656 Z M 175.386719 43.472656 "/>
<path style=" stroke:none;fill-rule:evenodd;fill:rgb(65.490196%,14.901961%,21.960784%);fill-opacity:1;" d="M 237.582031 88.128906 L 238.285156 89.78125 C 238.285156 89.78125 238.359375 91.59375 237.914062 91.835938 C 237.472656 92.082031 236.449219 92.625 236.160156 92.273438 C 235.871094 91.921875 234.175781 90.878906 234.566406 89.886719 C 234.957031 88.890625 236.832031 87.566406 237.582031 88.128906 Z M 237.582031 88.128906 "/>
<path style=" stroke:none;fill-rule:evenodd;fill:rgb(65.490196%,14.901961%,21.960784%);fill-opacity:1;" d="M 235.125 93.886719 C 234.964844 93.691406 231.675781 91.265625 231.675781 91.265625 C 231.675781 91.265625 226.132812 86.722656 225.792969 86.507812 C 225.457031 86.296875 224.914062 85.203125 224.542969 84.664062 C 224.167969 84.125 223.246094 83.105469 223.246094 83.105469 C 222.949219 82.859375 220.554688 82.816406 220.019531 83.421875 C 219.40625 84.117188 220.355469 85.304688 220.539062 85.894531 C 220.722656 86.484375 223.742188 87.535156 224.296875 87.902344 C 224.851562 88.269531 225.941406 89.132812 225.941406 89.132812 L 229.0625 92.125 C 229.0625 92.125 230.152344 92.496094 229.894531 92.800781 C 229.640625 93.105469 226.972656 92.175781 225.703125 91.875 C 224.429688 91.574219 223.660156 91.820312 222.125 92.449219 C 220.585938 93.074219 221.585938 93.972656 221.886719 94.4375 C 222.1875 94.902344 220.949219 95.453125 220.949219 95.453125 C 220.949219 95.453125 217.210938 96.914062 216.667969 96.996094 C 216.117188 97.078125 216.359375 96.617188 216.253906 96.453125 C 216.148438 96.285156 216.476562 95.625 216.476562 95.625 C 217.410156 95.148438 217.273438 94.457031 217.296875 94.199219 C 217.324219 93.941406 216.753906 92.550781 215.621094 92.9375 C 214.488281 93.328125 214.324219 94.09375 214.570312 94.949219 C 214.8125 95.808594 215.808594 95.714844 215.996094 95.769531 C 216.179688 95.820312 215.75 96.4375 215.75 96.4375 C 215.75 96.4375 213.96875 97.9375 214.210938 98.796875 C 214.453125 99.65625 215.335938 99.691406 215.335938 99.691406 C 215.335938 99.691406 218.945312 98.320312 219.257812 98.285156 C 219.574219 98.25 219.320312 98.882812 219.320312 98.882812 C 217.441406 100.460938 217.886719 102.066406 218.230469 102.640625 C 218.570312 103.214844 219.441406 103.335938 220.210938 102.960938 C 220.976562 102.589844 220.839844 100.820312 220.867188 100.234375 C 220.894531 99.648438 220.023438 98.984375 219.867188 98.800781 C 219.714844 98.609375 219.871094 98.261719 220.148438 98.117188 C 220.421875 97.972656 221.769531 98.039062 222.308594 98.042969 C 222.84375 98.046875 222.691406 97.523438 223.125 97.484375 C 223.566406 97.441406 224.824219 98.367188 225.101562 98.34375 C 225.382812 98.320312 225.800781 97.789062 226.179688 97.808594 C 226.5625 97.828125 227.179688 98.378906 227.660156 98.445312 C 228.136719 98.511719 228.199219 98.308594 229.066406 97.894531 C 229.929688 97.480469 229.203125 96.90625 229.140625 96.074219 C 229.082031 95.246094 228.378906 94.746094 227.988281 94.382812 C 227.59375 94.023438 226.035156 93.507812 225.746094 93.191406 C 225.453125 92.875 226.386719 92.863281 226.832031 92.691406 C 227.277344 92.523438 230.085938 93.847656 230.570312 94.003906 C 231.054688 94.160156 233.816406 96.949219 234.546875 97.519531 C 235.277344 98.097656 235.625 97.453125 235.625 97.453125 C 236.707031 95.585938 235.285156 94.078125 235.125 93.886719 Z M 225.738281 94.757812 C 225.753906 95.171875 225.605469 95.503906 225.335938 95.28125 C 225.0625 95.058594 224.257812 94.160156 224.257812 94.160156 C 224.257812 94.160156 225.722656 94.347656 225.738281 94.757812 Z M 225.738281 94.757812 "/>
<path style=" stroke:none;fill-rule:nonzero;fill:rgb(65.490196%,14.901961%,21.960784%);fill-opacity:1;" d="M 199.058594 46.726562 C 199.058594 47.863281 198.140625 48.785156 197.003906 48.785156 C 195.867188 48.785156 194.949219 47.863281 194.949219 46.726562 C 194.949219 45.59375 195.867188 44.671875 197.003906 44.671875 C 198.140625 44.671875 199.058594 45.59375 199.058594 46.726562 Z M 199.058594 46.726562 "/>
<path style=" stroke:none;fill-rule:nonzero;fill:rgb(65.490196%,14.901961%,21.960784%);fill-opacity:1;" d="M 209.183594 58.144531 C 209.183594 58.144531 212.558594 55.996094 212.625 55.863281 C 212.691406 55.730469 212.703125 53.914062 213.53125 53.171875 C 214.261719 52.5625 215.21875 51.515625 216.6875 52.964844 C 218.15625 54.417969 216.34375 57.902344 216.214844 58.023438 C 216.082031 58.144531 215.386719 58.558594 214.472656 58.410156 C 214.472656 58.410156 208.929688 61.523438 208.679688 61.683594 C 208.421875 61.84375 207.71875 63.226562 208.550781 64.019531 C 209.382812 64.8125 212.5625 65.136719 213.238281 64.75 C 213.914062 64.359375 219.394531 60.898438 219.394531 60.898438 C 219.394531 60.898438 221.609375 59.925781 221.980469 61.675781 C 221.980469 61.675781 221.988281 63.433594 221.796875 63.609375 C 221.601562 63.78125 221.226562 64.070312 220.546875 63.957031 C 220.546875 63.957031 219.96875 64.394531 219.65625 64.527344 C 219.339844 64.65625 219.371094 64.804688 218.539062 64.6875 C 217.707031 64.566406 216.441406 64.390625 216.1875 65.09375 C 215.933594 65.792969 216.339844 65.972656 216.421875 66.035156 C 216.503906 66.09375 217.886719 67.378906 217.449219 68.953125 C 217.449219 68.953125 217.40625 69.042969 217.257812 69.015625 C 217.101562 68.988281 216.875 69.339844 216.875 69.339844 C 216.875 69.339844 216.789062 69.761719 216.246094 69.394531 C 215.703125 69.027344 213.09375 67.128906 212.925781 67.066406 C 212.757812 67.003906 211.957031 67.328125 211.523438 67.445312 C 210.894531 67.78125 208.421875 68.3125 209.117188 70.046875 C 209.117188 70.046875 209.652344 71.007812 209.78125 71.777344 C 209.914062 72.542969 210.144531 73.238281 209.101562 73.191406 C 208.058594 73.144531 207.40625 72.585938 206.632812 71.597656 C 206.632812 71.597656 206.328125 70.933594 206.179688 70.777344 C 206.035156 70.617188 206.046875 70.558594 206.464844 70.546875 C 206.464844 70.546875 206.566406 70.492188 206.558594 70.199219 C 206.554688 69.90625 206.402344 68.4375 206.851562 68.113281 C 207.300781 67.792969 209.761719 66.472656 209.796875 66.15625 C 209.828125 65.835938 209.640625 65.714844 209.328125 65.523438 C 209.011719 65.328125 206.882812 64.140625 205.832031 64.519531 C 203.9375 65.070312 203.871094 65.707031 203.695312 66.277344 C 203.515625 66.847656 201.679688 68.492188 201.144531 68.371094 C 200.601562 68.25 199.191406 68.023438 199.316406 67.621094 C 199.445312 67.214844 200.148438 64.84375 199.984375 64.578125 C 199.816406 64.3125 199.652344 64.144531 199.34375 64.085938 C 199.035156 64.027344 198.476562 64.101562 198.246094 63.777344 C 198.015625 63.457031 197.128906 62.308594 197.402344 61.796875 C 197.679688 61.289062 199.445312 59.976562 199.667969 60.464844 C 199.890625 60.953125 201.230469 62.574219 201.75 62.5 C 202.269531 62.425781 204.390625 61.421875 204.542969 60.976562 C 204.691406 60.53125 204.84375 60.488281 204.230469 59.882812 C 203.613281 59.285156 204.132812 56.738281 204.699219 56.1875 C 205.265625 55.636719 208.953125 58.183594 209.164062 58.132812 Z M 209.183594 58.144531 "/>
<path style=" stroke:none;fill-rule:nonzero;fill:rgb(65.490196%,14.901961%,21.960784%);fill-opacity:1;" d="M 126.339844 196.261719 L 126.339844 212.726562 C 134.488281 212.625 142.15625 208.753906 148.855469 202.011719 C 142.128906 198.390625 134.46875 196.320312 126.339844 196.261719 Z M 126.339844 196.261719 "/>
<path style=" stroke:none;fill-rule:nonzero;fill:rgb(65.490196%,14.901961%,21.960784%);fill-opacity:1;" d="M 150.773438 172.34375 L 150.765625 158.949219 C 149.96875 158.796875 149.171875 158.652344 148.375 158.511719 L 148.375 172.34375 L 140.722656 172.34375 L 140.722656 157.421875 C 139.933594 157.332031 139.148438 157.25 138.359375 157.179688 L 138.355469 172.34375 L 130.734375 172.34375 L 130.730469 156.683594 C 129.273438 156.632812 127.808594 156.597656 126.335938 156.59375 L 126.335938 195.589844 C 134.652344 195.644531 142.480469 197.78125 149.34375 201.507812 C 157.71875 192.847656 164.53125 179.675781 168.808594 163.800781 C 165.398438 162.613281 161.925781 161.566406 158.398438 160.664062 L 158.398438 172.339844 L 150.773438 172.339844 Z M 133.957031 189.101562 C 133.800781 189.601562 133.589844 190.011719 133.324219 190.328125 C 133.058594 190.648438 132.757812 190.898438 132.417969 191.089844 C 132.082031 191.277344 131.714844 191.371094 131.316406 191.371094 C 130.867188 191.371094 130.457031 191.257812 130.09375 191.023438 C 129.726562 190.792969 129.402344 190.464844 129.121094 190.035156 C 128.917969 189.71875 128.742188 189.304688 128.585938 188.777344 C 128.386719 188.070312 128.289062 187.34375 128.289062 186.589844 C 128.289062 185.566406 128.433594 184.628906 128.71875 183.773438 C 128.953125 183.066406 129.3125 182.523438 129.792969 182.148438 C 130.277344 181.769531 130.785156 181.585938 131.316406 181.585938 C 131.863281 181.585938 132.375 181.769531 132.84375 182.140625 C 133.316406 182.515625 133.667969 183.011719 133.886719 183.644531 C 134.195312 184.507812 134.351562 185.453125 134.351562 186.476562 C 134.351562 187.414062 134.222656 188.289062 133.957031 189.101562 Z M 144.300781 188.300781 C 143.824219 189.203125 143.121094 189.933594 142.183594 190.480469 C 141.246094 191.027344 140.132812 191.324219 138.855469 191.371094 L 138.855469 191.179688 C 139.625 191 140.273438 190.742188 140.804688 190.402344 C 141.339844 190.058594 141.761719 189.636719 142.074219 189.132812 C 142.386719 188.628906 142.605469 188.046875 142.730469 187.390625 C 142.445312 187.539062 142.199219 187.640625 142 187.699219 C 141.800781 187.757812 141.585938 187.785156 141.367188 187.785156 C 140.65625 187.785156 140.0625 187.53125 139.589844 187.015625 C 139.117188 186.503906 138.878906 185.800781 138.878906 184.90625 C 138.878906 184.289062 139.007812 183.722656 139.261719 183.207031 C 139.519531 182.691406 139.886719 182.292969 140.359375 182.007812 C 140.835938 181.722656 141.332031 181.582031 141.84375 181.582031 C 142.394531 181.582031 142.914062 181.738281 143.40625 182.054688 C 143.894531 182.367188 144.289062 182.824219 144.574219 183.417969 C 144.867188 184.015625 145.011719 184.695312 145.011719 185.457031 C 145.011719 186.445312 144.777344 187.390625 144.300781 188.300781 Z M 144.300781 188.300781 "/>
<path style=" stroke:none;fill-rule:nonzero;fill:rgb(65.490196%,14.901961%,21.960784%);fill-opacity:1;" d="M 142.121094 182.207031 C 142.007812 182.105469 141.855469 182.054688 141.671875 182.054688 C 141.4375 182.054688 141.261719 182.152344 141.132812 182.351562 C 140.949219 182.625 140.863281 183.144531 140.863281 183.910156 C 140.863281 185.191406 141.015625 186.074219 141.320312 186.558594 C 141.519531 186.875 141.785156 187.03125 142.125 187.03125 C 142.304688 187.03125 142.542969 186.957031 142.839844 186.808594 C 142.882812 186.292969 142.90625 185.835938 142.90625 185.441406 C 142.90625 184.601562 142.808594 183.816406 142.617188 183.09375 C 142.503906 182.691406 142.339844 182.398438 142.121094 182.207031 Z M 142.121094 182.207031 "/>
<path style=" stroke:none;fill-rule:nonzero;fill:rgb(65.490196%,14.901961%,21.960784%);fill-opacity:1;" d="M 131.859375 182.28125 C 131.742188 182.136719 131.558594 182.058594 131.296875 182.058594 C 131.097656 182.058594 130.941406 182.117188 130.828125 182.226562 C 130.65625 182.386719 130.542969 182.671875 130.480469 183.082031 C 130.417969 183.492188 130.386719 184.917969 130.386719 187.363281 C 130.386719 188.695312 130.433594 189.585938 130.523438 190.039062 C 130.59375 190.363281 130.691406 190.585938 130.824219 190.695312 C 130.949219 190.808594 131.125 190.863281 131.335938 190.863281 C 131.5625 190.863281 131.738281 190.789062 131.855469 190.640625 C 132.046875 190.382812 132.160156 189.980469 132.1875 189.441406 L 132.210938 186.460938 C 132.210938 184.816406 132.203125 183.859375 132.1875 183.582031 C 132.144531 182.945312 132.03125 182.507812 131.859375 182.28125 Z M 131.859375 182.28125 "/>
<path style=" stroke:none;fill-rule:nonzero;fill:rgb(65.490196%,14.901961%,21.960784%);fill-opacity:1;" d="M 130.050781 213.109375 C 139.523438 212.679688 148.601562 210.753906 157.0625 207.570312 C 154.703125 205.59375 152.152344 203.84375 149.453125 202.339844 C 143.613281 208.261719 137.039062 212.046875 130.050781 213.109375 Z M 130.050781 213.109375 "/>
<path style=" stroke:none;fill-rule:nonzero;fill:rgb(65.490196%,14.901961%,21.960784%);fill-opacity:1;" d="M 125.664062 212.730469 L 125.664062 196.261719 C 117.535156 196.316406 109.871094 198.390625 103.148438 202.011719 C 109.847656 208.753906 117.511719 212.625 125.664062 212.730469 Z M 125.664062 212.730469 "/>
<path style=" stroke:none;fill-rule:nonzero;fill:rgb(65.490196%,14.901961%,21.960784%);fill-opacity:1;" d="M 91.5 153.257812 L 79.75 146.617188 C 80.542969 152.367188 81.636719 157.90625 83.015625 163.144531 C 86.480469 161.941406 90.015625 160.878906 93.601562 159.964844 L 93.601562 156.816406 C 93.601562 155.335938 92.796875 153.972656 91.5 153.257812 Z M 91.5 153.257812 "/>
<path style=" stroke:none;fill-rule:nonzero;fill:rgb(65.490196%,14.901961%,21.960784%);fill-opacity:1;" d="M 101.238281 154.007812 L 101.234375 158.261719 C 102.03125 158.109375 102.824219 157.964844 103.625 157.824219 L 103.625 153.671875 C 103.625 150.769531 102.074219 148.085938 99.5625 146.636719 L 78.570312 134.707031 C 78.628906 135.625 78.699219 136.539062 78.769531 137.445312 L 98.183594 148.71875 C 100.074219 149.8125 101.238281 151.828125 101.238281 154.007812 Z M 101.238281 154.007812 "/>
<path style=" stroke:none;fill-rule:nonzero;fill:rgb(65.490196%,14.901961%,21.960784%);fill-opacity:1;" d="M 78.277344 125.398438 L 106.207031 142.105469 C 109.347656 143.921875 111.28125 147.273438 111.28125 150.898438 L 111.28125 156.742188 C 112.070312 156.652344 112.855469 156.574219 113.644531 156.496094 L 113.640625 150.53125 C 113.640625 146.175781 111.316406 142.15625 107.546875 139.980469 L 98.027344 134.503906 L 98.027344 125.398438 L 114.171875 134.6875 C 118.566406 137.226562 121.273438 141.914062 121.273438 146.988281 L 121.273438 156 C 122.730469 155.945312 124.195312 155.910156 125.667969 155.90625 L 125.667969 125.390625 L 78.277344 125.390625 C 78.277344 125.398438 78.277344 125.398438 78.277344 125.398438 Z M 78.277344 125.398438 "/>
<path style=" stroke:none;fill-rule:nonzero;fill:rgb(65.490196%,14.901961%,21.960784%);fill-opacity:1;" d="M 194 134.324219 L 172.996094 146.203125 C 172.1875 152.183594 171.058594 157.9375 169.621094 163.371094 C 179.398438 166.824219 188.664062 171.402344 197.246094 176.957031 C 207.808594 162.484375 214.066406 144.667969 214.140625 125.398438 L 194 125.398438 Z M 194 134.324219 "/>
<path style=" stroke:none;fill-rule:nonzero;fill:rgb(65.490196%,14.901961%,21.960784%);fill-opacity:1;" d="M 174.410156 125.398438 C 174.402344 129.347656 174.234375 133.226562 173.949219 137.039062 L 194 125.398438 Z M 174.410156 125.398438 "/>
<path style=" stroke:none;fill-rule:nonzero;fill:rgb(65.490196%,14.901961%,21.960784%);fill-opacity:1;" d="M 125.664062 102.488281 L 125.664062 94.671875 C 119.066406 102.765625 112.597656 111.53125 119.894531 124.722656 L 125.664062 124.722656 L 125.664062 123.960938 C 119.722656 114.964844 121.664062 108.285156 125.664062 102.488281 Z M 125.664062 102.488281 "/>
<path style=" stroke:none;fill-rule:nonzero;fill:rgb(65.490196%,14.901961%,21.960784%);fill-opacity:1;" d="M 102.3125 91.164062 C 95.777344 89.964844 89.402344 88.289062 83.238281 86.160156 C 80.089844 97.796875 78.304688 110.886719 78.277344 124.726562 L 119.722656 124.726562 C 100.449219 108.90625 98.589844 99.117188 102.3125 91.164062 Z M 102.3125 91.164062 "/>
<path style=" stroke:none;fill-rule:nonzero;fill:rgb(65.490196%,14.901961%,21.960784%);fill-opacity:1;" d="M 117.433594 54.96875 C 120.699219 57.238281 123.410156 59.375 125.660156 61.40625 L 125.660156 53.878906 C 117.515625 53.824219 109.835938 51.769531 103.074219 48.179688 C 94.652344 56.6875 87.773438 69.730469 83.414062 85.503906 C 89.621094 87.652344 96.035156 89.335938 102.621094 90.535156 C 108.375 79.257812 124.945312 71.523438 117.433594 54.96875 Z M 117.433594 54.96875 "/>
<path style=" stroke:none;fill-rule:nonzero;fill:rgb(65.490196%,14.901961%,21.960784%);fill-opacity:1;" d="M 137.832031 134.699219 L 153.976562 125.410156 L 153.976562 134.519531 L 144.457031 139.996094 C 140.683594 142.167969 138.363281 146.191406 138.363281 150.542969 L 138.359375 156.5 C 139.148438 156.578125 139.933594 156.65625 140.722656 156.742188 L 140.722656 150.910156 C 140.722656 147.285156 142.65625 143.929688 145.796875 142.117188 L 173.722656 125.414062 C 173.722656 125.410156 173.722656 125.40625 173.722656 125.402344 L 126.339844 125.402344 L 126.339844 155.921875 C 127.8125 155.925781 129.277344 155.960938 130.734375 156.011719 L 130.734375 147.007812 C 130.730469 141.925781 133.4375 137.234375 137.832031 134.699219 Z M 137.832031 134.699219 "/>
<path style=" stroke:none;fill-rule:nonzero;fill:rgb(65.490196%,14.901961%,21.960784%);fill-opacity:1;" d="M 158.402344 156.824219 L 158.402344 159.96875 C 161.988281 160.882812 165.519531 161.941406 168.988281 163.148438 C 170.367188 157.910156 171.457031 152.375 172.25 146.625 L 160.503906 153.269531 C 159.203125 153.984375 158.402344 155.347656 158.402344 156.824219 Z M 158.402344 156.824219 "/>
<path style=" stroke:none;fill-rule:nonzero;fill:rgb(65.490196%,14.901961%,21.960784%);fill-opacity:1;" d="M 148.375 153.683594 L 148.375 157.828125 C 149.175781 157.964844 149.96875 158.109375 150.765625 158.265625 L 150.761719 154.015625 C 150.761719 151.835938 151.925781 149.820312 153.8125 148.734375 L 173.226562 137.457031 C 173.296875 136.546875 173.371094 135.640625 173.425781 134.722656 L 152.433594 146.648438 C 149.925781 148.097656 148.375 150.777344 148.375 153.683594 Z M 148.375 153.683594 "/>
<path style=" stroke:none;fill-rule:nonzero;fill:rgb(65.490196%,14.901961%,21.960784%);fill-opacity:1;" d="M 82.5625 164.027344 C 72.859375 167.457031 63.667969 171.996094 55.152344 177.503906 C 65.015625 190.804688 78.535156 201.230469 94.226562 207.296875 C 96.652344 205.234375 99.277344 203.40625 102.066406 201.839844 C 93.675781 193.09375 86.851562 179.898438 82.5625 164.027344 Z M 82.5625 164.027344 "/>
<path style=" stroke:none;fill-rule:nonzero;fill:rgb(65.490196%,14.901961%,21.960784%);fill-opacity:1;" d="M 156.507812 42.34375 C 148.203125 39.277344 139.3125 37.433594 130.046875 37.015625 C 136.871094 38.050781 143.300781 41.675781 149.03125 47.359375 C 151.683594 45.921875 154.183594 44.234375 156.507812 42.34375 Z M 156.507812 42.34375 "/>
<path style=" stroke:none;fill-rule:nonzero;fill:rgb(65.490196%,14.901961%,21.960784%);fill-opacity:1;" d="M 126.339844 37.394531 L 126.339844 53.203125 C 134.292969 53.148438 141.800781 51.15625 148.421875 47.679688 C 141.824219 41.207031 134.308594 37.496094 126.339844 37.394531 Z M 126.339844 37.394531 "/>
<path style=" stroke:none;fill-rule:nonzero;fill:rgb(65.490196%,14.901961%,21.960784%);fill-opacity:1;" d="M 121.949219 37.015625 C 112.683594 37.433594 103.792969 39.277344 95.488281 42.34375 C 97.8125 44.234375 100.316406 45.917969 102.964844 47.359375 C 108.699219 41.675781 115.125 38.050781 121.949219 37.015625 Z M 121.949219 37.015625 "/>
<path style=" stroke:none;fill-rule:nonzero;fill:rgb(65.490196%,14.901961%,21.960784%);fill-opacity:1;" d="M 125.664062 53.203125 L 125.664062 37.394531 C 117.691406 37.496094 110.175781 41.207031 103.582031 47.683594 C 110.203125 51.15625 117.707031 53.148438 125.664062 53.203125 Z M 125.664062 53.203125 "/>
<path style=" stroke:none;fill-rule:nonzero;fill:rgb(65.490196%,14.901961%,21.960784%);fill-opacity:1;" d="M 94.941406 207.570312 C 103.402344 210.757812 112.480469 212.679688 121.953125 213.109375 C 114.960938 212.046875 108.386719 208.261719 102.554688 202.339844 C 99.847656 203.84375 97.300781 205.59375 94.941406 207.570312 Z M 94.941406 207.570312 "/>
<path style=" stroke:none;fill-rule:nonzero;fill:rgb(65.490196%,14.901961%,21.960784%);fill-opacity:1;" d="M 133.5 93.09375 C 131.273438 93.21875 129.035156 93.292969 126.78125 93.304688 C 126.632812 93.488281 126.488281 93.667969 126.339844 93.851562 L 126.339844 101.546875 C 128.527344 98.578125 131.1875 95.828125 133.5 93.09375 Z M 133.5 93.09375 "/>
<path style=" stroke:none;fill-rule:nonzero;fill:rgb(65.490196%,14.901961%,21.960784%);fill-opacity:1;" d="M 126.339844 124.722656 L 132.945312 124.722656 C 127.484375 112.847656 143.589844 105.519531 144.308594 98.414062 C 147.628906 112.246094 133.332031 115.042969 132.996094 124.722656 L 173.726562 124.722656 C 173.695312 110.882812 171.914062 97.792969 168.765625 86.15625 C 160.230469 89.105469 151.304688 91.191406 142.089844 92.324219 C 141.148438 100.476562 128.933594 105.894531 126.339844 116.578125 Z M 126.339844 124.722656 "/>
<path style=" stroke:none;fill-rule:nonzero;fill:rgb(65.490196%,14.901961%,21.960784%);fill-opacity:1;" d="M 119.839844 182.351562 C 119.660156 182.625 119.570312 183.144531 119.570312 183.910156 C 119.570312 185.191406 119.726562 186.074219 120.03125 186.558594 C 120.230469 186.875 120.496094 187.03125 120.832031 187.03125 C 121.011719 187.03125 121.253906 186.957031 121.546875 186.808594 C 121.59375 186.292969 121.617188 185.835938 121.617188 185.441406 C 121.617188 184.601562 121.519531 183.816406 121.324219 183.09375 C 121.214844 182.6875 121.050781 182.394531 120.832031 182.203125 C 120.71875 182.101562 120.566406 182.050781 120.382812 182.050781 C 120.148438 182.054688 119.96875 182.15625 119.839844 182.351562 Z M 119.839844 182.351562 "/>
<path style=" stroke:none;fill-rule:nonzero;fill:rgb(65.490196%,14.901961%,21.960784%);fill-opacity:1;" d="M 113.644531 172.335938 L 113.640625 157.175781 C 112.851562 157.25 112.066406 157.332031 111.277344 157.417969 L 111.277344 172.335938 L 103.625 172.335938 L 103.625 158.511719 C 102.824219 158.652344 102.03125 158.796875 101.234375 158.949219 L 101.226562 172.335938 L 93.601562 172.335938 L 93.601562 160.664062 C 90.074219 161.566406 86.601562 162.613281 83.191406 163.800781 C 87.46875 179.671875 94.28125 192.84375 102.65625 201.503906 C 109.519531 197.777344 117.347656 195.640625 125.664062 195.585938 L 125.664062 156.589844 C 124.191406 156.59375 122.730469 156.628906 121.269531 156.679688 L 121.265625 172.335938 Z M 112.492188 191.175781 L 107.542969 191.175781 L 107.542969 190.917969 L 107.792969 190.917969 C 108.195312 190.917969 108.480469 190.875 108.648438 190.78125 C 108.820312 190.691406 108.933594 190.5625 108.996094 190.402344 C 109.054688 190.242188 109.089844 189.863281 109.089844 189.269531 L 109.089844 184.398438 C 109.089844 183.960938 109.070312 183.691406 109.027344 183.582031 C 108.984375 183.476562 108.910156 183.382812 108.792969 183.304688 C 108.679688 183.230469 108.550781 183.191406 108.40625 183.191406 C 108.167969 183.191406 107.882812 183.265625 107.546875 183.414062 L 107.421875 183.164062 L 110.878906 181.585938 L 111.109375 181.585938 L 111.109375 189.269531 C 111.109375 189.847656 111.132812 190.21875 111.183594 190.375 C 111.234375 190.535156 111.339844 190.664062 111.5 190.765625 C 111.664062 190.867188 111.921875 190.917969 112.277344 190.917969 L 112.496094 190.917969 L 112.496094 191.175781 Z M 123.285156 183.417969 C 123.578125 184.015625 123.71875 184.695312 123.71875 185.457031 C 123.71875 186.449219 123.484375 187.394531 123.007812 188.300781 C 122.539062 189.203125 121.828125 189.933594 120.890625 190.480469 C 119.953125 191.027344 118.84375 191.324219 117.566406 191.371094 L 117.566406 191.179688 C 118.332031 191 118.980469 190.742188 119.515625 190.402344 C 120.050781 190.058594 120.472656 189.636719 120.785156 189.132812 C 121.09375 188.628906 121.316406 188.046875 121.4375 187.390625 C 121.152344 187.539062 120.910156 187.640625 120.707031 187.699219 C 120.507812 187.757812 120.296875 187.785156 120.074219 187.785156 C 119.363281 187.785156 118.769531 187.53125 118.300781 187.015625 C 117.828125 186.5 117.589844 185.800781 117.589844 184.90625 C 117.589844 184.289062 117.714844 183.722656 117.972656 183.207031 C 118.226562 182.691406 118.59375 182.292969 119.070312 182.007812 C 119.542969 181.722656 120.039062 181.582031 120.554688 181.582031 C 121.105469 181.582031 121.621094 181.738281 122.113281 182.054688 C 122.601562 182.367188 122.992188 182.824219 123.285156 183.417969 Z M 123.285156 183.417969 "/>
<path style=" stroke:none;fill-rule:nonzero;fill:rgb(65.490196%,14.901961%,21.960784%);fill-opacity:1;" d="M 127.339844 92.621094 C 129.605469 92.597656 131.855469 92.519531 134.089844 92.382812 C 136.480469 89.476562 138.398438 86.5625 138.851562 83.40625 C 141.304688 86.535156 142.226562 89.210938 142.140625 91.636719 C 151.273438 90.507812 160.121094 88.433594 168.582031 85.503906 C 164.226562 69.730469 157.34375 56.6875 148.921875 48.179688 C 142.160156 51.769531 134.480469 53.828125 126.335938 53.878906 L 126.335938 62.015625 C 140.5625 75.234375 134.597656 83.707031 127.339844 92.621094 Z M 127.339844 92.621094 "/>
<path style=" stroke:none;fill-rule:nonzero;fill:rgb(65.490196%,14.901961%,21.960784%);fill-opacity:1;" d="M 149.9375 201.839844 C 152.726562 203.40625 155.351562 205.234375 157.777344 207.296875 C 173.46875 201.230469 186.988281 190.804688 196.851562 177.503906 C 188.332031 171.996094 179.144531 167.457031 169.441406 164.027344 C 165.148438 179.898438 158.324219 193.09375 149.9375 201.839844 Z M 149.9375 201.839844 "/>
<path style=" stroke:none;fill-rule:nonzero;fill:rgb(65.490196%,14.901961%,21.960784%);fill-opacity:1;" d="M 77.59375 125.398438 L 58.015625 125.398438 L 78.050781 137.03125 C 77.769531 133.222656 77.601562 129.347656 77.59375 125.398438 Z M 77.59375 125.398438 "/>
<path style=" stroke:none;fill-rule:nonzero;fill:rgb(65.490196%,14.901961%,21.960784%);fill-opacity:1;" d="M 58 125.398438 L 37.859375 125.398438 C 37.933594 144.667969 44.191406 162.484375 54.753906 176.957031 C 63.335938 171.402344 72.601562 166.824219 82.378906 163.371094 C 80.941406 157.933594 79.8125 152.179688 79 146.191406 L 58 134.316406 Z M 58 125.398438 "/>
<path style=" stroke:none;fill-rule:nonzero;fill:rgb(65.490196%,14.901961%,21.960784%);fill-opacity:1;" d="M 169.214844 85.28125 C 178.828125 81.898438 187.933594 77.429688 196.390625 72.007812 C 186.457031 58.847656 172.921875 48.566406 157.242188 42.621094 C 154.847656 44.601562 152.265625 46.363281 149.527344 47.867188 C 157.957031 56.460938 164.84375 69.515625 169.214844 85.28125 Z M 169.214844 85.28125 "/>
<path style=" stroke:none;fill-rule:nonzero;fill:rgb(65.490196%,14.901961%,21.960784%);fill-opacity:1;" d="M 102.472656 47.867188 C 99.730469 46.363281 97.152344 44.601562 94.757812 42.625 C 79.082031 48.570312 65.542969 58.851562 55.609375 72.011719 C 64.066406 77.433594 73.171875 81.902344 82.785156 85.28125 C 87.15625 69.515625 94.042969 56.460938 102.472656 47.867188 Z M 102.472656 47.867188 "/>
<path style=" stroke:none;fill-rule:nonzero;fill:rgb(65.490196%,14.901961%,21.960784%);fill-opacity:1;" d="M 82.605469 85.929688 C 72.910156 82.527344 63.726562 78.019531 55.203125 72.550781 C 44.371094 87.132812 37.9375 105.175781 37.859375 124.722656 L 77.589844 124.722656 C 77.621094 110.804688 79.425781 97.640625 82.605469 85.929688 Z M 82.605469 85.929688 "/>
<path style=" stroke:none;fill-rule:nonzero;fill:rgb(65.490196%,14.901961%,21.960784%);fill-opacity:1;" d="M 174.410156 124.722656 L 214.140625 124.722656 C 214.066406 105.175781 207.636719 87.132812 196.800781 72.550781 C 188.277344 78.019531 179.09375 82.527344 169.398438 85.929688 C 172.574219 97.640625 174.378906 110.804688 174.410156 124.722656 Z M 174.410156 124.722656 "/>
</g>
</svg>
