<?xml version="1.0" encoding="UTF-8"?>
<svg xmlns="http://www.w3.org/2000/svg" xmlns:xlink="http://www.w3.org/1999/xlink" width="252px" height="252px" viewBox="0 0 252 252" version="1.1">
<defs>
<clipPath id="clip1">
  <path d="M 0 0 L 251.875 0 L 251.875 251.875 L 0 251.875 Z M 0 0 "/>
</clipPath>
</defs>
<g id="surface1">
<g clip-path="url(#clip1)" clip-rule="nonzero">
<path style=" stroke:none;fill-rule:evenodd;fill:rgb(60.392159%,5.098039%,7.843138%);fill-opacity:1;" d="M 125.953125 251.863281 C 56.410156 251.863281 0.03125 195.46875 0.03125 125.925781 C 0.03125 56.390625 56.410156 0.0117188 125.953125 0.0117188 L 125.953125 7.339844 C 60.453125 7.339844 7.347656 60.449219 7.347656 125.925781 C 7.347656 191.417969 60.453125 244.511719 125.953125 244.511719 Z M 125.953125 0.0117188 C 195.476562 0.0117188 251.875 56.390625 251.875 125.925781 C 251.875 195.46875 195.476562 251.863281 125.953125 251.863281 L 125.953125 244.511719 C 191.410156 244.511719 244.523438 191.417969 244.523438 125.925781 C 244.523438 60.449219 191.410156 7.339844 125.953125 7.339844 Z M 125.953125 0.0117188 "/>
</g>
<path style=" stroke:none;fill-rule:nonzero;fill:rgb(60.392159%,5.098039%,7.843138%);fill-opacity:1;" d="M 24.582031 165.816406 L 24.582031 165.9375 L 24.519531 165.832031 Z M 24.582031 154.917969 L 24.582031 156.402344 C 23.320312 157.042969 22.898438 158.039062 23.296875 159.398438 C 23.582031 160.238281 24.023438 160.789062 24.582031 161.0625 L 24.582031 162.4375 C 23.542969 162.085938 22.777344 161.15625 22.25 159.6875 C 21.5625 157.347656 22.28125 155.78125 24.390625 154.980469 Z M 24.582031 140.398438 L 24.582031 141.589844 L 22.28125 141.15625 L 22.746094 144.21875 L 24.582031 143.273438 L 24.582031 144.800781 L 19.164062 147.773438 L 18.949219 146.320312 L 21.648438 144.894531 L 21.011719 140.902344 L 17.996094 140.339844 L 17.78125 138.992188 Z M 24.582031 130.570312 L 17.558594 135.875 L 17.679688 137.417969 L 24.582031 136.808594 L 24.582031 135.492188 L 19.460938 135.9375 L 24.582031 132.117188 Z M 24.582031 128.804688 L 24.582031 130.121094 L 17.101562 130.769531 L 16.996094 129.472656 Z M 24.582031 125.367188 L 24.582031 126.742188 L 17.101562 126.859375 L 17.085938 125.503906 Z M 24.582031 115.433594 L 24.582031 116.800781 L 23.457031 116.730469 L 23.085938 121.9375 L 24.582031 122.050781 L 24.582031 123.433594 L 17.128906 122.90625 L 17.207031 121.539062 L 21.847656 121.859375 L 22.199219 116.648438 L 17.566406 116.3125 L 17.679688 114.96875 Z M 24.582031 106.761719 C 24.382812 106.691406 24.15625 106.636719 23.925781 106.589844 C 21.195312 106.117188 19.644531 106.957031 19.265625 109.160156 C 19.042969 110.65625 19.789062 111.757812 21.515625 112.429688 L 21.273438 113.714844 C 18.875 112.886719 17.863281 111.222656 18.222656 108.691406 C 18.84375 105.84375 20.800781 104.664062 24.101562 105.183594 C 24.269531 105.238281 24.421875 105.261719 24.582031 105.308594 Z M 24.582031 114.1875 L 24.582031 114.171875 Z M 24.582031 116.800781 L 24.582031 115.433594 L 27.625 115.640625 L 27.53125 117 Z M 24.582031 123.433594 L 24.582031 122.050781 L 27.164062 122.234375 L 27.082031 123.59375 Z M 24.582031 126.742188 L 24.582031 125.367188 L 27.058594 125.328125 L 27.082031 126.699219 Z M 24.582031 132.117188 L 24.582031 130.570312 L 25.171875 130.121094 L 25.15625 130.074219 L 24.582031 130.121094 L 24.582031 128.804688 L 26.929688 128.609375 L 27.082031 130.234375 Z M 24.582031 136.808594 L 24.582031 135.492188 L 27.523438 135.234375 L 27.625 136.546875 Z M 24.582031 144.800781 L 24.582031 143.273438 L 26.882812 142.082031 L 26.882812 142.019531 L 24.582031 141.589844 L 24.582031 140.398438 L 28.226562 141.132812 L 28.472656 142.644531 Z M 24.582031 156.402344 L 24.582031 154.917969 L 30.734375 152.925781 L 31.144531 154.214844 L 25.183594 156.15625 C 24.957031 156.234375 24.765625 156.324219 24.582031 156.402344 M 32.875 180.472656 L 32.875 182.4375 L 32.179688 181.34375 Z M 32.875 173.414062 L 32.875 174.941406 L 29.433594 176.589844 L 28.867188 175.367188 Z M 32.875 162.117188 L 24.582031 165.816406 L 24.582031 165.9375 L 25.0625 167.03125 L 32.4375 163.753906 L 32.476562 163.792969 L 27.15625 171.714844 L 27.769531 173.105469 L 32.875 170.828125 L 32.875 169.40625 L 28.992188 171.128906 L 32.875 165.386719 Z M 32.875 159.535156 L 32.875 160.542969 L 27.042969 162.4375 C 26.101562 162.691406 25.277344 162.691406 24.582031 162.4375 L 24.582031 161.0625 C 25.171875 161.375 25.886719 161.375 26.777344 161.101562 L 32.742188 159.152344 Z M 24.582031 114.171875 L 24.8125 112.886719 C 26.195312 112.8125 27.035156 112.015625 27.324219 110.535156 C 27.5625 108.609375 26.644531 107.355469 24.582031 106.761719 L 24.582031 105.308594 C 27.523438 106.101562 28.816406 107.890625 28.457031 110.71875 C 27.984375 113.035156 26.683594 114.203125 24.582031 114.1875 Z M 32.875 160.542969 L 32.875 159.535156 L 33.171875 160.453125 Z M 32.875 165.386719 L 32.875 162.117188 L 33.636719 161.789062 L 34.308594 163.265625 Z M 32.875 170.828125 L 32.875 169.40625 L 36.375 167.847656 L 36.890625 169.042969 Z M 32.875 174.941406 L 38.421875 172.210938 L 37.839844 170.996094 L 32.875 173.414062 Z M 39.527344 184.1875 L 39.527344 185.914062 L 37.472656 187.519531 L 39.527344 190.171875 L 39.527344 192.128906 L 35.671875 187.214844 Z M 39.527344 174.246094 L 33.8125 181.167969 L 39.527344 179.832031 L 39.527344 181.207031 L 32.972656 182.597656 L 32.875 182.4375 L 32.875 180.472656 L 38.71875 172.96875 Z M 39.527344 174.246094 L 39.554688 174.246094 Z M 39.527344 181.207031 L 43.390625 180.398438 L 42.5625 179.113281 L 39.527344 179.832031 Z M 39.527344 192.128906 L 39.527344 190.171875 L 41.15625 192.257812 L 40.195312 192.996094 Z M 44.777344 192.027344 L 44.777344 193.832031 L 42.425781 195.863281 L 41.523438 194.839844 Z M 44.777344 182.621094 L 44.777344 184.492188 L 43.472656 182.84375 L 41.035156 184.738281 L 44.398438 189.03125 L 43.449219 189.789062 L 40.085938 185.488281 L 39.527344 185.914062 L 39.527344 184.1875 L 43.539062 181.046875 Z M 47.277344 198.394531 L 47.277344 200.3125 C 47.117188 200.511719 47.085938 200.738281 47.164062 201 L 47.003906 201.144531 L 45.894531 199.859375 C 46.140625 199.546875 46.605469 199.011719 47.277344 198.394531 M 47.277344 189.835938 L 47.277344 191.644531 L 46.535156 192.289062 L 47.277344 193.128906 L 47.277344 194.886719 L 45.667969 193.035156 L 44.777344 193.832031 L 44.777344 192.027344 Z M 47.277344 185.839844 L 47.277344 187.335938 L 47.101562 187.464844 L 44.777344 184.492188 L 44.777344 182.621094 Z M 47.277344 187.335938 L 47.277344 185.839844 L 48.019531 186.753906 Z M 51.320312 200.601562 L 50.441406 199.746094 C 49.640625 200.542969 49.289062 201.382812 49.441406 202.28125 C 49.457031 203.109375 49.976562 203.996094 50.984375 204.988281 C 51.105469 205.085938 51.222656 205.1875 51.320312 205.285156 L 51.320312 203.796875 C 50.464844 202.734375 50.464844 201.710938 51.320312 200.730469 Z M 51.320312 194.992188 L 51.320312 196.628906 C 50.753906 196.8125 50.160156 196.804688 49.515625 196.550781 C 49.898438 197.308594 49.675781 198.019531 48.875 198.714844 L 47.605469 199.984375 C 47.46875 200.082031 47.363281 200.167969 47.277344 200.3125 L 47.277344 198.394531 L 47.636719 198.058594 C 48.578125 197.285156 48.644531 196.453125 47.828125 195.496094 L 47.277344 194.886719 L 47.277344 193.128906 L 48.617188 194.6875 C 49.503906 195.695312 50.375 195.820312 51.246094 195.046875 Z M 51.320312 190.898438 L 51.320312 192.554688 L 49.136719 190.039062 L 47.277344 191.644531 L 47.277344 189.835938 L 49.074219 188.296875 Z M 51.320312 196.628906 C 51.664062 196.507812 51.976562 196.320312 52.269531 196.0625 C 53.621094 194.894531 53.558594 193.457031 52.109375 191.785156 L 51.320312 190.898438 L 51.320312 192.554688 L 51.351562 192.585938 C 52.113281 193.472656 52.109375 194.265625 51.320312 194.992188 Z M 51.320312 200.730469 L 51.382812 200.671875 L 51.320312 200.601562 Z M 57.59375 206.609375 L 55.617188 208.976562 L 56.671875 209.847656 L 57.59375 208.738281 Z M 57.59375 196.949219 L 57.59375 198.53125 C 57.527344 198.433594 57.425781 198.332031 57.359375 198.234375 C 56.257812 197.238281 55.316406 197.125 54.53125 197.957031 C 54.035156 198.476562 54.035156 199.042969 54.53125 199.683594 L 56.113281 202.121094 C 56.945312 203.429688 56.832031 204.589844 55.828125 205.652344 C 54.589844 206.851562 53.109375 206.753906 51.320312 205.285156 L 51.320312 203.796875 C 51.457031 203.941406 51.566406 204.09375 51.703125 204.246094 C 52.992188 205.429688 54.035156 205.652344 54.804688 204.890625 C 55.539062 204.324219 55.449219 203.390625 54.484375 202.078125 L 53.308594 200.3125 C 52.558594 199.042969 52.613281 197.980469 53.445312 197.117188 C 54.746094 195.910156 56.113281 195.847656 57.59375 196.949219 M 57.59375 198.53125 C 58.464844 199.578125 58.519531 200.554688 57.753906 201.425781 L 58.664062 202.3125 C 60.078125 200.738281 59.878906 199.089844 58.078125 197.332031 C 57.914062 197.195312 57.753906 197.054688 57.59375 196.949219 Z M 61.875 211.445312 L 61.875 213.730469 L 61.730469 213.929688 L 60.660156 213.179688 Z M 61.875 201.519531 L 61.875 203.644531 L 57.59375 208.738281 L 57.59375 206.609375 Z M 61.875 203.644531 L 63.089844 202.207031 L 62.035156 201.320312 L 61.875 201.519531 Z M 69.21875 216.640625 L 69.21875 218.933594 L 68.21875 218.316406 Z M 69.21875 206.984375 L 69.21875 208.375 L 66.789062 206.683594 L 61.875 213.730469 L 61.875 211.445312 L 65.734375 205.9375 L 62.96875 203.996094 L 63.625 203.0625 Z M 69.21875 208.375 L 69.585938 208.640625 L 70.234375 207.679688 L 69.21875 206.984375 Z M 69.21875 218.933594 L 69.21875 216.640625 L 70.289062 214.863281 L 70.128906 207.832031 L 71.480469 208.65625 L 71.441406 214.210938 L 76.402344 211.597656 L 77.761719 212.429688 L 71.449219 215.566406 L 69.371094 219.035156 Z M 86.214844 216.605469 L 86.214844 217.84375 C 84.898438 217.941406 83.820312 218.828125 82.988281 220.570312 C 82.101562 223.007812 82.621094 224.6875 84.640625 225.660156 C 85.183594 225.851562 85.710938 225.925781 86.214844 225.910156 L 86.214844 227.082031 C 85.578125 227.058594 84.914062 226.921875 84.210938 226.660156 C 81.445312 225.347656 80.605469 223.144531 81.6875 220.011719 C 82.820312 217.703125 84.316406 216.558594 86.214844 216.605469 M 90.9375 228.21875 L 90.9375 229 L 90.714844 228.929688 Z M 90.9375 219.753906 L 90.9375 222.953125 C 90.882812 223.253906 90.78125 223.527344 90.667969 223.832031 C 89.5625 226.050781 88.0625 227.132812 86.214844 227.082031 L 86.214844 225.910156 C 87.527344 225.84375 88.597656 224.964844 89.414062 223.296875 C 90.308594 220.835938 89.789062 219.109375 87.824219 218.117188 C 87.261719 217.902344 86.703125 217.8125 86.214844 217.84375 L 86.214844 216.605469 C 86.855469 216.621094 87.542969 216.773438 88.277344 217.070312 C 89.675781 217.71875 90.554688 218.613281 90.9375 219.753906 M 90.9375 222.953125 C 91.242188 221.722656 91.242188 220.675781 90.9375 219.753906 Z M 90.9375 229 L 90.9375 228.21875 L 93.792969 219.433594 L 100.367188 221.570312 L 100.023438 222.671875 L 94.726562 220.953125 L 93.777344 223.902344 L 98.441406 225.429688 L 98.082031 226.570312 L 93.421875 225.046875 L 92.007812 229.359375 Z M 110.613281 223.589844 L 110.613281 224.6875 L 108.65625 224.375 L 108.117188 227.820312 L 110.613281 228.21875 L 110.613281 229.441406 L 107.933594 229 L 107.273438 233.15625 L 105.921875 232.941406 L 107.480469 223.078125 Z M 110.613281 229.441406 L 110.613281 228.21875 L 110.75 228.234375 C 112.136719 228.457031 112.898438 227.96875 113.097656 226.78125 C 113.265625 225.699219 112.699219 225.046875 111.355469 224.789062 L 110.613281 224.6875 L 110.613281 223.589844 L 111.949219 223.789062 C 113.816406 224.152344 114.640625 225.214844 114.414062 226.996094 C 114.015625 228.886719 112.898438 229.703125 111.050781 229.503906 Z M 119.96875 224.429688 L 119.96875 225.582031 C 117.925781 225.660156 116.765625 226.945312 116.492188 229.480469 C 116.382812 232.054688 117.46875 233.484375 119.679688 233.746094 C 119.777344 233.746094 119.882812 233.746094 119.96875 233.730469 L 119.96875 234.835938 L 119.609375 234.835938 C 116.566406 234.515625 115.054688 232.691406 115.054688 229.367188 C 115.464844 226.082031 117.101562 224.4375 119.96875 224.429688 M 157.621094 222.953125 L 156.34375 223.28125 C 155.6875 222.039062 154.640625 221.617188 153.140625 221.9375 C 151.125 222.558594 150.390625 224.132812 150.949219 226.636719 C 151.628906 229.328125 153.019531 230.40625 155.175781 229.855469 C 156.640625 229.464844 157.34375 228.34375 157.261719 226.476562 L 158.519531 226.15625 C 158.734375 228.679688 157.625 230.304688 155.175781 230.972656 C 152.324219 231.582031 150.449219 230.253906 149.570312 227.042969 C 148.921875 223.757812 150.007812 221.695312 152.882812 220.835938 C 155.175781 220.324219 156.746094 221.027344 157.621094 222.953125 M 146.660156 222.585938 L 148.730469 232.347656 L 147.394531 232.644531 L 145.339844 222.871094 Z M 136.390625 225.53125 L 136.214844 224.382812 L 144.199219 223.128906 L 144.367188 224.261719 L 141.019531 224.789062 L 142.410156 233.523438 L 141.113281 233.722656 L 139.738281 225.003906 Z M 135.488281 224.453125 L 136.007812 234.433594 L 134.617188 234.5 L 134.113281 224.535156 Z M 127.738281 224.71875 L 127.738281 233.515625 L 132.8125 233.515625 L 132.8125 234.691406 L 126.363281 234.691406 L 126.363281 224.71875 Z M 119.96875 234.835938 L 119.96875 233.730469 C 121.980469 233.644531 123.125 232.371094 123.445312 229.960938 C 123.476562 227.332031 122.4375 225.882812 120.25 225.582031 L 119.96875 225.582031 L 119.96875 224.429688 C 120.082031 224.429688 120.21875 224.4375 120.328125 224.4375 C 123.335938 224.75 124.835938 226.621094 124.804688 230.046875 C 124.375 233.21875 122.757812 234.792969 119.96875 234.835938 M 163.152344 219.355469 L 163.152344 221.472656 L 161.792969 219.675781 L 161.746094 219.691406 L 161.699219 224.382812 L 163.152344 223.878906 L 163.152344 225.164062 L 161.667969 225.667969 L 161.636719 228.753906 L 160.355469 229.199219 L 160.644531 218.523438 L 162.105469 218.03125 Z M 167.234375 224.414062 L 163.152344 219.355469 L 163.152344 221.472656 L 164.632812 223.375 L 163.152344 223.878906 L 163.152344 225.164062 L 165.480469 224.375 L 167.234375 226.605469 Z M 167.234375 216.632812 L 167.234375 219.730469 L 165.710938 216.632812 L 166.941406 216.023438 Z M 167.234375 219.730469 L 170.082031 225.589844 L 175.851562 222.777344 L 175.339844 221.695312 L 170.777344 223.917969 L 167.234375 216.632812 Z M 167.234375 226.605469 L 167.234375 224.414062 L 168.746094 226.292969 L 167.347656 226.78125 Z M 187.46875 211.261719 C 186.71875 210.675781 185.816406 210.566406 184.75 210.964844 L 182.011719 212.027344 C 181.308594 212.371094 180.734375 212.257812 180.324219 211.644531 C 179.691406 210.710938 179.980469 209.816406 181.203125 208.945312 C 182.5625 208.121094 183.632812 208.199219 184.417969 209.238281 L 185.449219 208.519531 C 184.195312 206.824219 182.546875 206.660156 180.476562 208.082031 C 178.679688 209.359375 178.273438 210.859375 179.277344 212.554688 C 179.949219 213.554688 181.003906 213.816406 182.386719 213.339844 L 184.351562 212.554688 C 185.832031 211.882812 186.789062 211.996094 187.164062 212.828125 C 187.742188 213.746094 187.316406 214.722656 185.902344 215.71875 C 184.394531 216.679688 183.21875 216.542969 182.324219 215.304688 L 181.246094 216.03125 C 181.84375 216.980469 182.601562 217.488281 183.496094 217.527344 C 184.3125 217.671875 185.296875 217.375 186.476562 216.597656 C 186.851562 216.3125 187.1875 216.03125 187.46875 215.769531 Z M 187.46875 203.0625 L 187.46875 209.09375 C 185.910156 206.851562 185.910156 204.867188 187.46875 203.0625 M 187.46875 215.769531 C 188.730469 214.527344 188.925781 213.273438 188.125 211.996094 C 187.910156 211.683594 187.699219 211.4375 187.46875 211.261719 Z M 194.40625 209.238281 L 194.40625 210.695312 C 192.167969 212.402344 189.953125 212.003906 187.773438 209.542969 C 187.667969 209.382812 187.558594 209.238281 187.46875 209.09375 L 187.46875 203.0625 C 187.621094 202.878906 187.789062 202.695312 188.003906 202.503906 C 189.84375 201.039062 191.59375 200.984375 193.199219 202.335938 L 192.207031 203.167969 C 191.089844 202.367188 189.929688 202.4375 188.730469 203.375 C 187.1875 204.820312 187.207031 206.554688 188.8125 208.578125 C 190.601562 210.695312 192.335938 211.03125 194.042969 209.605469 C 194.175781 209.496094 194.300781 209.351562 194.40625 209.238281 M 194.40625 198.980469 L 194.40625 200.96875 L 192.617188 199.027344 L 193.613281 198.109375 Z M 195.730469 205.371094 L 195.730469 209.207031 C 195.445312 209.6875 195.035156 210.164062 194.53125 210.636719 L 194.40625 210.695312 L 194.40625 209.238281 C 195.1875 208.257812 195.203125 207.082031 194.421875 205.660156 L 195.429688 204.820312 C 195.539062 204.988281 195.644531 205.1875 195.730469 205.371094 M 195.730469 200.371094 L 195.730469 202.367188 L 194.40625 200.96875 L 194.40625 198.980469 Z M 195.730469 196.09375 L 195.730469 197.101562 L 195.21875 196.589844 Z M 195.730469 202.367188 L 195.730469 200.371094 L 200.421875 205.402344 L 199.433594 206.339844 Z M 195.730469 209.207031 L 195.730469 205.371094 C 196.378906 206.746094 196.378906 208.03125 195.730469 209.207031 M 204.3125 199.84375 L 202.476562 201.71875 L 200.09375 199.410156 L 203.882812 195.488281 L 203.011719 194.664062 L 199.238281 198.585938 L 196.988281 196.421875 L 201.078125 192.179688 L 200.261719 191.386719 L 195.730469 196.09375 L 195.730469 197.101562 L 202.390625 203.550781 L 204.3125 201.558594 Z M 204.3125 189.339844 L 204.3125 190.582031 L 203.441406 190.476562 L 203.425781 190.515625 L 204.3125 191.25 L 204.3125 192.929688 L 201.101562 190.347656 L 202.132812 189.0625 Z M 204.3125 192.929688 L 208.851562 196.628906 L 209.675781 195.605469 L 204.3125 191.25 Z M 204.3125 201.558594 L 204.3125 199.84375 L 206.648438 197.414062 L 207.519531 198.246094 Z M 210.929688 190.15625 L 210.929688 191.378906 L 204.3125 190.582031 L 204.3125 189.339844 Z M 210.929688 188.054688 L 206.113281 184.140625 L 205.296875 185.164062 L 210.929688 189.742188 Z M 210.929688 177.492188 L 210.929688 178.851562 C 210.484375 179.066406 210.089844 179.449219 209.707031 180.023438 C 208.773438 181.710938 209.1875 183.238281 210.929688 184.570312 L 210.929688 186.28125 L 210.707031 186.144531 C 207.941406 184.25 207.285156 181.992188 208.742188 179.394531 C 209.394531 178.433594 210.117188 177.804688 210.929688 177.492188 M 210.929688 178.851562 L 210.929688 177.492188 C 211.738281 177.203125 212.65625 177.25 213.632812 177.628906 L 212.933594 178.746094 C 212.199219 178.5 211.507812 178.53125 210.929688 178.851562 M 210.929688 191.378906 L 210.929688 190.15625 L 211.570312 190.253906 L 210.929688 189.742188 L 210.929688 188.054688 L 213.871094 190.429688 L 212.917969 191.621094 Z M 215.101562 185.714844 L 215.101562 187.039062 C 213.925781 187.433594 212.519531 187.183594 210.929688 186.28125 L 210.929688 184.570312 C 211.082031 184.707031 211.25 184.8125 211.402344 184.9375 C 212.871094 185.839844 214.109375 186.097656 215.101562 185.714844 M 215.101562 169.027344 L 215.101562 171.472656 L 213.632812 174.261719 L 215.101562 175.015625 L 215.101562 176.574219 L 211.984375 174.925781 Z M 215.101562 171.472656 L 216.390625 169.058594 L 215.390625 168.519531 L 215.101562 169.027344 Z M 215.101562 187.039062 C 216.003906 186.753906 216.78125 186.105469 217.46875 185.097656 C 218.738281 182.917969 218.425781 180.976562 216.53125 179.320312 L 215.820312 180.425781 C 217.179688 181.710938 217.46875 182.980469 216.675781 184.292969 C 216.230469 184.980469 215.710938 185.488281 215.101562 185.714844 Z M 221.136719 176.40625 L 221.136719 178.953125 L 220.800781 179.601562 L 215.101562 176.574219 L 215.101562 175.015625 L 216.371094 175.71875 L 218.929688 170.90625 L 219.992188 171.457031 L 217.433594 176.269531 L 220.375 177.828125 Z M 221.136719 160.46875 L 221.136719 161.765625 L 219.65625 161.683594 L 219.625 161.71875 L 221.136719 163.066406 L 221.136719 164.65625 L 218.003906 161.796875 L 218.601562 160.359375 Z M 221.136719 154.917969 L 221.136719 156.988281 L 220.054688 156.660156 L 220.496094 155.109375 Z M 221.136719 178.953125 L 221.136719 176.40625 L 223.1875 172.527344 L 224.242188 173.105469 Z M 227.121094 160.679688 L 227.121094 162.0625 L 225.601562 161.957031 L 224.089844 165.707031 L 226.378906 167.742188 L 225.863281 169.011719 L 221.136719 164.65625 L 221.136719 163.066406 L 223.140625 164.851562 L 224.292969 161.964844 L 221.136719 161.765625 L 221.136719 160.46875 Z M 227.121094 153.207031 L 227.121094 154.46875 L 222.253906 155.882812 L 222.246094 155.933594 L 227.121094 157.339844 L 227.121094 158.71875 L 221.136719 156.988281 L 221.136719 154.917969 Z M 227.121094 150.425781 L 227.121094 151.785156 L 221.871094 150.289062 L 222.246094 149.019531 Z M 227.121094 140.078125 L 227.121094 141.421875 C 225.570312 141.5 224.578125 142.289062 224.242188 143.792969 L 223.746094 146.253906 L 227.121094 146.917969 L 227.121094 148.292969 L 222.40625 147.398438 L 223.195312 143.378906 C 223.746094 141.269531 225.035156 140.183594 227.121094 140.078125 M 227.121094 130.542969 L 227.121094 131.902344 L 224.59375 131.769531 L 224.683594 130.410156 Z M 227.121094 119.199219 L 227.121094 120.613281 L 226.152344 120.980469 L 226.152344 121.042969 L 227.121094 121.339844 L 227.121094 122.546875 L 224.714844 121.785156 L 224.636719 120.253906 Z M 227.121094 114.417969 L 227.121094 115.816406 L 224.515625 116.914062 L 224.292969 115.5 Z M 227.121094 108.304688 L 227.121094 109.554688 L 225.296875 110.335938 L 225.3125 110.421875 L 227.121094 110.640625 L 227.121094 111.773438 L 223.722656 111.34375 L 223.515625 109.886719 Z M 227.121094 104.839844 L 227.121094 106.140625 L 222.941406 105.78125 L 222.730469 104.3125 Z M 227.121094 109.554688 L 227.121094 108.304688 L 231.25 106.539062 L 231.25 106.484375 L 227.121094 106.140625 L 227.121094 104.839844 L 232.984375 105.523438 L 233.191406 106.9375 Z M 227.121094 115.816406 L 227.121094 114.417969 L 232.082031 112.484375 L 232.082031 112.429688 L 227.121094 111.773438 L 227.121094 110.640625 L 233.832031 111.511719 L 234.023438 112.925781 Z M 227.121094 122.546875 L 227.121094 121.339844 L 230.644531 122.378906 L 230.484375 119.292969 L 227.121094 120.613281 L 227.121094 119.199219 L 234.417969 116.136719 L 234.496094 117.589844 L 231.652344 118.726562 L 231.867188 122.761719 L 234.800781 123.640625 L 234.894531 125.007812 Z M 227.121094 131.902344 L 227.121094 130.542969 L 233.449219 130.855469 L 233.71875 125.8125 L 234.902344 125.871094 L 234.582031 132.292969 Z M 227.121094 148.292969 L 227.121094 146.917969 L 231.355469 147.75 L 231.851562 145.167969 C 232.121094 143.296875 231.027344 142.09375 228.621094 141.546875 C 228.078125 141.421875 227.582031 141.402344 227.121094 141.421875 L 227.121094 140.078125 C 227.632812 140.0625 228.175781 140.078125 228.765625 140.183594 C 232.019531 140.957031 233.433594 142.675781 233 145.320312 L 232.21875 149.300781 Z M 227.121094 154.46875 L 227.121094 153.207031 L 229.636719 152.511719 L 227.121094 151.785156 L 227.121094 150.425781 L 231.835938 151.769531 L 231.410156 153.238281 Z M 227.121094 158.71875 L 227.121094 157.339844 L 230.011719 158.175781 L 229.636719 159.410156 Z M 227.121094 162.0625 L 227.121094 160.679688 L 229.207031 160.773438 L 228.660156 162.132812 Z M 227.121094 162.0625 "/>
<path style=" stroke:none;fill-rule:evenodd;fill:rgb(60.392159%,5.098039%,7.843138%);fill-opacity:1;" d="M 47.300781 62.871094 L 47.300781 61.65625 C 47.195312 62.09375 47.132812 62.503906 47.300781 62.871094 M 40.785156 46.230469 C 41.585938 47.183594 43.785156 47.496094 43.066406 49.085938 C 43.539062 49.875 43.449219 51.15625 44.472656 51.546875 C 45.246094 50.085938 46.460938 48.78125 47.300781 47.351562 L 47.300781 50.996094 C 46.84375 51.53125 46.292969 51.992188 46.230469 52.824219 C 46.390625 53.230469 46.835938 53.214844 47.300781 53.097656 L 47.300781 58.457031 C 47.210938 58.386719 47.101562 58.300781 46.972656 58.234375 C 46.519531 57.378906 45.558594 56.414062 44.671875 55.910156 C 44.03125 56.644531 44.9375 57.699219 44.046875 58.339844 C 44.015625 59.097656 44.199219 59.855469 44.511719 60.464844 C 45.605469 60.710938 44.9375 62.117188 46.140625 62.015625 C 46.445312 62.671875 46.859375 63.246094 47.300781 63.84375 L 47.300781 64.914062 C 46.949219 65.652344 46.519531 66.441406 45.667969 66.617188 C 44.757812 66.011719 43.769531 67.023438 43.050781 66.363281 C 42.378906 65.707031 41.171875 67.066406 40.554688 65.875 C 40.777344 65.464844 40.507812 64.867188 39.964844 64.890625 L 39.597656 64.914062 C 39.167969 64.085938 39.40625 63.363281 39.390625 62.535156 C 39.796875 61.824219 40.957031 61.246094 41.675781 61.238281 C 42.625 58.984375 41.84375 56.828125 43.234375 54.796875 C 43.175781 53.199219 41.265625 51.929688 40.195312 51.082031 C 38.550781 50.796875 38.589844 48.835938 38.085938 47.679688 C 38.253906 46.640625 39.621094 45.539062 40.785156 46.230469 M 47.300781 63.84375 L 47.300781 64.914062 C 47.40625 64.683594 47.523438 64.453125 47.628906 64.253906 Z M 47.300781 47.351562 C 47.363281 47.230469 47.421875 47.121094 47.476562 47.03125 C 48.675781 45.671875 50.375 46.816406 51.71875 46.769531 C 52.878906 46.929688 53.324219 48.191406 53.542969 48.972656 C 53.566406 50.433594 54.414062 52.472656 52.558594 53.359375 C 51.320312 54.351562 51.007812 56.363281 50.984375 58.089844 C 52.140625 60.527344 54.851562 62.476562 56.792969 64.652344 C 57.640625 65.746094 57.824219 66.273438 58.582031 67.335938 C 59.351562 68.613281 61.898438 69.308594 60.589844 70.875 C 58.871094 70.675781 57.695312 69.652344 56.746094 68.390625 C 55.804688 66.320312 54.332031 65.707031 52.710938 63.996094 C 51.941406 63.613281 51.351562 62.476562 50.441406 62.132812 C 49.984375 62.863281 50.230469 63.996094 49.113281 64.308594 C 48.289062 64.277344 47.902344 63.332031 47.300781 62.894531 L 47.300781 61.65625 C 47.621094 60.566406 48.449219 59.394531 47.300781 58.457031 L 47.300781 53.097656 C 47.683594 53.015625 48.066406 52.863281 48.378906 52.824219 C 47.789062 52.074219 48.148438 51.066406 48.234375 50.109375 L 47.859375 50.058594 C 47.742188 50.433594 47.546875 50.714844 47.300781 50.996094 Z M 47.300781 47.351562 "/>
<path style=" stroke:none;fill-rule:evenodd;fill:rgb(60.392159%,5.098039%,7.843138%);fill-opacity:1;" d="M 72.488281 25.214844 C 71.050781 26.40625 70.203125 28.269531 69.980469 30.171875 C 69.601562 32.191406 70.289062 33.894531 70.203125 35.757812 C 70.867188 35.5625 71.945312 34.910156 72.03125 33.976562 C 70.707031 34.054688 71.175781 32.738281 70.5625 32.082031 C 71.242188 31.898438 71.664062 30.882812 72.488281 30.859375 L 72.488281 37.523438 C 72.480469 37.171875 72.472656 36.789062 72.472656 36.394531 C 71.695312 36.4375 71.519531 38.128906 70.363281 37.265625 C 70.59375 38.992188 71.519531 40.695312 72.488281 42.285156 L 72.488281 46.527344 C 72.441406 46.449219 72.367188 46.382812 72.273438 46.410156 L 72.488281 46.75 L 72.488281 49.148438 C 71.570312 48.175781 70.457031 47.09375 70.128906 45.730469 C 69.292969 45.105469 68.316406 43.769531 68.011719 42.613281 C 67.0625 42.390625 67.308594 41.332031 66.941406 40.703125 C 65.417969 38.234375 64.648438 36.058594 63.132812 33.582031 C 63.339844 32.9375 62.644531 32.296875 63.179688 31.753906 C 63.898438 31.527344 64.730469 31.359375 65.398438 31.871094 C 66.511719 33.261719 66.160156 35.09375 67.203125 36.394531 C 68.570312 38.640625 68.011719 41.421875 70.234375 43.429688 C 70.304688 43.859375 70.640625 44.339844 71.023438 44.554688 C 71.050781 44.84375 71.023438 45.273438 71.386719 45.335938 C 71.601562 45.425781 71.695312 45.210938 71.894531 45.152344 C 71.273438 43.890625 71.496094 42.949219 70.433594 41.851562 C 68.5 38.058594 67.308594 34.316406 67.765625 30.082031 C 67.675781 27.589844 69.585938 25.359375 71.273438 23.386719 C 71.695312 23.316406 72.261719 23.066406 72.488281 22.660156 Z M 72.488281 42.285156 C 73.09375 43.234375 73.703125 44.15625 74.199219 45.027344 C 74.320312 45.226562 74.429688 45.425781 74.535156 45.632812 L 74.535156 51.507812 C 73.664062 51.058594 73.480469 49.851562 72.671875 49.347656 L 72.488281 49.148438 L 72.488281 46.75 L 72.671875 47.03125 L 72.71875 46.832031 C 72.625 46.769531 72.582031 46.632812 72.488281 46.527344 Z M 72.488281 30.859375 C 72.582031 30.859375 72.6875 30.875 72.800781 30.882812 C 73.421875 31.242188 73.988281 32 74.535156 32.808594 L 74.535156 36.484375 C 74.382812 36.347656 74.230469 36.285156 74.03125 36.347656 C 74.335938 36.789062 73.664062 37.5625 74.300781 37.785156 C 74.382812 37.730469 74.445312 37.707031 74.535156 37.683594 L 74.535156 40.765625 C 73.839844 40.765625 73.117188 40.855469 72.847656 39.863281 C 72.65625 39.03125 72.542969 38.3125 72.488281 37.523438 Z M 74.535156 25.28125 C 74.320312 25 74.160156 24.671875 74.046875 24.289062 C 73.480469 24.511719 72.945312 24.832031 72.488281 25.214844 L 72.488281 22.660156 C 72.542969 22.59375 72.582031 22.5 72.601562 22.410156 C 73.28125 21.988281 73.925781 21.910156 74.535156 22.011719 Z M 74.535156 45.632812 L 74.535156 51.507812 C 74.707031 51.585938 74.902344 51.644531 75.132812 51.652344 C 75.859375 51.5625 76.585938 51.457031 76.714844 50.578125 C 76.125 48.894531 75.453125 47.351562 74.535156 45.632812 M 77.609375 48.328125 C 77.257812 47.925781 77.105469 47.328125 77.425781 46.816406 C 77.476562 46.800781 77.554688 46.769531 77.609375 46.769531 Z M 74.535156 32.808594 C 75.117188 33.664062 75.683594 34.605469 76.308594 35.214844 C 76.664062 34.804688 76.523438 34.484375 77.179688 34.628906 C 77.289062 34.4375 77.441406 34.285156 77.609375 34.175781 L 77.609375 36.5625 C 77.53125 36.5 77.441406 36.460938 77.296875 36.4375 C 77.378906 36.714844 77.476562 37.042969 77.609375 37.339844 L 77.609375 45.671875 C 77.441406 45.738281 77.289062 45.792969 77.117188 45.898438 C 76.667969 45.488281 76.011719 45.457031 75.789062 44.753906 L 75.875 43.234375 C 75.605469 43.429688 75.316406 43.148438 75.21875 42.882812 C 75.714844 42.078125 74.707031 41.652344 74.902344 40.796875 C 74.789062 40.765625 74.660156 40.765625 74.535156 40.765625 L 74.535156 37.683594 C 74.8125 37.617188 75.117188 37.570312 75.039062 37.121094 C 74.859375 36.914062 74.707031 36.652344 74.535156 36.484375 Z M 77.609375 30.914062 C 77.195312 31.410156 76.539062 31.730469 75.890625 31.65625 C 75.21875 31.410156 75.421875 31.113281 74.859375 30.761719 C 74.84375 30.140625 75.589844 29.730469 75.925781 29.164062 C 76.355469 29.332031 76.707031 28.875 77.042969 28.714844 L 77.105469 28.195312 C 76.507812 28.375 76.960938 27.734375 76.664062 27.542969 C 75.996094 26.75 75.117188 26.152344 74.535156 25.28125 L 74.535156 22.011719 C 75.605469 22.179688 76.632812 22.90625 77.609375 23.578125 Z M 79.488281 48.835938 L 79.488281 45.457031 C 78.953125 46.007812 78.335938 46.449219 77.609375 46.769531 L 77.609375 48.328125 C 77.644531 48.375 77.683594 48.40625 77.730469 48.4375 C 78.480469 48.863281 79.054688 48.957031 79.488281 48.835938 M 77.609375 34.175781 C 78.066406 33.894531 78.679688 33.871094 79.199219 33.964844 C 79.304688 34.007812 79.398438 34.054688 79.488281 34.109375 L 79.488281 38.496094 C 79.074219 38.535156 79.261719 39.199219 79.414062 39.296875 L 79.488281 39.273438 L 79.488281 41.5 L 79.441406 41.46875 C 79.441406 42.507812 78.5625 43.804688 78.710938 44.84375 C 78.5625 45.378906 78.082031 45.503906 77.609375 45.671875 L 77.609375 37.339844 C 77.699219 37.523438 77.808594 37.707031 77.9375 37.859375 C 77.746094 37.472656 77.9375 36.820312 77.609375 36.5625 Z M 78.960938 24.378906 C 78.578125 25.878906 78.878906 27.253906 79.488281 28.574219 L 79.488281 32.222656 C 79.152344 31.640625 78.878906 31 78.808594 30.464844 C 78.480469 30.449219 78.480469 29.875 78.105469 29.988281 C 78.007812 30.324219 77.851562 30.648438 77.609375 30.914062 L 77.609375 23.578125 C 78.066406 23.882812 78.527344 24.175781 78.960938 24.378906 M 80.296875 48.132812 C 80.09375 48.492188 79.832031 48.726562 79.488281 48.835938 L 79.488281 45.457031 C 79.777344 45.152344 80.054688 44.816406 80.296875 44.464844 Z M 79.488281 34.109375 C 80.4375 34.789062 79.304688 35.902344 80.296875 36.683594 L 80.296875 39.6875 C 80.191406 39.527344 80.039062 39.417969 79.757812 39.480469 C 79.832031 39.96875 79.992188 40.367188 80.296875 40.664062 L 80.296875 42.316406 C 79.984375 42.046875 79.726562 41.710938 79.488281 41.5 L 79.488281 39.273438 L 79.597656 39.214844 C 79.757812 38.992188 79.777344 38.679688 79.582031 38.496094 C 79.542969 38.488281 79.503906 38.488281 79.488281 38.496094 Z M 79.488281 28.574219 C 79.726562 29.085938 79.984375 29.59375 80.296875 30.089844 L 80.296875 33.367188 C 79.992188 33.054688 79.726562 32.65625 79.488281 32.222656 Z M 80.296875 36.683594 L 80.296875 39.6875 C 80.535156 40.054688 80.535156 40.78125 80.832031 41.070312 C 80.621094 40.917969 80.4375 40.824219 80.296875 40.664062 L 80.296875 42.316406 C 80.605469 42.574219 80.949219 42.75 81.382812 42.691406 C 81.0625 43.277344 80.710938 43.890625 80.296875 44.464844 L 80.296875 48.132812 C 81.015625 46.984375 81.140625 44.800781 82.332031 44.035156 C 82.53125 44.125 82.738281 44.058594 82.84375 44.25 L 83.171875 44.019531 C 83.753906 42.179688 83.53125 40.105469 81.886719 38.730469 C 81.554688 37.785156 80.46875 37.800781 80.359375 36.761719 Z M 80.296875 30.089844 C 81.261719 31.65625 82.46875 33.175781 83.140625 34.710938 C 83.953125 35.902344 84.914062 36.835938 86.078125 37.5 C 87.160156 38.265625 86.113281 40.007812 87.816406 40.054688 C 89.070312 41.117188 90.082031 42.660156 91.097656 43.804688 C 91.347656 44.667969 90.714844 45.601562 89.820312 45.554688 C 88.8125 45.371094 88.152344 44.050781 87.855469 43.148438 L 87.566406 43.101562 C 87.527344 43.277344 87.496094 43.46875 87.296875 43.5 C 87.175781 43.445312 87.296875 43.277344 87.285156 43.148438 C 86.222656 42.980469 87.367188 42.445312 86.945312 41.933594 C 85.207031 38.792969 82.070312 36.789062 80.558594 33.597656 C 80.46875 33.535156 80.375 33.457031 80.296875 33.367188 Z M 80.296875 30.089844 "/>
<path style=" stroke:none;fill-rule:evenodd;fill:rgb(60.392159%,5.098039%,7.843138%);fill-opacity:1;" d="M 104.410156 36.117188 C 103.867188 36.714844 103.101562 37.171875 102.125 37.273438 C 100.074219 36.835938 99.335938 34.863281 98.867188 32.886719 C 99.167969 32.128906 99.152344 31.210938 99.617188 30.53125 C 99.800781 30.058594 100.625 29.960938 100.792969 30.5 C 101.839844 31.914062 100.976562 33.457031 102.261719 34.644531 C 104.425781 33.257812 101.574219 32.191406 101.476562 30.761719 C 100.625 28.429688 101.34375 26.542969 100.6875 24.226562 C 99.617188 24.425781 98.394531 24.585938 97.652344 23.667969 C 97.324219 22.972656 96.765625 22.019531 97.125 21.261719 C 98.667969 19.992188 101.128906 20.222656 101.636719 17.960938 C 102.390625 17.578125 103.269531 17.65625 103.757812 18.375 C 104.5625 20.125 102.015625 20.933594 102.789062 22.84375 C 102.390625 23.507812 102.8125 24.242188 102.703125 24.945312 C 103.253906 25.128906 103.828125 24.273438 104.410156 24.152344 L 104.410156 27.40625 L 103.972656 27.558594 C 103.332031 28.539062 104.355469 29.546875 104.132812 30.554688 C 104.242188 30.355469 104.324219 30.148438 104.410156 29.960938 Z M 109.855469 16.515625 C 109.429688 17.578125 109.0625 18.6875 109.261719 19.8125 C 109.429688 19.964844 109.628906 19.964844 109.855469 19.839844 L 109.855469 22.019531 C 109.527344 22.609375 109.230469 23.1875 108.886719 23.664062 C 108.269531 24.042969 107.648438 23.691406 107.160156 23.652344 C 107.136719 25.3125 106.234375 27.191406 106.632812 28.867188 C 106.90625 27.84375 108.054688 27.695312 108.765625 27.605469 L 109.855469 28.222656 L 109.855469 30.761719 C 109.660156 30.761719 109.496094 30.761719 109.332031 30.769531 C 109.085938 31.503906 108.871094 32.367188 109.375 33.078125 C 109.542969 33 109.703125 32.894531 109.855469 32.769531 L 109.855469 34.941406 C 109.734375 35.070312 109.621094 35.179688 109.511719 35.292969 C 109.277344 34.789062 109.117188 35.5 108.773438 35.523438 C 106.96875 33.941406 107.121094 31.578125 106.234375 29.585938 C 106.066406 30.105469 105.707031 30.875 106.066406 31.425781 C 105.011719 32.535156 105.164062 33.902344 105.082031 35.195312 C 104.914062 35.507812 104.675781 35.84375 104.410156 36.117188 L 104.410156 29.960938 C 104.84375 29.066406 105.195312 28.035156 105.058594 27.222656 L 104.410156 27.40625 L 104.410156 24.152344 C 104.738281 24.074219 105.035156 24.195312 105.378906 24.730469 C 105.976562 25.398438 105.746094 24.203125 106.386719 24.617188 C 105.640625 23.914062 106.5625 23.433594 106.632812 22.546875 C 107.046875 22.628906 107.351562 22.515625 107.535156 22.019531 C 107.519531 21.546875 107.152344 21.1875 106.738281 21.308594 C 106.9375 21.132812 107.136719 20.925781 107.25 20.621094 L 107.410156 20.726562 C 108.0625 20.054688 107.128906 18.941406 107.585938 18.273438 C 107.457031 17.183594 108.617188 15.761719 107.457031 14.980469 C 107.96875 14.277344 107.410156 13.484375 107.96875 12.78125 C 108.589844 12.414062 109.171875 11.632812 109.855469 11.9375 Z M 111.140625 23.226562 L 111.140625 22.019531 C 111.042969 22.058594 110.941406 22.179688 110.882812 22.324219 C 110.980469 22.628906 111.050781 22.929688 111.140625 23.226562 M 109.855469 28.222656 L 111.140625 28.933594 L 111.140625 32.417969 L 110.621094 33.3125 L 111.042969 33.511719 C 111.042969 33.421875 111.070312 33.351562 111.140625 33.269531 L 111.140625 33.71875 C 110.722656 34.160156 110.269531 34.550781 109.855469 34.941406 L 109.855469 32.769531 C 110.324219 32.367188 110.621094 31.753906 110.621094 31.113281 C 110.453125 30.832031 110.164062 30.761719 109.855469 30.761719 Z M 109.855469 19.839844 C 109.757812 18.839844 110.722656 18.59375 111.140625 17.929688 L 111.140625 20.109375 C 110.621094 20.652344 110.242188 21.339844 109.855469 22.019531 Z M 110.316406 12.328125 C 110.972656 13.757812 110.390625 15.117188 109.855469 16.515625 L 109.855469 11.9375 C 109.996094 12.007812 110.164062 12.121094 110.316406 12.328125 M 111.140625 28.933594 L 111.171875 28.949219 C 111.875 27.070312 111.644531 25.175781 111.140625 23.226562 L 111.140625 22.019531 C 111.484375 21.851562 112.011719 21.988281 112.234375 21.765625 C 113.152344 22.085938 113.90625 22.46875 114.089844 23.472656 C 114.441406 25.296875 113.25 27.046875 113.417969 28.722656 C 113.019531 29.125 113.167969 29.605469 113.507812 29.890625 C 114.226562 30.472656 115.839844 29.914062 116 31.058594 C 116.316406 31.441406 116.796875 30.832031 116.742188 31.503906 C 117.996094 31.058594 118.980469 31.488281 120.34375 31.152344 C 121.152344 31.359375 121.785156 31.289062 122.34375 30.945312 C 122.621094 30.722656 122.847656 31.042969 123.140625 31.167969 C 122.894531 32.570312 121.335938 32.050781 120.769531 33.214844 C 119.410156 33.296875 119.027344 35.339844 117.53125 34.390625 C 116.671875 34.390625 116.859375 33.207031 115.957031 33.535156 C 115.710938 32.953125 115.007812 33.222656 114.472656 33.070312 C 113.816406 32.601562 113.066406 32.160156 112.546875 31.714844 C 112.234375 32.527344 111.714844 33.152344 111.140625 33.71875 L 111.140625 33.269531 C 111.355469 33.09375 111.796875 33.015625 111.617188 32.601562 L 111.140625 32.410156 L 111.140625 32.417969 Z M 111.140625 17.929688 C 111.261719 17.753906 111.339844 17.546875 111.339844 17.257812 C 112.066406 17.027344 112.5625 16.5 112.839844 15.859375 C 113.554688 16.050781 114.640625 16.316406 114.933594 17.242188 C 115.175781 18.488281 113.296875 17.808594 113.386719 19.167969 C 112.410156 19.152344 111.707031 19.527344 111.140625 20.109375 Z M 111.140625 17.929688 "/>
<path style=" stroke:none;fill-rule:evenodd;fill:rgb(60.392159%,5.098039%,7.843138%);fill-opacity:1;" d="M 154.554688 15.347656 C 154.808594 16.082031 154.53125 16.617188 154.25 17.351562 C 153.234375 17.640625 152.882812 18.703125 152.164062 19.398438 C 153.421875 19.085938 154.65625 20.351562 155.535156 20.949219 C 155.785156 21.613281 155.585938 22.179688 154.992188 22.5 C 154.441406 22.890625 153.476562 23.339844 153.21875 22.363281 C 152.421875 22.636719 150.839844 21.738281 150.839844 23.148438 C 150.574219 25.28125 153.09375 23.792969 153.308594 25.496094 C 151.964844 27.84375 148.761719 28.523438 148.171875 31.371094 L 149.488281 31.6875 C 149.824219 31.097656 150.128906 30.035156 151.101562 29.90625 C 152.140625 30.617188 152.957031 31.65625 153.1875 32.984375 C 153.109375 33.636719 152.734375 34.34375 152.164062 34.804688 C 151.101562 34.496094 149.519531 34.40625 148.921875 33.335938 C 147.441406 33.136719 147.132812 35.605469 145.574219 34.238281 C 144.996094 33.636719 145.390625 32.457031 145.574219 31.714844 C 146.371094 31.097656 147.472656 30.082031 147.363281 29.066406 C 148.570312 28.683594 148.53125 27.132812 149.800781 26.824219 C 149.839844 26.648438 149.839844 26.375 149.671875 26.199219 C 149.160156 26.75 148.960938 26.765625 148.234375 26.734375 C 147.363281 26.449219 147.523438 25.769531 147.285156 25.050781 L 147.410156 24.488281 C 146.242188 25.878906 144.167969 24.6875 142.855469 26.09375 C 141.527344 28.722656 140.386719 31.386719 138.429688 33.597656 L 137.183594 36.960938 C 136.558594 37.363281 135.871094 37.21875 135.105469 37.035156 C 134.511719 36.4375 133.578125 36.132812 133.25 35.261719 C 133.609375 34.285156 133.410156 33.175781 134.28125 32.25 C 134.882812 32.191406 134.816406 31.371094 135.511719 31.792969 C 136.480469 31.019531 137.796875 30.464844 138.101562 29.203125 C 138.882812 28.652344 139.675781 28.109375 139.78125 27.070312 C 141.144531 25.769531 142.394531 25.214844 143.03125 23.355469 C 144.253906 23.226562 145.148438 21.628906 146.539062 21.707031 L 146.804688 21.957031 C 149.082031 21.027344 151.160156 18.878906 151.101562 16.234375 C 151.039062 15.277344 151.214844 14.597656 151.765625 13.789062 C 152.894531 13.644531 154.554688 13.894531 154.554688 15.347656 "/>
<path style=" stroke:none;fill-rule:evenodd;fill:rgb(60.392159%,5.098039%,7.843138%);fill-opacity:1;" d="M 143.574219 18.375 C 143.328125 19.167969 142.417969 19.628906 141.785156 20.015625 C 140.761719 20.164062 140.148438 19.367188 139.355469 19.054688 C 139.628906 18.128906 138.164062 16.984375 139.613281 16.394531 C 138.914062 15.707031 139.738281 15.347656 140.011719 14.8125 C 140.707031 14.246094 141.785156 14.476562 142.25 15.339844 C 142.566406 16.328125 143.863281 17.371094 143.574219 18.375 "/>
<path style=" stroke:none;fill-rule:evenodd;fill:rgb(60.392159%,5.098039%,7.843138%);fill-opacity:1;" d="M 141.144531 24.242188 C 141.449219 25.855469 139.507812 25.941406 138.804688 26.695312 L 138.054688 26.808594 L 137.917969 25.894531 L 137.503906 25.945312 C 138.207031 24.632812 136.230469 21.988281 138.765625 21.574219 C 140.105469 21.890625 140.59375 23.273438 141.144531 24.242188 "/>
<path style=" stroke:none;fill-rule:evenodd;fill:rgb(60.392159%,5.098039%,7.843138%);fill-opacity:1;" d="M 183.890625 29.84375 C 183.003906 31.625 181.203125 32 179.703125 32.894531 C 180.300781 33.550781 180.820312 32.742188 181.628906 32.765625 C 182.5625 33.8125 184.089844 34.644531 183.953125 36.1875 C 183.082031 36.820312 182.304688 37.363281 181.066406 37.121094 C 179.445312 36.777344 179.199219 33.941406 177.425781 35.5 C 176.273438 36.949219 175.089844 37.601562 174.003906 39.183594 C 174.859375 39.703125 174.941406 40.839844 175.699219 41.222656 C 175.621094 42.949219 177.121094 44.386719 177.808594 45.898438 C 178.992188 46.183594 178.773438 47.398438 178.925781 48.207031 C 178.894531 48.910156 178.296875 49.734375 177.640625 49.972656 C 176.855469 50.585938 175.746094 49.980469 175.1875 49.277344 C 174.1875 47.847656 175.433594 45.226562 173.347656 44.484375 C 173.132812 43.316406 172.09375 42.582031 171.695312 41.589844 C 169.515625 42.316406 166.867188 45.632812 164.480469 43.164062 C 164.535156 42.4375 164.40625 41.246094 165.222656 40.894531 C 165.597656 39.824219 166.734375 39.847656 167.308594 39.066406 C 167.738281 38.6875 168.171875 38.886719 168.683594 38.960938 L 169.179688 39.535156 C 171.664062 38.472656 173.085938 36.515625 175.242188 34.988281 C 174.019531 34.980469 172.78125 36.132812 171.527344 36.746094 C 170.65625 36.347656 169.699219 36.316406 168.839844 35.707031 C 168.21875 34.421875 168.308594 33.175781 168.746094 32 C 169.433594 31.617188 170.398438 30.738281 171.230469 31.617188 C 173.339844 32.800781 176.539062 33.550781 178.605469 32.050781 C 179.703125 30.875 180.109375 29.441406 180.691406 28.285156 C 181.347656 27.828125 182.195312 27.007812 183.152344 27.605469 C 183.832031 28.476562 184.394531 28.714844 183.890625 29.84375 "/>
<path style=" stroke:none;fill-rule:evenodd;fill:rgb(60.392159%,5.098039%,7.843138%);fill-opacity:1;" d="M 193.367188 54.964844 C 192.886719 54.949219 192.429688 54.976562 191.9375 55.09375 C 191.210938 55.039062 191.59375 54 190.832031 54.054688 C 190.585938 53.65625 190.832031 53.328125 190.753906 52.863281 C 191.367188 52.546875 191.105469 51.84375 191.726562 51.53125 C 192.25 51.875 192.824219 51.984375 193.367188 52.042969 Z M 193.367188 65.707031 C 192.832031 65.945312 192.28125 65.996094 191.6875 65.59375 C 190.753906 64.652344 191.9375 63.828125 191.640625 62.589844 C 191.761719 62.007812 191.953125 61.972656 192.429688 61.640625 C 192.632812 61.496094 193.125 61.671875 193.367188 61.449219 L 193.367188 63.046875 C 193.125 63.125 192.910156 63.398438 193.0625 63.628906 C 193.136719 63.675781 193.269531 63.699219 193.367188 63.660156 Z M 199.757812 55.484375 C 199.097656 55.421875 198.441406 55.3125 197.761719 55.167969 C 196.273438 55.3125 194.820312 54.964844 193.367188 54.964844 L 193.367188 52.042969 C 194.085938 52.105469 194.804688 52.097656 195.332031 52.441406 C 195.378906 53.464844 196.425781 52.296875 196.882812 53.015625 C 196.960938 52.210938 198.015625 52.097656 198.386719 51.617188 C 198.640625 50.785156 199.265625 50.132812 199.757812 49.460938 L 199.757812 53.199219 L 199.664062 53.382812 L 199.757812 53.328125 Z M 199.757812 59.355469 C 198.953125 59.746094 198.089844 59.976562 197.257812 60.183594 C 197.707031 60.761719 197.128906 61.175781 197.425781 61.847656 C 198.351562 62.09375 199.253906 62.636719 199.382812 63.773438 C 199.152344 64.402344 198.910156 65.058594 198.417969 65.570312 C 197.554688 65.316406 196.84375 64.386719 196.210938 63.8125 C 195.261719 64.148438 194.332031 65.257812 193.367188 65.707031 L 193.367188 63.660156 C 193.453125 63.628906 193.519531 63.582031 193.589844 63.476562 C 193.796875 63.4375 193.757812 63.15625 193.589844 63.0625 C 193.519531 63.03125 193.453125 63.019531 193.367188 63.046875 L 193.367188 61.449219 C 193.429688 61.398438 193.488281 61.289062 193.503906 61.167969 C 194.125 61.09375 194.902344 61.582031 195.546875 61.289062 C 195.851562 60.65625 194.902344 60.207031 195.644531 59.6875 C 196.296875 59.167969 196.960938 58.570312 197.738281 58.339844 L 197.738281 58.089844 C 197.113281 58.492188 196.417969 58.234375 195.890625 57.828125 C 195.890625 57.027344 196.195312 56.613281 196.976562 56.542969 L 199.757812 56.765625 Z M 203.089844 55.851562 C 201.996094 55.675781 200.878906 55.597656 199.757812 55.484375 L 199.757812 53.328125 L 199.765625 53.328125 C 199.894531 53.28125 199.800781 53.144531 199.847656 53.015625 L 199.757812 53.199219 L 199.757812 49.460938 C 200 49.125 200.199219 48.757812 200.304688 48.375 C 200.878906 48.40625 200.628906 47.636719 200.855469 47.328125 C 201.164062 46.769531 201.636719 46.191406 202.078125 45.839844 L 201.917969 45.65625 C 203.089844 45.425781 202.277344 44.074219 202.949219 43.324219 C 202.980469 43.234375 203.035156 43.148438 203.089844 43.078125 L 203.089844 52.976562 L 201.851562 54.070312 L 201.925781 54.3125 C 202.339844 54.289062 202.738281 54.335938 203.089844 54.351562 Z M 203.089844 59.074219 L 202.773438 59.074219 C 202.585938 58.777344 202.078125 58.242188 201.621094 58.402344 C 201.542969 58.234375 201.316406 58.15625 201.363281 57.941406 C 200.855469 57.746094 200.980469 58.363281 200.855469 58.632812 C 200.535156 58.929688 200.167969 59.144531 199.757812 59.355469 L 199.757812 56.765625 L 200.519531 56.796875 C 200.886719 57.621094 201.574219 57.027344 201.972656 57.714844 C 202.308594 57.859375 202.722656 57.988281 203.089844 58.109375 Z M 213.679688 48.679688 L 212.664062 50.050781 C 212.808594 50.660156 213.679688 50.851562 213.511719 51.585938 C 212.167969 52.273438 210.515625 51.066406 209.234375 51.992188 C 208.460938 52.640625 206.023438 52.578125 207.140625 54.40625 C 206.894531 54.886719 206.800781 55.453125 206.191406 55.527344 C 207.109375 56.675781 208.378906 57.761719 207.660156 59.378906 C 207.03125 60.113281 207.421875 61.398438 206.542969 61.839844 C 204.753906 62.238281 204.585938 59.769531 203.339844 59.355469 C 203.339844 59.167969 203.257812 59.089844 203.089844 59.074219 L 203.089844 58.109375 C 203.84375 58.363281 204.601562 58.617188 205.28125 58.953125 C 205.695312 58.769531 206.71875 59.011719 206.757812 58.339844 C 206.609375 57.5 205.914062 57.1875 205.714844 56.492188 C 204.832031 56.15625 203.976562 55.988281 203.089844 55.851562 L 203.089844 54.351562 C 203.546875 54.351562 203.945312 54.304688 204.347656 54 C 204.28125 53.480469 203.601562 52.921875 203.945312 52.226562 L 203.089844 52.976562 L 203.089844 43.078125 C 203.316406 42.78125 203.636719 42.566406 204.027344 42.78125 C 204.9375 43.253906 205.167969 44.058594 205.3125 45.050781 C 204.753906 45.9375 204.371094 47.136719 203.285156 47.535156 C 203.488281 48.636719 204.027344 47.089844 204.554688 47.269531 C 204.832031 47.070312 205.03125 46.535156 205.457031 46.664062 C 205.257812 45.984375 206.113281 46.464844 206.070312 45.871094 C 206.773438 46.59375 207.070312 45.472656 207.78125 46.296875 C 208.371094 49.277344 204.707031 49.292969 203.449219 51.140625 C 204.570312 50.851562 205.808594 49.75 207.078125 50.269531 C 207.054688 49.523438 208.007812 50.050781 208.332031 49.558594 C 209.1875 48.4375 211.160156 48.421875 211.816406 46.832031 C 212.136719 46.511719 212.511719 46.832031 212.824219 47.03125 C 212.519531 48.191406 214.246094 47.375 213.679688 48.679688 "/>
<path style=" stroke:none;fill-rule:evenodd;fill:rgb(60.392159%,5.098039%,7.843138%);fill-opacity:1;" d="M 132.394531 198.570312 C 132.394531 194.992188 129.511719 192.105469 125.953125 192.105469 C 122.375 192.105469 119.476562 194.992188 119.476562 198.570312 C 119.476562 202.121094 122.375 205.035156 125.953125 205.035156 C 129.511719 205.035156 132.394531 202.121094 132.394531 198.570312 "/>
<path style=" stroke:none;fill-rule:evenodd;fill:rgb(60.392159%,5.098039%,7.843138%);fill-opacity:1;" d="M 63.929688 128.507812 L 101.757812 128.507812 L 82.835938 83.4375 L 82.835938 83.414062 Z M 63.929688 128.507812 "/>
<path style=" stroke:none;fill-rule:evenodd;fill:rgb(60.392159%,5.098039%,7.843138%);fill-opacity:1;" d="M 69.828125 180.503906 C 78.480469 183.253906 91.929688 184.890625 97.25 187.433594 C 88.09375 183.476562 83.09375 175.75 79.449219 167.78125 C 88.046875 174.335938 94.253906 182.4375 97.25 187.433594 C 86.320312 193.160156 76.058594 187.519531 69.828125 180.503906 M 52.269531 157.914062 C 57.226562 161.199219 66.464844 167.085938 73.605469 172.1875 C 69.601562 166.976562 66.046875 160.804688 64.496094 152.472656 C 69.722656 159.367188 75.386719 167 77.164062 174.8125 C 78.953125 176.179688 80.558594 177.476562 81.613281 178.53125 C 66.574219 178.089844 54.40625 165.28125 52.269531 157.914062 M 58.902344 150.488281 C 56.882812 143.976562 55.769531 138.222656 57.878906 130.28125 C 59.46875 137.730469 61.972656 145.007812 61.214844 154.445312 C 62.476562 156.753906 63.578125 158.921875 64.25 160.648438 C 55.632812 155.730469 45.039062 140.84375 44.3125 130.984375 C 47.546875 133.679688 54.035156 142.507812 58.902344 150.488281 M 50.769531 111.34375 C 53.886719 119.324219 54.195312 128.652344 53.460938 138.351562 C 49.195312 129.363281 48.746094 120.347656 50.769531 111.34375 M 113.328125 198.570312 C 113.328125 194.535156 115.265625 191.035156 118.210938 188.726562 C 106.386719 189.199219 101.117188 202.183594 84.378906 194.992188 C 92.3125 193.296875 105.851562 184.09375 118.636719 188.382812 C 118.867188 188.191406 119.074219 187.960938 119.316406 187.808594 L 119.5 172.015625 L 102.183594 172.015625 L 87.414062 159.3125 L 119.640625 159.3125 L 120.21875 108.96875 L 120.539062 80.488281 L 84.242188 80.488281 L 104.445312 128.507812 C 101.558594 137.703125 92.984375 144.386719 82.84375 144.386719 L 82.835938 144.386719 C 72.6875 144.375 64.113281 137.703125 61.253906 128.507812 L 82.0625 79.035156 L 120.570312 79.035156 L 120.816406 56.300781 L 125.875 40.855469 C 79.023438 40.894531 41.019531 78.90625 41.019531 125.773438 C 41.019531 171.371094 76.96875 208.449219 122.046875 210.503906 C 117.003906 208.855469 113.328125 204.164062 113.328125 198.570312 "/>
<path style=" stroke:none;fill-rule:evenodd;fill:rgb(60.392159%,5.098039%,7.843138%);fill-opacity:1;" d="M 120.136719 163.242188 L 120.113281 163.242188 C 118.386719 163.292969 117.46875 163.761719 117.363281 164.65625 C 117.363281 165.585938 118.292969 166.054688 120.136719 166.046875 L 120.25 166.046875 C 121.976562 165.992188 122.863281 165.519531 122.894531 164.578125 C 122.863281 163.714844 121.945312 163.261719 120.136719 163.242188 "/>
<path style=" stroke:none;fill-rule:evenodd;fill:rgb(60.392159%,5.098039%,7.843138%);fill-opacity:1;" d="M 144.582031 163.242188 C 142.761719 163.242188 141.832031 163.761719 141.769531 164.800781 L 139.980469 164.800781 C 140.027344 163.316406 141.640625 162.546875 144.828125 162.515625 C 147.640625 162.5625 149.121094 163.21875 149.273438 164.410156 C 149.375 165.28125 148.097656 165.992188 145.4375 166.535156 L 143.96875 166.925781 C 142.566406 167.285156 141.769531 167.695312 141.625 168.140625 L 149.273438 168.140625 L 149.273438 168.878906 L 139.675781 168.878906 C 139.738281 167.726562 140.804688 166.886719 142.953125 166.359375 L 144.828125 165.863281 C 146.660156 165.417969 147.5 164.945312 147.394531 164.386719 C 147.300781 163.644531 146.371094 163.261719 144.582031 163.242188 M 132.066406 168.996094 C 129.304688 168.964844 127.800781 168.398438 127.527344 167.285156 L 129.328125 167.285156 C 129.550781 168.015625 130.566406 168.382812 132.394531 168.382812 C 134.167969 168.316406 135.113281 167.820312 135.273438 166.925781 C 135.175781 166.03125 134.167969 165.546875 132.226562 165.519531 C 131.132812 165.519531 130.238281 165.726562 129.574219 166.105469 L 128.074219 166.089844 L 129.097656 162.636719 L 136.375 162.636719 L 136.375 163.417969 L 130.429688 163.417969 L 129.878906 165.160156 C 130.671875 164.90625 131.542969 164.777344 132.539062 164.777344 C 135.441406 164.867188 137.023438 165.570312 137.222656 166.808594 C 137.023438 168.230469 135.304688 168.964844 132.066406 168.996094 M 120.136719 168.996094 L 119.867188 168.996094 C 117.316406 168.964844 115.925781 168.40625 115.726562 167.351562 L 117.453125 167.351562 C 117.636719 168.046875 118.453125 168.382812 119.867188 168.382812 C 119.96875 168.382812 120.042969 168.382812 120.136719 168.367188 C 121.800781 168.316406 122.832031 167.542969 123.230469 166.007812 L 123.136719 166.007812 C 122.597656 166.457031 121.578125 166.710938 120.136719 166.734375 L 119.945312 166.734375 C 117.148438 166.6875 115.671875 165.992188 115.558594 164.691406 C 115.726562 163.277344 117.238281 162.546875 120.113281 162.515625 L 120.136719 162.515625 C 123.292969 162.53125 124.925781 163.515625 125.003906 165.417969 C 124.820312 167.695312 123.199219 168.863281 120.136719 168.996094 M 109.621094 168.878906 L 107.808594 168.878906 L 107.808594 164.386719 L 104.460938 164.386719 L 104.460938 163.753906 C 106.800781 163.789062 108.070312 163.378906 108.269531 162.515625 L 109.621094 162.515625 Z M 158.671875 161.398438 L 93.226562 161.398438 L 103.386719 170.082031 L 148.496094 170.082031 Z M 158.671875 161.398438 "/>
<path style=" stroke:none;fill-rule:evenodd;fill:rgb(60.392159%,5.098039%,7.843138%);fill-opacity:1;" d="M 187.957031 128.507812 L 169.019531 83.4375 L 169.019531 83.414062 L 150.113281 128.507812 Z M 187.957031 128.507812 "/>
<path style=" stroke:none;fill-rule:evenodd;fill:rgb(60.392159%,5.098039%,7.843138%);fill-opacity:1;" d="M 170.199219 178.53125 C 171.285156 177.476562 172.886719 176.179688 174.660156 174.820312 C 176.433594 167 182.089844 159.367188 187.332031 152.472656 C 185.800781 160.808594 182.226562 166.976562 178.222656 172.203125 C 185.359375 167.101562 194.605469 161.199219 199.558594 157.914062 C 197.425781 165.28125 185.25 178.089844 170.199219 178.53125 M 154.570312 187.433594 C 157.589844 182.4375 163.785156 174.335938 172.382812 167.78125 C 168.746094 175.75 163.734375 183.476562 154.570312 187.433594 C 159.886719 184.890625 173.34375 183.253906 182.011719 180.503906 C 175.792969 187.519531 165.496094 193.160156 154.570312 187.433594 M 193.949219 130.28125 C 196.066406 138.222656 194.941406 143.976562 192.910156 150.503906 C 197.785156 142.507812 204.25 133.679688 207.519531 130.984375 C 206.78125 140.84375 196.210938 155.730469 187.574219 160.648438 C 188.234375 158.921875 189.363281 156.761719 190.617188 154.445312 C 189.851562 145.023438 192.367188 137.730469 193.949219 130.28125 M 201.039062 111.34375 C 203.089844 120.347656 202.628906 129.363281 198.351562 138.351562 C 197.632812 128.652344 197.9375 119.324219 201.039062 111.34375 M 126.011719 40.855469 L 131.070312 56.300781 L 131.324219 79.035156 L 169.816406 79.035156 L 169.816406 79.066406 L 169.847656 79.066406 L 190.625 128.507812 C 187.757812 137.703125 179.175781 144.386719 169.035156 144.386719 L 169.019531 144.386719 C 158.886719 144.375 150.3125 137.703125 147.453125 128.507812 L 167.632812 80.488281 L 131.355469 80.488281 L 132.25 159.3125 L 164.480469 159.3125 L 149.703125 172.015625 L 132.386719 172.015625 L 132.570312 187.808594 C 132.8125 187.960938 132.996094 188.183594 133.234375 188.382812 C 145.988281 184.125 159.515625 193.296875 167.4375 194.992188 C 150.742188 202.175781 145.4375 189.246094 133.667969 188.726562 C 136.621094 191.035156 138.558594 194.535156 138.558594 198.570312 C 138.558594 204.164062 134.882812 208.855469 129.832031 210.503906 C 174.921875 208.449219 210.867188 171.371094 210.867188 125.773438 C 210.867188 78.90625 172.863281 40.894531 126.011719 40.855469 "/>
</g>
</svg>
