<?xml version="1.0" encoding="UTF-8" standalone="no"?>
<!-- Generator: Adobe Illustrator 24.0.1, SVG Export Plug-In . SVG Version: 6.00 Build 0)  -->

<svg
   version="1.1"
   id="图层_1"
   x="0px"
   y="0px"
   viewBox="0 0 199.99998 199.99998"
   xml:space="preserve"
   sodipodi:docname="未标题-1.svg"
   width="199.99998"
   height="199.99998"
   inkscape:version="1.2 (dc2aedaf03, 2022-05-15)"
   xmlns:inkscape="http://www.inkscape.org/namespaces/inkscape"
   xmlns:sodipodi="http://sodipodi.sourceforge.net/DTD/sodipodi-0.dtd"
   xmlns="http://www.w3.org/2000/svg"
   xmlns:svg="http://www.w3.org/2000/svg"><defs
   id="defs22" /><sodipodi:namedview
   id="namedview20"
   pagecolor="#ffffff"
   bordercolor="#000000"
   borderopacity="0.25"
   inkscape:showpageshadow="2"
   inkscape:pageopacity="0.0"
   inkscape:pagecheckerboard="0"
   inkscape:deskcolor="#d1d1d1"
   showgrid="false"
   inkscape:zoom="1.668772"
   inkscape:cx="-9.8875101"
   inkscape:cy="82.695539"
   inkscape:window-width="1440"
   inkscape:window-height="829"
   inkscape:window-x="-8"
   inkscape:window-y="-8"
   inkscape:window-maximized="1"
   inkscape:current-layer="图层_1" />
<style
   type="text/css"
   id="style13">
	.st0{fill:#0075BD;}
	.st1{fill:#FFFCE4;}
</style>

<circle
   style="fill:#ffffff;fill-opacity:1;stroke:none;stroke-width:0.377953"
   id="path12920"
   cx="100.00001"
   cy="100.00001"
   r="99.811028" /><path
   class="st1"
   d="m 63.255129,34.692081 -0.997068,-1.642229 -4.281524,2.756598 -1.554253,-2.668622 3.870969,-2.404692 -0.967743,-1.642228 -3.900293,2.434017 -1.260997,-2.170088 4.193549,-2.639296 -0.967742,-1.612902 -5.7478,3.577712 5.7478,9.706744 z m 9.853372,-12.375366 c 0.351906,0.351906 0.703812,0.645161 1.143695,0.791788 0.439882,0.175953 1.085044,0.26393 1.876833,0.234604 0.90909,0 1.4956,0 1.730205,0.08798 l 0.645161,0.263929 0.322581,0.58651 c 0.146627,0.439883 0.117302,0.821116 -0.117302,1.231673 -0.205279,0.351906 -0.58651,0.645161 -1.11437,0.821114 -1.085044,0.32258 -1.906158,-0.146628 -2.521993,-1.495602 l -1.642229,0.733139 c 0.997067,2.404692 2.551319,3.284457 4.692082,2.60997 1.17302,-0.381232 1.994134,-0.997068 2.34604,-1.818182 0.351907,-0.821114 0.410558,-1.730205 0.117302,-2.639296 -0.205279,-0.645161 -0.498534,-1.202346 -0.821114,-1.554252 -0.351906,-0.381232 -0.791789,-0.703813 -1.260997,-0.85044 -0.469208,-0.175953 -1.173021,-0.26393 -2.170088,-0.234604 -0.90909,0.02932 -1.466275,0 -1.788856,-0.146628 -0.293255,-0.146627 -0.469208,-0.32258 -0.58651,-0.645161 -0.05865,-0.293255 -0.02932,-0.557184 0.146627,-0.850439 0.205279,-0.293255 0.557185,-0.498535 1.026394,-0.645162 0.469208,-0.175953 0.879765,-0.175953 1.202345,-0.02932 0.322581,0.146628 0.615836,0.498535 0.85044,1.085045 l 1.730205,-0.674487 c -0.351906,-1.055719 -0.879765,-1.759531 -1.642229,-2.140762 -0.762463,-0.410557 -1.612902,-0.439883 -2.60997,-0.08798 -0.674487,0.205279 -1.231671,0.527859 -1.612903,0.879765 -0.351906,0.381232 -0.615836,0.909091 -0.762463,1.436951 -0.117302,0.58651 -0.08798,1.143694 0.08797,1.730204 0.146628,0.469208 0.410557,0.938416 0.733138,1.319649 m -7.683284,10.821113 0.674487,-0.32258 0.967742,-0.469208 -0.967742,-2.052787 -0.938417,-2.08211 -0.08797,-0.175953 0.08797,-0.02932 0.293255,-0.117302 c 0.293255,-0.146628 0.498534,-0.205279 0.674488,-0.293256 l 0.175953,-0.02932 0.674486,0.175953 c 0.26393,0.146628 0.791789,0.498534 1.583577,1.085044 l 2.258065,1.671554 1.935484,-0.967742 -1.876833,-1.524926 C 70.087971,27.39004 69.530787,26.979483 69.149555,26.80353 68.768323,26.598251 68.32844,26.451624 67.859232,26.363647 c 0.645161,-0.469208 0.997067,-1.026392 1.143696,-1.730205 0.146627,-0.674487 0.05865,-1.407624 -0.293256,-2.228739 -0.322581,-0.615836 -0.674487,-1.11437 -1.143695,-1.43695 -0.439882,-0.322581 -0.90909,-0.527859 -1.348973,-0.527859 h -0.02932 c -0.234605,0.02932 -0.586511,0.117302 -0.967743,0.205278 -0.293255,0.08798 -0.645161,0.293255 -1.026393,0.469208 l -3.46041,1.700881 4.428152,9.677418 z m -2.28739,-9.354838 1.290322,-0.58651 c 0.293255,-0.175953 0.586511,-0.293255 0.762464,-0.381232 0.32258,-0.117302 0.498533,-0.175953 0.615835,-0.205278 l 0.351907,0.02932 0.351906,0.146628 c 0.205279,0.117302 0.381232,0.351906 0.527859,0.703812 0.175953,0.32258 0.234604,0.645161 0.205279,0.909091 -0.02932,0.293255 -0.146628,0.498533 -0.322581,0.674487 -0.117302,0.117302 -0.351906,0.293255 -0.791788,0.498534 l -0.586511,0.293255 -0.381232,0.175953 -0.821114,0.410557 z M 182.34603,100.64516 c -0.85044,-0.43988 -1.93548,-0.674486 -3.22581,-0.703812 h -0.0293 c -1.78886,-0.05865 -3.2258,0.322582 -4.28153,1.202342 -0.93841,0.79179 -1.40762,1.81818 -1.46627,3.19648 -0.0586,1.261 0.38124,2.34604 1.261,3.13783 1.02639,0.90909 2.46334,1.40763 4.28152,1.46628 h 0.11731 c 1.75953,0.0586 3.16715,-0.32259 4.19354,-1.11438 0.99707,-0.82111 1.52493,-1.90616 1.55425,-3.2258 0,-0.85044 -0.17595,-1.64223 -0.55718,-2.31671 -0.38124,-0.6745 -1.02639,-1.23167 -1.84751,-1.64223 m -0.46921,5.68915 c -0.61583,0.4692 -1.55425,0.67448 -2.84457,0.61583 -1.31965,-0.0586 -2.25807,-0.29326 -2.90323,-0.79178 -0.61583,-0.52787 -0.87977,-1.17302 -0.87977,-1.81819 0,-0.76247 0.38124,-1.3783 1.0264,-1.81818 0.61584,-0.46921 1.55426,-0.67448 2.81525,-0.67448 h 0.0587 c 1.29032,0.0293 2.22874,0.29325 2.84458,0.82111 0.61583,0.49853 0.87977,1.1437 0.87977,1.8475 -0.0587,0.76247 -0.38124,1.3783 -0.99708,1.81819 M 33.225805,63.841639 c 0.645162,0.117302 1.260997,0.05865 1.847507,-0.234604 0.58651,-0.293255 1.085044,-0.85044 1.583577,-1.671554 0.469209,-0.791789 0.703813,-1.554252 0.615837,-2.258065 -0.05865,-0.674486 -0.322581,-1.290322 -0.821115,-1.788855 -0.469208,-0.498534 -1.319648,-1.11437 -2.60997,-1.906159 l -4.956012,-3.167155 -0.938416,1.612903 5.190615,3.313783 c 0.938417,0.58651 1.554253,1.026393 1.759531,1.319648 0.26393,0.263929 0.351906,0.527859 0.381232,0.90909 0.02932,0.322582 -0.08798,0.674488 -0.293255,1.026394 -0.26393,0.439882 -0.58651,0.703812 -0.967742,0.850439 -0.381232,0.117302 -0.821115,0.08798 -1.260997,-0.117302 -0.293255,-0.117302 -0.791789,-0.439882 -1.583578,-0.90909 l -5.102639,-3.255132 -0.938416,1.612903 5.014662,3.19648 c 1.378299,0.79179 2.404692,1.290323 3.079179,1.466276 m 19.912022,-22.052785 -4.486802,-10.90909 -1.524928,1.231671 3.519062,7.947214 -6.979472,-5.014662 -1.495601,1.290322 9.472141,6.715543 z m -12.140761,12.932551 -5.542522,-4.750733 7.859237,1.847508 1.202346,-1.466276 -8.504399,-7.272727 -1.085043,1.348973 5.689149,4.83871 -8.064516,-1.935484 -1.114369,1.436951 8.504398,7.272726 z m 6.862169,-8.064516 -7.712609,-8.152492 -1.348974,1.319648 7.741935,8.123166 z M 100.99706,28.03519 h -0.0294 c -0.32258,0 -0.64516,0 -0.967745,0.02932 -0.322581,0 -0.645161,-0.02932 -0.967742,-0.02932 h -0.02932 c -2.052786,0 -4.046921,0.05865 -6.099706,0.263929 v 4.985337 C 61.173018,36.187681 35.865101,61.231669 32.521993,92.815245 h 12.580644 c 3.19648,-24.721407 22.991201,-44.193546 47.800585,-46.97947 v 0.791789 c -0.146628,4.31085 -2.844575,7.947214 -6.627567,9.501465 -16.744866,4.868036 -29.53079,19.120235 -32.287388,36.686216 H 66.187681 C 69.560114,77.243398 83.37243,65.571844 99.97067,65.571844 c 12.49267,0 23.43108,6.686217 29.50146,16.627566 l 0.20528,0.32258 c 0.35191,0.58651 0.70382,1.173021 0.99707,1.759531 0.35191,0.645161 0.67449,1.348973 0.96774,2.02346 l 0.20528,0.469209 c 0.82111,1.935483 1.4956,3.929618 1.93548,6.041055 h 12.22875 c -2.7566,-17.565981 -15.54253,-31.81818 -32.2874,-36.686216 -3.78299,-1.554251 -6.48094,-5.190615 -6.62757,-9.501465 v -0.674487 -0.117302 c 24.8094,2.785924 44.60411,22.258063 47.80059,46.97947 H 167.478 C 164.13489,61.231669 138.79765,36.187681 107.09676,33.284456 v -4.985337 c -2.02345,-0.175953 -4.04691,-0.263929 -6.0997,-0.263929 m 54.07624,21.730204 1.29033,-1.348973 -3.66569,-3.607039 2.11144,-2.258064 3.28446,3.255132 1.26099,-1.3783 -3.28446,-3.255131 1.70088,-1.818183 3.54839,3.519063 1.31965,-1.407625 -4.89736,-4.809385 -7.59531,8.240469 z m 3.02054,2.28739 c -0.26394,1.17302 -0.0586,2.258064 0.67448,3.19648 0.58651,0.791789 1.29033,1.260997 2.14076,1.407625 0.82112,0.175953 1.81818,-0.02932 2.9912,-0.557185 l -0.52785,-1.876833 c -0.76246,0.381232 -1.34897,0.52786 -1.90616,0.469209 -0.49854,-0.08798 -0.9091,-0.293255 -1.17302,-0.674488 -0.41056,-0.527859 -0.49854,-1.143694 -0.29326,-1.876832 0.20528,-0.674486 0.87977,-1.466276 1.99414,-2.346041 1.05572,-0.821114 1.96481,-1.260996 2.66862,-1.290322 0.73314,-0.02932 1.29032,0.26393 1.70088,0.821114 0.29325,0.381232 0.38123,0.791789 0.35191,1.290322 -0.0293,0.469208 -0.26394,0.967743 -0.64517,1.436951 l 1.4956,1.114369 c 0.64516,-0.762463 1.02639,-1.524926 1.08505,-2.228739 0.14662,-0.997067 -0.088,-1.906158 -0.70381,-2.727273 -0.79179,-1.055718 -1.73021,-1.554252 -2.90323,-1.612903 -1.40762,0 -2.81525,0.557185 -4.31085,1.730205 -1.43695,1.143696 -2.31672,2.404692 -2.63929,3.724341 M 85.865098,25.894427 83.489732,14.780058 l -1.788856,0.381231 2.375367,11.11437 z m -57.741932,56.71554 -6.891496,-2.140763 7.947214,-1.466275 0.527859,-1.818182 -10.586509,-3.255132 -0.469209,1.70088 7.067449,2.199414 -8.123167,1.466275 -0.527859,1.759531 10.586509,3.284457 z M 163.54838,62.19941 l 4.22287,-2.404692 1.73021,3.196481 -4.22288,2.434018 0.90909,1.612903 9.61877,-5.571847 -0.90908,-1.612904 -3.783,2.199414 -1.73021,-3.255132 3.783,-2.199413 -0.87977,-1.612903 -9.61877,5.571847 z m -32.84458,-36.041053 3.46042,1.642228 0.76246,-1.75953 -3.43109,-1.642229 1.11437,-2.434018 3.98828,1.906158 0.76245,-1.75953 -5.63049,-2.668621 -4.63343,10.322579 1.67155,0.791789 z m 15.6305,15.366568 5.74781,-7.360703 2.11143,1.730204 1.17302,-1.4956 -5.63049,-4.633432 -1.20235,1.495602 2.11143,1.700879 -5.71847,7.39003 z m -56.656884,-25.7478 1.026392,9.41349 1.788857,-0.205278 -1.026394,-9.413491 2.668622,-0.293255 -0.205279,-1.906157 -7.126099,0.821114 0.205279,1.906157 z m 10.087975,8.680352 1.847499,0.05865 0.14663,-4.780058 3.48974,-6.510264 -2.08211,-0.05865 -2.22874,4.428153 -2.023458,-4.57478 -2.111438,-0.05865 3.13783,6.656892 z m 20.615829,3.225806 c 0.52786,0.175953 1.08505,0.26393 1.58359,0.205279 0.64516,-0.05865 1.23167,-0.26393 1.75953,-0.674487 1.11436,-0.762463 1.93548,-2.082111 2.46334,-3.870968 0.55718,-1.847507 0.55718,-3.343108 0.0586,-4.57478 -0.49853,-1.231671 -1.3783,-2.023459 -2.60996,-2.404691 -0.55719,-0.175953 -1.11438,-0.263931 -1.6129,-0.175953 l -0.76247,0.146628 c -0.70381,0.205278 -1.40762,0.703812 -2.02346,1.436949 -0.61584,0.703812 -1.11437,1.70088 -1.4956,3.049853 -0.52786,1.759531 -0.52786,3.313783 0,4.604106 0.52786,1.114369 1.3783,1.876832 2.63929,2.258064 m -0.79179,-6.363636 c 0.35191,-1.290322 0.87977,-2.140762 1.49561,-2.639296 0.32258,-0.205279 0.61583,-0.381232 0.93842,-0.439883 0.3519,-0.05865 0.73314,-0.05865 1.08503,0.05865 0.70382,0.205279 1.23168,0.733138 1.46628,1.436951 0.26393,0.762463 0.20528,1.75953 -0.14663,3.020527 -0.38123,1.290323 -0.87976,2.199414 -1.49559,2.668622 -0.32258,0.26393 -0.61584,0.381232 -0.93842,0.469208 -0.32258,0.05865 -0.67449,0.05865 -1.0264,-0.02932 -0.67448,-0.205279 -1.17302,-0.674487 -1.46627,-1.495602 -0.32258,-0.791788 -0.26393,-1.788856 0.088,-3.049853 m 48.47508,50.322578 6.74486,-2.697946 -5.39588,6.187683 0.67448,1.75953 9.17888,-3.665689 1.11438,-0.469208 -0.64517,-1.612904 -0.46921,0.175953 -6.42229,2.580646 5.54253,-6.334311 -0.67449,-1.70088 -10.26393,4.134898 z m 11.1437,6.480939 c -0.87978,-0.175953 -1.93549,-0.08798 -3.19649,0.205278 -1.73021,0.469208 -3.02053,1.202346 -3.87096,2.316716 -0.67449,0.997067 -0.9091,2.140762 -0.58651,3.431085 0.32257,1.290322 0.99706,2.228738 2.05278,2.785923 1.23167,0.615836 2.69795,0.703812 4.4868,0.26393 0.35191,-0.117302 0.70382,-0.205279 1.02639,-0.322581 1.26101,-0.469209 2.19942,-1.11437 2.81526,-1.935484 0.76246,-1.085043 0.99706,-2.228739 0.7038,-3.548386 -0.20527,-0.909092 -0.61583,-1.583579 -1.14369,-2.140763 -0.55718,-0.527859 -1.29032,-0.909091 -2.22874,-1.085044 h -0.0586 z m 1.6129,3.72434 c 0.17595,0.703812 0.0293,1.407624 -0.46921,2.02346 -0.26393,0.322581 -0.64517,0.645161 -1.14369,0.85044 -0.41056,0.205278 -0.9091,0.381231 -1.43696,0.498533 -1.26099,0.322581 -2.25806,0.293255 -2.9912,-0.02932 -0.70382,-0.293255 -1.17302,-0.821114 -1.31965,-1.554252 -0.17595,-0.703813 -0.0293,-1.378299 0.46921,-1.994135 0.49853,-0.645161 1.40763,-1.11437 2.63929,-1.407625 1.08505,-0.234604 1.96481,-0.263929 2.66863,-0.08797 l 0.29325,0.117302 c 0.67449,0.293255 1.11437,0.821115 1.29033,1.583578 m -7.65396,9.266861 0.4692,6.539589 1.87684,-0.175953 -0.32258,-4.692081 3.95894,-0.293255 5.10264,-0.410558 -0.14663,-1.876832 -4.95601,0.410557 z m -10.58651,67.33137 -1.11437,0.32258 c -0.20528,0.0587 -1.08505,0.85044 -1.73021,1.43695 -0.64516,0.55718 -1.26099,-0.29325 -1.43694,-0.49853 l -0.0294,-0.85044 c 0,-0.14663 -0.0587,-0.64517 -0.0293,-1.20235 0.0293,-0.49853 -0.67448,-0.43988 -0.67448,-0.43988 l -0.29326,0.0293 -0.43988,0.26394 -0.46921,0.4692 -0.32258,0.58651 -0.35191,0.64516 0.14663,0.11731 c 0.41056,0.2346 0.49854,-0.0587 0.82111,-0.11731 0.38123,-0.0587 0.29326,0.0586 0.43988,0.20528 l 0.14663,0.93842 0.11731,0.64516 c 0.17595,0.23461 0.32257,0.23461 0.79179,0.26393 0.4692,0 0.38123,0.29325 0.38123,0.29325 l 0.0293,0.20528 -1.23167,1.58359 -0.73314,1.11436 -0.46921,0.82111 -0.43988,0.73314 -0.17595,0.2346 c 0.088,0.14663 0.23461,0.0294 0.61583,0.0587 0.35191,0 0.90909,-0.58651 1.11437,-0.93842 0.20528,-0.35191 0.67449,-0.93842 0.9091,-1.261 0.20527,-0.3519 0.82111,-0.99707 0.99706,-1.26099 l 0.32259,-0.26393 0.35189,0.26393 0.43989,0.99706 0.29325,0.85044 v 0.43989 l -0.2346,0.99707 -0.1173,0.49852 c -0.1173,0.29326 -0.29325,0.26394 -0.3519,0.32259 l -0.26394,-0.0586 -0.43988,-0.14663 -0.20528,-0.11731 v 0.14663 c 0.14663,0.35191 0.49853,0.58652 0.49853,0.58652 l 0.67449,0.088 c 0.20528,0 0.58651,-0.17596 0.96775,-0.79179 0.43988,-0.55719 0.35191,-0.96774 0.35191,-1.43696 0.0293,-0.41055 -0.088,-1.31965 -0.088,-1.31965 -0.0879,-1.08504 -0.79179,-2.25806 -0.79179,-2.25806 l 0.0293,-0.17595 c 0.0586,-0.0293 0.14663,-0.14663 0.61584,-0.58651 0.49853,-0.46921 0.58651,-0.29326 0.67449,-0.38123 l 0.61583,-0.49854 c 0.17595,-0.14662 0.43988,-0.70381 0.43988,-1.11436 0.11731,-0.46922 -0.20528,-0.43988 -0.3519,-0.43988 m -9.8827,-4.86804 -0.29326,-0.35191 -0.32257,-0.35191 -0.32259,-0.088 h -0.52786 -0.38122 c -0.0587,0.088 -0.55719,0.20528 -0.55719,0.49853 0,0 0,0.43988 0.088,0.73314 0.11731,0.29325 0.32259,0.64516 0.38124,0.70381 l 0.64515,0.64516 0.46922,0.0587 0.4692,0.0586 0.20528,-0.0294 0.32258,-0.29325 0.43988,-0.11731 0.64516,0.0586 0.14663,-0.2346 -0.0294,-1.11438 0.41055,-0.61583 0.29326,-0.20528 0.14662,-0.38123 c 0,-0.1173 0.32259,-1.05571 0.23462,-1.40762 l 0.0879,-1.02639 0.0586,-0.32259 -0.38124,-0.52786 -0.26392,-0.1173 -0.58651,-0.29326 h -0.35191 l -0.58651,0.14663 -0.43988,0.41056 -0.11731,0.58651 0.43989,1.05573 c -0.0294,0.14662 0.23461,1.29031 0.0879,1.93548 l 0.0586,0.43988 c -0.11729,-0.0586 -0.11729,0.26393 -0.4692,0.14663 M 86.539586,127.03812 v -12.17009 h -1.906159 c -0.234604,0.76246 -0.762463,1.40762 -1.43695,1.93548 -0.703812,0.52786 -1.407624,0.93842 -1.994134,1.11437 v 2.11144 c 1.143694,-0.35191 2.111436,-0.96774 2.991202,-1.75953 v 8.76833 z m 65.806444,34.98534 -0.20528,-0.46922 -0.20527,-0.3519 -0.11731,0.088 -0.41056,0.85043 c -0.0293,0.23461 -0.11729,1.43696 0.58651,2.4047 0.6745,1.02639 0.96775,0.73313 1.17302,0.55718 0.20528,-0.17595 0.85045,-0.46921 0.73314,-0.99707 0,0 -0.41055,-0.64516 -0.67448,-0.93841 -0.26393,-0.29326 -0.79179,-1.08505 -0.87977,-1.14369 M 94.398822,125.30791 h -0.05865 c -0.351906,0 -0.674486,-0.1173 -0.90909,-0.32258 -0.234604,-0.20528 -0.381232,-0.58651 -0.439883,-0.99707 l -2.258064,0.23461 c 0.175953,0.96774 0.527859,1.7302 1.114369,2.25807 0.615836,0.49852 1.348974,0.76246 2.28739,0.76246 l 0.234604,-0.0294 c 1.202346,-0.0293 2.199413,-0.52786 2.991202,-1.43695 0.791789,-0.99707 1.231672,-2.58064 1.231672,-4.80939 0,-2.14075 -0.410558,-3.72434 -1.173021,-4.66275 -0.791789,-0.96774 -1.788856,-1.43695 -3.020528,-1.43695 -1.143694,0 -2.052786,0.38123 -2.785923,1.11437 -0.703812,0.76246 -1.085044,1.75953 -1.085044,2.9912 0,1.17302 0.322581,2.17009 1.026393,2.8739 0.674486,0.76247 1.495601,1.11437 2.434017,1.11437 l 0.381232,-0.0293 c 0.674486,-0.0586 1.290323,-0.41057 1.788856,-0.96774 -0.05865,1.34896 -0.293255,2.28738 -0.645161,2.72727 -0.26393,0.41056 -0.674487,0.61583 -1.11437,0.61583 m 1.173021,-4.57478 c -0.322581,0.38123 -0.674487,0.49854 -1.173021,0.49854 -0.469208,0 -0.821114,-0.17596 -1.143694,-0.52786 -0.293255,-0.35191 -0.469208,-0.93842 -0.469208,-1.73021 0,-0.76247 0.146627,-1.31965 0.439882,-1.64223 0.293255,-0.3519 0.645161,-0.49853 1.085044,-0.49853 h 0.117302 c 0.410557,0.0293 0.762463,0.2346 1.085044,0.61583 0.351906,0.41057 0.498534,0.99708 0.498534,1.75953 -0.02932,0.61584 -0.175953,1.1437 -0.439883,1.52493 m 60.997066,34.01759 c 0.1173,-0.088 0.58651,-0.61583 1.11437,-0.79179 0.52785,-0.17594 0.64516,0.11731 0.64516,0.11731 l 0.14663,0.38123 0.088,0.38123 -0.0293,0.29325 v 0.32259 l -0.17596,0.76246 -0.0293,0.49854 0.29325,-0.49854 0.38123,-0.4692 0.55719,-0.64517 c 0.0293,-0.0293 0.17595,-0.17596 0.20528,-0.46921 0,-0.29326 -0.0293,-0.76246 -0.0293,-0.82111 l -0.43988,-0.64517 -0.55718,-0.32257 c -1.64224,-0.26394 -3.16716,1.73021 -3.98828,2.84457 -0.87976,1.08505 -1.96481,4.04692 -2.02346,4.22288 l -0.17595,0.79178 -0.1173,0.32259 c 0.29325,0.14662 0.49853,-0.0586 0.85044,-0.61585 0.35191,-0.49852 0.14663,-0.61583 1.29033,-2.69793 1.05571,-2.11144 1.87682,-2.84458 1.99413,-2.96189 m -49.44301,-0.7918 v -8.94427 c 18.00586,-2.43402 32.69794,-15.36657 37.65395,-32.43403 h -12.72727 c -4.98533,12.93256 -17.50733,22.14077 -32.199415,22.14077 -14.692082,0 -27.214075,-9.20821 -32.199412,-22.14077 H 55.249264 c 4.956012,17.06746 19.648094,30.00001 37.653958,32.43403 v 8.94427 C 69.970671,151.37829 51.378297,134.57477 46.12903,112.58064 H 33.372432 c 5.923753,30.82111 33.079178,54.1349 65.630496,54.1349 h 0.02932 c 0.32258,0 0.645161,0 0.967741,0 0.322581,0 0.645161,0 0.967751,0 h 0.0293 c 32.55132,0 59.70674,-23.31379 65.63049,-54.1349 h -12.75659 c -5.21994,21.96481 -23.84164,38.79765 -46.74486,41.37829 m 67.06744,-27.80058 -4.45748,-1.46627 -0.52785,1.78886 4.39882,1.46627 5.10264,5.27859 0.14663,-0.46921 0.52786,-1.6129 -0.49854,-0.46921 -3.02052,-2.96188 3.04985,-0.43988 1.7302,-0.29326 0.67449,-2.0821 -2.37537,0.41055 z m -68.59237,-11.29032 -1.6129,2.46334 -3.5484,5.21995 v 2.05278 h 4.95602 v 2.43402 h 2.19941 v -2.43402 h 1.46628 v -2.05278 h -1.46628 v -7.68329 z m -0.2346,7.68329 H 102.61 l 1.34897,-2.08212 1.40763,-2.05279 z m 75.9824,-9.26687 c -0.64517,-0.4692 -1.43696,-0.85044 -2.37537,-1.05571 l -0.61584,-0.14663 c -1.14369,-0.23461 -2.22874,-0.23461 -3.13783,0.0293 -0.93841,0.2346 -1.67155,0.67449 -2.22874,1.29033 -0.55718,0.61583 -0.90909,1.34897 -1.08504,2.25806 -0.1173,0.76246 -0.088,1.4956 0.088,2.34604 0.20528,0.79178 0.49853,1.43695 0.87976,1.90616 l 4.34018,0.85043 0.70381,-3.98826 -1.81818,-0.38123 -0.38123,2.11143 -1.40762,-0.26392 c -0.20528,-0.35191 -0.38124,-0.76247 -0.46922,-1.1437 -0.11729,-0.43989 -0.14662,-0.82112 -0.0587,-1.17302 0.14663,-0.79179 0.55719,-1.31965 1.23167,-1.67156 0.76247,-0.38123 1.78886,-0.43988 3.13783,-0.20528 0.29326,0.0586 0.58651,0.11731 0.82112,0.17596 0.79179,0.26393 1.3783,0.61583 1.75953,1.08505 0.49853,0.58651 0.67449,1.29031 0.55718,2.05278 -0.1173,0.52786 -0.32257,0.93842 -0.70381,1.261 -0.3519,0.29325 -0.82111,0.4692 -1.43695,0.49853 l 0.088,1.90616 c 1.08504,0 1.93548,-0.2346 2.58064,-0.82111 0.70382,-0.52787 1.08505,-1.34898 1.31965,-2.49267 0.14663,-0.87977 0.088,-1.73021 -0.20528,-2.43403 -0.29326,-0.76246 -0.82111,-1.43694 -1.58357,-1.99413 M 26.246333,95.689145 l 0.234604,-1.964809 -2.404692,-1.055718 0.410557,-3.695015 2.55132,-0.52786 0.263929,-2.052786 -6.832844,1.436951 -4.57478,0.967741 -0.234604,1.96481 4.750733,2.228739 z m -5.777126,-5.953078 2.082112,-0.381233 -0.26393,2.492669 -1.818182,-0.791789 -2.111437,-0.938416 z m 81.114363,12.521993 v -9.589442 l 13.22581,-0.02932 4.7214,-9.061584 -9.99999,-1.700879 -7.94722,9.999999 v -2.932551 l 4.51613,-9.266862 -6.07038,-8.181818 -6.07038,8.181818 4.486804,9.266862 v 2.932551 l -7.947214,-9.999999 -9.970675,1.700879 4.692082,9.061584 13.225807,0.02932 v 9.589442 L 92.580641,97.653954 H 32.34604 v 0.439883 c 0,2.023463 0.05865,6.862163 0.234604,8.797653 h 60.029323 l 6.686216,5.60117 h 2.023457 l 6.18769,-5.60117 h 60.2346 c 0.17595,-1.93549 0.41055,-6.77419 0.41055,-8.797653 v -0.439883 h -60.61583 z m 12.99121,23.04985 h -0.088 c -0.3519,0 -0.67449,-0.1173 -0.90909,-0.32258 -0.26394,-0.20528 -0.41056,-0.58651 -0.43989,-0.99707 l -2.25806,0.23461 c 0.17596,0.96774 0.55719,1.7302 1.1437,2.25807 0.58651,0.49852 1.31964,0.76246 2.25806,0.76246 l 0.26393,-0.0294 c 1.20235,-0.0293 2.19941,-0.52786 2.96188,-1.43695 0.82111,-0.99707 1.23167,-2.58064 1.23167,-4.80939 0,-2.14075 -0.41056,-3.72434 -1.17302,-4.66275 -0.79179,-0.96774 -1.78886,-1.43695 -3.02053,-1.43695 -1.14369,0 -2.05279,0.38123 -2.81525,1.11437 -0.73314,0.76246 -1.08504,1.75953 -1.08504,2.9912 0,1.17302 0.32257,2.17009 1.02639,2.8739 0.70382,0.76247 1.52493,1.11437 2.46335,1.11437 l 0.41055,-0.0293 c 0.70381,-0.0586 1.29032,-0.41057 1.78886,-0.96774 -0.088,1.34896 -0.29326,2.28738 -0.64517,2.72727 -0.29325,0.41056 -0.64516,0.61583 -1.11436,0.61583 m 1.14369,-4.57478 c -0.32258,0.38123 -0.70381,0.49854 -1.14369,0.49854 -0.46922,0 -0.82112,-0.17596 -1.1437,-0.52786 -0.29326,-0.35191 -0.4692,-0.93842 -0.4692,-1.73021 0,-0.76247 0.14662,-1.31965 0.43988,-1.64223 0.29325,-0.3519 0.64515,-0.49853 1.08504,-0.49853 h 0.1173 c 0.38123,0.0293 0.73314,0.2346 1.08504,0.61583 0.35191,0.41057 0.52786,0.99708 0.52786,1.75953 -0.0294,0.61584 -0.20528,1.1437 -0.49853,1.52493 m -86.187679,3.40176 c -0.351907,-0.41055 -0.791789,-0.70381 -1.290323,-0.87977 -0.469209,-0.20527 -1.11437,-0.26392 -1.818182,-0.2346 -0.32258,0.0293 -0.645161,0.088 -0.967741,0.14663 -0.469208,0.0586 -0.967743,0.20528 -1.524927,0.41056 -0.967742,0.35191 -1.788856,0.73314 -2.375367,1.20234 -0.615836,0.43988 -1.085044,0.87976 -1.378299,1.3783 -0.293255,0.49854 -0.469208,0.99707 -0.527859,1.52493 -0.02932,0.4692 0.08798,1.11437 0.381232,1.93548 l 1.085043,3.22581 4.2522,-1.52493 6.187683,-2.25806 -1.173021,-3.31379 c -0.234604,-0.67449 -0.498533,-1.261 -0.850439,-1.6129 m -4.134897,5.19061 -3.108504,1.1437 -0.26393,-0.82111 c -0.26393,-0.70382 -0.351907,-1.20235 -0.381232,-1.49561 -0.02932,-0.3519 0.02932,-0.67448 0.234604,-0.99706 0.175954,-0.32259 0.469209,-0.64516 0.879766,-0.87976 0.381231,-0.29326 0.997067,-0.58651 1.75953,-0.85045 0.351906,-0.088 0.645162,-0.20528 0.938417,-0.29325 0.351906,-0.088 0.645161,-0.17595 0.938416,-0.20528 0.469208,-0.0293 0.850439,-0.0293 1.114369,0.088 0.293255,0.088 0.498534,0.23461 0.674487,0.43988 0.205279,0.20528 0.381232,0.61585 0.615836,1.20236 l 0.469208,1.34896 z m 3.108504,-9.29618 -0.351906,-1.93548 -2.580645,-0.29326 -0.645162,-3.66569 2.316715,-1.29032 -0.351906,-2.02347 -5.337243,3.02054 -4.868034,2.69795 0.351906,1.99413 4.486803,0.58651 z m -6.979472,-4.10557 1.671554,-0.87977 0.439883,2.522 -2.111437,-0.23461 -2.170088,-0.26393 z m 31.788854,38.38709 -0.234604,-0.52785 h -0.58651 l -0.557184,-0.14663 -0.26393,0.2346 -0.117302,0.17595 -0.791789,0.61584 -1.085044,0.82111 c -0.351906,0.35191 -1.085043,0.79179 -1.085043,0.79179 -0.293256,0.26394 -0.909092,0.49854 -1.173021,0.43989 -0.293255,-0.0587 -1.466275,-0.49854 -1.788856,-0.73314 -0.322582,-0.2346 -0.821115,-0.41056 -0.997068,-0.49854 l -0.791789,-0.1173 -0.615835,-0.14663 c -0.293255,0 -0.293255,0.0586 -0.293255,0.0586 v 0.17596 l 0.08797,0.32258 c -0.234604,0.93841 0.234604,1.40762 0.557185,1.58358 0.351906,0.20528 0.645161,0.20528 1.085043,0.43988 0.469208,0.17595 0.146628,0.41055 -0.08797,0.61583 l -0.762463,0.46922 -0.791789,0.32257 -1.43695,0.32258 -0.498534,0.14663 -0.498533,0.088 -0.967742,0.32258 -0.381232,0.14662 -0.26393,0.0294 -1.906158,-0.0586 c -0.117302,0 -0.146627,0 -0.52786,-0.29325 -0.381231,-0.29326 -0.645161,-0.17596 -0.645161,-0.17596 0.322581,0.9091 0.879766,1.05572 0.879766,1.05572 l 0.58651,0.1173 c 1.231672,0.41056 2.903226,0.55719 3.870968,0.38123 0.967741,-0.20527 2.404692,-0.67449 2.404692,-0.67449 h 0.263929 v 0.14663 0.14663 l -0.117302,0.2346 v 0.46922 l -0.351906,1.78885 -0.293255,1.02639 c -0.469208,1.23167 -0.410557,2.22874 -0.410557,2.87391 -0.02932,0.64516 1.348973,2.22873 1.788856,2.40469 0.381231,0.2346 0.498533,-0.0293 0.498533,-0.0293 l 0.146628,-0.38123 v -0.52786 l -0.146628,-0.73314 -0.08797,-0.38122 -0.175953,-0.52787 -0.351906,-1.43695 0.02932,-1.75953 0.234604,-1.4956 0.175953,-0.35191 0.146628,-0.43988 v -0.41055 l -0.146628,-0.29326 -0.293255,-0.29325 -0.293255,-0.20528 c 0.02932,-0.26394 2.492669,-1.0264 2.991203,-1.23168 0.498533,-0.20528 0.821114,0.0293 0.821114,0.0293 0,0 0.205278,0.32259 1.348974,0.96775 1.17302,0.61584 1.876832,0.0586 1.876832,0.0586 l 0.146628,-0.29326 -0.146628,-0.49852 -0.410557,-0.52787 -0.381232,-0.46921 -0.351906,-0.17594 -0.117302,-0.11731 -0.351906,-0.32258 c -0.293255,-0.20528 0.351906,-0.43988 0.351906,-0.43988 0.967742,-0.17596 2.844575,-1.75953 3.108504,-2.14077 0.293255,-0.43988 0.146628,-0.79179 0.175953,-0.96774 M 26.363635,97.859233 15.307917,97.507327 l -0.02932,1.906158 11.026393,0.322581 z m -0.205278,4.281527 -1.876833,0.1173 0.263929,4.63343 -9.061583,0.52786 0.08797,1.90616 10.938417,-0.67449 z m 125.747793,55.60117 -0.1173,-0.43988 c 0,0 -0.20528,-0.41057 -0.49853,-0.41057 -0.32259,-0.0293 -0.49854,-0.32257 -0.49854,-0.52785 l -0.14663,-0.35191 -0.3519,-0.32258 -0.20528,-0.43988 -0.43989,-0.29325 h -0.43988 l -0.17595,0.0293 c 0,0 -0.1173,0 -0.1173,0.38123 -0.0294,0.3519 0.20528,1.58358 0.32258,1.73021 0,0 0.52786,0.99707 1.11437,1.43695 l 0.64516,0.20528 c 0,0 0.32258,0.0879 0.64517,-0.23461 0.38123,-0.26393 0.35189,-0.52786 0.26392,-0.76246 m -5.3959,16.48093 -0.87976,0.0293 -0.93841,0.088 -1.261,0.1173 -0.96774,0.14663 -0.61584,-0.0293 h -0.61584 l -0.7038,-0.0587 -0.96775,-0.17595 -1.87683,-0.61583 c -0.17596,-0.0294 -0.70382,0.0586 -0.96775,0.17595 l -0.088,-0.17595 c 0.0586,-0.29326 -0.2346,-0.64517 -0.2346,-0.82113 -0.0294,-0.2346 -0.11731,-0.38123 -0.17595,-1.05571 -0.0586,-0.73314 0.79178,-1.29033 1.02639,-1.43695 l 0.76246,-0.58651 0.20528,-0.96774 -0.088,-0.52786 -0.29325,-0.0293 -0.46922,0.20528 -0.41055,0.17596 -0.73313,0.49852 -0.55719,0.49854 -0.20528,-0.38123 -0.20528,-0.4692 -0.23461,-1.0264 c 0,0 0,-0.35191 -0.11729,-0.67449 -0.0587,-0.32258 -0.6745,-1.34897 -0.9091,-1.67156 -0.17595,-0.32257 -0.49853,-0.43988 -0.49853,-0.43988 l -0.52786,-0.14663 -0.17595,-0.0294 -0.35191,0.088 -0.32257,0.20528 -0.0294,0.17594 -0.0587,0.29326 0.17596,0.32259 0.35191,0.29325 c 0.49852,0.49854 1.29031,2.37536 1.29031,2.37536 l 0.32259,0.93842 0.0294,0.52786 0.29326,0.64516 0.14662,0.46922 c -0.088,0.32257 -0.32257,0.64515 -0.32257,0.67448 l -0.38124,0.49854 -0.26392,0.26392 -0.35191,0.35191 c -0.61583,0.32258 -0.64517,0.52785 -0.67449,0.58651 l -0.0293,0.46921 0.17596,0.41055 c 0.0293,0.088 0.41055,0.11731 0.82111,0.2346 0.38123,0.0586 0.70382,-0.26392 0.79179,-0.29325 l 0.1173,-0.1173 0.14663,-0.20528 0.23461,-0.49853 0.14663,-0.17595 0.43988,0.41055 0.0586,0.70381 c -0.0293,0.11731 -0.0293,0.0294 0.0587,1.08505 0.11731,1.02639 -0.14662,2.31671 -0.20528,2.84458 -0.0586,0.4692 -0.26392,1.11436 -0.29325,1.26099 l -0.32258,0.79179 -0.29325,0.26392 -0.14663,0.32259 0.32258,-0.0293 h 0.17596 c 0.0587,-0.088 0.32257,0 0.61583,-0.20527 0.29325,-0.20528 0.61584,-0.70382 0.61584,-0.70382 l 0.11729,-0.14662 0.14663,-0.35191 0.41056,-1.0264 0.0293,-0.17594 0.088,-0.29326 0.20528,-0.46921 v -0.17595 l -0.0293,-0.32259 0.0586,-0.32258 v -0.2346 -0.26393 l 0.0293,-0.17595 v -0.20528 l -0.14663,-0.61583 -0.17594,-0.99707 c 0,0 0.0586,-0.26394 0.7038,0.088 0.61584,0.32259 3.22581,1.67156 3.95894,2.08212 0.73314,0.41055 1.84752,0.43988 2.46335,0.4692 0.64516,0 1.43695,-0.64516 1.55425,-0.67448 l 0.26393,-0.41056 0.0294,-0.52786 0.17595,-0.43988 0.67449,-0.49854 z m -73.284447,-6.86216 c -0.439882,-0.0586 -0.263929,-0.29326 -0.263929,-0.29326 l 0.175953,-0.32258 0.117302,-0.49854 -0.05865,-0.43988 -0.146628,-0.29325 -0.351906,-0.17595 c -0.351906,-0.17596 -0.703812,0.0586 -0.703812,0.0586 l -0.498535,0.76246 c -0.02932,0.0293 -0.117302,0.14663 -0.410557,0.61583 -0.263929,0.38124 -0.498533,0.32259 -0.703812,0.35191 h -0.967741 l -0.997068,0.0293 -0.703812,0.0293 -0.762463,0.26394 -0.146628,0.43988 0.02932,0.55718 0.381231,0.43988 h 0.58651 l 0.381232,0.23461 -0.175953,0.32258 -0.175953,0.0294 -0.234604,0.17596 -0.351906,0.29325 -0.615836,0.46921 -0.351906,0.26393 -0.469209,0.46921 -0.557185,0.49853 -0.175953,0.64516 0.05865,0.26393 c 0.02932,0.1173 0.351907,0.61584 0.645162,0.73314 0.293256,0.14663 0.381232,0.14663 0.498534,0.17595 l 0.293255,0.0294 c 0,0 0.703812,-0.29326 1.085044,-0.29326 0.351906,0.0293 0.05865,0.32259 0.05865,0.32259 l -0.205279,0.2346 -0.351906,0.67448 -0.293255,0.61585 -0.175953,0.0879 -0.175953,0.14663 -0.791789,0.0586 h -0.322581 -0.469208 l -0.351906,0.0294 -0.469208,0.0586 h -0.469208 l -0.381232,-0.17596 -0.205278,-0.0586 -0.175954,0.17595 0.05865,0.14663 0.762464,0.49853 0.498533,0.20528 0.997068,0.0294 0.439882,0.1173 0.146628,0.17595 -0.02932,0.20528 -0.146627,0.29326 -0.762463,1.11436 -0.205279,0.55719 0.05865,0.38123 c -0.263929,0.17595 -0.850439,-0.35191 -1.17302,-0.79179 -0.322581,-0.4692 -2.228739,-1.8475 -2.346041,-1.93548 l -0.117302,-0.38124 0.02932,-0.35189 -0.117302,-0.35191 -0.205278,-0.43989 -0.26393,-0.79179 v -0.29325 l 0.08798,-0.29326 0.146627,-0.32257 0.469208,-0.58652 0.703812,-0.52786 c 0.498534,-0.49854 0.879765,-0.32258 1.143696,-0.38123 0.263929,-0.088 0.527859,-0.20528 0.762463,-0.64516 0.234604,-0.38123 -0.146628,-0.79179 -0.322581,-0.96774 -0.146627,-0.14663 -0.85044,-0.58651 -1.202346,-0.46921 -0.322581,0.088 -0.439883,0.58651 -0.439883,0.58651 l -0.02932,0.55718 c 0.293255,0.26394 0,0.46922 0,0.49854 -0.02932,0.0586 -0.645161,0.76246 -1.085044,0.96774 -0.410557,0.20528 -0.58651,0.46921 -0.733138,0.55719 l -0.439883,0.58651 -0.146627,0.90908 c 0.08797,0.11731 0.05865,0.43989 0.05865,0.9091 0,0.43988 -0.469208,0.32258 -0.469208,0.32258 l -0.293255,-0.0587 -0.117302,-0.0586 -0.527859,0.14663 -0.146628,0.4692 c 0.146628,0.088 0.557185,0.38123 1.026393,0.41056 0.498533,0.0294 1.43695,0.41055 2.28739,0.99706 0.821114,0.58651 1.202345,1.17302 1.202345,1.17302 0.146628,0.088 0.879766,1.26101 1.348975,1.87684 0.439882,0.55719 1.143694,1.40762 1.436949,1.67156 0.293255,0.20528 0.909092,0.49853 1.085045,0.61583 l 1.260996,0.46921 c 1.114369,0.4692 1.466276,0.41055 1.847508,-0.0294 0.32258,-0.38123 0.02932,-0.70381 0.02932,-0.70381 l -0.821115,-0.61584 -1.143694,-0.61583 -1.43695,-0.9091 -0.645162,-0.43988 -0.08797,-0.14663 0.146627,-0.14662 0.410557,-0.14663 0.469209,-1.02639 c 0.02932,-0.0587 0.498534,-1.14369 0.762463,-1.52493 0.26393,-0.3519 0.674487,-0.2346 0.674487,-0.2346 0.117302,-0.0587 0.439882,0.29325 0.938416,0.0293 0.498534,-0.29326 0.351907,-0.87977 0.351907,-0.87977 l -0.322582,-0.26393 -0.410557,-0.14663 h -0.263929 l 0.02932,-0.20528 0.645161,-1.11437 0.351907,-0.4692 0.410557,-0.38124 c 0.205279,-0.20528 0.381232,-0.26392 1.085044,-0.38123 0.674486,-0.14663 0.498533,-0.32258 0.498533,-0.41056 l -0.645161,-0.38123 0.175953,-0.58651 -0.293255,-0.90909 H 69.88269 l -0.26393,0.38123 -0.381231,0.55719 c -0.175953,0.3519 -0.79179,0.41055 -0.79179,0.41055 l -0.469208,0.0586 c -0.733137,0.14662 -0.645161,-0.17595 -0.645161,-0.17595 0.146628,-0.52787 2.258065,-1.96481 2.521994,-2.11144 0.26393,-0.11731 0.821114,-0.61584 1.906158,-0.41056 1.11437,0.14662 0.997068,0.35191 1.730206,0.20528 0.762463,-0.17595 0.733137,-0.41056 0.879765,-0.64517 0.146627,-0.29325 -0.205279,-0.61583 -0.322581,-0.85043 0.02932,-0.32259 -0.821114,-0.58651 -0.821114,-0.58651 m 46.656892,12.37536 -0.55718,-0.14662 c -0.0293,0.0587 -0.96775,0.20528 -1.6129,0.17595 -0.64516,0 -1.55426,0.17596 -1.58358,0.2346 -0.0293,0.0293 -0.76246,0.17596 -1.0264,0.14663 -0.29325,-0.0586 0.0294,-0.32258 0.0294,-0.32258 0.49853,-0.29326 1.11437,-1.05572 1.11437,-1.05572 1.17302,-1.52492 0.87977,-2.19942 0.87977,-2.28739 0,-0.14663 -0.35191,-0.58651 -1.02639,-0.87977 -0.6745,-0.26392 -1.29033,-0.0586 -2.0528,0.35191 -0.70381,0.38123 -1.75953,1.43695 -1.8475,1.4956 l -0.0294,0.52786 0.26393,0.32258 0.32258,0.20528 c 0.35191,0.29326 1.05572,0.0293 1.11437,-0.0293 l 0.29326,-0.3519 c 0.14662,-0.14663 0,0 0.55719,-0.41056 0.55717,-0.35191 0.49853,0.088 0.49853,0.088 0,1.261 -1.55426,2.69794 -1.55426,2.69794 l -0.43988,0.20528 c -1.52493,0.26394 -2.55132,0.76246 -3.31378,1.34897 -0.76246,0.52787 -0.67449,0.82113 -0.67449,0.82113 0,0.73313 0.23461,0.96773 0.73314,1.17302 0.49854,0.2346 0.99706,-0.17596 0.99706,-0.17596 1.46628,-1.31965 7.71262,-2.02346 7.80059,-2.02346 l 0.82111,-0.1173 c 0.20528,-0.0586 0.35191,-0.52786 0.61585,-0.82112 0.26392,-0.32258 0.29325,-0.52785 0.29325,-0.64516 z m -25.689151,-7.09678 c -0.498534,0.17595 -1.085044,0.49854 -1.671554,0.87977 -0.615836,0.43988 -0.586511,0.99706 -0.586511,0.99706 l 0.439884,0.14662 0.410557,-0.088 0.469208,-0.1173 c 0,-0.088 0.439882,-0.32258 0.791788,-0.55718 0.351906,-0.26394 1.260998,-0.46921 1.495602,-0.52786 l 0.821114,-0.0293 0.615836,0.1173 0.32258,0.49854 c 0,0.64516 -0.351906,1.23167 -0.351906,1.23167 0,0 0.117302,0 -0.498534,0.96774 -0.615835,0.96774 -1.671554,1.6129 -1.876833,1.75953 l -0.351906,-0.0293 0.05865,-0.38123 0.175953,-0.1173 0.410557,-0.43988 0.498535,-0.46921 0.32258,-0.17595 0.175953,-0.29326 -0.117302,-0.20528 -0.05865,-0.43988 -0.263929,-0.14663 -0.117302,-0.17595 -0.293256,-0.1173 -0.175953,-0.32258 c -0.615836,-0.73314 -0.674487,-0.38124 -0.674487,-0.38124 l -0.02932,0.58651 -0.175953,0.43988 -1.290322,0.85045 -0.175953,0.61583 0.615835,0.43988 0.205279,0.35191 -0.05865,0.43988 -0.146628,0.11731 -0.293255,0.2346 -0.205278,0.17595 -0.293256,0.0293 -0.293255,0.0293 -0.205279,0.14663 -0.117302,0.088 -0.175953,-0.1173 -0.02932,-0.20528 0.02932,-0.32258 0.175953,-0.32258 0.146628,-0.64517 0.02932,-0.43988 v -0.43988 c 0.08798,-0.32258 -0.351906,-0.61583 -0.58651,-0.61583 -0.175953,0.0293 -0.645161,0.20528 -0.997067,0.96774 -0.410557,0.76246 -0.615835,1.70087 -0.674486,1.96481 l 0.117302,0.38123 0.234604,0.23461 0.469208,0.58651 0.469208,-0.14663 0.293255,-0.17596 0.205278,0.088 c 0,0.43988 0.439883,0.43988 0.527859,0.43988 l 0.498535,-0.29326 v 0.46922 l -0.146629,0.35191 c -0.02932,0.29325 -0.32258,1.02639 -0.32258,1.02639 l -0.498534,0.4692 -0.263929,0.11731 c 0,0 -0.205279,0.17595 -0.527859,0.14663 -0.351906,-0.088 -0.293255,0.11729 -0.322581,0.11729 l 0.08798,0.43988 0.381231,0.41056 0.146628,0.29326 -0.146628,0.87976 -0.175953,0.38123 -0.674486,0.0586 c 0,0.0293 -0.52786,0.0587 -0.79179,0.0879 h -0.146628 l -0.527859,0.0587 -0.293255,0.0586 0.02932,0.32257 0.32258,0.46922 0.469208,0.32257 0.146628,0.0294 0.469209,0.0293 c 0.146627,0 1.114369,-0.0293 1.935483,-0.0587 0.850441,-0.0587 1.96481,0.29326 2.082112,0.43989 0.117302,0.17595 0.205278,0.38123 0.733137,0.43988 0.527859,0 0.997068,-0.35191 1.319649,-0.58651 0.32258,-0.20528 0.263929,-0.41056 0.263929,-0.41056 0,0 0.02932,-0.43988 -0.527859,-0.73314 -0.557185,-0.29325 -2.932551,-0.70381 -3.225807,-0.67448 l -0.175953,-0.64517 c -0.02932,-0.4692 0.322582,-0.87976 0.322582,-0.87976 0.733137,-0.64516 1.290322,-0.29326 1.730204,-0.35191 0.439883,-0.0293 0.645161,0 0.821114,-0.32258 0.146628,-0.32257 0.02932,-0.61583 -0.205278,-0.79179 l -0.791789,-0.14662 -0.263929,0.0293 H 93.25512 l -0.293255,-0.14663 0.263929,-1.05572 0.234604,-0.67449 c 0.821114,-0.58651 2.991202,-2.25806 3.607038,-3.2258 0.615835,-0.93842 0.762463,-1.61291 0.90909,-2.28739 0.117303,-0.73314 -0.32258,-1.23167 -0.32258,-1.23167 -0.967742,-1.3783 -2.961877,-0.49854 -3.46041,-0.29326 M 89.53078,180.205 c 0.05865,-0.32258 -0.175954,-0.1173 -0.175954,-0.1173 l -0.146628,0.14663 c -0.645161,0.67448 -3.46041,3.72433 -3.724339,3.98826 h -0.02932 l -0.439882,0.14663 c -0.205279,-0.29325 0.117302,-1.02639 0.263929,-1.29032 l 0.205279,-0.23461 c 0.439882,-0.58651 1.290323,-1.64222 1.524927,-2.02345 0.381231,-0.64516 0.439882,-1.3783 0.410557,-1.58358 l -0.117302,-0.49854 c 0.263929,-0.76246 1.143694,-2.46334 1.554251,-3.07917 l 0.381232,-0.35191 c 0.293256,-0.26393 0.52786,-0.32258 0.79179,-0.64517 0.381231,-0.43988 0.234604,-0.7038 0,-1.02639 l -0.79179,-0.14663 -0.146628,0.0294 -1.085043,0.26392 -1.143695,0.23461 c -0.117302,0.088 -0.586511,0.14663 -0.909091,0.3519 -0.322581,0.26393 -0.410557,0.58651 -0.410557,0.58651 l 0.05865,0.14663 0.469208,0.41056 c 0.498534,0.43988 1.290323,0.20528 1.495601,0.088 l 0.293255,0.088 c 0,0 -1.055718,2.93255 -1.378299,2.72728 -0.146628,-0.11731 -0.557185,-0.23462 -0.997067,-0.17596 -0.351906,0.0294 -0.733138,0.14662 -0.967742,0.35191 -0.498533,0.49853 -0.762463,1.29032 -0.703812,1.7302 0.05865,0.43989 0.762463,0.93842 1.290322,0.82112 l 0.351906,-0.088 c 0.410557,-0.17596 0.733138,-0.52786 0.733138,-0.52786 l -0.733138,1.29032 -1.583577,2.66863 -0.117302,0.35191 0.117302,0.35189 0.322581,0.35191 0.293255,0.11731 c 0.351906,0.11729 0.674486,0 0.967741,-0.2346 l 0.08798,-0.088 c 0.32258,-0.32258 0.615835,-0.79179 0.90909,-1.14369 0.498535,-0.55719 2.111437,-2.58065 2.756598,-3.46041 z m -3.66569,-0.43988 -0.32258,0.29325 c -0.322581,0.26393 -0.58651,0.38123 -0.85044,0.0293 0,0 0,-0.52786 0.498534,-0.87976 l 0.351906,-0.17596 c 0.32258,-0.17595 0.58651,-0.17595 0.733137,-0.14663 0.175953,0.088 0.08798,0.52786 -0.410557,0.87977 M 99.999995,0 C 44.750731,0 0,44.780056 0,99.999995 c 0,55.249265 44.780056,99.999995 99.999995,99.999995 55.219935,0 99.999995,-44.78006 99.999995,-99.999995 C 199.99999,44.809382 155.21993,0 99.999995,0 m 0.02935,192.75659 h -0.02935 c -51.202343,0 -92.7565936,-41.52493 -92.7565936,-92.69794 0,-51.202347 41.5542506,-92.727272 92.7565936,-92.7565975 h 0.02935 c 51.14368,0 92.6686,41.5249255 92.6686,92.7565975 0.0294,51.17301 -41.52492,92.69794 -92.66857,92.69794"
   id="path17"
   style="fill:#0075bd;fill-opacity:1;stroke-width:1" />
</svg>
