<?xml version="1.0" encoding="UTF-8"?>
<svg xmlns="http://www.w3.org/2000/svg" xmlns:xlink="http://www.w3.org/1999/xlink" width="252pt" height="252pt" viewBox="0 0 252 252" version="1.1">
<g id="surface1">
<path style=" stroke:none;fill-rule:nonzero;fill:rgb(71.764706%,0%,19.215686%);fill-opacity:1;" d="M 63.257812 57.136719 L 61.425781 52.804688 L 66.414062 48.71875 L 70.289062 51.378906 L 73.035156 49.136719 L 56.503906 38.445312 L 53.582031 40.816406 L 60.582031 59.316406 Z M 56.773438 41.894531 L 56.820312 41.84375 L 64.175781 47.125 L 60.324219 50.300781 Z M 52.402344 68.828125 L 41.269531 59.367188 L 41.316406 59.332031 L 56.457031 64.0625 L 59.109375 60.933594 L 44.828125 48.777344 L 42.816406 51.152344 L 54.046875 60.683594 L 53.996094 60.730469 L 38.742188 55.953125 L 36.097656 59.054688 L 50.382812 71.199219 Z M 19.5625 141.414062 C 20.777344 141.308594 21.742188 140.9375 22.460938 140.3125 C 23.179688 139.691406 23.75 138.886719 24.191406 137.929688 L 25.007812 136.109375 C 25.199219 135.667969 25.382812 135.285156 25.542969 134.972656 C 25.726562 134.660156 25.90625 134.375 26.089844 134.15625 C 26.289062 133.941406 26.503906 133.75 26.753906 133.628906 C 26.996094 133.523438 27.28125 133.449219 27.609375 133.414062 C 28.070312 133.367188 28.503906 133.414062 28.839844 133.535156 C 29.210938 133.65625 29.496094 133.835938 29.742188 134.085938 C 30 134.324219 30.179688 134.625 30.300781 134.949219 C 30.449219 135.269531 30.535156 135.628906 30.582031 136.015625 C 30.660156 136.925781 30.59375 137.738281 30.359375 138.457031 C 30.167969 139.175781 29.964844 139.703125 29.777344 140.0625 L 32.839844 139.988281 C 33.304688 139.007812 33.457031 137.570312 33.28125 135.65625 C 33.210938 134.769531 33.019531 133.953125 32.726562 133.222656 C 32.417969 132.492188 32.019531 131.859375 31.496094 131.332031 C 30.996094 130.804688 30.359375 130.410156 29.628906 130.15625 C 28.898438 129.894531 28.058594 129.808594 27.125 129.894531 C 26.457031 129.953125 25.90625 130.074219 25.394531 130.265625 C 24.933594 130.433594 24.503906 130.671875 24.167969 130.972656 C 23.785156 131.269531 23.484375 131.628906 23.179688 132.074219 C 22.898438 132.503906 22.621094 132.996094 22.378906 133.582031 L 21.4375 135.691406 C 21.304688 135.964844 21.199219 136.230469 21.058594 136.46875 C 20.941406 136.71875 20.765625 136.949219 20.609375 137.152344 C 20.441406 137.355469 20.222656 137.511719 19.988281 137.65625 C 19.75 137.785156 19.4375 137.859375 19.089844 137.894531 C 18.453125 137.953125 17.902344 137.785156 17.449219 137.378906 C 17.007812 136.984375 16.753906 136.347656 16.675781 135.5 C 16.605469 134.695312 16.640625 134 16.777344 133.425781 C 16.898438 132.839844 17.03125 132.335938 17.148438 131.917969 L 14.289062 132.015625 C 14.214844 132.289062 14.132812 132.769531 14.011719 133.449219 C 13.890625 134.132812 13.878906 134.972656 13.964844 135.964844 C 14.035156 136.746094 14.203125 137.5 14.484375 138.183594 C 14.765625 138.875 15.132812 139.488281 15.605469 139.976562 C 16.097656 140.492188 16.664062 140.851562 17.324219 141.117188 C 17.980469 141.390625 18.738281 141.488281 19.5625 141.414062 Z M 19.316406 100.578125 C 19.964844 101.488281 20.800781 102.265625 21.84375 102.949219 C 22.875 103.617188 24.058594 104.144531 25.359375 104.503906 C 26.695312 104.886719 27.964844 105.054688 29.210938 105.019531 C 30.425781 104.996094 31.546875 104.742188 32.574219 104.289062 C 33.605469 103.820312 34.480469 103.164062 35.246094 102.242188 C 36 101.355469 36.585938 100.203125 36.984375 98.839844 C 37.210938 98 37.367188 97.210938 37.449219 96.46875 C 37.535156 95.726562 37.535156 95.152344 37.4375 94.753906 L 34.371094 94.085938 C 34.527344 94.539062 34.609375 95.042969 34.636719 95.652344 C 34.660156 96.242188 34.550781 96.960938 34.335938 97.75 C 34.125 98.433594 33.832031 99.066406 33.40625 99.605469 C 33.007812 100.144531 32.46875 100.578125 31.796875 100.886719 C 31.167969 101.210938 30.359375 101.390625 29.460938 101.4375 C 28.5625 101.472656 27.527344 101.332031 26.347656 100.996094 C 25.171875 100.671875 24.214844 100.265625 23.484375 99.75 C 22.71875 99.234375 22.144531 98.660156 21.753906 98.074219 C 21.367188 97.449219 21.136719 96.804688 21.058594 96.121094 C 21 95.449219 21.046875 94.757812 21.246094 94.0625 C 21.484375 93.234375 21.789062 92.5625 22.203125 92.085938 C 22.585938 91.605469 22.910156 91.222656 23.191406 90.933594 L 20.269531 89.917969 C 20.035156 90.21875 19.738281 90.707031 19.339844 91.332031 C 18.980469 91.988281 18.660156 92.78125 18.394531 93.703125 C 18.019531 95.042969 17.902344 96.300781 18.101562 97.460938 C 18.289062 98.625 18.683594 99.667969 19.316406 100.578125 Z M 16.628906 122.566406 L 32.617188 123.367188 L 32.785156 119.929688 L 16.800781 119.128906 L 17.007812 114.984375 L 14.277344 114.828125 L 13.683594 126.613281 L 16.40625 126.742188 Z M 40.371094 88.949219 L 32.898438 85.402344 L 35.292969 80.371094 L 42.753906 83.917969 L 44.226562 80.816406 L 27.304688 72.78125 L 25.820312 75.882812 L 32.714844 79.164062 L 30.324219 84.179688 L 23.449219 80.898438 L 21.976562 84 L 38.898438 92.039062 Z M 48.300781 74.574219 L 32.527344 64.445312 L 30.671875 67.332031 L 46.429688 77.460938 Z M 206.519531 79.546875 L 222.542969 69.820312 L 220.75 66.886719 L 204.738281 76.613281 Z M 211.65625 89.785156 L 231.109375 87.308594 L 229.648438 84.074219 L 214.882812 86.457031 L 214.871094 86.421875 L 226.46875 77.03125 L 224.960938 73.652344 L 210.183594 86.492188 Z M 196.230469 65.113281 L 207.601562 55.941406 L 207.648438 55.988281 L 200.144531 69.976562 L 202.722656 73.1875 L 217.332031 61.414062 L 215.378906 58.984375 L 203.914062 68.230469 L 203.890625 68.191406 L 211.429688 54.097656 L 208.851562 50.921875 L 194.277344 62.671875 Z M 218.253906 113.460938 L 226.253906 112.539062 L 226.351562 113.308594 C 226.421875 113.917969 226.339844 114.46875 226.121094 114.949219 C 225.902344 115.414062 225.414062 115.796875 224.699219 116.121094 L 218.851562 118.660156 L 219.277344 122.289062 L 226.085938 119.042969 C 226.496094 118.851562 226.828125 118.660156 227.082031 118.445312 C 227.339844 118.253906 227.546875 118.0625 227.667969 117.871094 C 227.800781 117.652344 227.882812 117.472656 227.917969 117.28125 C 227.957031 117.117188 227.992188 116.910156 228.007812 116.730469 L 228.09375 116.71875 C 228.375 117.75 228.9375 118.578125 229.789062 119.152344 C 230.636719 119.75 231.660156 119.976562 232.878906 119.820312 C 233.738281 119.726562 234.457031 119.511719 235.03125 119.164062 C 235.621094 118.828125 236.082031 118.410156 236.445312 117.871094 C 236.769531 117.332031 236.996094 116.707031 237.128906 116 C 237.238281 115.292969 237.238281 114.527344 237.152344 113.714844 L 236.496094 107.90625 L 217.878906 110.039062 Z M 234.253906 111.628906 L 234.421875 113.007812 C 234.53125 113.964844 234.433594 114.730469 234.148438 115.308594 C 233.855469 115.882812 233.171875 116.21875 232.109375 116.359375 C 231.140625 116.457031 230.410156 116.253906 229.882812 115.75 C 229.34375 115.246094 229.03125 114.539062 228.9375 113.640625 L 228.761719 112.242188 Z M 184.941406 54.074219 C 185.367188 54.765625 185.90625 55.414062 186.589844 56 C 187.246094 56.5625 187.964844 57.007812 188.707031 57.316406 C 189.453125 57.628906 190.207031 57.761719 191.042969 57.714844 C 191.835938 57.675781 192.636719 57.449219 193.453125 57.007812 C 194.277344 56.5625 195.097656 55.894531 195.890625 54.945312 L 203.8125 45.75 L 201.234375 43.507812 L 193.285156 52.707031 C 192.285156 53.882812 191.378906 54.539062 190.625 54.671875 C 189.859375 54.816406 189.105469 54.5625 188.363281 53.917969 C 187.605469 53.257812 187.246094 52.550781 187.285156 51.785156 C 187.296875 51.007812 187.816406 50.035156 188.839844 48.863281 L 196.769531 39.675781 L 194.15625 37.425781 L 186.230469 46.613281 C 185.425781 47.558594 184.871094 48.457031 184.554688 49.332031 C 184.234375 50.203125 184.128906 51.03125 184.1875 51.832031 C 184.273438 52.636719 184.515625 53.390625 184.941406 54.074219 Z M 217.261719 106.960938 L 219.90625 106.253906 L 218.132812 99.796875 L 223.464844 98.335938 L 225.085938 104.191406 L 227.703125 103.472656 L 226.109375 97.617188 L 230.929688 96.300781 L 232.625 102.492188 L 235.261719 101.773438 L 232.671875 92.265625 L 214.578125 97.199219 Z M 133.882812 17.675781 L 133.941406 17.675781 L 136.410156 33.738281 L 138.835938 34.058594 L 145.457031 19.148438 L 145.523438 19.148438 L 143.558594 34.660156 L 146.648438 35.042969 L 148.992188 16.457031 L 144.085938 15.832031 L 138.398438 29.199219 L 138.335938 29.199219 L 136.265625 14.839844 L 131.175781 14.191406 L 128.816406 32.777344 L 131.90625 33.175781 Z M 95.5625 32.636719 C 96.265625 33.726562 97.023438 34.5625 97.886719 35.164062 C 98.753906 35.738281 99.652344 36.109375 100.625 36.253906 C 101.589844 36.40625 102.550781 36.359375 103.488281 36.132812 C 104.425781 35.90625 105.292969 35.484375 106.0625 34.910156 C 106.863281 34.335938 107.5 33.570312 107.964844 32.660156 C 108.46875 31.738281 108.761719 30.648438 108.859375 29.367188 C 108.972656 28.070312 108.808594 26.625 108.433594 24.980469 C 108.019531 23.355469 107.476562 22 106.792969 20.910156 C 106.085938 19.832031 105.308594 19.007812 104.449219 18.40625 C 103.601562 17.808594 102.683594 17.4375 101.726562 17.28125 C 100.761719 17.148438 99.796875 17.1875 98.863281 17.414062 C 97.921875 17.652344 97.0625 18.058594 96.28125 18.636719 C 95.472656 19.222656 94.84375 19.964844 94.371094 20.898438 C 93.894531 21.808594 93.59375 22.910156 93.480469 24.203125 C 93.382812 25.472656 93.515625 26.921875 93.929688 28.5625 C 94.335938 30.203125 94.882812 31.570312 95.5625 32.636719 Z M 97.15625 22.15625 C 97.390625 21.558594 97.691406 21.066406 98.097656 20.707031 C 98.511719 20.335938 98.960938 20.097656 99.511719 19.964844 C 100.007812 19.84375 100.550781 19.84375 101.054688 19.964844 C 101.589844 20.097656 102.097656 20.382812 102.5625 20.839844 C 103.050781 21.28125 103.472656 21.890625 103.882812 22.742188 C 104.300781 23.546875 104.671875 24.574219 104.972656 25.832031 C 105.292969 27.089844 105.449219 28.179688 105.460938 29.089844 C 105.472656 30.011719 105.378906 30.789062 105.167969 31.378906 C 104.972656 32 104.660156 32.492188 104.253906 32.851562 C 103.832031 33.210938 103.367188 33.449219 102.839844 33.570312 C 102.347656 33.714844 101.808594 33.714844 101.28125 33.570312 C 100.75 33.449219 100.253906 33.175781 99.773438 32.730469 C 99.300781 32.277344 98.875 31.640625 98.445312 30.816406 C 98.023438 30 97.675781 28.957031 97.367188 27.714844 C 97.0625 26.46875 96.875 25.378906 96.875 24.46875 C 96.863281 23.546875 96.960938 22.777344 97.15625 22.15625 Z M 117.164062 33.519531 L 116.613281 25.484375 L 117.390625 25.4375 C 118 25.390625 118.550781 25.484375 119.011719 25.761719 C 119.476562 26 119.839844 26.492188 120.121094 27.222656 L 122.386719 33.175781 L 126.039062 32.921875 L 123.101562 25.964844 C 122.925781 25.546875 122.75 25.210938 122.566406 24.945312 C 122.371094 24.671875 122.191406 24.480469 121.996094 24.335938 C 121.808594 24.203125 121.605469 24.085938 121.449219 24.035156 C 121.265625 23.988281 121.078125 23.953125 120.886719 23.929688 L 120.886719 23.84375 C 121.921875 23.628906 122.773438 23.101562 123.398438 22.289062 C 124 21.472656 124.269531 20.457031 124.210938 19.222656 C 124.140625 18.359375 123.964844 17.628906 123.652344 17.042969 C 123.34375 16.429688 122.910156 15.953125 122.398438 15.59375 C 121.882812 15.210938 121.289062 14.957031 120.570312 14.816406 C 119.875 14.660156 119.109375 14.621094 118.292969 14.683594 L 112.460938 15.066406 L 113.738281 33.773438 Z M 117.449219 17.367188 C 118.433594 17.28125 119.1875 17.425781 119.742188 17.75 C 120.300781 18.058594 120.636719 18.753906 120.695312 19.84375 C 120.769531 20.789062 120.523438 21.53125 120 22.035156 C 119.476562 22.527344 118.742188 22.828125 117.847656 22.886719 L 116.445312 22.980469 L 116.054688 17.449219 Z M 175.445312 44.023438 L 169.976562 41.136719 L 177.453125 26.984375 L 174.410156 25.378906 L 165.65625 41.953125 L 174.183594 46.445312 Z M 83.714844 43.101562 L 77.628906 29.832031 L 77.6875 29.808594 L 89.414062 40.503906 L 93.152344 38.804688 L 85.335938 21.761719 L 82.5 23.054688 L 88.636719 36.433594 L 88.601562 36.457031 L 76.804688 25.6875 L 73.078125 27.378906 L 80.886719 44.40625 Z M 152.007812 36.753906 L 154.746094 32.945312 L 160.835938 35.042969 L 160.601562 39.738281 L 163.953125 40.875 L 164.378906 21.210938 L 160.808594 19.976562 L 148.757812 35.640625 Z M 161.605469 23.246094 L 161.65625 23.269531 L 161.007812 32.3125 L 156.296875 30.683594 Z M 156.34375 228.816406 C 155.535156 228.914062 155.535156 229.941406 155.535156 230.757812 L 155.523438 231.378906 C 155.402344 232.601562 153.445312 234.050781 151.667969 234.792969 L 151.167969 234.996094 C 150.3125 235.390625 149.644531 235.703125 148.589844 235.285156 C 148.109375 235.128906 147.671875 234.265625 147.578125 233.355469 C 147.515625 232.675781 147.683594 232.121094 148.0625 231.894531 C 148.234375 231.789062 148.28125 231.835938 148.378906 231.945312 C 148.589844 232.160156 148.816406 232.277344 149.679688 231.609375 C 149.769531 231.546875 149.78125 231.34375 149.804688 230.925781 C 149.828125 230.589844 149.851562 230.195312 149.941406 229.96875 L 150.242188 229.25 L 150.449219 228.757812 C 150.535156 227.980469 150.253906 227.261719 149.667969 226.792969 C 148.988281 226.265625 148.0625 226.171875 147.175781 226.507812 C 145.859375 227.019531 144.667969 228.121094 143.605469 229.082031 C 142.546875 230.050781 141.605469 230.902344 140.78125 230.984375 C 140.46875 231.019531 140.234375 230.902344 140.039062 230.78125 C 139.832031 230.6875 139.652344 230.554688 139.46875 230.648438 C 139.1875 230.757812 138.949219 231.226562 138.660156 232.195312 C 138.601562 232.375 138.601562 232.746094 138.601562 233.152344 C 138.613281 233.8125 138.625 234.648438 138.335938 234.902344 C 138.253906 234.972656 138.140625 234.996094 138.019531 234.972656 C 137.882812 234.960938 137.808594 234.902344 137.738281 234.78125 C 137.472656 234.304688 137.882812 233.152344 137.894531 233.140625 C 137.90625 233.140625 137.976562 232.183594 137.976562 232.183594 C 137.976562 231.894531 137.953125 231.621094 138.019531 231.378906 C 138.398438 230.039062 139.550781 229.644531 140.78125 229.238281 C 141.402344 229.035156 142.265625 228.136719 142.425781 227.90625 C 142.671875 227.429688 142.167969 227.007812 141.769531 226.648438 L 141.707031 226.613281 C 141.023438 226.027344 140.410156 225.929688 139.820312 226.316406 C 139.332031 226.625 138.761719 227.355469 138.101562 228.21875 C 137.59375 228.867188 137.078125 229.523438 136.503906 230.109375 L 136.324219 230.289062 C 135.179688 231.429688 133.894531 232.816406 134.023438 233.453125 C 134.0625 233.546875 134.121094 233.644531 134.253906 233.703125 C 134.792969 233.90625 135.21875 233.308594 135.617188 232.792969 C 135.910156 232.375 136.203125 232.015625 136.421875 232.136719 C 136.492188 232.183594 136.558594 232.230469 136.570312 232.316406 C 136.617188 232.433594 136.535156 232.648438 136.359375 232.9375 L 136.277344 233.058594 C 136.085938 233.40625 135.875 233.714844 135.851562 234.578125 C 135.804688 235.824219 136.097656 236.074219 136.535156 236.496094 L 137.007812 236.949219 C 137.234375 237.1875 137.277344 237.597656 137.3125 237.871094 L 137.382812 238.171875 C 137.691406 238.457031 137.90625 238.410156 138.066406 238.375 C 138.203125 238.351562 138.277344 238.328125 138.371094 238.457031 C 138.613281 238.792969 138.589844 239.621094 138.421875 239.738281 C 138.410156 239.738281 138.394531 239.777344 138.324219 239.679688 C 138.140625 239.464844 137.714844 239.570312 137.570312 239.609375 C 137.101562 239.738281 136.996094 240.125 136.910156 240.457031 L 136.828125 240.699219 C 136.382812 241.929688 137.054688 242.46875 137.761719 242.839844 C 138.203125 243.070312 138.578125 243.238281 139.257812 242.804688 C 139.859375 242.433594 139.859375 241.355469 139.859375 240.242188 L 139.859375 239.871094 C 139.871094 238.839844 139.964844 237.945312 140.097656 237.417969 C 140.292969 236.78125 140.199219 236.304688 140.109375 235.945312 L 140.0625 235.390625 C 140.109375 234.699219 140.480469 234.398438 140.929688 234.015625 C 141.175781 233.824219 141.4375 233.597656 141.683594 233.285156 L 142.265625 232.554688 C 142.984375 231.644531 143.546875 230.925781 144.59375 230.230469 C 144.933594 230.003906 145.28125 229.644531 145.605469 229.308594 C 146.054688 228.851562 146.527344 228.386719 147.03125 228.171875 L 147.128906 228.121094 C 147.550781 227.929688 148.378906 227.558594 148.683594 227.824219 C 148.792969 227.90625 149.144531 228.601562 149.023438 228.972656 C 148.976562 229.117188 148.886719 229.1875 148.71875 229.199219 C 148.480469 229.210938 148.445312 229.070312 148.378906 228.839844 C 148.34375 228.671875 148.304688 228.519531 148.15625 228.445312 C 147.894531 228.3125 147.101562 228.53125 147.089844 228.542969 C 146.785156 228.601562 146.613281 228.984375 146.359375 229.441406 C 146.1875 229.726562 146 230.097656 145.75 230.375 C 144.816406 231.429688 144.78125 233.164062 145.1875 234.351562 C 145.691406 235.714844 146.480469 236.148438 146.953125 236.433594 L 147.246094 236.613281 C 148.390625 237.609375 149.929688 238.316406 153.308594 236.792969 C 155.523438 235.789062 157.167969 234.289062 157.828125 232.6875 C 158.132812 231.941406 157.898438 230.121094 157.246094 229.273438 C 156.984375 228.925781 156.695312 228.78125 156.34375 228.816406 Z M 208.890625 194.554688 C 208.480469 194.792969 207.261719 197.09375 206.386719 198.074219 C 206.027344 198.445312 205.75 198.375 205.546875 198.171875 C 204.816406 197.511719 207.082031 195.441406 206.3125 194.746094 C 205.175781 193.726562 204.007812 194.097656 203.070312 195.378906 C 203.070312 195.378906 202.003906 197.007812 200.875 198.324219 C 199.96875 199.441406 199.46875 201.59375 200.492188 202.003906 C 201.558594 202.421875 202.441406 201.453125 202.671875 200.289062 C 202.757812 199.90625 202.613281 199.859375 202.546875 199.511719 C 202.453125 199.09375 202.78125 198.925781 202.78125 198.695312 C 202.769531 197.980469 202.710938 197.582031 203.265625 197.644531 C 203.476562 197.65625 203.925781 198.480469 204.03125 198.722656 C 204.21875 199.164062 204.410156 199.917969 204.207031 200.421875 C 203.488281 202.183594 202.441406 203.894531 203.171875 204.839844 C 203.34375 205.058594 204.410156 205.164062 204.816406 204.972656 C 205.273438 204.734375 205.175781 204.300781 205.480469 203.367188 C 205.609375 203.019531 206.351562 202.589844 206.457031 202.289062 C 206.699219 201.726562 206.699219 200.769531 207.019531 200.828125 C 207.625 200.972656 208.46875 202.183594 208.625 203.523438 C 208.710938 204.3125 208.601562 205.222656 208.183594 205.523438 C 208.027344 205.644531 207.308594 206.589844 207.859375 207.261719 C 208.507812 208.003906 209.238281 207.90625 209.632812 207.691406 C 211.324219 206.816406 210.925781 204.972656 210.828125 203.070312 C 210.78125 202.074219 210.398438 201.019531 210.097656 200.601562 C 209.621094 199.90625 209.839844 199.824219 209.582031 199.570312 C 209.0625 199.105469 208.578125 199.164062 208.589844 198.914062 C 208.636719 198.109375 209.644531 197.5 209.816406 197.285156 C 210.074219 196.984375 210.816406 196.351562 210.972656 195.714844 C 211.242188 194.480469 209.367188 194.300781 208.890625 194.554688 Z M 201.308594 195.75 C 202.589844 194.3125 203.453125 192.722656 204.207031 191.800781 C 204.605469 191.308594 205.199219 190.925781 205.570312 190.398438 C 205.992188 189.75 206.445312 190.566406 206.859375 190.503906 C 207.871094 190.3125 208.792969 189.546875 208.757812 188.769531 C 208.792969 188.277344 208.414062 187.5 207.453125 187.03125 C 205.667969 186.160156 204.300781 190.121094 203.242188 189.800781 C 203.007812 189.738281 202.984375 188.085938 203.019531 188.410156 C 202.960938 187.464844 202.757812 186.277344 202.132812 185.296875 C 201.632812 184.503906 201.222656 184.578125 200.746094 184.265625 C 200.355469 184.027344 200.074219 183.679688 199.554688 183.605469 C 198.207031 183.453125 197.558594 184.480469 197.59375 185.367188 C 197.632812 186.324219 198.398438 187.980469 197.859375 188.601562 C 197.277344 189.273438 196.667969 189.234375 196.433594 188.78125 C 196.109375 188.132812 196.050781 186.792969 195.621094 186.578125 C 195.390625 186.433594 194.839844 186.792969 194.523438 187.378906 C 194.21875 187.953125 194.839844 189.355469 194.109375 189.644531 C 193.78125 189.761719 193.355469 189.066406 193.0625 189.140625 C 192.222656 189.320312 193.1875 191.535156 192.671875 192.15625 C 191.785156 193.246094 191.90625 193.953125 192.433594 194.996094 C 192.804688 195.75 193.707031 196.828125 194.160156 197.714844 C 194.683594 198.734375 195.714844 199.355469 195.621094 199.835938 C 195.523438 200.363281 195.273438 200.050781 194.949219 200.457031 C 194.476562 201.066406 195.914062 204.433594 197.8125 205.523438 C 198.195312 205.738281 199.175781 205.824219 199.480469 205.273438 C 200.027344 204.277344 197.894531 203.667969 197.523438 202.589844 C 197.234375 201.859375 198.882812 199.871094 199.738281 198.363281 C 200.109375 197.667969 200.527344 196.613281 201.308594 195.75 Z M 197.199219 198.445312 C 196.863281 198.578125 196.46875 197.8125 195.902344 197.261719 C 195.074219 196.46875 193.992188 195.464844 194.085938 195.285156 C 194.230469 194.996094 194.085938 193.761719 194.414062 193.824219 C 194.960938 193.929688 195.488281 195.355469 195.828125 195.8125 C 196.375 196.769531 196.65625 196.171875 196.925781 197.285156 C 197.070312 197.917969 197.632812 198.253906 197.199219 198.445312 Z M 197.8125 194.757812 C 197.433594 194.863281 197.300781 195.054688 196.949219 194.601562 C 196.207031 193.621094 196.097656 192.289062 196.457031 191.824219 C 197.234375 190.769531 197.199219 192.53125 197.246094 192.757812 C 197.410156 193.25 198.195312 194.671875 197.8125 194.757812 Z M 199.054688 187.523438 C 199.332031 186.625 199.03125 186.398438 199.285156 186.003906 C 199.625 185.488281 200.355469 185.632812 200.914062 186.097656 C 201.429688 186.542969 201.78125 187.320312 201.414062 187.738281 C 201.015625 188.242188 200.410156 187.644531 200.121094 187.894531 C 199.789062 188.21875 199.917969 189.007812 200.445312 188.972656 C 200.914062 188.9375 201.222656 189.429688 201.332031 189.953125 C 201.367188 190.183594 201.164062 190.648438 201.261719 190.851562 C 201.355469 191.152344 201.941406 191.222656 202.085938 191.5 C 202.195312 191.761719 201.746094 192.566406 201.273438 192.53125 C 200.515625 192.445312 200.660156 191.007812 200.355469 190.683594 C 198.738281 189.070312 198.9375 187.929688 199.054688 187.523438 Z M 199.332031 194.039062 C 199.332031 194.039062 199.117188 193.8125 199.105469 193.8125 C 198.554688 193.621094 198.660156 192.121094 198.710938 192.0625 C 199.492188 191.429688 200.648438 194.242188 199.332031 194.039062 Z M 189.621094 216.398438 C 188.804688 215.367188 187.132812 215.777344 185.367188 216.914062 C 184.324219 217.570312 183.042969 217.761719 182.277344 217.953125 C 179.90625 218.578125 177.976562 217.789062 177.378906 217.941406 C 176.785156 218.121094 177.117188 219.609375 177.613281 220.300781 C 179.015625 222.316406 183.054688 221.5 185.441406 220.699219 C 186.367188 220.398438 187.355469 219.441406 188.121094 218.914062 C 188.972656 218.339844 189.835938 218.160156 189.761719 217.570312 C 189.679688 216.984375 189.972656 216.839844 189.621094 216.398438 Z M 180.242188 212.878906 C 180.792969 211.835938 180.828125 210.636719 179.691406 210.492188 C 179.285156 210.445312 179.109375 210.375 178.414062 210.804688 C 177.234375 211.546875 177.738281 212.0625 176.941406 212.589844 C 176.613281 212.804688 176.1875 211.285156 176.785156 210.746094 C 178.015625 209.59375 179.222656 207.90625 178.722656 206.492188 C 178.320312 205.34375 177.636719 204.410156 176.164062 205.859375 C 175.398438 206.613281 174.410156 207.691406 173.902344 209.429688 C 173.230469 211.644531 172.886719 214.085938 171.894531 215.59375 C 171.257812 216.554688 171.109375 216.003906 170.34375 216.746094 C 168.152344 218.78125 167.03125 220.625 168.152344 221.738281 C 168.949219 222.519531 170.015625 222.230469 170.578125 222.039062 C 171.296875 221.800781 171.695312 221.210938 171.816406 221.582031 C 171.953125 221.980469 171.425781 223.691406 171.1875 225.058594 C 171.097656 225.621094 170.613281 226.890625 169.882812 227.871094 C 168.671875 229.535156 168.324219 230.097656 168.726562 230.601562 C 169.210938 231.1875 170.027344 231.09375 170.710938 230.589844 C 171.464844 230.027344 173.996094 225.859375 174.667969 221.332031 C 174.761719 220.519531 175.285156 219.582031 175.492188 218.914062 C 175.773438 218.015625 175.558594 217.441406 176.015625 216.816406 C 177.425781 214.949219 179.535156 214.230469 180.242188 212.878906 Z M 212.230469 161.75 L 210.863281 164.902344 L 217.703125 167.835938 L 225.878906 177.390625 L 227.351562 173.976562 L 221.824219 167.871094 L 230.148438 167.476562 L 231.632812 164.074219 L 219.140625 164.722656 Z M 217.851562 141.894531 L 236.410156 144.636719 L 236.894531 141.246094 L 218.363281 138.503906 Z M 237.800781 128.746094 C 237.613281 128.039062 237.320312 127.390625 236.894531 126.839844 C 236.507812 126.289062 235.980469 125.835938 235.351562 125.488281 C 234.738281 125.152344 233.996094 124.949219 233.171875 124.925781 C 231.941406 124.875 230.929688 125.128906 230.148438 125.644531 C 229.367188 126.179688 228.683594 126.886719 228.140625 127.808594 L 227.105469 129.523438 C 226.867188 129.917969 226.632812 130.265625 226.421875 130.566406 C 226.21875 130.863281 225.984375 131.117188 225.765625 131.308594 C 225.558594 131.5 225.320312 131.644531 225.058594 131.738281 C 224.804688 131.835938 224.523438 131.859375 224.160156 131.859375 C 223.710938 131.847656 223.308594 131.75 222.980469 131.570312 C 222.636719 131.402344 222.375 131.199219 222.132812 130.914062 C 221.941406 130.636719 221.789062 130.335938 221.691406 129.976562 C 221.578125 129.65625 221.554688 129.285156 221.554688 128.914062 C 221.589844 127.988281 221.773438 127.199219 222.074219 126.492188 C 222.375 125.808594 222.636719 125.320312 222.867188 124.972656 L 219.824219 124.683594 C 219.230469 125.582031 218.890625 126.996094 218.828125 128.914062 C 218.792969 129.808594 218.878906 130.636719 219.082031 131.390625 C 219.289062 132.183594 219.609375 132.863281 220.058594 133.4375 C 220.507812 134.015625 221.070312 134.480469 221.773438 134.828125 C 222.457031 135.164062 223.285156 135.367188 224.21875 135.402344 C 224.890625 135.425781 225.464844 135.378906 225.972656 135.246094 C 226.457031 135.152344 226.914062 134.960938 227.300781 134.707031 C 227.703125 134.457031 228.058594 134.132812 228.410156 133.726562 C 228.75 133.355469 229.070312 132.875 229.402344 132.335938 L 230.601562 130.375 C 230.746094 130.097656 230.902344 129.859375 231.074219 129.628906 C 231.238281 129.390625 231.390625 129.199219 231.597656 129.03125 C 231.792969 128.851562 232.015625 128.695312 232.277344 128.589844 C 232.535156 128.503906 232.839844 128.46875 233.183594 128.480469 C 233.835938 128.503906 234.351562 128.734375 234.75 129.1875 C 235.140625 129.65625 235.339844 130.300781 235.296875 131.164062 C 235.261719 131.964844 235.140625 132.648438 234.949219 133.199219 C 234.738281 133.75 234.53125 134.242188 234.363281 134.648438 L 237.238281 134.914062 C 237.332031 134.648438 237.476562 134.183594 237.671875 133.523438 C 237.894531 132.851562 238.003906 132.015625 238.039062 131.03125 C 238.074219 130.242188 237.992188 129.464844 237.800781 128.746094 Z M 231.980469 152.601562 L 216.503906 148.554688 L 215.625 151.871094 L 231.109375 155.941406 L 230.039062 159.953125 L 232.710938 160.660156 L 235.679688 149.257812 L 233.046875 148.566406 Z M 146.613281 222.398438 C 146.300781 222.671875 145.964844 222.960938 145.964844 223.390625 C 145.988281 223.929688 146.1875 224.363281 146.492188 224.566406 C 146.71875 224.734375 147.03125 224.746094 147.355469 224.625 C 147.820312 224.410156 147.976562 223.894531 148.144531 223.332031 C 148.257812 222.972656 148.378906 222.625 148.566406 222.289062 C 148.828125 221.847656 149.144531 221.726562 149.476562 221.582031 C 149.769531 221.476562 150.074219 221.355469 150.3125 221.007812 C 150.546875 220.699219 150.617188 220.351562 150.523438 220.027344 C 150.386719 219.632812 150.050781 219.320312 149.5 219.117188 C 148.78125 218.878906 148.480469 219.332031 148.28125 219.644531 C 148.234375 219.75 148.15625 219.859375 148.109375 219.871094 L 148.039062 219.835938 C 147.613281 219.476562 147.785156 219.007812 147.953125 218.507812 C 148.027344 218.253906 148.132812 218.015625 148.15625 217.761719 C 148.167969 217.441406 148.097656 217.199219 147.894531 217.070312 C 147.613281 216.878906 147.140625 216.9375 146.46875 217.273438 C 146.1875 217.417969 145.964844 217.703125 145.75 218.003906 C 145.535156 218.300781 145.3125 218.601562 144.996094 218.816406 C 144.15625 219.332031 143.605469 219.917969 143.179688 220.386719 C 142.863281 220.722656 142.625 220.996094 142.375 221.128906 C 142.179688 221.210938 141.847656 221.261719 141.472656 221.332031 C 140.828125 221.453125 140.085938 221.582031 139.859375 221.917969 L 139.503906 222.566406 C 139.34375 222.878906 139.199219 223.226562 139.03125 223.273438 L 138.9375 223.25 C 138.648438 223.09375 138.808594 222.601562 138.984375 222.109375 L 139.042969 221.929688 C 139.269531 221.261719 139.636719 220.828125 139.976562 220.445312 C 140.1875 220.207031 140.367188 220.003906 140.46875 219.789062 C 140.648438 219.390625 140.601562 219.007812 140.332031 218.710938 C 140.050781 218.386719 139.550781 218.277344 139.164062 218.433594 C 138.421875 218.710938 137.472656 220.171875 137.042969 221.046875 C 136.792969 221.546875 136.628906 222.085938 136.46875 222.625 C 136.3125 223.1875 136.15625 223.726562 135.875 224.21875 C 135.570312 224.746094 135.875 225.441406 136.3125 225.882812 C 136.71875 226.300781 137.382812 226.648438 137.976562 226.363281 C 138.117188 226.289062 138.152344 226.136719 138.21875 225.945312 C 138.324219 225.65625 138.433594 225.261719 139.019531 225.105469 C 139.269531 225.035156 139.503906 225.1875 139.761719 225.40625 C 140.0625 225.632812 140.398438 225.882812 140.886719 225.703125 C 141.402344 225.523438 141.71875 224.804688 142 224.183594 L 142.207031 223.726562 C 142.558594 222.972656 144.433594 220.277344 145.222656 219.894531 C 145.605469 219.703125 145.847656 219.65625 145.964844 219.714844 C 146.140625 219.800781 146.1875 220.039062 146.277344 220.363281 L 146.335938 220.625 C 146.410156 220.902344 146.648438 221.019531 146.835938 221.128906 C 147.007812 221.210938 147.164062 221.285156 147.175781 221.453125 C 147.210938 221.859375 146.917969 222.109375 146.613281 222.398438 Z M 116.421875 225.1875 C 115.246094 224.566406 113.179688 225.597656 112.695312 224.851562 C 112.511719 224.542969 113.054688 224.015625 113.167969 223.609375 C 113.355469 222.9375 112.996094 222.328125 112.472656 222.160156 C 112.144531 222.027344 112.179688 221.582031 112.601562 221.582031 C 113.179688 221.570312 113.460938 221.667969 114.050781 221.777344 C 115.140625 221.957031 115.785156 221.945312 116.550781 221.007812 C 116.785156 220.710938 116.71875 220.039062 116.3125 219.679688 C 115.75 219.1875 113.921875 219.019531 111.976562 218.914062 C 109.90625 218.804688 107.703125 218.578125 107.222656 219.296875 C 106.984375 219.65625 106.503906 220.039062 106.230469 220.496094 C 105.839844 221.152344 105.605469 221.761719 105.191406 222.003906 C 103.90625 222.757812 103.414062 224.496094 103.234375 223.894531 C 103.089844 223.464844 102.492188 223.453125 102.140625 223.34375 C 101.953125 223.285156 102.023438 222.816406 102.210938 222.660156 C 102.421875 222.507812 102.445312 222.660156 102.730469 222.578125 C 103.511719 222.316406 104.484375 221.570312 104.683594 221.019531 C 105.167969 219.621094 105.828125 218.578125 105.242188 217.679688 C 104.742188 216.9375 103.808594 216.554688 102.839844 216.421875 C 102.347656 216.351562 101.480469 216.363281 100.933594 216.554688 C 99.984375 216.890625 99.582031 217.992188 98.921875 219.34375 C 98.652344 219.90625 98.085938 220.566406 97.78125 221.441406 C 97.390625 222.542969 96.875 224.097656 96.636719 224.890625 C 96.109375 226.671875 95.941406 227.941406 96.28125 229.273438 C 96.4375 229.957031 96.144531 230.890625 97.121094 231.007812 C 97.886719 231.117188 97.714844 228.160156 98.0625 226.839844 C 98.230469 226.289062 98.371094 225.789062 98.816406 225.582031 C 98.960938 225.511719 99.089844 225.261719 99.335938 225.40625 C 99.582031 225.535156 99.089844 226.300781 99.511719 226.351562 C 100.191406 226.398438 100.625 225.570312 101.140625 225.929688 C 101.550781 226.230469 100.886719 226.914062 100.277344 227.332031 C 99.125 228.171875 98.511719 229.859375 99.960938 230.363281 C 100.589844 230.589844 101.390625 229.777344 101.773438 228.914062 C 102.085938 228.253906 102.039062 227.8125 102.347656 227.296875 C 102.550781 226.902344 102.941406 226.839844 103.257812 226.351562 C 103.558594 225.882812 103.808594 225.320312 104.265625 224.78125 C 104.804688 224.148438 105.511719 223.523438 106.011719 223.019531 C 106.558594 222.457031 107.019531 221.917969 107.617188 221.582031 C 108.191406 221.296875 109.03125 221.128906 109.492188 221.5 C 109.820312 221.789062 108.3125 222.519531 107.371094 223.273438 C 106.0625 224.3125 105.257812 225.714844 104.839844 227.570312 C 104.671875 228.3125 104.121094 230.363281 104.601562 230.851562 C 104.921875 231.226562 105.242188 231.355469 105.703125 231.34375 C 106.886719 231.308594 106.617188 229.082031 107.371094 228.207031 C 107.523438 228.015625 107.679688 227.667969 108.007812 227.859375 C 108.335938 228.074219 107.089844 232.398438 106.324219 234.925781 C 105.785156 236.648438 105.628906 238.109375 105.414062 239.488281 C 105.332031 240.074219 105.257812 240.625 106.097656 240.851562 C 107.277344 241.164062 107.929688 238.625 108.335938 237.03125 C 108.660156 235.726562 109.246094 233.789062 109.871094 233.140625 C 110.539062 232.433594 112.085938 232.074219 113.019531 231.917969 C 113.972656 231.777344 114.851562 230.710938 115.410156 230.3125 C 116.1875 229.789062 116.972656 227.8125 117.175781 227.117188 C 117.449219 226.136719 117.175781 225.621094 116.421875 225.1875 Z M 101.367188 223.03125 C 100.117188 223.308594 99.726562 224.21875 99.511719 224.734375 C 99.371094 224.960938 99.078125 224.851562 99.054688 224.601562 C 99.007812 224.039062 99.078125 223.03125 99.628906 222.339844 C 100.324219 221.378906 100.636719 220.589844 101.175781 219.992188 C 101.871094 219.210938 102.730469 218.949219 102.90625 219.1875 C 103.234375 219.621094 102.347656 220.039062 102.28125 220.445312 C 102.097656 221.570312 101.90625 221.570312 101.550781 222.085938 C 101.292969 222.46875 102.023438 222.902344 101.367188 223.03125 Z M 109.210938 224.578125 C 108.671875 225.296875 108.019531 225.582031 107.703125 225.1875 C 107.5 224.914062 108.808594 223.859375 109.414062 223.175781 C 110.1875 222.328125 110.320312 222.492188 110.539062 222.699219 C 110.804688 222.9375 109.941406 223.582031 109.210938 224.578125 Z M 113.132812 229.570312 C 112.402344 229.96875 111.976562 230.136719 111.535156 230.050781 C 111.308594 229.992188 110.863281 229.40625 111.011719 229.140625 C 111.390625 228.496094 111.210938 228.195312 111.390625 227.835938 C 111.707031 227.25 112.589844 227.523438 113.132812 227.570312 C 113.886719 227.632812 114.386719 227.367188 114.386719 227.929688 C 114.386719 227.929688 114.097656 229.046875 113.132812 229.570312 Z M 58.707031 188.839844 C 58.085938 188.183594 56.90625 187.726562 55.628906 187.980469 C 54.804688 188.171875 55.546875 189.019531 55.699219 189.199219 C 55.867188 189.367188 56.089844 189.320312 56.242188 189.453125 C 56.84375 189.917969 57.246094 190.722656 57.671875 190.792969 C 59.28125 191.070312 59.71875 189.894531 58.707031 188.839844 Z M 36.585938 153.964844 L 31.886719 153.773438 L 30.289062 147.523438 L 34.347656 145.140625 L 33.457031 141.703125 L 16.789062 152.15625 L 17.726562 155.835938 L 37.4375 157.285156 Z M 20.035156 153.367188 L 20.023438 153.320312 L 27.90625 148.875 L 29.171875 153.714844 Z M 80.210938 208.0625 C 79.953125 207.558594 80.917969 206.410156 79.515625 206.375 C 79.34375 206.351562 78.550781 206.21875 78.289062 206.375 C 78.042969 206.507812 77.617188 207.414062 77.511719 207.378906 C 76.863281 207.09375 75.773438 206.578125 74.253906 206.136719 C 72.792969 205.738281 72 204.675781 70.808594 205.007812 C 70.3125 205.164062 69.917969 205.1875 69.484375 205.476562 C 68.71875 205.980469 68.875 207.128906 69.714844 207.667969 C 70.089844 207.90625 72.636719 207.558594 73.613281 207.8125 C 74.765625 208.085938 75.933594 208.433594 76.035156 208.914062 C 76.074219 209.164062 75.773438 209.546875 75.304688 209.882812 C 73.582031 211.046875 72.730469 210.445312 71.796875 210.433594 C 71.617188 210.433594 71.664062 210.039062 72.011719 209.871094 C 72.457031 209.644531 73.304688 209.570312 73.332031 209.40625 C 73.378906 209.199219 72.050781 208.722656 70.808594 208.613281 C 70.335938 208.566406 69.945312 208.636719 69.546875 208.734375 C 68.324219 208.949219 66.539062 210.867188 65.785156 212.960938 C 65.1875 214.6875 64.359375 216.003906 65.246094 216.792969 C 66.292969 217.714844 66.921875 216.554688 67.714844 214.613281 C 68.179688 213.511719 69.226562 212.925781 69.796875 212.625 C 70.03125 212.492188 70.84375 211.390625 72.308594 212.386719 C 72.359375 212.433594 72.234375 212.804688 71.796875 212.78125 C 71.234375 212.757812 70.492188 213.082031 70.347656 213.378906 C 70.167969 213.800781 70.359375 214.3125 70.277344 214.855469 C 70.203125 215.429688 69.125 215.273438 69.855469 216.386719 C 69.90625 216.46875 69.199219 216.734375 68.945312 216.554688 C 68.828125 216.46875 68.910156 216.230469 68.769531 216.195312 C 68.359375 216.015625 67.691406 216.9375 67.582031 217.03125 C 66.984375 217.546875 66.085938 217.738281 65.140625 217.957031 C 63.546875 218.351562 61.390625 219.046875 60.144531 219.558594 C 58.683594 220.148438 58.898438 221.210938 60.449219 221.980469 C 61.113281 222.316406 63.089844 221.523438 64.046875 221.175781 C 64.730469 220.9375 66.191406 220.484375 66.804688 220.648438 C 67.460938 220.839844 64.574219 224.097656 64.613281 224.601562 C 64.695312 225.476562 65.941406 226.507812 66.574219 225.441406 C 66.839844 224.949219 67.097656 224.289062 67.496094 223.535156 C 67.78125 222.949219 68.3125 222.363281 68.617188 221.859375 C 69.078125 221.128906 69.496094 220.410156 69.691406 220.496094 C 70.167969 220.660156 70.078125 221.453125 70.457031 222.53125 C 71.378906 225.082031 74.046875 227.917969 76.347656 229.105469 C 77.738281 229.8125 78.832031 229.214844 78.289062 227.367188 C 78.164062 226.984375 78.078125 226.675781 77.996094 226.46875 C 77.726562 225.789062 77.714844 226.53125 76.382812 225.511719 C 76.035156 225.226562 74.539062 223.574219 73.707031 222.855469 C 73.332031 222.507812 72.730469 221.585938 72.359375 220.710938 C 72.140625 220.148438 71.457031 219.835938 72.648438 219.308594 C 73.367188 218.996094 72.882812 218.160156 73.484375 218.050781 C 74 217.96875 74.960938 218.039062 75.628906 217.894531 C 76.40625 217.738281 77.449219 217.175781 78.683594 216.757812 C 79.855469 216.375 81.535156 214.160156 80.929688 213.238281 C 80.492188 212.601562 79.601562 212.300781 78.503906 211.597656 C 77.941406 211.226562 76.703125 211.894531 77.335938 211.046875 C 77.75 210.457031 77.832031 210.171875 78.492188 210.148438 C 79.503906 210.136719 82.460938 211.835938 82.886719 210.125 C 83.242188 208.757812 80.765625 209.128906 80.210938 208.0625 Z M 77.652344 214.253906 C 77.511719 215.308594 75.972656 216.003906 74.898438 216.230469 C 74.496094 216.300781 74.011719 216.660156 73.765625 216.710938 C 73.113281 216.851562 73.199219 216.519531 73.832031 215.917969 C 74.179688 215.570312 74.957031 214.804688 74.484375 214.253906 C 74.023438 213.691406 74.863281 212.339844 75.292969 212.757812 C 76.097656 213.511719 77.703125 214.003906 77.652344 214.253906 Z M 38.121094 158.636719 L 35.609375 159.726562 L 38.289062 165.859375 L 33.210938 168.0625 L 30.789062 162.492188 L 28.269531 163.59375 L 30.695312 169.164062 L 26.113281 171.140625 L 23.558594 165.257812 L 21.046875 166.351562 L 24.96875 175.378906 L 42.164062 167.90625 Z M 53.984375 183.980469 C 53.984375 183.980469 53.304688 183.402344 52.957031 183.34375 C 52.535156 183.222656 52.496094 183.476562 52.132812 183.488281 C 51.742188 183.441406 51.484375 183.714844 51.34375 184.015625 C 50.988281 184.78125 51.765625 185.761719 53.132812 186.445312 C 54.765625 187.273438 55.269531 184.914062 53.984375 183.980469 Z M 57.503906 191.464844 C 56.335938 190.804688 55.46875 190.3125 55.246094 189.609375 C 55.234375 189.546875 55.03125 188.804688 54.792969 188.671875 C 54.527344 188.554688 54.417969 188.972656 53.996094 188.613281 C 53.582031 188.265625 52.132812 186.660156 50.851562 186.132812 C 50.304688 185.929688 49.710938 184.792969 49.042969 184.695312 C 48.382812 184.601562 46.699219 185.082031 47.289062 186.480469 C 47.546875 187.09375 49.316406 186.996094 50.597656 188.097656 C 51.234375 188.613281 51.953125 188.324219 52.132812 189.238281 C 52.214844 189.59375 52.011719 189.546875 51.828125 189.558594 C 51.71875 189.558594 49.378906 188.386719 47.25 187.871094 C 45.75 187.523438 44.4375 187.222656 43.867188 188.566406 C 43.742188 188.878906 44.011719 189.992188 43.148438 189.679688 C 42.335938 189.390625 40.984375 189.175781 40.457031 189.570312 C 40.261719 189.714844 39.605469 190.339844 39.472656 190.53125 C 38.789062 191.378906 39.90625 192.171875 39.570312 192.445312 C 39.4375 192.578125 38.605469 191.964844 37.839844 191.785156 C 37.316406 191.667969 36.730469 192.195312 36.503906 192.46875 C 36.167969 192.890625 36.503906 193.007812 37.269531 193.761719 C 38.507812 194.996094 39.078125 195.210938 41.007812 196.207031 C 41.40625 196.398438 42.160156 196.902344 42.40625 197.332031 C 42.683594 197.8125 42.023438 198.183594 41.457031 197.871094 C 40.289062 197.238281 35.222656 194.601562 35.808594 197.488281 C 35.941406 198.171875 36.945312 199.117188 37.304688 199.296875 C 37.726562 199.511719 38.980469 199.714844 39.042969 200.339844 C 39.113281 201.058594 37.132812 201.621094 37.449219 202.816406 C 37.652344 203.597656 38.082031 204.183594 38.59375 203.929688 C 39.425781 203.558594 40.933594 201.835938 41.367188 201.882812 C 42.660156 202.027344 44.472656 205.070312 45.800781 204.375 C 47.394531 203.582031 47.222656 202.421875 46.742188 202.085938 C 45.898438 201.476562 44.460938 200.722656 43.820312 200.039062 C 43.570312 199.75 44.085938 199.390625 44.496094 199.164062 C 45.519531 198.613281 46.96875 200.996094 48.417969 202.289062 C 49.503906 203.25 49.257812 203.34375 49.890625 204.039062 C 50.804688 205.007812 52.335938 204.769531 52.851562 203.175781 C 53.054688 202.554688 50.144531 200.242188 49.054688 199.453125 C 47.652344 198.457031 46.839844 198.183594 46.816406 197.453125 C 46.839844 196.636719 47.808594 197.246094 47.832031 197.273438 C 49.054688 198.46875 54.945312 199.246094 54.789062 195.535156 C 54.726562 194.253906 55.796875 194.183594 54.617188 193.210938 C 54.515625 193.128906 53.167969 192.363281 53.109375 191.992188 C 53.042969 191.632812 53.628906 191.042969 54.238281 191.488281 C 55.078125 192.085938 56.300781 193.308594 56.46875 193.390625 C 58.191406 194.3125 59.546875 192.613281 57.503906 191.464844 Z M 46.238281 189.714844 C 46.457031 188.9375 50.035156 189.773438 50.382812 190.398438 C 50.585938 190.78125 50.15625 191.054688 49.269531 190.925781 C 47.929688 190.746094 46.023438 190.480469 46.238281 189.714844 Z M 41.125 191.703125 C 41.019531 190.6875 43.023438 190.984375 43.339844 191.296875 C 43.90625 191.871094 41.246094 192.769531 41.125 191.703125 Z M 46.839844 193.761719 C 45.828125 194.457031 45.4375 195.414062 45.070312 195.355469 C 44.527344 195.273438 44.097656 194.804688 43.609375 194.578125 C 42.742188 194.195312 41.941406 193.953125 41.855469 193.738281 C 41.6875 193.285156 42.28125 193.667969 42.71875 193.355469 C 44.300781 192.265625 44.996094 191.582031 45.652344 191.75 C 46.324219 191.894531 46.628906 192.195312 47.03125 192.265625 C 47.832031 192.445312 48.359375 192.265625 48.3125 192.445312 C 48.289062 192.578125 47.628906 193.222656 46.839844 193.761719 Z M 52.792969 193.714844 C 52.660156 193.90625 51.804688 194.097656 51.617188 194.625 C 51.414062 195.152344 51.28125 195.65625 51.742188 195.992188 C 52 196.207031 51.628906 196.421875 51.101562 196.554688 C 50.707031 196.648438 48.214844 196.792969 48.164062 196.132812 C 48.113281 195.65625 49.257812 194.398438 50.46875 194.015625 C 50.816406 193.761719 51.085938 193.082031 51.425781 192.960938 C 52 192.722656 52.910156 193.570312 52.792969 193.714844 Z M 131.054688 108.578125 L 156.027344 126.0625 L 156.027344 118.3125 L 131.054688 100.828125 Z M 126.015625 48.46875 C 83.191406 48.539062 48.539062 83.175781 48.457031 126.015625 C 48.539062 168.839844 83.191406 203.488281 126.015625 203.558594 C 168.847656 203.488281 203.488281 168.839844 203.570312 126.015625 C 203.488281 83.175781 168.847656 48.539062 126.015625 48.46875 Z M 175.03125 119.785156 L 175.019531 119.785156 C 175.042969 119.785156 175.042969 119.796875 175.066406 119.796875 C 177.246094 121.34375 177.773438 124.371094 176.253906 126.566406 C 174.703125 128.746094 171.695312 129.285156 169.492188 127.75 C 169.480469 127.738281 169.480469 127.726562 169.457031 127.726562 L 166.109375 125.367188 L 166.109375 133.117188 L 175.03125 139.367188 L 175.019531 139.367188 C 175.042969 139.378906 175.042969 139.390625 175.066406 139.390625 C 177.246094 140.914062 177.773438 143.929688 176.253906 146.132812 C 174.703125 148.324219 171.695312 148.851562 169.492188 147.320312 C 169.480469 147.320312 169.480469 147.320312 169.457031 147.308594 L 166.109375 144.949219 L 166.109375 152.683594 L 175.03125 158.9375 L 175.019531 158.949219 C 175.042969 158.949219 175.042969 158.949219 175.066406 158.960938 C 177.246094 160.492188 177.773438 163.511719 176.253906 165.703125 C 174.703125 167.90625 171.695312 168.445312 169.492188 166.914062 C 169.480469 166.902344 169.480469 166.886719 169.457031 166.875 L 131.054688 139.988281 L 131.054688 147.59375 L 170.15625 174.984375 C 170.167969 174.984375 170.1875 174.996094 170.199219 174.996094 C 172.375 176.53125 172.910156 179.546875 171.378906 181.738281 C 169.847656 183.929688 166.828125 184.46875 164.625 182.9375 C 164.625 182.9375 164.613281 182.925781 164.613281 182.914062 L 131.054688 159.414062 L 131.054688 185.609375 C 131.054688 185.621094 131.054688 185.632812 131.054688 185.644531 C 131.054688 188.421875 128.804688 190.6875 126.011719 190.6875 C 123.234375 190.6875 120.972656 188.421875 120.972656 185.644531 C 120.972656 185.632812 120.972656 185.621094 120.972656 185.609375 L 120.972656 159.414062 L 87.414062 182.914062 C 87.414062 182.925781 87.414062 182.9375 87.402344 182.9375 C 85.199219 184.46875 82.191406 183.929688 80.648438 181.738281 C 79.125 179.546875 79.652344 176.53125 81.855469 174.996094 C 81.855469 174.996094 81.867188 174.984375 81.894531 174.984375 L 120.972656 147.59375 L 120.972656 139.988281 L 82.558594 166.875 L 82.546875 166.875 C 82.535156 166.886719 82.535156 166.902344 82.519531 166.914062 C 80.328125 168.445312 77.324219 167.90625 75.773438 165.703125 C 74.253906 163.511719 74.777344 160.492188 76.96875 158.960938 C 76.96875 158.949219 76.996094 158.949219 76.996094 158.949219 L 76.996094 158.9375 L 85.917969 152.683594 L 85.917969 144.949219 L 82.558594 147.308594 L 82.546875 147.308594 C 82.53125 147.320312 82.53125 147.320312 82.519531 147.320312 C 80.328125 148.851562 77.324219 148.324219 75.773438 146.132812 C 74.253906 143.929688 74.777344 140.914062 76.96875 139.390625 C 76.96875 139.390625 76.992188 139.378906 76.992188 139.367188 L 85.917969 133.117188 L 85.917969 125.367188 L 82.558594 127.726562 L 82.546875 127.726562 C 82.546875 127.726562 82.53125 127.738281 82.519531 127.75 C 80.328125 129.285156 77.324219 128.746094 75.773438 126.566406 C 74.25 124.371094 74.777344 121.34375 76.96875 119.796875 L 76.992188 119.785156 L 120.96875 88.996094 L 120.96875 81.246094 L 82.558594 108.144531 L 82.546875 108.144531 C 82.546875 108.144531 82.53125 108.15625 82.519531 108.167969 C 80.328125 109.703125 77.324219 109.175781 75.773438 106.972656 C 74.25 104.792969 74.777344 101.773438 76.96875 100.242188 C 76.96875 100.230469 76.992188 100.230469 76.992188 100.203125 L 85.917969 93.964844 L 85.917969 82.457031 C 85.917969 82.445312 85.917969 82.433594 85.917969 82.421875 C 85.917969 79.640625 88.179688 77.378906 90.96875 77.378906 C 93.75 77.378906 96 79.640625 96 82.421875 C 96 82.433594 96 82.445312 96 82.457031 L 96 86.898438 L 120.96875 69.414062 L 120.96875 58.585938 C 120.96875 58.585938 120.96875 58.5625 120.96875 58.550781 C 120.96875 55.761719 123.234375 53.523438 126.011719 53.523438 C 128.804688 53.523438 131.054688 55.761719 131.054688 58.550781 C 131.054688 58.5625 131.054688 58.585938 131.054688 58.585938 L 131.054688 69.414062 L 156.023438 86.898438 L 156.023438 82.457031 C 156.023438 82.445312 156.023438 82.433594 156.023438 82.421875 C 156.023438 79.640625 158.277344 77.378906 161.066406 77.378906 C 163.859375 77.378906 166.109375 79.640625 166.109375 82.421875 C 166.109375 82.433594 166.109375 82.445312 166.109375 82.457031 L 166.109375 93.964844 L 175.03125 100.203125 L 175.019531 100.203125 C 175.042969 100.230469 175.042969 100.230469 175.066406 100.242188 C 177.246094 101.773438 177.773438 104.792969 176.253906 106.972656 C 174.703125 109.175781 171.695312 109.703125 169.492188 108.167969 C 169.480469 108.15625 169.480469 108.144531 169.457031 108.144531 L 131.054688 81.246094 L 131.054688 88.996094 Z M 96 145.644531 L 120.972656 128.15625 L 120.972656 120.398438 L 96 137.882812 Z M 96 126.0625 L 120.972656 108.578125 L 120.972656 100.828125 L 96 118.3125 Z M 131.054688 128.15625 L 156.027344 145.644531 L 156.027344 137.882812 L 131.054688 120.398438 Z M 126.015625 0 C 56.417969 0.121094 0.121094 56.421875 0 126.015625 C 0.121094 195.621094 56.417969 251.90625 126.015625 252.027344 C 195.605469 251.90625 251.894531 195.621094 252.027344 126.015625 C 251.894531 56.421875 195.605469 0.121094 126.015625 0 Z M 126.015625 247.1875 C 59.085938 247.058594 4.964844 192.9375 4.84375 126.015625 C 4.964844 59.089844 59.085938 4.957031 126.015625 4.839844 C 192.941406 4.957031 247.0625 59.089844 247.171875 126.015625 C 247.0625 192.9375 192.941406 247.058594 126.015625 247.1875 Z M 211.3125 126.015625 C 211.230469 78.886719 173.121094 40.777344 126.015625 40.707031 C 78.894531 40.777344 40.785156 78.886719 40.714844 126.015625 C 40.785156 173.128906 78.894531 211.222656 126.015625 211.308594 C 173.121094 211.222656 211.230469 173.128906 211.3125 126.015625 Z M 126.015625 208.398438 C 80.515625 208.316406 43.707031 171.523438 43.613281 126.015625 C 43.707031 80.515625 80.515625 43.6875 126.015625 43.617188 C 171.511719 43.6875 208.332031 80.515625 208.414062 126.015625 C 208.332031 171.523438 171.511719 208.316406 126.015625 208.398438 Z M 126.015625 208.398438 "/>
</g>
</svg>
