<?xml version="1.0" encoding="UTF-8" standalone="no"?>
<!-- Created with Inkscape (http://www.inkscape.org/) -->

<svg
   xmlns:dc="http://purl.org/dc/elements/1.1/"
   xmlns:cc="http://creativecommons.org/ns#"
   xmlns:rdf="http://www.w3.org/1999/02/22-rdf-syntax-ns#"
   xmlns:svg="http://www.w3.org/2000/svg"
   xmlns="http://www.w3.org/2000/svg"
   xmlns:sodipodi="http://sodipodi.sourceforge.net/DTD/sodipodi-0.dtd"
   xmlns:inkscape="http://www.inkscape.org/namespaces/inkscape"
   width="300"
   height="300"
   viewBox="0 0 79.374998 79.375002"
   version="1.1"
   id="svg1246"
   inkscape:version="0.92.3 (2405546, 2018-03-11)"
   sodipodi:docname="ECUST New Logo.svg">
  <defs
     id="defs1240" />
  <sodipodi:namedview
     id="base"
     pagecolor="#ffffff"
     bordercolor="#666666"
     borderopacity="1.0"
     inkscape:pageopacity="0.0"
     inkscape:pageshadow="2"
     inkscape:zoom="0.82"
     inkscape:cx="-163.51736"
     inkscape:cy="217.14286"
     inkscape:document-units="mm"
     inkscape:current-layer="svg1246"
     showgrid="false"
     units="px"
     inkscape:window-width="1360"
     inkscape:window-height="705"
     inkscape:window-x="-8"
     inkscape:window-y="-8"
     inkscape:window-maximized="1" />
  <metadata
     id="metadata1243">
    <rdf:RDF>
      <cc:Work
         rdf:about="">
        <dc:format>image/svg+xml</dc:format>
        <dc:type
           rdf:resource="http://purl.org/dc/dcmitype/StillImage" />
        <dc:title></dc:title>
      </cc:Work>
    </rdf:RDF>
  </metadata>
  <g
     inkscape:label="Layer 1"
     inkscape:groupmode="layer"
     id="layer1"
     transform="matrix(1.0444646,0,0,1.0316833,-4.5131136,-222.58414)">
    <path
       inkscape:connector-curvature="0"
       d="m 63.64142,233.83847 c -0.07304,-0.14184 -0.108396,-0.28124 -0.08828,-0.37893 0.04767,-0.23141 0.294345,-0.33346 0.435388,-0.46303 0.06913,-0.0211 0.125883,-0.0596 0.169586,-0.0492 0.156395,0.037 0.205571,0.27938 0.390098,0.48063 0.134858,0.0516 0.270428,0.10292 0.405314,0.15456 0.203354,-0.0463 0.416287,-0.0833 0.619341,-0.11127 0.198401,-0.1472 0.273985,-0.19889 0.421377,-0.21115 0.178534,-0.11171 0.368945,-0.28655 0.438919,-0.42141 -0.131903,-0.33531 -0.45449,-0.51429 -0.669502,-0.63376 -0.349871,-0.3808 -0.662005,-0.58684 -0.989901,-0.86643 -0.17826,-0.32812 0.171501,-0.5789 0.286301,-0.6844 0.347407,0.0148 0.50528,-0.0433 0.74276,0.40734 0.298423,0.32432 0.714464,0.66261 1.075144,1.01703 0.182557,0.008 0.273384,-0.18078 0.294565,-0.23549 0.09573,-0.10568 0.182502,-0.20275 0.277899,-0.29078 -0.113376,-0.12337 -0.228066,-0.24772 -0.351759,-0.36296 -0.390865,-0.0626 -0.394805,-0.62134 -0.389524,-0.74903 0.417054,-0.75248 0.802774,-0.12216 1.233839,0.30858 0.17722,0.13552 0.448442,0.2386 0.67908,0.41366 0.04811,0.14832 0.09687,0.29667 0.154452,0.4554 -0.07041,0.36352 -0.229462,0.65067 -0.699276,0.71263 -0.171912,0.15809 -0.358245,0.242 -0.301352,0.62941 0.122353,0.13295 0.253954,0.27632 0.375951,0.42787 -0.02143,0.0725 -0.04329,0.14498 -0.05607,0.22694 -0.304498,0.28017 -0.841441,-0.0356 -1.17065,-0.0496 -0.112966,0.0687 -0.225631,0.13729 -0.348831,0.21427 -0.411334,0.20292 -0.992281,0.2793 -1.45115,0.50709 -0.364456,-0.0339 -0.721661,-0.0582 -1.07758,-0.082 -0.178671,-0.11816 -0.299928,-0.27013 -0.406134,-0.36599 z m 1.055824,-5.22474 c -0.153577,-0.37176 -0.124022,-0.53738 0.07638,-0.72155 0.150648,-0.10402 0.29243,-0.19838 0.443023,-0.2839 0.282633,-0.18983 0.603907,-0.41437 0.891001,-0.27376 0.197635,-0.1107 0.491981,0.0756 0.686688,0.24908 0.07405,-0.0153 0.146817,-0.0122 0.219336,-0.009 0.191697,-0.17509 0.271222,-0.31843 0.292211,-0.39123 0.124432,-0.13217 0.249658,-0.26391 0.373323,-0.37819 0.207022,-0.1197 0.422199,-0.22927 0.628618,-0.33083 0.09414,-0.0689 0.1978,-0.12884 0.30116,-0.18858 0.409911,-0.37691 0.467927,-0.23739 0.878686,-0.4029 0.05454,0.002 0.480597,0.33145 0.508729,0.53445 -0.115374,0.12364 -0.221252,0.25639 -0.328663,0.38961 -0.19457,0.0559 -0.390508,0.13051 -0.585708,0.20467 -0.01937,0.0351 -0.0393,0.0717 -0.06918,0.1157 0.293033,0.0125 0.542827,-0.0407 0.845738,-0.0559 0.326692,-0.14162 0.637348,-0.32125 0.934266,-0.20785 0.167259,0.18094 0.3103,0.24246 0.130534,0.602 -0.112227,0.0496 -0.215231,0.10921 -0.31881,0.16928 -0.183296,-0.008 -0.418313,0.1385 -0.619314,0.13012 -0.215861,0.10974 -0.379398,0.0841 -0.440479,0.43931 0.118986,-0.004 0.238547,-0.008 0.357123,0.006 0.05446,0.0201 0.10804,0.0404 0.152837,0.0702 -0.06705,0.0613 -0.133873,0.12276 -0.200946,0.20182 -0.184828,0.0298 -0.36993,0.0763 -0.554949,0.12337 -0.122681,0.0776 -0.38375,0.17659 -0.595123,0.19504 -0.141754,0.1128 -0.284439,0.22617 -0.42696,0.33947 -0.08306,0.10667 -0.04991,0.23816 0.136309,0.35354 0.01158,0.007 0.04759,0.0353 0.06185,0.038 0.02159,0.004 0.05659,0.0162 0.09655,-0.008 0.03735,-0.0223 0.068,-0.0945 0.126566,-0.13587 0.05856,-0.0414 0.212796,-0.19581 0.273876,-0.2191 0.0448,-0.0171 0.09137,-0.0336 0.118685,-0.0397 0.02772,-0.006 0.09285,-0.0112 0.119999,-0.0197 0.06491,-0.0202 0.08593,-0.0314 0.128564,-0.0409 0.205873,-0.0459 0.350473,-0.0588 0.557577,-0.0986 0.0304,-0.018 0.09291,-0.0351 0.112774,-0.0613 0.04896,-0.0649 0.09181,-0.10768 0.153139,-0.15248 0.04354,-0.0318 0.116851,-0.0828 0.125827,-0.14474 0.01973,-0.13636 0.03801,-0.26452 0.06242,-0.39141 0.393547,-0.43266 0.564692,-0.57228 1.0995,-0.64146 0.281566,0.0578 0.594192,0.0345 0.797328,0.42781 -0.02304,0.10875 -0.129112,0.24208 -0.257813,0.46599 -0.167396,0.0483 -0.334053,0.0956 -0.492665,0.15327 -0.10128,0.0229 -0.367029,0.0216 -0.415001,0.27585 -0.0093,0.0574 0.103908,0.0576 0.132697,0.0777 0.01341,0.009 0.03248,1.6e-4 0.0422,-0.002 0.08341,-0.0153 0.123775,-0.0711 0.170625,-0.0821 0.171419,-0.0398 0.294291,-0.0121 0.467707,0.0177 0.387061,-0.057 0.665672,0.14214 1.000436,0.45012 0.0356,0.0378 0.112391,0.16031 0.107082,0.28797 -0.0613,0.1443 -0.113731,0.29828 -0.175113,0.46007 -0.193092,0.21261 -0.376196,0.4335 -0.559465,0.65536 -0.0868,0.0967 -0.230611,0.35255 -0.488833,0.39623 -0.122763,0.0772 -0.269334,0.17615 -0.401155,0.26255 -0.262382,0.0962 -0.503447,0.10459 -0.705242,0.0961 -0.06018,0.0308 -0.09042,-0.009 -0.124048,0.0117 -0.0356,0.022 -0.04012,0.0405 0.0039,0.12216 0.07931,0.1472 0.334901,0.38457 0.446088,0.50553 0.311313,0.22393 0.411663,0.23709 0.226725,0.70631 -0.114142,0.10475 -0.488916,0.50202 -0.728311,0.5278 -0.05282,-0.0383 -0.10752,-0.0595 -0.161841,-0.0797 -0.192436,-0.20993 -0.184719,-0.39341 -0.180723,-0.48451 0.0581,-0.071 0.11614,-0.1419 0.174128,-0.21288 -0.0957,-0.12282 -0.182639,-0.2365 -0.279076,-0.34153 -0.06825,-0.11272 -0.136965,-0.22549 -0.215231,-0.33019 -0.794701,-0.48271 -1.366398,-1.27637 -1.900331,-1.87673 -0.299189,-0.28734 -0.584723,-0.60932 -0.874964,-0.88761 -0.141946,-0.10437 -0.323764,-0.22046 -0.427206,-0.2794 -0.303158,-0.17268 -0.550489,-0.19457 -0.790541,-0.12542 -0.142356,0.041 -0.43205,0.14802 -0.497481,0.1379 -0.231679,-0.0403 -0.620327,-0.23688 -0.647008,-0.30133 z m 2.789333,-0.27672 c 0.0045,-0.11001 0.164058,-0.20352 0.173526,-0.21261 0.04559,-0.007 0.101034,-0.005 0.156122,-0.002 0.186579,-0.0838 0.340976,-0.2609 0.492145,-0.36432 0.08308,-0.0245 0.175605,-0.0389 0.267472,-0.0525 -0.08212,0.21625 -0.187263,0.31276 -0.468309,0.4476 -0.132286,0.1039 -0.265338,0.20858 -0.398308,0.33071 -0.07104,-0.0573 -0.151114,-0.10672 -0.222648,-0.14635 z m 1.628616,1.65662 c -0.02291,-0.0319 -0.03259,-0.0691 -0.02816,-0.12153 0.0019,-0.0237 0.0059,-0.0565 0.02589,-0.0793 0.15842,-0.14509 0.350363,-0.30283 0.509413,-0.43284 0.01344,-0.011 0.02507,-0.0248 0.04034,-0.0328 0.01076,-0.006 0.02999,-0.019 0.04195,-0.0214 0.05213,-0.0106 0.09874,-0.007 0.151196,-0.0187 0.0092,-0.002 0.0191,-0.01 0.02778,-0.006 0.01212,0.005 0.01779,0.0194 0.02652,0.0293 0.02638,0.0297 0.05243,0.0614 0.07857,0.1041 -0.04803,0.12468 -0.08109,0.23701 -0.1284,0.37748 -0.004,0.0118 -0.0027,0.0373 -0.01897,0.0561 -0.01429,0.0165 -0.03776,0.0255 -0.05396,0.0332 -0.131465,0.0628 -0.259044,0.11611 -0.397022,0.18521 -0.01163,0.006 -0.03087,0.0225 -0.04351,0.026 -0.0228,0.006 -0.04097,-9.1e-4 -0.05815,-0.007 -0.0657,-0.0215 -0.150155,-0.0694 -0.173471,-0.0924 z m 0.542991,0.50104 c -0.02994,-0.0412 -0.03538,-0.11012 -0.01694,-0.13248 0.06828,0.0153 0.140633,-0.012 0.364348,-0.1119 0.04332,-0.0195 0.06409,-0.0308 0.09827,-0.0636 0.02348,-0.0227 0.04614,-0.0455 0.06809,-0.0683 0.289912,-0.30215 0.452465,-0.61327 0.78619,-0.74663 0.04939,-0.0198 0.124897,-0.0155 0.18335,-0.0281 0.06382,0.0157 0.12632,0.0313 0.183159,0.0607 0.02241,0.0116 0.04753,0.0429 0.06439,0.0421 0.212221,-0.023 0.364813,0.0195 0.510727,0.0961 0.130726,0.0687 0.128701,0.16523 0.196951,0.29087 -0.007,0.16433 -0.11313,0.29774 -0.313611,0.48133 -0.02638,-0.0279 -0.06223,-0.0479 -0.08875,-0.0584 0.0124,-0.29254 -0.02778,-0.22087 -0.176591,-0.38329 -0.540254,-0.12577 -0.491379,-0.15155 -0.848994,0.0813 -0.02468,0.0161 -0.09824,0.10662 -0.128428,0.13762 -0.07189,0.0737 -0.158393,0.11321 -0.203957,0.14162 -0.163044,0.1348 -0.282277,0.20319 -0.358135,0.38175 -0.01801,0.0424 -0.05878,0.0586 -0.145996,0.0224 -0.05328,-0.0393 -0.126566,-0.11239 -0.174073,-0.14309 z m 1.100239,0.43802 c -0.04491,-0.0464 0.01664,-0.0987 0.05782,-0.12425 0.116907,-0.0723 0.185732,-0.16334 0.287997,-0.25688 0.02069,-0.0189 0.122489,0.004 0.143397,-0.0155 0.03432,0.0383 0.05632,0.0613 0.09113,0.0996 0.0654,0.0703 -0.359394,0.36728 -0.404355,0.36101 -0.04778,-0.0157 -0.05301,-0.0613 -0.08897,-0.0811 -0.0263,-0.0107 -0.06579,0.0221 -0.08702,0.0171 z m -42.121044,-2.58736 c -0.08409,0.009 -0.185841,-0.002 -0.248125,-0.0331 -0.159187,-0.08 -0.253215,-0.25683 -0.311559,-0.35196 -0.308494,-0.50251 -0.522822,-1.00514 -0.798505,-1.39647 -0.03924,-0.0558 -0.132094,-0.0458 -0.139346,-0.0367 -0.133517,0.16129 -0.262464,0.32026 -0.352908,0.51543 -0.100925,0.21578 -0.178288,0.49083 -0.25026,0.74197 -0.05364,0.18729 -0.165042,0.29487 -0.196896,0.48126 -0.03752,0.21591 -0.04712,0.463 -0.167916,0.62815 -0.08497,0.11622 -0.148979,0.27131 -0.27664,0.31575 -0.04838,0.0171 -0.114608,0.047 -0.14876,0.0458 -0.134339,-0.005 -0.175989,-0.14731 -0.180778,-0.2956 -0.05654,-0.71551 0.149581,-1.33562 0.339937,-2.00233 0.05528,-0.19085 0.06628,-0.37423 0.138936,-0.54781 0.07862,-0.19014 0.20724,-0.73965 0.09931,-0.89446 -0.02553,-0.0371 -0.0873,-0.0377 -0.107821,-0.0715 -0.20237,-0.34615 -0.02698,-0.35753 -5.47e-4,-0.70209 0.01902,-0.25147 -0.05211,-0.30757 -0.183761,-0.38447 -0.408434,-0.23898 -0.37803,-0.70302 -0.411471,-0.99951 -0.007,-0.0624 -0.04313,-0.11701 -0.08921,-0.13726 -0.04726,-0.0215 -0.105604,0.0118 -0.13026,0.0379 -0.145942,0.15645 -0.421405,0.31824 -0.528624,0.54551 -0.04264,0.0905 -0.09496,0.12775 -0.109025,0.18801 -0.01327,0.0567 -0.02906,0.13305 -0.0039,0.19586 0.02124,0.0824 0.07709,0.11865 0.122926,0.1779 0.102102,0.11953 0.421159,0.38268 0.583574,0.66844 0.06858,0.1206 0.126786,0.20226 0.09712,0.32683 -0.0094,0.0694 -0.02879,0.18152 -0.07662,0.22954 -0.101663,0.10213 -0.220567,0.22982 -0.368506,0.2296 -0.166931,-3.5e-4 -0.301051,-0.16105 -0.456789,-0.23102 -0.06472,-0.0288 -0.126649,-0.0209 -0.167369,-0.0551 -0.272699,-0.23261 -0.461687,-0.41137 -0.606835,-0.60449 -0.06061,-0.0813 -0.08472,-0.18819 -0.149225,-0.24804 -0.21649,-0.19745 -0.502872,-0.84271 -0.588445,-1.07764 -0.0422,-0.10013 -0.02687,-0.25065 -0.02997,-0.30631 -0.05574,-0.33238 0.119533,-0.58814 0.130069,-0.91744 -0.0037,-0.03 -0.04901,-0.1096 -0.116961,-0.0907 -0.152728,0.0426 -0.345547,0.0656 -0.388812,0.0311 -0.186224,-0.14728 -0.30573,-0.11732 -0.314761,-0.44442 -0.0047,-0.16931 0.123419,-0.37653 0.242652,-0.58719 0.159186,-0.28006 0.414974,-0.32007 0.740325,-0.50309 0.200508,-0.11286 0.42072,-0.19983 0.587733,-0.35551 0.05104,-0.0473 0.04469,-0.1472 0.02742,-0.22468 -0.04803,-0.22056 -0.03927,-0.28181 -0.09118,-0.41694 -0.148623,-0.38463 -0.171747,-0.62534 0.2114,-0.74079 0.114772,-0.0349 0.265886,0.0257 0.373652,0.10516 0.09624,0.0713 0.150566,0.0984 0.202096,0.1671 0.05596,0.0746 0.08048,0.12777 0.171774,0.16255 0.06855,0.0262 0.202233,-0.0231 0.331947,-0.0878 0.05331,-0.0265 0.220978,-0.0909 0.298833,-0.18852 0.08344,-0.12408 0.235592,-0.18119 0.389825,-0.21515 0.101828,-0.0226 0.227655,-0.004 0.337474,0.0392 0.177439,0.0698 0.54923,0.25445 0.40961,0.62069 -0.0813,0.21228 -0.181517,0.42551 -0.334163,0.59159 -0.146844,0.1599 -0.239559,0.21912 -0.32661,0.3071 -0.08412,0.0854 -0.234578,0.098 -0.303622,0.19706 -0.07769,0.10985 -0.148076,0.16921 -0.105714,0.30582 0.0385,0.12416 0.109901,0.19492 0.234716,0.2907 0.04753,0.0315 0.09989,-0.006 0.142411,-0.0397 0.03139,-0.025 0.179054,-0.14225 0.186306,-0.15076 0.179847,-0.14613 0.348666,-0.20836 0.477723,-0.29681 0.199578,-0.1368 0.191122,-0.17194 0.396229,-0.25278 0.107301,-0.0423 0.179738,-0.0426 0.281483,-0.0455 0.275847,-0.009 0.452602,-0.0596 0.759043,0.18039 0.153741,0.11995 0.28682,0.28406 0.370806,0.45879 0.124377,0.25705 0.188221,0.56932 0.240189,0.85551 0.03117,0.16852 0.01568,0.35113 0.01513,0.52613 -0.0011,0.24819 -0.0483,0.41701 -0.120601,0.62953 -0.02589,0.0761 -0.06581,0.20073 -0.09315,0.27779 -0.01792,0.0505 -0.107766,0.18685 -0.127497,0.2366 -0.02208,0.0556 0.0011,0.13095 -0.06007,0.2567 -0.04844,0.0996 -0.0862,0.11589 -0.170133,0.21161 -0.142384,0.16259 -0.346094,0.28699 -0.421487,0.39604 -0.08669,0.12545 -0.02433,0.14759 0.06765,0.26542 0.06464,0.0827 0.242433,0.088 0.436128,0.14803 0.164906,0.0508 0.549038,0.10574 0.801159,0.0745 0.23332,-0.0289 0.577936,-0.12819 0.840264,-0.21201 0.187838,-0.0601 0.150566,-0.10798 0.390427,-0.19364 0.215094,-0.0768 0.355891,-0.10683 0.498029,-0.12421 0.182857,-0.0224 0.330003,0.0557 0.523451,0.40767 0.05813,0.16958 -0.03363,0.26643 -0.154945,0.4451 -0.06902,0.14028 -0.142055,0.25921 -0.259673,0.35357 -0.182858,0.18595 -0.383093,0.27505 -0.682118,0.34259 -0.168983,0.0382 -0.404164,0.10366 -0.57977,0.12274 -0.19914,0.0217 -0.532099,0.0374 -0.688823,0.0318 -0.170488,-0.021 -0.394449,-0.0413 -0.481937,-0.0444 -0.068,-0.002 -0.149144,-0.0333 -0.171091,0.0177 -0.01697,0.0772 0.05974,0.20817 0.109737,0.29553 0.110256,0.19276 0.339061,0.48068 0.446636,0.73359 0.13182,0.30924 0.430982,0.72459 0.168545,0.97425 -0.03714,0.0472 -0.08768,0.11352 -0.149554,0.12014 z m -1.571559,-4.4799 c -0.03109,0.008 -0.06691,-0.0266 -0.08976,-0.0565 -0.04365,-0.0571 -0.06001,-0.0924 -0.05911,-0.15057 0.0022,-0.12979 0.07742,-0.14832 0.170872,-0.35589 -0.008,-0.28017 -0.04608,-0.32084 -0.158858,-0.42633 -0.105796,-0.099 -0.205298,-0.15065 -0.367166,-0.16756 -0.07709,0.0329 -0.20631,0.0144 -0.277707,0.009 -0.09608,-0.0839 -0.175551,-0.19414 -0.15188,-0.30108 0.02367,-0.10689 0.150703,-0.21091 0.235975,-0.29706 0.181516,-0.18341 0.475643,-0.33799 0.593617,-0.41952 0.218077,-0.11132 0.456487,-0.16313 0.620435,0.0117 0.04485,0.0479 0.101664,0.10635 0.139867,0.18292 0.0952,0.24437 0.16652,0.54811 0.198155,0.75026 0.01327,0.23934 -0.08609,0.48815 -0.146352,0.58708 -0.04458,0.0732 -0.15125,0.0593 -0.178479,0.14077 -0.170297,0.17374 -0.277817,0.22401 -0.417355,0.34264 -0.05052,0.0429 -0.04543,0.0864 -0.112254,0.15002 z m -2.679132,-1.40165 c -0.126566,0.0255 -0.284877,0.12668 -0.465408,0.13067 -0.129577,-0.15409 -0.08251,-0.31249 -0.0019,-0.43372 0.135105,-0.20363 0.07605,-0.27905 0.29949,-0.40184 0.05876,-0.0436 0.207077,-0.0994 0.305375,-0.11263 0.154616,0.0717 0.333642,0.36079 0.285369,0.50358 -0.01423,0.042 -0.03522,0.0701 -0.06439,0.10659 -0.09624,0.0488 -0.278665,0.15232 -0.358409,0.20735 z m 14.685733,1.90258 c -0.135762,0.0269 -0.278611,5.8e-4 -0.397077,-0.0294 -0.127935,-0.0316 -0.2461,-0.0858 -0.328772,-0.16386 -0.321492,-0.30614 -0.206529,-0.56738 -0.210689,-0.92874 -0.0027,-0.3048 -0.231322,-0.33915 -0.356575,-0.37379 -0.01809,-0.005 -0.0083,-0.033 -0.02072,-0.0366 -0.551556,-0.15735 -0.774285,-0.44165 -0.70111,-0.81829 0.142193,-0.73048 0.721251,-0.68037 1.411908,-0.96662 0.126046,-0.052 0.258168,-0.12941 0.342919,-0.24314 0.03957,-0.0528 0.02997,-0.16989 -0.02271,-0.18431 -0.335093,-0.0916 -0.494088,0.0837 -0.715368,-0.007 -0.195911,-0.0791 -0.213315,-0.3172 -0.288133,-0.45928 -0.01987,-0.0378 -0.04483,-0.12112 -0.07734,-0.14052 -0.01292,-0.008 -0.01393,-5.8e-4 -0.02389,0.004 -0.0078,0.004 -0.02244,0.0332 -0.02756,0.0433 -0.0283,0.0558 -0.06841,0.20839 -0.131821,0.22985 -0.413852,0.13989 -0.641617,-0.3016 -0.769633,-0.48046 -0.135871,-0.19154 -0.240025,-0.40543 -0.325215,-0.62351 -0.135077,-0.34658 -0.239532,-0.70644 -0.317004,-1.05591 -0.04874,-0.22015 -0.06278,-0.43544 -0.06078,-0.64805 0.0011,-0.11307 0.07868,-0.20486 0.07287,-0.31169 -0.04231,-0.82235 0.13817,-0.87919 1.000382,-0.93841 0.08303,-0.006 0.166,0.0377 0.261589,0.0289 0.17109,-0.0169 0.625005,-0.12251 0.902658,-0.13822 0.318947,-0.0185 0.611268,-0.24906 0.9416,-0.28113 0.21244,-0.0206 0.547123,-0.19271 0.899511,-0.016 0.111597,0.0555 0.253954,0.0493 0.36276,0.1301 0.199934,0.14917 0.30469,0.61923 0.244266,1.03057 -0.0347,0.23521 0.130398,0.52534 0.104401,0.86785 -0.01193,0.15845 0.06789,0.34303 0.0019,0.55279 -0.0252,0.0793 0.01957,0.17281 -0.01615,0.25896 -0.114963,0.27746 -0.250916,0.42803 -0.359202,0.70486 -0.04351,0.10996 -0.217421,0.13273 -0.275381,0.24249 -0.111324,0.21261 -0.25483,0.24939 -0.349734,0.31668 -0.101089,0.0716 -0.217968,0.0764 -0.171583,0.4002 0.0099,0.0803 0.0315,0.16326 0.0454,0.21526 0.01256,0.0469 0.04753,0.1912 0.09515,0.22686 0.138881,0.10407 0.469869,0.0464 0.634392,0.39527 0.09545,0.20319 0.07843,0.58697 0.03481,0.85527 -0.04803,0.29161 -0.47838,0.35334 -0.09477,0.67919 0.134968,0.11474 0.250779,0.13207 0.250041,0.44926 1.64e-4,0.11231 -0.05473,0.20429 -0.122216,0.40141 -0.03122,0.0904 -0.09085,0.17538 -0.171391,0.22275 -0.280006,0.1631 -0.544989,0.26764 -0.682885,0.36413 -0.174593,0.12238 -0.390153,0.18532 -0.588882,0.22448 z m -4.271762,-0.40786 c -0.159378,-0.003 -0.164058,0.0108 -0.282442,0.002 -0.679326,-0.0502 -1.030511,-0.39834 -0.975725,-0.97967 0.01951,-0.20535 0.09469,-0.47772 0.141481,-0.64772 0.04187,-0.15338 0.186908,-0.26241 0.241941,-0.41191 0.01842,-0.0498 -0.0041,-0.0963 -0.02567,-0.12947 -0.02025,-0.0317 -0.0616,-0.0426 -0.09022,-0.0497 -0.155383,-0.0373 -0.33731,0.001 -0.448552,-0.0865 -0.195473,-0.15336 -0.198894,-0.26592 -0.255897,-0.33959 -0.399375,-0.51505 -0.455803,-0.68669 -0.342208,-1.25354 0.0708,-0.35598 0.406627,-0.37141 0.659651,-0.61571 0.268676,-0.25951 0.759316,-0.20352 0.920884,-0.51902 0.03043,-0.0592 0.0029,-0.12232 -0.02006,-0.1715 -0.02857,-0.0594 -0.07145,-0.12643 -0.119206,-0.12506 -0.211208,0.007 -0.404219,0.15859 -0.61748,0.14977 -0.184089,-0.008 -0.368205,-0.0106 -0.538776,-0.069 -0.485878,-0.16548 -0.536669,-0.28972 -0.545645,-0.64695 -0.01106,-0.43011 0.06349,-0.40562 0.433747,-0.53057 0.814075,-0.27382 1.686522,-0.42105 2.554754,-0.50487 0.112801,-0.0111 0.158502,0.10908 0.255787,0.33983 0.05667,0.13425 0.149828,0.4315 -0.0014,0.60686 -0.366974,0.42614 -0.334984,0.26912 -0.177604,0.93838 0.01596,0.0693 0.154972,0.16988 0.203875,0.41804 0.05922,0.29891 0.158831,0.60163 0.127634,0.91768 -0.01623,0.16715 -0.03952,0.32169 -0.143479,0.49989 -0.133572,0.22851 -0.36276,0.37418 -0.504158,0.58522 -0.0691,0.10369 -0.166986,0.30105 -0.255268,0.41446 -0.0743,0.0965 -0.138854,0.20045 -0.15333,0.31339 -0.02871,0.22632 -0.137048,0.82218 0.362158,0.53481 0.170215,-0.0984 0.201904,-0.33728 0.304225,-0.50504 0.0095,-0.0159 0.06272,2.2e-4 0.06237,-0.0257 -0.0022,-0.14589 0.124952,-0.35332 0.272946,-0.3233 0.02895,0.005 0.06311,0.0308 0.08007,0.0642 0.02999,0.0597 0.07794,0.14086 0.05706,0.21852 -0.06264,0.22667 -0.03995,0.62249 -0.108669,0.8834 -0.07375,0.28164 -0.541732,0.56179 -0.706473,0.78695 -0.09816,0.1341 -0.273001,0.26354 -0.366263,0.26118 z m 3.679184,-1.36109 c -0.383804,-0.009 -0.72853,-0.07 -0.642492,-0.3858 0.09712,-0.35447 0.324174,-0.27796 0.675085,-0.40266 0.07849,-0.0286 0.27913,-0.25626 0.484729,-0.13629 0.06149,0.0356 0.117262,0.11554 0.134831,0.20257 0.02208,0.11017 0.06792,0.27494 -0.02444,0.35515 -0.213945,0.18373 -0.373651,0.37291 -0.627715,0.36703 z m -4.38355,-1.5859 c -0.364156,-0.0492 -0.464233,-0.20478 -0.338925,-0.4855 0.130781,-0.28972 0.275983,-0.33709 0.592413,-0.48063 0.107766,-0.0491 0.150183,-0.22889 0.378687,-0.19676 0.05574,0.008 0.155164,0.21617 0.09537,0.41265 -0.06579,0.21507 -0.150266,0.43082 -0.301735,0.58555 -0.11302,0.11425 -0.279677,0.18483 -0.42581,0.16469 z m 3.650067,-1.20142 c -0.02384,0.005 -0.02529,-0.005 -0.05813,-0.0225 -0.01593,-0.009 -0.03054,-0.0409 -0.0396,-0.0507 -0.0022,-0.002 -0.0041,-0.005 -0.0057,-0.007 -0.173526,-0.24109 -0.349542,-0.48408 -0.44431,-0.74747 -0.116824,-0.32363 -0.173581,-0.66912 -0.197909,-0.99905 -0.0088,-0.11737 0.0124,-0.2638 0.09638,-0.3286 0.238192,-0.18453 0.62632,-0.4031 1.056153,-0.384 0.129495,0.005 0.169038,0.14512 0.162443,0.27751 -0.0019,0.0478 -0.04918,0.0957 -0.096,0.12679 -0.361912,0.24087 -0.762902,0.34032 -0.649334,0.80242 0.02589,0.10577 0.191423,0.54535 0.545782,0.30967 0.05492,-0.0367 0.147365,-0.0572 0.223797,-0.0305 0.11822,0.0585 0.126074,0.24745 0.09835,0.35532 -0.03054,0.11874 -0.141781,0.19914 -0.192818,0.25623 -0.115101,0.12824 -0.290159,0.19651 -0.423704,0.31317 -0.04682,0.038 -0.0385,0.12132 -0.07545,0.12843 z m 1.750995,-0.71616 c -0.07315,0.0226 -0.146543,0.0102 -0.16808,-0.0581 -0.02326,-0.0736 -0.039,-0.11283 -0.04778,-0.18491 -0.0088,-0.0721 -0.02799,-0.20002 -0.01924,-0.25732 0.03013,-0.19603 0.03402,-0.30147 -0.03202,-0.49125 -0.0379,-0.10911 -0.110476,-0.25751 -0.236468,-0.4341 -0.08204,-0.11499 -0.151551,-0.17624 -0.209484,-0.33075 -0.05394,-0.1438 -0.09479,-0.25075 -0.0555,-0.28876 0.229462,-0.22019 0.837665,-0.39776 1.177602,-0.11173 0.151798,0.12815 0.188139,0.38008 0.154507,0.57602 -0.03506,0.20242 0.05323,0.52217 0.04236,0.82716 -0.0063,0.16548 -0.01314,0.34771 -0.120054,0.48235 -0.120327,0.15002 -0.309971,0.21553 -0.485851,0.27136 z m 21.107427,9.7956 c -0.133763,-0.0698 -0.302008,-0.10958 -0.377729,-0.22512 -0.275545,-0.41924 -0.572436,-0.66471 -0.753898,-0.91486 -0.231596,-0.31881 -0.471785,-0.77703 -0.499862,-1.02362 -0.03637,-0.3178 -0.188222,-0.38561 -0.272946,-0.48139 -0.03549,-0.0397 -0.05604,-0.10492 -0.03659,-0.14619 0.256061,-0.54502 0.295933,-0.73642 0.873733,-0.64833 0.08776,0.0137 0.19301,0.0756 0.238629,0.16617 0.135351,0.26892 0.368534,0.82957 0.586475,1.23811 0.290651,0.54592 0.941381,0.94141 1.513926,1.43753 0.1203,0.10434 0.27114,0.19739 0.336708,0.35863 0.03308,0.0828 -0.04132,0.18797 -0.0885,0.2797 -0.02126,0.0397 -0.06872,0.0774 -0.124623,0.0762 -0.210169,-0.003 -0.41273,-0.0991 -0.626785,-0.0994 -0.170844,-3e-5 -0.333971,0.0939 -0.511793,0.0874 -0.100296,-0.004 -0.177686,-0.0638 -0.256746,-0.10486 z m -6.652524,-3.57245 c -0.339062,-0.39344 0.392014,-0.48448 0.638059,-0.6296 0.06612,-0.0385 0.0671,-0.13804 0.125992,-0.16105 0.429532,-0.16871 1.046684,-0.10665 1.491431,-0.28551 0.114225,-0.0455 0.185485,-0.0774 0.3103,-0.1067 0.475206,-0.11231 0.992528,-0.32275 1.400605,-0.60032 0.07523,-0.0518 0.135269,-0.19052 0.07712,-0.25711 -0.14014,-0.1605 -0.408953,-0.15327 -0.556537,-0.28947 -0.07799,-0.0719 -0.09118,-0.12383 -0.0868,-0.18639 0.02025,-0.26717 0.02972,-0.44721 0.116688,-0.63199 0.309068,-0.65875 1.05971,-0.0635 1.608256,0.11524 0.13494,0.0438 0.192846,0.0539 0.31487,-0.0347 0.243691,-0.17626 0.361747,-0.31055 0.546137,-0.47923 0.111844,-0.10268 0.274287,-0.1512 0.374117,-0.25803 0.190849,-0.20268 0.311011,-0.34361 0.484702,-0.46908 0.191478,-0.13894 0.405587,-0.24309 0.605302,-0.34935 0.01628,-0.008 0.048,0.0387 0.06212,0.0175 0.125198,-0.18754 0.457008,-0.0831 0.635241,-0.10741 0.193475,-0.0269 0.366837,-0.118 0.543675,0.0422 0.237069,0.2145 0.125006,0.58735 -0.0651,0.91345 -0.07966,0.13699 -0.200947,0.25937 -0.331317,0.36489 -0.118658,0.0962 -0.24922,0.16754 -0.391084,0.23532 -0.368479,0.17706 -0.742487,0.17777 -1.023587,0.52759 -0.115812,0.14421 0.25171,0.30209 0.51037,0.35069 0.185403,0.0347 0.39196,-2.7e-4 0.57126,0.0988 0.266542,0.14734 0.465737,0.6365 0.124952,0.95542 -0.181791,0.17008 -0.290816,0.11844 -0.455393,0.0606 -0.67711,-0.23797 -1.330056,-0.50684 -1.953256,-0.29487 -0.165453,0.0566 -0.224289,0.26873 -0.376388,0.3701 -0.20029,0.13313 -0.424771,0.1819 -0.632969,0.29254 -0.266542,0.14225 -0.560833,0.25212 -0.858025,0.34555 -0.414919,0.13078 -0.803977,0.2936 -1.211891,0.34582 -0.139182,0.0175 -0.294838,-0.0609 -0.409254,-9e-4 -0.347928,0.1822 -1.047396,0.14752 -1.535819,0.26178 -0.225658,0.0523 -0.508948,0.0122 -0.653767,-0.15588 z m -32.863194,8.8945 c -0.274505,0.18009 -0.459607,0.17579 -0.590005,0.0776 -0.293689,-0.22142 -0.480651,-0.57947 -0.806413,-0.71882 -0.360707,-0.15388 -0.441765,0.0855 -0.594684,0.30663 -0.09162,0.13355 -0.228668,0.23245 -0.353346,0.31022 -0.312243,0.19479 -0.503858,0.14874 -0.583246,-0.11595 -0.14211,-0.47044 0.01322,-0.60629 0.288024,-1.03571 0.0356,-0.0557 0.08716,-0.10519 0.09343,-0.18064 0.0055,-0.0665 -0.02348,-0.14438 -0.07082,-0.19805 -0.17878,-0.20327 -0.255705,0.0802 -0.278282,0.11223 -0.106617,0.15182 -0.2568,0.27366 -0.337474,0.44114 -0.363471,0.74916 -0.826992,1.38172 -1.395405,1.90622 -0.05268,0.0488 -0.15229,0.006 -0.200372,-0.0322 -0.365633,-0.28866 -0.57717,-0.50329 -0.42187,-0.95113 0.148404,-0.42888 0.662168,-0.81063 1.035628,-1.23614 0,0 0.03366,0.0157 0.03418,-0.002 0.0044,-0.22826 0.508182,-0.61437 0.620189,-0.94834 0.03092,-0.0924 0.08128,-0.21299 0.03516,-0.30124 -0.131574,-0.25428 -0.48388,-0.76821 -0.726122,-0.84536 -0.05197,-0.0169 -0.115729,0.0267 -0.143013,0.0695 -0.109846,0.17038 -0.185403,0.37133 -0.209731,0.50619 -0.08776,0.1895 0.121997,0.3019 0.221143,0.49102 0.07115,0.13571 0.152755,0.25929 0.124486,0.39122 -0.07898,0.36816 -0.332657,0.62504 -0.58081,0.59778 -0.03484,-0.004 -0.07862,-0.0118 -0.111077,0.004 -0.141837,0.0916 -0.347107,0.37642 -0.511985,0.38069 -0.281621,0.0874 -0.405862,0.005 -0.46229,-0.10481 -0.207979,-0.40283 -0.124131,-0.55205 0.119835,-0.95567 0.08275,-0.13727 0.168983,-0.29167 0.165344,-0.44858 -0.0044,-0.16154 -0.105577,-0.30973 -0.195775,-0.42836 -0.0827,-0.10812 -0.194433,-0.21397 -0.314295,-0.23663 -0.153002,-0.0285 -0.311504,0.12008 -0.443872,0.0783 -0.587186,-0.1877 -0.369903,-0.64012 -0.06609,-1.05901 0.01606,-0.0226 0.02852,-0.0666 0.0042,-0.0796 -0.173608,-0.093 -0.37584,-0.0827 -0.431885,-0.0279 -0.372147,0.35754 -0.471567,0.73234 -0.883804,0.54166 -0.177248,-0.0879 -0.290514,-0.21075 -0.355371,-0.34662 -0.108177,-0.22651 0.06633,-0.39888 0.0058,-0.68748 0.02591,-0.21493 0.320425,-0.27339 0.112473,-0.63027 -0.141426,-0.41527 -0.349953,-0.5483 -0.171392,-0.93837 0.174703,-0.38167 0.284385,-0.42264 0.783371,-0.1674 0.292485,0.17928 0.02427,0.36164 0.435252,0.56357 0.334464,0.18593 0.477723,0.4268 0.6047,0.8065 0.01872,0.0298 0.14928,0.11784 0.161923,0.14247 0.03601,0.069 0.06144,0.2123 0.130371,0.18568 0.232663,-0.0881 0.630533,-0.44894 0.612855,-0.77254 -0.01541,-0.28529 -0.380958,-0.4676 -0.421678,-0.63448 -0.05041,-0.20467 -0.08861,-0.72897 -0.15396,-0.92302 -0.133134,-0.39338 -0.255131,-0.86903 -0.38717,-1.25177 -0.05427,-0.15678 -0.111023,-0.34513 -0.04472,-0.50676 0.08971,-0.21695 0.143506,-0.38413 0.491489,-0.31777 0.226916,0.0435 0.340675,0.32847 0.558206,0.44256 0.178479,0.0943 0.458074,-0.1582 0.752666,0.22062 0.333862,0.43047 -0.139921,0.9308 -0.317114,1.29159 -0.15738,0.3195 -0.09488,0.71551 -0.160144,1.01998 -0.0038,0.0164 0.0071,0.0706 0.02879,0.0596 0.08705,-0.0468 0.169011,-0.10939 0.248043,-0.19044 0.232636,-0.2362 0.410787,-0.57351 0.767554,-0.78108 0.120327,-0.07 0.194159,-0.0666 0.316648,0.12271 0.15957,0.24657 -0.139975,0.99948 -0.295577,1.21146 -0.11417,0.15513 -0.224371,0.23622 -0.271577,0.35406 -0.02835,0.0707 -0.122188,0.13488 -0.0042,0.27587 0.162881,0.2154 0.16299,0.29024 0.322095,0.20273 0.02578,-0.007 0.06885,-0.0406 0.09116,-0.0568 0.114334,-0.0826 0.228558,-0.22322 0.281073,-0.36112 0.03396,-0.0883 0.08426,-0.14849 0.07416,-0.25187 -0.01998,-0.20434 -0.177302,-0.45138 -0.04655,-0.67129 0.0792,-0.19525 0.396228,-0.45561 0.737178,-0.24875 0.07457,0.0263 0.183131,-0.005 0.274204,0.0155 0.133135,0.0301 0.276942,0.0839 0.410979,0.2484 0.09679,0.11926 0.08514,0.30196 0.169996,0.43865 0.05875,0.0944 0.18803,0.1374 0.228449,0.24137 0.05698,0.14629 -0.02986,0.56439 0.05249,0.67199 0.01489,0.0194 -0.04795,0.11874 -0.01144,0.0811 -0.06264,0.0816 0.0089,0.1327 0.05221,0.15859 0.02329,0.0137 0.09805,-0.0522 0.12383,-0.0813 0.236659,-0.27588 0.26895,-0.20962 0.334108,-0.34101 0.09956,-0.20056 0.205407,-0.23017 0.267993,-0.33703 -0.01185,-0.0533 0.233976,-0.32199 0.413249,-0.45989 0.198949,-0.16348 0.770482,0.0518 0.714902,0.46889 -0.02958,0.29314 -0.351622,0.43473 -0.443598,0.58081 -0.07725,0.12227 -0.0304,0.19028 -0.137567,0.32913 -0.129002,0.19646 -0.301379,0.35023 -0.435088,0.52676 -0.103634,0.0725 -0.107684,0.21316 -0.199469,0.29687 -0.238081,0.31451 -0.410458,0.55952 -0.458321,0.81279 0.0025,0.0373 0.121969,0.1457 0.164851,0.12186 0.248563,-0.13997 0.373296,-0.48648 0.710442,-0.71665 0.03883,-0.19247 0.610611,-0.2258 0.715641,0.16944 0.0051,0.18497 0.0257,0.28672 -0.03714,0.36419 -0.124377,0.1533 -0.166547,0.34204 -0.250943,0.46823 -0.149253,0.22341 -0.39653,0.37584 -0.435635,0.60008 -0.05197,0.13242 -0.01253,0.15013 0.0272,0.25611 0.02545,0.0676 0.09838,0.1379 0.143753,0.21436 0.08672,0.14616 0.235646,0.28053 0.327157,0.43829 0.127387,0.22005 0.328033,0.40129 0.409418,0.72306 0.0205,0.0806 0.05243,0.20828 -0.04699,0.23992 z M 18.36612,230.3967 c -0.339553,0.0895 -0.39672,-0.16214 -0.541978,-0.29457 -0.137075,-0.30822 -0.151387,-0.25486 0.09198,-0.53166 0.06655,-0.0395 0.142877,-0.0701 0.218598,-0.10065 0.317086,0.12208 0.37803,0.4618 0.324831,0.7455 -0.03946,0.0644 -0.07153,0.11816 -0.09343,0.18138 z m -2.167146,0.38657 c -0.08355,0.0489 -0.110886,0.11075 -0.166055,0.1186 -0.190712,0.0272 -0.315034,-0.0538 -0.432488,-0.19851 0.0067,-0.0251 -0.0057,-0.064 0.0062,-0.088 0.04953,-0.1 0.126074,-0.20722 0.202342,-0.35379 0.09578,-0.29577 0.08015,-0.4271 0.429642,-0.17404 0.05509,0.067 0.159186,0.11994 0.182228,0.18236 0.02756,0.0746 0.01946,0.14961 0.0034,0.2195 -0.08141,0.0927 -0.153275,0.19337 -0.225302,0.29386 z m 29.436294,-7.73443 c -0.299874,-0.0446 -0.377948,-0.14099 -0.542663,-0.20541 -0.224262,-0.0863 -0.426029,-0.31413 -0.463547,-0.42496 -0.01779,-0.0527 -0.01486,-0.11344 -0.0014,-0.15194 0.36495,-1.0263 0.953395,-0.91665 1.89847,-1.08911 0.146954,-0.0266 0.274998,0.0254 0.549668,0.0126 0.231349,-0.0108 0.45594,0.0915 0.700343,0.0943 0.188878,0.002 0.377291,-0.0202 0.565677,-0.0804 0.127989,-0.0414 0.237097,-0.11606 0.324941,-0.20546 0.0691,-0.0705 0.127633,-0.16335 0.155656,-0.26222 0.04463,-0.1576 0.06956,-0.32702 0.04395,-0.48889 -0.048,-0.29952 -0.246866,-0.53136 -0.315061,-0.64797 -0.04937,-0.0843 -0.09983,-0.17525 -0.104592,-0.26586 -0.03095,-0.58023 0.537873,-0.74533 0.682474,-1.14961 0.02356,-0.0655 -0.138498,0.0377 -0.199059,0.0341 -0.516993,-0.0279 -1.107408,0.0631 -1.588005,0.0958 -0.270702,0.0187 -0.610283,-0.11081 -0.716736,-0.23527 -0.299572,-0.35066 -0.168518,-0.53899 0.01155,-0.78351 0.336242,-0.45487 0.719335,-0.45569 1.258412,-0.49781 0.177029,-0.0135 0.347736,0.082 0.523725,0.0772 0.176865,-0.004 0.343468,-0.10531 0.52794,-0.10112 0.190274,0.005 0.484592,0.0285 0.781209,0.0258 0.163018,-7.6e-4 0.330222,0.0238 0.481856,0.0837 0.407147,0.16217 0.687044,0.13429 0.874335,0.75869 0.06587,0.22142 -0.09132,0.67192 -0.429889,0.72533 -0.390673,0.0609 -0.636362,-0.0435 -0.91604,0.11584 -0.09685,0.0554 -0.187564,0.161 -0.130151,0.34977 0.163784,0.52972 0.510015,1.25228 0.21151,1.95315 -0.05241,0.12312 -0.133217,0.24876 -0.227929,0.35992 -0.304991,0.35841 -0.780389,0.55585 -1.171582,0.55443 -0.434431,-0.002 -0.852442,-0.1903 -1.272862,-0.20804 -0.109161,-0.004 -0.199441,0.113 -0.309779,0.11176 -0.230037,-10e-4 -0.530485,-0.0805 -0.403481,0.0263 0.227765,0.1923 0.404329,0.13316 0.792375,0.27574 0.484373,0.17785 1.009302,0.22943 1.522711,0.2788 0.387197,0.0379 0.608504,-0.0673 1.013215,0.0387 0.552186,0.14452 1.15051,-0.17845 1.686687,0.21085 0.156833,0.11475 0.005,0.53391 -0.213535,0.74884 -0.519894,0.51144 -1.606587,0.27577 -2.189094,0.22519 -0.207158,-0.018 -0.403808,0.0465 -0.59597,0.0206 -0.954763,-0.13204 -1.966364,-0.25336 -2.815304,-0.37992 z"
       style="fill:#006aa7;fill-rule:evenodd;stroke-width:0.27365774"
       id="path339" />
    <path
       d="m 42.333457,226.3873 c 15.615811,0 28.279736,12.66373 28.279736,28.27947 0,15.6157 -12.663925,28.27943 -28.279736,28.27943 -15.615866,0 -28.279709,-12.66373 -28.279709,-28.27943 0,-15.61574 12.663843,-28.27947 28.279709,-28.27947 z m 7.496374,37.21471 2.498764,3.1989 c 0.269497,-0.10196 0.537928,-0.21176 0.804689,-0.32891 0.25264,-0.11119 0.500847,-0.2276 0.744977,-0.34927 l -0.708444,-3.99552 c 0.467297,-0.29172 0.90898,-0.6105 1.324829,-0.95148 l 3.586771,1.90745 c 0.204394,-0.20278 0.405067,-0.41221 0.600951,-0.62774 0.185704,-0.20402 0.365141,-0.41156 0.538475,-0.62192 l -2.267879,-3.35571 c 0.306633,-0.45449 0.58226,-0.9271 0.826171,-1.41388 l 4.045091,0.28326 c 0.104647,-0.26843 0.202507,-0.54135 0.29399,-0.81802 0.08645,-0.26194 0.166274,-0.52449 0.238876,-0.78709 l -3.427174,-2.13703 c 0.0975,-0.54094 0.159789,-1.0888 0.186498,-1.63976 l 3.794202,-1.38049 c -0.01352,-0.28778 -0.03522,-0.57712 -0.06426,-0.86714 -0.02736,-0.27435 -0.06133,-0.54639 -0.1018,-0.81608 l -3.975665,-0.5549 c -0.131574,-0.53656 -0.299299,-1.06899 -0.504487,-1.5934 l 2.888206,-2.78828 c -0.129659,-0.25737 -0.266625,-0.51286 -0.411417,-0.76608 -0.136664,-0.23925 -0.278473,-0.47419 -0.424962,-0.70406 l -3.838863,1.10456 c -0.347818,-0.45093 -0.722127,-0.87288 -1.119203,-1.26558 l 1.495755,-3.7012 c -0.223304,-0.18234 -0.452465,-0.35989 -0.687263,-0.53249 -0.222237,-0.16315 -0.447374,-0.3201 -0.674674,-0.47014 l -3.042193,2.55717 c -0.502516,-0.26953 -1.021699,-0.50446 -1.553524,-0.70371 l -0.138416,-3.97377 c -0.277954,-0.076 -0.559547,-0.14501 -0.844424,-0.2068 -0.269443,-0.0589 -0.538749,-0.11045 -0.807617,-0.15528 l -1.731977,3.55901 c -0.570411,-0.043 -1.144954,-0.0473 -1.720154,-0.0125 l -1.734795,-3.55792 c -0.28496,0.0439 -0.570275,0.0952 -0.855726,0.15448 -0.269826,0.0559 -0.537025,0.11839 -0.800858,0.18694 l -0.134256,3.94517 c -0.534973,0.19355 -1.062584,0.42537 -1.579358,0.69627 l -3.029605,-2.54254 c -0.242515,0.15593 -0.482129,0.31901 -0.718842,0.48928 -0.223907,0.16088 -0.442559,0.32642 -0.655601,0.49639 l 1.308903,3.23135 c 1.167065,0.50717 2.755837,1.76077 3.366613,2.64477 0.369437,-0.29861 0.76769,-0.57183 1.193501,-0.81509 4.276058,-2.44128 9.723643,-0.95353 12.16513,3.32265 2.441187,4.27588 0.953367,9.7233 -3.322609,12.16463 -0.323381,0.18461 -0.652919,0.34645 -0.987656,0.48651 z M 36.976918,249.86464 v 16.47056 c 0,0.78091 0.997097,1.41448 2.226612,1.41448 1.229514,0 2.226557,-0.63357 2.226776,-1.41448 v -16.22468 c -0.02052,-4.16719 -4.000787,-7.5282 -8.906338,-7.5282 -4.905607,0 -8.885732,3.36101 -8.906256,7.51255 h -5.48e-4 v 0.0321 c 0,0.20018 0,0.20018 5.5e-5,5.5e-4 l 0.0011,14.9271 4.451937,4.45756 V 249.865 c 0,-1.56221 1.993976,-2.82919 4.453388,-2.82919 2.459084,0 4.453224,1.26698 4.453224,2.82897 z m 6.687361,17.28248 v -16.27411 l 4.453087,0.003 2.74e-4,16.02576 c -0.02074,4.16694 -4.001006,7.52804 -8.906311,7.52804 -4.905716,0 -8.886115,-3.3611 -8.906557,-7.51233 h -2.74e-4 v -0.0322 c 0,-0.20002 0,-0.20002 0,-2.8e-4 l 0.02545,-16.0665 4.427637,0.0132 v 16.31586 c 0,1.56212 1.994277,2.82902 4.453388,2.82902 2.459084,0 4.453306,-1.2669 4.453306,-2.82902 z"
       style="fill:#006aa7;fill-rule:evenodd;stroke-width:0.27365774"
       id="path342"
       inkscape:connector-curvature="0" />
    <path
       d="m 9.7832177,235.30988 5.4993063,3.26028 -1.269223,2.29399 -0.794536,-0.47099 0.783125,-1.41552 -1.442201,-0.85505 -0.564391,1.01984 -0.794536,-0.47099 0.564309,-1.01995 -1.642163,-0.97354 -0.7831244,1.41541 -0.8256785,-0.48946 z m -1.4443627,2.54921 5.377337,3.63546 -0.515735,1.20998 -6.2183397,-1.66222 0.4057241,-0.95181 1.3344894,0.38703 0.3990743,-0.93621 -1.1701035,-0.77298 z m 1.5556318,2.17407 -0.3009409,0.70634 2.5557391,0.79044 0.02477,-0.0581 z m -1.492718,1.72402 -0.1520166,0.96566 c -0.3119145,-0.0841 -0.5571114,-0.0988 -0.7345233,-0.0438 -0.1787256,0.0547 -0.2991074,0.18396 -0.361857,0.38616 -0.054512,0.17572 -0.044469,0.33543 0.027968,0.48156 0.073067,0.14468 0.1971427,0.24615 0.3722559,0.30431 0.3148974,0.10464 0.8015146,-0.0204 1.4611106,-0.37281 l 0.1151002,-0.0627 c 0.6472814,-0.34349 1.1246214,-0.54488 1.4331424,-0.60204 0.306524,-0.0562 0.608149,-0.0357 0.903014,0.0622 0.426085,0.14148 0.740216,0.40537 0.94108,0.79123 0.200235,0.3872 0.236057,0.7883 0.105933,1.20751 -0.126019,0.40587 -0.363061,0.69354 -0.713014,0.86389 -0.34842,0.1709 -0.757976,0.1993 -1.229515,0.0834 l 0.164578,-0.9858 c 0.274779,0.0718 0.483525,0.0874 0.626073,0.0435 0.142438,-0.0439 0.23986,-0.14993 0.292539,-0.31968 0.04857,-0.15651 0.03577,-0.29747 -0.03607,-0.42554 -0.0723,-0.12665 -0.194324,-0.2192 -0.363882,-0.27552 -0.350472,-0.11639 -0.9017,0.0343 -1.6551603,0.45167 l -0.071589,0.0381 c -0.5552505,0.3057 -0.9859596,0.48339 -1.2940703,0.53418 -0.3065781,0.0512 -0.625854,0.0217 -0.9534217,-0.0871 -0.4403418,-0.14633 -0.7566895,-0.40767 -0.9527376,-0.78365 -0.1940777,-0.37713 -0.2241799,-0.78113 -0.090033,-1.2137 0.1485138,-0.47817 0.4144539,-0.80831 0.7968351,-0.99234 0.3819434,-0.18251 0.8379931,-0.19873 1.3682587,-0.0488 z m 2.6340602,3.9944 0.892998,0.20965 -0.667915,3.03854 -0.893026,-0.20968 0.226014,-1.02805 -5.2878784,-1.24172 0.2169828,-0.98714 5.2878786,1.24183 z m -4.8773378,5.69338 3.2448903,0.16272 c 0.4992876,0.025 0.8826265,0.1854 1.1531645,0.47991 0.269169,0.29585 0.392424,0.6917 0.368753,1.18861 -0.02236,0.46754 -0.185075,0.83184 -0.488041,1.09135 -0.304525,0.25948 -0.7071298,0.37579 -1.2092907,0.35061 l -0.6083674,-0.0305 0.049559,-1.03889 0.6965124,0.035 c 0.2182963,0.0109 0.3846799,-0.0241 0.4981108,-0.10694 0.1133488,-0.0828 0.1748129,-0.21004 0.1830219,-0.38195 0.0082,-0.17183 -0.04099,-0.30453 -0.1457498,-0.39831 -0.1049749,-0.0938 -0.2673631,-0.14534 -0.4854679,-0.15631 l -3.5334071,-0.1772 c -0.2197468,-0.011 -0.3862124,0.0241 -0.5025441,0.10676 -0.1146898,0.0828 -0.1762626,0.21 -0.184445,0.38183 -0.00829,0.17194 0.040857,0.30464 0.1471729,0.39842 0.1079851,0.094 0.2702638,0.14551 0.4900106,0.15651 l 0.8624033,0.0432 -0.049559,1.03886 -0.6620589,-0.0332 c -0.5545937,-0.0278 -0.9756974,-0.18387 -1.2631743,-0.46987 -0.2875043,-0.28611 -0.4200912,-0.67908 -0.396283,-1.17763 0.024383,-0.51084 0.1922715,-0.89054 0.5022157,-1.13727 0.3099989,-0.2467 0.7541171,-0.35469 1.3325738,-0.32568 z m 4.5636718,3.48167 0.05366,1.00121 -2.5835976,0.15098 0.054129,1.01215 2.5834616,-0.15095 0.05416,1.01051 -6.329527,0.36977 -0.054047,-1.01051 2.8314764,-0.16546 -0.054102,-1.01218 -2.8313669,0.16546 -0.053664,-1.00121 z m -6.0017952,4.46164 6.2749052,-0.93977 0.141399,1.02018 -6.2747961,0.93976 z m 0.2043125,2.03764 6.1463407,-1.61385 0.214602,0.88041 -3.3686653,2.20988 c -0.065377,0.0427 -0.151223,0.0957 -0.2591261,0.15924 -0.1077935,0.0649 -0.2240157,0.13229 -0.3491592,0.20193 0.1708168,-0.0785 0.3296201,-0.1489 0.475671,-0.20812 0.1472276,-0.061 0.2551032,-0.1004 0.3261173,-0.11912 l 3.4982153,-0.91845 0.224289,0.91944 -6.1463136,1.61384 -0.2240979,-0.91944 3.1045316,-2.08946 c 0.011712,-0.009 0.031635,-0.0226 0.058398,-0.0393 0.2118928,-0.14351 0.3972408,-0.25768 0.5585618,-0.3432 -0.2077606,0.0912 -0.3796447,0.16521 -0.5185531,0.22235 -0.1389084,0.0574 -0.2396963,0.0934 -0.3049088,0.11056 l -3.2139398,0.84385 z m 0.8070972,3.64978 6.3100155,-1.25653 0.440123,1.24063 -5.5922401,3.27968 -0.3463132,-0.97592 1.2205385,-0.68195 -0.3405664,-0.96005 -1.3608426,0.28641 z m 2.5781793,0.44305 0.2568546,0.72424 2.3704736,-1.27085 -0.02107,-0.0597 z m 5.5717702,3.12146 0.517404,0.88525 -4.201295,2.6367 c -0.157353,0.0988 -0.2581137,0.22002 -0.3027472,0.36213 -0.043949,0.14359 -0.027092,0.28337 0.053609,0.42116 0.079689,0.13653 0.1884952,0.21499 0.3264192,0.23529 0.139264,0.0196 0.287121,-0.0208 0.447183,-0.12125 l 4.201185,-2.6367 0.514968,0.8814 -4.055079,2.5451 c -0.477587,0.29977 -0.910458,0.41563 -1.301897,0.34779 -0.390099,-0.0686 -0.7102506,-0.31687 -0.959525,-0.74375 -0.2524761,-0.43197 -0.3168403,-0.84451 -0.1934209,-1.23534 0.12331,-0.39084 0.430627,-0.73948 0.9210207,-1.04724 z m -3.395156,6.90812 5.051384,-3.97232 0.529801,0.7232 -2.268619,3.39659 c -0.04398,0.0657 -0.103086,0.14914 -0.178588,0.25135 -0.07468,0.10345 -0.156368,0.21245 -0.245334,0.32714 0.12777,-0.14127 0.247331,-0.27038 0.359558,-0.38392 0.112637,-0.1157 0.197006,-0.19572 0.255404,-0.24161 l 2.875152,-2.26099 0.553308,0.75529 -5.051384,3.97237 -0.553307,-0.75527 2.070955,-3.17892 c 0.0071,-0.0134 0.0205,-0.0337 0.03883,-0.0599 0.141043,-0.21783 0.26865,-0.3979 0.384927,-0.54181 -0.156888,0.168 -0.287313,0.30562 -0.393684,0.41451 -0.106151,0.10889 -0.185484,0.18286 -0.239149,0.22503 l -2.641312,2.07715 z m 2.572652,3.35466 4.698393,-4.41287 0.668052,0.76328 -4.698284,4.41288 z m 5.35279,-3.55933 0.688795,0.68406 -2.178312,3.22539 c -0.138689,0.20579 -0.275709,0.39418 -0.410102,0.56382 -0.135214,0.17068 -0.278118,0.33608 -0.427343,0.49726 l -0.07972,0.0861 c 0.199278,-0.20163 0.38936,-0.38681 0.572272,-0.55528 0.182995,-0.16844 0.349378,-0.31465 0.499343,-0.4387 l 3.007273,-2.40179 0.693065,0.68844 -5.199624,3.93701 -0.737369,-0.73239 z m -1.553361,7.55855 4.060334,-5.04664 1.959468,1.69071 -0.586694,0.72908 -1.20899,-1.04324 -1.064855,1.32363 0.871079,0.75166 -0.586667,0.72919 -0.871188,-0.75169 -1.212438,1.50701 1.20899,1.04324 -0.609598,0.75763 z m 6.412473,-1.98093 -1.025558,1.58615 0.320726,0.22229 c 0.187702,0.1301 0.354496,0.16173 0.503639,0.0953 0.149253,-0.0664 0.326117,-0.25919 0.530922,-0.57606 0.185923,-0.28745 0.275628,-0.51248 0.270675,-0.67459 -0.0064,-0.16296 -0.109244,-0.31282 -0.308111,-0.45061 z m -1.535381,2.37467 -1.483852,2.29484 -0.811749,-0.56261 3.529165,-5.45804 1.190984,0.82533 c 0.447457,0.3103 0.688631,0.65848 0.727846,1.04581 0.03817,0.3866 -0.122434,0.85746 -0.480652,1.4115 -0.220759,0.3415 -0.439493,0.59094 -0.657051,0.74624 -0.216079,0.15623 -0.458704,0.23631 -0.725273,0.24186 l -1.042881,2.94924 -0.840401,-0.58242 0.980459,-2.64376 z m 1.334982,2.27163 0.885965,0.33778 c -0.139428,0.30119 -0.200399,0.54767 -0.182311,0.73855 0.01746,0.19208 0.116934,0.33901 0.296563,0.44125 0.156066,0.0888 0.309397,0.10877 0.461769,0.0629 0.15125,-0.0468 0.271112,-0.15372 0.359914,-0.32071 0.15946,-0.30031 0.134366,-0.81884 -0.07315,-1.55621 l -0.03735,-0.12914 c -0.201412,-0.72333 -0.300694,-1.24684 -0.295632,-1.57134 0.0055,-0.32234 0.08281,-0.62512 0.23228,-0.90639 0.215779,-0.40624 0.526106,-0.67555 0.930271,-0.80647 0.405368,-0.13029 0.792374,-0.0906 1.164658,0.12134 0.360516,0.20514 0.58776,0.5008 0.682008,0.8889 0.09499,0.38668 0.04343,0.80852 -0.15686,1.26594 l -0.902659,-0.35441 c 0.120656,-0.26575 0.175634,-0.47507 0.161349,-0.62824 -0.01429,-0.15317 -0.09608,-0.2724 -0.246921,-0.35816 -0.138963,-0.0791 -0.275108,-0.0929 -0.410158,-0.0442 -0.133845,0.0496 -0.245032,0.15604 -0.330961,0.31783 -0.177576,0.33416 -0.140386,0.92332 0.110585,1.76857 l 0.02233,0.0799 c 0.183186,0.62263 0.269032,1.09425 0.258004,1.41725 -0.01015,0.32147 -0.09942,0.64047 -0.265338,0.95294 -0.223004,0.41987 -0.531415,0.69189 -0.9254,0.81988 -0.394695,0.12577 -0.783343,0.0797 -1.167531,-0.13883 -0.424661,-0.2417 -0.686606,-0.57479 -0.787667,-0.99858 -0.09967,-0.42291 -0.02753,-0.88977 0.216244,-1.40034 z m 2.639287,3.29447 2.661973,-5.96181 0.903233,0.43197 -2.661973,5.9617 z m 3.207289,-4.62833 0.325707,-0.8869 2.811308,1.10487 -0.325679,0.88692 -0.951151,-0.37376 -1.928489,5.25222 -0.913331,-0.35899 1.928572,-5.25221 z m 2.701435,0.14558 0.959114,0.26206 -0.03372,2.70544 0.05927,0.0162 1.232881,-2.37787 0.960673,0.26238 -2.050075,3.41337 -0.673334,2.63486 -0.944719,-0.25806 0.643176,-2.51656 z m 7.31628,6.71747 0.297958,-3.65307 c 0.01833,-0.22552 -0.0094,-0.39896 -0.08527,-0.51915 -0.0758,-0.12009 -0.196322,-0.18809 -0.361912,-0.20237 -0.165481,-0.0144 -0.29544,0.032 -0.389578,0.13743 -0.09433,0.10544 -0.149855,0.27174 -0.168272,0.49715 l -0.298095,3.65318 c -0.01834,0.2256 0.0096,0.39907 0.08514,0.52224 0.07578,0.12165 0.196294,0.18962 0.361775,0.20391 0.16559,0.0143 0.295467,-0.032 0.389797,-0.13897 0.09449,-0.10842 0.150019,-0.27472 0.168463,-0.50035 z m -1.703844,-3.76237 c 0.04212,-0.51592 0.210688,-0.90728 0.504514,-1.17744 0.295249,-0.26857 0.681516,-0.38285 1.160088,-0.34141 0.45033,0.0389 0.796014,0.21966 1.035327,0.54367 0.239587,0.32245 0.337392,0.7432 0.29503,1.26214 l -0.273548,3.35344 c -0.04674,0.57304 -0.212467,1.00372 -0.498685,1.29161 -0.28641,0.28789 -0.670324,0.41177 -1.150674,0.37031 -0.486015,-0.0421 -0.844725,-0.22869 -1.07457,-0.55957 -0.229735,-0.33099 -0.319413,-0.79462 -0.27103,-1.38928 z m 3.4833,5.33793 0.09184,-6.56537 2.54679,0.0355 -0.01327,0.94852 -1.569725,-0.0219 -0.02408,1.72191 1.131326,0.0158 -0.01327,0.94861 -1.131326,-0.0158 -0.04121,2.94629 z m 5.751016,-1.87826 0.904355,-0.28258 c 0.06349,0.32724 0.15801,0.56196 0.283399,0.70295 0.125582,0.14244 0.290487,0.19766 0.493377,0.16726 0.176263,-0.0264 0.310409,-0.10602 0.405642,-0.23764 0.09367,-0.13155 0.127305,-0.29167 0.101226,-0.48025 -0.04701,-0.33909 -0.36837,-0.73726 -0.962671,-1.19638 l -0.104866,-0.0797 c -0.581111,-0.45173 -0.964724,-0.80754 -1.149251,-1.06962 -0.182775,-0.26072 -0.297,-0.5506 -0.341113,-0.86816 -0.06352,-0.45862 0.02805,-0.86703 0.275052,-1.22344 0.248235,-0.3566 0.580674,-0.5662 1.001422,-0.62914 0.407311,-0.0611 0.760602,0.0333 1.061489,0.28422 0.300694,0.24925 0.504596,0.61814 0.610228,1.10802 l -0.927342,0.27987 c -0.05796,-0.28734 -0.135817,-0.48862 -0.236167,-0.60194 -0.100377,-0.1133 -0.234962,-0.15746 -0.405423,-0.13199 -0.156942,0.0236 -0.273766,0.0974 -0.353373,0.22054 -0.07835,0.12299 -0.105304,0.27722 -0.07996,0.45983 0.05224,0.3774 0.424251,0.82434 1.115892,1.34249 l 0.06447,0.0498 c 0.508099,0.38273 0.850745,0.7056 1.029553,0.97017 0.178643,0.26282 0.292676,0.57312 0.341551,0.92592 0.06579,0.47414 -0.02269,0.8834 -0.263148,1.23114 -0.242324,0.34628 -0.579853,0.55188 -1.013764,0.61688 -0.479967,0.0719 -0.882708,-0.0307 -1.209811,-0.30576 -0.325351,-0.27538 -0.538995,-0.6929 -0.640768,-1.25243 z m 3.558283,-0.56075 -0.740216,-3.27591 c -0.114005,-0.50399 -0.07033,-0.92997 0.128646,-1.28086 0.200646,-0.34976 0.534097,-0.58212 1.00175,-0.69596 0.440068,-0.10711 0.822942,-0.0459 1.14687,0.184 0.324503,0.23146 0.542963,0.60014 0.657544,1.10712 l 0.138826,0.61409 -0.977805,0.23802 -0.15883,-0.70316 c -0.04981,-0.22027 -0.12799,-0.37628 -0.236002,-0.46629 -0.107931,-0.0899 -0.242981,-0.11592 -0.404767,-0.0765 -0.161676,0.0393 -0.27144,0.12495 -0.329675,0.25532 -0.0581,0.1304 -0.06149,0.30631 -0.01168,0.52657 l 0.805976,3.56698 c 0.05019,0.22193 0.128482,0.37794 0.237069,0.47082 0.108423,0.0915 0.243363,0.11749 0.405067,0.0781 0.161786,-0.0393 0.271523,-0.12495 0.329374,-0.25677 0.05752,-0.13339 0.06081,-0.30929 0.01062,-0.53115 l -0.196787,-0.87067 0.977805,-0.23792 0.151058,0.66839 c 0.12643,0.55976 0.09726,1.02227 -0.08913,1.38758 -0.186607,0.36539 -0.514941,0.6061 -0.984235,0.72032 -0.480707,0.11707 -0.879042,0.0549 -1.193201,-0.18548 -0.314158,-0.24038 -0.536368,-0.65273 -0.66827,-1.23661 z m 4.036991,0.60347 -1.871405,-6.27134 0.950931,-0.30535 1.871323,6.27134 z m 1.884376,-0.65899 -2.289362,-6.1204 2.379368,-0.95695 0.330769,0.88418 -1.468171,0.59045 0.600486,1.6052 1.057768,-0.42535 0.330878,0.88433 -1.057876,0.42545 0.683623,1.8276 1.468089,-0.59041 0.343713,0.91894 z m 3.480181,-1.49724 -2.992715,-5.785 0.773054,-0.42962 2.881747,2.84876 c 0.05572,0.0552 0.125964,0.1287 0.211647,0.2218 0.0868,0.0925 0.177959,0.19298 0.273328,0.30179 -0.114689,-0.1526 -0.21898,-0.29503 -0.309588,-0.42751 -0.09255,-0.13322 -0.155519,-0.23196 -0.19011,-0.29878 l -1.703297,-3.29271 0.807207,-0.44867 2.992633,5.785 -0.807207,0.44875 -2.70532,-2.61267 c -0.01166,-0.009 -0.02887,-0.0263 -0.05107,-0.0492 -0.185512,-0.17815 -0.336981,-0.33663 -0.456077,-0.47794 0.135597,0.18663 0.246346,0.34144 0.333397,0.46713 0.08708,0.12561 0.145065,0.21822 0.176864,0.27963 l 1.564909,3.02499 z m 2.563073,-3.36701 -1.824746,-2.78231 c -0.280772,-0.42806 -0.387471,-0.8418 -0.32297,-1.24315 0.06644,-0.40091 0.29741,-0.74145 0.69487,-1.02132 0.373898,-0.26326 0.752612,-0.34823 1.134802,-0.25398 0.38312,0.0956 0.714738,0.35849 0.997097,0.78912 l 0.342044,0.52162 -0.830796,0.58497 -0.391603,-0.59718 c -0.12279,-0.18707 -0.24974,-0.30362 -0.381861,-0.34754 -0.131903,-0.0438 -0.266953,-0.0181 -0.404466,0.0787 -0.137376,0.0968 -0.210223,0.21736 -0.219473,0.36071 -0.0092,0.14334 0.04847,0.30866 0.171255,0.4957 l 1.986888,3.02967 c 0.123584,0.18842 0.250643,0.30499 0.384379,0.3513 0.132833,0.0452 0.267774,0.0193 0.405259,-0.0774 0.137513,-0.0969 0.21036,-0.21747 0.218789,-0.36196 0.0075,-0.14586 -0.05041,-0.31118 -0.173882,-0.49968 l -0.484948,-0.73939 0.830796,-0.58509 0.372283,0.56774 c 0.311805,0.4755 0.444529,0.91787 0.396858,1.328 -0.04778,0.41027 -0.271085,0.75681 -0.669885,1.03755 -0.408516,0.28765 -0.802172,0.37746 -1.178724,0.26978 -0.376443,-0.10766 -0.726697,-0.41 -1.051966,-0.90592 z m 4.113807,-0.90091 -4.004016,-5.08616 1.978268,-1.67137 0.578402,0.7348 -1.220566,1.03131 1.050187,1.33395 0.879398,-0.74307 0.578484,0.73491 -0.879398,0.74307 1.195636,1.51883 1.220566,-1.0312 0.601225,0.76359 z m 3.195878,-2.82172 -3.85074,-5.3223 0.883995,-0.95474 5.292257,3.76538 -0.695336,0.75108 -1.125743,-0.83671 -0.684007,0.73874 0.84385,1.14107 z m -0.743362,-2.5948 0.515981,-0.55731 -2.139754,-1.64843 -0.04247,0.0458 z m 3.360839,-0.43788 -4.938199,-4.11175 0.549832,-0.70814 3.728415,1.45485 c 0.07222,0.0283 0.164714,0.0675 0.278556,0.11847 0.114799,0.05 0.236631,0.10552 0.365496,0.16704 -0.163127,-0.094 -0.312899,-0.18292 -0.446307,-0.26811 -0.13557,-0.085 -0.230693,-0.1504 -0.287778,-0.19791 l -2.810679,-2.34029 0.574215,-0.73957 4.938199,4.11172 -0.574215,0.73956 -3.476897,-1.3091 c -0.01428,-0.004 -0.03648,-0.0125 -0.06543,-0.0245 -0.238082,-0.0888 -0.437496,-0.17341 -0.600294,-0.25518 0.195145,0.11679 0.355426,0.21443 0.483114,0.29489 0.127579,0.0803 0.21597,0.14195 0.26843,0.1857 l 2.582175,2.15 z m 2.209836,-4.71174 0.261234,-0.43627 c 0.09074,-0.15149 0.112774,-0.29423 0.06472,-0.42548 -0.04866,-0.13333 -0.168847,-0.26156 -0.362213,-0.38564 l -2.592382,-1.66417 c -0.221225,-0.14189 -0.415877,-0.1903 -0.585189,-0.14575 -0.169175,0.0446 -0.32557,0.18513 -0.467516,0.42225 l -0.1177,0.19638 z m 0.28277,1.3618 -5.385929,-3.45715 0.732498,-1.22295 c 0.284084,-0.4743 0.614935,-0.74725 0.991734,-0.821 0.37803,-0.0729 0.818481,0.0529 1.322038,0.37603 l 2.405447,1.54417 c 0.523834,0.33622 0.840565,0.68916 0.950247,1.05871 0.108259,0.3687 0.02181,0.78934 -0.260056,1.25986 z m -2.64517,-6.47771 -0.83772,-0.38238 1.215339,-2.8513 0.83761,0.38236 -0.41106,0.96475 4.96094,2.26425 -0.394833,0.92628 -4.96094,-2.26428 z m 6.379469,-1.05309 -5.999797,-2.11291 0.823544,-2.50228 0.866782,0.30532 -0.5081,1.54395 1.573529,0.55416 0.366126,-1.11253 0.867001,0.30532 -0.366235,1.11245 1.79177,0.63095 0.5081,-1.54396 0.900797,0.31723 z m -0.550023,-3.97286 -3.167801,-0.74391 c -0.487356,-0.11447 -0.837857,-0.34131 -1.055004,-0.68018 -0.215258,-0.33986 -0.270428,-0.75185 -0.163756,-1.23699 0.100377,-0.45654 0.321602,-0.78611 0.663509,-0.98719 0.343358,-0.2009 0.759289,-0.24304 1.249464,-0.12791 l 0.593918,0.13948 -0.222921,1.01437 -0.68001,-0.15965 c -0.213015,-0.0501 -0.382792,-0.0455 -0.508428,0.0157 -0.125417,0.0612 -0.207268,0.17544 -0.24413,0.34325 -0.03694,0.1678 -0.01081,0.30742 0.07668,0.41858 0.08768,0.11127 0.23893,0.19126 0.451945,0.24126 l 3.44923,0.81003 c 0.214575,0.0504 0.384352,0.0458 0.512752,-0.0147 0.126867,-0.0608 0.208718,-0.17512 0.245662,-0.34292 0.03686,-0.16781 0.01073,-0.3074 -0.07821,-0.41903 -0.09047,-0.11182 -0.241694,-0.19181 -0.456268,-0.24213 l -0.841852,-0.19772 0.223058,-1.01437 0.646351,0.15177 c 0.541212,0.12717 0.929805,0.35663 1.164877,0.69006 0.235181,0.33345 0.299764,0.74443 0.192764,1.23121 -0.109655,0.4988 -0.338596,0.84249 -0.685183,1.02981 -0.346587,0.18732 -0.802062,0.21375 -1.366644,0.0812 z m -3.917376,-4.33245 0.115155,-0.99587 2.569094,0.31597 0.116441,-1.00671 -2.569203,-0.31596 0.116222,-1.00504 6.294088,0.77421 -0.116194,1.00503 -2.815659,-0.34634 -0.116332,1.00671 2.815632,0.34631 -0.115155,0.9959 z m 6.629839,-3.22334 -6.339187,0.0262 -0.0025,-0.9083 3.783803,-1.30065 c 0.07337,-0.0251 0.16912,-0.0549 0.288708,-0.0895 0.119698,-0.0361 0.24818,-0.0724 0.385775,-0.10859 -0.184034,0.0333 -0.35455,0.0619 -0.509988,0.0828 -0.157106,0.0222 -0.270893,0.0336 -0.344123,0.0339 l -3.608089,0.0149 -0.0027,-0.94853 6.339077,-0.0262 0.0027,0.94853 -3.499665,1.24985 c -0.01352,0.006 -0.03593,0.0141 -0.06582,0.0236 -0.239094,0.0862 -0.445541,0.15056 -0.622023,0.19317 0.222894,-0.0365 0.406929,-0.0653 0.55495,-0.0859 0.148185,-0.0208 0.254419,-0.0306 0.321657,-0.0309 l 3.314727,-0.0137 z m -1.692871,-6.06049 -3.518821,0.39771 c -0.217065,0.0245 -0.376279,0.086 -0.475808,0.18625 -0.09931,0.10011 -0.140879,0.23568 -0.123009,0.40682 0.01773,0.17096 0.08637,0.29413 0.204093,0.36974 0.117837,0.0756 0.285945,0.10022 0.503201,0.0757 l 3.51863,-0.39774 c 0.217366,-0.0245 0.37647,-0.0862 0.478791,-0.18669 0.100979,-0.10029 0.14252,-0.23586 0.124568,-0.40693 -0.01773,-0.17103 -0.08637,-0.29423 -0.205653,-0.36963 -0.12071,-0.0752 -0.288845,-0.0999 -0.505992,-0.0752 z m -3.242482,2.4539 c -0.49688,0.0562 -0.899813,-0.0401 -1.211618,-0.28704 -0.310519,-0.24868 -0.49209,-0.61951 -0.543729,-1.11409 -0.04855,-0.46533 0.05714,-0.85146 0.318728,-1.15692 0.260112,-0.3054 0.640276,-0.48553 1.140275,-0.54201 l 3.229976,-0.36514 c 0.55194,-0.0623 0.991488,0.0235 1.3187,0.25935 0.327129,0.23592 0.51754,0.60265 0.569261,1.09876 0.05249,0.5023 -0.05632,0.90285 -0.326336,1.19994 -0.270045,0.29719 -0.692325,0.47739 -1.265172,0.54211 z m 4.314671,-4.57573 -6.219107,1.27853 -0.187537,-0.98369 5.320553,-1.09376 -0.29388,-1.54165 0.898526,-0.18478 z m -2.490719,-4.46252 -3.3627,1.14665 c -0.207568,0.0708 -0.350938,0.16529 -0.428191,0.28466 -0.0772,0.11932 -0.09064,0.26083 -0.0387,0.42431 0.05175,0.16348 0.143533,0.26914 0.273821,0.31769 0.130617,0.0486 0.300065,0.0365 0.507552,-0.0344 l 3.362673,-1.14663 c 0.207678,-0.0709 0.351047,-0.1654 0.430928,-0.2857 0.07873,-0.11978 0.09206,-0.26139 0.04034,-0.42477 -0.05194,-0.16348 -0.143643,-0.26914 -0.275491,-0.3172 -0.133216,-0.0476 -0.302665,-0.0355 -0.510234,0.0354 z m -2.679651,3.09803 c -0.47485,0.16201 -0.888428,0.15459 -1.243061,-0.0198 -0.353674,-0.17627 -0.605822,-0.49984 -0.755595,-0.97234 -0.140878,-0.44467 -0.114936,-0.845 0.07958,-1.2001 0.193257,-0.35469 0.529061,-0.61269 1.006785,-0.7756 l 3.086826,-1.05263 c 0.527556,-0.17982 0.974739,-0.19052 1.342288,-0.0304 0.36744,0.16025 0.627223,0.47786 0.777488,0.95192 0.152153,0.47988 0.126211,0.89508 -0.07846,1.24372 -0.204531,0.34878 -0.581549,0.61589 -1.128836,0.80258 z m 1.90813,-4.63993 -2.986969,1.32721 c -0.459498,0.20421 -0.872063,0.23415 -1.24005,0.0925 -0.367166,-0.14364 -0.645694,-0.44313 -0.834627,-0.90033 -0.181435,-0.4387 -0.193202,-0.82968 -0.03558,-1.16951 0.158858,-0.3404 0.483169,-0.61931 0.975752,-0.83821 l 0.535164,-0.23781 0.37097,0.89743 -0.616358,0.27382 c -0.20081,0.0893 -0.335641,0.19633 -0.402577,0.32216 -0.06686,0.12582 -0.06831,0.26804 -0.0029,0.42625 0.06524,0.15809 0.165618,0.25513 0.2996,0.29163 0.134065,0.0366 0.301899,0.009 0.502709,-0.0799 l 3.252416,-1.44525 c 0.20226,-0.0899 0.337008,-0.19703 0.406545,-0.32406 0.06828,-0.12643 0.06976,-0.26865 0.0044,-0.42675 -0.06543,-0.1582 -0.165727,-0.2551 -0.301133,-0.29114 -0.136692,-0.0354 -0.304498,-0.008 -0.506758,0.082 l -0.910622,0.40471 0.233101,0.56393 -0.741583,0.32951 -0.604071,-1.46139 2.93864,-1.30573 0.184938,0.44721 -0.328936,0.35858 c 0.222483,0.0225 0.407174,0.0872 0.551966,0.19304 0.146818,0.10686 0.261781,0.26295 0.346697,0.46814 0.171966,0.41591 0.163674,0.79391 -0.02159,1.13746 -0.18595,0.34232 -0.542416,0.63048 -1.069178,0.8646 z m -5.493231,-0.55553 -0.468364,-0.9054 1.933278,-1.82166 -0.02887,-0.056 -2.519014,0.68954 -0.469049,-0.90688 3.806627,-0.77738 2.319272,-1.2889 0.461331,0.8918 -2.215063,1.23094 z"
       style="fill:#006aa7;fill-rule:evenodd;stroke-width:0.27365774"
       id="path344"
       inkscape:connector-curvature="0" />
  </g>
</svg>
