<?xml version="1.0" encoding="UTF-8"?>
<svg xmlns="http://www.w3.org/2000/svg" xmlns:xlink="http://www.w3.org/1999/xlink" width="252pt" height="252pt" viewBox="0 0 252 252" version="1.1">
<g id="surface1">
<path style=" stroke:none;fill-rule:nonzero;fill:rgb(47.45098%,10.588235%,11.372549%);fill-opacity:1;" d="M 252 126 C 252 195.585938 195.585938 252 126 252 C 56.414062 252 0 195.585938 0 126 C 0 56.414062 56.414062 0 126 0 C 195.585938 0 252 56.414062 252 126 Z M 252 126 "/>
<path style=" stroke:none;fill-rule:nonzero;fill:rgb(100%,100%,100%);fill-opacity:1;" d="M 126 6.289062 C 59.886719 6.289062 6.289062 59.886719 6.289062 126 C 6.289062 192.113281 59.886719 245.710938 126 245.710938 C 192.113281 245.710938 245.710938 192.113281 245.710938 126 C 245.710938 59.886719 192.113281 6.289062 126 6.289062 Z M 126 211.636719 C 78.691406 211.636719 40.363281 173.308594 40.363281 126 C 40.363281 78.691406 78.691406 40.363281 126 40.363281 C 173.308594 40.363281 211.636719 78.691406 211.636719 126 C 211.636719 173.25 173.308594 211.636719 126 211.636719 Z M 126 211.636719 "/>
<path style=" stroke:none;fill-rule:nonzero;fill:rgb(100%,100%,100%);fill-opacity:1;" d="M 110.730469 178.699219 L 110.730469 177.082031 C 111.746094 176.722656 112.644531 176.363281 113.484375 175.886719 L 115.699219 175.886719 L 115.699219 184.089844 L 113.363281 184.089844 L 113.363281 177.621094 C 112.527344 178.039062 111.6875 178.398438 110.730469 178.699219 Z M 110.730469 178.699219 "/>
<path style=" stroke:none;fill-rule:nonzero;fill:rgb(100%,100%,100%);fill-opacity:1;" d="M 118.335938 182.054688 L 120.730469 182.054688 C 120.910156 182.710938 121.269531 183.070312 121.929688 183.070312 C 123.183594 183.070312 123.722656 182.234375 123.605469 180.496094 C 123.066406 180.855469 122.347656 181.035156 121.449219 181.035156 C 119.472656 180.855469 118.394531 180.015625 118.15625 178.519531 C 118.335938 176.785156 119.652344 175.886719 122.046875 175.765625 C 124.742188 175.707031 126.058594 176.964844 126 179.417969 C 126.179688 182.710938 124.800781 184.328125 121.988281 184.269531 C 119.59375 184.210938 118.394531 183.492188 118.335938 182.054688 Z M 120.609375 178.398438 C 120.609375 179.296875 121.148438 179.777344 122.167969 179.777344 C 123.066406 179.71875 123.542969 179.296875 123.605469 178.398438 C 123.542969 177.441406 123.066406 176.964844 122.167969 176.902344 C 121.148438 176.902344 120.609375 177.382812 120.609375 178.398438 Z M 120.609375 178.398438 "/>
<path style=" stroke:none;fill-rule:nonzero;fill:rgb(100%,100%,100%);fill-opacity:1;" d="M 134.863281 180.015625 C 134.804688 182.773438 133.546875 184.148438 130.96875 184.210938 C 128.515625 184.148438 127.257812 182.773438 127.199219 180.015625 C 127.257812 177.144531 128.515625 175.707031 130.96875 175.707031 C 133.484375 175.707031 134.804688 177.144531 134.863281 180.015625 Z M 132.46875 180.015625 C 132.46875 177.980469 131.988281 176.964844 131.03125 176.902344 C 130.070312 176.964844 129.59375 177.980469 129.59375 180.015625 C 129.59375 182.054688 130.070312 183.070312 131.03125 183.070312 C 131.988281 183.011719 132.46875 181.992188 132.46875 180.015625 Z M 132.46875 180.015625 "/>
<path style=" stroke:none;fill-rule:nonzero;fill:rgb(100%,100%,100%);fill-opacity:1;" d="M 136.359375 175.886719 L 143.425781 175.886719 L 143.425781 177.441406 L 140.074219 184.148438 L 137.738281 184.148438 L 141.210938 177.261719 L 136.359375 177.261719 C 136.359375 177.261719 136.359375 175.886719 136.359375 175.886719 Z M 136.359375 175.886719 "/>
<path style=" stroke:none;fill-rule:nonzero;fill:rgb(47.45098%,10.588235%,11.372549%);fill-opacity:1;" d="M 28.207031 151.453125 L 24.792969 152.769531 L 25.570312 154.863281 C 25.871094 155.882812 26.410156 156.183594 27.1875 155.824219 L 27.429688 156.421875 L 24.375 157.621094 L 24.132812 157.019531 C 24.914062 156.78125 25.152344 156.242188 24.792969 155.523438 L 23.894531 153.128906 L 21.4375 154.085938 C 20.421875 154.386719 20.121094 154.863281 20.539062 155.582031 L 20.660156 155.882812 L 20.0625 156.121094 L 18.324219 151.511719 L 18.925781 151.273438 L 19.042969 151.511719 C 19.222656 152.109375 19.644531 152.289062 20.300781 152.050781 L 26.46875 149.65625 C 27.367188 149.296875 27.726562 148.816406 27.429688 148.277344 L 27.367188 148.039062 L 27.90625 147.859375 L 30.902344 155.644531 L 28.746094 156.480469 L 28.503906 155.882812 C 29.464844 155.523438 29.761719 155.042969 29.464844 154.445312 Z M 28.207031 151.453125 "/>
<path style=" stroke:none;fill-rule:nonzero;fill:rgb(47.45098%,10.588235%,11.372549%);fill-opacity:1;" d="M 34.015625 164.027344 L 34.613281 163.726562 L 36.46875 167.5625 L 35.871094 167.859375 L 35.8125 167.742188 C 35.332031 166.78125 34.734375 166.542969 33.957031 166.960938 L 30.242188 168.757812 C 27.785156 169.894531 25.8125 169.117188 24.433594 166.421875 C 23.117188 163.546875 23.535156 161.570312 25.691406 160.496094 L 30.0625 158.398438 C 30.78125 158.097656 30.960938 157.558594 30.601562 156.902344 L 30.480469 156.601562 L 31.082031 156.300781 L 33.355469 160.972656 L 32.757812 161.273438 L 32.636719 160.972656 C 32.277344 160.316406 31.800781 160.136719 31.140625 160.433594 L 26.769531 162.53125 C 25.210938 163.308594 24.792969 164.566406 25.632812 166.363281 C 26.589844 168.21875 27.964844 168.757812 29.761719 167.980469 L 33.355469 166.242188 C 34.375 165.765625 34.675781 165.105469 34.253906 164.328125 Z M 34.015625 164.027344 "/>
<path style=" stroke:none;fill-rule:nonzero;fill:rgb(47.45098%,10.588235%,11.372549%);fill-opacity:1;" d="M 37.789062 171.09375 L 38.328125 170.792969 L 40.960938 175.285156 L 40.421875 175.585938 L 40.242188 175.347656 C 39.824219 174.628906 39.285156 174.507812 38.625 174.988281 L 32.457031 178.578125 C 31.082031 179.296875 29.761719 179.539062 28.503906 179.179688 C 27.546875 178.9375 26.828125 178.339844 26.289062 177.441406 C 25.691406 176.425781 25.632812 175.707031 26.230469 175.40625 C 26.769531 175.167969 27.25 175.347656 27.726562 175.886719 C 27.90625 176.125 27.90625 176.542969 27.785156 177.023438 C 27.667969 177.382812 27.605469 177.679688 27.726562 177.800781 C 27.964844 178.21875 28.566406 178.21875 29.523438 177.679688 L 37.546875 173.011719 C 38.265625 172.652344 38.386719 172.113281 37.96875 171.332031 Z M 37.789062 171.09375 "/>
<path style=" stroke:none;fill-rule:nonzero;fill:rgb(47.45098%,10.588235%,11.372549%);fill-opacity:1;" d="M 43.117188 179.71875 L 43.65625 179.359375 L 46.652344 183.671875 L 46.113281 184.03125 L 45.933594 183.789062 C 45.453125 183.070312 44.855469 183.011719 44.253906 183.492188 L 38.984375 187.203125 C 38.207031 187.621094 38.148438 188.222656 38.746094 188.941406 L 38.925781 189.179688 L 38.386719 189.539062 L 35.394531 185.226562 L 35.929688 184.867188 L 36.050781 185.046875 C 36.53125 185.707031 37.070312 185.824219 37.667969 185.40625 L 43 181.632812 C 43.65625 181.15625 43.777344 180.617188 43.296875 179.957031 Z M 43.117188 179.71875 "/>
<path style=" stroke:none;fill-rule:nonzero;fill:rgb(47.45098%,10.588235%,11.372549%);fill-opacity:1;" d="M 47.910156 195.527344 L 45.574219 192.773438 L 43.65625 193.492188 C 43.117188 193.671875 42.878906 193.851562 42.878906 194.089844 C 42.820312 194.328125 43.058594 194.75 43.535156 195.289062 L 43.65625 195.40625 L 43.238281 195.828125 L 40.484375 192.535156 L 40.960938 192.113281 L 41.082031 192.234375 C 41.5 192.832031 42.21875 192.953125 43.355469 192.535156 L 51.082031 189.597656 L 51.320312 189.179688 L 52.820312 190.976562 L 48.628906 198.941406 C 48.027344 199.78125 47.96875 200.5 48.566406 201.097656 L 48.089844 201.515625 L 44.675781 197.445312 L 45.152344 197.023438 L 45.511719 197.445312 C 46.050781 198.164062 46.53125 198.101562 47.011719 197.265625 Z M 48.386719 194.628906 L 50.304688 190.976562 L 46.472656 192.414062 Z M 48.386719 194.628906 "/>
<path style=" stroke:none;fill-rule:nonzero;fill:rgb(47.45098%,10.588235%,11.372549%);fill-opacity:1;" d="M 55.273438 197.203125 L 51.023438 201.636719 C 50.246094 202.234375 50.304688 202.953125 51.261719 203.730469 L 50.84375 204.210938 L 47.96875 201.457031 L 48.386719 200.976562 L 48.507812 201.035156 C 49.105469 201.636719 49.644531 201.695312 50.066406 201.15625 L 55.335938 195.707031 C 55.214844 195.347656 54.976562 194.988281 54.617188 194.570312 L 55.035156 194.089844 L 57.492188 196.425781 L 57.429688 206.066406 L 60.84375 202.535156 C 61.683594 201.875 61.621094 201.15625 60.722656 200.4375 L 60.605469 200.320312 L 61.023438 199.839844 L 64.078125 202.773438 L 63.660156 203.253906 L 63.539062 203.191406 C 62.820312 202.535156 62.28125 202.414062 61.980469 202.832031 L 55.933594 209.121094 L 55.273438 208.523438 Z M 55.273438 197.203125 "/>
<path style=" stroke:none;fill-rule:nonzero;fill:rgb(47.45098%,10.588235%,11.372549%);fill-opacity:1;" d="M 72.523438 211.636719 L 69.347656 216.90625 C 68.75 217.683594 68.929688 218.34375 70.007812 218.882812 L 69.707031 219.421875 L 66.292969 217.386719 L 66.652344 216.847656 L 66.773438 216.90625 C 67.492188 217.386719 68.03125 217.324219 68.328125 216.667969 L 72.222656 210.199219 C 72.042969 209.898438 71.683594 209.539062 71.265625 209.242188 L 71.625 208.703125 L 74.558594 210.4375 L 76.652344 219.839844 L 79.230469 215.589844 C 79.886719 214.75 79.707031 214.09375 78.628906 213.613281 L 78.449219 213.492188 L 78.808594 212.953125 L 82.402344 215.171875 L 82.105469 215.710938 L 81.984375 215.648438 C 81.144531 215.171875 80.605469 215.171875 80.367188 215.648438 L 75.875 223.136719 L 75.097656 222.65625 Z M 72.523438 211.636719 "/>
<path style=" stroke:none;fill-rule:nonzero;fill:rgb(47.45098%,10.588235%,11.372549%);fill-opacity:1;" d="M 81.144531 220.441406 C 82.703125 217.324219 85.398438 216.429688 89.109375 217.746094 C 92.402344 219.363281 93.542969 221.699219 92.523438 224.8125 C 90.90625 227.925781 88.273438 228.824219 84.679688 227.445312 C 81.324219 225.890625 80.128906 223.554688 81.144531 220.441406 Z M 83.660156 220.679688 C 82.464844 223.792969 83 225.949219 85.21875 227.027344 C 87.195312 227.804688 88.8125 226.90625 90.007812 224.453125 C 91.085938 221.398438 90.546875 219.300781 88.453125 218.222656 C 86.355469 217.503906 84.738281 218.34375 83.660156 220.679688 Z M 83.660156 220.679688 "/>
<path style=" stroke:none;fill-rule:nonzero;fill:rgb(47.45098%,10.588235%,11.372549%);fill-opacity:1;" d="M 97.554688 227.207031 L 96.957031 229.601562 C 96.714844 230.441406 97.015625 230.921875 97.972656 231.101562 L 98.394531 231.21875 L 98.214844 231.820312 L 92.703125 230.382812 L 92.882812 229.78125 L 93.121094 229.84375 C 94.082031 230.140625 94.621094 229.902344 94.800781 229.003906 L 96.417969 222.714844 C 96.65625 221.9375 96.355469 221.457031 95.457031 221.21875 L 95.097656 221.097656 L 95.277344 220.5 C 95.339844 220.5 95.519531 220.558594 95.699219 220.621094 C 96.417969 220.738281 96.957031 220.800781 97.316406 220.917969 C 98.511719 221.160156 99.410156 221.339844 99.949219 221.457031 C 102.164062 222.058594 103.542969 222.777344 104.082031 223.734375 C 104.441406 224.332031 104.5625 224.992188 104.382812 225.710938 C 103.960938 226.96875 103.003906 227.625 101.445312 227.6875 C 101.804688 228.285156 102.046875 228.882812 102.285156 229.542969 C 102.523438 230.203125 102.882812 230.921875 103.363281 231.578125 C 103.664062 232.296875 104.261719 232.835938 105.160156 233.074219 L 105.039062 233.554688 C 104.800781 233.496094 104.441406 233.375 104.023438 233.316406 C 102.285156 232.894531 101.207031 232.296875 100.789062 231.460938 C 100.488281 230.980469 100.25 230.441406 99.949219 229.78125 C 99.648438 228.882812 99.289062 228.105469 98.929688 227.386719 Z M 98.871094 221.996094 L 97.675781 226.609375 L 98.273438 226.789062 C 100.308594 227.328125 101.507812 226.847656 101.925781 225.289062 C 102.285156 223.792969 101.507812 222.777344 99.710938 222.296875 Z M 98.871094 221.996094 "/>
<path style=" stroke:none;fill-rule:nonzero;fill:rgb(47.45098%,10.588235%,11.372549%);fill-opacity:1;" d="M 112.464844 234.632812 L 109.652344 226.1875 L 108.632812 231.9375 C 108.214844 233.074219 108.632812 233.675781 109.769531 233.675781 L 109.710938 234.332031 L 106.058594 233.914062 L 106.117188 233.253906 C 107.136719 233.554688 107.675781 233.015625 107.734375 231.699219 L 108.8125 225.828125 C 109.050781 225.050781 108.691406 224.570312 107.855469 224.511719 L 107.914062 223.855469 L 111.328125 224.273438 L 113.722656 231.460938 L 117.496094 224.992188 L 121.03125 225.410156 L 120.96875 226.070312 C 119.953125 225.828125 119.53125 226.1875 119.652344 227.148438 L 119.351562 233.253906 C 119.054688 234.394531 119.472656 234.992188 120.609375 234.992188 L 120.550781 235.652344 L 115.398438 235.050781 L 115.460938 234.394531 L 115.699219 234.394531 C 116.597656 234.632812 117.078125 234.332031 117.078125 233.433594 C 117.078125 233.195312 117.136719 232.894531 117.195312 232.65625 L 117.496094 226.847656 L 117.4375 226.847656 L 112.824219 234.691406 Z M 112.464844 234.632812 "/>
<path style=" stroke:none;fill-rule:nonzero;fill:rgb(47.45098%,10.588235%,11.372549%);fill-opacity:1;" d="M 129.234375 231.640625 L 125.640625 231.757812 L 124.980469 233.675781 C 124.800781 234.214844 124.742188 234.511719 124.921875 234.632812 C 125.101562 234.871094 125.519531 234.933594 126.300781 234.871094 L 126.480469 234.871094 L 126.480469 235.53125 L 122.167969 235.652344 L 122.167969 234.992188 L 122.347656 234.992188 C 123.066406 235.050781 123.605469 234.511719 123.964844 233.433594 L 126.539062 225.53125 L 126.359375 225.109375 L 128.816406 225.050781 L 132.347656 233.316406 C 132.648438 234.332031 133.1875 234.8125 133.964844 234.753906 L 133.964844 235.410156 L 128.636719 235.53125 L 128.636719 234.871094 L 129.234375 234.871094 C 130.132812 234.871094 130.371094 234.453125 130.011719 233.613281 Z M 128.816406 230.800781 L 127.199219 227.027344 L 125.941406 230.921875 Z M 128.816406 230.800781 "/>
<path style=" stroke:none;fill-rule:nonzero;fill:rgb(47.45098%,10.588235%,11.372549%);fill-opacity:1;" d="M 147.257812 230.679688 L 146.480469 233.734375 L 137.796875 235.050781 L 137.679688 234.394531 L 137.917969 234.332031 C 138.875 234.214844 139.234375 233.792969 139.113281 232.957031 L 138.097656 226.429688 C 137.976562 225.648438 137.5 225.351562 136.601562 225.46875 L 136.300781 225.53125 L 136.179688 224.871094 L 141.691406 224.035156 L 141.808594 224.691406 L 141.390625 224.75 C 140.550781 224.871094 140.191406 225.351562 140.371094 226.070312 L 141.390625 232.714844 C 141.390625 233.316406 141.691406 233.554688 142.347656 233.375 L 144.386719 233.074219 C 145.042969 232.957031 145.644531 232.355469 146.300781 231.28125 C 146.421875 231.039062 146.480469 230.859375 146.601562 230.742188 Z M 147.257812 230.679688 "/>
<path style=" stroke:none;fill-rule:nonzero;fill:rgb(47.45098%,10.588235%,11.372549%);fill-opacity:1;" d="M 166.304688 217.027344 L 166.0625 216.429688 L 169.894531 214.632812 L 170.195312 215.230469 L 170.074219 215.289062 C 169.117188 215.769531 168.820312 216.367188 169.296875 217.144531 L 171.035156 220.859375 C 172.171875 223.375 171.332031 225.289062 168.640625 226.609375 C 165.765625 227.925781 163.789062 227.445312 162.710938 225.230469 L 160.613281 220.859375 C 160.316406 220.140625 159.835938 219.960938 159.117188 220.378906 L 158.816406 220.5 L 158.519531 219.902344 L 163.25 217.746094 L 163.488281 218.34375 L 163.1875 218.464844 C 162.53125 218.824219 162.289062 219.300781 162.589844 219.960938 L 164.625 224.394531 C 165.34375 226.007812 166.601562 226.367188 168.460938 225.589844 C 170.316406 224.691406 170.914062 223.316406 170.136719 221.457031 L 168.460938 217.863281 C 167.980469 216.847656 167.320312 216.546875 166.542969 216.90625 Z M 166.304688 217.027344 "/>
<path style=" stroke:none;fill-rule:nonzero;fill:rgb(47.45098%,10.588235%,11.372549%);fill-opacity:1;" d="M 170.433594 216.546875 L 173.609375 221.816406 C 174.027344 222.714844 174.6875 222.835938 175.644531 222.117188 L 176.003906 222.65625 L 172.589844 224.75 L 172.230469 224.214844 L 172.351562 224.152344 C 173.128906 223.734375 173.308594 223.253906 172.890625 222.65625 L 169 216.1875 C 168.640625 216.1875 168.21875 216.367188 167.742188 216.546875 L 167.382812 216.007812 L 170.316406 214.273438 L 179.65625 216.847656 L 177.082031 212.59375 C 176.664062 211.636719 175.945312 211.457031 175.046875 212.175781 L 174.867188 212.296875 L 174.566406 211.757812 L 178.160156 209.601562 L 178.519531 210.140625 L 178.398438 210.199219 C 177.5625 210.679688 177.320312 211.15625 177.679688 211.578125 L 182.171875 219.0625 L 181.394531 219.542969 Z M 170.433594 216.546875 "/>
<path style=" stroke:none;fill-rule:nonzero;fill:rgb(47.45098%,10.588235%,11.372549%);fill-opacity:1;" d="M 179.117188 209.421875 L 178.757812 208.882812 L 182.953125 205.707031 L 183.3125 206.246094 L 183.070312 206.425781 C 182.414062 206.964844 182.292969 207.503906 182.832031 208.105469 L 186.722656 213.253906 C 187.203125 213.972656 187.742188 214.03125 188.460938 213.433594 L 188.640625 213.253906 L 189 213.792969 L 184.808594 216.964844 L 184.449219 216.429688 L 184.628906 216.25 C 185.285156 215.769531 185.347656 215.230469 184.929688 214.570312 L 180.976562 209.359375 C 180.496094 208.703125 179.898438 208.644531 179.238281 209.121094 Z M 179.117188 209.421875 "/>
<path style=" stroke:none;fill-rule:nonzero;fill:rgb(47.45098%,10.588235%,11.372549%);fill-opacity:1;" d="M 195.109375 208.882812 L 186.664062 205.347656 C 185.644531 204.871094 184.929688 204.929688 184.507812 205.527344 L 184.390625 205.589844 L 183.96875 205.109375 L 188.160156 201.277344 L 188.582031 201.753906 L 188.402344 201.933594 C 187.921875 202.414062 187.683594 202.773438 187.742188 203.074219 C 187.742188 203.3125 187.980469 203.550781 188.519531 203.730469 L 194.148438 206.066406 L 191.933594 199.960938 C 191.695312 199.421875 191.277344 199.421875 190.558594 199.960938 L 190.257812 200.199219 L 189.839844 199.71875 L 192.894531 196.90625 L 193.3125 197.382812 L 193.25 197.445312 C 192.59375 197.921875 192.535156 198.761719 193.011719 200.019531 L 195.886719 208.164062 Z M 195.109375 208.882812 "/>
<path style=" stroke:none;fill-rule:nonzero;fill:rgb(47.45098%,10.588235%,11.372549%);fill-opacity:1;" d="M 197.984375 192.535156 L 195.527344 195.167969 L 198.222656 197.625 L 200.019531 195.648438 C 200.679688 195.046875 200.679688 194.507812 200.019531 193.96875 L 200.4375 193.492188 L 202.832031 195.707031 L 202.414062 196.1875 C 201.875 195.585938 201.277344 195.648438 200.558594 196.484375 L 198.941406 198.28125 L 201.097656 200.257812 C 201.515625 200.738281 201.875 200.796875 202.113281 200.378906 L 203.910156 198.402344 C 204.691406 197.742188 204.75 196.90625 203.972656 195.828125 L 204.390625 195.347656 L 206.128906 197.203125 L 199.421875 204.511719 L 198.941406 204.089844 L 199.421875 203.550781 C 200.019531 202.953125 200.019531 202.355469 199.421875 201.816406 L 194.570312 197.324219 C 194.03125 196.726562 193.371094 196.84375 192.773438 197.5625 L 192.652344 197.683594 L 192.175781 197.265625 L 198.28125 190.617188 L 200.140625 192.054688 L 199.71875 192.535156 C 199 192.054688 198.34375 191.996094 197.984375 192.535156 Z M 197.984375 192.535156 "/>
<path style=" stroke:none;fill-rule:nonzero;fill:rgb(47.45098%,10.588235%,11.372549%);fill-opacity:1;" d="M 205.050781 191.816406 L 207.027344 193.371094 C 207.683594 193.910156 208.285156 193.851562 208.820312 193.070312 L 209.121094 192.714844 L 209.601562 193.132812 L 206.066406 197.625 L 205.589844 197.203125 L 205.769531 197.023438 C 206.425781 196.304688 206.425781 195.707031 205.648438 195.167969 L 200.558594 191.15625 C 199.960938 190.617188 199.359375 190.738281 198.820312 191.394531 L 198.582031 191.695312 L 198.101562 191.335938 C 198.164062 191.277344 198.222656 191.15625 198.402344 190.976562 C 198.761719 190.378906 199.121094 189.898438 199.300781 189.597656 C 200.019531 188.582031 200.558594 187.863281 200.855469 187.382812 C 202.292969 185.585938 203.492188 184.628906 204.570312 184.507812 C 205.230469 184.390625 205.886719 184.570312 206.488281 185.046875 C 207.503906 185.945312 207.683594 187.082031 207.085938 188.519531 C 207.746094 188.460938 208.402344 188.460938 209.121094 188.519531 C 209.839844 188.582031 210.617188 188.519531 211.457031 188.402344 C 212.234375 188.402344 212.953125 188.101562 213.554688 187.382812 L 213.972656 187.683594 C 213.792969 187.863281 213.613281 188.160156 213.3125 188.519531 C 212.234375 189.957031 211.21875 190.738281 210.320312 190.738281 C 209.78125 190.796875 209.179688 190.855469 208.464844 190.796875 C 207.503906 190.675781 206.667969 190.675781 205.886719 190.796875 Z M 200.796875 188.519531 L 204.511719 191.457031 L 204.929688 190.976562 C 206.246094 189.359375 206.246094 188.042969 204.988281 187.023438 C 203.730469 186.125 202.535156 186.363281 201.335938 187.863281 Z M 200.796875 188.519531 "/>
<path style=" stroke:none;fill-rule:nonzero;fill:rgb(47.45098%,10.588235%,11.372549%);fill-opacity:1;" d="M 214.453125 186.484375 L 211.816406 185.167969 L 212.175781 184.628906 C 213.792969 185.105469 214.992188 184.808594 215.710938 183.671875 C 216.367188 182.652344 216.25 181.8125 215.46875 181.214844 C 214.871094 180.796875 213.792969 181.035156 212.234375 181.875 C 210.320312 182.890625 208.882812 183.070312 207.925781 182.472656 C 206.605469 181.453125 206.488281 180.078125 207.566406 178.21875 C 207.863281 177.742188 208.34375 177.261719 209 176.722656 C 209.179688 176.542969 209.242188 176.484375 209.300781 176.363281 C 209.359375 176.304688 209.359375 176.183594 209.300781 176.003906 L 209.539062 175.707031 L 211.875 176.902344 L 211.457031 177.5 C 210.140625 177.144531 209 177.441406 208.164062 178.460938 C 207.683594 179.359375 207.683594 180.015625 208.222656 180.4375 C 208.703125 180.796875 209.601562 180.554688 210.917969 179.835938 C 212.117188 179.238281 213.015625 178.820312 213.734375 178.640625 C 214.691406 178.578125 215.46875 178.699219 216.070312 179.117188 C 217.503906 180.316406 217.683594 181.875 216.605469 183.609375 C 216.007812 184.328125 215.53125 184.929688 215.109375 185.40625 C 214.871094 185.585938 214.691406 185.707031 214.691406 185.707031 C 214.632812 185.886719 214.632812 186.003906 214.75 186.125 Z M 214.453125 186.484375 "/>
<path style=" stroke:none;fill-rule:nonzero;fill:rgb(47.45098%,10.588235%,11.372549%);fill-opacity:1;" d="M 212.476562 172.171875 L 211.9375 171.871094 L 214.570312 167.320312 L 215.109375 167.621094 L 214.929688 167.921875 C 214.511719 168.640625 214.632812 169.238281 215.351562 169.597656 L 220.980469 172.832031 C 221.699219 173.308594 222.238281 173.191406 222.65625 172.351562 L 222.777344 172.113281 L 223.316406 172.410156 L 220.679688 176.964844 L 220.140625 176.664062 L 220.261719 176.425781 C 220.679688 175.707031 220.558594 175.167969 219.839844 174.808594 L 214.210938 171.511719 C 213.492188 171.09375 212.953125 171.273438 212.535156 171.933594 Z M 212.476562 172.171875 "/>
<path style=" stroke:none;fill-rule:nonzero;fill:rgb(47.45098%,10.588235%,11.372549%);fill-opacity:1;" d="M 219.300781 159.835938 L 226.007812 163.1875 C 226.789062 163.667969 227.328125 163.429688 227.746094 162.46875 L 227.925781 162.109375 L 228.523438 162.410156 L 225.890625 167.679688 L 225.289062 167.382812 L 225.53125 166.84375 C 225.949219 166.125 225.769531 165.585938 224.992188 165.226562 L 218.285156 161.871094 L 217.445312 163.609375 C 216.785156 164.507812 217.085938 165.34375 218.34375 166.0625 L 218.042969 166.664062 L 215.410156 164.984375 L 215.648438 164.507812 C 215.769531 164.507812 215.949219 164.445312 216.007812 164.328125 C 216.128906 164.328125 216.1875 164.207031 216.25 163.96875 L 219.722656 156.960938 C 219.902344 156.722656 219.902344 156.421875 219.78125 156.121094 L 220.019531 155.644531 L 222.894531 156.722656 L 222.597656 157.320312 C 221.21875 156.78125 220.378906 157.019531 220.082031 158.097656 Z M 219.300781 159.835938 "/>
<path style=" stroke:none;fill-rule:nonzero;fill:rgb(47.45098%,10.588235%,11.372549%);fill-opacity:1;" d="M 228.40625 152.410156 L 230.5 153.25 C 231.28125 153.667969 231.820312 153.367188 232.179688 152.410156 L 232.296875 152.171875 L 232.894531 152.410156 L 230.742188 157.621094 L 230.140625 157.378906 L 230.320312 156.960938 C 230.679688 156.242188 230.5 155.703125 229.722656 155.402344 L 227.566406 154.503906 L 221.878906 155.941406 C 221.21875 156.0625 220.800781 156.421875 220.621094 157.019531 L 220.5 157.199219 L 219.902344 156.960938 L 221.996094 151.992188 L 222.597656 152.230469 L 222.476562 152.46875 C 222.355469 152.890625 222.296875 153.1875 222.417969 153.367188 C 222.535156 153.546875 222.714844 153.605469 223.015625 153.488281 L 227.207031 152.410156 L 225.171875 149.476562 C 224.871094 149.054688 224.632812 148.875 224.332031 148.9375 C 224.152344 148.9375 223.914062 149.175781 223.734375 149.59375 L 223.675781 149.773438 L 223.074219 149.535156 L 224.570312 145.941406 L 225.171875 146.179688 C 224.871094 146.960938 224.992188 147.679688 225.53125 148.335938 Z M 228.40625 152.410156 "/>
<path style=" stroke:none;fill-rule:nonzero;fill:rgb(100%,100%,100%);fill-opacity:1;" d="M 81.503906 118.632812 L 90.367188 118.632812 L 90.367188 153.785156 L 81.503906 153.785156 Z M 81.503906 118.632812 "/>
<path style=" stroke:none;fill-rule:nonzero;fill:rgb(100%,100%,100%);fill-opacity:1;" d="M 81.503906 110.128906 L 82.761719 110.128906 C 83.0625 108.933594 83.960938 108.035156 85.15625 107.734375 L 85.15625 106.117188 L 81.503906 106.117188 C 81.503906 106.117188 81.503906 110.128906 81.503906 110.128906 Z M 86.65625 106.117188 L 86.65625 107.734375 C 87.851562 108.035156 88.75 108.933594 89.050781 110.128906 L 90.367188 110.128906 L 90.367188 111.628906 L 89.050781 111.628906 C 88.75 112.824219 87.851562 113.722656 86.65625 114.023438 L 86.65625 115.640625 L 90.367188 115.640625 L 90.367188 106.179688 L 86.65625 106.179688 Z M 82.761719 111.566406 L 81.503906 111.566406 L 81.503906 115.578125 L 85.15625 115.578125 L 85.15625 113.964844 C 83.960938 113.664062 83.0625 112.765625 82.761719 111.566406 Z M 82.761719 111.566406 "/>
<path style=" stroke:none;fill-rule:nonzero;fill:rgb(100%,100%,100%);fill-opacity:1;" d="M 59.585938 118.632812 L 68.449219 118.632812 L 68.449219 153.785156 L 59.585938 153.785156 Z M 59.585938 118.632812 "/>
<path style=" stroke:none;fill-rule:nonzero;fill:rgb(100%,100%,100%);fill-opacity:1;" d="M 71.265625 118.632812 L 72.761719 118.632812 L 72.761719 147.199219 L 71.265625 147.199219 Z M 71.265625 118.632812 "/>
<path style=" stroke:none;fill-rule:nonzero;fill:rgb(100%,100%,100%);fill-opacity:1;" d="M 76.175781 118.632812 L 77.671875 118.632812 L 77.671875 147.199219 L 76.175781 147.199219 Z M 76.175781 118.632812 "/>
<path style=" stroke:none;fill-rule:nonzero;fill:rgb(100%,100%,100%);fill-opacity:1;" d="M 60.84375 111.566406 L 59.585938 111.566406 L 59.585938 115.578125 L 63.238281 115.578125 L 63.238281 113.964844 C 62.042969 113.664062 61.144531 112.765625 60.84375 111.566406 Z M 59.585938 110.128906 L 60.84375 110.128906 C 61.144531 108.933594 62.042969 108.035156 63.238281 107.734375 L 63.238281 106.117188 L 59.585938 106.117188 Z M 64.675781 106.117188 L 64.675781 107.734375 C 65.875 108.035156 66.773438 108.933594 67.070312 110.128906 L 68.390625 110.128906 L 68.390625 111.628906 L 67.070312 111.628906 C 66.773438 112.824219 65.875 113.722656 64.675781 114.023438 L 64.675781 115.640625 L 68.390625 115.640625 L 68.390625 106.179688 L 64.675781 106.179688 Z M 64.675781 106.117188 "/>
<path style=" stroke:none;fill-rule:nonzero;fill:rgb(100%,100%,100%);fill-opacity:1;" d="M 68.328125 146.839844 L 81.503906 146.839844 L 81.503906 147.320312 L 68.328125 147.320312 Z M 68.328125 146.839844 "/>
<path style=" stroke:none;fill-rule:nonzero;fill:rgb(100%,100%,100%);fill-opacity:1;" d="M 68.328125 123.785156 L 81.503906 123.785156 L 81.503906 125.878906 L 68.328125 125.878906 Z M 68.328125 123.785156 "/>
<path style=" stroke:none;fill-rule:nonzero;fill:rgb(100%,100%,100%);fill-opacity:1;" d="M 184.988281 118.632812 L 193.851562 118.632812 L 193.851562 153.785156 L 184.988281 153.785156 Z M 184.988281 118.632812 "/>
<path style=" stroke:none;fill-rule:nonzero;fill:rgb(100%,100%,100%);fill-opacity:1;" d="M 184.988281 110.128906 L 186.246094 110.128906 C 186.542969 108.933594 187.441406 108.035156 188.640625 107.734375 L 188.640625 106.117188 L 184.988281 106.117188 Z M 186.246094 111.566406 L 184.988281 111.566406 L 184.988281 115.578125 L 188.640625 115.578125 L 188.640625 113.964844 C 187.441406 113.664062 186.542969 112.765625 186.246094 111.566406 Z M 190.136719 113.964844 L 190.136719 115.578125 L 193.851562 115.578125 L 193.851562 111.566406 L 192.535156 111.566406 C 192.234375 112.765625 191.277344 113.664062 190.136719 113.964844 Z M 190.136719 106.117188 L 190.136719 107.734375 C 191.335938 108.035156 192.234375 108.933594 192.535156 110.128906 L 193.851562 110.128906 L 193.851562 106.117188 Z M 190.136719 106.117188 "/>
<path style=" stroke:none;fill-rule:nonzero;fill:rgb(100%,100%,100%);fill-opacity:1;" d="M 163.070312 118.632812 L 171.933594 118.632812 L 171.933594 153.785156 L 163.070312 153.785156 Z M 163.070312 118.632812 "/>
<path style=" stroke:none;fill-rule:nonzero;fill:rgb(100%,100%,100%);fill-opacity:1;" d="M 174.746094 118.632812 L 176.246094 118.632812 L 176.246094 147.199219 L 174.746094 147.199219 Z M 174.746094 118.632812 "/>
<path style=" stroke:none;fill-rule:nonzero;fill:rgb(100%,100%,100%);fill-opacity:1;" d="M 179.65625 118.632812 L 181.15625 118.632812 L 181.15625 147.199219 L 179.65625 147.199219 Z M 179.65625 118.632812 "/>
<path style=" stroke:none;fill-rule:nonzero;fill:rgb(100%,100%,100%);fill-opacity:1;" d="M 163.070312 110.128906 L 164.328125 110.128906 C 164.625 108.933594 165.523438 108.035156 166.722656 107.734375 L 166.722656 106.117188 L 163.070312 106.117188 C 163.070312 106.117188 163.070312 110.128906 163.070312 110.128906 Z M 164.328125 111.566406 L 163.070312 111.566406 L 163.070312 115.578125 L 166.722656 115.578125 L 166.722656 113.964844 C 165.523438 113.664062 164.625 112.765625 164.328125 111.566406 Z M 168.21875 106.117188 L 168.21875 107.734375 C 169.417969 108.035156 170.316406 108.933594 170.613281 110.128906 L 171.933594 110.128906 L 171.933594 111.628906 L 170.613281 111.628906 C 170.316406 112.824219 169.417969 113.722656 168.21875 114.023438 L 168.21875 115.640625 L 171.933594 115.640625 L 171.933594 106.179688 L 168.21875 106.179688 Z M 168.21875 106.117188 "/>
<path style=" stroke:none;fill-rule:nonzero;fill:rgb(100%,100%,100%);fill-opacity:1;" d="M 171.871094 146.839844 L 185.046875 146.839844 L 185.046875 147.320312 L 171.871094 147.320312 Z M 171.871094 146.839844 "/>
<path style=" stroke:none;fill-rule:nonzero;fill:rgb(100%,100%,100%);fill-opacity:1;" d="M 171.871094 123.785156 L 185.046875 123.785156 L 185.046875 125.878906 L 171.871094 125.878906 Z M 171.871094 123.785156 "/>
<path style=" stroke:none;fill-rule:nonzero;fill:rgb(100%,100%,100%);fill-opacity:1;" d="M 90.308594 152.53125 L 163.070312 152.53125 L 163.070312 153.785156 L 90.308594 153.785156 Z M 90.308594 152.53125 "/>
<path style=" stroke:none;fill-rule:nonzero;fill:rgb(100%,100%,100%);fill-opacity:1;" d="M 90.308594 156.480469 L 163.070312 156.480469 L 163.070312 157.738281 L 90.308594 157.738281 Z M 90.308594 156.480469 "/>
<path style=" stroke:none;fill-rule:nonzero;fill:rgb(100%,100%,100%);fill-opacity:1;" d="M 92.222656 77.613281 C 92.222656 77.613281 90.308594 86.894531 80.066406 83.898438 C 80.066406 83.898438 81.984375 91.324219 91.804688 91.324219 L 162.171875 91.324219 C 162.171875 91.324219 174.328125 90.367188 172.410156 83.71875 C 172.410156 83.71875 163.128906 86.773438 161.75 77.671875 Z M 92.222656 77.613281 "/>
<path style=" stroke:none;fill-rule:nonzero;fill:rgb(100%,100%,100%);fill-opacity:1;" d="M 91.683594 94.679688 L 91.683594 104.742188 L 97.734375 104.742188 L 97.734375 94.679688 Z M 91.683594 116.117188 L 97.734375 116.117188 L 97.734375 107.195312 L 91.683594 107.195312 Z M 91.683594 127.316406 L 97.734375 127.316406 L 97.734375 118.574219 L 91.683594 118.574219 Z M 91.683594 141.210938 L 97.734375 141.210938 L 97.734375 129.832031 L 91.683594 129.832031 Z M 91.683594 141.210938 "/>
<path style=" stroke:none;fill-rule:nonzero;fill:rgb(100%,100%,100%);fill-opacity:1;" d="M 154.683594 94.679688 L 154.683594 104.742188 L 160.734375 104.742188 L 160.734375 94.679688 Z M 154.683594 116.117188 L 160.734375 116.117188 L 160.734375 107.195312 L 154.683594 107.195312 Z M 154.683594 127.316406 L 160.734375 127.316406 L 160.734375 118.574219 L 154.683594 118.574219 Z M 154.683594 141.210938 L 160.734375 141.210938 L 160.734375 129.832031 L 154.683594 129.832031 Z M 154.683594 141.210938 "/>
<path style=" stroke:none;fill-rule:nonzero;fill:rgb(100%,100%,100%);fill-opacity:1;" d="M 91.683594 92.105469 L 160.734375 92.105469 L 160.734375 93.480469 L 91.683594 93.480469 Z M 91.683594 92.105469 "/>
<path style=" stroke:none;fill-rule:nonzero;fill:rgb(100%,100%,100%);fill-opacity:1;" d="M 98.992188 94.679688 L 98.992188 141.152344 L 112.464844 141.152344 L 112.464844 125.460938 L 112.046875 125.460938 L 112.046875 119.472656 C 112.046875 119.472656 114.082031 119.472656 114.144531 119.472656 C 115.101562 115.398438 118.273438 109.652344 125.582031 109.171875 L 126.957031 109.171875 C 134.203125 109.710938 137.558594 115.460938 138.695312 119.472656 C 138.753906 119.472656 140.851562 119.472656 140.851562 119.472656 L 140.851562 125.460938 L 140.433594 125.460938 L 140.433594 141.152344 L 153.25 141.152344 L 153.25 94.679688 C 153.25 94.679688 98.992188 94.679688 98.992188 94.679688 Z M 141.210938 107.253906 L 111.027344 107.253906 L 111.027344 98.871094 L 141.210938 98.871094 C 141.210938 98.871094 141.210938 107.253906 141.210938 107.253906 Z M 141.210938 107.253906 "/>
<path style=" stroke:none;fill-rule:nonzero;fill:rgb(100%,100%,100%);fill-opacity:1;" d="M 114.382812 124.863281 L 118.273438 124.863281 L 118.273438 141.152344 L 114.382812 141.152344 Z M 114.382812 124.863281 "/>
<path style=" stroke:none;fill-rule:nonzero;fill:rgb(100%,100%,100%);fill-opacity:1;" d="M 125.820312 141.210938 L 119.53125 141.210938 L 119.53125 128.875 L 120.492188 128.875 L 120.492188 131.988281 C 120.492188 131.988281 122.105469 132.527344 123.722656 131.507812 C 124.863281 130.789062 125.339844 128.933594 125.339844 128.933594 L 125.820312 128.933594 C 125.820312 128.933594 125.820312 141.210938 125.820312 141.210938 Z M 125.820312 141.210938 "/>
<path style=" stroke:none;fill-rule:nonzero;fill:rgb(100%,100%,100%);fill-opacity:1;" d="M 127.019531 141.210938 L 133.304688 141.210938 L 133.304688 128.875 L 132.347656 128.875 L 132.347656 131.988281 C 132.347656 131.988281 130.730469 132.527344 129.113281 131.507812 C 127.976562 130.789062 127.4375 128.933594 127.4375 128.933594 L 126.957031 128.933594 L 126.957031 141.210938 Z M 127.019531 141.210938 "/>
<path style=" stroke:none;fill-rule:nonzero;fill:rgb(100%,100%,100%);fill-opacity:1;" d="M 134.683594 124.863281 L 138.574219 124.863281 L 138.574219 141.152344 L 134.683594 141.152344 Z M 134.683594 124.863281 "/>
<path style=" stroke:none;fill-rule:nonzero;fill:rgb(100%,100%,100%);fill-opacity:1;" d="M 126.898438 111.089844 C 135.820312 111.746094 137.199219 121.390625 137.199219 121.390625 L 138.996094 121.390625 L 138.996094 123.605469 L 134.863281 123.605469 C 134.863281 123.605469 134.023438 113.664062 126.480469 113.664062 C 118.875 113.664062 118.035156 123.605469 118.035156 123.605469 L 113.902344 123.605469 L 113.902344 121.390625 L 115.699219 121.390625 C 115.699219 121.390625 116.597656 111.6875 125.582031 111.089844 Z M 126.898438 111.089844 "/>
<path style=" stroke:none;fill-rule:nonzero;fill:rgb(100%,100%,100%);fill-opacity:1;" d="M 112.167969 99.769531 L 140.074219 99.769531 L 140.074219 106.117188 L 112.167969 106.117188 Z M 112.167969 99.769531 "/>
<path style=" stroke:none;fill-rule:nonzero;fill:rgb(47.45098%,10.588235%,11.372549%);fill-opacity:1;" d="M 18.144531 103.125 C 18.144531 103.125 19.34375 102.046875 20.121094 101.265625 C 20.898438 100.488281 22.398438 98.09375 20.539062 97.316406 C 18.625 96.535156 17.367188 97.613281 16.589844 100.488281 C 15.75 103.363281 17.546875 103.78125 18.144531 103.125 Z M 18.144531 103.125 "/>
<path style=" stroke:none;fill-rule:nonzero;fill:rgb(47.45098%,10.588235%,11.372549%);fill-opacity:1;" d="M 24.195312 109.113281 C 24.195312 109.113281 24.972656 108.992188 25.570312 108.035156 C 26.171875 107.074219 26.109375 106 26.828125 107.734375 C 27.488281 109.472656 30.363281 112.167969 31.019531 110.789062 C 31.679688 109.410156 30.722656 109.171875 30.300781 107.855469 C 29.824219 106.476562 33.058594 108.753906 34.914062 109.652344 C 36.769531 110.488281 38.328125 108.453125 35.8125 107.253906 C 33.296875 106.058594 29.34375 104.441406 29.941406 104.082031 C 30.542969 103.664062 31.261719 100.789062 29.882812 100.847656 C 28.503906 100.90625 26.171875 103.304688 26.230469 101.507812 C 26.289062 99.710938 24.914062 98.570312 23.835938 99.710938 C 22.757812 100.847656 22.816406 102.046875 22.9375 104.023438 C 22.9375 105.820312 23.414062 109.472656 24.195312 109.113281 Z M 24.195312 109.113281 "/>
<path style=" stroke:none;fill-rule:nonzero;fill:rgb(47.45098%,10.588235%,11.372549%);fill-opacity:1;" d="M 20.300781 94.5 C 20.300781 94.5 21.617188 95.097656 22.21875 93.601562 C 22.816406 92.105469 23.355469 87.195312 21.617188 84.917969 C 19.882812 82.644531 18.683594 85.578125 19.34375 88.273438 C 19.941406 91.027344 19.042969 93.960938 20.300781 94.5 Z M 20.300781 94.5 "/>
<path style=" stroke:none;fill-rule:nonzero;fill:rgb(47.45098%,10.588235%,11.372549%);fill-opacity:1;" d="M 30.902344 88.03125 C 29.941406 91.324219 30.601562 92.882812 29.761719 92.703125 C 28.925781 92.523438 27.847656 89.828125 27.007812 88.210938 C 26.171875 86.59375 24.433594 86.894531 24.492188 89.230469 C 24.554688 91.566406 24.851562 92.402344 24.492188 93.363281 C 24.132812 94.320312 23.894531 94.621094 23.835938 95.277344 C 23.835938 95.277344 24.671875 97.074219 25.992188 97.195312 C 27.308594 97.253906 28.324219 96.417969 29.402344 97.195312 C 30.480469 97.972656 30.183594 100.007812 32.277344 100.847656 C 34.316406 101.6875 37.546875 103.003906 38.085938 100.1875 C 38.566406 97.375 38.445312 95.878906 39.644531 94.320312 C 40.84375 92.761719 38.6875 91.265625 37.007812 88.75 C 35.273438 86.117188 31.859375 84.738281 30.902344 88.03125 Z M 35.691406 99.351562 C 35.214844 100.070312 34.554688 98.992188 34.554688 98.992188 C 34.253906 98.511719 34.792969 97.015625 35.453125 97.375 C 36.109375 97.734375 36.171875 98.632812 35.691406 99.351562 Z M 27.128906 92.34375 C 27.605469 93.003906 28.566406 93.363281 28.207031 94.082031 C 27.847656 94.738281 26.710938 93.480469 26.710938 93.480469 C 26.230469 93.183594 26.648438 91.746094 27.128906 92.34375 Z M 36.230469 92.582031 C 36.410156 94.800781 36.289062 95.578125 35.75 95.339844 C 35.214844 95.097656 35.035156 94.679688 35.394531 93.78125 C 35.75 92.882812 34.675781 91.683594 34.554688 92.042969 C 34.375 92.464844 33.476562 93.542969 33.476562 93.542969 C 32.578125 93.722656 33.175781 92.042969 33.65625 90.847656 C 34.074219 89.710938 35.992188 90.367188 36.230469 92.582031 Z M 36.230469 92.582031 "/>
<path style=" stroke:none;fill-rule:nonzero;fill:rgb(47.45098%,10.588235%,11.372549%);fill-opacity:1;" d="M 65.695312 53.359375 C 64.019531 53.65625 63.058594 55.273438 61.023438 56.773438 C 59.046875 58.269531 56.832031 59.105469 56.171875 58.449219 C 55.515625 57.851562 55.09375 56.953125 56.773438 55.09375 C 58.449219 53.296875 57.789062 52.28125 56.832031 52.160156 C 55.933594 52.039062 55.632812 51.980469 55.09375 53 C 54.617188 54.015625 53.238281 55.394531 53.539062 54.375 C 53.898438 53.296875 54.015625 51.742188 53.539062 51.742188 C 53.058594 51.742188 52.460938 52.640625 52.101562 52.878906 C 51.742188 53.117188 51.621094 52.398438 52.339844 51.144531 C 53 49.824219 52.21875 48.808594 51.441406 49.945312 C 50.722656 51.082031 49.824219 51.679688 49.40625 51.441406 C 48.988281 51.144531 50.664062 48.628906 52.21875 47.070312 C 53.777344 45.453125 52.9375 44.554688 51.800781 44.675781 C 50.664062 44.792969 48.925781 46.113281 49.046875 45.152344 C 49.167969 44.195312 48.507812 42.820312 47.488281 43.65625 C 46.472656 44.496094 46.710938 45.632812 45.933594 46.292969 C 45.214844 46.949219 44.496094 47.070312 43.894531 46.472656 C 43.296875 45.871094 41.5625 46.769531 41.921875 47.667969 C 42.28125 48.566406 43.058594 48.628906 43.476562 48.746094 C 43.957031 48.867188 45.332031 49.40625 44.914062 50.003906 C 44.433594 50.605469 43.476562 51.742188 44.015625 52.339844 C 44.554688 53 45.753906 52.460938 46.292969 51.921875 C 46.832031 51.382812 47.667969 52.460938 47.25 52.9375 C 46.769531 53.417969 45.992188 54.375 45.8125 55.453125 C 45.632812 56.59375 45.035156 56.773438 44.433594 56.773438 C 43.835938 56.773438 40.722656 58.808594 41.5625 59.707031 C 41.5625 59.707031 41.921875 60.84375 43.058594 60.484375 C 44.195312 60.125 45.035156 60.246094 45.214844 61.203125 C 45.394531 62.222656 47.011719 63.179688 48.386719 63.238281 C 49.765625 63.359375 50.722656 64.257812 50.246094 64.558594 C 49.707031 64.855469 48.089844 65.816406 48.089844 66.773438 C 48.089844 67.730469 49.347656 68.089844 49.824219 67.550781 C 50.304688 67.011719 50.722656 66.59375 51.382812 67.609375 C 52.039062 68.570312 51.621094 69.46875 52.101562 70.84375 C 52.578125 72.222656 54.617188 69.945312 53.476562 67.671875 C 52.339844 65.394531 52.519531 64.976562 54.257812 64.738281 C 55.992188 64.496094 60.964844 63 64.199219 59.824219 C 67.492188 56.710938 67.371094 53.058594 65.695312 53.359375 Z M 49.347656 55.15625 C 48.808594 55.695312 48.089844 56.472656 48.628906 56.953125 C 49.167969 57.492188 49.585938 57.191406 50.066406 56.652344 C 50.605469 56.113281 51.320312 56.832031 50.964844 57.371094 C 50.605469 57.96875 50.304688 58.929688 50.722656 59.285156 C 51.144531 59.707031 51.144531 59.886719 51.742188 59.285156 C 52.398438 58.628906 53 59.285156 52.757812 59.707031 C 52.460938 60.125 52.101562 60.785156 52.398438 61.023438 C 52.757812 61.261719 55.09375 60.425781 54.914062 61.261719 C 54.734375 62.160156 52.519531 63.417969 51.5 62.640625 C 50.484375 61.921875 49.226562 60.664062 48.566406 61.261719 C 47.847656 61.863281 45.933594 59.824219 46.351562 58.6875 C 46.769531 57.492188 47.96875 55.875 47.609375 55.453125 C 47.308594 55.035156 48.328125 52.9375 49.046875 53.597656 C 49.105469 53.65625 49.824219 54.617188 49.347656 55.15625 Z M 49.347656 55.15625 "/>
<path style=" stroke:none;fill-rule:nonzero;fill:rgb(47.45098%,10.588235%,11.372549%);fill-opacity:1;" d="M 90.726562 26.890625 C 90.007812 27.007812 88.332031 27.25 88.75 26.769531 C 89.171875 26.289062 89.648438 25.632812 89.46875 24.671875 C 89.289062 23.714844 89.46875 22.457031 90.128906 20.960938 C 90.847656 19.464844 89.410156 18.804688 89.410156 18.804688 C 89.050781 18.207031 87.972656 18.925781 87.554688 19.644531 C 87.132812 20.359375 86.414062 21.019531 84.859375 21.558594 C 83.300781 22.097656 83 23.296875 83.121094 24.074219 C 83.300781 24.851562 84.019531 26.171875 84.679688 26.949219 C 85.335938 27.726562 84.917969 29.34375 85.039062 30.601562 C 85.21875 31.859375 84.078125 32.398438 83.960938 33.417969 C 83.839844 34.433594 85.335938 34.316406 85.636719 35.8125 C 85.9375 37.308594 87.433594 37.488281 88.273438 36.050781 C 89.109375 34.554688 90.070312 34.496094 90.667969 34.195312 C 91.265625 33.894531 91.324219 31.800781 91.144531 30.839844 C 90.964844 29.882812 91.085938 29.644531 91.804688 28.265625 C 92.644531 26.890625 91.445312 26.710938 90.726562 26.890625 Z M 85.996094 23.476562 C 86.535156 23.355469 87.3125 23.117188 87.375 23.355469 C 87.375 23.355469 88.09375 25.09375 87.492188 25.210938 C 86.835938 25.332031 86.117188 25.632812 85.875 24.792969 C 85.578125 23.953125 85.457031 23.535156 85.996094 23.476562 Z M 88.8125 32.9375 C 87.914062 33.175781 86.953125 32.996094 86.835938 32.578125 C 86.773438 32.160156 87.433594 31.800781 87.671875 31.738281 C 87.914062 31.679688 87.613281 31.082031 88.929688 30.960938 C 88.929688 30.960938 89.710938 32.699219 88.8125 32.9375 Z M 88.8125 32.9375 "/>
<path style=" stroke:none;fill-rule:nonzero;fill:rgb(47.45098%,10.588235%,11.372549%);fill-opacity:1;" d="M 99.949219 18.324219 C 101.746094 17.964844 102.882812 16.589844 102.765625 15.628906 C 102.644531 14.671875 102.40625 14.132812 100.789062 15.089844 C 99.171875 16.050781 96.894531 16.886719 95.636719 18.144531 C 94.378906 19.34375 91.207031 19.761719 91.804688 21.140625 C 91.804688 21.140625 91.804688 22.039062 92.703125 21.976562 C 93.601562 21.859375 94.5 21.140625 94.980469 21.617188 C 95.457031 22.097656 96.117188 22.9375 95.878906 23.59375 C 95.578125 24.253906 92.34375 24.253906 92.523438 26.53125 C 92.703125 28.804688 93.003906 32.578125 93.960938 32.636719 C 94.859375 32.699219 95.757812 31.621094 95.457031 30.242188 C 95.160156 28.804688 95.160156 26.710938 95.519531 26.648438 C 95.816406 26.589844 96.058594 24.671875 96.535156 27.1875 C 97.015625 29.703125 97.136719 30.003906 97.316406 32.039062 C 97.433594 34.074219 98.152344 36.289062 98.570312 38.148438 C 98.992188 40.003906 101.328125 40.664062 101.085938 37.90625 C 100.726562 35.152344 100.1875 31.738281 100.007812 30.902344 C 99.828125 30.003906 100.429688 29.285156 100.726562 29.882812 C 101.027344 30.480469 101.148438 31.738281 102.523438 31.679688 C 103.902344 31.558594 104.859375 28.386719 104.5625 26.53125 C 104.320312 24.671875 103.484375 24.195312 103.722656 23.117188 C 104.023438 22.039062 103.902344 20.359375 103.125 20.539062 C 102.34375 20.660156 101.867188 20.601562 100.25 21.4375 C 98.691406 22.21875 98.09375 21.257812 97.972656 20.71875 C 97.914062 20.121094 98.152344 18.683594 99.949219 18.324219 Z M 100.726562 23.65625 C 101.746094 23.894531 101.386719 25.632812 101.625 27.007812 C 101.867188 28.324219 99.828125 28.324219 99.710938 27.785156 C 99.589844 27.25 98.75 24.375 98.75 24.375 C 98.273438 23.117188 99.710938 23.414062 100.726562 23.65625 Z M 100.726562 23.65625 "/>
<path style=" stroke:none;fill-rule:nonzero;fill:rgb(47.45098%,10.588235%,11.372549%);fill-opacity:1;" d="M 160.496094 15.269531 C 160.496094 15.269531 159.835938 17.785156 159.175781 17.964844 C 158.578125 18.085938 157.917969 19.164062 157.980469 19.703125 C 158.039062 20.300781 156.722656 21.976562 157.859375 22.695312 C 159.058594 23.414062 159.597656 21.257812 161.992188 20.539062 C 164.328125 19.820312 164.507812 18.265625 164.027344 17.726562 C 163.546875 17.1875 163.007812 16.109375 162.589844 15.449219 C 162.109375 14.910156 160.855469 14.253906 160.496094 15.269531 Z M 160.496094 15.269531 "/>
<path style=" stroke:none;fill-rule:nonzero;fill:rgb(47.45098%,10.588235%,11.372549%);fill-opacity:1;" d="M 166.0625 34.433594 C 163.667969 34.433594 163.070312 35.214844 159.714844 35.035156 C 156.421875 34.855469 154.085938 33.597656 154.445312 32.398438 C 154.746094 31.199219 155.703125 31.621094 157.082031 31.441406 C 158.519531 31.261719 159.417969 30.183594 160.195312 29.164062 C 160.972656 28.144531 162.171875 24.734375 160.613281 24.972656 C 159.058594 25.152344 157.859375 25.390625 156.542969 26.109375 C 155.222656 26.769531 153.007812 27.964844 152.410156 27.25 C 151.8125 26.53125 151.929688 24.851562 152.351562 24.015625 C 152.769531 23.175781 152.410156 21.617188 153.308594 21.140625 C 154.144531 20.660156 155.703125 21.5 156.121094 20.539062 C 156.542969 19.644531 156.363281 18.445312 155.285156 17.726562 C 154.207031 17.007812 152.769531 14.910156 151.929688 15.988281 C 151.929688 15.988281 151.152344 16.589844 150.792969 17.605469 C 150.433594 18.625 149.054688 19.105469 148.335938 19.882812 C 147.679688 20.660156 147.859375 21.976562 148.816406 22.21875 C 149.773438 22.515625 150.671875 21.320312 150.734375 22.097656 C 150.851562 22.9375 151.332031 23.773438 150.851562 24.132812 C 150.375 24.492188 148.757812 24.792969 148.039062 25.691406 C 147.320312 26.589844 146.898438 27.726562 146.421875 27.726562 C 145.941406 27.726562 145.582031 28.085938 145.164062 29.703125 C 144.746094 31.320312 145.941406 32.457031 146.539062 32.398438 C 147.140625 32.339844 146.78125 33.238281 146.121094 33.355469 C 145.464844 33.417969 141.808594 34.195312 140.851562 35.332031 C 139.894531 36.53125 141.570312 37.90625 143.246094 37.007812 C 144.925781 36.109375 146.121094 34.972656 145.761719 35.992188 C 145.402344 37.007812 144.566406 38.386719 145.285156 39.285156 C 146 40.183594 147.617188 39.585938 147.859375 38.6875 L 148.9375 34.734375 C 149.054688 34.195312 149.714844 33.597656 150.613281 33.957031 C 151.453125 34.316406 152.769531 34.316406 152.53125 35.75 C 152.289062 37.1875 152.710938 37.667969 156.601562 39.046875 C 160.496094 40.421875 163.789062 40.0625 164.746094 38.867188 C 165.585938 37.847656 168.460938 34.496094 166.0625 34.433594 Z M 156.363281 28.386719 C 156.722656 28.324219 157.140625 27.605469 157.679688 27.785156 C 158.21875 27.90625 157.859375 28.503906 156.839844 29.164062 C 155.761719 29.824219 155.882812 29.703125 155.761719 29.105469 C 155.582031 28.503906 156.363281 28.386719 156.363281 28.386719 Z M 149.054688 28.324219 C 148.335938 28.386719 149.296875 27.007812 149.296875 27.007812 C 149.714844 26.890625 149.59375 26.949219 149.835938 27.308594 C 150.132812 27.726562 149.773438 28.265625 149.054688 28.324219 Z M 151.992188 32.398438 C 151.390625 32.878906 150.015625 31.917969 150.195312 31.441406 C 150.3125 30.902344 151.09375 30.421875 151.632812 30.542969 C 152.171875 30.660156 152.289062 29.703125 152.289062 29.703125 C 152.710938 28.746094 153.070312 29.824219 153.007812 30.542969 C 152.949219 31.199219 152.589844 31.917969 151.992188 32.398438 Z M 151.992188 32.398438 "/>
<path style=" stroke:none;fill-rule:nonzero;fill:rgb(47.45098%,10.588235%,11.372549%);fill-opacity:1;" d="M 208.582031 48.386719 C 208.582031 48.386719 207.566406 48.808594 207.683594 49.644531 C 207.804688 50.484375 203.550781 53.359375 202.832031 53.777344 C 202.113281 54.195312 201.574219 54.015625 200.558594 53.117188 C 199.601562 52.21875 197.683594 49.226562 196.84375 49.824219 C 196.066406 50.425781 195.289062 51.742188 195.945312 53.058594 C 196.605469 54.375 197.804688 55.992188 196.964844 56.234375 C 196.125 56.472656 191.035156 55.035156 189.417969 55.273438 C 187.863281 55.515625 188.339844 58.03125 191.933594 58.570312 C 195.527344 59.105469 197.324219 59.585938 198.523438 59.105469 C 199.71875 58.628906 200.738281 59.167969 200.617188 60.003906 C 200.5 60.84375 197.265625 67.429688 199.71875 71.382812 C 202.113281 75.335938 206.785156 76.113281 205.109375 72.28125 C 203.433594 68.507812 203.132812 63.777344 203.492188 62.042969 C 203.851562 60.304688 203.550781 59.105469 205.289062 60.183594 C 207.027344 61.261719 210.257812 64.199219 211.277344 63.417969 C 212.355469 62.640625 212.355469 59.765625 210.140625 58.988281 C 207.925781 58.269531 206.308594 57.429688 206.488281 56.652344 C 206.667969 55.933594 208.644531 54.257812 209.660156 54.675781 C 210.738281 55.15625 212.117188 53.65625 211.757812 52.28125 C 211.578125 50.902344 209.421875 47.847656 208.582031 48.386719 Z M 208.582031 48.386719 "/>
<path style=" stroke:none;fill-rule:nonzero;fill:rgb(47.45098%,10.588235%,11.372549%);fill-opacity:1;" d="M 235.949219 111.925781 C 235.292969 110.191406 234.871094 108.992188 235.171875 108.933594 C 235.472656 108.8125 236.070312 108.152344 236.667969 108.871094 C 237.269531 109.589844 239.003906 108.574219 240.5625 108.871094 C 242.117188 109.171875 243.195312 109.53125 244.753906 108.691406 C 246.371094 107.855469 244.753906 105.460938 243.855469 105.699219 C 242.957031 105.9375 242.898438 105.878906 242.476562 104.742188 C 242.058594 103.601562 241.9375 103.183594 242.476562 103.0625 C 243.015625 102.882812 243.316406 101.804688 242.597656 100.667969 C 241.878906 99.589844 240.203125 100.007812 239.363281 99.589844 C 238.527344 99.171875 237.925781 100.789062 237.148438 101.148438 C 236.371094 101.445312 236.550781 100.1875 237.449219 98.929688 C 238.40625 97.675781 237.207031 96.476562 236.488281 97.375 C 235.769531 98.214844 233.855469 99.949219 233.015625 99.589844 C 232.179688 99.289062 232.476562 98.632812 233.792969 97.914062 C 235.113281 97.195312 234.394531 96.117188 234.394531 96.117188 C 234.09375 95.578125 233.855469 95.878906 232.957031 96.117188 C 232.058594 96.355469 231.699219 97.675781 230.5625 98.691406 C 229.421875 99.648438 227.625 99.410156 227.625 98.632812 C 227.625 97.914062 228.164062 96.835938 226.667969 95.996094 C 225.230469 95.097656 220.261719 97.613281 223.316406 99.109375 C 226.308594 100.667969 230.261719 105.757812 231.28125 106.894531 C 232.355469 108.035156 232.117188 109.949219 231.578125 110.128906 C 231.039062 110.308594 229.902344 111.628906 230.621094 112.167969 C 231.339844 112.707031 231.398438 113.722656 232.835938 114.5 C 234.453125 115.339844 236.609375 113.664062 235.949219 111.925781 Z M 233.136719 107.195312 C 232.714844 106.355469 233.734375 105.578125 233.734375 105.578125 C 234.574219 105.878906 234.871094 106.777344 234.332031 107.675781 C 233.734375 108.574219 233.496094 108.035156 233.136719 107.195312 Z M 238.527344 104.441406 C 238.226562 103.484375 240.144531 103.664062 240.144531 103.664062 C 240.441406 103.664062 240.5625 104.5625 240.800781 105.398438 C 241.039062 106.238281 240.800781 106.535156 240.082031 106.714844 C 239.304688 106.894531 238.824219 105.398438 238.527344 104.441406 Z M 238.527344 104.441406 "/>
<path style=" stroke:none;fill-rule:nonzero;fill:rgb(47.45098%,10.588235%,11.372549%);fill-opacity:1;" d="M 224.871094 102.34375 C 224.871094 102.34375 223.613281 102.644531 223.554688 103.84375 C 223.496094 105.039062 222.597656 105.519531 222.238281 104.800781 C 221.878906 104.082031 221.160156 101.328125 220.199219 101.085938 C 219.242188 100.90625 216.429688 102.523438 218.164062 103.542969 C 219.902344 104.5625 220.320312 105.398438 220.261719 105.820312 C 220.199219 106.238281 217.863281 107.375 216.785156 107.195312 C 215.710938 107.015625 215.109375 105.339844 213.671875 105.578125 C 212.234375 105.820312 211.335938 107.136719 212.773438 108.8125 C 214.210938 110.488281 216.964844 110.789062 219.78125 109.890625 C 222.597656 108.992188 223.074219 108.453125 223.496094 109.949219 C 223.914062 111.449219 224.214844 114.023438 225.109375 113.785156 C 226.007812 113.542969 227.386719 111.507812 226.789062 110.429688 C 226.25 109.292969 224.929688 109.050781 225.46875 108.453125 C 226.007812 107.914062 226.726562 108.332031 227.445312 109.230469 C 228.226562 110.128906 228.882812 109.472656 229.183594 108.8125 C 229.484375 108.152344 229.601562 107.496094 228.824219 106.417969 C 228.046875 105.460938 226.308594 101.566406 224.871094 102.34375 Z M 224.871094 102.34375 "/>
</g>
</svg>
