<?xml version="1.0" encoding="UTF-8" standalone="no"?>
<!-- Generator: Adobe Illustrator 24.0.1, SVG Export Plug-In . SVG Version: 6.00 Build 0)  -->

<svg
   version="1.1"
   id="图层_1"
   x="0px"
   y="0px"
   viewBox="0 0 219.26 219.25999"
   xml:space="preserve"
   sodipodi:docname="2a69b36bdd3a4be795ace6d015780152.svg"
   width="219.25999"
   height="219.25999"
   inkscape:version="1.2 (dc2aedaf03, 2022-05-15)"
   xmlns:inkscape="http://www.inkscape.org/namespaces/inkscape"
   xmlns:sodipodi="http://sodipodi.sourceforge.net/DTD/sodipodi-0.dtd"
   xmlns:xlink="http://www.w3.org/1999/xlink"
   xmlns="http://www.w3.org/2000/svg"
   xmlns:svg="http://www.w3.org/2000/svg"><defs
   id="defs963" /><sodipodi:namedview
   id="namedview961"
   pagecolor="#ffffff"
   bordercolor="#000000"
   borderopacity="0.25"
   inkscape:showpageshadow="2"
   inkscape:pageopacity="0.0"
   inkscape:pagecheckerboard="0"
   inkscape:deskcolor="#d1d1d1"
   showgrid="false"
   inkscape:zoom="2.2888178"
   inkscape:cx="7.2089619"
   inkscape:cy="123.64462"
   inkscape:window-width="1440"
   inkscape:window-height="829"
   inkscape:window-x="-8"
   inkscape:window-y="-8"
   inkscape:window-maximized="1"
   inkscape:current-layer="g958" />
<style
   type="text/css"
   id="style2">
	.st0{clip-path:url(#SVGID_2_);fill:#0A2D88;}
	.st1{clip-path:url(#SVGID_2_);}
	.st2{clip-path:url(#SVGID_2_);fill:#898989;}
</style>
<g
   id="g958"
   transform="translate(-200.78,-426.85)">
	<defs
   id="defs5">
		<rect
   id="SVGID_1_"
   width="612.28998"
   height="824.88"
   x="0"
   y="0" />
	</defs>
	<clipPath
   id="SVGID_2_">
		<use
   xlink:href="#SVGID_1_"
   style="overflow:visible"
   id="use7" />
	</clipPath>
	
	
	
	
	
	
	
	
	
	
	
	
	
	
	
	
	
	
	
	
	
	
	
	
	
	
	
	
	
	
	
	
	
	
	
	
	
	
	
	
	
	
	
	
	
	
	
	
	
	
	
	
	
	
	
	
	
	
	
	
	
	
	
	
	
	
	
	
	
	
	
	
	
	
	
	
	
	
	
	
	
	
	
	
	
	
	
	
	
	
	
	
	
	
	
	
	
	
	
	
	
	
	
	
	
	
	
	
	
	
	
	
	
	
	
	
	
	
	
	
	
	
	
	
	
	
	
	
	
	
	
	
	
	
	
	
	
	
	
	
	
	
	
	
	
	
	
	
	
	
	
	
	
	
	
	
	
	
	
	
	
	
	
	
	
	
	
	
	
	
	
	
	
	
	
	
	
	
	
	
	
	
	
	
	
	
	
	
	
	
	
	
	
	
	
	
	
	
	
	
	
	
	
	
	
	
	
	
	
	
	
	
	
	
	
	
	
	
	
	
	
	
	
	
	
	
	
	
	
	
	
	
	
	
	
	
	
	
	
	
	
	
	
	
	
	
	
	
	
	
	
	
	
	
	
	
	
	
	
	
	
	
	
	
	
	
	
	
	
	
	
	
	
	
	
	
	
	
	
	
	
	
	
	
	
	
	
	
	
	
	
	
	
	
	
	
	
	
	
	
	
	
	
	
	
	
	
	
	
	
	
	
	
	
	
	
	
	
	
	
	
	
	
	
	
	
	
	
	
	
	
	
	
	
	
	
	
	
	
	
	
	
	
	
	
	
	
	
	
	
	
	<path
   class="st0"
   d="m 310.41,426.85 c -60.45,0 -109.63,49.18 -109.63,109.63 0,60.45 49.18,109.63 109.63,109.63 60.45,0 109.63,-49.18 109.63,-109.63 -0.01,-60.44 -49.19,-109.63 -109.63,-109.63 m 0,214.38 c -57.76,0 -104.75,-46.99 -104.75,-104.75 0,-57.75 46.99,-104.75 104.75,-104.75 57.76,0 104.75,46.99 104.75,104.75 -0.01,57.76 -47,104.75 -104.75,104.75"
   clip-path="url(#SVGID_2_)"
   id="path712"
   style="fill:#092c87;fill-opacity:1" />
	<path
   class="st0"
   d="m 253.79,469.37 c 0.2,0.33 0.52,0.59 0.65,0.96 0.29,0.81 -0.27,2.16 -0.69,2.85 -0.5,0.8 0.65,1.86 1.43,1.41 0.68,-0.41 0.32,-1.55 0.47,-2.26 0,-0.03 0.01,-0.08 0.04,-0.15 0.64,1.52 0.79,3.21 1.45,4.73 0.22,0.52 0.71,1.73 1.44,1.55 0.69,-0.16 0.93,-0.96 1.05,-1.56 0.15,-0.78 0.21,-1.61 0.43,-2.37 0.21,-0.75 0.25,-1.46 0.37,-2.23 0.05,-0.34 0.24,-2.06 0.87,-1.59 0.57,0.44 1.21,1.09 1.56,1.73 -0.01,0 0.23,0.42 0.39,0.4 0.33,-0.06 0.72,0.14 1.07,0.19 0.53,0.07 0.98,-0.22 1.51,-0.34 0.63,-0.14 0.46,2.08 0.51,2.53 0.33,-0.8 0.8,-1.63 1.03,-2.48 0.18,-0.65 0.21,-1.8 -0.52,-2.1 -0.74,-0.3 -1.73,0.48 -2.45,0.63 -0.5,0.1 -0.77,-0.23 -1.08,-0.57 -0.31,-0.36 -0.67,-0.68 -0.97,-1.06 -0.7,-0.86 -0.63,-1.44 -0.32,-2.46 0.14,-0.46 0.44,-1.05 0.45,-1.54 0,-0.43 -0.3,-0.5 -0.51,-0.79 -0.16,-0.23 -0.32,-0.66 -0.61,-0.34 -0.29,0.33 -0.64,0.65 -0.89,1.02 -0.15,0.21 -0.52,0.83 -0.29,1.01 0.21,0.18 0.04,0.4 -0.08,0.58 -0.22,-0.22 -0.63,-0.81 -0.67,-1.14 -0.01,-0.04 -0.34,-0.22 -0.38,-0.26 -0.21,-0.19 -0.16,-0.38 -0.28,-0.61 -0.1,-0.2 -0.32,-0.31 -0.46,-0.49 -0.17,-0.21 -0.29,-0.46 -0.41,-0.71 -0.24,-0.47 -0.49,-0.94 -0.79,-1.38 -0.31,-0.47 -0.67,-0.93 -1.04,-1.35 -0.38,-0.43 -0.76,-0.62 -1.23,-0.92 -0.44,-0.29 -0.87,0.12 -1.2,0.4 -0.38,0.32 -0.44,0.65 -0.36,1.12 0.19,1.07 1.25,1.33 2.01,1.91 0.48,0.36 0.84,0.67 1.2,1.16 0.33,0.42 0.67,0.84 0.99,1.26 0.39,0.5 0.77,1 1.14,1.51 0.33,0.44 0.69,0.84 0.8,1.38 0.17,0.9 0.19,2.28 -0.38,3.04 -0.77,-0.68 -1.51,-1.5 -1.91,-2.47 -0.23,-0.56 -0.34,-1.09 -0.67,-1.6 -0.28,-0.44 -0.53,-0.92 -0.86,-1.31 -0.16,-0.2 -0.78,-0.7 -1.05,-0.63 -0.38,0.1 -0.7,-0.24 -1.08,-0.21 -0.47,0.05 -0.81,0.39 -0.94,0.84 -0.13,0.46 0.12,0.79 0.34,1.19 0.3,0.52 0.61,1.02 0.92,1.52 m 3.36,4.81 c 0.36,0.04 0.5,0.34 0.78,0.52 0.29,0.18 0.55,0.31 0.88,0.36 -0.05,0.55 -0.01,1.54 -0.31,2 -0.29,0.45 -0.55,-0.23 -0.68,-0.49 -0.27,-0.56 -0.7,-1.43 -0.69,-2.12 -0.01,-0.04 -0.01,-0.12 0.02,-0.27"
   clip-path="url(#SVGID_2_)"
   id="path714"
   style="fill:#092c87;fill-opacity:1" />
	<path
   class="st0"
   d="m 287.22,458.83 c 0.78,0.29 1.96,-0.62 2.63,-0.96 0.39,-0.19 0.86,-0.23 1.25,-0.41 0.42,-0.19 0.81,-0.4 1.24,-0.54 0.86,-0.31 1.7,-0.26 2.6,-0.31 0.72,-0.05 1.6,-0.16 1.96,-0.84 0.33,-0.6 0.43,-1.73 -0.28,-2.12 -0.73,-0.4 -1.51,-0.23 -2.27,-0.33 0.23,-1.27 0.62,-2.4 0.06,-3.63 -0.31,-0.69 -1.14,-1.05 -1.88,-0.94 -0.28,0.04 -0.63,0.03 -0.88,0.14 -0.36,0.17 -0.71,0.38 -1.04,0.58 -0.41,0.25 -0.81,0.5 -1.21,0.76 -0.31,0.2 -0.53,0.22 -0.72,0.52 -0.18,0.28 -0.52,0.35 -0.62,0.7 -0.08,0.31 0.07,0.62 0.28,0.83 0.19,0.19 0.56,0.61 0.84,0.64 0.34,0.03 0.69,0.08 1.04,0.05 0.4,-0.03 0.76,-0.32 1.1,-0.5 0.49,-0.26 0.46,0 0.35,0.43 -0.21,0.98 -0.7,1.48 -1.56,1.94 -0.81,0.45 -1.62,0.91 -2.4,1.41 -0.55,0.34 -1.49,0.81 -1.6,1.53 -0.1,0.68 0.62,0.87 1.11,1.05"
   clip-path="url(#SVGID_2_)"
   id="path716"
   style="fill:#092c87;fill-opacity:1" />
	<path
   class="st0"
   d="m 353.51,471.9 c 0.34,0.22 0.88,0.6 1.29,0.66 0.48,0.05 1.02,0.33 1.5,0.29 0.86,-0.08 1.68,-0.13 2.51,-0.4 0.52,-0.17 1.04,-0.39 1.52,-0.65 0.24,-0.13 0.48,-0.27 0.72,-0.42 0.16,-0.11 0.64,-0.31 0.7,-0.48 0.16,0.16 -0.01,0.85 -0.04,1.07 -0.08,0.59 -0.13,1.18 -0.15,1.76 -0.03,1.16 -0.12,2.48 0.23,3.59 0.31,0.97 0.61,1.81 1.54,2.36 0.5,0.29 1.01,0.53 1.55,0.77 0.23,0.1 0.47,0.25 0.71,0.3 0.39,0.08 0.14,-0.45 0.1,-0.64 v -0.02 c -0.19,-0.78 -0.67,-1.5 -0.96,-2.26 -0.35,-0.88 -0.8,-1.8 -0.95,-2.74 -0.14,-0.8 -0.3,-1.81 -0.17,-2.62 0.14,-0.83 -0.14,-1.63 -0.71,-2.22 0.48,-0.34 1.09,-0.58 1.62,-0.86 0.52,-0.28 0.93,-0.36 1.51,-0.19 0.33,0.1 1.38,0.75 1.67,0.55 0.34,-0.25 0.77,-0.69 0.74,-1.15 -0.04,-0.51 -0.72,-0.89 -1.13,-1.02 -0.18,-0.05 -0.57,-0.22 -0.34,-0.43 0.3,-0.27 0.61,-0.53 0.91,-0.8 0.46,-0.42 0.81,-0.88 0.82,-1.52 0,-0.46 -0.51,-1.44 -0.93,-1.67 -0.5,-0.27 -0.83,1.06 -0.93,1.29 -0.25,0.57 -0.66,1.21 -1.03,1.7 -0.12,0.16 -0.35,0.14 -0.54,0.16 -0.28,0.02 -0.46,0.2 -0.78,0.16 -0.66,-0.09 -1.32,-0.21 -1.98,-0.31 -0.57,-0.08 -1.19,-0.08 -1.72,-0.3 -0.63,-0.24 -0.74,0.36 -0.71,0.87 0.04,0.56 0.05,1.19 0.48,1.61 0.36,0.37 1.2,0.34 1.69,0.43 -1.1,0.89 -2.42,1.61 -3.74,2.09 -1.77,0.64 -3.43,0.68 -5.25,0.37 -0.78,-0.11 0.04,0.54 0.25,0.67"
   clip-path="url(#SVGID_2_)"
   id="path718"
   style="fill:#092c87;fill-opacity:1" />
	<path
   class="st0"
   d="m 323.32,452.12 c 0.9,0.01 1.91,-0.38 2.79,-0.56 0.9,-0.18 1.79,-0.31 2.7,-0.39 0.43,-0.03 0.27,0.57 0.29,0.86 0.03,0.33 0.18,0.86 0.07,1.17 -0.1,0.27 -0.69,0.35 -0.91,0.41 -0.21,0.07 -0.43,0.14 -0.63,0.19 -0.03,0.16 -0.07,0.31 -0.11,0.46 0.71,0.1 1.38,0.35 2.02,0.66 -0.41,0.14 -0.71,0.25 -1.15,0.27 -0.36,0.01 -0.76,0.31 -0.88,0.66 -0.32,0.88 1.2,0.91 1.72,1 -0.35,0.61 -0.49,0.75 -1.21,0.86 -0.43,0.07 -1.2,0.26 -1.62,0.1 -0.83,-0.32 -1.59,0.8 -0.99,1.47 0.37,0.43 1.15,0.32 1.67,0.3 0.28,-0.02 0.61,-0.08 0.88,-0.01 0.23,0.07 0.17,0.26 0.13,0.47 -0.05,0.3 -0.35,0.39 -0.59,0.5 -0.28,0.13 -0.24,-0.14 -0.53,-0.06 -0.07,0.02 -0.34,0.2 -0.41,0.17 -0.48,-0.19 -1.08,0.14 -1.62,0 -0.41,-0.11 -0.15,-0.52 -0.17,-0.81 -0.04,-0.51 -0.85,0.19 -0.98,0.36 -0.27,0.33 -0.65,0.76 -0.75,1.17 -0.1,0.38 -0.06,1.26 0.41,1.41 0.48,0.16 1.03,-0.14 1.41,-0.39 0.37,-0.24 0.87,-0.63 1.33,-0.68 0.4,-0.05 0.69,-0.44 1.07,-0.43 0.01,0 0.25,0.03 0.24,0.09 -0.04,0.02 -0.08,0.05 -0.14,0.1 0.37,0.09 0.22,0.42 0.06,0.72 -0.11,0.2 -0.24,0.27 -0.46,0.26 0.1,0.52 -0.3,1.03 -0.2,1.53 0.1,0.43 0.61,0.33 0.9,0.19 0.85,-0.41 0.85,-1.56 1.21,-2.34 0.27,-0.57 1.43,-0.11 1.83,-0.01 0.28,0.08 1.4,0.33 0.85,0.7 -0.27,0.19 -0.63,0.24 -0.84,0.52 0.7,0.2 1.56,0.64 2.28,0.32 0.61,-0.27 0.92,-0.81 0.68,-1.48 -0.28,-0.73 -0.96,-0.93 -1.63,-1.17 -0.24,-0.08 -0.67,-0.35 -0.93,-0.29 -0.22,0.07 -0.16,0.04 -0.39,-0.07 -0.09,-0.03 -0.13,-0.01 -0.14,0.05 -0.01,0.01 -1.65,0.31 -1.15,-0.42 0.31,-0.45 1.38,-0.06 1.85,-0.22 0.43,-0.15 0.71,-0.98 0.58,-1.37 -0.19,-0.55 -0.74,-0.65 -1.26,-0.84 0.1,-0.31 0.29,-0.61 0.59,-0.77 0.28,-0.16 0.61,-0.1 0.9,-0.25 0.67,-0.35 0.63,-1.02 0.18,-1.52 1.09,-0.23 1.59,-0.82 1.32,-1.97 0.28,-0.34 0.58,-0.75 0.44,-1.21 -0.09,-0.27 -0.6,-0.78 -0.07,-0.78 1.04,0.01 2.07,0.22 3.1,0.37 0.44,0.07 0.9,0.16 1.36,0.17 0.36,0 0.51,-0.28 0.77,-0.47 0.26,-0.21 0.41,-0.85 0.27,-1.16 -0.17,-0.4 -0.4,-0.63 -0.85,-0.71 -0.26,-0.05 -0.78,-0.39 -1,-0.17 -0.06,0.05 -0.49,-0.05 -0.57,-0.05 -0.21,0 -0.42,0.05 -0.64,0.07 -0.49,0.04 -0.98,-0.05 -1.47,-0.01 -0.26,0.02 -0.34,0.23 -0.58,0.18 -0.18,-0.03 -0.36,-0.11 -0.54,-0.12 -0.42,-0.04 -0.87,0.24 -1.26,0.14 -0.28,-0.07 -1.04,0.06 -1.14,-0.25 2.23,-0.35 4.41,-1.41 6.15,-2.85 0.58,-0.48 1.26,-2.02 0.14,-2.34 -0.24,-0.07 -0.43,0.01 -0.66,0.07 -0.29,0.07 -0.25,0.16 -0.42,0.39 -0.17,0.24 -0.46,0.64 -0.78,0.71 0.11,-0.56 -0.29,-1.59 -0.84,-1.83 -0.56,-0.24 -1.45,-0.02 -1.71,0.56 -0.14,0.31 -0.11,0.65 -0.26,0.95 -0.15,0.29 -0.3,0.55 -0.35,0.87 -0.12,0.76 0.17,1.04 0.79,1.37 -0.66,0.41 -1.4,0.66 -2.09,1.02 -0.07,0.05 -0.39,0.14 -0.5,0.14 0.29,-1.04 0.96,-1.96 1.08,-3.04 0.11,-0.96 -0.37,-1.64 -1.09,-2.23 -0.7,-0.57 -2.05,-0.06 -1.95,0.92 0.02,0.26 0.12,0.5 0.11,0.77 -0.01,0.2 -0.11,0.37 -0.14,0.58 -0.06,0.42 -0.35,0.74 -0.61,1.04 -0.16,-0.68 -0.27,-1.22 -1.08,-1.12 -0.77,0.08 -1.3,1.23 -1.6,1.86 -0.44,0.93 -0.27,2.04 0.97,2.06 0.4,0.01 0.85,-0.17 1.08,-0.5 0.24,-0.35 0.31,-0.79 0.71,-1 0.1,0.35 0.16,0.74 0.28,1.07 0.11,0.3 0.49,0.2 0.47,0.59 -0.71,0.04 -1.42,0.21 -2.11,0.37 -0.85,0.19 -1.71,0.32 -2.58,0.48 -0.67,0.13 -1.96,0.22 -2.38,0.82 -0.54,0.78 0.66,1.35 1.28,1.35 m 8.75,-1.13 c -0.1,0.44 -0.43,0.72 -0.81,0.92 -0.05,-0.28 -0.09,-0.56 -0.13,-0.83 0.31,-0.04 0.63,-0.07 0.94,-0.09"
   clip-path="url(#SVGID_2_)"
   id="path720"
   style="fill:#092c87;fill-opacity:1" />
	<path
   class="st0"
   d="m 376.46,501.67 c 0.9,0.13 1.88,0.21 2.8,0.16 0.43,-0.02 0.88,-0.09 1.3,-0.19 0.3,-0.07 0.79,-0.39 1.09,-0.3 0.31,0.09 0.62,0.72 0.76,0.98 0.21,0.38 0.38,0.82 0.49,1.24 0.15,0.59 0.02,1.98 0.64,2.31 0.48,0.27 1.07,0.55 1.6,0.19 0.65,-0.45 0.41,-1.48 0.2,-2.1 -0.31,-0.9 -0.92,-1.65 -1.43,-2.45 -0.13,-0.22 -0.62,-0.74 -0.54,-1.02 0.1,-0.3 0.69,-0.58 0.93,-0.78 0.3,-0.24 0.92,0 1.28,-0.01 0.43,-0.02 0.89,0.02 1.33,0.07 0.39,0.05 0.81,0.18 1.19,0.13 0.18,-0.02 0.3,-0.01 0.36,0.02 0.09,0.03 0.24,0.92 0.18,0.9 0.28,0.6 0.74,0.98 1.19,1.43 0.19,0.19 0.55,0.32 0.79,0.45 0.16,0.09 0.21,0.24 0.34,0.27 1.63,0.3 2.87,-0.81 2.63,-2.48 -0.28,-1.93 -1.56,-3.23 -2.79,-4.62 -1.12,-1.25 -2.73,-2.37 -4.23,-3.11 -0.53,-0.26 0.29,0.59 0.4,0.73 0.3,0.36 0.62,0.7 0.96,1.02 0.68,0.63 1.35,1.33 1.97,2.02 0.49,0.55 2.98,3.53 1.59,3.97 -0.37,0.12 -0.74,0.07 -1.09,-0.08 -0.32,-0.12 -0.6,-0.06 -0.89,-0.27 -0.21,-0.13 -0.7,-0.38 -0.87,-0.49 0.07,-0.16 0.15,-0.27 0.24,-0.43 0.44,-0.67 0.26,-1.35 -0.3,-1.84 -0.57,-0.51 -0.96,-1.07 -1.4,-1.71 -0.63,0.64 -0.49,1.41 -0.23,2.2 -0.51,0.12 -0.98,0.18 -1.48,0.15 -0.21,-0.01 -0.39,-0.13 -0.53,-0.27 -0.27,-0.25 -0.27,-0.36 -0.62,-0.17 -0.5,0.28 -0.69,0.8 -1.01,1.25 -0.2,0.27 -0.53,0.68 -0.88,0.41 -0.95,-0.76 -1.6,-1.98 -2.42,-2.86 -0.41,-0.44 -0.88,-0.86 -1.23,-1.35 -0.19,-0.27 -0.13,-1.01 -0.41,-1.19 0.06,0.02 0.11,0 -0.05,-0.04 -0.29,0.56 -0.49,1.09 -0.17,1.67 0.41,0.76 0.9,1.41 1.39,2.12 0.27,0.38 0.64,0.77 0.85,1.18 0.09,0.17 -0.04,0.32 0.07,0.47 0.11,0.13 0.21,0.27 0.3,0.41 0.3,0.42 -0.23,0.53 -0.57,0.45 -0.35,-0.07 -0.89,0.15 -1.26,0.13 -0.77,-0.03 -1.8,-0.09 -2.44,-0.55 -0.17,-0.12 -0.2,-0.34 -0.26,-0.54 -0.04,-0.18 -0.03,-0.61 -0.16,-0.78 -0.17,-0.21 -0.46,0.08 -0.55,0.15 -0.57,0.41 -0.98,1.47 -0.97,2.15 0.02,0.68 1.42,0.92 1.91,1"
   clip-path="url(#SVGID_2_)"
   id="path722"
   style="fill:#092c87;fill-opacity:1" />
	<path
   class="st0"
   d="m 391.44,492.47 c 0.52,-0.36 2.09,-1.4 0.76,-1.91 -0.37,-0.14 -1.02,0.02 -1.42,0.08 -0.51,0.07 -1.02,0.28 -1.4,0.64 -0.03,0.03 -0.05,0.05 -0.06,0.06 0.01,-0.01 0.02,-0.01 0.03,-0.03 -0.01,0.02 -0.02,0.03 -0.04,0.04 -0.25,0.24 -0.53,0.48 -0.52,0.86 0,0.16 -0.24,0.3 -0.24,0.51 0,0.16 0.04,0.39 0.14,0.53 0.53,0.69 2.27,-0.45 2.75,-0.78"
   clip-path="url(#SVGID_2_)"
   id="path724"
   style="fill:#092c87;fill-opacity:1" />
	<path
   class="st0"
   d="m 381.09,493.11 c 0.45,0.18 1.08,-0.23 1.51,-0.38 0.5,-0.2 1.01,-0.39 1.52,-0.54 0.29,-0.08 0.56,-0.21 0.86,-0.24 0.36,-0.05 0.51,-0.15 0.43,-0.29 -0.02,-0.02 0.08,-0.1 0.16,-0.15 0.33,-0.17 0.63,-0.61 0.43,-0.69 -0.04,-0.08 -0.67,-0.23 -0.91,-0.24 h -0.01 c -0.44,0.01 -0.89,0.03 -1.33,0.02 -0.52,-0.01 -1.04,0.15 -1.57,0.19 -0.37,0.03 -0.8,-0.05 -1.05,0.26 -0.14,0.18 -0.33,0.39 -0.39,0.63 -0.06,0.21 0.05,0.4 -0.03,0.61 -0.12,0.35 0.01,0.67 0.38,0.82"
   clip-path="url(#SVGID_2_)"
   id="path726"
   style="fill:#092c87;fill-opacity:1" />
	<path
   class="st0"
   d="m 392.13,493.44 c -0.13,0.23 -0.19,0.5 -0.26,0.75 -0.1,0.38 -0.09,0.42 -0.47,0.52 0.17,0.13 0.53,0.27 0.36,0.47 0.43,0.19 0.83,0.45 1.26,0.6 0.12,0.04 -0.07,0.05 -0.3,0.08 0.13,0.04 0.5,0.29 0.5,0.29 0.3,0.27 0.75,0.25 1.05,0.53 0.37,0.36 0.84,0.67 1.14,1.1 0.28,0.39 0.55,0.75 0.95,1.02 0.47,0.31 0.84,0.18 1.36,0.13 0.89,-0.09 1.73,-1.18 1.63,-2.05 -0.06,-0.42 -0.26,-1.12 -0.64,-1.37 -0.4,-0.26 -1.18,-0.05 -1.64,-0.06 -0.47,0 -0.94,-0.11 -1.42,-0.11 -0.44,-0.01 -0.92,0.07 -1.31,-0.17 -0.14,-0.08 -0.3,-0.04 -0.43,-0.17 -0.16,-0.18 0.17,-0.33 0.31,-0.45 0.31,-0.27 0.86,-0.58 0.85,-1.05 -0.03,-1.11 -0.86,-1.45 -1.82,-1.09 -0.39,0.16 -0.9,0.68 -1.12,1.03"
   clip-path="url(#SVGID_2_)"
   id="path728"
   style="fill:#092c87;fill-opacity:1" />
	<path
   class="st0"
   d="m 237.29,503.92 c 0,0 -2.88,-0.57 -6.44,-3.47 0,0 -1.15,-0.93 -1.35,-1.39 0,0 -0.22,-0.26 -1.22,-0.36 0,0 -1.75,-0.49 -1.5,0.99 0,0 0.23,1.21 1.57,2.14 0,0 0.33,0.69 2.32,1.82 0,0 0.78,0.89 2.13,1.49 0,0 0.43,0.33 0.75,0.3 0,0 0.07,-0.14 0.47,0.25 0,0 1.26,0.41 2.47,0.45 0,0 1.15,0.29 1.95,-0.15 0,0 2.07,-0.31 0.86,-2.3 0,0 -0.95,-1.02 -1.78,-1.61 0,0 -1.43,-0.7 -1.39,-0.85 0,0 0.59,0.23 0.9,0.2 0,0 1.01,0.18 1.39,-0.63 0,0 0.11,-0.33 -0.13,-0.44 0,0 -0.04,-0.18 0.02,-0.44 0,0 -0.1,-0.23 -0.84,-0.43 0,0 -0.73,-0.42 -1.05,-1.36 0,0 -0.48,-0.77 -0.46,-1.21 0,0 -0.16,-0.25 -0.01,-0.53 0,0 0.01,-0.24 0.4,0.15 0,0 0.63,0.36 0.81,0.97 0,0 0.36,0.25 -0.04,0.35 0,0 0.02,1.14 0.72,1.57 0,0 1.44,0.9 1.5,-1.14 0,0 -0.3,-1.22 -1.26,-2.61 0,0 -0.1,-0.31 2.32,0.73 0,0 1.15,0.47 1.71,0.78 0,0 1.98,0.77 1.46,2.08 0,0 -0.3,0.49 -0.05,0.63 0,0 0.14,0.08 0.47,-0.52 0,0 1.48,-1.48 -0.36,-2.75 L 241,494.8 c 0,0 -1.65,-0.93 -2.55,-1.36 0,0 -0.19,-0.12 -0.3,-0.42 0,0 -0.36,-0.03 -0.44,-0.33 0,0 -0.53,-0.1 -0.94,-0.51 0,0 -1.92,-1.98 -3.18,-0.56 0,0 -1.29,1.47 1.28,2.66 0,0 0.32,-0.03 -0.13,0.54 0,0 -0.95,0.92 -0.19,2.74 0,0 0.27,0.57 -0.33,0.03 0,0 -2.43,-2.15 -2.53,-5.07 0,0 -0.18,-0.96 0.34,-2.13 0,0 1.36,-3.45 -1.32,-3.9 0,0 -1.7,-0.21 -2.1,1.39 0,0 -0.69,1.65 -0.31,4.34 0,0 0.12,2.89 0.1,4.08 0,0 -0.17,0.96 0.76,1.32 0,0 0.27,0 0.56,-0.17 0,0 1.1,-0.26 1.18,-1 l 0.02,-1.4 c 0,0 0.96,2.82 2.56,4.17 0,0 0.84,0.98 2,1.91 0,0 1.17,1.31 1.66,1.63 0,0 0.64,0.74 0.65,0.94 0.01,0.02 0.17,0.61 -0.5,0.22"
   clip-path="url(#SVGID_2_)"
   id="path730"
   style="fill:#092c87;fill-opacity:1" />
	<path
   class="st0"
   d="m 224.55,498.44 c 0,0 0.38,0.22 0.66,0.1 0,0 0.22,-0.25 0.41,-0.11 0,0 0.11,0.06 0.22,0.08 0.25,0.03 0.72,-0.01 1.03,-0.4 0,0 0.36,-0.44 -0.65,-1.67 0,0 -0.82,-0.87 -1.69,-0.47 0,0 -0.4,0.08 -0.65,0.43 0,0 -0.41,0.32 -0.34,0.88 0.01,0 0.39,1.02 1.01,1.16"
   clip-path="url(#SVGID_2_)"
   id="path732"
   style="fill:#092c87;fill-opacity:1" />
	<path
   class="st0"
   d="m 310.41,435.98 c -55.42,0 -100.51,45.09 -100.51,100.51 0,55.42 45.09,100.51 100.51,100.51 55.42,0 100.51,-45.09 100.51,-100.51 0,-55.43 -45.09,-100.51 -100.51,-100.51 m 0,199.82 c -54.77,0 -99.32,-44.55 -99.32,-99.31 0,-54.76 44.55,-99.31 99.32,-99.31 54.76,0 99.31,44.55 99.31,99.31 0,54.76 -44.56,99.31 -99.31,99.31"
   clip-path="url(#SVGID_2_)"
   id="path734"
   style="fill:#092c87;fill-opacity:1" />
	<path
   class="st0"
   d="m 225.75,525.57 c 1.33,0 2.4,-1.08 2.4,-2.4 0,-1.33 -1.07,-2.4 -2.4,-2.4 -1.33,0 -2.4,1.08 -2.4,2.4 0,1.32 1.07,2.4 2.4,2.4"
   clip-path="url(#SVGID_2_)"
   id="path736"
   style="fill:#092c87;fill-opacity:1" />
	<path
   class="st0"
   d="m 395.06,520.76 c -1.33,0 -2.4,1.08 -2.4,2.4 0,1.32 1.07,2.4 2.4,2.4 1.33,0 2.4,-1.08 2.4,-2.4 0,-1.32 -1.07,-2.4 -2.4,-2.4"
   clip-path="url(#SVGID_2_)"
   id="path738"
   style="fill:#092c87;fill-opacity:1" />
	<path
   class="st0"
   d="m 220.7,545.83 c 0.13,-0.17 0.36,-0.26 0.7,-0.28 l 5.75,-0.35 c 0.34,-0.02 0.58,0.04 0.73,0.19 0.15,0.15 0.24,0.42 0.28,0.81 l 0.44,-0.02 -0.26,-4.25 -0.43,0.03 c 0.01,0.41 -0.04,0.7 -0.17,0.88 -0.14,0.18 -0.37,0.28 -0.71,0.3 l -2.33,0.14 -0.2,-3.3 2.33,-0.14 c 0.34,-0.02 0.58,0.05 0.73,0.21 0.15,0.17 0.24,0.45 0.28,0.86 l 0.44,-0.03 -0.26,-4.24 -0.43,0.03 c 0.01,0.39 -0.05,0.67 -0.18,0.83 -0.13,0.17 -0.36,0.26 -0.69,0.28 l -5.75,0.35 c -0.33,0.02 -0.57,-0.04 -0.73,-0.19 -0.16,-0.15 -0.25,-0.42 -0.29,-0.8 l -0.46,0.03 0.26,4.24 0.46,-0.03 c -0.01,-0.41 0.05,-0.71 0.18,-0.89 0.13,-0.18 0.36,-0.28 0.7,-0.3 l 2.72,-0.17 0.2,3.3 -2.72,0.17 c -0.34,0.02 -0.59,-0.05 -0.73,-0.21 -0.15,-0.15 -0.24,-0.44 -0.28,-0.85 l -0.46,0.02 0.26,4.25 0.46,-0.04 c -0.03,-0.38 0.03,-0.66 0.16,-0.83"
   clip-path="url(#SVGID_2_)"
   id="path740"
   style="fill:#092c87;fill-opacity:1" />
	<path
   class="st0"
   d="m 223.88,555.78 c -0.57,-0.07 -1,-0.23 -1.29,-0.48 -0.3,-0.25 -0.49,-0.63 -0.58,-1.13 L 221.8,553 c -0.08,-0.46 -0.08,-0.77 0.02,-0.93 0.1,-0.16 0.36,-0.27 0.78,-0.35 l 2.45,-0.45 0.18,1 c 0.07,0.38 0.03,0.66 -0.11,0.85 -0.14,0.19 -0.43,0.35 -0.86,0.47 l 0.08,0.44 2.94,-0.54 -0.08,-0.44 c -0.44,0.04 -0.76,-0.01 -0.95,-0.15 -0.19,-0.14 -0.32,-0.41 -0.4,-0.82 l -0.17,-0.93 3.06,-0.56 0.41,2.24 c 0.08,0.45 0.05,0.81 -0.11,1.06 -0.15,0.25 -0.44,0.45 -0.87,0.59 l 0.09,0.48 1.86,-0.33 -1.32,-7.22 -0.43,0.08 c 0.06,0.39 0.03,0.67 -0.08,0.85 -0.11,0.18 -0.33,0.3 -0.66,0.36 l -5.67,1.04 c -0.33,0.06 -0.57,0.02 -0.74,-0.11 -0.17,-0.13 -0.3,-0.39 -0.38,-0.77 l -0.45,0.08 1.34,7.31 2.24,-0.01 z"
   clip-path="url(#SVGID_2_)"
   id="path742"
   style="fill:#092c87;fill-opacity:1" />
	<path
   class="st0"
   d="m 226.83,565.4 c 0.54,-0.16 0.94,-0.5 1.17,-1.01 0.24,-0.51 0.29,-1.14 0.16,-1.89 0.37,0.62 0.75,1.05 1.15,1.27 0.39,0.23 0.82,0.27 1.29,0.13 0.66,-0.19 1.07,-0.61 1.25,-1.25 0.18,-0.64 0.12,-1.47 -0.19,-2.5 l -1.21,-4.05 -0.42,0.13 c 0.09,0.37 0.1,0.65 0.01,0.85 -0.09,0.2 -0.3,0.34 -0.62,0.43 l -5.52,1.66 c -0.32,0.09 -0.57,0.09 -0.75,-0.02 -0.18,-0.11 -0.33,-0.35 -0.46,-0.72 l -0.44,0.13 1.27,4.23 c 0.31,1.04 0.76,1.79 1.34,2.25 0.6,0.47 1.24,0.58 1.97,0.36 m 3.92,-6.14 0.21,0.69 c 0.14,0.46 0.12,0.85 -0.07,1.18 -0.18,0.32 -0.5,0.56 -0.97,0.7 -0.49,0.15 -0.9,0.13 -1.26,-0.06 -0.35,-0.19 -0.59,-0.53 -0.74,-1.01 l -0.18,-0.59 z m -5.94,3.91 c -0.36,-0.18 -0.6,-0.5 -0.75,-0.97 -0.11,-0.38 -0.13,-0.63 -0.06,-0.76 0.07,-0.13 0.3,-0.25 0.68,-0.36 l 2.43,-0.73 0.28,0.93 c 0.14,0.45 0.1,0.85 -0.13,1.18 -0.23,0.33 -0.61,0.58 -1.16,0.75 -0.51,0.15 -0.94,0.13 -1.29,-0.04"
   clip-path="url(#SVGID_2_)"
   id="path744"
   style="fill:#092c87;fill-opacity:1" />
	<path
   class="st0"
   d="m 230.12,573.97 c -0.57,0.06 -1.02,-0.01 -1.36,-0.19 -0.34,-0.18 -0.61,-0.51 -0.81,-0.97 l -0.46,-1.1 c -0.18,-0.43 -0.24,-0.74 -0.18,-0.91 0.06,-0.18 0.29,-0.35 0.68,-0.52 l 2.29,-0.97 0.4,0.93 c 0.15,0.35 0.18,0.64 0.08,0.85 -0.1,0.22 -0.34,0.43 -0.74,0.65 l 0.17,0.41 2.75,-1.16 -0.17,-0.41 c -0.42,0.13 -0.74,0.16 -0.96,0.07 -0.22,-0.09 -0.41,-0.33 -0.57,-0.71 l -0.37,-0.87 2.87,-1.21 0.88,2.1 c 0.18,0.42 0.22,0.78 0.13,1.06 -0.09,0.28 -0.33,0.54 -0.72,0.77 l 0.19,0.45 1.74,-0.73 -2.86,-6.76 -0.4,0.17 c 0.14,0.37 0.17,0.65 0.1,0.85 -0.06,0.2 -0.25,0.36 -0.56,0.49 l -5.31,2.24 c -0.31,0.13 -0.56,0.15 -0.75,0.06 -0.19,-0.09 -0.37,-0.32 -0.53,-0.66 l -0.42,0.18 2.89,6.85 2.18,-0.5 z"
   clip-path="url(#SVGID_2_)"
   id="path746"
   style="fill:#092c87;fill-opacity:1" />
	<path
   class="st0"
   d="m 231.88,579.05 5.09,-2.71 c 0.3,-0.16 0.55,-0.19 0.75,-0.11 0.2,0.08 0.41,0.3 0.61,0.66 l 0.38,-0.2 -2.02,-3.82 -0.39,0.21 c 0.18,0.37 0.26,0.66 0.21,0.87 -0.05,0.22 -0.22,0.41 -0.52,0.56 l -5.08,2.7 c -0.3,0.16 -0.55,0.2 -0.75,0.11 -0.21,-0.08 -0.42,-0.3 -0.61,-0.67 l -0.41,0.22 2.03,3.82 0.4,-0.22 c -0.19,-0.36 -0.26,-0.65 -0.21,-0.87 0.04,-0.21 0.21,-0.39 0.52,-0.55"
   clip-path="url(#SVGID_2_)"
   id="path748"
   style="fill:#092c87;fill-opacity:1" />
	<path
   class="st0"
   d="m 245.15,588.85 c 0.27,-0.21 0.53,-0.29 0.76,-0.25 0.24,0.04 0.46,0.2 0.69,0.49 l 0.35,-0.26 -1.73,-2.35 -0.36,0.26 0.02,0.03 c 0.23,0.31 0.32,0.58 0.3,0.82 -0.02,0.24 -0.18,0.46 -0.47,0.67 l -3.08,2.27 c -0.75,0.55 -1.42,0.81 -2.01,0.76 -0.59,-0.05 -1.11,-0.39 -1.59,-1.03 -0.43,-0.59 -0.6,-1.17 -0.48,-1.74 0.11,-0.57 0.49,-1.09 1.15,-1.57 l 3.34,-2.46 c 0.28,-0.2 0.51,-0.27 0.74,-0.22 0.21,0.05 0.45,0.25 0.7,0.57 l 0.35,-0.26 -2.52,-3.42 -0.35,0.26 c 0.22,0.32 0.32,0.6 0.3,0.8 -0.02,0.21 -0.16,0.42 -0.42,0.61 l -3.03,2.23 c -1.03,0.76 -1.6,1.56 -1.7,2.38 -0.11,0.83 0.24,1.79 1.05,2.88 0.7,0.95 1.46,1.48 2.28,1.61 0.82,0.13 1.71,-0.15 2.64,-0.84 z"
   clip-path="url(#SVGID_2_)"
   id="path750"
   style="fill:#092c87;fill-opacity:1" />
	<path
   class="st0"
   d="m 253.29,596.56 c 0.24,0.01 0.48,0.14 0.74,0.4 l 0.32,-0.3 -2.04,-2.13 -0.32,0.3 0.03,0.02 c 0.26,0.27 0.39,0.53 0.4,0.77 0,0.24 -0.12,0.48 -0.38,0.73 l -3.49,3.35 1.31,-7.73 -2.16,-2.26 -0.31,0.3 c 0.15,0.19 0.26,0.37 0.33,0.55 0.06,0.18 0.08,0.36 0.05,0.55 l -4.44,4.25 c -0.25,0.24 -0.5,0.36 -0.72,0.35 -0.23,-0.01 -0.47,-0.14 -0.72,-0.39 l -0.02,-0.03 -0.33,0.33 2.03,2.12 0.34,-0.32 -0.07,-0.06 c -0.24,-0.26 -0.36,-0.5 -0.36,-0.73 0,-0.23 0.13,-0.47 0.38,-0.72 l 4.01,-3.84 -1.47,8.63 1.05,1.1 5.12,-4.91 c 0.24,-0.22 0.48,-0.34 0.72,-0.33"
   clip-path="url(#SVGID_2_)"
   id="path752"
   style="fill:#092c87;fill-opacity:1" />
	<path
   class="st0"
   d="m 258.63,600.23 -3.29,-2.8 -0.28,0.33 c 0.3,0.27 0.48,0.52 0.51,0.73 0.04,0.22 -0.05,0.46 -0.27,0.71 l -3.74,4.38 c -0.22,0.26 -0.44,0.38 -0.66,0.38 -0.22,0 -0.49,-0.13 -0.81,-0.4 l -0.31,0.35 3.29,2.81 0.3,-0.35 c -0.31,-0.26 -0.48,-0.51 -0.52,-0.73 -0.04,-0.22 0.05,-0.45 0.28,-0.71 l 3.74,-4.38 c 0.21,-0.26 0.44,-0.39 0.66,-0.39 0.22,0 0.49,0.13 0.8,0.4 z"
   clip-path="url(#SVGID_2_)"
   id="path754"
   style="fill:#092c87;fill-opacity:1" />
	<path
   class="st0"
   d="m 266.04,606.54 c 0.25,-0.03 0.5,0.02 0.74,0.14 l 0.25,-0.35 -2.4,-1.69 -0.25,0.35 c 0.27,0.21 0.43,0.41 0.5,0.59 0.07,0.19 0.05,0.37 -0.07,0.54 -0.04,0.05 -0.1,0.1 -0.17,0.16 -0.07,0.06 -0.17,0.13 -0.3,0.22 l -3.38,2.24 c -0.2,0.13 -0.39,0.26 -0.59,0.4 -0.2,0.14 -0.4,0.29 -0.6,0.45 0.07,-0.17 0.14,-0.35 0.21,-0.56 0.07,-0.21 0.13,-0.43 0.19,-0.67 l 1.03,-4.07 c 0.03,-0.13 0.07,-0.26 0.12,-0.38 0.05,-0.12 0.11,-0.22 0.17,-0.3 0.1,-0.14 0.24,-0.2 0.42,-0.18 0.19,0.02 0.41,0.12 0.67,0.3 l 0.25,-0.36 -3.48,-2.44 -0.26,0.35 c 0.23,0.19 0.37,0.38 0.43,0.59 0.05,0.21 0.02,0.54 -0.09,0.98 l -1.79,7.32 1.19,0.84 6.39,-4.17 c 0.3,-0.16 0.56,-0.27 0.82,-0.3"
   clip-path="url(#SVGID_2_)"
   id="path756"
   style="fill:#092c87;fill-opacity:1" />
	<path
   class="st0"
   d="m 272.34,609.94 c 0.4,0.22 0.66,0.47 0.76,0.75 0.1,0.27 0.08,0.63 -0.08,1.05 l 0.43,0.23 0.89,-1.66 -6.45,-3.5 -0.21,0.38 c 0.34,0.2 0.54,0.4 0.61,0.6 0.07,0.19 0.03,0.44 -0.13,0.73 l -2.75,5.07 c -0.16,0.3 -0.34,0.46 -0.55,0.51 -0.21,0.05 -0.48,-0.01 -0.83,-0.18 l -0.22,0.4 6.53,3.55 1.39,-1.75 -0.41,-0.22 c -0.41,0.4 -0.8,0.63 -1.18,0.7 -0.38,0.07 -0.8,-0.01 -1.24,-0.26 l -1.05,-0.57 c -0.41,-0.22 -0.65,-0.42 -0.71,-0.6 -0.05,-0.17 0.01,-0.45 0.22,-0.82 l 1.18,-2.19 0.9,0.48 c 0.33,0.18 0.53,0.39 0.59,0.61 0.06,0.23 0,0.55 -0.17,0.97 l 0.39,0.21 1.43,-2.63 -0.39,-0.21 c -0.25,0.37 -0.49,0.59 -0.71,0.65 -0.23,0.07 -0.53,0 -0.89,-0.2 l -0.83,-0.45 1.48,-2.73 z"
   clip-path="url(#SVGID_2_)"
   id="path758"
   style="fill:#092c87;fill-opacity:1" />
	<path
   class="st0"
   d="m 279.81,612.65 -4.12,-1.67 -0.16,0.41 c 0.35,0.16 0.58,0.33 0.68,0.52 0.09,0.19 0.08,0.44 -0.05,0.75 L 274,618 c -0.13,0.31 -0.28,0.5 -0.49,0.57 -0.2,0.07 -0.49,0.04 -0.85,-0.09 l -0.17,0.43 3.84,1.55 0.17,-0.43 c -0.34,-0.16 -0.55,-0.33 -0.64,-0.52 -0.09,-0.19 -0.07,-0.43 0.05,-0.74 l 0.93,-2.29 0.68,0.28 0.71,4.46 2.52,1.02 0.18,-0.43 -0.04,-0.01 c -0.2,-0.08 -0.35,-0.21 -0.46,-0.38 -0.11,-0.18 -0.19,-0.42 -0.25,-0.74 l -0.61,-3.41 c 0.65,0.05 1.19,-0.03 1.59,-0.24 0.41,-0.21 0.73,-0.56 0.92,-1.05 0.27,-0.66 0.21,-1.28 -0.19,-1.86 -0.38,-0.57 -1.08,-1.06 -2.08,-1.47 m 0.14,2.51 c -0.21,0.51 -0.53,0.85 -0.96,1.01 -0.45,0.16 -0.95,0.13 -1.52,-0.11 -0.09,-0.04 -0.16,-0.07 -0.22,-0.1 -0.06,-0.03 -0.11,-0.05 -0.17,-0.08 l 1.29,-3.19 0.44,0.18 c 0.57,0.23 0.95,0.55 1.15,0.94 0.2,0.4 0.2,0.85 -0.01,1.35"
   clip-path="url(#SVGID_2_)"
   id="path760"
   style="fill:#092c87;fill-opacity:1" />
	<path
   class="st0"
   d="m 290.28,616.3 c -0.08,0.05 -0.17,0.06 -0.26,0.03 -0.04,-0.01 -0.26,-0.16 -0.66,-0.45 -0.41,-0.28 -0.82,-0.48 -1.23,-0.6 -0.79,-0.21 -1.51,-0.16 -2.17,0.17 -0.66,0.33 -1.09,0.85 -1.29,1.55 -0.14,0.53 -0.12,1 0.07,1.43 0.19,0.43 0.57,0.89 1.17,1.38 l 0.98,0.78 c 0.49,0.4 0.79,0.72 0.92,0.96 0.13,0.25 0.15,0.52 0.07,0.81 -0.12,0.4 -0.36,0.68 -0.73,0.84 -0.37,0.15 -0.82,0.16 -1.33,0.02 -0.58,-0.16 -1.05,-0.49 -1.4,-0.97 -0.34,-0.49 -0.53,-1.07 -0.53,-1.74 l -0.52,-0.14 -0.6,2.57 0.45,0.13 c 0.08,-0.15 0.15,-0.25 0.23,-0.3 0.08,-0.06 0.17,-0.06 0.28,-0.04 0.02,0.01 0.27,0.17 0.73,0.49 0.46,0.32 0.95,0.55 1.46,0.7 0.94,0.26 1.76,0.22 2.48,-0.11 0.71,-0.33 1.18,-0.89 1.4,-1.67 0.15,-0.54 0.12,-1.05 -0.08,-1.52 -0.2,-0.48 -0.58,-0.94 -1.15,-1.39 l -0.94,-0.76 c -0.58,-0.46 -0.94,-0.82 -1.07,-1.06 -0.14,-0.25 -0.17,-0.51 -0.09,-0.79 0.09,-0.32 0.28,-0.54 0.59,-0.68 0.31,-0.14 0.66,-0.15 1.05,-0.04 0.52,0.14 0.93,0.43 1.24,0.87 0.31,0.44 0.49,0.98 0.54,1.63 l 0.52,0.15 0.57,-2.35 -0.47,-0.13 c -0.08,0.11 -0.15,0.19 -0.23,0.23"
   clip-path="url(#SVGID_2_)"
   id="path762"
   style="fill:#092c87;fill-opacity:1" />
	<path
   class="st0"
   d="m 292.69,617.09 c 0.4,0.08 0.67,0.21 0.81,0.38 0.14,0.17 0.18,0.42 0.12,0.75 l -1.08,5.66 c -0.06,0.33 -0.19,0.55 -0.38,0.66 -0.2,0.11 -0.5,0.13 -0.91,0.06 l -0.09,0.46 4.25,0.81 0.09,-0.46 c -0.4,-0.08 -0.67,-0.2 -0.81,-0.37 -0.14,-0.17 -0.17,-0.43 -0.11,-0.76 l 1.08,-5.66 c 0.06,-0.33 0.19,-0.55 0.38,-0.66 0.19,-0.11 0.49,-0.13 0.89,-0.06 l 0.08,-0.43 -4.25,-0.81 z"
   clip-path="url(#SVGID_2_)"
   id="path764"
   style="fill:#092c87;fill-opacity:1" />
	<path
   class="st0"
   d="m 297.97,619.87 0.55,0.05 c 0.11,-0.49 0.32,-0.84 0.62,-1.05 0.31,-0.22 0.7,-0.3 1.22,-0.25 l 0.73,0.07 -0.64,6.44 c -0.03,0.34 -0.14,0.57 -0.32,0.69 -0.19,0.13 -0.48,0.17 -0.89,0.14 l -0.05,0.46 4.3,0.43 0.04,-0.46 c -0.41,-0.05 -0.69,-0.16 -0.84,-0.31 -0.16,-0.16 -0.22,-0.4 -0.19,-0.74 l 0.64,-6.44 0.7,0.07 c 0.52,0.05 0.9,0.21 1.15,0.48 0.26,0.27 0.4,0.66 0.41,1.16 l 0.55,0.05 0.11,-2.15 -7.79,-0.77 z"
   clip-path="url(#SVGID_2_)"
   id="path766"
   style="fill:#092c87;fill-opacity:1" />
	<path
   class="st0"
   d="m 313.36,618.49 0.01,0.44 h 0.09 c 0.29,-0.01 0.51,0.03 0.67,0.13 0.15,0.1 0.23,0.23 0.24,0.39 0,0.09 -0.02,0.19 -0.05,0.29 -0.04,0.1 -0.11,0.22 -0.2,0.36 l -1.1,1.64 c -0.09,0.13 -0.17,0.27 -0.27,0.43 -0.09,0.15 -0.18,0.32 -0.28,0.51 -0.12,-0.21 -0.25,-0.41 -0.38,-0.62 -0.02,-0.03 -0.03,-0.05 -0.03,-0.06 l -1.3,-1.9 c -0.1,-0.14 -0.17,-0.26 -0.22,-0.37 -0.04,-0.1 -0.07,-0.2 -0.07,-0.28 -0.01,-0.14 0.07,-0.26 0.23,-0.34 0.15,-0.09 0.37,-0.13 0.65,-0.14 l -0.01,-0.43 -4.39,0.07 0.01,0.43 c 0.41,0.05 0.86,0.42 1.34,1.12 l 0.07,0.1 2.3,3.31 0.04,2.11 c 0,0.34 -0.07,0.59 -0.24,0.72 -0.16,0.15 -0.46,0.23 -0.87,0.24 l 0.01,0.46 4.33,-0.07 -0.01,-0.46 c -0.42,0 -0.71,-0.07 -0.88,-0.21 -0.17,-0.14 -0.25,-0.38 -0.27,-0.71 l -0.03,-2.13 2.37,-3.57 c 0.02,-0.01 0.03,-0.04 0.05,-0.08 0.39,-0.59 0.81,-0.92 1.26,-0.99 l -0.01,-0.43 z"
   clip-path="url(#SVGID_2_)"
   id="path768"
   style="fill:#092c87;fill-opacity:1" />
	<path
   class="st0"
   d="m 329.78,618.89 c -0.32,-0.51 -0.74,-0.93 -1.24,-1.28 -0.47,-0.32 -0.98,-0.54 -1.53,-0.65 -0.55,-0.12 -1.12,-0.12 -1.69,-0.01 -0.57,0.1 -1.1,0.31 -1.58,0.61 -0.48,0.3 -0.89,0.69 -1.21,1.16 -0.35,0.5 -0.58,1.04 -0.71,1.63 -0.12,0.59 -0.13,1.19 -0.01,1.82 0.11,0.62 0.33,1.19 0.66,1.7 0.33,0.51 0.74,0.94 1.24,1.28 0.47,0.32 0.98,0.53 1.54,0.65 0.55,0.11 1.12,0.11 1.7,0.01 0.58,-0.11 1.1,-0.31 1.58,-0.61 0.47,-0.3 0.88,-0.68 1.19,-1.15 0.35,-0.49 0.58,-1.04 0.7,-1.64 0.13,-0.6 0.13,-1.2 0.02,-1.82 -0.11,-0.63 -0.33,-1.19 -0.66,-1.7 m -1.61,5.03 c -0.24,0.75 -0.69,1.18 -1.33,1.29 -0.65,0.12 -1.23,-0.12 -1.71,-0.73 -0.49,-0.6 -0.85,-1.52 -1.07,-2.74 -0.22,-1.21 -0.21,-2.19 0.03,-2.93 0.24,-0.74 0.68,-1.17 1.33,-1.29 0.65,-0.12 1.22,0.13 1.71,0.73 0.49,0.61 0.85,1.52 1.07,2.73 0.22,1.22 0.2,2.2 -0.03,2.94"
   clip-path="url(#SVGID_2_)"
   id="path770"
   style="fill:#092c87;fill-opacity:1" />
	<path
   class="st0"
   d="m 330.71,616.08 0.12,0.42 c 0.38,-0.1 0.66,-0.11 0.86,-0.01 0.19,0.09 0.33,0.29 0.43,0.61 l 1.67,5.52 c 0.1,0.32 0.09,0.57 -0.03,0.75 -0.1,0.18 -0.35,0.33 -0.71,0.46 l 0.13,0.44 4.07,-1.23 -0.13,-0.44 c -0.4,0.11 -0.7,0.12 -0.91,0.03 -0.2,-0.09 -0.35,-0.29 -0.45,-0.62 l -0.79,-2.63 0.97,-0.29 c 0.37,-0.11 0.64,-0.11 0.85,0.01 0.21,0.11 0.4,0.39 0.57,0.81 l 0.42,-0.13 -0.86,-2.86 -0.43,0.13 c 0.09,0.43 0.07,0.76 -0.04,0.96 -0.12,0.21 -0.37,0.37 -0.77,0.49 l -0.91,0.27 -0.9,-2.98 2.13,-0.64 c 0.46,-0.14 0.83,-0.14 1.1,-0.01 0.27,0.13 0.49,0.41 0.67,0.85 l 0.52,-0.16 -0.57,-1.88 z"
   clip-path="url(#SVGID_2_)"
   id="path772"
   style="fill:#092c87;fill-opacity:1" />
	<path
   class="st0"
   d="m 350.62,616.95 c -0.21,-0.05 -0.39,-0.23 -0.54,-0.54 l -2.81,-5.83 0.64,-0.3 c 0.46,-0.22 0.87,-0.28 1.24,-0.19 0.36,0.1 0.67,0.35 0.95,0.77 l 0.5,-0.24 -1.02,-1.9 -7.05,3.39 0.84,1.98 0.49,-0.24 c -0.15,-0.47 -0.16,-0.88 -0.01,-1.23 0.15,-0.34 0.45,-0.62 0.91,-0.84 l 0.65,-0.32 2.81,5.83 c 0.15,0.3 0.18,0.56 0.09,0.76 -0.1,0.2 -0.33,0.4 -0.69,0.58 l 0.2,0.42 3.89,-1.88 -0.2,-0.42 c -0.38,0.19 -0.68,0.25 -0.89,0.2"
   clip-path="url(#SVGID_2_)"
   id="path774"
   style="fill:#092c87;fill-opacity:1" />
	<path
   class="st0"
   d="m 360.26,609.61 c 0.14,0.55 0.15,1.01 0.03,1.38 -0.13,0.37 -0.41,0.68 -0.84,0.95 l -1.01,0.63 c -0.4,0.25 -0.68,0.36 -0.87,0.33 -0.18,-0.03 -0.38,-0.23 -0.62,-0.59 l -1.31,-2.11 0.86,-0.53 c 0.32,-0.21 0.6,-0.28 0.83,-0.21 0.22,0.06 0.48,0.27 0.75,0.63 l 0.37,-0.23 -1.58,-2.54 -0.37,0.24 c 0.2,0.4 0.27,0.71 0.21,0.94 -0.06,0.22 -0.26,0.45 -0.61,0.67 l -0.8,0.5 -1.65,-2.64 1.93,-1.2 c 0.39,-0.24 0.73,-0.34 1.02,-0.3 0.29,0.05 0.58,0.24 0.87,0.59 l 0.41,-0.26 -1,-1.61 -6.23,3.89 0.23,0.37 c 0.34,-0.2 0.61,-0.27 0.82,-0.23 0.21,0.03 0.4,0.19 0.57,0.47 l 3.05,4.89 c 0.18,0.29 0.24,0.53 0.18,0.73 -0.06,0.2 -0.26,0.42 -0.57,0.63 l 0.24,0.39 6.3,-3.94 -0.84,-2.08 z"
   clip-path="url(#SVGID_2_)"
   id="path776"
   style="fill:#092c87;fill-opacity:1" />
	<path
   class="st0"
   d="m 368.06,603.53 c -0.01,0.69 -0.11,1.27 -0.3,1.76 -0.18,0.49 -0.46,0.89 -0.82,1.17 -0.64,0.5 -1.34,0.64 -2.12,0.4 -0.77,-0.22 -1.51,-0.8 -2.24,-1.71 -0.69,-0.88 -1.07,-1.73 -1.12,-2.54 -0.05,-0.82 0.21,-1.46 0.81,-1.93 0.43,-0.34 0.92,-0.51 1.46,-0.49 0.54,0.01 1.1,0.2 1.66,0.56 l 0.4,-0.32 -1.7,-1.92 -0.4,0.32 c 0.08,0.16 0.13,0.27 0.13,0.34 0,0.06 -0.05,0.13 -0.12,0.2 -0.07,0.06 -0.36,0.17 -0.87,0.35 -0.51,0.18 -0.94,0.41 -1.28,0.67 -0.52,0.41 -0.92,0.91 -1.2,1.51 -0.29,0.59 -0.43,1.23 -0.44,1.92 0,0.53 0.08,1.06 0.26,1.55 0.17,0.5 0.43,0.96 0.76,1.38 0.41,0.52 0.89,0.92 1.44,1.2 0.55,0.28 1.16,0.43 1.82,0.47 0.53,0.02 1.06,-0.06 1.58,-0.22 0.51,-0.16 0.98,-0.41 1.4,-0.73 0.56,-0.45 0.97,-0.99 1.22,-1.63 0.25,-0.65 0.35,-1.4 0.3,-2.27 z"
   clip-path="url(#SVGID_2_)"
   id="path778"
   style="fill:#092c87;fill-opacity:1" />
	<path
   class="st0"
   d="m 377.09,597.01 c -0.22,0.01 -0.44,-0.09 -0.68,-0.33 l -4.09,-4.06 c -0.24,-0.24 -0.34,-0.46 -0.33,-0.67 0.01,-0.21 0.15,-0.46 0.41,-0.74 l -0.31,-0.31 -3,3.02 0.31,0.31 c 0.29,-0.29 0.55,-0.44 0.76,-0.46 0.22,-0.02 0.45,0.09 0.69,0.32 l 1.66,1.65 -2.33,2.35 -1.66,-1.65 c -0.24,-0.24 -0.35,-0.47 -0.32,-0.69 0.01,-0.22 0.17,-0.48 0.46,-0.78 l -0.31,-0.3 -3.01,3.01 0.31,0.31 c 0.29,-0.27 0.54,-0.41 0.75,-0.42 0.21,-0.01 0.43,0.1 0.67,0.34 l 4.09,4.07 c 0.24,0.23 0.35,0.46 0.34,0.67 -0.01,0.21 -0.15,0.46 -0.41,0.74 l 0.33,0.33 2.99,-3.01 -0.33,-0.33 c -0.3,0.29 -0.56,0.44 -0.77,0.46 -0.22,0.02 -0.45,-0.09 -0.69,-0.33 l -1.93,-1.92 2.34,-2.35 1.93,1.92 c 0.23,0.24 0.35,0.47 0.33,0.68 -0.02,0.22 -0.16,0.47 -0.45,0.77 l 0.32,0.33 3.01,-3.02 -0.33,-0.33 c -0.29,0.26 -0.54,0.4 -0.75,0.42"
   clip-path="url(#SVGID_2_)"
   id="path780"
   style="fill:#092c87;fill-opacity:1" />
	<path
   class="st0"
   d="m 378.8,583.39 c -0.03,-0.24 0.06,-0.5 0.28,-0.79 l -0.35,-0.27 -1.8,2.35 0.35,0.27 0.02,-0.03 c 0.23,-0.3 0.46,-0.47 0.7,-0.51 0.24,-0.04 0.5,0.04 0.78,0.26 l 3.84,2.94 -7.84,-0.11 -1.9,2.48 0.34,0.27 c 0.17,-0.18 0.33,-0.31 0.5,-0.41 0.17,-0.09 0.35,-0.14 0.54,-0.14 l 4.88,3.73 c 0.28,0.21 0.43,0.43 0.46,0.66 0.03,0.23 -0.06,0.48 -0.27,0.77 l -0.02,0.02 0.37,0.28 1.78,-2.34 -0.37,-0.28 -0.05,0.07 c -0.22,0.28 -0.44,0.43 -0.67,0.47 -0.23,0.03 -0.49,-0.06 -0.76,-0.27 l -4.41,-3.38 8.76,0.13 0.92,-1.21 -5.63,-4.31 c -0.27,-0.2 -0.42,-0.42 -0.45,-0.65"
   clip-path="url(#SVGID_2_)"
   id="path782"
   style="fill:#092c87;fill-opacity:1" />
	<path
   class="st0"
   d="m 388.76,577.28 c -0.37,-0.48 -0.83,-0.88 -1.37,-1.2 -0.55,-0.32 -1.12,-0.52 -1.72,-0.6 -0.6,-0.08 -1.19,-0.05 -1.77,0.11 -0.55,0.14 -1.06,0.39 -1.5,0.73 -0.44,0.34 -0.81,0.77 -1.11,1.27 -0.3,0.5 -0.48,1.04 -0.57,1.6 -0.08,0.56 -0.05,1.12 0.09,1.67 0.15,0.59 0.41,1.12 0.78,1.6 0.37,0.48 0.82,0.88 1.37,1.2 0.55,0.32 1.11,0.52 1.72,0.61 0.6,0.09 1.19,0.05 1.78,-0.1 0.54,-0.15 1.05,-0.4 1.49,-0.74 0.44,-0.35 0.81,-0.77 1.11,-1.28 0.3,-0.51 0.49,-1.04 0.57,-1.6 0.09,-0.56 0.05,-1.11 -0.09,-1.66 -0.16,-0.59 -0.41,-1.13 -0.78,-1.61 m -0.22,4.55 c -0.33,0.57 -0.89,0.85 -1.67,0.83 -0.78,-0.03 -1.7,-0.35 -2.77,-0.97 -1.07,-0.62 -1.8,-1.27 -2.21,-1.93 -0.4,-0.67 -0.44,-1.29 -0.11,-1.85 0.33,-0.57 0.9,-0.85 1.67,-0.82 0.77,0.03 1.7,0.35 2.77,0.98 1.06,0.62 1.79,1.26 2.2,1.93 0.42,0.65 0.46,1.27 0.12,1.83"
   clip-path="url(#SVGID_2_)"
   id="path784"
   style="fill:#092c87;fill-opacity:1" />
	<path
   class="st0"
   d="m 392.71,569.06 c 0.45,0.38 0.73,0.76 0.84,1.14 0.12,0.38 0.07,0.79 -0.12,1.24 l -0.37,0.83 c -0.19,0.42 -0.37,0.67 -0.54,0.74 -0.18,0.08 -0.46,0.02 -0.85,-0.15 l -5,-2.21 c -0.31,-0.13 -0.49,-0.31 -0.55,-0.53 -0.06,-0.21 -0.01,-0.51 0.15,-0.89 l -0.4,-0.18 -1.72,3.89 0.4,0.18 c 0.17,-0.35 0.36,-0.57 0.55,-0.66 0.19,-0.09 0.44,-0.07 0.74,0.07 l 5.27,2.33 c 0.31,0.13 0.49,0.3 0.56,0.5 0.06,0.2 0.02,0.49 -0.12,0.85 l 0.42,0.18 2.92,-6.61 -1.97,-1.21 z"
   clip-path="url(#SVGID_2_)"
   id="path786"
   style="fill:#092c87;fill-opacity:1" />
	<path
   class="st0"
   d="m 395.96,558.7 c -0.48,-0.38 -1.01,-0.67 -1.61,-0.86 -0.6,-0.19 -1.2,-0.26 -1.81,-0.21 -0.61,0.05 -1.17,0.22 -1.71,0.51 -0.5,0.27 -0.94,0.62 -1.29,1.05 -0.36,0.44 -0.62,0.93 -0.8,1.49 -0.18,0.56 -0.24,1.12 -0.19,1.68 0.04,0.56 0.2,1.1 0.46,1.61 0.28,0.54 0.64,1 1.11,1.38 0.46,0.39 0.99,0.67 1.61,0.86 0.6,0.19 1.2,0.26 1.81,0.21 0.6,-0.05 1.18,-0.22 1.71,-0.51 0.5,-0.27 0.93,-0.62 1.29,-1.06 0.36,-0.44 0.62,-0.94 0.8,-1.5 0.18,-0.56 0.24,-1.13 0.2,-1.68 -0.05,-0.56 -0.2,-1.09 -0.46,-1.59 -0.28,-0.53 -0.65,-0.99 -1.12,-1.38 m 0.81,4.48 c -0.2,0.63 -0.68,1.03 -1.45,1.18 -0.76,0.15 -1.74,0.04 -2.92,-0.33 -1.17,-0.37 -2.04,-0.83 -2.58,-1.38 -0.55,-0.56 -0.72,-1.15 -0.52,-1.78 0.2,-0.63 0.68,-1.02 1.45,-1.17 0.76,-0.15 1.74,-0.04 2.92,0.33 1.17,0.36 2.03,0.83 2.58,1.38 0.54,0.55 0.72,1.15 0.52,1.77"
   clip-path="url(#SVGID_2_)"
   id="path788"
   style="fill:#092c87;fill-opacity:1" />
	<path
   class="st0"
   d="m 399.85,548.43 c -0.08,0.01 -0.17,0.02 -0.27,0.02 -0.1,0 -0.19,-0.01 -0.28,-0.02 l -1.7,-0.3 c -0.34,-0.06 -0.57,-0.15 -0.67,-0.28 -0.1,-0.13 -0.15,-0.34 -0.14,-0.65 l -0.44,-0.08 -0.71,3.97 0.44,0.08 c 0.12,-0.46 0.28,-0.76 0.47,-0.9 0.19,-0.13 0.49,-0.16 0.9,-0.09 l 1.07,0.19 c 0.45,0.08 0.75,0.23 0.9,0.44 0.15,0.21 0.18,0.53 0.11,0.96 -0.14,0.77 -0.59,1.32 -1.37,1.65 -0.78,0.33 -1.77,0.39 -2.99,0.17 -1.15,-0.2 -2.01,-0.6 -2.61,-1.2 -0.58,-0.6 -0.81,-1.3 -0.67,-2.1 0.09,-0.53 0.34,-0.98 0.75,-1.34 0.41,-0.37 0.94,-0.62 1.58,-0.76 l 0.08,-0.48 -2.48,-0.27 -0.08,0.47 c 0.13,0.04 0.23,0.1 0.29,0.17 0.06,0.07 0.08,0.16 0.07,0.27 -0.01,0.05 -0.15,0.32 -0.41,0.8 -0.26,0.48 -0.44,0.97 -0.52,1.45 -0.09,0.53 -0.1,1.04 -0.02,1.54 0.08,0.51 0.24,0.98 0.5,1.43 0.35,0.63 0.79,1.14 1.32,1.52 0.52,0.38 1.14,0.63 1.84,0.75 0.78,0.14 1.52,0.1 2.21,-0.14 0.69,-0.24 1.3,-0.65 1.85,-1.24 0.32,-0.35 0.58,-0.75 0.8,-1.18 0.2,-0.45 0.36,-0.93 0.45,-1.45 0.1,-0.54 0.12,-1.1 0.07,-1.66 -0.03,-0.55 -0.14,-1.13 -0.34,-1.74"
   clip-path="url(#SVGID_2_)"
   id="path790"
   style="fill:#092c87;fill-opacity:1" />
	<path
   class="st0"
   d="m 400.71,539.6 c -0.04,0.41 -0.12,0.7 -0.27,0.86 -0.16,0.16 -0.4,0.23 -0.73,0.21 l -2.13,-0.13 -3.38,-2.64 c -0.01,-0.01 -0.04,-0.03 -0.08,-0.06 -0.56,-0.44 -0.85,-0.88 -0.89,-1.34 l -0.43,-0.03 -0.19,3.06 0.44,0.03 v -0.09 c 0.02,-0.28 0.08,-0.5 0.19,-0.65 0.11,-0.15 0.24,-0.23 0.4,-0.21 0.09,0.01 0.18,0.03 0.29,0.08 0.1,0.05 0.21,0.12 0.35,0.23 l 1.55,1.21 c 0.13,0.1 0.26,0.2 0.4,0.3 0.14,0.1 0.3,0.21 0.49,0.32 -0.22,0.1 -0.44,0.22 -0.65,0.33 -0.04,0.02 -0.05,0.03 -0.07,0.03 l -1.99,1.15 c -0.14,0.08 -0.28,0.15 -0.39,0.19 -0.11,0.03 -0.2,0.05 -0.28,0.05 -0.14,-0.01 -0.25,-0.09 -0.33,-0.26 -0.07,-0.17 -0.1,-0.39 -0.09,-0.67 l -0.43,-0.03 -0.26,4.39 0.43,0.02 c 0.08,-0.4 0.48,-0.82 1.22,-1.26 l 0.1,-0.06 3.47,-2.05 2.11,0.13 c 0.34,0.02 0.58,0.12 0.71,0.29 0.13,0.17 0.18,0.47 0.17,0.89 l 0.46,0.03 0.27,-4.32 z"
   clip-path="url(#SVGID_2_)"
   id="path792"
   style="fill:#092c87;fill-opacity:1" />
	<rect
   x="326.89001"
   y="592.81"
   class="st0"
   width="14.51"
   height="1.35"
   clip-path="url(#SVGID_2_)"
   id="rect794"
   style="fill:#092c87;fill-opacity:1" />
	<path
   class="st0"
   d="m 297.67,597.82 h 1.96 v -8.9 h -1.81 c -0.7,0.5 -1.45,0.94 -2.26,1.3 v 1.76 c 0.78,-0.3 1.47,-0.69 2.12,-1.15 v 6.99 z"
   clip-path="url(#SVGID_2_)"
   id="path796"
   style="fill:#092c87;fill-opacity:1" />
	<path
   class="st0"
   d="m 305.12,594.45 c 0.67,0.03 1.25,-0.15 1.76,-0.55 0.1,1.88 -0.35,2.82 -1.36,2.82 -0.5,0 -0.82,-0.37 -0.95,-1.11 h -1.96 c 0.02,1.58 1.01,2.34 2.96,2.31 1.18,0 2.03,-0.4 2.57,-1.2 0.5,-0.78 0.73,-2.11 0.7,-4.03 0.03,-2.69 -1.04,-4.01 -3.22,-3.98 -1.97,0.13 -3.03,1.14 -3.18,3.02 0.18,1.65 1.07,2.56 2.68,2.72 m 0.61,-4.43 c 0.74,0.04 1.13,0.58 1.15,1.61 -0.03,0.98 -0.41,1.48 -1.15,1.51 -0.84,0 -1.26,-0.51 -1.26,-1.51 -0.01,-1.07 0.42,-1.61 1.26,-1.61"
   clip-path="url(#SVGID_2_)"
   id="path798"
   style="fill:#092c87;fill-opacity:1" />
	<path
   class="st0"
   d="m 321.29,596.72 c -0.71,-0.1 -1.07,-0.56 -1.1,-1.36 h -1.97 c 0,1.71 1.01,2.57 3.03,2.57 1.94,-0.14 2.99,-0.91 3.16,-2.31 0,-1.28 -0.58,-2.08 -1.76,-2.42 1.11,-0.27 1.68,-1.01 1.71,-2.22 -0.13,-1.34 -1.14,-2.1 -3.01,-2.26 -1.91,0.06 -2.92,0.9 -3.02,2.52 h 1.97 c 0.1,-0.7 0.45,-1.1 1.06,-1.21 0.7,0.04 1.07,0.44 1.1,1.21 0.04,0.9 -0.69,1.38 -2.16,1.41 v 1.26 c 1.4,-0.04 2.13,0.45 2.16,1.46 -0.07,0.83 -0.47,1.28 -1.17,1.35"
   clip-path="url(#SVGID_2_)"
   id="path800"
   style="fill:#092c87;fill-opacity:1" />
	<path
   class="st0"
   d="m 313.59,597.92 c 2.11,-0.04 3.19,-1.55 3.22,-4.53 -0.07,-3.09 -1.15,-4.66 -3.22,-4.68 -1.98,0.02 -3.01,1.59 -3.07,4.68 0.06,2.99 1.09,4.5 3.07,4.53 m 0.05,-7.9 c 0.77,0.04 1.16,1.16 1.16,3.38 0,2.18 -0.39,3.28 -1.16,3.32 -0.76,-0.04 -1.15,-1.14 -1.15,-3.32 0,-2.22 0.38,-3.34 1.15,-3.38"
   clip-path="url(#SVGID_2_)"
   id="path802"
   style="fill:#092c87;fill-opacity:1" />
	<rect
   x="279.42001"
   y="593.03998"
   class="st0"
   width="14.5"
   height="1.34"
   clip-path="url(#SVGID_2_)"
   id="rect804"
   style="fill:#092c87;fill-opacity:1" />
	<path
   class="st0"
   d="m 238.62,536.48 c 0,39.58 32.2,71.78 71.79,71.78 39.58,0 71.78,-32.2 71.78,-71.78 0,-39.58 -32.2,-71.78 -71.78,-71.78 -39.59,0 -71.79,32.21 -71.79,71.78 m 71.79,69.44 c -19.72,0 -37.53,-8.27 -50.19,-21.51 h 100.37 c -12.66,13.24 -30.47,21.51 -50.18,21.51 m 51.97,-23.46 H 258.43 c -0.61,-0.69 -1.23,-1.39 -1.8,-2.11 H 364.2 c -0.6,0.72 -1.21,1.42 -1.82,2.11 m -100.02,-7.17 0.5,-0.37 c 0.74,0.38 2.9,1.73 3.41,3.49 h -9.38 c 0.24,-0.34 1.02,-1.02 3.61,-1.72 l 1.37,-1.04 c 0,0 1.1,0.72 1.74,1.23 0.18,0.18 0.25,0.23 0.23,0.15 -0.09,-0.33 -0.9,-1.36 -1.48,-1.74 m 6.84,-31.69 3.02,-2.19 h 1.12 l -0.47,-13.99 c -0.23,0.83 -0.44,1.9 -0.46,3 -0.01,0.23 -0.2,0.42 -0.43,0.42 -0.12,0 -0.23,-0.05 -0.31,-0.13 -0.08,-0.08 -0.12,-0.19 -0.11,-0.31 0.03,-1.65 0.46,-3.2 0.74,-4.06 h -1.88 c -0.23,0 -0.43,-0.19 -0.43,-0.42 0,-0.23 0.2,-0.43 0.43,-0.43 h 2.39 l -0.02,-0.47 h -2.34 c -0.24,0 -0.43,-0.19 -0.43,-0.43 0,-0.23 0.19,-0.43 0.43,-0.43 h 2.31 l -0.13,-3.9 0.08,-0.02 c 0.18,-0.05 0.71,-0.24 0.85,-0.52 0.16,-0.31 0.79,-0.45 1.16,-0.45 0.33,0 0.53,0.1 0.56,0.26 0,0.23 0.12,4.02 0.14,4.69 h 1.68 c -0.31,-2.14 0.07,-3.73 0.07,-3.75 0.05,-0.22 0.29,-0.37 0.51,-0.31 0.11,0.02 0.2,0.09 0.27,0.19 0.06,0.1 0.08,0.21 0.05,0.32 -0.02,0.07 -0.35,1.59 -0.04,3.55 h 3.26 c 0.23,0 0.42,0.19 0.42,0.43 0,0.23 -0.19,0.43 -0.42,0.43 h -5.78 l 0.01,0.4 h 6.04 c 0.24,0 0.43,0.19 0.43,0.43 0,0.24 -0.19,0.42 -0.43,0.42 h -1.35 c -0.3,0.56 -1.15,2.35 -1.26,5.15 -0.01,0.23 -0.2,0.41 -0.43,0.41 -0.24,-0.01 -0.43,-0.21 -0.43,-0.44 0.1,-2.49 0.74,-4.23 1.16,-5.12 h -3.7 L 276,541.4 h 2.33 v 4.73 h -6.15 z m 1.24,4.4 v 4.46 l -0.1,-0.01 c -1.14,-0.04 -4.94,-0.48 -6.28,-4.33 l -0.05,-0.13 h 6.43 z m 3.13,-47.19 c 0,0 -0.2,-0.03 -0.27,-0.11 -0.08,-0.08 -0.08,-0.21 0.15,-0.39 0.23,-0.18 0.82,-0.04 0.82,-0.04 0.1,-0.01 0.15,-0.09 0.15,-0.17 -0.02,-0.1 -0.12,-0.16 -0.19,-0.15 0,0 -1.6,0.23 -1.4,-0.55 0.12,-0.27 -0.12,-0.46 -0.21,-0.52 -0.08,-0.07 -0.46,-0.22 -0.66,-0.26 -0.12,-0.03 -0.13,-0.24 -0.07,-0.32 0.58,-0.81 0.78,-1.55 0.78,-1.67 -0.39,-1.77 0.21,-3.27 0.5,-3.85 0.47,0.06 1.36,0.12 2.58,0.02 0,0.56 0.21,1.27 0.93,1.88 0.01,1.17 0.82,2 0.82,2 0.09,-0.13 0.44,-0.78 1.28,-0.55 0.35,0.1 0.47,0.38 0.48,0.73 0.02,0.53 -0.07,2.55 -1.63,2.47 0,0 -0.2,0.06 -0.17,0.27 0.04,0.21 1.2,0.26 1.7,-0.23 0.29,0.48 1.07,1.32 3.22,1.28 0,0.13 -0.11,0.6 0.03,1.04 -0.5,0.34 -4.33,3.54 -4.33,3.54 l -1.13,-1.62 0.13,-1.36 c 0.57,-0.66 1.08,-1.23 0.96,-1.52 -0.12,-0.29 -0.72,0.83 -2.33,1.53 -0.8,0.36 -1.41,0.36 -1.71,0.03 -0.31,-0.32 -0.37,-0.65 -0.31,-1.05 0.03,-0.42 -0.12,-0.43 -0.12,-0.43 m 4.42,4.87 c 0.2,0 2.55,1.62 2.55,1.62 l 3.04,-3.5 c 0.14,-0.17 0.42,-0.19 0.6,-0.04 0.17,0.15 0.2,0.42 0.05,0.6 l -3.2,3.69 c 0.13,1.41 -0.15,2.46 -0.84,3.14 -0.71,0.7 -1.64,0.81 -2.13,0.81 -0.08,0 -0.19,0 -0.3,-0.01 -0.83,-0.14 -1.44,-0.53 -1.83,-1.16 -0.76,-1.24 -0.38,-3.02 -0.26,-3.47 l -0.72,-1.22 c -0.05,-0.12 -0.05,-0.24 0,-0.34 0.05,-0.1 0.13,-0.18 0.24,-0.22 0.21,-0.08 0.46,0.03 0.55,0.24 l 0.54,0.81 c -0.02,0 1.54,-0.95 1.71,-0.95 m 7.01,7.71 c 0.1,-2.19 0.85,-2.74 1.09,-2.86 0.17,-0.08 0.42,-0.05 0.53,0.06 0.13,0.13 0.17,0.32 0.1,0.48 -0.05,0.12 -0.15,0.2 -0.27,0.24 -0.14,0.12 -0.84,0.92 -0.54,4 l 0.08,0.13 c 0.07,0.1 0.12,0.2 0.18,0.3 0.27,-0.91 0.87,-2.36 2.04,-3.2 0.81,-0.57 1.76,-0.78 2.82,-0.59 0.11,0.02 0.21,0.08 0.27,0.17 0.07,0.09 0.09,0.21 0.07,0.32 -0.04,0.23 -0.25,0.39 -0.49,0.35 -0.83,-0.14 -1.57,0.01 -2.18,0.45 -1.43,1.03 -1.87,3.28 -1.92,3.54 -0.02,0.17 -0.15,0.3 -0.3,0.35 -0.03,0.01 -0.07,0.02 -0.11,0.02 -0.13,0 -0.24,-0.06 -0.32,-0.15 -0.18,-0.2 -0.45,-0.56 -0.67,-0.86 -0.16,-0.23 -0.52,-0.88 -0.63,-1.08 -2.77,-5.43 0.82,-11.07 0.86,-11.13 0.12,-0.19 0.4,-0.25 0.59,-0.13 0.09,0.06 0.15,0.15 0.18,0.27 0.02,0.11 0,0.23 -0.06,0.32 -0.1,0.17 -2.77,4.51 -1.32,9 m 33.65,-2.56 0.03,0.03 c 0.01,0.01 1.14,1.07 0.1,2.47 l -0.03,0.04 h -9.52 l -0.03,-0.04 c -1.04,-1.38 0,-2.45 0.01,-2.46 l 0.03,-0.03 h 9.41 z m -6.4,-2.32 v -1.58 l 0.11,0.01 c 0.71,0.06 3.03,0.27 3.05,0.79 0.01,0.06 -0.02,0.12 -0.07,0.17 -0.36,0.38 -2.37,0.62 -2.98,0.62 h -0.11 z m 6.53,8.21 -0.03,0.04 h -9.52 l -0.03,-0.04 c -1.04,-1.38 0,-2.46 0.01,-2.47 l 0.03,-0.03 h 9.41 l 0.03,0.03 c 0.01,0.01 1.14,1.07 0.1,2.47 m 0,3.54 -0.03,0.04 h -9.51 l -0.03,-0.03 c -1.06,-1.39 -0.02,-2.47 -0.01,-2.48 l 0.03,-0.03 h 9.41 l 0.03,0.03 c 0.02,0.02 1.15,1.07 0.11,2.47 m -9.74,-11.82 h -0.1 c -0.32,0 -2.67,-0.15 -2.67,-0.71 0,-0.07 0.03,-0.13 0.08,-0.18 0.37,-0.36 2.19,-0.54 2.59,-0.54 h 0.1 z m -1.9,2.39 v 2.53 h -4.56 l -0.03,-0.04 c -1.04,-1.4 0.09,-2.45 0.1,-2.47 l 0.04,-0.03 h 4.45 z m -4.48,3.42 0.03,-0.03 h 4.45 v 2.54 h -4.56 l -0.03,-0.04 c -1.03,-1.4 0.1,-2.46 0.11,-2.47 m 0,3.55 0.04,-0.03 h 4.45 v 2.53 h -4.56 l -0.03,-0.04 c -1.04,-1.4 0.09,-2.45 0.1,-2.46 m 27.5,4.36 -1.86,3.07 h -35.82 l -1.86,-3.07 z m 4.17,-14.91 c -0.01,-0.11 0.03,-0.22 0.1,-0.31 0.07,-0.08 0.17,-0.14 0.29,-0.14 0.01,0 0.02,0 0.04,0 0.21,0 0.4,0.18 0.41,0.39 0.01,0.14 0.27,3.42 -0.38,6.23 -0.01,0.05 -0.24,1.14 -0.59,1.81 l 5.33,0.18 c -0.05,-3.01 -2.23,-4.99 -2.24,-5.01 l -0.24,-0.22 1.45,-3 -1.5,-1.35 0.12,-0.27 c 0.69,-1.57 0.63,-2.83 0.61,-3.07 -0.01,-0.12 0.02,-0.23 0.09,-0.32 0.08,-0.09 0.18,-0.14 0.29,-0.15 0.01,0 0.03,0 0.05,0 0.21,0 0.39,0.17 0.4,0.39 0.02,0.24 0.11,1.5 -0.57,3.22 l 1.53,1.38 -1.45,2.99 c 0.64,0.66 2.45,2.82 2.3,5.87 0,0.03 -0.02,0.11 -0.04,0.14 l -0.02,0.04 c -0.05,0.14 -0.2,0.24 -0.37,0.24 l -0.05,-0.01 -6.58,-0.26 c -0.03,-0.01 -0.98,-0.48 -1.98,-0.48 -0.55,0 -1.02,0.14 -1.38,0.43 -0.17,0.14 -0.45,0.11 -0.6,-0.07 -0.15,-0.19 -0.11,-0.45 0.07,-0.6 0.52,-0.41 1.15,-0.61 1.9,-0.61 0.81,0 1.55,0.24 1.98,0.41 0.22,-0.43 0.67,-1.44 0.85,-2.97 0.37,-2.41 0.18,-4.86 0.18,-4.88 m 15.24,-10.42 c 0.04,0 0.25,-0.05 0.24,0.21 -0.03,0.54 -0.33,0.34 -0.33,0.34 -0.11,-0.06 -0.24,-0.11 -0.35,-0.11 -0.09,0 -0.32,0.03 -0.37,0.35 v 0.05 l 0.35,0.8 c 0,0 0.11,0.51 0.12,1.03 0.03,0.8 -0.82,0.65 -1.1,0.54 -0.06,-0.02 -0.57,0.08 -0.74,-0.26 -0.08,-0.15 0.05,-0.37 -0.12,-0.3 -0.16,0.09 -0.23,0.29 -0.15,0.45 0.16,0.3 0.47,0.47 0.73,0.56 -0.47,-0.03 -1.37,0 -2.12,0.63 0,0 -0.29,0.39 -0.1,0.51 0,0 0.35,-0.03 0.79,-0.16 0.18,-0.06 1.43,-0.41 1.8,-0.08 0,0 0.24,-0.07 0.25,0.15 0,0 -0.08,0.09 -0.3,0.04 l -0.39,-0.11 c 0,0 -0.5,0 -0.65,0 -0.14,0 -0.33,0 -0.59,0.07 -0.06,0.01 -0.11,0.02 -0.11,0.02 -0.13,0.25 -0.01,0.18 -0.01,0.18 0.05,-0.05 0.11,-0.12 0.25,-0.15 0.1,-0.02 0.21,-0.03 0.5,-0.03 0,0 0.68,0 1.04,0.19 0,0 0.16,0.19 -0.04,0.36 -0.26,0.23 -0.65,-0.02 -0.78,-0.01 -0.14,0.01 -0.41,0.14 -0.26,0.32 0,0 0.01,0.02 0.81,0.21 0,0 0.18,0.05 0,0.49 -1.03,1.58 -3.45,-0.99 -3.45,-0.99 l -1.11,-1.23 c -1.12,-0.69 -0.77,-1.7 -0.79,-1.95 -0.28,0.04 -0.6,-0.43 -0.68,-0.7 -1.25,-2 0.06,-2.57 0.06,-2.57 0.84,-0.22 1.05,0.89 1.05,0.89 1.39,-1.27 2.05,-2.42 2.31,-2.98 3.74,0.04 4.66,0.94 4.68,0.99 0.04,0.09 0.01,0.63 0.09,0.68 -0.05,0.38 -0.11,0.68 -0.18,0.9 -0.12,-0.01 -0.24,-0.02 -0.4,-0.01 -0.18,0.01 -0.32,0.17 -0.31,0.35 0.03,0.2 0.17,0.34 0.36,0.33 m -0.72,4.03 -0.38,-0.03 -0.24,-0.24 c 0.12,0 0.54,-0.08 0.64,-0.11 0.06,0.12 0.05,0.25 -0.02,0.38 m -2.08,16.08 c 0.34,-0.03 0.7,-0.31 1.11,-0.65 0.46,-0.38 0.78,-0.01 0.78,-0.01 0.08,0.12 -0.16,0.47 -0.38,0.63 -0.07,0.05 -0.51,0.46 -0.67,0.59 -0.31,0.24 -0.45,0.3 -0.75,0.36 -0.3,0.06 -1.42,0.05 -1.42,0.05 0,0 -0.35,0.1 -0.44,0.23 0,0 0.87,0.07 1.58,0.04 0,0 0.65,-0.19 0.98,-0.33 0,0 0.5,-0.63 0.69,-0.73 0.3,-0.14 0.42,0.08 0.42,0.08 -0.07,0.26 -0.41,0.78 -0.63,0.95 -0.21,0.17 -0.77,0.68 -1.49,0.8 -0.32,0.05 -0.59,-0.02 -0.91,-0.01 -0.16,0.01 -0.2,0.01 -0.36,0.01 -0.1,0 -0.23,0 -0.32,0.03 -0.11,0.02 -0.24,0.11 -0.23,0.2 0.08,-0.04 1.54,0.07 1.62,0.02 0.08,-0.05 1.43,-0.56 1.33,-0.45 -0.11,0.11 -0.65,1.04 -1.49,1.14 -0.35,0.04 -1.61,-0.07 -1.74,0.19 0.2,0.09 0.96,0.08 1.21,0.06 0.1,-0.02 0.29,-0.02 0.39,-0.04 0.35,-0.1 0.64,-0.24 0.64,-0.24 0.01,0.08 -0.27,0.55 -0.77,0.82 -0.34,0.22 -1.58,0.18 -1.58,0.18 -0.42,-0.03 -0.84,0.03 -1.28,-0.04 -0.02,0 -2.26,-0.33 -3.36,-1.13 -0.07,-0.04 -0.13,-0.06 -0.21,-0.08 l -1.24,0.11 c -0.27,-0.89 0.18,-2.57 0.63,-2.83 0.29,0.03 0.66,0.03 1.54,-0.07 h 0.01 c 0.02,0 0.02,-0.01 0.03,-0.01 0.33,-0.04 1.89,-0.42 2.23,-0.52 0.04,-0.01 0.76,-0.21 1.39,-0.21 0.64,0.08 1.31,0.11 1.58,0.21 0.26,0.1 0.5,0.43 0.5,0.43 -0.76,0.27 -1.97,0.01 -2.13,-0.01 -0.32,-0.04 -0.59,0.2 -0.59,0.2 0.03,0.22 3.04,0.06 3.33,0.03 m -7.96,17.15 c 0.51,0 0.92,0.42 0.92,0.93 0,0.51 -0.41,0.93 -0.92,0.93 -0.51,0 -0.92,-0.42 -0.92,-0.93 0,-0.52 0.41,-0.93 0.92,-0.93 m -6.5,-11.73 h -0.21 l 0.61,-0.85 h 5.82 c 0.11,-0.04 0.61,-0.71 0.77,-1.16 0.08,-0.21 0.33,-0.33 0.55,-0.26 0.22,0.08 0.33,0.33 0.26,0.54 -0.21,0.61 -0.95,1.74 -1.43,1.74 -0.08,0 -6.37,-0.01 -6.37,-0.01 m 6.87,7.38 c -0.51,0 -0.92,-0.41 -0.92,-0.93 0,-0.51 0.41,-0.93 0.92,-0.93 0.5,0 0.92,0.42 0.92,0.93 -0.01,0.51 -0.42,0.93 -0.92,0.93 m 0.21,-4.75 c -0.51,0 -0.92,-0.42 -0.92,-0.93 0,-0.52 0.41,-0.93 0.92,-0.93 0.51,0 0.92,0.41 0.92,0.93 0,0.51 -0.42,0.93 -0.92,0.93 m 2.69,-9.09 c -0.01,0.15 -0.14,0.38 -0.45,0.38 -0.37,-0.03 -0.4,-0.36 -0.39,-0.47 0.66,-7.22 -1.51,-13.97 -1.53,-14.04 -0.04,-0.11 -0.03,-0.23 0.03,-0.33 0.05,-0.1 0.14,-0.17 0.25,-0.21 0.21,-0.07 0.46,0.06 0.53,0.28 0.08,0.32 2.23,7.09 1.56,14.39 m -50.58,54.75 1.07,-2 h 35.66 l 1.06,2 z m 37.78,7.75 H 291.5 v -6.45 h 37.78 z m -36.71,-51.86 h 35.66 v 40.8 h -35.66 z m -1.98,-6.32 c -0.83,0 -2.88,-0.08 -4.05,-0.89 0,0 -0.73,-0.76 -0.86,-0.54 -0.13,0.21 0.21,0.65 0.33,1 0.12,0.34 -0.09,1.65 -0.09,1.65 l 0.16,1.41 c 0.16,0.79 -0.48,0.67 -0.48,0.67 -0.28,-0.09 -0.37,-0.7 -0.37,-0.7 l -0.13,-0.71 c -0.02,-0.2 0,-0.37 -0.01,-0.47 -0.02,-0.2 -0.18,-0.11 -0.18,-0.11 v 0.52 c 0.06,0.52 0.12,0.89 0.12,0.89 l 0.23,0.67 c -0.33,0.76 -0.84,0.26 -0.84,0.26 -0.25,-0.16 -0.35,-0.89 -0.35,-0.89 -0.01,-0.37 -0.07,-1.01 -0.07,-1.01 -0.08,-0.22 -0.23,-0.07 -0.23,-0.07 0.01,0.2 0.03,0.91 0.03,0.91 0.07,0.44 0.1,0.64 0.38,1.35 l -0.03,0.33 c -0.33,0.34 -0.81,-0.05 -0.81,-0.05 -0.25,-0.36 -0.36,-1.18 -0.36,-1.18 -0.03,-0.51 -0.01,-1.22 -0.01,-1.22 -0.11,-0.18 -0.27,0 -0.27,0 0.09,0.16 -0.01,0.97 -0.01,0.97 -0.01,0.58 0.46,1.75 0.46,1.75 l -0.02,0.3 c -0.26,0.44 -0.73,-0.04 -0.73,-0.04 -0.41,-0.34 -0.44,-0.67 -0.44,-0.67 -0.2,-0.4 -0.22,-2.11 -0.22,-2.11 -0.07,-0.42 0.08,-0.65 0.08,-0.65 0.82,-1.89 1.43,-3.24 1.74,-3.58 0.31,-0.35 0.43,-0.73 1.57,-0.73 0.29,0 2.37,0.23 3.95,-0.55 3.46,-1.7 5.41,-0.17 5.5,0.34 0.05,0.19 0.18,0.84 -0.21,1.49 -0.49,0.81 -1.64,1.38 -3.29,1.64 -0.01,0.01 -0.19,0.02 -0.49,0.02 m -3.4,18.07 c -0.31,-9.61 -1.05,-12.37 -1.25,-12.94 0.01,-0.14 0.07,-0.95 0.07,-1.08 1.49,-0.79 0.28,-2.55 0.68,-3.84 0.03,0.01 0.23,0.06 0.26,0.07 l 3.05,4.88 v 21.76 c -1.25,-5.39 -2.56,-8.27 -2.81,-8.85 m 2.4,19.34 v 0.77 h -4.28 c -0.19,0 -0.4,-0.19 -0.4,-0.37 0,-0.19 0.21,-0.4 0.4,-0.4 z m -6.03,-31.52 c 0,0 -0.01,0.01 -0.01,0.03 -0.28,0.61 -1.32,2.95 -2.55,7.7 -0.27,0.63 -0.95,0.32 -0.82,-0.22 1.3,-5.01 2.39,-7.39 2.59,-7.81 0.38,-0.52 0.91,-0.11 0.79,0.3 m -8.65,-14.09 0.08,1.85 h -0.1 c -1.68,0.18 -2.53,0.83 -2.53,0.83 l -0.11,-2.6 z m -0.68,-5.35 c -0.04,0.05 -3.66,5.99 -4.25,11.59 -0.03,0.21 -0.21,0.38 -0.43,0.38 -0.02,0 -0.04,0 -0.05,0 -0.1,-0.01 -0.21,-0.07 -0.28,-0.15 -0.07,-0.09 -0.11,-0.2 -0.1,-0.31 0.65,-6.02 4.38,-11.95 4.41,-12 0.13,-0.18 0.41,-0.22 0.59,-0.09 0.21,0.13 0.25,0.39 0.11,0.58 m -5.1,9.59 c -0.05,0.02 -0.11,0.03 -0.17,0.03 -0.16,0 -0.32,-0.1 -0.38,-0.26 -0.34,-0.83 -1.5,-1.07 -1.63,-1.09 -0.11,-0.02 -0.21,-0.08 -0.28,-0.17 -0.07,-0.09 -0.1,-0.2 -0.08,-0.32 0.04,-0.24 0.25,-0.4 0.49,-0.35 0.01,0 1.73,0.26 2.28,1.6 0.09,0.21 -0.02,0.46 -0.23,0.56 m 1.01,2.42 c 0.29,-0.03 0.44,-0.45 0.44,-0.45 0,0 0.68,-1.83 1.38,-2.66 0.21,-0.25 0.69,-0.77 1.3,-0.81 0,0 1.35,-0.62 2.08,-0.34 0,0 0.48,0.1 0.77,0.42 0,0 0.4,0.26 -0.18,0.78 -0.01,0.01 -0.56,-0.32 -0.56,-0.32 l -0.88,0.09 c -0.2,0.06 -0.43,0.12 -0.4,0.2 0.02,0.07 0.31,0.08 0.31,0.08 0.59,-0.14 1.14,-0.01 1.37,0.01 0.02,0 0.16,0.05 0.18,0.07 0.11,0.07 0.31,0.22 0.32,0.48 0,0 0,0.25 -0.39,0.42 -0.01,0 -0.08,-0.02 -0.13,-0.08 -0.05,-0.04 -0.15,-0.14 -0.48,-0.09 0,0 -0.64,0.04 -0.71,0.07 -0.09,0.04 -0.26,0.11 -0.37,0.16 0,0 -0.06,0.2 0.17,0.15 0,0 0.17,-0.03 0.48,-0.07 0,0 0.53,-0.03 0.66,-0.04 0.13,-0.01 0.3,0.08 0.31,0.09 0.11,0.07 0.5,0.2 0.26,0.6 0,0 -0.17,0.17 -0.41,0.2 0,0 -0.12,-0.09 -0.38,-0.1 0,0 -0.92,0.06 -1.26,0.17 0,0 -0.08,0.22 0.26,0.12 0,0 0.83,-0.13 1.07,0 0.1,0.06 0.61,0.32 0.47,0.78 0,0 -0.17,0.39 -0.43,0.47 0,0 -0.25,-0.42 -0.57,-0.36 l -0.71,0.06 c 0,0 -0.35,0.02 -0.7,0.18 0,0 -0.32,0.77 -1.48,0.89 -0.52,0.53 -1.13,1.2 -1.54,1.52 -1.23,0.94 -3.11,2.03 -5,1.88 -1.2,0 -2.19,-0.35 -2.92,-1.04 -0.08,-0.22 -0.36,-1.38 1.11,-3.82 0,0 1.22,-0.48 1.78,0.08 0.74,0.75 4.78,0.21 4.78,0.21 m 1.05,28.39 h 15.63 v 5.95 h -15.63 z m 14.14,6.89 -0.1,0.15 c -0.52,0.77 -0.81,1.79 -0.81,2.87 0,1.08 0.29,2.11 0.81,2.88 l 0.1,0.15 h -12.41 l 0.1,-0.15 c 0.52,-0.77 0.81,-1.79 0.81,-2.88 0,-1.08 -0.29,-2.1 -0.81,-2.87 l -0.1,-0.15 z m 4.26,6.95 -0.01,8.51 -0.89,1.88 v 7.1 h -19.27 v -17.49 z m 49.43,13.75 c 0.69,-0.43 1.6,-0.7 2.73,-0.48 0.34,0.07 1.28,0.52 1.28,0.52 l 0.31,1.41 c 0.03,0.14 0.13,0.25 0.27,0.31 0.47,0.18 1.93,0.79 1.56,1.49 -1.19,1.08 -6.45,-0.16 -6.49,-0.18 -0.14,-0.03 -0.29,-0.02 -0.39,0.07 -0.12,0.08 -0.18,0.21 -0.18,0.35 l -0.27,0.01 v -1.64 c 0,-0.1 -0.04,-0.2 -0.09,-0.28 l -0.16,-0.19 c 0.14,-0.22 0.39,-0.53 0.74,-0.86 0.36,0.55 2.72,1.66 2.77,1.47 0.07,-0.23 -1.82,-1.58 -2.08,-2 m 12,3.74 c 0.43,-2.34 2.27,-3.66 4.45,-3.66 2.19,0 4.02,1.32 4.45,3.66 z M 310.41,467.04 c 38.29,0 69.44,31.15 69.44,69.44 0,15.74 -5.27,30.26 -14.13,41.92 h -1.01 l -1.26,-4.52 H 347.5 l -1.14,4.07 c 0,-0.9 -1.07,-1.63 -1.3,-1.78 l -0.02,-0.02 v 0.01 c -0.25,-0.16 -0.56,-0.31 -0.91,-0.46 l -0.29,-1.32 c 0,0 -1.97,-1.36 -2.65,-2.21 -1.14,-1.43 -2.57,-3.32 -3.04,-4.7 -0.06,-0.17 -0.1,-0.53 0.19,-0.68 0.3,-0.16 0.48,0.15 0.54,0.31 0.4,1.17 1.62,2.93 2.69,4.29 0.6,0.76 2.33,1.96 2.33,1.96 l -0.11,-15.78 c 0,-2.29 0.25,-7.14 1.15,-12.08 1.25,-6.84 2.75,-13.82 2.86,-14.32 0.04,-0.17 0.26,-0.32 0.49,-0.26 0.25,0.06 0.3,0.31 0.26,0.49 -0.02,0.09 -0.99,4.81 -1.77,9.26 0.78,0.61 3.9,3.11 4.51,5.45 l 0.02,0.06 -1.69,11.67 -0.63,5.72 c -0.04,0.2 -0.83,5.14 0.11,7.66 h -3.04 v 1.88 h 18.86 v -1.88 h -2.29 c -0.05,-0.28 -0.16,-0.59 -0.4,-0.89 -0.61,-0.75 -1.46,-1.76 -3.63,-1.76 l -0.93,-1.64 1.47,-7.72 0.88,-6.22 c 0.58,-0.07 1.66,-0.31 2.23,-1.23 0.59,-0.95 0.46,-2.29 -0.37,-3.98 0.06,-0.66 0.23,-3.54 -1.39,-4.91 0,0 -4.68,-9.97 -4.98,-10.58 -2.3,0.3 -4,-0.09 -5.24,-1.36 -1.35,-1.21 -2.2,-2.92 -2.44,-4.54 -0.24,1.57 -0.71,3.1 -1.79,4.28 -1.02,1.1 -2.51,1.74 -4.18,1.71 -0.35,10.22 -1.19,25.2 -4.62,27.84 -0.79,0.61 -2.37,0.48 -2.37,0.48 l 1.74,15.45 c 0,0.01 0.01,0.02 0.01,0.03 0.01,0.07 0.03,0.15 0.08,0.2 v 0.01 l 0.26,0.3 v 1.74 h -4.68 v -7.23 l -1.49,-3.11 v -9.62 c 1.12,0.74 4.26,2.25 5.78,0.95 2.69,-2.3 3.71,-13.55 4.13,-22.91 0.38,-8.23 0.58,-15 0.58,-15.15 0,-0.5 0.8,-0.62 0.8,-0.01 0,0.47 -0.04,4.61 -0.22,10 1.49,0.04 2.66,-0.4 3.55,-1.36 2.3,-2.38 1.74,-7.72 1.75,-7.97 l -0.55,-0.32 c -0.5,-0.22 -0.16,-1 0.35,-0.82 l 3.92,1.85 5.27,-5.45 c 0.12,-0.13 0.39,-0.18 0.6,-0.03 0.19,0.14 0.15,0.4 0.03,0.53 l -5.43,5.74 c 0.45,0.58 1.6,0.19 1.6,0.19 l 3.33,-3.62 c 0.21,-0.21 0.44,-0.02 0.44,-0.02 0.24,0.17 0.02,0.46 0.02,0.46 -0.19,0.25 -3.48,4.04 -3.48,4.04 0,0 0.63,1.16 2.6,1.74 3.57,0.77 5.08,-3.76 5.26,-5.54 l 7.17,-7.01 c 0.34,-0.34 0.26,-0.54 0.06,-0.59 -1.13,-0.23 -1.36,-1.21 -1.26,-1.63 -0.92,0.3 -4.31,1.15 -5.46,1.4 -0.25,-0.38 -0.65,-0.3 -0.65,-0.3 -0.45,0.05 -0.66,0.33 -0.77,0.72 -0.2,-0.16 -0.8,-0.54 -1.34,0.27 l -5.68,-4.44 c 0,0 -0.1,0.29 -0.26,0.6 -0.07,-1.06 -0.49,-2.41 -1.79,-3.13 l -1.77,1.84 1.16,1.88 c 0,0 -1.59,1.54 -2.58,3.3 2.2,-2.54 3.96,-2.35 4.06,-2.35 0.25,0.01 0.39,0.14 0.43,0.17 l 4.64,3.76 c 0.13,0.11 0.15,0.31 0.04,0.45 -0.06,0.08 -0.15,0.12 -0.25,0.12 -0.07,0 -0.14,-0.02 -0.2,-0.07 l -4.58,-3.72 c -0.14,-0.09 -0.21,-0.11 -0.34,-0.1 -0.69,0.05 -2.76,0.54 -4.9,4.25 -0.01,0.03 -0.08,0.27 -0.35,0.27 -0.26,0 -0.37,-0.32 -0.37,-0.36 -0.77,-3.36 -0.92,-4.14 -0.97,-4.36 -1.38,-1.89 -2.95,-7.8 -3.38,-9.45 0.83,1.01 2.07,4.3 3.98,6.3 0.92,-0.98 1.26,-1.71 1.96,-3.93 0.02,-0.08 0.06,-0.16 0.12,-0.23 -0.07,1.58 -0.28,5.93 -0.64,9.3 0.86,-1.64 1.92,-2.93 2.32,-3.38 l -1.14,-1.95 2.16,-2.2 c -0.07,-0.39 -1.34,-2.6 -1.92,-3 l 0.12,-0.87 c 0.25,-0.37 1.02,-1.63 1.08,-2.89 l 0.03,-1.42 c 0,0 0.34,-0.47 0.43,-1.21 0.33,-0.32 0.43,-0.14 0.57,-1.35 0.24,-0.38 1.17,-1.76 0.84,-2.72 -0.1,-0.3 -0.33,-0.69 -0.9,-0.93 -0.4,-0.56 -1.99,-2.57 -4.48,-2.96 -1.76,-0.27 -3.56,0.34 -5.25,1.77 -0.15,0.07 -3.1,2.22 -2.02,7.87 l 0.65,2.14 c -1.01,0.48 -3.54,1.58 -3.54,1.58 -0.72,0.02 -4.88,-0.29 -6.03,3.08 -0.03,0.09 -2.54,7.7 -4.13,10.14 -0.05,0.08 -1.08,1.93 -0.39,3.57 0.21,0.51 0.57,0.93 1.05,1.28 h -7 c 0.62,-1.46 0,-2.98 0,-2.98 0.89,-1.6 0.23,-3.5 0.23,-3.5 1.26,-2.29 -0.12,-3.99 -0.12,-3.99 h -3.66 l -0.36,-0.66 c 0.65,-0.64 1.05,-1.87 1.05,-1.87 -0.44,-0.45 -2.96,-0.92 -4.74,-1.1 l -0.53,-0.88 v -3.6 h -0.74 c 0.93,-1.54 -0.41,-3.35 -0.41,-3.35 0,0 -1.34,1.8 -0.41,3.35 h -0.74 v 3.6 l -0.55,0.93 c -0.73,0.09 -1.62,0.21 -2.17,0.36 -0.08,-0.45 -1.21,-0.76 -1.58,-1.13 -0.86,-0.87 -2.15,-0.98 -2.89,-0.25 -0.74,0.73 -0.64,2.02 0.22,2.89 0.79,0.81 1.94,0.96 2.7,0.4 0.13,0.24 0.27,0.47 0.46,0.65 l -0.34,0.66 h -4.01 c 0,0 -1.38,1.7 -0.12,3.99 0,0 -0.75,1.89 0.13,3.5 0,0 -0.61,1.46 0.01,2.99 l -7.49,0.01 c 0.67,-0.35 1.17,-0.79 1.49,-1.33 0.55,-0.92 0.38,-1.83 0.29,-2.15 0.24,-1.43 -0.21,-2.23 -0.48,-2.56 0.08,-1.95 -1.09,-2.96 -1.62,-3.32 0.16,-4.78 -3.23,-6.82 -3.42,-6.92 -2.06,-0.84 -4.07,-0.97 -5.09,-0.97 -0.27,0 -0.48,0.01 -0.63,0.02 -0.77,0.1 -1.05,-2.05 -0.93,-2.42 2.38,-4.16 1.08,-8.29 1.02,-8.42 -1.9,-5.23 -8.2,-3.23 -8.22,-3.23 -1.08,0.29 -2.08,0.81 -2.78,1.23 -0.62,0.37 -1.14,0.04 -1.14,0.04 l -0.08,0.95 c -0.05,0.26 0.07,0.93 0.43,1.23 -0.36,0.7 -1.03,2.3 -0.33,4.12 0.1,0.2 -0.3,0.79 -1.03,1.58 -0.08,0.14 -0.13,0.39 -0.01,0.64 0.16,0.32 0.53,0.45 1.15,0.61 0,0.26 -0.02,0.66 0.38,0.91 -0.08,0.14 -0.28,0.53 -0.08,0.76 0.17,0.2 0.39,0.1 0.45,0.26 0.05,0.12 -0.02,0.99 0.41,1.45 0.6,0.64 1.53,0.41 2.8,-0.12 l -0.1,0.93 -0.12,0.23 v 0 c -0.49,0.54 -1.41,1.6 -1.41,1.6 -0.95,-0.13 -1.81,0.45 -1.81,0.45 -2.3,1.38 -5.73,6.75 -6.29,7.64 -3.41,1.45 -3.58,3.6 -3.55,4.24 -2.09,3.26 -1.3,4.69 -1.14,4.92 0.9,0.87 2.09,1.31 3.54,1.31 1.58,0 3.07,-0.52 3.79,-0.82 0.2,0.5 0.5,1 0.63,1.21 0,0 0.03,1.12 0.02,1.2 -2.92,3.85 -6.61,16.66 -6.94,17.84 -2.89,4.22 -6.81,9.31 -6.86,9.36 l -0.26,0.34 c 0,0 2.67,2.3 2.98,2.3 0.5,-0.41 3.23,-5.73 3.25,-5.79 0.06,-0.17 0.39,-0.33 0.55,-0.27 0.17,0.05 0.27,0.31 0.21,0.48 -0.08,0.24 -3.26,6.36 -4.36,7.91 1.45,0.13 14.48,0.02 14.48,0.02 0.18,0 0.47,0.08 0.47,0.41 0,0.34 -0.29,0.4 -0.47,0.4 0,0 -8.92,0.01 -8.93,0.01 l -1.37,14.19 c 0,0 0.73,-1.12 1.55,-1.63 -0.01,0 1.12,-0.91 1.64,-1.82 0.08,-0.15 0.34,-0.19 0.49,-0.09 0.25,0.17 0.13,0.45 0.04,0.61 -0.57,1.02 -1.76,1.97 -1.81,2.01 -0.84,0.57 -2.05,2.32 -2.05,2.32 l -2.21,1.69 c -2.41,0.66 -3.82,1.44 -4.19,2.35 -0.02,0.06 -0.04,0.12 -0.06,0.18 h -0.86 c -8.86,-11.66 -14.12,-26.18 -14.12,-41.92 0.06,-38.27 31.22,-69.43 69.51,-69.43 m 29.24,96.61 c 0.05,-3.96 2.29,-8.48 2.32,-8.52 0.09,-0.2 0.36,-0.3 0.56,-0.19 0.11,0.05 0.18,0.14 0.22,0.25 0.04,0.1 0.03,0.22 -0.02,0.32 -0.09,0.19 -2.18,4.53 -2.23,8.16 0,0.24 -0.2,0.42 -0.42,0.42 -0.25,-0.01 -0.44,-0.21 -0.43,-0.44 m 16.22,-13.58 c 0.21,0.04 0.36,0.23 0.33,0.44 -0.03,0.2 -0.2,0.34 -0.39,0.34 -0.02,0 -0.04,0 -0.05,0 -0.11,-0.01 -2.49,-0.2 -3.8,-2.54 l -0.53,-0.94 1.01,0.39 c 0.01,0.01 1.6,0.47 3.22,-0.21 0.2,-0.08 0.43,0.01 0.51,0.21 0.08,0.2 -0.01,0.42 -0.21,0.51 -1.06,0.44 -2.14,0.4 -2.91,0.28 1.18,1.27 2.8,1.52 2.82,1.52 m -4.24,18.15 c 1.18,0.41 4.05,1.85 4.14,1.77 0.18,-0.16 -2.01,-1.89 -3.03,-2.29 1.87,-0.68 3.63,-0.41 4.18,-0.31 l 1.04,1.84 c 0.09,0.14 0.23,0.24 0.4,0.22 1.88,-0.1 2.87,1.05 3.18,1.43 0.1,0.12 0.15,0.24 0.18,0.35 h -6.52 c -0.35,-0.53 -1.16,-1.06 -2.36,-0.79 -0.15,0.03 -0.05,0.55 -0.07,0.79 h -2.76 c -0.12,-0.25 -0.28,-1.11 -0.34,-1.43 0.09,-0.03 1.36,-1.23 1.96,-1.58 m 8.67,-16.17 1.14,-3.04 c 0.36,0.98 0.38,1.77 0.07,2.28 -0.29,0.46 -0.8,0.66 -1.21,0.76 m -2.99,-36.09 c 0.02,-0.13 0.21,-0.76 0.42,-0.93 0,0 0.34,-0.03 0.28,0.51 -0.05,0.41 -0.08,0.7 -0.08,0.94 0.07,0.56 0.12,1.2 0.29,1.09 0.22,-0.13 -0.23,-3.14 0.47,-3.43 0.09,-0.04 0.2,0.01 0.25,0.15 0.05,0.12 0.01,0.31 0.03,0.51 0.01,0.09 0.05,1.33 0.05,1.33 0.03,0.21 0.03,1.25 0.19,1.21 0.13,-0.02 0.09,-1.51 0.07,-1.95 0,-0.06 -0.01,-0.3 -0.01,-0.36 -0.01,-0.53 0.03,-1.07 0.19,-1.17 0.49,-0.3 0.63,0.42 0.67,1.13 0,0.06 0.01,0.28 0.01,0.33 0,0.46 -0.01,0.85 -0.01,0.85 0.03,0.22 0.01,0.71 0.2,0.75 0.18,0.05 0.15,-2.24 0.16,-2.35 0.03,-0.63 0.15,-1.18 0.45,-1.2 0.39,-0.02 0.45,0.56 0.44,1.35 v 0.5 c -0.01,0.24 -0.2,1.57 0.03,1.64 0.04,0.01 0.34,-0.44 0.39,-0.61 -0.1,-0.41 0.29,-1.14 0.56,-1.2 0.29,-0.06 0.33,0.35 0.33,0.38 -0.02,0.11 -0.03,0.22 -0.02,0.33 0,0.12 0.02,0.23 0.04,0.35 0.04,0.16 -0.16,0.69 -0.21,0.82 -0.09,0.2 -0.09,0.12 -0.17,0.33 v -0.01 c -0.46,1.28 -1.56,2.65 -2.21,3.43 -0.38,0.45 -0.59,0.98 -1.17,1.22 -0.59,0.25 -1.29,-0.13 -1.58,-0.7 -0.29,-0.56 -0.27,-1.24 -0.29,-1.86 -0.02,-0.77 0.03,-1.53 0.14,-2.28 0,-0.01 0.09,-0.98 0.09,-1.1 m -5.09,-5.47 c 0,0 0.91,0.26 1.16,-0.28 l 4.8,3.82 c 0,0 -0.15,0.11 -0.25,0.6 0,0 -0.28,-0.2 -0.4,0.13 z m 14.55,2.23 -4.9,1.34 -0.1,-0.37 4.81,-1.36 c 0.01,0 0.48,0.07 0.19,0.39 m 0.36,0.27 c 0,0 0.4,0.05 0.11,0.38 l -5.3,1.49 -0.04,-0.46 z m -62.04,-5.61 c 0,0.26 -0.1,0.5 -0.27,0.66 -0.17,0.16 -0.4,0.25 -0.66,0.25 -0.32,0 -0.64,-0.14 -0.88,-0.38 -0.46,-0.46 -0.5,-1.14 -0.1,-1.52 0.17,-0.17 0.4,-0.25 0.66,-0.25 0.32,0 0.64,0.14 0.88,0.38 0.23,0.24 0.37,0.55 0.37,0.86"
   clip-path="url(#SVGID_2_)"
   id="path806"
   style="fill:#092c87;fill-opacity:1" />
	<path
   class="st0"
   d="m 342.69,497.19 c -0.05,-0.07 -0.01,-0.17 0,-0.25 0.03,-0.1 0.02,-0.18 -0.01,-0.28 -0.07,-0.18 -0.25,-0.45 -0.46,-0.48 -0.16,-0.02 -0.29,0.17 -0.33,0.29 -0.02,0.06 -0.05,0.21 0.05,0.24 0.14,0.05 0.21,-0.33 0.36,-0.16 0.17,0.19 0,0.51 0.03,0.74 0.03,0.21 0.22,0.38 0.43,0.42 0.12,0.02 0.17,-0.08 0.15,-0.18 -0.02,-0.07 -0.04,-0.13 -0.08,-0.18 -0.05,-0.05 -0.1,-0.1 -0.14,-0.16"
   clip-path="url(#SVGID_2_)"
   id="path808"
   style="fill:#092c87;fill-opacity:1" />
	<path
   class="st0"
   d="m 282.8,521.37 c -0.11,0.02 -0.15,0.07 -0.16,0.18 -0.01,0.11 2.51,-0.57 2.47,-0.61 -0.05,-0.07 -2.12,0.41 -2.31,0.43"
   clip-path="url(#SVGID_2_)"
   id="path810"
   style="fill:#092c87;fill-opacity:1" />
	<path
   class="st0"
   d="m 346.43,514.61 c 0.24,-1.91 0.41,-4.18 0.54,-6.11 -0.49,1.63 -1.04,2.82 -1.2,3.16 0.06,0.22 0.21,0.93 0.66,2.95"
   clip-path="url(#SVGID_2_)"
   id="path812"
   style="fill:#092c87;fill-opacity:1" />
	<path
   class="st0"
   d="m 346.98,496.7 c -0.42,0 -0.92,0.25 -0.94,0.26 l -0.27,0.14 c 0,0 1.15,0.79 1.32,0.77 0.17,-0.02 0.14,-0.42 0.14,-0.42 l 0.34,-0.41 c -0.06,-0.15 -0.22,-0.34 -0.59,-0.34"
   clip-path="url(#SVGID_2_)"
   id="path814"
   style="fill:#092c87;fill-opacity:1" />
	<path
   class="st0"
   d="m 345.91,495.77 c -0.14,0.11 -0.16,0.32 -0.05,0.46 0.07,0.08 1.27,-0.62 1.87,0.02 0.12,0.13 0.33,0.14 0.46,0.01 0.13,-0.12 0.14,-0.33 0.01,-0.46 -0.81,-0.87 -1.85,-0.4 -2.29,-0.03"
   clip-path="url(#SVGID_2_)"
   id="path816"
   style="fill:#092c87;fill-opacity:1" />
	<polygon
   class="st0"
   points="303.91,551.29 295.66,551.29 295.66,564.11 325.14,564.11 325.14,551.29 316.88,551.29 316.88,541.9 325.22,541.9 325.22,529.76 295.57,529.76 295.57,541.9 303.91,541.9 "
   clip-path="url(#SVGID_2_)"
   id="polygon818"
   style="fill:#092c87;fill-opacity:1" />
	<path
   class="st0"
   d="m 277.9,498.16 c 0.49,-0.03 0.31,-0.39 0.34,-0.53 0.03,-0.14 -0.16,-0.26 -0.16,-0.26 0.02,-0.27 0.07,-0.53 0.24,-0.52 0.17,0.01 0.24,0.15 0.3,0.27 0.02,0.06 0.08,0.22 0.15,0.23 0.1,0.01 0.16,-0.17 0.17,-0.24 0.08,-0.42 -0.5,-0.57 -0.81,-0.46 -0.27,0.09 -0.3,0.38 -0.33,0.61 -0.02,0.11 -0.03,0.21 -0.04,0.31 -0.02,0.15 -0.1,0.44 0,0.57 0.03,0.04 0.08,0.05 0.14,0.02"
   clip-path="url(#SVGID_2_)"
   id="path820"
   style="fill:#092c87;fill-opacity:1" />
	<path
   class="st0"
   d="m 273.43,496.48 c 0,0 -0.05,-0.26 0.09,-0.38 0.1,-0.1 0.26,-0.22 0.38,-0.28 0.18,0.02 0.41,0.09 0.65,0.26 0.06,0.04 0.13,0.06 0.19,0.06 0.1,0 0.44,-0.06 0.08,-0.42 -0.83,-0.86 -1.72,-0.39 -1.75,-0.37 -0.16,0.09 -0.21,0.29 -0.12,0.44 0.06,0.11 0.18,0.16 0.3,0.16 -0.05,0.11 -0.15,0.4 -0.1,0.9 0,0 0.13,0.19 0.58,0.23 0.46,0.04 0.93,-0.36 0.93,-0.36 0,0 -0.99,-0.75 -1.23,-0.24"
   clip-path="url(#SVGID_2_)"
   id="path822"
   style="fill:#092c87;fill-opacity:1" />
	<path
   class="st0"
   d="m 350.47,546.42 c -0.5,-1.8 -3.01,-3.99 -3.97,-4.78 -0.26,1.33 -0.53,2.72 -0.78,4.1 -1.07,5.86 -1.07,11.92 -1.07,11.92 1.06,-0.04 2.79,-0.31 4.3,-1.38 z"
   clip-path="url(#SVGID_2_)"
   id="path824"
   style="fill:#092c87;fill-opacity:1" />
	<path
   class="st0"
   d="m 350.32,523.58 -2.26,-1.08 c 0.03,0.34 0.01,4.92 2.74,7.64 2.11,2.12 5.5,1.11 5.5,1.11 0,0 -2.1,-3.45 -3.89,-6.64 -0.85,0.12 -1.79,-0.29 -2.09,-1.03"
   clip-path="url(#SVGID_2_)"
   id="path826"
   style="fill:#092c87;fill-opacity:1" />
	<path
   class="st0"
   d="m 273.81,515.88 0.04,-0.52 c 0,0 -0.47,0.33 -0.04,0.52"
   clip-path="url(#SVGID_2_)"
   id="path828"
   style="fill:#092c87;fill-opacity:1" />
	<path
   class="st0"
   d="m 273.85,517.07 0.05,-0.59 c 0,0 -0.48,0.3 -0.05,0.59"
   clip-path="url(#SVGID_2_)"
   id="path830"
   style="fill:#092c87;fill-opacity:1" />
	<path
   class="st0"
   d="m 360.79,517.82 c 0.12,-0.02 0.15,-0.09 0.16,-0.24 0.01,-0.15 -2.7,0.71 -2.65,0.77 0.05,0.09 2.28,-0.51 2.49,-0.53"
   clip-path="url(#SVGID_2_)"
   id="path832"
   style="fill:#092c87;fill-opacity:1" />
	<path
   class="st0"
   d="m 344.33,517.91 c -0.14,0.02 -0.2,0.05 -0.21,0.16 -0.02,0.18 -0.42,2.22 -0.34,2.27 0.07,0.03 0.69,-2.44 0.55,-2.43"
   clip-path="url(#SVGID_2_)"
   id="path834"
   style="fill:#092c87;fill-opacity:1" />
	<path
   class="st0"
   d="m 272.63,498.45 c -0.01,0.05 0.14,0.07 0.28,0.2 0.14,0.12 0.14,-0.05 0.14,-0.05 0,-0.17 -0.41,-0.2 -0.42,-0.15"
   clip-path="url(#SVGID_2_)"
   id="path836"
   style="fill:#092c87;fill-opacity:1" />
	<path
   class="st0"
   d="m 280.26,507.95 -1.77,-1.13 c 0.17,1.35 -0.24,4.27 -0.24,4.27 2.3,0.01 2.01,-3.14 2.01,-3.14"
   clip-path="url(#SVGID_2_)"
   id="path838"
   style="fill:#092c87;fill-opacity:1" />
	<path
   class="st0"
   d="m 277.37,510.9 c 0.21,-0.93 0.31,-4.17 0.31,-4.17 l -1.16,0.76 -0.15,1.28 c -0.12,1.91 1,2.13 1,2.13"
   clip-path="url(#SVGID_2_)"
   id="path840"
   style="fill:#092c87;fill-opacity:1" />
	<polygon
   class="st0"
   points="308.86,495.5 309.3,497.42 309.78,497.31 309.33,495.39 "
   clip-path="url(#SVGID_2_)"
   id="polygon842"
   style="fill:#092c87;fill-opacity:1" />
	<polygon
   class="st0"
   points="308.01,503.14 307.68,502.78 306.24,504.13 306.57,504.49 "
   clip-path="url(#SVGID_2_)"
   id="polygon844"
   style="fill:#092c87;fill-opacity:1" />
	<polygon
   class="st0"
   points="306.48,496.92 307.83,498.35 308.18,498.03 306.83,496.59 "
   clip-path="url(#SVGID_2_)"
   id="polygon846"
   style="fill:#092c87;fill-opacity:1" />
	<polygon
   class="st0"
   points="305.04,501.63 305.16,502.1 307.08,501.66 306.96,501.18 "
   clip-path="url(#SVGID_2_)"
   id="polygon848"
   style="fill:#092c87;fill-opacity:1" />
	<polygon
   class="st0"
   points="305.12,499.33 307,499.91 307.15,499.44 305.26,498.87 "
   clip-path="url(#SVGID_2_)"
   id="polygon850"
   style="fill:#092c87;fill-opacity:1" />
	<polygon
   class="st0"
   points="311.01,497.31 311.48,497.42 311.93,495.5 311.45,495.39 "
   clip-path="url(#SVGID_2_)"
   id="polygon852"
   style="fill:#092c87;fill-opacity:1" />
	<polygon
   class="st0"
   points="314.55,504.13 313.11,502.78 312.78,503.14 314.22,504.49 "
   clip-path="url(#SVGID_2_)"
   id="polygon854"
   style="fill:#092c87;fill-opacity:1" />
	<polygon
   class="st0"
   points="312.61,498.03 312.96,498.35 314.31,496.92 313.96,496.59 "
   clip-path="url(#SVGID_2_)"
   id="polygon856"
   style="fill:#092c87;fill-opacity:1" />
	<polygon
   class="st0"
   points="315.74,501.63 313.83,501.18 313.71,501.66 315.63,502.1 "
   clip-path="url(#SVGID_2_)"
   id="polygon858"
   style="fill:#092c87;fill-opacity:1" />
	<polygon
   class="st0"
   points="315.53,498.87 313.64,499.44 313.79,499.91 315.67,499.33 "
   clip-path="url(#SVGID_2_)"
   id="polygon860"
   style="fill:#092c87;fill-opacity:1" />
	
	
	
	
	
	
	
	
	
	
	
	
	
	
	
	
	
	
	
	
	
	
	
	
	
	
	
	
	
	
	
	
	
	
	
	
	
	
	
	
	
	
	
	
	
	
	
	
</g>
</svg>
