<?xml version="1.0" encoding="UTF-8"?>
<svg xmlns="http://www.w3.org/2000/svg" xmlns:xlink="http://www.w3.org/1999/xlink" width="252pt" height="251pt" viewBox="0 0 252 251" version="1.1">
<defs>
<clipPath id="clip1">
  <path d="M 131 203 L 135 203 L 135 219 L 131 219 Z M 131 203 "/>
</clipPath>
<clipPath id="clip2">
  <path d="M -285.445312 -394.949219 L 453.164062 -449.285156 L 527.328125 560.722656 L -211.28125 615.058594 Z M -285.445312 -394.949219 "/>
</clipPath>
</defs>
<g id="surface1">
<path style=" stroke:none;fill-rule:nonzero;fill:rgb(0%,47.45098%,75.294118%);fill-opacity:1;" d="M 189.289062 125.855469 C 189.289062 160.90625 160.902344 189.316406 125.882812 189.316406 C 90.863281 189.316406 62.480469 160.90625 62.480469 125.855469 C 62.480469 90.804688 90.863281 62.394531 125.882812 62.394531 C 160.902344 62.382812 189.289062 90.804688 189.289062 125.855469 "/>
<path style=" stroke:none;fill-rule:nonzero;fill:rgb(0%,47.45098%,75.294118%);fill-opacity:1;" d="M 63.707031 29.332031 C 58.308594 42.34375 42.78125 57.886719 29.777344 63.277344 C 14.886719 69.441406 7.785156 86.59375 13.941406 101.511719 C 19.328125 114.523438 19.316406 136.511719 13.929688 149.515625 C 10.960938 156.710938 10.960938 164.652344 13.953125 171.894531 C 16.945312 179.140625 22.554688 184.777344 29.742188 187.757812 C 42.742188 193.148438 58.273438 208.703125 63.65625 221.71875 C 69.816406 236.636719 86.949219 243.742188 101.839844 237.570312 C 114.84375 232.179688 136.8125 232.179688 149.816406 237.582031 C 164.707031 243.742188 181.855469 236.648438 188.023438 221.753906 C 193.410156 208.742188 208.949219 193.199219 221.953125 187.808594 C 236.84375 181.644531 243.945312 164.480469 237.789062 149.5625 L 237.789062 149.574219 C 232.402344 136.550781 232.402344 114.5625 237.800781 101.558594 C 243.96875 86.652344 236.878906 69.492188 221.976562 63.316406 C 208.988281 57.925781 193.445312 42.371094 188.074219 29.355469 C 185.09375 22.160156 179.476562 16.550781 172.238281 13.542969 C 165 10.546875 157.0625 10.535156 149.875 13.503906 C 136.875 18.894531 114.894531 18.894531 101.902344 13.492188 C 87.011719 7.316406 69.875 14.425781 63.707031 29.332031 M 81.257812 233.257812 C 75.175781 230.742188 70.441406 226.015625 67.925781 219.960938 C 62.050781 205.746094 45.710938 189.378906 31.519531 183.488281 C 25.472656 180.96875 20.75 176.242188 18.234375 170.140625 C 15.707031 164.039062 15.707031 157.347656 18.222656 151.292969 C 24.097656 137.089844 24.109375 113.945312 18.234375 99.742188 C 13.023438 87.183594 19.007812 72.742188 31.542969 67.550781 C 45.75 61.667969 62.097656 45.316406 67.988281 31.109375 C 73.175781 18.550781 87.601562 12.570312 100.136719 17.777344 C 114.339844 23.671875 137.449219 23.671875 151.65625 17.789062 C 157.691406 15.285156 164.386719 15.296875 170.472656 17.828125 C 176.566406 20.355469 181.300781 25.082031 183.792969 31.136719 C 189.667969 45.351562 206.019531 61.707031 220.210938 67.597656 C 232.746094 72.804688 238.707031 87.242188 233.53125 99.777344 C 227.644531 113.996094 227.632812 137.125 233.507812 151.34375 C 238.695312 163.890625 232.722656 178.328125 220.1875 183.535156 C 205.980469 189.417969 189.644531 205.769531 183.742188 219.988281 C 181.242188 226.039062 176.507812 230.765625 170.410156 233.285156 C 164.3125 235.8125 157.628906 235.8125 151.582031 233.308594 C 137.375 227.414062 114.265625 227.414062 100.0625 233.296875 C 94.027344 235.800781 87.34375 235.800781 81.257812 233.257812 "/>
<path style=" stroke:none;fill-rule:nonzero;fill:rgb(0%,47.45098%,75.294118%);fill-opacity:1;" d="M 57.621094 19.988281 C 51.710938 34.242188 34.683594 51.269531 20.441406 57.175781 C 4.078125 63.964844 -3.722656 82.8125 3.050781 99.203125 C 8.9375 113.46875 8.9375 137.554688 3.023438 151.8125 C -3.746094 168.199219 4.042969 187.058594 20.417969 193.859375 C 34.660156 199.765625 51.683594 216.808594 57.574219 231.074219 C 64.355469 247.453125 83.183594 255.273438 99.546875 248.484375 C 113.8125 242.589844 137.878906 242.589844 152.132812 248.496094 C 168.496094 255.285156 187.335938 247.476562 194.109375 231.097656 C 200.019531 216.84375 217.046875 199.804688 231.300781 193.910156 C 247.675781 187.132812 255.464844 168.273438 248.691406 151.882812 C 242.792969 137.628906 242.792969 113.53125 248.707031 99.273438 C 251.980469 91.367188 251.96875 82.628906 248.679688 74.671875 C 245.394531 66.714844 239.234375 60.527344 231.335938 57.25 C 217.082031 51.34375 200.070312 34.289062 194.183594 20.023438 C 187.386719 3.644531 168.558594 -4.175781 152.183594 2.601562 C 137.941406 8.507812 113.863281 8.496094 99.609375 2.589844 C 83.246094 -4.199219 64.417969 3.597656 57.621094 19.988281 M 62.382812 229.074219 C 55.929688 213.457031 37.984375 195.507812 22.40625 189.035156 C 8.691406 183.339844 2.152344 167.539062 7.832031 153.8125 C 14.296875 138.207031 14.308594 112.816406 7.859375 97.199219 C 2.179688 83.472656 8.714844 67.671875 22.441406 62 C 38.03125 55.53125 55.976562 37.582031 62.441406 21.976562 C 68.121094 8.261719 83.894531 1.71875 97.621094 7.402344 C 113.210938 13.875 138.578125 13.875 154.183594 7.414062 C 167.894531 1.730469 183.667969 8.273438 189.359375 22 C 195.8125 37.617188 213.746094 55.578125 229.335938 62.039062 C 235.949219 64.789062 241.113281 69.96875 243.871094 76.648438 C 246.632812 83.328125 246.644531 90.644531 243.898438 97.261719 C 237.433594 112.855469 237.433594 138.257812 243.871094 153.859375 C 249.5625 167.585938 243.011719 183.402344 229.300781 189.085938 C 213.710938 195.554688 195.765625 213.492188 189.300781 229.097656 C 183.609375 242.835938 167.832031 249.355469 154.121094 243.671875 C 138.519531 237.199219 113.152344 237.199219 97.5625 243.65625 C 83.835938 249.355469 68.058594 242.8125 62.382812 229.074219 "/>
<path style=" stroke:none;fill-rule:evenodd;fill:rgb(0%,47.45098%,75.294118%);fill-opacity:1;" d="M 36.757812 80.910156 C 36.757812 80.910156 36.402344 81.4375 34.070312 79.519531 C 33.210938 78.734375 33.53125 77.667969 33.53125 77.667969 C 35.25 75.578125 36.585938 75.800781 36.585938 75.800781 C 36.917969 75.960938 37.246094 76.007812 37.589844 76.144531 C 38.191406 76.648438 38.5 77.285156 38.632812 77.875 C 38.632812 77.875 38.4375 79.433594 36.757812 80.910156 "/>
<path style=" stroke:none;fill-rule:nonzero;fill:rgb(0%,47.45098%,75.294118%);fill-opacity:1;" d="M 51.527344 70.152344 C 52.3125 69 53.867188 70.449219 53.867188 70.449219 L 58.875 75.285156 L 60.628906 77.164062 C 61.535156 78.15625 62.613281 78.734375 63.4375 79.421875 C 64.40625 80.234375 65.535156 81.253906 66.453125 82.222656 C 67.105469 82.898438 67.960938 83.4375 68.367188 84.320312 C 67.582031 84.886719 66.648438 84.824219 65.925781 85.121094 C 65.976562 85.15625 65.964844 85.15625 66.085938 85.132812 C 66.023438 85.378906 65.65625 85.316406 65.59375 85.523438 C 65.792969 85.535156 65.976562 85.476562 66.171875 85.425781 C 66.207031 85.511719 66.171875 85.574219 66.28125 85.660156 C 66.699219 85.671875 67.117188 85.488281 67.546875 85.671875 C 67.410156 85.78125 67.335938 85.832031 67.347656 85.980469 C 67.765625 86.164062 68.160156 85.917969 68.5625 86.039062 C 68.257812 86.175781 67.742188 85.992188 67.59375 86.285156 C 68.085938 86.582031 68.636719 86.003906 69.066406 86.542969 C 69.605469 86.542969 70.035156 86.726562 70.550781 86.691406 C 70.550781 86.691406 71.285156 87.550781 72.035156 86.457031 C 72.425781 85.265625 71.714844 84.273438 71.714844 84.273438 C 71.714844 84.273438 70.597656 82.984375 66.894531 80.171875 C 65.265625 77.875 62.539062 76.378906 62.539062 76.378906 C 62.539062 76.378906 61.558594 75.507812 61.09375 74.804688 C 56.960938 70.410156 55.304688 69.28125 55.304688 69.28125 C 53.683594 66.667969 52.507812 67.121094 52.507812 67.121094 C 51.527344 67.539062 51.402344 68.164062 51.070312 68.667969 C 50.371094 67.5625 50.949219 63.316406 50.949219 63.316406 C 52.679688 58.195312 49.957031 59.164062 49.957031 59.164062 C 49.957031 59.164062 47.859375 59.632812 48.140625 64.039062 C 48.140625 64.039062 46.902344 72.375 46.902344 75.640625 C 46.902344 75.640625 46.875 80.085938 48.117188 85.597656 C 48.117188 85.597656 48.988281 89.390625 49.992188 90.730469 C 50.472656 91.382812 51.699219 93.417969 52.652344 95.039062 C 52.113281 94.917969 51.671875 94.597656 51.230469 94.15625 C 51.230469 94.15625 46.214844 88.742188 45.796875 87.511719 C 45.796875 87.511719 46.59375 83.964844 43.75 83.277344 C 43.75 83.277344 43.441406 83.242188 43.050781 83.414062 C 42.339844 83.707031 40.839844 84.542969 40.671875 84.738281 C 40.300781 85.046875 40.484375 85.511719 40.4375 86.003906 C 40.4375 86.003906 40.742188 87.183594 43.171875 88.324219 C 43.195312 88.335938 43.234375 88.347656 43.257812 88.359375 C 43.578125 88.507812 48.9375 94.820312 48.9375 94.820312 C 54.679688 101.742188 55.695312 97.347656 55.695312 97.347656 C 55.636719 95.835938 55.621094 94.363281 54.910156 93.136719 C 53.539062 91.699219 51.882812 90.066406 51.671875 89.761719 C 49.515625 87.539062 46.976562 77.199219 49.6875 69.503906 C 50.742188 73.027344 52.066406 76.574219 53.414062 80.085938 C 53.414062 80.085938 53.597656 82.097656 55.15625 83.289062 C 55.15625 83.289062 55.890625 83.621094 56.433594 82.847656 C 56.847656 81.363281 56.039062 80.578125 56.039062 80.578125 C 54.800781 79.214844 55.058594 78.675781 55.058594 78.675781 C 56.835938 79.851562 58.125 78.933594 58.125 78.933594 C 59.804688 77.53125 57.683594 75.863281 57.683594 75.863281 C 57.191406 75.679688 56.800781 75.308594 56.382812 75.089844 C 55.597656 74.671875 55.132812 74.15625 55.132812 74.15625 C 54.382812 73.652344 54.578125 74.046875 54.324219 73.933594 C 53.953125 73.773438 53.746094 73.332031 53.414062 73.234375 C 53.21875 73.34375 53.488281 73.554688 53.316406 73.589844 C 53.035156 73.445312 52.949219 73.050781 52.714844 72.902344 C 53.167969 73.6875 53.78125 74.414062 54.015625 75.210938 C 53.609375 75.394531 53.523438 75.765625 53.367188 76.046875 C 52.9375 74.992188 52.753906 74.019531 52.25 72.84375 C 51.96875 71.796875 51.328125 70.839844 51.304688 69.921875 C 51.269531 69.90625 51.292969 69.710938 51.527344 70.152344 "/>
<path style=" stroke:none;fill-rule:nonzero;fill:rgb(0%,47.45098%,75.294118%);fill-opacity:1;" d="M 159.429688 57.359375 C 159.417969 57.199219 159.347656 57.089844 159.308594 56.929688 C 158.878906 56.414062 159.089844 55.984375 158.574219 55.765625 C 158.574219 55.554688 158.746094 55.320312 158.621094 55.148438 C 158.660156 55.015625 158.816406 55.089844 158.84375 54.953125 C 158.890625 54.78125 158.84375 54.683594 158.832031 54.546875 C 159.101562 54.15625 159.308594 53.664062 159.824219 53.652344 C 160.070312 53.847656 160.4375 53.847656 160.71875 53.835938 C 160.941406 54.019531 161.285156 54.15625 161.480469 54.316406 C 161.480469 54.316406 161.652344 54.351562 164.976562 59.375 C 165.28125 59.890625 165.738281 60.550781 165.652344 61.386719 C 165.394531 64.273438 162.769531 63.574219 162.769531 63.574219 C 162.5 63.4375 162.328125 63.117188 161.996094 63.128906 C 161.996094 63.128906 160.742188 62.457031 159.429688 57.359375 "/>
<path style=" stroke:none;fill-rule:nonzero;fill:rgb(0%,47.45098%,75.294118%);fill-opacity:1;" d="M 147.765625 58.023438 C 147.765625 58.023438 146.320312 58.808594 143.4375 58.796875 C 142.222656 58.613281 141.804688 58.367188 141.523438 58.046875 C 141.632812 57.949219 141.757812 57.863281 141.878906 57.765625 C 141.878906 57.199219 142.296875 56.636719 142.234375 55.996094 C 142.382812 55.824219 142.640625 55.824219 142.847656 55.738281 C 143.054688 55.910156 143.496094 55.949219 143.570312 56.21875 C 145.398438 57.140625 149.386719 53.8125 149.386719 53.8125 C 149.386719 53.8125 152.734375 50.925781 153.851562 47.6875 L 152.871094 47.722656 C 152.871094 47.722656 147.25 48.203125 146.761719 45.917969 C 146.75 45.867188 146.871094 45.683594 146.820312 45.402344 C 146.785156 45.179688 146.515625 44.972656 146.5625 44.703125 C 146.589844 44.542969 146.773438 44.394531 146.847656 44.261719 C 147.164062 43.730469 147.949219 43.300781 147.949219 43.300781 C 148.132812 43.253906 148.304688 43.105469 148.476562 43.070312 C 148.527344 43.070312 150.074219 42.847656 150.710938 43.472656 C 150.722656 43.585938 150.746094 43.609375 150.6875 43.746094 C 150.6875 43.746094 154.683594 45.070312 155.664062 43.253906 C 157.46875 39.128906 157.222656 38.292969 158.191406 34.316406 C 158.4375 33.382812 158.5625 33.246094 158.757812 32.398438 C 158.757812 32.398438 158.988281 31.554688 159.296875 30.609375 C 159.628906 30.03125 160.179688 29.613281 160.914062 29.6875 C 160.988281 29.675781 161.371094 29.710938 161.40625 29.625 C 161.910156 29.871094 162.179688 30.398438 162.753906 30.324219 C 162.839844 30.546875 162.65625 30.59375 162.730469 30.742188 C 162.742188 30.792969 162.878906 30.765625 162.902344 30.828125 C 162.941406 30.878906 162.867188 30.964844 162.878906 31.023438 C 162.925781 31.136719 163.085938 31.125 163.125 31.183594 C 163.160156 31.269531 163.113281 31.417969 163.148438 31.566406 C 163.171875 31.675781 163.308594 31.640625 163.320312 31.859375 C 163.382812 32.019531 163.34375 32.214844 163.34375 32.328125 C 163.417969 33.554688 163.113281 33.921875 163.113281 33.921875 L 161.566406 36.351562 C 161.273438 36.84375 161.125 37.261719 160.976562 37.863281 C 160.277344 40.738281 159.160156 42.859375 159.160156 42.859375 C 160.300781 42.886719 162.167969 42.285156 162.167969 42.285156 C 162.167969 42.285156 163.859375 41.828125 164.976562 43.558594 C 166.582031 45.792969 164.558594 46.605469 164.558594 46.605469 C 164.277344 46.738281 164.140625 46.886719 163.773438 46.800781 C 163.613281 46.824219 163.554688 47.011719 163.394531 46.996094 C 163.171875 46.984375 163.113281 46.667969 162.890625 46.667969 C 162.730469 46.667969 162.632812 46.800781 162.5 46.824219 C 162.5 46.824219 160.683594 46.667969 160.488281 46.1875 C 160.414062 46.1875 160.242188 46.175781 160.191406 46.199219 C 159.320312 45.953125 157.863281 46.394531 157.480469 46.738281 C 157.480469 46.738281 156.917969 48.289062 155.578125 51.097656 C 155.566406 51.125 153.152344 55.851562 147.765625 58.023438 "/>
<path style=" stroke:none;fill-rule:nonzero;fill:rgb(0%,47.45098%,75.294118%);fill-opacity:1;" d="M 212.386719 69.503906 C 212.175781 69.476562 211.957031 69.464844 211.785156 69.28125 C 211.390625 69.390625 211 69.675781 210.703125 69.648438 C 210.703125 69.648438 209.882812 70.65625 209.121094 71.40625 C 208.460938 71.761719 207.648438 72.226562 206.988281 72.609375 C 204.925781 73.824219 202.585938 74.820312 201.074219 76.339844 C 200.574219 77.015625 201.125 77.359375 201.652344 77.65625 C 201.714844 77.703125 201.824219 77.542969 201.886719 77.605469 C 202.289062 77.960938 202.839844 77.8125 203.234375 78.195312 C 204.363281 78.5625 205.515625 77.914062 206.753906 77.285156 C 208.828125 76.242188 210.714844 75.101562 212.570312 75.050781 C 207.136719 77.496094 205.824219 78.625 205.824219 78.625 C 205.824219 78.625 205.269531 78.992188 204.09375 79.433594 C 204.09375 79.433594 203.125 79.546875 202.484375 80.085938 C 201.503906 79.804688 200.941406 79.078125 200.253906 78.441406 C 198.511719 76.832031 196.304688 76.09375 194.597656 74.511719 C 194.035156 73.996094 193.335938 73.566406 193.003906 72.878906 C 193.296875 72.941406 193.605469 72.828125 193.886719 72.878906 C 194.070312 72.683594 194.390625 72.757812 194.648438 72.632812 C 194.304688 72.535156 194.011719 72.339844 193.679688 72.128906 C 193.261719 71.871094 192.710938 71.773438 192.402344 71.269531 C 192.109375 71.210938 191.828125 71.417969 191.558594 71.257812 C 190.820312 71.453125 190.011719 71.761719 189.421875 72.265625 C 189.089844 72.78125 189.789062 73.113281 190 73.492188 C 192.957031 76.796875 194.648438 77.53125 194.648438 77.53125 C 196.808594 78.488281 198.09375 79.691406 198.09375 79.691406 C 200.300781 81.839844 201.445312 82.355469 201.445312 82.355469 C 202.828125 83.230469 203.871094 84.003906 204.742188 84.640625 C 207.945312 86.726562 208.238281 87.832031 208.238281 87.832031 C 208.128906 88.324219 207.796875 88.582031 207.308594 88.644531 C 206.09375 88.789062 204.546875 87.5 203.234375 86.421875 C 202.988281 86.222656 202.71875 86.050781 202.558594 85.808594 C 202.472656 85.683594 202.449219 85.585938 202.386719 85.488281 C 201.714844 84.554688 200.597656 84.296875 199.886719 83.988281 C 199.578125 83.84375 199.347656 83.574219 199.0625 83.414062 C 198.964844 83.351562 198.769531 83.316406 198.695312 83.277344 C 198.585938 83.214844 198.4375 83.058594 198.242188 82.933594 C 197.984375 82.773438 197.457031 82.429688 197.199219 82.578125 C 196.917969 82.75 197.089844 83.414062 197.1875 83.695312 C 197.347656 84.160156 197.761719 84.53125 197.910156 84.886719 C 198.167969 85.121094 198.5 85.292969 198.734375 85.574219 C 197.789062 85.757812 196.464844 85.867188 195.714844 86.640625 C 195.507812 87.304688 195.394531 87.820312 194.882812 88.558594 C 194.710938 89.035156 194.453125 89.578125 194.21875 90.03125 C 193.679688 89.75 193.382812 89.195312 193.003906 88.777344 C 192.734375 88.507812 192.328125 88.199219 191.984375 87.992188 C 191.3125 87.574219 190.671875 87.15625 190 86.949219 C 189.765625 86.886719 189.546875 86.789062 189.324219 86.714844 C 189.03125 86.628906 188.746094 86.542969 188.503906 86.507812 C 188.34375 86.496094 188.160156 86.496094 188.011719 86.480469 C 187.863281 86.46875 187.679688 86.410156 187.546875 86.394531 C 187.347656 86.394531 187.179688 86.433594 187.042969 86.421875 C 187.042969 86.421875 186.085938 86.238281 185.363281 86.738281 C 185.214844 86.8125 185.03125 86.703125 184.871094 86.679688 C 184.625 86.753906 184.738281 87.058594 184.394531 86.972656 C 184.308594 87.28125 184.050781 87.378906 184.011719 87.636719 C 183.683594 88.113281 183.398438 88.777344 183.398438 88.777344 C 182.257812 91.417969 183.375 92.3125 183.375 92.3125 C 184.46875 94.316406 187.324219 94.941406 187.324219 94.941406 C 187.324219 94.941406 189.421875 95.507812 192.414062 93.875 C 192.871094 94.757812 193.398438 95.519531 194.097656 96.132812 C 194.230469 96.167969 194.425781 96.328125 194.648438 96.378906 C 194.746094 96.402344 194.980469 96.425781 195.101562 96.4375 C 195.285156 96.476562 195.433594 96.585938 195.566406 96.574219 C 195.960938 96.523438 196.28125 96.195312 196.746094 96.09375 C 196.929688 95.886719 197.027344 95.652344 197.234375 95.457031 C 197.136719 95.285156 197.25 95.101562 197.199219 94.890625 C 197.164062 94.695312 196.980469 94.5 196.90625 94.277344 C 196.820312 94.09375 196.84375 93.921875 196.808594 93.75 C 196.746094 93.492188 196.585938 93.296875 196.574219 93.0625 C 196.390625 92.792969 196.09375 92.597656 195.996094 92.300781 C 195.960938 92.191406 195.851562 92.351562 195.824219 92.253906 C 195.8125 91.933594 195.371094 91.675781 195.433594 91.296875 C 195.457031 91.097656 195.835938 90.730469 195.996094 90.507812 C 196.339844 89.96875 196.4375 89.464844 196.636719 88.9375 C 196.722656 88.703125 196.878906 88.507812 196.964844 88.261719 C 197.136719 87.90625 197.359375 86.996094 197.703125 86.863281 C 197.8125 86.824219 198.230469 86.972656 198.425781 86.960938 C 198.964844 86.898438 199.320312 87.097656 199.320312 87.097656 C 199.738281 87.035156 200.191406 87.035156 200.660156 87.046875 C 200.902344 87.132812 201.382812 87.414062 201.628906 87.402344 C 202.191406 87.367188 202.941406 86.726562 202.855469 86.359375 C 203.308594 86.972656 203.40625 87.253906 203.847656 87.648438 C 204.179688 87.941406 204.472656 88.285156 204.609375 88.410156 C 204.953125 88.519531 205.125 88.925781 205.125 88.925781 C 204.925781 89.539062 205.601562 89.503906 205.710938 90.042969 C 205.921875 90.152344 206.179688 90.214844 206.421875 90.289062 C 206.679688 90.351562 206.890625 90.496094 207.109375 90.535156 C 207.367188 90.582031 207.613281 90.472656 207.820312 90.707031 C 208.300781 90.753906 208.570312 90.753906 208.976562 90.621094 C 209.0625 90.59375 209.332031 90.582031 209.503906 90.460938 C 209.6875 90.324219 210.289062 89.980469 210.496094 89.796875 C 210.863281 89.464844 211.058594 88.863281 211.085938 88.421875 C 211.109375 87.882812 210.949219 87.28125 210.570312 86.703125 C 209.316406 84.789062 206.742188 83.203125 205.382812 81.953125 C 205.75 81.867188 206.546875 81.804688 206.570312 82.382812 C 206.496094 82.542969 206.363281 82.371094 206.226562 82.492188 C 206.644531 82.761719 207.050781 82.8125 207.527344 83.105469 C 207.773438 83.070312 207.921875 83.242188 208.175781 83.289062 C 208.300781 83.277344 208.410156 83.277344 208.507812 83.289062 C 208.679688 83.523438 208.914062 83.460938 209.074219 83.683594 C 209.148438 83.632812 209.234375 83.585938 209.316406 83.546875 C 209.417969 83.621094 209.464844 83.730469 209.5625 83.757812 C 210.546875 83.976562 211.625 84.652344 211.625 84.652344 C 212.554688 84.824219 213.242188 84.46875 213.242188 84.46875 C 213.882812 84.136719 214.261719 83.386719 214.421875 82.726562 C 214.445312 82.628906 214.484375 82.441406 214.496094 82.320312 C 214.519531 82.171875 214.59375 82.0625 214.605469 81.964844 C 214.628906 81.707031 214.484375 81.511719 214.605469 81.300781 C 214.738281 81.082031 215.15625 81.238281 215.402344 81.277344 C 216.164062 81.375 216.886719 81.472656 217.523438 81.71875 C 218.050781 82.125 218.664062 82.714844 219.746094 82.171875 C 219.855469 82.113281 220.050781 81.925781 220.1875 81.78125 C 220.246094 81.695312 220.332031 81.535156 220.417969 81.460938 C 220.578125 81.300781 220.6875 81.140625 220.714844 80.96875 C 220.773438 80.550781 220.53125 80.148438 220.566406 79.828125 C 220.601562 79.3125 221.214844 78.96875 221.84375 78.894531 C 222.039062 78.871094 222.246094 78.847656 222.429688 78.808594 C 222.773438 78.746094 223.15625 78.746094 223.472656 78.675781 C 223.902344 78.5625 224.394531 78.144531 224.46875 77.8125 C 224.613281 77.027344 223.191406 76.425781 222.761719 76.511719 C 221.953125 76.464844 221.351562 77.113281 220.554688 77.433594 C 220.554688 77.433594 218.371094 78.058594 216.371094 78.550781 C 216.066406 78.464844 215.769531 78.476562 215.476562 78.441406 C 215.21875 78.402344 214.960938 78.390625 214.726562 78.355469 C 214.484375 78.316406 214.226562 78.292969 214.015625 78.144531 C 213.734375 78.207031 213.5 78.132812 213.253906 78.046875 C 213.15625 78.070312 213.046875 78.097656 212.960938 78.097656 C 211.992188 77.886719 210.972656 78.21875 209.859375 78.367188 C 210.59375 78.046875 211.367188 77.789062 212.128906 77.398438 C 212.851562 77.027344 213.699219 76.476562 214.445312 76.179688 C 215.167969 75.886719 215.992188 75.691406 216.640625 75.382812 C 217.390625 74.878906 217.746094 74.242188 217.105469 73.617188 C 216.703125 73.222656 216.1875 72.816406 215.695312 72.878906 C 215.722656 72.792969 215.636719 72.804688 215.609375 72.707031 C 214.691406 72.398438 213.710938 72.265625 212.691406 72.289062 C 212.679688 72.070312 212.875 71.882812 212.972656 71.6875 C 212.9375 71.710938 213.796875 69.992188 212.386719 69.503906 M 212.054688 80.355469 C 212.128906 80.515625 211.882812 80.578125 211.832031 80.699219 C 211.671875 81.03125 211.917969 81.496094 211.84375 81.867188 C 211.464844 82.113281 210.988281 82.011719 210.570312 82.027344 C 209.316406 82.050781 207.871094 82.097656 206.777344 81.695312 C 206.988281 81.484375 207.636719 81.351562 207.90625 81.105469 C 211.585938 79.472656 212.054688 80.355469 212.054688 80.355469 M 190.625 92.890625 C 189.042969 93.332031 186.308594 93.199219 185.523438 91.394531 C 185.191406 90.289062 185.558594 89.933594 186.394531 89.492188 C 188.589844 88.214844 190.992188 90.226562 190.992188 90.226562 C 191.371094 90.890625 191.9375 91.613281 191.875 92.117188 C 191.875 92.117188 191.851562 92.535156 190.625 92.890625 "/>
<path style=" stroke:none;fill-rule:evenodd;fill:rgb(0%,47.45098%,75.294118%);fill-opacity:1;" d="M 89.699219 39.792969 C 89.917969 41.300781 89.195312 41.839844 89.195312 41.839844 C 88.59375 42.394531 87.894531 42.40625 86.988281 42.601562 C 86.828125 42.542969 86.828125 42.257812 86.582031 42.125 C 85.648438 42.027344 84.863281 41.167969 84.851562 41.152344 C 84.914062 41.066406 84.9375 41.066406 84.890625 41.03125 C 84.863281 40.980469 84.152344 40.234375 83.824219 39.621094 C 83.320312 38.710938 83.773438 38.097656 83.859375 37.9375 C 83.859375 37.9375 84.082031 37.582031 85.429688 37.484375 C 85.515625 37.472656 85.882812 37.445312 86.164062 37.457031 C 86.460938 37.472656 86.949219 37.558594 87.773438 37.667969 C 87.773438 37.667969 89.304688 38.109375 89.671875 39.753906 "/>
<path style=" stroke:none;fill-rule:evenodd;fill:rgb(0%,47.45098%,75.294118%);fill-opacity:1;" d="M 89.859375 49.417969 C 89.859375 49.417969 88.875 50.507812 89.21875 53.714844 C 89.367188 54.683594 89.414062 54.953125 89.476562 55.53125 C 89.648438 56.464844 90.066406 57.199219 90.066406 57.199219 C 91.660156 54.855469 91.980469 51.515625 92.371094 48.324219 C 92.652344 49.035156 92.089844 50.164062 92.765625 50.621094 C 92.839844 50.765625 92.652344 51.011719 92.886719 51 C 92.628906 51.234375 92.9375 51.8125 92.652344 52.070312 C 92.667969 52.179688 92.726562 52.191406 92.789062 52.214844 C 92.554688 52.792969 92.9375 53.6875 92.738281 54.03125 C 92.765625 54.21875 92.789062 54.253906 92.765625 54.476562 C 92.765625 54.476562 93.253906 58.171875 92.703125 59.289062 C 91.796875 62.652344 90.886719 63.019531 90.886719 63.019531 C 90.605469 63.058594 90.433594 63.167969 90.164062 63.265625 C 90.164062 63.265625 88.3125 63.265625 87.847656 60.480469 C 87.847656 60.480469 88.164062 50.976562 88.164062 50.839844 C 88.140625 50.078125 88.335938 49.269531 88.203125 48.519531 C 88.203125 48.519531 87.722656 47.34375 87.246094 46.703125 C 87.046875 46.382812 87.207031 45.808594 87.378906 45.378906 C 87.429688 45.363281 87.476562 45.351562 87.539062 45.339844 C 87.636719 45.277344 87.550781 45.105469 87.648438 45.046875 C 90.078125 44.0625 91.144531 46.238281 91.144531 46.238281 C 91.144531 46.238281 91.21875 47.21875 91.097656 47.832031 C 91.085938 47.808594 90.898438 48.300781 89.859375 49.417969 "/>
<path style=" stroke:none;fill-rule:nonzero;fill:rgb(0%,47.45098%,75.294118%);fill-opacity:1;" d="M 105.410156 36.722656 C 105.410156 36.722656 106.601562 35.875 106.367188 34.964844 C 106.355469 34.941406 106.34375 34.929688 106.332031 34.917969 C 105.128906 32.585938 100.933594 36.734375 100.933594 36.734375 C 100.933594 36.734375 98.675781 39.335938 97.855469 39.535156 C 97.855469 39.535156 97.242188 39.277344 99.03125 34.191406 C 99.03125 34.191406 99.792969 32.4375 100.898438 27.527344 C 100.714844 26.742188 101.054688 26.027344 100.027344 25.390625 C 98.015625 25.21875 97.09375 29.332031 97.09375 29.332031 C 97.179688 29.304688 97.21875 29.246094 97.304688 29.21875 C 97.316406 29.34375 97.121094 29.464844 97.253906 29.578125 C 97.328125 29.417969 97.351562 29.234375 97.488281 29.109375 C 97.832031 29.035156 97.832031 28.632812 98.210938 28.667969 C 98.210938 28.667969 97.890625 30.78125 97.671875 32.117188 C 97.671875 32.117188 95.207031 40.394531 97.082031 42.171875 C 98.074219 42.785156 100.285156 39.964844 100.285156 39.964844 C 100.285156 39.964844 102.785156 36.539062 103.386719 36.894531 C 103.484375 36.957031 101.585938 41.683594 101.585938 41.683594 C 100.835938 44.125 99.914062 49.234375 99.914062 49.234375 C 99.105469 49.722656 98.445312 49.699219 97.5625 49.613281 C 94.617188 50.054688 96.875 51.8125 96.875 51.8125 C 97.84375 52.203125 99.019531 51.699219 99.855469 51.738281 C 99.78125 55.8125 102.652344 55.679688 102.652344 55.679688 C 104.0625 55.578125 105.054688 54.265625 106.378906 54.03125 C 106.785156 56.832031 105.707031 59.152344 105.707031 59.152344 C 105.605469 59.054688 105.179688 59.042969 105.164062 59.078125 C 105.128906 59.238281 105.4375 59.375 105.375 59.535156 C 105.007812 61.167969 106.148438 62.417969 106.148438 62.417969 C 106.148438 62.40625 106.332031 62.75 106.613281 62.726562 C 107.140625 62.664062 107.890625 61.769531 108.074219 60.957031 C 108.710938 58.023438 108.90625 56.464844 108.90625 56.464844 C 109.175781 55.566406 108.871094 54.289062 109.152344 53.394531 C 109.484375 53.210938 109.816406 52.902344 110.097656 52.597656 C 110.023438 50.914062 108.269531 50.570312 108.269531 50.570312 C 108.132812 49.441406 108.0625 48.484375 108.269531 47.550781 C 108.96875 47.390625 110.367188 46.507812 110.515625 46.433594 C 111.347656 45.980469 112.097656 46.605469 112.097656 46.605469 C 112.660156 46.8125 113.140625 47.132812 113.960938 46.46875 C 114.539062 42.542969 110.414062 44.738281 110.414062 44.738281 C 110.414062 44.738281 108.453125 45.769531 108.230469 45.476562 C 108.230469 45.476562 108.746094 42.675781 107.59375 40.6875 C 107.59375 40.6875 106.796875 39.777344 105.324219 40.566406 C 103.867188 41.351562 104.039062 42.234375 104.039062 42.234375 C 104.492188 42.210938 104.808594 42.417969 105.140625 42.589844 C 105.472656 43.230469 105.71875 44.160156 105.644531 44.75 C 105.3125 44.640625 104.808594 44.578125 104.503906 44.40625 C 104.503906 44.40625 102.613281 43.878906 102.984375 46.113281 C 102.996094 46.824219 103.140625 47.539062 103.117188 48.089844 C 102.957031 48.484375 102.039062 48.667969 101.546875 48.65625 C 101.953125 39.191406 105.410156 36.722656 105.410156 36.722656 M 102.847656 52.328125 C 102.199219 52.339844 101.683594 51.785156 101.65625 51.039062 C 102.0625 50.816406 102.554688 50.265625 103.226562 50.335938 C 103.339844 51.023438 103.339844 51.675781 102.8125 51.984375 C 102.773438 52.070312 102.871094 52.226562 102.847656 52.328125 M 105.375 51.492188 C 104.636719 51.664062 103.902344 52.242188 103.167969 52.277344 C 103.238281 51.898438 103.667969 51.761719 103.765625 51.40625 C 103.765625 51.40625 104.085938 51.652344 104.601562 50.449219 C 104.785156 50.375 105.128906 50.066406 105.335938 49.734375 C 105.914062 48.410156 106.148438 48.730469 106.148438 48.730469 C 106.355469 50.007812 105.976562 50.398438 106.0625 50.730469 C 106.074219 50.730469 106.34375 51.269531 105.375 51.492188 "/>
<path style=" stroke:none;fill-rule:nonzero;fill:rgb(0%,47.45098%,75.294118%);fill-opacity:1;" d="M 52.175781 156.453125 L 37.773438 161.695312 L 37.113281 159.851562 L 43.722656 157.445312 L 41.222656 150.558594 L 34.609375 152.964844 L 33.9375 151.136719 L 48.335938 145.878906 L 49 147.722656 L 42.953125 149.917969 L 45.453125 156.820312 L 51.511719 154.609375 Z M 52.175781 156.453125 "/>
<path style=" stroke:none;fill-rule:nonzero;fill:rgb(0%,47.45098%,75.294118%);fill-opacity:1;" d="M 47.148438 164.015625 C 51.648438 161.570312 55.105469 162.136719 57.5 165.683594 C 59.632812 169.390625 58.628906 172.742188 54.46875 175.726562 C 50.054688 178.109375 46.644531 177.519531 44.25 173.972656 C 42.105469 170.25 43.085938 166.9375 47.148438 164.015625 M 48.1875 165.671875 C 45 167.882812 44.140625 170.363281 45.625 173.113281 C 47.417969 175.617188 50.015625 175.910156 53.414062 174.007812 C 56.628906 171.824219 57.476562 169.378906 55.953125 166.652344 C 54.125 164.113281 51.527344 163.792969 48.1875 165.671875 "/>
<path style=" stroke:none;fill-rule:nonzero;fill:rgb(0%,47.45098%,75.294118%);fill-opacity:1;" d="M 71.296875 182.625 L 60.257812 193.296875 L 58.910156 191.871094 L 63.988281 186.972656 L 58.898438 181.695312 L 53.832031 186.605469 L 52.46875 185.191406 L 63.496094 174.535156 L 64.859375 175.949219 L 60.222656 180.417969 L 65.3125 185.695312 L 69.949219 181.226562 Z M 71.296875 182.625 "/>
<path style=" stroke:none;fill-rule:nonzero;fill:rgb(0%,47.45098%,75.294118%);fill-opacity:1;" d="M 66.882812 198.773438 L 65.289062 197.640625 L 78.402344 188.101562 L 80.179688 189.34375 L 75.578125 204.835938 L 73.863281 203.632812 L 75.222656 199.25 L 70.585938 196.007812 Z M 77.886719 190.558594 L 72.097656 194.832031 L 75.703125 197.347656 Z M 77.886719 190.558594 "/>
<path style=" stroke:none;fill-rule:nonzero;fill:rgb(0%,47.45098%,75.294118%);fill-opacity:1;" d="M 81.625 207.980469 L 88.496094 194.265625 L 90.164062 195.113281 L 83.308594 208.839844 Z M 81.625 207.980469 "/>
<path style=" stroke:none;fill-rule:nonzero;fill:rgb(0%,47.45098%,75.294118%);fill-opacity:1;" d="M 108.917969 211.761719 C 107.839844 215.285156 105.523438 216.671875 101.964844 215.9375 C 98.652344 214.992188 97.363281 212.792969 98.101562 209.34375 L 100.578125 199.519531 L 102.40625 199.988281 L 100.074219 209.207031 C 99.4375 211.945312 100.234375 213.628906 102.46875 214.242188 C 104.835938 214.734375 106.378906 213.675781 107.089844 211.0625 L 109.445312 201.765625 L 111.335938 202.246094 Z M 108.917969 211.761719 "/>
<path style=" stroke:none;fill-rule:nonzero;fill:rgb(0%,47.45098%,75.294118%);fill-opacity:1;" d="M 126.421875 203.585938 L 125.441406 218.894531 L 123.28125 218.746094 L 116.90625 205.953125 L 116.105469 218.28125 L 114.230469 218.171875 L 115.222656 202.859375 L 117.519531 203.007812 L 123.738281 215.9375 L 124.558594 203.460938 Z M 126.421875 203.585938 "/>
<g clip-path="url(#clip1)" clip-rule="nonzero">
<g clip-path="url(#clip2)" clip-rule="nonzero">
<path style=" stroke:none;fill-rule:nonzero;fill:rgb(0%,47.45098%,75.294118%);fill-opacity:1;" d="M 131.304688 203.234375 L 133.1875 203.09375 L 134.3125 218.386719 L 132.425781 218.527344 Z M 131.304688 203.234375 "/>
</g>
</g>
<path style=" stroke:none;fill-rule:nonzero;fill:rgb(0%,47.45098%,75.294118%);fill-opacity:1;" d="M 149.714844 200.246094 L 147.914062 216.304688 L 145.878906 216.746094 L 137.695312 202.796875 L 139.746094 202.367188 L 146.441406 214.425781 L 147.667969 200.675781 Z M 149.714844 200.246094 "/>
<path style=" stroke:none;fill-rule:nonzero;fill:rgb(0%,47.45098%,75.294118%);fill-opacity:1;" d="M 158.585938 213.40625 L 152.882812 199.164062 L 162.398438 195.347656 L 163.074219 197.054688 L 155.308594 200.171875 L 157.078125 204.589844 L 164.265625 201.707031 L 164.953125 203.414062 L 157.761719 206.296875 L 159.714844 211.136719 L 167.613281 207.96875 L 168.238281 209.539062 Z M 158.585938 213.40625 "/>
<path style=" stroke:none;fill-rule:nonzero;fill:rgb(0%,47.45098%,75.294118%);fill-opacity:1;" d="M 173.96875 206.667969 L 165.824219 193.675781 L 171.367188 190.175781 C 173.992188 188.59375 176.027344 188.949219 177.464844 191.234375 C 178.394531 192.632812 178.503906 194.046875 177.792969 195.457031 C 178.910156 195.125 179.902344 195.652344 180.761719 197.039062 L 182.34375 199.300781 C 182.75 199.949219 183.203125 200.234375 183.707031 200.160156 L 183.867188 200.417969 L 181.914062 201.644531 C 181.4375 201.226562 180.6875 200.246094 179.671875 198.722656 C 178.703125 197.089844 177.5 196.734375 176.039062 197.65625 L 172.078125 200.148438 L 175.539062 205.671875 Z M 174.949219 196.28125 C 176.59375 195.296875 176.910156 194.03125 175.941406 192.484375 C 175.023438 191.011719 173.84375 190.730469 172.433594 191.613281 L 168.363281 194.179688 L 171.171875 198.660156 Z M 174.949219 196.28125 "/>
<path style=" stroke:none;fill-rule:nonzero;fill:rgb(0%,47.45098%,75.294118%);fill-opacity:1;" d="M 183.839844 182.601562 C 182.34375 184.0625 182.136719 185.425781 183.253906 186.703125 C 183.976562 187.488281 184.824219 187.574219 185.78125 186.972656 L 189.421875 184.960938 C 191.386719 183.929688 193.066406 184.175781 194.476562 185.707031 C 196.28125 187.808594 195.910156 190.128906 193.382812 192.65625 C 191.949219 193.984375 190.601562 194.648438 189.324219 194.632812 C 187.988281 194.621094 186.796875 194.019531 185.753906 192.816406 L 187.042969 191.636719 C 188.589844 193.257812 190.34375 193.246094 192.304688 191.578125 C 194.046875 189.90625 194.378906 188.445312 193.3125 187.21875 C 192.550781 186.050781 191.214844 186.066406 189.289062 187.28125 L 186.710938 188.703125 C 184.894531 189.6875 183.363281 189.503906 182.125 188.152344 C 180.1875 185.84375 180.308594 183.609375 182.492188 181.449219 C 185.117188 179.015625 187.570312 178.957031 189.816406 181.265625 L 188.476562 182.503906 C 187.09375 181.117188 185.546875 181.152344 183.839844 182.601562 "/>
<path style=" stroke:none;fill-rule:nonzero;fill:rgb(0%,47.45098%,75.294118%);fill-opacity:1;" d="M 201.578125 183.878906 L 189.777344 174.082031 L 190.980469 172.632812 L 202.78125 182.417969 Z M 201.578125 183.878906 "/>
<path style=" stroke:none;fill-rule:nonzero;fill:rgb(0%,47.45098%,75.294118%);fill-opacity:1;" d="M 199.761719 159.730469 L 201.320312 160.699219 L 198.792969 164.726562 L 210.226562 171.894531 L 209.195312 173.554688 L 197.761719 166.382812 L 195.25 170.398438 L 193.691406 169.429688 Z M 199.761719 159.730469 "/>
<path style=" stroke:none;fill-rule:nonzero;fill:rgb(0%,47.45098%,75.294118%);fill-opacity:1;" d="M 217.167969 158.195312 L 211.550781 155.949219 L 200.976562 157.445312 L 201.800781 155.359375 L 210.203125 154.363281 L 204.804688 147.84375 L 205.625 145.769531 L 212.25 154.203125 L 217.867188 156.453125 Z M 217.167969 158.195312 "/>
<path style=" stroke:none;fill-rule:nonzero;fill:rgb(100%,100%,100%);fill-opacity:1;" d="M 77.898438 111.8125 C 77.898438 111.8125 80.300781 112.65625 81.726562 108.484375 C 81.835938 108.113281 81.96875 107.820312 82.082031 107.539062 C 84.71875 100.761719 89.074219 95.125 89.074219 95.125 C 98.703125 83.230469 105.59375 80.308594 105.59375 80.308594 C 106.894531 79.519531 108.085938 79.226562 107.347656 77.851562 C 106.871094 76.96875 105.3125 77.59375 105.3125 77.59375 C 95.878906 80.394531 89.957031 86.691406 89.957031 86.691406 C 83.910156 92.289062 78.769531 102.886719 78.632812 103.242188 C 76.574219 107.648438 76.574219 110.351562 76.574219 110.351562 C 76.660156 111.257812 77.273438 111.652344 77.898438 111.8125 "/>
<path style=" stroke:none;fill-rule:nonzero;fill:rgb(100%,100%,100%);fill-opacity:1;" d="M 95.941406 149.992188 C 86.570312 137.347656 87.023438 124.160156 87.023438 124.160156 C 86.71875 117.371094 88.347656 115.921875 89.6875 114.5 C 91.230469 112.855469 96.445312 110.988281 96.445312 110.988281 C 100.910156 109.378906 105.691406 101.867188 105.691406 101.867188 C 109.644531 96.402344 113.507812 91.554688 119.0625 86.972656 C 121.8125 85.035156 123.808594 84.359375 123.808594 84.359375 C 124.71875 84.003906 125.515625 82.285156 123.933594 81.78125 C 120.609375 81.289062 116.277344 84.675781 116.277344 84.675781 C 105.828125 92.167969 97.683594 104.074219 97.390625 104.652344 C 97.09375 105.230469 95.976562 107.023438 93.894531 107.820312 C 91.769531 108.644531 90.9375 107.269531 90.9375 106.25 C 91.109375 104.875 93.980469 100.234375 93.980469 100.234375 C 96.371094 95.777344 105.679688 87.671875 105.679688 87.671875 C 109.175781 84.148438 119.554688 78.5625 119.554688 78.5625 C 119.554688 78.5625 121.417969 77.726562 121.113281 76.648438 C 120.511719 75.433594 118.976562 76.023438 118.976562 76.023438 C 95.574219 84.246094 86.621094 105.832031 86.621094 105.832031 C 73.824219 133.503906 95.292969 154.476562 95.292969 154.476562 C 103.179688 163.816406 111.839844 166.667969 111.839844 166.667969 C 112.441406 166.839844 112.511719 166.765625 111.679688 165.90625 C 102.257812 159.3125 95.941406 149.992188 95.941406 149.992188 "/>
<path style=" stroke:none;fill-rule:nonzero;fill:rgb(100%,100%,100%);fill-opacity:1;" d="M 112.476562 99.25 C 110.992188 101.828125 116.476562 102.125 116.476562 102.125 L 158.402344 101.839844 C 160.878906 100.367188 156.109375 94.792969 156.109375 94.792969 C 149.507812 86.347656 141.5 85.746094 141.5 85.746094 C 139.375 85.5625 139.070312 86.347656 139.070312 86.347656 C 138.027344 89.28125 136.222656 90.140625 133.453125 89.699219 C 130.777344 89.269531 130.800781 87.90625 130.800781 87.90625 C 130.800781 87.207031 130.714844 86.164062 129.992188 85.746094 C 128.410156 84.824219 123.578125 87.648438 123.578125 87.648438 C 119.101562 89.945312 115.421875 94.144531 112.476562 99.25 "/>
<path style=" stroke:none;fill-rule:nonzero;fill:rgb(0%,47.45098%,75.294118%);fill-opacity:1;" d="M 123.257812 93.886719 L 149.25 93.921875 C 151.851562 96.808594 149.289062 97.078125 149.289062 97.078125 L 121.171875 97.101562 L 121.480469 94.390625 C 121.675781 93.714844 123.257812 93.886719 123.257812 93.886719 "/>
<path style=" stroke:none;fill-rule:nonzero;fill:rgb(100%,100%,100%);fill-opacity:1;" d="M 140.210938 119.949219 L 176.738281 119.679688 C 177.707031 116.941406 176.519531 113.933594 176.519531 113.933594 C 175.722656 111.882812 174.101562 113.0625 174.101562 113.0625 C 171.515625 114.90625 169.601562 114.695312 169.601562 114.695312 L 139.363281 114.585938 C 139.363281 114.585938 137.191406 114.523438 137.230469 112.128906 C 137.265625 109.625 140.0625 109.648438 140.0625 109.648438 L 175.007812 109.648438 C 174.335938 106.9375 173.625 104.703125 173.625 104.703125 C 168.375 87.96875 150.464844 79.363281 150.464844 79.363281 C 141.941406 75.371094 135.84375 74.820312 134.136719 74.609375 C 130.335938 74.144531 130.214844 76.367188 130.214844 76.367188 C 130.214844 76.367188 129.859375 79.019531 134.667969 80.257812 C 139.988281 81.351562 143.535156 82.738281 143.535156 82.738281 C 152.402344 86.359375 158.375 92.203125 158.375 92.203125 C 166.054688 99.042969 166.964844 104.898438 166.964844 104.898438 L 108.96875 104.898438 C 105.375 104.898438 104.292969 106.101562 104.050781 106.480469 L 102.652344 108.839844 C 102.027344 110.386719 104.183594 110.410156 104.183594 110.410156 L 128.175781 110.421875 C 128.175781 110.421875 130.261719 110.410156 130.300781 112.4375 C 130.324219 114.523438 128.632812 114.609375 128.632812 114.609375 L 111.445312 114.585938 C 107.25 114.585938 106.023438 113.1875 106.023438 113.1875 L 104 111.761719 C 102.011719 110.351562 98.835938 111.441406 98.113281 114.265625 C 97.746094 115.492188 99.253906 116.992188 100.628906 118.046875 C 101.140625 118.378906 102.957031 119.410156 106.246094 119.410156 C 106.292969 119.410156 106.34375 119.410156 106.390625 119.410156 L 127.859375 119.398438 C 127.859375 119.398438 130.003906 120 130.324219 121.878906 C 130.542969 124.492188 128.703125 125.121094 128.703125 125.121094 L 123.160156 125.121094 C 122.300781 123.730469 121.578125 123.855469 121.578125 123.855469 L 110.625 123.757812 C 108.515625 123.683594 107.089844 123.757812 105.949219 123.941406 C 105.902344 123.964844 105.890625 123.976562 105.839844 123.988281 C 104.675781 124.371094 102 125.253906 102 125.253906 C 102 125.253906 101.621094 132.585938 105.621094 135.824219 C 107.519531 137.359375 105.570312 139.421875 105.570312 139.421875 C 104.636719 140.796875 101.597656 141.386719 101.585938 141.375 C 101.140625 140.882812 97.082031 136.339844 96.503906 120.308594 C 96.503906 120.308594 95.878906 116.894531 93.167969 117.015625 C 90.457031 117.140625 90.199219 120.308594 90.199219 120.308594 C 89.464844 138.90625 105.777344 153.640625 105.777344 153.640625 C 116.878906 162.394531 123.234375 164.1875 123.234375 164.1875 C 123.234375 164.1875 125.148438 164.910156 125.664062 164.578125 C 126.964844 163.585938 125.539062 162.835938 125.539062 162.835938 C 123.894531 161.9375 118.511719 158.378906 118.511719 158.378906 C 116.976562 157.273438 113.296875 155.125 111.875 152.5 C 113.457031 150.261719 115.652344 149.527344 118.402344 149.675781 C 121.859375 149.859375 121.785156 152.570312 121.785156 152.570312 C 119.003906 156.550781 131.613281 163.4375 131.613281 163.4375 C 134.996094 164.457031 143.449219 163.523438 143.449219 163.523438 C 143.449219 163.523438 147.65625 163.214844 147.816406 161.4375 C 147.789062 159.65625 146.246094 159.65625 146.246094 159.65625 L 134.507812 159.65625 C 134.507812 159.65625 130.789062 159.53125 130.605469 157.65625 C 130.421875 155.652344 133.808594 155.9375 133.808594 155.9375 L 151.898438 156.90625 C 158.230469 157.53125 161.234375 155.1875 161.234375 155.1875 C 162.375 154.476562 163.640625 153.359375 162.265625 150.238281 C 160.878906 147.757812 158.902344 147.328125 156.230469 146.679688 C 153.566406 146.027344 146.710938 146.410156 145.484375 146.210938 C 144.257812 146.015625 142.898438 145.292969 142.96875 144.175781 C 143.070312 141.976562 146.992188 143.082031 146.992188 143.082031 C 151.027344 143.644531 152.625 141.695312 152.625 141.695312 C 152.625 141.695312 153.984375 140.097656 157.199219 140.097656 C 161.46875 140.234375 163.796875 144.589844 163.796875 144.589844 C 163.796875 144.589844 166.914062 147.367188 169.378906 145.167969 C 171.304688 142.738281 169.515625 141.078125 169.515625 141.078125 C 169.515625 141.078125 166.988281 139.460938 166.691406 138.035156 C 166.140625 135.542969 171.402344 133.296875 171.402344 133.296875 C 171.402344 133.296875 175.929688 131.578125 176.101562 129.917969 C 176.175781 129.160156 176.125 128.542969 176.003906 128.003906 C 174.089844 125.09375 170.65625 125.378906 170.65625 125.378906 L 170.691406 125.351562 L 140.53125 125.464844 C 140.53125 125.464844 137.878906 125.671875 137.71875 122.859375 C 137.734375 120.085938 140.210938 119.949219 140.210938 119.949219 "/>
<path style=" stroke:none;fill-rule:nonzero;fill:rgb(0%,47.45098%,75.294118%);fill-opacity:1;" d="M 147.902344 131.296875 L 164.265625 131.308594 C 164.265625 131.308594 167.183594 134.289062 160.300781 134.976562 C 152.820312 135.738281 148.648438 134.460938 147.644531 133 Z M 147.902344 131.296875 "/>
<path style=" stroke:none;fill-rule:nonzero;fill:rgb(0%,47.45098%,75.294118%);fill-opacity:1;" d="M 107.851562 131.527344 C 107.960938 129.035156 113.015625 129.34375 113.015625 129.34375 C 113.015625 129.34375 117.835938 129.402344 119.359375 129.488281 C 119.910156 129.5625 120.683594 129.933594 120.929688 130.964844 C 120.902344 132.363281 120.460938 132.585938 120.105469 132.902344 C 114.453125 136.757812 111.433594 135.679688 111.433594 135.679688 C 108.109375 134.804688 107.730469 134.265625 107.851562 131.527344 "/>
<path style=" stroke:none;fill-rule:nonzero;fill:rgb(0%,47.45098%,75.294118%);fill-opacity:1;" d="M 113.554688 145.929688 C 113.554688 145.929688 113.554688 147.046875 109.03125 150.976562 C 109.03125 150.976562 106.148438 149.058594 103.804688 145.832031 C 103.804688 145.832031 106.589844 141.902344 110.121094 142.8125 C 114.132812 144.039062 113.554688 145.929688 113.554688 145.929688 "/>
<path style=" stroke:none;fill-rule:nonzero;fill:rgb(0%,47.45098%,75.294118%);fill-opacity:1;" d="M 120.019531 141.890625 C 120.019531 141.890625 117.75 142.417969 116.929688 140.6875 C 116.4375 138.402344 118.15625 137.714844 118.15625 137.714844 L 122.855469 135.640625 C 122.855469 135.640625 124.128906 134.007812 124.179688 131.539062 C 124.363281 128.949219 126.949219 129.257812 126.949219 129.257812 C 129.785156 128.914062 129.585938 132.585938 129.585938 132.585938 L 129.160156 138.441406 C 126.300781 140.992188 120.019531 141.890625 120.019531 141.890625 "/>
<path style=" stroke:none;fill-rule:nonzero;fill:rgb(0%,47.45098%,75.294118%);fill-opacity:1;" d="M 149.25 149.601562 C 149.25 149.601562 152.316406 149.476562 152.699219 152.019531 C 152.316406 154.535156 147.117188 153.972656 147.117188 153.972656 C 147.117188 153.972656 131.085938 152.523438 129.796875 152.535156 C 126.324219 152.398438 123.429688 150.042969 124.472656 146.898438 C 125.578125 143.585938 131.097656 146.066406 131.097656 146.066406 C 132.949219 148.703125 137.84375 148.3125 141.328125 148.765625 C 144.085938 149.046875 149.25 149.601562 149.25 149.601562 "/>
<path style=" stroke:none;fill-rule:nonzero;fill:rgb(0%,47.45098%,75.294118%);fill-opacity:1;" d="M 139.386719 129.847656 C 139.386719 129.847656 143.839844 130.175781 143.632812 133.382812 C 142.921875 138.058594 139.816406 139.335938 137.707031 139.042969 C 135.597656 138.746094 132.898438 138.367188 133.820312 133.703125 C 134.972656 129.34375 139.386719 129.847656 139.386719 129.847656 "/>
<path style=" stroke:none;fill-rule:nonzero;fill:rgb(100%,100%,100%);fill-opacity:1;" d="M 82.179688 143.289062 C 82.179688 143.289062 76.390625 132.621094 79.234375 118.550781 C 79.234375 118.550781 79.34375 117.261719 77.761719 117.066406 C 76.242188 116.953125 75.886719 117.875 75.789062 118.15625 C 72.648438 131.957031 78.878906 144.0625 78.878906 144.0625 C 78.878906 144.0625 85.664062 158.441406 95.058594 164.175781 C 96.25 164.628906 96.148438 164.175781 95.992188 164.027344 C 96.003906 164.015625 86.679688 153.675781 82.179688 143.289062 "/>
<path style=" stroke:none;fill-rule:nonzero;fill:rgb(100%,100%,100%);fill-opacity:1;" d="M 155.421875 178.328125 L 153.410156 174.671875 C 171.28125 164.824219 182.382812 146.027344 182.382812 125.621094 C 182.382812 94.757812 157.296875 69.664062 126.472656 69.664062 C 95.648438 69.664062 70.5625 94.769531 70.5625 125.621094 C 70.5625 145.808594 81.492188 164.503906 99.082031 174.414062 L 97.035156 178.046875 C 78.132812 167.390625 66.390625 147.304688 66.390625 125.621094 C 66.390625 92.460938 93.339844 65.488281 126.472656 65.488281 C 159.601562 65.488281 186.550781 92.460938 186.550781 125.621094 C 186.550781 147.550781 174.628906 167.734375 155.421875 178.328125 "/>
<path style=" stroke:none;fill-rule:nonzero;fill:rgb(100%,100%,100%);fill-opacity:1;" d="M 113.714844 170.582031 L 110.84375 183.042969 L 107.203125 183.042969 L 109.066406 174.976562 C 107.960938 175.617188 106.664062 176.121094 105.140625 176.453125 L 105.804688 173.554688 C 107.742188 172.757812 109.347656 171.773438 110.625 170.582031 Z M 113.714844 170.582031 "/>
<path style=" stroke:none;fill-rule:nonzero;fill:rgb(100%,100%,100%);fill-opacity:1;" d="M 122.082031 178.046875 C 121.285156 178.671875 120.375 178.992188 119.382812 178.992188 C 118.363281 178.992188 117.492188 178.648438 116.78125 177.972656 C 116.070312 177.296875 115.703125 176.425781 115.703125 175.394531 C 115.703125 174.15625 116.191406 173.039062 117.175781 172.066406 C 118.144531 171.074219 119.480469 170.59375 121.160156 170.59375 C 122.695312 170.59375 123.910156 171.035156 124.804688 171.921875 C 125.6875 172.804688 126.140625 173.996094 126.140625 175.492188 C 126.140625 176.710938 125.882812 177.949219 125.378906 179.214844 C 124.878906 180.464844 124.117188 181.460938 123.109375 182.183594 C 122.105469 182.910156 120.890625 183.265625 119.457031 183.265625 C 118.230469 183.265625 117.234375 183.019531 116.464844 182.527344 C 115.691406 182.039062 115.210938 181.289062 115.039062 180.304688 L 118.535156 180 C 118.683594 180.808594 119.101562 181.214844 119.800781 181.214844 C 120.316406 181.214844 120.757812 180.96875 121.125 180.476562 C 121.492188 179.988281 121.824219 179.203125 122.140625 178.121094 Z M 120.683594 176.941406 C 121.199219 176.941406 121.664062 176.710938 122.070312 176.242188 C 122.460938 175.765625 122.667969 175.136719 122.667969 174.351562 C 122.667969 173.8125 122.546875 173.394531 122.289062 173.085938 C 122.042969 172.792969 121.675781 172.632812 121.183594 172.632812 C 120.730469 172.632812 120.277344 172.867188 119.835938 173.320312 C 119.394531 173.773438 119.175781 174.546875 119.175781 175.628906 C 119.175781 175.886719 119.296875 176.179688 119.542969 176.488281 C 119.789062 176.78125 120.167969 176.941406 120.683594 176.941406 "/>
<path style=" stroke:none;fill-rule:nonzero;fill:rgb(100%,100%,100%);fill-opacity:1;" d="M 136.113281 170.582031 L 133.242188 183.042969 L 129.601562 183.042969 L 131.464844 174.976562 C 130.371094 175.617188 129.058594 176.121094 127.539062 176.453125 L 128.203125 173.554688 C 130.140625 172.757812 131.746094 171.773438 133.023438 170.582031 Z M 136.113281 170.582031 "/>
<path style=" stroke:none;fill-rule:nonzero;fill:rgb(100%,100%,100%);fill-opacity:1;" d="M 148.6875 170.777344 L 148.085938 173.382812 L 142.480469 173.382812 L 141.867188 175.359375 C 142.539062 175.125 143.042969 174.964844 143.375 174.878906 C 143.71875 174.792969 144.074219 174.746094 144.441406 174.746094 C 145.484375 174.746094 146.332031 175.027344 147.007812 175.605469 C 147.679688 176.167969 148.011719 177.027344 148.011719 178.15625 C 148.011719 179.042969 147.804688 179.851562 147.398438 180.5625 C 146.992188 181.289062 146.332031 181.914062 145.4375 182.429688 C 144.539062 182.957031 143.300781 183.230469 141.71875 183.230469 C 140.234375 183.230469 139.132812 182.945312 138.382812 182.394531 C 137.648438 181.839844 137.191406 180.945312 137.035156 179.71875 L 140.628906 179.324219 L 140.628906 179.375 C 140.628906 179.9375 140.761719 180.367188 141.058594 180.664062 C 141.351562 180.957031 141.742188 181.117188 142.246094 181.117188 C 142.871094 181.117188 143.398438 180.847656 143.828125 180.320312 C 144.257812 179.789062 144.480469 179.164062 144.480469 178.429688 L 144.480469 178.390625 C 144.480469 177.359375 144 176.84375 143.054688 176.84375 C 142.382812 176.84375 141.804688 177.113281 141.300781 177.640625 L 137.964844 177.164062 L 139.917969 170.765625 L 148.6875 170.765625 Z M 148.6875 170.777344 "/>
</g>
</svg>
