<?xml version="1.0" encoding="UTF-8" standalone="no"?>
<!-- Generator: Adobe Illustrator 24.0.1, SVG Export Plug-In . SVG Version: 6.00 Build 0)  -->

<svg
   version="1.1"
   id="图层_1"
   x="0px"
   y="0px"
   viewBox="0 0 202.00001 152.99999"
   xml:space="preserve"
   sodipodi:docname="未标题-3.svg"
   width="202"
   height="153"
   inkscape:version="1.2 (dc2aedaf03, 2022-05-15)"
   xmlns:inkscape="http://www.inkscape.org/namespaces/inkscape"
   xmlns:sodipodi="http://sodipodi.sourceforge.net/DTD/sodipodi-0.dtd"
   xmlns="http://www.w3.org/2000/svg"
   xmlns:svg="http://www.w3.org/2000/svg"><defs
   id="defs13066" /><sodipodi:namedview
   id="namedview13064"
   pagecolor="#ffffff"
   bordercolor="#000000"
   borderopacity="0.25"
   inkscape:showpageshadow="2"
   inkscape:pageopacity="0.0"
   inkscape:pagecheckerboard="0"
   inkscape:deskcolor="#d1d1d1"
   showgrid="false"
   inkscape:zoom="2.8284271"
   inkscape:cx="95.636192"
   inkscape:cy="57.629202"
   inkscape:window-width="1440"
   inkscape:window-height="829"
   inkscape:window-x="-8"
   inkscape:window-y="-8"
   inkscape:window-maximized="1"
   inkscape:current-layer="图层_1" />
<style
   type="text/css"
   id="style12935">
	.st0{fill-rule:evenodd;clip-rule:evenodd;fill:#0066B1;}
	.st1{fill:none;stroke:#0064AE;stroke-width:2.0443;stroke-miterlimit:22.9256;}
	.st2{fill:#FFFFFF;}
	.st3{fill:#0066B1;}
	.st4{fill:none;stroke:#0066B1;stroke-width:1.1073;stroke-miterlimit:22.9256;}
	.st5{fill:none;stroke:#0066B1;stroke-width:1.1116;stroke-miterlimit:22.9256;}
	.st6{fill:none;stroke:#0066B1;stroke-width:1.1083;stroke-miterlimit:22.9256;}
	.st7{fill:none;stroke:#0066B1;stroke-width:1.1106;stroke-miterlimit:22.9256;}
	.st8{fill-rule:evenodd;clip-rule:evenodd;fill:#63615F;}
	.st9{fill-rule:evenodd;clip-rule:evenodd;fill:#E50619;}
</style>
<ellipse
   style="fill:#ffffff;stroke-width:0.377953"
   id="path13185"
   cx="100.414"
   cy="75.934631"
   rx="99"
   ry="75.227631" /><g
   id="g13061"
   transform="matrix(1.4470552,0,0,1.4491766,-187.99107,-213.09495)"
   style="stroke-width:0.690553">
	<path
   class="st0"
   d="M 162.99,211.63 H 237 c -1.51,3.05 -3.39,5.67 -5.5,8.02 h -63.06 c -2.38,-2.37 -4.18,-5.05 -5.45,-8.02"
   id="path12937"
   style="stroke-width:0.690553" />
	<path
   class="st1"
   d="m 199.79,148.15 c 37.77,0 68.4,23.16 68.4,51.73 0,28.57 -30.63,51.73 -68.4,51.73 -37.77,0 -68.4,-23.16 -68.4,-51.73 0,-28.57 30.63,-51.73 68.4,-51.73 z"
   id="path12939" />
	<polyline
   class="st0"
   points="175.14,203.73 178.25,193.17 182.44,193.17 180.63,199.67 182.03,199.67 183.96,193.17    188.18,193.17 185.19,203.73 180.9,203.73 181.64,200.92 180.22,200.92 179.47,203.73 175.14,203.73  "
   id="polyline12941"
   style="stroke-width:0.690553" />
	<polyline
   class="st0"
   points="189.68,193.21 186.5,203.82 196.51,203.82 199.44,193.21 195.33,193.21 192.56,202.5 191.11,202.5    193.77,193.21 189.68,193.21  "
   id="polyline12943"
   style="stroke-width:0.690553" />
	<path
   class="st0"
   d="m 170.07,207.08 34.67,0.08 c 2.37,-1.67 4.79,-5.27 4.16,-7.79 -0.84,-1.63 -2.42,-2.64 -5.27,-4.93 -0.99,-1.11 -2.04,-2.16 -3.12,-3.18 -2.98,-1.91 -5.93,-3.91 -8.84,-6.02 -1.7,-1.3 -1.01,-3.1 2.52,-2.66 9.7,0.77 18.24,2.83 25.63,6.18 1.56,0.85 1.07,1.25 -0.2,1.4 l -7.94,-0.07 c -1.86,0.13 -3.1,1.15 -4.33,3.19 h 4.54 l -4.06,13.89 h 5.11 l 4.02,-13.8 h 2.98 c 1.76,-1.6 3.42,-3.51 5.03,-5.57 1.29,-2.21 1.2,-4.73 -1.2,-6.03 -5.36,-2.51 -11.32,-3.03 -15.76,-3.21 -7.29,0.2 -12.8,0.76 -15.54,2.34 l -1.45,1.22 c -4.53,-0.02 -6.81,1.82 -4.94,4.17 1.21,1.61 6.17,3.41 12.16,5.82 4.61,1.54 5.77,5.11 3.17,8.6 -1.8,2.58 -5.3,4.03 -10.35,4.44 -5.42,0.37 -10.83,0.31 -16.25,-0.28 -1.91,0.71 -3.62,1.41 -4.74,2.21"
   id="path12945"
   style="stroke-width:0.690553" />
	<path
   class="st2"
   d="m 172.68,216.14 c 0,0 0.02,-0.01 0.05,-0.02 0.05,0.04 0.07,0.16 0.07,0.37 0,0.07 -0.03,0.1 -0.09,0.11 -0.14,0 -0.3,-0.03 -0.47,-0.1 0,0 -0.01,-0.01 -0.02,-0.03 0,0 0.03,-0.03 0.08,-0.07 0.13,-0.1 0.24,-0.18 0.35,-0.24 0.01,0.01 0.02,0 0.03,-0.02 v 0 m 0.12,-0.79 c -0.01,0.14 -0.09,0.25 -0.27,0.32 -0.02,0 -0.04,0.02 -0.06,0.04 l -0.23,0.14 c -0.08,0.03 -0.15,0.06 -0.2,0.1 -0.01,-0.03 -0.01,-0.05 -0.01,-0.06 0,-0.02 0,-0.04 0.01,-0.06 0.01,-0.05 0.02,-0.12 0.03,-0.2 0,-0.08 0.07,-0.14 0.19,-0.17 0.18,-0.04 0.28,-0.07 0.31,-0.1 0.05,-0.01 0.08,-0.05 0.09,-0.1 0,-0.08 -0.02,-0.16 -0.05,-0.25 -0.09,-0.12 -0.19,-0.2 -0.29,-0.24 -0.11,-0.05 -0.14,-0.16 -0.1,-0.32 0.02,-0.08 0.04,-0.14 0.07,-0.16 0.06,-0.08 0.14,-0.12 0.24,-0.12 0.06,0 0.12,0.02 0.16,0.07 0.06,0.05 0.09,0.14 0.09,0.28 0,0.05 0.01,0.09 0.02,0.13 -0.01,0.04 -0.01,0.28 0,0.7 z m 3.44,-0.54 c 0,-0.54 0.09,-0.94 0.27,-1.18 0,-0.01 0,-0.02 0.01,-0.03 0,-0.03 -0.01,-0.06 -0.05,-0.08 -0.51,-0.1 -0.84,-0.14 -0.96,-0.12 -0.18,0.01 -0.38,0.05 -0.6,0.12 -0.27,0.05 -0.49,0.08 -0.67,0.09 -0.05,0 -0.09,0.01 -0.12,0.02 -0.08,0.03 -0.12,0.07 -0.12,0.13 0.05,0.41 0.04,0.83 -0.01,1.26 -0.05,0.28 -0.08,0.51 -0.09,0.67 0,0.04 -0.01,0.09 -0.02,0.14 0,0.22 -0.09,0.48 -0.26,0.79 -0.06,0.04 -0.12,0.14 -0.16,0.31 0,0 0,0 -0.01,0.01 h -0.04 v -0.02 l -0.01,-0.01 c 0,0 0,-0.01 -0.01,-0.03 -0.08,-0.38 -0.08,-0.61 -0.02,-0.7 0.02,-0.23 0.03,-0.5 0.04,-0.79 0.02,-0.54 0.03,-0.84 0.05,-0.89 0,-0.1 0.04,-0.22 0.13,-0.36 0.11,-0.18 0.15,-0.28 0.13,-0.31 -0.1,-0.09 -0.33,-0.14 -0.7,-0.14 -0.62,0.12 -1.07,0.22 -1.34,0.3 -0.21,0.06 -0.31,0.12 -0.32,0.19 0,1 0.04,1.68 0.13,2.06 0,0.05 -0.11,0.16 -0.34,0.32 -0.11,0.07 -0.19,0.11 -0.23,0.12 -0.18,0.06 -0.27,0.1 -0.27,0.15 0,0.04 0.06,0.1 0.17,0.18 0.16,0.12 0.28,0.18 0.35,0.19 l 0.4,-0.34 c 0.01,0 0.1,-0.07 0.26,-0.2 0.14,-0.08 0.22,-0.12 0.25,-0.13 0.03,0.01 0.09,0.07 0.16,0.16 0.41,0.27 0.7,0.43 0.88,0.48 0.08,0.03 0.13,0.05 0.13,0.08 0,0.04 -0.14,0.17 -0.41,0.41 -0.07,0.04 -0.11,0.08 -0.13,0.1 -0.02,0.02 -0.03,0.04 -0.05,0.05 -0.08,0.08 -0.13,0.13 -0.13,0.14 0,0.03 0.03,0.05 0.1,0.05 0.16,0 0.47,-0.11 0.93,-0.33 0.08,-0.04 0.12,-0.1 0.13,-0.16 0,-0.08 0.17,-0.41 0.52,-0.99 0.02,-0.05 0.06,-0.11 0.11,-0.17 0,0 0.01,-0.01 0.02,-0.03 0.08,-0.07 0.27,-0.19 0.58,-0.38 0,0 0.01,0 0.03,-0.01 0,0 0.02,-0.01 0.05,-0.03 0.17,-0.04 0.27,-0.07 0.29,-0.09 0.04,-0.04 0.05,-0.14 0.04,-0.29 -0.02,-0.09 -0.03,-0.14 -0.05,-0.15 -0.02,-0.03 -0.04,-0.04 -0.09,-0.04 -0.31,0.03 -0.49,0.05 -0.54,0.06 -0.05,0 -0.07,-0.02 -0.08,-0.06 0,-0.16 0.07,-0.27 0.21,-0.35 0.28,-0.14 0.43,-0.26 0.46,-0.36 0,-0.03 0,-0.05 0.01,-0.07 0,-0.12 -0.07,-0.18 -0.21,-0.19 -0.11,0.01 -0.22,0.03 -0.34,0.05 -0.03,0 -0.05,-0.03 -0.05,-0.08 l 0.01,-0.19 c 0,-0.13 0.07,-0.22 0.22,-0.28 0.11,-0.04 0.22,-0.06 0.34,-0.07 0.06,0 0.12,0.02 0.16,0.05 0.06,0.04 0.11,0.22 0.14,0.54 v 0.03 c 0,1.16 0.02,1.88 0.05,2.13 0.01,0.31 0.02,0.58 0.02,0.8 0,0.08 -0.02,0.14 -0.05,0.18 -0.06,0.04 -0.31,0.05 -0.74,0.01 -0.28,-0.03 -0.42,-0.03 -0.42,0.01 0,0.01 0.02,0.05 0.05,0.11 0.08,0.09 0.39,0.23 0.92,0.43 0.16,0.03 0.4,0.1 0.72,0.21 0.11,0.04 0.2,0.06 0.27,0.06 0.08,0 0.12,-0.03 0.12,-0.1 0,-0.02 -0.01,-0.04 -0.03,-0.06 -0.02,-0.07 -0.03,-0.15 -0.04,-0.26 -0.08,-0.51 -0.12,-1.23 -0.12,-2.17 0,-0.12 -0.01,-0.27 -0.04,-0.46 0,-0.14 0,-0.32 0.01,-0.49 z"
   id="path12947"
   style="stroke-width:0.690553" />
	<path
   class="st2"
   d="m 183.34,216.69 c -0.1,0 -0.21,-0.01 -0.32,-0.02 -0.16,0 -0.24,0.03 -0.23,0.1 0,0.04 0.22,0.19 0.67,0.47 0.06,0.03 0.17,0.09 0.33,0.17 0.24,0.08 0.37,0.12 0.39,0.12 0.05,0 0.08,-0.04 0.11,-0.12 0.03,-0.16 0.01,-0.33 -0.08,-0.52 -0.02,-0.04 -0.05,-0.06 -0.11,-0.07 -0.08,-0.01 -0.16,-0.03 -0.25,-0.05 -0.25,-0.05 -0.42,-0.08 -0.51,-0.08 m -1.36,-1.25 c 0,-0.01 0,-0.03 0.01,-0.05 0.01,-0.04 0.04,-0.1 0.06,-0.19 0.02,-0.08 0.09,-0.12 0.2,-0.13 0.02,0 0.05,0 0.1,0.01 0.08,0.03 0.12,0.08 0.12,0.18 -0.03,0.27 -0.11,0.44 -0.25,0.51 -0.04,0 -0.07,0.01 -0.1,0.02 -0.02,0 -0.05,0.01 -0.09,0.02 -0.08,0 -0.12,-0.04 -0.12,-0.12 0,-0.03 0.02,-0.08 0.06,-0.15 0,-0.03 0.01,-0.07 0.01,-0.1 z m -0.79,-0.13 c 0.06,-0.08 0.13,-0.11 0.21,-0.11 0.08,0 0.14,0.01 0.17,0.03 0,0.2 -0.03,0.34 -0.09,0.4 -0.06,0.06 -0.11,0.1 -0.15,0.1 -0.09,0 -0.14,-0.06 -0.14,-0.17 z m -0.6,0.11 c 0.08,0 0.14,0.05 0.18,0.14 0.03,0.08 0.06,0.15 0.08,0.2 0,0.02 -0.02,0.04 -0.07,0.06 -0.03,0 -0.07,0.01 -0.11,0.01 -0.06,0 -0.12,-0.03 -0.17,-0.08 -0.05,-0.06 -0.07,-0.13 -0.07,-0.2 0,-0.04 0.01,-0.07 0.03,-0.09 0.05,-0.02 0.09,-0.03 0.13,-0.04 z m 2.29,-0.95 c 0.05,0 0.08,-0.01 0.1,-0.03 l -0.01,-0.25 c -0.02,-0.05 -0.06,-0.11 -0.11,-0.17 -0.09,-0.09 -0.16,-0.14 -0.21,-0.14 -0.03,0 -0.1,0.02 -0.2,0.06 -0.01,0 -0.03,0 -0.04,0.01 l -0.09,0.02 c -0.22,0.01 -0.39,0.03 -0.5,0.06 -0.02,0 -0.05,0.01 -0.1,0.02 -0.05,0 -0.07,-0.03 -0.08,-0.08 l 0.09,-0.49 c 0.02,-0.07 0.04,-0.14 0.06,-0.22 0,-0.01 -0.02,-0.03 -0.06,-0.05 -0.09,-0.04 -0.18,-0.07 -0.26,-0.07 -0.04,0 -0.09,0.02 -0.16,0.06 -0.01,0.01 -0.04,0.08 -0.06,0.21 -0.01,0.1 -0.03,0.18 -0.05,0.24 -0.01,0.09 -0.01,0.14 -0.02,0.16 l -0.09,0.3 c -0.06,0.05 -0.19,0.09 -0.4,0.12 -0.08,0 -0.28,0.06 -0.61,0.19 -0.02,0 -0.02,0 -0.02,0.01 l -0.1,-0.1 c -0.08,0.06 -0.12,0.11 -0.12,0.13 0,0.02 0.01,0.04 0.02,0.06 0.03,0.06 0.06,0.1 0.09,0.15 0.01,0.04 0.03,0.07 0.04,0.08 0.03,0.05 0.07,0.08 0.11,0.08 0.38,-0.08 0.65,-0.11 0.8,-0.11 0.05,0 0.07,0.02 0.08,0.06 0,0.05 -0.02,0.1 -0.07,0.14 -0.16,0.08 -0.47,0.16 -0.91,0.25 -0.16,0.04 -0.24,0.09 -0.25,0.14 0,0.13 0.14,0.37 0.42,0.71 0.05,0.04 0.12,0.1 0.21,0.17 0.12,0.08 0.19,0.12 0.23,0.13 0.12,-0.03 0.25,-0.07 0.4,-0.12 0.56,-0.2 0.92,-0.2 1.08,-0.01 0.16,0.13 0.32,0.14 0.48,0.04 0.01,-0.01 0.02,-0.03 0.04,-0.04 0.05,-0.06 0.14,-0.18 0.26,-0.34 0.05,-0.08 0.11,-0.16 0.18,-0.24 0.02,-0.1 0.11,-0.24 0.28,-0.41 0.04,-0.05 0.06,-0.09 0.06,-0.11 0,-0.04 -0.06,-0.09 -0.17,-0.15 -0.35,-0.15 -0.83,-0.21 -1.46,-0.19 -0.08,0.01 -0.13,0.02 -0.15,0.03 -0.05,0 -0.08,-0.03 -0.09,-0.08 0,-0.06 0.04,-0.1 0.13,-0.11 0.05,0 0.1,-0.02 0.15,-0.03 0.15,-0.04 0.25,-0.06 0.31,-0.06 h 0.77 z m -1.56,2.5 c -0.08,-0.08 -0.12,-0.13 -0.12,-0.14 0,-0.01 0.01,-0.02 0.03,-0.03 l 0.51,-0.11 c 0.08,0.06 0.16,0.13 0.24,0.21 0.02,0.03 0.04,0.04 0.04,0.06 0,0.01 -0.01,0.02 -0.02,0.03 -0.39,0.01 -0.61,0.02 -0.67,0.01 0.01,-0.01 0,-0.02 -0.01,-0.03 z m 0.38,0.51 c 0.06,-0.01 0.16,-0.06 0.3,-0.15 0.11,-0.1 0.18,-0.16 0.21,-0.16 0.02,0 0.05,0.03 0.09,0.09 0.11,0.17 0.17,0.31 0.17,0.43 0,0.03 -0.02,0.07 -0.07,0.13 -0.06,0.05 -0.2,0.08 -0.41,0.08 -0.6,0 -0.96,-0.08 -1.08,-0.24 -0.09,-0.1 -0.13,-0.33 -0.13,-0.67 0,-0.07 0.01,-0.12 0.03,-0.14 0.02,-0.02 0.05,-0.04 0.1,-0.04 0.06,0 0.11,0.05 0.14,0.15 0.03,0.14 0.1,0.28 0.21,0.41 0.07,0.1 0.13,0.15 0.19,0.16 h 0.03 c 0.06,-0.01 0.12,-0.03 0.22,-0.05 z m 1.17,0.94 c 0.03,0 0.1,-0.01 0.2,-0.01 0.14,0 0.23,-0.02 0.26,-0.04 0.03,-0.01 0.05,-0.03 0.05,-0.06 -0.03,-0.22 -0.11,-0.4 -0.25,-0.54 -0.06,-0.06 -0.1,-0.11 -0.12,-0.15 -0.09,-0.12 -0.17,-0.19 -0.24,-0.22 0,-0.04 -0.13,-0.18 -0.4,-0.43 -0.06,-0.05 -0.13,-0.1 -0.21,-0.15 -0.05,-0.03 -0.07,-0.05 -0.08,-0.07 0,-0.03 0.02,-0.04 0.06,-0.04 0.05,0 0.09,-0.01 0.13,-0.02 0.06,-0.01 0.1,-0.04 0.1,-0.08 -0.08,-0.18 -0.24,-0.29 -0.48,-0.32 -0.29,0 -0.57,0.04 -0.86,0.11 0.01,0 -0.01,0 -0.06,0.01 -0.17,0.01 -0.36,0.05 -0.56,0.11 -0.09,0.02 -0.2,0.04 -0.32,0.04 -0.08,0 -0.12,0.02 -0.13,0.06 0.11,0.17 0.17,0.27 0.19,0.31 0,0.03 -0.06,0.08 -0.19,0.15 -0.05,0.01 -0.11,0.05 -0.18,0.11 -0.16,0.12 -0.29,0.22 -0.37,0.32 -0.09,0.1 -0.14,0.16 -0.15,0.18 -0.02,0.01 -0.02,0.03 -0.02,0.05 0,0.04 0.07,0.08 0.21,0.14 0.24,0.08 0.37,0.11 0.39,0.11 0.08,0 0.12,-0.03 0.12,-0.08 0,-0.07 0.02,-0.14 0.06,-0.21 0.03,-0.1 0.08,-0.2 0.15,-0.31 0.02,-0.01 0.02,-0.03 0.02,-0.04 0.08,-0.14 0.13,-0.21 0.16,-0.22 0.05,0 0.09,0.08 0.12,0.22 0.01,0.11 0.03,0.19 0.03,0.26 0.1,0.34 0.23,0.56 0.38,0.66 0.03,0.01 0.07,0.02 0.11,0.03 0.24,0.04 0.45,0.06 0.65,0.06 0.08,0 0.39,0.02 0.93,0.06 -0.05,0 -0.09,-0.01 -0.14,-0.01 0.14,-0.01 0.29,-0.01 0.44,0.01 z m -3.28,-4.53 c -0.13,-0.12 -0.22,-0.18 -0.29,-0.18 -0.07,0 -0.14,0.04 -0.21,0.13 -0.04,0.05 -0.08,0.1 -0.12,0.16 -0.09,0.08 -0.18,0.2 -0.26,0.35 -0.11,0.13 -0.18,0.23 -0.21,0.31 -0.05,0.12 -0.1,0.21 -0.13,0.26 -0.01,0.03 -0.01,0.04 -0.02,0.05 0,0.04 0.02,0.07 0.07,0.07 0.12,0 0.31,-0.1 0.57,-0.31 0.12,-0.1 0.26,-0.2 0.44,-0.31 -0.03,0.02 -0.06,0.04 -0.08,0.06 0.26,-0.22 0.39,-0.35 0.4,-0.4 0.01,-0.04 -0.05,-0.11 -0.16,-0.19 z m -0.54,3.42 c 0.01,-0.3 0.06,-0.49 0.13,-0.57 0.08,-0.23 0.12,-0.37 0.12,-0.42 -0.01,-0.03 -0.07,-0.06 -0.17,-0.09 -0.25,-0.06 -0.35,-0.17 -0.3,-0.31 0,-0.01 0,-0.02 0.01,-0.03 0,-0.01 0.12,-0.12 0.35,-0.33 0,0 0.01,-0.01 0.03,-0.03 0.06,-0.06 0.11,-0.09 0.13,-0.11 0.22,-0.13 0.34,-0.26 0.35,-0.38 0,-0.04 -0.07,-0.11 -0.21,-0.22 -0.08,-0.05 -0.14,-0.08 -0.18,-0.08 -0.02,0 -0.15,0.13 -0.4,0.38 -0.22,0.32 -0.34,0.49 -0.36,0.5 -0.05,0.04 -0.1,0.1 -0.16,0.19 -0.08,0.08 -0.16,0.15 -0.23,0.23 -0.01,0.02 -0.05,0.05 -0.1,0.1 -0.51,0.43 -0.76,0.73 -0.77,0.89 0,0.04 0.04,0.06 0.13,0.06 0.02,0 0.05,-0.01 0.1,-0.02 0.4,-0.13 0.66,-0.25 0.81,-0.34 0.06,-0.04 0.1,-0.07 0.1,-0.07 0.01,0 0.04,0 0.06,-0.01 0.03,0 0.06,0.02 0.08,0.05 0.05,0.19 0.06,0.31 0.03,0.34 -0.05,0.08 -0.07,0.42 -0.07,1.03 0,0.08 0.01,0.13 0.03,0.15 0.05,0.04 0.14,0.06 0.27,0.06 0.12,0 0.18,-0.06 0.18,-0.19 0,-0.39 0,-0.65 0.04,-0.78 z"
   id="path12949"
   style="stroke-width:0.690553" />
	<path
   class="st2"
   d="m 189.36,216.44 c -0.01,0 -0.01,0 -0.02,0.01 -0.45,0.13 -0.84,0.23 -1.16,0.3 -0.32,0.07 -0.57,0.12 -0.74,0.17 -0.1,0.01 -0.17,0.02 -0.22,0.03 -0.12,0 -0.18,0.02 -0.19,0.06 0,0.11 0.04,0.2 0.13,0.27 0.03,0.03 0.07,0.04 0.12,0.04 0.52,-0.15 1.26,-0.29 2.22,-0.4 0.01,0 0.01,-0.01 0.02,-0.01 0.05,0.03 0.07,0.12 0.08,0.29 0,0.28 -0.03,0.48 -0.08,0.59 -0.02,0.04 -0.1,0.08 -0.22,0.1 -0.03,0 -0.08,0.01 -0.15,0.02 -0.04,0 -0.12,-0.01 -0.24,-0.01 l -0.52,-0.08 c -0.23,-0.04 -0.4,-0.06 -0.53,-0.06 0,0.03 0.04,0.08 0.13,0.16 0.11,0.12 0.56,0.28 1.33,0.49 0.02,0 0.04,0 0.07,0.01 l 0.39,0.04 c 0.02,0 0.03,0.01 0.05,0.01 0.07,0 0.11,-0.02 0.15,-0.06 0,-0.01 0.05,-0.19 0.14,-0.52 0,-0.02 0.02,-0.12 0.05,-0.3 0,0 0,-0.01 0.01,-0.01 -0.02,-0.42 -0.01,-0.65 0.01,-0.68 0.05,-0.04 0.35,-0.07 0.89,-0.07 0.07,0 0.28,0.04 0.63,0.12 0.23,0.06 0.37,0.09 0.42,0.07 0.05,-0.04 0.06,-0.11 0.05,-0.19 -0.1,-0.09 -0.21,-0.21 -0.33,-0.36 -0.03,-0.02 -0.06,-0.03 -0.08,-0.05 -0.83,-0.03 -1.33,-0.03 -1.52,-0.01 -0.02,0 -0.06,0 -0.12,0.01 -0.01,-0.01 -0.01,-0.02 -0.02,-0.03 0,-0.03 -0.01,-0.05 -0.02,-0.08 0,-0.04 0.03,-0.08 0.08,-0.1 l 0.58,-0.26 c 0.06,-0.04 0.1,-0.08 0.1,-0.12 0,-0.04 -0.04,-0.08 -0.13,-0.12 -0.07,-0.03 -0.11,-0.05 -0.15,-0.06 -0.15,-0.08 -0.42,-0.11 -0.8,-0.11 -0.03,0 -0.22,0.05 -0.58,0.14 l -0.42,0.09 c -0.16,0.03 -0.33,0.07 -0.49,0.11 -0.01,0 -0.01,0 -0.01,0.01 -0.3,0.05 -0.49,0.08 -0.59,0.08 -0.04,0 -0.07,0.01 -0.09,0.02 -0.02,0 -0.03,0.02 -0.03,0.05 0,0.01 0.11,0.12 0.33,0.32 0.03,0.03 0.08,0.05 0.13,0.05 0.04,0 0.1,-0.03 0.19,-0.08 0.36,-0.19 0.74,-0.34 1.16,-0.44 0.02,0 0.11,-0.03 0.28,-0.1 0.13,-0.03 0.21,-0.04 0.24,-0.04 0.01,0 0.02,0.01 0.03,0.02 0,0.07 -0.04,0.14 -0.12,0.23 -0.07,0.06 -0.17,0.09 -0.33,0.1 -0.23,0 -0.35,0.03 -0.38,0.08 0,0.03 0.07,0.1 0.21,0.22 l 0.06,0.04 m 0.01,-2.09 c 0.1,-0.05 0.3,-0.08 0.6,-0.08 0.1,0 0.18,0.02 0.24,0.06 0.05,0.03 0.08,0.11 0.09,0.24 0,0.27 -0.06,0.45 -0.16,0.54 h -0.05 c -0.05,-0.05 -0.11,-0.09 -0.15,-0.12 -0.75,0.1 -1.15,0.16 -1.21,0.16 l -0.04,-0.03 c 0,0 -0.01,-0.02 -0.02,-0.03 -0.04,-0.28 -0.04,-0.44 -0.02,-0.46 0.01,-0.01 0.05,-0.03 0.14,-0.06 0.02,0 0.12,-0.04 0.31,-0.12 z m -4.22,3.38 c 0.05,0.03 0.12,0.03 0.21,0.01 0.03,0 0.14,-0.04 0.31,-0.11 l 0.65,-0.37 c 0,-0.01 0.03,-0.03 0.06,-0.05 0.07,-0.04 0.14,-0.1 0.22,-0.17 0.04,-0.04 0.06,-0.12 0.06,-0.24 0,-0.1 0.12,-0.3 0.35,-0.6 0,-0.01 0.09,-0.13 0.28,-0.35 0.05,-0.07 0.1,-0.14 0.15,-0.2 0.11,-0.21 0.18,-0.34 0.21,-0.41 0.02,-0.02 0.03,-0.04 0.06,-0.06 0.02,-0.03 0.03,-0.05 0.05,-0.06 0.02,-0.08 0.06,-0.14 0.11,-0.2 0,0 0.01,-0.01 0.02,-0.01 0,0 0.01,0 0.02,0.01 0.26,0.41 0.46,0.65 0.59,0.7 0.03,0 0.3,-0.06 0.79,-0.19 0.43,-0.08 0.74,-0.09 0.94,-0.03 0.16,0.04 0.25,0.06 0.25,0.07 0.08,0 0.14,-0.01 0.18,-0.04 0.01,-0.03 0.04,-0.09 0.11,-0.18 0,0 0,-0.01 0.02,-0.01 0.16,-0.44 0.34,-0.76 0.54,-0.94 -0.01,-0.04 -0.09,-0.1 -0.24,-0.18 -0.34,-0.15 -0.77,-0.19 -1.29,-0.1 -0.24,0 -0.77,0.1 -1.58,0.3 -0.02,0 -0.04,-0.01 -0.06,-0.01 0,-0.06 0.01,-0.14 0.04,-0.24 0.02,-0.01 0.04,-0.03 0.06,-0.04 0.01,0 0.11,-0.03 0.33,-0.08 0.11,-0.05 0.38,-0.08 0.79,-0.08 0.47,-0.13 0.9,-0.2 1.28,-0.2 0.04,0 0.06,-0.02 0.07,-0.07 0,-0.04 -0.04,-0.11 -0.13,-0.21 -0.02,-0.02 -0.03,-0.04 -0.05,-0.07 -0.02,-0.04 -0.06,-0.08 -0.11,-0.12 -0.05,-0.04 -0.1,-0.06 -0.15,-0.06 -0.05,0 -0.2,0.03 -0.47,0.1 -0.31,0.04 -0.6,0.09 -0.89,0.17 -0.5,0.07 -0.77,0.09 -0.81,0.09 -0.05,-0.01 -0.12,-0.03 -0.2,-0.06 -0.04,0 -0.08,-0.01 -0.11,-0.01 -0.08,0 -0.13,0.02 -0.15,0.05 -0.08,0.21 -0.12,0.45 -0.13,0.72 -0.01,0.04 -0.01,0.08 -0.02,0.14 -0.01,0.04 -0.02,0.09 -0.05,0.17 l -0.05,0.19 c -0.04,0.07 -0.06,0.12 -0.07,0.17 l -0.26,0.56 c -0.01,0 -0.01,0 -0.02,0.01 -0.03,0.08 -0.07,0.16 -0.12,0.25 -0.01,0.01 -0.02,0.03 -0.03,0.06 -0.13,0.19 -0.23,0.36 -0.3,0.5 -0.3,0.39 -0.52,0.65 -0.68,0.78 0,0.01 0,0.02 -0.01,0.03 -0.03,0.02 -0.06,0.04 -0.08,0.07 -0.46,0.31 -0.68,0.52 -0.69,0.6 z m 3.98,-2.76 c 0.28,0 0.5,-0.05 0.67,-0.16 0.04,-0.04 0.06,-0.1 0.07,-0.17 0,-0.1 -0.05,-0.16 -0.15,-0.16 -0.11,0 -0.33,0.05 -0.66,0.16 -0.08,0.01 -0.11,0.02 -0.1,0.02 -0.09,0.02 -0.14,0.03 -0.15,0.04 -0.02,0.01 -0.03,0.04 -0.04,0.07 0.02,0.04 0.05,0.08 0.09,0.14 l 0.02,0.04 c 0.02,0 0.1,0.01 0.25,0.02 z"
   id="path12951"
   style="stroke-width:0.690553" />
	<path
   class="st2"
   d="m 195.44,213.3 c -0.12,0.04 -0.25,0.08 -0.38,0.12 -0.06,0.02 -0.09,0.04 -0.09,0.08 0,0.11 0.09,0.22 0.25,0.32 0.13,0.1 0.26,0.15 0.38,0.15 0.04,0 0.07,-0.02 0.1,-0.05 0.05,-0.14 0.15,-0.32 0.31,-0.55 0.02,-0.05 0.03,-0.11 0.05,-0.17 0,-0.02 -0.02,-0.04 -0.05,-0.04 -0.04,0 -0.23,0.04 -0.54,0.12 0,0 -0.02,0.01 -0.03,0.02 m -0.85,0.51 c -0.17,-0.13 -0.28,-0.19 -0.32,-0.19 -0.09,0 -0.17,0.02 -0.23,0.07 -0.09,0.09 -0.1,0.28 -0.03,0.57 0,0.06 0.1,0.1 0.3,0.12 0.21,0 0.35,0.01 0.42,0.03 0.19,0 0.29,-0.05 0.29,-0.16 0,-0.08 -0.14,-0.23 -0.43,-0.44 z m -0.02,2.71 c -0.7,0.18 -1.06,0.28 -1.08,0.3 -0.03,0.05 0.03,0.17 0.17,0.36 0.28,-0.12 0.95,-0.26 2.01,-0.41 h 0.02 c 0.04,0 0.07,0.03 0.07,0.1 v 0.56 c -0.05,0.11 -0.09,0.22 -0.12,0.34 -0.04,0.02 -0.09,0.05 -0.13,0.09 -0.15,0.01 -0.29,0.03 -0.43,0.05 -0.01,0 -0.03,-0.01 -0.04,-0.01 -0.25,-0.04 -0.47,-0.08 -0.66,-0.13 -0.02,0.01 -0.03,0.03 -0.03,0.05 0,0.09 0.11,0.19 0.34,0.29 0.45,0.2 0.87,0.33 1.27,0.4 h 0.01 c 0.04,0 0.08,-0.02 0.12,-0.06 0.12,-0.15 0.21,-0.48 0.28,-1 0.04,-0.51 0.09,-0.78 0.13,-0.79 0.03,-0.03 0.18,-0.04 0.44,-0.04 0.03,-0.03 0.26,-0.01 0.69,0.03 0.28,0.08 0.43,0.11 0.45,0.11 0.08,0 0.12,-0.05 0.13,-0.14 0,-0.03 -0.02,-0.08 -0.05,-0.17 -0.01,-0.05 -0.03,-0.11 -0.04,-0.17 -0.02,-0.11 -0.08,-0.19 -0.17,-0.22 -0.3,-0.05 -0.8,-0.03 -1.5,0.06 -0.05,0 -0.09,-0.03 -0.1,-0.09 -0.01,-0.05 -0.01,-0.11 -0.01,-0.16 0.07,-0.03 0.16,-0.06 0.27,-0.09 0.07,-0.01 0.15,-0.04 0.24,-0.09 0.11,-0.07 0.23,-0.15 0.35,-0.21 0.41,0 0.81,-0.03 1.19,-0.07 l 0.15,-0.02 c 0.06,0 0.09,-0.04 0.1,-0.09 0,-0.19 -0.39,-0.48 -1.17,-0.89 -0.01,-0.01 -0.02,-0.02 -0.03,-0.02 -0.07,-0.02 -0.33,-0.05 -0.8,-0.11 -0.03,0 -0.05,-0.02 -0.05,-0.04 0,0 0.13,-0.13 0.38,-0.37 0.15,-0.15 0.25,-0.23 0.29,-0.26 0.18,-0.09 0.27,-0.15 0.27,-0.17 -0.21,-0.25 -0.4,-0.38 -0.57,-0.41 h -0.01 c -0.06,0 -0.15,0.07 -0.26,0.22 -0.39,0.55 -0.66,0.9 -0.83,1.03 -0.11,0.07 -0.34,0.16 -0.68,0.27 -0.24,0.08 -0.61,0.22 -1.11,0.41 -0.16,0.01 -0.25,0.05 -0.25,0.11 v 0.03 c 0,0.05 0.02,0.09 0.06,0.14 0.03,0.03 0.07,0.05 0.1,0.05 0.27,-0.1 0.52,-0.15 0.75,-0.15 0.49,-0.14 0.86,-0.23 1.1,-0.27 0.22,-0.09 0.65,-0.18 1.28,-0.27 0.01,0 0.02,-0.01 0.03,-0.01 0.05,0 0.15,0.02 0.31,0.09 0.1,0.05 0.16,0.11 0.16,0.19 0,0.1 -0.05,0.2 -0.16,0.29 -0.16,0.09 -0.27,0.14 -0.31,0.14 -0.51,-0.17 -0.81,-0.26 -0.88,-0.25 -0.19,0 -0.8,0.16 -1.81,0.47 -0.02,0 -0.04,0 -0.05,0.01 -0.04,0.01 -0.07,0.04 -0.07,0.08 0,0.13 0.09,0.25 0.26,0.37 0.04,0.03 0.09,0.04 0.13,0.04 0.04,0 0.18,-0.07 0.4,-0.22 0.06,-0.02 0.24,-0.07 0.53,-0.15 0.04,-0.03 0.11,-0.08 0.19,-0.16 0.09,-0.11 0.21,-0.17 0.34,-0.17 0.06,0 0.09,0.03 0.09,0.09 0,0.04 -0.05,0.11 -0.16,0.23 -0.12,0.1 -0.26,0.15 -0.43,0.15 -0.06,0.03 -0.1,0.06 -0.1,0.1 l 0.15,0.29 c 0,0.04 -0.04,0.07 -0.13,0.09 -0.28,0.04 -0.63,0.13 -1.03,0.25 z m -1.83,-0.74 c 0,0.07 0.14,0.15 0.42,0.21 0.16,0.04 0.26,0.06 0.31,0.06 0.12,0 0.19,-0.04 0.19,-0.12 0,0 0,-0.01 -0.01,-0.03 -0.06,-0.17 -0.06,-0.39 -0.01,-0.64 0.01,-0.04 -0.03,-0.06 -0.11,-0.06 -0.14,0 -0.32,0.07 -0.53,0.22 -0.15,0.12 -0.24,0.24 -0.27,0.36 v 0 z"
   id="path12953"
   style="stroke-width:0.690553" />
	<path
   class="st2"
   d="m 206.44,214.46 c 0.12,0.01 0.23,0.01 0.33,0 0,-0.01 0.02,-0.02 0.04,-0.02 0,-0.11 -0.03,-0.19 -0.1,-0.25 -0.05,-0.07 -0.23,-0.16 -0.53,-0.28 -0.06,-0.04 -0.13,-0.08 -0.2,-0.12 0,0 -0.01,-0.01 -0.03,-0.02 -0.06,0.02 -0.1,0.05 -0.11,0.07 -0.01,0.02 -0.01,0.18 -0.01,0.48 0.03,0.07 0.11,0.1 0.23,0.1 0.02,0 0.04,0 0.06,-0.01 0,0 0.01,0 0.03,0.01 0.01,0.01 0.03,0.02 0.05,0.02 0.06,0 0.15,0 0.24,0.02 m -2.8,1.67 v 0 c -0.07,-0.06 -0.12,-0.1 -0.14,-0.12 -0.04,-0.03 -0.23,-0.12 -0.57,-0.25 -0.03,-0.02 -0.06,-0.05 -0.08,-0.08 0,0 -0.01,-0.01 -0.02,-0.02 -0.01,0 -0.04,-0.01 -0.07,-0.02 -0.03,0 -0.06,0.02 -0.08,0.05 -0.05,0.07 -0.07,0.18 -0.08,0.33 0,0.09 0.04,0.17 0.11,0.22 0.13,0.07 0.4,0.07 0.8,0.02 0.04,0 0.08,-0.01 0.1,-0.03 0.02,-0.02 0.03,-0.05 0.04,-0.1 z m -1.24,-1.03 c 0,0.13 0.07,0.27 0.22,0.4 0,0 0.01,0.01 0.02,0.02 0.03,0.02 0.05,0.03 0.07,0.03 0.03,0 0.1,-0.02 0.21,-0.07 0.08,-0.05 0.36,-0.1 0.83,-0.14 0.13,-0.01 0.23,-0.01 0.3,-0.01 l 0.04,0.03 c 0,0.36 0.01,0.57 0.04,0.62 0,0.09 0.02,0.25 0.05,0.47 0.03,0.65 0.03,1 -0.01,1.05 -0.01,0.01 -0.03,0.02 -0.04,0.04 -0.09,0.05 -0.23,0.06 -0.42,0.04 h -0.01 c -0.12,0 -0.3,-0.04 -0.54,-0.1 -0.03,0 -0.08,-0.01 -0.15,-0.01 v 0.04 c 0.09,0.08 0.17,0.13 0.23,0.16 0,0 0.03,0.02 0.09,0.06 0.1,0.08 0.42,0.2 0.95,0.36 0.06,0.02 0.13,0.05 0.2,0.08 0.18,0.07 0.3,0.1 0.37,0.1 0.01,0 0.04,-0.01 0.06,-0.02 0.01,-0.01 0.02,-0.05 0.03,-0.13 -0.02,-0.09 -0.04,-0.19 -0.06,-0.28 -0.03,-0.18 -0.05,-0.36 -0.06,-0.56 l -0.01,-0.79 c 0.01,-0.02 0.04,-0.03 0.07,-0.03 0.07,0 0.3,0.1 0.67,0.3 0.01,0.01 0.04,0.02 0.07,0.04 l 0.26,0.17 c 0.08,0.04 0.16,0.15 0.25,0.33 0,0.1 0.14,0.15 0.41,0.16 0.15,0.02 0.51,0.02 1.1,0 0.2,-0.01 0.36,-0.05 0.48,-0.11 0,-0.02 0,-0.04 0.01,-0.06 -0.07,-0.09 -0.3,-0.18 -0.68,-0.25 h -0.01 c -0.01,0 -0.03,-0.01 -0.04,-0.01 l -0.78,-0.17 c -0.03,0 -0.05,0 -0.07,0.01 -0.45,-0.2 -0.89,-0.47 -1.31,-0.82 0,-0.03 0.23,-0.17 0.69,-0.4 0.1,-0.07 0.17,-0.1 0.21,-0.11 0.04,-0.02 0.15,-0.06 0.31,-0.11 0,-0.07 -0.03,-0.13 -0.08,-0.19 -0.08,-0.08 -0.15,-0.12 -0.23,-0.13 -0.03,0 -0.08,0.03 -0.15,0.08 -0.02,0 -0.02,0.01 -0.03,0.02 -0.04,0.01 -0.27,0.16 -0.69,0.43 -0.03,0.02 -0.07,0.04 -0.1,0.06 -0.14,0.07 -0.22,0.1 -0.24,0.11 -0.07,0 -0.12,-0.03 -0.15,-0.1 -0.03,-0.03 -0.04,-0.16 -0.04,-0.37 0,-0.09 0.03,-0.14 0.09,-0.17 0,0 0.03,-0.01 0.07,-0.02 0.06,-0.01 0.27,-0.06 0.62,-0.16 0,0 0.02,-0.01 0.04,-0.01 0.09,0 0.16,-0.01 0.2,-0.02 0.04,-0.01 0.07,-0.04 0.07,-0.07 0,-0.04 -0.1,-0.17 -0.3,-0.4 -0.02,-0.02 -0.04,-0.04 -0.07,-0.04 l -0.61,0.12 c -0.05,0 -0.08,-0.02 -0.08,-0.07 0,-0.6 0.03,-0.93 0.09,-0.97 0,0 0,-0.01 0.01,-0.03 0.03,-0.02 0.06,-0.05 0.11,-0.09 v -0.03 c -0.06,-0.04 -0.18,-0.09 -0.36,-0.13 l -0.04,-0.03 h -0.03 c 0,0 -0.01,0.01 -0.01,0.02 -0.06,-0.01 -0.11,-0.02 -0.17,-0.02 -0.04,0.02 -0.07,0.17 -0.09,0.43 0,0.11 -0.01,0.22 -0.02,0.34 0,0.02 -0.04,0.27 -0.11,0.73 -0.05,0.03 -0.15,0.07 -0.29,0.1 -0.15,0.02 -0.26,0.05 -0.34,0.08 -0.03,0 -0.23,0.02 -0.59,0.07 l -0.47,0.06 c -0.01,0.01 -0.03,0.03 -0.04,0.04 v 0.03 z m 1.02,1.4 c -0.04,0.01 -0.24,0.11 -0.6,0.3 -0.01,0 -0.02,0.01 -0.02,0.02 -0.28,0.12 -0.51,0.22 -0.69,0.31 -0.22,0.08 -0.34,0.15 -0.34,0.2 0,0.03 0.11,0.13 0.32,0.32 0.05,0.04 0.1,0.07 0.17,0.09 0.04,0 0.12,-0.07 0.24,-0.2 l 0.59,-0.42 c 0.52,-0.42 0.79,-0.65 0.82,-0.69 0.06,-0.04 0.09,-0.07 0.09,-0.11 0,-0.03 -0.02,-0.05 -0.06,-0.05 -0.09,-0.01 -0.26,0.07 -0.52,0.23 z"
   id="path12955"
   style="stroke-width:0.690553" />
	<path
   class="st2"
   d="m 210.98,214.76 h -0.04 c -0.06,0 -0.09,-0.02 -0.1,-0.05 0,-0.05 0.04,-0.1 0.13,-0.14 0.27,-0.11 0.43,-0.18 0.47,-0.21 0.05,-0.07 0.05,-0.18 0.03,-0.33 -0.02,-0.02 -0.04,-0.04 -0.09,-0.04 -0.01,0 -0.03,0 -0.06,0.01 -0.06,0.01 -0.16,0.03 -0.31,0.06 -0.02,-0.02 -0.03,-0.03 -0.03,-0.05 -0.01,-0.02 0.03,-0.07 0.12,-0.15 0.11,-0.1 0.24,-0.14 0.38,-0.15 0.07,0 0.14,0.04 0.21,0.11 0.03,0.05 0.05,0.42 0.06,1.11 0,0.06 -0.03,0.09 -0.08,0.1 -0.02,0 -0.04,-0.01 -0.07,-0.02 -0.03,-0.01 -0.06,-0.09 -0.09,-0.23 -0.02,-0.06 -0.19,-0.06 -0.53,-0.02 m 0.15,1.84 c 0,0.04 -0.01,0.05 -0.04,0.06 -0.09,0 -0.21,-0.06 -0.37,-0.19 -0.04,-0.04 -0.07,-0.1 -0.07,-0.18 0,-0.1 0.03,-0.17 0.1,-0.23 0.03,-0.05 0.09,-0.07 0.17,-0.07 0.12,0 0.18,0.08 0.19,0.24 z m -1.9,0.61 -0.63,0.23 c -0.18,0.06 -0.27,0.11 -0.27,0.16 0,0.06 0.1,0.09 0.31,0.09 0.3,0 0.6,-0.06 0.9,-0.17 0.04,-0.02 0.07,-0.03 0.11,-0.04 0.09,-0.04 0.15,-0.09 0.18,-0.16 0,-0.11 0.06,-0.21 0.18,-0.31 0.06,-0.07 0.42,-0.03 1.07,0.13 0.27,0.13 0.53,0.21 0.77,0.25 0.28,0.04 0.49,0.13 0.63,0.26 0.01,0 0.08,0.08 0.1,0.12 0.06,0.08 0.06,0.19 0.1,0.29 0.02,0.05 0.1,0.08 0.26,0.09 0.26,0 0.42,0.01 0.48,0.03 0.09,0 0.29,0.01 0.61,0.04 0.37,-0.02 0.57,-0.03 0.6,-0.02 0.14,-0.04 0.28,-0.08 0.43,-0.12 0.06,-0.02 0.09,-0.04 0.09,-0.08 0,-0.04 -0.06,-0.07 -0.18,-0.11 -0.36,-0.11 -1.07,-0.27 -2.13,-0.48 -0.03,-0.01 -0.38,-0.14 -1.04,-0.38 -0.07,-0.02 -0.1,-0.07 -0.1,-0.13 0,-0.01 0.01,-0.04 0.01,-0.08 0.05,-0.12 0.1,-0.19 0.16,-0.22 0.2,-0.1 0.44,-0.15 0.74,-0.15 0.03,-0.01 0.05,-0.04 0.05,-0.08 0,-0.01 -0.01,-0.05 -0.04,-0.11 0,0.01 0,0 -0.01,-0.04 0,-0.04 -0.01,-0.07 -0.02,-0.1 -0.02,-0.02 -0.2,-0.04 -0.55,-0.04 -0.01,0 -0.06,0 -0.16,0.01 -0.06,0 -0.09,-0.02 -0.09,-0.08 0,-0.02 0.01,-0.04 0.02,-0.07 0.02,-0.05 0.07,-0.08 0.14,-0.08 0.02,0 0.05,0 0.09,-0.01 0.72,-0.05 1.17,-0.05 1.35,-0.01 0.08,0 0.11,-0.03 0.12,-0.09 0,-0.02 0,-0.03 -0.01,-0.05 0,-0.1 -0.04,-0.21 -0.13,-0.36 -0.06,-0.08 -0.13,-0.11 -0.21,-0.11 l -0.61,0.08 c -0.07,0 -0.1,-0.04 -0.1,-0.12 0,-0.1 0.05,-0.55 0.16,-1.35 0.03,-0.11 0.07,-0.22 0.12,-0.33 -0.04,-0.07 -0.21,-0.12 -0.5,-0.14 -0.42,-0.01 -1.02,0.07 -1.82,0.23 -0.05,0 -0.1,0.01 -0.16,0.03 -0.07,0 -0.11,0.04 -0.14,0.11 -0.06,0.17 0,0.6 0.17,1.31 0.02,0.1 0.02,0.15 0.03,0.17 0.03,0.11 0.1,0.16 0.22,0.16 0.47,-0.18 0.72,-0.26 0.75,-0.25 0.09,0.02 0.18,0.06 0.27,0.11 0.11,0.07 0.17,0.11 0.17,0.12 -0.02,0.01 -0.17,0.05 -0.46,0.1 -0.67,0.07 -1.6,0.27 -2.8,0.59 -0.06,0 -0.05,0.08 0.02,0.23 -0.01,0 0.01,0.01 0.03,0.04 0.08,0.07 0.15,0.12 0.2,0.12 0.18,-0.12 0.59,-0.22 1.24,-0.3 0.01,0 0.02,-0.01 0.04,-0.01 0.06,0 0.09,0.03 0.09,0.1 0,0.11 -0.1,0.28 -0.3,0.52 -0.06,0.05 -0.19,0.17 -0.4,0.37 -0.03,0.02 -0.09,0.05 -0.15,0.09 z"
   id="path12957"
   style="stroke-width:0.690553" />
	<path
   class="st2"
   d="m 219.72,215.78 c 0.01,0.17 0.06,0.3 0.12,0.39 0.04,0.05 0.08,0.08 0.14,0.09 0.06,0 0.12,-0.02 0.18,-0.06 0.09,-0.06 0.14,-0.2 0.15,-0.42 0,-0.12 0.05,-0.33 0.15,-0.65 0,-0.02 -0.01,-0.03 -0.03,-0.04 -0.06,-0.05 -0.26,-0.1 -0.59,-0.14 -0.02,0 -0.02,-0.01 -0.02,-0.01 -0.1,0 -0.15,0.04 -0.15,0.13 0,0.02 0.01,0.05 0.02,0.07 l 0.03,0.64 m -0.17,1.67 c 0,0.12 0.21,0.28 0.62,0.5 0.11,0.06 0.26,0.12 0.44,0.17 0.04,0.01 0.07,0.03 0.11,0.04 0.48,0.17 0.8,0.26 0.97,0.27 0.12,0 0.19,-0.06 0.19,-0.17 -0.18,-1.3 -0.24,-2.12 -0.17,-2.46 -0.08,-1.32 -0.05,-2.06 0.1,-2.21 0,0 0.01,-0.01 0.02,-0.01 0,-0.01 0,-0.03 0.01,-0.04 0,-0.06 -0.09,-0.13 -0.27,-0.19 -0.25,-0.08 -0.39,-0.12 -0.41,-0.12 -0.03,0 -0.07,0.01 -0.11,0.04 -0.05,0.02 -0.07,0.08 -0.07,0.16 l 0.01,1.9 c 0,0.04 0,0.09 0.01,0.13 0.01,0.13 0.01,0.37 0.02,0.74 0.05,0.99 0.06,1.49 0.05,1.51 -0.04,0.04 -0.16,0.06 -0.38,0.06 -0.51,-0.05 -0.81,-0.12 -0.91,-0.21 -0.1,-0.08 -0.18,-0.11 -0.23,-0.11 z m -1.16,-1.63 c -0.01,0.05 -0.01,0.11 -0.01,0.18 -0.01,0.14 -0.05,0.25 -0.12,0.34 -0.04,0.04 -0.1,0.06 -0.19,0.06 -0.09,0 -0.14,-0.02 -0.15,-0.07 -0.01,-0.07 -0.01,-0.11 -0.02,-0.12 -0.06,-0.06 -0.16,-0.09 -0.31,-0.09 -0.02,0 -0.04,0 -0.08,0.01 -0.02,0 -0.03,-0.01 -0.04,-0.02 0,-0.03 0.19,-0.14 0.58,-0.34 0.11,-0.04 0.21,-0.05 0.3,-0.02 0.02,-0.01 0.03,0.02 0.04,0.07 z m -1.09,-0.88 c -0.45,0.51 -0.93,0.97 -1.44,1.38 -0.01,0.01 -0.02,0.02 -0.04,0.03 -0.06,0.06 -0.1,0.11 -0.11,0.13 -0.03,0.05 -0.08,0.1 -0.14,0.15 -0.02,0.01 -0.03,0.03 -0.03,0.05 0,0.03 0.02,0.04 0.05,0.04 0.02,0 0.05,-0.01 0.08,-0.02 0.01,0 0.01,-0.01 0.02,-0.01 0.02,0 0.03,-0.01 0.05,-0.01 0.09,-0.02 0.21,-0.05 0.35,-0.08 0.03,0 0.16,-0.05 0.39,-0.15 0.03,-0.02 0.07,-0.03 0.11,-0.04 0.04,-0.01 0.08,-0.04 0.13,-0.08 0.05,-0.05 0.14,-0.11 0.28,-0.19 l 0.14,-0.09 c 0.01,0 0.01,0 0.02,-0.01 l 0.22,0.04 c 0.02,0 0.03,0.04 0.04,0.11 -0.1,0.81 -0.15,1.23 -0.15,1.26 0.03,0.23 0.18,0.41 0.45,0.54 0.1,0.08 0.46,0.06 1.09,-0.04 0.02,0 0.03,0 0.05,-0.01 0.09,-0.01 0.16,-0.04 0.22,-0.07 0.03,-0.02 0.05,-0.07 0.05,-0.15 -0.02,-0.16 -0.05,-0.3 -0.1,-0.42 l -0.16,-0.39 c -0.02,-0.02 -0.04,-0.03 -0.06,-0.03 -0.09,0 -0.15,0.07 -0.16,0.22 -0.01,0.1 -0.03,0.21 -0.08,0.31 -0.04,0.07 -0.09,0.12 -0.18,0.14 -0.16,0.04 -0.28,0.06 -0.37,0.06 -0.08,0 -0.16,-0.02 -0.23,-0.07 -0.09,-0.07 -0.11,-0.22 -0.05,-0.44 0.04,-0.19 0.08,-0.3 0.14,-0.34 0.02,-0.03 0.19,-0.02 0.5,0.01 0.15,0 0.3,-0.1 0.43,-0.31 0.01,-0.02 0.02,-0.04 0.03,-0.05 l 0.12,-0.24 c 0.02,-0.03 0.04,-0.11 0.09,-0.23 0.02,-0.06 0.02,-0.11 0.03,-0.13 0,-0.03 0.01,-0.06 0.02,-0.09 0.06,-0.05 0.09,-0.12 0.09,-0.21 0,-0.03 -0.04,-0.06 -0.11,-0.1 -0.28,-0.14 -0.61,-0.14 -1.01,0 -0.2,0.07 -0.31,0.11 -0.33,0.12 -0.2,0.09 -0.32,0.14 -0.35,0.15 -0.04,0 -0.06,-0.02 -0.06,-0.06 0,-0.06 0.11,-0.23 0.33,-0.49 0.06,-0.09 0.14,-0.17 0.22,-0.23 0.06,-0.06 0.14,-0.13 0.22,-0.2 0.08,-0.05 0.14,-0.07 0.19,-0.07 0.11,0 0.23,0.05 0.37,0.16 0.13,0.1 0.25,0.15 0.36,0.13 0.12,-0.02 0.21,-0.05 0.25,-0.07 0.17,-0.09 0.26,-0.16 0.26,-0.22 0,-0.1 -0.13,-0.17 -0.39,-0.21 -0.22,-0.02 -0.33,-0.03 -0.35,-0.05 -0.1,-0.02 -0.15,-0.05 -0.15,-0.11 0.22,-0.23 0.33,-0.36 0.33,-0.38 -0.01,-0.04 -0.05,-0.09 -0.1,-0.15 -0.02,-0.01 -0.03,-0.03 -0.05,-0.06 -0.07,-0.09 -0.12,-0.13 -0.17,-0.13 -0.07,0 -0.24,0.15 -0.52,0.45 -0.02,0.03 -0.04,0.05 -0.06,0.08 z"
   id="path12959"
   style="stroke-width:0.690553" />
	<path
   class="st2"
   d="m 225.28,217.42 c 0.36,0 0.64,-0.12 0.86,-0.35 0.16,-0.23 0.22,-0.41 0.17,-0.54 0,-0.32 0.17,-0.54 0.5,-0.68 0.07,-0.03 0.14,-0.05 0.22,-0.05 0.03,0 0.05,0.01 0.07,0.03 0.05,0.04 0.1,0.5 0.15,1.4 0.01,0.05 0.01,0.25 0.02,0.6 0,0.5 0.04,0.77 0.13,0.83 0.04,0.01 0.09,0.02 0.15,0.02 0.21,0 0.31,-0.05 0.32,-0.16 -0.02,-0.25 -0.02,-0.62 -0.02,-1.1 -0.02,-0.56 -0.02,-0.89 0.01,-1.01 -0.01,-0.09 0.01,-0.27 0.08,-0.54 0.02,-0.08 0.05,-0.13 0.11,-0.17 0.03,-0.04 0.28,-0.04 0.75,-0.01 0.01,0 0.01,0 0.02,0 0.05,0 0.1,0.01 0.16,0.02 0.1,0 0.15,-0.04 0.15,-0.11 0,-0.04 -0.03,-0.11 -0.08,-0.2 -0.1,-0.16 -0.16,-0.26 -0.2,-0.29 -0.08,-0.08 -0.14,-0.12 -0.18,-0.12 -0.07,0 -0.17,0.01 -0.3,0.02 -0.19,0.02 -0.73,0.14 -1.63,0.37 h -0.08 c -0.05,-0.11 0.02,-0.26 0.19,-0.44 0.08,-0.12 0.3,-0.19 0.68,-0.22 0.04,0 0.13,-0.04 0.29,-0.11 0.25,-0.08 0.38,-0.13 0.41,-0.18 0.01,-0.03 0.01,-0.07 0.02,-0.11 0,-0.06 -0.03,-0.13 -0.1,-0.21 -0.05,-0.05 -0.12,-0.08 -0.2,-0.08 -0.17,0 -0.54,0.1 -1.12,0.28 0,0 -0.01,0 -0.01,0.01 -0.36,0.06 -0.55,0.12 -0.58,0.16 -0.01,0.01 -0.02,0.31 -0.03,0.9 -0.02,0.11 -0.04,0.23 -0.05,0.35 l -0.07,0.32 c -0.11,0.3 -0.17,0.47 -0.19,0.51 -0.02,0.03 -0.03,0.05 -0.04,0.08 l -0.24,0.35 c -0.17,0.19 -0.27,0.32 -0.31,0.38 v 0.05 m -0.26,-4.61 c -0.08,0 -0.15,0.03 -0.22,0.1 -0.16,0.13 -0.23,0.3 -0.23,0.52 0,0.06 0.04,0.12 0.12,0.2 0.14,0.13 0.3,0.19 0.49,0.19 0.05,0 0.12,-0.02 0.23,-0.06 0.07,-0.24 -0.02,-0.51 -0.26,-0.82 l -0.09,-0.11 z m -1.16,4.35 c 0.01,-0.09 0.02,-0.17 0.04,-0.26 0.01,-0.03 0.01,-0.06 0.02,-0.08 0,-0.14 0.01,-0.22 0.04,-0.25 0.02,-0.02 0.06,-0.04 0.13,-0.05 0.08,0 0.13,-0.01 0.15,-0.02 0.05,-0.01 0.11,-0.02 0.2,-0.03 0.06,0.09 0.08,0.31 0.06,0.66 0,0.05 -0.02,0.09 -0.05,0.11 -0.04,0.04 -0.11,0.06 -0.23,0.06 -0.11,0 -0.19,-0.02 -0.25,-0.04 -0.04,-0.01 -0.07,-0.04 -0.1,-0.08 v -0.02 z m 0.23,-1.09 c -0.17,0.06 -0.35,0.12 -0.52,0.18 -0.05,0 -0.32,0.07 -0.83,0.2 -0.1,0.02 -0.15,0.04 -0.17,0.07 -0.02,0.05 -0.01,0.1 0.03,0.16 0.03,0.05 0.09,0.1 0.19,0.15 l 0.07,-0.02 c 0.07,-0.04 0.3,-0.11 0.71,-0.2 l 0.02,0.02 c -0.01,0 -0.01,0 -0.01,0.01 -0.01,0 -0.01,0.02 -0.02,0.03 -0.04,0.02 -0.07,0.05 -0.1,0.09 0,0 -0.02,0.01 -0.05,0.05 -0.03,0.04 -0.06,0.07 -0.09,0.1 -0.29,0.3 -0.44,0.49 -0.44,0.54 0,0.04 0.04,0.08 0.11,0.13 0.2,0.08 0.32,0.12 0.37,0.13 0.08,0 0.14,-0.03 0.18,-0.08 0.08,-0.21 0.24,-0.23 0.47,-0.04 l 0.04,0.03 c 0.01,0 0.02,0.01 0.05,0.02 0.34,0.14 0.56,0.21 0.65,0.21 0.08,0 0.14,-0.03 0.18,-0.08 0.05,-0.13 0.05,-0.35 0,-0.68 0,0.01 0,0.03 0.01,0.04 -0.02,-0.13 -0.02,-0.2 -0.01,-0.21 0.29,0 0.46,-0.01 0.51,-0.02 0,0 0,-0.01 0.01,-0.01 0.06,-0.05 0.09,-0.1 0.09,-0.14 0,-0.09 -0.1,-0.17 -0.29,-0.25 -0.14,-0.05 -0.22,-0.09 -0.25,-0.11 v -0.04 c 0,-0.04 0.04,-0.07 0.12,-0.09 0.23,-0.04 0.36,-0.06 0.4,-0.06 0.02,-0.01 0.05,-0.02 0.08,-0.03 0.19,-0.04 0.28,-0.09 0.29,-0.14 0,-0.08 -0.04,-0.15 -0.12,-0.23 -0.07,-0.05 -0.12,-0.08 -0.17,-0.08 -0.06,0 -0.21,0.03 -0.43,0.1 -0.05,-0.02 -0.07,-0.06 -0.07,-0.1 0,-0.02 0.01,-0.05 0.02,-0.08 0.03,-0.02 0.15,-0.07 0.36,-0.15 0.19,-0.08 0.28,-0.16 0.29,-0.26 0,-0.05 -0.02,-0.09 -0.05,-0.13 -0.03,-0.02 -0.1,-0.04 -0.2,-0.04 -0.03,0 -0.06,-0.01 -0.09,-0.02 0,-0.01 0,-0.02 -0.01,-0.04 0,-0.05 0.07,-0.11 0.2,-0.17 0.23,-0.12 0.25,-0.23 0.05,-0.33 -0.06,-0.02 -0.12,-0.05 -0.18,-0.08 -0.02,0 -0.03,-0.01 -0.05,-0.02 -0.01,0 -0.01,-0.02 -0.02,-0.04 0.04,-0.03 0.09,-0.05 0.16,-0.06 0.19,-0.06 0.29,-0.16 0.29,-0.31 l -0.02,-0.01 v -0.01 c -0.21,-0.09 -0.57,-0.06 -1.09,0.08 -0.86,0.17 -1.32,0.28 -1.37,0.32 0,0.08 0.05,0.18 0.15,0.32 0.1,-0.02 0.2,-0.05 0.32,-0.09 0.09,-0.02 0.17,-0.03 0.23,-0.01 -0.08,0.14 -0.15,0.28 -0.22,0.44 -0.02,0.02 -0.03,0.06 -0.04,0.11 0,0.09 0.04,0.14 0.12,0.14 0.02,0 0.03,0 0.04,-0.01 0.02,0 0.05,-0.01 0.08,-0.02 0.11,-0.03 0.25,-0.16 0.42,-0.39 0.11,-0.15 0.23,-0.23 0.36,-0.23 0.05,0 0.07,0.03 0.07,0.09 0,0.1 -0.09,0.23 -0.27,0.4 -0.06,0.06 -0.4,0.18 -1.02,0.37 -0.05,0.01 -0.1,0.03 -0.15,0.05 -0.02,0 -0.04,0 -0.07,0.01 -0.04,0 -0.08,0.03 -0.12,0.08 0.05,0.15 0.11,0.25 0.18,0.3 0.03,0.01 0.07,0.02 0.12,0.03 0.21,-0.1 0.45,-0.15 0.74,-0.15 0.03,0 0.05,0.01 0.07,0.03 0.02,0.02 0.02,0.04 0.03,0.08 0,0.01 -0.01,0.03 -0.03,0.06 z"
   id="path12961"
   style="stroke-width:0.690553" />
	<path
   class="st3"
   d="m 199.5,221.5 v 3.04 h -0.65 l -0.38,-1.38 v 1.38 h -0.62 v -3.04 h 0.62 l 0.41,1.37 v -1.37 h 0.62 m -2.71,1.96 c -0.04,-0.34 -0.07,-0.77 -0.11,-1.27 -0.07,0.58 -0.12,1.01 -0.14,1.27 z m 0.39,-1.96 0.42,3.04 h -0.76 l -0.04,-0.55 h -0.27 l -0.04,0.55 h -0.77 l 0.38,-3.04 z m -1.7,0 v 3.04 h -0.74 v -1.28 h -0.22 v 1.28 h -0.74 v -3.04 h 0.74 v 1.09 h 0.22 v -1.09 z m -2.12,0 v 2.03 c 0,0.23 -0.01,0.39 -0.02,0.48 -0.01,0.09 -0.06,0.19 -0.12,0.29 -0.07,0.1 -0.16,0.17 -0.27,0.22 -0.11,0.05 -0.25,0.08 -0.4,0.08 -0.17,0 -0.32,-0.03 -0.45,-0.09 -0.13,-0.06 -0.23,-0.14 -0.29,-0.23 -0.06,-0.1 -0.1,-0.2 -0.11,-0.3 -0.01,-0.11 -0.02,-0.33 -0.02,-0.68 v -1.8 h 0.74 v 2.28 c 0,0.13 0.01,0.22 0.02,0.25 0.01,0.04 0.04,0.06 0.08,0.06 0.05,0 0.08,-0.02 0.09,-0.06 0.01,-0.04 0.02,-0.14 0.02,-0.29 v -2.24 z m -1.95,0 -0.33,3.04 h -0.92 c -0.08,-0.47 -0.16,-1 -0.22,-1.59 -0.03,0.25 -0.1,0.78 -0.21,1.59 h -0.92 l -0.33,-3.04 h 0.72 l 0.08,1.06 0.08,1.02 c 0.03,-0.53 0.09,-1.22 0.2,-2.08 h 0.77 c 0.01,0.09 0.04,0.42 0.08,1 l 0.08,1.15 c 0.04,-0.73 0.11,-1.45 0.2,-2.16 h 0.72 z"
   id="path12963"
   style="stroke-width:0.690553" />
	<path
   class="st3"
   d="m 210.23,223.46 c -0.04,-0.34 -0.08,-0.77 -0.11,-1.27 -0.08,0.58 -0.12,1.01 -0.14,1.27 h 0.25 m 0.4,-1.96 0.43,3.04 h -0.77 l -0.04,-0.55 h -0.27 l -0.04,0.55 h -0.78 l 0.38,-3.04 z m -1.73,0 v 3.04 h -0.66 l -0.39,-1.38 v 1.38 h -0.63 v -3.04 h 0.63 l 0.42,1.37 v -1.37 z m -2.11,0 v 3.04 h -0.75 v -3.04 z m -1.18,0 v 3.04 h -0.75 v -1.28 h -0.22 v 1.28 h -0.75 v -3.04 h 0.75 v 1.09 h 0.22 v -1.09 z m -2.13,1.33 h -0.75 v -0.53 c 0,-0.15 -0.01,-0.25 -0.02,-0.29 -0.02,-0.04 -0.05,-0.06 -0.11,-0.06 -0.06,0 -0.1,0.02 -0.12,0.07 -0.02,0.05 -0.03,0.15 -0.03,0.3 v 1.41 c 0,0.15 0.01,0.24 0.03,0.29 0.02,0.05 0.05,0.07 0.11,0.07 0.06,0 0.09,-0.02 0.11,-0.07 0.02,-0.04 0.03,-0.15 0.03,-0.32 v -0.38 h 0.75 v 0.12 c 0,0.31 -0.02,0.54 -0.06,0.67 -0.04,0.13 -0.14,0.25 -0.28,0.35 -0.14,0.1 -0.32,0.15 -0.53,0.15 -0.22,0 -0.4,-0.04 -0.54,-0.13 -0.14,-0.08 -0.24,-0.2 -0.28,-0.35 -0.05,-0.15 -0.07,-0.37 -0.07,-0.67 v -0.89 c 0,-0.22 0.01,-0.38 0.02,-0.49 0.01,-0.11 0.06,-0.22 0.13,-0.32 0.07,-0.1 0.17,-0.18 0.29,-0.24 0.13,-0.06 0.27,-0.09 0.43,-0.09 0.22,0 0.4,0.05 0.55,0.14 0.14,0.09 0.24,0.2 0.28,0.34 0.05,0.13 0.07,0.34 0.07,0.63 v 0.29 z"
   id="path12965"
   style="stroke-width:0.690553" />
	<ellipse
   class="st4"
   cx="199.92999"
   cy="199.92999"
   rx="48.830002"
   ry="32.130001"
   id="ellipse12967" />
	<ellipse
   class="st5"
   cx="199.94"
   cy="200.03"
   rx="39.91"
   ry="31.690001"
   id="ellipse12969" />
	<line
   class="st6"
   x1="172.98"
   y1="173.10001"
   x2="226.71001"
   y2="173.10001"
   id="line12971" />
	<line
   class="st7"
   x1="173.52"
   y1="226.99001"
   x2="226.45"
   y2="226.99001"
   id="line12973" />
	<path
   class="st8"
   d="m 154.22,233.18 -0.19,0.24 -1.81,-1.38 0.19,-0.24 0.12,0.09 c 0.1,0.08 0.22,0.09 0.35,0.05 0.09,-0.03 0.21,-0.1 0.35,-0.23 0.1,-0.09 0.32,-0.35 0.67,-0.8 l 4.53,-5.79 c 0.35,-0.45 0.56,-0.74 0.63,-0.87 0.07,-0.13 0.11,-0.25 0.12,-0.38 0.01,-0.13 -0.04,-0.23 -0.13,-0.3 l -0.12,-0.09 0.19,-0.24 1.81,1.38 -0.19,0.24 -0.12,-0.09 c -0.1,-0.08 -0.22,-0.09 -0.35,-0.05 -0.09,0.03 -0.21,0.1 -0.35,0.23 -0.1,0.09 -0.32,0.36 -0.67,0.8 l -4.53,5.79 c -0.35,0.45 -0.56,0.74 -0.63,0.87 -0.07,0.13 -0.11,0.26 -0.12,0.38 -0.01,0.13 0.03,0.23 0.13,0.3 l 0.12,0.09"
   id="path12975"
   style="stroke-width:0.690553" />
	<path
   class="st8"
   d="m 165.42,227.6 -0.19,0.28 c -0.18,-0.03 -0.43,0.09 -0.76,0.35 -0.25,0.2 -0.74,0.73 -1.53,1.55 l -5.65,5.85 -0.09,-0.06 3.27,-7.89 c 0.46,-1.11 0.78,-1.73 0.84,-1.94 0.06,-0.21 0.03,-0.38 -0.08,-0.52 l 0.19,-0.28 1.8,1.2 -0.19,0.28 -0.06,-0.04 c -0.16,-0.11 -0.31,-0.13 -0.44,-0.06 -0.09,0.05 -0.19,0.14 -0.29,0.29 -0.06,0.09 -0.12,0.2 -0.19,0.34 -0.07,0.13 -0.24,0.5 -0.51,1.09 l -2.6,5.64 3.77,-4.05 c 0.46,-0.49 0.76,-0.82 0.9,-1 0.14,-0.17 0.26,-0.33 0.35,-0.46 0.1,-0.15 0.18,-0.29 0.22,-0.43 0.05,-0.14 0.06,-0.25 0.05,-0.35 -0.02,-0.14 -0.1,-0.25 -0.23,-0.34 l 0.19,-0.28 1.23,0.83"
   id="path12977"
   style="stroke-width:0.690553" />
	<path
   class="st8"
   d="m 167.45,229.16 -2.26,3.67 0.08,0.04 c 0.22,0.13 0.8,0.75 1.35,0.26 0.34,-0.31 0.19,-0.25 0.65,-0.86 l 0.29,0.08 -2.03,3.39 -0.3,-0.12 c 0.33,-0.49 0.29,-0.34 0.43,-0.73 0.13,-0.39 0.16,-0.48 0.13,-0.66 -0.03,-0.17 -0.76,-0.6 -0.94,-0.71 l -1.6,2.66 c -0.31,0.52 -0.49,0.84 -0.55,0.97 -0.05,0.13 -0.08,0.24 -0.07,0.34 0,0.1 0.06,0.19 0.17,0.25 l 0.23,0.13 c 0.36,0.21 0.77,0.17 1.23,-0.11 0.46,-0.28 0.59,-0.29 1.19,-1.08 l 0.28,0.29 -1.75,2.16 -3.33,-1.95 0.15,-0.26 0.13,0.07 c 0.11,0.07 0.23,0.07 0.36,0.01 0.09,-0.04 0.19,-0.13 0.31,-0.27 0.09,-0.1 0.27,-0.38 0.56,-0.86 l 3.73,-6.22 c 0.26,-0.43 0.41,-0.69 0.46,-0.8 0.08,-0.17 0.12,-0.32 0.12,-0.44 0.01,-0.17 -0.05,-0.29 -0.18,-0.37 l -0.13,-0.07 0.16,-0.26 3.22,1.88 -1.16,2.31 -0.31,-0.15 c 0.35,-0.72 0.26,-0.67 0.33,-1.03 0.08,-0.36 0.07,-0.66 -0.03,-0.9 -0.05,-0.15 -0.23,-0.3 -0.52,-0.47 l -0.4,-0.19"
   id="path12979"
   style="stroke-width:0.690553" />
	<path
   class="st8"
   d="m 171.14,231.1 -2.25,4.28 0.16,0.07 c 0.26,0.11 0.49,0.14 0.69,0.08 0.2,-0.07 0.42,-0.24 0.66,-0.53 0.24,-0.29 0.5,-0.69 0.77,-1.2 0.39,-0.75 0.61,-1.32 0.66,-1.74 0.05,-0.42 -0.08,-0.69 -0.38,-0.82 l -0.31,-0.14 m -2.52,4.79 -1.44,2.74 c -0.28,0.53 -0.44,0.87 -0.49,1.01 -0.05,0.15 -0.06,0.28 -0.04,0.39 0.02,0.11 0.12,0.2 0.3,0.28 l -0.14,0.27 -1.98,-0.86 0.14,-0.27 c 0.18,0.08 0.32,0.09 0.43,0.03 0.11,-0.06 0.21,-0.14 0.31,-0.27 0.1,-0.12 0.28,-0.45 0.56,-0.98 l 3.34,-6.34 c 0.28,-0.53 0.44,-0.87 0.49,-1.01 0.05,-0.15 0.06,-0.28 0.04,-0.39 -0.02,-0.11 -0.12,-0.2 -0.3,-0.28 l 0.14,-0.27 1.8,0.78 c 0.47,0.2 0.77,0.44 0.9,0.69 0.13,0.26 0.15,0.64 0.05,1.14 -0.09,0.5 -0.3,1.04 -0.61,1.63 -0.38,0.72 -0.8,1.27 -1.25,1.65 -0.29,0.24 -0.59,0.38 -0.9,0.43 l -0.81,3.71 c -0.1,0.48 -0.16,0.78 -0.16,0.91 0,0.18 0.05,0.3 0.14,0.36 l -0.14,0.27 -1.22,-0.53 1.1,-5 z"
   id="path12981"
   style="stroke-width:0.690553" />
	<path
   class="st8"
   d="m 176.56,232.46 -1.21,3.46 -0.13,-0.04 c 0.25,-0.88 0.35,-1.63 0.3,-2.23 -0.05,-0.6 -0.22,-0.95 -0.5,-1.03 -0.22,-0.07 -0.44,0.02 -0.67,0.26 -0.23,0.24 -0.41,0.54 -0.54,0.9 -0.08,0.23 -0.13,0.44 -0.15,0.63 -0.03,0.26 -0.01,0.53 0.04,0.8 0.04,0.2 0.16,0.57 0.37,1.11 0.29,0.75 0.43,1.42 0.42,2.01 -0.01,0.58 -0.15,1.21 -0.39,1.9 -0.31,0.86 -0.72,1.57 -1.23,2.1 -0.51,0.53 -0.98,0.74 -1.42,0.6 -0.14,-0.04 -0.25,-0.12 -0.35,-0.22 -0.1,-0.11 -0.21,-0.28 -0.32,-0.52 -0.07,-0.13 -0.13,-0.21 -0.2,-0.23 -0.06,-0.02 -0.13,0.01 -0.23,0.1 -0.1,0.08 -0.21,0.22 -0.32,0.42 l -0.12,-0.04 1.41,-3.91 0.12,0.04 c -0.3,1.13 -0.42,2.02 -0.36,2.68 0.06,0.66 0.24,1.04 0.55,1.14 0.24,0.07 0.49,-0.02 0.74,-0.29 0.25,-0.27 0.46,-0.61 0.6,-1.02 0.09,-0.24 0.15,-0.49 0.17,-0.74 0.03,-0.24 0.02,-0.49 -0.01,-0.73 -0.04,-0.24 -0.14,-0.57 -0.3,-0.99 -0.23,-0.59 -0.37,-1.07 -0.43,-1.45 -0.06,-0.38 -0.06,-0.79 -0.01,-1.21 0.05,-0.43 0.16,-0.89 0.34,-1.37 0.3,-0.82 0.68,-1.49 1.14,-1.99 0.46,-0.5 0.89,-0.69 1.27,-0.57 0.14,0.04 0.26,0.12 0.37,0.25 0.08,0.09 0.16,0.24 0.24,0.45 0.09,0.21 0.16,0.32 0.21,0.34 0.06,0.02 0.11,-0.01 0.18,-0.08 0.06,-0.07 0.16,-0.26 0.3,-0.56 l 0.12,0.03"
   id="path12983"
   style="stroke-width:0.690553" />
	<path
   class="st8"
   d="m 183.65,234.62 -0.86,2.83 -0.12,-0.03 c 0.13,-0.67 0.19,-1.16 0.2,-1.46 0,-0.31 -0.04,-0.56 -0.14,-0.77 -0.05,-0.12 -0.18,-0.2 -0.39,-0.25 l -0.33,-0.08 -2.45,8.05 c -0.16,0.53 -0.25,0.87 -0.27,1.01 -0.02,0.14 0,0.27 0.04,0.39 0.04,0.12 0.13,0.2 0.25,0.23 l 0.15,0.04 -0.09,0.28 -2.3,-0.59 0.09,-0.28 0.15,0.04 c 0.13,0.03 0.25,0 0.36,-0.08 0.08,-0.06 0.16,-0.17 0.25,-0.34 0.06,-0.11 0.17,-0.43 0.33,-0.96 l 2.45,-8.05 -0.32,-0.08 c -0.3,-0.08 -0.56,0.01 -0.78,0.28 -0.31,0.37 -0.61,0.93 -0.9,1.69 l -0.12,-0.03 0.86,-2.83 3.94,0.99"
   id="path12985"
   style="stroke-width:0.690553" />
	<path
   class="st8"
   d="m 188.87,235.59 -0.05,0.3 c -0.16,0.02 -0.3,0.11 -0.41,0.26 -0.15,0.21 -0.44,0.79 -0.86,1.75 l -1.69,3.78 -0.46,2.62 c -0.1,0.56 -0.15,0.91 -0.15,1.05 0,0.14 0.03,0.26 0.09,0.38 0.06,0.12 0.15,0.18 0.27,0.2 l 0.26,0.04 -0.05,0.29 -2.61,-0.38 0.05,-0.29 0.24,0.04 c 0.14,0.02 0.26,-0.02 0.35,-0.12 0.07,-0.07 0.14,-0.19 0.21,-0.36 0.05,-0.12 0.12,-0.46 0.22,-1 l 0.38,-2.18 -0.28,-4.8 c -0.06,-0.95 -0.11,-1.51 -0.18,-1.68 -0.06,-0.18 -0.16,-0.28 -0.31,-0.3 l 0.05,-0.3 2.23,0.32 -0.05,0.3 -0.1,-0.01 c -0.13,-0.02 -0.24,0.01 -0.31,0.1 -0.07,0.08 -0.11,0.17 -0.13,0.28 -0.03,0.19 -0.03,0.69 0.02,1.49 l 0.21,3.71 1.41,-3.15 c 0.35,-0.77 0.54,-1.28 0.59,-1.55 0.02,-0.14 0.02,-0.27 -0.03,-0.37 -0.05,-0.14 -0.18,-0.24 -0.39,-0.3 l 0.05,-0.3 1.43,0.18"
   id="path12987"
   style="stroke-width:0.690553" />
	<path
   class="st8"
   d="m 193.79,236.84 c -0.42,-0.04 -0.8,0.43 -1.14,1.4 -0.28,0.8 -0.51,1.98 -0.69,3.51 -0.22,1.83 -0.25,3.2 -0.08,4.1 0.12,0.63 0.35,0.97 0.69,1 0.23,0.02 0.44,-0.09 0.63,-0.33 0.24,-0.32 0.46,-0.84 0.66,-1.57 0.2,-0.73 0.37,-1.69 0.52,-2.88 0.17,-1.42 0.24,-2.49 0.22,-3.2 -0.03,-0.72 -0.11,-1.23 -0.25,-1.54 -0.15,-0.3 -0.34,-0.46 -0.56,-0.49 m 0.02,-0.5 c 0.74,0.01 1.27,0.57 1.59,1.68 0.33,1.11 0.39,2.46 0.2,4.05 -0.16,1.36 -0.48,2.54 -0.94,3.54 -0.62,1.32 -1.33,1.94 -2.15,1.86 -0.82,-0.09 -1.38,-0.8 -1.67,-2.16 -0.23,-1.07 -0.26,-2.31 -0.09,-3.73 0.19,-1.59 0.59,-2.9 1.17,-3.91 0.59,-1.03 1.22,-1.47 1.89,-1.33 z"
   id="path12989"
   style="stroke-width:0.690553" />
	<path
   class="st8"
   d="m 197.4,237.36 -0.07,4.45 h 0.13 c 0.2,0 0.36,-0.07 0.49,-0.21 0.13,-0.14 0.24,-0.38 0.33,-0.72 0.09,-0.34 0.16,-0.8 0.19,-1.38 h 0.12 l -0.09,5.44 h -0.12 c -0.02,-1.03 -0.13,-1.71 -0.31,-2.04 -0.18,-0.33 -0.39,-0.5 -0.63,-0.5 h -0.13 l -0.05,3.31 c -0.01,0.55 0,0.9 0.02,1.04 0.02,0.14 0.07,0.26 0.14,0.36 0.07,0.11 0.17,0.16 0.3,0.16 h 0.15 v 0.29 l -2.35,-0.03 v -0.29 h 0.15 c 0.13,0 0.24,-0.05 0.32,-0.16 0.06,-0.07 0.11,-0.2 0.14,-0.38 0.03,-0.12 0.04,-0.46 0.05,-1.01 l 0.12,-7.12 c 0.01,-0.55 0,-0.9 -0.02,-1.04 -0.02,-0.14 -0.07,-0.26 -0.14,-0.36 -0.07,-0.1 -0.17,-0.16 -0.3,-0.16 h -0.15 v -0.3 l 3.79,0.06 -0.05,3.11 h -0.14 c -0.02,-0.73 -0.09,-1.27 -0.21,-1.63 -0.12,-0.35 -0.3,-0.6 -0.54,-0.75 -0.13,-0.08 -0.38,-0.13 -0.73,-0.13 l -0.41,-0.01"
   id="path12991"
   style="stroke-width:0.690553" />
	<path
   class="st8"
   d="m 209.39,236 0.72,3.76 -0.13,0.02 c -0.29,-0.96 -0.61,-1.68 -0.99,-2.15 -0.37,-0.47 -0.72,-0.68 -1.07,-0.61 -0.28,0.05 -0.51,0.29 -0.67,0.73 -0.16,0.43 -0.24,0.97 -0.23,1.63 0.01,0.83 0.11,1.74 0.3,2.73 0.19,0.97 0.41,1.84 0.66,2.62 0.26,0.78 0.53,1.35 0.83,1.72 0.3,0.37 0.62,0.52 0.97,0.45 0.29,-0.05 0.52,-0.25 0.7,-0.59 0.18,-0.34 0.33,-0.9 0.46,-1.68 l 0.18,0.94 c -0.13,0.68 -0.31,1.19 -0.53,1.53 -0.22,0.34 -0.52,0.54 -0.89,0.61 -0.49,0.09 -0.96,-0.06 -1.43,-0.46 -0.47,-0.39 -0.89,-1.01 -1.26,-1.84 -0.37,-0.83 -0.65,-1.74 -0.84,-2.72 -0.2,-1.03 -0.27,-2.04 -0.22,-3.01 0.05,-0.97 0.22,-1.75 0.51,-2.33 0.29,-0.58 0.65,-0.91 1.09,-0.99 0.32,-0.06 0.69,0.04 1.11,0.31 0.24,0.15 0.39,0.23 0.45,0.22 0.07,-0.01 0.12,-0.09 0.15,-0.22 0.03,-0.14 0.02,-0.34 -0.01,-0.61 l 0.14,-0.06"
   id="path12993"
   style="stroke-width:0.690553" />
	<path
   class="st8"
   d="m 214.23,245.97 0.06,0.29 -2.24,0.46 -0.06,-0.29 0.14,-0.03 c 0.12,-0.03 0.21,-0.1 0.27,-0.23 0.04,-0.08 0.06,-0.22 0.05,-0.4 0,-0.13 -0.05,-0.46 -0.16,-0.99 l -1.36,-6.99 c -0.11,-0.54 -0.18,-0.88 -0.23,-1.01 -0.05,-0.13 -0.12,-0.24 -0.21,-0.33 -0.09,-0.09 -0.2,-0.12 -0.32,-0.09 l -0.14,0.03 -0.06,-0.29 2.24,-0.46 0.06,0.29 -0.14,0.03 c -0.12,0.03 -0.21,0.1 -0.27,0.22 -0.04,0.09 -0.06,0.22 -0.06,0.4 0,0.13 0.05,0.46 0.16,0.99 l 1.36,6.99 c 0.11,0.54 0.18,0.88 0.23,1.01 0.05,0.13 0.12,0.24 0.21,0.33 0.09,0.09 0.2,0.12 0.32,0.1 l 0.15,-0.03"
   id="path12995"
   style="stroke-width:0.690553" />
	<path
   class="st8"
   d="m 242.25,222.83 4.89,7.03 c 0.26,0.37 0.42,0.59 0.5,0.67 0.08,0.07 0.15,0.12 0.22,0.14 0.1,0.03 0.2,0.01 0.31,-0.07 0.34,-0.24 0.42,-0.67 0.25,-1.3 -0.23,-0.85 -0.85,-1.99 -1.84,-3.43 -0.8,-1.16 -1.53,-2.02 -2.18,-2.6 -0.51,-0.45 -0.93,-0.7 -1.27,-0.75 -0.26,-0.03 -0.55,0.07 -0.88,0.31 m 4.34,9.59 -0.17,-0.24 0.14,-0.1 c 0.12,-0.08 0.18,-0.19 0.19,-0.32 0.01,-0.13 -0.02,-0.27 -0.09,-0.43 -0.05,-0.11 -0.23,-0.39 -0.55,-0.86 l -4.12,-5.92 c -0.32,-0.46 -0.53,-0.74 -0.64,-0.84 -0.1,-0.1 -0.22,-0.17 -0.34,-0.21 -0.13,-0.04 -0.25,-0.02 -0.37,0.06 l -0.14,0.1 -0.17,-0.25 1.85,-1.29 c 0.49,-0.34 0.99,-0.47 1.5,-0.39 0.62,0.1 1.27,0.45 1.97,1.04 0.7,0.6 1.36,1.35 2,2.27 0.44,0.63 0.8,1.25 1.08,1.85 0.28,0.6 0.46,1.12 0.56,1.57 0.09,0.45 0.12,0.85 0.07,1.2 -0.05,0.34 -0.17,0.67 -0.37,0.98 -0.09,0.14 -0.26,0.3 -0.53,0.49 z"
   id="path12997"
   style="stroke-width:0.690553" />
	<path
   class="st8"
   d="m 258.25,188.19 3.68,-0.96 0.89,3.82 -0.28,0.09 -0.03,-0.14 c -0.03,-0.12 -0.11,-0.21 -0.23,-0.25 -0.08,-0.03 -0.22,-0.04 -0.4,-0.01 -0.13,0.01 -0.45,0.1 -0.97,0.26 l -6.83,2.1 c -0.53,0.16 -0.86,0.28 -0.99,0.34 -0.13,0.06 -0.23,0.15 -0.31,0.25 -0.08,0.1 -0.11,0.21 -0.08,0.33 l 0.03,0.14 -0.28,0.09 -0.54,-2.3 0.28,-0.09 0.04,0.19 c 0.03,0.13 0.1,0.21 0.23,0.25 0.09,0.03 0.22,0.04 0.4,0.02 0.13,-0.01 0.45,-0.1 0.97,-0.26 l 6.61,-2.03 c 0.53,-0.16 0.87,-0.28 1,-0.35 0.14,-0.07 0.24,-0.15 0.29,-0.25 0.03,-0.07 0.03,-0.2 -0.02,-0.4 l -0.08,-0.36 c -0.05,-0.23 -0.19,-0.39 -0.42,-0.48 -0.23,-0.09 -0.57,-0.13 -1.01,-0.11 -0.44,0.02 -1.09,0.1 -1.93,0.25 l -0.02,-0.14"
   id="path12999"
   style="stroke-width:0.690553" />
	<path
   class="st8"
   d="m 149.23,178.12 -2.79,-1.9 c -0.46,-0.31 -0.76,-0.5 -0.89,-0.55 -0.13,-0.05 -0.26,-0.08 -0.4,-0.07 -0.14,0.01 -0.24,0.07 -0.32,0.19 l -0.1,0.14 -0.24,-0.17 1.51,-2.21 0.24,0.17 -0.1,0.14 c -0.08,0.12 -0.1,0.25 -0.06,0.39 0.02,0.1 0.1,0.21 0.23,0.34 0.09,0.09 0.36,0.3 0.81,0.61 l 5.92,4.04 c 0.46,0.31 0.76,0.5 0.89,0.55 0.13,0.06 0.26,0.08 0.4,0.07 0.13,-0.01 0.24,-0.08 0.32,-0.19 l 0.1,-0.14 0.25,0.17 -1.51,2.21 -0.25,-0.17 0.1,-0.14 c 0.08,-0.12 0.11,-0.25 0.06,-0.39 -0.03,-0.1 -0.1,-0.21 -0.23,-0.35 -0.09,-0.1 -0.36,-0.3 -0.81,-0.6 l -2.55,-1.74 -1.02,1.49 2.55,1.74 c 0.46,0.31 0.76,0.5 0.89,0.56 0.13,0.06 0.26,0.08 0.4,0.07 0.13,-0.01 0.24,-0.08 0.32,-0.2 l 0.09,-0.14 0.25,0.17 -1.51,2.21 -0.25,-0.17 0.09,-0.14 c 0.09,-0.12 0.11,-0.25 0.06,-0.39 -0.03,-0.1 -0.1,-0.21 -0.23,-0.35 -0.09,-0.09 -0.36,-0.3 -0.81,-0.6 l -5.92,-4.04 c -0.46,-0.31 -0.76,-0.5 -0.89,-0.56 -0.13,-0.06 -0.26,-0.08 -0.4,-0.07 -0.14,0.01 -0.24,0.08 -0.33,0.19 l -0.09,0.14 -0.24,-0.17 1.51,-2.21 0.24,0.17 -0.09,0.14 c -0.09,0.12 -0.11,0.26 -0.06,0.39 0.02,0.1 0.1,0.21 0.23,0.35 0.09,0.09 0.36,0.3 0.81,0.6 l 2.79,1.9 1.03,-1.48"
   id="path13001"
   style="stroke-width:0.690553" />
	<path
   class="st8"
   d="m 151.61,184.52 -1.48,2.22 -0.25,-0.17 0.07,-0.11 c 0.11,-0.17 0.15,-0.31 0.12,-0.42 -0.03,-0.11 -0.11,-0.23 -0.22,-0.34 -0.11,-0.11 -0.44,-0.35 -0.96,-0.7 l -4.51,-3.01 c -0.83,-0.55 -1.39,-0.88 -1.7,-1.01 -0.31,-0.12 -0.59,-0.17 -0.86,-0.16 -0.27,0.02 -0.46,0.12 -0.6,0.33 -0.16,0.23 -0.18,0.5 -0.06,0.82 0.12,0.31 0.34,0.64 0.68,0.99 0.34,0.34 1,0.84 1.98,1.49 l 3.76,2.5 c 0.41,0.28 0.72,0.45 0.92,0.53 0.2,0.08 0.36,0.11 0.47,0.09 0.17,-0.03 0.31,-0.13 0.42,-0.3 l 0.25,0.17 -0.99,1.49 -0.25,-0.17 0.06,-0.09 c 0.08,-0.12 0.1,-0.25 0.05,-0.4 -0.05,-0.15 -0.17,-0.31 -0.35,-0.49 -0.13,-0.12 -0.38,-0.31 -0.75,-0.56 l -3.5,-2.33 c -1.08,-0.72 -1.84,-1.28 -2.28,-1.66 -0.44,-0.39 -0.77,-0.84 -1,-1.37 -0.23,-0.53 -0.2,-1.01 0.1,-1.46 0.25,-0.37 0.55,-0.59 0.89,-0.65 0.47,-0.08 0.98,-0.03 1.5,0.16 0.53,0.19 1.18,0.54 1.94,1.05 l 4.51,3.01 c 0.53,0.35 0.87,0.56 1.02,0.62 0.15,0.06 0.28,0.08 0.4,0.06 0.12,-0.01 0.24,-0.12 0.36,-0.3 l 0.26,0.17"
   id="path13003"
   style="stroke-width:0.690553" />
	<path
   class="st8"
   d="m 142.3,187.64 3.34,0.67 -2.71,-1.84 -0.63,1.17 m -0.69,-0.15 0.74,-1.59 -1.31,-0.97 c -0.3,-0.22 -0.37,-0.38 -0.58,-0.48 -0.28,-0.14 -0.51,-0.18 -0.69,-0.14 -0.1,0.02 -0.22,0.14 -0.36,0.35 l -0.27,-0.13 0.61,-1.49 0.27,0.13 c -0.01,0.19 0.09,0.39 0.29,0.61 0.2,0.22 0.46,0.59 1.17,1.11 l 7.3,5.32 -0.12,0.23 -8.75,-2.36 c -0.85,-0.23 -1.39,-0.33 -1.64,-0.32 -0.19,0 -0.49,0.07 -0.57,0.19 l -0.27,-0.13 1.06,-2.17 0.27,0.13 -0.04,0.09 c -0.07,0.17 -0.07,0.32 0.01,0.45 0.06,0.09 0.16,0.17 0.31,0.24 0.09,0.04 0.18,0.08 0.28,0.11 0.05,0.02 0.26,0.03 0.6,0.17 z"
   id="path13005"
   style="stroke-width:0.690553" />
	<path
   class="st8"
   d="m 147.38,194.75 -9.71,-4.48 -0.16,0.86 c -0.07,0.41 -0.07,0.7 0.03,0.89 0.14,0.3 0.45,0.59 0.93,0.87 0.48,0.28 1.14,0.54 1.99,0.77 l -0.02,0.13 -3.87,-0.88 0.75,-4.14 9.73,4.49 0.12,-0.67 c 0.05,-0.26 0.06,-0.43 0.04,-0.52 -0.04,-0.17 -0.15,-0.34 -0.33,-0.51 -0.18,-0.17 -0.43,-0.33 -0.75,-0.49 -0.32,-0.15 -0.74,-0.3 -1.25,-0.44 l 0.02,-0.12 3.14,0.69 -0.66,3.55"
   id="path13007"
   style="stroke-width:0.690553" />
	<path
   class="st8"
   d="m 141.2,196.32 -3.38,-0.4 c -0.56,-0.07 -0.91,-0.1 -1.05,-0.09 -0.14,0.01 -0.27,0.05 -0.38,0.12 -0.12,0.07 -0.18,0.17 -0.19,0.3 l -0.02,0.16 -0.3,-0.04 0.27,-2.51 0.3,0.04 -0.02,0.16 c -0.01,0.14 0.03,0.26 0.13,0.36 0.07,0.07 0.19,0.13 0.37,0.19 0.12,0.04 0.46,0.1 1.01,0.16 l 7.18,0.86 c 0.56,0.07 0.91,0.1 1.05,0.09 0.14,-0.01 0.27,-0.05 0.38,-0.11 0.11,-0.07 0.18,-0.17 0.19,-0.3 l 0.02,-0.16 0.3,0.04 -0.27,2.51 -0.3,-0.04 0.02,-0.16 c 0.01,-0.14 -0.03,-0.26 -0.13,-0.36 -0.07,-0.07 -0.19,-0.13 -0.37,-0.19 -0.13,-0.04 -0.46,-0.09 -1.01,-0.16 l -3.09,-0.37 -0.18,1.7 3.09,0.37 c 0.56,0.07 0.91,0.1 1.05,0.09 0.14,-0.01 0.27,-0.05 0.38,-0.12 0.11,-0.07 0.18,-0.17 0.19,-0.3 l 0.02,-0.16 0.3,0.04 -0.27,2.51 -0.3,-0.04 0.02,-0.16 c 0.02,-0.14 -0.03,-0.26 -0.13,-0.36 -0.07,-0.07 -0.19,-0.13 -0.37,-0.19 -0.13,-0.04 -0.46,-0.09 -1.01,-0.16 l -7.18,-0.86 c -0.56,-0.07 -0.91,-0.1 -1.05,-0.09 -0.14,0.01 -0.27,0.05 -0.38,0.12 -0.12,0.07 -0.18,0.17 -0.19,0.3 l -0.02,0.16 -0.3,-0.04 0.27,-2.51 0.3,0.04 -0.02,0.16 c -0.02,0.14 0.03,0.26 0.13,0.36 0.07,0.07 0.19,0.13 0.37,0.19 0.12,0.04 0.46,0.09 1.01,0.16 l 3.38,0.4 0.18,-1.71"
   id="path13009"
   style="stroke-width:0.690553" />
	<path
   class="st8"
   d="m 146.32,202.55 c -0.04,-0.42 -0.58,-0.7 -1.64,-0.86 -0.86,-0.13 -2.09,-0.15 -3.68,-0.06 -1.89,0.1 -3.27,0.32 -4.15,0.64 -0.61,0.22 -0.91,0.51 -0.87,0.85 0.02,0.23 0.17,0.41 0.46,0.55 0.37,0.18 0.94,0.3 1.71,0.37 0.77,0.07 1.77,0.07 3,0 1.46,-0.08 2.55,-0.2 3.27,-0.35 0.72,-0.15 1.22,-0.32 1.5,-0.51 0.28,-0.2 0.42,-0.41 0.4,-0.63 m 0.51,-0.07 c 0.13,0.72 -0.33,1.33 -1.38,1.85 -1.05,0.51 -2.4,0.81 -4.04,0.9 -1.4,0.08 -2.65,-0.02 -3.75,-0.3 -1.45,-0.37 -2.22,-0.96 -2.29,-1.77 -0.07,-0.82 0.54,-1.48 1.85,-2.01 1.03,-0.41 2.28,-0.66 3.74,-0.74 1.64,-0.09 3.03,0.06 4.17,0.46 1.14,0.4 1.71,0.94 1.7,1.61 z"
   id="path13011"
   style="stroke-width:0.690553" />
	<path
   class="st8"
   d="m 147.21,205.84 -6.05,3.9 4.57,-1.02 c 0.64,-0.14 1.06,-0.28 1.26,-0.42 0.28,-0.18 0.38,-0.41 0.31,-0.68 l 0.29,-0.07 0.36,1.63 -0.29,0.07 c -0.1,-0.2 -0.21,-0.32 -0.31,-0.37 -0.11,-0.05 -0.27,-0.07 -0.48,-0.07 -0.21,0.01 -0.57,0.07 -1.07,0.18 l -8.84,1.98 -0.03,-0.12 8.11,-5.31 -6.75,1.51 c -0.61,0.14 -1.01,0.29 -1.19,0.47 -0.19,0.18 -0.26,0.35 -0.22,0.52 l 0.03,0.12 -0.29,0.06 -0.39,-1.75 0.29,-0.06 c 0.07,0.27 0.23,0.43 0.49,0.49 0.26,0.05 0.67,0.02 1.23,-0.11 l 7.5,-1.67 0.26,-0.17 c 0.26,-0.17 0.42,-0.3 0.49,-0.4 0.07,-0.1 0.09,-0.23 0.07,-0.38 l 0.29,-0.07 0.36,1.74"
   id="path13013"
   style="stroke-width:0.690553" />
	<path
   class="st8"
   d="m 149.48,212.26 -3.52,1.58 -0.04,-0.11 c 0.91,-0.57 1.56,-1.11 1.96,-1.61 0.39,-0.5 0.53,-0.91 0.4,-1.24 -0.12,-0.31 -0.43,-0.48 -0.93,-0.5 -0.5,-0.02 -1.14,0.1 -1.93,0.35 -0.79,0.25 -1.58,0.56 -2.37,0.91 -0.96,0.43 -1.78,0.86 -2.47,1.28 -0.69,0.42 -1.16,0.81 -1.42,1.17 -0.26,0.36 -0.33,0.69 -0.22,0.98 0.04,0.1 0.1,0.19 0.2,0.27 0.09,0.08 0.21,0.16 0.35,0.23 l 3.47,-1.34 c 0.4,-0.15 0.64,-0.3 0.75,-0.38 0.11,-0.07 0.19,-0.17 0.26,-0.28 0.07,-0.11 0.08,-0.22 0.04,-0.32 l -0.04,-0.11 0.27,-0.12 0.7,1.85 -0.27,0.12 c -0.08,-0.14 -0.18,-0.23 -0.28,-0.25 -0.1,-0.03 -0.25,-0.01 -0.43,0.03 -0.1,0.02 -0.33,0.12 -0.7,0.28 l -3.38,1.52 c -0.39,-0.14 -0.71,-0.32 -0.97,-0.54 -0.26,-0.22 -0.45,-0.49 -0.57,-0.8 -0.15,-0.4 -0.15,-0.78 0.01,-1.16 0.16,-0.38 0.41,-0.76 0.75,-1.15 0.34,-0.39 0.76,-0.76 1.24,-1.11 0.62,-0.45 1.36,-0.86 2.2,-1.24 1.5,-0.68 2.86,-1.03 4.07,-1.05 1.21,-0.02 1.94,0.3 2.2,0.97 0.08,0.21 0.11,0.41 0.1,0.61 -0.01,0.11 -0.06,0.31 -0.17,0.59 -0.11,0.28 -0.15,0.45 -0.14,0.48 0.02,0.06 0.09,0.09 0.21,0.09 0.12,0 0.33,-0.04 0.62,-0.12 l 0.05,0.12"
   id="path13015"
   style="stroke-width:0.690553" />
	<path
   class="st8"
   d="m 151.3,214.76 1.59,2.14 -0.24,0.18 -0.08,-0.11 c -0.12,-0.16 -0.24,-0.24 -0.35,-0.25 -0.12,-0.01 -0.25,0.02 -0.39,0.09 -0.15,0.07 -0.47,0.29 -0.98,0.67 l -4.35,3.24 c -0.8,0.59 -1.3,1.01 -1.52,1.26 -0.22,0.25 -0.36,0.5 -0.44,0.75 -0.07,0.25 -0.04,0.48 0.11,0.68 0.17,0.22 0.42,0.33 0.75,0.33 0.33,0 0.72,-0.11 1.16,-0.31 0.44,-0.21 1.13,-0.66 2.07,-1.36 l 3.62,-2.7 c 0.4,-0.3 0.67,-0.53 0.81,-0.69 0.14,-0.17 0.22,-0.3 0.24,-0.41 0.03,-0.17 -0.01,-0.33 -0.14,-0.5 l 0.24,-0.18 1.07,1.43 -0.24,0.18 -0.06,-0.09 c -0.09,-0.12 -0.21,-0.18 -0.37,-0.18 -0.16,0 -0.35,0.05 -0.58,0.17 -0.16,0.08 -0.42,0.25 -0.78,0.52 l -3.37,2.51 c -1.04,0.78 -1.82,1.31 -2.33,1.59 -0.51,0.28 -1.05,0.44 -1.63,0.48 -0.57,0.04 -1.02,-0.15 -1.34,-0.58 -0.27,-0.36 -0.37,-0.71 -0.31,-1.06 0.08,-0.47 0.3,-0.93 0.65,-1.36 0.36,-0.44 0.9,-0.93 1.64,-1.48 l 4.35,-3.24 c 0.51,-0.38 0.82,-0.63 0.92,-0.75 0.11,-0.12 0.17,-0.24 0.19,-0.36 0.03,-0.12 -0.03,-0.27 -0.16,-0.44 l 0.25,-0.17"
   id="path13017"
   style="stroke-width:0.690553" />
	<path
   class="st8"
   d="m 156.33,220.48 -3.29,6.4 3.45,-3.17 c 0.48,-0.44 0.78,-0.77 0.89,-0.99 0.15,-0.3 0.12,-0.55 -0.07,-0.75 l 0.22,-0.2 1.13,1.23 -0.22,0.2 c -0.19,-0.12 -0.34,-0.17 -0.46,-0.16 -0.12,0.01 -0.27,0.07 -0.45,0.18 -0.18,0.11 -0.46,0.34 -0.84,0.69 l -6.67,6.13 -0.09,-0.09 4.36,-8.65 -5.09,4.68 c -0.46,0.42 -0.73,0.76 -0.8,1 -0.07,0.25 -0.05,0.43 0.06,0.56 l 0.08,0.09 -0.22,0.2 -1.21,-1.32 0.22,-0.2 c 0.19,0.2 0.41,0.26 0.66,0.18 0.25,-0.08 0.59,-0.32 1.01,-0.71 l 5.66,-5.2 0.14,-0.28 c 0.14,-0.27 0.22,-0.47 0.23,-0.59 0.01,-0.12 -0.03,-0.24 -0.13,-0.36 l 0.22,-0.2 1.21,1.33"
   id="path13019"
   style="stroke-width:0.690553" />
	<path
   class="st8"
   d="m 175.81,243.49 -0.09,0.28 -2.18,-0.66 0.09,-0.28 0.14,0.04 c 0.12,0.04 0.24,0.01 0.35,-0.07 0.08,-0.05 0.16,-0.16 0.24,-0.33 0.06,-0.11 0.18,-0.43 0.35,-0.95 l 2.27,-6.8 c 0.18,-0.53 0.27,-0.86 0.3,-1 0.02,-0.14 0.02,-0.27 -0.02,-0.39 -0.04,-0.12 -0.11,-0.2 -0.23,-0.23 l -0.14,-0.04 0.09,-0.28 2.18,0.66 -0.09,0.28 -0.14,-0.04 c -0.12,-0.04 -0.24,-0.01 -0.34,0.07 -0.08,0.06 -0.16,0.16 -0.25,0.33 -0.06,0.12 -0.18,0.43 -0.35,0.95 l -2.27,6.8 c -0.18,0.53 -0.27,0.86 -0.3,1 -0.02,0.14 -0.01,0.27 0.02,0.39 0.04,0.12 0.11,0.2 0.23,0.23 l 0.14,0.04"
   id="path13021"
   style="stroke-width:0.690553" />
	<path
   class="st8"
   d="m 204.47,236.32 0.7,3.61 -0.15,0.03 c -0.23,-0.89 -0.53,-1.59 -0.9,-2.09 -0.37,-0.5 -0.7,-0.72 -1.01,-0.65 -0.24,0.05 -0.4,0.23 -0.49,0.55 -0.09,0.32 -0.1,0.67 -0.03,1.05 0.04,0.24 0.11,0.45 0.19,0.63 0.11,0.24 0.27,0.46 0.46,0.68 0.14,0.16 0.45,0.42 0.93,0.78 0.67,0.51 1.16,1.03 1.45,1.54 0.29,0.52 0.51,1.13 0.64,1.85 0.16,0.91 0.15,1.72 -0.04,2.44 -0.19,0.72 -0.53,1.13 -1.01,1.22 -0.15,0.03 -0.3,0.02 -0.45,-0.02 -0.15,-0.04 -0.34,-0.14 -0.58,-0.29 -0.13,-0.08 -0.23,-0.12 -0.31,-0.1 -0.06,0.01 -0.12,0.08 -0.16,0.2 -0.05,0.12 -0.07,0.3 -0.08,0.52 l -0.13,0.03 -0.74,-4.1 0.13,-0.03 c 0.31,1.13 0.67,1.97 1.08,2.52 0.4,0.55 0.78,0.79 1.12,0.72 0.26,-0.05 0.44,-0.26 0.54,-0.62 0.1,-0.36 0.11,-0.75 0.03,-1.19 -0.05,-0.26 -0.12,-0.5 -0.23,-0.73 -0.1,-0.23 -0.23,-0.44 -0.4,-0.63 -0.16,-0.19 -0.43,-0.43 -0.8,-0.71 -0.52,-0.4 -0.91,-0.75 -1.16,-1.05 -0.25,-0.3 -0.47,-0.66 -0.65,-1.06 -0.18,-0.4 -0.31,-0.86 -0.41,-1.36 -0.16,-0.86 -0.15,-1.63 0.02,-2.3 0.17,-0.66 0.47,-1.04 0.89,-1.13 0.16,-0.03 0.31,-0.02 0.47,0.03 0.12,0.04 0.28,0.13 0.47,0.28 0.19,0.14 0.32,0.21 0.38,0.19 0.06,-0.01 0.1,-0.07 0.12,-0.16 0.02,-0.09 0.02,-0.3 -0.01,-0.64 l 0.12,-0.01"
   id="path13023"
   style="stroke-width:0.690553" />
	<path
   class="st8"
   d="m 214.64,235.66 0.85,4.23 0.09,-0.02 c 0.25,-0.06 1.1,0 1.16,-0.73 0.04,-0.46 -0.03,-0.31 -0.11,-1.07 l 0.26,-0.13 0.83,3.87 -0.3,0.12 c -0.09,-0.58 -0.02,-0.45 -0.18,-0.82 -0.17,-0.37 -0.21,-0.46 -0.35,-0.57 -0.14,-0.11 -0.97,0.07 -1.17,0.12 l 0.65,3.04 c 0.13,0.59 0.21,0.95 0.26,1.08 0.05,0.13 0.11,0.23 0.18,0.3 0.07,0.07 0.17,0.09 0.3,0.07 l 0.26,-0.06 c 0.41,-0.09 0.68,-0.4 0.83,-0.92 0.15,-0.52 0.23,-0.62 0.13,-1.6 l 0.4,0.02 0.19,2.77 -3.76,0.85 -0.06,-0.29 0.14,-0.03 c 0.13,-0.03 0.22,-0.11 0.27,-0.24 0.04,-0.09 0.06,-0.22 0.05,-0.41 0,-0.13 -0.06,-0.47 -0.18,-1.01 l -1.51,-7.09 c -0.1,-0.49 -0.17,-0.79 -0.21,-0.89 -0.06,-0.18 -0.13,-0.31 -0.21,-0.4 -0.11,-0.13 -0.24,-0.18 -0.38,-0.15 l -0.14,0.03 -0.06,-0.3 3.64,-0.82 0.73,2.48 -0.33,0.1 c -0.23,-0.77 -0.27,-0.67 -0.46,-0.98 -0.18,-0.31 -0.4,-0.53 -0.64,-0.64 -0.14,-0.07 -0.37,-0.07 -0.7,0.01 l -0.47,0.08"
   id="path13025"
   style="stroke-width:0.690553" />
	<path
   class="st8"
   d="m 218.66,234.19 4.44,5.78 -1.37,-4.49 c -0.19,-0.63 -0.36,-1.04 -0.51,-1.23 -0.21,-0.26 -0.45,-0.35 -0.73,-0.26 l -0.09,-0.29 1.65,-0.47 0.09,0.29 c -0.2,0.12 -0.31,0.23 -0.36,0.34 -0.05,0.11 -0.06,0.27 -0.04,0.49 0.02,0.21 0.11,0.57 0.26,1.06 l 2.65,8.69 -0.13,0.04 -6.03,-7.73 2.02,6.64 c 0.18,0.6 0.37,0.99 0.57,1.16 0.2,0.18 0.38,0.24 0.55,0.19 l 0.12,-0.03 0.09,0.28 -1.78,0.5 -0.09,-0.28 c 0.27,-0.08 0.43,-0.26 0.47,-0.52 0.04,-0.26 -0.03,-0.67 -0.2,-1.22 l -2.24,-7.37 -0.19,-0.25 c -0.19,-0.25 -0.34,-0.4 -0.45,-0.47 -0.11,-0.06 -0.24,-0.08 -0.39,-0.05 l -0.09,-0.29 1.78,-0.51"
   id="path13027"
   style="stroke-width:0.690553" />
	<path
   class="st8"
   d="m 225.92,231.8 1.18,3.64 -0.13,0.04 c -0.4,-0.92 -0.82,-1.59 -1.24,-2.02 -0.42,-0.42 -0.8,-0.58 -1.13,-0.48 -0.28,0.09 -0.47,0.36 -0.58,0.81 -0.11,0.45 -0.12,1 -0.03,1.64 0.12,0.82 0.33,1.71 0.64,2.67 0.3,0.94 0.63,1.78 0.98,2.52 0.35,0.74 0.7,1.28 1.04,1.6 0.34,0.33 0.68,0.44 1.02,0.33 0.28,-0.09 0.49,-0.31 0.62,-0.68 0.14,-0.36 0.22,-0.94 0.25,-1.73 l 0.29,0.91 c -0.05,0.69 -0.16,1.22 -0.34,1.58 -0.18,0.36 -0.45,0.6 -0.81,0.71 -0.47,0.15 -0.96,0.06 -1.48,-0.28 -0.51,-0.33 -1,-0.89 -1.48,-1.67 -0.47,-0.78 -0.86,-1.65 -1.17,-2.6 -0.32,-1 -0.52,-1.99 -0.59,-2.96 -0.07,-0.97 0,-1.76 0.22,-2.37 0.21,-0.62 0.53,-0.99 0.96,-1.12 0.31,-0.1 0.69,-0.04 1.14,0.17 0.26,0.12 0.42,0.18 0.47,0.16 0.07,-0.02 0.11,-0.1 0.12,-0.24 0.01,-0.14 -0.02,-0.34 -0.09,-0.61 l 0.14,-0.02"
   id="path13029"
   style="stroke-width:0.690553" />
	<path
   class="st8"
   d="m 228.11,231.72 1.57,4.02 0.08,-0.03 c 0.23,-0.1 1.09,-0.19 1.02,-0.92 -0.04,-0.46 -0.08,-0.3 -0.3,-1.03 l 0.24,-0.18 1.49,3.66 -0.28,0.17 c -0.19,-0.56 -0.1,-0.44 -0.32,-0.78 -0.23,-0.34 -0.29,-0.42 -0.44,-0.5 -0.15,-0.08 -0.94,0.24 -1.13,0.32 l 1.17,2.88 c 0.23,0.56 0.38,0.9 0.45,1.02 0.07,0.12 0.15,0.21 0.23,0.26 0.09,0.06 0.19,0.06 0.3,0.01 l 0.25,-0.1 c 0.38,-0.16 0.6,-0.51 0.65,-1.05 0.05,-0.54 0.12,-0.65 -0.15,-1.59 l 0.4,-0.05 0.67,2.69 -3.55,1.49 -0.11,-0.28 0.14,-0.06 c 0.12,-0.05 0.19,-0.14 0.22,-0.28 0.02,-0.09 0.02,-0.23 -0.03,-0.41 -0.03,-0.13 -0.14,-0.45 -0.35,-0.96 l -2.73,-6.72 c -0.19,-0.46 -0.31,-0.74 -0.36,-0.84 -0.09,-0.17 -0.18,-0.29 -0.28,-0.36 -0.13,-0.11 -0.27,-0.13 -0.4,-0.08 l -0.14,0.06 -0.11,-0.28 3.44,-1.44 1.15,2.31 -0.31,0.16 c -0.36,-0.71 -0.39,-0.61 -0.62,-0.89 -0.24,-0.28 -0.48,-0.45 -0.74,-0.52 -0.15,-0.05 -0.38,0 -0.69,0.13 l -0.43,0.17"
   id="path13031"
   style="stroke-width:0.690553" />
	<path
   class="st8"
   d="m 237.74,233.55 -2.35,-2.47 1.17,3.06 1.18,-0.59 m 0.49,0.52 -1.52,0.87 0.52,1.55 c 0.12,0.35 0.09,0.52 0.2,0.72 0.16,0.27 0.32,0.44 0.48,0.51 0.1,0.04 0.26,0.01 0.5,-0.08 l 0.15,0.26 -1.36,0.87 -0.15,-0.26 c 0.12,-0.15 0.15,-0.37 0.11,-0.67 -0.04,-0.3 -0.04,-0.75 -0.33,-1.58 l -2.93,-8.54 0.23,-0.12 5.81,6.95 c 0.56,0.67 0.95,1.07 1.16,1.2 0.15,0.1 0.44,0.22 0.57,0.17 l 0.15,0.26 -2.11,1.18 -0.15,-0.26 0.08,-0.05 c 0.16,-0.1 0.24,-0.23 0.24,-0.37 0,-0.1 -0.04,-0.23 -0.12,-0.37 -0.05,-0.09 -0.11,-0.17 -0.17,-0.25 -0.03,-0.04 -0.2,-0.17 -0.4,-0.48 z"
   id="path13033"
   style="stroke-width:0.690553" />
	<path
   class="st8"
   d="m 237.27,225.85 6.04,4.08 -2.71,-3.83 c -0.38,-0.53 -0.67,-0.87 -0.88,-1.01 -0.28,-0.18 -0.54,-0.19 -0.77,-0.02 l -0.17,-0.24 1.42,-0.97 0.17,0.24 c -0.15,0.17 -0.23,0.32 -0.23,0.43 -0.01,0.12 0.03,0.28 0.12,0.47 0.09,0.2 0.28,0.51 0.58,0.93 l 5.25,7.42 -0.11,0.07 -8.16,-5.44 4.01,5.66 c 0.36,0.51 0.66,0.82 0.9,0.92 0.24,0.11 0.43,0.11 0.58,0.01 l 0.1,-0.07 0.17,0.24 -1.53,1.04 -0.17,-0.24 c 0.23,-0.17 0.33,-0.38 0.28,-0.64 -0.05,-0.26 -0.24,-0.63 -0.57,-1.1 l -4.45,-6.29 -0.26,-0.18 c -0.26,-0.17 -0.45,-0.27 -0.57,-0.3 -0.12,-0.03 -0.25,0 -0.39,0.08 l -0.17,-0.24 1.52,-1.02"
   id="path13035"
   style="stroke-width:0.690553" />
	<path
   class="st8"
   d="m 247.72,215.7 2.34,1.8 -0.07,0.1 c -0.58,-0.36 -1.02,-0.59 -1.3,-0.7 -0.29,-0.11 -0.54,-0.16 -0.77,-0.14 -0.13,0.01 -0.25,0.1 -0.37,0.28 l -0.19,0.28 6.68,5.12 c 0.44,0.34 0.73,0.54 0.85,0.61 0.13,0.06 0.25,0.1 0.38,0.1 0.13,0 0.23,-0.05 0.3,-0.15 l 0.09,-0.12 0.24,0.18 -1.37,1.95 -0.24,-0.18 0.09,-0.12 c 0.08,-0.11 0.09,-0.23 0.05,-0.36 -0.03,-0.09 -0.1,-0.21 -0.23,-0.35 -0.09,-0.1 -0.35,-0.31 -0.78,-0.65 l -6.68,-5.12 -0.19,0.27 c -0.18,0.25 -0.18,0.53 -0.01,0.83 0.23,0.42 0.65,0.9 1.26,1.43 l -0.07,0.1 -2.34,-1.8 2.33,-3.36"
   id="path13037"
   style="stroke-width:0.690553" />
	<path
   class="st8"
   d="m 249.35,214.32 3.64,2.31 0.05,-0.08 c 0.13,-0.22 0.76,-0.8 0.28,-1.34 -0.3,-0.34 -0.24,-0.2 -0.85,-0.66 l 0.09,-0.28 3.36,2.08 -0.12,0.3 c -0.48,-0.34 -0.34,-0.3 -0.72,-0.44 -0.39,-0.14 -0.48,-0.17 -0.66,-0.14 -0.17,0.02 -0.61,0.75 -0.72,0.93 l 2.64,1.63 c 0.52,0.32 0.84,0.51 0.96,0.56 0.13,0.05 0.24,0.08 0.34,0.08 0.1,0 0.19,-0.06 0.25,-0.17 l 0.14,-0.23 c 0.21,-0.36 0.18,-0.77 -0.09,-1.23 -0.27,-0.46 -0.29,-0.59 -1.06,-1.2 l 0.3,-0.27 2.13,1.77 -1.99,3.3 -0.26,-0.16 0.08,-0.13 c 0.07,-0.11 0.07,-0.23 0.01,-0.36 -0.03,-0.09 -0.12,-0.19 -0.27,-0.32 -0.1,-0.09 -0.38,-0.28 -0.85,-0.57 l -6.17,-3.81 c -0.43,-0.26 -0.69,-0.42 -0.79,-0.47 -0.17,-0.08 -0.32,-0.12 -0.44,-0.13 -0.17,-0.01 -0.3,0.05 -0.37,0.17 l -0.08,0.13 -0.26,-0.16 1.92,-3.2 2.29,1.19 -0.15,0.31 c -0.71,-0.36 -0.67,-0.26 -1.03,-0.35 -0.35,-0.08 -0.66,-0.08 -0.9,0.02 -0.15,0.05 -0.31,0.22 -0.48,0.51 l -0.22,0.41"
   id="path13039"
   style="stroke-width:0.690553" />
	<path
   class="st8"
   d="m 251.39,208.89 3.65,1.14 -0.04,0.13 c -0.98,-0.2 -1.77,-0.25 -2.36,-0.15 -0.59,0.1 -0.94,0.32 -1.05,0.65 -0.09,0.28 0.02,0.59 0.32,0.94 0.31,0.35 0.75,0.67 1.32,0.97 0.74,0.38 1.59,0.72 2.55,1.02 0.94,0.29 1.82,0.51 2.62,0.66 0.81,0.14 1.44,0.17 1.91,0.08 0.47,-0.09 0.75,-0.3 0.86,-0.64 0.09,-0.28 0.03,-0.58 -0.19,-0.9 -0.22,-0.32 -0.64,-0.72 -1.26,-1.2 l 0.91,0.28 c 0.54,0.44 0.9,0.84 1.09,1.19 0.19,0.36 0.23,0.71 0.12,1.07 -0.15,0.47 -0.51,0.82 -1.08,1.04 -0.57,0.23 -1.31,0.3 -2.21,0.24 -0.91,-0.07 -1.84,-0.25 -2.79,-0.55 -1.01,-0.31 -1.92,-0.72 -2.75,-1.23 -0.83,-0.5 -1.44,-1.02 -1.81,-1.55 -0.38,-0.53 -0.5,-1.01 -0.36,-1.43 0.1,-0.31 0.36,-0.59 0.8,-0.83 0.25,-0.14 0.39,-0.24 0.4,-0.29 0.02,-0.07 -0.02,-0.15 -0.13,-0.24 -0.11,-0.09 -0.29,-0.18 -0.55,-0.28 l 0.03,-0.12"
   id="path13041"
   style="stroke-width:0.690553" />
	<path
   class="st8"
   d="m 257.54,208.06 3.31,0.76 c 0.55,0.13 0.89,0.19 1.04,0.2 0.14,0 0.27,-0.02 0.39,-0.07 0.12,-0.05 0.2,-0.15 0.23,-0.28 l 0.03,-0.16 0.29,0.07 -0.54,2.47 -0.29,-0.07 0.03,-0.16 c 0.03,-0.14 0,-0.26 -0.09,-0.37 -0.06,-0.08 -0.18,-0.15 -0.35,-0.23 -0.12,-0.05 -0.45,-0.14 -0.99,-0.27 l -7.04,-1.62 c -0.55,-0.13 -0.89,-0.19 -1.04,-0.2 -0.14,-0.01 -0.27,0.02 -0.39,0.07 -0.12,0.05 -0.19,0.15 -0.22,0.28 l -0.03,0.16 -0.29,-0.07 0.54,-2.47 0.29,0.07 -0.03,0.16 c -0.03,0.14 0,0.26 0.09,0.37 0.06,0.08 0.18,0.15 0.35,0.23 0.12,0.06 0.45,0.14 0.99,0.27 l 3.03,0.7 0.36,-1.67 -3.03,-0.7 c -0.55,-0.13 -0.89,-0.19 -1.04,-0.2 -0.14,-0.01 -0.27,0.02 -0.39,0.07 -0.12,0.06 -0.19,0.15 -0.22,0.28 l -0.03,0.15 -0.29,-0.07 0.54,-2.47 0.29,0.07 -0.03,0.15 c -0.03,0.14 0,0.26 0.09,0.37 0.06,0.08 0.18,0.15 0.35,0.23 0.12,0.05 0.45,0.14 0.99,0.27 l 7.04,1.62 c 0.55,0.13 0.89,0.19 1.04,0.2 0.14,0.01 0.27,-0.02 0.39,-0.07 0.12,-0.06 0.2,-0.15 0.23,-0.28 l 0.03,-0.15 0.29,0.07 -0.54,2.47 -0.29,-0.07 0.03,-0.15 c 0.03,-0.14 0,-0.26 -0.09,-0.37 -0.06,-0.08 -0.18,-0.15 -0.35,-0.23 -0.12,-0.05 -0.45,-0.14 -0.99,-0.27 l -3.31,-0.76 -0.38,1.67"
   id="path13043"
   style="stroke-width:0.690553" />
	<path
   class="st8"
   d="m 252.92,201.36 6.92,-2.3 -4.69,-0.19 c -0.65,-0.03 -1.1,0 -1.33,0.08 -0.32,0.11 -0.48,0.31 -0.49,0.6 l -0.3,-0.01 0.1,-1.72 0.3,0.01 c 0.04,0.22 0.11,0.37 0.2,0.45 0.09,0.08 0.24,0.14 0.45,0.19 0.21,0.05 0.57,0.09 1.09,0.11 l 9.08,0.36 -0.01,0.13 -9.29,3.15 6.93,0.28 c 0.63,0.02 1.05,-0.03 1.28,-0.15 0.23,-0.13 0.35,-0.28 0.36,-0.46 l 0.01,-0.12 0.3,0.01 -0.11,1.84 -0.3,-0.01 c 0.01,-0.29 -0.1,-0.49 -0.34,-0.61 -0.23,-0.12 -0.64,-0.19 -1.22,-0.22 l -7.7,-0.31 -0.3,0.1 c -0.29,0.1 -0.49,0.19 -0.59,0.27 -0.1,0.08 -0.15,0.2 -0.17,0.36 l -0.3,-0.01 0.12,-1.83"
   id="path13045"
   style="stroke-width:0.690553" />
	<path
   class="st8"
   d="m 253.22,195.98 c 0.06,0.42 0.62,0.67 1.68,0.75 0.86,0.07 2.08,0 3.65,-0.2 1.87,-0.24 3.22,-0.55 4.07,-0.94 0.6,-0.27 0.87,-0.58 0.82,-0.92 -0.03,-0.23 -0.2,-0.4 -0.49,-0.53 -0.37,-0.15 -0.95,-0.23 -1.72,-0.25 -0.77,-0.01 -1.76,0.06 -2.98,0.21 -1.45,0.18 -2.52,0.38 -3.22,0.58 -0.7,0.2 -1.19,0.41 -1.46,0.62 -0.26,0.24 -0.38,0.45 -0.35,0.68 m -0.5,0.11 c -0.18,-0.72 0.25,-1.37 1.26,-1.96 1.01,-0.59 2.33,-0.99 3.95,-1.2 1.39,-0.18 2.63,-0.16 3.74,0.04 1.47,0.27 2.26,0.81 2.38,1.63 0.12,0.82 -0.45,1.53 -1.72,2.15 -1,0.49 -2.22,0.82 -3.67,1.01 -1.62,0.21 -3.01,0.15 -4.16,-0.17 -1.16,-0.33 -1.75,-0.82 -1.78,-1.5 z"
   id="path13047"
   style="stroke-width:0.690553" />
	<path
   class="st8"
   d="m 247.23,183.42 3.29,-2.19 0.07,0.1 c -0.82,0.72 -1.38,1.37 -1.69,1.93 -0.31,0.56 -0.37,0.99 -0.18,1.29 0.18,0.29 0.53,0.39 1.04,0.32 0.51,-0.07 1.14,-0.3 1.89,-0.69 0.75,-0.39 1.5,-0.83 2.24,-1.32 0.89,-0.6 1.65,-1.16 2.27,-1.7 0.62,-0.53 1.03,-1 1.22,-1.41 0.2,-0.4 0.21,-0.74 0.04,-1 -0.06,-0.09 -0.14,-0.17 -0.25,-0.23 -0.11,-0.07 -0.24,-0.12 -0.4,-0.16 l -3.28,1.94 c -0.38,0.22 -0.6,0.41 -0.69,0.51 -0.09,0.09 -0.17,0.2 -0.21,0.32 -0.05,0.12 -0.04,0.23 0.02,0.32 l 0.06,0.1 -0.25,0.17 -1.05,-1.7 0.25,-0.17 c 0.11,0.12 0.22,0.19 0.33,0.2 0.11,0.01 0.25,-0.03 0.44,-0.11 0.1,-0.04 0.32,-0.18 0.66,-0.4 l 3.15,-2.1 c 0.42,0.07 0.78,0.19 1.08,0.36 0.3,0.17 0.54,0.4 0.72,0.69 0.23,0.36 0.3,0.74 0.21,1.14 -0.09,0.4 -0.27,0.82 -0.55,1.27 -0.28,0.44 -0.63,0.88 -1.05,1.31 -0.55,0.55 -1.22,1.09 -2,1.61 -1.4,0.93 -2.72,1.52 -3.94,1.76 -1.22,0.24 -2.03,0.05 -2.41,-0.56 -0.12,-0.19 -0.19,-0.38 -0.22,-0.58 -0.01,-0.11 0.01,-0.31 0.06,-0.61 0.05,-0.3 0.07,-0.47 0.05,-0.5 -0.03,-0.05 -0.11,-0.07 -0.23,-0.05 -0.12,0.02 -0.33,0.09 -0.61,0.23 l -0.08,-0.09"
   id="path13049"
   style="stroke-width:0.690553" />
	<path
   class="st8"
   d="m 244.05,179.07 0.24,-0.18 c 0.13,0.09 0.29,0.12 0.48,0.09 0.25,-0.05 0.86,-0.27 1.83,-0.68 l 3.83,-1.59 2.13,-1.59 c 0.46,-0.34 0.73,-0.56 0.83,-0.66 0.09,-0.1 0.16,-0.21 0.2,-0.33 0.04,-0.12 0.02,-0.23 -0.06,-0.33 l -0.16,-0.21 0.24,-0.18 1.64,2.06 -0.24,0.18 -0.15,-0.19 c -0.09,-0.11 -0.2,-0.16 -0.34,-0.15 -0.1,0 -0.23,0.04 -0.4,0.12 -0.12,0.06 -0.4,0.25 -0.84,0.58 l -1.77,1.32 -3.09,3.69 c -0.61,0.73 -0.95,1.18 -1.03,1.35 -0.08,0.17 -0.07,0.31 0.02,0.43 l -0.24,0.18 -1.4,-1.76 0.24,-0.18 0.06,0.08 c 0.08,0.11 0.18,0.15 0.29,0.14 0.11,-0.01 0.2,-0.05 0.28,-0.11 0.16,-0.12 0.49,-0.48 1,-1.1 l 2.39,-2.85 -3.19,1.33 c -0.78,0.32 -1.28,0.56 -1.49,0.72 -0.12,0.09 -0.19,0.18 -0.24,0.29 -0.06,0.14 -0.03,0.3 0.07,0.48 l -0.24,0.18 -0.89,-1.13"
   id="path13051"
   style="stroke-width:0.690553" />
	<path
   class="st8"
   d="m 251,188.54 c 0.18,0.38 0.78,0.45 1.81,0.22 0.84,-0.19 1.98,-0.61 3.41,-1.27 1.7,-0.78 2.9,-1.48 3.6,-2.1 0.49,-0.43 0.66,-0.81 0.51,-1.12 -0.1,-0.21 -0.31,-0.33 -0.62,-0.36 -0.4,-0.03 -0.97,0.06 -1.71,0.27 -0.74,0.22 -1.66,0.58 -2.77,1.09 -1.32,0.61 -2.28,1.11 -2.89,1.51 -0.61,0.4 -1.01,0.74 -1.2,1.03 -0.19,0.28 -0.24,0.52 -0.14,0.73 m -0.45,0.25 c -0.37,-0.63 -0.16,-1.38 0.62,-2.25 0.79,-0.86 1.93,-1.64 3.41,-2.32 1.27,-0.58 2.45,-0.94 3.56,-1.07 1.47,-0.18 2.38,0.1 2.73,0.85 0.35,0.74 0.02,1.6 -1,2.57 -0.81,0.76 -1.87,1.45 -3.19,2.05 -1.48,0.68 -2.82,1.04 -4,1.07 -1.19,0.04 -1.9,-0.26 -2.13,-0.9 z"
   id="path13053"
   style="stroke-width:0.690553" />
	<g
   id="g13059"
   style="stroke-width:0.690553">
		<g
   id="g13057"
   style="stroke-width:0.690553">
			<path
   class="st9"
   d="m 225.09,166.54 c -0.48,-0.47 -0.92,-1.13 -1.09,-1.78 -0.11,-0.39 -0.27,-1.21 -0.25,-1.62 -0.02,-0.29 0.06,-0.81 -0.31,-0.89 -0.26,0.03 -0.33,0.15 -0.33,0.4 -0.04,0.2 -0.12,0.6 -0.15,0.8 -0.12,0.92 -0.24,1.94 -0.34,2.86 0.29,1.02 0.63,0.58 1.41,0.86 0.62,0 1.26,0.34 1.86,0.25 0.13,-0.42 -0.56,-0.64 -0.8,-0.88 z m 1.44,-6.03 c -0.22,-0.06 -0.56,0 -0.76,0.11 -0.13,0.01 -1.03,0.06 -1.14,0.02 -0.13,-0.14 0.53,-0.88 0.58,-0.99 0.22,-0.23 0.77,-0.8 0.97,-1.03 0.15,-0.05 0.32,-0.25 0.38,-0.39 0.19,-0.44 -0.22,-1.18 -0.35,-1.6 -0.06,-0.14 -0.22,-0.76 -0.39,-0.82 l -0.32,0.08 c 0,0 -0.18,0.25 -0.18,0.25 -0.09,0.21 -0.25,0.52 -0.3,0.75 -0.64,1.18 -1.54,2.58 -2.46,3.56 -0.98,-0.04 -2.39,0.01 -3.36,-0.19 -0.36,-0.11 -1,-0.54 -1.37,-0.34 -0.12,0.19 0.13,0.62 0.2,0.79 l 0.22,0.56 c 0.14,0.28 0.34,0.73 0.7,0.78 0.65,-0.07 1.54,-0.34 2.19,-0.26 0.05,0.29 -0.44,0.48 -0.62,0.59 -0.28,0.26 -1.6,0.53 -1.96,0.62 -0.54,0.06 -1.36,-0.07 -1.9,-0.12 -0.17,0 -0.59,-0.19 -0.71,0 -0.09,0.14 0.75,0.58 0.79,0.64 0.28,0.17 0.89,0.45 1.21,0.51 2.02,0.46 3.96,-1.1 5.37,-2.35 0.26,-0.12 0.69,-0.03 0.97,-0.08 0,0 1.57,0.02 1.57,0.02 0.25,0.04 0.78,0.13 1.02,0.18 l 0.27,-0.13 c 0.27,-0.41 -0.18,-1.02 -0.62,-1.16 z m -40.59,-4.39 0.33,-0.07 c 0.62,-0.41 1.42,-1.05 2.12,-1.31 0.35,-0.14 0.9,-0.16 1.11,-0.5 0.4,-0.58 0,-1.53 -0.66,-1.71 -0.12,-0.02 -0.17,0.07 -0.21,0.19 0.18,0.28 -0.93,1.03 -1.05,1.19 -0.61,0.51 -1.28,1.35 -1.75,1.99 -0.02,0.04 -0.33,0.27 -0.26,0.34 0.11,0.04 0.28,-0.08 0.37,-0.12 z m 59.12,9.82 c -0.09,-0.28 -0.23,-0.71 -0.54,-0.82 -0.74,-0.18 -1.6,-0.5 -2.33,-0.72 -0.21,0 -0.8,0.06 -0.7,-0.3 1.18,-0.09 1.61,0.31 1.41,-1.22 -0.03,-0.41 -0.29,-0.86 -0.73,-0.53 -0.11,0.21 -0.66,0.33 -0.86,0.39 -0.11,0 -0.3,-0.01 -0.37,-0.12 -0.1,-0.16 -0.37,-0.56 -0.48,-0.73 -0.13,-0.21 -0.28,-0.3 -0.51,-0.16 -0.21,0.18 0,0.59 0.01,0.82 0.17,0.78 -0.5,0.45 -0.95,0.47 -0.42,-0.16 -0.34,-0.21 -0.23,-0.6 0.2,-0.84 0.27,-1.81 -0.13,-2.6 -0.17,-0.22 -0.46,-0.27 -0.5,0.07 0,0.33 -0.02,1.02 -0.05,1.35 -0.15,0.4 -0.29,1.21 -0.62,1.48 l -0.09,-0.07 c 0.05,-0.52 0.17,-1.59 -0.4,-1.84 -0.33,0.08 -0.27,0.82 -0.33,1.06 -0.11,0.27 -0.66,1.67 -0.78,1.98 -0.4,1.18 0.5,0.8 0.84,0.1 0.34,-0.12 0.26,0.3 0.26,0.49 0.01,0.28 0.02,0.76 0.38,0.8 0.29,0.01 0.6,-0.21 0.73,-0.47 0.03,-0.29 0.25,-0.72 0.36,-0.98 0.07,-0.43 0.27,-0.28 0.59,-0.29 0.23,0.09 0.95,0.11 1,0.42 -0.05,0.13 -0.4,0.15 -0.5,0.16 l -0.55,0.21 c -0.22,0.15 -0.43,0.43 -0.58,0.68 -0.05,0.08 -0.06,0.18 -0.04,0.27 0.04,0.13 0.08,0.3 0.08,0.3 0.34,0.64 0.6,0.92 1.36,0.92 0.88,0.04 1.39,-0.73 1.52,-1.53 0.25,-0.07 0.6,0.14 0.82,0.25 1.34,0.41 1.43,0.98 -0.02,1.25 -0.78,0.16 -1.73,0.56 -2.52,0.44 -0.27,-0.12 -0.87,-0.32 -1.16,-0.4 -0.61,-0.21 -1.44,-0.54 -2.05,-0.75 0,0 -0.63,-0.24 -0.63,-0.24 -0.16,-0.06 -0.46,-0.23 -0.49,0.06 0.14,0.3 0.31,0.88 0.69,0.92 0.33,0.18 0.9,0.25 1.26,0.3 0.18,0.07 0.57,0.18 0.76,0.22 0.22,0.09 0.82,0.1 0.71,0.46 -0.54,0.33 -1.26,0.57 -1.89,0.58 -1.39,-0.35 -2.94,-0.84 -4.33,-1.23 -0.23,-0.08 -0.83,-0.28 -1.05,-0.36 -0.31,-0.16 -0.72,-0.41 -1.07,-0.46 -0.21,0.21 0.07,0.9 0.08,1.16 0.13,0.36 0.22,1.04 0.58,1.26 0.97,0.12 2.13,-0.03 3.1,0.04 0.33,0.06 1.32,0.04 1.57,0.3 0.03,0.18 -0.23,0.34 -0.32,0.48 -0.75,0.79 -1.74,1.8 -2.61,2.47 -0.72,0.16 -1.35,-0.76 -1.81,-1.17 -0.06,-0.06 -0.15,-0.01 -0.21,0.02 0,0.36 0.4,0.86 0.51,1.2 0.1,0.35 0.4,1.01 0.58,1.32 l 0.14,0.22 c 0.05,0.08 0.13,0.13 0.21,0.16 0.11,0.04 0.23,0.08 0.23,0.08 0.52,0.06 0.99,-0.42 1.31,-0.77 0.14,-0.2 1.74,-2.07 1.74,-2.07 0.32,-0.33 1.22,-1.26 1.58,-1.52 0.11,0.01 0.33,0.05 0.43,0.1 0.19,0.13 0.24,0.27 0.15,0.48 -0.12,0.16 -0.83,0.54 -0.46,0.72 0.41,0.03 0.97,0.23 1.33,0.44 0.27,0.03 0.83,0.18 0.88,-0.22 -0.04,-0.58 -0.2,-1.32 -0.69,-1.68 -0.11,-0.08 -0.38,-0.18 -0.29,-0.36 0.58,-0.09 1.37,0.12 1.95,0.18 0.12,0.01 0.33,0 0.41,-0.1 0.21,-0.23 0.07,-0.73 0.06,-1.01 -0.02,-0.07 -0.1,-0.29 -0.06,-0.36 0.71,-0.11 1.57,0.02 2.25,0.23 0.55,0.17 1.25,0.59 1.72,0.05 0.48,-0.39 0.55,-1.15 0.34,-1.68 z m -4.69,-0.62 c -0.15,0.19 -0.31,0.48 -0.59,0.4 -0.08,-0.1 -0.22,-0.31 -0.27,-0.43 0.02,-0.2 0.1,-0.39 0.3,-0.45 0.11,-0.01 0.43,-0.09 0.51,0.03 0.2,0.06 0.09,0.31 0.05,0.45 z m -28.24,-3.13 c -1.64,0.09 -2.41,-0.62 -3.44,-1.76 0.09,-0.37 0.68,-0.96 0.89,-1.29 0,0 0.26,-0.21 0.26,-0.21 0.03,-0.05 0.1,-0.34 0.17,-0.37 -0.08,-0.38 -0.51,-0.64 -0.84,-0.79 -0.13,-0.04 -0.3,0.03 -0.42,0.01 0,-0.41 0.35,-1.01 0.58,-1.33 0.27,-0.36 0.55,-1.03 0.98,-1.21 0.26,-0.07 0.63,-0.3 0.87,-0.42 0.1,-0.08 0.15,-0.18 0.13,-0.31 0,0 -0.26,-0.43 -0.26,-0.43 -0.07,-0.02 -0.2,-0.08 -0.25,-0.13 -0.01,-0.51 -0.62,-0.87 -0.99,-1.14 l -0.22,-0.08 -0.22,0.09 c -0.07,0.17 -0.1,0.58 -0.11,0.76 0,0 -0.2,0.52 -0.2,0.52 l -0.23,0.57 -0.36,0.27 c -0.88,0.36 -1.82,0.99 -2.73,1.3 -0.07,0.37 0.72,0.56 1,0.62 0.43,-0.06 0.98,-0.6 1.37,-0.74 -0.02,0.4 -0.44,1.04 -0.57,1.43 -0.06,0.1 -0.29,0.41 -0.26,0.54 0,0.1 0.04,0.28 0.11,0.36 0.05,0.1 0.16,0.27 0.29,0.28 0.18,-0.04 0.41,-0.22 0.57,-0.28 l 0.13,0.07 c 0.07,0.3 -0.48,0.86 -0.62,1.1 -0.17,-0.08 -0.37,-0.44 -0.56,-0.49 -0.21,-0.12 -0.53,-0.43 -0.79,-0.28 -0.1,0.28 0.22,0.71 0.33,0.95 0.07,0.16 0.22,0.48 0.3,0.63 0.13,0.16 -0.18,0.45 -0.24,0.59 -0.27,0.26 -0.99,1.03 -1.34,1.18 -0.32,0.15 -1.06,0.58 -1.26,0.07 0.28,-2.16 0.65,-4.64 1.51,-6.64 0.23,-0.18 0.71,-0.5 0.96,-0.65 0,0 0.34,-0.22 0.34,-0.22 l 0.04,-0.23 c -0.12,-0.12 -0.25,-0.69 -0.5,-0.38 l -0.08,-0.06 c 0.35,-0.31 -0.69,-1.21 -0.94,-1.39 -0.12,-0.02 -0.35,0.14 -0.44,0.2 0,0 -0.09,0.41 -0.09,0.41 -0.07,0.33 -0.25,1 -0.37,1.3 l -1.16,0.59 c -0.16,-0.03 -0.43,0.02 -0.56,0.12 -0.04,0.09 0.2,0.48 0.23,0.56 0.1,0.13 0.35,0.52 0.55,0.52 0,0 0.17,-0.02 0.17,-0.02 0.07,-0.08 0.19,-0.23 0.31,-0.17 -0.1,0.21 -0.24,0.77 -0.28,1 -0.19,0.54 -0.95,0.95 -1.34,1.33 -0.36,0.34 -1.11,1.01 -1.48,1.34 -0.11,0.11 -0.36,0.26 -0.51,0.25 -0.78,0.39 -0.66,0.4 -0.16,1.03 0.11,0.07 0.34,0.17 0.49,0.21 0.03,0.01 0.07,0.01 0.1,-0.01 0.35,-0.15 0.81,-0.51 1.12,-0.79 0.07,-0.06 0.12,-0.13 0.17,-0.21 0.11,-0.22 0.32,-0.51 0.46,-0.65 0.23,-0.28 0.57,-0.8 0.83,-1.05 l 0.09,0.04 c -0.06,0.19 -0.26,0.99 -0.31,1.2 -0.11,0.29 -0.15,2.32 -0.57,2.4 -0.15,-0.01 -0.44,-0.04 -0.59,-0.06 -0.3,-0.11 -0.54,-0.26 -0.84,-0.03 v 0.13 c 0.51,0.36 1.12,0.68 1.58,1.11 0,0 0.19,0.19 0.19,0.19 0.04,0.13 0.09,0.19 0.23,0.21 0.38,-0.09 0.76,-0.47 0.81,-0.86 l 0.08,-0.02 c 0.39,0.66 0.49,0.57 1.14,0.3 0.77,-0.43 1.77,-1.13 2.37,-1.76 0.3,0.25 0.61,0.85 0.83,1.18 0.1,0.19 0.24,0.56 0.5,0.58 0.64,0.12 1.44,-0.15 2.06,-0.33 0.34,-0.16 1.2,-0.26 1.4,-0.6 -0.12,-0.18 -0.26,-0.15 -0.41,-0.15 z m -47.22,8.64 c -0.11,-0.17 -0.57,-0.89 -0.65,-1.05 0.24,-0.61 0.9,-1.17 1.21,-1.75 0.26,-0.71 -0.31,-0.57 -0.77,-0.55 -0.25,0 -0.84,0.05 -1.08,0 -0.09,-0.15 0,-0.18 0.13,-0.45 0.23,-0.39 0.49,-0.79 0.7,-1.11 0.26,-0.54 0.91,-1.25 1.01,-1.83 -0.15,-0.26 -0.55,-0.37 -0.82,-0.41 -0.29,-0.04 -0.59,0.09 -0.77,0.31 -0.28,0.46 -0.57,1.19 -0.91,1.62 -0.28,0.01 -0.03,-1.07 -0.06,-1.21 0.05,-0.23 0.28,-0.46 0.35,-0.69 0.09,-0.21 0.27,-0.61 0.08,-0.81 -0.2,-0.08 -0.48,-0.06 -0.67,0.03 -0.27,-0.04 -0.69,-0.1 -0.96,-0.11 -0.21,0.07 -0.25,0.24 -0.25,0.45 0,0 0.2,0.32 0.2,0.32 0.09,0.15 0.16,0.5 0.18,0.67 0,0.31 -0.22,0.66 -0.41,0.89 -0.15,0.17 -0.51,-0.05 -0.69,-0.08 -0.05,-0.02 -0.31,0 -0.31,-0.09 0,0 0.12,-0.66 0.12,-0.66 0.07,-0.81 0.1,-0.81 0.69,-1.36 0.23,-0.27 0.55,-0.97 0.68,-1.3 0.06,-0.39 0.03,-0.75 -0.31,-1 -0.45,-0.08 -1.44,-0.5 -1.88,-0.27 -0.27,0.54 -0.19,1.32 -0.04,1.89 0.15,0.59 0.26,1.17 -0.43,1.45 -0.08,-0.1 -0.15,-0.42 -0.17,-0.54 -0.05,-0.08 -0.29,-0.48 -0.29,-0.57 -0.05,-0.07 -0.29,-0.52 -0.4,-0.56 -0.1,-0.05 -1.52,-0.06 -1.63,0.03 -0.36,0.15 -0.54,0.25 -0.28,0.66 0.15,0.13 1.18,0.42 1.5,0.58 0.21,0.18 0.8,0.5 1.04,0.46 l 0.06,0.09 c -0.01,0.18 -0.57,0.5 -0.68,0.59 -0.37,0.27 -0.82,0.55 -1.19,0.82 -0.29,0.12 -0.69,0.48 -0.98,0.64 -0.37,0.68 0.81,0.68 1.22,0.78 0.31,0.06 0.52,-0.19 0.63,-0.44 0,0 0.52,-0.69 0.52,-0.69 0.29,-0.25 1.07,-1.42 1.47,-1.27 0.04,0.05 0.04,0.68 0.04,0.75 -0.06,0.13 -0.27,0.11 -0.38,0.13 -0.1,0.03 -0.27,0.04 -0.28,0.17 -0.05,0.14 -0.11,0.35 0,0.48 0.25,0.23 0.64,0.48 0.77,0.81 l -0.05,0.1 c -0.23,0.01 -0.52,-0.06 -0.75,-0.02 -0.1,0.15 0.04,0.42 -0.07,0.57 -0.47,-0.01 -1.05,-0.17 -1.52,-0.15 -0.23,-0.03 -0.59,-0.11 -0.55,0.24 0.22,0.41 0.82,0.67 1.13,1.01 0.08,0.19 -0.16,0.48 -0.27,0.63 l 0.06,0.13 c 0.45,0.01 1.16,0.14 1.6,0.24 0.59,-0.37 0.31,-1.56 0.77,-2.07 0.31,-0.01 0.49,0.55 0.63,0.75 -0.12,0.32 -0.52,0.68 -0.72,0.97 -1.02,1.29 -2.25,2.5 -3.43,3.65 0.06,0.19 0.13,0.41 0.37,0.4 0.46,-0.03 1.33,-0.07 1.71,-0.36 0.56,-0.51 0.76,-1.48 1.25,-2.08 0.21,-0.37 0.71,-1.19 0.97,-1.53 0.19,-0.42 0.33,-0.56 0.61,-0.11 0.12,0.42 -0.24,0.84 -0.42,1.19 -0.5,0.92 -0.95,2.11 -1.17,3.13 -0.18,0.6 -0.02,0.63 0.55,0.55 0.39,-0.09 0.79,-0.75 1.05,-1.03 0.35,-0.46 0.89,-1.47 1.35,-1.8 0,0 0.4,0.68 0.49,0.8 0.13,0.14 0.29,0.44 0.41,0.58 0.15,0.23 0.84,1.29 0.96,1.48 0.1,0.07 0.29,0.24 0.36,0.34 0.13,0.03 0.44,0.1 0.57,0.08 0.12,-0.02 0.21,-0.62 0.21,-0.71 -0.03,-0.67 -0.35,-1.22 -0.44,-1.41 -0.21,-0.38 -0.78,-1.03 -0.97,-1.39 z m -4.4,-9.43 c 0.2,-0.07 0.44,0.07 0.49,0.27 0.01,0.15 -0.07,0.41 -0.17,0.53 -0.05,0.1 -0.21,0.21 -0.31,0.11 -0.07,-0.07 -0.06,-0.53 -0.07,-0.62 -0.01,-0.08 0.01,-0.22 0.06,-0.29 z m 0.92,4.31 c -0.08,-0.18 -0.03,-0.4 0.2,-0.39 0.16,-0.07 0.38,-0.27 0.56,-0.14 0.13,0.3 0.34,0.63 0.34,0.97 0.02,0.15 -0.08,0.38 -0.19,0.49 -0.05,0.06 -0.13,0.15 -0.22,0.11 -0.29,-0.23 -0.44,-0.75 -0.69,-1.04 z m 1.14,4.71 c -0.19,0.29 -0.61,0.85 -0.82,1.12 -0.08,0.1 -0.35,0.51 -0.49,0.54 l -0.03,-0.05 c 0.25,-0.76 0.77,-1.53 1.06,-2.28 0.17,-0.08 0.28,0.17 0.34,0.27 0.06,0.12 0,0.29 -0.06,0.4 z m 0.01,-2.97 c 0.06,-0.43 0.53,-0.79 0.72,-1.16 0.11,-0.19 0.29,-0.6 0.54,-0.61 0.07,0.19 -0.12,0.46 -0.24,0.6 -0.05,0.18 -0.2,0.5 -0.31,0.65 -0.11,0.37 -0.23,0.72 -0.71,0.52 z m 1.31,1.31 c -0.07,0.09 -0.2,0.13 -0.2,0.13 l -0.02,-0.03 c -0.13,-0.06 -0.52,-0.58 -0.43,-0.76 0.21,0.07 0.62,0.15 0.74,0.35 -0.01,0.01 -0.03,0.22 -0.09,0.31 z m 25.74,-10.06 c -0.09,0.1 -0.49,0.54 -0.55,0.65 -0.25,0.02 -0.13,-0.33 -0.12,-0.46 0,0 0.08,-0.66 0.08,-0.66 0.06,-0.44 0.33,-1.01 0.52,-1.4 0,-0.24 -0.26,-0.47 -0.43,-0.61 -0.15,-0.26 -0.59,-0.46 -0.88,-0.47 -0.33,0.14 -0.35,0.59 -0.41,0.9 -0.75,1.32 -2.36,2.1 -3.43,3.12 0.19,0.24 0.54,0.39 0.83,0.43 0.08,0.01 0.21,-0.01 0.29,-0.01 0.92,-0.08 1.64,-1.73 2.25,-2.04 0.12,0 0.12,0.85 0.12,0.85 0,0 0,0.51 0,0.61 0.01,0.1 0.09,0.97 0.09,1.02 -0.01,0.05 -0.16,0.29 -0.22,0.33 -0.06,0.04 -0.16,-0.01 -0.16,-0.01 -0.01,-0.06 0.07,-0.1 0.08,-0.2 0,-0.09 -0.15,-0.72 -0.45,-0.5 -0.24,0.59 -0.93,1.14 -0.83,1.82 0.16,0.28 0.14,0.74 0.44,0.91 0.25,0 0.52,-0.47 0.68,-0.62 0.06,-0.07 0.4,-0.54 0.5,-0.53 0.13,0.14 0.11,0.52 0.15,0.7 0.1,0.15 0.38,0.19 0.52,0.28 0.2,0 0.44,-0.1 0.56,-0.26 0.11,-0.15 -0.05,-0.34 -0.08,-0.5 0.02,-0.32 -0.08,-0.71 -0.12,-1.02 -0.07,-0.52 0.47,-1.1 0.69,-1.53 0.16,-0.29 0.48,-0.93 0.6,-1.24 0.05,-0.11 -0.01,-0.31 -0.07,-0.4 -0.25,0.1 -0.47,0.63 -0.65,0.84 z m -13.62,3.39 c 0.04,-0.1 0.09,-0.16 0.2,-0.15 0.08,-0.02 0.29,-0.12 0.36,-0.16 0.28,-0.3 0.68,-0.76 0.99,-1.03 0.15,-0.08 0.27,-0.56 0.33,-0.7 0,0 -0.02,-0.14 -0.06,-0.19 l -0.2,-0.09 c -0.6,-0.13 -0.82,-0.1 -0.72,-0.8 0.17,-0.63 0.55,-1.31 1.01,-1.77 0.48,-0.64 0.24,-1.38 -0.64,-1.24 -0.16,0.05 -0.64,0.3 -0.8,0.37 -0.22,0.16 -0.57,0.66 -0.72,0.88 -0.19,0.26 -0.54,0.81 -0.7,1.09 -0.09,0.12 -0.19,0.49 -0.39,0.29 -0.16,-0.33 -0.28,-0.73 -0.38,-1.09 -0.12,-0.43 0.02,-1.14 -0.55,-1.23 -0.21,-0.04 -0.66,-0.12 -0.88,-0.12 -0.13,-0.01 -0.42,-0.07 -0.52,0.07 -0.11,0.26 -0.44,0.85 -0.38,1.13 0.25,0.38 0.74,0.68 1.02,1.03 0.27,0.56 0.76,1.31 0.98,1.89 -0.03,0.03 -0.81,1.97 -0.91,1.86 -0.33,-0.19 -0.65,-0.55 -0.91,-0.87 -0.1,-0.13 -0.23,-0.24 -0.36,-0.34 -0.11,-0.09 -0.23,-0.19 -0.28,-0.28 -0.46,-0.03 -0.38,0.38 -0.39,0.69 0,0.26 0.04,0.79 0.1,1.04 0.07,0.54 0.01,1.28 0.43,1.7 0.49,0.18 1.38,0.58 1.81,0.13 0.18,-0.8 0.41,-1.77 0.74,-2.52 0.23,-1.09 1.58,3.43 1.73,3.57 0.22,0.83 0.36,1.87 0.94,2.54 0.18,0.34 0.71,0.61 1.05,0.76 0.26,0.06 0.41,-0.15 0.53,-0.35 0.07,-0.64 -0.37,-1.61 -0.71,-2.14 -0.28,-0.62 -1.78,-3.76 -1.72,-3.97 z m -0.53,-1.19 c -0.06,-0.29 -0.26,-0.66 -0.38,-0.93 -0.05,-0.39 0.35,-0.9 0.54,-1.21 0.05,-0.08 0.19,-0.33 0.31,-0.34 0.21,0.23 0.18,0.8 0.24,1.09 0.07,0.33 0.17,0.77 -0.04,1.07 -0.18,0.2 -0.44,0.79 -0.67,0.32 z m 19.07,-4.93 c -0.02,-0.15 -0.06,-0.31 -0.18,-0.32 -0.14,0.04 -0.05,0.48 -0.06,0.58 -0.09,0.4 -0.22,0.93 -0.56,1.19 -0.08,-0.02 -0.1,-0.17 -0.11,-0.23 -0.05,-0.52 0.01,-1.23 0,-1.77 0,-0.05 0,-0.1 0.01,-0.16 0.25,-1.46 0.11,-2.45 -1.62,-2.59 -0.45,0.38 -0.16,1.06 0,1.52 0.1,0.25 0.2,0.85 0.22,1.13 0.17,0.92 0.18,2.18 0.34,3.11 0,0.09 0.02,0.38 -0.07,0.44 -0.12,0.09 -0.62,0.56 -0.75,0.61 l -0.06,-0.03 c -0.04,-0.16 0.14,-0.38 0.18,-0.53 l -0.02,-0.38 c -0.05,-0.52 -0.75,-0.84 -0.71,-1.37 0.14,-0.5 0.36,-1.13 0.17,-1.64 -0.2,-0.41 -1.81,-1.67 -1.73,-0.59 0.15,0.6 0.72,1.15 1.12,1.58 0.17,0.35 -0.08,0.82 -0.07,1.18 0.14,0.31 0.26,0.75 0.38,1.07 0.15,0.28 0.17,0.69 0.1,0.99 -0.09,0.27 -0.38,0.75 -0.32,1.04 0.22,0.35 0.7,0.22 1,0.05 l 0.51,-0.49 c 0.05,-0.05 0.3,-0.43 0.39,-0.4 0.17,1.43 0.35,3.42 0.51,4.86 0.06,0.35 -0.03,0.71 0.47,0.65 0.22,-0.08 0.45,-0.46 0.48,-0.67 0.19,-1.2 -0.12,-3.14 -0.13,-3.51 -0.07,-0.57 -0.11,-1.43 -0.19,-2 -0.04,-0.46 0.06,-0.61 0.4,-0.91 0.16,-0.24 1.05,-1.02 0.96,-1.35 -0.09,-0.2 -0.27,-0.43 -0.44,-0.63 -0.12,-0.1 -0.2,-0.26 -0.22,-0.43 z"
   id="path13055"
   style="stroke-width:0.690553" />
		</g>
	</g>
</g>
</svg>
