<?xml version="1.0" encoding="UTF-8"?>
<svg xmlns="http://www.w3.org/2000/svg" xmlns:xlink="http://www.w3.org/1999/xlink" width="252pt" height="253pt" viewBox="0 0 252 253" version="1.1">
<g id="surface1">
<path style=" stroke:none;fill-rule:nonzero;fill:rgb(0%,48.627451%,21.176471%);fill-opacity:1;" d="M 223.320312 93.734375 C 223.679688 93.453125 223.980469 93.4375 224.375 93.375 C 225.179688 93.546875 225.839844 93.78125 226.171875 93.863281 C 226.421875 93.925781 226.546875 93.8125 226.546875 93.8125 L 225.683594 93.21875 L 226.578125 93.011719 L 227.460938 93.234375 L 228.121094 93.28125 L 227.964844 92.558594 C 227.761719 92.445312 224.738281 90.5625 223.082031 91.960938 C 222.375 92.414062 222.578125 93.011719 222.609375 93.453125 C 222.625 93.65625 222.5 93.847656 222.4375 93.941406 C 222.421875 93.972656 223.003906 94.003906 223.320312 93.734375 Z M 223.320312 93.734375 "/>
<path style=" stroke:none;fill-rule:nonzero;fill:rgb(0%,48.627451%,21.176471%);fill-opacity:1;" d="M 232.453125 95.464844 C 232.691406 95.683594 234.753906 94.332031 234.878906 93.296875 C 235.117188 93.171875 235.023438 92.367188 234.972656 92.148438 C 234.972656 92.148438 234.515625 92.148438 234.234375 92.429688 C 233.761719 92.917969 233.476562 93.640625 233.242188 93.703125 C 232.878906 93.972656 232.296875 94.097656 232.296875 94.097656 C 232.390625 94.539062 232.359375 95.039062 232.453125 95.464844 Z M 232.453125 95.464844 "/>
<path style=" stroke:none;fill-rule:nonzero;fill:rgb(0%,48.627451%,21.176471%);fill-opacity:1;" d="M 231.429688 94.710938 C 231.476562 94.332031 231.226562 93.8125 231.273438 93.4375 C 231.886719 92.980469 232.722656 92.792969 232.800781 91.363281 C 231.871094 92.023438 231.035156 92.429688 230.375 92.445312 C 230.042969 92.980469 229.777344 94.003906 229.050781 94.253906 C 228.816406 94.332031 228.910156 94.710938 228.800781 94.882812 C 229.164062 94.898438 229.808594 94.554688 230.21875 94.601562 C 230.628906 94.664062 231.066406 94.835938 231.429688 94.710938 Z M 231.429688 94.710938 "/>
<path style=" stroke:none;fill-rule:nonzero;fill:rgb(0%,48.627451%,21.176471%);fill-opacity:1;" d="M 236.691406 100.054688 C 237.039062 100.664062 237.777344 101.027344 238.125 101.640625 C 236.550781 101.59375 235.210938 100.429688 232.910156 100.019531 C 233.164062 99.769531 233.367188 99.363281 233.621094 99.109375 C 233.855469 99.296875 233.964844 99.878906 234.203125 100.070312 C 234.738281 100.179688 235.273438 99.878906 235.476562 99.03125 C 235.824219 98.765625 236.234375 98.308594 236.484375 97.945312 C 237.226562 98.339844 238.078125 98.71875 238.816406 99.109375 C 239.574219 97.898438 239.855469 97.238281 240.203125 96.53125 C 239.730469 96.515625 239.148438 96.546875 238.769531 96.941406 C 237.949219 96.972656 237.351562 96.816406 236.878906 96.546875 C 236.785156 95.511719 236.597656 94.820312 236.25 94.457031 L 235.574219 94.773438 C 235.636719 95.230469 235.714844 95.683594 235.777344 96.140625 L 234.328125 95.070312 C 233.964844 94.695312 234.25 95.824219 234.390625 96.644531 L 235.117188 97.222656 L 234.453125 97.632812 C 234.25 97.492188 234.011719 97.351562 233.808594 97.207031 C 233.949219 96.660156 233.996094 95.621094 233.667969 95.808594 C 233.320312 95.871094 233.070312 96.644531 232.722656 96.707031 C 232.042969 96.359375 231.335938 95.871094 230.675781 95.542969 C 231.117188 96.078125 231.554688 96.613281 231.996094 97.160156 C 231.980469 97.335938 231.964844 97.507812 231.949219 97.679688 C 232.011719 98.433594 232.753906 98.371094 233.257812 98.292969 C 233.054688 98.703125 232.515625 99.078125 232.3125 99.488281 C 231.554688 98.605469 231.050781 97.742188 230.3125 96.863281 C 230.21875 96.21875 230.125 95.605469 230.011719 94.960938 C 229.933594 94.914062 229.257812 95.023438 229.476562 95.417969 C 229.351562 96.15625 229.429688 96.296875 229.195312 96.753906 C 229.003906 96.800781 233.714844 101.121094 233.746094 103.367188 C 233.792969 103.980469 232.675781 103.039062 232.675781 103.039062 C 231.367188 101.484375 230.675781 100.601562 229.367188 99.046875 C 228.863281 97.835938 227.539062 96.375 226.171875 96.644531 C 225.730469 97.066406 225.320312 97.664062 225.507812 98.796875 C 226.152344 99.472656 226.800781 99.535156 227.445312 100.226562 C 227.066406 100.664062 226.609375 100.304688 224.753906 100.476562 C 224.753906 100.460938 222.6875 98.199219 222.3125 97.003906 C 222.152344 96.203125 222.265625 96.015625 222.265625 96.015625 L 221.554688 95.9375 C 221.351562 95.921875 220.53125 97.097656 220.53125 97.726562 C 220.53125 97.996094 220.863281 98.277344 221.273438 98.433594 C 222.390625 98.890625 223.523438 100.679688 223.445312 100.792969 C 223.445312 100.792969 222.183594 101.65625 220.359375 102.03125 C 219.160156 102.378906 218.75 102.597656 218.40625 101.136719 C 217.601562 99.785156 219.695312 96.421875 219.429688 96.5 L 218.75 96.722656 C 217.980469 98.246094 217.207031 99.613281 217.269531 100.730469 C 217.585938 101.765625 217.320312 101.953125 217.320312 102.253906 C 217.320312 102.753906 217.320312 102.835938 217.695312 103.179688 C 218.5 103.460938 219.128906 103.527344 219.824219 103.320312 C 221.320312 103.117188 222.65625 102.347656 224.074219 101.796875 C 224.265625 102.222656 224.453125 102.660156 224.640625 103.085938 C 224.5625 102.820312 224.265625 102.691406 223.714844 102.628906 C 223.949219 103.023438 224.074219 103.132812 224.3125 103.511719 C 224.359375 103.605469 224.707031 103.964844 224.609375 104.328125 C 224.359375 105.332031 224.769531 105.144531 224.910156 105.269531 C 225.335938 105.300781 225.507812 105.410156 226.089844 105.191406 C 226.136719 104.941406 226.40625 104.515625 226.3125 104.089844 C 226.089844 103.054688 225.792969 102.175781 225.351562 101.515625 C 226.328125 101.75 227.257812 101.734375 228.234375 101.96875 C 229.117188 101.453125 229.066406 101.230469 229.476562 100.824219 C 228.5 99.140625 228.105469 99.015625 227.570312 98.703125 C 227.792969 98.703125 227.886719 98.621094 228.105469 98.621094 C 229.683594 100.429688 231.179688 102.175781 232.707031 103.980469 C 232.988281 104.3125 233.210938 104.703125 233.507812 105.035156 C 234.011719 104.910156 234.722656 104.8125 235.226562 104.703125 C 235.039062 103.683594 234.800781 102.851562 234.5 103.117188 C 234.390625 102.503906 234.140625 101.78125 233.652344 101.246094 C 235.039062 101.84375 236.566406 102.363281 236.992188 102.960938 C 238.234375 103.574219 238.925781 103.054688 239.398438 101.78125 C 238.0625 100.257812 236.660156 99.488281 236.691406 100.054688 Z M 236.691406 100.054688 "/>
<path style=" stroke:none;fill-rule:nonzero;fill:rgb(0%,48.627451%,21.176471%);fill-opacity:1;" d="M 126.234375 219.449219 C 177.785156 219.449219 219.601562 177.730469 219.601562 126.296875 C 219.601562 74.863281 177.785156 33.140625 126.234375 33.140625 C 74.6875 33.140625 32.871094 74.863281 32.871094 126.296875 C 32.871094 177.730469 74.671875 219.449219 126.234375 219.449219 Z M 126.1875 36.675781 C 175.769531 36.675781 215.964844 76.78125 215.964844 126.25 C 215.964844 175.703125 175.769531 215.820312 126.1875 215.820312 C 76.625 215.820312 36.414062 175.71875 36.414062 126.25 C 36.414062 76.78125 76.609375 36.675781 126.1875 36.675781 Z M 126.1875 36.675781 "/>
<path style=" stroke:none;fill-rule:nonzero;fill:rgb(0%,48.627451%,21.176471%);fill-opacity:1;" d="M 151.910156 197.292969 C 152.539062 196.929688 153.011719 196.539062 153.292969 196.160156 C 153.6875 195.644531 153.894531 195.0625 153.894531 194.464844 C 153.894531 193.425781 153.40625 192.5625 152.414062 191.871094 C 151.421875 191.179688 149.894531 190.851562 147.828125 190.851562 C 146.269531 190.851562 145.011719 191.132812 144.066406 191.667969 C 142.851562 192.390625 142.238281 193.300781 142.238281 194.433594 C 142.238281 195.125 142.457031 195.722656 142.867188 196.253906 C 143.183594 196.648438 143.671875 196.996094 144.347656 197.308594 C 143.464844 197.605469 142.820312 198.03125 142.394531 198.582031 C 141.96875 199.132812 141.765625 199.792969 141.765625 200.59375 C 141.765625 201.394531 141.984375 202.132812 142.441406 202.777344 C 142.898438 203.4375 143.546875 203.925781 144.410156 204.269531 C 145.277344 204.601562 146.539062 204.773438 148.160156 204.773438 C 149.042969 204.773438 149.859375 204.695312 150.632812 204.554688 C 151.40625 204.410156 152.050781 204.175781 152.570312 203.847656 C 153.089844 203.53125 153.515625 203.074219 153.878906 202.496094 C 154.238281 201.914062 154.414062 201.285156 154.414062 200.609375 C 154.414062 199.902344 154.207031 199.273438 153.796875 198.707031 C 153.359375 198.109375 152.742188 197.636719 151.910156 197.292969 Z M 146.757812 193.554688 C 147.089844 193.269531 147.515625 193.128906 148.035156 193.128906 C 148.554688 193.128906 148.964844 193.269531 149.292969 193.570312 C 149.625 193.851562 149.796875 194.246094 149.796875 194.699219 C 149.796875 195.15625 149.640625 195.515625 149.324219 195.800781 C 149.011719 196.082031 148.601562 196.222656 148.113281 196.222656 C 147.5625 196.222656 147.121094 196.082031 146.773438 195.800781 C 146.445312 195.515625 146.269531 195.140625 146.269531 194.667969 C 146.269531 194.195312 146.429688 193.835938 146.757812 193.554688 Z M 149.46875 201.882812 C 149.058594 202.273438 148.601562 202.460938 148.082031 202.460938 C 147.546875 202.460938 147.074219 202.273438 146.648438 201.898438 C 146.238281 201.519531 146.035156 201.03125 146.035156 200.4375 C 146.035156 199.808594 146.238281 199.320312 146.632812 198.941406 C 147.027344 198.582031 147.5 198.394531 148.035156 198.394531 C 148.570312 198.394531 149.058594 198.582031 149.46875 198.957031 C 149.878906 199.335938 150.082031 199.824219 150.082031 200.421875 C 150.082031 201.015625 149.878906 201.503906 149.46875 201.882812 Z M 149.46875 201.882812 "/>
<path style=" stroke:none;fill-rule:nonzero;fill:rgb(0%,48.627451%,21.176471%);fill-opacity:1;" d="M 102.816406 192.972656 C 102.011719 193.539062 100.878906 194.039062 99.414062 194.449219 L 99.414062 197.511719 C 100.40625 197.246094 101.226562 196.980469 101.886719 196.679688 C 102.546875 196.398438 103.226562 196.019531 103.933594 195.546875 L 103.933594 204.503906 L 108.28125 204.503906 L 108.28125 190.820312 L 104.722656 190.820312 C 104.265625 191.683594 103.636719 192.40625 102.816406 192.972656 Z M 102.816406 192.972656 "/>
<path style=" stroke:none;fill-rule:nonzero;fill:rgb(0%,48.627451%,21.176471%);fill-opacity:1;" d="M 136.882812 191.542969 C 135.9375 191.085938 134.710938 190.851562 133.152344 190.851562 C 131.859375 190.851562 130.789062 191.039062 129.953125 191.414062 C 129.101562 191.792969 128.441406 192.34375 127.953125 193.082031 C 127.464844 193.820312 127.226562 194.621094 127.226562 195.515625 C 127.226562 196.820312 127.699219 197.90625 128.660156 198.769531 C 129.605469 199.617188 130.789062 200.058594 132.175781 200.058594 C 132.882812 200.058594 133.511719 199.949219 134.046875 199.746094 C 134.582031 199.523438 135.121094 199.195312 135.625 198.738281 C 135.480469 200.183594 135.261719 201.128906 134.992188 201.582031 C 134.617188 202.179688 134.0625 202.496094 133.386719 202.496094 C 133.007812 202.496094 132.679688 202.382812 132.410156 202.164062 C 132.140625 201.960938 131.953125 201.582031 131.84375 201.0625 L 127.574219 201.535156 C 127.828125 202.257812 128.1875 202.855469 128.660156 203.328125 C 129.132812 203.8125 129.71875 204.160156 130.425781 204.410156 C 131.132812 204.664062 132.109375 204.773438 133.339844 204.773438 C 135.417969 204.773438 137.054688 204.207031 138.222656 203.074219 C 139.402344 201.945312 139.984375 200.167969 139.984375 197.734375 C 139.984375 196.082031 139.703125 194.746094 139.152344 193.742188 C 138.554688 192.734375 137.8125 191.996094 136.882812 191.542969 Z M 134.851562 197.152344 C 134.457031 197.542969 133.953125 197.734375 133.339844 197.734375 C 132.757812 197.734375 132.269531 197.527344 131.875 197.136719 C 131.480469 196.742188 131.292969 196.160156 131.292969 195.40625 C 131.292969 194.652344 131.480469 194.101562 131.859375 193.726562 C 132.238281 193.347656 132.710938 193.160156 133.277344 193.160156 C 133.875 193.160156 134.394531 193.363281 134.820312 193.789062 C 135.246094 194.195312 135.449219 194.777344 135.449219 195.5 C 135.449219 196.222656 135.246094 196.773438 134.851562 197.152344 Z M 134.851562 197.152344 "/>
<path style=" stroke:none;fill-rule:nonzero;fill:rgb(0%,48.627451%,21.176471%);fill-opacity:1;" d="M 123.085938 197.292969 C 123.714844 196.929688 124.1875 196.539062 124.472656 196.160156 C 124.867188 195.644531 125.054688 195.0625 125.054688 194.464844 C 125.054688 193.425781 124.566406 192.5625 123.574219 191.871094 C 122.582031 191.179688 121.054688 190.851562 118.992188 190.851562 C 117.433594 190.851562 116.171875 191.132812 115.226562 191.667969 C 114.015625 192.390625 113.398438 193.300781 113.398438 194.433594 C 113.398438 195.125 113.621094 195.722656 114.03125 196.253906 C 114.34375 196.648438 114.832031 196.996094 115.511719 197.308594 C 114.628906 197.605469 113.984375 198.03125 113.558594 198.582031 C 113.132812 199.132812 112.925781 199.792969 112.925781 200.59375 C 112.925781 201.394531 113.148438 202.132812 113.605469 202.777344 C 114.0625 203.4375 114.707031 203.925781 115.574219 204.269531 C 116.441406 204.601562 117.683594 204.773438 119.320312 204.773438 C 120.203125 204.773438 121.023438 204.695312 121.792969 204.554688 C 122.566406 204.410156 123.210938 204.175781 123.730469 203.847656 C 124.25 203.53125 124.675781 203.074219 125.039062 202.496094 C 125.402344 201.914062 125.574219 201.285156 125.574219 200.609375 C 125.574219 199.902344 125.371094 199.273438 124.960938 198.707031 C 124.550781 198.109375 123.921875 197.636719 123.085938 197.292969 Z M 117.953125 193.554688 C 118.28125 193.269531 118.707031 193.128906 119.226562 193.128906 C 119.746094 193.128906 120.15625 193.269531 120.503906 193.570312 C 120.835938 193.851562 120.992188 194.246094 120.992188 194.699219 C 120.992188 195.15625 120.835938 195.515625 120.519531 195.800781 C 120.203125 196.082031 119.792969 196.222656 119.304688 196.222656 C 118.753906 196.222656 118.296875 196.082031 117.96875 195.800781 C 117.636719 195.515625 117.464844 195.140625 117.464844 194.667969 C 117.464844 194.195312 117.621094 193.835938 117.953125 193.554688 Z M 120.660156 201.882812 C 120.25 202.273438 119.792969 202.460938 119.273438 202.460938 C 118.738281 202.460938 118.265625 202.273438 117.839844 201.898438 C 117.433594 201.519531 117.226562 201.03125 117.226562 200.4375 C 117.226562 199.808594 117.433594 199.320312 117.824219 198.941406 C 118.21875 198.582031 118.691406 198.394531 119.226562 198.394531 C 119.761719 198.394531 120.25 198.582031 120.660156 198.957031 C 121.070312 199.335938 121.273438 199.824219 121.273438 200.421875 C 121.257812 201.015625 121.054688 201.503906 120.660156 201.882812 Z M 120.660156 201.882812 "/>
<path style=" stroke:none;fill-rule:nonzero;fill:rgb(0%,48.627451%,21.176471%);fill-opacity:1;" d="M 190.292969 57.515625 C 190.652344 57.609375 191.550781 58.644531 193.695312 57.796875 C 194.464844 57.5 195.519531 56.761719 197.347656 55.644531 C 198.71875 54.84375 197.914062 56.679688 197.695312 57.734375 C 197.363281 59.132812 196.703125 60.59375 196.371094 61.992188 C 196.433594 63 196.75 63.941406 197.757812 65.449219 C 200.609375 65.71875 202.121094 65.355469 202.9375 64.679688 C 202.65625 63.863281 201.253906 64.050781 199.929688 62.777344 C 198.734375 61.519531 199.378906 56.792969 198.417969 55.769531 C 197.960938 55.03125 199.0625 54.703125 199.253906 54.511719 C 199.253906 54.511719 200.199219 53.601562 200.371094 53.742188 C 200.433594 53.789062 200.640625 53.679688 200.703125 53.695312 C 201.976562 53.460938 205.285156 54.890625 205.363281 54.8125 C 206.183594 54.527344 207.003906 53.253906 207.222656 52.21875 C 206.75 51.636719 207.066406 50.019531 206.90625 49.152344 C 207.253906 48.996094 207.726562 48.460938 208.453125 48.054688 C 208.78125 47.867188 209.019531 47.769531 209.347656 47.597656 C 209.679688 47.410156 210.386719 47.722656 211.332031 46.65625 C 211.003906 45.808594 210.8125 44.832031 210.46875 44.015625 C 210.355469 43.75 210.058594 43.652344 209.949219 43.371094 C 209.964844 43.574219 207.664062 45.964844 204.765625 48.367188 C 204.121094 48.917969 201.976562 50.378906 200.324219 51.449219 C 199.222656 51.101562 197.550781 50.160156 197.269531 49.878906 C 197.109375 49.46875 196.734375 48.949219 196.589844 48.542969 C 196.308594 48.429688 196.277344 48.574219 195.992188 48.902344 C 195.914062 50.207031 196.355469 51.417969 196.828125 52.28125 C 196.984375 52.25 197.078125 52.109375 197.222656 52.15625 C 197.632812 52.3125 198.308594 52.546875 198.703125 52.832031 C 198.574219 52.707031 194.230469 56.710938 190.84375 56.320312 C 189.300781 55.988281 188.339844 55.378906 187.753906 54.875 C 187.675781 54.859375 187.691406 55.109375 187.628906 55.125 C 187.316406 55.265625 189.078125 56.839844 190.292969 57.515625 Z M 206.578125 49.3125 C 206.828125 49.910156 206.515625 50.945312 206.152344 51.714844 C 205.960938 52.125 205.300781 52.691406 205.050781 52.925781 C 204.105469 53.113281 203.160156 52.5625 202.230469 52.3125 C 203.570312 51.277344 205.835938 49.957031 206.578125 49.3125 Z M 206.578125 49.3125 "/>
<path style=" stroke:none;fill-rule:nonzero;fill:rgb(0%,48.627451%,21.176471%);fill-opacity:1;" d="M 19.890625 99.832031 C 19.890625 99.832031 19.183594 100.195312 19.371094 100.730469 C 19.972656 100.886719 20.996094 101.214844 20.996094 101.214844 L 21.402344 101.90625 C 21.402344 101.90625 21.703125 101.59375 21.988281 101.453125 C 22.460938 101.5 22.679688 101.609375 22.679688 101.609375 L 23.277344 100.019531 C 23.277344 100.019531 23.027344 99.972656 22.664062 99.800781 C 22.316406 99.628906 22.332031 99.171875 22.332031 99.171875 L 23.5 99.457031 C 23.5 99.457031 24.191406 103.195312 23.390625 105.285156 C 22.757812 106.355469 23.40625 106.085938 23.5 106.261719 C 23.957031 106.054688 25.421875 105.222656 25.421875 105.222656 C 25.421875 105.222656 25.894531 104.847656 25.324219 104.042969 C 24.949219 103.949219 24.207031 100.414062 24.539062 99.753906 C 24.886719 99.675781 25.625 100.039062 25.65625 99.925781 C 25.6875 99.816406 27.121094 103.542969 27.167969 104.46875 C 27.214844 105.394531 28.871094 105.253906 29.277344 104.074219 C 29.671875 102.914062 29.105469 103.335938 28.980469 102.660156 C 28.839844 101.984375 28.726562 101.386719 28.949219 100.761719 C 28.980469 100.648438 33.910156 101.828125 35.65625 101.828125 C 35.894531 101.371094 36.160156 101.214844 34.492188 100.414062 C 33.546875 99.925781 29.167969 98.875 28.839844 98.796875 C 28.839844 98.796875 28.445312 98.386719 29.183594 96.5625 C 29.277344 95.636719 28.035156 95.839844 28.035156 95.839844 L 26.160156 97.035156 C 25.894531 97.585938 24.679688 95.164062 24.585938 91.660156 C 24.207031 90.640625 22.476562 92.589844 22.742188 93.074219 C 23.246094 93.578125 23.484375 95.195312 23.484375 95.195312 L 23.484375 97.269531 L 20.585938 96.5 C 20.394531 96.09375 20.460938 96.375 19.875 96.171875 L 19.121094 96.628906 L 18.835938 96.28125 L 18.695312 95.808594 C 18.695312 95.808594 19.339844 95.085938 20.144531 95.371094 C 20.253906 95.417969 20.003906 95.605469 20.113281 95.730469 C 20.539062 96.078125 20.679688 95.921875 21.183594 95.511719 C 21.859375 95.417969 22.253906 96.894531 22.804688 96.628906 C 22.363281 95.054688 22.523438 95.714844 21.859375 94.601562 L 21.011719 93.578125 L 20.804688 92.886719 C 20.710938 92.589844 20.695312 92.289062 19.734375 92.179688 C 19.6875 92.429688 19.058594 92.621094 19.453125 93.027344 L 19.65625 93.625 C 19.261719 93.765625 18.332031 94.035156 18.222656 94.945312 C 17.8125 94.789062 17.136719 94.332031 17.402344 92.527344 C 17.230469 91.363281 16.492188 91.628906 16.492188 91.628906 C 16.492188 91.628906 14.851562 91.191406 14.710938 91.707031 C 14.570312 92.226562 15.136719 93.089844 15.136719 93.089844 L 16.664062 95.101562 L 16.347656 96.53125 C 15.921875 96.4375 15.9375 96.03125 15.671875 95.792969 C 14.441406 95.589844 13.75 94.898438 11.765625 96.957031 C 12 97.003906 11.558594 97.398438 12.945312 97.570312 C 13.9375 97.382812 15.65625 97.914062 16.175781 98.199219 C 16.128906 99.425781 14.960938 99.910156 16.019531 99.878906 C 17.074219 99.847656 17.640625 99.046875 17.640625 99.046875 L 17.324219 97.539062 L 17.65625 95.902344 L 18.585938 96.910156 C 18.585938 96.910156 17.972656 97.695312 18.144531 98.230469 C 18.175781 98.511719 19.46875 98.324219 20.035156 98.71875 C 19.875 98.703125 19.875 99.519531 19.890625 99.832031 Z M 27.246094 97.980469 C 27.421875 98.058594 27.546875 98.339844 27.5625 98.527344 C 27.390625 98.433594 26.839844 98.386719 26.710938 98.277344 C 26.949219 98.199219 27.074219 97.914062 27.246094 97.980469 Z M 27.796875 100.539062 C 27.878906 101.84375 27.925781 102.441406 27.878906 102.898438 C 27.832031 103.351562 27.734375 103.414062 27.734375 103.414062 C 27.34375 102.738281 27.042969 102.046875 26.757812 101.042969 L 26.617188 100.382812 C 26.445312 100.148438 27.421875 100.460938 27.796875 100.539062 Z M 24.617188 96.15625 L 25.199219 97.835938 C 24.886719 97.804688 24.585938 97.726562 24.398438 97.601562 C 24.445312 96.988281 24.507812 95.839844 24.617188 96.15625 Z M 24.617188 96.15625 "/>
<path style=" stroke:none;fill-rule:nonzero;fill:rgb(0%,48.627451%,21.176471%);fill-opacity:1;" d="M 146.269531 33.347656 C 146.222656 33.296875 147.011719 33.203125 147.453125 32.734375 C 147.703125 32.324219 148.726562 31.867188 150.082031 31.460938 C 149.859375 32.167969 149.59375 32.9375 149.324219 33.503906 C 148.980469 33.753906 149.074219 33.925781 148.996094 34.242188 C 149.214844 34.855469 149.214844 34.886719 149.640625 35.453125 C 149.671875 35.53125 150.773438 36 150.964844 36 C 151.199219 36 151.199219 35.625 151.214844 35.421875 C 151.167969 35.246094 150.917969 35.578125 151.246094 34.242188 C 151.5 33.234375 151.734375 31.980469 152.082031 31.035156 C 153.40625 30.390625 154.726562 30.972656 154.476562 31.191406 C 154.351562 32.417969 153.925781 32.652344 153.5625 33.234375 C 154.191406 33.519531 155.011719 33.691406 155.71875 33.582031 C 155.71875 33.582031 156.824219 32.9375 156.003906 31.269531 C 155.3125 29.652344 152.382812 30.140625 152.382812 30.140625 C 152.523438 29.542969 152.949219 28.269531 153.214844 27.703125 C 153.988281 27.328125 154.710938 27.105469 155.484375 26.730469 C 155.515625 26.351562 155.785156 25.882812 155.5625 25.613281 C 155.640625 24.515625 155.832031 23.824219 155.863281 23.242188 C 155.816406 22.863281 155.59375 22.628906 155.46875 22.378906 C 155.183594 21.96875 154.445312 22.582031 153.925781 23.039062 C 153.34375 24.546875 153.058594 25.269531 152.476562 26.761719 C 151.71875 27.089844 150.902344 27.296875 150.082031 27.53125 C 150.019531 27.4375 150.492188 26.886719 151.863281 26.605469 C 152.285156 26.496094 152.414062 25.804688 152.460938 25.566406 C 152.207031 25.332031 152.128906 25.347656 151.671875 25.285156 C 151.5625 25.144531 152.113281 25.03125 152.222656 24.984375 C 152.773438 24.75 152.789062 24.4375 152.757812 24.058594 C 152.429688 23.648438 151.957031 23.273438 151.292969 22.378906 C 151.058594 22.363281 150.695312 22.707031 150.679688 23.101562 C 150.664062 23.617188 150.980469 24.230469 151.277344 24.453125 C 151.074219 24.8125 150.820312 24.921875 150.269531 25 C 149.625 26.730469 150.570312 25.929688 150.726562 26.335938 C 150.476562 26.621094 149.988281 26.949219 149.53125 27.152344 C 149.261719 27.105469 148.757812 26.792969 148.429688 26.933594 C 148.332031 27.765625 148.492188 27.828125 148.695312 28.632812 C 148.867188 28.773438 149.640625 29.070312 149.84375 29.007812 C 150.476562 28.851562 150.773438 28.332031 151.46875 28.191406 C 151.183594 28.976562 150.851562 29.652344 150.570312 30.4375 C 149.484375 30.707031 148.429688 30.957031 147.183594 31.476562 C 146.726562 31.554688 146.035156 31.097656 144.867188 30.328125 C 144.867188 30.816406 144.648438 31.207031 144.851562 31.632812 C 145.074219 31.804688 145.875 33.378906 146.269531 33.347656 Z M 154.617188 23.367188 C 154.742188 23.304688 154.824219 23.210938 154.949219 23.164062 C 155.011719 23.179688 155.105469 23.226562 155.167969 23.242188 C 155.359375 23.664062 155.296875 24.136719 155.214844 24.6875 C 155.042969 25.160156 155.027344 25.660156 154.855469 26.148438 C 154.554688 26.257812 154.144531 26.511719 153.863281 26.527344 C 153.734375 26.460938 153.71875 26.429688 153.59375 26.367188 C 153.863281 25.332031 154.207031 24.339844 154.617188 23.367188 Z M 154.617188 23.367188 "/>
<path style=" stroke:none;fill-rule:nonzero;fill:rgb(0%,48.627451%,21.176471%);fill-opacity:1;" d="M 147.355469 21.78125 C 147.546875 21.859375 147.78125 21.6875 148.238281 21.652344 C 149.074219 21.589844 150.539062 21.574219 152.128906 21.574219 C 153.847656 21.464844 155.640625 21.324219 157.230469 21.574219 C 157.375 21.796875 156.839844 21.796875 157.042969 22.1875 C 157.609375 21.890625 158.679688 22.015625 160.019531 22.394531 C 160.273438 22.457031 160.570312 22.125 160.933594 21.75 C 161.074219 21.183594 161.136719 20.980469 160.476562 20.191406 C 160.050781 20.097656 159.925781 20.097656 159.5 20.003906 C 159.183594 20.097656 159.328125 20.320312 159.042969 20.351562 C 157.578125 20.554688 156.335938 20.648438 154.917969 20.539062 C 155.59375 20.191406 156.507812 19.675781 157.390625 19.453125 C 158.746094 19.09375 160.050781 18.761719 161.40625 18.402344 C 161.707031 17.710938 161.894531 17.144531 162.035156 16.40625 C 161.546875 16.171875 161.058594 15.933594 160.570312 15.699219 C 159.453125 16.171875 158.710938 16.25 157.703125 16.578125 C 157.121094 16.375 156.554688 16.105469 155.988281 15.902344 C 155.972656 16.59375 155.925781 17.363281 156.289062 17.835938 C 157.246094 18.179688 157.296875 17.882812 157.957031 17.347656 C 158.523438 16.894531 159.421875 16.609375 160.019531 16.171875 C 160.714844 16.265625 160.320312 16.8125 160.191406 16.972656 C 159.421875 17.820312 157.863281 18.371094 156.304688 18.9375 C 155.71875 19.46875 155.027344 19.785156 154.351562 20.003906 C 154.351562 19.644531 154.808594 18.636719 154.808594 18.277344 C 154.902344 18.371094 155.734375 15.054688 156.933594 14.738281 C 157.59375 13.75 156.460938 12.855469 156.460938 12.855469 C 156.792969 12.367188 155.359375 13.734375 154.285156 16.941406 C 154.144531 17.617188 152.773438 16.78125 152.902344 16.972656 L 152.632812 16.46875 C 152.253906 16.21875 151.8125 16.171875 151.828125 16.863281 L 151.878906 17.695312 C 151.941406 19.078125 152.601562 19.078125 153.230469 18.808594 C 153.40625 18.730469 153.390625 18.164062 153.5625 18.101562 C 153.6875 18.054688 153.894531 18.070312 153.925781 18.085938 C 153.863281 18.511719 153.375 19.234375 153.308594 19.675781 C 153.183594 19.769531 153.058594 19.863281 152.949219 19.972656 C 152.996094 20.222656 153.058594 20.460938 153.105469 20.710938 C 151.484375 20.789062 150.902344 21.183594 147.609375 20.804688 C 147.152344 20.632812 146.492188 20.320312 146.035156 20.144531 C 145.71875 20.082031 145.941406 20.914062 147.355469 21.78125 Z M 147.355469 21.78125 "/>
<path style=" stroke:none;fill-rule:nonzero;fill:rgb(0%,48.627451%,21.176471%);fill-opacity:1;" d="M 94.640625 19.578125 C 95.144531 19.484375 95.335938 19.578125 95.710938 19.722656 C 95.808594 19.957031 95.695312 20.019531 95.792969 20.253906 C 96.800781 20.050781 96.878906 19.878906 96.769531 18.683594 C 97.097656 18.589844 97.273438 18.210938 97.601562 18.101562 C 97.808594 17.898438 96.972656 22.25 96.800781 23.054688 C 96.65625 23.824219 97.035156 24.199219 97.761719 23.886719 L 96.753906 28.332031 C 96.753906 28.332031 92.703125 34.949219 93.964844 37.085938 C 94.484375 37.351562 94.972656 36.597656 94.972656 36.597656 C 95.382812 35.921875 95.886719 34.554688 96.265625 33.15625 C 96.894531 30.832031 97.507812 29.511719 97.917969 27.578125 C 98.957031 26.351562 100.25 24.921875 101.304688 24.421875 C 101.335938 25.566406 100.675781 26.382812 100.203125 27.074219 C 99.632812 26.933594 98.941406 27.027344 98.421875 27.234375 C 98.28125 28.632812 98.203125 30.15625 98.359375 31.820312 C 98.40625 32.339844 98.375 33.203125 98.234375 33.328125 C 98.027344 33.488281 98.328125 34.101562 98.359375 34.554688 C 98.5 35.199219 98.894531 35.609375 99.539062 35.75 C 100.027344 35.484375 100.453125 35.277344 100.390625 33.863281 C 100.640625 32.875 100.972656 32.074219 101.351562 31.570312 C 102.3125 32.214844 102.769531 32.796875 103.003906 33.378906 C 103.082031 33.566406 105.085938 32.84375 104.832031 31.570312 C 103.871094 31.445312 102.4375 31.398438 102.011719 30.878906 C 102.832031 30.691406 103.507812 30.15625 103.996094 29.605469 C 103.761719 29.179688 102.925781 28.632812 102.53125 28.519531 C 101.996094 29.480469 101.429688 29.839844 99.714844 30.078125 C 99.808594 30.40625 99.996094 30.878906 99.949219 31.222656 C 100.1875 31.335938 100.453125 31.414062 100.691406 31.523438 C 100.53125 32.027344 100.105469 32.417969 99.871094 32.921875 C 99.335938 31.398438 99.460938 30.21875 99.273438 28.097656 C 99.746094 27.894531 99.996094 28.097656 100.265625 28.503906 C 100.753906 27.988281 101.398438 27.546875 101.652344 27.296875 C 101.964844 26.558594 102.863281 25.332031 102.894531 24.578125 C 102.5 23.980469 102.058594 23.476562 101.226562 23.242188 C 100.816406 23.648438 100.515625 23.746094 100.105469 24.152344 L 98.816406 25.675781 C 99.066406 24.308594 99.460938 22.832031 100.152344 21.339844 C 99.871094 21.152344 99.414062 20.867188 99.195312 21.027344 C 99.019531 21.214844 98.988281 21.449219 98.816406 21.636719 C 98.515625 21.246094 98.53125 20.820312 98.832031 20.429688 C 99.304688 20.664062 99.792969 20.835938 100.28125 20.632812 C 101.210938 18.855469 102.421875 17.082031 103.539062 15.132812 C 103.132812 14.566406 102.832031 14.285156 101.855469 14.300781 C 101.179688 14.550781 100.625 14.851562 100.011719 15.511719 C 99.980469 15.289062 99.933594 15.117188 99.980469 14.929688 C 100.058594 14.519531 100.34375 14.222656 100.28125 13.46875 C 99.507812 12.164062 98.800781 11.738281 98.359375 11.566406 C 97.648438 12.398438 97.304688 13.386719 97.128906 14.441406 C 97.792969 15.429688 97.523438 15.996094 97.695312 16.703125 C 97.539062 16.957031 96.910156 17.316406 96.46875 17.695312 C 95.746094 17.726562 95.710938 16.8125 94.816406 16.625 C 94.375 17.253906 94.925781 18.070312 94.910156 18.714844 C 94.40625 18.855469 94.484375 19.203125 94.640625 19.578125 Z M 94.421875 35.355469 C 94.296875 34.367188 96.105469 31.191406 96.105469 31.191406 C 96.105469 31.191406 95.113281 36.976562 94.421875 35.355469 Z M 99.320312 17.238281 C 99.664062 16.878906 100.941406 16.3125 100.941406 16.3125 C 100.546875 17.207031 100.3125 18.070312 99.257812 19.0625 C 99.160156 19.0625 99.335938 18.023438 99.320312 17.238281 Z M 99.320312 17.238281 "/>
<path style=" stroke:none;fill-rule:nonzero;fill:rgb(0%,48.627451%,21.176471%);fill-opacity:1;" d="M 93.726562 22.410156 C 94.28125 22.832031 95.128906 23.539062 95.207031 23.695312 C 95.289062 23.855469 96.769531 23.304688 95.746094 21.542969 C 94.71875 19.785156 93.871094 19.4375 93.871094 19.4375 L 92.59375 19.578125 C 93.035156 21.246094 93.839844 20.929688 93.726562 22.410156 Z M 93.726562 22.410156 "/>
<path style=" stroke:none;fill-rule:nonzero;fill:rgb(0%,48.627451%,21.176471%);fill-opacity:1;" d="M 49.597656 53.726562 C 48.984375 54.339844 47.34375 54.027344 47.597656 54.402344 C 47.832031 54.78125 48.429688 55.15625 49.28125 55.234375 C 49.753906 55.296875 50.761719 55.566406 51.359375 55.203125 C 51.675781 54.84375 51.785156 54.480469 51.675781 54.136719 C 51.535156 53.710938 51.503906 52.628906 51.878906 52.34375 C 53.597656 54.480469 55.359375 55.925781 57.046875 57.953125 L 57.15625 58.582031 C 58.921875 59.933594 60.289062 60.863281 60.226562 60.21875 C 60.542969 59.367188 59.15625 56.746094 58.464844 56.585938 C 57.753906 55.660156 56.371094 54.136719 54.824219 52.390625 C 54.511719 51.921875 55.597656 49.484375 55.800781 49.074219 L 55.25 48.257812 C 55.488281 45.855469 55.707031 44.925781 56.132812 43.480469 L 55.785156 42.980469 C 55.328125 42.835938 54.921875 42.726562 54.574219 42.789062 L 54.039062 43.433594 C 53.25 44.488281 51.800781 46.890625 51.34375 48.054688 C 48.242188 44.28125 48.652344 44.0625 48.039062 42.507812 C 47.566406 41.722656 44.273438 41.53125 44.273438 42.113281 C 44.273438 42.898438 46.210938 45.523438 50.445312 50.664062 C 49.992188 53.207031 49.550781 53.648438 49.597656 53.726562 Z M 54.257812 44.894531 C 54.699219 44.800781 54.039062 46.355469 54.117188 48.542969 L 53.457031 48.996094 C 53.738281 49.609375 53.785156 50.425781 53.675781 51.101562 C 53.21875 50.570312 52.792969 50.066406 52.382812 49.5 C 52.777344 47.882812 53.328125 46.371094 54.257812 44.894531 Z M 54.257812 44.894531 "/>
<path style=" stroke:none;fill-rule:nonzero;fill:rgb(0%,48.627451%,21.176471%);fill-opacity:1;" d="M 126.234375 6.269531 C 59.804688 6.269531 5.9375 60.011719 5.9375 126.296875 C 5.9375 192.578125 59.804688 246.320312 126.234375 246.320312 C 192.667969 246.320312 246.535156 192.578125 246.535156 126.296875 C 246.535156 60.011719 192.652344 6.269531 126.234375 6.269531 Z M 126.1875 244.484375 C 60.746094 244.484375 7.6875 191.542969 7.6875 126.25 C 7.6875 60.957031 60.746094 8.015625 126.1875 8.015625 C 191.628906 8.015625 244.691406 60.957031 244.691406 126.25 C 244.691406 191.527344 191.628906 244.484375 126.1875 244.484375 Z M 126.1875 244.484375 "/>
<path style=" stroke:none;fill-rule:nonzero;fill:rgb(0%,48.627451%,21.176471%);fill-opacity:1;" d="M 126.1875 0.847656 C 56.792969 0.847656 0.503906 56.996094 0.503906 126.25 C 0.503906 195.484375 56.777344 251.648438 126.1875 251.648438 C 195.582031 251.648438 251.875 195.484375 251.875 126.25 C 251.875 56.996094 195.582031 0.847656 126.1875 0.847656 Z M 126.234375 248.097656 C 58.828125 248.097656 4.140625 193.554688 4.140625 126.28125 C 4.140625 59.007812 58.808594 4.480469 126.234375 4.480469 C 193.660156 4.480469 248.332031 59.023438 248.332031 126.296875 C 248.332031 193.570312 193.644531 248.097656 126.234375 248.097656 Z M 126.234375 248.097656 "/>
<path style=" stroke:none;fill-rule:nonzero;fill:rgb(0%,48.627451%,21.176471%);fill-opacity:1;" d="M 82.402344 161.417969 C 82.433594 161.355469 82.46875 161.292969 82.5 161.230469 C 82.957031 160.332031 83.445312 159.46875 83.851562 158.558594 C 83.933594 158.398438 83.996094 158.226562 84.074219 158.054688 C 87.207031 151.015625 91.949219 136.148438 94.167969 130.128906 C 98.183594 120.449219 103.652344 116.835938 105.460938 115.6875 C 105.824219 115.453125 106.171875 115.203125 106.53125 114.949219 C 112.816406 110.566406 120.882812 109.890625 123.511719 109.703125 C 123.527344 109.703125 123.558594 109.703125 123.574219 109.703125 C 123.890625 109.671875 124.21875 109.605469 124.519531 109.480469 C 127.148438 108.351562 123.699219 107.515625 122.363281 107.359375 C 111.273438 106.101562 99.617188 104.59375 98.296875 90.640625 C 98.089844 88.394531 98.234375 86.113281 98.136719 83.867188 C 98.011719 80.753906 97.730469 77.3125 97.554688 76.71875 C 95.003906 67.382812 86.136719 70.824219 85.835938 71.484375 C 85.867188 71.328125 83.664062 72.929688 84.46875 76.558594 C 85.378906 86.460938 82.734375 113.503906 81.238281 123.75 C 80.859375 126.3125 80.402344 128.886719 79.914062 131.605469 C 77.789062 143.535156 73.945312 157.707031 73.472656 159.234375 C 68.84375 174.710938 64.085938 183.371094 62.023438 184.894531 C 70.167969 185.804688 79.394531 167.308594 82.402344 161.417969 Z M 82.402344 161.417969 "/>
<path style=" stroke:none;fill-rule:nonzero;fill:rgb(0%,48.627451%,21.176471%);fill-opacity:1;" d="M 105.746094 78.179688 C 105.554688 80.144531 105.085938 82.027344 104.878906 83.976562 C 104.34375 89.210938 106.109375 91.914062 106.265625 92.683594 C 111.683594 104.5625 124.125 104.640625 126.15625 104.578125 C 128.1875 104.640625 140.632812 104.578125 146.050781 92.683594 C 146.207031 91.914062 147.972656 89.210938 147.4375 83.976562 C 147.230469 82.027344 146.757812 80.144531 146.570312 78.179688 C 143.734375 49.390625 160.871094 47.175781 160.871094 47.175781 C 160.871094 47.175781 154.949219 42.066406 143.546875 50.082031 C 136.742188 55.15625 136.097656 64.414062 135.9375 67.304688 C 135.90625 67.871094 135.90625 68.355469 135.90625 68.921875 C 135.984375 72.097656 136.457031 83.207031 126.171875 83.882812 C 115.871094 83.207031 116.359375 72.113281 116.425781 68.921875 C 116.441406 68.355469 116.425781 67.855469 116.390625 67.304688 C 116.234375 64.414062 115.589844 55.15625 108.785156 50.082031 C 97.382812 42.066406 91.460938 47.175781 91.460938 47.175781 C 91.460938 47.175781 108.582031 49.40625 105.746094 78.179688 Z M 105.746094 78.179688 "/>
<path style=" stroke:none;fill-rule:nonzero;fill:rgb(0%,48.627451%,21.176471%);fill-opacity:1;" d="M 161.941406 172.558594 C 161.707031 172.230469 161.46875 171.914062 161.25 171.601562 C 160.335938 170.359375 159.53125 169.101562 158.824219 167.734375 C 157.546875 165.28125 155.863281 161.621094 154.585938 157.707031 C 154.429688 157.078125 152.554688 151.03125 151.4375 146.269531 C 151.199219 145.230469 150.996094 144.179688 150.742188 143.125 C 150.097656 140.359375 148.695312 134.859375 146.882812 129.910156 C 146.820312 129.660156 145.277344 125.792969 143.5625 123.371094 C 143.027344 122.617188 142.378906 121.894531 141.75 121.203125 C 139.546875 118.785156 134.332031 113.960938 126.363281 114.007812 C 126.363281 113.960938 126.363281 113.960938 126.363281 114.007812 C 126.285156 114.007812 126.1875 114.007812 126.109375 114.007812 C 126.015625 114.007812 125.9375 114.007812 125.859375 114.007812 C 125.859375 113.960938 125.859375 113.960938 125.859375 114.007812 C 117.890625 113.945312 112.675781 118.769531 110.46875 121.203125 C 109.839844 121.894531 109.195312 122.617188 108.660156 123.371094 C 106.941406 125.808594 105.398438 129.675781 105.335938 129.910156 C 103.539062 134.859375 102.121094 140.359375 101.476562 143.125 C 101.226562 144.164062 101.035156 145.214844 100.785156 146.269531 C 99.664062 151.03125 97.808594 157.078125 97.648438 157.707031 C 96.375 161.621094 94.703125 165.28125 93.414062 167.734375 C 92.703125 169.101562 91.902344 170.359375 90.988281 171.601562 C 90.75 171.914062 90.515625 172.246094 90.292969 172.558594 C 87.253906 176.832031 78.625 187.582031 62.746094 185.945312 C 63.140625 186.121094 67.710938 191.320312 76.230469 191.964844 C 83.617188 192.328125 88.59375 190.128906 89.066406 190.097656 C 95.191406 188.398438 100.515625 182.820312 100.753906 182.570312 C 105.539062 177.980469 109.507812 176.09375 109.605469 175.984375 C 111.761719 174.351562 117.054688 172.808594 117.382812 172.777344 C 121.195312 171.679688 124.597656 171.695312 125.84375 171.742188 L 125.84375 171.773438 C 125.84375 171.773438 125.9375 171.773438 126.09375 171.757812 C 126.253906 171.773438 126.347656 171.773438 126.347656 171.773438 L 126.347656 171.742188 C 127.589844 171.679688 130.992188 171.679688 134.804688 172.777344 C 135.136719 172.808594 140.441406 174.351562 142.585938 175.984375 C 142.679688 176.109375 146.648438 177.980469 151.4375 182.570312 C 151.671875 182.804688 157.011719 188.398438 163.121094 190.097656 C 163.609375 190.128906 168.570312 192.328125 175.976562 191.964844 C 184.480469 191.335938 189.0625 186.136719 189.457031 185.945312 C 173.613281 187.566406 164.980469 176.832031 161.941406 172.558594 Z M 126.394531 153.105469 C 126.394531 153.089844 126.394531 153.058594 126.394531 153.058594 C 126.316406 153.074219 126.21875 153.074219 126.140625 153.074219 C 126.0625 153.074219 125.96875 153.058594 125.890625 153.058594 C 125.890625 153.058594 125.890625 153.089844 125.890625 153.105469 C 115.886719 154.109375 110.4375 160.097656 110.519531 159.703125 C 111.902344 146.644531 115.636719 141.269531 115.636719 141.269531 C 115.636719 141.269531 119.226562 134.277344 126.140625 133.648438 C 133.039062 134.277344 136.648438 141.269531 136.648438 141.269531 C 136.648438 141.269531 140.378906 146.644531 141.765625 159.703125 C 141.84375 160.082031 136.394531 154.09375 126.394531 153.105469 Z M 126.394531 153.105469 "/>
<path style=" stroke:none;fill-rule:nonzero;fill:rgb(0%,48.627451%,21.176471%);fill-opacity:1;" d="M 154.742188 76.703125 C 154.570312 77.3125 154.285156 80.738281 154.160156 83.851562 C 154.066406 86.097656 154.207031 88.378906 154.003906 90.625 C 152.679688 104.578125 141.007812 106.085938 129.9375 107.34375 C 128.597656 107.5 125.148438 108.335938 127.78125 109.464844 C 128.078125 109.589844 128.394531 109.671875 128.726562 109.6875 C 128.742188 109.6875 128.773438 109.6875 128.789062 109.6875 C 131.402344 109.890625 139.464844 110.550781 145.765625 114.933594 C 146.128906 115.1875 146.460938 115.4375 146.835938 115.671875 C 148.648438 116.820312 154.128906 120.433594 158.128906 130.113281 C 160.351562 136.132812 165.089844 151 168.226562 158.039062 C 168.304688 158.210938 168.367188 158.367188 168.445312 158.542969 C 168.871094 159.453125 169.359375 160.316406 169.816406 161.210938 C 169.847656 161.277344 169.878906 161.339844 169.910156 161.402344 C 172.902344 167.292969 182.132812 185.789062 190.292969 184.863281 C 188.226562 183.355469 183.472656 174.679688 178.839844 159.203125 C 178.382812 157.675781 174.527344 143.488281 172.398438 131.574219 C 171.910156 128.855469 171.453125 126.28125 171.078125 123.71875 C 169.566406 113.457031 166.933594 86.429688 167.847656 76.527344 C 168.667969 72.898438 166.460938 71.296875 166.476562 71.453125 C 166.164062 70.808594 157.296875 67.367188 154.742188 76.703125 Z M 154.742188 76.703125 "/>
<path style=" stroke:none;fill-rule:nonzero;fill:rgb(0%,48.627451%,21.176471%);fill-opacity:1;" d="M 162.019531 222.214844 L 161.910156 232.523438 L 159.910156 230.246094 C 159.816406 230.121094 159.625 229.960938 159.359375 229.773438 C 159.089844 229.570312 158.902344 229.460938 158.777344 229.414062 C 158.585938 229.335938 158.320312 229.289062 157.957031 229.269531 C 158.351562 229.066406 158.648438 228.847656 158.855469 228.628906 C 159.167969 228.28125 159.390625 227.902344 159.5 227.464844 C 159.609375 227.023438 159.609375 226.539062 159.46875 226.019531 C 159.3125 225.421875 159.042969 224.949219 158.648438 224.621094 C 158.257812 224.273438 157.816406 224.101562 157.3125 224.070312 C 156.808594 224.039062 156.128906 224.148438 155.246094 224.382812 L 150.554688 225.6875 L 152.996094 235.101562 L 155.832031 234.316406 L 154.839844 230.496094 L 155.089844 230.433594 C 155.34375 230.355469 155.59375 230.371094 155.832031 230.464844 C 156.003906 230.527344 156.238281 230.734375 156.523438 231.046875 L 158.777344 233.5 L 161.894531 232.632812 L 161.941406 232.617188 L 161.957031 232.617188 L 164.683594 231.597656 L 164.585938 229.914062 L 167.707031 228.738281 L 168.683594 230.089844 L 171.550781 229.019531 L 164.980469 221.117188 Z M 156.679688 227.605469 C 156.601562 227.792969 156.476562 227.9375 156.304688 228.03125 C 155.957031 228.21875 155.71875 228.328125 155.59375 228.359375 L 154.414062 228.691406 L 153.910156 226.773438 L 155.136719 226.425781 C 155.65625 226.285156 156.019531 226.269531 156.253906 226.378906 C 156.492188 226.488281 156.632812 226.695312 156.710938 227.007812 C 156.757812 227.230469 156.757812 227.417969 156.679688 227.605469 Z M 164.507812 227.683594 L 164.320312 224.023438 L 166.460938 226.945312 Z M 164.507812 227.683594 "/>
<path style=" stroke:none;fill-rule:nonzero;fill:rgb(0%,48.627451%,21.176471%);fill-opacity:1;" d="M 149.625 225.878906 L 146.742188 226.347656 L 147.640625 232.226562 C 147.71875 232.761719 147.640625 233.199219 147.402344 233.53125 C 147.167969 233.875 146.804688 234.078125 146.300781 234.160156 C 145.796875 234.238281 145.386719 234.160156 145.058594 233.90625 C 144.726562 233.65625 144.523438 233.277344 144.441406 232.746094 L 143.546875 226.867188 L 140.679688 227.339844 L 141.5625 233.074219 C 141.640625 233.546875 141.8125 234.078125 142.082031 234.660156 C 142.253906 235.023438 142.507812 235.351562 142.867188 235.667969 C 143.230469 235.964844 143.59375 236.203125 143.988281 236.328125 C 144.378906 236.46875 144.835938 236.53125 145.386719 236.5 C 145.941406 236.484375 146.429688 236.421875 146.882812 236.359375 C 147.671875 236.234375 148.316406 236.011719 148.851562 235.714844 C 149.230469 235.496094 149.578125 235.164062 149.894531 234.722656 C 150.207031 234.285156 150.398438 233.796875 150.492188 233.261719 C 150.585938 232.730469 150.585938 232.179688 150.507812 231.613281 Z M 149.625 225.878906 "/>
<path style=" stroke:none;fill-rule:nonzero;fill:rgb(0%,48.627451%,21.176471%);fill-opacity:1;" d="M 174.179688 225.21875 L 171.171875 218.570312 L 168.523438 219.84375 L 172.507812 228.660156 L 179.28125 225.40625 L 178.289062 223.238281 Z M 174.179688 225.21875 "/>
<path style=" stroke:none;fill-rule:nonzero;fill:rgb(0%,48.627451%,21.176471%);fill-opacity:1;" d="M 193.378906 211.9375 L 190.070312 207.238281 L 187.707031 209 L 191.09375 213.808594 C 191.394531 214.25 191.519531 214.671875 191.457031 215.082031 C 191.394531 215.488281 191.15625 215.851562 190.75 216.148438 C 190.339844 216.464844 189.929688 216.574219 189.535156 216.511719 C 189.140625 216.449219 188.78125 216.195312 188.480469 215.757812 L 185.09375 210.949219 L 182.730469 212.707031 L 186.039062 217.40625 C 186.308594 217.800781 186.699219 218.175781 187.1875 218.570312 C 187.503906 218.804688 187.882812 218.996094 188.339844 219.105469 C 188.796875 219.214844 189.21875 219.246094 189.628906 219.183594 C 190.039062 219.121094 190.480469 218.945312 190.953125 218.679688 C 191.425781 218.414062 191.851562 218.128906 192.230469 217.847656 C 192.875 217.359375 193.363281 216.855469 193.695312 216.339844 C 193.929688 215.960938 194.101562 215.503906 194.183594 214.972656 C 194.261719 214.4375 194.230469 213.902344 194.070312 213.382812 C 193.945312 212.898438 193.710938 212.410156 193.378906 211.9375 Z M 193.378906 211.9375 "/>
<path style=" stroke:none;fill-rule:nonzero;fill:rgb(0%,48.627451%,21.176471%);fill-opacity:1;" d="M 140.160156 227.417969 L 131.324219 228.0625 L 131.480469 230.449219 L 134.457031 230.246094 L 134.945312 237.554688 L 137.859375 237.347656 L 137.355469 230.027344 L 140.332031 229.820312 Z M 140.160156 227.417969 "/>
<path style=" stroke:none;fill-rule:nonzero;fill:rgb(0%,48.627451%,21.176471%);fill-opacity:1;" d="M 127.355469 235.527344 L 127.101562 228.1875 L 124.1875 228.296875 L 124.519531 238.023438 L 131.984375 237.757812 L 131.90625 235.367188 Z M 127.355469 235.527344 "/>
<path style=" stroke:none;fill-rule:nonzero;fill:rgb(0%,48.627451%,21.176471%);fill-opacity:1;" d="M 195.804688 202.527344 L 199.222656 206.597656 L 193.125 204.929688 L 191.0625 206.785156 L 197.253906 214.136719 L 199.332031 212.285156 L 195.929688 208.246094 L 201.992188 209.878906 L 204.074219 208.027344 L 197.882812 200.671875 Z M 195.804688 202.527344 "/>
<path style=" stroke:none;fill-rule:nonzero;fill:rgb(0%,48.627451%,21.176471%);fill-opacity:1;" d="M 226.152344 142.8125 L 225.761719 146.113281 L 228.691406 148.453125 L 225.304688 150.007812 L 224.910156 153.230469 L 224.800781 153.199219 L 222.65625 162.078125 L 224.910156 162.660156 L 225.632812 159.671875 L 232.53125 161.449219 L 233.226562 158.527344 L 226.328125 156.75 L 227.050781 153.78125 L 225.035156 153.261719 L 230.800781 150.246094 L 234.722656 150.746094 L 235.070312 147.746094 L 231.148438 147.257812 Z M 226.152344 142.8125 "/>
<path style=" stroke:none;fill-rule:nonzero;fill:rgb(0%,48.627451%,21.176471%);fill-opacity:1;" d="M 199.078125 199.539062 L 205.632812 206.546875 L 207.742188 204.441406 L 201.191406 197.433594 Z M 199.078125 199.539062 "/>
<path style=" stroke:none;fill-rule:nonzero;fill:rgb(0%,48.627451%,21.176471%);fill-opacity:1;" d="M 221.398438 165.25 L 230.265625 168.582031 L 231.273438 165.753906 L 222.40625 162.421875 Z M 221.398438 165.25 "/>
<path style=" stroke:none;fill-rule:nonzero;fill:rgb(0%,48.627451%,21.176471%);fill-opacity:1;" d="M 119.921875 233.84375 C 119.890625 234.378906 119.714844 234.789062 119.417969 235.070312 C 119.117188 235.335938 118.707031 235.460938 118.203125 235.429688 C 117.699219 235.398438 117.304688 235.210938 117.054688 234.898438 C 116.785156 234.582031 116.675781 234.160156 116.707031 233.625 L 117.117188 227.699219 L 114.21875 227.496094 L 113.824219 233.277344 C 113.792969 233.75 113.839844 234.316406 113.984375 234.945312 C 114.078125 235.335938 114.25 235.730469 114.535156 236.105469 C 114.816406 236.484375 115.132812 236.796875 115.480469 237.019531 C 115.824219 237.238281 116.265625 237.410156 116.800781 237.503906 C 117.335938 237.617188 117.839844 237.679688 118.296875 237.710938 C 119.085938 237.757812 119.777344 237.710938 120.363281 237.539062 C 120.785156 237.410156 121.179688 237.175781 121.589844 236.8125 C 121.984375 236.453125 122.28125 236.027344 122.488281 235.542969 C 122.691406 235.039062 122.820312 234.503906 122.867188 233.9375 L 123.257812 228.140625 L 120.363281 227.9375 Z M 119.921875 233.84375 "/>
<path style=" stroke:none;fill-rule:nonzero;fill:rgb(0%,48.627451%,21.176471%);fill-opacity:1;" d="M 226.878906 168.804688 C 226.40625 168.597656 225.917969 168.519531 225.445312 168.597656 C 224.957031 168.675781 224.484375 168.914062 224.011719 169.320312 C 223.539062 169.730469 222.925781 170.484375 222.167969 171.585938 C 221.871094 172.039062 221.632812 172.292969 221.460938 172.371094 C 221.289062 172.464844 221.144531 172.464844 221.003906 172.402344 C 220.816406 172.324219 220.6875 172.164062 220.625 171.945312 C 220.5625 171.726562 220.59375 171.457031 220.734375 171.128906 C 220.894531 170.734375 221.113281 170.46875 221.382812 170.328125 C 221.648438 170.1875 221.996094 170.152344 222.421875 170.265625 L 223.351562 167.59375 C 222.40625 167.308594 221.601562 167.386719 220.941406 167.796875 C 220.28125 168.222656 219.710938 169.007812 219.238281 170.152344 C 218.863281 171.082031 218.671875 171.867188 218.671875 172.511719 C 218.6875 173.15625 218.832031 173.691406 219.113281 174.128906 C 219.398438 174.570312 219.757812 174.882812 220.214844 175.089844 C 220.894531 175.386719 221.554688 175.371094 222.214844 175.042969 C 222.863281 174.710938 223.570312 174.003906 224.34375 172.902344 C 224.816406 172.230469 225.160156 171.835938 225.429688 171.710938 C 225.683594 171.585938 225.933594 171.570312 226.152344 171.664062 C 226.390625 171.773438 226.546875 171.960938 226.640625 172.261719 C 226.738281 172.558594 226.707031 172.902344 226.53125 173.296875 C 226.3125 173.832031 225.964844 174.160156 225.507812 174.289062 C 225.226562 174.367188 224.863281 174.351562 224.421875 174.222656 L 223.492188 176.925781 C 224.40625 177.242188 225.257812 177.226562 226.074219 176.878906 C 226.878906 176.550781 227.601562 175.605469 228.234375 174.082031 C 228.59375 173.21875 228.769531 172.433594 228.753906 171.757812 C 228.753906 171.082031 228.5625 170.484375 228.234375 169.949219 C 227.886719 169.429688 227.429688 169.039062 226.878906 168.804688 Z M 226.878906 168.804688 "/>
<path style=" stroke:none;fill-rule:nonzero;fill:rgb(0%,48.627451%,21.176471%);fill-opacity:1;" d="M 215.839844 191.335938 L 214.324219 190.238281 L 216.925781 186.402344 L 215.351562 185.269531 L 212.75 189.105469 L 211.523438 188.210938 L 214.324219 184.078125 L 212.671875 182.882812 L 208.183594 189.484375 L 208.199219 189.5 L 206.339844 191.699219 L 210.089844 197.9375 L 203.570312 194.984375 L 201.570312 197.355469 L 211.035156 200.96875 L 213.113281 198.519531 L 208.417969 189.65625 L 215.917969 195.078125 L 220.484375 188.351562 L 218.734375 187.078125 Z M 215.839844 191.335938 "/>
<path style=" stroke:none;fill-rule:nonzero;fill:rgb(0%,48.627451%,21.176471%);fill-opacity:1;" d="M 222.265625 178.5625 C 221.933594 178.625 221.726562 178.671875 221.601562 178.734375 C 221.429688 178.828125 221.191406 178.984375 220.925781 179.238281 C 221.050781 178.796875 221.097656 178.4375 221.097656 178.121094 C 221.082031 177.648438 220.957031 177.226562 220.734375 176.832031 C 220.515625 176.441406 220.167969 176.109375 219.710938 175.859375 C 219.191406 175.558594 218.671875 175.433594 218.167969 175.496094 C 217.664062 175.542969 217.222656 175.75 216.863281 176.109375 C 216.5 176.457031 216.089844 177.039062 215.664062 177.855469 L 213.300781 182.238281 L 221.554688 186.953125 L 222.972656 184.3125 L 219.617188 182.394531 L 219.742188 182.160156 C 219.886719 181.925781 220.058594 181.734375 220.28125 181.625 C 220.453125 181.546875 220.753906 181.5 221.175781 181.515625 L 224.453125 181.546875 L 226.042969 178.578125 L 222.972656 178.484375 C 222.816406 178.46875 222.59375 178.5 222.265625 178.5625 Z M 218.65625 180.382812 L 218.058594 181.5 L 216.375 180.542969 L 217.003906 179.378906 C 217.253906 178.890625 217.507812 178.609375 217.742188 178.515625 C 217.980469 178.421875 218.230469 178.453125 218.5 178.609375 C 218.6875 178.703125 218.816406 178.859375 218.894531 179.046875 C 218.972656 179.238281 218.988281 179.425781 218.925781 179.628906 C 218.816406 180.023438 218.71875 180.273438 218.65625 180.382812 Z M 218.65625 180.382812 "/>
<path style=" stroke:none;fill-rule:nonzero;fill:rgb(0%,48.627451%,21.176471%);fill-opacity:1;" d="M 97.980469 228.5 C 98.3125 228.1875 98.546875 227.777344 98.691406 227.261719 C 98.863281 226.664062 98.878906 226.113281 98.722656 225.625 C 98.5625 225.121094 98.28125 224.730469 97.871094 224.429688 C 97.460938 224.132812 96.832031 223.851562 95.964844 223.582031 L 91.320312 222.121094 L 88.5625 231.441406 L 91.367188 232.320312 L 92.484375 228.53125 L 92.734375 228.613281 C 92.988281 228.691406 93.191406 228.832031 93.351562 229.035156 C 93.460938 229.191406 93.570312 229.492188 93.648438 229.914062 L 94.296875 233.230469 L 97.445312 234.222656 L 96.894531 231.09375 C 96.863281 230.9375 96.800781 230.703125 96.671875 230.386719 C 96.546875 230.074219 96.453125 229.867188 96.375 229.757812 C 96.25 229.601562 96.042969 229.398438 95.746094 229.175781 C 96.183594 229.207031 96.546875 229.191406 96.832031 229.113281 C 97.273438 229.019531 97.648438 228.816406 97.980469 228.5 Z M 95.824219 226.617188 C 95.761719 226.820312 95.648438 226.976562 95.492188 227.101562 C 95.335938 227.230469 95.144531 227.277344 94.957031 227.261719 C 94.5625 227.230469 94.3125 227.195312 94.183594 227.148438 L 93.003906 226.773438 L 93.570312 224.886719 L 94.800781 225.265625 C 95.304688 225.421875 95.632812 225.609375 95.761719 225.828125 C 95.886719 226.050781 95.917969 226.316406 95.824219 226.617188 Z M 95.824219 226.617188 "/>
<path style=" stroke:none;fill-rule:nonzero;fill:rgb(0%,48.627451%,21.176471%);fill-opacity:1;" d="M 29.71875 177.917969 L 37.042969 180.195312 L 38.730469 179.316406 L 34.980469 171.726562 L 33.183594 172.667969 L 35.328125 177.019531 L 28.082031 174.757812 L 26.335938 175.6875 L 30.398438 183.921875 L 32.207031 182.960938 Z M 29.71875 177.917969 "/>
<path style=" stroke:none;fill-rule:nonzero;fill:rgb(0%,48.627451%,21.176471%);fill-opacity:1;" d="M 42.667969 185.398438 L 39.957031 187.363281 L 38.128906 184.660156 L 40.839844 182.710938 L 39.171875 180.242188 L 31.4375 185.820312 L 33.105469 188.289062 L 36.242188 186.027344 L 38.066406 188.730469 L 34.933594 190.992188 L 36.617188 193.457031 L 44.351562 187.878906 Z M 42.667969 185.398438 "/>
<path style=" stroke:none;fill-rule:nonzero;fill:rgb(0%,48.627451%,21.176471%);fill-opacity:1;" d="M 47.535156 199.101562 C 48.683594 198.078125 49.296875 196.929688 49.375 195.707031 C 49.453125 194.464844 48.984375 193.238281 47.941406 192.011719 C 46.933594 190.820312 45.832031 190.175781 44.621094 190.097656 C 43.40625 190 42.226562 190.488281 41.058594 191.527344 C 40.226562 192.265625 39.675781 193.066406 39.40625 193.898438 C 39.140625 194.730469 39.105469 195.53125 39.3125 196.304688 C 39.515625 197.074219 39.957031 197.875 40.667969 198.707031 C 41.359375 199.523438 42.066406 200.074219 42.824219 200.355469 C 43.582031 200.640625 44.351562 200.6875 45.125 200.5 C 45.894531 200.308594 46.699219 199.839844 47.535156 199.101562 Z M 43.660156 197.875 C 43.125 197.890625 42.652344 197.636719 42.242188 197.152344 C 41.847656 196.679688 41.675781 196.160156 41.769531 195.597656 C 41.847656 195.03125 42.257812 194.433594 42.964844 193.789062 C 43.691406 193.144531 44.320312 192.8125 44.871094 192.796875 C 45.421875 192.796875 45.878906 193.019531 46.273438 193.472656 C 46.683594 193.960938 46.839844 194.464844 46.761719 195.03125 C 46.683594 195.578125 46.320312 196.160156 45.644531 196.773438 C 44.855469 197.511719 44.195312 197.875 43.660156 197.875 Z M 43.660156 197.875 "/>
<path style=" stroke:none;fill-rule:nonzero;fill:rgb(0%,48.627451%,21.176471%);fill-opacity:1;" d="M 24.207031 164.417969 C 24.726562 164.464844 25.261719 164.417969 25.796875 164.292969 L 31.265625 162.894531 L 30.554688 159.988281 L 24.964844 161.433594 C 24.460938 161.558594 24.035156 161.527344 23.6875 161.308594 C 23.339844 161.085938 23.105469 160.742188 22.980469 160.238281 C 22.851562 159.734375 22.902344 159.296875 23.121094 158.933594 C 23.324219 158.574219 23.6875 158.335938 24.191406 158.210938 L 29.785156 156.78125 L 29.074219 153.875 L 23.625 155.226562 C 23.167969 155.335938 22.679688 155.570312 22.144531 155.902344 C 21.8125 156.105469 21.515625 156.402344 21.246094 156.796875 C 20.980469 157.191406 20.789062 157.582031 20.695312 158.007812 C 20.601562 158.414062 20.585938 158.902344 20.648438 159.46875 C 20.710938 160.035156 20.804688 160.539062 20.914062 160.992188 C 21.105469 161.792969 21.371094 162.4375 21.71875 162.957031 C 21.972656 163.335938 22.316406 163.648438 22.757812 163.929688 C 23.199219 164.199219 23.6875 164.371094 24.207031 164.417969 Z M 24.207031 164.417969 "/>
<path style=" stroke:none;fill-rule:nonzero;fill:rgb(0%,48.627451%,21.176471%);fill-opacity:1;" d="M 107.382812 229.367188 C 107.808594 228.878906 108.359375 228.691406 109.003906 228.800781 C 109.289062 228.847656 109.542969 228.957031 109.761719 229.113281 C 109.964844 229.269531 110.140625 229.476562 110.265625 229.742188 C 110.34375 229.898438 110.40625 230.121094 110.4375 230.433594 L 113.070312 230.261719 C 112.894531 229.191406 112.519531 228.359375 111.917969 227.761719 C 111.320312 227.164062 110.4375 226.773438 109.257812 226.570312 C 107.761719 226.316406 106.53125 226.570312 105.570312 227.277344 C 104.628906 228 104.027344 229.144531 103.777344 230.75 C 103.585938 231.941406 103.683594 232.964844 104.027344 233.796875 C 104.375 234.644531 104.847656 235.273438 105.445312 235.683594 C 106.042969 236.089844 106.847656 236.375 107.855469 236.546875 C 108.691406 236.6875 109.398438 236.671875 109.980469 236.515625 C 110.566406 236.359375 111.070312 236.058594 111.511719 235.636719 C 111.949219 235.210938 112.3125 234.644531 112.597656 233.9375 L 110.1875 232.746094 C 109.964844 233.324219 109.699219 233.765625 109.351562 234.03125 C 109.023438 234.300781 108.582031 234.394531 108.027344 234.300781 C 107.460938 234.207031 107.054688 233.9375 106.800781 233.484375 C 106.546875 233.042969 106.5 232.273438 106.660156 231.21875 C 106.832031 230.339844 107.054688 229.726562 107.382812 229.367188 Z M 107.382812 229.367188 "/>
<path style=" stroke:none;fill-rule:nonzero;fill:rgb(0%,48.627451%,21.176471%);fill-opacity:1;" d="M 56.054688 201.03125 L 52.433594 204.898438 L 53.503906 198.488281 L 51.535156 196.523438 L 44.980469 203.53125 L 46.949219 205.496094 L 50.558594 201.644531 L 49.503906 208.042969 L 51.472656 210.003906 L 58.023438 202.996094 Z M 56.054688 201.03125 "/>
<path style=" stroke:none;fill-rule:nonzero;fill:rgb(0%,48.627451%,21.176471%);fill-opacity:1;" d="M 32.523438 165.800781 L 22.445312 165.691406 L 23.46875 168.582031 L 25.089844 168.472656 L 26.222656 171.695312 L 24.917969 172.699219 L 25.957031 175.652344 L 33.609375 168.882812 Z M 27.925781 170.390625 L 27.214844 168.378906 L 30.757812 168.191406 Z M 27.925781 170.390625 "/>
<path style=" stroke:none;fill-rule:nonzero;fill:rgb(0%,48.627451%,21.176471%);fill-opacity:1;" d="M 98.515625 234.488281 L 101.367188 235.117188 L 103.335938 225.59375 L 100.46875 224.964844 Z M 98.515625 234.488281 "/>
<path style=" stroke:none;fill-rule:nonzero;fill:rgb(0%,48.627451%,21.176471%);fill-opacity:1;" d="M 28.398438 149.929688 L 25.121094 150.402344 L 24.679688 147.148438 L 27.957031 146.675781 L 27.546875 143.691406 L 18.207031 145.042969 L 18.601562 148.027344 L 22.378906 147.480469 L 22.835938 150.730469 L 19.058594 151.28125 L 19.46875 154.28125 L 28.808594 152.929688 Z M 28.398438 149.929688 "/>
<path style=" stroke:none;fill-rule:nonzero;fill:rgb(0%,48.627451%,21.176471%);fill-opacity:1;" d="M 68.589844 222.152344 L 71.222656 223.597656 L 72.355469 222.402344 L 75.285156 224.007812 L 74.953125 225.65625 L 77.648438 227.132812 L 78.9375 216.808594 L 76.136719 215.269531 Z M 75.695312 221.855469 L 73.851562 220.847656 L 76.355469 218.253906 Z M 75.695312 221.855469 "/>
<path style=" stroke:none;fill-rule:nonzero;fill:rgb(0%,48.627451%,21.176471%);fill-opacity:1;" d="M 62.746094 206.390625 C 61.898438 205.699219 61.125 205.277344 60.433594 205.117188 C 59.550781 204.914062 58.699219 204.992188 57.898438 205.339844 C 57.09375 205.683594 56.371094 206.28125 55.738281 207.128906 C 55.140625 207.929688 54.761719 208.75 54.605469 209.613281 C 54.449219 210.476562 54.527344 211.277344 54.855469 212.046875 C 55.171875 212.804688 55.785156 213.542969 56.667969 214.25 C 57.378906 214.828125 58.070312 215.238281 58.730469 215.488281 C 59.378906 215.742188 60.226562 215.898438 61.265625 215.960938 L 63.742188 212.691406 L 60.195312 209.832031 L 58.984375 211.421875 L 60.511719 212.660156 L 59.960938 213.382812 C 59.519531 213.320312 59.15625 213.242188 58.859375 213.132812 C 58.574219 213.023438 58.289062 212.867188 58.039062 212.660156 C 57.503906 212.222656 57.203125 211.703125 57.171875 211.105469 C 57.140625 210.507812 57.441406 209.785156 58.070312 208.953125 C 58.667969 208.167969 59.25 207.726562 59.820312 207.601562 C 60.386719 207.476562 60.9375 207.617188 61.441406 208.027344 C 61.773438 208.292969 61.992188 208.589844 62.101562 208.921875 C 62.195312 209.25 62.195312 209.597656 62.070312 209.957031 L 64.589844 211.339844 C 64.828125 210.730469 64.9375 210.164062 64.921875 209.628906 C 64.890625 209.09375 64.734375 208.574219 64.449219 208.105469 C 64.117188 207.632812 63.566406 207.050781 62.746094 206.390625 Z M 62.746094 206.390625 "/>
<path style=" stroke:none;fill-rule:nonzero;fill:rgb(0%,48.627451%,21.176471%);fill-opacity:1;" d="M 84.71875 224.101562 L 83.980469 225.972656 L 85.789062 226.726562 L 85.460938 227.574219 C 85.019531 227.636719 84.640625 227.667969 84.339844 227.636719 C 84.027344 227.621094 83.726562 227.542969 83.429688 227.417969 C 82.796875 227.148438 82.371094 226.726562 82.183594 226.160156 C 81.996094 225.59375 82.089844 224.824219 82.46875 223.835938 C 82.828125 222.90625 83.269531 222.308594 83.789062 222.042969 C 84.308594 221.761719 84.859375 221.746094 85.460938 221.996094 C 85.851562 222.152344 86.152344 222.386719 86.324219 222.671875 C 86.515625 222.953125 86.59375 223.300781 86.5625 223.675781 L 89.351562 224.289062 C 89.414062 223.644531 89.367188 223.0625 89.207031 222.546875 C 89.035156 222.027344 88.75 221.585938 88.339844 221.210938 C 87.933594 220.832031 87.238281 220.441406 86.277344 220.03125 C 85.269531 219.605469 84.421875 219.433594 83.710938 219.464844 C 82.796875 219.527344 82.011719 219.84375 81.332031 220.410156 C 80.65625 220.972656 80.121094 221.746094 79.742188 222.734375 C 79.378906 223.660156 79.238281 224.574219 79.316406 225.453125 C 79.394531 226.332031 79.679688 227.085938 80.199219 227.714844 C 80.703125 228.359375 81.492188 228.894531 82.53125 229.320312 C 83.363281 229.664062 84.136719 229.867188 84.828125 229.914062 C 85.523438 229.980469 86.371094 229.882812 87.398438 229.648438 L 88.910156 225.796875 Z M 84.71875 224.101562 "/>
</g>
</svg>
