<?xml version="1.0" encoding="UTF-8"?>
<svg xmlns="http://www.w3.org/2000/svg" xmlns:xlink="http://www.w3.org/1999/xlink" width="252pt" height="252pt" viewBox="0 0 252 252" version="1.1">
<g id="surface1">
<path style=" stroke:none;fill-rule:nonzero;fill:rgb(0%,36.470588%,54.509804%);fill-opacity:1;" d="M 161.210938 47.855469 C 161.777344 47.953125 162.640625 48.050781 162.902344 48.011719 C 163.167969 47.972656 164.3125 47.660156 164.664062 47.582031 C 165.015625 47.492188 166.433594 46.996094 166.84375 46.734375 C 167.265625 46.480469 168.195312 45.90625 168.714844 45.457031 C 169.234375 45.007812 169.898438 44.355469 170.152344 44.445312 C 170.40625 44.542969 170.328125 44.96875 170.378906 45.449219 C 170.4375 45.914062 170.25 46.394531 170.132812 47.550781 C 170.015625 48.710938 170.230469 50.554688 170.5625 51.195312 C 170.894531 51.839844 171.980469 51.945312 172.460938 51.898438 C 172.949219 51.847656 174.398438 51.34375 174.867188 51.136719 C 175.335938 50.933594 176.34375 50.59375 176.394531 50.261719 C 176.441406 49.929688 175.824219 49.746094 175.113281 49.597656 C 174.40625 49.453125 173.371094 49.015625 172.753906 48.300781 C 172.136719 47.589844 172.089844 46.507812 171.855469 45.507812 C 171.628906 44.511719 171.109375 44.21875 170.816406 43.847656 C 170.535156 43.46875 170.992188 43.039062 171.375 42.835938 C 171.757812 42.632812 172.6875 42.738281 173.710938 42.808594 C 174.730469 42.875 176.84375 42.914062 177.949219 42.953125 C 179.054688 42.992188 179.40625 42.523438 179.679688 41.96875 C 179.964844 41.414062 179.582031 40.613281 179.074219 39.902344 C 178.554688 39.191406 178.308594 39.601562 177.949219 40.183594 C 177.585938 40.769531 177.15625 41.21875 176.550781 41.285156 C 175.445312 41.414062 174.679688 41.402344 173.96875 41.265625 C 173.417969 41.167969 173.007812 40.683594 173.136719 40.417969 C 173.253906 40.15625 173.761719 39.933594 174.230469 39.523438 C 174.699219 39.113281 175.230469 38.324219 175.550781 38.109375 C 175.875 37.90625 176.8125 36.8125 177.597656 35.769531 C 178.371094 34.71875 178.867188 33.824219 178.371094 32.917969 C 177.773438 31.824219 177.078125 30.664062 176.792969 31.074219 C 176.539062 31.445312 176.675781 31.902344 176.082031 32.90625 C 175.660156 33.609375 173.8125 36.734375 172.285156 38.929688 C 170.757812 41.121094 169.9375 40.789062 169.417969 40.886719 C 168.898438 40.984375 167.070312 41.296875 165.820312 41.238281 C 164.753906 41.1875 163.863281 40.625 163.421875 40.457031 C 162.933594 40.28125 162.386719 40.613281 161.601562 41.109375 C 160.820312 41.597656 160.722656 42.171875 161.417969 42.769531 C 162.109375 43.351562 163.109375 43.175781 163.609375 43.03125 C 164.105469 42.882812 165.78125 42.933594 166.40625 42.835938 C 167.03125 42.738281 167.941406 42.574219 168.167969 42.769531 C 168.390625 42.972656 167.910156 43.644531 167.773438 43.722656 C 167.636719 43.808594 166.972656 44.355469 166.113281 44.988281 C 165.25 45.621094 163.089844 46.140625 161.75 46.070312 C 160.410156 46.003906 159.832031 45.320312 159.3125 45.371094 C 158.785156 45.410156 158.914062 45.582031 159.167969 46.304688 C 159.421875 46.996094 160.644531 47.757812 161.210938 47.855469 "/>
<path style=" stroke:none;fill-rule:nonzero;fill:rgb(0%,36.470588%,54.509804%);fill-opacity:1;" d="M 41.125 54.722656 C 42.003906 54.792969 42.25 55.28125 42.914062 56.214844 C 43.570312 57.140625 46.835938 61.625 48.148438 63.261719 C 49.449219 64.90625 50.164062 66.261719 50.125 66.777344 C 50.054688 67.820312 50.457031 71.359375 50.808594 72.496094 C 51.101562 73.480469 50.347656 73.492188 49.800781 73.21875 C 49.261719 72.964844 47.167969 72.59375 46.671875 72.449219 C 46.144531 72.273438 45.429688 72.34375 45.378906 72.664062 C 45.28125 73.257812 46.574219 74.085938 47.914062 75.167969 C 49.222656 76.21875 51.808594 78.03125 54.164062 78.753906 C 56.070312 79.328125 56.835938 79.417969 57.234375 78.871094 C 57.636719 78.324219 56.980469 77.789062 56.679688 77.515625 C 56.386719 77.253906 55.972656 76.71875 56.128906 76.335938 C 56.265625 75.96875 56.445312 74.789062 55.992188 72.59375 C 55.554688 70.394531 53.851562 66.867188 53.636719 66.28125 C 53.402344 65.65625 54.769531 65.695312 55.230469 65.695312 C 55.710938 65.695312 56.835938 65.589844 57.234375 64.808594 C 57.636719 63.980469 57.371094 62.578125 56.699219 62.539062 C 56.003906 62.472656 54.730469 62.957031 53.734375 63.746094 C 53.03125 64.304688 52.648438 63.667969 52.675781 63.09375 C 52.707031 62.519531 52.992188 57.753906 52.414062 54.78125 C 52.246094 53.894531 53.234375 55.269531 53.644531 55.875 C 54.085938 56.46875 55.710938 58.425781 56.433594 59.363281 C 57.5 60.738281 59.523438 63.289062 60.609375 64.4375 C 61.707031 65.589844 61.394531 66.039062 61.050781 66.359375 C 60.707031 66.699219 59.699219 67.304688 58.820312 67.722656 C 57.96875 68.160156 58.222656 68.609375 58.792969 68.589844 C 59.222656 68.582031 59.828125 68.210938 61.832031 68.171875 C 63.90625 68.132812 64.355469 67.410156 64.191406 65.980469 C 64.042969 64.710938 61.667969 62.316406 60.082031 60.707031 C 58.507812 59.078125 54.066406 54.011719 53.644531 53.527344 C 53.207031 53.039062 52.628906 52.347656 51.855469 52.445312 C 51.082031 52.550781 50.59375 53.730469 50.542969 54.402344 C 50.503906 55.074219 50.242188 57.199219 50.230469 58.367188 C 50.222656 59.527344 49.683594 59.578125 49.261719 59.011719 C 48.851562 58.445312 47.40625 56.761719 45.671875 54.605469 C 43.707031 52.179688 42.933594 52.414062 41.496094 52.648438 C 40.273438 52.851562 38.464844 53.378906 38.5625 53.953125 C 38.660156 54.527344 40.027344 54.625 41.125 54.722656 M 51.914062 71.183594 C 52.03125 70.742188 52.394531 70.121094 52.617188 70.441406 C 53.1875 71.222656 53.285156 72.789062 54.390625 74.328125 C 54.761719 74.855469 54.652344 75.578125 53.703125 74.925781 C 52.734375 74.273438 51.511719 73.617188 51.523438 73.289062 C 51.542969 72.554688 51.808594 71.628906 51.914062 71.183594 "/>
<path style=" stroke:none;fill-rule:nonzero;fill:rgb(0%,36.470588%,54.509804%);fill-opacity:1;" d="M 80.390625 33.996094 C 80.007812 34.152344 79.097656 34.496094 79.011719 35.019531 C 78.902344 35.539062 79.480469 35.9375 80.039062 36.003906 C 80.597656 36.082031 81.679688 35.710938 82.414062 35.285156 C 82.015625 35.097656 81.640625 34.933594 81.535156 34.398438 C 81.40625 33.714844 81.621094 32.933594 81.621094 32.933594 C 80.96875 33.257812 80.859375 33.785156 80.390625 33.996094 "/>
<path style=" stroke:none;fill-rule:nonzero;fill:rgb(0%,36.470588%,54.509804%);fill-opacity:1;" d="M 77.003906 25.140625 C 78.453125 24.488281 79.332031 23.96875 79.851562 25.414062 C 80.332031 26.746094 81.789062 31.132812 82.582031 32.945312 C 82.945312 33.753906 83.304688 35.039062 83.128906 35.253906 C 82.992188 35.429688 83.082031 35.566406 83.421875 35.652344 C 83.882812 35.769531 84.070312 36.578125 84.128906 36.714844 C 84.324219 37.164062 84.050781 37.757812 83.492188 38.1875 C 82.933594 38.605469 79.765625 42.074219 79.15625 42.953125 C 78.550781 43.859375 77.886719 45.796875 79.246094 45.699219 C 80.605469 45.601562 81.621094 45.945312 81.984375 44.445312 C 82.347656 42.972656 86.0625 36.890625 86.90625 35.652344 C 87.746094 34.417969 90.152344 31.5625 90.535156 31.6875 C 90.71875 31.738281 89.910156 33.558594 89.085938 34.953125 C 88.265625 36.367188 85.984375 39.941406 85.683594 40.390625 C 85.585938 40.527344 85.527344 40.742188 84.988281 40.898438 C 84.761719 40.964844 85.527344 41.375 86.023438 40.839844 C 86.847656 39.941406 89.164062 37.398438 89.957031 36.269531 C 90.769531 35.117188 91.53125 33.792969 92.121094 32.507812 C 92.441406 31.785156 92.726562 30.167969 91.894531 30.023438 C 91.160156 29.894531 89.625 31.015625 88.234375 32.59375 C 86.867188 34.183594 85.515625 35.703125 85.292969 36.015625 C 85.195312 36.152344 85.066406 35.710938 85.222656 35.441406 C 85.398438 35.136719 84.871094 34.515625 85.074219 34.074219 C 85.59375 32.90625 86.671875 31.699219 87.394531 30.695312 C 88.109375 29.699219 91.035156 25.375 91.101562 24.410156 C 91.179688 23.269531 90.894531 22.332031 90.25 22.539062 C 88.667969 23.035156 88.402344 23.414062 88.488281 23.894531 C 88.566406 24.300781 88.421875 24.710938 88.324219 24.914062 C 87.71875 26.269531 87.148438 27.246094 86.875 28.0625 C 86.738281 28.453125 86.023438 28.386719 86.210938 27.730469 C 86.40625 27.058594 86.417969 26.726562 86.417969 26.726562 C 86.417969 26.726562 85.390625 27.351562 85.035156 27.566406 C 84.683594 27.769531 83.746094 28.082031 83.628906 27.554688 C 83.285156 26.007812 82.53125 23.824219 81.484375 23.199219 C 80.4375 22.578125 79.1875 22.519531 78.1875 23.160156 C 77.203125 23.804688 75.871094 25.65625 77.003906 25.140625 M 84.714844 29.777344 C 84.949219 29.816406 85.132812 29.808594 85.867188 30.003906 C 86.535156 30.179688 85.917969 30.820312 85.761719 31.09375 C 85.613281 31.367188 85.429688 31.863281 85.074219 32.351562 C 84.734375 32.828125 84.566406 32.332031 84.46875 32.011719 C 84.332031 31.582031 84.207031 30.898438 84.1875 30.332031 C 84.148438 29.613281 84.480469 29.730469 84.714844 29.777344 "/>
<path style=" stroke:none;fill-rule:nonzero;fill:rgb(0%,36.470588%,54.509804%);fill-opacity:1;" d="M 91.140625 39.492188 C 91.132812 40.011719 90.75 41.792969 90.632812 42.542969 C 90.515625 43.285156 90.671875 44.414062 90.632812 44.753906 C 90.613281 45.085938 90.054688 45.242188 89.339844 45.28125 C 88.648438 45.332031 87.855469 45.351562 88.011719 44.785156 C 88.175781 44.210938 88.863281 42.132812 89.019531 41.558594 C 89.195312 40.984375 89.59375 39.84375 88.8125 39.492188 C 88.070312 39.171875 86.992188 40.125 86.140625 41.441406 C 85.273438 42.75 83.785156 43.292969 83.707031 44.25 C 83.6875 44.433594 84.058594 44.792969 84.410156 44.453125 C 84.773438 44.101562 85.574219 43.304688 86.074219 42.730469 C 86.503906 42.230469 87.324219 41.304688 87.609375 41.121094 C 87.816406 40.984375 87.855469 41.363281 87.53125 42.359375 C 87.324219 42.953125 87.128906 43.65625 87.011719 45.261719 C 86.984375 45.691406 87.464844 46.917969 88.785156 46.480469 C 90.242188 45.992188 90.925781 45.757812 91.296875 46.96875 C 91.511719 47.6875 90.417969 50.730469 89.664062 51.828125 C 88.910156 52.941406 88.636719 53.253906 88.519531 53.378906 C 88.390625 53.515625 88.921875 53.835938 89.410156 53.679688 C 90.191406 53.4375 91.316406 52.6875 92.265625 50.71875 C 93.226562 48.75 93.382812 47.875 93.019531 46.957031 C 92.714844 46.199219 92.109375 45.777344 91.933594 45.542969 C 91.757812 45.300781 91.992188 45.105469 92.609375 45.371094 C 93.226562 45.652344 94.535156 46.238281 94.917969 46.355469 C 95.386719 46.5 96.285156 46.070312 95.777344 45.085938 C 95.269531 44.132812 94.359375 43.789062 93.273438 43.664062 C 92.609375 43.578125 92.109375 44.25 91.980469 44.453125 C 91.84375 44.648438 91.472656 44.746094 91.347656 44.492188 C 91.230469 44.238281 91.53125 43.847656 91.863281 43.136719 C 92.246094 42.328125 93 40.507812 93.144531 40.195312 C 93.285156 39.882812 92.734375 39.269531 92.226562 39.09375 C 91.6875 38.910156 91.160156 38.976562 91.140625 39.492188 "/>
<path style=" stroke:none;fill-rule:nonzero;fill:rgb(0%,36.470588%,54.509804%);fill-opacity:1;" d="M 87.523438 49.746094 C 87.902344 49.628906 88.980469 50.222656 89.625 50.230469 C 89.832031 50.242188 90.132812 49.941406 89.96875 49.421875 C 89.773438 48.769531 89.4375 48.398438 88.851562 48.234375 C 88.292969 48.058594 86.933594 48.300781 86.75 48.878906 C 86.554688 49.433594 86.425781 50.40625 86.210938 50.730469 C 85.644531 51.597656 84.34375 51.761719 84.3125 51.964844 C 84.246094 52.445312 85.144531 53.175781 85.78125 53.28125 C 86.328125 53.378906 86.75 53.359375 86.796875 53.300781 C 86.835938 53.253906 86.476562 52.753906 86.386719 52.289062 C 86.320312 51.917969 86.542969 51.214844 86.777344 50.867188 C 86.992188 50.535156 87.140625 49.871094 87.523438 49.746094 "/>
<path style=" stroke:none;fill-rule:nonzero;fill:rgb(0%,36.470588%,54.509804%);fill-opacity:1;" d="M 119.1875 32.3125 C 119.605469 32.59375 120.007812 32.769531 121.242188 33.402344 C 122.0625 33.824219 123.160156 32.546875 123.929688 31.921875 C 124.695312 31.277344 126.542969 30.460938 127.199219 30.148438 C 127.84375 29.816406 128.390625 29.367188 128.351562 29.808594 C 128.3125 30.246094 127.550781 31.523438 126.613281 32.90625 C 125.691406 34.308594 123.949219 36.023438 123.355469 36.675781 C 122.757812 37.339844 122.523438 37.632812 122.785156 37.964844 C 122.953125 38.167969 123.019531 38.011719 123.160156 39.660156 C 123.304688 41.316406 124 42.027344 124.695312 41.921875 C 125.386719 41.804688 125.585938 41.015625 125.574219 40.585938 C 125.566406 40.175781 125.527344 38.734375 125.496094 37.992188 C 125.976562 37.71875 127.460938 36.785156 128.273438 35.9375 C 129.097656 35.097656 130.816406 34.113281 130.808594 34.25 C 130.796875 34.386719 130.191406 35.382812 129.703125 35.886719 C 129.203125 36.394531 128.65625 37.457031 127.855469 38.988281 C 127.050781 40.527344 127.285156 41.492188 128.136719 41.628906 C 129 41.753906 130.5625 41.578125 131.070312 41.296875 C 131.84375 40.878906 133.046875 40.46875 133.753906 39.933594 C 134.171875 39.621094 135.21875 38.734375 135.003906 38.558594 C 134.691406 38.316406 134.339844 38.03125 134.046875 37.816406 C 133.332031 37.28125 133.175781 37 132.558594 37.410156 C 131.933594 37.808594 129.78125 38.546875 129.761719 38.429688 C 129.710938 38.207031 130.710938 36.890625 131.621094 35.722656 C 132.539062 34.574219 134.269531 32.4375 133.714844 31.863281 C 133.144531 31.289062 131.902344 32.339844 130.964844 32.800781 C 130.023438 33.238281 127.53125 35.097656 126.875 35.761719 C 126.230469 36.425781 125.222656 37.71875 124.792969 37.523438 C 124.390625 37.332031 124.410156 37.085938 124.722656 36.714844 C 125.046875 36.316406 127.238281 34.417969 128.46875 32.898438 C 129.683594 31.386719 130.875 28.367188 131.367188 27.789062 C 131.835938 27.1875 132.871094 26.554688 133.722656 25.898438 C 134.574219 25.277344 135.984375 24.273438 135.667969 23.433594 C 135.464844 22.878906 134.015625 22.382812 134.015625 22.382812 C 134.015625 22.382812 133.988281 22.832031 134.132812 23.707031 C 134.230469 24.28125 131.941406 25.246094 132.273438 24.683594 C 132.617188 24.105469 132.636719 23.511719 132.714844 22.695312 C 132.804688 21.886719 132.746094 18.992188 132.53125 17.878906 C 132.441406 17.441406 131.660156 16.757812 131.375 16.75 C 131.121094 16.75 130.339844 17.433594 130.320312 17.734375 C 130.300781 18.222656 129.945312 20.132812 129.9375 22.1875 C 129.917969 24.242188 129.839844 26.144531 129.242188 26.554688 C 128.644531 26.953125 125.59375 28.394531 124.558594 28.792969 C 123.511719 29.203125 121.242188 30.527344 120.261719 30.871094 C 118.804688 31.40625 118.84375 32.078125 119.1875 32.3125 "/>
<path style=" stroke:none;fill-rule:nonzero;fill:rgb(0%,36.470588%,54.509804%);fill-opacity:1;" d="M 192.574219 78.335938 C 192.914062 78.492188 194.285156 78.5 195.058594 78.511719 C 195.832031 78.519531 196.632812 77.625 197.132812 77.144531 C 197.621094 76.667969 198.539062 75.792969 198.960938 75.421875 C 199.382812 75.042969 199.929688 75.371094 200.351562 75.644531 C 201.335938 76.289062 201.835938 77.175781 202.855469 77.789062 C 203.332031 78.082031 204.28125 77.632812 204.488281 77.261719 C 204.691406 76.894531 204.4375 76.542969 204.222656 76.160156 C 204.007812 75.792969 203.03125 75.363281 202.277344 75.042969 C 201.535156 74.710938 201.042969 74.105469 201.09375 73.746094 C 201.140625 73.386719 201.574219 73.375 201.835938 73.355469 C 202.089844 73.335938 203.539062 73.511719 204.019531 73.511719 C 204.488281 73.519531 204.949219 73.210938 205.074219 72.984375 C 205.191406 72.75 205.652344 72.421875 205.925781 72.496094 C 206.210938 72.574219 206.484375 72.90625 206.855469 73.113281 C 207.226562 73.316406 208.304688 73.746094 208.742188 73.851562 C 209.183594 73.960938 210.316406 74 211.1875 74.214844 C 212.058594 74.425781 212.832031 74.117188 212.988281 73.84375 C 213.144531 73.570312 213.203125 72.964844 212.921875 72.480469 C 212.625 72 211.628906 71.574219 211.023438 71.386719 C 210.414062 71.210938 210.054688 70.878906 210.09375 70.558594 C 210.140625 70.226562 210.59375 70.160156 210.945312 70.128906 C 211.296875 70.089844 212.136719 70.140625 212.792969 70.121094 C 213.449219 70.109375 214.535156 69.90625 215.109375 69.972656 C 215.6875 70.050781 216.058594 69.984375 216.804688 69.972656 C 217.546875 69.972656 219.035156 69.625 219.082031 69.300781 C 219.121094 68.980469 218.847656 68.394531 218.25 67.878906 C 217.65625 67.351562 217.617188 67.273438 216.871094 67.089844 C 216.117188 66.894531 215.582031 66.699219 215.121094 66.425781 C 214.660156 66.15625 213.917969 66.210938 213.476562 66.230469 C 213.039062 66.25 212.800781 65.871094 212.882812 65.492188 C 212.949219 65.101562 213.320312 64.898438 213.644531 64.925781 C 213.964844 64.957031 214.710938 65.054688 215.0625 65.191406 C 215.414062 65.324219 216.765625 65.628906 217.359375 65.792969 C 217.957031 65.960938 218.574219 65.304688 218.710938 65.003906 C 218.859375 64.703125 219.394531 63.921875 219.609375 63.300781 C 219.835938 62.664062 219.40625 62.460938 219.0625 62.492188 C 218.710938 62.519531 217.136719 63.4375 216.667969 63.542969 C 216.1875 63.648438 215.160156 63.601562 214.660156 63.667969 C 214.164062 63.738281 213.28125 63.777344 212.761719 63.796875 C 212.246094 63.816406 211.875 63.269531 211.804688 62.859375 C 211.738281 62.441406 211.34375 62.070312 211.023438 61.914062 C 210.699219 61.769531 210.523438 61.945312 210.472656 62.207031 C 210.433594 62.472656 210.414062 62.578125 210.355469 62.8125 C 210.257812 63.210938 209.808594 63.269531 209.664062 63.242188 C 209.515625 63.210938 208.96875 63.164062 208.429688 63.105469 C 207.890625 63.054688 207.570312 62.832031 207.734375 62.53125 C 207.902344 62.226562 208.507812 61.945312 208.792969 61.875 C 209.074219 61.816406 209.429688 61.605469 209.710938 61.46875 C 209.984375 61.332031 210.289062 61.203125 210.933594 61.066406 C 211.578125 60.921875 211.863281 60.335938 211.855469 59.664062 C 211.855469 58.992188 211.675781 58.425781 211.472656 57.707031 C 211.382812 57.414062 211.1875 57.132812 211.03125 56.722656 C 210.933594 56.476562 210.484375 57.34375 210.042969 58.085938 C 209.671875 58.730469 209.261719 59.265625 208.675781 59.773438 C 208.097656 60.289062 207.460938 60.960938 207.070312 61.222656 C 206.667969 61.488281 205.886719 61.507812 205.085938 62.089844 C 204.292969 62.664062 203.773438 62.550781 203.675781 62.421875 C 203.566406 62.285156 203.597656 62.109375 203.832031 61.925781 C 204.078125 61.738281 204.910156 61.253906 205.386719 61.097656 C 205.867188 60.941406 206.425781 60.210938 206.628906 59.5 C 206.824219 58.789062 206.316406 58.359375 205.875 58.476562 C 205.4375 58.59375 205.085938 59.078125 204.820312 59.625 C 204.554688 60.179688 203.96875 60.582031 203.519531 60.882812 C 203.070312 61.183594 201.992188 61.136719 201.328125 61.203125 C 200.664062 61.28125 200.527344 61.992188 200.59375 62.570312 C 200.652344 63.144531 201.632812 63.25 202.050781 63.328125 C 202.460938 63.398438 203.902344 63.261719 204.144531 63.09375 C 204.390625 62.9375 205.398438 63.015625 206.015625 63.132812 C 206.621094 63.261719 206.679688 63.707031 206.628906 64.265625 C 206.582031 64.820312 206.101562 64.703125 205.503906 64.59375 C 204.910156 64.488281 204.507812 64.515625 204.351562 64.867188 C 204.195312 65.21875 204.488281 65.792969 204.832031 65.863281 C 205.183594 65.921875 206.230469 66.117188 206.433594 66.503906 C 206.640625 66.894531 206.5625 67.449219 206.425781 67.871094 C 206.277344 68.289062 205.613281 68.003906 204.949219 67.722656 C 204.28125 67.441406 203.617188 66.554688 202.863281 65.902344 C 202.101562 65.257812 201.503906 64.976562 201.140625 64.996094 C 200.78125 65.003906 200.59375 65.851562 200.574219 66.464844 C 200.554688 67.082031 201.0625 67.585938 201.457031 67.8125 C 201.847656 68.042969 203.1875 68.492188 203.558594 68.71875 C 203.929688 68.949219 204.78125 69.175781 205.222656 69.300781 C 205.671875 69.4375 205.964844 69.925781 205.964844 70.265625 C 205.976562 70.609375 206.503906 70.859375 206.777344 70.929688 C 207.050781 70.996094 208.324219 71.085938 208.761719 71.191406 C 209.203125 71.300781 209.347656 71.757812 209.308594 72.214844 C 209.269531 72.671875 208.605469 72.488281 207.960938 72.34375 C 207.316406 72.195312 206.257812 71.816406 205.699219 71.574219 C 205.152344 71.328125 204.691406 71.113281 204.105469 70.9375 C 203.527344 70.753906 202.660156 70.207031 202.101562 69.632812 C 201.535156 69.046875 200.898438 68.96875 200.800781 69.300781 C 200.691406 69.632812 200.964844 70.21875 201.140625 70.421875 C 201.308594 70.628906 201.738281 71.074219 201.542969 71.4375 C 201.347656 71.796875 201.0625 71.882812 200.4375 71.765625 C 199.820312 71.660156 199.546875 71.894531 199.253906 72.117188 C 198.96875 72.332031 198.304688 71.71875 197.84375 71.367188 C 197.394531 71.015625 196.925781 70.539062 196.582031 70.226562 C 196.242188 69.925781 195.292969 69.398438 194.773438 69.007812 C 194.078125 68.472656 193.765625 67.714844 193.765625 67.714844 C 193.765625 67.714844 193.394531 68.570312 193.394531 68.855469 C 193.394531 69.136719 193.109375 69.90625 193.238281 70.539062 C 193.367188 71.164062 193.640625 71.496094 193.992188 71.699219 C 194.34375 71.894531 195.527344 72.3125 196.191406 72.507812 C 196.859375 72.703125 197.113281 72.996094 197.199219 73.25 C 197.277344 73.5 197.355469 74.027344 197.054688 74.203125 C 196.757812 74.367188 196.40625 74.71875 196.074219 75.179688 C 195.742188 75.636719 195.066406 75.722656 194.648438 75.65625 C 194.226562 75.585938 193.40625 74.40625 193.265625 73.988281 C 193.128906 73.570312 193.167969 73.308594 192.835938 73.179688 C 192.496094 73.054688 192.320312 73.21875 192.339844 74 C 192.359375 74.789062 192.339844 75.859375 192.152344 76.746094 C 192.003906 77.671875 192.242188 78.167969 192.574219 78.335938 M 212.761719 67.351562 C 212.8125 67.050781 213.203125 66.71875 213.417969 66.855469 C 213.644531 67.023438 214.074219 67.253906 214.59375 67.429688 C 215.109375 67.597656 214.984375 68.015625 214.816406 68.269531 C 214.660156 68.523438 214.144531 68.679688 213.984375 68.6875 C 213.828125 68.6875 213.320312 68.863281 212.820312 68.875 C 212.3125 68.882812 211.707031 69.234375 211.199219 69.253906 C 210.679688 69.28125 210.550781 68.863281 210.671875 68.621094 C 210.777344 68.375 211.082031 68.308594 211.296875 68.269531 C 211.511719 68.230469 211.816406 68.121094 212.089844 68.003906 C 212.363281 67.890625 212.714844 67.65625 212.761719 67.351562 M 207.636719 63.628906 C 207.824219 63.511719 208.203125 63.511719 208.566406 63.609375 C 209.054688 63.738281 209.691406 63.902344 209.730469 64.273438 C 209.78125 64.652344 209.664062 65.003906 209.230469 65.296875 C 208.800781 65.589844 208.527344 65.628906 208.285156 65.414062 C 208.039062 65.191406 207.734375 64.878906 207.550781 64.527344 C 207.375 64.1875 207.460938 63.738281 207.636719 63.628906 M 208.441406 69.410156 C 208.15625 69.320312 207.578125 69.222656 207.394531 69.125 C 207.207031 69.027344 207.109375 68.777344 207.1875 68.550781 C 207.265625 68.316406 207.648438 68.21875 208.105469 68.238281 C 208.421875 68.25 208.664062 68.367188 208.9375 68.503906 C 209.210938 68.640625 209.308594 68.6875 209.28125 69.117188 C 209.269531 69.527344 208.722656 69.496094 208.441406 69.410156 M 208.460938 67.527344 C 208.429688 67.332031 208.558594 66.972656 208.753906 66.71875 C 208.957031 66.464844 209.28125 66.125 209.457031 66.195312 C 209.632812 66.25 210.023438 66.503906 210.355469 66.5625 C 210.679688 66.621094 211.070312 66.378906 211.402344 66.195312 C 211.863281 65.941406 211.980469 66.4375 211.84375 66.730469 C 211.714844 67.023438 211.140625 67.34375 210.796875 67.527344 C 210.453125 67.714844 210.230469 67.800781 209.652344 67.832031 C 209.066406 67.859375 208.480469 67.722656 208.460938 67.527344 "/>
<path style=" stroke:none;fill-rule:nonzero;fill:rgb(0%,36.470588%,54.509804%);fill-opacity:1;" d="M 194.195312 65.550781 C 195.183594 65.421875 195.703125 64.957031 196.601562 64.9375 C 197.492188 64.925781 198.402344 64.742188 198.34375 64.476562 C 198.285156 64.214844 197.835938 64.050781 197.425781 63.933594 C 197.015625 63.824219 197.015625 63.4375 197.160156 63.242188 C 197.308594 63.046875 197.628906 62.957031 198.207031 62.988281 C 198.785156 63.015625 199.714844 63.046875 199.8125 62.5 C 199.910156 61.953125 200.210938 61.632812 199.46875 61.566406 C 198.1875 61.4375 197.230469 61.476562 196.523438 61.390625 C 195.820312 61.300781 194.578125 61.085938 194.226562 61.457031 C 193.875 61.835938 192.75 62.957031 192.652344 63.921875 C 192.542969 64.898438 193.199219 65.6875 194.195312 65.550781 "/>
<path style=" stroke:none;fill-rule:nonzero;fill:rgb(0%,36.470588%,54.509804%);fill-opacity:1;" d="M 114.890625 206.367188 C 114.765625 206.503906 114.617188 206.589844 114.472656 206.589844 L 114.472656 206.785156 L 117.347656 206.785156 L 117.347656 206.589844 C 117.191406 206.589844 117.054688 206.511719 116.925781 206.378906 C 116.808594 206.222656 116.730469 206.066406 116.730469 205.890625 L 116.730469 198.113281 L 115.324219 198.113281 C 115.207031 198.359375 115 198.640625 114.675781 198.953125 C 114.355469 199.253906 114.109375 199.476562 113.953125 199.605469 C 113.785156 199.742188 113.648438 199.828125 113.550781 199.90625 L 113.855469 200.375 C 114.265625 200.21875 114.675781 200.003906 115.078125 199.761719 L 115.078125 205.898438 C 115.089844 206.054688 115.027344 206.210938 114.890625 206.367188 "/>
<path style=" stroke:none;fill-rule:nonzero;fill:rgb(0%,36.470588%,54.509804%);fill-opacity:1;" d="M 121.757812 206.542969 C 122.25 206.328125 122.667969 206.035156 122.980469 205.664062 C 123.296875 205.316406 123.558594 204.90625 123.773438 204.429688 C 123.988281 203.960938 124.136719 203.492188 124.222656 203.023438 C 124.324219 202.566406 124.363281 202.097656 124.363281 201.640625 C 124.363281 200.597656 124.027344 199.730469 123.355469 199.039062 C 122.679688 198.359375 121.953125 198.015625 121.183594 198.015625 C 120.222656 198.015625 119.441406 198.289062 118.824219 198.84375 C 118.207031 199.410156 117.90625 200.152344 117.90625 201.058594 C 117.90625 201.496094 118.003906 201.894531 118.207031 202.253906 C 118.402344 202.625 118.667969 202.90625 118.992188 203.113281 C 119.3125 203.328125 119.636719 203.484375 119.988281 203.601562 C 120.320312 203.71875 120.664062 203.765625 120.976562 203.765625 C 121.777344 203.765625 122.316406 203.667969 122.5625 203.453125 L 122.550781 203.589844 C 122.542969 203.679688 122.511719 203.792969 122.472656 203.929688 C 122.433594 204.066406 122.375 204.234375 122.316406 204.398438 C 122.25 204.566406 122.152344 204.730469 122.003906 204.894531 C 121.867188 205.070312 121.691406 205.21875 121.515625 205.375 C 121.328125 205.511719 121.085938 205.636719 120.789062 205.714844 C 120.507812 205.792969 120.175781 205.851562 119.8125 205.851562 C 119.636719 205.851562 119.46875 205.839844 119.3125 205.800781 C 119.148438 205.773438 119.019531 205.734375 118.933594 205.703125 C 118.84375 205.664062 118.746094 205.617188 118.667969 205.570312 C 118.582031 205.511719 118.542969 205.460938 118.511719 205.460938 C 118.492188 205.441406 118.472656 205.421875 118.472656 205.421875 L 118.199219 205.421875 L 118.226562 206.882812 L 120.125 206.882812 C 120.710938 206.894531 121.261719 206.777344 121.757812 206.542969 M 121.074219 202.832031 C 120.652344 202.832031 120.292969 202.644531 120.007812 202.265625 C 119.726562 201.90625 119.578125 201.445312 119.578125 200.921875 C 119.578125 200.375 119.707031 199.90625 119.96875 199.535156 C 120.234375 199.175781 120.605469 199 121.074219 199 C 121.503906 199 121.855469 199.1875 122.140625 199.566406 C 122.433594 199.9375 122.582031 200.394531 122.582031 200.929688 C 122.582031 202.207031 122.082031 202.832031 121.074219 202.832031 "/>
<path style=" stroke:none;fill-rule:nonzero;fill:rgb(0%,36.470588%,54.509804%);fill-opacity:1;" d="M 130.25 201.894531 C 129.996094 201.710938 129.710938 201.535156 129.398438 201.417969 C 129.078125 201.300781 128.792969 201.203125 128.558594 201.164062 C 128.3125 201.113281 128.089844 201.09375 127.914062 201.09375 C 127.570312 201.09375 127.21875 201.113281 126.855469 201.164062 L 126.855469 199.128906 L 129.125 199.128906 C 129.300781 199.128906 129.457031 199.148438 129.613281 199.195312 C 129.75 199.234375 129.859375 199.292969 129.917969 199.339844 C 129.984375 199.390625 130.054688 199.457031 130.105469 199.527344 C 130.164062 199.59375 130.191406 199.652344 130.191406 199.671875 L 130.210938 199.75 L 130.476562 199.75 L 130.445312 198.113281 L 125.722656 198.113281 L 125.722656 202.265625 L 125.964844 202.195312 C 126.113281 202.15625 126.296875 202.117188 126.523438 202.058594 C 126.757812 202.019531 126.964844 201.992188 127.140625 201.992188 C 127.324219 201.992188 127.519531 202.03125 127.746094 202.058594 C 127.960938 202.109375 128.207031 202.195312 128.480469 202.304688 C 128.753906 202.421875 128.988281 202.617188 129.15625 202.878906 C 129.339844 203.152344 129.4375 203.484375 129.4375 203.863281 C 129.4375 204.261719 129.371094 204.605469 129.234375 204.894531 C 129.097656 205.1875 128.941406 205.394531 128.78125 205.53125 C 128.617188 205.664062 128.421875 205.773438 128.175781 205.851562 C 127.941406 205.929688 127.757812 205.957031 127.648438 205.96875 C 127.53125 205.996094 127.421875 205.996094 127.304688 205.996094 C 127.023438 205.996094 126.71875 205.929688 126.414062 205.8125 C 126.101562 205.695312 125.898438 205.597656 125.789062 205.519531 C 125.691406 205.441406 125.605469 205.394531 125.546875 205.335938 L 124.898438 205.8125 L 125.015625 205.910156 C 125.074219 205.988281 125.203125 206.074219 125.347656 206.183594 C 125.507812 206.300781 125.683594 206.40625 125.886719 206.503906 C 126.09375 206.609375 126.335938 206.707031 126.652344 206.777344 C 126.964844 206.855469 127.285156 206.894531 127.617188 206.894531 C 128.175781 206.894531 128.695312 206.796875 129.15625 206.601562 C 129.625 206.417969 129.996094 206.171875 130.28125 205.871094 C 130.5625 205.578125 130.789062 205.238281 130.945312 204.914062 C 131.101562 204.566406 131.167969 204.234375 131.167969 203.902344 C 131.167969 203.464844 131.070312 203.074219 130.90625 202.714844 C 130.710938 202.363281 130.503906 202.089844 130.25 201.894531 "/>
<path style=" stroke:none;fill-rule:nonzero;fill:rgb(0%,36.470588%,54.509804%);fill-opacity:1;" d="M 131.699219 199.75 L 131.960938 199.75 L 132.011719 199.59375 C 132.058594 199.496094 132.167969 199.390625 132.355469 199.292969 C 132.53125 199.175781 132.765625 199.136719 133.039062 199.136719 L 136.121094 199.136719 L 132.453125 206.796875 L 135.074219 206.796875 C 135.074219 206.328125 135.171875 205.722656 135.367188 204.972656 C 135.550781 204.203125 135.777344 203.492188 136.003906 202.832031 C 136.246094 202.167969 136.519531 201.457031 136.832031 200.707031 C 137.148438 199.945312 137.363281 199.4375 137.480469 199.15625 C 137.585938 198.894531 137.695312 198.679688 137.773438 198.511719 L 137.773438 198.125 L 131.679688 198.125 L 131.679688 199.75 Z M 131.699219 199.75 "/>
<path style=" stroke:none;fill-rule:nonzero;fill:rgb(0%,36.470588%,54.509804%);fill-opacity:1;" d="M 142.300781 200.09375 C 142.300781 200.785156 142.859375 201.339844 143.542969 201.339844 C 144.238281 201.339844 144.785156 200.785156 144.785156 200.09375 C 144.785156 199.417969 144.238281 198.863281 143.542969 198.863281 C 142.851562 198.855469 142.300781 199.417969 142.300781 200.09375 "/>
<path style=" stroke:none;fill-rule:nonzero;fill:rgb(0%,36.470588%,54.509804%);fill-opacity:1;" d="M 106.558594 200.09375 C 106.558594 200.785156 107.117188 201.339844 107.800781 201.339844 C 108.496094 201.339844 109.042969 200.785156 109.042969 200.09375 C 109.042969 199.417969 108.496094 198.863281 107.800781 198.863281 C 107.117188 198.855469 106.558594 199.417969 106.558594 200.09375 "/>
<path style=" stroke:none;fill-rule:nonzero;fill:rgb(0%,36.470588%,54.509804%);fill-opacity:1;" d="M 21.5 124.464844 C 21.714844 124.269531 21.960938 124.191406 22.246094 124.203125 L 32.808594 124.339844 C 33.035156 124.339844 33.269531 124.445312 33.503906 124.640625 C 33.730469 124.824219 33.855469 125.03125 33.847656 125.253906 L 34.148438 125.253906 L 34.199219 121.035156 L 33.914062 121.027344 C 33.914062 121.25 33.777344 121.453125 33.523438 121.640625 C 33.269531 121.835938 33.042969 121.933594 32.839844 121.933594 L 22.265625 121.796875 C 22 121.785156 21.753906 121.6875 21.539062 121.492188 C 21.304688 121.308594 21.207031 121.09375 21.21875 120.859375 L 20.914062 120.859375 L 20.847656 125.070312 L 21.148438 125.078125 C 21.148438 124.835938 21.277344 124.640625 21.5 124.464844 "/>
<path style=" stroke:none;fill-rule:nonzero;fill:rgb(0%,36.470588%,54.509804%);fill-opacity:1;" d="M 28.523438 139.167969 C 31.878906 138.867188 33.621094 138.691406 33.769531 138.683594 C 33.992188 138.671875 34.226562 138.742188 34.480469 138.90625 C 34.746094 139.070312 34.882812 139.257812 34.902344 139.472656 L 35.195312 139.441406 L 34.855469 135.835938 L 34.570312 135.867188 C 34.589844 136.082031 34.472656 136.304688 34.246094 136.519531 C 34.011719 136.734375 33.789062 136.859375 33.59375 136.871094 L 27.417969 137.453125 L 34.257812 129.589844 L 33.964844 126.453125 L 33.671875 126.480469 C 33.710938 126.851562 33.601562 127.183594 33.335938 127.464844 C 33.082031 127.757812 32.820312 127.90625 32.546875 127.925781 L 22.214844 128.910156 C 21.953125 128.929688 21.707031 128.859375 21.453125 128.683594 C 21.207031 128.5 21.070312 128.3125 21.050781 128.082031 L 20.757812 128.121094 L 21.101562 131.734375 L 21.394531 131.707031 C 21.363281 131.472656 21.460938 131.257812 21.667969 131.042969 C 21.875 130.839844 22.109375 130.722656 22.382812 130.691406 L 30.960938 129.894531 L 24.132812 137.746094 L 23.058594 137.863281 C 22.792969 137.894531 22.546875 137.816406 22.304688 137.640625 C 22.050781 137.464844 21.921875 137.257812 21.902344 137.035156 L 21.609375 137.066406 L 21.953125 140.679688 L 22.234375 140.652344 C 22.207031 140.417969 22.304688 140.210938 22.519531 139.996094 C 22.722656 139.785156 22.949219 139.667969 23.234375 139.636719 C 23.410156 139.648438 25.167969 139.492188 28.523438 139.167969 "/>
<path style=" stroke:none;fill-rule:nonzero;fill:rgb(0%,36.470588%,54.509804%);fill-opacity:1;" d="M 31.878906 153.726562 C 35.148438 152.917969 36.839844 152.5 36.976562 152.460938 C 37.203125 152.414062 37.445312 152.453125 37.730469 152.566406 C 38.003906 152.695312 38.171875 152.871094 38.230469 153.074219 L 38.511719 153.007812 L 37.640625 149.488281 L 37.359375 149.566406 C 37.40625 149.78125 37.339844 150.003906 37.144531 150.257812 C 36.949219 150.503906 36.75 150.660156 36.546875 150.699219 L 30.53125 152.207031 L 36.117188 143.417969 L 35.351562 140.359375 L 35.070312 140.425781 C 35.15625 140.808594 35.097656 141.136719 34.894531 141.460938 C 34.679688 141.78125 34.441406 141.976562 34.167969 142.023438 L 24.09375 144.539062 C 23.847656 144.597656 23.585938 144.558594 23.3125 144.421875 C 23.046875 144.296875 22.878906 144.121094 22.832031 143.894531 L 22.539062 143.964844 L 23.417969 147.480469 L 23.703125 147.414062 C 23.652344 147.1875 23.710938 146.957031 23.878906 146.730469 C 24.042969 146.488281 24.261719 146.332031 24.535156 146.261719 L 32.886719 144.1875 L 27.320312 152.996094 L 26.273438 153.261719 C 26.03125 153.308594 25.765625 153.28125 25.492188 153.152344 C 25.21875 153.015625 25.0625 152.839844 25.003906 152.617188 L 24.71875 152.683594 L 25.601562 156.203125 L 25.882812 156.132812 C 25.835938 155.921875 25.882812 155.695312 26.058594 155.453125 C 26.234375 155.21875 26.449219 155.082031 26.714844 155.003906 C 26.902344 154.945312 28.621094 154.527344 31.878906 153.726562 "/>
<path style=" stroke:none;fill-rule:nonzero;fill:rgb(0%,36.470588%,54.509804%);fill-opacity:1;" d="M 46.847656 173.390625 C 46.90625 172.914062 46.886719 172.40625 46.808594 171.871094 C 46.730469 171.347656 46.613281 170.859375 46.457031 170.421875 C 46.289062 169.960938 46.113281 169.5625 45.898438 169.183594 L 43.324219 164.71875 L 43.070312 164.867188 C 43.1875 165.050781 43.179688 165.285156 43.042969 165.585938 C 42.925781 165.878906 42.769531 166.082031 42.59375 166.179688 L 33.445312 171.421875 C 33.210938 171.550781 32.964844 171.597656 32.671875 171.539062 C 32.378906 171.492188 32.183594 171.355469 32.054688 171.179688 L 31.800781 171.328125 L 33.914062 174.972656 L 34.179688 174.835938 C 34.0625 174.628906 34.050781 174.40625 34.160156 174.132812 C 34.246094 173.871094 34.421875 173.664062 34.660156 173.539062 L 38.355469 171.414062 L 39.148438 172.777344 L 36.007812 178.625 L 37.808594 181.734375 L 38.09375 181.566406 C 37.976562 181.21875 37.945312 180.796875 37.996094 180.332031 C 38.035156 179.871094 38.171875 179.335938 38.375 178.761719 C 38.589844 178.167969 38.785156 177.679688 38.972656 177.269531 C 39.148438 176.851562 39.394531 176.355469 39.714844 175.722656 C 40.027344 175.097656 40.222656 174.71875 40.304688 174.550781 C 40.421875 174.738281 40.636719 174.960938 40.96875 175.222656 C 41.289062 175.46875 41.683594 175.703125 42.132812 175.914062 C 42.582031 176.128906 43.101562 176.238281 43.6875 176.246094 C 44.265625 176.257812 44.800781 176.109375 45.300781 175.828125 C 45.761719 175.566406 46.125 175.222656 46.386719 174.777344 C 46.632812 174.335938 46.789062 173.859375 46.847656 173.390625 M 44.792969 172.769531 C 44.617188 173.128906 44.332031 173.410156 43.941406 173.636719 C 43.558594 173.851562 43.167969 173.957031 42.777344 173.929688 C 42.386719 173.910156 42.035156 173.78125 41.730469 173.585938 C 41.429688 173.371094 41.171875 173.148438 40.949219 172.894531 C 40.742188 172.660156 40.558594 172.398438 40.402344 172.144531 L 39.570312 170.691406 L 43.785156 168.285156 C 44.234375 169.113281 44.527344 169.699219 44.664062 170.058594 C 44.742188 170.265625 44.832031 170.488281 44.882812 170.742188 C 44.941406 170.976562 44.980469 171.289062 45.007812 171.675781 C 45.046875 172.039062 44.96875 172.398438 44.792969 172.769531 "/>
<path style=" stroke:none;fill-rule:nonzero;fill:rgb(0%,36.470588%,54.509804%);fill-opacity:1;" d="M 64.613281 194.351562 C 64.777344 194.1875 64.984375 194.089844 65.257812 194.050781 C 65.53125 194.019531 65.746094 194.070312 65.894531 194.226562 L 66.097656 194.019531 L 63.546875 191.496094 L 55.113281 195.40625 L 59.007812 187.035156 L 56.453125 184.53125 L 56.246094 184.746094 C 56.394531 184.882812 56.445312 185.105469 56.40625 185.40625 C 56.355469 185.699219 56.246094 185.933594 56.101562 186.070312 C 55.71875 186.460938 53.03125 188.757812 48.039062 192.949219 C 47.84375 193.125 47.589844 193.210938 47.289062 193.222656 C 46.972656 193.230469 46.75 193.171875 46.574219 193.007812 L 46.367188 193.222656 L 48.941406 195.753906 L 49.144531 195.542969 C 48.988281 195.386719 48.929688 195.199219 48.949219 194.945312 C 48.980469 194.703125 49.085938 194.488281 49.273438 194.304688 C 49.371094 194.195312 49.761719 193.855469 50.457031 193.261719 C 51.140625 192.675781 52.03125 191.90625 53.148438 190.960938 C 54.261719 190.007812 55.101562 189.285156 55.671875 188.808594 L 51.347656 198.125 L 52.011719 198.777344 L 61.21875 194.585938 C 57.765625 198.667969 55.984375 200.773438 55.90625 200.84375 C 55.738281 201.007812 55.523438 201.113281 55.269531 201.152344 C 55.015625 201.183594 54.808594 201.125 54.664062 200.960938 L 54.449219 201.171875 L 57.460938 204.125 L 57.667969 203.929688 C 57.5 203.765625 57.421875 203.542969 57.429688 203.230469 C 57.429688 202.917969 57.519531 202.675781 57.707031 202.46875 C 57.785156 202.363281 58.378906 201.652344 59.503906 200.324219 C 60.628906 198.992188 61.734375 197.695312 62.820312 196.398438 C 63.917969 195.132812 64.515625 194.441406 64.613281 194.351562 "/>
<path style=" stroke:none;fill-rule:nonzero;fill:rgb(0%,36.470588%,54.509804%);fill-opacity:1;" d="M 75.097656 208.570312 C 76.144531 207.070312 76.496094 205.382812 76.144531 203.53125 C 75.792969 201.679688 74.835938 200.207031 73.277344 199.117188 C 71.722656 198.027344 70 197.636719 68.125 197.9375 C 66.253906 198.242188 64.789062 199.136719 63.730469 200.636719 C 62.675781 202.136719 62.324219 203.824219 62.683594 205.675781 C 63.035156 207.535156 64.003906 209.007812 65.558594 210.097656 C 67.105469 211.179688 68.816406 211.570312 70.695312 211.277344 C 72.574219 210.957031 74.042969 210.0625 75.097656 208.570312 M 69.855469 209.679688 C 68.554688 210.003906 67.359375 209.796875 66.292969 209.066406 C 65.226562 208.324219 64.621094 207.285156 64.476562 205.957031 C 64.316406 204.644531 64.710938 203.316406 65.640625 201.984375 C 66.644531 200.550781 67.78125 199.710938 69.03125 199.429688 C 70.285156 199.148438 71.460938 199.390625 72.554688 200.160156 C 73.652344 200.910156 74.285156 201.933594 74.453125 203.179688 C 74.628906 204.4375 74.21875 205.78125 73.199219 207.207031 C 72.28125 208.53125 71.15625 209.359375 69.855469 209.679688 "/>
<path style=" stroke:none;fill-rule:nonzero;fill:rgb(0%,36.470588%,54.509804%);fill-opacity:1;" d="M 87.648438 214.796875 C 89.144531 211.785156 89.917969 210.226562 89.976562 210.097656 C 90.074219 209.894531 90.261719 209.71875 90.535156 209.59375 C 90.816406 209.464844 91.054688 209.445312 91.238281 209.542969 L 91.375 209.28125 L 88.117188 207.703125 L 87.980469 207.957031 C 88.175781 208.054688 88.3125 208.25 88.371094 208.558594 C 88.429688 208.871094 88.421875 209.117188 88.34375 209.300781 L 85.605469 214.855469 L 82.453125 204.933594 L 79.609375 203.550781 L 79.480469 203.8125 C 79.824219 203.980469 80.039062 204.253906 80.15625 204.613281 C 80.253906 204.984375 80.253906 205.296875 80.136719 205.53125 L 75.558594 214.816406 C 75.441406 215.050781 75.246094 215.226562 74.972656 215.34375 C 74.695312 215.460938 74.453125 215.476562 74.246094 215.371094 L 74.121094 215.632812 L 77.386719 217.222656 L 77.523438 216.96875 C 77.328125 216.871094 77.183594 216.6875 77.105469 216.402344 C 77.042969 216.121094 77.054688 215.859375 77.183594 215.613281 L 80.96875 207.90625 L 84.136719 217.808594 L 83.667969 218.773438 C 83.550781 219.007812 83.355469 219.179688 83.070312 219.289062 C 82.796875 219.414062 82.550781 219.425781 82.355469 219.335938 L 82.21875 219.589844 L 85.496094 221.1875 L 85.625 220.914062 C 85.429688 220.828125 85.28125 220.632812 85.222656 220.351562 C 85.144531 220.066406 85.164062 219.816406 85.292969 219.5625 C 85.390625 219.375 86.171875 217.796875 87.648438 214.796875 "/>
<path style=" stroke:none;fill-rule:nonzero;fill:rgb(0%,36.470588%,54.509804%);fill-opacity:1;" d="M 112.300781 214.628906 C 110.441406 214.359375 108.75 214.777344 107.222656 215.878906 C 105.6875 216.980469 104.796875 218.441406 104.523438 220.242188 C 104.257812 222.066406 104.6875 223.710938 105.832031 225.222656 C 106.96875 226.714844 108.476562 227.609375 110.332031 227.882812 C 112.191406 228.15625 113.875 227.726562 115.402344 226.625 C 116.925781 225.523438 117.816406 224.0625 118.089844 222.242188 C 118.355469 220.4375 117.925781 218.78125 116.789062 217.289062 C 115.65625 215.78125 114.160156 214.902344 112.300781 214.628906 M 115.820312 221.878906 C 115.578125 223.480469 114.949219 224.714844 113.945312 225.601562 C 112.9375 226.480469 111.792969 226.820312 110.519531 226.636719 C 109.238281 226.441406 108.25 225.789062 107.527344 224.667969 C 106.800781 223.558594 106.566406 222.203125 106.800781 220.585938 C 107.058594 218.871094 107.683594 217.601562 108.671875 216.792969 C 109.660156 215.996094 110.8125 215.683594 112.113281 215.867188 C 113.433594 216.0625 114.433594 216.675781 115.136719 217.71875 C 115.851562 218.761719 116.074219 220.15625 115.820312 221.878906 "/>
<path style=" stroke:none;fill-rule:nonzero;fill:rgb(0%,36.470588%,54.509804%);fill-opacity:1;" d="M 136.570312 227.726562 C 136.375 227.53125 136.257812 227.296875 136.238281 227.035156 L 135.277344 216.53125 C 135.257812 216.296875 135.328125 216.0625 135.503906 215.820312 C 135.679688 215.566406 135.855469 215.421875 136.070312 215.402344 L 136.050781 215.109375 L 131.835938 215.488281 L 131.863281 215.769531 C 132.078125 215.761719 132.292969 215.867188 132.511719 216.09375 C 132.734375 216.328125 132.851562 216.539062 132.871094 216.746094 L 133.832031 227.230469 C 133.859375 227.484375 133.78125 227.738281 133.617188 227.980469 C 133.449219 228.214844 133.242188 228.339844 133.019531 228.371094 L 133.046875 228.671875 L 137.265625 228.28125 L 137.226562 227.980469 C 136.992188 228.019531 136.773438 227.933594 136.570312 227.726562 "/>
<path style=" stroke:none;fill-rule:nonzero;fill:rgb(0%,36.470588%,54.509804%);fill-opacity:1;" d="M 151.847656 225.136719 C 151.507812 224.960938 151.28125 224.753906 151.15625 224.53125 C 151.085938 224.394531 150.058594 222.582031 148.09375 219.082031 C 146.125 215.585938 145.101562 213.773438 145.023438 213.636719 L 141.667969 214.300781 L 141.726562 214.589844 C 142.027344 214.535156 142.214844 214.621094 142.261719 214.84375 C 142.273438 214.863281 142.253906 215.097656 142.222656 215.554688 L 140.933594 226.558594 C 140.914062 226.839844 140.785156 227.113281 140.53125 227.386719 C 140.285156 227.667969 140.042969 227.835938 139.808594 227.882812 L 139.867188 228.164062 L 144.035156 227.335938 L 143.976562 227.046875 C 143.789062 227.085938 143.621094 227.046875 143.464844 226.9375 C 143.308594 226.8125 143.210938 226.636719 143.171875 226.441406 C 143.152344 226.332031 143.152344 226.226562 143.171875 226.121094 C 143.25 225.496094 143.347656 224.824219 143.425781 224.101562 L 147.878906 223.214844 C 148.132812 223.683594 148.335938 224.042969 148.503906 224.316406 C 148.671875 224.570312 148.769531 224.746094 148.816406 224.832031 L 148.925781 224.980469 C 148.992188 225.078125 149.023438 225.175781 149.042969 225.273438 C 149.082031 225.484375 149.050781 225.671875 148.964844 225.855469 C 148.867188 226.023438 148.730469 226.121094 148.542969 226.160156 L 148.59375 226.441406 L 152.769531 225.613281 L 152.710938 225.320312 C 152.464844 225.367188 152.183594 225.300781 151.847656 225.136719 M 143.652344 222.40625 C 143.691406 222.046875 143.789062 221.101562 143.945312 219.589844 C 144.082031 218.082031 144.191406 217.085938 144.25 216.589844 C 144.472656 216.988281 144.933594 217.847656 145.65625 219.160156 C 146.363281 220.46875 146.832031 221.335938 147.066406 221.746094 Z M 143.652344 222.40625 "/>
<path style=" stroke:none;fill-rule:nonzero;fill:rgb(0%,36.470588%,54.509804%);fill-opacity:1;" d="M 177.195312 214.960938 C 176.929688 214.84375 176.734375 214.679688 176.617188 214.417969 L 171.941406 204.972656 C 171.84375 204.769531 171.824219 204.527344 171.902344 204.234375 C 171.972656 203.929688 172.097656 203.746094 172.285156 203.640625 L 172.15625 203.367188 L 168.363281 205.226562 L 168.488281 205.511719 C 168.683594 205.402344 168.917969 205.433594 169.203125 205.558594 C 169.488281 205.695312 169.683594 205.851562 169.769531 206.035156 L 173.535156 213.617188 C 172.910156 215.351562 172.058594 216.492188 170.984375 217.027344 C 170.582031 217.222656 170.210938 217.339844 169.859375 217.398438 C 169.507812 217.445312 169.203125 217.445312 168.976562 217.386719 C 168.742188 217.320312 168.527344 217.222656 168.324219 217.078125 C 168.117188 216.910156 167.960938 216.765625 167.851562 216.617188 C 167.746094 216.480469 167.648438 216.308594 167.558594 216.121094 L 163.980469 208.890625 C 163.871094 208.6875 163.863281 208.441406 163.929688 208.140625 C 164.007812 207.847656 164.136719 207.652344 164.332031 207.566406 L 164.195312 207.285156 L 160.398438 209.15625 L 160.535156 209.4375 C 160.730469 209.347656 160.964844 209.359375 161.25 209.476562 C 161.535156 209.613281 161.71875 209.777344 161.808594 209.953125 L 165.40625 217.214844 C 165.554688 217.496094 165.742188 217.757812 165.976562 218.03125 C 166.210938 218.285156 166.503906 218.527344 166.867188 218.761719 C 167.226562 218.976562 167.628906 219.140625 168.050781 219.238281 C 168.480469 219.347656 168.949219 219.355469 169.488281 219.277344 C 170.023438 219.210938 170.574219 219.046875 171.128906 218.773438 C 172.628906 218.03125 173.730469 216.929688 174.425781 215.421875 L 175.0625 216.707031 L 178.046875 215.234375 L 177.910156 214.972656 C 177.695312 215.070312 177.460938 215.070312 177.195312 214.960938 "/>
<path style=" stroke:none;fill-rule:nonzero;fill:rgb(0%,36.470588%,54.509804%);fill-opacity:1;" d="M 190.449219 206.066406 C 190.167969 205.996094 189.953125 205.851562 189.792969 205.625 C 189.6875 205.472656 188.667969 204.027344 186.742188 201.289062 C 184.816406 198.542969 183.808594 197.109375 183.730469 196.992188 C 183.601562 196.808594 183.542969 196.554688 183.554688 196.261719 C 183.574219 195.960938 183.671875 195.734375 183.847656 195.621094 L 183.679688 195.375 L 180.71875 197.460938 L 180.882812 197.703125 C 181.070312 197.578125 181.3125 197.566406 181.605469 197.65625 C 181.910156 197.753906 182.125 197.878906 182.242188 198.035156 L 185.804688 203.09375 L 175.570312 201.058594 L 172.980469 202.878906 L 173.15625 203.113281 C 173.457031 202.898438 173.800781 202.832031 174.183594 202.90625 C 174.554688 202.984375 174.816406 203.152344 174.976562 203.367188 L 180.941406 211.816406 C 181.097656 212.039062 181.15625 212.292969 181.128906 212.585938 C 181.097656 212.894531 180.992188 213.101562 180.804688 213.226562 L 180.960938 213.472656 L 183.945312 211.367188 L 183.777344 211.140625 C 183.601562 211.269531 183.347656 211.308594 183.074219 211.230469 C 182.789062 211.160156 182.574219 211.015625 182.410156 210.78125 L 177.460938 203.765625 L 187.703125 205.761719 L 188.328125 206.640625 C 188.472656 206.855469 188.542969 207.117188 188.503906 207.417969 C 188.472656 207.722656 188.367188 207.925781 188.191406 208.054688 L 188.355469 208.296875 L 191.332031 206.222656 L 191.164062 205.976562 C 190.976562 206.105469 190.734375 206.132812 190.449219 206.066406 "/>
<path style=" stroke:none;fill-rule:nonzero;fill:rgb(0%,36.470588%,54.509804%);fill-opacity:1;" d="M 195.507812 201.59375 C 195.234375 201.554688 195 201.425781 194.8125 201.210938 L 187.839844 193.300781 C 187.691406 193.125 187.605469 192.902344 187.585938 192.589844 C 187.574219 192.296875 187.652344 192.0625 187.808594 191.917969 L 187.613281 191.703125 L 184.433594 194.480469 L 184.628906 194.703125 C 184.796875 194.566406 185.03125 194.527344 185.335938 194.585938 C 185.648438 194.636719 185.882812 194.742188 186.007812 194.90625 L 192.984375 202.820312 C 193.160156 203.015625 193.246094 203.25 193.246094 203.5625 C 193.257812 203.84375 193.167969 204.058594 193.003906 204.214844 L 193.207031 204.449219 L 196.386719 201.660156 L 196.183594 201.425781 C 196.015625 201.582031 195.792969 201.632812 195.507812 201.59375 "/>
<path style=" stroke:none;fill-rule:nonzero;fill:rgb(0%,36.470588%,54.509804%);fill-opacity:1;" d="M 196.898438 183.050781 C 196.964844 182.640625 197.09375 182.335938 197.289062 182.132812 L 197.074219 181.9375 L 194.019531 185.230469 L 194.234375 185.4375 C 194.382812 185.28125 194.558594 185.191406 194.753906 185.183594 C 194.960938 185.171875 195.125 185.230469 195.292969 185.378906 C 195.417969 185.484375 195.890625 186.292969 196.699219 187.753906 C 197.503906 189.21875 198.296875 190.707031 199.058594 192.199219 C 197.53125 191.554688 195.976562 190.894531 194.429688 190.203125 C 192.875 189.5 192.035156 189.109375 191.925781 189.003906 C 191.78125 188.855469 191.703125 188.699219 191.703125 188.488281 C 191.691406 188.28125 191.761719 188.097656 191.90625 187.941406 L 191.703125 187.746094 L 188.648438 191.019531 L 188.855469 191.214844 C 189.050781 191.019531 189.34375 190.863281 189.746094 190.765625 C 190.136719 190.660156 190.46875 190.660156 190.722656 190.777344 C 195.546875 192.890625 199.402344 194.605469 202.246094 195.902344 L 202.992188 195.09375 C 202.003906 193.308594 199.996094 189.625 196.996094 184.03125 C 196.847656 183.769531 196.828125 183.449219 196.898438 183.050781 "/>
<path style=" stroke:none;fill-rule:nonzero;fill:rgb(0%,36.470588%,54.509804%);fill-opacity:1;" d="M 220.421875 167.546875 C 220.003906 167.761719 219.472656 167.925781 218.878906 168.0625 C 218.261719 168.207031 217.742188 168.296875 217.300781 168.375 C 216.863281 168.441406 216.292969 168.511719 215.601562 168.578125 C 214.894531 168.65625 214.457031 168.707031 214.289062 168.734375 C 214.398438 168.539062 214.476562 168.21875 214.496094 167.816406 C 214.542969 167.410156 214.515625 166.960938 214.457031 166.464844 C 214.386719 165.96875 214.203125 165.480469 213.898438 164.992188 C 213.59375 164.503906 213.195312 164.125 212.675781 163.863281 C 212.195312 163.617188 211.695312 163.511719 211.1875 163.53125 C 210.679688 163.558594 210.210938 163.675781 209.769531 163.882812 C 209.328125 164.085938 208.917969 164.378906 208.507812 164.730469 C 208.105469 165.101562 207.765625 165.460938 207.472656 165.820312 C 207.179688 166.199219 206.933594 166.570312 206.738281 166.960938 L 204.371094 171.53125 L 204.632812 171.675781 C 204.742188 171.460938 204.949219 171.355469 205.261719 171.296875 C 205.574219 171.238281 205.816406 171.257812 206.003906 171.355469 L 215.394531 176.167969 C 215.621094 176.285156 215.804688 176.480469 215.914062 176.753906 C 216.019531 177.015625 216.03125 177.261719 215.921875 177.464844 L 216.195312 177.613281 L 218.144531 173.851562 L 217.871094 173.714844 C 217.773438 173.917969 217.578125 174.054688 217.292969 174.121094 C 217.019531 174.171875 216.765625 174.140625 216.519531 174.027344 L 212.714844 172.078125 L 213.449219 170.664062 L 220.070312 170.128906 L 221.722656 166.929688 L 221.429688 166.796875 C 221.175781 167.078125 220.84375 167.332031 220.421875 167.546875 M 212.527344 169.074219 C 212.441406 169.386719 212.332031 169.679688 212.195312 169.941406 L 211.421875 171.414062 L 207.097656 169.191406 C 207.558594 168.375 207.890625 167.808594 208.105469 167.507812 C 208.242188 167.320312 208.390625 167.136719 208.566406 166.949219 C 208.753906 166.777344 208.988281 166.570312 209.28125 166.347656 C 209.585938 166.121094 209.9375 165.988281 210.335938 165.949219 C 210.738281 165.898438 211.128906 165.988281 211.53125 166.191406 C 211.933594 166.394531 212.226562 166.667969 212.410156 167 C 212.605469 167.351562 212.695312 167.691406 212.675781 168.070312 C 212.664062 168.433594 212.617188 168.773438 212.527344 169.074219 "/>
<path style=" stroke:none;fill-rule:nonzero;fill:rgb(0%,36.470588%,54.509804%);fill-opacity:1;" d="M 227.210938 148.25 C 226.957031 148.378906 226.703125 148.40625 226.429688 148.328125 L 216.167969 145.777344 C 215.953125 145.726562 215.746094 145.582031 215.550781 145.335938 C 215.375 145.105469 215.308594 144.871094 215.355469 144.664062 L 215.070312 144.597656 L 214.046875 148.691406 L 214.328125 148.757812 C 214.378906 148.554688 214.554688 148.378906 214.835938 148.261719 C 215.140625 148.125 215.375 148.085938 215.582031 148.132812 L 225.84375 150.6875 C 226.085938 150.746094 226.300781 150.902344 226.476562 151.136719 C 226.632812 151.371094 226.703125 151.605469 226.652344 151.828125 L 226.949219 151.894531 L 227.976562 147.8125 L 227.679688 147.746094 C 227.621094 147.949219 227.464844 148.125 227.210938 148.25 "/>
<path style=" stroke:none;fill-rule:nonzero;fill:rgb(0%,36.470588%,54.509804%);fill-opacity:1;" d="M 125.664062 3.011719 C 57.628906 3.011719 2.269531 58.144531 2.269531 125.917969 C 2.269531 193.699219 57.628906 248.84375 125.664062 248.84375 C 193.707031 248.84375 249.054688 193.699219 249.054688 125.917969 C 249.066406 58.144531 193.707031 3.011719 125.664062 3.011719 M 125.664062 243.953125 C 60.335938 243.953125 7.179688 191.011719 7.179688 125.917969 C 7.179688 60.84375 60.335938 7.902344 125.664062 7.902344 C 190.996094 7.902344 244.15625 60.84375 244.15625 125.917969 C 244.15625 191.011719 191.007812 243.953125 125.664062 243.953125 "/>
<path style=" stroke:none;fill-rule:nonzero;fill:rgb(0%,36.470588%,54.509804%);fill-opacity:1;" d="M 99.328125 198.378906 L 99.835938 196.972656 C 69.933594 186.175781 49.832031 157.636719 49.832031 125.917969 C 49.832031 84.269531 83.851562 50.378906 125.664062 50.378906 C 167.480469 50.378906 201.503906 84.269531 201.503906 125.917969 C 201.503906 157.636719 181.402344 186.1875 151.496094 196.972656 L 152.007812 198.378906 C 182.496094 187.375 203 158.257812 203 125.917969 C 203 83.441406 168.304688 48.898438 125.664062 48.898438 C 83.023438 48.898438 48.335938 83.441406 48.335938 125.917969 C 48.335938 158.257812 68.828125 187.375 99.328125 198.378906 "/>
<path style=" stroke:none;fill-rule:nonzero;fill:rgb(0%,36.470588%,54.509804%);fill-opacity:1;" d="M 94.171875 159.664062 C 94.171875 159.019531 93.539062 158.988281 93.539062 158.988281 C 90.9375 158.988281 88.421875 158.929688 88.421875 161.542969 L 88.421875 161.550781 C 88.421875 164.183594 90.925781 164.117188 93.507812 164.105469 L 93.507812 164.097656 C 94.152344 164.097656 94.171875 163.414062 94.171875 163.414062 Z M 94.171875 159.664062 "/>
<path style=" stroke:none;fill-rule:nonzero;fill:rgb(0%,36.470588%,54.509804%);fill-opacity:1;" d="M 93.5 128.742188 C 90.925781 128.734375 88.421875 128.675781 88.421875 131.285156 L 88.421875 131.324219 C 88.421875 133.9375 90.925781 133.886719 93.507812 133.886719 C 94.152344 133.886719 94.171875 133.207031 94.171875 133.207031 L 94.171875 129.425781 C 94.171875 128.773438 93.5 128.742188 93.5 128.742188 "/>
<path style=" stroke:none;fill-rule:nonzero;fill:rgb(0%,36.470588%,54.509804%);fill-opacity:1;" d="M 93.5 95.457031 C 90.925781 95.4375 88.429688 95.378906 88.410156 97.667969 L 88.410156 97.707031 C 88.480469 99.441406 90.632812 99.558594 93.5 99.578125 C 94.074219 99.578125 94.144531 99.082031 94.164062 98.953125 L 94.164062 96.117188 C 94.171875 95.476562 93.5 95.457031 93.5 95.457031 "/>
<path style=" stroke:none;fill-rule:nonzero;fill:rgb(0%,36.470588%,54.509804%);fill-opacity:1;" d="M 94.152344 75.050781 L 94.144531 73.230469 L 94.144531 75.050781 Z M 94.152344 75.050781 "/>
<path style=" stroke:none;fill-rule:nonzero;fill:rgb(0%,36.470588%,54.509804%);fill-opacity:1;" d="M 100.425781 105.335938 C 102.242188 104.839844 103.78125 103.894531 104.179688 102.226562 C 104.40625 101.300781 105.421875 98.222656 101.8125 96.46875 C 101.421875 96.265625 100.933594 96.109375 100.40625 95.992188 C 99.769531 95.992188 99.75 96.625 99.75 96.625 L 99.75 104.65625 L 99.757812 104.65625 C 99.75 105.316406 100.425781 105.335938 100.425781 105.335938 "/>
<path style=" stroke:none;fill-rule:nonzero;fill:rgb(0%,36.470588%,54.509804%);fill-opacity:1;" d="M 93.5 101.683594 L 93.5 101.671875 C 90.925781 101.664062 88.429688 101.59375 88.410156 103.90625 L 88.410156 103.925781 C 88.480469 105.667969 90.632812 105.785156 93.5 105.792969 L 93.5 105.785156 C 94.074219 105.785156 94.144531 105.308594 94.164062 105.179688 L 94.164062 102.34375 C 94.171875 101.703125 93.5 101.683594 93.5 101.683594 "/>
<path style=" stroke:none;fill-rule:nonzero;fill:rgb(0%,36.470588%,54.509804%);fill-opacity:1;" d="M 94.171875 80.332031 C 94.171875 79.855469 93.8125 79.71875 93.617188 79.691406 C 91.003906 79.679688 88.421875 79.582031 88.421875 82.242188 L 88.421875 82.261719 C 88.421875 84.882812 90.925781 84.824219 93.507812 84.824219 C 94.085938 84.824219 94.152344 84.328125 94.171875 84.210938 Z M 94.171875 80.332031 "/>
<path style=" stroke:none;fill-rule:nonzero;fill:rgb(0%,36.470588%,54.509804%);fill-opacity:1;" d="M 157.152344 140.328125 L 157.152344 140.320312 C 154.578125 140.320312 152.066406 140.269531 152.066406 142.929688 L 152.066406 142.941406 C 152.066406 145.609375 154.578125 145.542969 157.160156 145.542969 L 157.160156 145.53125 C 157.789062 145.53125 157.828125 144.917969 157.828125 144.859375 L 157.828125 141.011719 C 157.828125 140.347656 157.152344 140.328125 157.152344 140.328125 "/>
<path style=" stroke:none;fill-rule:nonzero;fill:rgb(0%,36.470588%,54.509804%);fill-opacity:1;" d="M 157.160156 91.140625 C 154.578125 91.128906 152.074219 91.070312 152.074219 93.730469 L 152.074219 93.75 C 152.074219 96.421875 154.589844 96.363281 157.171875 96.351562 C 157.679688 96.351562 157.796875 95.941406 157.828125 95.769531 L 157.828125 91.792969 C 157.796875 91.167969 157.160156 91.140625 157.160156 91.140625 "/>
<path style=" stroke:none;fill-rule:nonzero;fill:rgb(0%,36.470588%,54.509804%);fill-opacity:1;" d="M 194.960938 125.136719 C 194.960938 87.015625 163.949219 56.117188 125.671875 56.117188 C 87.414062 56.117188 56.386719 87.015625 56.386719 125.136719 C 56.386719 163.269531 87.402344 194.15625 125.671875 194.15625 C 163.949219 194.15625 194.960938 163.269531 194.960938 125.136719 M 78.199219 97.824219 C 81.347656 96.898438 82.113281 93.261719 86.621094 90.144531 C 88.332031 88.964844 91.082031 88.945312 93.519531 88.945312 C 94.09375 88.945312 94.164062 88.449219 94.183594 88.324219 L 94.183594 87.5625 C 94.183594 86.910156 93.519531 86.898438 93.519531 86.898438 L 93.519531 86.890625 C 88.96875 86.882812 85.996094 86.589844 85.976562 82.234375 C 86.003906 77.878906 88.988281 77.59375 93.527344 77.574219 L 93.527344 77.585938 C 94.105469 77.585938 94.171875 77.097656 94.191406 76.972656 L 94.191406 75.988281 C 94.191406 75.332031 93.527344 75.3125 93.527344 75.3125 L 88.039062 75.3125 C 87.472656 75.3125 87.003906 74.828125 87.003906 74.28125 C 87.003906 73.695312 87.472656 73.230469 88.039062 73.230469 L 94.171875 73.230469 C 98.183594 73.230469 100.011719 74.75 102.996094 74.136719 C 105.140625 73.695312 105.992188 72.769531 106.773438 71.726562 C 107.769531 70.402344 109.738281 71.425781 108.867188 72.984375 C 108.042969 74.484375 105.824219 77.105469 100.71875 76.582031 C 100.609375 76.570312 100.523438 76.5625 100.425781 76.53125 C 99.855469 76.53125 99.769531 77.019531 99.769531 77.15625 L 99.769531 93.011719 L 99.777344 93.011719 C 99.777344 93.429688 100.03125 93.585938 100.238281 93.632812 C 101.84375 93.90625 103.359375 94.414062 104.816406 95.425781 C 107.820312 97.503906 107.515625 102.1875 106.109375 104.410156 C 105.023438 106.136719 103.652344 107.394531 100.433594 107.753906 L 100.433594 107.773438 C 99.796875 107.773438 99.777344 108.417969 99.777344 108.417969 L 99.777344 109.75 L 99.789062 109.75 C 99.789062 110.363281 100.386719 110.402344 100.445312 110.402344 L 100.503906 110.402344 C 102.675781 110.402344 104.816406 111.15625 105.707031 113.289062 C 106.265625 114.625 106.429688 115.21875 106.578125 115.664062 C 107.730469 119.175781 104.082031 120.167969 101.246094 119.15625 C 100.21875 118.773438 100.160156 118.675781 98.691406 118.160156 C 97.527344 117.761719 96.324219 117.996094 95.503906 118.289062 C 94.007812 118.84375 93.910156 118.890625 92.382812 119.582031 C 91.425781 120.011719 90.601562 118.570312 91.464844 117.925781 C 92.265625 117.34375 93.34375 116.980469 94.703125 116.398438 C 96.6875 115.550781 98.027344 115.773438 98.847656 116.066406 C 100.53125 116.660156 99.894531 116.425781 101.441406 116.960938 C 103.574219 117.710938 104.308594 116.5625 103.867188 115.285156 C 103.867188 115.285156 103.867188 115.257812 103.644531 114.664062 C 102.734375 112.285156 98.988281 112.527344 94.859375 112.527344 C 92.734375 112.527344 91.414062 114.097656 90.066406 115.578125 C 89.058594 116.679688 87.621094 117.984375 86.660156 118.792969 C 85.691406 119.601562 84.703125 119.699219 84.226562 119.386719 C 83.324219 118.8125 83.695312 117.789062 84.429688 117.605469 C 85.214844 117.402344 85.730469 116.785156 86.425781 116.144531 C 87.402344 115.246094 87.140625 115.648438 88.070312 114.664062 C 88.980469 113.6875 88.980469 112.441406 88.070312 112.023438 C 86.738281 111.398438 86.679688 111.367188 85.839844 111.027344 C 84.304688 110.414062 85.253906 108.445312 86.601562 109 C 88.234375 109.664062 89.722656 110.363281 90.621094 110.414062 C 91.289062 110.453125 92.207031 110.453125 93.546875 110.441406 L 93.546875 110.414062 C 94.125 110.414062 94.191406 109.9375 94.210938 109.808594 L 94.210938 108.5625 C 94.210938 107.910156 93.546875 107.898438 93.546875 107.898438 C 88.949219 107.898438 86.003906 107.898438 86.003906 103.933594 C 86.003906 102.304688 86.4375 101.3125 87.179688 100.667969 C 86.4375 100.09375 86.003906 99.1875 86.003906 97.714844 C 86.003906 93.351562 89.007812 93.339844 93.558594 93.359375 C 94.132812 93.359375 94.203125 92.875 94.222656 92.738281 L 94.222656 91.664062 C 94.222656 91.179688 93.839844 91.050781 93.65625 91.011719 C 92.480469 90.992188 89.691406 91.011719 88.265625 91.722656 C 86.339844 92.679688 84.890625 94.550781 83.304688 96.820312 C 81.820312 98.933594 80.664062 99.421875 79.050781 99.976562 C 77.484375 100.453125 76.769531 98.234375 78.199219 97.824219 M 79.519531 157.9375 C 78.960938 158.863281 77.425781 158.179688 77.894531 156.964844 C 78.453125 155.453125 78.484375 154.546875 78.003906 152.675781 C 77.691406 151.417969 77.90625 150.035156 78.472656 148.855469 C 79.03125 147.648438 80.683594 148.269531 80.203125 149.546875 C 79.53125 151.300781 80.136719 152.34375 80.300781 154.554688 C 80.378906 155.609375 80.085938 156.984375 79.519531 157.9375 M 81.996094 156.953125 C 82.5625 155.441406 82.589844 154.535156 82.113281 152.664062 C 81.789062 151.410156 82.015625 150.023438 82.570312 148.847656 C 83.148438 147.636719 84.792969 148.261719 84.3125 149.539062 C 83.636719 151.292969 84.234375 152.335938 84.402344 154.546875 C 84.488281 155.609375 84.207031 156.984375 83.628906 157.925781 C 83.0625 158.863281 81.523438 158.179688 81.996094 156.953125 M 109.453125 158.660156 C 108.171875 159.144531 107.691406 160.683594 107.847656 162.75 C 107.984375 164.71875 108.171875 172.386719 108.535156 176.003906 C 108.847656 179.0625 106.519531 179.609375 103.847656 178.578125 C 101.792969 177.777344 99.582031 176.929688 96.550781 175.605469 C 93.410156 174.230469 88.507812 174.757812 85.292969 174.757812 C 84.050781 174.757812 83.011719 173.265625 83.84375 171.902344 C 84.578125 170.691406 84.078125 171.386719 84.957031 170.097656 C 85.554688 169.191406 86.171875 168.480469 88.109375 168.480469 C 89.664062 168.480469 91.640625 168.492188 93.519531 168.492188 L 93.519531 168.480469 C 94.164062 168.480469 94.183594 167.816406 94.183594 167.816406 L 94.183594 166.875 C 94.183594 166.230469 93.507812 166.199219 93.507812 166.199219 C 88.96875 166.191406 85.996094 165.917969 85.957031 161.550781 C 85.996094 157.1875 88.96875 156.90625 93.519531 156.894531 L 93.519531 156.886719 C 94.164062 156.886719 94.183594 156.210938 94.183594 156.210938 L 94.183594 155.277344 C 94.183594 154.820312 93.839844 154.683594 93.644531 154.644531 L 88.039062 154.644531 C 87.464844 154.644531 87.003906 154.175781 87.003906 153.589844 C 87.003906 153.015625 87.464844 152.546875 88.039062 152.546875 L 93.519531 152.546875 C 94.152344 152.539062 94.171875 151.886719 94.171875 151.886719 L 94.171875 150.949219 C 94.171875 150.296875 93.5 150.269531 93.5 150.269531 L 88.039062 150.269531 C 87.464844 150.269531 87.003906 149.792969 87.003906 149.214844 C 87.003906 148.640625 87.464844 148.183594 88.039062 148.183594 L 94.171875 148.183594 C 94.171875 148.183594 96.070312 148.183594 96.617188 148.210938 C 99.621094 148.40625 102.539062 150.542969 104.023438 149.636719 C 104.855469 149.128906 105.726562 147.433594 102.125 145.699219 C 100.355469 144.839844 97.1875 144.65625 94.171875 144.65625 L 88.039062 144.65625 C 87.464844 144.65625 87.003906 144.167969 87.003906 143.613281 C 87.003906 143.039062 87.464844 142.570312 88.039062 142.570312 L 93.507812 142.570312 C 94.152344 142.570312 94.171875 141.90625 94.171875 141.90625 L 94.171875 140.972656 C 94.171875 140.378906 93.625 140.308594 93.539062 140.308594 L 88.832031 140.308594 C 88.253906 140.308594 87.796875 139.832031 87.796875 139.257812 C 87.796875 138.671875 88.253906 138.214844 88.832031 138.214844 L 93.507812 138.214844 C 94.152344 138.214844 94.171875 137.542969 94.171875 137.542969 L 94.171875 136.617188 C 94.171875 135.972656 93.5 135.964844 93.5 135.964844 L 93.5 135.953125 C 88.960938 135.933594 85.984375 135.660156 85.945312 131.296875 C 85.984375 126.941406 88.960938 126.65625 93.507812 126.636719 L 93.507812 126.628906 C 94.152344 126.628906 94.171875 125.957031 94.171875 125.957031 L 94.171875 125.03125 C 94.171875 124.476562 93.703125 124.398438 93.558594 124.378906 L 88.039062 124.378906 C 87.464844 124.378906 87.003906 123.910156 87.003906 123.335938 C 87.003906 122.75 87.464844 122.28125 88.039062 122.28125 L 94.171875 122.28125 C 98.175781 122.292969 100.011719 123.800781 102.996094 123.1875 C 105.140625 122.75 106.683594 121.835938 108.769531 123.070312 C 111.234375 124.554688 109.445312 129.707031 109.445312 134.578125 L 109.445312 136.878906 C 109.445312 138.351562 107.15625 138.339844 107.15625 136.890625 L 107.15625 134.484375 C 107.15625 133.117188 108.023438 127.125 107.527344 125.789062 C 107.195312 124.84375 106.03125 124.496094 104.964844 124.941406 C 103.742188 125.449219 103.105469 125.527344 101.1875 125.421875 C 100.914062 125.410156 100.640625 125.382812 100.367188 125.332031 C 99.769531 125.363281 99.738281 125.984375 99.738281 125.984375 L 99.730469 125.984375 L 99.730469 142.308594 C 99.796875 142.851562 100.375 142.871094 100.375 142.871094 L 100.375 142.910156 C 102.007812 143.195312 103.574219 143.691406 105.082031 144.664062 C 107.925781 146.496094 107.722656 149.90625 106.078125 151.28125 C 104.492188 152.636719 102.585938 152.226562 100.355469 151.527344 C 99.847656 151.546875 99.75 151.964844 99.730469 152.121094 L 99.730469 169.667969 C 99.730469 170.246094 99.457031 170.546875 98.996094 170.546875 L 88.195312 170.546875 C 87.050781 170.546875 85.761719 172.71875 86.992188 172.71875 C 88.246094 172.71875 93.402344 172.242188 96.71875 173.429688 C 99.386719 174.40625 101.011719 175.175781 103.542969 176.1875 C 106.246094 177.25 106.429688 175.59375 106.324219 174.25 C 106.214844 172.886719 105.558594 165.429688 105.597656 161.707031 C 105.636719 157.976562 107.507812 156.914062 108.71875 156.515625 C 110.117188 156.066406 110.824219 158.140625 109.453125 158.660156 M 137.761719 128.96875 C 136.160156 130.3125 134.269531 129.914062 132.050781 129.199219 C 131.523438 129.21875 131.433594 129.667969 131.414062 129.796875 L 131.414062 174.308594 C 131.414062 178.226562 129.378906 179.445312 126.582031 179.054688 C 125.703125 178.9375 123.910156 178.671875 120.851562 177.777344 C 119.011719 177.25 117.808594 176.316406 117.808594 172.933594 C 117.808594 171.949219 117.808594 162.449219 117.816406 155.042969 L 117.808594 155.035156 C 117.808594 153.085938 117.816406 141.917969 117.816406 140.777344 C 117.816406 139.050781 117.257812 138.535156 116.613281 138.195312 C 116.046875 137.914062 115.898438 137.824219 115.898438 137.824219 C 114.53125 137.191406 115.332031 135.234375 116.789062 135.855469 C 116.789062 135.855469 117.445312 136.167969 118.316406 136.636719 C 120.117188 137.609375 119.949219 139.558594 119.949219 140.417969 L 119.949219 171.519531 C 119.949219 173.9375 120.261719 174.71875 121.679688 175.371094 C 122.101562 175.574219 121.933594 175.476562 121.933594 175.476562 C 122.863281 175.808594 125.859375 175.703125 125.859375 173.140625 L 125.859375 128.566406 C 125.839844 127.953125 125.203125 127.925781 125.203125 127.925781 L 125.203125 127.914062 L 119.734375 127.914062 C 119.15625 127.914062 118.6875 127.445312 118.6875 126.863281 C 118.6875 126.296875 119.15625 125.828125 119.734375 125.828125 L 125.859375 125.828125 C 125.859375 125.828125 127.757812 125.828125 128.304688 125.867188 C 131.308594 126.054688 134.464844 128.199219 135.964844 127.292969 C 136.785156 126.792969 137.664062 123.851562 134.054688 122.117188 C 132.285156 121.25 128.871094 121.054688 125.859375 121.054688 L 119.734375 121.054688 C 119.15625 121.054688 118.6875 120.578125 118.6875 120.011719 C 118.6875 119.425781 119.15625 118.96875 119.734375 118.96875 L 125.222656 118.96875 C 125.710938 118.949219 125.839844 118.570312 125.859375 118.394531 L 125.859375 116.894531 C 125.839844 116.289062 125.203125 116.269531 125.203125 116.269531 L 125.203125 116.25 L 119.734375 116.25 C 119.15625 116.25 118.6875 115.773438 118.6875 115.199219 C 118.6875 114.632812 119.15625 114.144531 119.734375 114.144531 L 125.203125 114.144531 C 125.828125 114.144531 125.859375 113.550781 125.859375 113.550781 L 125.859375 103.867188 C 125.839844 103.242188 125.203125 103.222656 125.203125 103.222656 L 125.203125 103.171875 C 124.800781 103.476562 124.234375 103.914062 123.492188 104.5 C 122.484375 105.316406 122.042969 105.648438 122.042969 107.1875 L 122.042969 108.203125 C 122.042969 109.039062 122.082031 110.25 120.871094 111.105469 C 120.144531 111.621094 119.664062 111.925781 118.953125 112.382812 C 117.476562 113.316406 114.902344 113.035156 114.902344 109.613281 C 114.902344 108.210938 114.921875 103.464844 114.921875 101.789062 C 114.921875 100.085938 114.355469 99.558594 113.707031 99.226562 C 113.140625 98.925781 112.996094 98.847656 112.996094 98.847656 C 111.625 98.144531 112.464844 96.292969 113.855469 96.9375 C 113.855469 96.9375 114.519531 97.25 115.382812 97.707031 C 117.191406 98.679688 117.042969 100.589844 117.042969 101.4375 L 117.042969 108.941406 C 117.042969 109.925781 117.652344 110.675781 118.550781 110.121094 C 118.902344 109.90625 118.550781 110.121094 119.078125 109.78125 C 119.726562 109.34375 120.019531 108.132812 120.019531 107.472656 C 120.019531 106.699219 120.007812 108.125 120.007812 106.195312 C 120.007812 105.316406 120.175781 104.175781 121.640625 103.191406 C 122.394531 102.675781 124.039062 101.351562 124.898438 100.804688 C 125.210938 100.609375 125.535156 100.386719 125.859375 100.453125 L 125.859375 100.433594 C 127.960938 100.855469 128.839844 101.128906 130.367188 101.566406 C 131.128906 101.78125 131.433594 102.402344 131.433594 103.125 L 131.433594 118.617188 C 131.445312 119.261719 132.109375 119.28125 132.109375 119.28125 L 132.109375 119.308594 C 133.734375 119.59375 135.289062 120.082031 136.785156 121.0625 C 139.601562 122.914062 139.40625 127.574219 137.761719 128.96875 M 139.875 88.644531 C 139.828125 84.453125 139.90625 78.746094 139.367188 77.4375 C 138.839844 76.152344 137.234375 76.503906 137.058594 77.535156 C 136.753906 79.464844 137.03125 84.746094 137.03125 89.589844 C 137.03125 92.582031 135.394531 93.703125 132.15625 92.222656 C 129.566406 91.011719 128.734375 90.59375 127.492188 90.359375 C 123.890625 89.695312 119.753906 89.902344 116.996094 89.902344 C 115.753906 89.902344 114.707031 88.410156 115.546875 87.046875 C 116.28125 85.839844 115.78125 86.53125 116.664062 85.234375 C 117.257812 84.347656 117.875 83.636719 119.804688 83.636719 L 125.171875 83.636719 C 125.808594 83.605469 125.820312 82.964844 125.820312 82.964844 L 125.820312 82.039062 C 125.820312 81.394531 125.144531 81.375 125.144531 81.375 L 125.144531 81.367188 C 120.605469 81.355469 117.632812 81.0625 117.601562 76.707031 C 117.632812 72.136719 120.890625 72.050781 125.820312 72.050781 C 128.507812 72.050781 131.394531 72.691406 131.394531 74.28125 L 131.394531 84.816406 C 131.394531 85.390625 131.121094 85.691406 130.660156 85.691406 L 119.902344 85.691406 C 118.757812 85.691406 117.476562 87.855469 118.707031 87.855469 C 119.734375 87.855469 124.34375 87.824219 126.472656 88.097656 C 128.597656 88.371094 129.761719 88.636719 131.738281 89.570312 C 134.378906 90.789062 134.703125 89.503906 134.703125 87.542969 C 134.703125 86.042969 134.664062 84.53125 134.601562 79.5625 C 134.554688 75.851562 135.433594 74.320312 138.035156 74.222656 C 140.835938 74.117188 141.5 75.792969 141.734375 78.207031 C 142 80.964844 142.351562 89.628906 142.398438 92.09375 C 142.4375 93.917969 142.476562 94.8125 141.332031 94.785156 C 140.238281 94.746094 139.945312 93.320312 139.875 88.644531 M 142.566406 136.917969 C 142.007812 137.875 140.484375 137.183594 140.941406 135.925781 C 141.507812 134.394531 141.539062 133.46875 141.058594 131.570312 C 140.738281 130.300781 140.960938 128.898438 141.507812 127.699219 C 142.078125 126.460938 143.730469 127.105469 143.25 128.402344 C 142.574219 130.195312 143.183594 131.246094 143.339844 133.480469 C 143.417969 134.570312 143.144531 135.964844 142.566406 136.917969 M 142.566406 123.820312 C 142.007812 124.757812 140.484375 124.074219 140.941406 122.820312 C 141.507812 121.277344 141.539062 120.371094 141.058594 118.460938 C 140.738281 117.1875 140.960938 115.78125 141.507812 114.585938 C 142.078125 113.355469 143.730469 113.988281 143.25 115.277344 C 142.574219 117.070312 143.183594 118.132812 143.339844 120.371094 C 143.417969 121.453125 143.144531 122.855469 142.566406 123.820312 M 145.050781 135.925781 C 145.617188 134.394531 145.648438 133.46875 145.160156 131.570312 C 144.835938 130.300781 145.070312 128.898438 145.617188 127.699219 C 146.175781 126.460938 147.839844 127.105469 147.351562 128.402344 C 146.675781 130.195312 147.28125 131.246094 147.4375 133.480469 C 147.527344 134.578125 147.242188 135.972656 146.664062 136.929688 C 146.125 137.863281 144.582031 137.183594 145.050781 135.925781 M 145.148438 118.472656 C 144.824219 117.195312 145.0625 115.792969 145.609375 114.59375 C 146.167969 113.367188 147.828125 114 147.339844 115.285156 C 146.664062 117.078125 147.269531 118.140625 147.429688 120.382812 C 147.515625 121.453125 147.230469 122.867188 146.65625 123.832031 C 146.105469 124.765625 144.5625 124.085938 145.03125 122.828125 C 145.617188 121.277344 145.636719 120.371094 145.148438 118.472656 M 173.183594 97.941406 C 173.183594 97.941406 172.863281 98.125 172.292969 98.429688 C 171.648438 98.769531 171.089844 99.304688 171.089844 101.050781 C 171.089844 102.207031 171.101562 125.75 171.109375 127.738281 L 171.089844 127.75 C 171.101562 134.53125 171.109375 142.84375 171.109375 148.640625 C 171.109375 151.222656 169.644531 152.851562 167.726562 152.851562 L 164.046875 152.851562 C 163.414062 152.878906 163.402344 153.53125 163.402344 153.53125 L 163.382812 153.53125 L 163.382812 155.238281 L 163.402344 155.238281 C 163.402344 155.238281 163.414062 155.902344 164.046875 155.910156 L 164.066406 155.910156 C 167.441406 155.910156 170.464844 157.371094 171.441406 161.523438 C 172.136719 164.417969 171.84375 163.023438 172.195312 165.050781 C 172.921875 169.210938 169.183594 170.214844 166.308594 169.007812 C 165.210938 168.539062 162.777344 167.789062 161.542969 167.371094 C 160.164062 166.902344 159.195312 167.507812 158.796875 167.972656 C 157.933594 169.007812 156.046875 170.90625 154.402344 172.601562 C 152.71875 174.335938 150.304688 177.152344 148.808594 178.644531 C 147.410156 180.046875 145.84375 178.304688 146.996094 176.910156 C 148.40625 175.242188 154.648438 168.792969 157.152344 165.839844 C 157.511719 165.421875 158.296875 164.601562 159.527344 164.542969 C 161.796875 164.476562 162.523438 165.0625 166.269531 166.484375 C 168.246094 167.234375 169.957031 166.875 169.585938 164.914062 C 169.417969 163.949219 169.507812 163.949219 169.085938 162.273438 C 168.410156 159.554688 166.0625 158.023438 164.058594 158.023438 L 151.671875 158.023438 C 151.097656 158.023438 150.636719 157.527344 150.636719 156.953125 C 150.636719 156.378906 151.097656 155.890625 151.671875 155.890625 L 157.160156 155.890625 C 157.769531 155.882812 157.808594 155.277344 157.808594 155.277344 L 157.808594 153.503906 C 157.808594 152.949219 157.355469 152.859375 157.199219 152.832031 L 151.671875 152.832031 C 151.097656 152.832031 150.636719 152.34375 150.636719 151.769531 C 150.636719 151.183594 151.097656 150.707031 151.671875 150.707031 L 157.140625 150.707031 L 157.140625 150.699219 C 157.769531 150.699219 157.808594 150.082031 157.808594 150.035156 L 157.808594 148.300781 C 157.808594 147.8125 157.433594 147.675781 157.25 147.636719 C 152.632812 147.636719 149.601562 147.355469 149.589844 142.902344 C 149.609375 138.476562 152.601562 138.195312 157.140625 138.175781 C 157.769531 138.175781 157.808594 137.5625 157.808594 137.511719 L 157.808594 135.808594 C 157.808594 135.144531 157.132812 135.136719 157.132812 135.136719 L 151.671875 135.136719 C 151.097656 135.136719 150.636719 134.636719 150.636719 134.074219 C 150.636719 133.480469 151.097656 133 151.671875 133 L 157.179688 133 C 157.660156 133 157.789062 132.613281 157.808594 132.4375 L 157.808594 130.605469 C 157.777344 130.011719 157.210938 129.972656 157.210938 129.972656 L 151.683594 129.972656 C 151.105469 129.972656 150.644531 129.484375 150.644531 128.898438 C 150.644531 128.304688 151.105469 127.828125 151.683594 127.828125 L 157.160156 127.828125 C 157.671875 127.828125 157.789062 127.425781 157.816406 127.242188 L 157.816406 125.429688 C 157.789062 124.855469 157.277344 124.785156 157.191406 124.785156 L 151.683594 124.785156 C 151.105469 124.785156 150.644531 124.308594 150.644531 123.714844 C 150.644531 123.140625 151.105469 122.664062 151.683594 122.664062 L 157.160156 122.664062 L 157.160156 122.652344 C 157.671875 122.652344 157.789062 122.242188 157.816406 122.078125 L 157.816406 120.253906 C 157.789062 119.621094 157.152344 119.601562 157.152344 119.601562 L 151.683594 119.601562 C 151.105469 119.601562 150.644531 119.125 150.644531 118.550781 C 150.644531 117.964844 151.105469 117.488281 151.683594 117.488281 L 157.160156 117.488281 C 157.671875 117.488281 157.789062 117.078125 157.816406 116.902344 L 157.816406 115.082031 C 157.789062 114.476562 157.230469 114.4375 157.171875 114.4375 L 151.683594 114.4375 C 151.105469 114.4375 150.644531 113.949219 150.644531 113.367188 C 150.644531 112.792969 151.105469 112.304688 151.683594 112.304688 L 157.160156 112.304688 C 157.671875 112.304688 157.789062 111.90625 157.816406 111.710938 L 157.816406 104.324219 C 157.789062 103.710938 157.152344 103.679688 157.152344 103.679688 L 156.085938 103.679688 C 153.960938 103.679688 152.640625 105.269531 151.292969 106.789062 C 150.285156 107.910156 147.171875 111.125 146.214844 111.933594 C 145.257812 112.753906 144.257812 112.859375 143.777344 112.539062 C 142.878906 111.953125 143.25 110.929688 143.996094 110.714844 C 144.777344 110.511719 145.296875 109.898438 145.980469 109.265625 C 146.96875 108.328125 148.375 106.867188 149.285156 105.871094 C 150.195312 104.867188 150.195312 103.601562 149.285156 103.171875 C 147.957031 102.539062 147.898438 102.519531 147.054688 102.171875 C 145.53125 101.554688 146.480469 99.546875 147.820312 100.113281 C 149.453125 100.785156 150.949219 101.496094 151.828125 101.554688 C 152.835938 101.605469 154.414062 101.566406 157.191406 101.554688 C 157.660156 101.535156 157.789062 101.15625 157.816406 100.972656 L 157.816406 99.148438 C 157.789062 98.515625 157.152344 98.496094 157.152344 98.496094 L 157.152344 98.488281 C 152.613281 98.46875 149.621094 98.195312 149.601562 93.761719 C 149.621094 89.328125 152.613281 89.042969 157.160156 89.023438 C 157.671875 89.023438 157.789062 88.617188 157.816406 88.441406 L 157.816406 86.648438 C 157.789062 86.070312 157.25 86.023438 157.179688 86.011719 L 151.691406 86.011719 C 151.117188 86.011719 150.65625 85.527344 150.65625 84.941406 C 150.65625 84.355469 151.117188 83.878906 151.691406 83.878906 L 165.828125 83.878906 C 167.238281 83.878906 167.421875 82.789062 166.953125 82.097656 C 166.503906 81.433594 166.121094 80.945312 165.722656 80.527344 C 165.289062 80.078125 164.597656 79.71875 163.890625 79.613281 C 161.210938 79.242188 155.402344 78.382812 154.863281 78.304688 C 154.167969 78.207031 152.875 77.992188 152.210938 76.542969 C 151.867188 75.800781 150.746094 73.21875 150.746094 73.21875 C 150.507812 72.683594 150.753906 72.058594 151.28125 71.824219 C 151.808594 71.582031 152.425781 71.824219 152.660156 72.351562 C 152.660156 72.351562 153.589844 74.457031 153.765625 74.867188 C 154.199219 75.792969 154.890625 76.179688 155.9375 76.347656 C 156.605469 76.445312 163.070312 77.332031 164.46875 77.554688 C 165.574219 77.710938 166.628906 78.246094 167.101562 78.765625 C 167.5 79.203125 168.382812 80.332031 169.507812 81.746094 C 170.933594 83.558594 169.496094 85.992188 167.304688 85.992188 L 164.039062 85.992188 C 163.390625 85.992188 163.371094 86.675781 163.371094 86.675781 L 163.371094 150.015625 L 163.390625 150.015625 C 163.390625 150.679688 164.058594 150.6875 164.058594 150.6875 L 164.058594 150.699219 L 166.335938 150.699219 C 168 150.699219 168.949219 150.003906 168.949219 147.746094 L 168.949219 100.660156 C 168.949219 99.792969 168.859375 97.648438 170.671875 96.65625 C 171.53125 96.195312 172.195312 95.875 172.195312 95.875 C 173.605469 95.222656 174.691406 97.101562 173.183594 97.941406 "/>
<path style=" stroke:none;fill-rule:nonzero;fill:rgb(0%,36.470588%,54.509804%);fill-opacity:1;" d="M 125.820312 74.816406 C 125.820312 74.164062 125.144531 74.144531 125.144531 74.144531 L 125.144531 74.136719 C 122.5625 74.125 120.066406 74.078125 120.066406 76.6875 L 120.066406 76.707031 C 120.066406 79.328125 122.570312 79.269531 125.152344 79.261719 C 125.808594 79.261719 125.820312 78.589844 125.820312 78.589844 Z M 125.820312 74.816406 "/>
<path style=" stroke:none;fill-rule:nonzero;fill:rgb(0%,36.470588%,54.509804%);fill-opacity:1;" d="M 100.6875 216.558594 L 100.894531 216.824219 L 103.417969 215.683594 C 103.417969 215.683594 102.878906 214.464844 102.019531 213.53125 C 101.695312 213.179688 101.253906 212.828125 100.6875 212.457031 C 100.132812 212.097656 99.496094 211.816406 98.820312 211.609375 C 97.558594 211.21875 96.304688 211.171875 95.074219 211.464844 C 93.851562 211.746094 92.785156 212.292969 91.902344 213.101562 C 91.023438 213.898438 90.417969 214.863281 90.074219 215.984375 C 89.761719 217 89.742188 218.082031 90.027344 219.21875 C 90.308594 220.359375 90.875 221.402344 91.746094 222.367188 C 92.609375 223.324219 93.65625 223.996094 94.898438 224.375 C 96.980469 225.007812 98.742188 225.027344 100.171875 224.433594 C 100.171875 224.433594 101.128906 223.964844 101.296875 223.421875 L 102.203125 220.457031 L 98.4375 219.308594 L 98.300781 219.757812 C 99.652344 220.164062 99.660156 221.199219 99.5625 221.5 L 99.269531 222.464844 C 98.242188 223.265625 97.011719 223.441406 95.59375 223.011719 L 95.523438 222.992188 C 94.320312 222.613281 93.382812 221.78125 92.726562 220.496094 C 92.0625 219.21875 91.914062 217.933594 92.304688 216.675781 C 92.765625 215.1875 93.578125 214.09375 94.761719 213.363281 C 95.945312 212.644531 97.167969 212.46875 98.449219 212.855469 C 99.496094 213.179688 100.257812 213.675781 100.738281 214.367188 C 101.214844 215.058594 101.253906 215.460938 101.175781 215.957031 C 101.109375 216.367188 100.757812 216.519531 100.6875 216.558594 "/>
<path style=" stroke:none;fill-rule:nonzero;fill:rgb(0%,36.470588%,54.509804%);fill-opacity:1;" d="M 230.273438 124.054688 C 230.273438 124.28125 230.167969 124.496094 229.941406 124.699219 C 229.734375 124.875 229.492188 124.960938 229.21875 124.960938 L 225.597656 124.902344 L 218.691406 121.484375 C 217.800781 120.949219 217.65625 120.578125 217.664062 120.082031 L 217.371094 120.070312 L 217.300781 124.113281 L 217.597656 124.125 C 217.597656 123.839844 217.871094 123.597656 218.203125 123.714844 C 218.320312 123.753906 221.683594 125.351562 223.140625 126.035156 C 221.664062 126.675781 218.242188 128.160156 218.125 128.1875 C 217.78125 128.285156 217.527344 128.03125 217.527344 127.757812 L 217.222656 127.75 L 217.15625 131.804688 L 217.449219 131.8125 C 217.457031 131.316406 217.617188 130.953125 218.523438 130.449219 L 225.558594 127.253906 L 229.167969 127.3125 C 229.433594 127.3125 229.667969 127.417969 229.871094 127.613281 C 230.085938 127.808594 230.1875 128.023438 230.1875 128.246094 L 230.488281 128.253906 L 230.558594 124.074219 Z M 230.273438 124.054688 "/>
<path style=" stroke:none;fill-rule:nonzero;fill:rgb(0%,36.470588%,54.509804%);fill-opacity:1;" d="M 222.839844 153.503906 C 222.195312 153.25 221.546875 153.269531 220.933594 153.425781 C 220.335938 153.582031 219.808594 153.855469 219.347656 154.253906 C 218.878906 154.644531 218.4375 155.101562 218.015625 155.628906 C 217.597656 156.152344 217.195312 156.691406 216.8125 157.214844 C 216.550781 157.597656 216.292969 157.976562 216.039062 158.296875 C 215.6875 158.726562 215.328125 159.078125 214.953125 159.292969 C 214.074219 159.796875 213.449219 159.332031 213.214844 159 C 212.546875 158.09375 212.78125 156.699219 213.273438 155.65625 C 214.074219 153.941406 215.589844 152.453125 217.007812 152.703125 L 217.117188 152.363281 L 215.453125 151.847656 L 214.652344 151.59375 L 212.988281 151.078125 L 212.882812 151.417969 C 213.644531 151.652344 213.410156 152.304688 213.242188 152.511719 C 212.117188 154.019531 211.511719 155.6875 211.316406 156.914062 C 210.828125 159.855469 212.382812 161.339844 213.320312 161.699219 C 213.964844 161.953125 214.613281 161.933594 215.21875 161.777344 C 215.816406 161.621094 216.355469 161.359375 216.804688 160.949219 C 217.273438 160.558594 217.714844 160.101562 218.132812 159.574219 C 218.554688 159.046875 218.957031 158.511719 219.328125 157.984375 C 219.589844 157.605469 219.847656 157.226562 220.109375 156.90625 C 220.453125 156.476562 220.8125 156.125 221.195312 155.910156 C 222.074219 155.402344 222.703125 155.882812 222.9375 156.203125 C 223.601562 157.109375 223.367188 158.503906 222.878906 159.546875 C 222.074219 161.269531 220.382812 163.324219 218.957031 163.074219 L 218.847656 163.414062 L 220.511719 163.929688 L 221.3125 164.175781 L 222.976562 164.691406 L 223.082031 164.347656 C 222.320312 164.117188 222.554688 163.460938 222.722656 163.257812 C 223.847656 161.757812 224.628906 159.507812 224.835938 158.277344 C 225.324219 155.355469 223.769531 153.875 222.839844 153.503906 "/>
<path style=" stroke:none;fill-rule:nonzero;fill:rgb(0%,36.470588%,54.509804%);fill-opacity:1;" d="M 128.683594 227.621094 L 123.285156 227.621094 L 123.285156 217.019531 C 123.285156 216.785156 123.382812 216.558594 123.589844 216.316406 C 123.792969 216.082031 124.007812 215.976562 124.214844 215.976562 L 124.214844 215.671875 L 119.929688 215.671875 L 119.929688 215.976562 C 120.144531 215.976562 120.351562 216.09375 120.546875 216.335938 C 120.742188 216.589844 120.839844 216.8125 120.839844 217.019531 L 120.839844 227.589844 C 120.839844 227.855469 120.742188 228.097656 120.554688 228.3125 C 120.371094 228.535156 120.15625 228.644531 119.929688 228.644531 L 119.929688 228.957031 L 130.308594 228.957031 L 130.308594 226.21875 L 129.957031 226.21875 C 129.957031 226.976562 129.320312 227.621094 128.683594 227.621094 "/>
<path style=" stroke:none;fill-rule:nonzero;fill:rgb(0%,36.470588%,54.509804%);fill-opacity:1;" d="M 33.0625 167.546875 L 32.9375 167.222656 C 32.234375 167.507812 31.402344 167.164062 31.167969 166.570312 L 29.113281 161.550781 L 34.199219 159.488281 L 35.527344 162.730469 C 35.636719 162.984375 35.65625 163.269531 35.605469 163.589844 C 35.566406 163.921875 35.460938 164.105469 35.292969 164.175781 L 35.421875 164.476562 L 38.074219 163.394531 L 37.953125 163.09375 C 37.777344 163.160156 37.554688 163.09375 37.289062 162.886719 C 37.027344 162.671875 36.851562 162.46875 36.75 162.234375 L 35.421875 158.988281 L 38.941406 157.558594 L 40.65625 161.746094 L 40.996094 162.574219 C 41.230469 163.160156 40.878906 163.988281 40.183594 164.269531 L 40.3125 164.59375 L 42.847656 163.558594 L 42.179688 161.933594 L 38.894531 153.902344 L 38.621094 154.019531 C 38.707031 154.234375 38.679688 154.46875 38.53125 154.742188 C 38.367188 155.023438 38.199219 155.191406 38.003906 155.277344 L 28.210938 159.253906 C 27.96875 159.351562 27.703125 159.359375 27.429688 159.261719 C 27.144531 159.164062 26.96875 159.007812 26.871094 158.785156 L 26.578125 158.902344 L 29.992188 167.242188 L 30.53125 168.558594 Z M 33.0625 167.546875 "/>
<path style=" stroke:none;fill-rule:nonzero;fill:rgb(0%,36.470588%,54.509804%);fill-opacity:1;" d="M 212.128906 178.859375 C 212.742188 179.289062 212.910156 180.175781 212.539062 180.691406 L 209.417969 185.125 L 204.917969 181.988281 L 206.933594 179.113281 C 207.089844 178.886719 207.316406 178.710938 207.617188 178.585938 C 207.910156 178.441406 208.125 178.429688 208.285156 178.539062 L 208.46875 178.273438 L 206.121094 176.636719 L 205.933594 176.898438 C 206.09375 177.007812 206.152344 177.230469 206.121094 177.574219 C 206.082031 177.902344 206.003906 178.167969 205.855469 178.371094 L 203.84375 181.246094 L 200.730469 179.074219 L 203.332031 175.371094 L 203.851562 174.640625 C 204.214844 174.121094 205.113281 173.96875 205.730469 174.394531 L 205.925781 174.113281 L 203.6875 172.554688 L 202.667969 173.996094 L 197.679688 181.101562 L 197.925781 181.277344 C 198.0625 181.089844 198.277344 180.984375 198.578125 180.953125 C 198.902344 180.945312 199.148438 180.984375 199.3125 181.109375 L 207.96875 187.152344 C 208.183594 187.296875 208.332031 187.511719 208.402344 187.792969 C 208.46875 188.078125 208.441406 188.320312 208.304688 188.515625 L 208.558594 188.691406 L 213.125 182.199219 L 214.574219 180.144531 L 212.332031 178.585938 Z M 212.128906 178.859375 "/>
<path style=" stroke:none;fill-rule:nonzero;fill:rgb(0%,36.470588%,54.509804%);fill-opacity:1;" d="M 229.023438 138.488281 C 228.785156 138.644531 228.542969 138.703125 228.269531 138.652344 L 217.753906 137.085938 L 218.152344 134.453125 C 218.25 133.828125 218.996094 133.292969 219.746094 133.410156 L 219.796875 133.070312 L 217.085938 132.671875 L 216.714844 135.15625 L 215.824219 141.070312 L 215.453125 143.542969 L 218.164062 143.953125 L 218.210938 143.613281 C 217.46875 143.496094 216.902344 142.773438 217 142.140625 L 217 142.113281 L 217.390625 139.519531 L 227.90625 141.089844 C 228.171875 141.128906 228.386719 141.253906 228.570312 141.480469 C 228.765625 141.695312 228.835938 141.90625 228.796875 142.132812 L 229.101562 142.179688 L 229.734375 137.972656 L 229.433594 137.921875 C 229.394531 138.136719 229.257812 138.332031 229.023438 138.488281 "/>
</g>
</svg>
