<?xml version="1.0" encoding="utf-8"?>
<!-- Generator: Adobe Illustrator 16.0.0, SVG Export Plug-In . SVG Version: 6.00 Build 0)  -->
<!DOCTYPE svg PUBLIC "-//W3C//DTD SVG 1.1//EN" "http://www.w3.org/Graphics/SVG/1.1/DTD/svg11.dtd">
<svg version="1.1" id="Layer_1" xmlns="http://www.w3.org/2000/svg" xmlns:xlink="http://www.w3.org/1999/xlink" x="0px" y="0px"
	 width="924.162px" height="296.531px" viewBox="0 0 924.162 296.531" enable-background="new 0 0 924.162 296.531"
	 xml:space="preserve">
<g>
	<g>
		<path fill="#0F6A7B" d="M131.953,2.32c27.92-3.02,56.69,2.02,81.79,14.66c28.62,14.24,52.33,38.07,66.44,66.76
			c12.95,26.06,17.74,56.02,13.89,84.84c-3.89,29.96-17.41,58.52-37.97,80.63c-20.52,22.24-48.02,37.96-77.66,44.14
			c-29.9,6.33-61.77,3.18-89.75-9.15c-28.39-12.38-52.62-33.97-68.23-60.7c-13.45-22.87-20.48-49.43-20.14-75.95
			c0.16-33.69,12.47-67.11,34.1-92.92C58.543,25.45,94.273,6.17,131.953,2.32z M128.853,6.2c-31.12,4.04-60.67,18.79-82.7,41.12
			c-23.4,23.41-38.25,55.12-41.22,88.08c-2.89,29.86,3.84,60.57,19.03,86.44c14.25,24.42,35.83,44.49,61.27,56.84
			c27.4,13.37,59.13,17.62,89.08,11.92c28.59-5.29,55.37-19.65,75.69-40.42c21.92-22.16,36.28-51.63,40.17-82.55
			c3.83-29.01-1.45-59.14-14.96-85.1c-13.76-26.61-36.04-48.72-62.8-62.22C186.833,7.32,157.283,2.34,128.853,6.2z"/>
	</g>
	<g>
		<path fill="#0F6A7B" d="M129.843,9.23c26.07-3.36,53.09,0.69,76.92,11.83c28.81,13.28,52.79,36.71,66.81,65.17
			c13.39,26.79,17.73,57.9,12.53,87.37c-4.96,28.63-19.1,55.55-39.82,75.9c-21.22,21.05-49.34,35.01-78.96,39.07
			c-26.28,3.67-53.59-0.2-77.71-11.3c-29.11-13.22-53.37-36.78-67.5-65.46c-13.68-27.34-17.92-59.2-12.22-89.21
			c5.43-29.1,20.38-56.31,42.01-76.52C73.153,26.01,100.843,12.89,129.843,9.23z M97.623,24.77c-1.34,2.29,1.01,5.29,1.22,7.83
			c-1.01,0.79-2.02,1.58-3.01,2.4c1.2,0.52,2.4,1.03,3.61,1.54c-0.51,2.41,0.32,6.29-3.24,6.31c0.55,4.77,1.95,9.41,4.08,13.7
			c0.52,1.55,2.24,1.98,3.47,2.79c0.41-5.7-3.48-10.41-5.36-15.53c0.64-0.56,1.9-1.68,2.54-2.23c1.04,1.57,1.92,3.25,3.06,4.75
			c0.69-0.25,2.07-0.76,2.75-1.01c0.05,0.14,0.15,0.41,0.19,0.54c-1.15,1.1-2.26,2.25-3.25,3.49c1.5-0.24,3-0.52,4.49-0.84
			c0.37,0.78,1.11,2.32,1.48,3.1c0.64-2.13,1.23-4.28,2.03-6.36c-0.79-0.16-2.37-0.48-3.16-0.64c0.26-0.4,0.78-1.2,1.04-1.6
			c-1.69-1.49-1.31-3.53-1.02-5.48c1.34-0.57,2.68-1.15,4.06-1.63c2.17,3.34,3.12,7.28,4.48,10.99c-0.52,0.42-1.57,1.26-2.1,1.68
			c1.19,1,2.4,1.98,3.61,2.96c3.8-3.51,1.4-9.14-0.1-13.21c-1.16-2.05-1.44-5.36-4.06-6.02c-4.79,1.17-8.67,4.45-13.08,6.48
			c0.38-1.31,0.77-2.62,1.16-3.93c1.82-1.26,3.57-2.62,5.27-4.05c-1.61-1.54-3.68-1.3-5.68-0.82
			C101.103,27.93,100.633,24.41,97.623,24.77z M188.933,32.33c-2.63-0.24-5.66-1.43-7.66,0.99c1.38,1.43,3.14,2.34,5,3.01
			c-4.11,5.69-10.74,8.28-16.48,11.89c2.92-0.07,5.94-0.14,8.7-1.24c3.67-1.24,6.17-4.37,8.8-7.04c0.98,4.93,0.56,11.28,5.22,14.44
			c1.25,0.97,2.92,0.98,4.38,1.41c-2.92-5.97-6.44-11.78-7.33-18.51c2.37,0.39,4.92,1.73,7.29,0.62c1.53-3.7-2.99-3.69-5.37-4.6
			c0.44-2.84,3.8-6.22,1.6-8.89C190.903,26.56,190.003,29.55,188.933,32.33z M134.803,56.2c-24.72,3.36-47.69,17.28-62.31,37.46
			c-12.8,17.4-19.21,39.34-17.86,60.9c1.18,21.63,10.23,42.69,25.06,58.48c14.71,15.85,35.07,26.35,56.56,28.95
			c19.66,2.49,40.08-1.48,57.31-11.29c19.18-10.78,34.31-28.55,41.86-49.23c7.99-21.5,7.68-45.95-0.88-67.25
			c-8.16-20.62-23.92-38.1-43.59-48.34C173.863,56.86,153.923,53.49,134.803,56.2z M38.893,72.5c1.8-0.81,3.37-2.02,4.82-3.35
			c1.4,1.37,2.78,2.77,4.1,4.23c-1.7-0.44-3.39-0.93-5.12-1.27c1.04,2.23,2.76,4.01,4.43,5.78c0.63-0.96,1.26-1.92,1.89-2.88
			c0.84,1.66,1.7,3.31,2.61,4.94c0.36-1.19,0.72-2.38,1.07-3.57c3.96,0.16,6.48-3.82,6.04-7.46c-1.25-0.04-2.5-0.08-3.75-0.12
			c0.18,1.45,0.6,2.98-0.21,4.33c-1.35,0-2.69-0.23-4.03-0.39c0.14-1.49,0.3-2.98,0.47-4.47c-0.86-0.15-2.59-0.44-3.45-0.59
			c0.02,0.51,0.06,1.51,0.08,2.01c-2.25-1.55-3.35-3.81-3.56-6.48C41.673,65.77,40.273,69.19,38.893,72.5z M246.313,77.18
			c0.8,0.72,1.62,1.43,2.45,2.13c3.56-2.47,8.19-4.54,9.15-9.25C253.013,70.16,249.653,74.14,246.313,77.18z M247.863,80.03
			c-2.04-1.7-3.61-3.89-5.72-5.5c-1.61-0.52-4.03-0.5-5.02,1.09c-1.3,1.12-0.05,3.46,1.39,3.61c1.4-0.46,2.58-1.39,3.92-1.98
			c3.32,3.12,5.77,7.06,8.15,10.91c0.96,1.26,1.02,2.84,0.93,4.36c0.99,1.38,2.18,2.61,3.62,3.54c0.71-4.47-1.38-8.42-3.93-11.88
			c2.99,1.05,5.97,2.18,9.12,2.67c0.52-1.04,1.04-2.08,1.57-3.11c0.85,0.32,2.53,0.95,3.37,1.27c0.55-2.18,1.82-4.17,2.04-6.43
			c-1.55-1.01-2.97,0.59-4.36,1.07c-1.16-0.72-2.32-1.44-3.47-2.16c1.48-1.6,2.62-3.45,1.59-5.65
			C256.513,74.34,252.763,78.22,247.863,80.03z M35.703,73.85c-1.77,2.81-3.03,5.92-4.45,8.92c3.28-0.19,5.25-3.03,7.67-4.85
			c-0.72,2.14-1.42,4.71-4.32,4.51c4.07,2.84,8.15,5.7,11.83,9.04c0.96,0.84,2.42,0.37,3.58,0.62c-0.53-2.63-1.13-5.36-3.06-7.36
			c-0.18,0.81-0.54,2.43-0.72,3.24c-0.94-0.55-1.88-1.11-2.82-1.66c0.18-0.73,0.55-2.2,0.74-2.94c1.66,1.06,3.65,1.13,5.56,1.38
			c0.1-2.57-1.42-4.77-3.71-1.99c-1.64-2.58-2.87-5.65-5.68-7.22C38.913,74.87,37.323,72.96,35.703,73.85z M51.173,86.66
			c2.48,2.87,5.29,5.74,9.19,6.47c0.94-2.45,1.82-4.94,2.34-7.52c-1.48,1.41-2.8,2.95-4.19,4.44c0.48-2.19,2.7-5.31-0.21-6.72
			c-0.77,1.51-1.39,3.09-2.06,4.65c-1.09-0.57-2.18-1.14-3.27-1.71c1.27-1.51,2.54-3.02,3.78-4.54c2.62,1.26,5.02,2.91,7.67,4.11
			c1.07-4.32-3.68-6.82-6.96-8.28C54.293,79.61,53.053,83.54,51.173,86.66z M67.113,87.24c-2.12,3.6-4.87,6.85-6.47,10.76
			c0.89-0.17,2.67-0.5,3.56-0.67c2.46-4.59,7.11-8.55,6.9-14.13C69.563,84.31,68.073,85.55,67.113,87.24z M243.053,84.74
			c0.81,0.78,1.63,1.56,2.46,2.34c-1.45,0.24-2.88,0.5-4.31,0.78c-1.49-1.56-3.03-3.08-4.66-4.47c0.2,2.51,1.09,4.87,2.04,7.18
			c-1.52,0.64-3.06,1.25-4.59,1.86c-0.45-0.64-1.34-1.92-1.79-2.56c-0.85,1.67-3.37,3.46-1.54,5.35c3.16,1.96,6.54-0.53,9.13-2.29
			c1.31,1,2.56,2.34,4.33,2.37c-0.15-2.24-1.04-4.39-0.91-6.65c1.83,0.4,3.59,1.19,5.5,1.25c0.43-2.84-1.47-5.22-3.51-6.91
			C244.463,83.55,243.743,84.13,243.053,84.74z M30.483,144.71c-3.05,0.88-4.07,5.24-1.68,7.36c2.13,2.3,6.38,1.23,7.25-1.77
			C37.313,147.07,33.733,143.43,30.483,144.71z M262.673,144.91c-2.83,1.2-3.44,5.44-0.99,7.35c2.28,2.17,6.49,0.81,7.13-2.27
			C269.853,146.61,265.843,143.18,262.673,144.91z M41.303,182.51c-4.33,1.62-8.75,3.08-13.23,4.24c-0.39-0.09-1.17-0.26-1.56-0.35
			c0.05-1.35,1.33-2.24,1.94-3.34c-1.21-0.34-2.64-1.19-3.38,0.37c-0.81,2.78,1.41,5.31,4.25,5.21c4.88-0.49,9.35-2.79,14.08-3.94
			c0.47,0.5,1.4,1.5,1.86,2c-0.79-2.4-1.57-4.81-2.09-7.29C42.583,180.44,42.673,182.17,41.303,182.51z M251.393,185.53
			c0.54-0.36,1.63-1.09,2.17-1.45c2.06,2.31,3.94,4.77,5.81,7.24c-3.05,0.76-6.1,1.65-9.25,1.72c-0.15-0.66-0.45-1.98-0.6-2.64
			c-0.84,2.56-1.81,5.08-2.94,7.53c3.44-2.53,7.82-2.9,11.87-3.75c2.72-0.59,5.14,1.27,7.59,2.14c-0.09,1.05-0.17,2.1-0.25,3.16
			c0.86-2.18,1.72-4.34,2.67-6.47c-3.39,0.64-7.23-0.67-9.26-3.49c-2.31-3.05-5.05-6.05-5.55-10
			C252.983,181.55,252.203,183.55,251.393,185.53z M46.893,193.65c-4.85,2.32-9.76,4.51-14.72,6.57c-0.49-0.44-1.49-1.32-1.98-1.76
			c0.97,2.38,1.96,4.75,2.89,7.14c0.04-0.73,0.14-2.19,0.18-2.93c4.45-1.96,8.79-4.21,13.35-5.9c1.55-0.92,2.6,0.67,3.71,1.5
			c-1.36-2.52-2.49-5.15-3.58-7.78C46.793,191.54,46.843,192.59,46.893,193.65z M245.053,200.81c-2.61,4.24-5.26,8.46-7.87,12.69
			c0.96,0.78,1.92,1.57,2.88,2.36c-1.09-2.48-0.34-4.9,1.06-7.07c4.64,2.88,9.29,5.74,13.85,8.74c-0.1,0.76-0.29,2.28-0.39,3.04
			c1.38-2.42,2.82-4.81,4.32-7.16c-0.82,0.62-1.63,1.25-2.43,1.88c-4.74-2.78-9.36-5.75-13.99-8.7c1.47-2.14,3.16-4.32,6.09-3.85
			C247.393,202.11,246.223,201.46,245.053,200.81z M51.973,201.18c-0.06,1.37-0.21,2.74-0.44,4.09c-3.99,2.95-8.36,5.32-12.55,7.98
			c-0.85-0.6-1.7-1.2-2.55-1.79c1.26,1.99,2.49,4.01,3.71,6.04c-0.16-0.76-0.49-2.27-0.66-3.03c3.69-2.56,7.51-4.92,11.39-7.19
			c-1.96,6.25-4.22,12.4-6.16,18.65c5.23-3.01,10.17-6.54,15.5-9.39c0.57,0.5,1.71,1.5,2.28,2c-1.27-2.09-2.56-4.16-3.85-6.22
			c0.23,1.02,0.48,2.04,0.72,3.06c-3.54,2.43-7.2,4.67-10.85,6.93c1.65-5.16,3.54-10.23,5.19-15.37
			C54.653,204.83,52.693,203.02,51.973,201.18z M229.153,222.98c0.59-0.29,1.79-0.88,2.38-1.18c2.58,1.46,4.64,3.63,6.9,5.5
			c2.17,2.03,5.2,3.72,5.49,7.01c1.05-1.5,2.22-2.91,3.46-4.26c-3.7-0.45-5.94-3.7-8.71-5.81c-2.01-2-5.32-3.61-4.98-6.92
			C232.273,219.28,230.733,221.15,229.153,222.98z M50.563,233.07c1.41,1.11,2.77,2.29,4.09,3.51c-1.45-2.86,1.91-3.59,3.86-4.37
			c2.12,1.39,3.81,3.32,5.62,5.09c-1.2,1.87-1.79,5.96-4.83,3.9c1.62,1.5,3.15,3.08,4.64,4.7c1.3-7.03,4.82-13.35,7.03-20.1
			C64.113,228.02,57.883,232.61,50.563,233.07z M223.883,229.13c-2.05,1.05-4.62,2.01-5.39,4.43c-1.17,2.71,0.85,6.17,3.85,6.29
			c3.36,0.05,6.58-1.44,9.96-1.17c2.81,0.79,2.41,4.78,0.11,5.99c-2.21,1.93-5.05,0.61-7.43-0.16c1.2,1.28,2.41,2.56,3.6,3.86
			c2.13-1.74,4.83-2.88,6.5-5.14c1.79-2.66,0.4-6.82-2.84-7.49c-3.69-0.39-7.21,1.54-10.9,1.24c-2.65-0.75-1.98-4.67,0.19-5.6
			c2.34-1.64,4.91,0,7.15,0.92c-1.49-1.61-2.96-3.24-4.42-4.87C224.173,227.86,223.983,228.71,223.883,229.13z M79.333,235.15
			c0.49,1.17,0.99,2.34,1.49,3.51c-2.75,4.3-5.45,8.63-8.41,12.8c-0.75-0.18-2.26-0.54-3.02-0.72c1.92,1.21,3.83,2.45,5.62,3.86
			c-0.42-1.22-1.71-2.6-0.57-3.84c1.93-3.46,4.28-6.65,6.42-9.97c0.82,6.49,1.33,13.02,2.29,19.49c3.5-4.89,6.47-10.13,10.02-14.98
			c1.01,0.3,2.02,0.61,3.03,0.91c-1.97-1.32-3.95-2.63-5.95-3.91c0.42,0.58,1.25,1.74,1.66,2.32c-2.23,3.34-3.78,7.35-6.9,9.97
			c-0.85-5.61-1.23-11.28-1.9-16.91C81.853,236.83,80.593,235.99,79.333,235.15z M198.483,246.83c2.99,1.07,4.3,4.09,5.96,6.53
			c1.73,2.9,4.24,5.58,4.44,9.12c1.8-1.33,3.68-2.56,5.57-3.77c-0.77,0.16-2.31,0.5-3.08,0.66c-1.46-2.09-2.91-4.19-4.13-6.42
			c0.44-0.2,1.33-0.58,1.78-0.78c3.4,0.99,6.61,2.51,9.96,3.63c1.39-0.95,2.8-1.87,4.23-2.77c-4.22,1.09-8.11-1.13-11.94-2.56
			c0.64-1.88,2.23-3.83,1.28-5.87c-0.77-2.03-3.15-3.23-5.23-2.62C204.133,243.11,201.463,245.28,198.483,246.83z M102.153,249.43
			c0.52,0.49,1.56,1.46,2.08,1.94c-1.13,3.83-2.67,7.54-3.67,11.42c-2.26,6.5,8.15,11.08,12.19,6.29c2.49-3.73,3.01-8.34,5-12.3
			c0.68-0.29,2.03-0.88,2.7-1.17c-2.11-0.59-4.17-1.33-6.23-2.05c0.81,0.64,1.63,1.29,2.44,1.94c-1.28,4.05-2.4,8.2-4.26,12.03
			c-2.07,4.51-10.83,2.25-9.6-2.94c0.89-4.07,2.23-8.07,3.95-11.87c0.7-0.23,2.08-0.71,2.78-0.95
			C107.033,251.13,104.593,250.27,102.153,249.43z M180.143,254.62c0.58,0.11,1.74,0.34,2.32,0.45c2.73,4.47,4.08,9.65,6.19,14.44
			c-0.32,0.54-0.96,1.63-1.28,2.17c4.15-1.72,8.31-3.41,12.49-5.05c-0.03-1.71-0.07-3.41-0.08-5.11c-0.59,1.52-1.14,3.07-1.93,4.51
			c-1.97,1.42-4.33,2.09-6.56,2.96c-1.09-2.53-2.14-5.07-3.17-7.61c2.67-1.07,5.93-3.01,8.16-0.11c-0.88-1.9-1.63-3.87-2.22-5.87
			c-0.33,3.29-3.59,4.13-6.17,5.27c-0.97-2.33-1.91-4.67-2.85-7.01c2.34-0.83,4.61-2.2,7.14-2.27c0.95,0.56,1.87,1.22,2.78,1.87
			c-0.67-1.25-1.32-2.51-1.97-3.77C188.703,251.17,184.463,253.02,180.143,254.62z M171.393,256.55c0.54,0.25,1.62,0.77,2.16,1.03
			c0.17,4.76-1.7,9.37-2.47,14.04c-2.66-4.05-5.43-8.04-7.86-12.24c0.59-0.44,1.77-1.3,2.36-1.74c-2.46,0.4-4.93,0.75-7.41,0.93
			c5.81,4.53,8.37,11.9,13,17.49c1.27-5.22,2.27-10.5,3.46-15.74c0.35-1.84,1.32-3.45,2.42-4.92
			C175.173,255.84,173.293,256.23,171.393,256.55z M123.123,256.33c0.93,0.76,1.83,1.55,2.7,2.39c0,5.07-1.24,10.07-1.86,15.1
			c-0.68,0.29-2.04,0.87-2.73,1.15c2.04,0.11,4.08,0.26,6.12,0.46c-0.48-0.36-1.43-1.1-1.91-1.46c-0.06-4.37,0.99-8.67,1.6-12.98
			c3.57,5.39,6.7,11.06,10.19,16.5c1.31-5.58,1.44-11.37,2.76-16.93c0.57-0.44,1.72-1.32,2.29-1.76c-2.11-0.12-4.21-0.36-6.3-0.62
			c0.89,0.43,1.78,0.86,2.67,1.29c-0.37,4.32-1.02,8.61-1.64,12.89c-3.16-5.08-6.2-10.23-9.3-15.34
			C126.173,256.79,124.643,256.56,123.123,256.33z M146.073,258.8c0.89,0.48,1.78,0.96,2.67,1.45c0.16,5.39,0.54,10.77,0.36,16.16
			c-0.75,0.2-2.27,0.6-3.03,0.8c2.75,0.06,5.5,0.04,8.25,0.23c-0.81-0.6-1.58-1.24-2.32-1.91c-0.58-5.18-0.5-10.41-0.58-15.62
			c0.57-0.29,1.72-0.88,2.29-1.17C151.163,258.79,148.623,258.83,146.073,258.8z"/>
	</g>
	<path fill="#0F6A7B" d="M103.213,39.63c0.71,0.05,2.13,0.13,2.84,0.18c-0.25,1.12-0.5,2.24-0.74,3.37
		C104.623,41.99,103.913,40.81,103.213,39.63z"/>
	<g>
		<path fill="#0F6A7B" d="M105.213,108.83c22.25-10.06,44.37-20.42,66.65-30.43c10.57,19.48,15.57,41.95,13.85,64.07
			c-0.91,13.4-4.38,26.55-9.72,38.86c-28.9,0.13-57.81-0.01-86.71,0.07c-2.51,0.11-5.05-0.35-7.17-1.75
			c-5.91-3.7-11.17-9.25-12.63-16.27c6.42-1.19,11.53,3.87,17.84,3.53c7.16,0.21,13.96-3.5,18.34-9.03
			c5.67-6.32,5.81-15.36,5.87-23.37C111.693,125.56,109.263,116.76,105.213,108.83z M145.393,111.05c-0.13,3.5-0.14,7.01-0.13,10.51
			c-3.69,0.01-7.39,0.04-11.07-0.14c2.69-1.7,5.58-3.04,8.59-4.06c0.04-1.96,0.06-3.91,0.09-5.87c-8.69,1.62-16.21,7.3-20.61,14.9
			c7.67,0.11,15.34,0.02,23.01,0.05c0,3.97,0,7.94-0.01,11.9c-1.2-0.02-2.39-0.04-3.58-0.07c0.02-2.75,0.02-5.51,0.03-8.27
			c-7.07,0.03-14.13-0.08-21.2,0.08c-0.38,1.6-0.75,3.2-1.13,4.8c5.81-0.01,11.62-0.01,17.43-0.01c0.02,1.14,0.04,2.28,0.06,3.42
			c-6.03,0.05-12.07,0.01-18.11,0.03c-0.25,7.5,1.86,15.17,6.76,20.96c4.3,5.42,10.65,8.8,17.3,10.42c0-2,0-3.99,0-5.98
			c-9.53-2.44-16.91-10.75-18.17-20.51c4.06-0.03,8.13-0.03,12.2-0.02c-0.02,0.82-0.04,2.45-0.05,3.27
			c-2.55-0.02-5.1-0.02-7.65-0.02c0.77,1.65,1.55,3.3,2.34,4.94c4.6,0.09,9.2,0.05,13.8,0.06c-0.01,0.71-0.05,2.12-0.07,2.83
			c-3.72-0.03-7.44-0.06-11.16,0.07c3.14,2.89,7.04,4.76,11.2,5.64c-0.01,3.34,0.01,6.69,0.13,10.03c1.91-0.01,3.81-0.02,5.72-0.04
			c0.03-3.35,0.03-6.69,0.06-10.03c3.99-0.97,7.76-2.77,10.79-5.58c-3.63-0.14-7.26-0.11-10.88-0.14c0.03-0.94,0.07-1.86,0.11-2.79
			c4.56-0.16,9.19,0.42,13.71-0.31c0.94-1.44,1.64-3.02,2.41-4.56c-2.58-0.09-5.16-0.13-7.74-0.14c0.01-0.81,0.02-2.43,0.03-3.24
			c4.06,0.01,8.12,0,12.17,0.03c-1.27,9.79-8.69,18.07-18.22,20.56c0.02,1.96,0.03,3.93,0.06,5.9c7.41-1.68,14.34-5.86,18.66-12.21
			c4.01-5.51,5.51-12.41,5.37-19.14c-6.02-0.01-12.05,0.01-18.08-0.02c0.01-1.14,0.02-2.29,0.04-3.43c5.83,0.01,11.66,0.01,17.49,0
			c-0.46-1.63-0.91-3.25-1.37-4.87c-6.98-0.01-13.96,0.01-20.94,0c-0.01,2.8-0.02,5.6-0.05,8.4c-1.21-0.06-2.42-0.11-3.62-0.17
			c0.04-3.93,0.04-7.87,0.04-11.8c7.66-0.01,15.31,0.06,22.97-0.03c-4.33-7.67-11.91-13.14-20.51-14.99
			c-0.02,1.96-0.04,3.93-0.05,5.89c2.97,1.05,5.87,2.32,8.48,4.12c-3.63,0.2-7.26,0.15-10.89,0.14c-0.01-3.48,0-6.97-0.03-10.45
			C149.213,111.08,147.303,111.06,145.393,111.05z"/>
	</g>
	<path fill="#0F6A7B" d="M253.093,81.91c1.57-1.23,3.18-2.43,4.83-3.57c0.92,0.96,1.85,1.92,2.78,2.89
		c-1.56,0.12-3.47-0.59-4.53,0.95c-1.53,2.22-4.27,1.53-6.52,1.18C250.783,82.86,251.933,82.37,253.093,81.91z"/>
	<path fill="#0F6A7B" d="M41.303,79.93c0.56,1.67,0.39,3.42,0,5.11C39.143,83.63,40.233,81.66,41.303,79.93z"/>
	<path fill="#0F6A7B" d="M141.693,143.19c4.36,0,8.72,0,13.08,0c0,0.81-0.01,2.44-0.02,3.26c-4.33-0.02-8.67-0.02-13.01,0.01
		C141.733,145.64,141.703,144.01,141.693,143.19z"/>
	<path fill="#0F6A7B" d="M219.603,155.82c2.98-1.54,6.21-2.51,9.28-3.82c-1.26,9.96-4.32,20.33-11.38,27.75
		c-5.24,3.21-11.91,0.98-17.72,1.63c2.56-7.33,5.21-14.63,7.7-21.97c2.91-0.86,5.81-1.7,8.71-2.56c-1.2,3.55-2.68,7.02-3.59,10.67
		c0.45,0.13,1.35,0.37,1.8,0.5C217.073,164.42,217.133,159.5,219.603,155.82z"/>
	<path fill="#0F6A7B" d="M196.543,161.64c2.75-0.52,5.5-1.06,8.25-1.61c-2.5,7.12-5.01,14.23-7.52,21.35c-2.31,0-4.62,0-6.93,0
		c-0.42-1.75-0.85-3.48-1.31-5.21c-0.61,1.73-1.2,3.47-1.8,5.2c-2.64,0.01-5.29,0.01-7.94,0.01c2.61-5.96,4.78-12.12,6.48-18.41
		c2.37-0.26,4.74-0.53,7.12-0.81c0.42,2.05,0.83,4.1,1.23,6.16C194.943,166.1,195.753,163.87,196.543,161.64z"/>
	<path fill="#0F6A7B" d="M115.033,199.74c0.6-2.87,3.02-4.68,5.55-5.8c1.21,0.81,0.96,2.28,1.03,3.52c0,4.82-0.06,9.64-0.02,14.46
		c-0.52,0.05-1.56,0.15-2.08,0.2c-0.09-5.08-0.07-10.16-0.04-15.24C118.023,197.87,116.553,198.85,115.033,199.74z"/>
	<g>
		<path fill="#0F6A7B" d="M134.353,206.21c-5.31-1.23-5.36-10.53,0.05-11.69c2.87-0.81,6.69-0.16,7.97,2.88
			c1.43,3.95,1.52,8.76-0.75,12.42c-3.05,3.91-10.22,2.73-11.58-2.24c2.95-0.29,4.3,3.49,7.26,2.81c2.9-0.23,3.27-3.61,4.29-5.7
			C139.313,205.65,136.893,206.93,134.353,206.21z M134.783,196.21c-3.44,1.66-2.69,8.51,1.53,8.53c4.32,0.6,5.66-5.69,2.89-8.1
			C137.933,195.73,136.203,195.71,134.783,196.21z"/>
	</g>
	<g>
		<path fill="#0F6A7B" d="M150.603,194.89c3.04-1.35,7.39-0.7,8.92,2.57c1.5,3.5,1.45,7.69,0.05,11.22
			c-2.21,5.14-11.19,4.33-12.16-1.32C146.503,203.19,146.333,197.29,150.603,194.89z M151.573,196.61
			c-2.88,2.77-2.43,7.56-1.43,11.1c0.77,3.15,5.69,3.42,6.98,0.53c1.39-2.99,1.27-6.62,0.26-9.72
			C156.683,196.08,153.593,195.52,151.573,196.61z"/>
	</g>
	<g>
		<path fill="#0F6A7B" d="M165.253,197.58c2.27-5.07,11.4-4.34,11.94,1.64c-2.51-0.94-4.49-4.03-7.45-3.17
			c-2.41,0.53-2.66,3.46-3.67,5.28c2.81-0.89,6.1-2.33,8.83-0.41c3.37,2.68,3,9.61-1.57,10.84c-2.98,0.95-7.01,0.23-8.28-2.96
			C163.803,205.24,163.743,201.08,165.253,197.58z M168.793,202.07c-2.15,1.27-2.18,4.35-1.4,6.44c1.64,3.42,7.89,2.12,7.44-1.97
			C175.583,203.1,171.853,200.28,168.793,202.07z"/>
	</g>
	<path fill="#0F6A7B" d="M59.713,231.77c2.52-1.13,5.06-2.21,7.61-3.28c-0.96,2.56-1.94,5.12-2.93,7.67
		C62.833,234.7,61.273,233.23,59.713,231.77z"/>
	<path fill="#0F6A7B" d="M202.393,245.5c2.18-1.24,5.34-2.96,7.15-0.18c2.23,2.7-0.53,5.59-2.48,7.38
		C205.423,250.35,203.873,247.94,202.393,245.5z"/>
</g>
<g>
	<path fill="#312A23" d="M885.353,39.49c1.87-3.01,5.48-4.91,8.96-5.19c2.25,0.87,4.58,2.12,5.88,4.25
		c1.44,2.72,1.05,5.92,1.21,8.89c0.72,0.88,1.45,1.76,2.2,2.64c2.64,0.72,5.2,1.71,7.69,2.87c0.44,6.24-6.02,8.44-10.15,11.4
		c-2.45,1.35-1.32,4.32-1.39,6.57c1.87,0.72,4.35,1.21,4.68,3.61c1.25,6.87-3.91,13.1-9.1,16.91c-5.08,1.41-7.96,6.1-12.42,8.57
		c-3.01,1.46-4.67,6.18-8.56,4.79c-1.18-1.19-1.02-3.1-0.09-4.38c2.19-3.22,5.35-5.6,8.11-8.3c-1.48-3.79-4.06-6.98-5.89-10.58
		c-1.19-6.21,4.34-11.57,9.92-13.17c-1.13-3.61-5.27-2.67-8.16-2.54c-2.8,0.75-5.44,2.04-8.27,2.67
		c-0.96,6.36-1.47,12.95,0.26,19.23c1.02,3.21,1.94,6.92,0.26,10.08c-1.43,2.82-2.2,5.94-3.88,8.63c11.9,0.76,23.85-0.01,35.77,0.38
		c5.35,0.53,9.56,4.21,14.37,6.22c2.39,1.15,5.38,1.78,6.95,4.12c1.13,2.56,0.11,5.9-2.36,7.28c-4.01,2.47-8.83,0.9-13.15,0.54
		c-2.67,0.77-5.22,1.94-7.92,2.6c0.24-2.46,0.53-4.92,0.83-7.38c-4.11-1.26-8.46-1.1-12.7-1.34c-10.01-0.31-20.05-0.78-30.04,0.13
		c-8.7,0.63-17.39,1.35-26.1,1.84c-2.73,0.11-4.59,2.64-5.89,4.77c-1.84,4.86,3.61,9.3,1.27,14.15c-2.81,5.32-9.88,6.28-14.95,4.07
		c-2.42-2.55-5.61-5.41-5.18-9.28c-0.08-7.18,4.37-13.65,9.34-18.45c2.26-2.63,5.6-0.9,8.42-0.59c5.08-1.93,9.9-4.66,15.31-5.7
		c-1.59-1.21-3.54-2.11-4.61-3.85c-2.1-4.54-2.27-9.62-2.15-14.53c0.24-3.78-2.07-7.14-1.9-10.91c-0.15-6.34-0.1-12.68-0.11-19.02
		c-0.11-5.07,3.77-9.75,8.66-10.94c2.71,3.84,6.2,7.17,8.35,11.37c0.27,4.62,0.34,9.27,1.82,13.72c-0.19,8.98,0.34,18.02-0.48,26.98
		c0.04,3.29-2.79,5.35-4.75,7.59c2.39-0.67,4.89-1.29,7.01-2.69c-0.27-3.27-1.63-6.56-0.42-9.82c2.22-6.56,0.67-13.46,0.83-20.21
		c0.11-3.07-0.94-5.99-1.34-8.99c0.2-4.01,0.92-7.98,1.01-11.99c-0.02-3.74-1.33-7.39-1.08-11.15c0.27-2.3,2.67-3.36,4.22-4.76
		c3.69,1.63,8.28,2.45,10.23,6.47c3.2,3.67-0.76,9.91,4.03,12.55c4.9-4.07,11.59-4.45,16.84-7.89
		C886.753,47.6,885.703,43.59,885.353,39.49z"/>
	<g>
		<path fill="#312A23" d="M368.363,49.94c4.24-0.12,7.69-3.38,11.97-3.23c3.06,0.15,6.71-0.73,9.23,1.5
			c2.69,2.19,3.72,5.8,3.17,9.16c-0.84,7.36,0.73,14.74-0.12,22.08c-1.3,4.26-1.88,8.98-4.9,12.45c-1.24,1.43-1.81,3.23-2.22,5.04
			c-2.96,4.26-8.25,5.26-12.82,6.89c-3.47,1.36-7.08-0.42-10.57-0.8c-0.02,5.57-0.07,11.13,0.06,16.69
			c3.54-1.38,6.53-3.98,10.25-4.89c1.05,0.85,2,1.83,2.98,2.78c-0.49,2.17-0.84,4.39-1.61,6.48c-1.82,3.02-4.69,5.21-6.67,8.11
			c-2.33,3.06-4.18,6.87-7.85,8.55c-4.24,1.49-7.29-2.78-9.2-5.9c-2.83-4.54-0.68-9.96,1.35-14.34c1.97-3.78,0.46-8.06,0.56-12.08
			c-0.13-14.76,3.27-29.75,0.22-44.38c2.07,0.36,4.4,0.08,6.26,1.2c2.33,1.6,1.21,5.14,3.22,6.92c4.9-0.07,9.72-1.12,14.57-1.68
			c0.05-1.78,0.08-3.55,0.13-5.33c-3.34,0.22-6.67,0.74-10.01,0.69c-3.08-0.54-5.56-2.66-8.5-3.57c-2.77-0.42-5.58-0.54-8.36-0.89
			c-1.58-3.18-2.18-6.67-2.06-10.2C354.323,49.66,361.383,50.12,368.363,49.94z M363.603,84.16c-0.85,2.54-1.27,5.2-1.14,7.88
			c3.97-0.43,8.26-0.43,11.74-2.67c2.27-1.32,1-4.48,1.49-6.61C371.763,83.92,367.703,84.58,363.603,84.16z"/>
	</g>
	<path fill="#312A23" d="M422.973,52.37c0.79-0.87,1.59-1.74,2.4-2.6c5.93,0.44,11.86,0.97,17.79,1.44
		c0.62,2.09,1.37,4.17,1.47,6.37c-2.02,4.52-7.43,4.51-11.52,5.73c3.39,6.41,0.03,13.37,0.25,20.11c1.32-2.44,1.82-5.18,2.4-7.86
		c0.51-0.01,1.53-0.03,2.04-0.04c1.89,3.51,4.62,6.47,6.62,9.91c1.25,1.99,0.36,4.39,0.13,6.54c-5.05,0.99-10.09,2.76-13.9,6.36
		c-0.22,5.39,1.93,10.33,4.27,15.05c4.18,0.35,9.92,1.51,12.51-2.78c1.72-2.01,2.3-5.17,4.72-6.44c2.57,0.53,2.5,3.93,3.31,5.96
		c2.57,1.88,4.43,4.47,5.63,7.42c-3.15,3.75-6.7,7.8-11.71,8.88c-5.98,1.13-12.03-0.31-18-0.77c-6.12,0.01-8.14-6.84-10.16-11.42
		c-4.72,2.15-8.98,5.81-14.46,5.54c-0.42-3.89-0.92-8.66,2.42-11.47c3-2.79,5.13-6.35,5.87-10.41c-3.76,0.36-7.59,1.83-11.37,1.08
		c-3.53-1.31-1.83-5.7-1.92-8.49c-0.38-3.42,2.69-5.53,3.89-8.39c0.42-3.08-0.1-6.21,0.44-9.28c2.67-2.42,6.3-2.36,9.09-0.19
		c2.12,4.74,0.01,9.67-0.31,14.53c1.53-0.5,3.14-0.85,4.62-1.53c2.89-7.06,3.63-14.79,3.35-22.36c-5.38-0.12-11.2,0.61-16.1-2.08
		c-2.96-1.54-3.37-5.11-3.94-8.02C409.503,52.01,416.313,54.2,422.973,52.37z"/>
	<g>
		<path fill="#312A23" d="M542.323,59.68c1.95-0.97,3.91-1.93,5.9-2.82c3.1,2.17,6.82,4.09,8.43,7.72
			c0.43,4.96,0.12,9.96,0.19,14.93c0.2,3.52-1.76,6.89-1.02,10.39c1.54,1.24,1.8-1.46,2.63-2.23c0.6-2.03,2.63-2.32,4.43-2.7
			c0.36,1.33,0.74,2.66,1.13,4c3.05,0.18,6.7-0.71,9.13,1.7c2.7,2.32,3.93,7.12,1.24,9.89c-2.82,3.79-8.18,1.55-11.76,4.08
			c-4.05,2.49-8.87,1.17-13.3,1.87c-2.3,2.09-3.31,5.21-5.62,7.29c-2.1,2.01-4.13,4.1-5.87,6.44c4.18-0.01,8.37-0.3,12.56-0.44
			c9.03-0.12,17.84-2.55,26.88-2.61c7.37-0.07,14.9-1.68,22.15,0.22c3.91,1.02,7.93,3.86,8.32,8.19c0.27,5.64-0.07,11.3,0.31,16.94
			c0.57,8.72-1.78,17.28-1.47,26c0.35,8.64-4.84,15.93-7.42,23.83c-1.44,4.35-4.55,8.29-8.91,9.95c-2.75,0.43-6.08,0.64-8.14-1.59
			c-3.09-2.39-3.28-6.58-5.22-9.72c-1.26-2.09-1.83-4.47-2.22-6.84c3.32-0.39,6.66-0.45,9.99-0.73c1.02-3.99,2.31-7.93,2.91-12.02
			c0.64-3.6-1.64-7.23-0.23-10.75c2.47-6.49,0.48-13.54,1.59-20.26c0.34-3.65,1.5-8.95-2.83-10.69c-6.01-1.86-12.32,0.18-18.34,1.02
			c-1.34,3.17-2.39,6.75-5.3,8.88c-1.26,1.22-3.03,2.09-3.7,3.79c2.03,3.56,7.54,5.17,7.19,9.87c-3.12-0.12-6.09,0.65-8.43,2.76
			c0.43,1.56,0.87,3.13,1.32,4.7c2.98,1.2,5.86,2.64,8.73,4.11c-0.36,1.77-0.31,3.88-1.85,5.13c-1.77,1.52-4.33,0.87-6.45,1.18
			c-1.48,3.81-2.11,8.11-5.17,11.1c-1.92,1.87-3.81,5.79-7,4.06c-0.63-4.84,0.04-9.75-0.62-14.58c-5.22-0.22-11.46,1.22-15.62-2.8
			c-1.4-1.06-1.12-2.96-1-4.47c1.15-1.84,3.62-1.79,5.52-2.15c4.19-0.35,8.23-1.55,12.27-2.67c-0.34-1.32-0.67-2.64-1-3.95
			c-4.12,0.43-8.43,2.51-12.51,1.14c-2.01-2.61-4.2-5.78-3.49-9.24c1-1.52,2.96-2.11,4.38-3.18c-3.5-3.15-3.9-7.86-4.79-12.18
			c-4.6,1.06-9.08,2.84-13.86,2.89c-0.27,18.79,0.1,37.59-0.08,56.38c-0.19,4.19-0.86,8.92-4.16,11.86
			c-2.03,1.88-5.01,1.5-7.54,1.75c-2.06-4.3-5.52-8.44-4.93-13.51c0.87-11.18,0.5-22.42,1.49-33.59c0.54-4.91,2.68-9.48,3.07-14.41
			c0.32-5.59,1.85-11.32,5.39-15.75c1.28-1.76,3.65-1.93,5.58-1.3c0.54,1.53,0.79,3.12,1.19,4.69c4.78-2.43,7.37-7.36,10.13-11.71
			c2.24-4.08,4.79-8.23,5.31-12.95c-2.52-2.99-6.42-4.67-8.4-8.12c-0.28-1.88-0.53-4.37,1.54-5.32c3.42-1.76,7.45-0.42,11.12-1.03
			c2.57-1.19,2.08-4.4,2.3-6.71c0.05-3.8,2.56-7.06,2.59-10.88C541.113,69.55,540.903,64.51,542.323,59.68z M539.213,130.1
			c1.91,2.31,4.54,3.79,6.78,5.73c0.36,1.47,0.3,3,0.41,4.51c-0.8,1.13-1.76,2.23-1.98,3.65c2.24,2.03,2.5-1.55,3.39-2.96
			c3.1-2.21,6.69-6.24,3.74-10C547.343,131.34,543.483,128.67,539.213,130.1z"/>
	</g>
	<path fill="#312A23" d="M719.353,73.3c3.67-1.1,8.47-0.85,10.13,3.25c0.42,4.99-1.03,9.97-0.66,15c0.36,6.49-0.05,12.97-0.57,19.44
		c7.65,0.95,15.1-2.4,22.72-0.93c3.32,0.58,5.29,3.8,5.73,6.93c0.27,2.32,1.06,5.13-0.68,7.08c-2.35,2.99-6.11,4.38-9.74,5.02
		c-6.95,1.16-14.08,0.13-20.99,1.59c6.43,4.98,6.45,14.14,12.29,19.55c6.76,7.04,11.59,15.66,18.31,22.73
		c4.17,4.57,10.03,7.22,13.85,12.15c2.73,3.67,8.59,4.45,9.61,9.42c1.93,3.77-3.14,5.37-5.92,5.88c-7.18,1.97-13.85-1.97-20.15-4.8
		c-4.44-2.26-9.41-4.52-11.85-9.13c-1.64-3.31-2.9-6.88-5.39-9.69c-4.49-5.24-6.83-11.81-10.32-17.67
		c-2.75-4.35-3.65-9.54-6.37-13.89c-2.5,3.1-2.8,7.19-4.58,10.63c-3.71,7.18-7.92,14.09-12.08,21.02
		c-2.95,4.97-7.96,8.12-12.56,11.4c-2.31,1.62-4.02,3.95-6.39,5.48c-1.94,0.93-4.05,1.39-6.03,2.18c-3.99,1.52-7.19,4.55-11.24,5.94
		c-3.04,1.11-6.33,0.86-9.49,0.79c-0.05-0.83-0.15-2.47-0.2-3.29c2.61-1.43,5.39-2.74,7.43-4.98c2.59-2.55,4.42-6.07,8.05-7.34
		c0.97-2,1.9-4.01,2.82-6.03c0.57-0.01,1.71-0.01,2.28-0.02c2.69-4.06,6.94-6.75,9.57-10.85c1.91-2.83,4.89-4.93,5.8-8.37
		c1.1-4.21,6.26-5.25,7.6-9.3c1.59-4.09,2.81-8.34,4.89-12.23c1.79-3.35,3.16-6.95,3.37-10.77c-4.57,0.96-9.28,2.93-13.97,1.7
		c-3.92-2.11-8.37-5.76-7.78-10.71c1.5-2.84,3.96-5.06,6.43-7.07c3.19-2.55,7.28,1.64,10.67-0.35c3.56-1.9,7.61-2.11,11.54-2.55
		c0.38-7.02,0.57-14.06,1.1-21.07C718.033,84.15,718.153,78.64,719.353,73.3z"/>
	<path fill="#312A23" d="M374.043,106.1c5.25-2.41,11.43-0.69,15.53,3.13c2.27,1.59,3.67,4.86,1.97,7.37
		c-1.99,2.66-4.93,4.86-8.17,5.66c-2.11,0.68-2.85-1.6-3.8-2.95C377.263,115.12,373.853,111.18,374.043,106.1z"/>
	<path fill="#312A23" d="M854.143,128.52c2.96-4.04,8.4-5.29,13.15-5.53c6.34-0.05,13.57-0.61,18.81,3.67
		c2.86,2.15,2.73,6.52,0.41,9.02c-3.7,4.08-9.28,5.49-14.06,7.86c1.34,2.96,2.69,5.92,4.02,8.89c6.33-0.03,13.4,0.1,18.55,4.33
		c2.77,1.9,2.24,6.22-0.36,8.03c-4.35,3.69-10.3,3.64-15.67,3.5c0.85,9.44,1.8,19.29-1.81,28.33c-2.11,5.76-6.31,11.65-12.75,12.72
		c-4.63,1.16-9.03-2.53-10.51-6.69c-1.75-4.72-3.69-9.64-2.91-14.78c3.25,0.99,5.83,3.31,8.97,4.56c2.3-4.17,4.83-8.32,6.03-12.98
		c0.98-3.89,0.19-7.89-0.22-11.79c-8.78-1.26-18.91-0.23-25.9-6.79c-1.73-1.37-0.15-3.42,0.47-4.92c8.24-1,16.37-2.92,24.69-3.15
		c0.16-0.23,0.47-0.7,0.63-0.93c-0.71-2.97-1.23-5.97-1.22-9.03c3.13-1.82,5.98-4.28,6.9-7.95c-3.67,0.92-7.18,2.69-11.02,2.79
		C856.603,136.52,853.503,132.51,854.143,128.52z"/>
	<path fill="#312A23" d="M391.293,132.48c11.88,0.52,24.17-2.59,35.68,1.63c1.69,6.58,3.82,13.56,1.88,20.35
		c-1.08,3.96-0.6,8.07-0.9,12.1c-0.94,6.89-7.02,13.54-14.44,12.49c-3.42-5-1.44-11.05-0.76-16.52c-0.52-5.71-1.58-11.37-2.55-17.01
		c-0.12-1.52-1.39-2.7-2.86-2.87c-4.64-0.66-9.58,0.79-13.99-1.23c-2.47-1.13-5.22-0.92-7.86-0.98c0.2,5.15,0.57,10.3,1.14,15.42
		c3.53-0.66,7.07-1.22,10.6-1.82c3.38-0.95,6.68-2.29,10.26-2.22c0.8,2.76,1.19,5.62,0.94,8.49c-4.67,4.41-10.65,7.65-17.22,7.6
		c-0.72-2.43,0.08-5.89-2.74-7.09c-0.31,3.93-0.45,8.02,1.28,11.68c5-3.09,10.84-2.49,16.35-1.52c0.74,1.55,1.49,3.11,2.23,4.67
		c-2.92,1.03-5.92,1.81-8.67,3.23c-4.49,2.59-10.58-0.32-14.24,4.06c-3.5-0.2-7.1-0.81-9.55-3.55c-0.86-3.61-2.32-7.1-2.34-10.86
		c-0.61-6.73,1.06-13.35,1.67-20.02c-0.13-5.09,4.01-8.99,3.38-14.18C382.893,133.99,387.273,134.44,391.293,132.48z"/>
	<path fill="#312A23" d="M364.283,195.91c1.72-0.64,3.42-1.39,5.21-1.86c12.92-1.69,26.02,1.87,38.89-0.55
		c3.96-0.64,7.92,0.95,11.89,0.06c5.63-1.18,11.57,0.56,16.31,3.65c1.62,0.92,0.42,3.05-0.58,3.98c-2.72,2.48-6.13,4.06-9.52,5.39
		c-6.38,1.51-13.36-1.15-19.46,1.8c-4.58-0.27-9.1-1.22-13.68-1.3c-4.8,0.16-9.59,0.62-14.38,0.85c-1.7,1.5-4.04,2.6-6.08,0.97
		C368.523,206.08,362.403,201.96,364.283,195.91z"/>
	<path fill="#312A23" d="M348.513,233.92c6.04-0.27,12.11-0.34,18.15,0.09c-2.21,1.25-6.23,1.12-6.19,4.4
		c-0.61,8.72,0.49,17.52-0.55,26.21c-0.64,6.04-7.7,10.98-13.33,7.71c-2.55-1.22-2.86-5.8,0.26-6.37c3.3-0.83,4.04,3.71,5.76,5.55
		c0.8-1.21,2.06-2.34,1.92-3.93c0.17-8.36-0.05-16.72,0.08-25.08c-0.11-1.9,0.24-3.95-0.56-5.72
		C352.373,235.53,350.343,234.91,348.513,233.92z"/>
	<path fill="#312A23" d="M369.643,233.95c5.99-0.33,12-0.34,17.99,0.04c-2.54,1.24-6.67,1.57-6.18,5.36
		c-0.18,9.4-0.28,18.83,0.06,28.22c-0.29,3.1,3.26,3.23,5.39,3.82l-0.11,1.11c-5.49,0-10.98,0-16.47,0l0.01-1.2
		c1.87-0.41,4.92-0.29,5.15-2.87c0.76-5.94,0.17-11.95,0.35-17.92c-0.15-4.59,0.48-9.28-0.6-13.79
		C373.473,235.58,371.483,234.92,369.643,233.95z"/>
	<path fill="#312A23" d="M389.583,234c3.77-0.35,7.57-0.29,11.35-0.2c7.71,9.39,15.18,18.99,23.14,28.17
		c-0.3-8.46,0.67-17.04-0.49-25.43c-1.79-1.12-3.83-1.71-5.74-2.58c5.05-0.32,10.12-0.33,15.18-0.02c-2.18,1.3-6.22,1.35-6.08,4.66
		c-0.41,11.71,0.26,23.44-0.34,35.15c-9.16-9.9-17.18-20.81-25.92-31.08c-0.19,7.61-0.07,15.22-0.12,22.83
		c0.11,1.59-0.13,3.47,1.05,4.74c1.3,0.67,2.78,0.77,4.19,1.12l0.07,1.13c-4.52,0.01-9.03,0.01-13.54,0.01v-1.2
		c1.54-0.35,3.24-0.37,4.61-1.26c1.26-2.63,0.81-5.67,0.92-8.49c-0.19-7.35,0.23-14.72-0.18-22.05
		C396.473,236.1,392.383,235.59,389.583,234z"/>
	<g>
		<path fill="#312A23" d="M441.583,266.53c5.07-11.41,9.62-23.04,14.89-34.36c5.8,11.34,9.84,23.51,15.22,35.05
			c1.04,2.69,3.95,3.6,6.19,5.06c-5.55,0.37-11.11,0.23-16.66,0.16c1.39-1.3,4.03-1.77,4.42-3.87c-0.68-3.18-2.21-6.08-3.42-9.07
			c-4.87,0-9.74-0.02-14.6,0.03c-1.2,3.28-3.33,6.38-3.42,9.95c1.63,1.07,3.42,1.88,5.11,2.86c-4.61,0.25-9.23,0.22-13.84,0.05
			C437.783,270.76,440.573,269.38,441.583,266.53z M454.993,242.35c-2.08,4.99-4.28,9.93-6.39,14.91c4.24-0.01,8.48-0.01,12.73-0.02
			C459.233,252.27,457.223,247.26,454.993,242.35z"/>
	</g>
	<path fill="#312A23" d="M478.803,234.01c3.8-0.34,7.62-0.28,11.44-0.29c7.84,9.4,15.4,19.04,23.29,28.39
		c-0.03-7.87,0.27-15.75-0.1-23.61c0.13-3.2-3.81-3.26-5.89-4.58c5.04-0.28,10.1-0.32,15.14,0.11c-2.18,1.22-6.24,1.07-6.23,4.31
		c-0.58,11.81,0.55,23.69-0.58,35.46c-8.83-10.1-16.95-20.81-25.73-30.97c0,8.55-0.29,17.12,0.1,25.66c0.1,2.61,3.27,2.34,5.09,2.8
		v1.21c-4.53,0-9.05,0-13.57-0.01l0.14-1.16c1.83-0.42,4.8-0.37,5.1-2.85c0.7-5.29,0.19-10.65,0.33-15.96
		c-0.14-4.54,0.36-9.13-0.27-13.64C485.173,236.05,481.683,235.37,478.803,234.01z"/>
	<path fill="#312A23" d="M550.673,234.14c6.09-0.68,12.25-0.47,18.36-0.19c-2.21,1.28-6.1,1.28-6.05,4.62
		c-0.38,6.29-0.07,12.6-0.15,18.91c0.18,4.03,0.19,9.01,3.97,11.51c4.4,2.81,10.73,1.87,14.6-1.5c3.06-2.76,2.88-7.22,2.96-10.98
		c-0.13-6.03,0.17-12.07-0.14-18.09c0.05-3.29-4.04-3.17-6.24-4.39c5.2-0.44,10.43-0.41,15.64-0.04c-1.81,0.81-3.76,1.35-5.43,2.42
		c-0.9,1.17-0.85,2.74-1.02,4.14c-0.37,7.03,0.24,14.08-0.26,21.1c-0.24,3.39-1.72,6.79-4.53,8.82c-4.2,3.25-9.9,3.14-14.9,2.47
		c-4.78-0.68-9.06-4.43-9.82-9.27c-1.31-8.54-0.01-17.23-0.81-25.79C556.443,234.95,552.743,235.26,550.673,234.14z"/>
	<path fill="#312A23" d="M594.593,233.99c3.79-0.34,7.59-0.28,11.39-0.16c7.62,9.44,15.2,18.94,23.07,28.19
		c-0.03-7.76,0.18-15.52-0.06-23.26c0.35-3.56-3.97-3.47-6.29-4.61c5.08-0.65,10.22-0.5,15.33-0.2c-2.21,1.31-6.33,1.35-6.1,4.71
		c-0.4,11.69,0.26,23.41-0.33,35.1c-9.21-9.82-17.01-20.89-25.98-30.95c0.02,8.48-0.24,16.97,0.09,25.44
		c0.11,2.68,3.18,2.73,5.14,3.09l-0.01,1.15c-4.51,0.01-9.01,0.01-13.51,0.01v-1.21c1.85-0.47,5.02-0.2,5.21-2.82
		c0.75-9.77-0.02-19.6,0.37-29.39C600.773,236.45,597.553,235.37,594.593,233.99z"/>
	<path fill="#312A23" d="M641.503,233.93c6.04-0.12,12.19-0.71,18.18,0.37c-2.22,0.96-6.3,0.74-6.21,4.09
		c-0.38,6.71-0.01,13.43-0.15,20.15c0.1,3.55-0.35,7.18,0.39,10.69c1.11,1.65,3.38,1.52,5.09,2.14l0.08,1.12
		c-5.6,0.01-11.2,0.01-16.8,0.01l-0.01-1.17c1.58-0.38,3.39-0.35,4.78-1.33c0.87-1.69,0.67-3.66,0.76-5.49
		c-0.05-7.67-0.05-15.34,0-23.01c-0.12-1.56,0.15-3.26-0.55-4.71C645.423,235.46,643.323,234.92,641.503,233.93z"/>
	<path fill="#312A23" d="M662.663,233.92c5.76-0.28,11.55-0.26,17.33-0.02c-1.83,1.4-5.99,2.24-4.54,5.31
		c3.14,8.35,7.08,16.39,10.48,24.65c2.66-5.74,4.84-11.68,7.31-17.51c1.14-2.88,2.53-5.72,3-8.81c-1.19-1.58-3.01-2.46-4.54-3.65
		c4.4-0.22,8.81-0.21,13.21-0.02c-2.12,1.64-4.73,2.95-5.79,5.57c-4.99,11.28-9.14,22.94-14.29,34.15
		c-1.29-0.67-1.72-2.16-2.33-3.36c-4.38-10.22-8.85-20.41-13.26-30.62C668.273,236.55,665.113,235.48,662.663,233.92z"/>
	<path fill="#312A23" d="M708.203,233.92c10.12-0.39,20.25-0.05,30.38-0.19c0.24,3.15,0.38,6.32,0.33,9.48
		c-1.75-2.26-2.35-6.16-5.6-6.8c-4.4-0.41-8.82-0.08-13.23-0.15c0,4.91,0,9.81,0,14.72c4.03-0.16,8.22,0.6,12.14-0.62
		c1.37-1.65,2.06-3.74,3.14-5.58c0.32,4.98,0.51,10.02-0.29,14.97c-1.2-1.98-1.39-5.05-3.83-5.95c-3.65-0.89-7.44-0.49-11.15-0.55
		c0.14,5.44-0.41,10.92,0.32,16.32c4.23,0.76,8.6,0.6,12.86,0.19c4.16-0.94,5.8-5.33,8.61-8.04c-0.68,3.73-2.04,7.27-3.33,10.81
		c-9.93-0.07-19.85-0.01-29.78-0.04l0.11-1.12c1.68-0.62,3.94-0.5,5.07-2.13c0.73-3.85,0.28-7.81,0.38-11.7
		c-0.13-6.38,0.26-12.78-0.16-19.15C714.343,235.13,710.273,235.27,708.203,233.92z"/>
	<g>
		<path fill="#312A23" d="M745.993,234.03c5.45-0.46,10.93-0.29,16.4-0.26c3.98,0.17,8.42,0.28,11.59,3.04
			c3.67,3.03,4.17,8.99,1.27,12.7c-1.77,2.38-4.72,3.29-7.31,4.41c3.3,4.38,6.23,9.05,9.74,13.28c2.08,2.74,5.63,3.34,8.45,5.03
			c-3.79,0.4-7.6,0.3-11.39,0.19c-4.11-6.02-8.59-11.77-12.7-17.78c-1.32-0.07-2.64-0.15-3.95-0.21c0.11,4.7-0.35,9.43,0.26,14.1
			c0.09,2.65,3.34,2.24,5.16,2.79l0.13,1.17c-5.62,0.01-11.23,0.01-16.85,0l0.06-1.17c1.68-0.56,4.36-0.07,5.12-2.13
			c0.62-2.5,0.31-5.12,0.38-7.66c-0.14-7.69,0.16-15.39-0.11-23.08C752.303,235.11,748.223,235.24,745.993,234.03z M758.113,236.48
			c-0.05,5.4-0.03,10.8-0.02,16.21c3.52-0.35,7.62-0.36,10.2-3.21c3.32-3.16,2.75-9.32-1.07-11.85
			C764.573,235.7,761.143,236.38,758.113,236.48z"/>
	</g>
	<path fill="#312A23" d="M796.263,234.4c4.8-2.78,10.47-1.04,15.26,0.83c0.59-0.74,1.79-2.22,2.39-2.97
		c0.64,4.98,0.58,10.02,0.16,15.01c-2.07-3.46-2.35-8.29-6.31-10.32c-3.7-2.47-9.93-2.05-11.64,2.6c-1.5,4.06,2.86,6.62,5.76,8.39
		c4.92,3.21,11.6,5.02,14.21,10.79c2.61,5.78-1.59,12.69-7.52,14.08c-4.771,1.47-9.48-0.62-14.1-1.54c-1.1,0.73-2.08,1.59-3.09,2.41
		c-0.02-4.82-0.27-9.66,0.25-14.46c2.04,3.03,2.32,7.24,5.55,9.42c3.66,2.65,9.65,3.31,12.92-0.3c2.38-2.43,1.36-6.56-1.11-8.52
		c-5.08-4.03-11.79-5.9-16.06-10.96C789.273,244.32,791.173,237.02,796.263,234.4z"/>
	<path fill="#312A23" d="M823.463,233.93c5.89-0.29,11.8-0.28,17.7-0.01c-1.77,1.02-4.04,1.37-5.44,2.9
		c-1.2,4.76-0.46,9.76-0.64,14.62c0.19,5.96-0.49,11.98,0.47,17.89c1.7,1.34,3.87,1.91,5.771,2.96c-6,0.34-12.03,0.35-18.021-0.02
		c1.83-1.11,4.4-1.32,5.75-3.05c1.07-5.49,0.31-11.13,0.53-16.68c-0.2-5.26,0.54-10.6-0.56-15.78
		C827.293,235.57,825.293,234.91,823.463,233.93z"/>
	<path fill="#312A23" d="M846.893,233.77c10.54-0.06,21.08,0.01,31.62-0.04c0.14,3.08,0.3,6.16,0.39,9.24l-0.95,0.03
		c-0.81-2.27-1.51-5.1-4.04-6.02c-2.79-0.79-5.73-0.42-8.58-0.51c0,8.66,0,17.33-0.02,25.99c0.06,2.42,0.01,4.89,0.69,7.24
		c1.72,1.14,3.73,1.7,5.59,2.6c-5.75,0.38-11.51,0.15-17.26,0.2v-1.2c2.31-0.27,5.73-0.67,5.36-3.87
		c0.35-10.31,0.03-20.65,0.13-30.97c-2.73,0.08-5.521-0.22-8.19,0.41c-2.87,1.05-3.34,4.42-4.64,6.79
		C846.403,240.39,846.793,237.07,846.893,233.77z"/>
	<path fill="#312A23" d="M882.733,234.11c6.05-0.65,12.15-0.38,18.23-0.23c-1.75,1.16-3.97,1.76-5.19,3.55
		c2.44,5.66,6.51,10.43,9.65,15.71c2.97-4.93,6.58-9.52,8.99-14.77c0.33-2.63-2.87-3.12-4.46-4.49c5.01-0.18,10.03-0.26,15.04,0.05
		c-2.9,1.74-6.33,3.03-8.07,6.14c-3.32,5.32-6.9,10.49-9.97,15.95c-0.76,4.44-0.59,9.19,0.33,13.62c1.64,1.29,3.85,1.6,5.73,2.51
		c-6.1,0.55-12.27,0.57-18.36-0.01c1.87-0.96,4.23-1.14,5.81-2.57c1.14-4.15,0.46-8.55,0.62-12.8c-4.05-6.03-7.87-12.21-11.96-18.21
		C887.673,236.26,884.943,235.44,882.733,234.11z"/>
</g>
</svg>
