<?xml version="1.0" encoding="UTF-8"?>
<svg xmlns="http://www.w3.org/2000/svg" xmlns:xlink="http://www.w3.org/1999/xlink" width="252pt" height="252pt" viewBox="0 0 252 252" version="1.1">
<g id="surface1">
<path style=" stroke:none;fill-rule:nonzero;fill:rgb(14.509804%,31.372549%,41.960784%);fill-opacity:1;" d="M 25.585938 172.828125 L 21.324219 162.527344 L 22.023438 162.234375 C 22.433594 163.488281 23.074219 163.90625 23.941406 163.496094 L 32.492188 159.949219 C 33.351562 159.652344 33.507812 158.90625 32.960938 157.707031 L 33.660156 157.414062 L 36.355469 163.933594 L 35.65625 164.226562 C 35.183594 162.945312 34.546875 162.523438 33.742188 162.96875 L 25.253906 166.476562 C 24.375 166.734375 24.164062 167.285156 24.625 168.132812 C 25.457031 169.875 27.273438 170.570312 30.089844 170.222656 L 30.40625 170.996094 Z M 25.585938 172.828125 "/>
<path style=" stroke:none;fill-rule:nonzero;fill:rgb(14.509804%,31.372549%,41.960784%);fill-opacity:1;" d="M 35.574219 179.640625 L 38.210938 176.050781 L 33.835938 176.703125 Z M 29.554688 180.203125 L 26.847656 175.632812 L 27.503906 175.242188 C 28.128906 176.105469 29.261719 176.378906 30.894531 176.058594 L 41.988281 174.527344 L 42.488281 175.375 L 35.105469 185.5625 C 34.496094 186.21875 34.433594 186.960938 34.925781 187.789062 L 34.269531 188.171875 L 30.714844 182.164062 L 31.367188 181.777344 L 31.753906 182.429688 C 32.125 183.152344 32.515625 183.363281 32.921875 183.0625 C 33.011719 183.007812 33.136719 182.875 33.304688 182.664062 C 33.394531 182.609375 33.457031 182.570312 33.5 182.546875 L 34.890625 180.578125 L 32.726562 176.917969 L 31.113281 177.167969 C 30.792969 177.125 30.390625 177.246094 29.914062 177.523438 C 29.390625 177.832031 29.320312 178.316406 29.707031 178.96875 L 30.207031 179.816406 Z M 29.554688 180.203125 "/>
<path style=" stroke:none;fill-rule:nonzero;fill:rgb(14.509804%,31.372549%,41.960784%);fill-opacity:1;" d="M 45.4375 182.160156 L 46.023438 181.679688 L 49.007812 185.324219 L 46.09375 196.152344 L 46.140625 196.210938 L 51.433594 191.882812 C 52.160156 191.417969 52.121094 190.566406 51.308594 189.332031 L 51.894531 188.851562 L 54.972656 192.613281 L 54.382812 193.09375 C 53.464844 192.210938 52.707031 192.082031 52.105469 192.703125 L 43.523438 199.730469 L 42.371094 198.316406 L 45.648438 186.015625 L 45.597656 185.953125 L 39.191406 191.199219 C 38.351562 191.691406 38.503906 192.550781 39.636719 193.777344 L 39.050781 194.257812 L 35.730469 190.203125 L 36.316406 189.722656 C 37.074219 190.800781 37.804688 191.019531 38.519531 190.375 L 45.6875 184.503906 C 46.421875 183.96875 46.339844 183.1875 45.4375 182.160156 Z M 45.4375 182.160156 "/>
<path style=" stroke:none;fill-rule:nonzero;fill:rgb(14.509804%,31.372549%,41.960784%);fill-opacity:1;" d="M 57.988281 206.523438 L 54.433594 210.265625 L 46.789062 203.210938 L 47.460938 202.488281 L 60.363281 198.804688 L 59.414062 197.929688 C 57.304688 196.117188 55.382812 196.035156 53.660156 197.679688 L 53.046875 197.109375 L 56.296875 193.8125 L 63.488281 200.453125 L 62.5625 201.457031 L 50.085938 205.015625 C 52.628906 207.632812 55.050781 207.945312 57.375 205.957031 Z M 57.988281 206.523438 "/>
<path style=" stroke:none;fill-rule:nonzero;fill:rgb(14.509804%,31.372549%,41.960784%);fill-opacity:1;" d="M 65.589844 209.433594 L 69.152344 211.890625 L 71.347656 208.703125 C 71.90625 207.984375 71.691406 207.3125 70.703125 206.695312 L 71.136719 206.070312 L 76.761719 209.949219 L 76.332031 210.574219 C 75.234375 209.757812 74.46875 209.753906 74.039062 210.558594 L 68.78125 218.183594 C 68.148438 218.917969 68.425781 219.632812 69.613281 220.324219 L 69.179688 220.949219 L 63.554688 217.074219 L 63.984375 216.445312 C 64.882812 217.1875 65.585938 217.152344 66.089844 216.332031 L 68.675781 212.585938 L 65.113281 210.128906 L 62.53125 213.878906 C 61.902344 214.613281 62.113281 215.285156 63.171875 215.886719 L 62.742188 216.511719 L 57.179688 212.683594 L 57.609375 212.054688 C 58.59375 212.855469 59.339844 212.84375 59.84375 212.027344 L 65.097656 204.398438 C 65.65625 203.679688 65.398438 202.980469 64.328125 202.300781 L 64.757812 201.679688 L 70.320312 205.515625 L 69.890625 206.140625 C 68.917969 205.410156 68.21875 205.445312 67.785156 206.253906 Z M 65.589844 209.433594 "/>
<path style=" stroke:none;fill-rule:nonzero;fill:rgb(14.509804%,31.372549%,41.960784%);fill-opacity:1;" d="M 78.296875 218.15625 C 76.507812 221.789062 76.605469 224.046875 78.585938 224.9375 C 80.433594 225.878906 82.230469 224.527344 83.980469 220.871094 C 85.699219 217.269531 85.625 215.019531 83.753906 214.121094 C 81.792969 213.1875 79.976562 214.527344 78.296875 218.15625 Z M 75.011719 216.585938 C 77.164062 213.019531 80.207031 211.921875 84.148438 213.300781 C 87.605469 215.457031 88.640625 218.507812 87.265625 222.445312 C 85.0625 225.984375 82.0625 227.046875 78.257812 225.621094 C 74.671875 223.515625 73.585938 220.5 75.011719 216.585938 Z M 75.011719 216.585938 "/>
<path style=" stroke:none;fill-rule:nonzero;fill:rgb(14.509804%,31.372549%,41.960784%);fill-opacity:1;" d="M 91.253906 216.847656 L 97.792969 218.820312 L 97.574219 219.546875 C 96.234375 219.089844 95.476562 219.308594 95.3125 220.214844 L 93.007812 227.84375 C 92.589844 229.40625 93.207031 230.515625 94.855469 231.175781 C 96.9375 231.804688 98.328125 231.058594 99.015625 228.945312 L 101.058594 222.1875 C 101.402344 221.390625 100.871094 220.703125 99.460938 220.121094 L 99.683594 219.394531 L 104.402344 220.816406 L 104.1875 221.546875 C 102.867188 221.355469 102.140625 221.664062 102.003906 222.472656 L 100.007812 229.085938 C 99.1875 231.800781 97.15625 232.664062 93.90625 231.6875 C 90.773438 230.6875 89.53125 229.019531 90.1875 226.675781 L 92.40625 219.335938 C 92.71875 218.476562 92.261719 217.894531 91.035156 217.578125 Z M 91.253906 216.847656 "/>
<path style=" stroke:none;fill-rule:nonzero;fill:rgb(14.509804%,31.372549%,41.960784%);fill-opacity:1;" d="M 118.785156 222.949219 L 125.605469 222.976562 L 125.601562 223.730469 C 124.1875 223.675781 123.53125 224.105469 123.628906 225.015625 L 123.601562 232.976562 C 123.644531 234.597656 124.550781 235.484375 126.320312 235.640625 C 128.496094 235.652344 129.609375 234.542969 129.667969 232.316406 L 129.699219 225.265625 C 129.800781 224.40625 129.097656 223.894531 127.582031 223.742188 L 127.585938 222.980469 L 132.515625 223 L 132.511719 223.757812 C 131.195312 223.957031 130.585938 224.460938 130.683594 225.265625 L 130.65625 232.167969 C 130.644531 235 128.945312 236.40625 125.558594 236.394531 C 122.273438 236.332031 120.605469 235.085938 120.570312 232.664062 L 120.597656 225 C 120.652344 224.089844 120.046875 223.65625 118.78125 223.703125 Z M 118.785156 222.949219 "/>
<path style=" stroke:none;fill-rule:nonzero;fill:rgb(14.509804%,31.372549%,41.960784%);fill-opacity:1;" d="M 133.367188 223.707031 L 133.261719 222.957031 L 137.914062 222.277344 L 145.683594 230.347656 L 145.761719 230.335938 L 144.773438 223.582031 C 144.75 222.714844 144 222.3125 142.527344 222.375 L 142.414062 221.625 L 147.222656 220.921875 L 147.335938 221.671875 C 146.101562 222.003906 145.601562 222.589844 145.824219 223.421875 L 147.421875 234.386719 L 145.621094 234.648438 L 136.773438 225.511719 L 136.699219 225.519531 L 137.890625 233.707031 C 137.878906 234.679688 138.695312 234.996094 140.328125 234.65625 L 140.441406 235.40625 L 135.257812 236.160156 L 135.152344 235.410156 C 136.464844 235.316406 137.027344 234.804688 136.839844 233.859375 L 135.503906 224.699219 C 135.425781 223.792969 134.714844 223.460938 133.367188 223.707031 Z M 133.367188 223.707031 "/>
<path style=" stroke:none;fill-rule:nonzero;fill:rgb(14.509804%,31.372549%,41.960784%);fill-opacity:1;" d="M 159.019531 231.390625 L 152.222656 233.265625 L 152.023438 232.535156 C 153.316406 232.28125 153.8125 231.703125 153.503906 230.789062 L 151.046875 221.871094 C 150.851562 220.980469 150.125 220.734375 148.871094 221.132812 L 148.671875 220.402344 L 155.472656 218.523438 L 155.671875 219.253906 C 154.34375 219.570312 153.847656 220.148438 154.1875 221 L 156.652344 229.921875 C 156.8125 230.875 157.535156 231.121094 158.824219 230.660156 Z M 159.019531 231.390625 "/>
<path style=" stroke:none;fill-rule:nonzero;fill:rgb(14.509804%,31.372549%,41.960784%);fill-opacity:1;" d="M 157.101562 218.914062 L 156.8125 218.214844 L 162.796875 215.792969 L 163.082031 216.5 C 161.910156 216.976562 161.464844 217.425781 161.746094 217.855469 C 161.5 217.792969 163.289062 219.988281 167.109375 224.449219 L 167.179688 224.421875 C 167.175781 224.152344 167.167969 223.71875 167.148438 223.125 C 167 217.890625 166.878906 215.5625 166.785156 216.148438 C 166.523438 215.492188 165.894531 215.363281 164.910156 215.757812 L 164.625 215.054688 L 168.707031 213.40625 L 168.992188 214.109375 C 168.15625 214.609375 167.777344 215.226562 167.855469 215.957031 L 168.222656 228.011719 L 166.746094 228.609375 L 159.160156 219.558594 C 158.546875 218.714844 157.859375 218.5 157.101562 218.914062 Z M 157.101562 218.914062 "/>
<path style=" stroke:none;fill-rule:nonzero;fill:rgb(14.509804%,31.372549%,41.960784%);fill-opacity:1;" d="M 179.378906 207.273438 L 181.898438 211.339844 L 181.179688 211.753906 C 179.296875 209.917969 177.339844 209.558594 175.296875 210.679688 C 174.265625 211.21875 174.007812 211.832031 174.523438 212.527344 L 176.417969 215.816406 C 177.941406 215.109375 178.4375 213.949219 177.910156 212.324219 L 178.566406 211.949219 L 181.261719 216.613281 L 180.601562 216.992188 C 179.488281 215.765625 178.230469 215.613281 176.835938 216.539062 L 179.074219 220.414062 C 179.441406 221.257812 180.101562 221.339844 181.0625 220.671875 C 183.183594 219.386719 183.890625 217.371094 183.183594 214.628906 L 183.90625 214.210938 L 186.316406 218.691406 L 175.667969 224.835938 L 175.289062 224.183594 C 176.476562 223.613281 176.808594 222.921875 176.285156 222.117188 L 171.65625 214.097656 C 171.242188 213.28125 170.480469 213.222656 169.367188 213.925781 L 168.988281 213.269531 Z M 179.378906 207.273438 "/>
<path style=" stroke:none;fill-rule:nonzero;fill:rgb(14.509804%,31.372549%,41.960784%);fill-opacity:1;" d="M 186.570312 204.511719 L 189.164062 207.785156 C 191.089844 206.390625 191.433594 204.988281 190.195312 203.582031 C 189.074219 202.335938 187.972656 202.078125 186.875 202.816406 C 186.160156 203.378906 186.0625 203.945312 186.570312 204.511719 Z M 197.472656 206.535156 L 198.070312 206.066406 C 199.328125 207.65625 199.222656 209.027344 197.753906 210.191406 C 196.277344 211.429688 194.863281 211.191406 193.511719 209.480469 C 192.582031 208.472656 191.925781 207.929688 191.539062 207.847656 C 191.089844 207.6875 190.457031 207.867188 189.640625 208.382812 L 192.136719 211.542969 C 192.742188 212.546875 193.5625 212.574219 194.617188 211.613281 L 195.085938 212.210938 L 189.667969 216.5 L 189.195312 215.902344 C 190.292969 215.164062 190.519531 214.433594 189.882812 213.710938 L 184.132812 206.445312 C 183.609375 205.695312 182.84375 205.753906 181.84375 206.613281 L 181.375 206.015625 L 186.730469 201.777344 C 189.304688 199.804688 191.335938 199.714844 192.816406 201.507812 C 194.101562 203.207031 193.53125 205.019531 191.105469 206.933594 L 191.152344 206.988281 C 192.667969 206.046875 194.15625 206.09375 195.621094 207.132812 C 197.046875 208.199219 197.785156 208.515625 197.832031 208.09375 C 198.140625 207.914062 198.023438 207.394531 197.472656 206.535156 Z M 197.472656 206.535156 "/>
<path style=" stroke:none;fill-rule:nonzero;fill:rgb(14.509804%,31.372549%,41.960784%);fill-opacity:1;" d="M 202.488281 205.910156 L 198.769531 202.335938 L 199.347656 201.734375 C 202.023438 203.253906 204.078125 203.265625 205.515625 201.769531 C 206.632812 200.601562 206.683594 199.492188 205.664062 198.441406 C 205.082031 197.878906 203.777344 198.101562 201.761719 199.113281 C 199.070312 200.527344 197.128906 200.65625 195.921875 199.5 C 194.019531 197.535156 194.015625 195.425781 195.898438 193.167969 C 196.527344 192.511719 197.324219 192.050781 198.28125 191.777344 C 198.601562 191.664062 198.816406 191.550781 198.917969 191.445312 C 199.097656 191.332031 199.089844 190.976562 198.898438 190.371094 L 199.421875 189.820312 L 202.761719 193.027344 L 202.234375 193.574219 C 199.886719 192.371094 198.0625 192.371094 196.765625 193.582031 C 195.824219 194.707031 195.753906 195.691406 196.558594 196.535156 C 197.214844 197.164062 198.480469 196.980469 200.355469 195.972656 C 203.148438 194.449219 205.222656 194.335938 206.570312 195.628906 C 208.328125 197.597656 208.265625 199.710938 206.378906 201.964844 C 205.605469 202.769531 204.726562 203.429688 203.734375 203.949219 C 203.34375 204.0625 203.113281 204.15625 203.046875 204.230469 C 202.871094 204.414062 202.859375 204.789062 203.015625 205.359375 Z M 202.488281 205.910156 "/>
<path style=" stroke:none;fill-rule:nonzero;fill:rgb(14.509804%,31.372549%,41.960784%);fill-opacity:1;" d="M 216.359375 189.867188 L 212.066406 195.480469 L 211.460938 195.019531 C 212.339844 194.035156 212.382812 193.269531 211.589844 192.730469 L 204.222656 187.105469 C 203.535156 186.511719 202.804688 186.753906 202.042969 187.832031 L 201.441406 187.367188 L 205.730469 181.753906 L 206.335938 182.21875 C 205.464844 183.273438 205.421875 184.039062 206.207031 184.511719 L 213.570312 190.132812 C 214.277344 190.796875 215 190.554688 215.75 189.40625 Z M 216.359375 189.867188 "/>
<path style=" stroke:none;fill-rule:nonzero;fill:rgb(14.509804%,31.372549%,41.960784%);fill-opacity:1;" d="M 206.890625 180.359375 L 213.257812 169.585938 L 217.347656 171.910156 L 216.882812 172.695312 C 214.398438 171.933594 212.664062 172.378906 211.6875 174.03125 L 220.636719 179.316406 C 221.386719 179.9375 222.117188 179.546875 222.828125 178.144531 L 223.480469 178.53125 L 219.617188 185.0625 L 218.964844 184.675781 C 219.847656 183.375 219.855469 182.527344 218.972656 182.125 L 210.027344 176.835938 C 209.019531 178.535156 209.46875 180.269531 211.363281 182.03125 L 210.898438 182.816406 Z M 206.890625 180.359375 "/>
<path style=" stroke:none;fill-rule:nonzero;fill:rgb(14.509804%,31.372549%,41.960784%);fill-opacity:1;" d="M 214.339844 169.101562 L 213.640625 168.804688 L 216.136719 162.859375 L 216.835938 163.152344 C 216.425781 164.132812 216.414062 164.679688 216.808594 164.785156 C 216.945312 164.847656 217.234375 164.882812 217.664062 164.898438 C 217.777344 164.894531 217.867188 164.878906 217.933594 164.847656 L 222.296875 164.457031 L 219.644531 161.367188 C 219.304688 161.007812 219.015625 160.773438 218.785156 160.679688 C 218.296875 160.53125 217.824219 160.933594 217.367188 161.890625 L 216.667969 161.597656 L 218.578125 157.050781 L 219.277344 157.34375 C 218.945312 158.523438 219.09375 159.355469 219.714844 159.832031 L 223.871094 164.621094 L 227.085938 165.972656 C 227.914062 166.484375 228.582031 166 229.097656 164.515625 L 229.796875 164.808594 L 226.917969 171.664062 L 226.21875 171.371094 C 226.917969 169.964844 226.804688 169.121094 225.878906 168.839844 L 222.59375 167.460938 L 217.144531 167.894531 C 215.492188 167.910156 214.554688 168.3125 214.339844 169.101562 Z M 214.339844 169.101562 "/>
<path style=" stroke:none;fill-rule:evenodd;fill:rgb(14.509804%,31.372549%,41.960784%);fill-opacity:1;" d="M 23.238281 129.722656 C 25.269531 129.722656 27.074219 128.144531 27.074219 126.113281 C 27.074219 124.082031 25.269531 122.28125 23.238281 122.28125 C 21.207031 122.28125 19.402344 124.085938 19.402344 126.113281 C 19.402344 128.140625 21.207031 129.722656 23.238281 129.722656 Z M 23.238281 129.722656 "/>
<path style=" stroke:none;fill-rule:evenodd;fill:rgb(14.509804%,31.372549%,41.960784%);fill-opacity:1;" d="M 228.535156 129.722656 C 230.566406 129.722656 232.144531 128.144531 232.144531 126.113281 C 232.144531 124.082031 230.5625 122.28125 228.535156 122.28125 C 226.503906 122.28125 224.703125 124.085938 224.703125 126.113281 C 224.703125 128.140625 226.507812 129.722656 228.535156 129.722656 Z M 228.535156 129.722656 "/>
<path style=" stroke:none;fill-rule:evenodd;fill:rgb(14.509804%,31.372549%,41.960784%);fill-opacity:1;" d="M 126 0 C 195.578125 0 252 56.421875 252 126 C 252 195.578125 195.578125 252 126 252 C 56.421875 252 0 195.578125 0 126 C 0 56.421875 56.421875 0 126 0 Z M 126 3.417969 C 193.691406 3.417969 248.582031 58.308594 248.582031 126 C 248.582031 193.6875 193.691406 248.582031 126 248.582031 C 58.308594 248.582031 3.417969 193.6875 3.417969 126 C 3.417969 58.308594 58.308594 3.417969 126 3.417969 Z M 126 3.417969 "/>
<path style=" stroke:none;fill-rule:evenodd;fill:rgb(14.509804%,31.372549%,41.960784%);fill-opacity:1;" d="M 126 40.195312 C 173.378906 40.195312 211.804688 78.621094 211.804688 126.003906 C 211.804688 173.382812 173.378906 211.804688 126 211.804688 C 78.621094 211.804688 40.195312 173.382812 40.195312 126.003906 C 40.195312 78.621094 78.621094 40.195312 126 40.195312 Z M 126 42.523438 C 172.09375 42.523438 209.476562 79.90625 209.476562 126 C 209.476562 172.09375 172.09375 209.476562 126 209.476562 C 79.90625 209.476562 42.523438 172.09375 42.523438 126 C 42.523438 79.90625 79.90625 42.523438 126 42.523438 Z M 126 42.523438 "/>
<path style=" stroke:none;fill-rule:evenodd;fill:rgb(14.509804%,31.372549%,41.960784%);fill-opacity:1;" d="M 197.988281 119.15625 L 191.230469 119.15625 L 191.230469 126.074219 L 197.988281 126.074219 Z M 125.597656 65.515625 L 126.402344 65.515625 C 126.402344 68.121094 126.402344 69.140625 126.402344 72.425781 L 126.855469 73.816406 L 126.855469 78.460938 L 128.289062 80.175781 L 128.289062 87.933594 L 130.238281 87.933594 L 130.238281 102.472656 L 132.390625 102.472656 L 132.390625 100.648438 L 134.679688 100.648438 L 134.679688 109.121094 L 165.980469 109.121094 L 165.980469 104.242188 L 167.734375 104.242188 L 167.734375 105.703125 L 173.441406 105.703125 L 173.441406 104.171875 L 175.195312 104.171875 L 175.195312 109.121094 L 199.835938 109.121094 L 199.835938 142.128906 L 52.160156 142.128906 L 52.160156 109.121094 L 76.804688 109.121094 L 76.804688 104.175781 L 78.554688 104.175781 L 78.558594 105.703125 L 84.261719 105.703125 L 84.261719 104.246094 L 86.015625 104.246094 L 86.015625 109.121094 L 117.316406 109.121094 L 117.316406 100.652344 L 119.605469 100.652344 L 119.605469 102.476562 L 121.757812 102.476562 L 121.757812 87.933594 L 123.707031 87.933594 L 123.707031 80.179688 L 125.144531 78.464844 L 125.144531 73.820312 L 125.59375 72.429688 C 125.597656 69.140625 125.597656 68.125 125.597656 65.515625 Z M 197.988281 126.695312 L 188.996094 126.695312 L 188.996094 132.324219 L 197.988281 132.324219 Z M 197.988281 132.949219 L 187.539062 132.949219 L 187.539062 137.480469 L 191.089844 137.480469 L 191.089844 134.078125 L 192.945312 134.078125 L 192.945312 137.480469 L 194.4375 137.480469 L 194.4375 140.175781 L 197.988281 140.175781 Z M 173.617188 119.15625 L 181.375 119.15625 L 181.375 126.074219 L 173.617188 126.074219 Z M 173.617188 126.695312 L 183.933594 126.695312 L 183.933594 132.324219 L 173.617188 132.324219 Z M 173.617188 132.949219 L 185.609375 132.949219 L 185.609375 137.480469 L 181.535156 137.480469 L 181.535156 134.078125 L 179.402344 134.078125 L 179.402344 137.480469 L 178.261719 137.480469 L 178.261719 140.175781 L 173.613281 140.175781 L 173.613281 132.949219 Z M 173.617188 112.664062 L 181.375 112.664062 L 181.375 118.640625 L 173.617188 118.640625 Z M 189.511719 112.726562 L 183.027344 112.726562 L 183.027344 125.5 L 185.054688 125.5 L 185.054688 130.902344 L 187.894531 130.902344 L 187.894531 125.5 L 189.511719 125.5 Z M 173.503906 107.3125 L 167.742188 107.3125 L 167.742188 109.167969 L 173.503906 109.167969 Z M 171.886719 111.71875 L 167.273438 111.71875 L 167.273438 140.175781 L 171.886719 140.175781 Z M 133.90625 118.117188 L 131.753906 118.117188 L 131.753906 121.480469 L 133.90625 121.480469 Z M 165.480469 118.117188 L 163.5625 118.117188 L 163.5625 122.183594 L 161.167969 122.183594 L 161.167969 118.117188 L 159.019531 118.117188 L 159.019531 122.183594 C 158.222656 122.183594 157.425781 122.183594 156.625 122.183594 L 156.625 118.117188 L 154.476562 118.117188 L 154.476562 122.183594 C 153.679688 122.183594 152.878906 122.183594 152.082031 122.183594 L 152.082031 118.117188 L 149.929688 118.117188 L 149.929688 122.183594 C 149.132812 122.183594 148.332031 122.183594 147.535156 122.183594 L 147.535156 118.117188 L 145.386719 118.117188 L 145.386719 122.183594 C 144.589844 122.183594 143.789062 122.183594 142.992188 122.183594 L 142.992188 118.117188 L 140.839844 118.117188 L 140.839844 122.183594 C 140.039062 122.183594 139.242188 122.183594 138.445312 122.183594 L 138.445312 118.117188 L 136.300781 118.117188 L 136.300781 121.480469 L 136.953125 121.480469 L 136.953125 123.257812 L 165.480469 123.257812 Z M 161.867188 124 L 158.390625 124 L 158.390625 130.21875 L 161.867188 130.21875 Z M 157.824219 124 L 154.351562 124 L 154.351562 130.21875 L 157.824219 130.21875 Z M 153.78125 124 L 150.21875 124 L 150.21875 130.21875 L 153.78125 130.21875 Z M 165.488281 124 L 162.488281 124 L 162.488281 130.21875 L 165.488281 130.21875 Z M 165.488281 130.789062 L 139.285156 130.789062 L 139.285156 140.140625 L 149.023438 140.140625 L 149.023438 132.277344 L 150.851562 132.277344 L 150.851562 140.140625 L 153.105469 140.140625 L 153.105469 132.277344 L 154.933594 132.277344 L 154.933594 140.140625 L 157.183594 140.140625 L 157.183594 132.277344 L 159.015625 132.277344 L 159.015625 140.140625 L 161.265625 140.140625 L 161.265625 132.277344 L 163.097656 132.277344 L 163.097656 140.140625 L 165.488281 140.140625 Z M 197.988281 112.664062 L 191.230469 112.664062 L 191.230469 118.640625 L 197.988281 118.640625 Z M 127.164062 121.480469 L 127.164062 118.117188 L 129.359375 118.117188 L 129.359375 121.480469 Z M 54.011719 119.15625 L 60.769531 119.15625 L 60.769531 126.074219 L 54.011719 126.074219 Z M 54.011719 126.695312 L 63.003906 126.695312 L 63.003906 132.324219 L 54.011719 132.324219 Z M 54.011719 132.949219 L 64.460938 132.949219 L 64.460938 137.480469 L 60.910156 137.480469 L 60.910156 134.078125 L 59.054688 134.078125 L 59.054688 137.480469 L 57.566406 137.480469 L 57.566406 140.175781 L 54.015625 140.175781 L 54.015625 132.949219 Z M 78.382812 119.15625 L 70.625 119.15625 L 70.625 126.074219 L 78.382812 126.074219 Z M 78.382812 126.695312 L 68.0625 126.695312 L 68.0625 132.324219 L 78.382812 132.324219 Z M 78.382812 132.949219 L 66.390625 132.949219 L 66.390625 137.480469 L 70.464844 137.480469 L 70.464844 134.078125 L 72.597656 134.078125 L 72.597656 137.480469 L 73.738281 137.480469 L 73.738281 140.175781 L 78.386719 140.175781 L 78.386719 132.949219 Z M 78.382812 112.664062 L 70.625 112.664062 L 70.625 118.640625 L 78.382812 118.640625 Z M 62.488281 112.726562 L 68.976562 112.726562 L 68.976562 125.5 L 66.945312 125.5 L 66.945312 130.902344 L 64.109375 130.902344 L 64.109375 125.5 L 62.488281 125.5 Z M 78.496094 107.3125 L 84.257812 107.3125 L 84.257812 109.167969 L 78.496094 109.167969 Z M 80.113281 111.71875 L 84.726562 111.71875 L 84.726562 140.175781 L 80.113281 140.175781 Z M 118.09375 118.117188 L 120.242188 118.117188 L 120.242188 121.480469 L 118.09375 121.480469 Z M 86.519531 118.117188 L 88.4375 118.117188 L 88.4375 122.183594 L 90.832031 122.183594 L 90.832031 118.117188 L 92.980469 118.117188 L 92.980469 122.183594 C 93.777344 122.183594 94.578125 122.183594 95.375 122.183594 L 95.375 118.117188 L 97.527344 118.117188 L 97.527344 122.183594 C 98.328125 122.183594 99.125 122.183594 99.921875 122.183594 L 99.921875 118.117188 L 102.074219 118.117188 L 102.074219 122.183594 C 102.871094 122.183594 103.667969 122.183594 104.464844 122.183594 L 104.464844 118.117188 L 106.617188 118.117188 L 106.617188 122.183594 C 107.414062 122.183594 108.210938 122.183594 109.011719 122.183594 L 109.011719 118.117188 L 111.164062 118.117188 L 111.164062 122.183594 C 111.960938 122.183594 112.761719 122.183594 113.558594 122.183594 L 113.558594 118.117188 L 115.707031 118.117188 L 115.707031 121.480469 L 115.058594 121.480469 L 115.058594 123.257812 L 86.527344 123.257812 L 86.527344 118.117188 Z M 90.132812 124 L 93.609375 124 L 93.609375 130.21875 L 90.132812 130.21875 Z M 94.175781 124 L 97.648438 124 L 97.648438 130.21875 L 94.171875 130.21875 L 94.171875 124 Z M 98.21875 124 L 101.78125 124 L 101.78125 130.21875 L 98.21875 130.21875 Z M 86.511719 124 L 89.511719 124 L 89.511719 130.21875 L 86.511719 130.21875 Z M 86.511719 130.789062 L 112.714844 130.789062 L 112.714844 140.140625 L 102.976562 140.140625 L 102.976562 132.277344 L 101.148438 132.277344 L 101.148438 140.140625 L 98.894531 140.140625 L 98.894531 132.277344 L 97.0625 132.277344 L 97.0625 140.140625 L 94.8125 140.140625 L 94.8125 132.277344 L 92.984375 132.277344 L 92.984375 140.140625 L 90.734375 140.140625 L 90.734375 132.277344 L 88.902344 132.277344 L 88.902344 140.140625 L 86.511719 140.140625 Z M 54.011719 112.664062 L 60.769531 112.664062 L 60.769531 118.640625 L 54.011719 118.640625 Z M 124.835938 121.480469 L 124.835938 118.117188 L 122.640625 118.117188 L 122.640625 121.480469 Z M 127.34375 88.007812 L 127.34375 81.394531 L 126 80.507812 L 124.652344 81.394531 L 124.652344 88.007812 Z M 128.566406 102.503906 L 128.566406 90.03125 L 123.429688 90.03125 L 123.429688 102.503906 Z M 132.472656 109.121094 L 132.472656 104.691406 L 119.527344 104.691406 L 119.527344 109.121094 Z M 126 112.09375 C 126.640625 112.09375 127.164062 112.632812 127.164062 113.289062 L 127.164062 113.644531 L 129.375 113.644531 L 129.375 113.289062 C 129.375 112.632812 129.898438 112.09375 130.539062 112.09375 C 131.179688 112.09375 131.703125 112.632812 131.703125 113.289062 L 131.703125 113.644531 L 133.917969 113.644531 L 133.917969 113.289062 C 133.917969 112.632812 134.441406 112.09375 135.082031 112.09375 C 135.722656 112.09375 136.242188 112.632812 136.242188 113.289062 L 136.242188 113.644531 L 138.460938 113.644531 L 138.460938 113.289062 C 138.460938 112.632812 138.984375 112.09375 139.625 112.09375 C 140.261719 112.09375 140.785156 112.632812 140.785156 113.289062 L 140.785156 113.644531 L 143.003906 113.644531 L 143.003906 113.289062 C 143.003906 112.632812 143.527344 112.09375 144.167969 112.09375 C 144.804688 112.09375 145.328125 112.632812 145.328125 113.289062 L 145.328125 113.644531 L 147.546875 113.644531 L 147.546875 113.289062 C 147.546875 112.632812 148.070312 112.09375 148.707031 112.09375 C 149.347656 112.09375 149.871094 112.632812 149.871094 113.289062 L 149.871094 113.644531 L 152.085938 113.644531 L 152.085938 113.289062 C 152.085938 112.632812 152.609375 112.09375 153.246094 112.09375 C 153.886719 112.09375 154.410156 112.632812 154.410156 113.289062 L 154.410156 113.644531 L 156.628906 113.644531 L 156.628906 113.289062 C 156.628906 112.632812 157.148438 112.09375 157.789062 112.09375 C 158.429688 112.09375 158.953125 112.632812 158.953125 113.289062 L 158.953125 113.644531 L 161.167969 113.644531 L 161.167969 113.289062 C 161.167969 112.632812 161.691406 112.09375 162.328125 112.09375 C 162.96875 112.09375 163.492188 112.632812 163.492188 113.289062 L 163.492188 113.644531 L 165.488281 113.644531 L 165.488281 110.855469 L 86.519531 110.855469 L 86.519531 113.644531 L 88.515625 113.644531 L 88.515625 113.289062 C 88.515625 112.632812 89.039062 112.09375 89.675781 112.09375 C 90.316406 112.09375 90.839844 112.632812 90.839844 113.289062 L 90.839844 113.644531 L 93.058594 113.644531 L 93.058594 113.289062 C 93.058594 112.632812 93.582031 112.09375 94.21875 112.09375 C 94.859375 112.09375 95.382812 112.632812 95.382812 113.289062 L 95.382812 113.644531 L 97.597656 113.644531 L 97.597656 113.289062 C 97.597656 112.632812 98.121094 112.09375 98.761719 112.09375 C 99.402344 112.09375 99.925781 112.632812 99.925781 113.289062 L 99.925781 113.644531 L 102.140625 113.644531 L 102.140625 113.289062 C 102.140625 112.632812 102.660156 112.09375 103.300781 112.09375 C 103.941406 112.09375 104.464844 112.632812 104.464844 113.289062 L 104.464844 113.644531 L 106.679688 113.644531 L 106.679688 113.289062 C 106.679688 112.632812 107.203125 112.09375 107.84375 112.09375 C 108.484375 112.09375 109.003906 112.632812 109.003906 113.289062 L 109.003906 113.644531 L 111.21875 113.644531 L 111.21875 113.289062 C 111.21875 112.632812 111.742188 112.09375 112.382812 112.09375 C 113.023438 112.09375 113.542969 112.632812 113.542969 113.289062 L 113.542969 113.644531 L 115.761719 113.644531 L 115.761719 113.289062 C 115.761719 112.632812 116.285156 112.09375 116.925781 112.09375 C 117.5625 112.09375 118.085938 112.632812 118.085938 113.289062 L 118.085938 113.644531 L 120.304688 113.644531 L 120.304688 113.289062 C 120.304688 112.632812 120.828125 112.09375 121.46875 112.09375 C 122.105469 112.09375 122.628906 112.632812 122.628906 113.289062 L 122.628906 113.644531 L 124.847656 113.644531 L 124.847656 113.289062 C 124.835938 112.632812 125.359375 112.09375 126 112.09375 Z M 165.480469 117.523438 L 165.480469 114.191406 L 163.484375 114.191406 L 163.484375 116.554688 L 161.160156 116.554688 L 161.160156 114.191406 L 158.945312 114.191406 L 158.945312 116.554688 C 158.171875 116.554688 157.394531 116.554688 156.621094 116.554688 L 156.621094 114.191406 L 154.402344 114.191406 L 154.402344 116.554688 C 153.628906 116.554688 152.855469 116.554688 152.078125 116.554688 L 152.078125 114.191406 L 149.863281 114.191406 L 149.863281 116.554688 C 149.089844 116.554688 148.316406 116.554688 147.539062 116.554688 L 147.539062 114.191406 L 145.320312 114.191406 L 145.320312 116.554688 C 144.546875 116.554688 143.773438 116.554688 142.996094 116.554688 L 142.996094 114.191406 L 140.78125 114.191406 L 140.78125 116.554688 C 140.003906 116.554688 139.230469 116.554688 138.457031 116.554688 L 138.457031 114.191406 L 136.238281 114.191406 L 136.238281 116.554688 C 135.460938 116.554688 134.6875 116.554688 133.914062 116.554688 L 133.914062 114.191406 L 131.703125 114.191406 L 131.703125 116.554688 C 130.925781 116.554688 130.152344 116.554688 129.375 116.554688 L 129.375 114.191406 L 127.164062 114.191406 L 127.164062 116.554688 L 124.835938 116.554688 L 124.835938 114.191406 L 122.621094 114.191406 L 122.621094 116.554688 C 121.84375 116.554688 121.070312 116.554688 120.296875 116.554688 L 120.296875 114.191406 L 118.078125 114.191406 L 118.078125 116.554688 C 117.304688 116.554688 116.527344 116.554688 115.753906 116.554688 L 115.753906 114.191406 L 113.535156 114.191406 L 113.535156 116.554688 C 112.761719 116.554688 111.984375 116.554688 111.210938 116.554688 L 111.210938 114.191406 L 108.996094 114.191406 L 108.996094 116.554688 C 108.222656 116.554688 107.445312 116.554688 106.671875 116.554688 L 106.671875 114.191406 L 104.453125 114.191406 L 104.453125 116.554688 C 103.679688 116.554688 102.902344 116.554688 102.128906 116.554688 L 102.128906 114.191406 L 99.914062 114.191406 L 99.914062 116.554688 C 99.140625 116.554688 98.363281 116.554688 97.589844 116.554688 L 97.589844 114.191406 L 95.371094 114.191406 L 95.371094 116.554688 C 94.597656 116.554688 93.824219 116.554688 93.046875 116.554688 L 93.046875 114.191406 L 90.832031 114.191406 L 90.832031 116.554688 L 88.515625 116.554688 L 88.515625 114.191406 L 86.519531 114.191406 L 86.519531 117.523438 Z M 133.726562 123.550781 L 139.289062 127.546875 L 139.289062 130.21875 L 149.601562 130.21875 L 149.601562 124 L 136.285156 124 L 136.285156 122.136719 L 115.710938 122.136719 L 115.710938 124 L 102.394531 124 L 102.394531 130.21875 L 112.707031 130.21875 L 112.707031 127.546875 L 118.269531 123.550781 Z M 128.4375 126.9375 C 130.570312 126.9375 132.316406 128.789062 132.316406 131.046875 L 132.316406 140.140625 L 134.304688 140.140625 L 134.304688 127.585938 L 132.699219 125.925781 L 119.289062 125.925781 L 117.6875 127.585938 L 117.6875 140.140625 L 119.675781 140.140625 L 119.675781 131.046875 C 119.675781 128.785156 121.417969 126.9375 123.550781 126.9375 Z M 129.449219 131.128906 L 129.449219 140.140625 L 130.777344 140.140625 L 130.777344 130.429688 C 130.777344 129.136719 129.75 128.078125 128.496094 128.078125 L 123.503906 128.078125 C 122.25 128.078125 121.222656 129.136719 121.222656 130.429688 L 121.222656 140.140625 L 122.550781 140.140625 L 122.550781 131.128906 Z M 128.191406 140.140625 L 128.191406 133.628906 C 128.191406 133.398438 127.839844 133.214844 127.40625 133.214844 L 124.59375 133.214844 C 124.160156 133.214844 123.808594 133.402344 123.808594 133.628906 L 123.808594 140.140625 Z M 115.765625 146.324219 L 136.238281 146.324219 L 136.238281 148.132812 L 115.765625 148.132812 Z M 112.410156 149.035156 L 139.589844 149.035156 L 139.589844 150.847656 L 112.410156 150.847656 Z M 119.457031 143.625 L 132.542969 143.625 L 132.542969 145.433594 L 119.457031 145.433594 Z M 119.457031 143.625 "/>
<path style=" stroke:none;fill-rule:nonzero;fill:rgb(14.509804%,31.372549%,41.960784%);fill-opacity:1;" d="M 103.164062 173.664062 L 103.164062 170.871094 C 104.453125 170.351562 105.6875 169.667969 106.875 168.820312 L 109.867188 168.820312 L 109.867188 182.859375 L 106.660156 182.859375 L 106.660156 171.863281 C 105.570312 172.59375 104.410156 173.195312 103.164062 173.664062 Z M 114.035156 179.410156 L 117.28125 179.410156 C 117.464844 180.53125 117.992188 181.105469 118.851562 181.132812 C 120.542969 181.125 121.285156 179.632812 121.074219 176.644531 C 120.671875 176.976562 120.25 177.203125 119.820312 177.328125 C 119.402344 177.460938 118.863281 177.523438 118.195312 177.519531 C 115.53125 177.269531 114.0625 175.863281 113.777344 173.300781 C 113.984375 170.328125 115.742188 168.734375 119.050781 168.515625 C 122.609375 168.507812 124.390625 170.589844 124.386719 174.761719 C 124.59375 180.441406 122.761719 183.234375 118.894531 183.144531 C 115.699219 183.179688 114.082031 181.933594 114.035156 179.410156 Z M 117.082031 173.097656 C 117.109375 174.675781 117.800781 175.472656 119.15625 175.496094 C 120.394531 175.46875 121.03125 174.671875 121.074219 173.097656 C 121.007812 171.441406 120.371094 170.589844 119.15625 170.542969 C 117.824219 170.585938 117.128906 171.4375 117.082031 173.097656 Z M 133.402344 175.855469 C 133.417969 172.371094 132.78125 170.605469 131.496094 170.542969 C 130.210938 170.605469 129.578125 172.371094 129.601562 175.855469 C 129.578125 179.320312 130.210938 181.085938 131.496094 181.132812 C 132.777344 181.085938 133.417969 179.320312 133.402344 175.855469 Z M 136.707031 175.855469 C 136.617188 180.648438 134.859375 183.078125 131.433594 183.144531 C 128.101562 183.070312 126.386719 180.640625 126.300781 175.855469 C 126.394531 171.042969 128.109375 168.59375 131.433594 168.515625 C 134.851562 168.585938 136.613281 171.03125 136.707031 175.855469 Z M 138.472656 179.410156 L 141.714844 179.410156 C 141.902344 180.53125 142.425781 181.105469 143.289062 181.132812 C 144.980469 181.125 145.71875 179.632812 145.503906 176.644531 C 145.101562 176.976562 144.683594 177.203125 144.25 177.328125 C 143.835938 177.460938 143.296875 177.523438 142.625 177.519531 C 139.964844 177.269531 138.492188 175.863281 138.210938 173.300781 C 138.421875 170.328125 140.175781 168.734375 143.484375 168.515625 C 147.046875 168.507812 148.824219 170.589844 148.820312 174.761719 C 149.03125 180.441406 147.195312 183.234375 143.332031 183.144531 C 140.132812 183.179688 138.511719 181.933594 138.472656 179.410156 Z M 141.515625 173.097656 C 141.542969 174.675781 142.230469 175.472656 143.585938 175.496094 C 144.824219 175.46875 145.460938 174.671875 145.5 173.097656 C 145.4375 171.441406 144.800781 170.589844 143.585938 170.542969 C 142.253906 170.585938 141.5625 171.4375 141.515625 173.097656 Z M 141.515625 173.097656 "/>
<path style=" stroke:none;fill-rule:evenodd;fill:rgb(14.509804%,31.372549%,41.960784%);fill-opacity:1;" d="M 80.859375 31.132812 C 80.792969 31 81.214844 30.90625 81.492188 30.78125 C 81.597656 30.730469 81.835938 30.625 81.898438 30.621094 C 82.125 30.605469 82.195312 30.597656 82.683594 30.757812 C 83.171875 30.921875 83.503906 31.054688 83.746094 30.921875 C 83.988281 30.792969 84.238281 30.671875 84.28125 30.578125 C 84.328125 30.484375 84.339844 30.25 84.390625 30.011719 C 84.441406 29.773438 84.5625 29.5625 84.546875 29.265625 C 84.53125 28.96875 84.492188 28.722656 84.535156 28.578125 C 84.574219 28.433594 84.84375 27.703125 85.015625 27.570312 C 85.183594 27.441406 86.097656 26.941406 87.242188 26.796875 C 87.242188 26.796875 87.632812 26.867188 87.726562 27.144531 C 87.820312 27.421875 88.144531 28.21875 88.210938 28.328125 C 88.28125 28.4375 88.34375 28.535156 88.613281 28.570312 C 88.878906 28.605469 89.191406 28.585938 89.390625 28.132812 C 89.589844 27.683594 89.902344 27.050781 90.027344 26.707031 C 90.152344 26.367188 90.242188 25.945312 90.285156 25.660156 C 90.328125 25.375 90.292969 24.871094 90.441406 24.621094 C 90.59375 24.371094 90.773438 24.109375 91.289062 23.992188 C 91.808594 23.875 92.132812 23.808594 92.367188 23.769531 C 92.601562 23.730469 92.882812 23.796875 92.882812 23.796875 C 92.882812 23.796875 93.117188 23.921875 93.210938 24.199219 C 93.304688 24.476562 93.378906 24.78125 93.449219 24.855469 C 93.515625 24.929688 94.15625 25.453125 94.765625 25.113281 C 94.765625 25.113281 95.027344 24.992188 95.09375 24.902344 C 95.160156 24.820312 95.304688 24.554688 95.414062 24.023438 C 95.519531 23.488281 95.519531 23.148438 95.613281 22.769531 C 95.699219 22.386719 95.792969 21.558594 96.03125 21.070312 C 96.265625 20.582031 96.4375 20.414062 96.582031 20.183594 C 96.722656 19.957031 97.164062 19.414062 97.511719 19.269531 C 98.328125 18.929688 98.859375 19.230469 99.738281 19.402344 C 100.113281 19.480469 100.429688 19.617188 100.535156 19.726562 C 100.640625 19.839844 100.703125 19.9375 100.660156 20.027344 C 100.609375 20.121094 100.582031 21.242188 100.253906 21.949219 C 100.253906 21.949219 100.21875 22.328125 100.242188 22.492188 C 100.269531 22.65625 100.433594 22.9375 100.433594 23.171875 C 100.4375 23.402344 100.570312 23.804688 100.730469 24.105469 C 100.757812 24.160156 100.707031 24.273438 100.738281 24.445312 C 100.773438 24.671875 100.902344 24.984375 101.054688 25.246094 C 101.210938 25.507812 101.363281 25.882812 101.515625 26.140625 C 101.585938 26.261719 101.730469 26.324219 101.8125 26.449219 C 101.921875 26.613281 101.960938 26.847656 102.011719 27.027344 C 102.011719 27.027344 102.042969 27.203125 102.035156 27.355469 C 102.023438 27.550781 101.953125 27.757812 101.980469 27.941406 C 102.011719 28.164062 101.976562 28.34375 102.132812 28.527344 C 102.203125 28.609375 102.457031 28.664062 102.589844 28.777344 C 103.035156 29.164062 103.828125 30.375 103.824219 30.949219 C 103.820312 31.351562 103.238281 31.925781 103.132812 32.21875 C 103.023438 32.515625 102.691406 33.628906 102.398438 33.835938 C 102.109375 34.039062 101.484375 34.191406 101.257812 34.089844 C 101.03125 33.984375 100.699219 33.648438 100.699219 33.648438 L 100.050781 33.460938 L 99.492188 33.621094 C 99.492188 33.621094 99.414062 33.375 99.488281 33.164062 C 99.566406 32.953125 99.589844 32.628906 99.570312 32.144531 C 99.554688 31.660156 99.148438 30.339844 98.835938 29.683594 C 98.835938 29.683594 98.746094 28.8125 98.5625 28.199219 C 98.378906 27.585938 97.859375 26.707031 97.804688 26.203125 C 97.746094 25.703125 97.789062 25.125 97.777344 24.953125 C 97.769531 24.785156 97.738281 23.816406 97.492188 23.371094 C 97.246094 22.921875 97.007812 22.859375 96.820312 22.914062 C 96.636719 22.964844 96.527344 23.332031 96.449219 23.617188 C 96.371094 23.894531 95.984375 24.640625 96.238281 25.714844 C 96.238281 25.714844 96.339844 26.226562 96.566406 26.261719 C 96.792969 26.296875 97.113281 26.460938 97.195312 26.632812 C 97.277344 26.804688 97.484375 27.480469 97.496094 27.648438 C 97.503906 27.820312 97.488281 28.457031 97.289062 28.621094 C 97.082031 28.785156 96.730469 28.777344 96.332031 28.683594 C 95.9375 28.589844 95.617188 28.808594 95.398438 28.5625 C 95.175781 28.3125 94.808594 28.277344 94.679688 27.777344 C 94.550781 27.277344 94.550781 27.277344 94.53125 26.9375 C 94.511719 26.59375 94.265625 26.21875 94.128906 26.074219 C 93.988281 25.925781 93.789062 26.023438 93.789062 26.023438 C 93.789062 26.023438 93.785156 26.761719 93.664062 26.953125 C 93.546875 27.152344 93.671875 27.792969 93.757812 28.277344 C 93.847656 28.761719 93.839844 29.117188 93.855469 29.527344 C 93.875 29.941406 94.316406 30.820312 94.457031 31.035156 C 94.59375 31.25 95.421875 32.722656 95.277344 33.3125 C 95.136719 33.90625 95.109375 34.449219 94.941406 34.839844 C 94.773438 35.230469 93.660156 35.542969 93.660156 35.542969 C 93.660156 35.542969 93.011719 35.359375 92.71875 34.652344 C 92.425781 33.949219 92.011719 33.375 91.953125 32.945312 C 91.890625 32.515625 91.785156 31.691406 91.738281 31.292969 C 91.691406 30.890625 91.683594 30.058594 91.710938 29.660156 C 91.734375 29.261719 91.847656 28.683594 91.8125 28.382812 C 91.777344 28.085938 91.710938 27.488281 91.433594 27.582031 C 91.433594 27.582031 91.132812 27.757812 91.042969 28.394531 C 90.957031 29.03125 90.863281 29.496094 90.894531 29.796875 C 90.929688 30.09375 90.53125 30.738281 90.105469 30.726562 C 90.105469 30.726562 89.652344 30.726562 89.40625 30.878906 C 89.160156 31.03125 89.289062 31.601562 89.339844 31.855469 C 89.390625 32.113281 90.144531 34.320312 90.183594 35.003906 C 90.226562 35.6875 89.683594 37.96875 89.285156 38.472656 C 89.285156 38.472656 88.589844 39.078125 88.226562 39.351562 C 87.867188 39.628906 87.488281 39.417969 87.488281 39.417969 C 87.488281 39.417969 86.449219 38.992188 86.222656 38.890625 C 86 38.785156 85.921875 38.398438 85.644531 38.105469 C 85.367188 37.816406 85.460938 37.632812 85.605469 37.421875 C 85.753906 37.210938 86.335938 36.660156 86.335938 36.660156 C 86.335938 36.660156 87.21875 34.808594 87.089844 33.855469 C 86.957031 32.902344 87.023438 31.46875 86.679688 30.960938 C 86.335938 30.457031 86.015625 29.792969 85.617188 29.835938 C 85.296875 29.875 85.078125 29.964844 84.902344 30.144531 C 84.824219 30.238281 84.730469 30.328125 84.679688 30.460938 C 84.667969 30.488281 84.65625 30.515625 84.65625 30.542969 C 84.664062 30.804688 84.476562 31.054688 84.476562 31.054688 C 84.476562 31.054688 84.5625 31.507812 84.539062 31.761719 C 84.519531 32.015625 84.707031 32.597656 84.941406 32.941406 C 85.105469 33.191406 85.320312 33.589844 85.28125 33.878906 C 85.265625 33.992188 85.105469 34.085938 85.050781 34.152344 C 84.417969 34.882812 84.496094 35.90625 83.332031 35.203125 C 82.941406 34.964844 82.476562 34.867188 82.476562 34.867188 C 82.476562 34.867188 82.238281 34.765625 81.816406 34.054688 C 81.039062 32.757812 81.9375 33.308594 81.800781 32.589844 C 81.761719 32.390625 81.816406 32.027344 81.710938 31.75 C 81.664062 31.621094 81.492188 31.460938 81.425781 31.433594 C 81.214844 31.359375 80.957031 31.324219 80.859375 31.132812 Z M 80.859375 31.132812 "/>
<path style=" stroke:none;fill-rule:evenodd;fill:rgb(14.509804%,31.372549%,41.960784%);fill-opacity:1;" d="M 199.363281 68.183594 C 199.730469 68.214844 200.527344 68.253906 201.128906 68.3125 C 201.730469 68.375 202.460938 68.519531 203.089844 69.183594 C 203.089844 69.183594 202.679688 69.992188 202.585938 70.335938 C 202.492188 70.679688 202.414062 71.128906 201.472656 71.773438 C 200.527344 72.414062 200.59375 72.265625 200.59375 72.265625 C 200.59375 72.265625 200.203125 72.296875 199.210938 71.648438 C 198.214844 70.996094 197.894531 70.707031 197.386719 70.308594 C 196.882812 69.90625 196.488281 69.3125 196.488281 69.3125 C 196.363281 69.972656 196.523438 69.8125 196.738281 70.417969 C 196.839844 70.703125 197.585938 71.757812 197.792969 72.105469 C 198.003906 72.457031 198.078125 72.804688 198.113281 73.195312 C 198.144531 73.585938 198.121094 74.660156 198.53125 75.277344 C 198.53125 75.277344 199.351562 76.09375 199.714844 76.125 C 200.082031 76.15625 200.925781 76.074219 200.925781 76.074219 C 200.925781 76.074219 202.734375 76.121094 203.492188 75.148438 C 204.253906 74.179688 204.238281 73.941406 204.644531 73.175781 C 205.054688 72.410156 205.511719 71.363281 206.140625 71.273438 C 206.140625 71.273438 206.914062 71.421875 207.238281 71.410156 C 207.566406 71.402344 208.027344 71.375 208.175781 71.273438 C 208.265625 71.210938 208.527344 70.976562 208.613281 70.734375 C 208.703125 70.46875 208.5625 70.363281 208.503906 70.230469 C 208.371094 69.910156 208.71875 69.722656 208.945312 69.210938 C 208.945312 69.210938 208.753906 68.605469 208.4375 68.269531 C 208.125 67.9375 207.894531 67.652344 207.015625 67.433594 C 206.136719 67.21875 205.3125 66.699219 203.984375 66.191406 C 202.660156 65.679688 200.96875 65.140625 200.1875 64.667969 C 200.1875 64.667969 199.242188 64.472656 198.671875 64.046875 C 198.082031 63.609375 197.890625 62.671875 197.0625 62.925781 C 196.867188 62.984375 196.902344 63.203125 196.902344 63.203125 C 196.902344 63.203125 196.769531 64.210938 196.925781 64.777344 C 197.21875 65.828125 196.71875 67.058594 197.90625 67.628906 C 198.472656 67.769531 199 68.148438 199.363281 68.183594 Z M 213.480469 54.082031 C 213.480469 54.082031 211.804688 55.945312 211.347656 56.382812 C 210.886719 56.816406 209.117188 58.582031 208.902344 58.839844 C 208.679688 59.089844 208.453125 59.671875 208.1875 60.066406 C 207.914062 60.460938 207.800781 60.667969 207.8125 60.835938 C 207.824219 61.003906 208.136719 61.035156 208.746094 61.050781 C 209.042969 61.054688 209.289062 61.21875 209.445312 61.234375 C 209.507812 61.238281 209.542969 61.210938 209.613281 61.234375 L 210.308594 61.421875 C 210.308594 61.421875 210.640625 61.480469 211.070312 61.558594 C 211.363281 61.613281 211.691406 61.65625 211.878906 61.644531 C 212.054688 61.632812 212.109375 61.675781 212.273438 61.835938 C 212.742188 62.292969 212.820312 63.191406 212.820312 63.191406 C 212.828125 63.316406 212.632812 63.460938 212.820312 63.609375 C 212.945312 63.710938 213.15625 63.429688 213.414062 63.464844 C 213.585938 63.488281 213.773438 63.722656 213.984375 63.925781 C 214.402344 64.335938 214.367188 64.53125 214.355469 64.941406 C 214.347656 65.171875 214.28125 65.390625 214.15625 65.539062 C 213.96875 65.757812 213.714844 65.746094 213.46875 65.777344 C 213.191406 65.816406 212.933594 65.882812 212.789062 65.855469 C 212.519531 65.800781 212 65.660156 211.757812 65.492188 C 211.679688 65.4375 211.4375 65.234375 211.121094 65.027344 C 210.71875 64.765625 210.191406 64.472656 209.648438 64.179688 C 209.296875 63.996094 208.890625 63.882812 208.597656 63.746094 C 207.496094 63.238281 205.414062 61.886719 205.011719 61.695312 C 204.609375 61.503906 203.421875 60.765625 203.421875 60.765625 C 202.898438 60.730469 202.621094 61.703125 202.570312 61.972656 C 202.515625 62.242188 202.507812 62.605469 202.480469 62.8125 C 202.449219 63.015625 202.738281 63.410156 202.738281 63.410156 C 202.738281 63.410156 204.367188 64.476562 204.726562 64.667969 C 205.085938 64.859375 207.097656 65.433594 207.097656 65.433594 C 207.667969 65.410156 208.140625 65.386719 208.566406 65.496094 C 209.382812 65.707031 209.90625 66.1875 210.144531 66.222656 C 210.507812 66.277344 211.785156 66.3125 211.785156 66.3125 C 211.785156 66.3125 212.328125 66.371094 212.4375 66.488281 C 212.550781 66.605469 212.632812 66.925781 212.648438 67.128906 C 212.667969 67.335938 212.136719 67.660156 211.820312 67.652344 C 211.5 67.644531 210.394531 67.296875 210.394531 67.296875 C 210.394531 67.296875 209.761719 67.097656 209.851562 67.238281 C 209.9375 67.375 211.179688 68.964844 211.3125 69.109375 C 211.722656 69.542969 211.738281 69.613281 212.578125 69.808594 C 213.347656 69.96875 213.398438 69.742188 213.632812 69.429688 C 213.871094 69.113281 214.339844 67.601562 214.324219 67.261719 C 214.300781 66.660156 214.226562 66.421875 214.582031 66.269531 C 214.582031 66.269531 215.160156 66.738281 215.292969 66.878906 C 215.714844 67.324219 216.207031 67.023438 216.441406 66.589844 C 216.855469 65.816406 216.199219 65.351562 217.070312 65.253906 C 217.175781 65.238281 217.167969 65.257812 217.261719 65.308594 C 217.394531 65.375 217.660156 65.464844 218.0625 65.402344 C 218.679688 65.304688 221.257812 65.03125 221.460938 65.058594 C 221.664062 65.089844 222.460938 65.089844 222.601562 65 C 222.738281 64.910156 223.050781 64.351562 223.039062 63.917969 C 223.015625 63 223.46875 63.195312 222.832031 62.730469 C 222.628906 62.585938 222.535156 62.550781 222.289062 62.488281 C 222.089844 62.433594 221.824219 62.355469 221.558594 62.265625 C 221.039062 62.09375 220.382812 61.742188 220.164062 61.683594 C 219.007812 61.359375 219.351562 60.761719 219.925781 60.222656 C 220.347656 59.820312 220.523438 59.875 220.226562 59.273438 L 219.886719 58.800781 C 219.863281 58.773438 219.851562 58.742188 219.855469 58.71875 C 219.859375 58.695312 219.890625 58.644531 219.921875 58.605469 C 220 58.488281 220.160156 58.304688 220.394531 58.140625 C 220.589844 58 220.949219 57.738281 221.191406 57.476562 C 221.40625 57.242188 221.515625 56.988281 221.515625 56.988281 C 221.515625 56.988281 221.550781 56.597656 221.445312 56.304688 C 221.339844 56.003906 221.304688 55.546875 221.246094 55.25 C 221.222656 55.121094 221.226562 55.003906 221.207031 54.90625 C 221.195312 54.847656 221.148438 54.75 221.136719 54.695312 C 221.074219 54.398438 220.976562 54.394531 220.785156 54.589844 C 220.738281 54.640625 220.714844 54.738281 220.640625 54.804688 C 220.429688 55.003906 220.082031 55.425781 219.789062 55.492188 C 219.660156 55.523438 219.351562 55.734375 219.078125 55.84375 C 218.757812 55.972656 218.453125 55.90625 218.292969 55.972656 C 218.132812 56.035156 217.742188 56.003906 217.5 55.882812 C 217.34375 55.808594 217.007812 55.4375 216.761719 55.238281 C 216.65625 55.15625 216.546875 55.066406 216.488281 55.085938 C 216.453125 55.101562 216.457031 55.175781 216.425781 55.234375 L 216.453125 55.574219 C 216.511719 55.847656 216.542969 56.039062 216.578125 56.210938 C 216.605469 56.347656 216.664062 56.464844 216.570312 56.675781 C 216.472656 56.902344 215.785156 57.066406 215.300781 57.304688 C 214.816406 57.542969 213.414062 57.605469 213.414062 57.605469 C 213.585938 57.925781 214.148438 57.769531 214.476562 57.761719 C 214.992188 57.753906 215.105469 57.851562 215.355469 57.972656 C 215.601562 58.09375 216.296875 58.308594 216.636719 58.339844 C 216.976562 58.371094 217.207031 58.566406 217.207031 58.566406 C 217.535156 59.136719 216.929688 59.441406 216.929688 59.441406 C 216.929688 59.441406 216.5 59.65625 215.8125 59.792969 C 215.128906 59.929688 213.957031 60.457031 213.6875 60.355469 C 213.414062 60.257812 213.136719 59.382812 213.136719 59.382812 C 213.136719 59.382812 212.890625 58.808594 212.792969 58.871094 C 212.28125 59.191406 212.5625 59.09375 212.511719 59.460938 C 212.484375 59.664062 212.507812 60.484375 212.507812 60.484375 C 212.367188 60.664062 211.382812 60.914062 211.109375 60.953125 C 210.917969 60.976562 210.222656 61.007812 209.792969 60.945312 C 209.695312 60.929688 209.5625 60.890625 209.59375 60.761719 C 209.640625 60.558594 209.65625 60.382812 209.726562 60.289062 C 209.800781 60.195312 209.949219 60.039062 210.089844 59.820312 C 210.171875 59.6875 210.328125 59.460938 210.394531 59.296875 C 210.570312 58.855469 211.945312 56.96875 212.214844 56.621094 C 212.402344 56.386719 212.996094 55.832031 213.285156 55.441406 C 213.417969 55.265625 213.347656 55.085938 213.386719 55.050781 C 213.507812 54.933594 213.59375 54.488281 213.59375 54.488281 L 213.621094 54.230469 Z M 217.6875 61.082031 L 219.078125 62.632812 C 219.269531 62.878906 219.207031 63.117188 218.992188 63.347656 C 218.746094 63.605469 218.253906 63.9375 217.757812 64.160156 C 217.46875 64.289062 217.199219 64.476562 216.894531 64.457031 C 216.554688 64.4375 216.1875 64.1875 216.074219 64.105469 C 216.015625 64.066406 215.074219 64.015625 215.058594 63.773438 C 215.042969 63.621094 215.140625 63.0625 215.148438 62.835938 C 215.121094 62.632812 215.023438 62.046875 215.023438 61.765625 C 215.023438 61.710938 214.902344 61.429688 214.996094 61.359375 C 215.089844 61.292969 216.570312 61.136719 217.332031 61.007812 C 217.628906 60.957031 217.613281 61.035156 217.6875 61.082031 Z M 209.054688 54.320312 C 209.070312 54.6875 209.019531 55.855469 209.042969 56.015625 C 209.070312 56.199219 209.410156 56.433594 209.1875 56.664062 C 209.109375 56.746094 208.9375 56.929688 208.734375 57.136719 C 208.371094 57.511719 207.921875 57.976562 207.734375 58.140625 C 207.605469 58.253906 207.371094 58.550781 207.023438 58.84375 C 206.6875 59.136719 206.246094 59.421875 205.902344 59.609375 C 205.703125 59.71875 205.582031 59.839844 205.617188 59.492188 C 205.621094 59.4375 205.636719 59.378906 205.667969 59.304688 C 205.796875 59.019531 205.835938 58.8125 206.070312 58.546875 C 206.304688 58.28125 206.453125 57.859375 206.636719 57.542969 C 206.820312 57.21875 207.320312 56.789062 207.511719 56.5 C 207.703125 56.214844 207.746094 55.988281 207.929688 55.648438 C 208.035156 55.441406 208.371094 54.96875 208.65625 54.617188 C 208.800781 54.4375 208.941406 54.285156 209.011719 54.234375 C 209.070312 54.1875 209.054688 54.285156 209.054688 54.320312 Z M 209.054688 54.320312 "/>
<path style=" stroke:none;fill-rule:evenodd;fill:rgb(14.509804%,31.372549%,41.960784%);fill-opacity:1;" d="M 36.714844 71.210938 C 36.714844 71.210938 36.496094 71.945312 36.917969 72.789062 C 37.070312 73.097656 37.539062 73.40625 37.753906 73.824219 C 38 74.308594 38.058594 74.8125 38.460938 75.46875 C 38.484375 75.503906 38.644531 75.636719 38.800781 75.894531 C 38.882812 76.03125 38.863281 76.234375 38.988281 76.394531 C 39.070312 76.503906 39.289062 76.578125 39.367188 76.683594 C 39.488281 76.855469 39.480469 77.03125 39.597656 77.160156 C 39.820312 77.398438 40.15625 77.5 40.359375 77.375 C 40.585938 77.234375 41.054688 77.039062 41.71875 77 C 42.019531 76.980469 42.828125 76.339844 42.605469 76.058594 C 42.441406 75.855469 42.253906 75.585938 41.789062 75.269531 C 41.320312 74.949219 39.925781 74.34375 39.117188 73.597656 C 38.308594 72.851562 37.707031 72.1875 37.363281 71.921875 C 37.015625 71.648438 36.714844 71.210938 36.714844 71.210938 Z M 45.960938 65.1875 C 46.003906 65.0625 46.191406 65.140625 46.476562 65.085938 C 46.65625 65.046875 46.847656 64.945312 46.992188 64.929688 C 47.15625 64.914062 47.339844 65.054688 47.679688 65.058594 C 48.886719 65.078125 49.570312 65.039062 50.445312 65.4375 C 50.445312 65.4375 51.097656 65.789062 51.230469 66.328125 C 51.371094 66.867188 51.265625 66.976562 51.238281 67.125 C 51.210938 67.277344 50.363281 68.214844 50.363281 68.214844 C 50.363281 68.214844 49.78125 67.953125 49.519531 67.753906 C 49.257812 67.550781 47.699219 66.605469 47.535156 66.507812 C 47.46875 66.472656 47.078125 66.421875 46.800781 66.230469 C 46.453125 65.996094 46.058594 65.6875 45.953125 65.558594 L 45.898438 65.378906 Z M 34.199219 64.035156 C 34.265625 63.753906 34.25 63.515625 34.257812 63.265625 C 34.269531 63.011719 34.242188 62.78125 34.179688 62.5 C 34.148438 62.34375 34.015625 62.140625 33.972656 61.941406 C 33.785156 61.035156 33.667969 59.722656 33.378906 58.226562 C 33.332031 57.96875 33.195312 57.769531 33.109375 57.523438 C 33.03125 57.300781 33.003906 57.023438 32.957031 56.824219 C 32.746094 55.941406 32.828125 55.480469 32.695312 54.867188 C 32.523438 54.058594 32.339844 53.222656 32.316406 53.019531 C 32.261719 52.589844 32.257812 52.234375 32.164062 51.953125 C 32.074219 51.675781 32.140625 51.421875 32.230469 51.339844 C 32.320312 51.253906 32.652344 51.359375 32.652344 51.359375 C 32.652344 51.359375 33.394531 51.292969 33.667969 51.375 C 33.9375 51.453125 34.117188 51.71875 34.308594 51.84375 C 34.410156 51.910156 34.8125 52.105469 35.175781 52.082031 C 35.476562 52.058594 35.730469 51.832031 35.917969 51.75 C 35.917969 51.75 36.289062 51.324219 36.4375 51.691406 C 36.589844 52.0625 36.53125 52.179688 36.480469 52.28125 C 36.390625 52.464844 36.355469 52.597656 36.277344 52.707031 C 36.222656 52.792969 36.097656 52.921875 36.03125 53.050781 C 35.734375 53.605469 34.890625 55.011719 34.75 56.644531 C 34.71875 57.019531 34.710938 57.449219 34.6875 57.875 C 34.667969 58.226562 34.632812 58.574219 34.648438 58.929688 C 34.667969 59.398438 34.582031 59.855469 34.652344 60.300781 C 34.683594 60.488281 34.761719 60.671875 34.765625 60.839844 C 34.773438 61.054688 34.707031 61.25 34.71875 61.449219 C 34.730469 61.695312 34.753906 61.902344 34.746094 62.128906 C 34.738281 62.390625 34.683594 62.6875 34.648438 62.960938 C 34.613281 63.210938 34.550781 63.457031 34.523438 63.695312 C 34.511719 63.804688 34.523438 63.910156 34.515625 64.019531 C 34.46875 64.25 34.484375 64.351562 34.734375 64.421875 C 34.863281 64.457031 34.886719 64.46875 34.988281 64.378906 C 35.175781 64.210938 35.527344 63.382812 35.722656 62.199219 C 35.914062 61.019531 36.082031 60.015625 36.082031 60.015625 C 36.082031 60.015625 36.171875 58.96875 36.164062 58.675781 C 36.160156 58.382812 36.308594 58.414062 36.308594 58.414062 C 36.308594 58.414062 36.648438 58.347656 36.699219 58.472656 C 36.746094 58.597656 36.839844 58.699219 36.839844 58.699219 C 36.839844 58.699219 37.289062 58.789062 37.578125 58.640625 C 37.75 58.550781 37.722656 58.191406 37.757812 57.964844 C 37.796875 57.648438 37.738281 56.566406 37.808594 56.066406 C 37.847656 55.78125 37.960938 55.34375 38.152344 54.9375 C 38.292969 54.636719 38.503906 54.363281 38.636719 54.101562 C 38.949219 53.472656 39.0625 52.988281 39.253906 52.558594 C 39.421875 52.175781 39.59375 51.648438 40.035156 51.773438 C 40.035156 51.773438 40.445312 51.914062 40.5 52.074219 C 40.554688 52.230469 40.671875 52.558594 40.875 52.707031 C 41.074219 52.863281 41.707031 53.992188 42.132812 54.40625 C 42.5625 54.824219 46.300781 58.371094 47.242188 58.976562 C 48.1875 59.585938 48.757812 60.121094 48.96875 60.316406 C 49.179688 60.507812 51.210938 61.957031 51.304688 62.03125 C 51.398438 62.105469 55.050781 64.753906 55.429688 65.078125 C 55.808594 65.402344 56.839844 66.164062 56.976562 66.296875 C 57.0625 66.378906 57.863281 66.984375 58.003906 67.152344 C 58.164062 67.339844 58.140625 67.609375 58.058594 67.785156 C 57.84375 68.257812 57.699219 68.65625 57.691406 68.792969 C 57.6875 68.886719 57.394531 69.386719 57.230469 69.582031 C 57.132812 69.707031 56.964844 69.78125 56.8125 69.773438 C 56.617188 69.757812 56.40625 69.730469 56.164062 69.621094 C 56.027344 69.558594 55.792969 69.523438 55.519531 69.457031 C 55.164062 69.371094 54.726562 69.253906 54.148438 69.210938 C 52.867188 69.121094 52.324219 69.078125 52.148438 69.0625 C 52.0625 69.054688 52.046875 69.042969 51.976562 68.992188 C 51.8125 68.875 51.464844 68.660156 51.519531 68.566406 C 51.546875 68.511719 51.78125 68.207031 52.027344 67.890625 C 52.21875 67.644531 52.390625 67.378906 52.539062 67.261719 C 52.589844 67.222656 52.839844 67.203125 53.152344 67.148438 C 53.4375 67.101562 53.664062 67.011719 53.773438 66.847656 C 53.863281 66.714844 54.125 66.648438 54.179688 66.375 C 54.234375 66.109375 53.988281 66.066406 53.851562 65.960938 C 53.757812 65.886719 51.121094 63.480469 50.347656 62.914062 C 49.835938 62.535156 48.285156 61.457031 47.101562 60.566406 C 46.503906 60.113281 45.996094 59.710938 45.761719 59.46875 C 45.074219 58.75 43.679688 57.59375 43.421875 57.304688 C 43.164062 57.011719 41.519531 55.527344 41.1875 55.089844 C 40.859375 54.652344 40.628906 54.375 40.542969 54.246094 C 40.359375 53.964844 40.070312 53.871094 40.050781 54.09375 C 40.019531 54.375 39.871094 54.597656 39.691406 54.765625 C 39.40625 55.035156 39.035156 55.054688 38.90625 55.183594 C 38.648438 55.441406 38.308594 56.6875 38.324219 56.90625 C 38.332031 57.128906 38.605469 58.191406 38.488281 58.496094 C 38.375 58.800781 38.179688 59.410156 37.941406 59.558594 C 37.941406 59.558594 37.734375 59.550781 37.511719 59.527344 C 37.285156 59.503906 36.964844 59.558594 36.777344 59.804688 C 36.585938 60.054688 36.628906 60.9375 36.679688 61.1875 C 36.730469 61.4375 36.855469 61.625 36.855469 61.625 C 36.855469 61.625 37.34375 61.152344 37.503906 60.945312 C 38.308594 59.90625 38.210938 60.003906 39.367188 60.503906 C 39.367188 60.503906 39.816406 59.882812 39.902344 59.613281 C 39.988281 59.347656 40.324219 59.542969 40.324219 59.542969 C 40.324219 59.542969 40.554688 59.753906 40.609375 59.917969 C 40.664062 60.082031 40.929688 61.199219 40.949219 61.640625 C 40.972656 62.082031 41.179688 62.363281 41.351562 62.5 C 41.519531 62.632812 41.699219 62.675781 41.894531 62.464844 C 42.089844 62.25 42.175781 61.828125 42.9375 62.179688 C 42.9375 62.179688 43.371094 62.328125 43.371094 62.484375 C 43.375 62.636719 43.410156 63.179688 43.398438 63.351562 C 43.386719 63.527344 43.820312 65.320312 44.386719 66.277344 C 44.386719 66.277344 44.425781 66.734375 45.792969 67.367188 C 47.15625 67.996094 47.515625 68.242188 47.632812 68.398438 C 47.757812 68.554688 48.699219 68.945312 48.589844 70.65625 C 48.589844 70.65625 48.621094 71.4375 47.566406 71.351562 C 47.566406 71.351562 46.964844 71.34375 46.351562 70.835938 C 45.96875 70.523438 45.777344 70.363281 45.675781 70.296875 C 45.570312 70.230469 45.578125 70.265625 45.507812 70.371094 C 45.417969 70.507812 45.285156 70.746094 45.351562 70.882812 C 45.441406 71.074219 45.726562 71.414062 45.875 71.617188 C 46.019531 71.824219 46.234375 72.566406 46.167969 72.851562 C 46.125 73.027344 46.039062 73.132812 45.871094 73.175781 C 45.765625 73.203125 45.628906 73.210938 45.457031 73.183594 C 45.289062 73.152344 45.078125 73.175781 44.9375 73.128906 C 44.703125 73.046875 44.578125 72.855469 44.578125 72.589844 C 44.578125 72.589844 44.464844 72.109375 44.410156 71.550781 C 44.359375 70.996094 44.339844 70.585938 44.296875 70.402344 C 44.257812 70.21875 44.238281 69.929688 44.117188 69.777344 C 43.992188 69.617188 43.125 68.976562 42.953125 68.84375 C 42.953125 68.84375 42.6875 68.789062 42.589844 68.960938 C 42.492188 69.125 42.410156 69.304688 42.609375 69.519531 C 42.808594 69.734375 42.949219 69.90625 42.847656 70.039062 C 42.742188 70.171875 42.132812 70.644531 41.757812 70.382812 C 41.382812 70.121094 41.03125 69.789062 40.992188 69.335938 C 40.992188 69.335938 41.15625 68.609375 41.109375 67.933594 C 41.054688 67.253906 40.917969 66.84375 40.683594 66.632812 C 40.453125 66.425781 40.457031 66.335938 40.457031 66.335938 C 40.457031 66.335938 40.257812 66.910156 40.242188 67.320312 C 40.226562 67.734375 40.3125 68.410156 40.226562 68.675781 C 40.140625 68.945312 40.136719 69.183594 39.992188 69.253906 C 39.847656 69.320312 39.742188 69.453125 39.042969 69.460938 C 38.34375 69.464844 38.039062 69.777344 37.546875 69.667969 C 37.054688 69.5625 37.140625 69.292969 37.136719 69.015625 C 37.136719 68.742188 37.660156 68.023438 37.730469 67.625 C 37.800781 67.222656 38.050781 66.351562 38.125 65.742188 C 38.199219 65.136719 38.308594 64.09375 38.34375 63.816406 C 38.375 63.535156 38.265625 63.363281 38.265625 63.363281 L 37.488281 62.640625 C 37.488281 62.640625 37.269531 62.683594 36.957031 63.050781 C 36.648438 63.414062 36.488281 63.261719 35.972656 64.714844 C 35.972656 64.714844 35.738281 65.417969 35.457031 65.773438 C 35.175781 66.136719 35.097656 66.046875 34.949219 66.234375 C 34.800781 66.425781 34.527344 66.699219 34.34375 66.859375 C 34.160156 67.019531 32.988281 67.179688 32.894531 67.152344 C 32.804688 67.125 33.289062 66.53125 33.484375 66.132812 C 33.679688 65.730469 33.886719 65.316406 33.925781 65.113281 C 33.9375 65.042969 33.949219 64.964844 33.949219 64.867188 C 33.941406 64.742188 33.933594 64.644531 33.960938 64.542969 C 33.980469 64.457031 34 64.417969 34.058594 64.347656 C 34.101562 64.253906 34.15625 64.234375 34.199219 64.035156 Z M 28.734375 65.9375 C 28.855469 65.578125 29.082031 65.433594 29.25 64.90625 C 29.351562 64.589844 29.363281 64.359375 29.445312 64.027344 C 29.539062 63.636719 29.695312 63.277344 29.660156 62.945312 C 29.660156 62.945312 29.640625 62.753906 29.667969 62.492188 C 29.6875 62.289062 29.773438 62.042969 29.648438 61.804688 C 29.566406 61.644531 29.363281 61.570312 29.078125 61.433594 C 29.058594 61.425781 29.039062 61.414062 29.019531 61.40625 C 28.933594 61.367188 28.824219 61.375 28.753906 61.316406 C 28.453125 61.039062 27.914062 60.910156 27.722656 60.601562 C 27.589844 60.390625 27.648438 60.160156 27.765625 59.949219 C 27.832031 59.828125 27.832031 59.675781 28.082031 59.644531 C 28.269531 59.625 28.976562 59.707031 29.179688 59.664062 C 29.382812 59.625 29.710938 59.460938 29.863281 59.40625 C 30.019531 59.351562 30.660156 59.199219 30.941406 59.488281 C 31.019531 59.570312 31.273438 59.71875 31.394531 59.757812 C 31.511719 59.800781 31.539062 59.667969 31.601562 59.671875 C 31.730469 59.6875 32.015625 59.71875 32.199219 59.773438 C 32.382812 59.832031 32.71875 59.742188 32.753906 60.140625 C 32.777344 60.414062 32.515625 60.535156 32.570312 60.730469 C 32.597656 60.816406 32.703125 60.894531 32.777344 61.089844 C 32.890625 61.382812 33.121094 61.871094 33.042969 62.132812 C 32.949219 62.445312 32.515625 62.515625 32.40625 62.679688 C 32.207031 62.976562 32.265625 63.449219 32.246094 63.917969 C 32.226562 64.386719 32.085938 65.414062 32.167969 65.5625 C 32.253906 65.714844 32.214844 66.054688 32.175781 66.253906 C 32.140625 66.453125 31.921875 66.597656 31.621094 66.621094 C 31.402344 66.636719 31.007812 66.574219 30.679688 66.554688 C 30.546875 66.546875 30.414062 66.496094 30.324219 66.53125 C 30.003906 66.652344 29.574219 66.585938 29.398438 66.585938 C 29.285156 66.589844 29.019531 66.714844 28.863281 66.6875 C 28.644531 66.652344 28.648438 66.183594 28.734375 65.9375 Z M 28.734375 65.9375 "/>
<path style=" stroke:none;fill-rule:evenodd;fill:rgb(14.509804%,31.372549%,41.960784%);fill-opacity:1;" d="M 166.8125 35.625 C 166.8125 35.625 167.375 35.890625 167.503906 36.109375 C 167.589844 36.253906 168.042969 37.484375 168.128906 37.691406 C 168.214844 37.910156 168.6875 38.078125 168.9375 38.589844 C 169.113281 38.953125 169.109375 39.4375 169.207031 39.890625 C 169.289062 40.246094 169.472656 40.585938 169.535156 40.75 C 169.777344 41.382812 169.914062 43.128906 169.449219 43.335938 C 169.277344 43.417969 168.914062 43.207031 168.652344 43.253906 C 168.226562 43.332031 167.613281 43.398438 167.304688 43.425781 C 166.796875 43.46875 166.488281 43.808594 166.082031 43.710938 C 165.679688 43.609375 165.515625 43.464844 165.585938 43.042969 C 165.65625 42.628906 166.378906 40.777344 166.46875 39.882812 C 166.65625 37.976562 166.863281 36.460938 166.8125 35.625 Z M 153.410156 27.816406 C 153.683594 27.960938 154.007812 28.335938 154.398438 28.398438 C 154.789062 28.464844 157.976562 29.015625 159.398438 28.933594 C 160.824219 28.855469 161.335938 28.917969 161.671875 28.855469 C 162.015625 28.792969 162.785156 28.9375 163.296875 28.238281 C 163.804688 27.539062 164.847656 26.023438 165.179688 25.332031 C 165.511719 24.640625 165.886719 23.621094 166.019531 23.226562 C 166.15625 22.835938 166.296875 22.027344 166.078125 21.410156 C 166.078125 21.410156 166.011719 20.753906 166.296875 20.496094 C 166.585938 20.238281 167.125 20.195312 167.257812 20.042969 C 167.332031 19.964844 167.449219 19.921875 167.570312 19.933594 C 167.644531 19.941406 167.738281 20 167.765625 20.019531 C 167.824219 20.054688 167.859375 20.132812 167.871094 20.160156 C 167.9375 20.316406 168.238281 21.035156 168.507812 21.5 C 168.804688 22.011719 169.601562 23.390625 169.675781 23.699219 C 169.75 24.007812 169.835938 24.527344 169.53125 24.988281 C 169.53125 24.988281 169.207031 25.335938 169.023438 25.601562 C 168.835938 25.871094 168.941406 26.367188 168.617188 26.46875 C 168.296875 26.574219 167.585938 26.996094 167.375 27.324219 C 167.164062 27.652344 167 28.027344 166.941406 28.246094 C 166.878906 28.464844 166.828125 28.753906 166.828125 28.753906 C 166.828125 28.753906 167.003906 28.828125 167.300781 28.785156 C 167.597656 28.742188 168.199219 28.792969 168.507812 28.71875 C 168.664062 28.679688 169.175781 28.726562 169.632812 28.613281 C 169.90625 28.546875 170.09375 28.320312 170.351562 28.265625 C 170.527344 28.226562 170.710938 28.269531 170.839844 28.234375 C 171.015625 28.1875 171.179688 28.1875 171.289062 28.148438 C 171.429688 28.101562 171.496094 28.019531 171.582031 27.949219 C 171.734375 27.835938 171.726562 27.671875 171.699219 27.519531 C 171.683594 27.429688 171.65625 27.320312 171.605469 27.210938 C 171.5625 27.117188 171.542969 26.980469 171.484375 26.859375 C 171.460938 26.816406 171.453125 26.789062 171.46875 26.757812 L 171.5 26.691406 C 171.527344 26.648438 171.582031 26.644531 171.621094 26.675781 C 171.730469 26.761719 172.070312 27.03125 172.191406 27.234375 C 172.332031 27.476562 172.789062 28.0625 172.863281 28.320312 C 172.933594 28.578125 172.773438 28.757812 172.589844 28.78125 C 172.460938 28.800781 171.941406 28.839844 171.433594 28.921875 C 171.222656 28.953125 170.96875 28.972656 170.84375 29.03125 C 170.613281 29.132812 170.257812 29.214844 169.921875 29.449219 C 169.628906 29.65625 169.421875 29.980469 169.09375 30.0625 C 168.394531 30.246094 167.335938 30.230469 167 30.363281 C 166.664062 30.496094 166.007812 30.730469 165.636719 31.023438 C 165.269531 31.316406 165.058594 31.714844 164.832031 31.753906 C 164.605469 31.796875 164.03125 32.242188 163.839844 32.367188 C 163.648438 32.492188 163.203125 33.273438 162.8125 33.695312 C 162.421875 34.117188 161.859375 35.019531 161.757812 35.253906 C 161.65625 35.488281 161.308594 35.886719 161.023438 36.21875 C 160.742188 36.550781 160.183594 37.039062 159.230469 37.074219 C 159.230469 37.074219 158.488281 37.070312 158.054688 37.1875 C 157.621094 37.316406 157.179688 37.410156 156.828125 37.496094 C 156.476562 37.589844 155.800781 37.785156 154.234375 37.316406 C 152.664062 36.84375 152.355469 36.675781 151.5 36.480469 C 150.753906 36.308594 149.417969 35.964844 149.09375 35.878906 C 148.964844 35.847656 149.105469 35.535156 149.292969 35.574219 C 149.433594 35.601562 149.714844 35.652344 150.039062 35.671875 C 150.511719 35.707031 151.824219 35.402344 152.886719 35.269531 C 153.953125 35.140625 155.128906 34.988281 155.855469 34.679688 C 156.582031 34.367188 158.417969 33.980469 159.085938 33.640625 C 159.753906 33.304688 160.746094 32.136719 160.871094 31.84375 C 160.871094 31.84375 160.859375 31.386719 160.460938 31.425781 C 160.0625 31.460938 158.449219 31.734375 157.921875 31.753906 C 157.394531 31.769531 157.046875 31.6875 156.101562 31.867188 C 155.152344 32.050781 154.511719 32.328125 154.03125 31.914062 C 153.554688 31.496094 153.324219 30.984375 152.96875 30.273438 C 152.773438 29.882812 152.453125 29.164062 152.394531 28.601562 C 152.375 28.425781 152.496094 28.320312 152.660156 28.179688 C 152.820312 28.042969 153.140625 27.671875 153.410156 27.816406 Z M 153.410156 27.816406 "/>
</g>
</svg>
