<?xml version="1.0" encoding="UTF-8" standalone="no"?>
<!-- Generator: Adobe Illustrator 24.0.1, SVG Export Plug-In . SVG Version: 6.00 Build 0)  -->

<svg
   version="1.1"
   id="校标设计说明"
   x="0px"
   y="0px"
   viewBox="0 0 200 200"
   xml:space="preserve"
   sodipodi:docname="06校徽设计说明.svg"
   width="200"
   height="200"
   inkscape:version="1.2 (dc2aedaf03, 2022-05-15)"
   xmlns:inkscape="http://www.inkscape.org/namespaces/inkscape"
   xmlns:sodipodi="http://sodipodi.sourceforge.net/DTD/sodipodi-0.dtd"
   xmlns="http://www.w3.org/2000/svg"
   xmlns:svg="http://www.w3.org/2000/svg"><defs
   id="defs6575" /><sodipodi:namedview
   id="namedview6573"
   pagecolor="#ffffff"
   bordercolor="#000000"
   borderopacity="0.25"
   inkscape:showpageshadow="2"
   inkscape:pageopacity="0.0"
   inkscape:pagecheckerboard="0"
   inkscape:deskcolor="#d1d1d1"
   showgrid="false"
   inkscape:zoom="13.220123"
   inkscape:cx="115.58137"
   inkscape:cy="182.37349"
   inkscape:window-width="1440"
   inkscape:window-height="829"
   inkscape:window-x="-8"
   inkscape:window-y="-8"
   inkscape:window-maximized="1"
   inkscape:current-layer="校标设计说明" />
<style
   type="text/css"
   id="style6230">
	.st0{fill:#FFFFFF;}
	.st1{fill:url(#SVGID_1_);enable-background:new    ;}
	.st2{fill:url(#SVGID_2_);enable-background:new    ;}
	.st3{fill:url(#SVGID_3_);enable-background:new    ;}
	.st4{fill:url(#SVGID_4_);enable-background:new    ;}
	.st5{fill:url(#SVGID_5_);enable-background:new    ;}
	.st6{fill:url(#SVGID_6_);enable-background:new    ;}
	.st7{fill:url(#SVGID_7_);enable-background:new    ;}
	.st8{fill:url(#SVGID_8_);enable-background:new    ;}
	.st9{fill:url(#SVGID_9_);enable-background:new    ;}
	.st10{fill:url(#SVGID_10_);enable-background:new    ;}
	.st11{fill:url(#SVGID_11_);enable-background:new    ;}
	.st12{fill:url(#SVGID_12_);enable-background:new    ;}
	.st13{fill:url(#SVGID_13_);enable-background:new    ;}
	.st14{fill:url(#SVGID_14_);enable-background:new    ;}
	.st15{fill:url(#SVGID_15_);enable-background:new    ;}
	.st16{fill:url(#SVGID_16_);enable-background:new    ;}
	.st17{fill:url(#SVGID_17_);enable-background:new    ;}
	.st18{fill:url(#SVGID_18_);enable-background:new    ;}
	.st19{fill:url(#SVGID_19_);enable-background:new    ;}
	.st20{fill:url(#SVGID_20_);enable-background:new    ;}
	.st21{fill:#004098;}
	.st22{enable-background:new    ;}
	.st23{fill:#00A73C;}
</style>
<g
   id="g6570"
   transform="matrix(1.8744057,0,0,1.8744057,-378.1426,-391.26344)"
   style="stroke-width:0.533502">
	<path
   class="st0"
   d="m 235.06,275.01 c -0.24,-0.04 -0.32,-0.23 -0.47,-0.39 0,-0.48 0.28,-0.98 0.75,-1.22 0.07,0.5 -0.16,1.1 -0.28,1.61 z"
   id="path6232"
   style="stroke-width:0.533502" />
	<path
   class="st0"
   d="m 274.65,274.13 c -0.04,0.22 -0.3,0.33 -0.46,0.52 -0.07,-0.49 -0.15,-1.12 -0.26,-1.54 0.42,0.12 0.75,0.5 0.72,1.02 z"
   id="path6234"
   style="stroke-width:0.533502" />
	<g
   id="g6346"
   style="stroke-width:0.533502">
		<g
   id="g6245"
   style="stroke-width:0.533502">
			<linearGradient
   id="SVGID_1_"
   gradientUnits="userSpaceOnUse"
   x1="242.524"
   y1="240.8443"
   x2="239.8685"
   y2="290.5191">
				<stop
   offset="0"
   style="stop-color:#EDDC44"
   id="stop6236" />
				<stop
   offset="1"
   style="stop-color:#876247"
   id="stop6238" />
			</linearGradient>
			<path
   class="st1"
   d="m 235.75,246.83 c 0,0 -0.85,-8.14 9.88,-10.99 0,0 1.62,0.11 -1.16,1.22 0,0 -3.14,0.58 -4.24,6.6 0,0 0.39,-4.19 5.31,-4.22 0,0 3.1,-0.8 3.59,-0.67 0,0 -2.44,1.86 -2.78,2.65 0,0 -1.15,2.16 -3.32,2.93 0,0 4.11,0.32 5.81,-0.85 0,0 -5.37,5.2 -12.3,5.52 z"
   id="path6241"
   style="fill:url(#SVGID_1_);stroke-width:0.533502" />
			<path
   d="m 245.59,235.67 c -10.75,2.85 -10.02,11.09 -10,11.17 v 0.02 l 0.84,2.33 0.13,-0.01 c 6.92,-0.31 12.36,-5.51 12.42,-5.56 l -0.22,-0.28 c -1.2,0.82 -3.71,0.88 -4.96,0.85 1.76,-0.92 2.68,-2.62 2.73,-2.7 0.27,-0.62 2.07,-2.08 2.73,-2.59 l 0.29,-0.22 -0.35,-0.09 c -0.52,-0.14 -3.16,0.54 -3.68,0.67 -2.34,0.01 -3.68,0.96 -4.44,1.98 1.31,-3.55 3.43,-4.01 3.45,-4.02 1.5,-0.6 1.77,-0.91 1.77,-1.15 0,-0.02 0,-0.04 -0.01,-0.05 -0.05,-0.3 -0.49,-0.35 -0.63,-0.36 h -0.03 z m -9.67,10.79 c 0,-1.57 0.59,-7.98 9.73,-10.43 0.13,0.01 0.26,0.05 0.28,0.08 -0.01,-0.01 -0.12,0.23 -1.52,0.79 -0.1,0.02 -3.01,0.64 -4.22,6.12 -0.1,0.37 -0.13,0.62 -0.13,0.63 l 0.35,0.05 c 0.05,-0.26 0.1,-0.5 0.16,-0.74 0.35,-1.17 1.48,-3.32 4.99,-3.34 0.93,-0.24 2.31,-0.55 3.06,-0.65 -0.73,0.58 -2.15,1.77 -2.42,2.39 0,0.01 -1.13,2.1 -3.21,2.83 l 0.04,0.34 c 0.14,0.01 2.87,0.21 4.8,-0.37 -1.79,1.44 -6.05,4.4 -11.16,4.68 -0.08,-0.22 -0.71,-2 -0.72,-2.04 -0.02,-0.04 -0.03,-0.15 -0.03,-0.34 z"
   id="path6243"
   style="stroke-width:0.533502" />
		</g>
		<g
   id="g6256"
   style="stroke-width:0.533502">
			<linearGradient
   id="SVGID_2_"
   gradientUnits="userSpaceOnUse"
   x1="241.0728"
   y1="240.64349"
   x2="238.3848"
   y2="290.9259">
				<stop
   offset="0"
   style="stop-color:#EDDC44"
   id="stop6247" />
				<stop
   offset="1"
   style="stop-color:#876247"
   id="stop6249" />
			</linearGradient>
			<path
   class="st2"
   d="m 230.01,275.82 c 0,0 1.45,4.93 7.36,3.35 0,0 1.52,3.23 5.61,4.23 l 2.48,0.61 2.33,-0.84 0.15,-0.35 0.08,-0.15 c 0,0 -3.4,-0.19 -4.85,-0.69 0,0 -4.65,-2.69 -6.94,-4.81 0,0 -1.64,-2.31 -6.22,-1.42 z"
   id="path6252"
   style="fill:url(#SVGID_2_);stroke-width:0.533502" />
			<path
   d="m 229.97,275.57 -0.15,0.03 v 0.25 l 0.01,0.02 c 0.02,0.05 1.55,4.98 7.44,3.49 0.29,0.56 1.89,3.28 5.66,4.21 l 2.53,0.63 2.45,-0.89 0.18,-0.41 0.19,-0.39 -0.27,-0.01 c -0.04,0 -3.39,-0.2 -4.8,-0.68 -0.02,-0.01 -4.63,-2.7 -6.88,-4.78 -0.03,-0.07 -1.72,-2.36 -6.36,-1.47 z m 6.12,1.7 c 2.3,2.13 6.95,4.83 7,4.86 1.27,0.44 3.84,0.65 4.66,0.7 -0.03,0.08 -0.06,0.14 -0.09,0.2 -0.13,0.05 -2.11,0.77 -2.2,0.8 -0.1,-0.03 -2.43,-0.61 -2.43,-0.61 -3.95,-0.97 -5.48,-4.1 -5.49,-4.14 l -0.06,-0.13 -0.14,0.03 c -5.31,1.42 -6.89,-2.44 -7.11,-3.11 4.25,-0.73 5.84,1.38 5.86,1.4 z"
   id="path6254"
   style="stroke-width:0.533502" />
		</g>
		<g
   id="g6267"
   style="stroke-width:0.533502">
			<linearGradient
   id="SVGID_3_"
   gradientUnits="userSpaceOnUse"
   x1="238.2079"
   y1="240.51939"
   x2="235.52209"
   y2="290.76129">
				<stop
   offset="0"
   style="stop-color:#EDDC44"
   id="stop6258" />
				<stop
   offset="1"
   style="stop-color:#876247"
   id="stop6260" />
			</linearGradient>
			<path
   class="st3"
   d="m 235.99,241.19 c 0,0 1.45,0.77 1,6.5 0,0 4.24,-0.31 5.41,0.65 0,0 -1.33,3.67 -8.27,2.28 0,0.01 -2.87,-5.58 1.86,-9.43 z"
   id="path6263"
   style="fill:url(#SVGID_3_);stroke-width:0.533502" />
			<path
   d="m 235.89,241.05 c -4.79,3.89 -1.94,9.6 -1.91,9.66 l 0.03,0.08 0.09,0.02 c 7.01,1.39 8.41,-2.24 8.47,-2.39 l 0.05,-0.12 -0.1,-0.08 c -1.09,-0.89 -4.49,-0.75 -5.34,-0.71 0.05,-0.69 0.07,-1.32 0.07,-1.87 0,-3.93 -1.12,-4.57 -1.17,-4.6 l -0.1,-0.05 z m -2.46,5.75 c 0,-1.7 0.57,-3.69 2.57,-5.38 0.24,0.24 0.91,1.17 0.91,4.2 0,0.59 -0.03,1.28 -0.09,2.05 l -0.02,0.2 0.2,-0.02 c 0.04,0 3.93,-0.27 5.18,0.55 -0.31,0.61 -2.04,3.2 -7.93,2.05 -0.16,-0.33 -0.82,-1.8 -0.82,-3.65 z"
   id="path6265"
   style="stroke-width:0.533502" />
		</g>
		<g
   id="g6278"
   style="stroke-width:0.533502">
			<linearGradient
   id="SVGID_4_"
   gradientUnits="userSpaceOnUse"
   x1="235.77229"
   y1="240.3882"
   x2="233.0865"
   y2="290.62939">
				<stop
   offset="0"
   style="stop-color:#EDDC44"
   id="stop6269" />
				<stop
   offset="1"
   style="stop-color:#876247"
   id="stop6271" />
			</linearGradient>
			<path
   class="st4"
   d="m 232.75,244.96 c 0,0 1.64,4 1.49,5.5 0,0 3.9,-0.5 5.92,0.77 0,0 -2.08,3.38 -8.22,3.46 0,0 -4.14,-5.75 0.81,-9.73 z"
   id="path6274"
   style="fill:url(#SVGID_4_);stroke-width:0.533502" />
			<path
   d="m 232.64,244.83 c -5.03,4.03 -0.9,9.91 -0.85,9.97 l 0.05,0.07 h 0.09 c 6.17,-0.08 8.28,-3.4 8.37,-3.54 l 0.1,-0.15 -0.15,-0.09 c -1.81,-1.14 -4.99,-0.91 -5.82,-0.82 0,0 0,-0.01 0,-0.01 0,-1.65 -1.44,-5.2 -1.51,-5.36 l -0.09,-0.22 z m -2.16,4.97 c 0,-1.49 0.54,-3.12 2.2,-4.54 0.32,0.8 1.4,3.63 1.4,4.98 0,0.07 -0.01,0.14 -0.01,0.2 l -0.02,0.22 0.22,-0.03 c 0.04,-0.01 3.64,-0.44 5.63,0.66 -0.51,0.66 -2.74,3.11 -7.87,3.21 -0.26,-0.36 -1.55,-2.35 -1.55,-4.7 z"
   id="path6276"
   style="stroke-width:0.533502" />
		</g>
		<g
   id="g6289"
   style="stroke-width:0.533502">
			<linearGradient
   id="SVGID_5_"
   gradientUnits="userSpaceOnUse"
   x1="233.9622"
   y1="240.2856"
   x2="231.276"
   y2="290.53448">
				<stop
   offset="0"
   style="stop-color:#EDDC44"
   id="stop6280" />
				<stop
   offset="1"
   style="stop-color:#876247"
   id="stop6282" />
			</linearGradient>
			<path
   class="st5"
   d="m 230.2,249.5 c 0,0 0.61,4.16 1.87,4.97 0,0 3.55,0 5.8,-1.11 0,0 0.53,2.23 -6.37,5.62 0,0 -4.7,-2.96 -2.02,-9.04 -0.01,-0.02 0.3,-0.98 0.72,-0.44 z"
   id="path6285"
   style="fill:url(#SVGID_5_);stroke-width:0.533502" />
			<path
   d="m 229.87,249.17 c -0.35,0.06 -0.53,0.6 -0.57,0.7 -2.7,6.13 2.05,9.22 2.09,9.25 l 0.08,0.05 0.09,-0.04 c 6.95,-3.41 6.48,-5.72 6.46,-5.82 l -0.05,-0.22 -0.2,0.1 c -2.08,1.03 -5.31,1.09 -5.66,1.1 -0.96,-0.68 -1.59,-3.69 -1.76,-4.81 l -0.01,-0.05 -0.02,-0.04 c -0.16,-0.22 -0.33,-0.24 -0.45,-0.22 z m -1.05,4.36 c 0,-1.02 0.22,-2.2 0.81,-3.54 0.07,-0.22 0.21,-0.46 0.3,-0.48 0.02,0 0.06,0.03 0.1,0.08 0.06,0.41 0.67,4.21 1.93,5.02 l 0.04,0.03 h 0.06 c 0.14,0 3.36,-0.02 5.61,-1.03 -0.09,0.63 -0.85,2.53 -6.18,5.15 -0.39,-0.27 -2.67,-1.96 -2.67,-5.23 z"
   id="path6287"
   style="stroke-width:0.533502" />
		</g>
		<g
   id="g6300"
   style="stroke-width:0.533502">
			<linearGradient
   id="SVGID_6_"
   gradientUnits="userSpaceOnUse"
   x1="232.85159"
   y1="240.2245"
   x2="230.16499"
   y2="290.4805">
				<stop
   offset="0"
   style="stop-color:#EDDC44"
   id="stop6291" />
				<stop
   offset="1"
   style="stop-color:#876247"
   id="stop6293" />
			</linearGradient>
			<path
   class="st6"
   d="m 236.72,256.04 c 0,0 -3.41,0.93 -5.28,3 0,0 -0.68,-3.04 -3.3,-4.39 0,0 -4.08,3.4 3.2,9.36 0,0 6.64,-3.08 5.38,-7.97 z"
   id="path6296"
   style="fill:url(#SVGID_6_);stroke-width:0.533502" />
			<path
   d="m 228.02,254.52 c -0.05,0.04 -1.21,1.03 -1.2,2.88 0.01,2.09 1.49,4.37 4.41,6.76 l 0.09,0.07 0.1,-0.04 c 0.06,-0.03 6.76,-3.21 5.48,-8.18 l -0.04,-0.17 -0.17,0.05 c -0.14,0.03 -3.24,0.9 -5.15,2.84 -0.24,-0.79 -1.08,-3.07 -3.31,-4.22 l -0.1,-0.06 z m -0.85,2.88 c 0,-0.01 0,-0.02 0,-0.02 0,-1.39 0.74,-2.25 0.99,-2.5 2.42,1.33 3.1,4.18 3.11,4.2 l 0.07,0.33 0.23,-0.25 c 1.57,-1.74 4.28,-2.67 5.01,-2.89 0.08,0.34 0.13,0.67 0.13,0.99 0,3.72 -4.62,6.18 -5.33,6.54 -2.79,-2.28 -4.2,-4.44 -4.21,-6.4 z"
   id="path6298"
   style="stroke-width:0.533502" />
		</g>
		<g
   id="g6311"
   style="stroke-width:0.533502">
			<linearGradient
   id="SVGID_7_"
   gradientUnits="userSpaceOnUse"
   x1="232.8103"
   y1="240.23"
   x2="230.1246"
   y2="290.46979">
				<stop
   offset="0"
   style="stop-color:#EDDC44"
   id="stop6302" />
				<stop
   offset="1"
   style="stop-color:#876247"
   id="stop6304" />
			</linearGradient>
			<path
   class="st7"
   d="m 236.03,259.7 c 0,0 -2.37,1.62 -4.58,4.27 0,0 -3.32,-4.54 -4.16,-4.23 0,0 -2.67,6.12 4.42,8.85 0.01,0 6.5,-3.73 4.32,-8.89 z"
   id="path6307"
   style="fill:url(#SVGID_7_);stroke-width:0.533502" />
			<path
   d="m 235.93,259.55 c -0.02,0.01 -2.3,1.59 -4.47,4.14 -0.91,-1.23 -3.37,-4.43 -4.23,-4.12 l -0.07,0.03 -0.03,0.07 c -0.05,0.1 -1.1,2.57 -0.04,5.11 0.72,1.75 2.26,3.08 4.57,3.97 l 0.08,0.03 0.07,-0.04 c 0.07,-0.04 6.6,-3.87 4.39,-9.11 l -0.09,-0.2 z m -8.51,5.1 c -0.32,-0.79 -0.43,-1.57 -0.43,-2.28 0,-1.23 0.33,-2.19 0.44,-2.48 0.54,0.03 2.4,2.13 3.9,4.18 l 0.13,0.18 0.14,-0.17 c 1.83,-2.19 3.76,-3.67 4.35,-4.1 0.24,0.62 0.36,1.24 0.36,1.82 0,3.63 -4,6.22 -4.59,6.58 -2.18,-0.84 -3.62,-2.09 -4.3,-3.73 z"
   id="path6309"
   style="stroke-width:0.533502" />
		</g>
		<g
   id="g6322"
   style="stroke-width:0.533502">
			<linearGradient
   id="SVGID_8_"
   gradientUnits="userSpaceOnUse"
   x1="232.9136"
   y1="240.2254"
   x2="230.2267"
   y2="290.487">
				<stop
   offset="0"
   style="stop-color:#EDDC44"
   id="stop6313" />
				<stop
   offset="1"
   style="stop-color:#876247"
   id="stop6315" />
			</linearGradient>
			<path
   class="st8"
   d="m 235.27,264.82 c 0,0 -2.52,2 -3.44,3.77 0,0 -2.9,-3.07 -5.18,-2.76 0,0 0.38,5.04 5.42,6.16 l 1.67,1.56 c 0,-0.01 4.58,-4.42 1.53,-8.73 z"
   id="path6318"
   style="fill:url(#SVGID_8_);stroke-width:0.533502" />
			<path
   d="m 235.16,264.68 c -0.1,0.08 -2.36,1.89 -3.36,3.62 -0.65,-0.64 -3.11,-2.94 -5.18,-2.66 l -0.16,0.02 0.01,0.17 c 0,0.05 0.45,5.15 5.51,6.3 0.06,0.05 1.76,1.64 1.76,1.64 l 0.12,-0.12 c 0.05,-0.04 4.66,-4.56 1.55,-8.95 l -0.1,-0.15 z m -3.17,3.98 c 0.76,-1.48 2.69,-3.13 3.23,-3.58 0.65,0.98 0.91,1.96 0.91,2.89 0,2.6 -1.91,4.79 -2.4,5.31 -0.21,-0.2 -1.58,-1.48 -1.58,-1.48 l -0.05,-0.01 c -4.34,-0.96 -5.14,-4.95 -5.26,-5.82 2.15,-0.12 4.84,2.69 4.86,2.72 l 0.17,0.18 z"
   id="path6320"
   style="stroke-width:0.533502" />
		</g>
		<g
   id="g6333"
   style="stroke-width:0.533502">
			<linearGradient
   id="SVGID_9_"
   gradientUnits="userSpaceOnUse"
   x1="234.2673"
   y1="240.30119"
   x2="231.5808"
   y2="290.5549">
				<stop
   offset="0"
   style="stop-color:#EDDC44"
   id="stop6324" />
				<stop
   offset="1"
   style="stop-color:#876247"
   id="stop6326" />
			</linearGradient>
			<path
   class="st9"
   d="m 236.11,267.97 c 0,0 -2.21,2.93 -2.37,5.28 0,0 -2.86,-2.5 -5.68,-3.16 0,0 0.04,6.31 7.4,5.66 0,0 3.51,-4.51 0.65,-7.78 z"
   id="path6329"
   style="fill:url(#SVGID_9_);stroke-width:0.533502" />
			<path
   d="m 235.97,267.87 c -0.09,0.12 -2.04,2.74 -2.36,5.04 -0.73,-0.6 -3.11,-2.43 -5.51,-2.99 l -0.22,-0.05 v 0.23 c 0,0.1 0.04,2.59 1.92,4.31 1.33,1.23 3.24,1.74 5.68,1.52 h 0.08 l 0.05,-0.06 c 0.04,-0.05 3.57,-4.66 0.64,-8 l -0.14,-0.16 z m -2.05,5.39 c 0.13,-1.94 1.72,-4.32 2.2,-4.98 0.68,0.85 0.94,1.79 0.94,2.7 0,2.24 -1.45,4.29 -1.68,4.6 -2.3,0.19 -4.1,-0.29 -5.33,-1.43 -1.45,-1.32 -1.73,-3.17 -1.79,-3.81 2.67,0.72 5.35,3.03 5.37,3.04 l 0.27,0.24 z"
   id="path6331"
   style="stroke-width:0.533502" />
		</g>
		<g
   id="g6344"
   style="stroke-width:0.533502">
			<linearGradient
   id="SVGID_10_"
   gradientUnits="userSpaceOnUse"
   x1="252.27119"
   y1="240.0504"
   x2="249.481"
   y2="292.24521">
				<stop
   offset="0"
   style="stop-color:#EDDC44"
   id="stop6335" />
				<stop
   offset="1"
   style="stop-color:#876247"
   id="stop6337" />
			</linearGradient>
			<path
   class="st10"
   d="m 237.45,271.9 c 0,0 3.44,0.58 2.9,8.4 0,0 -1.34,5.38 3.81,3.76 0,0 4.01,-4.08 9.16,-0.42 0,0 8.41,4.11 9.63,4.58 0,0 1.17,2.01 -1.71,1.34 0,0 -6.27,-3.08 -7.41,-3.96 0,0 -4.04,-2.31 -9.53,0.54 0,0 -6.54,0.64 -7.41,-4.81 -0.72,-4.39 0.82,-7.81 0.56,-9.43 z"
   id="path6340"
   style="fill:url(#SVGID_10_);stroke-width:0.533502" />
			<path
   d="m 237.27,271.93 c 0.1,0.58 -0.06,1.44 -0.25,2.52 -0.32,1.76 -0.75,4.16 -0.32,6.91 0.89,5.55 7.53,4.96 7.6,4.95 h 0.03 l 0.03,-0.01 c 5.33,-2.77 9.33,-0.57 9.36,-0.54 1.12,0.87 7.25,3.85 7.41,3.95 l 0.03,0.02 h 0.03 c 1.06,0.25 1.72,0.17 2.01,-0.23 0.38,-0.52 -0.09,-1.34 -0.11,-1.38 l -0.03,-0.05 -0.06,-0.03 c -1.19,-0.45 -9.54,-4.53 -9.6,-4.56 -5.03,-3.57 -9.04,0.13 -9.33,0.42 -1.42,0.44 -2.45,0.37 -3.05,-0.2 -1.07,-1.02 -0.52,-3.34 -0.51,-3.37 0.55,-7.91 -2.89,-8.58 -3.04,-8.61 l -0.24,-0.04 z m -0.23,9.37 c -0.12,-0.81 -0.17,-1.58 -0.17,-2.33 0,-1.73 0.27,-3.25 0.5,-4.46 0.15,-0.86 0.28,-1.59 0.28,-2.18 0,-0.07 -0.01,-0.12 -0.01,-0.18 0.66,0.28 2.59,1.51 2.59,6.57 0,0.48 -0.01,1 -0.06,1.55 -0.01,0.04 -0.16,0.65 -0.16,1.4 0,0.77 0.16,1.69 0.77,2.27 0.71,0.67 1.87,0.77 3.43,0.28 l 0.04,-0.01 0.03,-0.03 c 0.16,-0.16 3.97,-3.93 8.93,-0.41 0.25,0.15 8.26,4.02 9.59,4.56 0.08,0.14 0.2,0.41 0.2,0.65 0,0.11 -0.02,0.2 -0.08,0.29 -0.19,0.26 -0.77,0.3 -1.63,0.11 -0.18,-0.11 -6.27,-3.08 -7.37,-3.93 -0.06,-0.04 -4.19,-2.33 -9.68,0.5 -0.39,0.05 -6.37,0.52 -7.2,-4.65 z"
   id="path6342"
   style="stroke-width:0.533502" />
		</g>
	</g>
	<g
   id="g6458"
   style="stroke-width:0.533502">
		<g
   id="g6357"
   style="stroke-width:0.533502">
			<linearGradient
   id="SVGID_11_"
   gradientUnits="userSpaceOnUse"
   x1="268.1868"
   y1="253.0782"
   x2="265.5296"
   y2="302.78381">
				<stop
   offset="0"
   style="stop-color:#EDDC44"
   id="stop6348" />
				<stop
   offset="1"
   style="stop-color:#876247"
   id="stop6350" />
			</linearGradient>
			<path
   class="st11"
   d="m 275.43,246.83 c 0,0 0.85,-8.14 -9.88,-10.99 0,0 -1.61,0.11 1.16,1.22 0,0 3.15,0.58 4.24,6.6 0,0 -0.39,-4.19 -5.31,-4.22 0,0 -3.1,-0.8 -3.6,-0.67 0,0 2.44,1.86 2.78,2.65 0,0 1.15,2.16 3.32,2.93 0,0 -4.11,0.32 -5.81,-0.85 0,0 5.37,5.2 12.3,5.52 z"
   id="path6353"
   style="fill:url(#SVGID_11_);stroke-width:0.533502" />
			<path
   d="m 265.54,235.67 c -0.14,0.01 -0.58,0.06 -0.63,0.36 0,0.02 0,0.04 0,0.06 0,0.23 0.26,0.55 1.74,1.14 0.05,0.02 2.16,0.48 3.48,4.04 -0.77,-1.02 -2.12,-1.99 -4.48,-2.01 -0.49,-0.13 -3.13,-0.8 -3.64,-0.67 l -0.35,0.09 0.28,0.22 c 0.68,0.51 2.47,1.97 2.73,2.58 0.05,0.09 0.98,1.79 2.73,2.71 -1.25,0.03 -3.76,-0.03 -4.96,-0.85 l -0.22,0.28 c 0.05,0.05 5.49,5.25 12.41,5.56 l 0.13,0.01 0.83,-2.33 v -0.02 c 0.01,-0.08 0.74,-8.32 -10.01,-11.17 l -0.03,-0.01 h -0.01 z m -0.01,0.35 c 9.15,2.44 9.73,8.86 9.73,10.43 0,0.2 -0.01,0.31 -0.01,0.34 -0.01,0.04 -0.65,1.82 -0.74,2.04 -5.1,-0.28 -9.37,-3.24 -11.15,-4.68 1.93,0.58 4.66,0.38 4.8,0.37 l 0.05,-0.34 c -2.08,-0.74 -3.21,-2.83 -3.23,-2.85 -0.27,-0.62 -1.68,-1.79 -2.41,-2.38 0.75,0.1 2.12,0.42 3.02,0.65 3.54,0.02 4.67,2.19 5.02,3.35 0.06,0.24 0.11,0.48 0.16,0.73 l 0.35,-0.05 c 0,-0.01 -0.03,-0.26 -0.13,-0.62 -1.2,-5.49 -4.13,-6.12 -4.25,-6.14 -1.38,-0.55 -1.48,-0.79 -1.49,-0.81 0.03,0.01 0.16,-0.02 0.28,-0.04 z"
   id="path6355"
   style="stroke-width:0.533502" />
		</g>
		<g
   id="g6368"
   style="stroke-width:0.533502">
			<linearGradient
   id="SVGID_12_"
   gradientUnits="userSpaceOnUse"
   x1="273.55829"
   y1="253.2905"
   x2="270.87411"
   y2="303.50101">
				<stop
   offset="0"
   style="stop-color:#EDDC44"
   id="stop6359" />
				<stop
   offset="1"
   style="stop-color:#876247"
   id="stop6361" />
			</linearGradient>
			<path
   class="st12"
   d="m 281.18,275.82 c 0,0 -1.45,4.93 -7.37,3.35 0,0 -1.53,3.23 -5.61,4.23 l -2.48,0.61 -2.33,-0.84 -0.15,-0.35 -0.08,-0.15 c 0,0 3.39,-0.19 4.85,-0.69 0,0 4.66,-2.69 6.95,-4.81 0,0 1.64,-2.31 6.22,-1.42 z"
   id="path6364"
   style="fill:url(#SVGID_12_);stroke-width:0.533502" />
			<path
   d="m 274.81,277.07 c -2.23,2.05 -6.84,4.73 -6.89,4.76 -1.38,0.47 -4.73,0.67 -4.77,0.67 l -0.26,0.01 0.19,0.39 0.18,0.41 2.44,0.89 2.53,-0.63 c 3.78,-0.92 5.37,-3.65 5.67,-4.21 5.88,1.49 7.42,-3.44 7.44,-3.49 l 0.01,-0.02 v -0.25 l -0.15,-0.03 c -4.62,-0.89 -6.32,1.4 -6.39,1.5 z m -6.74,5.08 c 0.08,-0.04 4.73,-2.74 7.01,-4.85 0.04,-0.05 1.63,-2.17 5.89,-1.41 -0.23,0.67 -1.81,4.52 -7.11,3.11 l -0.14,-0.03 -0.06,0.13 c -0.02,0.04 -1.55,3.17 -5.49,4.14 0,0 -2.34,0.58 -2.43,0.61 -0.09,-0.03 -2.08,-0.75 -2.21,-0.8 -0.03,-0.06 -0.06,-0.13 -0.09,-0.2 0.81,-0.07 3.38,-0.27 4.63,-0.7 z"
   id="path6366"
   style="stroke-width:0.533502" />
		</g>
		<g
   id="g6379"
   style="stroke-width:0.533502">
			<linearGradient
   id="SVGID_13_"
   gradientUnits="userSpaceOnUse"
   x1="273.04449"
   y1="253.24319"
   x2="270.3588"
   y2="303.4823">
				<stop
   offset="0"
   style="stop-color:#EDDC44"
   id="stop6370" />
				<stop
   offset="1"
   style="stop-color:#876247"
   id="stop6372" />
			</linearGradient>
			<path
   class="st13"
   d="m 275.19,241.19 c 0,0 -1.45,0.77 -0.99,6.5 0,0 -4.24,-0.31 -5.42,0.65 0,0 1.33,3.67 8.28,2.28 -0.01,0.01 2.86,-5.58 -1.87,-9.43 z"
   id="path6375"
   style="fill:url(#SVGID_13_);stroke-width:0.533502" />
			<path
   d="m 275.1,241.03 c -0.05,0.03 -1.18,0.67 -1.18,4.6 0,0.55 0.03,1.18 0.08,1.87 -0.85,-0.05 -4.25,-0.18 -5.34,0.71 l -0.09,0.08 0.04,0.12 c 0.05,0.16 1.46,3.78 8.48,2.39 l 0.08,-0.02 0.04,-0.08 c 0.03,-0.06 2.88,-5.76 -1.92,-9.66 l -0.08,-0.07 z m -0.73,6.65 c -0.06,-0.78 -0.08,-1.45 -0.08,-2.05 0,-3.03 0.66,-3.96 0.9,-4.2 2.01,1.68 2.57,3.68 2.57,5.38 0,1.85 -0.66,3.32 -0.82,3.66 -5.89,1.15 -7.62,-1.44 -7.93,-2.05 1.25,-0.81 5.14,-0.55 5.18,-0.55 l 0.2,0.02 z"
   id="path6377"
   style="stroke-width:0.533502" />
		</g>
		<g
   id="g6390"
   style="stroke-width:0.533502">
			<linearGradient
   id="SVGID_14_"
   gradientUnits="userSpaceOnUse"
   x1="275.79761"
   y1="253.39349"
   x2="273.11179"
   y2="303.63629">
				<stop
   offset="0"
   style="stop-color:#EDDC44"
   id="stop6381" />
				<stop
   offset="1"
   style="stop-color:#876247"
   id="stop6383" />
			</linearGradient>
			<path
   class="st14"
   d="m 278.43,244.96 c 0,0 -1.65,4 -1.49,5.5 0,0 -3.89,-0.5 -5.92,0.77 0,0 2.08,3.38 8.23,3.46 0,0 4.13,-5.75 -0.82,-9.73 z"
   id="path6386"
   style="fill:url(#SVGID_14_);stroke-width:0.533502" />
			<path
   d="m 278.27,244.9 c -0.06,0.16 -1.51,3.7 -1.51,5.36 0,0.01 0,0.01 0,0.01 -0.83,-0.09 -4.01,-0.32 -5.82,0.82 l -0.15,0.09 0.09,0.15 c 0.09,0.14 2.2,3.46 8.37,3.54 h 0.09 l 0.05,-0.07 c 0.05,-0.06 4.18,-5.93 -0.85,-9.97 l -0.18,-0.15 z m -1.15,5.55 c -0.01,-0.07 -0.01,-0.13 -0.01,-0.2 0,-1.35 1.07,-4.18 1.39,-4.98 1.67,1.42 2.21,3.05 2.21,4.54 0,2.35 -1.29,4.33 -1.55,4.71 -5.12,-0.09 -7.36,-2.54 -7.86,-3.21 1.99,-1.1 5.59,-0.67 5.62,-0.66 l 0.22,0.03 z"
   id="path6388"
   style="stroke-width:0.533502" />
		</g>
		<g
   id="g6401"
   style="stroke-width:0.533502">
			<linearGradient
   id="SVGID_15_"
   gradientUnits="userSpaceOnUse"
   x1="277.92261"
   y1="253.5051"
   x2="275.23679"
   y2="303.74521">
				<stop
   offset="0"
   style="stop-color:#EDDC44"
   id="stop6392" />
				<stop
   offset="1"
   style="stop-color:#876247"
   id="stop6394" />
			</linearGradient>
			<path
   class="st15"
   d="m 280.99,249.5 c 0,0 -0.61,4.16 -1.87,4.97 0,0 -3.55,0 -5.8,-1.11 0,0 -0.54,2.23 6.37,5.62 0,0 4.69,-2.96 2.02,-9.04 0,-0.02 -0.3,-0.98 -0.72,-0.44 z"
   id="path6397"
   style="fill:url(#SVGID_15_);stroke-width:0.533502" />
			<path
   d="m 280.85,249.39 -0.03,0.04 v 0.05 c -0.16,1.12 -0.8,4.14 -1.76,4.81 -0.34,0 -3.57,-0.06 -5.66,-1.1 l -0.19,-0.1 -0.05,0.22 c -0.02,0.1 -0.49,2.41 6.47,5.82 l 0.08,0.04 0.08,-0.05 c 0.05,-0.03 4.79,-3.12 2.09,-9.26 -0.03,-0.09 -0.21,-0.63 -0.56,-0.69 -0.12,-0.02 -0.3,0 -0.47,0.22 z m 0.4,0.13 c 0.09,0.01 0.23,0.26 0.29,0.46 0.59,1.34 0.82,2.52 0.82,3.55 0,3.27 -2.28,4.96 -2.68,5.23 -5.32,-2.62 -6.08,-4.52 -6.18,-5.15 2.26,1.01 5.47,1.03 5.62,1.03 h 0.05 l 0.05,-0.03 c 1.27,-0.82 1.88,-4.61 1.94,-5.02 0.03,-0.04 0.07,-0.08 0.09,-0.07 z"
   id="path6399"
   style="stroke-width:0.533502" />
		</g>
		<g
   id="g6412"
   style="stroke-width:0.533502">
			<linearGradient
   id="SVGID_16_"
   gradientUnits="userSpaceOnUse"
   x1="279.44501"
   y1="253.5894"
   x2="276.75931"
   y2="303.82959">
				<stop
   offset="0"
   style="stop-color:#EDDC44"
   id="stop6403" />
				<stop
   offset="1"
   style="stop-color:#876247"
   id="stop6405" />
			</linearGradient>
			<path
   class="st16"
   d="m 274.46,256.04 c 0,0 3.41,0.93 5.28,3 0,0 0.68,-3.04 3.3,-4.39 0,0 4.08,3.4 -3.21,9.36 0.01,0 -6.63,-3.08 -5.37,-7.97 z"
   id="path6408"
   style="fill:url(#SVGID_16_);stroke-width:0.533502" />
			<path
   d="m 282.97,254.5 c -2.23,1.15 -3.08,3.43 -3.31,4.22 -1.91,-1.94 -5.01,-2.81 -5.15,-2.84 l -0.17,-0.05 -0.05,0.17 c -1.28,4.97 5.41,8.14 5.47,8.18 l 0.1,0.04 0.08,-0.07 c 2.92,-2.39 4.4,-4.66 4.41,-6.76 0,-1.84 -1.15,-2.83 -1.21,-2.88 l -0.09,-0.07 z m -3.06,4.58 c 0.01,-0.02 0.69,-2.87 3.11,-4.2 0.25,0.25 0.99,1.11 0.99,2.5 0,0.01 0,0.02 0,0.02 -0.01,1.96 -1.43,4.12 -4.2,6.4 -0.72,-0.36 -5.34,-2.82 -5.34,-6.54 0,-0.32 0.06,-0.65 0.13,-0.99 0.73,0.23 3.44,1.15 5.01,2.89 l 0.23,0.25 z"
   id="path6410"
   style="stroke-width:0.533502" />
		</g>
		<g
   id="g6423"
   style="stroke-width:0.533502">
			<linearGradient
   id="SVGID_17_"
   gradientUnits="userSpaceOnUse"
   x1="279.99231"
   y1="253.62711"
   x2="277.30789"
   y2="303.84351">
				<stop
   offset="0"
   style="stop-color:#EDDC44"
   id="stop6414" />
				<stop
   offset="1"
   style="stop-color:#876247"
   id="stop6416" />
			</linearGradient>
			<path
   class="st17"
   d="m 275.15,259.7 c 0,0 2.37,1.62 4.58,4.27 0,0 3.32,-4.54 4.16,-4.23 0,0 2.67,6.12 -4.42,8.85 -0.01,0 -6.5,-3.73 -4.32,-8.89 z"
   id="path6419"
   style="fill:url(#SVGID_17_);stroke-width:0.533502" />
			<path
   d="m 274.99,259.63 c -2.21,5.24 4.32,9.07 4.39,9.11 l 0.07,0.04 0.08,-0.03 c 2.31,-0.89 3.85,-2.23 4.57,-3.97 1.06,-2.55 0,-5.01 -0.04,-5.11 l -0.03,-0.07 -0.07,-0.03 c -0.86,-0.31 -3.33,2.89 -4.23,4.12 -2.16,-2.54 -4.45,-4.12 -4.47,-4.14 l -0.17,-0.12 z m 4.88,4.45 c 1.49,-2.05 3.35,-4.15 3.89,-4.18 0.11,0.28 0.44,1.25 0.44,2.48 0,0.7 -0.11,1.48 -0.44,2.28 -0.67,1.63 -2.13,2.88 -4.29,3.73 -0.59,-0.36 -4.59,-2.96 -4.59,-6.58 0,-0.58 0.12,-1.19 0.36,-1.82 0.59,0.43 2.52,1.9 4.35,4.1 l 0.15,0.17 z"
   id="path6421"
   style="stroke-width:0.533502" />
		</g>
		<g
   id="g6434"
   style="stroke-width:0.533502">
			<linearGradient
   id="SVGID_18_"
   gradientUnits="userSpaceOnUse"
   x1="280.4028"
   y1="253.63139"
   x2="277.71552"
   y2="303.9017">
				<stop
   offset="0"
   style="stop-color:#EDDC44"
   id="stop6425" />
				<stop
   offset="1"
   style="stop-color:#876247"
   id="stop6427" />
			</linearGradient>
			<path
   class="st18"
   d="m 275.91,264.82 c 0,0 2.52,2 3.43,3.77 0,0 2.9,-3.07 5.19,-2.76 0,0 -0.38,5.04 -5.42,6.16 l -1.67,1.56 c 0,-0.01 -4.58,-4.42 -1.53,-8.73 z"
   id="path6430"
   style="fill:url(#SVGID_18_);stroke-width:0.533502" />
			<path
   d="m 275.77,264.71 c -3.1,4.38 1.51,8.9 1.55,8.95 l 0.12,0.12 c 0,0 1.7,-1.59 1.76,-1.64 5.05,-1.16 5.5,-6.25 5.51,-6.3 l 0.01,-0.17 -0.17,-0.02 c -2.07,-0.28 -4.53,2.01 -5.18,2.66 -1,-1.73 -3.26,-3.54 -3.36,-3.62 l -0.15,-0.11 z m -0.72,3.27 c 0,-0.93 0.26,-1.92 0.91,-2.89 0.54,0.45 2.47,2.1 3.23,3.58 l 0.11,0.22 0.17,-0.18 c 0.03,-0.03 2.72,-2.84 4.86,-2.72 -0.12,0.87 -0.92,4.86 -5.26,5.82 l -0.05,0.01 c 0,0 -1.37,1.28 -1.59,1.48 -0.47,-0.53 -2.38,-2.72 -2.38,-5.32 z"
   id="path6432"
   style="stroke-width:0.533502" />
		</g>
		<g
   id="g6445"
   style="stroke-width:0.533502">
			<linearGradient
   id="SVGID_19_"
   gradientUnits="userSpaceOnUse"
   x1="279.44"
   y1="253.5777"
   x2="276.75311"
   y2="303.83969">
				<stop
   offset="0"
   style="stop-color:#EDDC44"
   id="stop6436" />
				<stop
   offset="1"
   style="stop-color:#876247"
   id="stop6438" />
			</linearGradient>
			<path
   class="st19"
   d="m 275.07,267.97 c 0,0 2.21,2.93 2.36,5.28 0,0 2.86,-2.5 5.69,-3.16 0,0 -0.04,6.31 -7.41,5.66 0.01,0 -3.5,-4.51 -0.64,-7.78 z"
   id="path6441"
   style="fill:url(#SVGID_19_);stroke-width:0.533502" />
			<path
   d="m 274.94,267.86 c -2.92,3.34 0.61,7.95 0.64,8 l 0.05,0.06 h 0.08 c 2.43,0.22 4.35,-0.29 5.68,-1.52 1.87,-1.72 1.91,-4.2 1.91,-4.31 v -0.23 l -0.22,0.05 c -2.41,0.56 -4.79,2.4 -5.52,2.99 -0.31,-2.3 -2.26,-4.93 -2.35,-5.04 l -0.13,-0.17 z m -0.8,3.12 c 0,-0.91 0.26,-1.85 0.93,-2.7 0.48,0.66 2.07,3.05 2.19,4.98 l 0.03,0.36 0.26,-0.24 c 0.03,-0.02 2.71,-2.33 5.38,-3.04 -0.06,0.64 -0.34,2.49 -1.78,3.81 -1.25,1.14 -3.04,1.62 -5.34,1.43 -0.23,-0.32 -1.67,-2.37 -1.67,-4.6 z"
   id="path6443"
   style="stroke-width:0.533502" />
		</g>
		<g
   id="g6456"
   style="stroke-width:0.533502">
			<linearGradient
   id="SVGID_20_"
   gradientUnits="userSpaceOnUse"
   x1="263.08041"
   y1="251.79829"
   x2="260.2731"
   y2="304.31229">
				<stop
   offset="0"
   style="stop-color:#EDDC44"
   id="stop6447" />
				<stop
   offset="1"
   style="stop-color:#876247"
   id="stop6449" />
			</linearGradient>
			<path
   class="st20"
   d="m 273.74,271.9 c 0,0 -3.43,0.58 -2.9,8.4 0,0 1.34,5.38 -3.82,3.76 0,0 -4.01,-4.08 -9.16,-0.42 0,0 -8.19,4.07 -9.42,4.54 0,0 -1.17,2.01 1.72,1.35 0,0 6.06,-3.04 7.2,-3.92 0,0 4.05,-2.31 9.53,0.54 0,0 6.54,0.64 7.41,-4.81 0.71,-4.4 -0.84,-7.82 -0.56,-9.44 z"
   id="path6452"
   style="fill:url(#SVGID_20_);stroke-width:0.533502" />
			<path
   d="m 273.71,271.72 c -0.15,0.02 -3.58,0.7 -3.05,8.58 0.01,0.05 0.57,2.37 -0.51,3.39 -0.6,0.58 -1.63,0.64 -3.05,0.2 -0.29,-0.29 -4.3,-3.99 -9.34,-0.41 -0.05,0.02 -8.19,4.06 -9.38,4.51 l -0.06,0.02 -0.03,0.06 c -0.02,0.03 -0.49,0.85 -0.11,1.38 0.29,0.4 0.95,0.47 2.02,0.23 h 0.03 l 0.02,-0.02 c 0.16,-0.1 6.08,-3.05 7.22,-3.93 0.02,-0.01 4.01,-2.22 9.34,0.56 l 0.03,0.01 h 0.03 c 0.07,0.01 6.72,0.6 7.6,-4.95 0.44,-2.75 0,-5.16 -0.32,-6.91 -0.19,-1.08 -0.35,-1.94 -0.25,-2.52 l 0.04,-0.24 z m -3.31,12.23 c 0.61,-0.59 0.77,-1.5 0.77,-2.27 0,-0.76 -0.15,-1.38 -0.16,-1.44 -0.04,-0.55 -0.06,-1.06 -0.06,-1.53 0,-5.05 1.94,-6.29 2.59,-6.56 -0.01,0.07 -0.02,0.12 -0.02,0.19 0,0.58 0.14,1.31 0.29,2.18 0.22,1.21 0.5,2.74 0.5,4.46 0,0.75 -0.05,1.52 -0.18,2.33 -0.83,5.17 -6.81,4.7 -7.19,4.66 -5.49,-2.84 -9.62,-0.54 -9.66,-0.52 -1.12,0.87 -7,3.8 -7.18,3.91 -0.86,0.2 -1.44,0.16 -1.63,-0.1 -0.06,-0.08 -0.08,-0.18 -0.08,-0.29 0,-0.24 0.11,-0.51 0.19,-0.65 1.33,-0.54 9.14,-4.38 9.38,-4.52 4.98,-3.53 8.78,0.24 8.94,0.4 l 0.03,0.03 0.04,0.01 c 1.57,0.48 2.72,0.38 3.43,-0.29 z"
   id="path6454"
   style="stroke-width:0.533502" />
		</g>
	</g>
	<g
   id="g6518"
   style="stroke-width:0.533502">
		<path
   class="st21"
   d="m 211.54,266.51 c -0.2,0.11 -0.38,0.2 -0.54,0.27 -0.15,0.07 -0.32,0.15 -0.51,0.24 v 0.05 c 0.21,-0.03 0.64,-0.08 1.27,-0.14 0.63,-0.06 1.21,-0.11 1.72,-0.15 l 1.1,-0.09 c 0.24,-0.02 0.42,-0.04 0.53,-0.06 0.11,-0.02 0.2,-0.04 0.25,-0.07 0.06,-0.03 0.1,-0.07 0.14,-0.12 0.03,-0.05 0.07,-0.13 0.1,-0.26 l 0.26,-0.02 0.11,1.36 -0.26,0.02 c -0.05,-0.11 -0.09,-0.19 -0.13,-0.23 -0.04,-0.04 -0.09,-0.08 -0.15,-0.1 -0.06,-0.03 -0.15,-0.04 -0.26,-0.05 -0.12,0 -0.3,0 -0.56,0.02 l -5.89,0.48 -0.04,-0.47 4.74,-2.5 c 0.3,-0.16 0.51,-0.27 0.65,-0.33 0.13,-0.07 0.27,-0.13 0.4,-0.19 l -0.01,-0.07 c -0.27,0.04 -0.75,0.09 -1.46,0.16 -0.7,0.06 -1.41,0.12 -2.11,0.18 l -1.07,0.09 c -0.24,0.02 -0.41,0.04 -0.52,0.06 -0.11,0.02 -0.19,0.05 -0.25,0.08 -0.06,0.03 -0.11,0.08 -0.15,0.13 -0.04,0.06 -0.07,0.14 -0.11,0.26 l -0.26,0.02 -0.11,-1.38 0.26,-0.02 c 0.07,0.15 0.14,0.25 0.21,0.3 0.07,0.05 0.17,0.07 0.3,0.08 0.13,0.01 0.32,0 0.58,-0.02 l 4.55,-0.37 c 0.24,-0.02 0.42,-0.04 0.52,-0.06 0.11,-0.02 0.19,-0.05 0.26,-0.08 0.06,-0.03 0.1,-0.07 0.13,-0.13 0.03,-0.05 0.07,-0.14 0.1,-0.25 l 0.26,-0.02 0.09,1.18 z"
   id="path6460"
   style="stroke-width:0.533502" />
		<path
   class="st21"
   d="m 209.5,271.88 0.25,-0.05 c 0.06,0.12 0.12,0.2 0.17,0.26 0.05,0.05 0.12,0.08 0.2,0.1 0.08,0.01 0.18,0.01 0.31,-0.02 0.12,-0.02 0.24,-0.06 0.37,-0.11 0.13,-0.05 0.28,-0.11 0.44,-0.17 l 0.64,-0.27 -0.35,-1.74 -0.53,-0.02 c -0.27,-0.01 -0.47,-0.02 -0.6,-0.01 -0.14,0.01 -0.26,0.02 -0.36,0.04 -0.21,0.04 -0.35,0.11 -0.43,0.2 -0.08,0.1 -0.12,0.23 -0.12,0.39 l -0.25,0.05 -0.32,-1.59 0.25,-0.05 c 0.06,0.13 0.2,0.23 0.41,0.3 0.21,0.06 0.51,0.11 0.89,0.13 l 6.04,0.41 0.12,0.59 -5.52,2.42 c -0.25,0.11 -0.45,0.21 -0.58,0.28 -0.13,0.07 -0.23,0.15 -0.3,0.23 -0.07,0.08 -0.11,0.18 -0.13,0.3 l -0.25,0.05 z m 2.5,-1.99 0.31,1.56 3.19,-1.38 z"
   id="path6462"
   style="stroke-width:0.533502" />
		<path
   class="st21"
   d="m 213.81,276.67 c -0.17,0.16 -0.32,0.28 -0.45,0.4 -0.13,0.11 -0.28,0.22 -0.44,0.35 l 0.01,0.05 c 0.2,-0.08 0.6,-0.22 1.21,-0.43 0.6,-0.21 1.15,-0.4 1.63,-0.56 l 1.05,-0.35 c 0.23,-0.08 0.4,-0.13 0.5,-0.18 0.1,-0.05 0.17,-0.09 0.22,-0.13 0.05,-0.04 0.08,-0.09 0.1,-0.15 0.02,-0.05 0.04,-0.15 0.04,-0.27 l 0.25,-0.08 0.43,1.3 -0.25,0.08 c -0.08,-0.09 -0.14,-0.16 -0.19,-0.19 -0.05,-0.03 -0.1,-0.05 -0.17,-0.06 -0.06,-0.01 -0.15,0 -0.26,0.02 -0.11,0.02 -0.29,0.07 -0.54,0.15 l -5.61,1.86 -0.15,-0.45 4.01,-3.56 c 0.25,-0.22 0.43,-0.38 0.55,-0.48 0.12,-0.1 0.23,-0.19 0.35,-0.28 l -0.02,-0.06 c -0.25,0.1 -0.71,0.27 -1.38,0.5 -0.67,0.23 -1.34,0.46 -2,0.68 l -1.02,0.34 c -0.22,0.07 -0.39,0.14 -0.48,0.18 -0.1,0.04 -0.18,0.09 -0.23,0.14 -0.05,0.04 -0.09,0.1 -0.11,0.16 -0.02,0.06 -0.04,0.16 -0.04,0.28 l -0.25,0.08 -0.43,-1.32 0.24,-0.08 c 0.1,0.13 0.19,0.21 0.28,0.24 0.08,0.03 0.18,0.03 0.31,0.01 0.12,-0.02 0.31,-0.08 0.56,-0.16 l 4.33,-1.44 c 0.23,-0.08 0.4,-0.14 0.5,-0.18 0.1,-0.05 0.18,-0.09 0.23,-0.14 0.05,-0.05 0.09,-0.1 0.1,-0.16 0.02,-0.06 0.03,-0.15 0.04,-0.27 l 0.24,-0.08 0.38,1.13 z"
   id="path6464"
   style="stroke-width:0.533502" />
		<path
   class="st21"
   d="m 214.37,280.25 c -0.44,0.19 -0.8,0.31 -1.11,0.35 -0.3,0.04 -0.58,0.02 -0.85,-0.07 -0.26,-0.09 -0.53,-0.26 -0.8,-0.52 l 0.37,-0.3 c 0.2,0.16 0.37,0.25 0.52,0.29 0.15,0.04 0.32,0.04 0.5,0 0.18,-0.04 0.41,-0.12 0.7,-0.25 l 3.88,-1.7 c 0.28,-0.12 0.47,-0.21 0.56,-0.28 0.1,-0.07 0.16,-0.13 0.2,-0.2 0.03,-0.07 0.05,-0.19 0.04,-0.35 l 0.24,-0.1 0.64,1.47 -0.24,0.1 c -0.08,-0.08 -0.15,-0.14 -0.2,-0.17 -0.05,-0.03 -0.12,-0.05 -0.18,-0.05 -0.06,0 -0.15,0.01 -0.26,0.05 -0.11,0.03 -0.28,0.1 -0.5,0.19 z"
   id="path6466"
   style="stroke-width:0.533502" />
		<path
   class="st21"
   d="m 214.88,282.97 c -0.21,0.11 -0.36,0.19 -0.45,0.25 -0.09,0.06 -0.16,0.11 -0.2,0.17 -0.04,0.05 -0.07,0.11 -0.09,0.18 -0.01,0.07 -0.01,0.16 0,0.28 l -0.23,0.12 -0.73,-1.43 0.23,-0.12 c 0.12,0.11 0.23,0.18 0.31,0.2 0.09,0.01 0.19,0 0.31,-0.04 0.12,-0.04 0.3,-0.12 0.53,-0.25 l 4.06,-2.07 c 0.22,-0.11 0.38,-0.2 0.47,-0.26 0.09,-0.06 0.16,-0.12 0.2,-0.17 0.04,-0.06 0.07,-0.11 0.08,-0.17 0.01,-0.06 0.01,-0.15 0,-0.27 l 0.23,-0.12 0.72,1.42 -0.23,0.12 c -0.08,-0.08 -0.15,-0.14 -0.21,-0.16 -0.06,-0.03 -0.12,-0.04 -0.18,-0.04 -0.07,0 -0.16,0.02 -0.27,0.06 -0.11,0.04 -0.27,0.11 -0.49,0.23 z"
   id="path6468"
   style="stroke-width:0.533502" />
		<path
   class="st21"
   d="m 218.57,286.22 c -0.13,0.19 -0.25,0.35 -0.34,0.49 -0.1,0.14 -0.22,0.29 -0.35,0.45 l 0.02,0.04 c 0.18,-0.13 0.53,-0.36 1.06,-0.71 0.54,-0.35 1.02,-0.66 1.45,-0.94 l 0.93,-0.6 c 0.2,-0.13 0.35,-0.23 0.44,-0.3 0.09,-0.07 0.15,-0.13 0.19,-0.18 0.03,-0.05 0.06,-0.11 0.06,-0.17 0.01,-0.06 0,-0.15 -0.03,-0.27 l 0.22,-0.14 0.73,1.15 -0.22,0.14 c -0.1,-0.07 -0.17,-0.12 -0.23,-0.14 -0.05,-0.02 -0.11,-0.03 -0.18,-0.02 -0.06,0.01 -0.15,0.03 -0.25,0.08 -0.1,0.05 -0.27,0.14 -0.48,0.28 l -5,3.17 -0.25,-0.4 3.03,-4.42 c 0.19,-0.28 0.33,-0.47 0.41,-0.6 0.09,-0.12 0.18,-0.24 0.27,-0.35 l -0.04,-0.06 c -0.22,0.16 -0.63,0.43 -1.22,0.82 -0.59,0.39 -1.19,0.77 -1.78,1.15 l -0.91,0.58 c -0.2,0.13 -0.34,0.22 -0.43,0.29 -0.09,0.07 -0.15,0.13 -0.19,0.19 -0.04,0.06 -0.06,0.12 -0.07,0.18 -0.01,0.07 0,0.16 0.03,0.28 l -0.22,0.14 -0.74,-1.17 0.22,-0.14 c 0.13,0.1 0.24,0.15 0.33,0.16 0.09,0.01 0.19,-0.02 0.3,-0.07 0.12,-0.05 0.28,-0.15 0.5,-0.29 l 3.85,-2.45 c 0.21,-0.13 0.35,-0.23 0.44,-0.3 0.09,-0.07 0.15,-0.13 0.19,-0.19 0.03,-0.06 0.06,-0.12 0.06,-0.18 0.01,-0.06 0,-0.15 -0.03,-0.27 l 0.22,-0.14 0.64,1 z"
   id="path6470"
   style="stroke-width:0.533502" />
		<path
   class="st21"
   d="m 220.08,292.86 -0.28,-0.16 0.14,-0.47 c -0.21,-0.04 -0.4,-0.11 -0.57,-0.21 -0.17,-0.09 -0.32,-0.23 -0.47,-0.42 -0.4,-0.5 -0.48,-1.06 -0.2,-1.7 0.27,-0.64 0.87,-1.34 1.8,-2.1 0.58,-0.48 1.15,-0.82 1.7,-1.05 0.55,-0.22 1.05,-0.3 1.49,-0.23 0.45,0.06 0.81,0.27 1.09,0.62 0.15,0.18 0.28,0.37 0.39,0.56 0.11,0.2 0.21,0.42 0.31,0.69 l -1.13,0.92 -0.24,-0.29 c 0.2,-0.25 0.34,-0.47 0.42,-0.66 0.08,-0.19 0.11,-0.35 0.08,-0.5 -0.03,-0.15 -0.1,-0.3 -0.23,-0.46 -0.18,-0.21 -0.42,-0.32 -0.75,-0.33 -0.32,0 -0.7,0.1 -1.15,0.32 -0.45,0.21 -0.93,0.54 -1.46,0.97 -0.54,0.44 -0.96,0.85 -1.28,1.23 -0.32,0.38 -0.51,0.73 -0.58,1.04 -0.07,0.31 -0.01,0.57 0.16,0.79 0.19,0.23 0.4,0.35 0.63,0.34 0.23,0 0.49,-0.12 0.78,-0.36 l 0.25,-0.2 c 0.24,-0.2 0.42,-0.35 0.51,-0.46 0.09,-0.11 0.15,-0.21 0.17,-0.31 0.02,-0.09 0.01,-0.21 -0.04,-0.35 l 0.2,-0.17 0.97,1.19 -0.2,0.16 c -0.09,-0.04 -0.17,-0.07 -0.24,-0.07 -0.07,0 -0.15,0.02 -0.22,0.05 -0.08,0.03 -0.17,0.08 -0.26,0.15 -0.09,0.07 -0.23,0.17 -0.4,0.31 z"
   id="path6472"
   style="stroke-width:0.533502" />
		<path
   class="st21"
   d="m 224.45,297.21 0.17,-0.19 c 0.12,0.06 0.21,0.09 0.29,0.1 0.07,0.01 0.14,0 0.22,-0.03 0.07,-0.04 0.15,-0.1 0.24,-0.2 0.08,-0.09 0.16,-0.2 0.24,-0.31 0.08,-0.12 0.16,-0.25 0.25,-0.41 l 0.35,-0.6 -1.32,-1.18 -0.44,0.3 c -0.22,0.15 -0.39,0.27 -0.49,0.35 -0.1,0.09 -0.19,0.17 -0.27,0.25 -0.14,0.16 -0.22,0.3 -0.22,0.42 -0.01,0.13 0.04,0.25 0.13,0.38 l -0.17,0.19 -1.21,-1.08 0.17,-0.19 c 0.13,0.07 0.3,0.07 0.51,-0.01 0.21,-0.08 0.47,-0.22 0.79,-0.42 l 5.08,-3.29 0.45,0.4 -2.96,5.25 c -0.14,0.25 -0.24,0.44 -0.3,0.58 -0.06,0.14 -0.09,0.26 -0.1,0.37 0,0.1 0.02,0.21 0.08,0.31 l -0.17,0.19 z m 0.81,-3.09 1.18,1.06 1.74,-3.02 z"
   id="path6474"
   style="stroke-width:0.533502" />
		<path
   class="st21"
   d="m 229.47,301.03 -0.31,-0.08 0.01,-0.5 c -0.22,0.02 -0.41,0 -0.6,-0.05 -0.19,-0.05 -0.37,-0.14 -0.56,-0.28 -0.52,-0.37 -0.74,-0.9 -0.65,-1.59 0.09,-0.68 0.48,-1.52 1.18,-2.5 0.43,-0.61 0.89,-1.09 1.36,-1.45 0.48,-0.35 0.94,-0.56 1.38,-0.62 0.45,-0.06 0.85,0.05 1.22,0.31 0.19,0.13 0.36,0.28 0.52,0.44 0.15,0.16 0.31,0.35 0.48,0.58 l -0.84,1.18 -0.31,-0.22 c 0.13,-0.3 0.21,-0.54 0.23,-0.74 0.03,-0.2 0.01,-0.37 -0.06,-0.51 -0.06,-0.14 -0.17,-0.26 -0.34,-0.38 -0.22,-0.16 -0.49,-0.2 -0.8,-0.12 -0.31,0.08 -0.65,0.28 -1.03,0.61 -0.37,0.33 -0.76,0.77 -1.15,1.32 -0.4,0.56 -0.71,1.07 -0.91,1.53 -0.21,0.45 -0.3,0.84 -0.29,1.15 0.01,0.31 0.13,0.55 0.36,0.72 0.24,0.17 0.47,0.23 0.7,0.17 0.22,-0.06 0.44,-0.25 0.66,-0.56 l 0.18,-0.26 c 0.19,-0.26 0.31,-0.45 0.37,-0.58 0.06,-0.13 0.09,-0.24 0.08,-0.34 0,-0.1 -0.05,-0.21 -0.13,-0.33 l 0.15,-0.21 1.25,0.89 -0.15,0.21 c -0.1,-0.02 -0.18,-0.02 -0.25,0 -0.07,0.02 -0.14,0.05 -0.2,0.1 -0.07,0.05 -0.14,0.12 -0.22,0.21 -0.07,0.09 -0.18,0.23 -0.3,0.4 z"
   id="path6476"
   style="stroke-width:0.533502" />
		<path
   class="st21"
   d="m 233.37,299.77 -0.87,1.57 c -0.12,0.22 -0.21,0.39 -0.25,0.49 -0.04,0.11 -0.07,0.2 -0.07,0.26 -0.01,0.07 0,0.12 0.03,0.18 0.03,0.06 0.07,0.14 0.16,0.23 l -0.13,0.23 -1.4,-0.78 0.13,-0.22 c 0.16,0.03 0.29,0.02 0.37,-0.01 0.08,-0.04 0.16,-0.1 0.23,-0.21 0.08,-0.1 0.18,-0.27 0.3,-0.5 l 2.21,-3.99 c 0.12,-0.22 0.2,-0.37 0.24,-0.47 0.04,-0.11 0.07,-0.19 0.07,-0.26 0.01,-0.07 -0.01,-0.13 -0.03,-0.19 -0.02,-0.06 -0.08,-0.13 -0.16,-0.23 l 0.13,-0.23 1.64,0.91 c 0.52,0.29 0.83,0.63 0.94,1.04 0.11,0.41 0.02,0.88 -0.29,1.43 -0.23,0.42 -0.51,0.74 -0.84,0.94 -0.33,0.2 -0.71,0.29 -1.14,0.28 l -0.02,0.04 c 0.09,0.15 0.14,0.33 0.16,0.52 0.02,0.2 0,0.48 -0.05,0.84 l -0.12,0.92 c -0.04,0.27 -0.06,0.48 -0.06,0.63 0,0.15 0.01,0.28 0.04,0.37 0.03,0.1 0.09,0.19 0.19,0.27 l -0.13,0.23 -0.92,-0.51 c 0.01,-0.21 0.03,-0.43 0.05,-0.66 0.03,-0.23 0.06,-0.46 0.09,-0.7 l 0.13,-0.94 c 0.04,-0.28 0.06,-0.49 0.07,-0.64 0,-0.14 0,-0.25 -0.03,-0.32 -0.02,-0.07 -0.06,-0.13 -0.1,-0.18 -0.05,-0.05 -0.12,-0.1 -0.23,-0.16 z m 1.74,-3.14 -1.52,2.74 0.37,0.21 c 0.19,0.11 0.36,0.17 0.5,0.2 0.14,0.03 0.29,0.01 0.45,-0.04 0.16,-0.05 0.32,-0.16 0.49,-0.32 0.17,-0.16 0.33,-0.38 0.48,-0.66 0.16,-0.29 0.26,-0.55 0.3,-0.79 0.03,-0.23 0.01,-0.44 -0.08,-0.62 -0.09,-0.18 -0.26,-0.34 -0.51,-0.48 -0.19,-0.1 -0.35,-0.18 -0.48,-0.24 z"
   id="path6478"
   style="stroke-width:0.533502" />
		<path
   class="st21"
   d="m 237.1,303.66 c -0.1,0.21 -0.16,0.38 -0.19,0.48 -0.03,0.11 -0.05,0.19 -0.05,0.26 0,0.07 0.01,0.13 0.04,0.19 0.03,0.06 0.09,0.13 0.18,0.22 l -0.11,0.23 -1.46,-0.65 0.1,-0.24 c 0.17,0.01 0.29,0 0.36,-0.04 0.08,-0.04 0.15,-0.12 0.21,-0.23 0.07,-0.11 0.15,-0.28 0.26,-0.52 l 1.85,-4.18 c 0.1,-0.22 0.16,-0.38 0.2,-0.49 0.03,-0.11 0.05,-0.19 0.05,-0.26 0,-0.07 -0.02,-0.13 -0.05,-0.18 -0.03,-0.05 -0.09,-0.12 -0.17,-0.21 l 0.1,-0.23 1.46,0.65 -0.1,0.24 c -0.12,-0.01 -0.21,-0.01 -0.27,0.01 -0.06,0.02 -0.11,0.05 -0.17,0.09 -0.05,0.04 -0.11,0.11 -0.17,0.21 -0.06,0.1 -0.14,0.26 -0.23,0.48 z"
   id="path6480"
   style="stroke-width:0.533502" />
		<path
   class="st21"
   d="m 243.8,300.05 -0.48,1.38 -0.35,-0.13 c 0.04,-0.31 0.05,-0.57 0.02,-0.77 -0.03,-0.2 -0.09,-0.36 -0.18,-0.47 -0.09,-0.11 -0.22,-0.2 -0.39,-0.26 -0.25,-0.09 -0.51,-0.05 -0.78,0.11 -0.27,0.16 -0.54,0.45 -0.81,0.87 -0.27,0.42 -0.51,0.95 -0.74,1.6 -0.22,0.65 -0.37,1.22 -0.44,1.71 -0.07,0.49 -0.05,0.89 0.04,1.18 0.09,0.3 0.27,0.49 0.53,0.58 0.2,0.07 0.37,0.08 0.52,0.05 0.15,-0.03 0.3,-0.12 0.44,-0.26 0.15,-0.14 0.31,-0.36 0.5,-0.66 l 0.35,0.12 -0.49,1.43 c -0.25,0 -0.51,-0.01 -0.75,-0.05 -0.25,-0.04 -0.52,-0.11 -0.8,-0.21 -0.61,-0.21 -0.96,-0.66 -1.08,-1.33 -0.11,-0.68 0.03,-1.59 0.42,-2.72 0.25,-0.71 0.54,-1.31 0.89,-1.79 0.35,-0.48 0.73,-0.81 1.14,-0.99 0.41,-0.19 0.84,-0.2 1.28,-0.05 0.22,0.08 0.41,0.16 0.58,0.26 0.19,0.1 0.38,0.23 0.58,0.4 z"
   id="path6482"
   style="stroke-width:0.533502" />
		<path
   class="st21"
   d="m 247.11,305.51 c -0.08,0.38 -0.18,0.69 -0.29,0.95 -0.1,0.25 -0.23,0.46 -0.37,0.64 -0.13,0.16 -0.26,0.29 -0.42,0.38 -0.16,0.1 -0.33,0.16 -0.53,0.19 -0.2,0.03 -0.42,0.02 -0.67,-0.03 -0.3,-0.06 -0.55,-0.17 -0.74,-0.31 -0.19,-0.14 -0.34,-0.34 -0.43,-0.58 -0.09,-0.24 -0.14,-0.51 -0.14,-0.82 0,-0.3 0.05,-0.67 0.15,-1.11 l 0.76,-3.39 c 0.06,-0.27 0.09,-0.45 0.1,-0.55 0.01,-0.1 0.01,-0.17 0,-0.24 -0.01,-0.06 -0.04,-0.12 -0.07,-0.16 -0.04,-0.05 -0.11,-0.11 -0.22,-0.18 l 0.05,-0.25 1.56,0.35 -0.06,0.25 c -0.15,0.02 -0.26,0.05 -0.33,0.09 -0.07,0.05 -0.13,0.13 -0.17,0.25 -0.04,0.11 -0.1,0.31 -0.16,0.6 l -0.81,3.64 c -0.08,0.34 -0.11,0.62 -0.11,0.86 0,0.24 0.03,0.43 0.09,0.57 0.06,0.15 0.15,0.26 0.26,0.35 0.12,0.09 0.26,0.15 0.45,0.19 0.17,0.04 0.33,0.03 0.48,-0.03 0.15,-0.05 0.29,-0.16 0.42,-0.31 0.12,-0.15 0.23,-0.35 0.32,-0.59 0.09,-0.24 0.18,-0.58 0.28,-1 l 0.72,-3.22 c 0.07,-0.3 0.1,-0.5 0.11,-0.62 0,-0.11 -0.01,-0.21 -0.05,-0.28 -0.04,-0.06 -0.12,-0.15 -0.26,-0.23 l 0.06,-0.25 1.48,0.33 -0.05,0.25 c -0.15,0.02 -0.27,0.06 -0.33,0.11 -0.07,0.05 -0.12,0.13 -0.17,0.24 -0.05,0.11 -0.1,0.31 -0.16,0.59 z"
   id="path6484"
   style="stroke-width:0.533502" />
		<path
   class="st21"
   d="m 249.49,307.87 0.99,0.11 c 0.11,0.01 0.2,0.02 0.27,0 0.08,-0.01 0.14,-0.03 0.2,-0.06 0.06,-0.03 0.11,-0.08 0.16,-0.13 0.05,-0.06 0.1,-0.14 0.15,-0.24 0.05,-0.1 0.1,-0.23 0.15,-0.38 0.05,-0.16 0.12,-0.39 0.21,-0.71 l 0.38,0.04 -0.31,2.1 -3.39,-0.38 0.03,-0.25 c 0.16,-0.04 0.27,-0.09 0.33,-0.15 0.06,-0.06 0.11,-0.16 0.14,-0.28 0.03,-0.13 0.06,-0.31 0.09,-0.57 l 0.5,-4.54 c 0.03,-0.24 0.04,-0.42 0.04,-0.53 0,-0.11 -0.02,-0.2 -0.04,-0.26 -0.02,-0.07 -0.05,-0.12 -0.1,-0.16 -0.04,-0.04 -0.12,-0.09 -0.23,-0.15 l 0.03,-0.26 1.59,0.18 -0.03,0.25 c -0.12,0.03 -0.2,0.06 -0.25,0.09 -0.05,0.03 -0.09,0.07 -0.13,0.12 -0.04,0.05 -0.07,0.13 -0.1,0.25 -0.03,0.11 -0.06,0.3 -0.08,0.55 z"
   id="path6486"
   style="stroke-width:0.533502" />
		<path
   class="st21"
   d="m 252.04,301.42 4.11,0.1 -0.05,1.83 -0.37,-0.01 c -0.05,-0.3 -0.1,-0.54 -0.15,-0.72 -0.05,-0.17 -0.1,-0.31 -0.16,-0.41 -0.06,-0.09 -0.12,-0.16 -0.19,-0.2 -0.07,-0.04 -0.17,-0.06 -0.31,-0.07 l -0.48,-0.01 -0.13,5.4 c -0.01,0.21 0,0.37 0.01,0.5 0.01,0.12 0.04,0.22 0.07,0.29 0.03,0.07 0.08,0.13 0.14,0.17 0.06,0.05 0.15,0.09 0.27,0.13 v 0.26 l -1.74,-0.04 0.01,-0.26 c 0.08,-0.02 0.14,-0.05 0.2,-0.08 0.06,-0.03 0.11,-0.06 0.15,-0.1 0.04,-0.04 0.07,-0.09 0.09,-0.15 0.03,-0.06 0.05,-0.15 0.07,-0.26 0.02,-0.11 0.02,-0.27 0.03,-0.48 l 0.14,-5.41 -0.48,-0.01 c -0.12,0 -0.22,0.01 -0.3,0.04 -0.08,0.03 -0.15,0.09 -0.22,0.2 -0.07,0.1 -0.13,0.24 -0.19,0.42 -0.06,0.18 -0.11,0.42 -0.17,0.7 l -0.37,-0.01 z"
   id="path6488"
   style="stroke-width:0.533502" />
		<path
   class="st21"
   d="m 260.77,305.87 c 0.03,0.38 0.04,0.71 0.01,1 -0.02,0.27 -0.08,0.5 -0.15,0.72 -0.07,0.19 -0.17,0.35 -0.29,0.49 -0.12,0.14 -0.27,0.25 -0.45,0.34 -0.18,0.09 -0.4,0.15 -0.65,0.17 -0.31,0.03 -0.57,0 -0.79,-0.07 -0.23,-0.08 -0.43,-0.21 -0.58,-0.42 -0.16,-0.2 -0.29,-0.45 -0.38,-0.74 -0.09,-0.29 -0.15,-0.66 -0.19,-1.11 l -0.31,-3.46 c -0.02,-0.27 -0.05,-0.46 -0.07,-0.55 -0.02,-0.09 -0.05,-0.17 -0.08,-0.22 -0.03,-0.05 -0.07,-0.1 -0.12,-0.14 -0.05,-0.04 -0.14,-0.07 -0.26,-0.11 l -0.02,-0.26 1.59,-0.14 0.02,0.26 c -0.13,0.06 -0.23,0.13 -0.28,0.19 -0.05,0.07 -0.08,0.16 -0.09,0.29 -0.01,0.13 0,0.33 0.02,0.62 l 0.33,3.72 c 0.03,0.34 0.08,0.62 0.15,0.85 0.07,0.22 0.16,0.4 0.27,0.52 0.11,0.12 0.22,0.2 0.36,0.25 0.13,0.05 0.3,0.06 0.49,0.04 0.18,-0.02 0.33,-0.07 0.46,-0.17 0.12,-0.09 0.23,-0.24 0.3,-0.42 0.07,-0.18 0.11,-0.4 0.12,-0.66 0.01,-0.26 0,-0.61 -0.04,-1.04 l -0.29,-3.29 c -0.03,-0.31 -0.05,-0.52 -0.09,-0.62 -0.03,-0.11 -0.07,-0.19 -0.13,-0.25 -0.06,-0.05 -0.16,-0.11 -0.32,-0.15 l -0.02,-0.26 1.51,-0.13 0.02,0.26 c -0.14,0.06 -0.23,0.13 -0.28,0.2 -0.05,0.07 -0.08,0.16 -0.09,0.28 -0.01,0.12 0,0.33 0.02,0.61 z"
   id="path6490"
   style="stroke-width:0.533502" />
		<path
   class="st21"
   d="m 263.23,304.8 0.37,1.76 c 0.05,0.24 0.09,0.42 0.13,0.53 0.04,0.11 0.08,0.19 0.11,0.24 0.04,0.05 0.09,0.09 0.14,0.11 0.05,0.03 0.14,0.05 0.27,0.07 l 0.05,0.25 -1.57,0.33 -0.06,-0.26 c 0.14,-0.08 0.23,-0.17 0.27,-0.25 0.04,-0.08 0.05,-0.18 0.04,-0.31 -0.01,-0.13 -0.04,-0.32 -0.09,-0.57 l -0.93,-4.47 c -0.05,-0.24 -0.09,-0.41 -0.13,-0.52 -0.03,-0.1 -0.07,-0.19 -0.11,-0.24 -0.04,-0.06 -0.09,-0.09 -0.15,-0.12 -0.05,-0.03 -0.14,-0.05 -0.27,-0.07 l -0.06,-0.25 1.84,-0.39 c 0.58,-0.12 1.04,-0.07 1.39,0.17 0.35,0.23 0.58,0.66 0.71,1.27 0.1,0.47 0.09,0.89 -0.03,1.26 -0.12,0.37 -0.34,0.69 -0.68,0.95 l 0.01,0.04 c 0.17,0.05 0.33,0.15 0.46,0.29 0.14,0.14 0.31,0.36 0.51,0.67 l 0.51,0.78 c 0.15,0.23 0.27,0.4 0.37,0.51 0.1,0.12 0.19,0.2 0.27,0.26 0.09,0.05 0.19,0.08 0.32,0.08 l 0.05,0.25 -1.03,0.22 c -0.13,-0.17 -0.26,-0.34 -0.39,-0.54 -0.13,-0.19 -0.26,-0.39 -0.38,-0.59 l -0.5,-0.8 c -0.15,-0.24 -0.28,-0.42 -0.37,-0.53 -0.09,-0.11 -0.16,-0.18 -0.23,-0.23 -0.06,-0.04 -0.13,-0.06 -0.19,-0.07 -0.06,-0.01 -0.15,0 -0.28,0.03 z m -0.73,-3.51 0.64,3.07 0.42,-0.08 c 0.22,-0.05 0.39,-0.11 0.51,-0.17 0.13,-0.07 0.23,-0.18 0.32,-0.32 0.09,-0.14 0.14,-0.33 0.17,-0.56 0.02,-0.23 0.01,-0.5 -0.06,-0.81 -0.07,-0.33 -0.17,-0.59 -0.29,-0.79 -0.12,-0.2 -0.28,-0.34 -0.47,-0.42 -0.19,-0.08 -0.42,-0.09 -0.7,-0.03 -0.23,0.02 -0.41,0.07 -0.54,0.11 z"
   id="path6492"
   style="stroke-width:0.533502" />
		<path
   class="st21"
   d="m 270.43,306.11 -0.08,-0.24 c 0.11,-0.07 0.19,-0.14 0.23,-0.2 0.05,-0.06 0.07,-0.13 0.07,-0.21 0.01,-0.08 -0.01,-0.18 -0.05,-0.3 -0.04,-0.11 -0.09,-0.23 -0.15,-0.36 -0.06,-0.12 -0.14,-0.26 -0.23,-0.42 l -0.35,-0.6 -1.68,0.56 0.04,0.53 c 0.02,0.27 0.04,0.47 0.07,0.6 0.02,0.13 0.05,0.25 0.09,0.36 0.07,0.2 0.15,0.33 0.26,0.4 0.1,0.07 0.24,0.09 0.4,0.08 l 0.08,0.24 -1.54,0.52 -0.08,-0.25 c 0.12,-0.08 0.2,-0.22 0.24,-0.44 0.04,-0.22 0.04,-0.52 0.02,-0.9 l -0.35,-6.04 0.57,-0.19 3.09,5.17 c 0.14,0.24 0.26,0.42 0.35,0.55 0.09,0.12 0.18,0.21 0.27,0.27 0.09,0.06 0.19,0.08 0.31,0.08 l 0.08,0.25 z m -2.29,-2.25 1.5,-0.5 -1.76,-3 z"
   id="path6494"
   style="stroke-width:0.533502" />
		<path
   class="st21"
   d="m 273.89,304.21 0.9,-0.42 c 0.1,-0.05 0.18,-0.09 0.24,-0.14 0.06,-0.05 0.11,-0.1 0.14,-0.15 0.03,-0.06 0.05,-0.12 0.06,-0.2 0.01,-0.08 0.01,-0.17 0,-0.28 -0.01,-0.11 -0.03,-0.25 -0.07,-0.41 -0.04,-0.16 -0.1,-0.39 -0.19,-0.71 l 0.35,-0.15 0.82,1.96 -3.1,1.42 -0.11,-0.23 c 0.12,-0.12 0.19,-0.22 0.21,-0.31 0.02,-0.08 0.01,-0.19 -0.02,-0.31 -0.04,-0.12 -0.11,-0.3 -0.22,-0.54 l -1.91,-4.15 c -0.1,-0.22 -0.18,-0.38 -0.24,-0.48 -0.06,-0.1 -0.11,-0.16 -0.16,-0.21 -0.05,-0.04 -0.11,-0.07 -0.17,-0.09 -0.06,-0.01 -0.15,-0.02 -0.27,-0.01 l -0.11,-0.23 1.45,-0.67 0.11,0.24 c -0.08,0.09 -0.14,0.15 -0.17,0.2 -0.03,0.05 -0.05,0.11 -0.05,0.17 0,0.06 0.01,0.15 0.04,0.27 0.04,0.11 0.1,0.28 0.21,0.51 z"
   id="path6496"
   style="stroke-width:0.533502" />
		<path
   class="st21"
   d="m 280.8,297.98 c 0.21,0.32 0.37,0.61 0.48,0.87 0.11,0.25 0.17,0.48 0.21,0.71 0.02,0.2 0.02,0.39 -0.02,0.57 -0.04,0.18 -0.12,0.35 -0.23,0.52 -0.11,0.16 -0.28,0.32 -0.49,0.46 -0.26,0.17 -0.5,0.27 -0.73,0.32 -0.24,0.04 -0.47,0.01 -0.71,-0.09 -0.24,-0.1 -0.47,-0.26 -0.68,-0.47 -0.22,-0.21 -0.45,-0.5 -0.7,-0.88 l -1.91,-2.9 c -0.15,-0.23 -0.26,-0.38 -0.32,-0.45 -0.06,-0.07 -0.12,-0.13 -0.17,-0.16 -0.05,-0.03 -0.11,-0.05 -0.17,-0.06 -0.06,-0.01 -0.16,0 -0.29,0.03 l -0.14,-0.22 1.33,-0.88 0.14,0.22 c -0.09,0.12 -0.14,0.22 -0.16,0.3 -0.01,0.08 0.01,0.18 0.06,0.29 0.05,0.12 0.16,0.29 0.32,0.53 l 2.06,3.12 c 0.19,0.28 0.37,0.51 0.54,0.67 0.17,0.16 0.33,0.28 0.48,0.33 0.15,0.05 0.29,0.07 0.43,0.05 0.14,-0.02 0.29,-0.08 0.45,-0.19 0.15,-0.09 0.25,-0.22 0.32,-0.36 0.06,-0.15 0.09,-0.32 0.06,-0.51 -0.02,-0.2 -0.09,-0.41 -0.21,-0.64 -0.11,-0.23 -0.29,-0.53 -0.53,-0.89 l -1.81,-2.75 c -0.17,-0.25 -0.29,-0.42 -0.37,-0.51 -0.08,-0.08 -0.16,-0.13 -0.23,-0.16 -0.07,-0.02 -0.19,-0.01 -0.35,0.02 l -0.14,-0.22 1.26,-0.83 0.14,0.22 c -0.09,0.12 -0.14,0.23 -0.15,0.31 -0.01,0.08 0.01,0.18 0.06,0.29 0.05,0.11 0.15,0.29 0.31,0.53 z"
   id="path6498"
   style="stroke-width:0.533502" />
		<path
   class="st21"
   d="m 284.1,294.84 c 0.21,0.1 0.38,0.19 0.54,0.27 0.15,0.08 0.31,0.17 0.49,0.28 l 0.04,-0.03 c -0.15,-0.15 -0.43,-0.47 -0.86,-0.95 -0.42,-0.48 -0.8,-0.91 -1.13,-1.31 l -0.71,-0.84 c -0.16,-0.18 -0.28,-0.32 -0.36,-0.4 -0.08,-0.08 -0.15,-0.13 -0.21,-0.16 -0.06,-0.03 -0.12,-0.04 -0.18,-0.04 -0.06,0 -0.15,0.02 -0.27,0.06 l -0.17,-0.2 1.04,-0.89 0.17,0.2 c -0.06,0.11 -0.1,0.19 -0.11,0.24 -0.01,0.06 -0.01,0.12 0,0.18 0.01,0.06 0.05,0.14 0.11,0.24 0.06,0.09 0.17,0.24 0.34,0.43 l 3.83,4.5 -0.36,0.31 -4.81,-2.38 c -0.3,-0.15 -0.52,-0.26 -0.65,-0.33 -0.13,-0.07 -0.26,-0.14 -0.39,-0.22 l -0.05,0.04 c 0.19,0.2 0.52,0.56 0.99,1.09 0.46,0.54 0.93,1.07 1.38,1.61 l 0.7,0.82 c 0.15,0.18 0.27,0.31 0.35,0.38 0.08,0.08 0.15,0.13 0.21,0.16 0.06,0.03 0.12,0.04 0.19,0.04 0.06,0 0.16,-0.03 0.27,-0.06 l 0.17,0.19 -1.05,0.9 -0.17,-0.2 c 0.08,-0.14 0.12,-0.26 0.12,-0.35 -0.01,-0.09 -0.04,-0.18 -0.11,-0.29 -0.07,-0.11 -0.19,-0.26 -0.36,-0.46 l -2.96,-3.47 c -0.16,-0.18 -0.28,-0.31 -0.36,-0.39 -0.08,-0.07 -0.15,-0.13 -0.22,-0.16 -0.06,-0.03 -0.12,-0.04 -0.19,-0.04 -0.06,0 -0.15,0.03 -0.27,0.07 l -0.17,-0.2 0.91,-0.77 z"
   id="path6500"
   style="stroke-width:0.533502" />
		<path
   class="st21"
   d="m 287.77,293.42 c 0.17,0.17 0.29,0.28 0.38,0.35 0.09,0.07 0.17,0.12 0.23,0.14 0.06,0.03 0.13,0.03 0.19,0.03 0.07,-0.01 0.15,-0.04 0.27,-0.09 l 0.18,0.18 -1.12,1.15 -0.18,-0.18 c 0.07,-0.15 0.1,-0.27 0.08,-0.36 -0.01,-0.09 -0.06,-0.18 -0.14,-0.28 -0.08,-0.1 -0.21,-0.24 -0.4,-0.42 l -3.27,-3.19 c -0.18,-0.17 -0.31,-0.29 -0.4,-0.36 -0.09,-0.07 -0.17,-0.11 -0.23,-0.13 -0.07,-0.02 -0.13,-0.03 -0.19,-0.02 -0.06,0.01 -0.15,0.04 -0.26,0.09 l -0.19,-0.18 1.12,-1.15 0.19,0.18 c -0.05,0.11 -0.08,0.19 -0.09,0.25 -0.01,0.06 0,0.12 0.02,0.19 0.02,0.06 0.07,0.14 0.14,0.23 0.07,0.09 0.2,0.22 0.37,0.39 z"
   id="path6502"
   style="stroke-width:0.533502" />
		<path
   class="st21"
   d="m 285.24,287.45 0.2,0.16 c -0.05,0.11 -0.08,0.2 -0.09,0.27 -0.01,0.08 0.01,0.15 0.06,0.22 0.04,0.07 0.11,0.15 0.21,0.23 0.09,0.07 0.2,0.15 0.32,0.22 0.12,0.07 0.26,0.15 0.42,0.23 l 3.9,2.04 -2.67,-3.59 c -0.04,-0.05 -0.09,-0.11 -0.13,-0.17 -0.05,-0.06 -0.09,-0.12 -0.14,-0.17 -0.05,-0.05 -0.09,-0.1 -0.13,-0.14 -0.04,-0.03 -0.08,-0.07 -0.11,-0.1 -0.16,-0.13 -0.3,-0.2 -0.42,-0.21 -0.12,-0.01 -0.25,0.04 -0.38,0.15 l -0.2,-0.16 1.01,-1.23 0.2,0.16 c -0.04,0.1 -0.05,0.2 -0.04,0.29 0.01,0.1 0.05,0.21 0.13,0.35 0.08,0.14 0.21,0.35 0.4,0.63 l 3.53,4.92 -0.32,0.39 -5.36,-2.74 c -0.29,-0.15 -0.5,-0.25 -0.64,-0.29 -0.14,-0.05 -0.25,-0.07 -0.34,-0.07 -0.09,0 -0.18,0.03 -0.28,0.1 l -0.2,-0.17 z"
   id="path6504"
   style="stroke-width:0.533502" />
		<path
   class="st21"
   d="m 289.1,282.06 1.33,0.87 -0.2,0.31 c -0.17,-0.06 -0.31,-0.11 -0.44,-0.15 -0.13,-0.04 -0.25,-0.06 -0.34,-0.07 -0.09,-0.01 -0.18,-0.01 -0.25,0.01 -0.07,0.01 -0.13,0.05 -0.19,0.09 -0.05,0.05 -0.1,0.12 -0.16,0.2 l -0.66,1 2.32,1.51 0.44,-0.68 c 0.06,-0.09 0.09,-0.18 0.09,-0.26 0,-0.08 -0.04,-0.16 -0.1,-0.26 -0.07,-0.09 -0.18,-0.21 -0.35,-0.37 l 0.19,-0.3 1.7,1.11 -0.19,0.3 c -0.19,-0.09 -0.35,-0.14 -0.46,-0.16 -0.11,-0.02 -0.21,-0.02 -0.28,0 -0.07,0.03 -0.14,0.09 -0.21,0.19 l -0.44,0.68 2.55,1.66 0.64,-0.99 c 0.07,-0.1 0.11,-0.19 0.13,-0.28 0.02,-0.08 0.01,-0.17 -0.02,-0.25 -0.03,-0.09 -0.08,-0.18 -0.16,-0.28 -0.07,-0.1 -0.16,-0.19 -0.24,-0.29 -0.09,-0.09 -0.22,-0.22 -0.39,-0.4 l 0.21,-0.31 1.51,1.07 -1.92,2.95 -0.22,-0.14 c 0.04,-0.16 0.05,-0.29 0.02,-0.37 -0.03,-0.08 -0.09,-0.17 -0.19,-0.25 -0.1,-0.08 -0.25,-0.19 -0.47,-0.34 l -3.83,-2.49 c -0.2,-0.13 -0.36,-0.22 -0.45,-0.27 -0.1,-0.05 -0.18,-0.08 -0.25,-0.09 -0.07,-0.01 -0.13,0 -0.19,0.02 -0.06,0.02 -0.14,0.07 -0.24,0.14 l -0.22,-0.14 z"
   id="path6506"
   style="stroke-width:0.533502" />
		<path
   class="st21"
   d="m 293.59,282.3 1.6,0.81 c 0.23,0.12 0.39,0.19 0.5,0.23 0.11,0.04 0.19,0.06 0.26,0.06 0.06,0 0.13,-0.01 0.18,-0.04 0.05,-0.03 0.13,-0.08 0.22,-0.17 l 0.23,0.12 -0.72,1.43 -0.23,-0.12 c 0.02,-0.17 0.01,-0.29 -0.03,-0.37 -0.04,-0.08 -0.11,-0.15 -0.21,-0.22 -0.11,-0.07 -0.27,-0.16 -0.51,-0.28 l -4.08,-2.05 c -0.22,-0.11 -0.38,-0.18 -0.48,-0.22 -0.1,-0.04 -0.19,-0.06 -0.26,-0.06 -0.07,0 -0.13,0.01 -0.18,0.04 -0.05,0.03 -0.13,0.08 -0.22,0.16 l -0.23,-0.11 0.84,-1.68 c 0.27,-0.53 0.6,-0.86 1,-0.99 0.4,-0.13 0.88,-0.05 1.44,0.23 0.43,0.22 0.75,0.49 0.97,0.81 0.21,0.32 0.33,0.7 0.32,1.13 l 0.03,0.02 c 0.15,-0.1 0.32,-0.16 0.52,-0.19 0.2,-0.03 0.48,-0.02 0.85,0.01 l 0.93,0.08 c 0.27,0.03 0.48,0.04 0.63,0.03 0.15,0 0.27,-0.02 0.37,-0.06 0.09,-0.03 0.19,-0.1 0.26,-0.2 l 0.23,0.12 -0.48,0.94 c -0.21,0 -0.43,-0.01 -0.66,-0.03 -0.23,-0.02 -0.46,-0.04 -0.7,-0.07 l -0.94,-0.1 c -0.29,-0.03 -0.5,-0.04 -0.64,-0.04 -0.14,0 -0.25,0.02 -0.32,0.04 -0.07,0.03 -0.13,0.06 -0.17,0.11 -0.04,0.05 -0.1,0.13 -0.15,0.24 z m -3.21,-1.61 2.8,1.41 0.19,-0.38 c 0.1,-0.2 0.16,-0.36 0.19,-0.5 0.02,-0.15 0,-0.29 -0.06,-0.46 -0.06,-0.16 -0.17,-0.32 -0.33,-0.48 -0.16,-0.17 -0.39,-0.31 -0.68,-0.46 -0.3,-0.15 -0.57,-0.24 -0.8,-0.26 -0.23,-0.03 -0.44,0.01 -0.62,0.11 -0.18,0.09 -0.33,0.27 -0.46,0.52 -0.1,0.2 -0.17,0.37 -0.23,0.5 z"
   id="path6508"
   style="stroke-width:0.533502" />
		<path
   class="st21"
   d="m 296.7,279.17 c 0.31,0.06 0.56,0.09 0.76,0.07 0.2,-0.02 0.37,-0.07 0.49,-0.17 0.13,-0.09 0.23,-0.25 0.31,-0.45 0.11,-0.27 0.08,-0.53 -0.06,-0.75 -0.15,-0.23 -0.41,-0.41 -0.79,-0.56 -0.24,-0.1 -0.46,-0.14 -0.66,-0.14 -0.19,0 -0.38,0.04 -0.58,0.12 -0.2,0.08 -0.46,0.23 -0.76,0.44 -0.3,0.2 -0.57,0.35 -0.81,0.44 -0.25,0.09 -0.49,0.13 -0.73,0.13 -0.24,0 -0.49,-0.05 -0.75,-0.15 -0.37,-0.14 -0.67,-0.33 -0.89,-0.55 -0.22,-0.23 -0.36,-0.49 -0.42,-0.79 -0.06,-0.29 -0.02,-0.6 0.09,-0.91 0.07,-0.18 0.15,-0.35 0.24,-0.51 0.09,-0.16 0.23,-0.36 0.42,-0.58 l 1.33,0.51 -0.13,0.35 c -0.31,-0.06 -0.56,-0.07 -0.76,-0.05 -0.19,0.02 -0.34,0.08 -0.45,0.16 -0.11,0.09 -0.19,0.22 -0.26,0.4 -0.06,0.15 -0.07,0.31 -0.04,0.46 0.03,0.15 0.12,0.29 0.25,0.42 0.13,0.13 0.31,0.24 0.53,0.32 0.24,0.09 0.44,0.13 0.63,0.13 0.18,0 0.37,-0.04 0.55,-0.11 0.19,-0.07 0.41,-0.2 0.68,-0.39 0.33,-0.22 0.61,-0.38 0.85,-0.48 0.25,-0.1 0.5,-0.15 0.77,-0.15 0.27,-0.01 0.56,0.05 0.86,0.17 0.35,0.13 0.62,0.28 0.83,0.45 0.21,0.17 0.36,0.35 0.46,0.54 0.1,0.19 0.14,0.4 0.13,0.62 -0.01,0.22 -0.05,0.44 -0.14,0.67 -0.14,0.37 -0.39,0.76 -0.75,1.18 l -1.35,-0.52 z"
   id="path6510"
   style="stroke-width:0.533502" />
		<path
   class="st21"
   d="m 298.62,274.58 c 0.22,0.07 0.39,0.11 0.5,0.13 0.1,0.02 0.2,0.03 0.26,0.02 0.07,-0.01 0.13,-0.03 0.19,-0.07 0.05,-0.04 0.12,-0.11 0.19,-0.21 l 0.25,0.07 -0.45,1.54 -0.25,-0.07 c -0.01,-0.17 -0.04,-0.29 -0.09,-0.36 -0.05,-0.07 -0.14,-0.13 -0.25,-0.18 -0.12,-0.05 -0.3,-0.12 -0.55,-0.19 l -4.38,-1.29 c -0.23,-0.07 -0.4,-0.11 -0.51,-0.13 -0.11,-0.02 -0.2,-0.02 -0.27,-0.01 -0.07,0.01 -0.13,0.03 -0.18,0.07 -0.05,0.04 -0.11,0.1 -0.19,0.2 l -0.25,-0.07 0.45,-1.54 0.25,0.07 c 0,0.12 0.02,0.2 0.04,0.26 0.02,0.06 0.06,0.11 0.11,0.16 0.05,0.05 0.12,0.09 0.23,0.14 0.11,0.05 0.28,0.1 0.51,0.17 z"
   id="path6512"
   style="stroke-width:0.533502" />
		<path
   class="st21"
   d="m 293.28,272.01 0.82,-4.02 1.8,0.37 -0.08,0.36 c -0.31,0 -0.55,0 -0.74,0.02 -0.18,0.02 -0.33,0.05 -0.43,0.09 -0.1,0.04 -0.18,0.09 -0.23,0.15 -0.05,0.06 -0.09,0.16 -0.12,0.29 l -0.09,0.48 5.3,1.08 c 0.2,0.04 0.37,0.06 0.49,0.07 0.12,0.01 0.22,0 0.3,-0.02 0.07,-0.02 0.14,-0.05 0.19,-0.1 0.05,-0.05 0.11,-0.13 0.17,-0.25 l 0.25,0.05 -0.35,1.7 -0.26,-0.05 c -0.01,-0.07 -0.02,-0.15 -0.03,-0.21 -0.02,-0.07 -0.05,-0.12 -0.08,-0.16 -0.03,-0.04 -0.07,-0.09 -0.14,-0.12 -0.05,-0.04 -0.14,-0.07 -0.24,-0.11 -0.1,-0.04 -0.26,-0.07 -0.47,-0.12 l -5.29,-1.08 -0.1,0.47 c -0.02,0.12 -0.03,0.22 -0.01,0.3 0.02,0.08 0.07,0.17 0.15,0.25 0.08,0.08 0.21,0.17 0.38,0.26 0.17,0.09 0.39,0.19 0.66,0.29 l -0.08,0.37 z"
   id="path6514"
   style="stroke-width:0.533502" />
		<path
   class="st21"
   d="m 298.44,266.56 -2.79,0.79 c -0.34,0.1 -0.58,0.17 -0.73,0.22 -0.14,0.05 -0.26,0.11 -0.34,0.16 -0.09,0.06 -0.15,0.13 -0.2,0.21 l -0.26,-0.03 0.15,-1.61 0.25,0.02 c 0.02,0.24 0.15,0.38 0.39,0.39 0.1,0.01 0.22,0 0.35,-0.02 0.13,-0.02 0.31,-0.07 0.55,-0.13 l 2.07,-0.57 -1.76,-0.91 c -0.24,-0.13 -0.44,-0.22 -0.59,-0.27 -0.15,-0.06 -0.3,-0.09 -0.43,-0.11 -0.13,-0.01 -0.23,0.01 -0.3,0.06 -0.08,0.05 -0.13,0.12 -0.15,0.23 l -0.25,-0.03 0.13,-1.43 0.26,0.02 c 0.04,0.11 0.11,0.21 0.19,0.29 0.08,0.08 0.2,0.18 0.35,0.27 0.15,0.09 0.41,0.24 0.76,0.43 l 2.39,1.28 1.7,0.16 c 0.2,0.02 0.36,0.03 0.49,0.02 0.12,0 0.22,-0.02 0.3,-0.05 0.08,-0.03 0.14,-0.07 0.19,-0.13 0.05,-0.05 0.09,-0.14 0.14,-0.26 l 0.26,0.03 -0.16,1.73 -0.26,-0.02 c -0.03,-0.13 -0.05,-0.22 -0.09,-0.28 -0.04,-0.07 -0.09,-0.12 -0.16,-0.16 -0.07,-0.04 -0.17,-0.08 -0.29,-0.1 -0.12,-0.03 -0.28,-0.05 -0.49,-0.07 z"
   id="path6516"
   style="stroke-width:0.533502" />
	</g>
	<path
   class="st21"
   d="m 217.98,237.02 c -1.78,0.57 -0.5,2.53 -1.31,3.84 -0.04,0.71 -0.74,0.24 -1.09,0.68 -0.2,0.19 -0.34,0.58 -0.29,0.85 0.04,0.55 0.52,0.36 0.94,0.6 0.64,1.12 -0.04,2.32 0.15,3.48 l -0.6,0.36 c -0.79,-0.02 -0.22,-0.93 -0.48,-1.4 0.45,-1.1 -1,-1.35 -1.18,-2.4 0.2,-0.65 0.12,-1.29 0.18,-1.94 -0.19,-1.01 -0.43,-2.16 -0.99,-2.99 -0.2,-0.2 -0.6,-0.42 -0.88,-0.21 -0.71,0.65 -0.63,1.59 -0.64,2.45 l -1,0.42 c -1.41,1.34 1.34,1.45 1.35,2.75 -0.04,0.47 -0.17,1.14 -0.58,1.42 -0.09,0.27 -0.24,0.56 -0.09,0.83 0.25,0.11 0.4,0.48 0.74,0.34 0.6,-0.18 0.76,-0.76 1.15,-1.14 0.49,0.12 0.65,0.63 0.88,1.06 0.66,1.22 -1.21,2.77 0.23,3.79 1.07,1.04 2.42,0.33 3.67,0.96 0.45,-0.29 1,-0.27 1.15,-0.85 -0.5,-0.23 -1.18,0.02 -1.77,0.16 -0.46,-0.21 -0.64,-0.88 -0.78,-1.32 0.06,-0.68 -0.21,-1.57 0.32,-2.08 0.77,-0.6 0.67,0.71 1.1,0.94 0.33,-0.01 0.74,-0.05 0.98,-0.33 0.3,-0.48 0.53,-1.14 0.58,-1.71 0.8,-0.57 0.98,0.7 1.73,0.77 0.37,-0.04 0.28,-0.47 0.43,-0.7 0.09,-0.61 -0.68,-0.67 -1.14,-0.86 -0.29,0.02 -0.57,0.26 -0.88,0.08 0.07,-0.58 0.28,-1.17 0.21,-1.74 -0.01,-0.5 -0.65,-0.54 -0.96,-0.81 -0.33,-0.11 -0.35,0.21 -0.51,0.4 0.21,0.75 0.11,1.53 0.07,2.31 l -0.23,0.11 c -0.9,-0.4 -0.28,-1.34 -0.56,-2 -1.21,-0.86 -0.24,-2.3 -0.35,-3.44 0.08,-0.47 0.1,-1.26 0.75,-1.37 1.32,0.29 2.48,1.1 3.72,1.64 0.4,0.51 1.3,0.77 1.18,1.55 -0.35,0.91 -1.07,1.53 -1.92,2.01 0.45,-0.03 0.8,-0.45 1.15,-0.57 0.07,0.47 -0.69,0.51 -0.81,0.96 l 1.15,-0.56 c 0.48,-0.81 1.59,-1.07 1.92,-2.01 -0.24,-1.2 -1.25,-2.16 -2.47,-2.55 -1.39,-0.56 -2.72,-1.43 -4.22,-1.78 z m -1.49,12.53 c -0.53,0.08 -0.89,-0.37 -1.33,-0.54 -0.14,-0.31 -0.13,-0.63 0.03,-0.95 0.34,-0.04 0.67,-0.28 1,-0.42 0.19,0.56 0.23,1.27 0.3,1.91 z m 2.21,-3.15 -0.17,-0.06 c 0.03,-0.09 0.04,-0.21 0.17,-0.22 0.09,0.08 0.02,0.19 0,0.28 z m -1.33,-1.12 c 0.06,0.16 -0.02,0.68 -0.35,0.74 -0.14,-0.29 -0.08,-0.73 0.1,-1.11 0.05,0.16 0.2,0.2 0.25,0.37 z"
   id="path6520"
   style="stroke-width:0.533502" />
	<path
   class="st21"
   d="m 294.99,248.66 c 0.63,0.48 0.81,1.73 1.87,1.45 0.08,-0.33 -0.2,-0.47 -0.31,-0.71 -0.36,-1.4 -0.61,-2.85 -1.1,-4.19 -0.81,-0.66 -0.68,-1.75 -1.38,-2.46 -0.44,-1.17 -1.34,-2.12 -1.87,-3.24 0.05,-0.11 0.17,-0.09 0.27,-0.1 1.59,2.06 2.8,4.29 3.93,6.57 0.35,0.56 0.15,1.37 0.63,1.86 1.05,0.36 0.34,-1.3 1.28,-1.33 0.42,0.25 1.15,0.09 1.3,0.66 0.22,0.51 0.65,1.16 1.31,1.11 0.63,-0.64 1.12,0.33 1.81,0.09 0.89,0.12 0.57,-1.3 -0.15,-1.26 -1.98,0.48 -1.91,-1.69 -3.1,-2.55 -0.4,-0.25 -0.89,-0.5 -1.21,-0.75 0.59,-0.13 1.15,-0.33 1.58,-0.8 0.18,-0.49 -0.03,-1.02 -0.24,-1.43 -0.68,0.19 -1.26,0.58 -1.96,0.73 -0.6,0.26 -1.15,0.66 -1.76,0.9 -0.17,-0.1 -0.21,-0.25 -0.2,-0.44 0.67,-0.51 1.67,-0.68 2,-1.54 0.03,-0.51 1.24,-1.06 0.38,-1.46 -1.43,-0.36 -2.39,0.73 -3.35,1.6 -0.86,-1.05 -1.69,-2.27 -2.85,-3.02 l -0.54,0.02 c -0.22,0.14 -0.57,0.39 -0.41,0.74 0.38,0.03 0.63,0.45 0.94,0.67 1.6,2.67 3.21,5.34 4.01,8.38 l -0.17,0.19 c -0.31,-0.17 -0.32,-0.49 -0.58,-0.69 -0.58,-1.78 -1.72,-3.28 -2.58,-4.93 -0.31,-0.3 -0.47,0.2 -0.7,0.3 -0.1,0.42 0.22,0.65 0.31,0.98 0.25,0.89 1.19,1.7 0.76,2.67 -0.61,-0.11 -0.5,-0.9 -1.05,-1.21 -0.75,0.06 -0.62,0.92 -1.11,1.31 l -0.28,-0.16 c -0.22,-0.6 -0.45,-1.3 -0.28,-1.97 -0.24,-0.46 -0.79,-0.87 -0.61,-1.42 0.06,0.05 0.1,0.12 0.18,0.08 -0.11,-0.35 0.19,-0.9 -0.32,-1.06 -0.31,0.01 -0.57,0.11 -0.79,0.31 -0.06,0.39 0.14,0.65 0.22,0.98 -0.53,0.62 0.78,0.93 -0.02,1.45 -0.17,0.06 -0.26,-0.07 -0.37,-0.17 -0.07,-0.15 0.1,-0.22 0.08,-0.36 l -0.93,1.31 -0.19,1.63 c 0.06,0.85 0.95,0.18 1.38,0.48 0.58,0.15 0.97,0.79 0.96,1.3 0.34,0.56 1.01,0.18 1.47,0.38 -0.24,-0.79 -0.05,-1.45 -0.29,-2.24 0.23,-0.23 0.5,-0.67 0.87,-0.76 0.54,0.53 0.53,1.53 1.43,1.65 0.56,-0.16 0.03,-0.64 0.13,-1 0.12,-1.21 -0.33,-2.39 -0.88,-3.39 0.05,-0.05 0.09,-0.12 0.18,-0.1 0.86,1.6 1.62,3.25 2.3,4.94 z m 3.41,-4.13 c 0.31,0.47 0.96,0.75 0.88,1.4 -0.31,-0.02 -0.5,-0.5 -0.84,-0.59 -0.32,0.27 -0.77,0.28 -1.15,0.42 -0.26,-0.49 -0.69,-0.9 -0.7,-1.5 0.61,-0.53 1.24,0.07 1.81,0.27 z m -9.69,1.19 c 0.11,-0.06 0.08,-0.17 0.08,-0.27 0.7,-0.01 0.54,0.87 0.61,1.41 -0.54,-0.08 -0.17,-0.89 -0.69,-1.14 z"
   id="path6522"
   style="stroke-width:0.533502" />
	<path
   class="st21"
   d="m 285.04,228.75 c -0.13,0.21 -0.53,0.3 -0.39,0.63 0.72,0.42 1.81,-0.01 2.41,0.69 -0.51,0.59 -0.88,1.24 -1.69,1.37 -0.87,-0.07 -2.01,0.42 -2.48,-0.5 -0.22,-0.08 -0.37,-0.35 -0.63,-0.4 v 0.26 c -0.16,-0.08 -0.37,-0.07 -0.58,-0.08 -0.24,0.28 -0.75,0.52 -0.46,0.95 0.63,0.8 1.45,1.65 2.12,2.34 0.31,0.27 0.43,0.61 0.36,1.03 -0.26,0.73 -0.98,1.14 -1.74,0.79 -0.26,-0.28 -0.87,-0.32 -0.81,-0.84 0.44,-1.2 -0.32,-2.33 -0.12,-3.51 -0.96,-0.09 -2.31,0.86 -2.99,-0.51 -0.09,-0.41 0.17,-0.78 0.53,-0.88 0.26,0.39 0.62,0.53 1.07,0.47 0.49,-0.23 1.07,-0.24 1.48,-0.67 0,-0.14 0.19,-0.34 -0.06,-0.44 -0.64,0.4 -0.75,-0.62 -1.12,-0.92 -0.36,-0.65 -0.96,-1.37 -0.66,-2.12 0.21,-0.08 0.35,-0.35 0.65,-0.24 -0.59,0.46 0.18,1.02 0.41,1.48 0.63,0.58 1.17,1.56 2.14,1.19 0.71,-0.33 0.94,-1.11 1.75,-1.17 0.71,-0.27 0.96,0.55 0.81,1.08 z"
   id="path6524"
   style="stroke-width:0.533502" />
	<path
   class="st21"
   d="m 228.41,225.52 c 0.23,-0.2 -0.14,-0.3 -0.1,-0.52 -0.87,0.28 -1.77,0.46 -2.61,0.84 l 0.05,0.19 2.38,-0.28 z m 1.56,-1.36 c -0.8,1.48 -1.72,2.88 -2.78,4.22 -1.17,0.7 -1.28,2.27 -2.73,2.5 -0.13,-0.12 -0.17,-0.26 -0.22,-0.41 -0.11,0.42 -0.55,0.31 -0.5,0.8 0.11,0.24 0.35,0.2 0.56,0.23 2,-1.12 2.85,-3.04 4.28,-4.56 0.49,-0.69 1.06,-1.44 1.85,-1.85 -0.01,-0.5 0.62,-0.69 0.66,-1.17 -0.45,-0.95 -0.59,0.3 -1.12,0.24 z m 0.7,2.86 -0.44,-0.22 c -0.71,0.46 -0.7,1.29 -1.09,1.9 0.23,0 0.51,-0.17 0.6,-0.28 0.21,0.02 0.45,-0.02 0.56,0.23 0.16,0.55 -0.1,1.07 -0.6,1.36 -0.78,0.4 -0.53,-0.89 -1.3,-0.66 -0.17,0.08 -0.14,0.23 -0.16,0.37 0.41,0.58 0.41,1.32 0.83,1.91 0.44,0.09 0.85,0.26 1.22,-0.11 0.16,-0.41 -0.34,-0.4 -0.47,-0.67 0.4,-0.88 1.72,-0.64 1.84,-1.72 -1.05,-0.36 -0.4,-1.49 -0.99,-2.11 z m 0.77,3.63 c 0.35,0.07 0.38,0.46 0.59,0.68 -0.03,0.53 -0.62,0.64 -1.01,0.76 0.06,0.64 -0.61,1.22 -1.18,1.51 -0.46,0.25 -0.78,-0.29 -1.06,-0.39 l -0.03,0.51 c 0.15,0.29 0.53,0.3 0.74,0.3 1.06,0.11 1.35,-1.09 1.85,-1.72 0.42,0.36 1.09,0.07 1.55,-0.15 0.82,-0.82 -0.82,-0.96 -0.71,-1.77 -0.28,-0.2 -0.79,-0.03 -0.74,0.27 z m 1.85,-0.9 c 0.54,0.09 0.99,0.53 1.43,0.68 -0.06,-0.17 0.13,-0.21 0.21,-0.31 0.08,-0.32 0.3,-0.67 0,-0.96 -0.59,-0.37 -1.49,-0.12 -1.64,0.59 z"
   id="path6526"
   style="stroke-width:0.533502" />
	<path
   class="st21"
   d="m 242.94,219.76 c 0.59,0.44 1.4,0.35 2.13,0.22 0.77,-0.15 1.85,-0.25 2.37,-0.89 0.26,-1.63 1.56,-3.15 1.4,-4.82 -0.69,-0.57 -1.47,0.31 -2.21,0.45 -0.49,-0.25 -0.26,-0.85 -0.46,-1.27 -0.17,-0.18 -0.48,-0.42 -0.76,-0.34 l 0.36,1.87 c -0.15,0.71 -0.82,0.76 -1.13,1.27 -0.62,0.77 -1.04,-0.3 -1.55,-0.49 -0.2,-0.1 -0.53,-0.06 -0.65,0 0.56,0.25 0.79,0.77 1.19,1.16 -0.08,0.25 -0.27,0.33 -0.42,0.5 0.22,0.22 0.2,-0.2 0.43,-0.13 0.23,0.24 0.62,0.37 0.69,0.74 -0.11,0.39 -0.43,0.53 -0.75,0.68 -0.59,-0.13 -1.13,-0.67 -1.7,-1.01 -0.27,-0.19 -0.35,-0.74 -0.81,-0.51 0,0.22 -0.14,0.43 0.01,0.66 0.2,1.04 2.08,0.82 1.86,1.91 z m 2.32,-3.6 c 0.13,-0.01 0.27,-0.15 0.37,-0.01 0.07,0.51 0.18,1.17 -0.23,1.47 -0.31,0.25 -0.63,-0.03 -0.82,-0.22 -0.6,-0.74 0.39,-0.87 0.68,-1.24 z m -0.98,2.74 c 0.57,0.46 1.06,-0.59 1.53,0.12 1.13,-0.25 0.35,-1.44 0.59,-2.15 0.21,-0.51 -0.32,-1.17 0.2,-1.56 0.37,-0.14 0.66,-0.54 1.1,-0.42 0.36,1.41 -0.93,2.63 -1.08,3.98 -0.74,0.29 -1.65,0.36 -2.47,0.54 -0.11,-0.26 -0.08,-0.37 0.13,-0.51 z m -0.35,3.94 c 0.1,-0.51 0.04,-1.02 0.11,-1.53 0.97,0.16 1.99,-0.28 2.98,-0.41 l 0.33,-0.47 c -0.51,-0.76 -0.98,0.23 -1.61,0.28 l -1.06,0.22 c -0.53,0.03 -1.2,-0.46 -1.58,0.08 0.34,0.09 0.31,0.56 0.63,0.57 -0.04,0.31 0.06,0.63 0,0.94 -0.79,1.96 -2.03,3.73 -2.57,5.64 0.26,0.02 0.51,0.04 0.77,0.06 0.31,-0.32 0.19,-0.69 0.07,-1.05 0.45,-1.47 1.13,-2.98 1.93,-4.33 z m 4.35,-1.18 -0.16,-0.23 c -0.9,-0.06 -1.68,0.68 -2.52,1.02 -0.28,0.09 -0.68,0.2 -0.87,0.25 0.06,0.21 0.19,0.36 0.42,0.44 0.27,-0.22 0.59,0.11 0.78,-0.23 0.8,0.08 -0.04,0.77 0.16,1.17 0.65,0.28 1.34,0.27 2.05,-0.04 0.14,-0.26 0.56,-0.43 0.43,-0.79 -1.04,-0.12 -0.05,-1.04 -0.29,-1.59 z m 6.29,2.57 c -0.16,-0.18 -0.36,-0.07 -0.57,-0.02 -0.12,0.52 -0.74,0.43 -1.13,0.62 -1,-0.03 -2.03,0.16 -2.99,-0.25 -0.32,-0.05 -0.38,0.4 -0.69,0.2 0.13,-0.77 1.25,-1.15 0.9,-2.05 -0.1,-0.03 -0.2,-0.17 -0.31,-0.09 -0.07,0.13 -0.18,0.25 -0.07,0.4 -0.2,0.73 -0.61,1.68 -1.41,1.92 -0.49,-0.01 -1.06,-0.15 -1.48,0.06 0.48,0.34 1.02,0.16 1.52,0.4 l 0.03,0.09 c -0.73,0.43 -1.88,0.99 -2.73,0.61 -0.34,-0.66 0.24,-1.22 0.21,-1.85 -0.19,-0.27 -0.55,-0.32 -0.85,-0.31 0.73,1.1 -0.85,2.26 0.25,3.4 1.81,0.04 2.91,-1.47 4.6,-1.91 1.41,-0.18 2.71,0.76 4.15,0.38 0.38,-0.39 0.9,-1.02 0.57,-1.6 z"
   id="path6528"
   style="stroke-width:0.533502" />
	<path
   class="st21"
   d="m 271.91,221.1 c -1.11,-0.73 -2.23,-0.58 -3.35,-0.88 l -0.1,-0.23 0.83,-1.21 c 0.58,-0.45 0.85,0.26 1.43,0.33 0.35,-0.02 0.75,-0.07 0.81,-0.52 0.15,-1.15 -1.28,-0.15 -1.61,-0.8 0.5,-0.51 0.8,-1.22 1.2,-1.84 -0.14,-1.02 -1.36,-0.56 -1.94,-0.26 l 0.49,0.22 c 0.14,0.26 0.1,0.51 -0.04,0.77 -0.64,0.52 -0.66,1.66 -1.6,1.85 -0.34,-0.12 -0.8,0.02 -1.03,-0.34 -0.09,-0.75 0.37,-1.55 0.09,-2.23 -0.23,-0.24 -0.37,-0.32 -0.71,-0.41 -0.27,0.11 -0.69,-0.04 -0.83,0.33 0.07,0.14 0.24,0.32 0.37,0.26 0.59,0.47 0.35,1.21 0.3,1.8 -0.48,0.18 -0.77,-0.4 -1.09,-0.67 -0.34,0.25 -0.33,0.7 -0.27,1.06 0.4,0.2 0.69,0.67 1.21,0.63 0.35,0.68 0.93,-0.16 1.39,0.41 0.14,0.14 0.33,0.43 0.12,0.64 -1.49,-0.19 -2.97,-0.68 -4.47,-0.58 -0.36,-0.25 -1.45,0.06 -1.05,-0.75 -0.31,-0.36 -0.8,-0.38 -1.23,-0.35 -0.23,0.33 -0.77,0.33 -0.84,0.81 0.29,0.54 1.01,0.52 1.52,0.57 1.57,0.46 3.55,-0.1 4.68,1.46 0.22,0.49 1.41,0.56 0.8,1.33 -0.6,0.54 -1.13,-0.35 -1.6,-0.6 -0.37,-0.26 -0.56,-0.85 -0.97,-0.92 -0.13,0.57 0.4,0.93 0.71,1.29 0.26,0.56 1.61,0.56 1.08,1.36 -0.41,0.38 -0.8,-0.02 -1.22,-0.14 -0.51,-0.37 -1.47,-0.65 -1.24,-1.43 l -0.25,-0.11 c -0.13,0.14 -0.36,0.18 -0.38,0.43 0.12,1.08 1.22,1.44 2.15,1.83 0.06,0.38 -0.24,0.97 -0.63,1.2 -1.27,-0.38 -2.21,-1.35 -3.49,-1.44 -0.32,0.46 -0.79,0.94 -0.29,1.55 0.53,0.22 1.06,0.13 1.59,0.2 0.34,-0.13 0.84,-0.41 1.24,-0.15 0.4,0.27 0.58,0.73 0.75,1.22 0.45,0.32 0.89,0.21 1.34,0.09 -0.44,-0.55 -0.12,-1.24 -0.18,-1.85 0.42,-0.62 0.73,0.22 1.18,0.22 0.26,-0.19 0.84,0.19 0.67,-0.39 -0.09,-0.28 -0.39,-0.41 -0.67,-0.29 -0.11,-0.18 -0.41,-0.3 -0.35,-0.54 0.42,-0.53 0.96,-0.03 1.45,-0.16 0.74,-0.49 -0.47,-0.41 -0.37,-0.95 0.16,-1.19 0.76,0.38 1.2,-0.26 -0.03,-0.19 -0.15,-0.3 -0.34,-0.35 -0.51,-0.18 -0.82,-0.64 -0.87,-1.17 -0.21,0.1 -0.24,0.47 -0.55,0.35 -0.46,-0.28 -1.08,-0.64 -1.07,-1.16 0.15,-0.1 0.29,-0.03 0.44,-0.1 1.25,0.43 2.5,0.57 3.75,0.85 0.65,0.07 0.98,0.9 1.64,0.52 0.16,-0.08 0.25,-0.31 0.2,-0.5 z m -4.14,5.17 c -0.31,-0.12 -0.68,0.11 -0.91,0.29 -0.34,0.41 0.29,1.31 0.53,1.71 0.31,0.49 0.9,0.2 1.26,0.06 0.32,-0.23 0.3,-0.65 0.23,-0.99 -0.39,-0.34 -0.41,-1.02 -1.11,-1.07 z"
   id="path6530"
   style="stroke-width:0.533502" />
	<path
   class="st21"
   d="m 255.08,315.42 c -29.41,0 -53.34,-23.93 -53.34,-53.34 0,-29.41 23.93,-53.34 53.34,-53.34 29.41,0 53.34,23.93 53.34,53.34 0,29.41 -23.93,53.34 -53.34,53.34 z m 0,-105.51 c -28.76,0 -52.17,23.4 -52.17,52.17 0,28.77 23.4,52.17 52.17,52.17 28.76,0 52.17,-23.4 52.17,-52.17 0,-28.77 -23.41,-52.17 -52.17,-52.17 z"
   id="path6532"
   style="stroke-width:0.533502" />
	<g
   id="g6536"
   style="stroke-width:0.533502">
		<path
   class="st21"
   d="m 234.59,235.8 c -11.12,8.86 -15.47,23.35 -11.07,36.91 3.49,11.65 15.83,21.54 28.1,22.52 13.1,1.02 24.65,-4.61 31.72,-15.45 3.31,-4.88 5.01,-11.29 5.01,-17.69 0,-5.38 -1.19,-10.74 -3.61,-15.2 -2.93,-6.06 -8.96,-11.98 -15,-14.73 -10.69,-5.6 -25.8,-4.03 -35.15,3.64 z m 17.07,58.79 c -12.03,-0.96 -24.12,-10.65 -27.54,-22.07 -4.33,-13.32 -0.06,-27.54 10.86,-36.24 9.17,-7.52 23.98,-9.06 34.47,-3.58 5.94,2.71 11.84,8.5 14.71,14.44 l 0.01,0.02 c 5.2,9.59 4.61,23.46 -1.37,32.25 -6.93,10.66 -18.28,16.19 -31.14,15.18 z m 33.26,-47.81 c 0.01,0 0.01,0 0,0 v -0.01 c 0,0 0,0.01 0,0.01 z"
   id="path6534"
   style="stroke-width:0.533502" />
	</g>
	<g
   class="st22"
   id="g6544"
   style="stroke-width:0.533502">
		<g
   id="g6542"
   style="stroke-width:0.533502">
			<path
   class="st23"
   d="m 249.75,258.55 c 0,0.22 0,7.16 0,7.39 -0.22,0 -4.02,0 -4.09,0 -0.17,-0.14 -1.16,-0.92 -2.45,-0.92 h -0.06 c 0,0 -0.59,0.85 -0.66,0.94 -0.11,0 -3.1,-0.02 -3.32,-0.02 0,-0.23 0,-7.15 0,-7.38 0.16,0 4.02,0 4.13,0 0.17,0.21 1.11,1.21 2.67,1.21 h 0.08 c 0,0 0.4,-1.09 0.45,-1.22 0.14,0 3.04,0 3.25,0 z"
   id="path6538"
   style="stroke-width:0.533502" />
			<path
   d="m 242.56,266.12 h -0.08 c -0.05,0 -0.61,0 -1.26,-0.01 -0.89,0 -1.93,-0.01 -2.06,-0.01 H 239 v -7.71 h 4.36 l 0.05,0.06 c 0.1,0.12 1,1.14 2.51,1.15 0.1,-0.28 0.37,-1.01 0.42,-1.12 l 0.04,-0.1 h 3.53 v 7.71 h -4.31 l -0.05,-0.04 c -0.11,-0.09 -1.07,-0.87 -2.33,-0.88 -0.15,0.21 -0.56,0.8 -0.62,0.88 z m -3.23,-0.33 c 0.35,0 1.18,0.01 1.9,0.01 0.53,0 0.99,0 1.18,0.01 0.12,-0.16 0.41,-0.58 0.61,-0.87 l 0.05,-0.07 h 0.15 c 1.27,0 2.27,0.72 2.51,0.92 h 3.87 v -7.07 h -2.99 c -0.12,0.31 -0.41,1.12 -0.41,1.12 l -0.04,0.11 h -0.19 c -1.53,0 -2.48,-0.91 -2.75,-1.21 h -3.89 z"
   id="path6540"
   style="stroke-width:0.533502" />
		</g>
	</g>
	<g
   class="st22"
   id="g6550"
   style="stroke-width:0.533502">
		<path
   class="st23"
   d="m 257.33,250.43 c -0.05,-0.02 -0.15,-0.09 -0.19,-0.11 -0.05,0 -0.32,0 -0.46,0 0,0.14 0,0.52 0,0.52 h -0.92 v -4.79 c -0.18,-0.7 -0.72,-0.69 -0.76,-0.69 -0.58,-0.04 -0.77,0.6 -0.78,0.59 v 4.88 h -1.19 c 0,0 0,-0.35 0,-0.46 -0.05,-0.02 -0.1,-0.03 -0.1,-0.03 0,0 -0.61,0.02 -0.77,0.02 -0.02,0.18 -0.43,2.91 -0.43,2.91 0,0 -1.53,0.76 -1.75,0.86 0.14,0.19 1.02,1.34 1.02,1.34 0,0 0.01,10.2 0.01,10.43 0.21,0 2.8,0 3,0 0,-0.22 0.01,-3.45 0.01,-3.45 0.05,-0.23 0.31,-0.66 0.87,-0.66 0.54,0 0.79,0.41 0.85,0.66 0,0 0.02,3.27 0.02,3.49 0.21,0 2.93,0 3.15,0 0,-0.23 0,-10.46 0,-10.46 0,0 0.91,-1.08 1.05,-1.26 -1.46,-0.78 -2.53,-3.52 -2.63,-3.79 z m -1.72,7.58 -0.03,0.03 c -0.18,0.26 -0.39,0.4 -0.64,0.41 -0.39,0.02 -0.7,-0.32 -0.71,-0.33 l -0.03,-0.03 v -2.65 l 0.03,-0.03 c 0.23,-0.25 0.46,-0.36 0.71,-0.35 0.38,0.02 0.63,0.34 0.64,0.36 l 0.03,0.03 z"
   id="path6546"
   style="stroke-width:0.533502" />
		<path
   d="m 259.08,266.1 h -3.46 l -0.01,-0.16 c -0.01,-0.22 -0.02,-3.36 -0.02,-3.49 -0.01,-0.02 -0.15,-0.5 -0.69,-0.5 -0.46,0 -0.67,0.35 -0.71,0.53 0,0 -0.01,3.2 -0.01,3.42 v 0.16 h -3.32 v -0.16 c 0,-0.22 0,-9.57 -0.01,-10.37 -0.16,-0.21 -0.86,-1.13 -0.99,-1.3 l -0.12,-0.16 0.18,-0.08 c 0.19,-0.09 1.36,-0.67 1.67,-0.82 0.07,-0.46 0.39,-2.66 0.41,-2.82 l 0.02,-0.14 h 0.14 c 0.15,0 0.76,-0.02 0.76,-0.02 h 0.02 l 0.02,0.01 c 0,0 0.05,0.01 0.11,0.03 l 0.11,0.04 v 0.42 h 0.86 v -4.88 h 0.06 c 0.2,-0.41 0.51,-0.63 0.89,-0.59 v 0 c 0.11,0 0.7,0.04 0.9,0.81 v 0.04 4.63 h 0.6 v -0.52 h 0.67 l 0.04,0.02 c 0.07,0.04 0.15,0.09 0.18,0.11 l 0.05,0.03 0.02,0.06 c 0.01,0.03 1.09,2.92 2.56,3.7 l 0.18,0.09 -1.14,1.36 v 10.55 z m -3.15,-0.32 h 2.82 v -10.36 l 0.97,-1.16 c -1.39,-0.88 -2.36,-3.31 -2.52,-3.72 -0.03,-0.02 -0.07,-0.04 -0.1,-0.06 h -0.26 V 251 h -1.25 v -4.93 c -0.14,-0.51 -0.49,-0.55 -0.59,-0.55 h -0.06 c -0.3,0 -0.47,0.25 -0.56,0.47 V 251 h -1.51 v -0.49 c -0.12,0.01 -0.39,0.01 -0.57,0.02 -0.08,0.58 -0.39,2.67 -0.41,2.77 l -0.01,0.08 -0.08,0.04 c 0,0 -1.11,0.55 -1.57,0.78 0.28,0.37 0.9,1.19 0.9,1.19 l 0.03,0.04 v 0.05 c 0,0 0.01,8.93 0.01,10.27 h 2.68 c 0,-0.7 0.01,-3.29 0.01,-3.29 0.07,-0.31 0.36,-0.82 1.03,-0.82 0.64,0 0.93,0.49 1.01,0.78 0.01,0.06 0.02,2.67 0.03,3.36 z m -1.02,-7.17 c -0.47,0 -0.79,-0.39 -0.8,-0.39 l -0.06,-0.08 v -2.77 l 0.07,-0.08 c 0.25,-0.27 0.51,-0.4 0.8,-0.4 h 0.04 c 0.38,0.02 0.66,0.3 0.75,0.42 l 0.04,0.04 0.03,0.09 v 2.64 l -0.04,0.04 c -0.23,0.32 -0.49,0.48 -0.77,0.49 z m -0.53,-0.59 c 0.05,0.05 0.27,0.26 0.53,0.26 0.22,-0.01 0.38,-0.12 0.54,-0.34 l -0.01,-2.48 c 0,0 0,0 0,0 -0.01,0 -0.21,-0.25 -0.5,-0.26 l -0.02,-0.16 v 0.16 c -0.18,0 -0.36,0.09 -0.54,0.28 z"
   id="path6548"
   style="stroke-width:0.533502" />
	</g>
	<g
   class="st22"
   id="g6558"
   style="stroke-width:0.533502">
		<g
   id="g6556"
   style="stroke-width:0.533502">
			<path
   class="st23"
   d="m 271.64,260 c 0,0.22 0,5.72 0,5.94 -0.22,0 -11.27,0 -11.49,0 0,-0.22 0,-5.72 0,-5.94 0.21,0 3.52,0 3.72,0 0.02,0.25 0.1,0.93 0.64,1.48 0.41,0.41 0.98,0.62 1.7,0.62 0.68,0 1.21,-0.2 1.57,-0.6 0.47,-0.51 0.53,-1.2 0.53,-1.49 0,0 0,0 0,-0.01 0.21,0 3.13,0 3.33,0 z"
   id="path6552"
   style="stroke-width:0.533502" />
			<path
   d="m 271.81,266.1 h -11.82 v -6.26 h 4.04 l 0.01,0.15 c 0.02,0.31 0.13,0.91 0.59,1.38 0.38,0.38 0.91,0.57 1.58,0.57 0.63,0 1.12,-0.18 1.45,-0.54 0.44,-0.47 0.48,-1.12 0.48,-1.38 v -0.16 l 0.16,-0.01 h 3.5 v 6.25 z m -11.5,-0.32 h 11.17 v -5.62 h -3.02 c -0.02,0.36 -0.13,0.97 -0.56,1.45 -0.39,0.43 -0.96,0.65 -1.69,0.65 -0.76,0 -1.37,-0.22 -1.81,-0.67 -0.36,-0.37 -0.6,-0.87 -0.67,-1.43 h -3.42 z"
   id="path6554"
   style="stroke-width:0.533502" />
		</g>
	</g>
	<g
   id="g6568"
   style="stroke-width:0.533502">
		<path
   class="st21"
   d="m 243.73,275.44 h 0.63 c 0.4,0 0.69,-0.09 0.87,-0.27 0.18,-0.18 0.27,-0.46 0.27,-0.86 v -2.54 c 0,-0.27 -0.01,-0.47 -0.05,-0.59 -0.03,-0.12 -0.1,-0.23 -0.2,-0.32 -0.2,-0.18 -0.49,-0.27 -0.89,-0.27 h -0.46 v -0.14 c 0.35,-0.01 0.67,-0.05 0.94,-0.09 0.28,-0.04 0.54,-0.1 0.78,-0.18 0.23,-0.07 0.48,-0.17 0.75,-0.31 h 0.3 v 4.58 c 0,0.66 0.38,0.98 1.13,0.98 h 0.58 v 0.16 h -4.64 v -0.15 z"
   id="path6560"
   style="stroke-width:0.533502" />
		<path
   class="st21"
   d="m 252.81,273.55 v -0.91 h -0.01 c -0.18,0.26 -0.4,0.45 -0.64,0.57 -0.25,0.12 -0.54,0.18 -0.88,0.18 -0.29,0 -0.56,-0.05 -0.82,-0.13 -0.26,-0.09 -0.48,-0.21 -0.68,-0.38 -0.19,-0.16 -0.34,-0.35 -0.45,-0.55 -0.11,-0.21 -0.16,-0.44 -0.16,-0.68 0,-0.35 0.11,-0.67 0.31,-0.96 0.2,-0.29 0.49,-0.51 0.85,-0.68 0.37,-0.16 0.77,-0.25 1.22,-0.25 0.52,0 0.98,0.12 1.4,0.37 0.41,0.25 0.73,0.59 0.96,1.04 0.22,0.44 0.33,0.95 0.33,1.51 0,0.9 -0.28,1.63 -0.86,2.19 -0.28,0.27 -0.59,0.46 -0.95,0.6 -0.36,0.13 -0.73,0.21 -1.11,0.21 -0.6,0 -1.07,-0.16 -1.41,-0.48 -0.26,-0.23 -0.37,-0.48 -0.37,-0.75 0,-0.2 0.07,-0.37 0.2,-0.5 0.13,-0.13 0.3,-0.2 0.5,-0.2 0.2,0 0.38,0.06 0.51,0.18 0.13,0.12 0.2,0.27 0.2,0.45 0,0.13 -0.03,0.24 -0.1,0.32 -0.07,0.09 -0.17,0.17 -0.32,0.24 -0.15,0.06 -0.22,0.13 -0.22,0.2 0,0.1 0.1,0.19 0.3,0.26 0.19,0.07 0.42,0.11 0.68,0.11 0.49,0 0.87,-0.17 1.13,-0.5 0.26,-0.32 0.39,-0.8 0.39,-1.46 z m -1.14,-3.64 c -0.4,0 -0.69,0.14 -0.87,0.41 -0.06,0.11 -0.11,0.23 -0.13,0.35 -0.02,0.06 -0.04,0.15 -0.04,0.25 -0.02,0.11 -0.02,0.25 -0.03,0.42 0,0.17 0,0.32 0,0.45 0,0.28 0.01,0.5 0.05,0.66 0.04,0.16 0.09,0.3 0.18,0.42 0.15,0.22 0.4,0.33 0.74,0.33 0.35,0 0.62,-0.11 0.84,-0.31 0.15,-0.13 0.26,-0.3 0.32,-0.52 0.06,-0.21 0.1,-0.48 0.1,-0.8 0,-0.38 -0.04,-0.7 -0.12,-0.94 -0.08,-0.24 -0.21,-0.42 -0.38,-0.54 -0.19,-0.12 -0.4,-0.18 -0.66,-0.18 z"
   id="path6562"
   style="stroke-width:0.533502" />
		<path
   class="st21"
   d="m 257.59,275.7 c -0.48,0 -0.92,-0.13 -1.32,-0.39 -0.4,-0.26 -0.72,-0.61 -0.95,-1.07 -0.23,-0.45 -0.35,-0.95 -0.35,-1.49 0,-0.54 0.11,-1.03 0.34,-1.49 0.23,-0.45 0.54,-0.81 0.93,-1.07 0.39,-0.26 0.82,-0.39 1.3,-0.39 0.18,0 0.38,0.02 0.57,0.07 0.19,0.05 0.39,0.13 0.57,0.23 0.19,0.1 0.35,0.23 0.5,0.38 0.3,0.27 0.52,0.6 0.68,0.99 0.16,0.39 0.24,0.82 0.24,1.29 0,0.28 -0.03,0.56 -0.09,0.82 -0.07,0.26 -0.16,0.5 -0.27,0.72 -0.12,0.22 -0.27,0.42 -0.45,0.61 -0.18,0.18 -0.38,0.34 -0.59,0.46 -0.39,0.21 -0.76,0.33 -1.11,0.33 z m -1.18,-3.48 v 1.06 c 0,0.78 0.08,1.35 0.27,1.72 0.19,0.37 0.47,0.56 0.86,0.56 0.75,0 1.12,-0.7 1.12,-2.1 v -1.09 c 0,-0.32 -0.01,-0.61 -0.03,-0.87 -0.02,-0.27 -0.05,-0.47 -0.09,-0.6 -0.14,-0.64 -0.48,-0.96 -1.02,-0.96 -0.26,0 -0.48,0.08 -0.64,0.24 -0.16,0.15 -0.29,0.4 -0.36,0.73 -0.08,0.32 -0.11,0.76 -0.11,1.31 z"
   id="path6564"
   style="stroke-width:0.533502" />
		<path
   class="st21"
   d="m 265.75,273.4 -0.43,2.19 h -4.59 c 0.01,-0.27 0.17,-0.56 0.46,-0.89 0.26,-0.28 0.76,-0.67 1.5,-1.17 0.4,-0.28 0.66,-0.45 0.75,-0.53 0.02,-0.02 0.04,-0.03 0.06,-0.05 0.03,-0.02 0.05,-0.05 0.08,-0.07 0.23,-0.22 0.4,-0.45 0.5,-0.67 0.1,-0.22 0.15,-0.47 0.15,-0.75 0,-0.48 -0.13,-0.85 -0.38,-1.1 -0.25,-0.25 -0.61,-0.38 -1.07,-0.38 -0.34,0 -0.66,0.07 -0.95,0.2 -0.29,0.14 -0.52,0.32 -0.7,0.54 -0.16,0.23 -0.25,0.48 -0.25,0.75 0,0.29 0.07,0.44 0.21,0.44 0.06,0 0.1,-0.04 0.11,-0.12 0,-0.06 0.03,-0.14 0.06,-0.2 0.08,-0.17 0.18,-0.29 0.3,-0.37 0.12,-0.08 0.27,-0.12 0.45,-0.12 0.14,0 0.28,0.04 0.39,0.09 0.12,0.06 0.21,0.15 0.27,0.25 0.06,0.11 0.1,0.24 0.1,0.37 0,0.15 -0.05,0.29 -0.13,0.42 -0.08,0.13 -0.19,0.22 -0.33,0.29 -0.14,0.07 -0.3,0.11 -0.48,0.11 -0.33,0 -0.6,-0.11 -0.81,-0.32 -0.21,-0.21 -0.31,-0.48 -0.31,-0.81 0,-0.2 0.04,-0.4 0.12,-0.59 0.08,-0.19 0.2,-0.36 0.36,-0.51 0.42,-0.4 1.06,-0.61 1.95,-0.61 0.36,0 0.7,0.04 1.01,0.12 0.31,0.09 0.58,0.21 0.8,0.36 0.22,0.15 0.39,0.33 0.51,0.55 0.12,0.2 0.18,0.43 0.18,0.68 0,0.36 -0.13,0.68 -0.4,0.96 -0.11,0.13 -0.23,0.24 -0.38,0.34 -0.28,0.17 -0.7,0.36 -1.25,0.58 -0.79,0.3 -1.33,0.57 -1.64,0.79 -0.07,0.05 -0.21,0.16 -0.42,0.33 h 2.84 c 0.26,0 0.46,-0.02 0.6,-0.07 0.14,-0.04 0.24,-0.13 0.32,-0.24 0.08,-0.12 0.15,-0.29 0.21,-0.52 l 0.05,-0.26 h 0.18 z"
   id="path6566"
   style="stroke-width:0.533502" />
	</g>
</g>
</svg>
