<?xml version="1.0" encoding="UTF-8"?>
<svg xmlns="http://www.w3.org/2000/svg" xmlns:xlink="http://www.w3.org/1999/xlink" width="252pt" height="252pt" viewBox="0 0 252 252" version="1.1">
<g id="surface1">
<path style="fill:none;stroke-width:10;stroke-linecap:butt;stroke-linejoin:miter;stroke:rgb(44.313725%,10.196078%,37.254902%);stroke-opacity:1;stroke-miterlimit:4;" d="M 375.002068 285.352312 C 238.797424 285.352312 127.990132 396.159604 127.990132 532.364248 C 127.990132 668.560862 238.797424 779.368154 375.002068 779.368154 C 511.198682 779.368154 622.005974 668.560862 622.005974 532.364248 C 622.005974 396.159604 511.198682 285.352312 375.002068 285.352312 Z M 375.002068 285.352312 " transform="matrix(0.486486,0,0,0.486486,-56.495938,-133.050512)"/>
<path style="fill:none;stroke-width:10;stroke-linecap:butt;stroke-linejoin:miter;stroke:rgb(44.313725%,10.196078%,37.254902%);stroke-opacity:1;stroke-miterlimit:4;" d="M 375.002068 381.634213 L 330.69521 425.941071 L 267.502936 425.941071 L 267.502936 487.696062 L 222.481451 532.717546 L 267.502936 577.739031 L 267.502936 639.494022 L 331.417866 639.494022 L 363.680453 671.756609 L 375.002068 683.086253 L 386.323682 671.756609 L 419.300896 638.779395 L 484.64508 638.779395 L 484.64508 577.016375 L 516.19304 545.468414 L 527.522684 534.154829 L 481.063917 487.696062 L 481.063917 427.017026 L 420.376851 427.017026 L 386.323682 392.955828 Z M 375.002068 381.634213 " transform="matrix(0.486486,0,0,0.486486,-56.495938,-133.050512)"/>
<path style="fill:none;stroke-width:10.686812;stroke-linecap:butt;stroke-linejoin:miter;stroke:rgb(44.313725%,10.196078%,37.254902%);stroke-opacity:1;stroke-miterlimit:4;" d="M 375.3867 357.870077 C 279.168053 357.870077 200.883676 436.145872 200.883676 532.355938 C 200.883676 628.574586 279.168053 706.850381 375.3867 706.850381 C 471.605347 706.850381 549.881143 628.574586 549.881143 532.355938 C 549.881143 436.145872 471.605347 357.870077 375.3867 357.870077 Z M 375.3867 357.870077 " transform="matrix(0.455221,0,0,0.455221,-44.946536,-116.406189)"/>
<path style=" stroke:none;fill-rule:evenodd;fill:rgb(44.313725%,10.196078%,37.254902%);fill-opacity:1;" d="M 18.441406 156.222656 L 18.085938 150.777344 L 31.203125 137.199219 L 15.6875 139.550781 L 14.933594 135.199219 L 37.960938 131.625 L 38.085938 136.507812 L 24.320312 150.839844 L 40.886719 148.382812 L 41.109375 152.652344 Z M 18.441406 156.222656 "/>
<path style=" stroke:none;fill-rule:evenodd;fill:rgb(44.313725%,10.196078%,37.254902%);fill-opacity:1;" d="M 30.089844 113.421875 L 20.503906 115.527344 L 29.691406 119.492188 Z M 33.945312 112.421875 L 33.308594 121.6875 L 38.175781 123.683594 L 37.195312 128.421875 L 15.488281 118.054688 L 16.09375 111.882812 L 39.570312 105.578125 L 38.988281 111.230469 Z M 33.945312 112.421875 "/>
<path style=" stroke:none;fill-rule:evenodd;fill:rgb(44.313725%,10.196078%,37.254902%);fill-opacity:1;" d="M 19.820312 93.839844 L 21.921875 89.082031 L 40.527344 84.136719 L 25.949219 78.507812 L 27.355469 74.1875 L 49.035156 82.511719 L 47.097656 86.960938 L 27.949219 92.460938 L 42.433594 98.75 L 40.652344 103.074219 Z M 19.820312 93.839844 "/>
<path style=" stroke:none;fill-rule:evenodd;fill:rgb(44.313725%,10.196078%,37.254902%);fill-opacity:1;" d="M 32.046875 66.292969 L 35.398438 61.832031 L 43.089844 67.246094 L 39.523438 55.917969 L 43.21875 51.039062 L 47.21875 63.804688 L 62.300781 64.617188 L 59.046875 69.683594 L 45.78125 69.246094 L 54.167969 75.316406 L 51.164062 79.820312 Z M 32.046875 66.292969 "/>
<path style=" stroke:none;fill-rule:evenodd;fill:rgb(44.313725%,10.196078%,37.254902%);fill-opacity:1;" d="M 68.972656 48.433594 L 60.925781 42.773438 L 64.222656 51.894531 Z M 72.625 50.664062 L 65.375 55.84375 L 66.886719 60.882812 L 63.199219 63.859375 L 55.730469 40.777344 L 60.816406 36.6875 L 81.257812 49.472656 L 76.878906 53.230469 Z M 72.625 50.664062 "/>
<path style=" stroke:none;fill-rule:evenodd;fill:rgb(44.313725%,10.196078%,37.254902%);fill-opacity:1;" d="M 74 27.953125 L 78.820312 25.445312 L 88.890625 45.53125 L 84.546875 48.03125 Z M 74 27.953125 "/>
<path style=" stroke:none;fill-rule:evenodd;fill:rgb(44.313725%,10.196078%,37.254902%);fill-opacity:1;" d="M 123.566406 14.675781 L 129.074219 14.378906 L 129.433594 28.519531 C 129.46875 29.847656 129.300781 31.109375 128.933594 32.308594 C 128.566406 33.503906 127.964844 34.5625 127.136719 35.484375 C 126.304688 36.40625 125.425781 37.0625 124.492188 37.460938 C 123.207031 38.023438 121.648438 38.34375 119.820312 38.421875 C 118.765625 38.472656 117.609375 38.445312 116.355469 38.347656 C 115.101562 38.25 114.050781 37.996094 113.195312 37.574219 C 112.347656 37.160156 111.5625 36.546875 110.839844 35.742188 C 110.125 34.933594 109.625 34.09375 109.347656 33.21875 C 108.890625 31.804688 108.652344 30.546875 108.621094 29.445312 L 108.261719 15.304688 L 113.832031 15.007812 L 114.199219 29.464844 C 114.230469 30.691406 114.582031 32.632812 115.261719 33.296875 C 115.9375 33.957031 117.980469 34.257812 119.148438 34.207031 C 120.300781 34.15625 122.386719 33.777344 123.023438 33.070312 C 123.664062 32.359375 123.96875 30.382812 123.933594 29.136719 Z M 123.566406 14.675781 "/>
<path style=" stroke:none;fill-rule:evenodd;fill:rgb(44.313725%,10.196078%,37.254902%);fill-opacity:1;" d="M 140.050781 15.605469 L 145.394531 16.375 L 153.964844 34.519531 L 157.28125 19.878906 L 161.789062 20.628906 L 156.71875 43.15625 L 151.777344 41.839844 L 143.644531 23.824219 L 140.199219 38.777344 L 135.445312 38.402344 Z M 140.050781 15.605469 "/>
<path style=" stroke:none;fill-rule:evenodd;fill:rgb(44.313725%,10.196078%,37.254902%);fill-opacity:1;" d="M 170.984375 24.195312 L 175.863281 26.324219 L 165.855469 47.472656 L 161.285156 45.09375 Z M 170.984375 24.195312 "/>
<path style=" stroke:none;fill-rule:evenodd;fill:rgb(44.313725%,10.196078%,37.254902%);fill-opacity:1;" d="M 181.558594 29.703125 L 186.5625 32.402344 L 181.121094 49.914062 L 195.261719 38.835938 L 199.328125 42.65625 L 179.554688 55.730469 L 175.675781 52.980469 Z M 181.558594 29.703125 "/>
<path style=" stroke:none;fill-rule:evenodd;fill:rgb(44.313725%,10.196078%,37.254902%);fill-opacity:1;" d="M 205.871094 47.988281 L 214.027344 58.332031 L 210.820312 60.980469 L 205.5625 54.355469 L 201.957031 57.542969 L 207.457031 64.3125 L 204.390625 66.839844 L 198.890625 60.070312 L 194.183594 64.269531 L 199.632812 71.125 L 196.558594 73.605469 L 187.882812 63.359375 Z M 205.871094 47.988281 "/>
<path style=" stroke:none;fill-rule:evenodd;fill:rgb(44.313725%,10.196078%,37.254902%);fill-opacity:1;" d="M 213.753906 74.914062 L 215.238281 77.320312 C 216.519531 79.679688 218.566406 78.914062 218.953125 78.671875 C 219.535156 78.3125 221.542969 77.242188 219.871094 74.59375 L 218.324219 72.085938 Z M 199.710938 77.238281 L 218.890625 66.023438 L 223.578125 73.980469 C 225.359375 76.816406 224.585938 79.25 224.144531 80.308594 C 223.703125 81.371094 223.160156 82.003906 222.019531 82.710938 C 221.023438 83.324219 220.03125 83.636719 219.039062 83.648438 C 218.046875 83.65625 217.09375 83.417969 216.167969 82.929688 C 215.582031 82.621094 214.84375 81.972656 213.785156 81.386719 L 207.964844 91.585938 L 204.523438 86.578125 L 209.527344 79.507812 C 210.328125 78.53125 210.585938 76.785156 210.585938 76.785156 L 202.4375 82.152344 Z M 199.710938 77.238281 "/>
<path style=" stroke:none;fill-rule:evenodd;fill:rgb(44.313725%,10.196078%,37.254902%);fill-opacity:1;" d="M 214.175781 94.085938 C 214.175781 94.085938 212.441406 97.984375 213.023438 99.601562 C 213.351562 100.515625 214.320312 101.628906 215.019531 101.878906 C 216.332031 102.347656 216.894531 102.027344 217.5 101.839844 C 218.082031 101.65625 218.507812 101.261719 218.785156 100.65625 C 219.058594 100.046875 219.054688 99.109375 219.234375 97.808594 C 219.664062 94.636719 219.960938 93.5625 220.625 92.03125 C 221.289062 90.484375 222.492188 89.445312 224.238281 88.898438 C 225.390625 88.542969 226.59375 88.511719 227.851562 88.804688 C 229.113281 89.097656 229.949219 89.4375 231.011719 90.480469 C 232.078125 91.527344 233.113281 92.9375 233.648438 95.167969 C 234.28125 97.804688 233.414062 100.515625 232.148438 102.113281 L 228.957031 99.671875 C 229.332031 97.9375 229.585938 96.007812 229.378906 95.070312 C 229.050781 93.570312 225.8125 91.550781 224.359375 96.292969 C 223.46875 99.175781 223.792969 106.851562 216.601562 106.589844 C 215.066406 106.53125 212.089844 106.4375 209.859375 101.96875 C 208.449219 99.15625 208.636719 95.636719 210.890625 92.023438 Z M 214.175781 94.085938 "/>
<path style=" stroke:none;fill-rule:evenodd;fill:rgb(44.313725%,10.196078%,37.254902%);fill-opacity:1;" d="M 236.230469 109.242188 L 236.605469 114.3125 L 213.191406 116.753906 L 212.8125 111.777344 Z M 236.230469 109.242188 "/>
<path style=" stroke:none;fill-rule:evenodd;fill:rgb(44.313725%,10.196078%,37.254902%);fill-opacity:1;" d="M 237.78125 120.195312 L 237.457031 137.578125 L 232.722656 137.496094 L 232.832031 131.359375 L 213.53125 131.109375 L 213.636719 125.761719 L 232.9375 126.015625 L 233.046875 120.113281 Z M 237.78125 120.195312 "/>
<path style=" stroke:none;fill-rule:evenodd;fill:rgb(44.313725%,10.196078%,37.254902%);fill-opacity:1;" d="M 236.652344 142.234375 L 234.960938 148.195312 L 225.929688 150.1875 L 233.296875 156.710938 L 231.535156 161.992188 L 220.976562 151.527344 L 211.265625 149.835938 L 212.0625 144.535156 L 222.808594 146.414062 Z M 236.652344 142.234375 "/>
<path style=" stroke:none;fill-rule:evenodd;fill:rgb(44.313725%,10.196078%,37.254902%);fill-opacity:1;" d="M 52.292969 189.292969 C 52.292969 191.414062 50.570312 193.132812 48.449219 193.132812 C 46.328125 193.132812 44.609375 191.414062 44.609375 189.292969 C 44.609375 187.171875 46.328125 185.453125 48.449219 185.453125 C 50.570312 185.453125 52.292969 187.171875 52.292969 189.292969 Z M 52.292969 189.292969 "/>
<path style=" stroke:none;fill-rule:evenodd;fill:rgb(44.313725%,10.196078%,37.254902%);fill-opacity:1;" d="M 206.964844 189.292969 C 206.964844 191.414062 205.246094 193.132812 203.121094 193.132812 C 201.003906 193.132812 199.285156 191.414062 199.285156 189.292969 C 199.285156 187.171875 201.003906 185.453125 203.121094 185.453125 C 205.246094 185.453125 206.964844 187.171875 206.964844 189.292969 Z M 206.964844 189.292969 "/>
<path style=" stroke:none;fill-rule:evenodd;fill:rgb(44.313725%,10.196078%,37.254902%);fill-opacity:1;" d="M 80.722656 225.449219 L 88 211.433594 L 83.902344 210.1875 L 85.101562 206.996094 L 93.835938 210.117188 L 84.785156 227.5625 Z M 80.722656 225.449219 "/>
<path style=" stroke:none;fill-rule:evenodd;fill:rgb(44.313725%,10.196078%,37.254902%);fill-opacity:1;" d="M 117.789062 225.292969 C 117.855469 225.078125 117.914062 224.867188 117.964844 224.667969 C 118.015625 224.464844 118.046875 224.292969 118.070312 224.144531 C 118.351562 222.21875 118.273438 220.988281 117.839844 220.445312 C 117.402344 219.90625 116.328125 219.507812 114.617188 219.257812 L 109.203125 218.460938 C 107.828125 218.257812 106.863281 218.289062 106.292969 218.5625 C 105.726562 218.828125 105.375 219.433594 105.238281 220.367188 L 105.074219 221.457031 C 104.933594 222.40625 105.132812 223.089844 105.664062 223.507812 C 106.191406 223.929688 107.332031 224.261719 109.082031 224.523438 C 110.3125 224.703125 111.667969 224.863281 113.140625 224.996094 C 114.609375 225.132812 116.160156 225.230469 117.789062 225.292969 Z M 117.125 228.253906 C 115.6875 228.269531 114.238281 228.222656 112.78125 228.117188 C 111.328125 228.007812 109.867188 227.847656 108.398438 227.632812 C 105.242188 227.167969 103.132812 226.480469 102.0625 225.574219 C 100.992188 224.671875 100.597656 223.273438 100.875 221.386719 L 101.257812 218.761719 C 101.5 217.136719 102.214844 216.015625 103.40625 215.398438 C 104.601562 214.777344 106.34375 214.640625 108.632812 214.976562 L 116.878906 216.191406 C 119.34375 216.550781 120.972656 217.230469 121.753906 218.230469 C 122.539062 219.226562 122.761719 220.867188 122.421875 223.160156 L 122.046875 225.730469 C 121.511719 229.367188 119.839844 231.992188 117.039062 233.605469 C 114.230469 235.21875 110.535156 235.6875 105.953125 235.015625 C 105.570312 234.957031 105.285156 234.914062 105.09375 234.878906 C 104.902344 234.84375 104.722656 234.804688 104.554688 234.753906 L 102.335938 231.234375 L 103.574219 231.417969 C 107.738281 232.03125 110.804688 232.089844 112.769531 231.597656 C 114.738281 231.109375 116.1875 229.992188 117.125 228.253906 Z M 117.125 228.253906 "/>
<path style=" stroke:none;fill-rule:evenodd;fill:rgb(44.313725%,10.196078%,37.254902%);fill-opacity:1;" d="M 136.488281 235.246094 L 134.804688 219.972656 L 130.507812 220.445312 L 130.226562 217.933594 L 138.644531 215.773438 L 140.746094 234.777344 Z M 136.488281 235.246094 "/>
<path style=" stroke:none;fill-rule:evenodd;fill:rgb(44.313725%,10.196078%,37.254902%);fill-opacity:1;" d="M 167.5625 216.945312 C 167.519531 216.722656 167.472656 216.511719 167.421875 216.3125 C 167.367188 216.113281 167.316406 215.941406 167.265625 215.800781 C 166.609375 213.972656 165.957031 212.921875 165.320312 212.648438 C 164.675781 212.375 163.542969 212.53125 161.914062 213.117188 L 156.765625 214.96875 C 155.460938 215.4375 154.625 215.921875 154.25 216.425781 C 153.875 216.933594 153.847656 217.628906 154.167969 218.519531 L 154.539062 219.558594 C 154.863281 220.460938 155.359375 220.972656 156.023438 221.089844 C 156.6875 221.210938 157.851562 220.96875 159.515625 220.371094 C 160.691406 219.949219 161.957031 219.453125 163.320312 218.875 C 164.679688 218.300781 166.09375 217.660156 167.5625 216.945312 Z M 168.375 219.871094 C 167.113281 220.5625 165.8125 221.203125 164.476562 221.796875 C 163.140625 222.386719 161.777344 222.933594 160.378906 223.4375 C 157.378906 224.515625 155.191406 224.902344 153.824219 224.609375 C 152.457031 224.3125 151.445312 223.269531 150.804688 221.476562 L 149.902344 218.980469 C 149.351562 217.433594 149.453125 216.105469 150.214844 215 C 150.972656 213.894531 152.445312 212.949219 154.625 212.164062 L 162.464844 209.347656 C 164.808594 208.503906 166.566406 208.335938 167.726562 208.847656 C 168.886719 209.355469 169.859375 210.703125 170.640625 212.882812 L 171.519531 215.324219 C 172.765625 218.785156 172.527344 221.886719 170.8125 224.628906 C 169.101562 227.378906 166.0625 229.535156 161.703125 231.101562 C 161.339844 231.230469 161.066406 231.328125 160.882812 231.382812 C 160.699219 231.441406 160.523438 231.492188 160.347656 231.523438 L 156.734375 229.46875 L 157.914062 229.046875 C 161.871094 227.625 164.601562 226.234375 166.105469 224.875 C 167.613281 223.511719 168.367188 221.84375 168.375 219.871094 Z M 168.375 219.871094 "/>
<path style=" stroke:none;fill-rule:evenodd;fill:rgb(44.313725%,10.196078%,37.254902%);fill-opacity:1;" d="M 100.347656 112.835938 C 98.628906 112.769531 95.710938 111.417969 94.183594 112.621094 C 93.085938 113.484375 93.835938 114.3125 94.601562 115.148438 C 95.765625 116.414062 96.765625 117.507812 97.683594 118.96875 C 98.5625 120.375 99.644531 122.328125 101.597656 122.097656 C 104.453125 121.761719 104.734375 117.675781 106.320312 115.875 C 106.519531 115.644531 106.992188 115.484375 107.257812 115.324219 C 107.585938 115.121094 107.914062 114.910156 108.222656 114.667969 C 108.632812 114.34375 109.320312 113.746094 109.015625 113.152344 C 108.675781 112.484375 107.554688 112.410156 106.921875 112.390625 C 105.921875 112.351562 104.933594 112.519531 103.945312 112.640625 C 102.765625 112.789062 101.539062 112.882812 100.347656 112.835938 Z M 104.285156 82.292969 C 105.242188 83.121094 105.882812 84.523438 105.898438 85.875 C 105.9375 89.351562 104.648438 92.75 105.6875 96.234375 C 105.925781 97.042969 108.972656 97.269531 109.597656 97.246094 C 110.855469 97.210938 112.695312 96.875 113.1875 95.523438 C 113.714844 94.070312 112.355469 92.335938 111.953125 91.011719 C 111.5 89.539062 111.53125 87.238281 112.769531 86.066406 C 115.597656 83.398438 118.578125 88.710938 119.199219 90.851562 C 119.992188 93.597656 120.328125 97.285156 118.71875 99.820312 C 117.238281 102.144531 113.988281 102.554688 111.535156 102.644531 C 109.863281 102.707031 105.746094 102.0625 105.789062 104.601562 C 105.816406 106.507812 108.347656 108.269531 110.058594 108.316406 C 111.996094 108.371094 114.035156 107.589844 115.988281 107.539062 C 117.707031 107.496094 120.195312 107.894531 121.183594 109.496094 C 122.269531 111.257812 123.003906 116.355469 123.296875 119.886719 C 124.132812 129.984375 122.359375 143.84375 122.59375 150.707031 C 122.773438 156.078125 124.640625 162.632812 118.015625 160.382812 C 116.511719 158.757812 117.539062 156.78125 117.660156 154.648438 C 117.992188 148.839844 117.660156 141.566406 117.660156 134.582031 C 117.660156 131.476562 118.136719 128.371094 118.0625 125.265625 C 118.015625 123.171875 118.417969 117.074219 115.777344 116.359375 C 113.4375 115.726562 111.285156 118.550781 110.265625 120.246094 C 110.964844 121.449219 113.480469 120.796875 113.785156 122.394531 C 113.320312 123.953125 113.683594 126.351562 112.730469 127.414062 C 110.953125 128.367188 107.988281 126.589844 106.039062 127.773438 C 105.292969 128.863281 104.628906 130.234375 105.6875 131.351562 C 108.730469 131.664062 112.609375 131.070312 113.082031 133.863281 C 113.835938 138.304688 108.414062 136.296875 106.039062 138.519531 C 104.28125 145.894531 107.082031 158.515625 106.039062 165.039062 C 105.839844 166.296875 105.253906 169.078125 103.574219 169.339844 C 100.433594 169.828125 99.238281 163.804688 98.996094 160.738281 C 98.304688 152.050781 100.160156 145.003906 98.644531 137.804688 C 95.53125 137.007812 92.003906 137.992188 91.597656 135.296875 C 91 131.328125 96.882812 133.226562 98.644531 130.28125 C 98.878906 126.035156 93.898438 129.074219 91.949219 127.414062 C 91.132812 126.714844 92.140625 122.125 92.089844 121.054688 C 92 119.011719 89.875 115.390625 88.3125 118.617188 C 86.683594 121.972656 87.527344 126.8125 87.855469 130.367188 C 88.046875 132.484375 88.335938 134.609375 88.429688 136.730469 C 88.707031 142.90625 90.714844 161.40625 86.667969 162.175781 C 82.40625 162.980469 82.335938 156.207031 82.089844 151.78125 C 81.597656 142.976562 82.636719 129.078125 82.089844 121.320312 C 81.910156 118.800781 80.371094 114.402344 80.679688 112.71875 C 81.910156 106.058594 91.265625 109.191406 95.722656 107.261719 C 96.761719 106.8125 99.445312 104.96875 98.636719 103.558594 C 97.972656 102.40625 94.636719 102.753906 93.476562 102.621094 C 90.363281 102.265625 86.730469 102.007812 85.257812 98.742188 C 84.730469 93.042969 86.066406 85.066406 90.191406 86.203125 C 94.285156 87.328125 90.566406 91.695312 91.949219 95.160156 C 92.527344 96.597656 94.785156 98.542969 97.234375 97.667969 C 102.566406 95.769531 97.03125 86.210938 100.128906 82.761719 C 101.597656 81.125 103.15625 81.3125 104.285156 82.292969 Z M 104.285156 82.292969 "/>
<path style=" stroke:none;fill-rule:evenodd;fill:rgb(44.313725%,10.196078%,37.254902%);fill-opacity:1;" d="M 137.113281 113.648438 C 137.953125 113.855469 139.308594 113.171875 140.003906 112.800781 C 140.875 112.332031 141.539062 111.65625 141.988281 110.898438 C 143.480469 108.40625 142.171875 103.714844 137.855469 105.589844 C 135.648438 106.550781 135.441406 109.1875 135.613281 110.949219 C 135.6875 111.730469 136.015625 113.316406 137.050781 113.628906 C 137.074219 113.636719 137.09375 113.644531 137.113281 113.648438 Z M 135.671875 97.320312 C 134.464844 98.640625 135.28125 100.699219 137.882812 101.15625 C 138.835938 101.324219 141.746094 101.054688 142.203125 99.996094 C 142.945312 98.273438 142.707031 96.53125 141.765625 95.964844 C 140.820312 95.398438 139.171875 96.003906 137.628906 96.324219 C 136.734375 96.503906 136.082031 96.871094 135.671875 97.320312 Z M 146.277344 117.585938 C 144.75 119.039062 141.699219 117.558594 139.785156 118.175781 C 133.796875 120.121094 137.015625 135.207031 136.242188 141.921875 C 135.765625 146.070312 134.410156 150.308594 133.410156 153.972656 C 132.667969 156.679688 132.296875 159.703125 131.191406 162.289062 C 129.621094 165.96875 125.628906 163.273438 125.867188 160.0625 C 126.039062 157.726562 127.523438 155.820312 128.089844 153.617188 C 132.199219 137.753906 131.992188 112.492188 129.863281 95.140625 C 129.691406 93.738281 129.460938 92.265625 129.714844 90.859375 C 129.882812 89.929688 130.59375 87.964844 131.644531 87.78125 C 132.6875 87.59375 134.136719 89.242188 134.964844 89.769531 C 137.808594 91.585938 139.953125 91.324219 140.851562 87.699219 C 141.570312 84.792969 139.679688 83.972656 141.914062 82.738281 C 146.824219 80.027344 147.359375 91.96875 147.585938 94.789062 C 148.003906 99.960938 147.984375 105.125 147.570312 110.296875 C 147.410156 112.292969 147.628906 114.816406 146.859375 116.703125 C 146.707031 117.074219 146.511719 117.367188 146.277344 117.585938 Z M 146.277344 117.585938 "/>
<path style=" stroke:none;fill-rule:evenodd;fill:rgb(44.313725%,10.196078%,37.254902%);fill-opacity:1;" d="M 161.640625 112.910156 C 161.847656 112.683594 161.996094 112.421875 162.082031 112.125 C 162.542969 110.515625 162.402344 108.742188 161.460938 107.355469 C 160.964844 106.628906 158.988281 105.972656 158.117188 106.113281 C 157.613281 106.195312 156.726562 106.242188 156.40625 106.570312 C 156.089844 106.898438 156.191406 107.269531 156.03125 107.695312 C 155.4375 109.273438 155.757812 112.433594 157.410156 113.414062 C 158.664062 114.15625 160.695312 113.957031 161.640625 112.910156 Z M 155.945312 99.4375 C 156.371094 100.042969 156.992188 100.515625 157.773438 100.757812 C 159.429688 101.269531 162.382812 101.679688 163.121094 99.539062 C 163.320312 98.96875 162.433594 97.46875 162.117188 97.015625 C 161.5625 96.230469 160.78125 95.644531 159.921875 95.230469 C 158.609375 94.605469 156.226562 93.992188 155.554688 95.773438 C 155.066406 97.0625 155.238281 98.433594 155.945312 99.4375 Z M 159.636719 90.886719 C 160.152344 90.910156 161.539062 89.730469 162.074219 89.488281 C 162.894531 89.121094 163.730469 88.804688 164.644531 88.800781 C 168.082031 88.789062 168.148438 92.140625 167.835938 94.660156 C 167.359375 98.492188 166.960938 102.21875 166.910156 106.089844 C 166.808594 113.796875 167.03125 121.445312 167.445312 129.144531 C 167.683594 133.457031 168.015625 137.765625 168.257812 142.082031 C 168.398438 144.621094 168.511719 147.164062 168.640625 149.703125 C 168.761719 152.03125 168.371094 154.730469 169.023438 156.984375 C 169.628906 159.066406 171.707031 163.726562 168.136719 164.605469 C 163.488281 165.753906 162.832031 157.53125 162.46875 153.265625 C 161.988281 147.542969 164.78125 122.136719 160.699219 119.242188 C 158.742188 117.855469 156.824219 118.445312 154.640625 118.628906 C 151.777344 118.871094 150.105469 118.015625 150.152344 115.136719 C 150.199219 112.339844 149.773438 109.625 149.632812 106.835938 C 149.316406 100.597656 148.949219 94.078125 150.011719 87.890625 C 150.234375 86.574219 150.6875 83.570312 152.546875 83.445312 C 156.46875 83.175781 155.226562 90.71875 159.636719 90.886719 Z M 159.636719 90.886719 "/>
<path style=" stroke:none;fill-rule:evenodd;fill:rgb(44.313725%,10.196078%,37.254902%);fill-opacity:1;" d="M 157.609375 121.492188 C 157.726562 121.742188 157.808594 122.019531 157.851562 122.339844 C 157.980469 123.285156 157.65625 124.308594 157.386719 125.203125 C 157.074219 126.273438 156.050781 127.367188 156.65625 128.480469 C 157.144531 129.382812 158.480469 129.367188 158.570312 130.582031 C 158.671875 131.960938 158.691406 133.109375 158.019531 134.367188 C 157.34375 135.628906 156.570312 136.089844 156.503906 137.585938 C 156.441406 139.007812 156.511719 140.441406 156.46875 141.867188 C 156.371094 145.308594 156.210938 148.757812 156.445312 152.203125 C 156.632812 154.988281 159.820312 162.96875 155.851562 164.46875 C 153.941406 165.1875 152.023438 163.492188 151.46875 161.859375 C 150.605469 159.308594 151.152344 156.1875 151.238281 153.554688 C 151.417969 147.816406 152.277344 141.949219 151.128906 136.253906 C 150.667969 133.949219 148.914062 131.390625 150.125 129.019531 C 150.425781 128.421875 151.039062 128.054688 151.023438 127.425781 C 151.011719 126.941406 150.34375 126.179688 150.128906 125.757812 C 149.453125 124.449219 149.042969 123.246094 149.714844 121.824219 C 150.53125 120.109375 152.289062 119.636719 154.058594 119.734375 C 155.523438 119.816406 157.011719 120.222656 157.609375 121.492188 Z M 157.609375 121.492188 "/>
<path style=" stroke:none;fill-rule:evenodd;fill:rgb(44.313725%,10.196078%,37.254902%);fill-opacity:1;" d="M 146.167969 136.253906 C 145.449219 144.226562 146.101562 153.148438 143.6875 160.351562 C 142.871094 162.777344 139.75 169.386719 137.304688 168.859375 C 133.058594 167.941406 137.578125 161.773438 138.367188 159.644531 C 140.542969 153.808594 141.953125 144.277344 140.851562 136.964844 C 139.050781 135.691406 138.8125 132.949219 139.398438 130.996094 C 139.6875 130.042969 141.34375 129.097656 141.515625 128.1875 C 141.722656 127.078125 140.015625 126.316406 139.46875 125.472656 C 138.429688 123.847656 138.640625 122.191406 140.222656 120.992188 C 142.453125 119.300781 148.175781 119.757812 147.207031 123.660156 C 146.808594 125.265625 145.097656 126.460938 145.394531 128.1875 C 145.65625 129.714844 147.980469 131.167969 147.9375 132.710938 C 147.894531 134.324219 146.53125 135.410156 146.167969 136.253906 Z M 146.167969 136.253906 "/>
</g>
</svg>
