<?xml version="1.0" encoding="UTF-8"?>
<svg xmlns="http://www.w3.org/2000/svg" xmlns:xlink="http://www.w3.org/1999/xlink" width="246pt" height="259pt" viewBox="0 0 246 259" version="1.1">
<g id="surface1">
<path style=" stroke:none;fill-rule:nonzero;fill:rgb(100%,100%,100%);fill-opacity:1;" d="M 222.457031 171.6875 C 222.457031 205.996094 194.660156 233.839844 160.28125 233.839844 L 88.945312 233.839844 C 54.636719 233.839844 26.773438 205.996094 26.773438 171.6875 L 26.773438 86.378906 C 26.773438 52.082031 54.636719 24.28125 88.945312 24.28125 L 160.273438 24.28125 C 194.648438 24.28125 222.445312 52.082031 222.445312 86.378906 L 222.445312 171.6875 Z M 222.457031 171.6875 "/>
<path style=" stroke:none;fill-rule:nonzero;fill:rgb(0%,38.823529%,23.921569%);fill-opacity:1;" d="M 168.3125 0.128906 L 77.742188 0.128906 C 34.792969 0.128906 0 34.878906 0 77.785156 L 0 181.226562 C 0 224.121094 34.792969 258.871094 77.742188 258.871094 L 168.304688 258.871094 C 211.238281 258.871094 246 224.121094 246 181.226562 L 246 77.785156 C 246 34.878906 211.238281 0.128906 168.3125 0.128906 M 208.382812 160.28125 C 208.382812 194.621094 180.554688 222.410156 146.242188 222.410156 L 99.824219 222.410156 C 65.480469 222.410156 37.628906 194.609375 37.628906 160.28125 L 37.628906 99.039062 C 37.628906 64.695312 65.480469 36.886719 99.824219 36.886719 L 146.242188 36.886719 C 180.554688 36.886719 208.382812 64.695312 208.382812 99.039062 Z M 208.382812 160.28125 "/>
<path style=" stroke:none;fill-rule:nonzero;fill:rgb(100%,100%,100%);fill-opacity:1;" d="M 25.5 54.890625 L 28.707031 50.148438 L 30.925781 53.148438 L 29.136719 55.757812 L 25.5 54.890625 M 16.753906 57.714844 C 16.621094 57.933594 16.566406 58.164062 16.578125 58.417969 C 16.578125 58.636719 16.6875 58.832031 16.851562 58.953125 C 17.0625 59.175781 17.316406 59.238281 17.566406 59.207031 C 17.886719 59.175781 18.128906 59.019531 18.257812 58.746094 L 23.355469 51.257812 L 25.117188 52.421875 L 21.511719 57.800781 C 20.832031 58.777344 20.664062 59.535156 21.0625 60.085938 C 21.445312 60.613281 21.875 61.007812 22.367188 61.359375 L 32.816406 68.386719 C 33.035156 68.527344 33.265625 68.59375 33.585938 68.570312 C 33.804688 68.527344 34.003906 68.394531 34.113281 68.222656 C 34.222656 68 34.246094 67.757812 34.179688 67.519531 C 34.113281 67.296875 33.96875 67.121094 33.761719 66.957031 L 23.589844 60.097656 C 23.300781 59.886719 23.070312 59.699219 22.917969 59.4375 C 22.753906 59.195312 22.820312 58.84375 23.160156 58.382812 L 24.457031 56.472656 L 28.148438 57.242188 L 26.960938 59.03125 C 26.863281 59.207031 26.785156 59.449219 26.796875 59.636719 C 26.863281 59.855469 26.929688 60.0625 27.113281 60.207031 C 27.300781 60.382812 27.511719 60.425781 27.785156 60.382812 C 28.027344 60.316406 28.234375 60.207031 28.410156 59.964844 L 30.972656 56.121094 L 32.695312 57.253906 L 29.5 62.074219 C 29.335938 62.3125 29.257812 62.535156 29.3125 62.773438 C 29.378906 63.015625 29.476562 63.226562 29.675781 63.3125 C 29.917969 63.523438 30.125 63.566406 30.390625 63.523438 C 30.664062 63.476562 30.882812 63.3125 31.027344 63.039062 L 34.222656 58.328125 L 37.628906 60.613281 C 37.847656 60.789062 38.058594 60.832031 38.363281 60.789062 C 38.585938 60.742188 38.792969 60.613281 38.957031 60.394531 C 39.101562 60.183594 39.125 59.933594 39.058594 59.691406 C 39.046875 59.382812 38.882812 59.207031 38.660156 59.054688 L 35.277344 56.769531 L 38.53125 52.015625 C 38.660156 51.808594 38.707031 51.566406 38.660156 51.3125 C 38.585938 51.09375 38.421875 50.851562 38.179688 50.753906 C 37.957031 50.589844 37.75 50.589844 37.507812 50.621094 C 37.289062 50.65625 37.125 50.765625 37.003906 50.941406 L 33.785156 55.714844 L 32.027344 54.585938 L 34.464844 50.949219 C 34.628906 50.765625 34.671875 50.5 34.597656 50.292969 C 34.53125 49.972656 34.386719 49.863281 34.167969 49.722656 C 33.960938 49.621094 33.785156 49.589844 33.574219 49.621094 C 33.355469 49.722656 33.179688 49.863281 33.082031 50.007812 L 31.949219 51.621094 L 29.804688 48.558594 L 30.9375 46.84375 C 31.191406 46.460938 31.433594 46.207031 31.5625 46.140625 C 31.75 46.011719 31.925781 45.964844 32.167969 46 C 32.378906 46.011719 32.617188 46.140625 32.914062 46.339844 L 41.222656 51.875 C 41.617188 52.214844 41.847656 52.464844 41.914062 52.742188 C 41.945312 52.992188 41.871094 53.234375 41.726562 53.519531 C 41.441406 53.980469 41.121094 54.386719 40.738281 54.671875 C 40.355469 54.992188 40.144531 55.179688 40.078125 55.242188 C 40.003906 55.453125 39.980469 55.640625 40.011719 55.835938 C 40.058594 56.054688 40.144531 56.230469 40.320312 56.339844 C 40.890625 56.757812 41.660156 56.40625 42.617188 55.277344 C 43.59375 54.15625 44.023438 53.265625 43.914062 52.742188 C 43.847656 52.179688 43.660156 51.753906 43.40625 51.476562 C 43.15625 51.257812 42.835938 50.949219 42.484375 50.699219 L 33.597656 44.683594 C 33.144531 44.394531 32.75 44.199219 32.367188 44.109375 C 32.015625 44.011719 31.585938 44.066406 31.179688 44.222656 C 30.71875 44.394531 30.203125 44.957031 29.621094 45.78125 L 26.234375 50.773438 L 24.511719 49.589844 L 29.664062 41.925781 C 29.839844 41.738281 29.839844 41.476562 29.828125 41.257812 C 29.816406 41.003906 29.621094 40.796875 29.410156 40.628906 C 29.203125 40.5 28.984375 40.488281 28.707031 40.519531 C 28.5 40.566406 28.28125 40.707031 28.148438 40.917969 L 22.972656 48.546875 L 22.203125 48.050781 C 21.984375 47.910156 21.785156 47.875 21.511719 47.921875 C 21.203125 47.964844 20.984375 48.105469 20.851562 48.347656 C 20.664062 48.601562 20.632812 48.84375 20.710938 49.117188 C 20.753906 49.371094 20.886719 49.578125 21.070312 49.710938 L 21.820312 50.171875 Z M 16.753906 57.714844 "/>
<path style=" stroke:none;fill-rule:nonzero;fill:rgb(100%,100%,100%);fill-opacity:1;" d="M 56.921875 29.5625 C 56.472656 29.804688 56.207031 29.914062 56.03125 29.949219 C 55.8125 29.980469 55.648438 29.949219 55.492188 29.804688 C 55.359375 29.738281 55.183594 29.519531 55.042969 29.203125 L 54.230469 27.542969 C 54.097656 27.300781 54.019531 27.015625 54.019531 26.828125 C 54.042969 26.488281 54.242188 26.257812 54.734375 26.015625 L 64.941406 21.011719 C 65.5 20.738281 65.863281 20.660156 66.105469 20.847656 C 66.304688 21.03125 66.457031 21.230469 66.632812 21.484375 L 67.292969 22.898438 C 67.566406 23.359375 67.675781 23.644531 67.644531 23.820312 C 67.621094 23.964844 67.609375 24.128906 67.480469 24.238281 C 67.378906 24.371094 67.171875 24.511719 66.851562 24.65625 L 56.921875 29.5625 M 58.425781 32.582031 C 58.347656 32.746094 58.238281 33 58.152344 33.382812 C 58.074219 33.746094 57.867188 34.363281 57.589844 35.152344 C 57.304688 35.988281 57.03125 36.632812 56.789062 37.160156 L 55.691406 39.203125 C 55.480469 39.566406 55.40625 39.839844 55.40625 40.082031 C 55.4375 40.257812 55.480469 40.464844 55.582031 40.609375 C 55.710938 40.796875 55.886719 40.925781 56.097656 40.949219 C 56.351562 40.949219 56.589844 40.925781 56.800781 40.785156 C 57.042969 40.609375 57.4375 40.015625 57.964844 38.949219 C 58.535156 37.917969 59.019531 36.832031 59.371094 35.820312 C 59.734375 34.8125 59.941406 34.085938 60.074219 33.636719 C 60.171875 33.21875 60.171875 32.957031 60.085938 32.714844 C 60.007812 32.460938 59.800781 32.296875 59.558594 32.230469 C 59.316406 32.121094 59.074219 32.15625 58.84375 32.230469 C 58.667969 32.296875 58.546875 32.453125 58.425781 32.582031 M 48.648438 23.230469 C 48.40625 23.359375 48.199219 23.535156 48.121094 23.800781 C 48.023438 24.050781 47.988281 24.28125 48.089844 24.46875 C 48.152344 24.742188 48.394531 24.886719 48.648438 24.972656 C 48.890625 25.019531 49.175781 25.019531 49.484375 24.875 L 67.554688 15.960938 C 67.808594 15.816406 68.019531 15.578125 68.082031 15.324219 C 68.160156 15.015625 68.160156 14.808594 68.050781 14.609375 C 67.941406 14.421875 67.730469 14.269531 67.480469 14.191406 C 67.226562 14.148438 66.917969 14.160156 66.699219 14.269531 L 59.019531 18.113281 L 58.460938 17.652344 C 58.414062 17.585938 58.152344 17.476562 57.789062 17.222656 C 57.40625 17.035156 57.117188 16.894531 56.941406 16.796875 C 56.636719 16.761719 56.40625 16.796875 56.140625 16.925781 C 55.886719 17.070312 55.757812 17.246094 55.691406 17.496094 C 55.625 17.773438 55.648438 17.992188 55.757812 18.125 C 55.800781 18.265625 55.886719 18.398438 55.945312 18.429688 C 56.042969 18.476562 56.152344 18.5625 56.339844 18.707031 C 56.515625 18.847656 56.734375 19.011719 56.933594 19.121094 L 48.648438 23.230469 M 67.941406 26.203125 C 68.917969 25.699219 69.457031 25.316406 69.554688 24.855469 C 69.699219 24.4375 69.730469 24.117188 69.71875 23.820312 C 69.710938 23.535156 69.609375 23.195312 69.445312 22.910156 L 68.136719 20.308594 C 67.953125 19.878906 67.609375 19.472656 67.019531 19.078125 C 66.457031 18.660156 65.613281 18.726562 64.558594 19.320312 L 53.570312 24.765625 C 52.503906 25.226562 51.988281 25.820312 51.988281 26.5 C 52.054688 27.160156 52.152344 27.664062 52.328125 28.003906 L 53.460938 30.300781 C 53.703125 30.75 53.945312 31.132812 54.152344 31.386719 C 54.394531 31.628906 54.691406 31.835938 55.128906 31.988281 C 55.558594 32.132812 56.359375 31.945312 57.570312 31.332031 L 61.855469 29.210938 L 64.457031 34.363281 C 64.632812 34.746094 64.734375 35 64.742188 35.164062 C 64.742188 35.328125 64.632812 35.503906 64.382812 35.691406 C 64.214844 35.800781 63.917969 35.941406 63.503906 36.105469 C 63.105469 36.25 62.734375 36.347656 62.414062 36.359375 C 62.097656 36.402344 61.910156 36.503906 61.808594 36.535156 C 61.601562 36.644531 61.457031 36.820312 61.382812 37.039062 C 61.304688 37.28125 61.304688 37.535156 61.394531 37.777344 C 61.503906 37.953125 61.699219 38.128906 61.855469 38.191406 C 62.097656 38.335938 62.511719 38.292969 63.097656 38.128906 C 63.734375 37.953125 64.371094 37.765625 65.074219 37.46875 C 66.105469 36.953125 66.667969 36.523438 66.777344 36.0625 C 66.851562 35.636719 66.917969 35.285156 66.851562 35.042969 C 66.832031 34.769531 66.753906 34.582031 66.667969 34.351562 L 63.667969 28.324219 L 67.941406 26.203125 M 75.015625 30.113281 L 73.542969 29.488281 C 72.828125 29.203125 72.171875 28.972656 71.535156 28.796875 L 69.808594 28.222656 C 69.074219 27.984375 68.601562 27.828125 68.304688 27.828125 C 68.019531 27.761719 67.777344 27.761719 67.609375 27.828125 C 67.324219 27.929688 67.195312 28.148438 67.082031 28.421875 C 67.007812 28.742188 67.074219 28.960938 67.160156 29.113281 C 67.269531 29.320312 67.46875 29.464844 67.722656 29.53125 C 68.007812 29.664062 68.632812 29.882812 69.621094 30.132812 C 70.675781 30.421875 71.414062 30.695312 71.917969 30.871094 C 72.414062 31.089844 72.972656 31.332031 73.644531 31.671875 C 74.28125 31.945312 74.761719 32.101562 75.003906 32.101562 C 75.179688 32.101562 75.421875 32.035156 75.566406 31.957031 C 75.808594 31.878906 75.960938 31.671875 76.058594 31.417969 C 76.105469 31.167969 76.058594 30.902344 75.875 30.707031 C 75.730469 30.441406 75.421875 30.265625 75.015625 30.113281 Z M 75.015625 30.113281 "/>
<path style=" stroke:none;fill-rule:nonzero;fill:rgb(100%,100%,100%);fill-opacity:1;" d="M 96.515625 20.296875 L 96.515625 9.175781 C 96.515625 8.867188 96.550781 8.636719 96.757812 8.429688 C 96.933594 8.210938 97.144531 8.121094 97.363281 8.121094 C 97.550781 8.121094 97.746094 8.21875 97.921875 8.429688 C 98.066406 8.582031 98.207031 8.878906 98.207031 9.175781 L 98.207031 20.539062 C 98.207031 21.375 98.132812 22.296875 97.988281 23.292969 C 97.8125 24.28125 97.503906 25.195312 97.042969 26.007812 C 96.582031 26.851562 95.78125 27.828125 94.582031 28.894531 C 93.417969 29.980469 92.617188 30.300781 92.320312 29.902344 C 92 29.453125 91.824219 29.136719 91.824219 28.925781 C 91.871094 28.742188 91.980469 28.574219 92.132812 28.398438 C 92.296875 28.222656 92.847656 27.828125 93.792969 27.191406 C 94.738281 26.535156 95.386719 25.6875 95.757812 24.6875 C 96.121094 23.625 96.332031 22.832031 96.394531 22.296875 C 96.441406 21.800781 96.472656 21.144531 96.515625 20.296875 M 92.078125 23.644531 L 92.078125 10.824219 C 92.078125 10.515625 92.15625 10.296875 92.363281 10.140625 C 92.527344 9.921875 92.75 9.824219 92.925781 9.824219 C 93.175781 9.824219 93.339844 9.921875 93.515625 10.140625 C 93.703125 10.304688 93.792969 10.527344 93.792969 10.824219 L 93.792969 23.644531 C 93.792969 23.953125 93.714844 24.171875 93.515625 24.347656 C 93.339844 24.535156 93.15625 24.625 92.890625 24.625 C 92.703125 24.625 92.507812 24.523438 92.363281 24.316406 C 92.167969 24.128906 92.078125 23.898438 92.078125 23.644531 M 106.722656 10.824219 L 106.722656 13.699219 L 109.710938 13.699219 C 110.480469 13.699219 111.019531 13.832031 111.25 14.0625 C 111.503906 14.304688 111.710938 14.589844 111.808594 14.894531 C 111.886719 15.234375 111.953125 15.597656 111.953125 15.984375 L 111.953125 25.699219 C 111.953125 26.367188 111.765625 26.851562 111.425781 27.214844 C 111.074219 27.609375 110.328125 27.773438 109.207031 27.742188 C 108.492188 27.699219 108.007812 27.609375 107.832031 27.433594 C 107.589844 27.214844 107.515625 26.984375 107.515625 26.730469 C 107.527344 26.488281 107.613281 26.3125 107.734375 26.214844 C 107.832031 26.148438 108.007812 26.074219 108.292969 26.074219 L 109.316406 26.203125 C 109.679688 26.214844 109.941406 26.160156 110.085938 25.984375 C 110.226562 25.851562 110.292969 25.535156 110.292969 25.105469 L 110.292969 16.730469 C 110.28125 16.410156 110.25 16.191406 110.226562 15.984375 C 110.21875 15.816406 110.085938 15.640625 109.953125 15.523438 C 109.789062 15.410156 109.503906 15.378906 109.074219 15.378906 L 106.722656 15.378906 L 106.722656 29.289062 C 106.722656 29.53125 106.691406 29.75 106.558594 29.960938 C 106.351562 30.132812 106.175781 30.265625 105.964844 30.277344 C 105.710938 30.289062 105.515625 30.234375 105.328125 30.058594 C 105.152344 29.882812 105.042969 29.628906 105.042969 29.320312 L 105.042969 15.378906 L 103.492188 15.378906 C 103.128906 15.378906 102.898438 15.410156 102.714844 15.511719 C 102.570312 15.585938 102.425781 15.699219 102.394531 15.863281 C 102.328125 15.992188 102.328125 16.289062 102.328125 16.742188 L 102.328125 26.5 C 102.328125 26.742188 102.261719 26.996094 102.085938 27.171875 C 101.945312 27.378906 101.734375 27.476562 101.484375 27.476562 C 101.273438 27.476562 101.097656 27.445312 100.945312 27.171875 C 100.769531 26.917969 100.691406 26.710938 100.691406 26.5 L 100.691406 16.070312 C 100.691406 15.652344 100.734375 15.292969 100.855469 14.90625 C 100.957031 14.566406 101.132812 14.304688 101.417969 14.050781 C 101.703125 13.84375 102.195312 13.710938 103.066406 13.710938 L 105.0625 13.710938 L 105.0625 10.824219 L 100.449219 10.824219 C 100.121094 10.824219 99.855469 10.757812 99.671875 10.570312 C 99.484375 10.4375 99.394531 10.175781 99.394531 9.976562 C 99.328125 9.703125 99.472656 9.515625 99.703125 9.351562 C 99.957031 9.1875 100.152344 9.097656 100.449219 9.097656 L 112.390625 9.097656 C 112.613281 9.097656 112.820312 9.199219 112.996094 9.351562 C 113.171875 9.503906 113.269531 9.703125 113.269531 9.976562 C 113.292969 10.164062 113.195312 10.40625 112.996094 10.570312 C 112.855469 10.757812 112.613281 10.824219 112.390625 10.824219 Z M 106.722656 10.824219 "/>
<path style=" stroke:none;fill-rule:nonzero;fill:rgb(100%,100%,100%);fill-opacity:1;" d="M 139.804688 10.40625 L 139.804688 8.582031 C 139.804688 8.429688 139.914062 8.21875 140.046875 8.089844 C 140.199219 7.890625 140.40625 7.78125 140.671875 7.75 C 140.890625 7.714844 141.101562 7.824219 141.308594 8.023438 C 141.484375 8.164062 141.582031 8.375 141.582031 8.582031 L 141.550781 10.40625 L 147.496094 10.40625 L 147.496094 8.636719 C 147.496094 8.472656 147.558594 8.320312 147.714844 8.132812 C 147.890625 7.957031 148.066406 7.859375 148.320312 7.847656 C 148.59375 7.847656 148.734375 7.914062 148.945312 8.101562 C 149.121094 8.265625 149.164062 8.453125 149.164062 8.636719 L 149.164062 10.40625 L 154.546875 10.40625 C 154.769531 10.40625 154.964844 10.449219 155.121094 10.59375 C 155.296875 10.757812 155.359375 10.933594 155.40625 11.195312 C 155.414062 11.414062 155.359375 11.625 155.195312 11.820312 C 154.988281 11.988281 154.800781 12.074219 154.535156 12.074219 L 149.152344 12.074219 L 149.152344 13.546875 C 149.152344 13.753906 149.109375 13.996094 148.957031 14.171875 C 148.769531 14.335938 148.59375 14.445312 148.351562 14.457031 C 148.132812 14.488281 147.902344 14.390625 147.746094 14.203125 C 147.558594 14.027344 147.472656 13.820312 147.472656 13.546875 L 147.472656 12.074219 L 141.527344 12.074219 L 141.527344 13.753906 C 141.527344 13.996094 141.464844 14.171875 141.320312 14.324219 C 141.15625 14.488281 140.957031 14.566406 140.714844 14.578125 C 140.464844 14.609375 140.253906 14.511719 140.089844 14.359375 C 139.902344 14.171875 139.78125 13.996094 139.78125 13.753906 L 139.78125 12.074219 L 134.507812 12.074219 C 134.234375 12.074219 133.960938 11.964844 133.816406 11.789062 C 133.640625 11.570312 133.574219 11.359375 133.628906 11.085938 C 133.640625 10.878906 133.773438 10.703125 133.902344 10.59375 C 134.078125 10.449219 134.289062 10.40625 134.507812 10.40625 L 139.804688 10.40625 M 134.167969 17.695312 C 134.265625 17.3125 134.550781 17.191406 134.980469 17.234375 C 135.199219 17.300781 135.859375 17.664062 136.949219 18.398438 C 138.046875 19.066406 138.660156 19.464844 138.835938 19.640625 C 139.011719 19.8125 139.089844 20.023438 139.113281 20.230469 C 139.113281 20.417969 139.078125 20.617188 138.890625 20.792969 C 138.714844 21.03125 138.472656 21.078125 138.210938 21.066406 C 138.023438 21.03125 137.429688 20.738281 136.476562 20.078125 C 135.464844 19.453125 134.828125 19.058594 134.640625 18.882812 C 134.421875 18.769531 134.289062 18.628906 134.222656 18.484375 C 134.125 18.410156 134.125 18.265625 134.125 18.125 C 134.113281 17.96875 134.113281 17.804688 134.167969 17.695312 M 139.199219 21.8125 C 139.472656 21.703125 139.726562 21.769531 139.96875 21.976562 C 140.210938 22.152344 140.277344 22.40625 140.277344 22.667969 C 140.289062 22.953125 140.230469 23.304688 140.054688 23.699219 C 139.714844 24.449219 139.363281 25.105469 139.101562 25.632812 C 138.824219 26.160156 138.386719 26.941406 137.707031 27.992188 C 137.078125 29.058594 136.574219 29.617188 136.222656 29.574219 C 135.871094 29.53125 135.597656 29.398438 135.410156 29.179688 C 135.222656 28.9375 135.167969 28.695312 135.265625 28.398438 C 135.277344 28.257812 135.441406 28.003906 135.683594 27.664062 C 135.9375 27.378906 136.398438 26.609375 137.023438 25.457031 C 137.707031 24.292969 138.179688 23.394531 138.398438 22.84375 C 138.640625 22.242188 138.882812 21.890625 139.199219 21.8125 M 140.222656 17.046875 C 140.289062 17.367188 140.199219 17.707031 139.871094 18.003906 C 139.550781 18.253906 139.101562 18.179688 138.640625 17.785156 C 138.296875 17.5625 137.695312 17.082031 136.871094 16.34375 C 136.023438 15.640625 135.542969 15.179688 135.453125 15.039062 C 135.300781 14.894531 135.277344 14.730469 135.277344 14.554688 C 135.277344 14.421875 135.320312 14.28125 135.453125 14.160156 C 135.550781 13.996094 135.707031 13.886719 135.914062 13.84375 C 136.132812 13.765625 136.34375 13.765625 136.574219 13.84375 C 136.738281 13.886719 136.957031 14.027344 137.253906 14.304688 C 137.574219 14.589844 137.980469 14.894531 138.519531 15.335938 C 139.089844 15.71875 139.527344 16.070312 139.78125 16.398438 C 140.066406 16.71875 140.210938 16.925781 140.222656 17.046875 M 142.15625 17.367188 C 142.199219 16.882812 142.308594 16.34375 142.484375 15.851562 C 142.703125 15.367188 143.308594 15.105469 144.320312 15.105469 L 150.019531 15.105469 C 150.800781 15.105469 151.382812 15.234375 151.703125 15.410156 C 152.042969 15.652344 152.273438 15.9375 152.4375 16.289062 C 152.570312 16.664062 152.625 17.246094 152.570312 17.980469 C 152.558594 18.550781 152.492188 19.253906 152.382812 20.15625 C 152.25 21.042969 152.164062 21.714844 152.054688 22.230469 C 151.878906 22.710938 151.636719 23.175781 151.21875 23.667969 C 150.824219 24.128906 150.03125 24.335938 148.921875 24.261719 C 148.460938 24.25 148 24.183594 147.503906 24.085938 C 146.988281 23.921875 146.625 23.84375 146.320312 23.699219 C 146 23.570312 145.824219 23.414062 145.691406 23.25 C 145.582031 23.074219 145.5625 22.757812 145.691406 22.417969 C 145.800781 22.019531 146.175781 21.855469 146.792969 21.964844 C 146.855469 21.976562 147.1875 22.03125 147.527344 22.152344 C 147.921875 22.25 148.261719 22.296875 148.613281 22.394531 C 149.351562 22.4375 149.84375 22.296875 150.03125 21.910156 C 150.285156 21.527344 150.394531 21.199219 150.460938 20.792969 C 150.527344 20.472656 150.558594 20.011719 150.636719 19.375 C 150.679688 18.738281 150.789062 18.308594 150.789062 18.003906 C 150.8125 17.664062 150.789062 17.410156 150.722656 17.234375 C 150.625 17.070312 150.515625 16.925781 150.382812 16.90625 C 150.308594 16.882812 150.097656 16.804688 149.746094 16.804688 L 144.878906 16.804688 C 144.417969 16.804688 144.144531 16.9375 144.011719 17.191406 C 143.914062 17.367188 143.878906 17.671875 143.878906 18.070312 L 143.878906 25.730469 C 143.878906 25.984375 143.914062 26.226562 143.988281 26.5 C 144.101562 26.773438 144.242188 26.996094 144.40625 27.171875 C 144.582031 27.378906 145.175781 27.476562 146.230469 27.554688 C 147.21875 27.621094 147.96875 27.652344 148.417969 27.621094 C 148.726562 27.621094 149.503906 27.621094 150.625 27.523438 C 151.722656 27.476562 152.425781 27.3125 152.636719 27.0625 C 152.878906 26.851562 153.066406 26.5 153.128906 26.039062 L 153.351562 24.855469 C 153.492188 24.292969 153.832031 24.042969 154.394531 24.085938 C 154.898438 24.117188 155.109375 24.511719 155.074219 25.316406 C 155.042969 25.699219 154.964844 26.226562 154.867188 26.828125 C 154.757812 27.433594 154.546875 27.839844 154.371094 28.167969 C 154.097656 28.476562 153.601562 28.742188 152.824219 29.046875 C 152.019531 29.289062 150.503906 29.398438 148.242188 29.355469 C 145.769531 29.355469 144.253906 29.210938 143.691406 29.003906 C 143.101562 28.816406 142.738281 28.519531 142.484375 28.167969 C 142.265625 27.828125 142.15625 27.148438 142.15625 26.082031 Z M 142.15625 17.367188 "/>
<path style=" stroke:none;fill-rule:nonzero;fill:rgb(100%,100%,100%);fill-opacity:1;" d="M 178.652344 20.078125 C 178.332031 19.933594 178.082031 19.683594 178.015625 19.453125 C 177.90625 19.167969 177.863281 18.925781 178.015625 18.707031 C 178.058594 18.464844 178.300781 18.277344 178.609375 18.179688 C 178.949219 18.113281 179.246094 18.132812 179.597656 18.308594 L 187.210938 22.40625 L 188.804688 19.453125 C 188.914062 19.167969 189.113281 19.003906 189.398438 18.882812 C 189.640625 18.738281 189.890625 18.714844 190.132812 18.847656 C 190.40625 18.925781 190.582031 19.121094 190.660156 19.453125 C 190.738281 19.769531 190.703125 20.023438 190.527344 20.375 L 188.945312 23.359375 L 196.726562 27.457031 C 196.933594 27.597656 197.097656 27.773438 197.152344 28.046875 C 197.253906 28.269531 197.230469 28.53125 197.144531 28.828125 C 196.976562 29.070312 196.800781 29.277344 196.550781 29.34375 C 196.273438 29.421875 196.042969 29.386719 195.769531 29.277344 L 188.234375 25.207031 C 188.101562 25.601562 187.980469 25.941406 187.882812 26.304688 C 187.804688 26.6875 187.695312 27.457031 187.640625 28.585938 C 187.53125 29.738281 187.574219 30.847656 187.652344 31.925781 C 187.75 33.023438 187.992188 34.207031 188.355469 35.480469 C 188.671875 36.753906 189.101562 37.875 189.574219 38.828125 C 190.035156 39.839844 190.289062 40.511719 190.351562 40.828125 C 190.429688 41.148438 190.429688 41.433594 190.351562 41.640625 C 190.289062 41.882812 190.101562 42.035156 189.816406 42.199219 C 189.484375 42.34375 189.1875 42.308594 188.890625 42.089844 C 188.539062 41.925781 187.945312 40.71875 187.101562 38.46875 C 186.222656 36.238281 185.761719 34.132812 185.695312 32.296875 C 185.585938 30.410156 185.652344 28.695312 185.9375 27.050781 C 185.476562 27.464844 185.046875 27.828125 184.640625 28.203125 C 184.210938 28.53125 183.550781 29.046875 182.671875 29.617188 C 181.785156 30.222656 180.695312 30.804688 179.410156 31.277344 C 178.136719 31.769531 176.90625 32.089844 175.785156 32.253906 C 174.597656 32.460938 173.640625 32.539062 172.863281 32.59375 C 172.082031 32.625 171.554688 32.59375 171.28125 32.460938 C 170.996094 32.296875 170.820312 32.101562 170.753906 31.871094 C 170.675781 31.59375 170.675781 31.375 170.785156 31.15625 C 170.894531 30.914062 171.027344 30.738281 171.179688 30.671875 C 171.367188 30.5625 172.191406 30.453125 173.578125 30.421875 C 175.027344 30.410156 176.71875 30.058594 178.652344 29.355469 C 180.597656 28.695312 182.144531 27.839844 183.34375 26.742188 C 184.53125 25.675781 185.277344 24.910156 185.597656 24.492188 L 185.925781 24.007812 Z M 178.652344 20.078125 "/>
<path style=" stroke:none;fill-rule:nonzero;fill:rgb(100%,100%,100%);fill-opacity:1;" d="M 218.894531 66.429688 C 218.972656 66.671875 219.0625 66.882812 218.972656 67.089844 C 218.972656 67.34375 218.832031 67.539062 218.632812 67.683594 C 218.390625 67.78125 218.203125 67.792969 217.984375 67.78125 C 217.742188 67.714844 217.566406 67.617188 217.433594 67.351562 L 213.140625 60.601562 C 212.917969 61.019531 212.6875 61.492188 212.425781 61.941406 C 212.152344 62.402344 211.800781 62.808594 211.371094 63.160156 C 210.953125 63.523438 210.480469 63.761719 210.074219 63.90625 C 208.953125 64.257812 207.996094 64.09375 207.171875 63.457031 C 206.40625 62.785156 205.765625 62.074219 205.273438 61.140625 C 205 60.679688 204.777344 60.183594 204.570312 59.636719 C 204.382812 59.097656 204.25 58.625 204.175781 58.230469 C 204.097656 57.84375 204.097656 57.515625 204.128906 57.242188 C 204.195312 57.03125 204.382812 56.8125 204.648438 56.671875 C 204.933594 56.539062 205.140625 56.539062 205.359375 56.660156 C 205.527344 56.824219 205.703125 56.976562 205.777344 57.1875 C 205.820312 57.351562 205.910156 57.714844 206.019531 58.394531 C 206.128906 59.054688 206.414062 59.722656 206.886719 60.480469 C 207.734375 61.953125 208.613281 62.488281 209.382812 62.105469 C 210.097656 61.675781 210.679688 61.359375 210.941406 60.941406 C 211.261719 60.546875 211.46875 60.171875 211.632812 59.855469 L 211.984375 58.757812 L 206.425781 50.019531 C 206.292969 49.777344 206.25 49.589844 206.316406 49.324219 C 206.316406 49.105469 206.492188 48.929688 206.667969 48.800781 C 206.886719 48.667969 207.097656 48.625 207.328125 48.6875 C 207.546875 48.753906 207.710938 48.898438 207.875 49.074219 L 212.621094 56.570312 C 212.863281 56.472656 213.019531 56.40625 213.195312 56.40625 C 213.359375 56.40625 213.65625 56.570312 214.171875 57.03125 C 214.601562 57.394531 214.984375 57.746094 215.335938 57.957031 C 215.65625 58.175781 216.0625 58.449219 216.457031 58.722656 C 216.851562 58.945312 217.148438 59.085938 217.292969 59.140625 C 217.390625 59.140625 217.480469 59.140625 217.566406 59.097656 C 217.609375 59.054688 217.609375 58.988281 217.589844 58.886719 C 217.566406 58.8125 217.347656 58.460938 217.015625 57.878906 L 212.480469 50.773438 C 212.316406 50.589844 212.304688 50.324219 212.347656 50.117188 C 212.390625 49.84375 212.535156 49.699219 212.742188 49.578125 C 212.898438 49.414062 213.128906 49.402344 213.414062 49.445312 C 213.601562 49.546875 213.777344 49.65625 213.910156 49.84375 L 219.644531 58.878906 C 219.917969 59.292969 220.070312 59.625 220.171875 59.933594 C 220.179688 60.238281 220.171875 60.492188 219.960938 60.765625 C 219.785156 60.984375 219.433594 61.128906 218.949219 61.183594 C 218.597656 61.183594 218.027344 61.085938 217.335938 60.832031 C 216.632812 60.613281 216.203125 60.4375 216.007812 60.316406 L 214.554688 59.546875 L 218.894531 66.429688 M 224.796875 60.742188 C 225.148438 61.347656 225.355469 61.863281 225.421875 62.304688 C 225.488281 62.785156 225.355469 63.148438 225.003906 63.457031 C 224.578125 63.730469 224.167969 63.972656 223.742188 64.082031 C 223.355469 64.191406 222.90625 64.269531 222.347656 64.355469 C 221.820312 64.433594 221.433594 64.433594 221.214844 64.28125 C 220.972656 64.203125 220.796875 64.027344 220.675781 63.796875 C 220.578125 63.621094 220.53125 63.378906 220.597656 63.160156 C 220.675781 62.917969 220.808594 62.773438 220.996094 62.699219 C 221.058594 62.65625 221.171875 62.65625 221.269531 62.65625 C 221.300781 62.609375 221.632812 62.609375 222.113281 62.589844 C 222.609375 62.542969 222.949219 62.445312 223.125 62.3125 C 223.269531 62.183594 223.335938 62.027344 223.367188 61.886719 C 223.367188 61.742188 223.335938 61.667969 223.289062 61.554688 C 223.226562 61.492188 223.050781 61.25 222.828125 60.808594 L 214.523438 47.855469 C 214.359375 47.535156 214.214844 47.328125 214.140625 47.261719 C 214.0625 47.164062 213.972656 47.164062 213.863281 47.164062 C 213.753906 47.164062 213.621094 47.230469 213.5 47.273438 L 212.699219 47.777344 C 212.492188 47.921875 212.269531 47.964844 212.039062 47.921875 C 211.800781 47.855469 211.613281 47.757812 211.503906 47.570312 C 211.371094 47.382812 211.359375 47.152344 211.402344 46.898438 C 211.4375 46.65625 211.578125 46.472656 211.765625 46.339844 L 212.929688 45.59375 C 213.390625 45.308594 213.742188 45.144531 213.972656 45.097656 C 214.261719 45.054688 214.480469 45.089844 214.675781 45.207031 C 214.851562 45.273438 214.953125 45.320312 215.0625 45.460938 C 215.140625 45.59375 215.335938 45.84375 215.589844 46.230469 L 224.796875 60.742188 M 218.90625 48.632812 C 218.765625 48.777344 218.566406 48.808594 218.28125 48.777344 C 218.0625 48.765625 217.875 48.589844 217.730469 48.292969 C 217.632812 48.074219 217.632812 47.699219 217.730469 47.261719 C 217.863281 46.8125 217.953125 46.207031 218.050781 45.550781 C 218.160156 44.847656 218.238281 44.363281 218.390625 44.046875 C 218.542969 43.726562 218.699219 43.539062 218.894531 43.417969 C 219.117188 43.320312 219.347656 43.351562 219.523438 43.484375 C 219.730469 43.628906 219.863281 43.792969 219.917969 43.988281 C 219.996094 44.199219 219.996094 44.550781 219.90625 44.96875 L 219.589844 46.449219 C 219.445312 47.195312 219.347656 47.691406 219.226562 47.988281 C 219.136719 48.335938 219.039062 48.558594 218.90625 48.632812 M 222.644531 50.46875 C 222.894531 50.039062 223.105469 49.722656 223.28125 49.621094 C 223.5 49.457031 223.730469 49.511719 223.992188 49.621094 C 224.269531 49.753906 224.410156 49.972656 224.476562 50.214844 C 224.476562 50.347656 224.445312 50.46875 224.410156 50.632812 C 224.335938 50.796875 224.105469 51.269531 223.707031 51.972656 C 223.28125 52.683594 222.960938 53.179688 222.730469 53.453125 C 222.566406 53.730469 222.378906 53.9375 222.203125 54.046875 C 221.996094 54.15625 221.753906 54.113281 221.421875 53.9375 C 221.039062 53.761719 220.941406 53.453125 221.058594 52.949219 C 221.105469 52.773438 221.226562 52.566406 221.445312 52.277344 C 221.652344 52.027344 221.929688 51.6875 222.160156 51.269531 C 222.421875 50.820312 222.609375 50.597656 222.644531 50.46875 M 223.917969 58.734375 C 223.785156 58.636719 223.664062 58.546875 223.578125 58.339844 C 223.410156 58.164062 223.390625 57.976562 223.410156 57.714844 C 223.488281 57.496094 223.621094 57.253906 223.796875 57.230469 C 223.90625 57.097656 224.105469 57.097656 224.402344 57.1875 L 225.632812 57.230469 L 226.585938 57.242188 C 227.09375 57.242188 227.609375 57.242188 227.992188 57.230469 C 228.378906 57.1875 228.695312 57.199219 228.839844 57.242188 C 229.015625 57.339844 229.179688 57.40625 229.300781 57.582031 C 229.410156 57.800781 229.441406 58 229.441406 58.1875 C 229.433594 58.4375 229.300781 58.613281 228.992188 58.777344 C 228.804688 58.921875 228.433594 58.953125 227.90625 58.953125 C 227.410156 58.921875 226.707031 58.953125 225.761719 58.953125 C 224.894531 58.988281 224.269531 58.898438 223.917969 58.734375 Z M 223.917969 58.734375 "/>
<path style=" stroke:none;fill-rule:nonzero;fill:rgb(100%,100%,100%);fill-opacity:1;" d="M 13.503906 122.765625 L 25.28125 122.765625 L 25.28125 125.324219 L 17.335938 130.824219 L 25.28125 130.824219 L 25.28125 133.28125 L 13.503906 133.28125 L 13.503906 130.570312 L 21.246094 125.257812 L 13.503906 125.257812 Z M 13.503906 122.765625 "/>
<path style=" stroke:none;fill-rule:nonzero;fill:rgb(100%,100%,100%);fill-opacity:1;" d="M 18.148438 143.25 L 22.542969 145.050781 L 18.148438 146.917969 L 18.148438 143.25 M 25.28125 146.480469 L 25.28125 143.601562 L 13.511719 138.496094 L 13.511719 141.351562 L 16.160156 142.472656 L 16.160156 147.785156 L 13.511719 148.9375 L 13.511719 151.816406 Z M 25.28125 146.480469 "/>
<path style=" stroke:none;fill-rule:nonzero;fill:rgb(100%,100%,100%);fill-opacity:1;" d="M 13.503906 156.941406 L 25.28125 156.941406 L 25.28125 159.542969 L 17.335938 164.96875 L 25.28125 164.96875 L 25.28125 167.480469 L 13.503906 167.480469 L 13.503906 164.78125 L 21.246094 159.402344 L 13.503906 159.402344 Z M 13.503906 156.941406 "/>
<path style=" stroke:none;fill-rule:nonzero;fill:rgb(100%,100%,100%);fill-opacity:1;" d="M 26.324219 177.976562 L 26.828125 180.625 L 19.488281 182.039062 C 18.535156 182.25 17.796875 182.28125 17.238281 182.203125 C 16.523438 182.074219 15.886719 181.710938 15.371094 181.117188 C 14.832031 180.546875 14.414062 179.710938 14.207031 178.625 C 13.964844 177.328125 14.074219 176.265625 14.589844 175.484375 C 15.085938 174.671875 15.964844 174.113281 17.203125 173.871094 L 17.941406 176.296875 C 17.304688 176.484375 16.84375 176.628906 16.566406 176.890625 C 16.214844 177.285156 16.105469 177.757812 16.207031 178.308594 C 16.335938 178.867188 16.566406 179.25 16.886719 179.4375 C 17.238281 179.65625 17.875 179.625 18.832031 179.4375 Z M 26.324219 177.976562 "/>
<path style=" stroke:none;fill-rule:nonzero;fill:rgb(100%,100%,100%);fill-opacity:1;" d="M 21.214844 199.660156 L 31.5625 194.039062 L 32.792969 196.34375 L 28.421875 204.886719 L 35.398438 201.175781 L 36.585938 203.296875 L 26.203125 208.917969 L 24.941406 206.566406 L 29.222656 198.144531 L 22.390625 201.855469 Z M 21.214844 199.660156 "/>
<path style=" stroke:none;fill-rule:nonzero;fill:rgb(100%,100%,100%);fill-opacity:1;" d="M 38.113281 217.546875 L 39.628906 216.273438 L 43.40625 220.632812 L 39.804688 223.726562 C 39.058594 223.59375 38.246094 223.277344 37.253906 222.707031 C 36.277344 222.144531 35.453125 221.464844 34.75 220.632812 C 33.859375 219.578125 33.246094 218.511719 32.980469 217.359375 C 32.675781 216.273438 32.738281 215.207031 33.125 214.164062 C 33.519531 213.121094 34.144531 212.265625 34.992188 211.519531 C 35.949219 210.738281 36.925781 210.246094 38.058594 210.035156 C 39.125 209.851562 40.265625 210.035156 41.375 210.5625 C 42.222656 210.894531 43.066406 211.59375 43.878906 212.5625 C 44.945312 213.769531 45.539062 214.988281 45.738281 216.054688 C 45.847656 217.117188 45.605469 218.128906 44.957031 219.039062 L 42.871094 217.347656 C 43.1875 216.820312 43.320312 216.226562 43.199219 215.613281 C 43.132812 215.019531 42.835938 214.429688 42.351562 213.855469 C 41.585938 212.988281 40.707031 212.472656 39.769531 212.40625 C 38.816406 212.332031 37.871094 212.714844 36.882812 213.5625 C 35.828125 214.472656 35.265625 215.4375 35.179688 216.414062 C 35.070312 217.4375 35.421875 218.316406 36.179688 219.203125 C 36.542969 219.597656 37.015625 219.972656 37.519531 220.269531 C 38.035156 220.554688 38.53125 220.796875 39.003906 220.871094 L 40.132812 219.882812 Z M 38.113281 217.546875 "/>
<path style=" stroke:none;fill-rule:nonzero;fill:rgb(100%,100%,100%);fill-opacity:1;" d="M 52.824219 235.914062 L 58.183594 225.472656 L 60.503906 226.636719 L 61.710938 236.1875 L 65.371094 229.128906 L 67.554688 230.292969 L 62.140625 240.699219 L 59.800781 239.515625 L 58.546875 230.148438 L 55.007812 237.042969 Z M 52.824219 235.914062 "/>
<path style=" stroke:none;fill-rule:nonzero;fill:rgb(100%,100%,100%);fill-opacity:1;" d="M 75.191406 234.652344 C 75.972656 234.046875 76.882812 233.792969 78.003906 233.90625 C 79.09375 233.980469 79.949219 234.398438 80.574219 235.132812 C 81.167969 235.835938 81.441406 236.867188 81.289062 238.199219 C 81.191406 239.570312 80.773438 240.578125 80.027344 241.226562 C 79.257812 241.820312 78.367188 242.09375 77.289062 241.996094 C 76.191406 241.917969 75.378906 241.492188 74.707031 240.753906 C 74.105469 240.007812 73.828125 238.953125 73.941406 237.617188 C 74.070312 236.277344 74.488281 235.277344 75.191406 234.652344 M 72.566406 241.996094 C 73.652344 243.191406 75.148438 243.851562 77.136719 244.015625 C 79.070312 244.179688 80.652344 243.773438 81.914062 242.820312 C 83.179688 241.84375 83.859375 240.347656 84.035156 238.492188 C 84.199219 236.59375 83.683594 235.089844 82.675781 233.90625 C 81.574219 232.6875 80.09375 232.039062 78.125 231.863281 C 77.058594 231.785156 76.070312 231.863281 75.246094 232.082031 C 74.644531 232.269531 74.003906 232.566406 73.445312 232.992188 C 72.886719 233.421875 72.421875 233.9375 72.0625 234.476562 C 71.597656 235.277344 71.3125 236.277344 71.214844 237.460938 C 71.050781 239.359375 71.535156 240.84375 72.566406 241.996094 Z M 72.566406 241.996094 "/>
<path style=" stroke:none;fill-rule:nonzero;fill:rgb(100%,100%,100%);fill-opacity:1;" d="M 92.804688 235.132812 L 94.890625 235.277344 C 95.957031 235.308594 96.582031 235.355469 96.824219 235.355469 C 97.253906 235.464844 97.59375 235.628906 97.8125 235.914062 C 98.023438 236.15625 98.132812 236.507812 98.066406 236.867188 C 98.066406 237.230469 97.988281 237.5625 97.757812 237.746094 C 97.582031 238 97.308594 238.109375 96.976562 238.230469 C 96.691406 238.339844 95.878906 238.339844 94.59375 238.230469 L 92.648438 238.121094 L 92.804688 235.132812 M 92.285156 244.917969 L 92.527344 239.996094 L 93.066406 240.042969 C 93.703125 240.109375 94.164062 240.140625 94.429688 240.25 C 94.714844 240.347656 94.96875 240.523438 95.199219 240.765625 C 95.453125 241.042969 95.878906 241.644531 96.539062 242.566406 L 98.308594 245.234375 L 101.449219 245.421875 L 99.964844 243.0625 C 99.375 242.085938 98.933594 241.445312 98.582031 241.0625 C 98.21875 240.667969 97.746094 240.316406 97.210938 239.976562 C 98.394531 239.878906 99.253906 239.558594 99.847656 239.03125 C 100.449219 238.484375 100.789062 237.792969 100.855469 236.859375 C 100.890625 236.167969 100.691406 235.5625 100.363281 234.96875 C 100 234.410156 99.539062 234.027344 98.921875 233.773438 C 98.285156 233.53125 97.265625 233.378906 95.859375 233.257812 L 90.253906 232.972656 L 89.628906 244.71875 Z M 92.285156 244.917969 "/>
<path style=" stroke:none;fill-rule:nonzero;fill:rgb(100%,100%,100%);fill-opacity:1;" d="M 106.910156 245.640625 L 107.175781 233.851562 L 111.171875 233.9375 L 113.382812 242.039062 L 115.941406 234.058594 L 119.941406 234.167969 L 119.621094 245.9375 L 117.195312 245.882812 L 117.402344 236.59375 L 114.613281 245.816406 L 111.976562 245.730469 L 109.636719 236.441406 L 109.371094 245.707031 Z M 106.910156 245.640625 "/>
<path style=" stroke:none;fill-rule:nonzero;fill:rgb(100%,100%,100%);fill-opacity:1;" d="M 129.695312 241.292969 L 131.453125 236.902344 L 133.386719 241.226562 L 129.695312 241.292969 M 132.882812 234.136719 L 129.972656 234.167969 L 125.003906 246.003906 L 127.851562 245.992188 L 128.9375 243.292969 L 134.265625 243.214844 L 135.453125 245.894531 L 138.34375 245.859375 Z M 132.882812 234.136719 "/>
<path style=" stroke:none;fill-rule:nonzero;fill:rgb(100%,100%,100%);fill-opacity:1;" d="M 143.804688 245.640625 L 143.144531 233.980469 L 145.8125 233.851562 L 146.339844 243.488281 L 153.03125 243.09375 L 153.152344 245.082031 Z M 143.804688 245.640625 "/>
<path style=" stroke:none;fill-rule:nonzero;fill:rgb(100%,100%,100%);fill-opacity:1;" d="M 166.257812 232.039062 L 168.894531 231.6875 L 169.742188 238.03125 C 169.886719 239.042969 169.996094 239.722656 170.125 239.976562 C 170.28125 240.4375 170.597656 240.753906 171.105469 241.03125 C 171.53125 241.25 172.125 241.347656 172.875 241.214844 C 173.585938 241.105469 174.148438 240.886719 174.5 240.589844 C 174.851562 240.285156 175.003906 239.878906 175.039062 239.472656 C 175.070312 239.074219 175.003906 238.40625 174.894531 237.460938 L 174.003906 230.960938 L 176.652344 230.632812 L 177.476562 236.75 C 177.6875 238.1875 177.730469 239.164062 177.652344 239.734375 C 177.574219 240.339844 177.410156 240.867188 177.082031 241.347656 C 176.742188 241.777344 176.28125 242.171875 175.664062 242.480469 C 175.070312 242.820312 174.246094 243.050781 173.226562 243.183594 C 171.929688 243.359375 171.003906 243.359375 170.335938 243.183594 C 169.632812 243.015625 169.070312 242.730469 168.65625 242.402344 C 168.226562 242.007812 167.90625 241.632812 167.730469 241.195312 C 167.511719 240.523438 167.269531 239.570312 167.09375 238.261719 Z M 166.257812 232.039062 "/>
<path style=" stroke:none;fill-rule:nonzero;fill:rgb(100%,100%,100%);fill-opacity:1;" d="M 187.289062 240.699219 L 182.179688 230.074219 L 184.519531 228.976562 L 192.914062 233.707031 L 189.484375 226.582031 L 191.671875 225.496094 L 196.8125 236.121094 L 194.386719 237.265625 L 186.179688 232.652344 L 189.539062 239.648438 Z M 187.289062 240.699219 "/>
<path style=" stroke:none;fill-rule:nonzero;fill:rgb(100%,100%,100%);fill-opacity:1;" d="M 203.503906 231.269531 L 196.089844 222.15625 L 198.152344 220.5 L 205.582031 229.644531 Z M 203.503906 231.269531 "/>
<path style=" stroke:none;fill-rule:nonzero;fill:rgb(100%,100%,100%);fill-opacity:1;" d="M 213.492188 221.792969 L 201.425781 217.910156 L 203.242188 215.667969 L 212.117188 218.609375 L 207.414062 210.617188 L 209.195312 208.390625 L 215.347656 219.511719 Z M 213.492188 221.792969 "/>
<path style=" stroke:none;fill-rule:nonzero;fill:rgb(100%,100%,100%);fill-opacity:1;" d="M 221.894531 209.804688 L 211.238281 204.800781 L 215.425781 195.9375 L 217.214844 196.808594 L 214.183594 203.21875 L 216.535156 204.316406 L 219.367188 198.332031 L 221.171875 199.210938 L 218.347656 205.195312 L 221.269531 206.566406 L 224.402344 199.902344 L 226.191406 200.757812 Z M 221.894531 209.804688 "/>
<path style=" stroke:none;fill-rule:nonzero;fill:rgb(100%,100%,100%);fill-opacity:1;" d="M 219.742188 188.671875 L 220.203125 186.640625 C 220.457031 185.609375 220.597656 184.949219 220.6875 184.773438 C 220.839844 184.367188 221.070312 184.039062 221.355469 183.894531 C 221.664062 183.707031 221.996094 183.6875 222.402344 183.761719 C 222.730469 183.875 223.027344 184.003906 223.179688 184.226562 C 223.367188 184.445312 223.511719 184.71875 223.511719 185.09375 C 223.542969 185.433594 223.402344 186.191406 223.125 187.453125 L 222.664062 189.375 L 219.742188 188.671875 M 229.265625 190.933594 L 224.476562 189.8125 L 224.609375 189.253906 C 224.753906 188.660156 224.894531 188.230469 225.058594 187.980469 C 225.214844 187.707031 225.421875 187.53125 225.71875 187.308594 C 226.027344 187.089844 226.664062 186.773438 227.695312 186.289062 L 230.628906 185.015625 L 231.367188 181.953125 L 228.761719 183.039062 C 227.761719 183.421875 227.027344 183.773438 226.574219 184.050781 C 226.148438 184.335938 225.707031 184.71875 225.300781 185.179688 C 225.433594 184.050781 225.269531 183.117188 224.816406 182.425781 C 224.402344 181.722656 223.730469 181.304688 222.90625 181.085938 C 222.214844 180.910156 221.542969 180.953125 220.941406 181.195312 C 220.300781 181.445312 219.820312 181.863281 219.46875 182.46875 C 219.117188 183.039062 218.808594 184.003906 218.457031 185.378906 L 217.214844 190.824219 L 228.664062 193.523438 Z M 229.265625 190.933594 "/>
<path style=" stroke:none;fill-rule:nonzero;fill:rgb(100%,100%,100%);fill-opacity:1;" d="M 228.488281 175.660156 L 228.277344 173.101562 C 229.046875 172.925781 229.617188 172.574219 229.96875 172.105469 C 230.355469 171.644531 230.496094 171.015625 230.496094 170.183594 C 230.496094 169.316406 230.355469 168.667969 230.027344 168.21875 C 229.71875 167.800781 229.324219 167.582031 228.90625 167.582031 C 228.628906 167.582031 228.378906 167.691406 228.167969 167.878906 C 228.015625 168.050781 227.816406 168.371094 227.683594 168.832031 C 227.574219 169.152344 227.398438 169.84375 227.179688 170.949219 C 226.894531 172.390625 226.464844 173.378906 226.015625 173.9375 C 225.355469 174.738281 224.578125 175.167969 223.632812 175.167969 C 223.003906 175.167969 222.476562 174.96875 221.9375 174.5625 C 221.421875 174.234375 221.039062 173.617188 220.742188 172.917969 C 220.457031 172.246094 220.324219 171.355469 220.324219 170.359375 C 220.324219 168.679688 220.632812 167.460938 221.300781 166.582031 C 221.960938 165.769531 222.820312 165.351562 223.882812 165.285156 L 223.992188 167.953125 C 223.355469 168.085938 222.949219 168.304688 222.664062 168.691406 C 222.410156 169.050781 222.28125 169.632812 222.28125 170.371094 C 222.28125 171.136719 222.410156 171.753906 222.675781 172.191406 C 222.894531 172.476562 223.160156 172.574219 223.410156 172.574219 C 223.71875 172.574219 223.972656 172.476562 224.160156 172.191406 C 224.402344 171.882812 224.6875 171.0625 224.960938 169.789062 C 225.246094 168.480469 225.5 167.527344 225.773438 166.910156 C 226.113281 166.308594 226.476562 165.78125 227.003906 165.441406 C 227.5 165.097656 228.136719 164.902344 228.839844 164.902344 C 229.542969 164.902344 230.179688 165.175781 230.785156 165.558594 C 231.34375 165.957031 231.792969 166.570312 232.078125 167.316406 C 232.367188 168.117188 232.507812 169.074219 232.507812 170.203125 C 232.507812 171.90625 232.179688 173.203125 231.488281 174.082031 C 230.804688 174.992188 229.816406 175.507812 228.488281 175.660156 Z M 228.488281 175.660156 "/>
<path style=" stroke:none;fill-rule:nonzero;fill:rgb(100%,100%,100%);fill-opacity:1;" d="M 220.53125 156.339844 L 232.332031 156.339844 L 232.332031 159.015625 L 220.53125 159.015625 Z M 220.53125 156.339844 "/>
<path style=" stroke:none;fill-rule:nonzero;fill:rgb(100%,100%,100%);fill-opacity:1;" d="M 232.332031 147.082031 L 222.53125 147.082031 L 222.53125 151.011719 L 220.53125 151.011719 L 220.53125 140.539062 L 222.53125 140.539062 L 222.53125 144.414062 L 232.332031 144.414062 Z M 232.332031 147.082031 "/>
<path style=" stroke:none;fill-rule:nonzero;fill:rgb(100%,100%,100%);fill-opacity:1;" d="M 232.332031 131.65625 L 227.367188 131.65625 L 220.53125 136.488281 L 220.53125 133.347656 L 225.214844 130.230469 L 220.53125 127.167969 L 220.53125 124.136719 L 227.367188 128.988281 L 232.332031 128.988281 Z M 232.332031 131.65625 "/>
<path style=" stroke:none;fill-rule:nonzero;fill:rgb(100%,100%,100%);fill-opacity:1;" d="M 17.535156 190.207031 L 28.632812 186.191406 L 29.519531 188.75 L 18.425781 192.734375 Z M 17.535156 190.207031 "/>
<path style=" stroke:none;fill-rule:nonzero;fill:rgb(0%,38.823529%,23.921569%);fill-opacity:1;" d="M 131.597656 86.832031 L 133.992188 86.347656 C 133.992188 86.347656 133.992188 85.402344 132.71875 83.285156 C 131.453125 81.175781 128.167969 77.464844 128.167969 77.464844 L 124.300781 77.464844 C 121.972656 74.996094 119.378906 72.789062 116.414062 70.953125 L 116.226562 70.8125 C 116.183594 70.746094 116.183594 70.734375 116.183594 70.734375 C 116.148438 70.734375 116.148438 70.734375 116.105469 70.734375 C 116.105469 70.703125 116.007812 70.703125 115.964844 70.625 C 115.898438 70.582031 115.796875 70.546875 115.742188 70.449219 L 115.46875 70.371094 L 115.46875 70.382812 C 115.402344 70.316406 115.335938 70.273438 115.292969 70.273438 C 115.777344 68.164062 115.511719 65.203125 113.117188 61.160156 C 110.46875 56.453125 105.65625 53.289062 102.648438 53.34375 C 103.304688 55.957031 104.898438 59.933594 107.832031 63.699219 C 109.800781 66.253906 111.4375 67.769531 112.929688 69.042969 C 109.855469 67.660156 106.480469 66.828125 103.011719 66.484375 C 103.539062 64.859375 102.691406 61.359375 99.097656 58.8125 C 95.375 56.101562 90.726562 55.792969 88.113281 56.976562 C 88.046875 58.921875 90.714844 61.28125 94.230469 63.523438 C 96.5625 64.9375 98.746094 65.949219 100.539062 66.410156 C 97.042969 66.367188 93.496094 66.859375 90.066406 67.925781 L 89.792969 67.988281 L 89.792969 68.066406 C 89.792969 68.066406 89.761719 68.078125 89.726562 68.078125 C 89.585938 66.253906 87.476562 63.46875 83.101562 62.457031 C 78.675781 61.445312 74.367188 62.941406 72.785156 64.519531 C 73.457031 66.308594 76.476562 68 80.542969 68.703125 C 83.332031 69.1875 85.792969 69.21875 87.617188 68.890625 C 84.089844 70.363281 80.914062 72.316406 78.003906 74.511719 C 77.191406 72.863281 74.378906 71.128906 70.304688 71.054688 C 66.039062 71.007812 62.402344 72.964844 61.25 74.710938 C 62.207031 76.300781 65.382812 77.5625 69.457031 77.519531 C 71.863281 77.441406 74.027344 77.058594 75.621094 76.367188 C 73.226562 78.34375 71.050781 80.417969 69.027344 82.460938 C 68.898438 82.59375 68.777344 82.703125 68.644531 82.878906 C 67.480469 81.472656 64.371094 80.351562 60.371094 81.152344 C 56.21875 82.011719 53.074219 84.679688 52.296875 86.65625 C 53.570312 87.960938 56.976562 88.554688 60.964844 87.632812 C 62.898438 87.148438 64.621094 86.5 65.941406 85.730469 C 65.019531 86.71875 64.074219 87.808594 63.152344 88.925781 C 60.996094 89.554688 58.285156 92.066406 55.800781 95.535156 C 52.835938 99.699219 51.789062 104.746094 51.964844 106.878906 C 54.921875 106.59375 58.523438 103.671875 61.359375 99.699219 C 64.140625 95.832031 65.117188 91.816406 64.558594 89.730469 C 65.4375 88.609375 66.292969 87.585938 67.203125 86.65625 C 66.601562 87.894531 66.171875 89.464844 66.105469 91.167969 C 65.972656 95.109375 67.609375 98.0625 69.128906 99.082031 C 70.535156 98.171875 71.90625 95.394531 72.09375 91.617188 C 72.347656 88.050781 71.488281 84.746094 70.183594 83.492188 C 70.699219 83.007812 71.246094 82.40625 71.90625 81.902344 L 72.070312 81.726562 L 72.039062 81.648438 C 73.203125 80.59375 74.53125 79.363281 76.015625 78.125 C 75.179688 79.496094 74.609375 81.363281 74.5 83.4375 C 74.367188 87.410156 75.984375 90.367188 77.457031 91.386719 C 78.894531 90.410156 80.269531 87.652344 80.507812 83.898438 C 80.730469 80.441406 79.917969 77.289062 78.71875 75.917969 C 80.859375 74.269531 83.289062 72.6875 85.894531 71.382812 C 84.96875 72.480469 84.101562 73.996094 83.683594 75.753906 C 82.871094 79.519531 84.046875 82.691406 85.332031 83.921875 C 86.816406 83.359375 88.265625 81.078125 89.179688 77.652344 C 89.945312 74.554688 90.199219 71.449219 89.519531 69.757812 C 90.046875 69.582031 90.550781 69.40625 91.113281 69.230469 L 91.253906 69.199219 C 94.046875 68.386719 96.957031 68 99.789062 67.957031 C 98.089844 68.441406 96.132812 69.648438 94.8125 71.65625 C 92.5625 74.820312 93.164062 78.234375 93.804688 79.816406 C 94.683594 79.890625 96.914062 78.300781 99.023438 75.554688 C 101.132812 72.765625 102.648438 69.855469 102.4375 68.023438 C 105.546875 68.242188 108.558594 68.914062 111.359375 70.054688 C 109.601562 70.019531 107.582031 70.472656 105.722656 71.953125 C 102.175781 74.832031 101.121094 79.023438 101.121094 81.417969 C 102.363281 82.21875 104.703125 81.054688 108.097656 78.945312 C 111.328125 76.859375 114.324219 74.238281 115.074219 71.941406 C 115.140625 71.988281 115.28125 72.050781 115.324219 72.085938 C 122.160156 76.269531 127.257812 82.988281 131.324219 89.234375 C 131.738281 88.917969 132.191406 88.628906 132.585938 88.355469 C 132.265625 87.839844 131.949219 87.324219 131.597656 86.832031 Z M 131.597656 86.832031 "/>
<path style=" stroke:none;fill-rule:nonzero;fill:rgb(0%,38.823529%,23.921569%);fill-opacity:1;" d="M 114.414062 86.832031 L 112.03125 86.347656 C 112.03125 86.347656 112.03125 85.402344 113.292969 83.285156 C 114.566406 81.175781 117.863281 77.464844 117.863281 77.464844 L 121.742188 77.464844 C 124.039062 74.996094 126.640625 72.789062 129.585938 70.953125 L 129.796875 70.8125 C 129.839844 70.746094 129.859375 70.734375 129.859375 70.734375 C 129.882812 70.734375 129.882812 70.734375 129.882812 70.734375 C 129.980469 70.703125 130.035156 70.703125 130.09375 70.625 C 130.167969 70.582031 130.257812 70.546875 130.3125 70.449219 L 130.554688 70.371094 L 130.5625 70.382812 C 130.628906 70.316406 130.675781 70.273438 130.75 70.273438 C 130.269531 68.164062 130.507812 65.203125 132.90625 61.160156 C 135.574219 56.453125 140.40625 53.289062 143.398438 53.34375 C 142.757812 55.957031 141.175781 59.933594 138.1875 63.699219 C 136.253906 66.253906 134.550781 67.769531 133.113281 69.042969 C 136.179688 67.660156 139.550781 66.828125 143.011719 66.484375 C 142.484375 64.859375 143.339844 61.359375 146.957031 58.8125 C 150.648438 56.101562 155.261719 55.792969 157.910156 56.976562 C 158.007812 58.921875 155.304688 61.28125 151.769531 63.523438 C 149.449219 64.9375 147.320312 65.949219 145.539062 66.410156 C 148.988281 66.367188 152.546875 66.859375 155.953125 67.925781 L 156.261719 67.988281 L 156.230469 68.066406 C 156.261719 68.066406 156.273438 68.078125 156.273438 68.078125 C 156.460938 66.253906 158.535156 63.46875 162.917969 62.457031 C 167.359375 61.445312 171.699219 62.941406 173.269531 64.519531 C 172.597656 66.308594 169.578125 68 165.523438 68.703125 C 162.734375 69.1875 160.238281 69.21875 158.46875 68.890625 C 161.929688 70.363281 165.148438 72.316406 168.050781 74.511719 C 168.863281 72.863281 171.652344 71.128906 175.71875 71.054688 C 180.015625 71.007812 183.652344 72.964844 184.804688 74.710938 C 183.859375 76.300781 180.683594 77.5625 176.585938 77.519531 C 174.179688 77.441406 172.015625 77.058594 170.421875 76.367188 C 172.839844 78.34375 175.003906 80.417969 177.039062 82.460938 C 177.167969 82.59375 177.289062 82.703125 177.433594 82.878906 C 178.574219 81.472656 181.695312 80.351562 185.671875 81.152344 C 189.835938 82.011719 193 84.679688 193.746094 86.65625 C 192.453125 87.960938 189.089844 88.554688 185.113281 87.632812 C 183.179688 87.148438 181.488281 86.5 180.101562 85.730469 C 181.027344 86.71875 181.960938 87.808594 182.871094 88.925781 C 185.070312 89.554688 187.726562 92.066406 190.242188 95.535156 C 193.230469 99.699219 194.320312 104.746094 194.042969 106.878906 C 191.167969 106.59375 187.519531 103.671875 184.683594 99.699219 C 181.925781 95.832031 180.9375 91.816406 181.519531 89.730469 C 180.609375 88.609375 179.730469 87.585938 178.851562 86.65625 C 179.445312 87.894531 179.859375 89.464844 179.9375 91.167969 C 180.089844 95.109375 178.433594 98.0625 176.9375 99.082031 C 175.566406 98.171875 174.179688 95.394531 173.972656 91.617188 C 173.6875 88.050781 174.566406 84.746094 175.871094 83.492188 C 175.410156 83.007812 174.785156 82.40625 174.179688 81.902344 L 174.015625 81.726562 L 174.015625 81.648438 C 172.851562 80.59375 171.511719 79.363281 170.0625 78.125 C 170.894531 79.496094 171.5 81.363281 171.566406 83.4375 C 171.730469 87.410156 170.082031 90.367188 168.632812 91.386719 C 167.183594 90.410156 165.820312 87.652344 165.613281 83.898438 C 165.359375 80.441406 166.140625 77.289062 167.347656 75.917969 C 165.195312 74.269531 162.808594 72.6875 160.195312 71.382812 C 161.152344 72.480469 161.996094 73.996094 162.347656 75.753906 C 163.226562 79.519531 161.996094 82.691406 160.722656 83.921875 C 159.28125 83.359375 157.789062 81.078125 156.921875 77.652344 C 156.117188 74.554688 155.855469 71.449219 156.527344 69.757812 C 156.019531 69.582031 155.503906 69.40625 155 69.230469 L 154.832031 69.199219 C 152.019531 68.386719 149.152344 68 146.296875 67.957031 C 147.957031 68.441406 149.933594 69.648438 151.273438 71.65625 C 153.492188 74.820312 152.933594 78.234375 152.285156 79.816406 C 151.417969 79.890625 149.1875 78.300781 147.066406 75.554688 C 145.011719 72.765625 143.40625 69.855469 143.648438 68.023438 C 140.519531 68.242188 137.507812 68.914062 134.726562 70.054688 C 136.496094 70.019531 138.472656 70.472656 140.320312 71.953125 C 143.890625 74.832031 144.933594 79.023438 144.914062 81.417969 C 143.683594 82.21875 141.398438 81.054688 137.980469 78.945312 C 134.773438 76.859375 131.71875 74.238281 130.972656 71.941406 C 130.90625 71.988281 130.828125 72.050781 130.71875 72.085938 C 123.882812 76.269531 118.808594 82.988281 114.765625 89.234375 C 114.316406 88.917969 113.917969 88.628906 113.46875 88.355469 C 113.742188 87.839844 114.09375 87.324219 114.414062 86.832031 Z M 114.414062 86.832031 "/>
<path style=" stroke:none;fill-rule:nonzero;fill:rgb(0%,38.823529%,23.921569%);fill-opacity:1;" d="M 132.410156 53.695312 C 132.410156 51.730469 130.785156 50.09375 128.773438 50.09375 C 127.894531 50.09375 127.046875 50.402344 126.445312 50.949219 C 126.597656 50.523438 126.6875 50.0625 126.6875 49.566406 C 126.6875 47.558594 125.058594 45.945312 123.09375 45.945312 C 121.070312 45.945312 119.433594 47.558594 119.433594 49.566406 C 119.433594 50.136719 119.542969 50.632812 119.753906 51.105469 C 119.09375 50.445312 118.203125 50.09375 117.214844 50.09375 C 115.214844 50.09375 113.613281 51.742188 113.613281 53.695312 C 113.613281 55.671875 115.226562 57.328125 117.214844 57.328125 C 117.402344 57.328125 117.566406 57.328125 117.722656 57.320312 C 116.632812 57.878906 115.886719 59.085938 115.886719 60.457031 C 115.886719 62.457031 117.46875 64.082031 119.480469 64.082031 C 121.238281 64.082031 122.6875 62.886719 123.050781 61.238281 C 123.410156 62.886719 124.851562 64.082031 126.597656 64.082031 C 128.597656 64.082031 130.234375 62.457031 130.234375 60.457031 C 130.234375 59.097656 129.488281 57.933594 128.378906 57.320312 C 128.488281 57.328125 128.652344 57.328125 128.761719 57.328125 C 130.785156 57.328125 132.410156 55.671875 132.410156 53.695312 M 123.003906 57.1875 C 122.148438 57.1875 121.378906 56.507812 121.378906 55.5625 C 121.378906 54.652344 122.148438 53.9375 123.003906 53.9375 C 123.882812 53.9375 124.652344 54.652344 124.652344 55.5625 C 124.652344 56.507812 123.882812 57.1875 123.003906 57.1875 Z M 123.003906 57.1875 "/>
<path style=" stroke:none;fill-rule:nonzero;fill:rgb(0%,38.823529%,23.921569%);fill-opacity:1;" d="M 95.023438 135.355469 L 95.023438 137.992188 L 151.03125 137.992188 L 151.03125 135.355469 L 123.347656 135.433594 L 122.652344 135.433594 Z M 95.023438 135.355469 "/>
<path style=" stroke:none;fill-rule:nonzero;fill:rgb(0%,38.823529%,23.921569%);fill-opacity:1;" d="M 53.175781 154.140625 L 64.480469 154.140625 L 64.480469 159.390625 L 53.175781 159.390625 Z M 53.175781 154.140625 "/>
<path style=" stroke:none;fill-rule:nonzero;fill:rgb(0%,38.823529%,23.921569%);fill-opacity:1;" d="M 81.035156 147.578125 L 92.835938 147.578125 L 92.835938 168.765625 L 81.035156 168.765625 Z M 81.035156 147.578125 "/>
<path style=" stroke:none;fill-rule:nonzero;fill:rgb(0%,38.823529%,23.921569%);fill-opacity:1;" d="M 53.175781 142.328125 L 92.835938 142.328125 L 92.835938 145.414062 L 53.175781 145.414062 Z M 53.175781 142.328125 "/>
<path style=" stroke:none;fill-rule:nonzero;fill:rgb(0%,38.823529%,23.921569%);fill-opacity:1;" d="M 66.667969 147.578125 L 78.863281 147.578125 L 78.863281 168.765625 L 66.667969 168.765625 Z M 66.667969 147.578125 "/>
<path style=" stroke:none;fill-rule:nonzero;fill:rgb(0%,38.823529%,23.921569%);fill-opacity:1;" d="M 53.175781 147.578125 L 64.480469 147.578125 L 64.480469 151.945312 L 53.175781 151.945312 Z M 53.175781 147.578125 "/>
<path style=" stroke:none;fill-rule:nonzero;fill:rgb(0%,38.823529%,23.921569%);fill-opacity:1;" d="M 98.824219 133.152344 C 99.1875 133.152344 99.59375 133.117188 100.085938 133.074219 L 100.085938 133.171875 L 123.015625 133.214844 L 145.933594 133.171875 L 145.976562 133.074219 C 146.460938 133.117188 146.835938 133.152344 147.242188 133.152344 C 154.535156 133.152344 161.007812 129.144531 164.316406 122.972656 L 150.1875 122.972656 L 150.1875 114.429688 L 95.835938 114.429688 L 95.835938 122.972656 L 81.71875 122.972656 C 85.003906 129.152344 91.507812 133.152344 98.824219 133.152344 Z M 98.824219 133.152344 "/>
<path style=" stroke:none;fill-rule:nonzero;fill:rgb(0%,38.823529%,23.921569%);fill-opacity:1;" d="M 181.53125 147.578125 L 192.8125 147.578125 L 192.8125 151.945312 L 181.53125 151.945312 Z M 181.53125 147.578125 "/>
<path style=" stroke:none;fill-rule:nonzero;fill:rgb(0%,38.823529%,23.921569%);fill-opacity:1;" d="M 153.207031 142.328125 L 192.824219 142.328125 L 192.824219 145.414062 L 153.207031 145.414062 Z M 153.207031 142.328125 "/>
<path style=" stroke:none;fill-rule:nonzero;fill:rgb(0%,38.823529%,23.921569%);fill-opacity:1;" d="M 167.160156 147.578125 L 179.378906 147.578125 L 179.378906 168.765625 L 167.160156 168.765625 Z M 167.160156 147.578125 "/>
<path style=" stroke:none;fill-rule:nonzero;fill:rgb(0%,38.823529%,23.921569%);fill-opacity:1;" d="M 181.53125 154.140625 L 192.8125 154.140625 L 192.8125 159.390625 L 181.53125 159.390625 Z M 181.53125 154.140625 "/>
<path style=" stroke:none;fill-rule:nonzero;fill:rgb(0%,38.823529%,23.921569%);fill-opacity:1;" d="M 130.113281 155.109375 L 134.3125 155.109375 L 134.3125 168.765625 L 130.113281 168.765625 Z M 130.113281 155.109375 "/>
<path style=" stroke:none;fill-rule:nonzero;fill:rgb(0%,38.823529%,23.921569%);fill-opacity:1;" d="M 51.460938 140.109375 L 92.835938 140.109375 L 92.835938 134.488281 C 86.882812 132.765625 81.925781 128.605469 79.269531 122.972656 L 53.175781 122.972656 L 53.175781 128.285156 C 50.503906 130.394531 47.15625 131.589844 43.484375 131.589844 C 42.671875 131.589844 41.835938 131.546875 41.078125 131.414062 C 43.539062 135.3125 47.175781 138.386719 51.472656 140.132812 L 51.472656 140.109375 Z M 51.460938 140.109375 "/>
<path style=" stroke:none;fill-rule:nonzero;fill:rgb(0%,38.823529%,23.921569%);fill-opacity:1;" d="M 153.207031 147.578125 L 164.964844 147.578125 L 164.964844 168.765625 L 153.207031 168.765625 Z M 153.207031 147.578125 "/>
<path style=" stroke:none;fill-rule:nonzero;fill:rgb(0%,38.823529%,23.921569%);fill-opacity:1;" d="M 53.175781 161.519531 L 64.480469 161.519531 L 64.480469 168.765625 L 53.175781 168.765625 Z M 53.175781 161.519531 "/>
<path style=" stroke:none;fill-rule:nonzero;fill:rgb(0%,38.823529%,23.921569%);fill-opacity:1;" d="M 181.53125 161.519531 L 192.8125 161.519531 L 192.8125 168.765625 L 181.53125 168.765625 Z M 181.53125 161.519531 "/>
<path style=" stroke:none;fill-rule:nonzero;fill:rgb(0%,38.823529%,23.921569%);fill-opacity:1;" d="M 202.558594 131.589844 C 198.902344 131.589844 195.539062 130.394531 192.8125 128.285156 L 192.8125 122.972656 L 166.753906 122.972656 C 164.085938 128.605469 159.171875 132.765625 153.195312 134.488281 L 153.195312 140.109375 L 194.570312 140.109375 L 194.570312 140.132812 C 198.867188 138.398438 202.527344 135.3125 204.964844 131.414062 C 204.175781 131.546875 203.40625 131.589844 202.558594 131.589844 Z M 202.558594 131.589844 "/>
<path style=" stroke:none;fill-rule:nonzero;fill:rgb(0%,38.823529%,23.921569%);fill-opacity:1;" d="M 123.347656 145.382812 L 134.3125 145.382812 L 134.3125 140.1875 L 111.699219 140.1875 L 111.699219 145.382812 Z M 123.347656 145.382812 "/>
<path style=" stroke:none;fill-rule:nonzero;fill:rgb(0%,38.823529%,23.921569%);fill-opacity:1;" d="M 106.710938 151.265625 C 107.765625 152.285156 109.207031 152.921875 110.667969 152.921875 L 110.710938 152.890625 C 110.746094 152.890625 110.777344 152.890625 110.855469 152.890625 L 110.855469 152.921875 L 135.179688 152.921875 L 135.210938 152.890625 C 135.253906 152.890625 135.289062 152.890625 135.320312 152.890625 L 135.355469 152.921875 C 136.871094 152.921875 138.308594 152.285156 139.332031 151.265625 C 137.464844 150.628906 135.914062 149.324219 134.992188 147.578125 L 111.042969 147.578125 C 110.128906 149.324219 108.546875 150.628906 106.710938 151.265625 Z M 106.710938 151.265625 "/>
<path style=" stroke:none;fill-rule:nonzero;fill:rgb(0%,38.823529%,23.921569%);fill-opacity:1;" d="M 95.023438 168.765625 L 109.523438 168.765625 L 109.523438 155.03125 C 107.164062 154.636719 105.042969 153.210938 103.84375 151.089844 L 103.066406 149.609375 L 104.722656 149.464844 C 106.800781 149.300781 108.558594 147.949219 109.339844 146.050781 L 109.523438 145.632812 L 109.523438 140.1875 L 95.023438 140.1875 Z M 95.023438 168.765625 "/>
<path style=" stroke:none;fill-rule:nonzero;fill:rgb(0%,38.823529%,23.921569%);fill-opacity:1;" d="M 127.917969 155.109375 L 118.09375 155.109375 L 118.09375 168.765625 L 127.917969 168.765625 Z M 127.917969 155.109375 "/>
<path style=" stroke:none;fill-rule:nonzero;fill:rgb(0%,38.823529%,23.921569%);fill-opacity:1;" d="M 151.03125 140.1875 L 136.519531 140.1875 L 136.519531 145.632812 L 136.707031 146.050781 C 137.476562 147.949219 139.242188 149.300781 141.308594 149.464844 L 142.957031 149.609375 L 142.15625 151.089844 C 140.96875 153.210938 138.882812 154.636719 136.519531 155.03125 L 136.519531 168.765625 L 151.03125 168.765625 Z M 151.03125 140.1875 "/>
<path style=" stroke:none;fill-rule:nonzero;fill:rgb(0%,38.823529%,23.921569%);fill-opacity:1;" d="M 111.699219 155.109375 L 115.898438 155.109375 L 115.898438 168.765625 L 111.699219 168.765625 Z M 111.699219 155.109375 "/>
<path style=" stroke:none;fill-rule:nonzero;fill:rgb(0%,38.823529%,23.921569%);fill-opacity:1;" d="M 106.867188 94.953125 L 106.867188 106.898438 L 103.109375 106.898438 L 103.109375 99.050781 C 102.484375 99.5 101.921875 99.785156 101.351562 100.058594 C 100.8125 100.300781 100.109375 100.554688 99.230469 100.773438 L 99.230469 98.105469 C 100.503906 97.753906 101.484375 97.304688 102.164062 96.808594 C 102.867188 96.316406 103.40625 95.679688 103.789062 94.945312 L 106.867188 94.945312 Z M 106.867188 94.953125 "/>
<path style=" stroke:none;fill-rule:nonzero;fill:rgb(0%,38.823529%,23.921569%);fill-opacity:1;" d="M 117.226562 100.476562 C 116.941406 100.816406 116.511719 100.992188 115.984375 100.992188 C 115.492188 100.992188 115.0625 100.816406 114.742188 100.476562 C 114.4375 100.125 114.226562 99.597656 114.226562 98.972656 C 114.226562 98.304688 114.414062 97.84375 114.742188 97.523438 C 115.0625 97.140625 115.457031 97.019531 115.929688 97.019531 C 116.433594 97.019531 116.886719 97.207031 117.238281 97.554688 C 117.601562 97.886719 117.765625 98.425781 117.765625 99.039062 C 117.765625 99.652344 117.601562 100.160156 117.226562 100.476562 M 111.964844 105.835938 C 112.359375 106.253906 112.855469 106.570312 113.503906 106.777344 C 114.0625 107 114.917969 107.109375 115.941406 107.109375 C 117.742188 107.109375 119.148438 106.613281 120.136719 105.605469 C 121.160156 104.628906 121.652344 103.066406 121.652344 100.980469 C 121.652344 99.511719 121.414062 98.335938 120.949219 97.523438 C 120.457031 96.632812 119.820312 95.976562 119.039062 95.546875 C 118.203125 95.128906 117.136719 94.953125 115.808594 94.953125 C 114.742188 94.953125 113.796875 95.128906 113.074219 95.449219 C 112.359375 95.765625 111.765625 96.28125 111.382812 96.898438 C 110.929688 97.523438 110.753906 98.25 110.753906 99.039062 C 110.753906 100.167969 111.152344 101.125 111.953125 101.847656 C 112.800781 102.617188 113.789062 103.035156 114.953125 103.035156 C 115.554688 103.035156 116.082031 102.902344 116.546875 102.75 C 117.007812 102.542969 117.457031 102.222656 117.90625 101.839844 C 117.777344 103.078125 117.621094 103.890625 117.378906 104.339844 C 117.027344 104.835938 116.566406 105.089844 116.007812 105.089844 C 115.6875 105.089844 115.378906 104.957031 115.140625 104.835938 C 114.917969 104.648438 114.789062 104.339844 114.65625 103.859375 L 110.996094 104.253906 C 111.226562 104.902344 111.546875 105.40625 111.964844 105.835938 Z M 111.964844 105.835938 "/>
<path style=" stroke:none;fill-rule:nonzero;fill:rgb(0%,38.823529%,23.921569%);fill-opacity:1;" d="M 127.289062 97.984375 C 127.53125 97.414062 127.980469 97.128906 128.566406 97.128906 C 129.167969 97.128906 129.652344 97.414062 129.925781 97.941406 C 130.210938 98.480469 130.378906 99.523438 130.378906 101.082031 C 130.378906 102.144531 130.300781 102.9375 130.203125 103.429688 C 130.035156 103.957031 129.859375 104.277344 129.574219 104.550781 C 129.289062 104.757812 128.972656 104.902344 128.585938 104.902344 C 128.027344 104.902344 127.628906 104.628906 127.3125 104.054688 C 127.027344 103.527344 126.863281 102.496094 126.863281 100.992188 C 126.863281 99.523438 127.015625 98.511719 127.289062 97.984375 M 123.457031 103.507812 C 123.644531 104.210938 123.917969 104.835938 124.226562 105.242188 C 124.640625 105.867188 125.214844 106.316406 125.90625 106.613281 C 126.609375 106.921875 127.5 107.109375 128.621094 107.109375 C 130.597656 107.109375 132.015625 106.613281 132.816406 105.605469 C 133.652344 104.628906 134.046875 103.035156 134.046875 100.949219 C 134.046875 99.960938 133.914062 99.050781 133.683594 98.171875 C 133.519531 97.753906 133.367188 97.324219 133.15625 97.007812 C 132.980469 96.65625 132.671875 96.316406 132.3125 95.976562 C 131.949219 95.691406 131.5 95.449219 130.925781 95.238281 C 130.355469 95.054688 129.628906 94.953125 128.71875 94.953125 C 126.863281 94.953125 125.488281 95.382812 124.585938 96.292969 C 123.675781 97.207031 123.214844 98.753906 123.214844 100.980469 C 123.203125 101.894531 123.3125 102.738281 123.457031 103.507812 Z M 123.457031 103.507812 "/>
<path style=" stroke:none;fill-rule:nonzero;fill:rgb(0%,38.823529%,23.921569%);fill-opacity:1;" d="M 146.375 106.910156 L 135.289062 106.910156 C 135.386719 105.964844 135.792969 105.035156 136.441406 104.164062 C 137.078125 103.320312 138.308594 102.308594 140.054688 101.136719 C 141.15625 100.421875 141.847656 99.929688 142.144531 99.523438 C 142.429688 99.171875 142.539062 98.808594 142.539062 98.480469 C 142.539062 98.128906 142.429688 97.765625 142.144531 97.554688 C 141.835938 97.28125 141.484375 97.207031 141.011719 97.207031 C 140.550781 97.207031 140.144531 97.28125 139.878906 97.566406 C 139.5625 97.84375 139.386719 98.304688 139.253906 98.972656 L 135.5625 98.71875 C 135.726562 97.765625 135.992188 97.0625 136.375 96.535156 C 136.738281 96.050781 137.289062 95.613281 137.96875 95.371094 C 138.683594 95.097656 139.640625 94.953125 140.890625 94.953125 C 142.1875 94.953125 143.210938 95.085938 143.925781 95.351562 C 144.660156 95.558594 145.21875 95.976562 145.617188 96.535156 C 146.035156 97.074219 146.21875 97.722656 146.21875 98.335938 C 146.21875 99.070312 146.011719 99.742188 145.515625 100.410156 C 145.054688 101.046875 144.210938 101.773438 142.945312 102.550781 C 142.175781 103.035156 141.703125 103.332031 141.472656 103.527344 C 141.1875 103.714844 140.902344 103.957031 140.5625 104.242188 L 146.363281 104.242188 L 146.363281 106.910156 Z M 146.375 106.910156 "/>
<path style=" stroke:none;fill-rule:nonzero;fill:rgb(0%,38.823529%,23.921569%);fill-opacity:1;" d="M 91.519531 185.332031 L 97.1875 185.332031 L 104.582031 196.179688 L 104.582031 185.332031 L 110.316406 185.332031 L 110.316406 204.976562 L 104.582031 204.976562 L 97.230469 194.171875 L 97.230469 204.976562 L 91.519531 204.976562 Z M 91.519531 185.332031 "/>
<path style=" stroke:none;fill-rule:nonzero;fill:rgb(0%,38.823529%,23.921569%);fill-opacity:1;" d="M 114.402344 185.332031 L 120.070312 185.332031 L 127.464844 196.179688 L 127.464844 185.332031 L 133.179688 185.332031 L 133.179688 204.976562 L 127.464844 204.976562 L 120.117188 194.171875 L 120.117188 204.976562 L 114.402344 204.976562 Z M 114.402344 185.332031 "/>
<path style=" stroke:none;fill-rule:nonzero;fill:rgb(0%,38.823529%,23.921569%);fill-opacity:1;" d="M 150.042969 185.332031 L 156.097656 185.332031 L 156.097656 197.027344 C 156.097656 198.191406 155.921875 199.277344 155.558594 200.296875 C 155.195312 201.351562 154.636719 202.242188 153.855469 203.011719 C 153.085938 203.777344 152.273438 204.316406 151.425781 204.632812 C 150.242188 205.0625 148.847656 205.292969 147.164062 205.292969 C 146.21875 205.292969 145.1875 205.25 144.054688 205.105469 C 142.925781 204.964844 141.980469 204.691406 141.210938 204.304688 C 140.464844 203.910156 139.761719 203.351562 139.113281 202.613281 C 138.472656 201.878906 138.058594 201.109375 137.816406 200.351562 C 137.453125 199.113281 137.253906 197.992188 137.253906 197.039062 L 137.253906 185.34375 L 143.308594 185.34375 L 143.308594 197.3125 C 143.308594 198.375 143.59375 199.210938 144.199219 199.816406 C 144.792969 200.40625 145.617188 200.703125 146.691406 200.703125 C 147.726562 200.703125 148.558594 200.417969 149.152344 199.824219 C 149.757812 199.234375 150.042969 198.386719 150.042969 197.300781 Z M 150.042969 185.332031 "/>
</g>
</svg>
