<?xml version="1.0" encoding="UTF-8" standalone="no"?>
<!DOCTYPE svg PUBLIC "-//W3C//DTD SVG 1.1//EN" "http://www.w3.org/Graphics/SVG/1.1/DTD/svg11.dtd">
<svg version="1.1" xmlns="http://www.w3.org/2000/svg" xmlns:xlink="http://www.w3.org/1999/xlink" preserveAspectRatio="xMidYMid meet" viewBox="0 0 300 300" width="300" height="300"><defs><path d="M186.37 187.98C185.71 187.98 185.23 188.19 184.89 188.64C184.52 189.12 184.33 189.84 184.33 190.78C184.33 191.63 184.52 192.26 184.9 192.68C185.26 193.09 185.78 193.29 186.48 193.29C187.19 193.29 187.72 193.09 188.08 192.68C188.46 192.25 188.65 191.62 188.65 190.78C188.65 190.78 188.65 190.77 188.65 190.77C188.65 189.85 188.45 189.14 188.04 188.66C187.66 188.2 187.11 187.98 186.37 187.98" id="aQzvRy0Kb"></path><path d="M173.87 180.86C173.16 180.86 172.64 181.07 172.28 181.5C171.9 181.95 171.7 182.62 171.7 183.5C171.7 184.39 171.9 185.06 172.28 185.51C172.64 185.94 173.16 186.15 173.87 186.15C174.57 186.15 175.09 185.94 175.45 185.51C175.83 185.06 176.03 184.38 176.03 183.5C176.03 183.5 176.03 183.49 176.03 183.49C176.03 182.62 175.83 181.95 175.45 181.5C175.08 181.07 174.57 180.86 173.87 180.86" id="b9kzFEXuzb"></path><path d="M205.97 190.95C205.97 192.63 205.49 193.97 204.56 194.92C203.62 195.88 202.26 196.37 200.52 196.37C198.77 196.37 197.41 195.88 196.48 194.91C195.55 193.96 195.08 192.62 195.08 190.95C195.08 190.17 195.08 183.95 195.08 183.17C195.08 181.49 195.55 180.15 196.49 179.2C197.42 178.24 198.78 177.75 200.52 177.75C202.27 177.75 203.63 178.24 204.57 179.19C205.49 180.14 205.97 181.48 205.97 183.17C205.97 184.73 205.97 189.39 205.97 190.95ZM191.21 193.65C190.79 194.53 190.16 195.22 189.34 195.68C188.54 196.14 187.58 196.37 186.48 196.37C185.39 196.37 184.43 196.14 183.63 195.69C182.82 195.23 182.19 194.55 181.77 193.68C181.37 192.83 181.16 191.81 181.16 190.64C181.16 189.97 181.24 189.26 181.39 188.52C181.55 187.79 181.78 187.06 182.07 186.35C182.12 186.23 182.18 186.11 182.24 185.98C182.25 185.96 182.31 185.84 182.41 185.64L186.28 177.96L189.78 177.96C187.63 182.16 186.44 184.49 186.2 184.95C186.41 184.92 186.63 184.9 186.86 184.9C187.89 184.9 188.78 185.13 189.53 185.59C190.28 186.04 190.86 186.71 191.25 187.58C191.63 188.41 191.82 189.42 191.82 190.57C191.82 191.76 191.62 192.79 191.21 193.65M178.95 185.74C178.78 186.46 178.55 187.18 178.24 187.9C178.19 188.01 178.15 188.11 178.1 188.22C178.05 188.33 177.99 188.45 177.93 188.57C177.68 189.07 176.41 191.62 174.14 196.19L170.64 196.19C172.79 191.94 173.99 189.58 174.23 189.11C173.96 189.15 173.68 189.17 173.38 189.17C172.42 189.17 171.57 188.93 170.83 188.45C170.1 187.98 169.52 187.31 169.12 186.46C168.73 185.63 168.53 184.67 168.53 183.59C168.53 182.4 168.74 181.36 169.15 180.51C169.57 179.62 170.19 178.94 171.01 178.47C171.81 178.02 172.77 177.79 173.87 177.79C174.97 177.79 175.93 178.02 176.73 178.49C177.54 178.96 178.16 179.65 178.58 180.54C178.58 180.54 178.58 180.54 178.58 180.54C178.99 181.41 179.19 182.45 179.19 183.64C179.19 184.3 179.11 185 178.95 185.74M164.92 196.19L161.75 196.19L161.75 181.56L158.96 183.29L158.96 179.85L161.79 177.96L164.92 177.96L164.92 196.19ZM188.03 134.88C180.93 130.25 174.78 129.93 174.78 129.93C169.73 129.44 165.57 130.86 165.57 130.86C161.41 132.17 159.13 134.3 159.13 134.3C158.83 134.54 158.16 135 158.16 135C157.34 135.53 156.38 135.77 156.38 135.77C154.02 136.4 152.08 134.24 152.08 134.24C150.43 132.5 150.91 130.33 150.91 130.33C151.19 128.84 152.67 127.33 152.67 127.33C157.05 122.27 166.14 120.7 168.58 120.37C168.97 120.31 169.19 120.29 169.19 120.29C184.4 119.06 192.71 129.31 192.71 129.31C203.73 142 214.08 139.65 214.08 139.65C202.92 146.73 188.03 134.88 188.03 134.88M274.24 117.19C270.53 103.11 250.8 94.8 222.56 93.04C208.62 75.31 188.19 62.62 164.14 58.92C132.48 54.06 102.11 65.93 82.03 87.93C84.69 86.07 86.54 85.25 86.54 85.25C98.73 79.05 113.42 82.83 113.42 82.83C120.94 84.73 127.45 88.65 132.49 93.87C138.92 101.45 141.88 111.7 139.55 122.14C139.48 122.46 139.37 122.92 139.29 123.22C137.02 131.76 129.58 144.09 114.36 146.48C120.26 144.28 128.35 136.58 129.87 128.22C132.37 114.51 124.34 101.14 110.73 98.1C97.14 95.07 83.61 103.63 80.62 117.23C78.37 127.51 82.85 136.47 85.91 140.47C85.91 140.47 89.79 146.24 94.88 149.83C94.88 149.83 105.92 158.17 119.42 158.21C119.42 158.21 134.94 159.4 151.5 149.24C151.51 149.23 151.53 149.22 151.54 149.21C174.58 133.84 198.5 149.16 198.5 149.16C220.02 161.69 233.47 154.68 233.47 154.68C221.09 170.05 199.61 159.48 199.61 159.48C175.92 148.68 162.37 157.81 162.37 157.81C145.41 168.44 132.61 170.57 132.61 170.57C91.4 177.53 71.58 149.93 71.58 149.93C62.43 137.56 63.5 121.83 63.5 121.83C63.56 120.33 63.69 118.91 63.88 117.55C61.68 123.41 60.05 129.57 59.06 135.99C57.89 143.61 57.7 151.15 58.37 158.49C58.37 158.49 74.99 185.03 119.19 182.17C118.94 182.22 116.92 182.55 116.66 182.59C113.6 183.1 109.02 183.47 109.02 183.47C95.02 184.79 74.47 185.22 57.95 179.32C57.95 179.32 57.95 179.31 57.95 179.31C49.04 176.14 43.22 171.4 41.58 165.19C39.54 157.43 44.27 148.48 54.05 139.52C33.39 154.07 22.31 169.66 25.77 182.76C29.48 196.88 49.32 205.2 77.7 206.93C91.63 224.67 112.07 237.37 136.13 241.07C186.43 248.8 233.47 214.3 241.21 164C243.61 148.35 241.93 133.01 236.95 119.08C248.74 122.15 256.5 127.43 258.43 134.77C260.47 142.52 255.74 151.47 245.96 160.43C266.61 145.88 277.69 130.29 274.24 117.19" id="a1b5MGEPQk"></path><path d="M200.52 180.8C199.72 180.8 199.14 181 198.79 181.37C198.43 181.77 198.25 182.37 198.25 183.17C198.25 183.95 198.25 190.17 198.25 190.95C198.25 191.74 198.43 192.34 198.79 192.74C199.14 193.12 199.72 193.31 200.52 193.31C201.33 193.31 201.91 193.12 202.25 192.74C202.61 192.34 202.8 191.74 202.8 190.95C202.8 190.17 202.8 183.95 202.8 183.17C202.8 182.37 202.62 181.77 202.26 181.37C201.91 181 201.33 180.8 200.52 180.8" id="a37lWFGnU0"></path><path d="M150 0C67.16 0 0 67.15 0 150C0 232.84 67.16 300 150 300C232.85 300 300 232.84 300 150C300 67.15 232.85 0 150 0M150 7.01C188.2 7.01 224.11 21.88 251.11 48.89C278.12 75.9 292.99 111.8 292.99 150C292.99 188.19 278.12 224.1 251.11 251.11C224.11 278.11 188.2 292.99 150 292.99C111.81 292.99 75.9 278.11 48.89 251.11C21.89 224.1 7.01 188.19 7.01 150C7.01 111.8 21.89 75.9 48.89 48.89C75.9 21.88 111.81 7.01 150 7.01" id="a3QA5g2eZh"></path><path d="M41.21 206.15L31.9 210.9L31.26 209.63L40.56 204.88L41.21 206.15Z" id="dzo34JlOm"></path><path d="M38.14 217.99L45.45 213.76L46.14 214.95L37.09 220.18L36.29 218.79L40.95 209.97L40.92 209.92L33.61 214.15L32.92 212.96L41.96 207.73L42.82 209.22L38.14 217.99Z" id="cTY5uyrfQ"></path><path d="M43.15 220.75L39.24 223.42L38.43 222.24L47.07 216.36L51.15 222.36L50.15 223.03L46.88 218.22L44.19 220.05L47.08 224.29L46.04 225L43.15 220.75Z" id="a35UMr1ED8"></path><path d="M52.62 232.7C54.67 230.87 55.04 229.01 53.73 227.13C52.19 225.39 50.3 225.34 48.06 226.99C46.02 228.77 45.69 230.59 47.04 232.48C48.59 234.17 50.45 234.24 52.62 232.7M53.52 233.81C50.67 235.79 48.21 235.59 46.15 233.19C44.25 230.62 44.58 228.17 47.14 225.83C50.08 223.72 52.59 223.91 54.67 226.39C56.55 228.92 56.17 231.4 53.52 233.81" id="agCl7PvVu"></path><path d="M58.54 233.17L55.93 235.64C57.3 237.09 58.06 237.89 58.21 238.05C59.18 239.07 60.1 239.16 60.99 238.33C61.84 237.52 61.84 236.65 60.98 235.74C60.65 235.4 59.84 234.54 58.54 233.17ZM55.06 236.47L51.79 239.57L50.81 238.53L58.39 231.35C60.39 233.47 61.5 234.64 61.73 234.87C63.32 236.56 63.44 238.04 62.09 239.33C61.26 240.11 60.31 240.33 59.25 239.97C59.66 240.74 59.46 241.5 58.66 242.26C58.53 242.4 57.5 243.5 57.37 243.64C56.96 243.98 56.83 244.34 56.98 244.72C56.97 244.73 56.91 244.78 56.81 244.87C56.08 244.1 55.68 243.68 55.6 243.59C55.88 243.17 56.46 242.51 57.35 241.62C58.28 240.78 58.31 239.9 57.42 238.96C57.1 238.62 56.32 237.8 55.06 236.47Z" id="c1wvfa8Bm6"></path><path d="M65.59 252.78L64.57 251.87C67.02 249.1 68.39 247.57 68.66 247.26C69.04 246.83 69.62 246.18 70.4 245.3C69.86 245.6 67.18 247.14 62.35 249.9L61.28 248.95L64.93 240.45C64.91 240.42 64.9 240.41 64.89 240.41C64.61 240.72 64.21 241.21 63.68 241.86C63.41 242.17 63.24 242.35 63.19 242.41C62.92 242.72 61.56 244.26 59.1 247.02L58.03 246.07L64.97 238.26L66.5 239.63L62.89 248.25L70.99 243.6L72.52 244.97L65.59 252.78Z" id="cue1eEnss"></path><path d="M71.6 251.98L74.21 253.92L75.74 249.3L75.7 249.26L71.6 251.98ZM73.87 255.24L70.49 252.71L67.81 254.48L66.66 253.63L76.07 247.62L77.35 248.58L74.12 259.2L72.88 258.28L73.87 255.24Z" id="d2YAPyspIg"></path><path d="M79.51 251.67L80.15 250.66L87.26 255.23L86.61 256.24L83.63 254.32L78.64 262.1L77.48 261.36L82.48 253.58L79.51 251.67Z" id="cv0hHEBoS"></path><path d="M89.33 256.35L84.11 265.4L82.88 264.69L88.1 255.64L89.33 256.35Z" id="ayhEzGatB"></path><path d="M95.9 265.71C96.99 263.19 96.55 261.35 94.58 260.19C92.45 259.25 90.72 260 89.37 262.43C88.26 264.89 88.71 266.7 90.74 267.84C92.85 268.73 94.57 268.02 95.9 265.71M97.17 266.35C95.42 269.34 93.1 270.18 90.23 268.86C87.42 267.33 86.69 264.96 88.04 261.76C89.83 258.62 92.19 257.74 95.12 259.12C97.89 260.64 98.57 263.05 97.17 266.35" id="e4FvFhMpYQ"></path><path d="M103.72 272.44L106.87 264.6L108.14 265.12L104.24 274.81L102.76 274.21L100.98 264.39L100.93 264.37L97.78 272.21L96.51 271.7L100.41 262.01L101.99 262.65L103.72 272.44Z" id="b3nN6uHoVI"></path><path d="M119.45 271.73C118.69 271.51 118.27 271.39 118.19 271.37C118.48 270.07 117.83 269.15 116.24 268.62C114.73 268.23 113.81 268.6 113.49 269.74C113.28 270.47 113.56 271.01 114.34 271.35C114.61 271.49 116.74 272.67 117.01 272.81C118.4 273.61 118.89 274.74 118.48 276.2C117.91 278.06 116.32 278.65 113.7 277.99C112.27 277.58 111.35 277 110.93 276.25C110.35 275.49 110.24 274.55 110.6 273.43C110.73 273.47 111.79 273.76 111.92 273.8C111.52 275.35 112.21 276.4 113.99 276.94C115.76 277.41 116.82 277.09 117.17 276C117.57 275.13 117.01 274.32 115.49 273.57C115.29 273.47 113.72 272.64 113.53 272.54C112.21 271.73 111.73 270.72 112.07 269.51C112.74 267.57 114.2 266.88 116.46 267.44C118.98 268.16 119.98 269.59 119.45 271.73" id="dhfsiI6KW"></path><path d="M129.53 273.91C128.73 273.75 128.28 273.66 128.19 273.64C128.13 272.19 127.33 271.29 125.77 270.93C123.58 270.6 122.18 271.76 121.57 274.39C120.99 277.22 121.84 278.87 124.12 279.33C125.69 279.61 126.85 278.86 127.61 277.07C127.74 277.1 128.81 277.32 128.95 277.35C128.01 279.83 126.24 280.85 123.61 280.39C120.65 279.68 119.48 277.59 120.1 274.15C120.95 270.75 122.92 269.29 126.01 269.76C128.42 270.32 129.59 271.71 129.53 273.91" id="haLe0XcZY"></path><path d="M132.96 271.24L131.44 281.57L130.03 281.36L131.55 271.03L132.96 271.24Z" id="d4yvQUjyDf"></path><path d="M141.74 281.43L141.62 282.68L133.95 281.95L134.94 271.55L142.5 272.27L142.38 273.47L136.25 272.88L135.94 276.12L141.62 276.66L141.5 277.91L135.82 277.37L135.49 280.84L141.74 281.43Z" id="a3lGnXDqsi"></path><path d="M150.56 280.92L150.71 272.47L152.08 272.5L151.89 282.94L150.29 282.91L145.14 274.37L145.08 274.37L144.93 282.82L143.56 282.79L143.75 272.35L145.46 272.38L150.56 280.92Z" id="f5p9PS7025"></path><path d="M162.45 275C161.63 275.05 161.18 275.08 161.09 275.09C160.66 273.7 159.64 273.04 158.05 273.1C155.85 273.36 154.8 274.83 154.89 277.53C155.07 280.42 156.32 281.79 158.64 281.64C160.23 281.51 161.16 280.48 161.42 278.55C161.55 278.55 162.65 278.48 162.78 278.47C162.53 281.12 161.08 282.56 158.42 282.8C155.38 282.88 153.71 281.17 153.41 277.68C153.35 274.18 154.87 272.25 157.97 271.91C160.45 271.83 161.94 272.86 162.45 275" id="bZPm6unAl"></path><path d="M172.41 279.79L172.59 281.03L164.96 282.11L163.51 271.76L171.02 270.71L171.19 271.89L165.08 272.75L165.54 275.97L171.19 275.18L171.36 276.42L165.71 277.22L166.2 280.67L172.41 279.79Z" id="a208TYj4W"></path><path d="M182.64 276.71C180.83 275.4 179.82 274.67 179.62 274.52C178.56 275.45 178.17 276.33 178.46 277.16C178.74 278.15 179.49 278.57 180.71 278.43C181.63 278.2 182.28 277.63 182.64 276.71M179.71 272.97C180.42 272.21 180.7 271.51 180.55 270.88C180.36 270.15 179.9 269.87 179.16 270.05C178.42 270.23 178.13 270.7 178.27 271.45C178.4 271.96 178.88 272.47 179.71 272.97M183.97 276.15L186.35 277.91L184.74 278.31C183.97 277.76 183.54 277.46 183.45 277.39C182.93 278.46 182.06 279.13 180.83 279.4C178.98 279.82 177.77 279.22 177.21 277.59C176.73 276.3 177.22 275.04 178.68 273.81C177.7 273.16 177.16 272.49 177.07 271.8C176.83 270.37 177.46 269.43 178.96 268.98C180.37 268.67 181.3 269.17 181.74 270.47C182.03 271.5 181.64 272.53 180.57 273.58C180.81 273.77 182.72 275.22 182.96 275.4C183.01 274.84 183.01 274.27 182.95 273.7C183.07 273.67 184.05 273.43 184.17 273.4C184.31 274.3 184.25 275.22 183.97 276.15" id="a3Cc3eO4Le"></path><path d="M187.52 267.89L187.12 266.77L195.07 263.92L195.47 265.05L192.14 266.24L195.25 274.95L193.96 275.41L190.85 266.7L187.52 267.89Z" id="c13iAFSFrx"></path><path d="M206.51 268.94L207.01 270.09L199.96 273.18L195.76 263.62L202.71 260.57L203.2 261.67L197.55 264.15L198.86 267.13L204.08 264.83L204.59 265.98L199.36 268.27L200.76 271.46L206.51 268.94Z" id="bpY0C2TER"></path><path d="M213.03 258.66C212.3 259.04 211.89 259.26 211.81 259.3C210.86 258.21 209.66 258.02 208.23 258.73C206.33 259.86 205.97 261.64 207.16 264.06C208.51 266.62 210.21 267.36 212.26 266.28C213.66 265.51 214.08 264.19 213.53 262.33C213.66 262.26 214.63 261.75 214.75 261.69C215.6 264.21 214.86 266.12 212.54 267.43C209.79 268.74 207.57 267.87 205.88 264.81C204.38 261.64 204.98 259.26 207.67 257.67C209.9 256.59 211.68 256.92 213.03 258.66" id="ayyJzy46U"></path><path d="M220.6 255.26L218.3 251.65L219.5 250.89L225.12 259.69L223.92 260.46L221.31 256.37L216.69 259.32L219.3 263.41L218.1 264.17L212.48 255.37L213.68 254.6L215.98 258.21L220.6 255.26Z" id="a2mnguRYt5"></path><path d="M231.37 252.58L226.27 245.84L227.37 245.01L233.67 253.34L232.39 254.31L223.06 250.77L223.02 250.81L228.12 257.54L227.02 258.37L220.72 250.04L222.09 249.01L231.37 252.58Z" id="b2745Mdxu"></path><path d="M238.15 242.49C236.21 240.55 234.34 240.29 232.54 241.7C230.89 243.34 230.95 245.23 232.72 247.37C234.61 249.31 236.45 249.54 238.26 248.07C239.85 246.44 239.82 244.58 238.15 242.49M239.21 241.54C241.36 244.27 241.29 246.73 239.02 248.92C236.56 250.97 234.09 250.79 231.61 248.36C229.34 245.54 229.38 243.03 231.74 240.81C234.16 238.79 236.66 239.03 239.21 241.54" id="a8jwuMlwJ8"></path><path d="M237.35 235.85L243.98 242.21L247.66 238.38L248.56 239.25L243.9 244.11L236.37 236.88L237.35 235.85Z" id="f12gSyKh42"></path><path d="M250.82 228.5C248.61 226.87 246.72 226.89 245.15 228.55C243.76 230.42 244.1 232.28 246.17 234.13C248.32 235.76 250.18 235.72 251.75 234C253.09 232.15 252.78 230.31 250.82 228.5M251.73 227.4C254.25 229.78 254.55 232.22 252.63 234.73C250.51 237.12 248.04 237.3 245.22 235.28C242.56 232.83 242.22 230.33 244.23 227.79C246.32 225.43 248.83 225.3 251.73 227.4" id="a8fcGbX53"></path><path d="M255.83 222.92L254.84 222.25L257.43 218.48L262.03 221.66L261.52 222.41C260.75 222.13 260.33 221.98 260.24 221.95C260.57 223.14 260.33 224.36 259.52 225.61C258.72 226.77 257.81 227.46 256.78 227.67C255.26 228.01 253.74 227.63 252.22 226.54C249.52 224.36 248.97 221.97 250.58 219.38C252.17 217.33 253.95 216.76 255.92 217.65C255.84 217.77 255.22 218.67 255.14 218.78C253.74 218.28 252.53 218.72 251.53 220.11C250.43 221.98 250.95 223.73 253.11 225.35C255.5 227 257.34 226.86 258.66 224.95C259.14 224.26 259.36 223.53 259.33 222.77C259.26 221.8 258.69 220.97 257.64 220.29C257.4 220.64 256.79 221.52 255.83 222.92Z" id="a17g3QzNbJ"></path><path d="M261.83 213.67L265.49 215.78L264.78 217.02L261.12 214.91L253.76 215.21L254.59 213.78L260.42 213.71L257.58 208.59L258.4 207.15L261.83 213.67Z" id="pdnbJ6JLM"></path><path d="M68.54 228.73L74.76 223.01L75.69 224.02L68 231.09L66.92 229.92L69.54 220.29L69.5 220.25L63.29 225.97L62.36 224.96L70.04 217.89L71.2 219.15L68.54 228.73Z" id="h1oNzwHObs"></path><path d="M74.8 231.62L77.22 233.79L79.16 229.32L79.11 229.28L74.8 231.62ZM76.76 235.07L73.62 232.25L70.79 233.78L69.73 232.83L79.63 227.68L80.82 228.75L76.66 239.04L75.51 238.01L76.76 235.07Z" id="gVNHB21u8"></path><path d="M85.42 243.1L90.41 236.29L91.51 237.1L85.34 245.52L84.05 244.58L84.76 234.63L84.72 234.59L79.72 241.41L78.62 240.6L84.79 232.17L86.17 233.18L85.42 243.1Z" id="a1gby6aewX"></path><path d="M89.18 244L90.3 244.68C90.07 245.06 89.94 245.27 89.92 245.31C89.32 246.29 89.48 247.05 90.4 247.61C91.34 248.18 92.13 247.94 92.76 246.9C93.02 246.46 94.35 244.26 96.75 240.31L97.97 241.05C95.59 244.97 94.27 247.15 94.01 247.59C92.97 249.23 91.59 249.55 89.88 248.56C88.31 247.56 87.89 246.34 88.64 244.88C88.71 244.76 88.89 244.47 89.18 244Z" id="a4uVkeplb2"></path><path d="M101.68 243.04L96.8 252.27L95.54 251.61L100.42 242.37L101.68 243.04Z" id="eNs6Y5f6z"></path><path d="M107.07 254.87L110.46 247.13L111.71 247.68L107.52 257.25L106.06 256.61L104.59 246.74L104.54 246.72L101.15 254.45L99.89 253.91L104.08 244.34L105.65 245.02L107.07 254.87Z" id="cbHhi1nfF"></path><path d="M116.47 255.69L116.83 254.54L121.19 255.92L119.5 261.25L118.63 260.98C118.67 260.16 118.69 259.71 118.7 259.62C117.65 260.29 116.41 260.42 114.98 260C113.64 259.58 112.72 258.91 112.21 257.99C111.44 256.63 111.36 255.07 111.96 253.3C113.26 250.08 115.38 248.86 118.33 249.63C120.75 250.55 121.82 252.09 121.54 254.24C121.41 254.19 120.36 253.86 120.23 253.82C120.31 252.33 119.53 251.31 117.91 250.75C115.8 250.24 114.28 251.26 113.36 253.8C112.48 256.56 113.15 258.29 115.37 258.99C116.16 259.24 116.92 259.24 117.64 258.99C118.55 258.64 119.18 257.86 119.52 256.65C119.11 256.52 118.1 256.2 116.47 255.69Z" id="b3hGJBKYRg"></path><path d="M136.17 253.92L137.58 254.15C136.95 258.14 136.59 260.36 136.52 260.8C136.02 263.26 134.41 264.32 131.69 263.96C129.18 263.49 128.06 262.08 128.32 259.73C128.39 259.27 128.75 256.98 129.41 252.85L130.82 253.08C130.2 256.96 129.86 259.12 129.79 259.56C129.53 261.44 130.24 262.54 131.92 262.84C133.77 263.1 134.84 262.29 135.14 260.41C135.28 259.54 135.62 257.38 136.17 253.92Z" id="anz1N2O8u"></path><path d="M146.42 263.22L146.89 254.79L148.26 254.87L147.68 265.3L146.08 265.21L141.25 256.48L141.19 256.47L140.72 264.91L139.36 264.83L139.94 254.4L141.65 254.5L146.42 263.22Z" id="b1Rizn7iL4"></path><path d="M152.41 254.77L152.58 265.22L151.16 265.24L150.99 254.79L152.41 254.77Z" id="b1KtM1Ar8s"></path><path d="M159.66 263.29L161.92 254.17L163.51 254.03L160.59 264.76L159.05 264.89L154.36 254.81L155.95 254.67L159.66 263.29Z" id="bur0jYs4B"></path><path d="M174.42 261.43L174.64 262.66L167.06 264.04L165.2 253.76L172.67 252.41L172.88 253.59L166.82 254.68L167.4 257.89L173.01 256.87L173.24 258.1L167.62 259.12L168.24 262.54L174.42 261.43Z" id="a4wj58eVLl"></path><path d="M176.62 252.59L177.61 256.04C179.52 255.5 180.58 255.2 180.79 255.14C182.14 254.75 182.65 253.97 182.32 252.8C182 251.67 181.23 251.27 180.02 251.62C179.57 251.75 178.44 252.07 176.62 252.59ZM177.93 257.2L179.17 261.53L177.8 261.93L174.94 251.88C177.73 251.08 179.29 250.64 179.6 250.55C181.83 249.91 183.21 250.5 183.72 252.29C184.03 253.38 183.78 254.33 182.98 255.11C183.84 255.1 184.43 255.63 184.73 256.69C184.79 256.86 185.29 258.29 185.36 258.47C185.47 258.99 185.73 259.27 186.13 259.31C186.14 259.33 186.16 259.4 186.19 259.53C185.17 259.82 184.61 259.99 184.49 260.02C184.25 259.57 183.94 258.75 183.55 257.56C183.25 256.34 182.47 255.91 181.23 256.26C180.79 256.39 179.69 256.7 177.93 257.2Z" id="a27ys8lsIK"></path><path d="M193.28 248.86C192.55 249.15 192.14 249.31 192.06 249.34C191.5 248.13 190.43 247.8 188.84 248.34C187.4 248.95 186.9 249.8 187.34 250.9C187.62 251.61 188.17 251.86 188.99 251.66C189.29 251.61 191.7 251.25 192 251.21C193.59 250.99 194.66 251.58 195.22 253C195.9 254.82 195 256.26 192.51 257.32C191.13 257.87 190.05 257.97 189.26 257.63C188.34 257.38 187.68 256.7 187.29 255.58C187.41 255.53 188.43 255.13 188.56 255.08C189.18 256.55 190.37 256.97 192.12 256.31C193.8 255.61 194.45 254.72 194.07 253.64C193.86 252.7 192.92 252.4 191.25 252.73C191.03 252.77 189.28 253.06 189.06 253.1C187.53 253.26 186.53 252.75 186.07 251.58C185.42 249.63 186.16 248.19 188.29 247.27C190.74 246.3 192.4 246.83 193.28 248.86" id="b786UJOou"></path><path d="M195.8 244.29L200.3 253.71L199.01 254.33L194.51 244.9L195.8 244.29Z" id="a1eHo9wsh8"></path><path d="M198.13 244.56L197.54 243.51L204.91 239.38L205.49 240.42L202.41 242.16L206.93 250.22L205.74 250.89L201.21 242.83L198.13 244.56Z" id="byxoet8v2"></path><path d="M213.42 241.13L215.81 244.61L214.64 245.42L212.24 241.94L205.47 239.05L206.84 238.11L212.13 240.56L211.77 234.71L213.14 233.77L213.42 241.13Z" id="bq8WaW1ma"></path><path d="M227.41 228.27C225.44 226.37 223.57 226.13 221.79 227.57C220.16 229.23 220.25 231.12 222.06 233.24C223.98 235.14 225.82 235.35 227.61 233.85C229.18 232.19 229.11 230.33 227.41 228.27M228.46 227.3C230.65 230 230.62 232.46 228.38 234.69C225.96 236.78 223.49 236.63 220.97 234.25C218.65 231.46 218.65 228.95 220.97 226.69C223.37 224.63 225.86 224.83 228.46 227.3" id="d3JRghtpNl"></path><path d="M231.42 224.71L234.96 227.86L234.01 228.92L226.21 221.98L231.03 216.56L231.93 217.36L228.05 221.71L230.48 223.87L233.9 220.03L234.84 220.87L231.42 224.71Z" id="h1MESbQQAb"></path><path d="M49.3 81.4C49.3 81.4 48.27 80.88 49.05 79.8C49.05 79.8 49.13 79.69 49.18 79.55C49.18 79.55 49.48 78.94 50.36 78.25C50.36 78.25 51.48 77.37 51.84 75.71C51.84 75.71 52.23 73.62 52.3 72.32C52.3 72.32 52.21 70.75 51 69.25C51 69.25 50.58 68.69 50.06 67.88C50.06 67.88 49.74 67.36 48.97 66.63C48.97 66.63 48.17 66.03 47.96 65.23C47.96 65.23 47.67 64.32 48.83 63.4C48.83 63.4 50.03 62.45 53.32 63.82C53.32 63.82 53.89 64.02 54.46 64.82C54.46 64.82 54.89 65.53 55.49 65.29C55.49 65.29 56.3 64.83 56.66 65.18C56.66 65.18 56.83 65.35 56.8 65.72C56.8 65.72 56.75 66.26 57.03 67.15C57.03 67.15 57.23 67.67 56.25 68.74C56.25 68.74 55.72 69.16 56 70.91C56 70.91 56.17 71.8 56.09 72.77C56.09 72.77 55.97 74.29 56.16 75.45C56.16 75.45 56.19 75.73 56.38 75.6C56.38 75.6 56.55 75.45 56.55 75.18C56.55 75.18 56.5 74.25 57.05 72.93C57.05 72.93 58.31 69.88 58.87 67.7C58.87 67.7 59.03 67.01 59.3 66.67C59.3 66.67 59.6 66.27 59.69 65.87C59.69 65.87 59.71 65.69 60.01 65.37C60.01 65.37 60.88 64.48 61.24 64.48C61.24 64.48 63.12 64.51 63.5 65.36C63.5 65.36 63.59 65.57 63.59 65.87C63.59 65.87 63.55 66.26 64.19 67C64.19 67 66.02 69.25 67.88 72.64C67.88 72.64 68.57 73.99 69.68 75.31C69.68 75.31 70.54 76.24 71.17 77.92C71.17 77.92 71.4 78.56 72.47 79.8C72.47 79.8 74.39 81.83 72.9 83.54C72.9 83.54 72.35 84.12 71.46 84C71.46 84 69.77 83.77 67.93 84.59C67.93 84.59 66.62 85.17 65.02 84.79C65.02 84.79 64.37 84.6 64.29 84.23C64.29 84.23 64.23 83.89 64.74 83.74C64.74 83.74 66.12 83.32 67.61 83.15C67.61 83.15 68.83 82.96 69.51 82.47C69.51 82.47 70.55 81.77 69.94 81.19C69.94 81.19 65.09 76.44 64.07 73.59C64.07 73.59 62.98 71.09 62.43 69.94C62.43 69.94 61.41 67.6 61.01 67.14C61.01 67.14 60.57 66.65 60.36 67.03C60.36 67.03 59.78 68.06 59.18 71.39C59.18 71.39 58.78 73.65 58.23 75.08C58.23 75.08 58.07 75.55 58.21 75.83C58.21 75.83 58.3 76.07 58.49 75.88C58.49 75.88 59.66 75 60.59 75.96C60.59 75.96 61 76.21 60.45 77.77C60.45 77.77 59.86 79.42 60.15 80.91C60.15 80.91 60.17 81.11 60.3 81.05C60.3 81.05 60.66 80.89 61.16 81C61.16 81 61.74 81.11 61.75 81.51C61.75 81.51 61.77 81.87 61.94 82.17C61.94 82.17 62.24 82.49 61.51 83.52C61.51 83.52 61.19 84.01 61.68 84.48C61.68 84.48 61.83 84.63 61.92 84.55C61.92 84.55 61.99 84.52 61.97 84.32C61.97 84.32 61.93 83.45 61.95 83.23C61.95 83.23 61.94 82.93 62.18 82.73C62.18 82.73 62.41 82.55 62.62 82.38C62.62 82.38 62.73 82.26 62.9 82.32C62.9 82.32 63.36 82.47 63.57 82.68C63.57 82.68 63.81 82.97 63.93 83.23C63.93 83.23 64.03 83.45 63.96 83.63C63.96 83.63 63.61 84.4 63.7 85.31C63.7 85.31 63.72 85.61 64.09 85.71C64.09 85.71 64.45 85.81 64.86 85.9C64.86 85.9 65.66 86.06 65.85 86.83C65.85 86.83 65.91 87.15 66.01 87.38C66.01 87.38 66.37 87.83 65.29 89.02C65.29 89.02 64.83 89.54 64.47 89.42C64.47 89.42 63.23 89.25 61.21 87.22C61.21 87.22 61.12 87.17 61.2 86.99C61.2 86.99 61.59 86.26 61.18 85.93C61.18 85.93 60.77 85.67 60.18 85.82C60.18 85.82 59.4 86.04 59.23 85.46C59.23 85.46 59.12 85.15 59.2 84.82C59.2 84.82 59.45 83.68 59.73 82.78C59.73 82.78 59.82 82.6 59.55 82.56C59.55 82.56 59.18 82.55 59.03 82.19C59.03 82.19 59 82.11 59.03 82.03C59.03 82.03 59.33 80.08 58.51 77.99C58.51 77.99 58.39 77.7 58.23 77.84C58.23 77.84 58.1 77.93 58.14 78.23C58.14 78.23 58.27 79.04 58.08 79.29C58.08 79.29 57.76 79.69 57.82 79.96C57.82 79.96 57.97 80.53 58.41 81.63C58.41 81.63 58.84 82.53 58.37 83.21C58.37 83.21 58.22 83.43 58.1 83.41C58.1 83.41 57.72 83.45 57.36 83.52C57.36 83.52 57.19 83.58 56.98 83.42C56.98 83.42 56.55 83.04 56.17 83.05C56.17 83.05 55.81 83.06 55.81 83.46C55.81 83.46 55.92 84.01 55.1 84.7C55.1 84.7 54.97 84.8 54.88 84.82C54.88 84.82 54.57 84.89 53.98 84.31C53.98 84.31 53.9 84.25 53.96 84.09C53.96 84.09 54.41 83.3 54.53 82.31C54.53 82.31 54.66 81.4 55.15 80.52C55.15 80.52 55.56 79.83 55.31 79.36C55.31 79.36 54.92 78.79 54.88 78.04C54.88 78.04 54.82 77.49 54.54 77.62C54.54 77.62 53.97 77.77 53.73 79.08C53.73 79.08 53.85 79.72 53.43 80.21C53.43 80.21 53.08 80.56 52.85 80.84C52.85 80.84 52.43 81.45 51.18 81.83C51.18 81.83 50.49 81.87 49.3 81.4" id="e389ULQDK4"></path><path d="M54.19 87.85C54.19 87.85 53.94 87.26 54.35 87.07C54.35 87.07 54.69 86.95 55.15 87.34C55.15 87.34 55.96 88.13 56.59 88.13C56.59 88.13 58.41 88.25 59.33 89.09C59.33 89.09 61.15 90.65 59.85 92.38C59.85 92.38 59.68 92.7 59.22 92.7C59.22 92.7 58.17 92.78 57.59 92.24C57.59 92.24 57.15 91.88 56.56 91.15C56.56 91.15 54.83 89.19 54.19 87.85" id="a10zqJZgrn"></path><path d="M74.8 45.11C74.8 45.11 74.59 45.25 74.4 45.01C74.4 45.01 74.17 44.7 73.8 44.47C73.8 44.47 73.56 44.38 73.66 43.97C73.66 43.97 73.88 43.11 74.27 42.44C74.27 42.44 74.51 42.02 75.25 41.92C75.25 41.92 77.43 41.61 79.19 41.85C79.19 41.85 81.03 42.09 80.55 43.35C80.55 43.35 80.02 43.98 79.83 44.86C79.83 44.86 79.67 45.83 78.23 46.74C78.23 46.74 78 46.9 77.99 46.66C77.99 46.66 78 45.91 77.67 45.43C77.67 45.43 77.03 44.5 74.8 45.11" id="f3PeS8Qva"></path><path d="M71.24 59.15C71.24 59.15 70.94 58.99 71.18 58.69C71.18 58.69 71.66 58.12 72.9 57.23C72.9 57.23 73.57 56.78 73.75 56.14C73.75 56.14 74.64 52.73 78.02 48.82C78.02 48.82 80.14 46.45 80.87 44.88C80.87 44.88 80.96 44.62 81.21 44.45C81.21 44.45 82.34 43.61 82.72 43.66C82.72 43.66 83.54 43.75 83.53 44.59C83.53 44.59 83.62 45.65 82.81 46.22C82.81 46.22 82.29 46.56 81.99 46.75C81.99 46.75 81.65 46.97 81.32 47.42C81.32 47.42 77 52.73 76.31 55.89C76.31 55.89 75.77 58.41 74.2 59.37C74.2 59.37 72.97 60.1 71.24 59.15" id="a15hPkDxFR"></path><path d="M79.04 57.08C79.04 57.08 78.79 56.93 78.54 57.41C78.54 57.41 77.83 58.98 79.1 60.92C79.1 60.92 79.68 61.76 80.33 61.19C80.33 61.19 80.49 61.04 80.68 60.78C80.68 60.78 81 60.31 81.62 60.19C81.62 60.19 82.14 60.14 82.14 60.34C82.14 60.34 82.2 60.92 82.23 61.41C82.23 61.41 82.21 62.16 83.01 63.18C83.01 63.18 84.05 64.41 84.48 65.68C84.48 65.68 84.57 65.91 84.3 66.07C84.3 66.07 83.76 66.33 82.89 66.43C82.89 66.43 82.5 66.44 82.51 66.69C82.51 66.69 82.5 66.87 83.07 67.41C83.07 67.41 83.2 67.57 83.4 67.44C83.4 67.44 84.07 67.08 84.58 67.56C84.58 67.56 84.88 67.89 85.18 67.87C85.18 67.87 85.52 67.83 85.93 67.75C85.93 67.75 86.33 67.66 86.56 67.68C86.56 67.68 86.71 67.73 86.87 67.56C86.87 67.56 87.15 67.23 87.24 66.8C87.24 66.8 87.26 66.71 87.21 66.65C87.21 66.65 86.32 65.32 85.76 64.12C85.76 64.12 84.16 60.14 83.5 59.63C83.5 59.63 82.73 58.74 83.07 57.93C83.07 57.93 83.89 56.61 84.02 56.01C84.02 56.01 84.19 55.33 83.73 54.8C83.73 54.8 83.31 54.4 83.57 53.71C83.57 53.71 84.28 51.28 85.05 49.46C85.05 49.46 85.24 49.17 84.5 48.83C84.5 48.83 84.07 48.63 83.46 49.03C83.46 49.03 82.26 49.84 82.08 50.32C82.08 50.32 81.55 52.28 80.14 54.68C80.14 54.68 80.03 54.87 80.13 55.03C80.13 55.03 80.25 55.19 80.55 55.32C80.55 55.32 80.72 55.43 80.91 55.12C80.91 55.12 81.16 54.68 81.31 54.16C81.31 54.16 81.36 54.03 81.47 54C81.47 54 81.74 53.94 81.84 54.23C81.84 54.23 82.15 54.94 81.69 56.22C81.69 56.22 81.3 57.24 81.11 58.08C81.11 58.08 81.05 58.54 80.66 58.6C80.66 58.6 80.48 58.63 80.38 58.38C80.38 58.38 80.09 57.66 79.83 57.46C79.83 57.46 79.52 57.27 79.04 57.08" id="b5v2pMbScK"></path><path d="M81.4 63.42C81.4 63.42 81 63.23 80.81 63.77C80.81 63.77 80.72 64.34 80.24 65.5C80.24 65.5 80.01 65.98 79.88 67.09C79.88 67.09 79.75 67.81 79.09 68.23C79.09 68.23 78.35 68.62 78.33 69.31C78.33 69.31 78.41 70.09 78.34 70.51C78.34 70.51 78.33 70.61 78.37 70.69C78.37 70.69 78.75 71.45 79.45 71.76C79.45 71.76 79.98 71.96 80.2 72.09C80.2 72.09 80.29 72.16 80.38 72.09C80.38 72.09 81.82 71.41 81.46 69.32C81.46 69.32 81.16 67.99 81.68 66.5C81.68 66.5 82.07 65.28 82.16 64.32C82.16 64.32 82.23 63.81 81.4 63.42" id="b3FMmTmzJ"></path><path d="M86.67 59.8C86.67 59.8 86.55 59.69 86.65 59.57C86.65 59.57 86.78 59.4 86.83 59.17C86.83 59.17 86.87 59.01 87.1 58.92C87.1 58.92 87.75 58.6 88.11 58.35C88.11 58.35 88.27 58.21 88.53 58.31C88.53 58.31 89.72 58.7 90.61 59.36C90.61 59.36 91.38 59.94 91.23 60.81C91.23 60.81 90.98 61.76 90.18 62.24C90.18 62.24 89.85 62.44 89.57 62.45C89.57 62.45 88.93 62.49 88.68 62.1C88.68 62.1 88.11 61.11 87.77 60.7C87.77 60.7 87.6 60.49 87.31 60.35C87.31 60.35 87.01 60.18 86.67 59.8" id="e50w8uSmr"></path><path d="M96.62 35.89C96.62 35.89 96.45 35.65 96.56 35.42C96.56 35.42 96.64 35.25 96.73 34.96C96.73 34.96 96.74 34.86 96.85 34.82C96.85 34.82 97.75 34.48 98.14 34.31C98.14 34.31 98.27 34.24 98.41 34.31C98.41 34.31 99.05 34.77 99.4 35.84C99.4 35.84 99.48 36.01 99.37 36.17C99.37 36.17 98.88 37.48 98.54 38.71C98.54 38.71 97.81 41.43 96.12 42.95C96.12 42.95 95.83 43.2 95.45 43.13C95.45 43.13 94.97 43.01 94.91 42.47C94.91 42.47 94.91 42.16 94.79 41.85C94.79 41.85 94.69 41.75 94.86 41.44C94.86 41.44 96.37 38.37 96.61 37.56C96.61 37.56 96.98 36.69 96.62 35.89" id="b291kCeMEl"></path><path d="M97.48 44.18C97.48 44.18 97.41 43.76 97.85 43.65C97.85 43.65 98.47 43.47 98.76 43.78C98.76 43.78 100.18 44.83 100.66 49C100.66 49 100.67 49.78 101.03 50.62C101.03 50.62 101.64 51.67 102.12 54C102.12 54 102.52 55.97 103.18 57.59C103.18 57.59 103.83 58.97 103.15 59.54C103.15 59.54 102.73 59.76 102.48 59.94C102.48 59.94 101.82 60.42 101.39 60.35C101.39 60.35 100.95 60.28 100.43 59.84C100.43 59.84 99.73 59.29 99.55 57.6C99.55 57.6 99.46 57.17 99.82 56.64C99.82 56.64 100.3 55.65 99.71 54.43C99.71 54.43 98.98 53.18 98.8 50.78C98.8 50.78 98.74 48.94 98.51 48.16C98.51 48.16 97.75 45.7 97.48 44.18" id="c3jRjKwjOq"></path><path d="M104.4 30.15C104.4 30.15 104.29 29.86 104.39 29.69C104.39 29.69 104.63 29.34 104.69 28.94C104.69 28.94 104.69 28.69 104.98 28.64C104.98 28.64 106.81 28.21 108.09 27.77C108.09 27.77 108.41 27.67 108.62 27.76C108.62 27.76 109.31 28.03 109.74 28.94C109.74 28.94 109.84 29.17 109.7 29.37C109.7 29.37 109.46 29.62 109.27 30.2C109.27 30.2 108.9 31.46 106.91 31.9C106.91 31.9 106.71 31.95 106.59 31.78C106.59 31.78 106.54 31.68 106.36 31.69C106.36 31.69 105.98 31.73 106.02 31.07C106.02 31.07 106.07 30.81 105.63 30.82C105.63 30.82 104.74 31 104.4 30.15" id="c1nx611dgH"></path><path d="M100.93 41.24C100.93 41.24 100.84 41.03 101.01 40.79C101.01 40.79 101.56 39.92 103.03 38.76C103.03 38.76 103.75 38.14 104.24 37.29C104.24 37.29 106.09 34.4 107.62 34.04C107.62 34.04 108.75 33.75 109.46 34.13C109.46 34.13 109.81 34.29 110.04 34.89C110.04 34.89 110.1 35.01 109.97 35.14C109.97 35.14 109.18 36.01 107.83 37.58C107.83 37.58 106.77 38.79 105.56 39.12C105.56 39.12 104.87 39.33 104.28 39.91C104.28 39.91 103.45 40.97 102.26 41.78C102.26 41.78 102.04 41.94 101.81 41.91C101.81 41.91 101.48 41.91 101.2 41.67C101.2 41.67 101.04 41.52 100.93 41.24" id="bKKAYfQjq"></path><path d="M104.67 42.49C104.67 42.49 104.51 42.3 104.8 42.16C104.8 42.16 105.98 41.61 108.07 39.1C108.07 39.1 108.2 38.9 108.4 38.81C108.4 38.81 108.8 38.65 109.21 38.49C109.21 38.49 109.31 38.45 109.4 38.5C109.4 38.5 109.88 38.7 110.25 39.25C110.25 39.25 110.33 39.35 110.22 39.46C110.22 39.46 109.87 39.9 109.49 40.67C109.49 40.67 109.07 41.89 107.76 42.68C107.76 42.68 106.41 43.44 106.11 43.34C106.11 43.34 105.84 43.23 105.59 43.2C105.59 43.2 105.18 43.2 104.67 42.49" id="b3FOUh0lLw"></path><path d="M105.52 45.74C105.52 45.74 105.49 45.63 105.58 45.57C105.58 45.57 107.8 44.17 109.08 42.33C109.08 42.33 109.51 41.72 109.9 41.97C109.9 41.97 110.26 42.27 110.57 42.43C110.57 42.43 111.22 42.76 110.75 43.41C110.75 43.41 109.96 44.54 109.55 45.16C109.55 45.16 108.36 46.99 106.9 47.13C106.9 47.13 106.02 47.19 105.52 45.74" id="a3rc0rfaE"></path><path d="M105.29 53.83C105.29 53.83 105.25 53.75 105.31 53.68C105.31 53.68 105.61 53.39 105.83 53.01C105.83 53.01 105.89 52.87 106.13 52.8C106.13 52.8 107.29 52.41 107.76 53.01C107.76 53.01 108.24 53.69 108.65 54.91C108.65 54.91 108.68 55.03 108.72 55.1C108.72 55.1 108.76 55.2 108.66 55.26C108.66 55.26 108.36 55.41 108.09 55.66C108.09 55.66 107.51 56.14 107.23 56.09C107.23 56.09 106.37 55.93 106.06 55.41C106.06 55.41 105.75 54.94 105.29 53.83" id="aJ1Taut9"></path><path d="M106.88 51.08C106.88 51.08 106.55 50.6 106.71 50.42C106.71 50.42 107.42 49.94 108.47 48.41C108.47 48.41 109.23 47.17 109.63 46.99C109.63 46.99 110.48 46.53 111.21 45.08C111.21 45.08 111.38 44.72 112.37 44.57C112.37 44.57 113.75 44.39 114.05 45.01C114.05 45.01 114.2 45.36 114.34 45.75C114.34 45.75 114.4 45.85 114.32 45.93C114.32 45.93 113.29 47.28 113.37 49.21C113.37 49.21 113.34 49.41 113.48 49.36C113.48 49.36 114.2 49.01 115.68 48.89C115.68 48.89 115.97 48.87 116.13 49.01C116.13 49.01 116.58 49.42 116.56 49.66C116.56 49.66 116.54 49.82 116.58 49.91C116.58 49.91 116.69 50.01 116.54 50.23C116.54 50.23 115.27 51.78 113.67 52.76C113.67 52.76 111.91 53.81 111.29 52.8C111.29 52.8 110.66 51.6 110.74 51.14C110.74 51.14 110.92 50.54 110.76 49.99C110.76 49.99 110.65 49.63 110.35 49.99C110.35 49.99 109.86 50.77 108.86 51.2C108.86 51.2 107.74 51.7 107.52 51.65C107.52 51.65 107.2 51.49 106.88 51.08" id="c1EsSPj0eP"></path><path d="M157.61 31.59C157.61 31.59 157.4 31.14 158.03 31.11C158.03 31.11 158.7 31.05 159.63 31.18C159.63 31.18 161.86 31.47 164.32 30.34C164.32 30.34 164.91 30.06 165.16 29.65C165.16 29.65 165.25 29.49 165.48 29.45C165.48 29.45 167.11 29.31 167.42 29.31C167.42 29.31 167.64 29.29 167.75 29.42C167.75 29.42 167.95 29.68 168.29 29.89C168.29 29.89 168.77 30.14 168.86 30.94C168.86 30.94 168.89 31.2 168.71 31.35C168.71 31.35 167.77 32.22 167.35 33.34C167.35 33.34 167.11 33.94 166.28 34.43C166.28 34.43 164.77 35.53 163.11 37.24C163.11 37.24 161.51 38.92 160.24 40.37C160.24 40.37 160.12 40.5 160.17 40.6C160.17 40.6 160.3 40.8 160.37 41.06C160.37 41.06 160.38 41.4 161.01 41.2C161.01 41.2 162.44 40.77 163.17 39.92C163.17 39.92 163.62 39.41 164.51 39.19C164.51 39.19 166.69 38.68 168.04 39.38C168.04 39.38 168.88 39.77 168.79 40.61C168.79 40.61 168.66 41.28 167.97 42.23C167.97 42.23 167.13 43.19 166.1 42.95C166.1 42.95 165 42.64 163.37 43.1C163.37 43.1 158.88 44.46 157.74 45.99C157.74 45.99 157.38 46.46 156.6 46.54C156.6 46.54 151.79 46.78 150.05 44.75C150.05 44.75 149.74 44.36 150.21 44.03C150.21 44.03 150.83 43.58 152.75 43.63C152.75 43.63 155.58 43.65 157.91 41.9C157.91 41.9 159.53 40.39 159.51 39.96C159.51 39.96 159.43 39.47 159.59 39.2C159.59 39.2 159.71 39.04 159.85 38.92C159.85 38.92 160.51 38.59 161.66 36.1C161.66 36.1 162.56 34 163.03 33.49C163.03 33.49 163.41 33.09 163.21 32.85C163.21 32.85 163.14 32.79 162.98 32.87C162.98 32.87 158.81 34.17 157.61 31.59" id="c1HuyrYIZ"></path><path d="M191.65 30.39C191.65 30.39 191.79 30.21 192 30.34C192 30.34 192.32 30.54 192.57 30.66C192.57 30.66 192.75 30.75 192.77 30.99C192.77 30.99 192.96 32.09 192.7 33.29C192.7 33.29 192.66 33.55 192.46 33.62C192.46 33.62 191.82 33.83 191.28 34.22C191.28 34.22 191.11 34.36 190.87 34.25C190.87 34.25 190.72 34.2 190.54 34.15C190.54 34.15 190.28 34.05 190.02 34.17C190.02 34.17 187.87 35.29 184.32 35.99C184.32 35.99 182.31 36.35 181.76 37.19C181.76 37.19 181.6 37.41 181.82 37.65C181.82 37.65 182.34 38.17 182.66 38.08C182.66 38.08 183.04 37.95 183.54 37.86C183.54 37.86 184.1 37.85 184.85 37.1C184.85 37.1 185.97 35.99 187.1 36.12C187.1 36.12 187.62 36.18 187.87 36.45C187.87 36.45 187.96 36.56 188.02 36.61C188.02 36.61 188.14 36.68 188.12 36.86C188.12 36.86 188.1 37.43 188.3 37.92C188.3 37.92 188.39 38.1 188.22 38.3C188.22 38.3 187.54 39.47 184.89 40.21C184.89 40.21 183.81 40.5 183.56 41.15C183.56 41.15 183.31 41.9 183.16 42.31C183.16 42.31 183.13 42.54 182.87 42.76C182.87 42.76 182.46 43.11 182.59 44.04C182.59 44.04 182.66 44.45 183.04 44.59C183.04 44.59 183.21 44.65 183.33 44.57C183.33 44.57 183.84 44.14 185.11 43.81C185.11 43.81 186.37 43.48 186.85 42.8C186.85 42.8 187.65 41.45 188.65 41.51C188.65 41.51 189.48 41.55 189.45 41.93C189.45 41.93 189.33 42.53 189.54 42.86C189.54 42.86 189.86 43.29 190.3 43.15C190.3 43.15 192.98 42.02 195.68 42.73C195.68 42.73 196.08 42.82 196.05 43.02C196.05 43.02 196.02 43.31 196.2 43.79C196.2 43.79 196.53 44.42 196.17 45.49C196.17 45.49 196.15 45.62 196.02 45.64C196.02 45.64 195.37 45.7 194.94 46.48C194.94 46.48 194.73 46.85 194.85 46.98C194.85 46.98 195.59 47.84 195.21 49.09C195.21 49.09 195.16 49.3 195.02 49.36C195.02 49.36 193.71 50.03 192.85 50.72C192.85 50.72 191.32 51.71 190.24 52.17C190.24 52.17 190.11 52.21 190.12 52.36C190.12 52.36 190.14 52.87 190.8 53.08C190.8 53.08 191.84 53.34 193.45 53.4C193.45 53.4 194.35 53.44 195.01 53.76C195.01 53.76 195.65 54.08 195.82 54.19C195.82 54.19 195.95 54.26 195.95 54.35C195.95 54.35 195.98 54.83 195.91 55.17C195.91 55.17 195.91 55.27 195.79 55.28C195.79 55.28 195.58 55.3 195.5 55.59C195.5 55.59 195.5 55.69 195.34 55.65C195.34 55.65 195.1 55.6 194.89 55.61C194.89 55.61 190.86 55.51 188.43 54.43C188.43 54.43 187.97 54.2 187.31 53.37C187.31 53.37 186.94 52.86 187.12 52.33C187.12 52.33 187.24 51.93 187.25 51.81C187.25 51.81 187.25 51.69 187.46 51.59C187.46 51.59 188.62 51.07 189.07 50.68C189.07 50.68 189.4 50.38 189.64 49.66C189.64 49.66 189.69 49.39 190.17 49.19C190.17 49.19 190.71 49.03 191.09 48.74C191.09 48.74 191.25 48.65 191.07 48.43C191.07 48.43 190.51 47.95 191.03 47.05C191.03 47.05 191.08 46.94 191.23 46.94C191.23 46.94 192.63 46.99 193.57 44.88C193.57 44.88 193.69 44.63 193.51 44.33C193.51 44.33 193.45 44.24 193.32 44.26C193.32 44.26 192.48 44.43 191.53 44.82C191.53 44.82 190.53 45.32 189.59 44.92C189.59 44.92 189.15 44.65 189 44.3C189 44.3 188.92 44.02 188.47 43.97C188.47 43.97 187.96 43.92 187.59 43.77C187.59 43.77 187.44 43.71 187.34 43.83C187.34 43.83 185.95 45.27 181.6 47.13C181.6 47.13 181.46 47.16 181.42 47.33C181.42 47.33 180.98 48.72 180.71 49.36C180.71 49.36 180.63 49.53 180.49 49.57C180.49 49.57 180.18 49.67 179.87 50C179.87 50 179.46 50.57 178.52 50.3C178.52 50.3 178.35 50.26 178.33 50.08C178.33 50.08 178.39 49.6 177.64 49.36C177.64 49.36 176.41 48.88 175.22 49.89C175.22 49.89 174.49 50.53 173.81 50.74C173.81 50.74 173.35 50.86 172.91 50.43C172.91 50.43 172.47 49.98 172.25 49.07C172.25 49.07 172.16 48.8 172.49 48.24C172.49 48.24 173.32 46.5 176.87 45.85C176.87 45.85 178.94 45.43 179.75 45.07C179.75 45.07 180.01 44.97 180.09 44.83C180.09 44.83 181.21 42.07 181.64 41.34C181.64 41.34 181.75 41.16 181.69 41.08C181.69 41.08 181.53 40.74 181.46 40.58C181.46 40.58 181.42 40.45 181.26 40.49C181.26 40.49 179.95 40.85 178.65 40.61C178.65 40.61 178.07 40.51 177.45 40.27C177.45 40.27 177.16 40.17 177.19 40C177.19 40 177.2 39.78 177 39.48C177 39.48 176.73 39.12 177.01 38.54C177.01 38.54 177.06 38.39 177.29 38.31C177.29 38.31 179.01 37.59 180.53 36.27C180.53 36.27 182.82 34.25 184.94 33.94C184.94 33.94 189.06 33.17 191.65 30.39" id="krmI6WWSx"></path><path d="M194.17 36.45C194.17 36.45 194.41 36.12 194.94 36.1C194.94 36.1 195.68 36.06 195.66 36.27C195.66 36.27 195.6 36.75 195.95 37.04C195.95 37.04 196.41 37.4 197.04 37.53C197.04 37.53 197.92 37.83 200.8 36.03C200.8 36.03 200.95 35.97 200.86 35.75C200.86 35.75 200.61 35.36 200.89 34.74C200.89 34.74 200.94 34.61 201.04 34.62C201.04 34.62 202.42 34.54 203.46 34.39C203.46 34.39 203.56 34.38 203.66 34.46C203.66 34.46 203.82 34.6 204.08 34.79C204.08 34.79 204.98 35.34 204.54 36.26C204.54 36.26 204.51 36.34 204.39 36.36C204.39 36.36 202.03 36.32 199.32 38.07C199.32 38.07 198.71 38.46 199.09 38.86C199.09 38.86 199.43 39.12 199.31 39.63C199.31 39.63 199.23 39.93 199.17 40.11C199.17 40.11 199.15 40.26 198.94 40.32C198.94 40.32 198.43 40.4 198 40.5C198 40.5 196.86 40.93 194.72 40.02C194.72 40.02 194.61 39.98 194.57 39.86C194.57 39.86 194.44 39.34 193.77 38.79C193.77 38.79 193.57 38.62 193.58 38.35C193.58 38.35 193.52 37.37 194.17 36.45" id="aDG6BVkQM"></path><path d="M224.26 49.62C224.26 49.62 224.41 48.98 225 49.25C225 49.25 226.2 50.07 226.18 50.59C226.18 50.59 226.18 52.64 226.4 53.61C226.4 53.61 226.77 54.76 225.71 55.77C225.71 55.77 225.06 56.34 224.32 56.66C224.32 56.66 223.33 57.13 222.73 57.56C222.73 57.56 222.18 57.91 221.37 58.12C221.37 58.12 220.01 58.44 219.93 59.02C219.93 59.02 219.86 59.43 220.23 59.81C220.23 59.81 220.82 60.47 221.78 59.58C221.78 59.58 222.38 58.94 222.96 59.55C222.96 59.55 223.7 60.4 223.09 61.38C223.09 61.38 222.85 61.81 222.55 61.79C222.55 61.79 222.01 61.77 221.49 62.12C221.49 62.12 220.82 62.53 220.08 61.85C220.08 61.85 219.01 60.82 215.96 61.25C215.96 61.25 214.88 61.38 214.1 61.79C214.1 61.79 212.72 62.35 209.97 62.36C209.97 62.36 208.39 62.47 207.38 62.75C207.38 62.75 205.14 63.43 202.49 62.11C202.49 62.11 201.71 61.72 201.03 61.02C201.03 61.02 200.93 60.92 200.91 60.83C200.91 60.83 200.79 60.39 200.96 59.77C200.96 59.77 201.01 59.59 201.2 59.7C201.2 59.7 201.67 59.95 202.09 60.27C202.09 60.27 203.17 61.19 207.18 60.44C207.18 60.44 209.14 60.04 210.11 59.74C210.11 59.74 211.47 59.38 212.18 59.28C212.18 59.28 212.39 59.25 212.37 59.07C212.37 59.07 212.3 58.46 211.86 58.36C211.86 58.36 210.67 58.18 209.13 57.01C209.13 57.01 208.55 56.6 207.12 55.13C207.12 55.13 207.06 55.07 207.11 54.98C207.11 54.98 207.31 54.62 207.4 54.5C207.4 54.5 207.43 54.46 207.51 54.46C207.51 54.46 208.42 54.54 208.94 55.06C208.94 55.06 209.85 56.08 210.93 56.51C210.93 56.51 214.32 58.28 215.51 57.83C215.51 57.83 216.49 57.56 218.12 56.46C218.12 56.46 218.72 56.09 219.46 55.95C219.46 55.95 221.72 55.34 223.27 53.9C223.27 53.9 223.55 53.62 223.56 53.28C223.56 53.28 223.55 52.35 223.55 51.81C223.55 51.81 223.55 51.5 223.87 51.25C223.87 51.25 224.17 51.03 224.18 50.59C224.18 50.59 224.14 50 224.26 49.62" id="f1lizSa0hp"></path><path d="M215.16 65.06C215.16 65.06 215.02 64.71 215.31 64.47C215.31 64.47 215.64 64.15 215.88 64.3C215.88 64.3 217.24 65.27 217.53 66.39C217.53 66.39 217.75 67.14 217.25 68C217.25 68 216.62 69.02 216.02 69.15C216.02 69.15 215.47 69.29 214.74 68.76C214.74 68.76 214.01 68.18 213.58 67.52C213.58 67.52 213.48 67.37 213.56 67.25C213.56 67.25 213.85 66.8 213.91 66.7C213.91 66.7 213.97 66.58 214.07 66.61C214.07 66.61 214.73 66.89 215.14 66.46C215.14 66.46 215.6 66.07 215.16 65.06" id="aA3UqBZ5t"></path><path d="M238.18 68.7C238.18 68.7 238.28 68.42 238.6 68.42C238.6 68.42 239.24 68.41 239.44 69.02C239.44 69.02 239.48 69.19 239.44 69.27C239.44 69.27 239.21 69.61 239.15 69.8C239.15 69.8 238.98 70.15 239.26 70.73C239.26 70.73 239.68 71.49 239.86 71.58C239.86 71.58 239.97 71.63 240.24 71.55C240.24 71.55 240.33 71.54 240.34 71.41C240.34 71.41 240.35 71.06 240.62 70.93C240.62 70.93 240.87 70.81 241.3 70.72C241.3 70.72 241.71 70.64 241.87 70.19C241.87 70.19 242.29 68.89 242.81 68.9C242.81 68.9 243.17 68.91 243.26 69.96C243.26 69.96 243.31 70.85 242.97 71.74C242.97 71.74 242.64 72.71 242.99 73.34C242.99 73.34 243.13 73.58 243.39 73.72C243.39 73.72 243.93 74.02 244.28 74.23C244.28 74.23 244.88 74.65 245.38 74.41C245.38 74.41 245.49 74.37 245.51 74.29C245.51 74.29 245.54 74.13 245.53 73.98C245.53 73.98 245.53 73.9 245.44 73.86C245.44 73.86 244.69 73.6 244.07 73.11C244.07 73.11 243.77 72.88 243.87 72.68C243.87 72.68 243.99 72.37 244.56 72.14C244.56 72.14 244.73 72.08 244.67 71.92C244.67 71.92 244.43 71.37 244.82 71.09C244.82 71.09 245.19 70.83 245.35 71.08C245.35 71.08 246.22 72.56 246.86 72.78C246.86 72.78 247.42 72.95 247.64 73.21C247.64 73.21 247.85 73.55 248.18 73.61C248.18 73.61 249.08 73.89 250.63 73.77C250.63 73.77 253.42 73.57 253.78 74.7C253.78 74.7 253.87 75.06 253.62 75.5C253.62 75.5 253.36 75.97 252.6 75.95C252.6 75.95 251.74 75.94 250.17 75.55C250.17 75.55 249.11 75.28 248.93 75.6C248.93 75.6 248.74 75.97 249.05 76.55C249.05 76.55 249.42 77.35 251.15 78.22C251.15 78.22 251.33 78.31 251.46 78.31C251.46 78.31 251.77 78.29 252.05 78.7C252.05 78.7 252.64 79.61 253.04 80.33C253.04 80.33 253.21 80.58 253.13 80.75C253.13 80.75 252.87 81.22 252.35 81.6C252.35 81.6 252.21 81.73 251.99 81.58C251.99 81.58 251.19 81.16 249.88 81.19C249.88 81.19 248.61 81.21 247.53 81.2C247.53 81.2 245.06 81.28 243.73 78.66C243.73 78.66 243.65 78.51 243.72 78.46C243.72 78.46 243.87 78.28 244.19 78.41C244.19 78.41 245.16 79.03 246.4 78.82C246.4 78.82 247.45 78.51 247.88 79.17C247.88 79.17 248.04 79.52 248.4 79.59C248.4 79.59 249.61 79.95 250.85 79.81C250.85 79.81 250.96 79.81 250.94 79.68C250.94 79.68 250.9 79.38 250.79 79.15C250.79 79.15 250.18 77.91 246.69 76.55C246.69 76.55 243.96 75.6 243.83 76.48C243.83 76.48 243.89 77.42 243.44 77.91C243.44 77.91 243.23 78.16 243.05 78.09C243.05 78.09 242.72 77.93 242.37 77.56C242.37 77.56 242.24 77.41 242.25 77.24C242.25 77.24 242.45 76.62 241.84 75.73C241.84 75.73 241.69 75.51 241.42 75.49C241.42 75.49 240.16 75.64 239.28 74.65C239.28 74.65 239.17 74.55 239.26 74.47C239.26 74.47 239.42 74.33 239.61 74.15C239.61 74.15 239.69 74.07 239.79 74.1C239.79 74.1 240.02 74.24 240.28 74.11C240.28 74.11 241.1 73.71 240.75 73.26C240.75 73.26 240.5 72.97 238.75 72.64C238.75 72.64 237.21 72.46 236.29 71.01C236.29 71.01 236.24 70.91 236.27 70.81C236.27 70.81 236.4 70.57 236.52 70.11C236.52 70.11 236.54 69.98 236.67 69.95C236.67 69.95 237.27 69.78 237.63 69.57C237.63 69.57 237.95 69.42 238.18 68.7" id="hhH2mKpmm"></path><path d="M226.38 68.21C226.38 68.21 227.12 66.88 228.44 68.71C228.44 68.71 229.44 70.95 234.14 73.55C234.14 73.55 241.37 77.86 243.46 79.81C243.46 79.81 244.22 80.57 244.4 81.22C244.4 81.22 244.56 82.07 243.95 82.49C243.95 82.49 243.86 82.56 243.73 82.5C243.73 82.5 243 82.19 241.99 81.99C241.99 81.99 239.53 81.57 238.26 79.75C238.26 79.75 238.21 79.67 238.27 79.55C238.27 79.55 238.66 78.79 239.12 79.07C239.12 79.07 239.98 79.83 240.99 79.76C240.99 79.76 241.09 79.76 241.09 79.66C241.09 79.66 241.07 79.54 240.99 79.35C240.99 79.35 240.94 79.25 240.85 79.22C240.85 79.22 237.33 76.73 234.8 75.79C234.8 75.79 232.86 75.12 229.47 73.22C229.47 73.22 228.78 72.85 228.25 72.75C228.25 72.75 228 72.7 227.86 72.47C227.86 72.47 227.39 71.64 226.91 70.95C226.91 70.95 225.73 69.45 226.38 68.21" id="a17P3yKk7P"></path><path d="M231.41 76.5C231.41 76.5 231.74 76.18 232.02 76.55C232.02 76.55 232.65 77.42 234.27 78.28C234.27 78.28 236.28 79.48 238.68 81.61C238.68 81.61 240.44 83.34 241.9 84.03C241.9 84.03 242.16 84.11 242.32 84.33C242.32 84.33 243.21 85.46 243.2 85.99C243.2 85.99 243.14 86.92 242.27 87C242.27 87 242.01 87.01 241.86 87.08C241.86 87.08 241.67 87.18 241.37 86.92C241.37 86.92 239.62 85.54 237.14 84.39C237.14 84.39 236.12 83.92 235.03 82.54C235.03 82.54 234.89 82.33 234.7 82.31C234.7 82.31 234.03 82.24 233.78 82.56C233.78 82.56 233.51 82.88 232.76 83.38C232.76 83.38 232.28 83.72 231.88 84.04C231.88 84.04 231.07 84.72 229.89 85.41C229.89 85.41 229.44 85.63 229.16 86.04C229.16 86.04 228.74 86.78 228.19 86.66C228.19 86.66 227.32 86.35 226.84 85.47C226.84 85.47 226.37 84.73 226.46 82.83C226.46 82.83 226.61 81.68 225.87 80.08C225.87 80.08 224.98 78.42 225.47 77.46C225.47 77.46 225.82 76.86 226.13 77.25C226.13 77.25 226.47 77.69 226.54 78.28C226.54 78.28 226.6 78.84 227.13 79.49C227.13 79.49 227.69 80.16 227.88 80.99C227.88 80.99 228.65 83.47 229.88 82.98C229.88 82.98 230.46 82.7 232 82.2C232 82.2 233.12 81.9 233.24 80.87C233.24 80.87 233.27 80.7 233.11 80.56C233.11 80.56 232.16 79.76 231.5 78.77C231.5 78.77 230.52 77.4 231.41 76.5" id="bsYVPHZl2"></path><path d="M130.01 20.31C130.01 20.31 130.01 19.74 130.63 19.55C130.63 19.55 131.03 19.41 131.16 19.65C131.16 19.65 131.36 20.02 131.6 20.19C131.6 20.19 131.89 20.35 131.95 20.75C131.95 20.75 132.32 22.85 131.9 23.13C131.9 23.13 131.01 23.67 129.66 25.22C129.66 25.22 128.15 27 126.25 27.68C126.25 27.68 126.07 27.75 126.06 27.63C126.06 27.63 125.99 27.11 125.92 26.93C125.92 26.93 125.87 26.85 125.97 26.75C125.97 26.75 127.29 25.39 127.84 24.2C127.84 24.2 128.7 22.57 129.56 21.52C129.56 21.52 130.03 20.93 130.01 20.31" id="b2SFi5FvBH"></path><path d="M124.96 34.33C124.96 34.33 125.01 34.01 125.28 33.96C125.28 33.96 125.68 33.85 125.88 34.36C125.88 34.36 126.09 35.12 126.19 35.43C126.19 35.43 126.48 35.86 126.56 36.64C126.56 36.64 126.83 38.73 127.05 40C127.05 40 127.57 41.97 125.38 42.59C125.38 42.59 125.05 42.67 124.93 42.53C124.93 42.53 124.11 41.75 124.38 40.42C124.38 40.42 124.61 39.66 124.62 38.88C124.62 38.88 124.63 36.24 124.96 34.33" id="b2E7FRaHv"></path><path d="M128.45 41.45C128.45 41.45 128.86 40.8 129.21 40.98C129.21 40.98 129.56 41.24 129.68 41.94C129.68 41.94 129.74 42.14 129.62 42.35C129.62 42.35 129.21 43.4 128.96 44.74C128.96 44.74 128.85 45.53 128.57 46.46C128.57 46.46 128.51 46.58 128.63 46.63C128.63 46.63 128.74 46.68 128.96 46.66C128.96 46.66 129.34 46.64 129.74 46.56C129.74 46.56 130.39 46.45 131.18 46.48C131.18 46.48 132.57 46.47 134.63 45.78C134.63 45.78 136.57 45.11 137.56 44.56C137.56 44.56 137.67 44.51 137.64 44.39C137.64 44.39 137.31 43.39 137.64 43.22C137.64 43.22 138.56 42.85 138.81 42.96C138.81 42.96 138.99 43.05 139.25 43.14C139.25 43.14 139.98 43.35 140.39 43.4C140.39 43.4 141.07 43.5 141.38 44.09C141.38 44.09 141.52 44.38 141.57 44.69C141.57 44.69 141.58 44.79 141.5 44.86C141.5 44.86 141.19 45.18 140.93 45.64C140.93 45.64 140.58 46.44 138.28 47.23C138.28 47.23 132.83 48.74 130.49 48.14C130.49 48.14 129.19 47.58 128.4 47.57C128.4 47.57 128.24 47.55 128.16 47.67C128.16 47.67 127.59 49.85 126.18 50.88C126.18 50.88 125.84 51.17 125.39 51.15C125.39 51.15 125.13 51.14 124.96 50.96C124.96 50.96 124.81 50.82 124.75 50.59C124.75 50.59 124.47 49.57 124.63 49.35C124.63 49.35 125.04 48.69 125.27 48.15C125.27 48.15 127.51 42.63 128.45 41.45" id="afYo4biN"></path><path d="M132.33 37.62C132.33 37.62 131.83 37.1 130.65 36.73C130.65 36.73 129.58 36.4 129.02 35.73C129.02 35.73 128.92 35.64 129.03 35.54C129.03 35.54 130.07 34.35 129.59 32.45C129.59 32.45 129.04 30.31 127.73 29.83C127.73 29.83 127.58 29.8 127.74 29.69C127.74 29.69 128.2 29.39 129.31 29.31C129.31 29.31 130.07 29.3 130.81 28.6C130.81 28.6 132.84 27.03 133.68 26.18C133.68 26.18 133.79 26.03 133.93 26.05C133.93 26.05 134.2 26.14 134.15 26.23C134.15 26.23 133.38 28.32 133.03 32.48C133.03 32.48 132.75 34.6 132.79 36.01C132.79 36.01 132.8 36.9 132.54 37.55C132.54 37.55 132.49 37.72 132.33 37.62M144.12 38.87C143.42 38.13 142.62 37.71 142.62 37.71C141.52 37.16 140.16 37.79 140.16 37.79C138.54 38.57 136.67 40.95 136.67 40.95C136.27 41.46 135.63 41.72 135.63 41.72C135.12 41.97 134.49 42.39 134.49 42.39C133.97 42.68 133.86 42.49 133.86 42.49C133.77 42.37 134.02 42.12 134.02 42.12C135.37 40.3 134.88 39.45 134.88 39.45C134.13 37.79 134.87 34.46 134.87 34.46C136.21 28.67 136.14 26.54 136.14 26.54C136.09 25.78 136.31 25.57 136.31 25.57C136.54 25.32 136.01 24.37 136.01 24.37C135.92 24.27 135.8 24.28 135.8 24.28C134.78 24.24 133.71 24.36 133.71 24.36C132.92 24.45 132.42 24.88 132.42 24.88C131.2 25.87 129.42 27.26 129.42 27.26C128.94 27.67 128.01 28.19 128.01 28.19C126.25 29.31 126.49 29.74 126.49 29.74C126.76 30.77 127.22 31.7 127.22 31.7C127.8 33.04 127.74 33.8 127.74 33.8C127.72 34.68 127.17 35.21 127.17 35.21C127.08 35.32 127.1 35.44 127.1 35.44C127.16 35.99 127.53 37.57 127.53 37.57C127.7 38.22 128.42 38.23 128.42 38.23C129.9 38.37 130.3 39.4 130.3 39.4C130.5 39.97 132.21 39.37 132.21 39.37C132.36 39.37 132.39 39.6 132.39 39.6C132.44 40.15 131.87 40.59 131.87 40.59C131.32 41.06 131.45 41.35 131.45 41.35C131.69 42.18 131.73 43.21 131.73 43.21C131.71 43.42 131.92 43.55 131.92 43.55C132.72 44.13 133.39 44.75 133.39 44.75C133.58 44.9 133.94 44.93 133.94 44.93C135.41 45.02 136.15 44.21 136.15 44.21C138.21 42.16 139.93 39.12 139.93 39.12C139.99 38.94 140.15 38.93 140.15 38.93C141 38.77 141.12 39.07 141.12 39.07C141.31 39.55 141.34 40.09 141.34 40.09C141.32 40.35 141.5 40.33 141.5 40.33C142.12 40.27 142.48 40.74 142.48 40.74C142.56 40.86 142.69 40.83 142.69 40.83C144.13 40.38 144.57 39.73 144.57 39.73C144.75 39.52 144.12 38.87 144.12 38.87" id="i7b0pZyE1"></path></defs><g><g><g><use xlink:href="#aQzvRy0Kb" opacity="1" fill="#156c9f" fill-opacity="1"></use><g><use xlink:href="#aQzvRy0Kb" opacity="1" fill-opacity="0" stroke="#000000" stroke-width="1" stroke-opacity="0"></use></g></g><g><use xlink:href="#b9kzFEXuzb" opacity="1" fill="#156c9f" fill-opacity="1"></use><g><use xlink:href="#b9kzFEXuzb" opacity="1" fill-opacity="0" stroke="#000000" stroke-width="1" stroke-opacity="0"></use></g></g><g><use xlink:href="#a1b5MGEPQk" opacity="1" fill="#156c9f" fill-opacity="1"></use><g><use xlink:href="#a1b5MGEPQk" opacity="1" fill-opacity="0" stroke="#000000" stroke-width="1" stroke-opacity="0"></use></g></g><g><use xlink:href="#a37lWFGnU0" opacity="1" fill="#156c9f" fill-opacity="1"></use><g><use xlink:href="#a37lWFGnU0" opacity="1" fill-opacity="0" stroke="#000000" stroke-width="1" stroke-opacity="0"></use></g></g><g><use xlink:href="#a3QA5g2eZh" opacity="1" fill="#156c9f" fill-opacity="1"></use><g><use xlink:href="#a3QA5g2eZh" opacity="1" fill-opacity="0" stroke="#000000" stroke-width="1" stroke-opacity="0"></use></g></g><g><use xlink:href="#dzo34JlOm" opacity="1" fill="#156c9f" fill-opacity="1"></use><g><use xlink:href="#dzo34JlOm" opacity="1" fill-opacity="0" stroke="#000000" stroke-width="1" stroke-opacity="0"></use></g></g><g><use xlink:href="#cTY5uyrfQ" opacity="1" fill="#156c9f" fill-opacity="1"></use><g><use xlink:href="#cTY5uyrfQ" opacity="1" fill-opacity="0" stroke="#000000" stroke-width="1" stroke-opacity="0"></use></g></g><g><use xlink:href="#a35UMr1ED8" opacity="1" fill="#156c9f" fill-opacity="1"></use><g><use xlink:href="#a35UMr1ED8" opacity="1" fill-opacity="0" stroke="#000000" stroke-width="1" stroke-opacity="0"></use></g></g><g><use xlink:href="#agCl7PvVu" opacity="1" fill="#156c9f" fill-opacity="1"></use><g><use xlink:href="#agCl7PvVu" opacity="1" fill-opacity="0" stroke="#000000" stroke-width="1" stroke-opacity="0"></use></g></g><g><use xlink:href="#c1wvfa8Bm6" opacity="1" fill="#156c9f" fill-opacity="1"></use><g><use xlink:href="#c1wvfa8Bm6" opacity="1" fill-opacity="0" stroke="#000000" stroke-width="1" stroke-opacity="0"></use></g></g><g><use xlink:href="#cue1eEnss" opacity="1" fill="#156c9f" fill-opacity="1"></use><g><use xlink:href="#cue1eEnss" opacity="1" fill-opacity="0" stroke="#000000" stroke-width="1" stroke-opacity="0"></use></g></g><g><use xlink:href="#d2YAPyspIg" opacity="1" fill="#156c9f" fill-opacity="1"></use><g><use xlink:href="#d2YAPyspIg" opacity="1" fill-opacity="0" stroke="#000000" stroke-width="1" stroke-opacity="0"></use></g></g><g><use xlink:href="#cv0hHEBoS" opacity="1" fill="#156c9f" fill-opacity="1"></use><g><use xlink:href="#cv0hHEBoS" opacity="1" fill-opacity="0" stroke="#000000" stroke-width="1" stroke-opacity="0"></use></g></g><g><use xlink:href="#ayhEzGatB" opacity="1" fill="#156c9f" fill-opacity="1"></use><g><use xlink:href="#ayhEzGatB" opacity="1" fill-opacity="0" stroke="#000000" stroke-width="1" stroke-opacity="0"></use></g></g><g><use xlink:href="#e4FvFhMpYQ" opacity="1" fill="#156c9f" fill-opacity="1"></use><g><use xlink:href="#e4FvFhMpYQ" opacity="1" fill-opacity="0" stroke="#000000" stroke-width="1" stroke-opacity="0"></use></g></g><g><use xlink:href="#b3nN6uHoVI" opacity="1" fill="#156c9f" fill-opacity="1"></use><g><use xlink:href="#b3nN6uHoVI" opacity="1" fill-opacity="0" stroke="#000000" stroke-width="1" stroke-opacity="0"></use></g></g><g><use xlink:href="#dhfsiI6KW" opacity="1" fill="#156c9f" fill-opacity="1"></use><g><use xlink:href="#dhfsiI6KW" opacity="1" fill-opacity="0" stroke="#000000" stroke-width="1" stroke-opacity="0"></use></g></g><g><use xlink:href="#haLe0XcZY" opacity="1" fill="#156c9f" fill-opacity="1"></use><g><use xlink:href="#haLe0XcZY" opacity="1" fill-opacity="0" stroke="#000000" stroke-width="1" stroke-opacity="0"></use></g></g><g><use xlink:href="#d4yvQUjyDf" opacity="1" fill="#156c9f" fill-opacity="1"></use><g><use xlink:href="#d4yvQUjyDf" opacity="1" fill-opacity="0" stroke="#000000" stroke-width="1" stroke-opacity="0"></use></g></g><g><use xlink:href="#a3lGnXDqsi" opacity="1" fill="#156c9f" fill-opacity="1"></use><g><use xlink:href="#a3lGnXDqsi" opacity="1" fill-opacity="0" stroke="#000000" stroke-width="1" stroke-opacity="0"></use></g></g><g><use xlink:href="#f5p9PS7025" opacity="1" fill="#156c9f" fill-opacity="1"></use><g><use xlink:href="#f5p9PS7025" opacity="1" fill-opacity="0" stroke="#000000" stroke-width="1" stroke-opacity="0"></use></g></g><g><use xlink:href="#bZPm6unAl" opacity="1" fill="#156c9f" fill-opacity="1"></use><g><use xlink:href="#bZPm6unAl" opacity="1" fill-opacity="0" stroke="#000000" stroke-width="1" stroke-opacity="0"></use></g></g><g><use xlink:href="#a208TYj4W" opacity="1" fill="#156c9f" fill-opacity="1"></use><g><use xlink:href="#a208TYj4W" opacity="1" fill-opacity="0" stroke="#000000" stroke-width="1" stroke-opacity="0"></use></g></g><g><use xlink:href="#a3Cc3eO4Le" opacity="1" fill="#156c9f" fill-opacity="1"></use><g><use xlink:href="#a3Cc3eO4Le" opacity="1" fill-opacity="0" stroke="#000000" stroke-width="1" stroke-opacity="0"></use></g></g><g><use xlink:href="#c13iAFSFrx" opacity="1" fill="#156c9f" fill-opacity="1"></use><g><use xlink:href="#c13iAFSFrx" opacity="1" fill-opacity="0" stroke="#000000" stroke-width="1" stroke-opacity="0"></use></g></g><g><use xlink:href="#bpY0C2TER" opacity="1" fill="#156c9f" fill-opacity="1"></use><g><use xlink:href="#bpY0C2TER" opacity="1" fill-opacity="0" stroke="#000000" stroke-width="1" stroke-opacity="0"></use></g></g><g><use xlink:href="#ayyJzy46U" opacity="1" fill="#156c9f" fill-opacity="1"></use><g><use xlink:href="#ayyJzy46U" opacity="1" fill-opacity="0" stroke="#000000" stroke-width="1" stroke-opacity="0"></use></g></g><g><use xlink:href="#a2mnguRYt5" opacity="1" fill="#156c9f" fill-opacity="1"></use><g><use xlink:href="#a2mnguRYt5" opacity="1" fill-opacity="0" stroke="#000000" stroke-width="1" stroke-opacity="0"></use></g></g><g><use xlink:href="#b2745Mdxu" opacity="1" fill="#156c9f" fill-opacity="1"></use><g><use xlink:href="#b2745Mdxu" opacity="1" fill-opacity="0" stroke="#000000" stroke-width="1" stroke-opacity="0"></use></g></g><g><use xlink:href="#a8jwuMlwJ8" opacity="1" fill="#156c9f" fill-opacity="1"></use><g><use xlink:href="#a8jwuMlwJ8" opacity="1" fill-opacity="0" stroke="#000000" stroke-width="1" stroke-opacity="0"></use></g></g><g><use xlink:href="#f12gSyKh42" opacity="1" fill="#156c9f" fill-opacity="1"></use><g><use xlink:href="#f12gSyKh42" opacity="1" fill-opacity="0" stroke="#000000" stroke-width="1" stroke-opacity="0"></use></g></g><g><use xlink:href="#a8fcGbX53" opacity="1" fill="#156c9f" fill-opacity="1"></use><g><use xlink:href="#a8fcGbX53" opacity="1" fill-opacity="0" stroke="#000000" stroke-width="1" stroke-opacity="0"></use></g></g><g><use xlink:href="#a17g3QzNbJ" opacity="1" fill="#156c9f" fill-opacity="1"></use><g><use xlink:href="#a17g3QzNbJ" opacity="1" fill-opacity="0" stroke="#000000" stroke-width="1" stroke-opacity="0"></use></g></g><g><use xlink:href="#pdnbJ6JLM" opacity="1" fill="#156c9f" fill-opacity="1"></use><g><use xlink:href="#pdnbJ6JLM" opacity="1" fill-opacity="0" stroke="#000000" stroke-width="1" stroke-opacity="0"></use></g></g><g><use xlink:href="#h1oNzwHObs" opacity="1" fill="#156c9f" fill-opacity="1"></use><g><use xlink:href="#h1oNzwHObs" opacity="1" fill-opacity="0" stroke="#000000" stroke-width="1" stroke-opacity="0"></use></g></g><g><use xlink:href="#gVNHB21u8" opacity="1" fill="#156c9f" fill-opacity="1"></use><g><use xlink:href="#gVNHB21u8" opacity="1" fill-opacity="0" stroke="#000000" stroke-width="1" stroke-opacity="0"></use></g></g><g><use xlink:href="#a1gby6aewX" opacity="1" fill="#156c9f" fill-opacity="1"></use><g><use xlink:href="#a1gby6aewX" opacity="1" fill-opacity="0" stroke="#000000" stroke-width="1" stroke-opacity="0"></use></g></g><g><use xlink:href="#a4uVkeplb2" opacity="1" fill="#156c9f" fill-opacity="1"></use><g><use xlink:href="#a4uVkeplb2" opacity="1" fill-opacity="0" stroke="#000000" stroke-width="1" stroke-opacity="0"></use></g></g><g><use xlink:href="#eNs6Y5f6z" opacity="1" fill="#156c9f" fill-opacity="1"></use><g><use xlink:href="#eNs6Y5f6z" opacity="1" fill-opacity="0" stroke="#000000" stroke-width="1" stroke-opacity="0"></use></g></g><g><use xlink:href="#cbHhi1nfF" opacity="1" fill="#156c9f" fill-opacity="1"></use><g><use xlink:href="#cbHhi1nfF" opacity="1" fill-opacity="0" stroke="#000000" stroke-width="1" stroke-opacity="0"></use></g></g><g><use xlink:href="#b3hGJBKYRg" opacity="1" fill="#156c9f" fill-opacity="1"></use><g><use xlink:href="#b3hGJBKYRg" opacity="1" fill-opacity="0" stroke="#000000" stroke-width="1" stroke-opacity="0"></use></g></g><g><use xlink:href="#anz1N2O8u" opacity="1" fill="#156c9f" fill-opacity="1"></use><g><use xlink:href="#anz1N2O8u" opacity="1" fill-opacity="0" stroke="#000000" stroke-width="1" stroke-opacity="0"></use></g></g><g><use xlink:href="#b1Rizn7iL4" opacity="1" fill="#156c9f" fill-opacity="1"></use><g><use xlink:href="#b1Rizn7iL4" opacity="1" fill-opacity="0" stroke="#000000" stroke-width="1" stroke-opacity="0"></use></g></g><g><use xlink:href="#b1KtM1Ar8s" opacity="1" fill="#156c9f" fill-opacity="1"></use><g><use xlink:href="#b1KtM1Ar8s" opacity="1" fill-opacity="0" stroke="#000000" stroke-width="1" stroke-opacity="0"></use></g></g><g><use xlink:href="#bur0jYs4B" opacity="1" fill="#156c9f" fill-opacity="1"></use><g><use xlink:href="#bur0jYs4B" opacity="1" fill-opacity="0" stroke="#000000" stroke-width="1" stroke-opacity="0"></use></g></g><g><use xlink:href="#a4wj58eVLl" opacity="1" fill="#156c9f" fill-opacity="1"></use><g><use xlink:href="#a4wj58eVLl" opacity="1" fill-opacity="0" stroke="#000000" stroke-width="1" stroke-opacity="0"></use></g></g><g><use xlink:href="#a27ys8lsIK" opacity="1" fill="#156c9f" fill-opacity="1"></use><g><use xlink:href="#a27ys8lsIK" opacity="1" fill-opacity="0" stroke="#000000" stroke-width="1" stroke-opacity="0"></use></g></g><g><use xlink:href="#b786UJOou" opacity="1" fill="#156c9f" fill-opacity="1"></use><g><use xlink:href="#b786UJOou" opacity="1" fill-opacity="0" stroke="#000000" stroke-width="1" stroke-opacity="0"></use></g></g><g><use xlink:href="#a1eHo9wsh8" opacity="1" fill="#156c9f" fill-opacity="1"></use><g><use xlink:href="#a1eHo9wsh8" opacity="1" fill-opacity="0" stroke="#000000" stroke-width="1" stroke-opacity="0"></use></g></g><g><use xlink:href="#byxoet8v2" opacity="1" fill="#156c9f" fill-opacity="1"></use><g><use xlink:href="#byxoet8v2" opacity="1" fill-opacity="0" stroke="#000000" stroke-width="1" stroke-opacity="0"></use></g></g><g><use xlink:href="#bq8WaW1ma" opacity="1" fill="#156c9f" fill-opacity="1"></use><g><use xlink:href="#bq8WaW1ma" opacity="1" fill-opacity="0" stroke="#000000" stroke-width="1" stroke-opacity="0"></use></g></g><g><use xlink:href="#d3JRghtpNl" opacity="1" fill="#156c9f" fill-opacity="1"></use><g><use xlink:href="#d3JRghtpNl" opacity="1" fill-opacity="0" stroke="#000000" stroke-width="1" stroke-opacity="0"></use></g></g><g><use xlink:href="#h1MESbQQAb" opacity="1" fill="#156c9f" fill-opacity="1"></use><g><use xlink:href="#h1MESbQQAb" opacity="1" fill-opacity="0" stroke="#000000" stroke-width="1" stroke-opacity="0"></use></g></g><g><use xlink:href="#e389ULQDK4" opacity="1" fill="#156c9f" fill-opacity="1"></use><g><use xlink:href="#e389ULQDK4" opacity="1" fill-opacity="0" stroke="#000000" stroke-width="1" stroke-opacity="0"></use></g></g><g><use xlink:href="#a10zqJZgrn" opacity="1" fill="#156c9f" fill-opacity="1"></use><g><use xlink:href="#a10zqJZgrn" opacity="1" fill-opacity="0" stroke="#000000" stroke-width="1" stroke-opacity="0"></use></g></g><g><use xlink:href="#f3PeS8Qva" opacity="1" fill="#156c9f" fill-opacity="1"></use><g><use xlink:href="#f3PeS8Qva" opacity="1" fill-opacity="0" stroke="#000000" stroke-width="1" stroke-opacity="0"></use></g></g><g><use xlink:href="#a15hPkDxFR" opacity="1" fill="#156c9f" fill-opacity="1"></use><g><use xlink:href="#a15hPkDxFR" opacity="1" fill-opacity="0" stroke="#000000" stroke-width="1" stroke-opacity="0"></use></g></g><g><use xlink:href="#b5v2pMbScK" opacity="1" fill="#156c9f" fill-opacity="1"></use><g><use xlink:href="#b5v2pMbScK" opacity="1" fill-opacity="0" stroke="#000000" stroke-width="1" stroke-opacity="0"></use></g></g><g><use xlink:href="#b3FMmTmzJ" opacity="1" fill="#156c9f" fill-opacity="1"></use><g><use xlink:href="#b3FMmTmzJ" opacity="1" fill-opacity="0" stroke="#000000" stroke-width="1" stroke-opacity="0"></use></g></g><g><use xlink:href="#e50w8uSmr" opacity="1" fill="#156c9f" fill-opacity="1"></use><g><use xlink:href="#e50w8uSmr" opacity="1" fill-opacity="0" stroke="#000000" stroke-width="1" stroke-opacity="0"></use></g></g><g><use xlink:href="#b291kCeMEl" opacity="1" fill="#156c9f" fill-opacity="1"></use><g><use xlink:href="#b291kCeMEl" opacity="1" fill-opacity="0" stroke="#000000" stroke-width="1" stroke-opacity="0"></use></g></g><g><use xlink:href="#c3jRjKwjOq" opacity="1" fill="#156c9f" fill-opacity="1"></use><g><use xlink:href="#c3jRjKwjOq" opacity="1" fill-opacity="0" stroke="#000000" stroke-width="1" stroke-opacity="0"></use></g></g><g><use xlink:href="#c1nx611dgH" opacity="1" fill="#156c9f" fill-opacity="1"></use><g><use xlink:href="#c1nx611dgH" opacity="1" fill-opacity="0" stroke="#000000" stroke-width="1" stroke-opacity="0"></use></g></g><g><use xlink:href="#bKKAYfQjq" opacity="1" fill="#156c9f" fill-opacity="1"></use><g><use xlink:href="#bKKAYfQjq" opacity="1" fill-opacity="0" stroke="#000000" stroke-width="1" stroke-opacity="0"></use></g></g><g><use xlink:href="#b3FOUh0lLw" opacity="1" fill="#156c9f" fill-opacity="1"></use><g><use xlink:href="#b3FOUh0lLw" opacity="1" fill-opacity="0" stroke="#000000" stroke-width="1" stroke-opacity="0"></use></g></g><g><use xlink:href="#a3rc0rfaE" opacity="1" fill="#156c9f" fill-opacity="1"></use><g><use xlink:href="#a3rc0rfaE" opacity="1" fill-opacity="0" stroke="#000000" stroke-width="1" stroke-opacity="0"></use></g></g><g><use xlink:href="#aJ1Taut9" opacity="1" fill="#156c9f" fill-opacity="1"></use><g><use xlink:href="#aJ1Taut9" opacity="1" fill-opacity="0" stroke="#000000" stroke-width="1" stroke-opacity="0"></use></g></g><g><use xlink:href="#c1EsSPj0eP" opacity="1" fill="#156c9f" fill-opacity="1"></use><g><use xlink:href="#c1EsSPj0eP" opacity="1" fill-opacity="0" stroke="#000000" stroke-width="1" stroke-opacity="0"></use></g></g><g><use xlink:href="#c1HuyrYIZ" opacity="1" fill="#156c9f" fill-opacity="1"></use><g><use xlink:href="#c1HuyrYIZ" opacity="1" fill-opacity="0" stroke="#000000" stroke-width="1" stroke-opacity="0"></use></g></g><g><use xlink:href="#krmI6WWSx" opacity="1" fill="#156c9f" fill-opacity="1"></use><g><use xlink:href="#krmI6WWSx" opacity="1" fill-opacity="0" stroke="#000000" stroke-width="1" stroke-opacity="0"></use></g></g><g><use xlink:href="#aDG6BVkQM" opacity="1" fill="#156c9f" fill-opacity="1"></use><g><use xlink:href="#aDG6BVkQM" opacity="1" fill-opacity="0" stroke="#000000" stroke-width="1" stroke-opacity="0"></use></g></g><g><use xlink:href="#f1lizSa0hp" opacity="1" fill="#156c9f" fill-opacity="1"></use><g><use xlink:href="#f1lizSa0hp" opacity="1" fill-opacity="0" stroke="#000000" stroke-width="1" stroke-opacity="0"></use></g></g><g><use xlink:href="#aA3UqBZ5t" opacity="1" fill="#156c9f" fill-opacity="1"></use><g><use xlink:href="#aA3UqBZ5t" opacity="1" fill-opacity="0" stroke="#000000" stroke-width="1" stroke-opacity="0"></use></g></g><g><use xlink:href="#hhH2mKpmm" opacity="1" fill="#156c9f" fill-opacity="1"></use><g><use xlink:href="#hhH2mKpmm" opacity="1" fill-opacity="0" stroke="#000000" stroke-width="1" stroke-opacity="0"></use></g></g><g><use xlink:href="#a17P3yKk7P" opacity="1" fill="#156c9f" fill-opacity="1"></use><g><use xlink:href="#a17P3yKk7P" opacity="1" fill-opacity="0" stroke="#000000" stroke-width="1" stroke-opacity="0"></use></g></g><g><use xlink:href="#bsYVPHZl2" opacity="1" fill="#156c9f" fill-opacity="1"></use><g><use xlink:href="#bsYVPHZl2" opacity="1" fill-opacity="0" stroke="#000000" stroke-width="1" stroke-opacity="0"></use></g></g><g><use xlink:href="#b2SFi5FvBH" opacity="1" fill="#156c9f" fill-opacity="1"></use><g><use xlink:href="#b2SFi5FvBH" opacity="1" fill-opacity="0" stroke="#000000" stroke-width="1" stroke-opacity="0"></use></g></g><g><use xlink:href="#b2E7FRaHv" opacity="1" fill="#156c9f" fill-opacity="1"></use><g><use xlink:href="#b2E7FRaHv" opacity="1" fill-opacity="0" stroke="#000000" stroke-width="1" stroke-opacity="0"></use></g></g><g><use xlink:href="#afYo4biN" opacity="1" fill="#156c9f" fill-opacity="1"></use><g><use xlink:href="#afYo4biN" opacity="1" fill-opacity="0" stroke="#000000" stroke-width="1" stroke-opacity="0"></use></g></g><g><use xlink:href="#i7b0pZyE1" opacity="1" fill="#156c9f" fill-opacity="1"></use><g><use xlink:href="#i7b0pZyE1" opacity="1" fill-opacity="0" stroke="#000000" stroke-width="1" stroke-opacity="0"></use></g></g></g></g></svg>