<?xml version="1.0" encoding="UTF-8" standalone="no"?>
<!-- Generator: Adobe Illustrator 24.0.1, SVG Export Plug-In . SVG Version: 6.00 Build 0)  -->

<svg
   version="1.1"
   id="图层_1"
   x="0px"
   y="0px"
   viewBox="0 0 184.25999 184.25999"
   xml:space="preserve"
   sodipodi:docname="宁大LOGO.svg"
   width="184.25999"
   height="184.25999"
   inkscape:version="1.2 (dc2aedaf03, 2022-05-15)"
   xmlns:inkscape="http://www.inkscape.org/namespaces/inkscape"
   xmlns:sodipodi="http://sodipodi.sourceforge.net/DTD/sodipodi-0.dtd"
   xmlns="http://www.w3.org/2000/svg"
   xmlns:svg="http://www.w3.org/2000/svg"><defs
   id="defs33" /><sodipodi:namedview
   id="namedview31"
   pagecolor="#ffffff"
   bordercolor="#000000"
   borderopacity="0.25"
   inkscape:showpageshadow="2"
   inkscape:pageopacity="0.0"
   inkscape:pagecheckerboard="0"
   inkscape:deskcolor="#d1d1d1"
   showgrid="false"
   inkscape:zoom="2.2426716"
   inkscape:cx="162.30642"
   inkscape:cy="61.533754"
   inkscape:window-width="1440"
   inkscape:window-height="829"
   inkscape:window-x="-8"
   inkscape:window-y="-8"
   inkscape:window-maximized="1"
   inkscape:current-layer="图层_1" />
<style
   type="text/css"
   id="style2">
	.st0{fill-rule:evenodd;clip-rule:evenodd;fill:#004E36;}
	.st1{fill-rule:evenodd;clip-rule:evenodd;fill:#FFFFFF;}
</style>


<g
   id="g28"
   transform="translate(-112.78,-205.51)">
	
		<circle
   transform="matrix(0.9451,-0.3268,0.3268,0.9451,-86.0244,83.3143)"
   class="st1"
   cx="204.89999"
   cy="297.64001"
   id="ellipse8"
   r="90.730003" />
	<g
   id="g26">
		<path
   class="st0"
   d="m 204.91,205.51 c 25.43,0 48.47,10.31 65.14,26.99 16.67,16.67 26.99,39.7 26.99,65.14 0,25.44 -10.31,48.47 -26.99,65.14 -16.67,16.67 -39.7,26.99 -65.14,26.99 -25.44,0 -48.47,-10.31 -65.14,-26.99 -16.67,-16.67 -26.99,-39.7 -26.99,-65.14 0,-25.44 10.31,-48.47 26.99,-65.14 16.67,-16.67 39.7,-26.99 65.14,-26.99 z m 63.21,28.91 c -16.18,-16.18 -38.53,-26.19 -63.21,-26.19 -24.68,0 -47.04,10.01 -63.22,26.19 -16.18,16.18 -26.19,38.53 -26.19,63.21 0,24.68 10.01,47.04 26.19,63.21 16.18,16.18 38.53,26.19 63.22,26.19 24.68,0 47.03,-10.01 63.21,-26.19 16.18,-16.18 26.19,-38.53 26.19,-63.21 -0.01,-24.67 -10.01,-47.03 -26.19,-63.21 z"
   id="path10" />
		<path
   class="st0"
   d="m 204.92,210.17 c 24.15,0 46.01,9.79 61.84,25.62 15.83,15.83 25.62,37.69 25.62,61.84 0,24.15 -9.79,46.01 -25.62,61.84 -15.83,15.83 -37.69,25.62 -61.84,25.62 -24.15,0 -46.01,-9.79 -61.84,-25.62 -15.83,-15.83 -25.62,-37.69 -25.62,-61.84 0,-24.15 9.79,-46.01 25.62,-61.84 15.83,-15.83 37.69,-25.62 61.84,-25.62 z m 61.15,26.31 c -15.65,-15.65 -37.27,-25.34 -61.15,-25.34 -23.88,0 -45.5,9.68 -61.16,25.34 -15.65,15.65 -25.34,37.28 -25.34,61.15 0,23.88 9.68,45.5 25.34,61.15 15.65,15.65 37.28,25.34 61.16,25.34 23.88,0 45.5,-9.68 61.15,-25.34 15.65,-15.65 25.33,-37.27 25.33,-61.15 0.01,-23.88 -9.68,-45.5 -25.33,-61.15 z"
   id="path12" />
		<path
   class="st0"
   d="m 204.91,235.97 c 34.05,0 61.66,27.61 61.66,61.66 0,34.05 -27.61,61.66 -61.66,61.66 -34.05,0 -61.66,-27.61 -61.66,-61.66 0,-34.04 27.61,-61.66 61.66,-61.66 z m -4.68,110.47 c 1.13,-0.07 1.72,-0.82 1.75,-2.24 -0.04,-1.35 -0.65,-2.04 -1.86,-2.08 -1.13,0.07 -1.74,0.8 -1.81,2.19 0,1.46 0.64,2.17 1.92,2.13 z m -7.57,-5.47 h -0.88 c -0.14,1.35 -0.98,1.99 -2.53,1.92 v 0.98 h 2.22 v 6.94 h 1.19 v -9.84 z m 14.81,1.43 h 3.92 v -1.2 h -4.8 l -0.67,5.3 0.98,0.06 c 0.45,-0.62 1.03,-0.93 1.76,-0.93 1.27,0.08 1.95,0.81 2.01,2.19 -0.1,1.39 -0.74,2.13 -1.91,2.25 -1.2,0 -1.88,-0.57 -2.01,-1.7 h -1.19 c 0.17,1.72 1.17,2.59 3,2.63 2.14,-0.04 3.27,-1.15 3.41,-3.33 -0.14,-1.94 -1.17,-2.99 -3.1,-3.18 -0.65,0 -1.24,0.2 -1.75,0.6 l 0.35,-2.69 z m 9.93,2.73 v 0 c 1.04,-0.07 1.59,-0.6 1.65,-1.58 -0.07,-0.91 -0.65,-1.39 -1.75,-1.42 -0.96,0.03 -1.48,0.53 -1.55,1.47 0.07,0.95 0.62,1.46 1.65,1.53 z m -20.17,3.34 c 0.14,1.64 1.05,2.48 2.74,2.51 2.14,-0.07 3.27,-1.9 3.41,-5.47 -0.07,-2.99 -1.15,-4.51 -3.25,-4.54 -1.89,0.07 -2.89,1.2 -2.99,3.39 0.07,2.01 1.03,3.07 2.89,3.18 1.04,-0.04 1.74,-0.42 2.12,-1.15 h 0.05 c -0.27,2.48 -1.01,3.7 -2.22,3.67 -0.93,0 -1.47,-0.53 -1.6,-1.59 h -1.15 z m 22.97,-4.98 c -0.14,-1.6 -1.09,-2.44 -2.84,-2.52 -1.72,0.04 -2.65,0.93 -2.79,2.68 0,0.99 0.41,1.64 1.24,1.97 -1.03,0.44 -1.55,1.24 -1.55,2.41 -0.03,1.02 0.28,1.78 0.93,2.3 0.62,0.4 1.36,0.62 2.22,0.65 2,-0.07 3.05,-1.08 3.15,-3 0,-1.13 -0.5,-1.91 -1.5,-2.36 0.76,-0.44 1.14,-1.15 1.14,-2.13 z m -2.8,2.73 v 0 c -1.2,0.03 -1.84,0.64 -1.91,1.8 0.07,1.27 0.72,1.93 1.96,1.96 1.24,-0.03 1.86,-0.65 1.86,-1.85 -0.02,-1.23 -0.66,-1.87 -1.91,-1.91 z m 36.71,-81.38 c 0,0 -8.35,0.86 -17.94,2.23 -8.38,1.21 -17.7,2.86 -23.57,4.04 -54.47,10.92 -56.79,26.46 -56.57,30.41 0.86,15.63 13.55,14.57 13.55,14.57 0,0 -6.03,-2.43 -4.52,-10.63 3.77,-20.42 83.79,-23.82 83.79,-23.82 z m -27.54,22.43 c -47.85,4.04 -57.32,15.27 -57.86,18.72 -1.29,8.29 6.46,8.51 6.46,8.51 -3.66,-2.24 -1.78,-5.03 1.61,-7.34 13.87,-9.46 46.57,-10.64 46.57,-10.64 l 3.22,-9.25 z M 213.6,255.73 v 0 l -1.36,13.61 3.08,-0.57 1.43,-13.82 z m -8.1,2.27 v 0 l -1.07,13.04 3.08,-0.71 1.29,-13.19 z m -7.89,2.27 v 0 l -1.22,12.83 3.08,-0.99 1.29,-12.76 z m -8.03,44.01 v 0 c 0,0 -10,23.18 -33.88,17.76 l 1.29,3.4 c 0,0 15.38,4.68 29.9,-10.74 2.33,-2.48 5.59,-8.93 6.24,-11.27 z m 8.61,-2.12 v 0 c 0,0 -8.39,30.52 -39.69,27.33 l 1.29,3.4 c 0,0 17.2,2.87 31.19,-12.01 2.5,-2.65 7.75,-8.72 10.54,-19.24 z m 8.03,-1.28 v 0 c 0,0 -7.67,36.51 -44.81,36.15 l 1.29,3.26 c 0,0 20.29,1.42 35.64,-16.59 0,0 13.7,10.2 34.27,10.84 l 1.07,-3.19 c 0,0 -17.56,0.85 -33.27,-10.56 l 2.29,-3.47 c 0,0 12.98,10.28 32.26,9.99 l 1.01,-3.4 c 0,0 -15.99,2.12 -31.55,-9.43 l 1.8,-3.97 c 0,0 9.46,9.78 31.05,9.22 l 0.93,-3.48 c 0,0 -16.71,3.26 -30.69,-9.07 0,0 2.15,-5.39 2.15,-6.74 z"
   id="path14" />
		<path
   class="st0"
   d="m 268.31,328.44 0.21,0.11 c -0.35,0.57 -0.16,1.46 0.58,2.66 l 1.91,3.56 2.6,1.4 c 0.83,0.62 1.47,0.39 1.92,-0.71 l 0.26,0.14 -2.17,4.06 -0.26,-0.14 c 0.68,-1.02 0.47,-1.71 -0.63,-2.08 l -2.29,-1.23 -3.49,0.4 c -2.19,0.16 -3.28,0.49 -3.28,0.99 l -0.21,-0.11 1.98,-3.69 0.21,0.11 c -0.02,0.03 -0.05,0.09 -0.08,0.16 -0.26,0.57 -0.26,0.91 0,1 0.17,0.09 0.4,0.13 0.68,0.1 l 4.02,-0.38 -1.98,-3.54 c -0.1,-0.23 -0.22,-0.38 -0.36,-0.46 -0.31,-0.17 -0.63,0.06 -0.97,0.68 l -0.21,-0.11 z m 1.57,16.38 c -0.63,0.96 -1.29,1.07 -1.97,0.35 l -6.16,-4.68 0.5,-0.66 c 0.76,-1.25 1.76,-1.5 3.02,-0.75 l 0.21,-0.28 -2.09,-1.44 -5.14,6.76 1.95,1.63 0.21,-0.28 c -1.06,-1.01 -1.09,-2.04 -0.09,-3.1 l 0.5,-0.66 6.01,4.57 c 0.97,0.54 1.09,1.22 0.36,2.05 l 0.24,0.18 2.68,-3.52 -0.23,-0.17 z m -7.77,9.85 v 0 l -0.22,-0.2 c 0.8,-0.71 0.78,-1.36 -0.05,-1.96 l -4.98,-4.52 c -0.63,-0.78 -1.28,-0.73 -1.96,0.14 l -0.18,-0.16 3.01,-3.32 0.18,0.16 c -0.8,0.76 -0.79,1.43 0.02,2 l 4.98,4.52 c 0.68,0.77 1.34,0.71 1.99,-0.18 l 0.22,0.2 z m -9,-5.56 -0.22,0.2 c 0.21,0.29 0.2,0.54 -0.03,0.75 -0.06,0.05 -0.24,0.15 -0.55,0.27 -0.62,0.26 -1.06,0.5 -1.32,0.74 -1.22,1.29 -1.32,2.54 -0.31,3.74 0.72,0.89 1.98,1.09 3.77,0.61 2.08,-0.53 3.29,-0.44 3.63,0.27 0.66,0.83 0.59,1.65 -0.22,2.46 -1.01,0.93 -2.36,0.98 -4.05,0.13 l -0.26,0.24 2.39,1.97 0.26,-0.24 c -0.1,-0.17 -0.07,-0.36 0.1,-0.58 0.09,-0.08 0.29,-0.18 0.6,-0.31 0.6,-0.34 1.07,-0.67 1.42,-0.99 1.36,-1.36 1.54,-2.74 0.53,-4.11 -0.75,-0.81 -2.19,-0.97 -4.32,-0.5 -1.68,0.38 -2.77,0.31 -3.25,-0.21 -0.56,-0.66 -0.51,-1.35 0.17,-2.08 1.06,-0.93 2.34,-0.94 3.84,-0.02 l 0.26,-0.24 -2.44,-2.1 z m -9.46,9.11 v 0 l 2.06,3.09 c 2.01,-1.24 2.58,-2.5 1.73,-3.78 -0.76,-1.14 -1.87,-1.23 -3.31,-0.27 -0.6,0.36 -0.76,0.68 -0.48,0.96 z m 10.53,3.33 v 0 l 0.16,0.24 -2.06,1.38 -5.54,-1.9 -0.7,0.54 1.64,2.45 c 0.43,0.85 1.05,0.97 1.88,0.37 l 0.16,0.25 -3.48,2.33 -0.16,-0.25 c 0.89,-0.5 0.97,-1.17 0.22,-2 l -3.64,-5.44 c -0.43,-0.85 -1.04,-0.99 -1.83,-0.41 l -0.13,-0.2 3.48,-2.33 c 2.12,-1.37 3.66,-1.36 4.63,0.02 0.79,1.18 0.51,2.38 -0.84,3.62 l 4.68,1.48 c 0.59,0.18 1.1,0.13 1.53,-0.15 z m -10.44,4.02 v 0 l 0.6,2.56 -7.14,3.92 -0.14,-0.26 c 0.87,-0.39 1.03,-0.99 0.49,-1.81 l -3.24,-5.89 c -0.35,-0.89 -0.95,-1.08 -1.79,-0.57 l -0.11,-0.21 7.03,-3.86 1.07,1.83 -0.36,0.2 c -0.59,-1.07 -1.51,-1.17 -2.78,-0.29 l -1.76,0.96 c -0.33,0.13 -0.4,0.38 -0.21,0.72 l 1.62,2.95 2.07,-1.14 c 1.02,-0.43 1.26,-1.12 0.74,-2.09 l 0.31,-0.17 1.7,3.1 -0.31,0.17 c -0.53,-0.96 -1.24,-1.11 -2.13,-0.44 l -2.1,1.08 1.82,3.31 c 0.12,0.3 0.29,0.4 0.51,0.32 0.12,-0.02 0.72,-0.33 1.79,-0.91 1.54,-0.71 2.19,-1.81 1.96,-3.3 z m -11.32,-2.59 -2.88,1.04 0.08,0.22 c 0.76,-0.23 1.19,-0.13 1.3,0.29 0.05,0.15 0.08,0.41 0.09,0.78 -0.02,0.17 -0.03,0.28 -0.01,0.32 l -0.23,5.98 -3.9,-4.05 c -0.13,-0.12 -0.3,-0.31 -0.52,-0.56 -0.35,-0.38 -0.54,-0.62 -0.58,-0.74 -0.21,-0.34 0.08,-0.65 0.86,-0.93 l -0.08,-0.22 -3.77,1.36 0.08,0.22 c 0.56,-0.28 1.24,0.03 2.04,0.96 l 6.27,6.46 0.22,-0.08 0.33,-9.02 c -0.02,-1.08 0.25,-1.68 0.8,-1.79 l -0.1,-0.24 z m -12.14,14.01 v 0 l -0.06,-0.29 c 1.06,-0.08 1.45,-0.62 1.14,-1.6 l -1.26,-6.61 c -0.03,-1 -0.58,-1.35 -1.64,-1.07 l -0.04,-0.23 4.4,-0.84 0.05,0.23 c -1.09,0.13 -1.49,0.66 -1.19,1.61 l 1.26,6.61 c 0.07,1.02 0.64,1.38 1.7,1.06 l 0.06,0.29 z M 218,367.42 v 0 l 0.02,0.23 c -1.02,0.03 -1.43,0.72 -1.21,2.08 l 0.79,7.81 -0.29,0.03 -7.39,-7.43 h -0.06 l 0.59,5.81 c 0.06,1.38 0.6,1.98 1.61,1.79 l 0.03,0.29 -3.53,0.36 -0.03,-0.29 c 1.11,0.01 1.53,-0.69 1.27,-2.09 l -0.67,-6.63 c -0.57,-0.58 -1.09,-0.8 -1.55,-0.68 l -0.02,-0.23 2.58,-0.26 6.48,6.64 -0.51,-5.05 c -0.06,-1.38 -0.59,-1.97 -1.6,-1.79 l -0.03,-0.23 z m -10.09,1.24 -3.47,-0.26 -0.02,0.24 c 1.02,0 1.45,0.68 1.27,2.05 l -0.3,4.06 c -0.08,1.06 -0.24,1.74 -0.51,2.04 -0.52,0.71 -1.38,1.04 -2.56,0.99 -1.8,-0.13 -2.59,-1.22 -2.36,-3.25 l 0.36,-4.83 c -0.05,-0.95 0.44,-1.37 1.46,-1.25 l 0.02,-0.24 -4.23,-0.31 -0.02,0.24 c 1.02,0.03 1.44,0.52 1.25,1.45 l -0.35,4.71 c -0.23,2.51 0.92,3.85 3.43,4.04 2.67,0.2 4.06,-1.02 4.17,-3.65 l 0.29,-3.94 c -0.02,-1.34 0.5,-1.96 1.56,-1.84 l 0.01,-0.25 z m -28.69,1.03 v 0 l 3.31,1.09 -0.33,-4.46 z m 5.93,5.74 v 0 l -0.09,0.28 -3.7,-1.22 0.09,-0.28 c 0.7,0.27 1.1,0.19 1.19,-0.23 0.04,-0.11 0.05,-0.33 0.03,-0.67 0.01,-0.16 0.02,-0.26 0.04,-0.3 l -0.17,-1.55 -3.76,-1.24 -1.22,1.46 c -0.15,0.2 -0.24,0.35 -0.28,0.47 -0.15,0.45 0.12,0.76 0.81,0.95 l -0.09,0.28 -2.86,-0.94 0.09,-0.28 c 0.22,0.07 0.5,0.06 0.82,-0.04 0.26,-0.16 0.78,-0.66 1.55,-1.48 0.07,-0.1 0.14,-0.18 0.2,-0.24 l 5.29,-6.08 0.28,0.09 0.89,9.36 c 0.01,1 0.31,1.55 0.89,1.66 z m -15.2,-5.72 3.99,2.05 0.14,-0.26 c -1.03,-0.4 -1.27,-1.03 -0.69,-1.88 l 3.08,-5.98 c 0.35,-0.93 0.99,-1.11 1.93,-0.54 l 0.11,-0.21 -3.99,-2.05 -0.11,0.21 c 1.02,0.44 1.23,1.05 0.64,1.86 l -3.07,5.98 c -0.36,0.96 -0.99,1.15 -1.88,0.56 l -0.15,0.26 z m 3.74,-8.87 v 0 l -0.13,0.2 c -0.56,-0.44 -1.44,-0.44 -2.65,0 l -3.32,1.18 0.24,5.03 c -0.02,0.92 0.25,1.53 0.8,1.83 l -0.16,0.25 -3.79,-2.39 0.16,-0.25 c 0.03,0.02 0.06,0.04 0.1,0.06 0.67,0.42 1.06,0.46 1.18,0.12 0.11,-0.17 0.14,-0.7 0.11,-1.61 l -0.07,-2.55 -2.74,0.92 c -0.06,0.01 -0.14,0.03 -0.25,0.05 -0.64,0.29 -1.01,0.5 -1.09,0.63 -0.19,0.3 0.03,0.65 0.67,1.05 l -0.16,0.25 -2.95,-1.85 0.16,-0.25 c 0.32,0.38 1.24,0.29 2.76,-0.28 l 3.54,-1.19 -0.11,-2.93 c 0.01,-2.08 -0.32,-3.25 -1.01,-3.49 l 0.13,-0.2 3.84,2.42 -0.12,0.2 c -0.03,-0.02 -0.07,-0.04 -0.1,-0.06 -0.67,-0.42 -1.06,-0.46 -1.18,-0.12 -0.15,0.09 -0.17,0.93 -0.07,2.54 l 0.05,1.14 2.58,-0.88 c 0.54,-0.12 0.89,-0.3 1.03,-0.53 0.15,-0.24 -0.01,-0.54 -0.46,-0.92 -0.07,-0.04 -0.12,-0.07 -0.15,-0.1 l 0.13,-0.2 z m -11.55,-1.92 -2.97,-2.51 -0.19,0.22 c 0.86,0.57 0.91,1.21 0.16,1.91 l -1.56,1.85 c -0.42,0.31 -1.14,0.1 -2.15,-0.66 -1.82,-1.75 -1.87,-3.72 -0.16,-5.93 1.96,-2.25 3.92,-2.68 5.88,-1.29 1.2,1.02 1.49,2.39 0.85,4.11 l 0.27,0.23 1.97,-2.51 -0.23,-0.19 c -0.24,0.16 -0.52,0.13 -0.85,-0.1 -0.09,-0.08 -0.23,-0.25 -0.42,-0.51 -0.42,-0.66 -0.87,-1.2 -1.34,-1.6 -2.56,-1.85 -4.97,-1.68 -7.24,0.52 -1.05,1.17 -1.53,2.39 -1.45,3.64 0.15,1.41 0.89,2.72 2.25,3.91 1.28,0.98 2.45,1.53 3.49,1.63 l 1.94,-2.3 c 0.47,-0.68 1,-0.75 1.57,-0.22 l 0.18,-0.2 z m -5.09,-10.16 v 0 l -0.18,0.16 c -0.62,-0.81 -1.42,-0.74 -2.39,0.24 l -5.85,5.23 -0.2,-0.22 1.67,-10.35 -0.04,-0.04 -4.35,3.89 c -1.08,0.86 -1.25,1.64 -0.51,2.35 l -0.22,0.2 -2.36,-2.64 0.22,-0.2 c 0.64,0.9 1.46,0.83 2.43,-0.2 l 4.97,-4.44 c 0.13,-0.8 0.01,-1.35 -0.37,-1.65 l 0.18,-0.16 1.73,1.94 -1.56,9.14 3.78,-3.38 c 1.08,-0.86 1.25,-1.64 0.51,-2.35 l 0.18,-0.16 z m -17.66,-6.02 2.62,3.64 0.24,-0.17 c -0.74,-0.82 -0.66,-1.49 0.24,-1.99 l 5.46,-3.93 c 0.73,-0.67 1.38,-0.54 1.96,0.4 l 0.19,-0.14 -2.62,-3.64 -0.19,0.14 c 0.71,0.85 0.62,1.49 -0.27,1.94 l -5.46,3.93 c -0.76,0.69 -1.4,0.57 -1.93,-0.36 l -0.24,0.18 z m 7.89,-5.78 v 0 l -0.21,0.11 c -0.41,-0.94 -1.2,-1.06 -2.38,-0.34 l -6.94,3.66 -0.14,-0.26 4.12,-9.64 -0.03,-0.05 -5.17,2.72 c -1.26,0.57 -1.61,1.29 -1.06,2.16 l -0.26,0.13 -1.65,-3.13 0.26,-0.14 c 0.41,1.03 1.21,1.16 2.41,0.4 l 5.9,-3.11 c 0.32,-0.74 0.33,-1.31 0.04,-1.69 l 0.21,-0.11 1.21,2.3 -3.73,8.5 4.49,-2.37 c 1.26,-0.57 1.61,-1.29 1.06,-2.16 l 0.21,-0.11 z"
   id="path16" />
		<path
   class="st0"
   d="m 140.38,260.43 c 0,0 2.79,-8.98 3.32,-10.32 0.53,-1.34 1.58,-3.83 1.64,-4.04 0.05,-0.21 -0.05,-1.12 0.58,-1.86 0.63,-0.74 1.23,-1.13 1.6,-0.86 0.38,0.26 0.52,1.72 0.05,2.6 -0.01,0.02 -0.7,1.47 -0.94,2.27 0.04,0.01 0.1,0 0.17,-0.03 0,0 0.48,-0.44 0.76,0.09 0.29,0.54 -0.65,2.78 -0.65,2.78 0,0 0.12,-0.02 0.27,0.01 0.15,0.03 0.42,-0.25 0.63,-0.48 0.21,-0.23 0.09,-0.36 0.25,-0.53 0.16,-0.17 0.6,-0.37 0.81,-0.34 0.21,0.03 0.53,0.21 0.53,0.39 0,0.18 0.01,0.22 -0.06,0.61 0.21,-0.19 0.56,-0.2 0.77,-0.1 0.14,0.31 0.12,0.62 0.21,0.81 0.08,0.16 0.89,1.24 1.17,1.61 0.05,0.07 0.12,0.01 0.12,0.01 0,0 0.1,-0.15 0.16,-0.31 0.06,-0.16 0.22,-0.33 0.49,-0.44 0.26,-0.11 0.72,-0.29 0.91,-0.18 0.18,0.11 0.15,0.47 0.06,0.71 -0.09,0.24 -0.18,0.33 -0.45,0.54 -0.18,0.14 -0.38,0.29 -0.49,0.39 -0.05,0.05 -0.02,0.14 -0.02,0.14 0,0 1.65,2.09 1.79,2.34 0.14,0.25 0.34,0.97 -0.06,1.34 -0.39,0.37 -0.5,0.51 -0.87,0.45 -0.37,-0.06 -1.23,-0.49 -1.42,-0.51 -0.19,-0.02 -0.26,-0.29 -0.19,-0.37 0.07,-0.08 0.27,-0.25 0.27,-0.25 0,0 0.28,-0.06 0.15,-0.26 -0.13,-0.2 -0.64,-1.07 -0.64,-1.07 -0.43,0.91 -0.77,1.85 -1.06,2.81 0,0 0.9,0.84 0.84,1.41 -0.06,0.58 -0.19,0.62 -0.28,0.66 -0.09,0.04 -0.72,-0.27 -0.8,-0.3 -0.08,-0.03 -0.22,-0.07 -0.27,0 -0.04,0.07 -0.7,4.94 -0.82,5.28 -0.12,0.34 -0.08,0.45 -0.42,0.55 -0.34,0.09 -1,0.05 -1.28,-0.28 -0.29,-0.33 -0.36,-0.71 -0.36,-0.71 0,0 0.37,-0.14 0.71,-0.55 0.34,-0.41 0.65,-1.09 0.7,-1.25 0.05,-0.16 0.96,-4.04 0.96,-4.04 0,0 -1.37,-1.8 -1.5,-2.2 -0.14,-0.39 -0.21,-0.58 -0.13,-0.64 0.08,-0.06 0.51,0.18 0.76,0.28 0.25,0.09 0.37,0.28 0.47,-0.02 0.1,-0.29 0.18,-0.77 0.07,-1.07 -0.11,-0.3 -0.36,-0.59 -0.36,-0.59 -0.16,0.52 -0.05,0.76 -0.23,0.99 -0.12,0.15 -0.68,0.06 -0.79,-0.03 -0.1,-0.09 0.08,-0.34 0.13,-0.45 0.05,-0.12 0.21,-0.73 0.37,-1.22 -0.14,-0.58 -0.23,-0.54 -0.11,-0.75 0.12,-0.22 0.39,-0.19 0.51,-0.3 0.1,-0.14 0.12,-0.4 0.12,-0.61 0.01,-0.21 -0.15,-0.38 -0.15,-0.38 -0.43,0.31 -0.79,1.08 -1.27,1.35 -0.17,0.09 -0.76,-0.02 -0.83,-0.15 -0.07,-0.12 0.07,-0.46 -0.23,-0.33 -0.29,0.12 -0.77,0.02 -0.74,-0.01 0.03,-0.03 0.03,0.42 0.4,0.67 0.38,0.25 0.83,0.35 0.98,0.68 0.15,0.33 0.4,1.04 0.13,1.52 -0.28,0.48 -0.66,0.69 -0.94,0.48 -0.29,-0.21 -0.84,-0.82 -0.91,-1.27 -0.06,-0.45 -0.08,-1.93 0,-2.1 -0.11,-0.15 -0.1,-0.16 -0.16,-0.24 -0.06,-0.08 -0.19,-0.43 -0.11,-0.56 0.08,-0.13 0.33,-0.33 0.48,-0.55 0.17,-0.27 0.7,-1.01 0.73,-1.29 0.01,-0.1 0.19,-1.02 0.18,-0.9 -0.02,0.11 -0.58,0.94 -0.78,0.87 -0.06,-0.23 0.04,-0.49 0.21,-0.87 0.2,-0.46 0.46,-2.06 0.32,-2.75 -0.01,-0.03 -0.07,-0.01 -0.09,-0.03 0,0 -0.25,0.46 -0.41,1 -0.16,0.54 -1.39,6.2 -1.65,7.1 -0.26,0.91 -0.85,5.02 -0.85,5.02 0,0 -0.36,1.59 -0.54,1.95 -0.18,0.36 -0.33,0.6 -0.75,0.61 -0.42,0.02 -0.81,0.15 -1.34,-0.57 -0.54,-0.72 -0.22,-1.11 -0.22,-1.11 z m 8.47,-6.93 c 0,0 0.03,0.01 0.09,0.18 0.07,0.16 0.41,0.68 0.56,0.86 0.15,0.18 0.37,0.53 0.5,0.86 0.13,0.32 0,0.74 -0.13,1.01 -0.13,0.27 0.04,0.54 0.16,0.68 0.33,-0.98 0.7,-1.72 0.83,-2.16 -0.14,-0.32 -1.65,-2.62 -1.65,-2.62 -0.11,0.22 -0.17,0.26 -0.22,0.46 -0.03,0.16 -0.14,0.73 -0.14,0.73 z m -2.4,-2.95 c 0,0 -0.33,1.1 -0.26,1.41 0.07,0.3 0.05,0.48 0.21,0.55 0.45,0.2 1.06,-0.86 1.01,-1.11 -0.01,-0.06 -0.29,-0.11 -0.29,-0.11 0,0 -0.22,-0.14 -0.27,-0.08 -0.05,0.06 -0.09,0.24 -0.23,0.42 -0.14,-0.35 -0.13,-0.4 -0.13,-0.99 0,-0.05 -0.01,-0.25 -0.01,-0.25 z m -4.57,-1.64 c 0,0 0.3,-0.58 0.5,-1.09 0.21,-0.51 0.42,-2.21 0.4,-2.54 -0.02,-0.34 0.15,-0.25 0.37,-0.51 0.22,-0.26 0.67,-0.89 0.27,-1.65 -0.4,-0.76 -2.07,-0.67 -2.73,-0.49 -0.66,0.18 -1.47,0.66 -1.28,0.94 0.2,0.28 0.81,0.62 1.17,0.73 0.35,0.11 0.86,0.38 1.08,0.91 0.21,0.54 0.05,1.62 0.03,2.27 -0.02,0.65 0.19,1.43 0.19,1.43 z"
   id="path18" />
		<path
   class="st0"
   d="m 173.49,225.42 c 0,0 0.88,-0.2 1.61,-0.82 0.73,-0.62 5.02,-5.21 5.79,-5.79 0.76,-0.58 1.79,-1.68 2.6,-1.86 0.81,-0.17 1.35,-0.39 1.49,-0.1 0.14,0.3 -0.01,0.63 -0.28,1.06 -0.26,0.42 -1.15,1.36 -1.15,1.36 l -0.89,0.7 c 0,0 1.46,0.05 1.61,0.52 0.15,0.48 0.66,4.91 0.57,6.15 -0.09,1.24 -0.54,1.98 -1.18,2.1 -0.64,0.12 -1.45,-0.6 -1.33,-1.06 0.12,-0.46 0.22,-2.33 0.12,-2.82 -0.1,-0.49 -0.2,-1.23 -0.27,-1.46 -0.07,-0.24 -0.25,-1.15 -0.25,-1.15 l -0.41,-0.06 -0.26,0.49 -0.4,0.75 -0.32,0.27 0.33,0.63 c 0,0 -0.08,0.6 -0.15,0.78 -0.08,0.18 -0.09,0.82 -0.41,0.78 -0.32,-0.03 -0.42,-0.8 -0.51,-0.98 -0.1,-0.18 -0.14,-0.34 -0.14,-0.34 0,0 -0.37,0.33 -0.55,0.08 -0.18,-0.25 -0.06,-0.66 0.18,-0.86 0.65,-0.52 1.84,-2.32 2.46,-3.08 0.01,-0.01 -0.01,-0.04 -0.03,-0.02 -0.13,0.08 -0.79,0.61 -0.79,0.61 -0.32,0.2 -0.24,0.22 -0.56,0.41 -0.01,0.01 -0.03,0 -0.02,-0.02 0.22,-0.43 1.19,-1.5 1.57,-2.16 0,0 -4.81,5.22 -5,5.88 -0.19,0.66 -1.08,1.64 -1.39,1.56 -0.31,-0.07 -0.98,0.28 -1.55,-0.59 -0.61,-0.86 -0.49,-0.96 -0.49,-0.96 z m 7.13,0.61 0.15,0.47 c 0,0 0,0.18 -0.08,0.56 -0.08,0.38 0.27,1.32 0.27,1.32 l 0.1,0.19 c 0,0 0.24,-0.68 0.3,-0.88 0.07,-0.2 0.35,-0.9 0.1,-1.4 -0.25,-0.5 -0.84,-0.26 -0.84,-0.26 z m -1.19,0.01 c 0,0 -0.03,0.53 -0.04,0.86 0,0.33 -0.2,1.17 -0.27,1.33 -0.07,0.16 -0.18,1.07 0.27,2.25 0.45,1.19 1.29,0.69 1.29,0.69 l 0.07,0.24 c 0,0 -0.07,0.11 -0.08,0.2 -0.01,0.08 -0.23,0.78 -0.23,0.78 0,0 -0.38,0.97 -0.6,1.38 -0.21,0.41 -0.79,1.55 -1.01,1.82 -0.22,0.28 -0.48,2.09 -0.48,2.09 l 0.53,0.28 c 0,0 0.22,-0.15 0.37,-0.4 0.15,-0.25 0.63,-1.11 0.73,-1.46 0.1,-0.35 1.46,-3.23 1.61,-3.48 0.15,-0.25 0.51,-0.56 0.86,-0.86 0.35,-0.3 0.54,-0.47 0.54,-0.47 0,0 0.19,0.03 0.3,0.12 0.11,0.09 0.39,0.42 0.49,0.6 -0.17,0.19 -0.28,0.24 -0.47,0.37 -0.18,0.12 -0.22,0.17 -0.36,0.21 -0.14,0.04 -0.3,0.13 -0.37,0.26 0.06,0.19 0.53,0.6 0.92,0.59 0.39,0 0.83,-0.74 0.83,-0.74 l 0.09,0.05 c 0,0 0.38,0.24 0.58,0.39 0.2,0.15 0.44,0.27 0.91,0.13 0.47,-0.14 0.92,-0.13 1.02,-1.01 0.09,-0.88 -1.21,-1.23 -1.46,-1.26 0.06,-0.22 0.28,-0.73 0.22,-1.09 -0.06,-0.36 0.26,-0.78 -0.04,-0.94 -0.47,-0.26 -3.58,1.98 -3.63,2.25 -0.02,0.15 -0.04,-0.27 -0.06,-0.36 -0.03,-0.08 0.17,-0.41 0.33,-0.51 0.15,-0.1 0.57,-0.53 0.57,-0.53 0,0 -0.02,-0.62 -0.05,-0.69 -0.02,-0.07 -0.35,-0.36 -0.6,-0.5 -0.25,-0.13 -0.87,-0.27 -0.87,-0.27 0,0 -0.22,0.13 -0.29,0.22 -0.07,0.09 -0.03,0.51 0.15,0.85 0.17,0.34 -0.03,0.92 -0.19,1.03 -0.16,0.11 -0.34,-0.39 -0.34,-0.39 0,0 0.04,-0.54 -0.02,-0.91 -0.06,-0.37 -0.64,-2.24 -0.8,-2.56 -0.14,-0.34 -0.42,-0.56 -0.42,-0.56 z m 4.29,4.67 c 0.18,-0.18 0.94,-0.58 1.19,-0.67 0.17,0.24 -0.07,0.61 -0.14,0.85 -0.52,-0.14 -0.74,-0.15 -1.05,-0.18 z"
   id="path20" />
		<path
   class="st0"
   d="m 221.96,226.73 c 0,0 0.32,-0.32 0.36,0.09 0.04,0.44 -0.02,0.59 0.41,0.75 0.2,0.08 0.51,0.1 0.51,0.1 0.36,0.06 0.76,0.26 0.93,0.28 0.5,0.06 5.51,0.49 5.52,0.49 0.1,-0.01 1.06,0.19 1.36,-0.09 0.3,-0.28 1.06,-1.51 1.24,-1.82 0.19,-0.31 1.33,-1.84 1.43,-2.49 0.11,-0.65 0.01,-1.75 0.32,-2.47 0.31,-0.72 0.52,-0.83 0.71,-0.8 0.19,0.04 0.75,0.6 0.88,0.8 0.26,0.38 0.28,0.69 0.51,0.97 0.21,0.25 0.41,0.64 0.45,1.39 -0.34,0.62 -0.84,0.89 -0.84,0.89 0,0 -2.06,3.35 -2.08,3.43 -0.03,0.08 -0.05,0.21 -0.03,0.24 0.02,0.03 1.46,-0.11 1.93,-0.16 0.47,-0.05 1.51,-0.3 2.04,-0.56 0.49,0.23 0.92,0.84 0.99,1.18 -0.15,0.28 -0.72,0.19 -1.57,0.4 -1.71,0.42 -2.77,0.5 -4.45,0.6 -2.18,2.56 -4.55,4.2 -8.33,3.22 -0.94,-0.24 -2.03,-0.97 -2.03,-0.97 0,-0.08 -0.01,-0.11 0.1,-0.17 0.97,-0.04 2.82,0.21 3.66,0.01 1.21,-0.3 2.41,-0.86 2.72,-1.16 0.31,-0.3 1.12,-1.05 1.12,-1.05 -0.85,0.01 -1.79,-0.03 -2.55,-0.16 -1.6,-0.28 -2.98,0.68 -4.69,0.06 -1.21,-0.43 -1.5,-0.78 -1.43,-1.17 0.07,-0.39 0.32,-1.18 0.51,-1.47 0.22,-0.28 0.3,-0.36 0.3,-0.36 z M 233.9,234 c -0.3,-0.32 -0.4,-0.48 -0.69,-0.2 -0.59,0.6 -0.49,2.16 -0.62,2.77 -0.07,0.31 -0.43,0.34 -0.46,0.45 -0.03,0.11 0.22,0.5 0.4,0.66 0.17,0.16 0.48,0.21 0.68,0.25 0.2,0.04 1.12,0 1.38,-0.1 0.88,-0.63 -0.13,-3.25 -0.69,-3.83 z"
   id="path22" />
		<path
   class="st0"
   d="m 260.98,257.18 c 0.71,0.48 2.86,1.97 3.4,2.62 0.04,0.26 0.35,0.65 0.06,0.88 -0.29,0.22 -1.78,0.21 -1.9,0.16 -0.12,-0.05 -1.33,-1.15 -1.54,-1.21 -0.51,0.57 -0.92,1.56 -1.34,2.23 -0.63,1.01 -2.55,0.6 -3.18,-0.19 -0.23,-0.32 -0.34,-0.61 -0.47,-0.93 -0.13,-0.33 -0.28,-0.59 -0.39,-0.76 -0.12,-0.17 -0.2,-0.31 -0.1,-0.46 0.1,-0.15 -0.02,-0.49 0.06,-0.45 0.08,0.04 0.38,0.38 0.62,0.64 0.24,0.26 0.31,0.39 0.89,0.7 0.57,0.32 0.6,0.36 0.92,0.46 0.32,0.1 0.41,0.07 0.63,-0.11 0.23,-0.18 0.28,-0.28 0.47,-0.41 0.45,-0.32 0.81,-0.69 1.08,-1.22 -0.15,-0.7 -4.94,-2.03 -5.76,-2.34 -0.64,-0.25 -0.79,-0.36 -0.83,-0.67 -0.03,-0.31 -0.01,-0.3 0.22,-0.77 0.23,-0.47 0.47,-0.94 0.63,-1.06 0.16,-0.12 0.2,-0.2 0.55,-0.01 1.85,0.99 4.38,1.84 5.98,2.9 z m 7.94,-1.01 c -0.1,0.09 -3.07,-1.11 -3.27,-1.2 -2.41,-1.06 -4.02,-1.76 -6.52,-2.7 l -0.3,0.17 c 0,0 0.06,0.46 0.7,1.11 0.64,0.65 0.72,0.55 2.23,1.39 1.51,0.84 3.19,1.07 3.78,1.17 0.6,0.1 1.87,0.56 2.13,0.53 0.22,0.04 0.37,0.12 0.48,0.29 0.16,0.24 -0.8,0.24 -0.96,0.26 -0.03,0 -1.86,-0.13 -1.92,-0.14 -0.86,-0.15 -1.73,-0.36 -1.77,-0.26 -0.04,0.1 0.12,0.31 0.27,0.46 0.69,0.69 3.86,1.81 4.87,1.7 0.93,-0.1 1.41,-0.66 1.6,-0.91 0.2,-0.25 -0.83,-1.81 -1.32,-1.87 z m -0.57,-1.05 c -0.42,0.04 -1.08,-0.23 -1.27,-0.32 -0.18,-0.1 -0.47,-0.21 -0.4,-0.4 0.22,0.01 1.19,-0.03 1.45,-0.17 -0.11,-0.52 -0.15,-1.06 -0.2,-1.33 0,0 -0.92,-0.11 -1.3,-0.16 -0.13,-0.05 -1.22,-0.34 -1.02,-0.73 0.13,0 2.23,0.04 2.22,0 -0.03,-0.18 -0.15,-1.45 -0.01,-1.44 0.33,0.51 0.41,1.03 0.55,1.42 0.43,-0.02 3.31,-0.13 3.37,-0.15 0.03,-0.02 0.05,-0.13 0.02,-0.16 -1.06,-0.23 -1.73,-0.19 -2.55,-0.9 0.17,-0.16 1.89,0.22 2.08,0.23 -0.13,-0.38 -0.91,-0.91 -1.15,-1.69 -0.09,-0.29 0.22,-0.56 0.32,-0.54 0.09,0.02 0.25,0.13 0.25,0.13 0.27,0.47 1.22,1.55 1.77,1.88 0.61,-0.02 2.25,-0.46 2.51,-0.71 0.26,-0.26 0.62,-0.51 0.73,-0.53 0.11,-0.02 0.18,0.02 0.23,0.08 0.05,0.06 0.3,0.94 -0.42,1.48 -0.72,0.54 -1.56,0.46 -1.98,0.54 -0.19,0.04 -0.24,0.25 -0.47,0.33 -0.15,0.05 -0.49,-0.03 -0.58,0.06 -0.05,0.06 -0.09,0.12 -0.11,0.19 -0.11,0.46 3.38,1.8 3.55,3.51 -0.59,2.41 -5.95,0.46 -6.9,-0.04 -0.01,0.28 -0.28,0.36 -0.37,0.37 -0.17,-0.17 -0.29,-0.77 -0.32,-0.95 z m 3.39,-2.64 c 0.15,-0.21 0.92,1.84 1.01,2.13 0.07,0.22 0.17,0.17 0.03,0.34 -0.35,0.43 -2.44,0.08 -3.56,0.44 -0.14,0.01 -0.16,0.06 -0.23,-0.08 -0.04,-0.08 -0.01,-0.17 -0.05,-0.3 0.49,-0.08 1.21,-0.83 1.3,-1.29 0.01,-0.23 0.02,-0.25 -0.07,-0.35 -0.09,-0.11 -0.33,0.14 -0.58,0.29 -0.25,0.15 -0.6,0.47 -0.84,0.48 -0.03,-0.26 -0.14,-0.97 -0.17,-1.26 0.54,0.13 3.05,-0.26 3.16,-0.4 z m -9.54,-4.26 c 0.11,0.04 0.16,0.29 0.2,0.65 0.07,0.63 -0.29,1.76 -0.71,2.12 -0.42,0.36 -1.34,0.36 -1.43,0.27 -0.08,-0.09 -0.23,-0.21 -0.16,-0.47 0.07,-0.26 0.15,-0.86 0.46,-1.16 0.31,-0.3 0.92,-0.75 0.99,-0.85 0.1,-0.14 0.47,-0.62 0.65,-0.56 z m 3.71,-3.18 c -0.03,-0.03 -0.12,-0.05 -0.13,0 -0.51,2.01 -0.24,3.95 -1.94,5.53 -0.2,0.18 -0.5,0.52 -0.38,0.64 0.12,0.13 0.63,0.31 1,0.3 0.37,-0.01 0.82,-0.06 1.09,-0.32 1.75,-1.69 0.69,-4.78 0.36,-6.15 z"
   id="path24" />
	</g>
</g>
</svg>
