<?xml version="1.0" encoding="UTF-8"?>
<svg xmlns="http://www.w3.org/2000/svg" xmlns:xlink="http://www.w3.org/1999/xlink" width="252pt" height="252pt" viewBox="0 0 252 252" version="1.1">
<g id="surface1">
<path style=" stroke:none;fill-rule:nonzero;fill:rgb(0%,25.098039%,59.215686%);fill-opacity:1;" d="M 27.015625 129.28125 C 29.480469 129.03125 32.847656 129.296875 33.140625 132.167969 C 33.453125 135.261719 29.675781 136.027344 27.773438 136.214844 C 22.925781 136.710938 21.746094 134.6875 21.601562 133.351562 C 21.453125 131.824219 22.492188 130.808594 23.425781 130.285156 C 24.082031 129.921875 25.125 129.46875 27.015625 129.28125 Z M 26.660156 126.667969 C 22.792969 127.066406 18.234375 128.933594 18.703125 133.664062 C 19.148438 138.082031 23.585938 139.289062 27.96875 138.847656 C 32.867188 138.339844 36.457031 135.964844 36.03125 131.859375 C 35.648438 127.957031 32.023438 126.125 26.660156 126.667969 Z M 26.660156 126.667969 "/>
<path style=" stroke:none;fill-rule:nonzero;fill:rgb(0%,25.098039%,59.215686%);fill-opacity:1;" d="M 27.273438 153.007812 C 25.941406 153.042969 21.726562 153.125 20.8125 149.085938 C 20.054688 145.746094 22.777344 142.738281 27.898438 141.574219 C 32.476562 140.535156 36.929688 141.363281 37.84375 145.371094 C 37.996094 146.066406 38.296875 147.808594 36.8125 149.578125 C 36.128906 150.375 35.230469 150.910156 34.136719 151.40625 L 32.796875 149.125 C 34.519531 148.402344 35.25 147.167969 34.964844 145.894531 C 34.273438 142.828125 29.765625 143.851562 28.714844 144.089844 C 27.175781 144.4375 25.664062 144.917969 24.730469 145.683594 C 23.90625 146.339844 23.40625 147.320312 23.65625 148.421875 C 24.03125 150.074219 25.878906 150.457031 27.738281 150.359375 Z M 27.273438 153.007812 "/>
<path style=" stroke:none;fill-rule:nonzero;fill:rgb(0%,25.098039%,59.215686%);fill-opacity:1;" d="M 39.402344 152.722656 L 42.628906 161.535156 L 39.953125 162.511719 L 37.605469 156.09375 L 34.085938 157.382812 L 36.273438 163.355469 L 33.605469 164.335938 L 31.417969 158.359375 L 27.125 159.933594 L 29.550781 166.566406 L 26.882812 167.550781 L 23.578125 158.527344 Z M 39.402344 152.722656 "/>
<path style=" stroke:none;fill-rule:nonzero;fill:rgb(0%,25.098039%,59.215686%);fill-opacity:1;" d="M 36.273438 171.773438 L 42.546875 170.113281 L 38.003906 174.769531 Z M 34.601562 182.175781 L 46.636719 169.320312 L 45.277344 166.984375 L 28.21875 171.199219 L 29.585938 173.542969 L 33.410156 172.53125 L 35.941406 176.894531 L 33.203125 179.757812 Z M 34.601562 182.175781 "/>
<path style=" stroke:none;fill-rule:nonzero;fill:rgb(0%,25.098039%,59.215686%);fill-opacity:1;" d="M 49.890625 175.109375 L 51.375 177.089844 L 45.472656 187.964844 L 45.5 188 L 54.496094 181.226562 L 55.917969 183.121094 L 42.433594 193.261719 L 40.894531 191.21875 L 46.648438 180.566406 L 46.621094 180.542969 L 37.835938 187.15625 L 36.40625 185.261719 Z M 49.890625 175.109375 "/>
<path style=" stroke:none;fill-rule:nonzero;fill:rgb(0%,25.098039%,59.215686%);fill-opacity:1;" d="M 66.613281 194.144531 L 60.816406 201.175781 C 59.554688 202.722656 59.023438 203.351562 58.753906 204.179688 C 58.355469 205.40625 58.941406 206.261719 59.539062 206.757812 C 61.414062 208.304688 62.71875 206.722656 64.550781 204.519531 L 70.472656 197.34375 L 72.4375 198.960938 L 66.792969 205.789062 C 64.878906 208.117188 63.742188 209.34375 62.453125 209.933594 C 60.433594 210.855469 58.816406 209.949219 57.734375 209.050781 C 53.742188 205.761719 56.453125 202.472656 58.925781 199.476562 L 64.640625 192.542969 Z M 66.613281 194.144531 "/>
<path style=" stroke:none;fill-rule:nonzero;fill:rgb(0%,25.098039%,59.215686%);fill-opacity:1;" d="M 74.632812 200.417969 L 76.730469 201.726562 L 75.085938 214.003906 L 75.121094 214.019531 L 81.105469 204.492188 L 83.113281 205.746094 L 74.144531 220.03125 L 71.972656 218.660156 L 73.546875 206.660156 L 73.523438 206.640625 L 67.671875 215.949219 L 65.664062 214.695312 Z M 74.632812 200.417969 "/>
<path style=" stroke:none;fill-rule:nonzero;fill:rgb(0%,25.098039%,59.215686%);fill-opacity:1;" d="M 85.746094 206.945312 L 88.039062 208.019531 L 80.875 223.285156 L 78.570312 222.199219 Z M 85.746094 206.945312 "/>
<path style=" stroke:none;fill-rule:nonzero;fill:rgb(0%,25.098039%,59.215686%);fill-opacity:1;" d="M 89.417969 208.820312 L 92.023438 209.773438 L 90.742188 222.582031 L 90.777344 222.589844 L 97.941406 211.914062 L 100.476562 212.839844 L 90.484375 227.144531 L 87.90625 226.210938 Z M 89.417969 208.820312 "/>
<path style=" stroke:none;fill-rule:nonzero;fill:rgb(0%,25.098039%,59.215686%);fill-opacity:1;" d="M 102.289062 213.320312 L 111.4375 215.398438 L 110.796875 218.183594 L 104.128906 216.660156 L 103.292969 220.304688 L 109.5 221.71875 L 108.859375 224.511719 L 102.664062 223.089844 L 101.648438 227.550781 L 108.53125 229.117188 L 107.898438 231.890625 L 98.53125 229.757812 Z M 102.289062 213.320312 "/>
<path style=" stroke:none;fill-rule:nonzero;fill:rgb(0%,25.098039%,59.215686%);fill-opacity:1;" d="M 116.363281 218.804688 L 118.34375 219.007812 C 120.050781 219.1875 120.363281 219.214844 120.808594 219.640625 C 121.242188 220.066406 121.351562 220.742188 121.289062 221.417969 C 121.234375 221.90625 121.039062 222.972656 120.125 223.285156 C 119.660156 223.453125 118.585938 223.339844 117.8125 223.257812 L 115.925781 223.070312 Z M 112.414062 232.496094 L 114.957031 232.753906 L 115.660156 225.738281 L 116.175781 225.792969 C 117.875 225.96875 118 226.308594 119.226562 229.480469 L 120.683594 233.332031 L 123.714844 233.640625 L 122.515625 230.210938 C 121.527344 227.382812 121.09375 226.726562 120.125 225.820312 L 120.125 225.765625 C 120.621094 225.746094 121.121094 225.605469 121.582031 225.390625 C 122.886719 224.839844 123.734375 223.292969 123.917969 221.460938 C 124.078125 219.816406 123.6875 217.84375 122.292969 216.972656 C 121.917969 216.769531 121.332031 216.4375 119.457031 216.253906 L 114.113281 215.710938 Z M 112.414062 232.496094 "/>
<path style=" stroke:none;fill-rule:nonzero;fill:rgb(0%,25.098039%,59.215686%);fill-opacity:1;" d="M 129.371094 227.535156 C 129.554688 228.40625 130.046875 230.726562 132.339844 230.574219 C 134.117188 230.449219 134.738281 229.160156 134.667969 228.078125 C 134.578125 226.664062 133.671875 226.421875 131.308594 225.828125 C 130.027344 225.488281 127.171875 224.761719 126.933594 221.054688 C 126.808594 219.214844 127.511719 216.296875 131.21875 216.039062 C 133.679688 215.871094 136.027344 217.007812 136.382812 220.8125 L 133.839844 221.125 C 133.671875 220.261719 133.378906 218.707031 131.359375 218.839844 C 130.605469 218.894531 129.246094 219.285156 129.34375 220.652344 C 129.414062 221.730469 130.230469 222.148438 132.3125 222.644531 C 134.277344 223.125 136.933594 223.773438 137.21875 227.90625 C 137.351562 229.953125 136.5 231.738281 135.460938 232.46875 C 134.375 233.25 133.101562 233.382812 132.523438 233.417969 C 131.175781 233.507812 127.804688 233.578125 126.941406 228.015625 Z M 129.371094 227.535156 "/>
<path style=" stroke:none;fill-rule:nonzero;fill:rgb(0%,25.098039%,59.215686%);fill-opacity:1;" d="M 138.765625 215.523438 L 141.273438 215.125 L 143.929688 231.773438 L 141.425781 232.175781 Z M 138.765625 215.523438 "/>
<path style=" stroke:none;fill-rule:nonzero;fill:rgb(0%,25.098039%,59.215686%);fill-opacity:1;" d="M 147.65625 216.734375 L 144.011719 217.628906 L 143.335938 214.867188 L 153.070312 212.449219 L 153.753906 215.210938 L 150.117188 216.121094 L 153.496094 229.710938 L 151.035156 230.335938 Z M 147.65625 216.734375 "/>
<path style=" stroke:none;fill-rule:nonzero;fill:rgb(0%,25.098039%,59.215686%);fill-opacity:1;" d="M 161.507812 219.585938 L 153.726562 212.074219 L 156.519531 211.015625 L 161.648438 216.207031 L 162.03125 208.9375 L 164.777344 207.894531 L 163.898438 218.707031 L 166.398438 225.320312 L 164.015625 226.21875 Z M 161.507812 219.585938 "/>
<path style=" stroke:none;fill-rule:nonzero;fill:rgb(0%,25.098039%,59.215686%);fill-opacity:1;" d="M 182.445312 207.140625 C 181.046875 205.105469 179.652344 202.027344 182.042969 200.394531 C 184.605469 198.625 187.085938 201.574219 188.160156 203.148438 C 190.933594 207.15625 189.714844 209.167969 188.613281 209.933594 C 187.351562 210.804688 185.964844 210.386719 185.058594 209.808594 C 184.417969 209.417969 183.527344 208.714844 182.445312 207.140625 Z M 180.328125 208.714844 C 182.53125 211.914062 186.363281 215.027344 190.277344 212.332031 C 193.921875 209.816406 192.863281 205.34375 190.355469 201.71875 C 187.574219 197.664062 183.757812 195.652344 180.355469 198 C 177.136719 200.214844 177.269531 204.269531 180.328125 208.714844 Z M 180.328125 208.714844 "/>
<path style=" stroke:none;fill-rule:nonzero;fill:rgb(0%,25.098039%,59.215686%);fill-opacity:1;" d="M 186.773438 192.953125 L 193.066406 186.988281 L 195.03125 189.050781 L 190.585938 193.261719 L 193.34375 196.167969 L 197.191406 192.523438 L 199.148438 194.585938 L 195.308594 198.242188 L 200.234375 203.433594 L 198.382812 205.175781 Z M 186.773438 192.953125 "/>
<path style=" stroke:none;fill-rule:nonzero;fill:rgb(0%,25.098039%,59.215686%);fill-opacity:1;" d="M 216.296875 174.609375 C 217.265625 175.542969 220.28125 178.476562 218.039062 181.964844 C 216.199219 184.851562 212.136719 185.023438 207.71875 182.1875 C 203.769531 179.652344 201.21875 175.910156 203.441406 172.433594 C 203.824219 171.847656 204.855469 170.40625 207.15625 170.226562 C 208.214844 170.148438 209.21875 170.414062 210.339844 170.832031 L 209.65625 173.402344 C 207.929688 172.671875 206.535156 173.019531 205.832031 174.121094 C 204.125 176.761719 208.019531 179.261719 208.9375 179.839844 C 210.269531 180.691406 211.675781 181.421875 212.867188 181.5625 C 213.90625 181.6875 214.953125 181.351562 215.566406 180.398438 C 216.484375 178.976562 215.453125 177.394531 214.082031 176.132812 Z M 216.296875 174.609375 "/>
<path style=" stroke:none;fill-rule:nonzero;fill:rgb(0%,25.098039%,59.215686%);fill-opacity:1;" d="M 207.078125 166.300781 L 208.054688 163.953125 L 214.191406 166.511719 L 216.121094 161.898438 L 209.984375 159.339844 L 210.972656 157 L 226.53125 163.488281 L 225.550781 165.835938 L 218.75 162.992188 L 216.820312 167.605469 L 223.621094 170.441406 L 222.644531 172.789062 Z M 207.078125 166.300781 "/>
<path style=" stroke:none;fill-rule:nonzero;fill:rgb(0%,25.098039%,59.215686%);fill-opacity:1;" d="M 211.808594 154.539062 L 212.464844 152.082031 L 228.753906 156.464844 L 228.09375 158.921875 Z M 211.808594 154.539062 "/>
<path style=" stroke:none;fill-rule:nonzero;fill:rgb(0%,25.098039%,59.215686%);fill-opacity:1;" d="M 213.578125 149.050781 L 214.066406 146.625 L 226.113281 143.816406 L 226.121094 143.78125 L 215.089844 141.550781 L 215.550781 139.238281 L 232.078125 142.570312 L 231.570312 145.085938 L 219.800781 147.871094 L 219.789062 147.90625 L 230.566406 150.074219 L 230.09375 152.402344 Z M 213.578125 149.050781 "/>
<path style=" stroke:none;fill-rule:nonzero;fill:rgb(0%,25.098039%,59.215686%);fill-opacity:1;" d="M 226.058594 134.082031 L 219.988281 131.769531 L 226.386719 130.632812 Z M 233.472656 126.59375 L 216.207031 130.019531 L 215.949219 132.703125 L 232.253906 139.238281 L 232.511719 136.527344 L 228.816406 135.121094 L 229.304688 130.097656 L 233.207031 129.371094 Z M 233.472656 126.59375 "/>
<path style=" stroke:none;fill-rule:nonzero;fill:rgb(0%,25.098039%,59.215686%);fill-opacity:1;" d="M 0 126 C 0 195.476562 56.515625 252 126 252 C 195.46875 252 252 195.476562 252 126 C 252 56.523438 195.46875 0 126 0 C 56.515625 0 0 56.523438 0 126 Z M 8.011719 126 C 8.011719 60.941406 60.941406 8.011719 126 8.011719 C 191.066406 8.011719 243.988281 60.941406 243.988281 126 C 243.988281 191.066406 191.058594 244 126 244 C 60.933594 243.988281 8.011719 191.058594 8.011719 126 Z M 8.011719 126 "/>
<path style=" stroke:none;fill-rule:nonzero;fill:rgb(78.039216%,8.627451%,11.372549%);fill-opacity:1;" d="M 29.230469 93.550781 L 31.222656 88.945312 L 35 90.574219 L 33.007812 95.179688 Z M 35.988281 96.394531 L 35.640625 96.308594 L 37.632812 91.703125 L 41.90625 93.550781 L 44.351562 94.699219 L 45.640625 91.691406 L 43.136719 90.714844 L 38.859375 88.867188 L 40.886719 84.152344 L 41.222656 84.351562 L 42.46875 81.441406 L 39.882812 80.410156 L 35.160156 78.375 L 33.0625 77.390625 L 32.164062 79.699219 L 29.878906 85.007812 L 28.554688 84.4375 L 25.984375 83.230469 L 24.6875 86.234375 L 27.335938 87.273438 L 28.652344 87.84375 L 26.421875 93.035156 L 25.382812 95.195312 L 27.550781 96.050781 L 32.269531 98.085938 L 34.769531 99.230469 Z M 36.21875 87.726562 L 32.441406 86.101562 L 34.476562 81.390625 L 38.253906 83.015625 Z M 36.21875 87.726562 "/>
<path style=" stroke:none;fill-rule:nonzero;fill:rgb(78.039216%,8.627451%,11.372549%);fill-opacity:1;" d="M 65.554688 54.050781 L 63.582031 51.765625 L 64.773438 50.746094 C 64.71875 51.347656 64.613281 51.882812 64.460938 52.34375 C 65.492188 52.34375 66.152344 52.371094 66.445312 52.433594 C 66.738281 52.496094 67.003906 52.550781 67.226562 52.601562 Z M 61.121094 60.96875 L 62.585938 59.625 L 69.316406 53.828125 L 70.960938 52.496094 L 69.394531 50.664062 L 68.144531 51.8125 C 68.160156 51.25 68.179688 50.746094 68.207031 50.273438 L 67.421875 50.210938 L 66.328125 50.15625 C 66.152344 50.148438 65.886719 50.113281 65.539062 50.058594 L 66.890625 49.019531 L 65.261719 47.136719 L 64.1875 48.132812 L 62.042969 49.972656 L 60.605469 48.300781 L 62.851562 46.363281 L 64.417969 45.152344 L 62.78125 43.257812 L 61.21875 44.683594 L 54.808594 50.203125 L 53.289062 51.429688 L 54.898438 53.304688 L 56.328125 51.980469 L 58.550781 50.070312 L 59.992188 51.742188 L 58.210938 53.261719 L 56.703125 54.503906 L 58.292969 56.355469 L 59.742188 55.039062 L 61.503906 53.519531 L 63.484375 55.8125 L 61.074219 57.875 L 59.519531 59.15625 Z M 49.890625 52.613281 L 59.734375 64.042969 L 61.378906 66.070312 L 63.457031 64.277344 L 63.253906 64.035156 L 73.679688 55.066406 L 73.992188 55.421875 L 76.117188 53.589844 L 74.347656 51.667969 L 64.398438 40.113281 L 62.878906 38.210938 L 61.226562 39.738281 L 50.023438 49.375 L 48.246094 50.808594 Z M 51.980469 50.929688 L 62.410156 41.960938 L 72.117188 53.242188 L 61.6875 62.214844 Z M 51.980469 50.929688 "/>
<path style=" stroke:none;fill-rule:nonzero;fill:rgb(78.039216%,8.627451%,11.372549%);fill-opacity:1;" d="M 101.800781 34.148438 L 104.726562 33.4375 L 104.503906 33.621094 L 103.855469 34.199219 C 103.765625 34.28125 103.632812 34.386719 103.453125 34.53125 C 104.371094 35.082031 104.929688 35.425781 105.125 35.585938 C 105.332031 35.746094 105.527344 35.917969 105.722656 36.078125 L 102.015625 36.964844 Z M 96.246094 29.203125 C 96.546875 29.425781 96.886719 29.667969 97.222656 29.949219 L 97.675781 29.222656 C 97.78125 29.054688 97.996094 28.609375 98.316406 27.90625 L 98.519531 29.015625 C 98.53125 29.0625 98.574219 29.445312 98.679688 30.191406 C 98.796875 30.9375 98.859375 31.398438 98.886719 31.558594 C 98.902344 31.730469 98.921875 31.988281 98.957031 32.332031 L 96.652344 32.839844 L 97.242188 35.292969 L 99.292969 34.75 L 99.382812 35.855469 C 99.410156 36.273438 99.445312 36.832031 99.464844 37.535156 C 99.488281 38.226562 99.507812 38.707031 99.507812 38.964844 C 99.515625 39.222656 99.507812 39.585938 99.507812 40.078125 L 101.746094 39.4375 L 109.667969 37.523438 L 109.625 37.863281 C 109.597656 38.128906 109.332031 38.378906 108.824219 38.59375 C 108.308594 38.824219 107.960938 38.949219 107.773438 38.992188 C 107.589844 39.027344 106.957031 39.125 105.898438 39.269531 C 106.523438 39.945312 106.921875 40.441406 107.082031 40.753906 C 107.25 41.0625 107.410156 41.390625 107.554688 41.738281 C 109.304688 41.277344 110.441406 40.839844 110.957031 40.441406 C 111.480469 40.042969 111.839844 39.625 112.023438 39.195312 C 112.21875 38.761719 112.316406 38.351562 112.355469 37.953125 C 112.378906 37.5625 112.40625 37.1875 112.425781 36.851562 L 114.292969 36.457031 L 113.714844 34.09375 L 111.988281 34.566406 L 111.855469 33.765625 L 111.652344 32.601562 C 111.625 32.421875 111.582031 32.15625 111.519531 31.792969 L 113.5625 31.355469 L 112.96875 28.894531 L 111.003906 29.417969 L 110.707031 27.878906 C 110.691406 27.746094 110.601562 27.292969 110.441406 26.519531 L 110.09375 24.574219 L 107.589844 25.257812 L 100.59375 26.945312 L 98.503906 27.390625 C 98.679688 26.894531 98.859375 26.394531 99.035156 25.898438 L 108.023438 23.726562 L 110.976562 23.105469 L 110.378906 20.625 L 107.472656 21.40625 L 99.792969 23.257812 C 99.953125 22.730469 100.085938 22.164062 100.210938 21.558594 C 99.402344 21.59375 98.457031 21.515625 97.347656 21.328125 C 97.292969 21.984375 97.214844 22.570312 97.105469 23.085938 C 97 23.621094 96.8125 24.316406 96.574219 25.203125 C 96.324219 26.09375 96.039062 26.769531 95.710938 27.230469 C 95.382812 27.691406 95.082031 28.082031 94.796875 28.429688 C 95.453125 28.742188 95.941406 28.992188 96.246094 29.203125 Z M 101.242188 29.214844 L 103.746094 28.609375 C 103.515625 28.9375 103.097656 29.371094 102.496094 29.925781 C 102.902344 30.128906 103.515625 30.503906 104.34375 31.042969 L 101.535156 31.730469 Z M 106.878906 35.808594 C 107.285156 35.375 107.660156 35.007812 108.007812 34.714844 C 107.011719 34.003906 106.265625 33.507812 105.773438 33.195312 L 109.039062 32.414062 L 109.234375 33.488281 C 109.3125 33.960938 109.402344 34.53125 109.5 35.195312 Z M 106.71875 29.816406 C 105.695312 29.140625 104.976562 28.660156 104.546875 28.402344 L 108.050781 27.558594 L 108.539062 30.011719 L 105.96875 30.636719 Z M 93.089844 32.46875 C 93.558594 32.6875 94.183594 33.035156 94.980469 33.523438 L 95.222656 32.714844 L 95.730469 31.445312 C 95.773438 31.335938 95.84375 31.160156 95.933594 30.910156 C 95.328125 30.617188 94.03125 30.039062 92.058594 29.195312 C 91.84375 29.960938 91.65625 30.484375 91.507812 30.769531 C 91.363281 31.054688 91.203125 31.347656 91.035156 31.640625 C 91.941406 31.96875 92.617188 32.246094 93.089844 32.46875 Z M 95.488281 43.222656 C 95.828125 43.472656 96.128906 43.695312 96.414062 43.898438 L 96.6875 42.707031 C 96.910156 41.792969 97.117188 40.574219 97.300781 39.035156 L 97.597656 36.449219 C 97.605469 36.289062 97.640625 36.015625 97.683594 35.660156 L 97.042969 35.445312 C 96.929688 35.417969 96.253906 35.125 95.035156 34.554688 L 95.054688 35.265625 C 95.0625 35.585938 95.027344 36.136719 94.929688 36.9375 C 94.839844 37.738281 94.742188 38.398438 94.652344 38.902344 C 94.554688 39.410156 94.441406 39.933594 94.304688 40.496094 C 94.171875 41.046875 94.058594 41.429688 93.96875 41.648438 C 93.890625 41.863281 93.789062 42.085938 93.683594 42.324219 C 94.546875 42.679688 95.152344 42.984375 95.488281 43.222656 Z M 93.203125 26.535156 C 93.71875 26.847656 94.164062 27.113281 94.527344 27.347656 C 94.664062 27.035156 94.839844 26.582031 95.070312 25.984375 C 95.292969 25.398438 95.453125 25 95.535156 24.785156 C 94.226562 24.09375 92.929688 23.46875 91.628906 22.917969 C 91.371094 23.746094 90.992188 24.527344 90.484375 25.292969 C 91.789062 25.824219 92.699219 26.234375 93.203125 26.535156 Z M 93.203125 26.535156 "/>
<path style=" stroke:none;fill-rule:nonzero;fill:rgb(78.039216%,8.627451%,11.372549%);fill-opacity:1;" d="M 137.726562 26.449219 C 138.820312 25.566406 139.523438 25 139.851562 24.722656 C 140.597656 25.613281 141.441406 26.707031 142.402344 28.003906 C 141.300781 29 140.605469 29.621094 140.359375 29.871094 C 140.125 29.523438 139.878906 29.167969 139.636719 28.820312 C 139.386719 28.484375 138.75 27.683594 137.726562 26.449219 Z M 136.578125 35.417969 C 136.996094 34.921875 137.503906 34.28125 138.109375 33.460938 C 138.695312 32.636719 139.085938 32.085938 139.28125 31.792969 L 140.109375 30.492188 C 140.605469 31.140625 141.203125 31.84375 141.921875 32.582031 C 141.121094 33.816406 140.417969 34.847656 139.832031 35.675781 C 139.238281 36.492188 138.6875 37.257812 138.160156 37.96875 C 137.636719 38.671875 137.140625 39.292969 136.660156 39.800781 C 136.207031 38.707031 135.832031 37.960938 135.558594 37.542969 L 135.058594 36.859375 C 135.644531 36.394531 136.144531 35.917969 136.578125 35.417969 Z M 140.464844 20.964844 C 141.292969 20.449219 142.039062 19.914062 142.714844 19.363281 C 143.753906 20.644531 144.5625 21.675781 145.148438 22.492188 C 145 22.625 144.3125 23.273438 143.085938 24.4375 C 142.785156 24.011719 141.914062 22.855469 140.464844 20.964844 Z M 144.890625 34.371094 L 147.976562 35.160156 L 148.625 32.625 L 145.636719 31.863281 L 143.523438 31.375 L 144.164062 28.839844 L 146.117188 29.398438 L 149.238281 30.199219 L 149.878906 27.683594 L 145.78125 26.644531 L 143.796875 26.191406 L 144.4375 23.710938 L 146.375 24.261719 L 148.359375 24.777344 C 148.191406 23.816406 147.914062 22.757812 147.515625 21.601562 C 148.570312 21.425781 149.453125 21.257812 150.117188 21.078125 C 150.5 22.339844 150.855469 23.566406 151.148438 24.75 C 150.695312 24.867188 150.234375 24.980469 149.726562 25.125 L 154.128906 26.253906 C 153.738281 25.941406 153.308594 25.628906 152.875 25.300781 C 153.371094 24.832031 153.789062 24.394531 154.128906 23.984375 C 154.464844 23.585938 154.867188 23.070312 155.300781 22.457031 C 156.003906 23.050781 156.734375 23.640625 157.507812 24.226562 C 156.554688 25.285156 156.039062 25.863281 155.960938 25.949219 L 155.433594 26.582031 L 157.335938 27.070312 L 159.382812 27.542969 L 158.726562 30.085938 L 156.820312 29.542969 L 152.554688 28.449219 L 151.933594 30.894531 L 154.75 31.613281 L 156.859375 32.09375 L 156.199219 34.628906 L 154.414062 34.128906 L 151.308594 33.328125 L 150.671875 35.855469 L 155.007812 36.964844 L 157.054688 37.4375 L 156.402344 39.996094 L 154.441406 39.4375 L 150.039062 38.308594 L 149.488281 40.433594 L 148.847656 43.25 L 146.003906 42.523438 L 146.792969 39.746094 L 147.335938 37.613281 L 144.269531 36.832031 L 141.246094 36.121094 L 141.90625 33.550781 Z M 144.890625 34.371094 "/>
<path style=" stroke:none;fill-rule:nonzero;fill:rgb(78.039216%,8.627451%,11.372549%);fill-opacity:1;" d="M 175.039062 51.152344 C 176.113281 51.667969 177.332031 52.140625 178.726562 52.539062 C 180.105469 52.949219 181.429688 52.984375 182.675781 52.664062 C 183.910156 52.34375 184.90625 51.953125 185.644531 51.5 C 186.371094 51.046875 187.03125 50.523438 187.589844 49.925781 L 188.65625 48.824219 C 186.382812 46.832031 184.878906 45.5625 184.175781 45.019531 L 182.007812 43.355469 L 183.722656 41.277344 L 185.875 43.125 L 190.390625 46.824219 C 191.378906 45.640625 191.972656 44.921875 192.167969 44.664062 L 193.75 42.644531 C 194.792969 43.660156 195.351562 44.191406 195.421875 44.238281 L 196.125 44.816406 C 195.476562 45.542969 195.121094 45.945312 195.050781 46.03125 L 192.71875 48.726562 L 197.371094 52.539062 L 199.601562 54.285156 L 197.839844 56.425781 L 195.699219 54.578125 L 191.050781 50.761719 C 190.738281 51.164062 190.507812 51.492188 190.355469 51.757812 C 190.203125 52.023438 190.007812 52.476562 189.777344 53.128906 C 189.546875 53.785156 189.367188 54.480469 189.234375 55.242188 C 189.109375 56.007812 189.074219 57.144531 189.128906 58.683594 C 189.191406 60.214844 189.503906 61.429688 190.035156 62.300781 C 190.578125 63.183594 191.136719 63.992188 191.699219 64.71875 C 191.40625 64.816406 191.074219 64.925781 190.746094 65.066406 C 190.410156 65.199219 189.980469 65.449219 189.464844 65.804688 L 188.746094 66.277344 C 188.425781 65.726562 187.992188 64.890625 187.414062 63.777344 C 186.835938 62.65625 186.472656 61.246094 186.335938 59.539062 C 186.195312 57.839844 186.195312 56.683594 186.335938 56.078125 L 186.683594 54.238281 C 186.070312 54.542969 185.464844 54.816406 184.851562 55.058594 C 184.238281 55.304688 183.359375 55.484375 182.203125 55.582031 C 181.066406 55.679688 179.769531 55.589844 178.300781 55.316406 C 176.832031 55.03125 175.597656 54.738281 174.59375 54.433594 C 174.683594 54.160156 174.761719 53.867188 174.832031 53.535156 C 174.921875 53.242188 174.984375 52.441406 175.039062 51.152344 Z M 175.039062 51.152344 "/>
<path style=" stroke:none;fill-rule:nonzero;fill:rgb(78.039216%,8.627451%,11.372549%);fill-opacity:1;" d="M 206.054688 80.757812 L 208.597656 79.753906 L 209.441406 82.136719 L 211.335938 86.9375 C 211.441406 86.707031 211.53125 86.457031 211.601562 86.191406 C 212.253906 86.695312 212.867188 87.105469 213.480469 87.417969 L 212.644531 85.300781 L 211.683594 83.105469 L 214.101562 82.164062 L 214.882812 84.394531 L 218.261719 92.972656 L 217.273438 94.367188 C 217.054688 94.296875 216.734375 94.191406 216.332031 94.058594 C 215.933594 93.914062 215.007812 93.425781 213.558594 92.582031 L 215.308594 97.007812 L 216.296875 99.277344 L 213.761719 100.28125 L 212.882812 97.835938 L 210.785156 92.519531 C 210.429688 92.75 210.117188 92.9375 209.90625 93.0625 C 209.675781 93.195312 209.320312 93.363281 208.847656 93.570312 C 208.375 93.789062 207.84375 93.898438 207.246094 93.90625 C 206.652344 93.925781 206.117188 93.675781 205.636719 93.152344 C 205.148438 92.617188 204.792969 92.121094 204.570312 91.648438 C 204.339844 91.175781 204.117188 90.589844 203.867188 89.898438 C 204.199219 89.703125 204.480469 89.515625 204.730469 89.355469 C 204.972656 89.1875 205.195312 89 205.390625 88.792969 L 206.101562 88.046875 C 206.277344 88.5625 206.421875 88.980469 206.527344 89.300781 C 206.625 89.628906 206.703125 89.851562 206.777344 89.996094 C 207 90.519531 207.28125 90.785156 207.613281 90.796875 C 207.941406 90.804688 208.242188 90.769531 208.535156 90.660156 C 208.960938 90.492188 209.238281 90.332031 209.363281 90.191406 L 209.710938 89.789062 L 207.050781 83.050781 Z M 213.53125 87.558594 C 213.371094 88.171875 213.175781 88.792969 212.917969 89.433594 C 213.46875 89.738281 214.03125 90.011719 214.597656 90.242188 Z M 212.882812 78.640625 L 214.625 77.957031 L 216.039062 77.335938 L 216.902344 79.746094 L 217.542969 81.363281 C 218.707031 80.152344 219.523438 79.085938 220.011719 78.1875 L 220.617188 77.085938 C 221.550781 77.886719 222.113281 78.332031 222.296875 78.421875 L 223.007812 78.777344 C 222.09375 80.285156 221.320312 81.433594 220.6875 82.214844 L 219.949219 83.148438 C 219.1875 82.507812 218.394531 81.957031 217.59375 81.488281 L 221.300781 90.882812 C 221.417969 90.359375 221.496094 89.703125 221.550781 88.910156 C 222.136719 89.089844 222.617188 89.222656 223.007812 89.300781 C 223.410156 89.390625 223.917969 89.453125 224.546875 89.507812 C 225.179688 89.550781 225.648438 89.558594 225.941406 89.550781 L 227.382812 89.460938 C 227.347656 90.539062 227.390625 91.621094 227.515625 92.699219 C 227.011719 92.671875 226.566406 92.644531 226.191406 92.617188 C 225.828125 92.589844 225.1875 92.519531 224.296875 92.402344 C 223.402344 92.296875 222.824219 92.199219 222.546875 92.136719 L 221.710938 91.949219 L 222.359375 93.578125 L 223.4375 96.085938 L 221.878906 96.652344 L 219.90625 97.425781 L 218.441406 98.058594 L 217.363281 95.339844 L 219.132812 94.707031 L 219.96875 94.367188 L 214.671875 80.953125 L 213.691406 81.335938 L 212.179688 81.992188 L 211.113281 79.273438 Z M 225.828125 84.226562 C 224.371094 85.691406 223.4375 86.609375 223.035156 86.980469 L 221.914062 88.011719 C 221.179688 87.070312 220.503906 86.304688 219.878906 85.710938 C 220.296875 85.40625 220.664062 85.148438 220.972656 84.917969 C 221.285156 84.6875 221.648438 84.367188 222.085938 83.957031 C 222.519531 83.550781 223.097656 82.917969 223.808594 82.082031 C 224.40625 82.882812 225.089844 83.585938 225.828125 84.226562 Z M 225.828125 84.226562 "/>
<path style=" stroke:none;fill-rule:nonzero;fill:rgb(0%,25.098039%,59.215686%);fill-opacity:1;" d="M 54.886719 161.046875 C 54.984375 161.257812 55.101562 161.460938 55.207031 161.675781 C 55.652344 162.546875 56.105469 163.402344 56.578125 164.253906 C 56.738281 164.539062 56.90625 164.832031 57.066406 165.125 C 57.5625 165.996094 58.070312 166.851562 58.59375 167.695312 C 58.691406 167.855469 58.789062 168.015625 58.886719 168.164062 C 58.898438 168.191406 58.914062 168.210938 58.925781 168.238281 C 59.492188 169.144531 60.097656 170.03125 60.710938 170.914062 C 73.203125 159.703125 89.710938 152.875 107.8125 152.875 C 116.230469 152.875 124.320312 154.324219 131.804688 157.027344 C 131.851562 157.042969 131.902344 157.0625 131.957031 157.078125 C 132.027344 157.105469 132.097656 157.132812 132.167969 157.160156 C 142.492188 160.921875 153.640625 162.972656 165.269531 162.972656 C 177.214844 162.972656 188.667969 160.796875 199.226562 156.820312 C 199.324219 156.601562 199.421875 156.386719 199.523438 156.164062 C 199.566406 156.046875 199.609375 155.941406 199.65625 155.828125 C 199.9375 155.113281 200.207031 154.402344 200.480469 153.691406 C 200.605469 153.371094 200.730469 153.035156 200.855469 152.707031 C 200.855469 152.695312 200.863281 152.679688 200.863281 152.671875 C 201.15625 151.851562 201.425781 151.015625 201.699219 150.191406 C 201.804688 149.851562 201.914062 149.523438 202.019531 149.183594 C 202.277344 148.332031 202.515625 147.46875 202.757812 146.605469 C 202.847656 146.277344 202.945312 145.949219 203.03125 145.613281 C 203.253906 144.742188 203.449219 143.859375 203.648438 142.972656 C 203.71875 142.632812 203.789062 142.304688 203.867188 141.964844 C 204.054688 141.078125 204.214844 140.179688 204.367188 139.273438 C 204.394531 139.070312 204.4375 138.871094 204.464844 138.675781 C 191.609375 148.519531 175.554688 154.386719 158.101562 154.386719 C 146.296875 154.386719 135.121094 151.710938 125.136719 146.917969 C 124.683594 146.679688 124.222656 146.4375 123.75 146.214844 C 123.742188 146.214844 123.734375 146.207031 123.722656 146.199219 C 115.582031 142.234375 106.433594 140.046875 96.777344 140.046875 C 79.859375 140.046875 64.542969 146.863281 53.410156 157.90625 C 53.4375 157.953125 53.457031 158.003906 53.484375 158.050781 C 53.9375 159.070312 54.398438 160.058594 54.886719 161.046875 Z M 54.886719 161.046875 "/>
<path style=" stroke:none;fill-rule:nonzero;fill:rgb(0%,25.098039%,59.215686%);fill-opacity:1;" d="M 178.550781 185.476562 C 175.125 186.445312 171.527344 186.96875 167.792969 186.96875 C 161.898438 186.96875 156.304688 185.671875 151.285156 183.351562 C 151.097656 183.261719 150.917969 183.15625 150.722656 183.066406 C 150.582031 183.003906 150.421875 182.941406 150.277344 182.871094 C 144.800781 180.355469 138.703125 178.957031 132.277344 178.957031 C 116.84375 178.957031 103.3125 187.066406 95.695312 199.253906 C 105.054688 203.140625 115.324219 205.300781 126.097656 205.300781 C 146.214844 205.300781 164.566406 197.804688 178.550781 185.476562 Z M 178.550781 185.476562 "/>
<path style=" stroke:none;fill-rule:nonzero;fill:rgb(0%,25.098039%,59.215686%);fill-opacity:1;" d="M 171.5625 172.238281 C 161.472656 172.238281 151.886719 169.988281 143.300781 165.996094 C 143.253906 165.96875 143.21875 165.953125 143.175781 165.925781 C 143.007812 165.855469 142.847656 165.785156 142.6875 165.710938 C 135.15625 162.234375 126.78125 160.308594 117.964844 160.308594 C 98.949219 160.308594 82.03125 169.296875 71.21875 183.242188 C 71.46875 183.484375 71.707031 183.714844 71.957031 183.945312 C 71.984375 183.972656 72 183.992188 72.027344 184.007812 C 72.417969 184.371094 72.820312 184.746094 73.226562 185.101562 C 73.335938 185.199219 73.441406 185.289062 73.558594 185.394531 C 73.867188 185.671875 74.1875 185.945312 74.507812 186.214844 C 74.785156 186.453125 75.058594 186.691406 75.34375 186.925781 C 75.601562 187.136719 75.859375 187.359375 76.117188 187.574219 C 76.402344 187.804688 76.695312 188.027344 76.972656 188.25 C 77.246094 188.460938 77.523438 188.675781 77.796875 188.890625 C 77.941406 188.996094 78.089844 189.121094 78.242188 189.234375 C 78.738281 189.609375 79.238281 189.972656 79.753906 190.339844 C 80.125 190.613281 80.507812 190.878906 80.890625 191.148438 C 81.425781 191.519531 81.976562 191.886719 82.519531 192.25 C 82.882812 192.5 83.273438 192.738281 83.648438 192.96875 C 83.941406 193.15625 84.234375 193.332031 84.535156 193.519531 C 93.445312 180 108.746094 171.082031 126.140625 171.082031 C 134.765625 171.082031 142.898438 173.277344 149.976562 177.136719 C 150.144531 177.234375 150.339844 177.3125 150.519531 177.421875 C 150.757812 177.554688 150.988281 177.714844 151.222656 177.847656 C 156.875 180.878906 163.339844 182.605469 170.203125 182.605469 C 175.066406 182.605469 179.722656 181.742188 184.027344 180.160156 C 184.613281 179.535156 185.183594 178.90625 185.75 178.265625 C 185.910156 178.078125 186.078125 177.902344 186.238281 177.714844 C 186.835938 177.03125 187.402344 176.316406 187.972656 175.617188 C 188.160156 175.375 188.355469 175.144531 188.550781 174.914062 C 189.085938 174.21875 189.601562 173.527344 190.117188 172.824219 C 190.320312 172.546875 190.535156 172.28125 190.738281 172.007812 C 191.226562 171.3125 191.707031 170.609375 192.179688 169.910156 C 192.375 169.605469 192.585938 169.3125 192.792969 169 C 192.84375 168.914062 192.890625 168.824219 192.953125 168.726562 C 186.222656 170.992188 179.039062 172.238281 171.5625 172.238281 Z M 171.5625 172.238281 "/>
<path style=" stroke:none;fill-rule:nonzero;fill:rgb(0%,62.352941%,90.980392%);fill-opacity:1;" d="M 149.746094 79.292969 L 149.746094 74.039062 L 143.511719 79.292969 Z M 149.746094 79.292969 "/>
<path style=" stroke:none;fill-rule:nonzero;fill:rgb(0%,62.352941%,90.980392%);fill-opacity:1;" d="M 114.078125 73.246094 C 113.5625 72.898438 112.96875 72.738281 112.265625 72.738281 C 111.554688 72.738281 110.941406 72.898438 110.460938 73.246094 C 109.945312 73.582031 109.703125 73.992188 109.703125 74.464844 L 109.703125 77.914062 C 109.703125 78.375 109.933594 78.765625 110.449219 79.105469 C 110.949219 79.441406 111.5625 79.621094 112.273438 79.621094 C 112.976562 79.621094 113.570312 79.441406 114.085938 79.105469 C 114.59375 78.75 114.851562 78.339844 114.851562 77.878906 L 114.851562 74.445312 C 114.84375 73.984375 114.585938 73.566406 114.078125 73.246094 Z M 114.078125 73.246094 "/>
<path style=" stroke:none;fill-rule:nonzero;fill:rgb(0%,62.352941%,90.980392%);fill-opacity:1;" d="M 126 46.699219 C 112.550781 46.699219 99.878906 50.058594 88.769531 55.972656 C 63.707031 69.316406 46.636719 95.695312 46.636719 126.0625 C 46.636719 130.792969 47.074219 135.414062 47.875 139.921875 C 58.300781 132.515625 71.03125 128.160156 84.785156 128.160156 C 96.847656 128.160156 108.15625 131.492188 117.785156 137.289062 C 117.902344 137.371094 118.035156 137.441406 118.160156 137.523438 C 118.445312 137.691406 118.726562 137.878906 119.011719 138.0625 C 129.46875 144.324219 141.691406 147.921875 154.757812 147.921875 C 174.691406 147.921875 192.660156 139.539062 205.351562 126.117188 C 205.351562 126.097656 205.351562 126.089844 205.351562 126.0625 C 205.363281 82.226562 169.828125 46.699219 126 46.699219 Z M 100.113281 86.5 L 95.230469 86.5 L 95.230469 74.492188 L 92.644531 74.492188 L 92.644531 72.738281 L 97.828125 70.996094 L 100.121094 70.996094 L 100.121094 86.5 Z M 120.042969 80.492188 C 120.042969 82.144531 119.164062 83.539062 117.367188 84.722656 C 115.597656 85.921875 113.445312 86.511719 110.957031 86.511719 L 107.082031 86.511719 L 107.082031 84.777344 L 109.660156 84.777344 C 111.101562 84.777344 112.316406 84.4375 113.324219 83.753906 C 114.316406 83.070312 114.832031 82.269531 114.832031 81.335938 L 114.832031 79.59375 C 114.628906 80.765625 113.792969 81.363281 112.246094 81.363281 L 109.660156 81.363281 C 108.253906 81.363281 107.046875 81.015625 106.023438 80.339844 C 104.992188 79.664062 104.46875 78.863281 104.46875 77.921875 L 104.46875 74.472656 C 104.46875 73.523438 104.984375 72.722656 106.023438 72.035156 C 107.027344 71.351562 108.246094 71.003906 109.660156 71.003906 L 114.859375 71.003906 C 116.273438 71.003906 117.492188 71.34375 118.503906 72.035156 C 119.519531 72.722656 120.042969 73.523438 120.042969 74.472656 Z M 138.429688 75.328125 C 138.429688 76.5 136.757812 78.046875 133.414062 79.949219 L 133.078125 80.152344 C 130.035156 81.878906 128.398438 83.28125 128.132812 84.339844 L 138.429688 84.339844 L 138.429688 86.511719 L 122.863281 86.511719 L 122.863281 84.792969 C 122.863281 83.59375 124.542969 82.046875 127.875 80.152344 L 128.230469 79.949219 C 131.554688 78.046875 133.21875 76.507812 133.21875 75.328125 L 133.21875 74.464844 C 133.21875 73.984375 132.960938 73.582031 132.453125 73.246094 C 131.929688 72.898438 131.316406 72.738281 130.640625 72.738281 L 128.054688 72.738281 C 126.460938 72.738281 125.589844 73.316406 125.492188 74.492188 L 122.871094 74.492188 C 123.28125 72.171875 125.011719 71.003906 128.0625 71.003906 L 133.261719 71.003906 C 134.667969 71.003906 135.894531 71.34375 136.917969 72.019531 C 137.929688 72.703125 138.445312 73.511719 138.445312 74.453125 L 138.445312 75.328125 Z M 157.558594 81.355469 L 154.957031 81.355469 L 154.957031 86.511719 L 149.746094 86.511719 L 149.746094 81.355469 L 139.398438 81.355469 L 139.398438 79.628906 L 149.746094 71.003906 L 154.957031 71.003906 L 154.957031 79.292969 L 157.550781 79.292969 L 157.550781 79.628906 L 157.558594 79.628906 Z M 157.558594 81.355469 "/>
</g>
</svg>
