<?xml version="1.0" encoding="UTF-8"?>
<svg xmlns="http://www.w3.org/2000/svg" xmlns:xlink="http://www.w3.org/1999/xlink" width="252pt" height="252pt" viewBox="0 0 252 252" version="1.1">
<g id="surface1">
<path style=" stroke:none;fill-rule:nonzero;fill:rgb(0%,0%,0%);fill-opacity:1;" d="M 122.910156 0 L 129.339844 0 C 136.394531 0.339844 143.449219 0.984375 150.382812 2.398438 C 171.929688 6.59375 192.28125 16.652344 208.777344 31.128906 C 221.832031 42.535156 232.554688 56.621094 239.949219 72.304688 C 246.578125 86.285156 250.566406 101.511719 251.644531 116.945312 C 251.808594 118.773438 251.824219 120.605469 252 122.433594 L 252 129.582031 C 251.667969 135.402344 251.242188 141.230469 250.222656 146.980469 C 246.65625 168.480469 237.261719 188.949219 223.425781 205.78125 C 211.1875 220.65625 195.570312 232.765625 178.019531 240.730469 C 167.683594 245.433594 156.699219 248.726562 145.476562 250.464844 C 140.132812 251.34375 134.730469 251.710938 129.332031 252 L 122.414062 252 C 117.027344 251.683594 111.632812 251.324219 106.296875 250.429688 C 89.390625 247.792969 73.050781 241.601562 58.621094 232.402344 C 42.765625 222.328125 29.195312 208.675781 19.210938 192.761719 C 8.277344 175.394531 1.707031 155.296875 0.34375 134.816406 C 0.160156 132.992188 0.167969 131.15625 0 129.332031 L 0 121.9375 C 0.296875 118.585938 0.382812 115.210938 0.820312 111.867188 C 1.8125 102.847656 3.816406 93.941406 6.75 85.355469 C 12.402344 68.769531 21.605469 53.410156 33.519531 40.5625 C 43.246094 30.050781 54.742188 21.171875 67.414062 14.488281 C 82.105469 6.734375 98.355469 1.941406 114.90625 0.515625 C 117.566406 0.257812 120.242188 0.175781 122.910156 0 Z M 122.910156 0 "/>
<path style=" stroke:none;fill-rule:nonzero;fill:rgb(97.254902%,80.784314%,1.176471%);fill-opacity:1;" d="M 117.796875 4.714844 C 120.199219 4.691406 122.589844 4.410156 124.992188 4.449219 C 142.308594 4.34375 159.664062 7.898438 175.460938 15.027344 C 193.136719 22.914062 208.828125 35.140625 220.917969 50.242188 C 231.59375 63.589844 239.464844 79.191406 243.707031 95.753906 C 246.535156 106.683594 247.769531 118 247.523438 129.277344 C 247.289062 131.421875 247.417969 133.585938 247.136719 135.730469 C 245.4375 157.671875 237.515625 179.070312 224.609375 196.890625 C 213.261719 212.65625 198.101562 225.65625 180.769531 234.441406 C 171.863281 238.964844 162.390625 242.382812 152.644531 244.574219 C 135.191406 248.519531 116.886719 248.523438 99.429688 244.59375 C 83.15625 240.953125 67.671875 233.863281 54.246094 223.980469 C 38.464844 212.410156 25.519531 196.992188 16.886719 179.429688 C 8.59375 162.660156 4.355469 143.941406 4.449219 125.242188 C 4.554688 115.507812 5.75 105.765625 8.148438 96.320312 C 12.65625 78.390625 21.390625 61.558594 33.363281 47.480469 C 41.453125 37.957031 50.996094 29.664062 61.585938 23.023438 C 76.695312 13.503906 93.941406 7.386719 111.6875 5.316406 C 113.71875 5.058594 115.757812 4.910156 117.796875 4.714844 Z M 117.796875 4.714844 "/>
<path style=" stroke:none;fill-rule:nonzero;fill:rgb(0%,0%,0%);fill-opacity:1;" d="M 122.570312 7.914062 C 142.066406 7.304688 161.6875 11.664062 179.082031 20.496094 C 196.699219 29.386719 212.003906 42.773438 223.222656 59 C 236.726562 78.449219 244.210938 102.058594 244.109375 125.746094 C 244.300781 148.449219 237.539062 171.121094 225.148438 190.128906 C 214.328125 206.804688 199.265625 220.703125 181.753906 230.109375 C 165.898438 238.675781 148.039062 243.496094 130.035156 244.074219 C 125.796875 244.113281 121.550781 244.199219 117.324219 243.820312 C 99.789062 242.582031 82.5625 237.265625 67.328125 228.492188 C 50.585938 218.867188 36.253906 205.089844 25.96875 188.746094 C 15.433594 172.089844 9.199219 152.738281 8.066406 133.0625 C 7.800781 128.449219 7.832031 123.808594 8.039062 119.195312 C 8.863281 105.085938 12.210938 91.113281 17.988281 78.207031 C 27.816406 55.972656 44.734375 36.984375 65.59375 24.527344 C 82.746094 14.238281 102.574219 8.429688 122.570312 7.914062 Z M 122.570312 7.914062 "/>
<path style=" stroke:none;fill-rule:nonzero;fill:rgb(97.254902%,80.784314%,1.176471%);fill-opacity:1;" d="M 121.824219 8.710938 C 139.199219 8.117188 156.707031 11.371094 172.644531 18.355469 C 191.011719 26.335938 207.253906 39.121094 219.367188 55.066406 C 230.132812 69.160156 237.660156 85.726562 241.09375 103.132812 C 243.992188 117.621094 244.09375 132.65625 241.417969 147.1875 C 237.664062 167.789062 228.1875 187.292969 214.390625 203.035156 C 201.097656 218.316406 183.792969 230.089844 164.667969 236.777344 C 152.910156 240.910156 140.476562 243.125 128.015625 243.324219 C 111.234375 243.636719 94.382812 240.273438 79.015625 233.496094 C 61.832031 225.964844 46.523438 214.222656 34.738281 199.625 C 21.238281 182.976562 12.402344 162.574219 9.65625 141.304688 C 6.929688 120.820312 9.761719 99.625 17.824219 80.585938 C 24.339844 65.132812 34.222656 51.117188 46.5625 39.757812 C 59.867188 27.472656 76.039062 18.289062 93.445312 13.269531 C 102.664062 10.5625 112.234375 9.09375 121.824219 8.710938 Z M 121.824219 8.710938 "/>
<path style=" stroke:none;fill-rule:nonzero;fill:rgb(0%,0%,0%);fill-opacity:1;" d="M 131.242188 13.722656 C 131.949219 13.6875 132.664062 13.734375 133.363281 13.871094 C 134.960938 14.152344 136.597656 14.234375 138.167969 14.664062 C 137.453125 14.792969 136.671875 14.691406 136.023438 15.078125 C 135.390625 15.835938 135.398438 16.890625 135.226562 17.816406 C 134.9375 20.679688 134.167969 23.519531 134.402344 26.417969 C 134.484375 27.855469 135.785156 28.90625 137.109375 29.214844 C 138.871094 29.648438 141.046875 29.289062 142.167969 27.738281 C 143.023438 26.292969 143.132812 24.558594 143.375 22.929688 C 143.601562 20.84375 144.148438 18.777344 144.066406 16.667969 C 144.039062 15.644531 142.734375 15.679688 142.058594 15.238281 C 143.304688 15.144531 144.511719 15.5 145.742188 15.617188 C 146.328125 15.726562 146.972656 15.675781 147.488281 16.023438 C 146.957031 16.152344 146.40625 16.1875 145.894531 16.371094 C 145.246094 16.738281 145.125 17.539062 145.003906 18.203125 C 144.609375 20.695312 144.363281 23.210938 143.902344 25.6875 C 143.621094 27.15625 143.039062 28.726562 141.664062 29.5 C 139.773438 30.722656 137.371094 30.382812 135.351562 29.707031 C 133.46875 29.105469 132.101562 27.1875 132.195312 25.207031 C 132.359375 21.902344 133.144531 18.652344 133.371094 15.355469 C 133.316406 14.207031 132.042969 14.140625 131.242188 13.722656 Z M 131.242188 13.722656 "/>
<path style=" stroke:none;fill-rule:nonzero;fill:rgb(0%,0%,0%);fill-opacity:1;" d="M 97.066406 17.757812 C 101.015625 16.835938 104.96875 15.933594 108.921875 15.019531 C 109.464844 16.101562 109.746094 17.300781 109.863281 18.5 C 109.292969 17.84375 108.945312 16.90625 108.085938 16.570312 C 106.769531 16.242188 105.441406 16.730469 104.183594 17.089844 C 105.011719 20.839844 105.929688 24.570312 106.757812 28.320312 C 106.9375 28.933594 107.035156 29.636719 107.484375 30.117188 C 108.144531 30.511719 108.960938 30.273438 109.691406 30.390625 C 108.542969 30.816406 107.328125 31.023438 106.136719 31.304688 C 105.105469 31.542969 104.082031 31.84375 103.023438 31.921875 C 103.839844 31.390625 105.304688 31.03125 104.90625 29.742188 C 104.003906 25.65625 103.078125 21.574219 102.074219 17.511719 C 100.9375 17.828125 99.707031 17.925781 98.679688 18.542969 C 97.855469 19.160156 97.878906 20.269531 97.824219 21.191406 C 97.75 21.144531 97.601562 21.042969 97.527344 20.992188 C 97.222656 19.945312 97.09375 18.847656 97.066406 17.757812 Z M 97.066406 17.757812 "/>
<path style=" stroke:none;fill-rule:nonzero;fill:rgb(0%,0%,0%);fill-opacity:1;" d="M 157.207031 17.605469 C 158.492188 17.933594 159.699219 18.492188 160.898438 19.050781 C 161.203125 19.160156 161.28125 19.496094 161.378906 19.773438 C 162.695312 24.289062 163.964844 28.820312 165.328125 33.324219 C 166.492188 30.890625 167.453125 28.363281 168.546875 25.894531 C 168.84375 25.105469 169.3125 24.316406 169.222656 23.441406 C 168.90625 22.792969 168.132812 22.542969 167.609375 22.09375 C 168.375 22.117188 169.0625 22.5 169.761719 22.785156 C 170.789062 23.242188 171.882812 23.585938 172.800781 24.253906 C 172.089844 24.164062 171.34375 23.886719 170.632812 24.117188 C 170.066406 24.65625 169.765625 25.402344 169.460938 26.105469 C 168.304688 28.890625 167.109375 31.652344 165.941406 34.429688 C 165.5 35.464844 165.109375 36.523438 164.539062 37.5 C 164.351562 37.125 164.167969 36.746094 164.035156 36.347656 C 162.625 31.617188 161.320312 26.851562 159.839844 22.144531 C 158.5625 24.683594 157.59375 27.367188 156.429688 29.960938 C 156.132812 30.777344 155.628906 31.585938 155.671875 32.480469 C 156.121094 33.070312 156.765625 33.464844 157.308594 33.964844 C 155.519531 33.355469 153.726562 32.667969 152.101562 31.695312 C 152.800781 31.800781 153.507812 32 154.222656 31.882812 C 154.820312 31.460938 155.046875 30.726562 155.359375 30.097656 C 156.570312 27.265625 157.753906 24.417969 158.980469 21.59375 C 159.164062 21.085938 159.546875 20.53125 159.253906 19.992188 C 158.945312 18.921875 157.96875 18.324219 157.207031 17.605469 Z M 157.207031 17.605469 "/>
<path style=" stroke:none;fill-rule:nonzero;fill:rgb(0%,0%,0%);fill-opacity:1;" d="M 84.078125 22.535156 C 84.746094 22.5625 84.847656 21.714844 85.160156 21.285156 C 85.941406 22.863281 86.75 24.4375 87.359375 26.09375 C 86.386719 25.375 85.761719 24.203125 84.578125 23.789062 C 83.113281 23.269531 81.230469 23.507812 80.214844 24.78125 C 79.421875 25.703125 79.472656 27.40625 80.59375 28.046875 C 83.296875 29.300781 86.460938 28.378906 89.191406 29.523438 C 90.511719 30.128906 91.414062 31.554688 91.378906 33.007812 C 91.414062 34.792969 90.199219 36.441406 88.601562 37.164062 C 87.289062 37.878906 85.753906 37.804688 84.34375 38.171875 C 84.152344 38.554688 83.972656 38.945312 83.792969 39.328125 C 83.011719 37.753906 82.136719 36.191406 81.644531 34.496094 C 82.601562 35.308594 83.296875 36.507812 84.578125 36.863281 C 85.753906 37.101562 87.054688 37.074219 88.125 36.46875 C 89.101562 35.949219 89.957031 34.933594 89.824219 33.769531 C 89.753906 32.605469 88.699219 31.761719 87.617188 31.546875 C 85.472656 31.074219 83.21875 31.304688 81.097656 30.699219 C 80.003906 30.394531 79.003906 29.644531 78.570312 28.574219 C 77.710938 26.800781 78.617188 24.539062 80.238281 23.542969 C 81.359375 22.777344 82.75 22.613281 84.078125 22.535156 Z M 84.078125 22.535156 "/>
<path style=" stroke:none;fill-rule:nonzero;fill:rgb(0%,0%,0%);fill-opacity:1;" d="M 180.128906 28.050781 C 181.164062 28.464844 182.101562 29.082031 183.070312 29.636719 C 184.0625 30.222656 185.101562 30.742188 186.015625 31.449219 C 185.332031 31.335938 184.664062 31.015625 183.960938 31.09375 C 183.414062 31.304688 183.101562 31.863281 182.78125 32.324219 C 181.628906 34.289062 180.523438 36.28125 179.367188 38.246094 C 178.554688 39.683594 177.644531 41.070312 177.015625 42.597656 C 177.335938 43.359375 177.976562 43.890625 178.515625 44.488281 C 176.5 43.566406 174.652344 42.335938 172.726562 41.25 C 172.75 41.179688 172.792969 41.039062 172.816406 40.96875 C 173.394531 41.203125 173.980469 41.535156 174.628906 41.460938 C 175.230469 41.203125 175.554688 40.578125 175.894531 40.054688 C 177.554688 37.183594 179.203125 34.300781 180.871094 31.433594 C 181.128906 30.898438 181.523438 30.363281 181.507812 29.75 C 181.199219 29.074219 180.5625 28.636719 180.128906 28.050781 Z M 180.128906 28.050781 "/>
<path style=" stroke:none;fill-rule:nonzero;fill:rgb(0%,0%,0%);fill-opacity:1;" d="M 60.816406 34.246094 C 61.292969 34.378906 61.753906 34.570312 62.171875 34.847656 C 65.601562 37.058594 69.070312 39.207031 72.511719 41.398438 C 73.175781 41.8125 73.84375 42.246094 74.605469 42.453125 C 75.296875 42.566406 75.96875 42.285156 76.644531 42.179688 C 75.046875 43.546875 73.273438 44.703125 71.5 45.832031 C 71.738281 45.335938 72.140625 44.898438 72.242188 44.34375 C 72.351562 43.867188 71.871094 43.597656 71.578125 43.316406 C 70.714844 42.648438 69.777344 42.085938 68.816406 41.578125 C 67.195312 42.652344 65.597656 43.761719 64.039062 44.925781 C 64.183594 46.289062 64.410156 47.675781 64.980469 48.929688 C 65.722656 49.339844 66.53125 48.855469 67.277344 48.710938 C 66.046875 49.878906 64.585938 50.777344 63.152344 51.667969 C 63.492188 50.859375 64.0625 50.066406 63.84375 49.136719 C 62.929688 44.15625 61.71875 39.230469 60.816406 34.246094 Z M 60.816406 34.246094 "/>
<path style=" stroke:none;fill-rule:nonzero;fill:rgb(0%,0%,0%);fill-opacity:1;" d="M 120.8125 36.417969 C 125.738281 36.328125 130.683594 36.199219 135.578125 36.808594 C 147.136719 38.019531 158.433594 41.558594 168.636719 47.109375 C 185.480469 56.230469 199.273438 70.855469 207.34375 88.226562 C 212.796875 99.925781 215.753906 112.832031 215.652344 125.746094 C 215.859375 141.695312 211.441406 157.628906 203.355469 171.355469 C 197.144531 181.875 188.800781 191.136719 178.933594 198.347656 C 167.378906 206.867188 153.738281 212.542969 139.539062 214.679688 C 137.109375 215.128906 134.625 215.203125 132.1875 215.5625 C 130.085938 219.050781 128.117188 222.613281 126 226.09375 C 123.886719 222.613281 121.90625 219.050781 119.816406 215.558594 C 119.269531 215.449219 118.71875 215.371094 118.164062 215.347656 C 97.339844 213.65625 77.328125 204.175781 62.621094 189.378906 C 48.347656 175.191406 39.023438 156.082031 36.863281 136.054688 C 36.238281 131.320312 36.320312 126.535156 36.390625 121.773438 C 36.929688 110.132812 39.761719 98.597656 44.738281 88.054688 C 49.738281 77.386719 56.867188 67.714844 65.582031 59.785156 C 78.859375 47.601562 95.882812 39.539062 113.753906 37.128906 C 116.097656 36.808594 118.457031 36.59375 120.8125 36.417969 Z M 120.8125 36.417969 "/>
<path style=" stroke:none;fill-rule:nonzero;fill:rgb(0%,0%,0%);fill-opacity:1;" d="M 194.054688 36.699219 C 194.972656 37.300781 195.757812 38.070312 196.5625 38.808594 C 197.339844 39.542969 198.203125 40.195312 198.875 41.03125 C 198.25 40.84375 197.640625 40.601562 197.023438 40.390625 C 196.070312 41.15625 195.863281 42.425781 195.449219 43.503906 C 194.59375 46.222656 193.535156 48.875 192.808594 51.628906 C 195.238281 50.625 197.554688 49.359375 199.9375 48.246094 C 200.925781 47.730469 202.007812 47.347656 202.878906 46.628906 C 203.617188 46.011719 202.714844 45.144531 202.605469 44.425781 C 203.953125 45.300781 205.0625 46.488281 206.207031 47.601562 C 205.597656 47.53125 205 47.347656 204.386719 47.347656 C 203.539062 47.503906 202.765625 47.898438 201.996094 48.265625 C 198.429688 49.992188 194.855469 51.707031 191.289062 53.4375 C 190.839844 53.660156 190.363281 53.820312 189.882812 53.957031 C 189.964844 53.492188 190.066406 53.03125 190.210938 52.578125 C 191.632812 48.4375 192.984375 44.269531 194.40625 40.125 C 194.597656 39.5 194.832031 38.828125 194.660156 38.171875 C 194.492188 37.667969 194.238281 37.195312 194.054688 36.699219 Z M 194.054688 36.699219 "/>
<path style=" stroke:none;fill-rule:nonzero;fill:rgb(97.254902%,80.784314%,1.176471%);fill-opacity:1;" d="M 62.519531 37.554688 C 64.414062 38.660156 66.269531 39.832031 68.078125 41.070312 C 66.710938 42.113281 65.277344 43.058594 63.882812 44.0625 C 63.597656 43.398438 63.445312 42.695312 63.332031 41.984375 C 63.074219 40.507812 62.621094 39.058594 62.519531 37.554688 Z M 62.519531 37.554688 "/>
<path style=" stroke:none;fill-rule:nonzero;fill:rgb(100%,100%,100%);fill-opacity:1;" d="M 75.664062 53.242188 C 88.589844 44.222656 103.980469 38.78125 119.703125 37.6875 C 136.9375 36.417969 154.523438 40.386719 169.535156 48.964844 C 185.367188 57.921875 198.328125 71.867188 206.085938 88.324219 C 180.734375 88.347656 155.382812 88.324219 130.03125 88.332031 C 101.992188 88.320312 73.953125 88.359375 45.910156 88.316406 C 52.542969 74.292969 62.917969 62.074219 75.664062 53.242188 Z M 75.664062 53.242188 "/>
<path style=" stroke:none;fill-rule:nonzero;fill:rgb(0%,0%,0%);fill-opacity:1;" d="M 40.492188 53.839844 C 42.382812 51.699219 44.234375 49.53125 46.113281 47.382812 C 47.035156 48.058594 48.066406 48.65625 48.738281 49.609375 C 47.722656 49.390625 46.539062 48.496094 45.597656 49.371094 C 44.207031 50.578125 43.121094 52.089844 41.882812 53.449219 C 43.320312 54.859375 44.910156 56.097656 46.410156 57.4375 C 47.332031 56.527344 48.1875 55.554688 48.984375 54.539062 C 49.265625 54.140625 49.609375 53.707031 49.511719 53.1875 C 49.371094 52.523438 48.921875 51.976562 48.648438 51.359375 C 50.144531 52.398438 51.554688 53.597656 52.757812 54.964844 C 52.128906 54.789062 51.539062 54.496094 50.90625 54.34375 C 50.1875 54.4375 49.652344 54.980469 49.199219 55.496094 C 48.5 56.320312 47.738281 57.09375 47.101562 57.96875 C 47.695312 58.558594 48.308594 59.132812 48.957031 59.664062 C 50.015625 60.523438 50.945312 61.554688 52.175781 62.1875 C 53.117188 61.46875 53.855469 60.539062 54.617188 59.648438 C 55.164062 58.976562 55.785156 58.316406 56.007812 57.457031 C 56.21875 56.222656 55.589844 55.074219 55.457031 53.871094 C 56.378906 54.910156 56.980469 56.179688 57.636719 57.386719 C 55.929688 59.289062 54.289062 61.25 52.585938 63.15625 C 51.660156 64.230469 50.785156 65.359375 49.71875 66.304688 C 49.980469 65.699219 50.332031 65.128906 50.519531 64.496094 C 50.605469 63.917969 50.113281 63.507812 49.753906 63.136719 C 47.414062 61.113281 45.074219 59.078125 42.738281 57.046875 C 41.988281 56.398438 41.273438 55.636719 40.316406 55.308594 C 39.621094 55.464844 39.109375 56.011719 38.496094 56.34375 C 39.042969 55.417969 39.8125 54.660156 40.492188 53.839844 Z M 40.492188 53.839844 "/>
<path style=" stroke:none;fill-rule:nonzero;fill:rgb(0%,0%,0%);fill-opacity:1;" d="M 163.367188 50.578125 C 164.445312 50.222656 165.265625 50.992188 166.039062 51.605469 C 166.507812 51.492188 166.976562 51.363281 167.460938 51.277344 C 167.523438 52.578125 166.046875 52.785156 165.195312 53.316406 C 164.269531 53.984375 164.546875 55.28125 164.453125 56.265625 C 164.675781 56.460938 164.910156 56.644531 165.152344 56.828125 C 165.125 57.109375 165.109375 57.386719 165.101562 57.664062 C 165.714844 57.914062 166.292969 58.230469 166.863281 58.558594 C 167.277344 58.359375 167.683594 58.144531 168.089844 57.941406 C 168.515625 58.085938 168.9375 58.25 169.363281 58.402344 C 170.332031 57.757812 170.125 56.441406 169.785156 55.503906 C 169.609375 54.855469 168.804688 54.910156 168.339844 55.179688 C 167.515625 55.613281 166.835938 56.414062 165.832031 56.398438 C 165.804688 55.46875 166.601562 54.882812 167.210938 54.3125 C 168.222656 53.425781 169.683594 53.011719 170.933594 53.660156 C 171.28125 54.632812 171.742188 55.625 171.664062 56.683594 C 171.386719 57.871094 170.652344 58.964844 170.789062 60.226562 C 170.929688 61.132812 170.199219 61.855469 170.191406 62.730469 C 170.667969 63.480469 171.734375 63.148438 172.464844 63.058594 C 173.640625 62.597656 174.824219 63.300781 175.734375 64 C 175.738281 64.636719 175.765625 65.289062 175.570312 65.902344 C 174.28125 66.132812 173.167969 66.800781 172.101562 67.527344 C 171.246094 68.144531 170.113281 68.128906 169.253906 68.730469 C 169.035156 69.464844 169.710938 70.171875 169.511719 70.953125 C 169.09375 71.0625 168.671875 71.140625 168.261719 71.261719 C 167.519531 72.042969 166.699219 72.753906 166.078125 73.640625 C 166.554688 73.96875 167.214844 73.882812 167.65625 74.265625 C 167.964844 74.71875 168.085938 75.292969 168.460938 75.699219 C 169.53125 76.261719 170.8125 75.714844 171.941406 76.066406 C 172.742188 76.46875 173.277344 77.238281 173.722656 77.992188 C 173.972656 78.339844 173.570312 78.964844 173.160156 78.726562 C 171.621094 77.949219 169.828125 77.535156 168.125 77.988281 C 168.121094 78.511719 168.375 79.113281 168.023438 79.574219 C 167.289062 80.660156 166.480469 81.710938 165.535156 82.617188 C 164.746094 83.351562 163.617188 82.828125 162.828125 82.382812 C 161.671875 81.613281 160.550781 80.382812 160.605469 78.90625 C 160.578125 78.058594 161.316406 77.476562 161.9375 77.019531 C 162.792969 76.382812 163.886719 76.34375 164.902344 76.195312 C 164.964844 76.046875 165.09375 75.742188 165.160156 75.59375 C 164.875 75.019531 164.144531 74.46875 164.492188 73.769531 C 164.859375 72.703125 165.828125 72.0625 166.761719 71.539062 C 166.46875 71.042969 165.8125 70.585938 165.273438 71.019531 C 164.265625 71.691406 163.078125 72.683594 161.816406 71.988281 C 161.917969 71.253906 162.527344 70.777344 162.984375 70.253906 C 163.269531 69.847656 163.804688 69.847656 164.238281 69.707031 C 164.851562 69.601562 165.207031 68.972656 165.804688 68.832031 C 166.457031 68.871094 167.132812 69.488281 167.742188 68.996094 C 169.535156 67.882812 171.125 66.460938 172.542969 64.902344 C 172.777344 64.519531 173.230469 64.59375 173.617188 64.542969 C 173.558594 64.304688 173.507812 64.070312 173.460938 63.839844 C 173.089844 64.039062 172.742188 64.269531 172.359375 64.425781 C 171.570312 64.375 170.734375 63.71875 169.980469 64.105469 C 169.640625 64.960938 169.253906 65.84375 168.480469 66.402344 C 168.007812 66.5 167.730469 66.042969 167.550781 65.6875 C 168.007812 65.441406 168.4375 65.152344 168.785156 64.761719 C 168.257812 63.925781 167.523438 64.628906 167.195312 65.214844 C 166.628906 65.132812 166.03125 64.910156 165.5 65.222656 C 164.554688 65.679688 163.503906 65.769531 162.496094 65.980469 C 162.28125 66.464844 162.070312 66.949219 161.851562 67.425781 C 161.542969 67.144531 161.238281 66.859375 160.933594 66.578125 C 160.082031 66.824219 158.945312 67.292969 158.347656 66.347656 C 158.929688 65.332031 158.3125 64.3125 158.308594 63.257812 C 157.824219 61.992188 158.023438 60.511719 157.070312 59.445312 C 157.292969 59.132812 157.515625 58.820312 157.738281 58.511719 C 158.261719 58.792969 158.746094 59.164062 159.097656 59.652344 C 159.492188 60.976562 159.753906 62.378906 159.519531 63.761719 C 159.398438 64.410156 159.441406 65.15625 159.898438 65.671875 C 160.449219 65.914062 160.972656 65.523438 161.15625 65.003906 C 161.066406 64.15625 160.660156 63.367188 160.65625 62.503906 C 160.523438 61.324219 160.839844 60.121094 160.484375 58.964844 C 160.414062 58.117188 160.445312 57.257812 160.136719 56.449219 C 160.328125 56.210938 160.527344 55.980469 160.730469 55.746094 C 160.898438 55.816406 161.238281 55.953125 161.410156 56.023438 C 161.488281 56.746094 161.496094 57.484375 161.222656 58.175781 C 160.894531 58.90625 161.601562 59.535156 161.667969 60.25 C 161.792969 61.570312 161.425781 62.914062 161.742188 64.214844 C 162.597656 65.226562 164.109375 64.394531 165.097656 64.011719 C 164.589844 63.492188 163.652344 63.402344 163.433594 62.628906 C 163.199219 61.460938 163.847656 60.367188 163.890625 59.21875 C 163.921875 58.144531 162.761719 57.257812 163.242188 56.167969 C 163.601562 55.121094 163.761719 54.015625 163.738281 52.914062 C 163.789062 52.105469 163.316406 51.382812 163.367188 50.578125 Z M 163.367188 50.578125 "/>
<path style=" stroke:none;fill-rule:nonzero;fill:rgb(0%,0%,0%);fill-opacity:1;" d="M 81.1875 54.660156 C 82.222656 54.132812 83.511719 53.660156 84.632812 54.226562 C 84.917969 54.40625 85.457031 54.503906 85.371094 54.957031 C 85.191406 56.21875 85.429688 57.507812 85.039062 58.742188 C 85.515625 59.4375 86.457031 59.933594 86.382812 60.886719 C 85.9375 61.25 85.394531 61.515625 85.054688 61.996094 C 84.960938 62.375 85.089844 62.65625 85.4375 62.832031 C 86.292969 62.808594 87.0625 62.296875 87.933594 62.34375 C 89.171875 62.347656 90.378906 62.046875 91.585938 61.796875 C 92.191406 62.597656 92.914062 63.558594 92.589844 64.632812 C 91.734375 66.476562 89.878906 67.492188 88.328125 68.671875 C 87.835938 68.988281 87.738281 69.605469 87.453125 70.078125 C 86.910156 70.878906 85.855469 71.148438 85.351562 71.984375 C 85.042969 72.5 84.632812 72.9375 84.191406 73.34375 C 84.660156 75.261719 83.757812 77.347656 84.789062 79.152344 C 84.589844 80.125 84.421875 81.125 84.046875 82.046875 C 83.726562 82.421875 83.339844 82.933594 82.78125 82.773438 C 82.191406 82.367188 81.847656 81.6875 81.234375 81.308594 C 80.613281 80.925781 79.984375 80.550781 79.417969 80.089844 C 79.441406 79.804688 79.464844 79.519531 79.484375 79.242188 C 80.300781 79.21875 81.117188 79.289062 81.914062 79.476562 C 82.21875 79.242188 82.515625 78.996094 82.816406 78.746094 C 82.828125 78.242188 82.855469 77.734375 82.773438 77.234375 C 82.523438 76.855469 82.210938 76.519531 81.917969 76.175781 C 79.871094 77.660156 77.9375 79.984375 75.167969 79.796875 C 75.175781 79.65625 75.195312 79.375 75.203125 79.234375 C 76.429688 78.484375 77.390625 77.390625 78.546875 76.546875 C 80.296875 75.214844 82.210938 73.871094 83.089844 71.765625 C 82.773438 71.476562 82.4375 71.015625 81.941406 71.167969 C 80.976562 71.410156 80.125 71.988281 79.125 72.128906 C 78.550781 72.148438 78.023438 71.867188 77.5 71.667969 C 77.296875 70.898438 77.355469 70.003906 76.789062 69.375 C 76.261719 68.605469 75.445312 68.148438 74.671875 67.671875 C 74.707031 67.4375 74.742188 67.203125 74.78125 66.96875 C 75.40625 66.851562 76.074219 66.734375 76.691406 66.960938 C 77.363281 67.21875 77.960938 67.632812 78.648438 67.867188 C 79.222656 68.0625 79.746094 67.65625 80.289062 67.503906 C 81.175781 67.152344 82.234375 67.015625 82.890625 66.25 C 83.234375 65.867188 83.183594 65.203125 82.714844 64.9375 C 81.976562 64.628906 81.332031 65.296875 80.621094 65.398438 C 79.625 65.523438 78.550781 65.554688 77.664062 65.011719 C 77.675781 64.855469 77.699219 64.554688 77.710938 64.402344 C 79.796875 64.375 82.183594 64.515625 83.828125 62.988281 C 83.574219 62.613281 83.375 62.175781 82.992188 61.914062 C 81.773438 61.566406 80.457031 62.054688 79.265625 61.566406 C 78.871094 61.363281 78.546875 61.054688 78.210938 60.773438 C 78.292969 60.609375 78.457031 60.28125 78.539062 60.117188 C 80.085938 59.886719 82.105469 60.695312 83.261719 59.332031 C 83.300781 58.410156 83.128906 57.464844 82.714844 56.640625 C 82.269531 55.929688 81.617188 55.382812 81.1875 54.660156 Z M 81.1875 54.660156 "/>
<path style=" stroke:none;fill-rule:nonzero;fill:rgb(0%,0%,0%);fill-opacity:1;" d="M 212.691406 54.929688 C 213.417969 55.652344 213.957031 56.527344 214.539062 57.367188 C 215.675781 59 216.835938 60.613281 217.960938 62.253906 C 218.503906 63.058594 219.164062 63.796875 219.523438 64.707031 C 218.671875 65.371094 217.886719 66.15625 216.875 66.582031 C 217.394531 65.628906 218.355469 64.605469 217.757812 63.453125 C 216.867188 61.902344 215.761719 60.484375 214.726562 59.03125 C 213.058594 60.15625 211.386719 61.28125 209.78125 62.503906 C 210.597656 63.722656 211.367188 65 212.371094 66.074219 C 213.109375 66.871094 214.226562 66.246094 215.105469 66.105469 C 213.753906 67.355469 212.1875 68.367188 210.609375 69.296875 C 211.015625 68.632812 211.472656 68.003906 211.804688 67.300781 C 211.246094 65.679688 210.085938 64.378906 209.125 62.992188 C 207.449219 64.050781 205.8125 65.1875 204.242188 66.398438 C 203.535156 66.9375 204.183594 67.804688 204.558594 68.335938 C 205.386719 69.4375 206.054688 70.699219 207.148438 71.570312 C 208.246094 72.320312 209.652344 71.867188 210.890625 72.0625 C 209.746094 72.742188 208.371094 73.214844 207.046875 73.210938 C 205.589844 71.207031 204.207031 69.140625 202.765625 67.121094 C 201.964844 65.917969 201.046875 64.792969 200.363281 63.523438 C 201.027344 63.957031 201.546875 64.671875 202.351562 64.851562 C 203.183594 64.546875 203.898438 63.996094 204.625 63.503906 C 206.691406 62.042969 208.773438 60.601562 210.839844 59.140625 C 211.6875 58.53125 212.621094 57.996094 213.273438 57.164062 C 213.464844 56.371094 212.863281 55.675781 212.691406 54.929688 Z M 212.691406 54.929688 "/>
<path style=" stroke:none;fill-rule:nonzero;fill:rgb(0%,0%,0%);fill-opacity:1;" d="M 135.425781 56.140625 C 135.964844 56 136.507812 56.089844 136.960938 56.417969 C 136.726562 57.246094 136.40625 58.082031 136.523438 58.960938 C 136.808594 60.808594 136.910156 62.71875 136.539062 64.5625 C 136.433594 65.019531 136.582031 65.480469 136.6875 65.921875 C 137.308594 66.097656 137.960938 66.226562 138.609375 66.105469 C 139.414062 65.886719 140.097656 65.390625 140.851562 65.054688 C 141.804688 64.660156 142.882812 64.792969 143.839844 64.425781 C 144.566406 64.203125 144.574219 63.320312 144.878906 62.75 C 145.636719 63.378906 146.09375 64.28125 146.496094 65.164062 C 146.699219 65.609375 146.695312 66.363281 146.078125 66.449219 C 144.628906 66.652344 143.1875 66.910156 141.746094 67.175781 C 140.984375 67.539062 140.425781 68.3125 139.546875 68.425781 C 138.359375 68.691406 136.972656 68.59375 136.023438 69.480469 C 135.695312 70.214844 136.136719 71.035156 135.964844 71.808594 C 135.796875 72.691406 135.804688 73.59375 135.6875 74.480469 C 135.207031 75.535156 134.914062 76.664062 134.988281 77.832031 C 135.066406 78.851562 133.90625 79.320312 133.066406 79.417969 C 131.445312 79.507812 129.835938 79.121094 128.324219 78.5625 C 128.324219 78.269531 128.332031 77.976562 128.332031 77.6875 C 129.363281 77.191406 130.699219 77.753906 131.585938 76.898438 C 132.621094 75.976562 133.507812 74.867188 134.167969 73.644531 C 134.886719 72.238281 134.589844 70.625 134.773438 69.117188 C 134.097656 68.714844 133.21875 68.761719 132.460938 68.542969 C 131.628906 68.410156 131.050781 67.734375 130.289062 67.449219 C 129.292969 67.410156 128.296875 67.5 127.300781 67.480469 C 127.324219 67.339844 127.375 67.054688 127.402344 66.914062 C 129.03125 66.058594 130.867188 66.789062 132.609375 66.671875 C 133.359375 66.609375 134.121094 66.65625 134.875 66.667969 C 135.074219 66.246094 135.554688 65.84375 135.367188 65.332031 C 134.929688 63.90625 135.066406 62.304688 135.71875 60.964844 C 135.667969 60.101562 135.875 59.1875 135.453125 58.390625 C 135.285156 57.65625 135.4375 56.886719 135.425781 56.140625 Z M 135.425781 56.140625 "/>
<path style=" stroke:none;fill-rule:nonzero;fill:rgb(0%,0%,0%);fill-opacity:1;" d="M 107.460938 56.933594 C 107.550781 56.84375 107.726562 56.65625 107.8125 56.566406 C 108.507812 56.640625 109.234375 56.753906 109.824219 57.164062 C 109.613281 57.695312 109.363281 58.210938 109.101562 58.722656 C 109.488281 59.449219 110.378906 59.558594 111.066406 59.191406 C 112.105469 58.820312 113.039062 57.925781 114.214844 58.117188 C 114.292969 58.597656 114.417969 59.097656 114.269531 59.578125 C 113.714844 60.328125 112.757812 60.597656 111.902344 60.835938 C 110.957031 60.992188 109.6875 60.070312 109.058594 61.164062 C 108.847656 62.105469 108.902344 63.136719 108.324219 63.960938 C 107.804688 64.652344 108.054688 65.566406 107.6875 66.3125 C 107.332031 67.234375 106.640625 67.953125 106.15625 68.796875 C 106.289062 69.066406 106.460938 69.308594 106.675781 69.519531 C 107.257812 69.558594 107.632812 69.035156 108.128906 68.824219 C 108.78125 68.863281 108.976562 69.628906 109.316406 70.070312 C 110.132812 69.253906 110.722656 68.164062 110.816406 67.003906 C 110.503906 66.789062 110.234375 66.480469 109.863281 66.371094 C 109.457031 66.4375 109.0625 66.5625 108.65625 66.644531 C 108.628906 65.835938 109.644531 66.007812 110.171875 65.765625 C 112.921875 65.234375 115.507812 63.933594 118.339844 63.859375 C 119.144531 63.644531 120.300781 63.238281 120.875 64.082031 C 121.109375 66.511719 120.417969 68.894531 120.511719 71.320312 C 120.511719 72.023438 120.054688 72.632812 120.058594 73.339844 C 120.09375 74.472656 119.125 75.265625 118.910156 76.339844 C 118.546875 77.515625 118.289062 79.023438 116.976562 79.507812 C 115.636719 78.761719 114.136719 78.132812 113.199219 76.859375 C 114.4375 75.863281 116.191406 77.3125 117.472656 76.375 C 117.984375 75.835938 117.808594 75.027344 117.96875 74.359375 C 118.011719 73.558594 118.609375 72.902344 118.539062 72.078125 C 118.476562 71.433594 119.082031 70.957031 119.023438 70.308594 C 119.015625 69.1875 119.542969 68.144531 119.542969 67.027344 C 119.542969 66.394531 119.09375 65.75 118.441406 65.671875 C 116.863281 65.425781 115.359375 66.085938 113.839844 66.382812 C 113.117188 66.515625 112.292969 66.207031 111.675781 66.722656 C 111.921875 67.074219 112.175781 67.425781 112.417969 67.78125 C 111.910156 68.347656 110.957031 68.847656 111.21875 69.75 C 111.988281 70.363281 112.839844 68.933594 113.613281 69.566406 C 114.023438 69.738281 113.917969 70.351562 113.488281 70.410156 C 112.316406 70.816406 111.050781 70.933594 109.949219 71.53125 C 109.960938 72.117188 110.421875 72.460938 110.863281 72.753906 C 111.375 72.597656 111.914062 72.257812 112.460938 72.464844 C 112.773438 72.789062 112.777344 73.242188 112.789062 73.664062 C 112.0625 74.003906 111.121094 73.96875 110.550781 74.578125 C 110.464844 75.90625 110.703125 77.246094 110.492188 78.570312 C 110.226562 79.777344 109.644531 80.917969 108.804688 81.828125 C 108.636719 81.8125 108.300781 81.773438 108.132812 81.753906 C 108.332031 79.777344 109.253906 77.9375 109.308594 75.949219 C 108.289062 75.257812 107.355469 76.308594 106.339844 76.433594 C 105.589844 76.683594 104.992188 75.890625 105.109375 75.191406 C 106.558594 74.796875 108.101562 74.785156 109.476562 74.128906 C 109.570312 73.558594 109.433594 72.929688 108.84375 72.6875 C 108.128906 72.546875 107.597656 73.121094 107.085938 73.511719 C 106.484375 73.382812 105.894531 73.203125 105.320312 72.980469 C 105.355469 72.261719 106.390625 72.066406 106.21875 71.320312 C 105.832031 70.460938 104.804688 70.257812 104.105469 69.726562 C 103.890625 68.742188 104.929688 68.472656 105.523438 67.96875 C 106.355469 67.164062 106.644531 65.992188 106.734375 64.871094 C 107.136719 63.886719 107.695312 62.96875 108.023438 61.953125 C 107.378906 61.03125 106.214844 61.285156 105.296875 61.546875 C 104.679688 61.777344 104.160156 61.339844 103.6875 61.007812 C 103.714844 60.679688 103.785156 60.363281 103.898438 60.058594 C 105.34375 59.960938 107.023438 60.84375 108.277344 59.769531 C 107.945312 58.847656 107.476562 57.933594 107.460938 56.933594 Z M 107.460938 56.933594 "/>
<path style=" stroke:none;fill-rule:nonzero;fill:rgb(100%,100%,100%);fill-opacity:1;" d="M 164.542969 62.476562 C 164.023438 61.40625 164.25 60.210938 164.777344 59.195312 C 165.945312 59.851562 165.734375 61.390625 165.21875 62.414062 C 165.050781 62.429688 164.710938 62.460938 164.542969 62.476562 Z M 164.542969 62.476562 "/>
<path style=" stroke:none;fill-rule:nonzero;fill:rgb(100%,100%,100%);fill-opacity:1;" d="M 166.402344 59.503906 C 166.746094 59.507812 167.09375 59.523438 167.4375 59.550781 C 167.617188 59.863281 167.796875 60.175781 167.984375 60.488281 C 168.628906 60.316406 168.988281 59.695312 169.433594 59.246094 C 170.09375 59.941406 169.84375 61.101562 169.167969 61.695312 C 168.6875 61.433594 168.210938 61.171875 167.707031 60.972656 C 167.59375 61.304688 167.523438 61.652344 167.480469 62.003906 C 168.199219 62.292969 168.957031 62.519531 169.605469 62.964844 C 168.625 63.949219 167.167969 64.027344 165.867188 63.867188 C 165.847656 63.109375 166.433594 62.507812 166.421875 61.757812 C 166.429688 61.003906 166.378906 60.253906 166.402344 59.503906 Z M 166.402344 59.503906 "/>
<path style=" stroke:none;fill-rule:nonzero;fill:rgb(100%,100%,100%);fill-opacity:1;" d="M 86.179688 63.929688 C 87.445312 64.074219 88.703125 63.300781 89.9375 63.867188 C 89.851562 64.988281 89.050781 65.859375 88.351562 66.675781 C 87.539062 67.527344 86.722656 68.449219 85.640625 68.957031 C 84.851562 68.933594 84.332031 67.921875 84.5 67.179688 C 85.125 67.03125 85.753906 66.941406 86.394531 66.890625 C 86.394531 66.648438 86.390625 66.40625 86.394531 66.167969 C 85.59375 66.054688 84.539062 65.984375 84.316406 65.023438 C 84.476562 64.136719 85.386719 63.847656 86.179688 63.929688 Z M 86.179688 63.929688 "/>
<path style=" stroke:none;fill-rule:nonzero;fill:rgb(0%,0%,0%);fill-opacity:1;" d="M 31.0625 66.589844 C 31.613281 65.652344 32.070312 64.636719 32.84375 63.855469 C 32.679688 64.5625 32.296875 65.253906 32.417969 66 C 32.882812 66.605469 33.554688 66.980469 34.203125 67.355469 C 36.929688 68.910156 39.640625 70.492188 42.359375 72.0625 C 42.964844 72.339844 43.601562 72.894531 44.308594 72.652344 C 44.875 72.269531 45.320312 71.746094 45.835938 71.300781 C 45.378906 72.386719 44.726562 73.375 44.15625 74.402344 C 43.59375 75.351562 43.109375 76.359375 42.382812 77.199219 C 42.511719 76.5 42.859375 75.820312 42.753906 75.09375 C 42.394531 74.472656 41.71875 74.148438 41.132812 73.777344 C 39.847656 73.054688 38.589844 72.292969 37.289062 71.589844 C 36.085938 73.632812 34.847656 75.667969 33.773438 77.785156 C 35.449219 78.773438 37.097656 79.824219 38.863281 80.648438 C 39.867188 81.109375 40.441406 79.859375 41.132812 79.363281 C 40.753906 80.445312 40.097656 81.398438 39.542969 82.394531 C 38.953125 83.371094 38.476562 84.433594 37.6875 85.273438 C 37.847656 84.578125 38.253906 83.910156 38.164062 83.175781 C 37.851562 82.601562 37.257812 82.28125 36.726562 81.945312 C 33.902344 80.308594 31.066406 78.699219 28.253906 77.050781 C 27.613281 76.703125 26.875 76.210938 26.125 76.5 C 25.597656 76.886719 25.191406 77.40625 24.707031 77.835938 C 25.167969 76.6875 25.84375 75.644531 26.453125 74.570312 C 27 73.632812 27.496094 72.652344 28.1875 71.804688 C 28.03125 72.5625 27.699219 73.304688 27.816406 74.089844 C 28.199219 74.621094 28.792969 74.929688 29.339844 75.261719 C 30.574219 75.949219 31.773438 76.699219 33.03125 77.347656 C 34.199219 75.28125 35.507812 73.289062 36.527344 71.148438 C 34.972656 70.238281 33.441406 69.265625 31.820312 68.484375 C 30.742188 67.964844 30.078125 69.167969 29.417969 69.789062 C 29.777344 68.632812 30.476562 67.632812 31.0625 66.589844 Z M 31.0625 66.589844 "/>
<path style=" stroke:none;fill-rule:nonzero;fill:rgb(0%,0%,0%);fill-opacity:1;" d="M 154.066406 65.640625 C 154.277344 65.695312 154.699219 65.808594 154.90625 65.863281 C 156.074219 67.558594 156 70.105469 154.472656 71.558594 C 153.996094 72.167969 152.804688 72.167969 152.59375 71.324219 C 152.691406 70.035156 153.46875 68.96875 154.015625 67.84375 C 154.351562 67.148438 154.046875 66.371094 154.066406 65.640625 Z M 154.066406 65.640625 "/>
<path style=" stroke:none;fill-rule:nonzero;fill:rgb(100%,100%,100%);fill-opacity:1;" d="M 79.265625 68.742188 C 80.195312 68.398438 81.195312 68.398438 82.152344 68.179688 C 82.496094 68.34375 82.945312 68.488281 83.113281 68.863281 C 83.25 69.691406 82.355469 70.125 81.714844 70.375 C 80.96875 70.515625 79.957031 70.671875 79.460938 69.941406 C 79.175781 69.613281 79.335938 69.128906 79.265625 68.742188 Z M 79.265625 68.742188 "/>
<path style=" stroke:none;fill-rule:nonzero;fill:rgb(0%,0%,0%);fill-opacity:1;" d="M 100.910156 69.144531 C 101.179688 69.140625 101.453125 69.132812 101.726562 69.128906 C 102.375 69.984375 102.058594 71.09375 102.128906 72.082031 C 102.039062 72.761719 102.539062 73.277344 102.746094 73.878906 C 102.757812 74.3125 102.519531 74.699219 102.421875 75.113281 C 102.523438 75.914062 103.179688 76.714844 102.699219 77.511719 C 102.644531 77.871094 102.171875 77.746094 101.921875 77.851562 C 101.738281 77.328125 101.640625 76.773438 101.402344 76.269531 C 100.992188 75.722656 100.441406 75.261719 100.207031 74.59375 C 100.171875 73.949219 100.554688 73.386719 100.808594 72.824219 C 101.5625 71.695312 100.582031 70.386719 100.910156 69.144531 Z M 100.910156 69.144531 "/>
<path style=" stroke:none;fill-rule:nonzero;fill:rgb(0.784314%,56.470588%,24.705882%);fill-opacity:1;" d="M 84.484375 69.601562 C 84.894531 69.472656 85.03125 69.613281 84.902344 70.023438 C 84.492188 70.148438 84.347656 70.011719 84.484375 69.601562 Z M 84.484375 69.601562 "/>
<path style=" stroke:none;fill-rule:nonzero;fill:rgb(0%,0%,0%);fill-opacity:1;" d="M 139.824219 72.648438 C 140.652344 72.667969 141.613281 72.589844 142.269531 73.199219 C 142.894531 73.78125 143.742188 74.023438 144.359375 74.617188 C 144.84375 75.050781 145.585938 75.246094 145.84375 75.898438 C 146.417969 77.296875 146.96875 78.78125 146.84375 80.328125 C 145.808594 80.632812 144.914062 79.691406 144.140625 79.128906 C 142.824219 78.164062 143.269531 76.210938 142.039062 75.1875 C 141.347656 74.308594 140.097656 73.792969 139.824219 72.648438 Z M 139.824219 72.648438 "/>
<path style=" stroke:none;fill-rule:nonzero;fill:rgb(0%,0%,0%);fill-opacity:1;" d="M 225.59375 76.316406 C 225.898438 75.574219 225.394531 74.824219 225.46875 74.0625 C 226.304688 75.4375 226.828125 76.96875 227.519531 78.417969 C 228.1875 80.015625 229.089844 81.628906 229 83.417969 C 229.046875 84.964844 227.867188 86.386719 226.410156 86.804688 C 225.453125 86.929688 224.371094 87 223.539062 86.421875 C 222.882812 85.984375 222.335938 85.414062 221.753906 84.882812 C 220.789062 86.386719 219.933594 87.964844 219.019531 89.5 C 218.453125 90.5625 217.722656 91.722656 217.96875 92.980469 C 218.035156 93.433594 218.089844 93.886719 218.109375 94.347656 C 217.320312 93.183594 216.703125 91.859375 216.3125 90.515625 C 217.652344 87.925781 219.242188 85.464844 220.644531 82.90625 C 220.417969 82.421875 220.207031 81.933594 219.996094 81.445312 C 218.691406 81.925781 217.441406 82.539062 216.171875 83.101562 C 215.535156 83.398438 214.871094 83.683594 214.375 84.195312 C 214.144531 84.953125 214.460938 85.71875 214.574219 86.464844 C 213.882812 85.527344 213.519531 84.40625 213.03125 83.359375 C 212.578125 82.332031 212.066406 81.328125 211.734375 80.25 C 212.386719 80.925781 213.003906 82.191406 214.148438 81.65625 C 217.109375 80.449219 220 79.066406 222.941406 77.796875 C 223.851562 77.359375 224.871094 77.050781 225.59375 76.316406 Z M 225.59375 76.316406 "/>
<path style=" stroke:none;fill-rule:nonzero;fill:rgb(0%,0%,0%);fill-opacity:1;" d="M 86.269531 75.734375 C 85.863281 75.359375 86.1875 74.835938 86.351562 74.4375 C 87.5625 74.550781 88.675781 75.03125 89.734375 75.605469 C 90.738281 76.195312 91.976562 75.847656 93.007812 76.335938 C 93.472656 76.902344 93.628906 77.871094 93.011719 78.390625 C 92.195312 79.089844 91.285156 79.675781 90.535156 80.457031 C 90.117188 80.953125 89.417969 80.84375 88.980469 80.441406 C 89.230469 79.664062 89.683594 78.988281 90.164062 78.339844 C 89.25 76.949219 87.328125 76.945312 86.269531 75.734375 Z M 86.269531 75.734375 "/>
<path style=" stroke:none;fill-rule:nonzero;fill:rgb(100%,100%,100%);fill-opacity:1;" d="M 164.949219 77.503906 C 165.789062 77.09375 166.550781 77.9375 166.210938 78.761719 C 165.675781 79.789062 164.710938 80.566406 163.757812 81.195312 C 162.554688 81.734375 161.390625 80.316406 161.707031 79.164062 C 162.667969 78.402344 163.738281 77.765625 164.949219 77.503906 Z M 164.949219 77.503906 "/>
<path style=" stroke:none;fill-rule:nonzero;fill:rgb(97.254902%,80.784314%,1.176471%);fill-opacity:1;" d="M 220.609375 81.140625 C 222.566406 80.28125 224.476562 79.289062 226.503906 78.605469 C 227.050781 79.449219 227.6875 80.339844 227.695312 81.394531 C 227.933594 83.621094 225.210938 85.421875 223.234375 84.457031 C 221.847656 83.890625 221.128906 82.457031 220.609375 81.140625 Z M 220.609375 81.140625 "/>
<path style=" stroke:none;fill-rule:nonzero;fill:rgb(0%,0%,0%);fill-opacity:1;" d="M 20.453125 87.496094 C 21.660156 87.746094 22.910156 87.929688 24.019531 88.492188 C 23.058594 88.625 21.90625 88.421875 21.179688 89.226562 C 20.410156 90.21875 20.171875 91.5 19.929688 92.707031 C 23.554688 93.851562 27.234375 94.8125 30.878906 95.902344 C 31.589844 96.152344 32.34375 96.222656 33.09375 96.140625 C 33.457031 95.570312 33.789062 94.980469 34.195312 94.4375 C 33.972656 95.789062 33.496094 97.085938 33.152344 98.410156 C 32.886719 99.253906 32.761719 100.167969 32.226562 100.894531 C 32.195312 100.171875 32.222656 99.453125 32.191406 98.730469 C 31.609375 98.390625 31 98.097656 30.34375 97.925781 C 26.667969 96.890625 23.003906 95.796875 19.320312 94.785156 C 18.925781 95.984375 18.363281 97.222656 18.5625 98.511719 C 18.914062 99.402344 19.828125 99.859375 20.472656 100.507812 C 19.339844 100.269531 18.253906 99.855469 17.160156 99.46875 C 17.203125 98.835938 17.308594 98.214844 17.5 97.617188 C 18.511719 94.25 19.410156 90.851562 20.453125 87.496094 Z M 20.453125 87.496094 "/>
<path style=" stroke:none;fill-rule:nonzero;fill:rgb(100%,100%,100%);fill-opacity:1;" d="M 37.703125 119.476562 C 38.523438 108.828125 41.171875 98.265625 45.820312 88.632812 C 68.898438 128.1875 91.945312 167.757812 115.011719 207.316406 C 116.332031 209.640625 117.769531 211.898438 119.003906 214.269531 C 109.835938 213.511719 100.769531 211.378906 92.273438 207.835938 C 72.953125 199.878906 56.667969 184.84375 47.183594 166.234375 C 39.789062 151.917969 36.496094 135.53125 37.703125 119.476562 Z M 37.703125 119.476562 "/>
<path style=" stroke:none;fill-rule:nonzero;fill:rgb(100%,100%,100%);fill-opacity:1;" d="M 206.1875 88.660156 C 208.367188 93.027344 209.980469 97.671875 211.316406 102.363281 C 215.988281 119.085938 215.5625 137.171875 210.09375 153.65625 C 205.882812 166.414062 198.707031 178.191406 189.292969 187.78125 C 176.859375 200.589844 160.46875 209.523438 142.929688 212.894531 C 139.652344 213.488281 136.34375 214.105469 133.003906 214.160156 C 150.347656 184.378906 167.714844 154.613281 185.0625 124.839844 C 192.113281 112.78125 199.101562 100.691406 206.1875 88.660156 Z M 206.1875 88.660156 "/>
<path style=" stroke:none;fill-rule:nonzero;fill:rgb(0.784314%,56.470588%,24.705882%);fill-opacity:1;" d="M 59.6875 96.289062 C 61.039062 96.144531 62.398438 96.210938 63.757812 96.207031 C 82.402344 96.207031 101.050781 96.207031 119.699219 96.207031 C 121.1875 96.21875 122.6875 96.105469 124.164062 96.367188 C 124.132812 96.75 124.09375 97.136719 124.054688 97.519531 C 121.847656 98.347656 119.527344 98.832031 117.335938 99.707031 C 117.242188 101.140625 117.199219 102.585938 117.285156 104.019531 C 117.265625 104.515625 117.84375 104.617188 118.164062 104.867188 C 110.597656 106.78125 103.601562 111.386719 99.351562 118 C 97.707031 120.566406 96.382812 123.351562 95.574219 126.296875 C 95.363281 127.015625 95.214844 127.757812 94.902344 128.445312 C 93.53125 128.839844 92.050781 128.488281 90.636719 128.664062 C 90.632812 129.726562 90.625 130.792969 90.570312 131.855469 C 87.59375 131.984375 84.617188 131.859375 81.640625 131.925781 C 81 131.90625 80.140625 132.054688 79.859375 131.300781 C 73.6875 120.75 67.582031 110.160156 61.382812 99.625 C 60.738281 98.554688 59.996094 97.515625 59.6875 96.289062 Z M 59.6875 96.289062 "/>
<path style=" stroke:none;fill-rule:nonzero;fill:rgb(97.254902%,80.784314%,1.176471%);fill-opacity:1;" d="M 125.910156 96.320312 C 126.503906 96.320312 127.101562 96.320312 127.695312 96.320312 C 127.679688 97.175781 127.699219 98.039062 127.878906 98.878906 C 130.148438 99.574219 132.421875 100.257812 134.671875 101.023438 C 134.675781 101.726562 134.675781 102.429688 134.664062 103.132812 C 134 103.144531 133.332031 103.15625 132.671875 103.164062 C 132.664062 104.152344 132.65625 105.144531 132.695312 106.136719 C 141.714844 107.527344 150.132812 113.226562 154.261719 121.445312 C 155.738281 124.199219 156.574219 127.222656 157.320312 130.238281 C 158.53125 130.578125 159.902344 130.285156 161.179688 130.386719 C 161.183594 131.476562 161.179688 132.566406 161.195312 133.65625 C 164.34375 133.714844 167.496094 133.628906 170.640625 133.695312 C 169.226562 136.476562 167.523438 139.105469 165.996094 141.824219 C 160.402344 151.425781 154.792969 161.019531 149.210938 170.625 C 148.464844 171.828125 147.847656 173.113281 147.03125 174.269531 C 145.949219 174.644531 144.765625 174.375 143.640625 174.453125 C 131.117188 174.5625 118.59375 174.503906 106.070312 174.441406 C 105.6875 174.417969 105.3125 174.355469 104.9375 174.296875 C 97.503906 161.5625 90.085938 148.816406 82.652344 136.078125 C 82.183594 135.304688 81.722656 134.523438 81.351562 133.695312 C 85.046875 133.636719 88.734375 133.710938 92.425781 133.65625 C 92.410156 132.574219 92.410156 131.492188 92.433594 130.414062 C 93.738281 130.363281 95.042969 130.394531 96.347656 130.375 C 97.171875 126.484375 98.472656 122.652344 100.632812 119.285156 C 105.046875 112.238281 112.714844 107.4375 120.890625 106.152344 C 121.140625 105.175781 121.03125 104.160156 121.003906 103.167969 C 120.292969 103.152344 119.585938 103.144531 118.875 103.117188 C 118.972656 102.398438 119.027344 101.679688 119.078125 100.960938 C 121.335938 100.25 123.597656 99.554688 125.855469 98.847656 C 125.890625 98.003906 125.890625 97.160156 125.910156 96.320312 Z M 125.910156 96.320312 "/>
<path style=" stroke:none;fill-rule:nonzero;fill:rgb(0.784314%,56.470588%,24.705882%);fill-opacity:1;" d="M 129.511719 96.328125 C 131.105469 96.101562 132.714844 96.226562 134.316406 96.207031 C 153.132812 96.203125 171.949219 96.214844 190.765625 96.203125 C 191.296875 96.210938 191.828125 96.265625 192.363281 96.324219 C 191.9375 97.769531 190.960938 98.949219 190.238281 100.246094 C 184.660156 109.792969 179.105469 119.355469 173.535156 128.90625 C 172.914062 129.894531 172.472656 131.046875 171.574219 131.824219 C 170.671875 131.984375 169.75 131.90625 168.839844 131.914062 C 166.890625 131.875 164.9375 131.976562 162.992188 131.851562 C 162.941406 130.777344 162.9375 129.699219 162.941406 128.625 C 161.554688 128.59375 160.164062 128.667969 158.78125 128.558594 C 158.066406 126.28125 157.453125 123.957031 156.410156 121.796875 C 153.222656 114.804688 147.183594 109.246094 140.074219 106.386719 C 138.558594 105.707031 136.933594 105.316406 135.359375 104.800781 C 135.710938 104.632812 136.066406 104.464844 136.425781 104.304688 C 136.464844 102.8125 136.535156 101.3125 136.308594 99.835938 C 134.277344 98.820312 132.015625 98.421875 129.894531 97.648438 C 129.347656 97.449219 129.539062 96.769531 129.511719 96.328125 Z M 129.511719 96.328125 "/>
<path style=" stroke:none;fill-rule:nonzero;fill:rgb(0%,0%,0%);fill-opacity:1;" d="M 228.960938 99.925781 C 230.152344 98.414062 232.558594 98.164062 234.066406 99.339844 C 235.222656 100.105469 235.804688 101.476562 235.976562 102.8125 C 236.070312 103.847656 235.789062 104.863281 235.683594 105.886719 C 236.082031 106.160156 236.511719 106.398438 236.925781 106.664062 C 235.144531 107.101562 233.355469 107.582031 231.527344 107.757812 C 232.441406 106.988281 233.71875 106.675781 234.398438 105.628906 C 235.078125 104.707031 235.144531 103.5 235.011719 102.398438 C 234.855469 101.101562 233.546875 99.984375 232.230469 100.183594 C 231.625 100.296875 231.089844 100.699219 230.792969 101.234375 C 229.558594 103.414062 229.347656 106.003906 228.171875 108.207031 C 227.367188 109.785156 225.382812 110.632812 223.6875 110.121094 C 222.363281 109.707031 221.253906 108.664062 220.757812 107.371094 C 220.011719 105.6875 220.476562 103.820312 220.402344 102.050781 C 220.070312 101.804688 219.738281 101.558594 219.417969 101.308594 C 221.140625 100.960938 222.847656 100.414062 224.613281 100.351562 C 223.792969 100.980469 222.769531 101.335938 222.074219 102.117188 C 220.875 103.558594 220.789062 105.761719 221.773438 107.335938 C 222.425781 108.308594 223.820312 108.863281 224.886719 108.222656 C 226.191406 107.535156 226.511719 105.972656 226.953125 104.691406 C 227.511719 103.066406 227.902344 101.316406 228.960938 99.925781 Z M 228.960938 99.925781 "/>
<path style=" stroke:none;fill-rule:nonzero;fill:rgb(0%,0%,0%);fill-opacity:1;" d="M 14.4375 114.828125 C 14.503906 112.992188 14.320312 111.085938 14.894531 109.3125 C 15.023438 110.152344 14.980469 111.257812 15.929688 111.636719 C 17.726562 112.105469 19.601562 111.902344 21.425781 112.179688 C 23.203125 112.324219 25.039062 112.273438 26.734375 112.902344 C 28.253906 113.449219 29.304688 114.925781 29.601562 116.480469 C 29.726562 118.101562 29.769531 119.808594 29.113281 121.335938 C 28.449219 123.085938 26.5625 124.21875 24.714844 124.140625 C 22.539062 124.21875 20.382812 123.875 18.214844 123.824219 C 16.933594 123.757812 15.539062 123.320312 14.34375 123.980469 C 14.070312 124.570312 13.957031 125.222656 13.722656 125.828125 C 13.636719 123.589844 13.738281 121.308594 14.160156 119.117188 C 14.398438 119.839844 14.210938 120.945312 15.078125 121.285156 C 16.464844 121.765625 17.96875 121.535156 19.398438 121.792969 C 21.886719 121.78125 24.492188 122.554688 26.890625 121.632812 C 29.386719 120.269531 29.324219 116.496094 27.582031 114.542969 C 26.285156 113.324219 24.359375 113.34375 22.691406 113.21875 C 21.011719 113.011719 19.316406 113.054688 17.640625 112.824219 C 16.8125 112.824219 15.816406 112.574219 15.136719 113.171875 C 14.828125 113.6875 14.6875 114.285156 14.4375 114.828125 Z M 14.4375 114.828125 "/>
<path style=" stroke:none;fill-rule:nonzero;fill:rgb(0%,0%,0%);fill-opacity:1;" d="M 236.851562 120.484375 C 237.46875 119.964844 237.382812 119.042969 237.742188 118.363281 C 237.882812 119.644531 237.75 120.9375 237.894531 122.21875 C 237.984375 123.175781 237.992188 124.140625 237.894531 125.09375 C 237.628906 124.472656 237.511719 123.78125 237.140625 123.207031 C 236.75 122.804688 236.152344 122.847656 235.636719 122.828125 C 233.449219 122.835938 231.257812 122.878906 229.066406 122.894531 C 227.363281 122.921875 225.644531 122.820312 223.964844 123.152344 C 223.054688 123.441406 223.179688 124.625 222.753906 125.335938 C 222.613281 123.097656 222.589844 120.84375 222.6875 118.605469 C 222.945312 119.183594 223.023438 119.832031 223.335938 120.390625 C 223.621094 120.902344 224.265625 120.824219 224.765625 120.855469 C 227.378906 120.859375 229.984375 120.804688 232.597656 120.792969 C 234.015625 120.769531 235.464844 120.847656 236.851562 120.484375 Z M 236.851562 120.484375 "/>
<path style=" stroke:none;fill-rule:nonzero;fill:rgb(0%,0%,0%);fill-opacity:1;" d="M 125.265625 121.707031 C 125.800781 121.542969 126.378906 121.234375 126.941406 121.523438 C 133.851562 123.894531 140.800781 126.152344 147.691406 128.589844 C 133.480469 128.597656 119.273438 128.625 105.066406 128.578125 C 111.777344 126.230469 118.539062 124.023438 125.265625 121.707031 Z M 125.265625 121.707031 "/>
<path style=" stroke:none;fill-rule:nonzero;fill:rgb(0%,0%,0%);fill-opacity:1;" d="M 104.792969 130.621094 C 119.1875 130.597656 133.582031 130.597656 147.980469 130.621094 C 148.023438 131.648438 148.03125 132.683594 147.964844 133.714844 C 133.574219 133.730469 119.1875 133.730469 104.800781 133.714844 C 104.734375 132.683594 104.738281 131.648438 104.792969 130.621094 Z M 104.792969 130.621094 "/>
<path style=" stroke:none;fill-rule:nonzero;fill:rgb(0%,0%,0%);fill-opacity:1;" d="M 234.308594 133.859375 C 235.503906 133.820312 236.6875 134.027344 237.84375 134.3125 C 237.824219 136.296875 237.453125 138.246094 237.238281 140.210938 C 236.949219 142.332031 236.765625 144.460938 236.453125 146.574219 C 235.222656 146.519531 233.9375 146.667969 232.78125 146.160156 C 233.65625 145.914062 234.742188 145.917969 235.347656 145.132812 C 236.089844 144.019531 236.027344 142.621094 236.089844 141.339844 C 232.539062 140.890625 228.984375 140.492188 225.4375 140.023438 C 224.527344 139.957031 223.59375 139.835938 222.691406 140.023438 C 222.21875 140.566406 222.136719 141.320312 221.851562 141.960938 C 221.730469 140.320312 222.105469 138.714844 222.257812 137.089844 C 222.367188 136.464844 222.28125 135.746094 222.769531 135.261719 C 222.804688 136.199219 222.683594 137.546875 223.933594 137.675781 C 228.078125 138.308594 232.257812 138.734375 236.421875 139.253906 C 236.558594 138.125 236.863281 136.988281 236.714844 135.84375 C 236.4375 134.695312 235.21875 134.355469 234.308594 133.859375 Z M 234.308594 133.859375 "/>
<path style=" stroke:none;fill-rule:nonzero;fill:rgb(0%,0%,0%);fill-opacity:1;" d="M 21.257812 135.164062 C 24.601562 134.375 28.386719 136.050781 29.917969 139.152344 C 30.90625 141.214844 30.96875 143.78125 29.847656 145.800781 C 28 149.371094 23.257812 150.820312 19.589844 149.5 C 16.796875 148.457031 14.714844 145.648438 14.730469 142.640625 C 14.582031 138.960938 17.683594 135.667969 21.257812 135.164062 Z M 21.257812 135.164062 "/>
<path style=" stroke:none;fill-rule:nonzero;fill:rgb(0%,0%,0%);fill-opacity:1;" d="M 104.855469 135.703125 C 119.214844 135.703125 133.574219 135.703125 147.9375 135.703125 C 148.109375 140.644531 147.941406 145.601562 148.023438 150.546875 C 148.777344 150.550781 149.53125 150.550781 150.289062 150.578125 C 150.289062 151.226562 150.289062 151.878906 150.273438 152.53125 C 134.34375 152.566406 118.410156 152.5625 102.476562 152.535156 C 102.472656 151.878906 102.472656 151.21875 102.507812 150.566406 C 103.257812 150.558594 104.011719 150.566406 104.761719 150.507812 C 104.75 146.539062 104.761719 142.570312 104.757812 138.601562 C 104.753906 137.632812 104.714844 136.664062 104.855469 135.703125 Z M 104.855469 135.703125 "/>
<path style=" stroke:none;fill-rule:nonzero;fill:rgb(97.254902%,80.784314%,1.176471%);fill-opacity:1;" d="M 22.777344 137.472656 C 24.296875 137.378906 25.945312 137.207031 27.34375 137.953125 C 28.898438 138.710938 29.96875 140.386719 29.878906 142.132812 C 29.949219 143.886719 28.617188 145.332031 27.15625 146.113281 C 24.953125 147.285156 22.386719 147.746094 19.90625 147.507812 C 18.636719 147.308594 17.328125 146.816406 16.5 145.789062 C 15.21875 144.183594 15.136719 141.605469 16.601562 140.085938 C 18.179688 138.382812 20.5625 137.796875 22.777344 137.472656 Z M 22.777344 137.472656 "/>
<path style=" stroke:none;fill-rule:nonzero;fill:rgb(97.254902%,80.784314%,1.176471%);fill-opacity:1;" d="M 109.597656 138.9375 C 112.472656 138.898438 115.351562 138.898438 118.226562 138.9375 C 118.300781 142.804688 118.257812 146.667969 118.25 150.539062 C 115.351562 150.566406 112.457031 150.570312 109.5625 150.535156 C 109.5625 146.667969 109.5 142.800781 109.597656 138.9375 Z M 109.597656 138.9375 "/>
<path style=" stroke:none;fill-rule:nonzero;fill:rgb(97.254902%,80.784314%,1.176471%);fill-opacity:1;" d="M 122.125 138.910156 C 124.976562 138.925781 127.828125 138.894531 130.679688 138.925781 C 130.6875 142.433594 130.667969 145.9375 130.691406 149.441406 C 130.625 149.792969 130.816406 150.261719 130.519531 150.539062 C 127.710938 150.582031 124.902344 150.546875 122.09375 150.550781 C 122.089844 146.671875 122.023438 142.789062 122.125 138.910156 Z M 122.125 138.910156 "/>
<path style=" stroke:none;fill-rule:nonzero;fill:rgb(97.254902%,80.784314%,1.176471%);fill-opacity:1;" d="M 134.53125 138.933594 C 137.414062 138.898438 140.296875 138.90625 143.179688 138.933594 C 143.238281 142.796875 143.203125 146.667969 143.195312 150.535156 C 140.296875 150.570312 137.402344 150.570312 134.507812 150.535156 C 134.503906 146.667969 134.457031 142.796875 134.53125 138.933594 Z M 134.53125 138.933594 "/>
<path style=" stroke:none;fill-rule:nonzero;fill:rgb(0%,0%,0%);fill-opacity:1;" d="M 102.492188 154.292969 C 118.417969 154.28125 134.34375 154.28125 150.269531 154.292969 C 150.304688 155.507812 150.3125 156.722656 150.269531 157.9375 C 134.34375 157.945312 118.417969 157.945312 102.492188 157.9375 C 102.449219 156.722656 102.453125 155.507812 102.492188 154.292969 Z M 102.492188 154.292969 "/>
<path style=" stroke:none;fill-rule:nonzero;fill:rgb(0%,0%,0%);fill-opacity:1;" d="M 216.648438 160.136719 C 217.144531 158.71875 217.496094 157.246094 218.125 155.878906 C 218.136719 156.503906 218.0625 157.128906 218.125 157.753906 C 218.492188 158.589844 219.542969 158.6875 220.296875 159.007812 C 221.363281 159.28125 222.390625 159.859375 223.5 159.894531 C 226.246094 159.179688 228.984375 158.433594 231.710938 157.652344 C 232.667969 157.402344 233.265625 156.566406 233.972656 155.949219 C 233.691406 157.167969 233.246094 158.34375 232.871094 159.542969 C 232.554688 160.5 232.316406 161.507812 231.792969 162.382812 C 231.703125 161.597656 232.085938 160.039062 230.824219 160.167969 C 228.511719 160.566406 226.269531 161.324219 223.992188 161.90625 C 224.84375 163.332031 226.066406 164.484375 227.0625 165.804688 C 227.695312 166.457031 228.265625 167.511719 229.308594 167.460938 C 229.824219 167.1875 230.164062 166.683594 230.59375 166.300781 C 230.105469 168.054688 229.691406 169.871094 228.816406 171.476562 C 228.734375 170.824219 228.785156 170.152344 228.621094 169.507812 C 228.238281 168.480469 227.472656 167.667969 226.792969 166.835938 C 225.691406 165.492188 224.566406 164.179688 223.492188 162.816406 C 222.753906 161.679688 221.285156 161.636719 220.140625 161.164062 C 219.191406 160.875 218.175781 160.402344 217.171875 160.710938 C 216.746094 161.195312 216.46875 161.789062 216.113281 162.324219 C 216.09375 161.558594 216.421875 160.847656 216.648438 160.136719 Z M 216.648438 160.136719 "/>
<path style=" stroke:none;fill-rule:nonzero;fill:rgb(0%,0%,0%);fill-opacity:1;" d="M 27.8125 160.535156 C 28.199219 158.753906 29.875 157.230469 31.746094 157.339844 C 33.753906 157.3125 35.429688 158.929688 36.035156 160.753906 C 36.550781 161.976562 36.28125 163.347656 36.695312 164.589844 C 36.925781 164.980469 37.46875 165.039062 37.835938 165.277344 C 36.195312 165.871094 34.644531 166.757812 32.917969 167.085938 C 33.820312 166.113281 35.167969 165.40625 35.464844 164.007812 C 36.027344 162.074219 35.132812 159.441406 32.996094 158.945312 C 31.777344 158.726562 30.59375 159.675781 30.277344 160.824219 C 29.648438 162.976562 29.742188 165.277344 29.050781 167.417969 C 28.703125 168.511719 27.890625 169.492188 26.792969 169.886719 C 25.035156 170.660156 22.847656 169.71875 21.910156 168.105469 C 21.007812 166.761719 21.035156 165.109375 20.992188 163.5625 C 20.574219 163.375 20.15625 163.199219 19.742188 163.015625 C 21.378906 162.269531 23.027344 161.5 24.773438 161.050781 C 23.816406 162.035156 22.445312 162.777344 22.109375 164.214844 C 21.894531 165.402344 21.917969 166.785156 22.761719 167.742188 C 23.414062 168.550781 24.632812 169.023438 25.601562 168.496094 C 26.199219 168.238281 26.519531 167.628906 26.710938 167.046875 C 27.375 164.933594 27.335938 162.683594 27.8125 160.535156 Z M 27.8125 160.535156 "/>
<path style=" stroke:none;fill-rule:nonzero;fill:rgb(0%,0%,0%);fill-opacity:1;" d="M 103.679688 159.875 C 118.652344 159.855469 133.621094 159.875 148.597656 159.867188 C 148.609375 163.417969 148.597656 166.96875 148.601562 170.523438 C 146.683594 170.515625 144.765625 170.53125 142.847656 170.511719 C 142.75 168.09375 142.84375 165.675781 142.796875 163.257812 C 140.929688 163.199219 139.058594 163.183594 137.195312 163.269531 C 137.15625 165.683594 137.238281 168.101562 137.152344 170.519531 C 134.644531 170.519531 132.136719 170.527344 129.628906 170.511719 C 129.617188 168.089844 129.652344 165.664062 129.609375 163.242188 C 127.625 163.210938 125.636719 163.207031 123.652344 163.238281 C 123.601562 165.664062 123.644531 168.089844 123.632812 170.515625 C 120.914062 170.53125 118.199219 170.511719 115.484375 170.523438 C 115.4375 168.101562 115.566406 165.675781 115.414062 163.253906 C 113.441406 163.183594 111.472656 163.222656 109.5 163.234375 C 109.445312 165.65625 109.484375 168.085938 109.480469 170.511719 C 107.546875 170.527344 105.613281 170.527344 103.679688 170.511719 C 103.683594 166.964844 103.675781 163.417969 103.679688 159.875 Z M 103.679688 159.875 "/>
<path style=" stroke:none;fill-rule:nonzero;fill:rgb(0%,0%,0%);fill-opacity:1;" d="M 172.203125 159.800781 C 172.726562 159.820312 173.25 159.839844 173.777344 159.859375 C 173.585938 160.367188 173.453125 160.890625 173.375 161.425781 C 175.414062 161.464844 177.449219 161.464844 179.484375 161.382812 C 179.480469 161.800781 179.476562 162.222656 179.476562 162.644531 C 177.464844 162.5625 175.460938 162.402344 173.445312 162.496094 C 173.429688 162.976562 173.425781 163.460938 173.425781 163.945312 C 175.042969 163.921875 176.660156 163.980469 178.28125 163.898438 C 178.386719 165.707031 178.300781 167.53125 178.332031 169.34375 C 178.300781 170.195312 178.410156 171.0625 178.246094 171.910156 C 177.683594 172.46875 176.8125 172.398438 176.089844 172.542969 C 175.910156 172.09375 175.710938 171.648438 175.476562 171.226562 C 176.058594 171.152344 176.882812 171.503906 177.214844 170.859375 C 177.277344 168.890625 177.21875 166.917969 177.238281 164.945312 C 176.300781 165.007812 175.296875 164.746094 174.40625 165.09375 C 174.535156 165.472656 175.035156 165.410156 175.339844 165.570312 C 174.953125 166.023438 174.601562 166.507812 174.28125 167.007812 C 174.929688 167.027344 175.582031 167.019531 176.234375 167.003906 C 176.242188 167.253906 176.257812 167.746094 176.265625 167.996094 C 175.289062 167.957031 174.3125 167.941406 173.339844 167.949219 C 173.304688 168.304688 173.296875 168.667969 173.304688 169.03125 C 174.296875 169.050781 175.292969 169.042969 176.285156 169.007812 C 176.285156 169.242188 176.285156 169.714844 176.285156 169.949219 C 175.296875 169.945312 174.3125 169.953125 173.324219 169.953125 C 173.300781 170.726562 173.316406 171.507812 173.335938 172.285156 C 172.957031 172.273438 172.578125 172.269531 172.203125 172.269531 C 172.242188 171.496094 172.273438 170.71875 172.277344 169.949219 C 171.289062 169.941406 170.300781 169.960938 169.316406 169.984375 C 169.285156 169.660156 169.265625 169.34375 169.269531 169.023438 C 170.269531 169.027344 171.277344 169.050781 172.28125 169.035156 C 172.269531 168.667969 172.265625 168.304688 172.265625 167.941406 C 171.386719 167.9375 170.511719 167.972656 169.636719 167.976562 C 169.640625 167.765625 169.644531 167.339844 169.644531 167.125 C 170.8125 167.148438 171.976562 167.1875 173.140625 167.144531 C 173.699219 166.65625 173.933594 165.796875 173.925781 165.074219 C 173.234375 164.726562 172.289062 165.042969 171.507812 164.929688 C 171.695312 165.394531 171.972656 165.824219 172.09375 166.316406 C 172.011719 166.734375 171.519531 166.683594 171.203125 166.804688 C 171.03125 166.367188 170.828125 165.953125 170.660156 165.519531 C 170.898438 165.496094 171.648438 165.320312 171.167969 165.015625 C 170.398438 164.808594 169.550781 164.988281 168.753906 164.945312 C 168.746094 167.464844 168.738281 169.984375 168.769531 172.503906 C 168.355469 172.496094 167.933594 172.492188 167.523438 172.5 C 167.699219 169.644531 167.769531 166.757812 167.507812 163.90625 C 169.085938 163.945312 170.660156 163.953125 172.238281 163.933594 C 172.230469 163.445312 172.222656 162.964844 172.21875 162.480469 C 170.28125 162.429688 168.355469 162.527344 166.421875 162.664062 C 166.484375 162.269531 166.273438 161.769531 166.570312 161.460938 C 168.457031 161.480469 170.34375 161.488281 172.230469 161.472656 C 172.226562 160.914062 172.21875 160.359375 172.203125 159.800781 Z M 172.203125 159.800781 "/>
<path style=" stroke:none;fill-rule:nonzero;fill:rgb(0%,0%,0%);fill-opacity:1;" d="M 187.496094 159.925781 C 187.980469 159.890625 188.472656 159.859375 188.964844 159.839844 C 189.117188 160.375 189.289062 160.90625 189.414062 161.449219 C 191.324219 161.515625 193.238281 161.488281 195.148438 161.417969 C 195.144531 161.828125 195.140625 162.238281 195.144531 162.652344 C 191.84375 162.371094 188.527344 162.515625 185.21875 162.476562 C 184.15625 162.441406 183.105469 162.675781 182.042969 162.59375 C 182.046875 162.222656 182.042969 161.851562 182.039062 161.484375 C 184.03125 161.464844 186.027344 161.5 188.023438 161.464844 C 187.851562 160.949219 187.667969 160.4375 187.496094 159.925781 Z M 187.496094 159.925781 "/>
<path style=" stroke:none;fill-rule:nonzero;fill:rgb(0%,0%,0%);fill-opacity:1;" d="M 59.96875 163.050781 C 60.398438 162.601562 60.496094 161.644531 61.320312 161.886719 C 61.332031 164.539062 61.34375 167.195312 61.316406 169.847656 C 61.050781 170.109375 60.632812 169.953125 60.300781 170.023438 C 60.277344 168.09375 60.304688 166.167969 60.285156 164.238281 C 59.601562 164.226562 58.914062 164.265625 58.230469 164.199219 C 58.183594 164.070312 58.089844 163.816406 58.042969 163.6875 C 58.683594 163.476562 59.378906 163.402344 59.96875 163.050781 Z M 59.96875 163.050781 "/>
<path style=" stroke:none;fill-rule:nonzero;fill:rgb(0%,0%,0%);fill-opacity:1;" d="M 66.496094 167.0625 C 64.402344 166.238281 64.667969 162.644531 66.832031 162.078125 C 68.363281 161.476562 70.269531 162.367188 70.625 164.015625 C 70.894531 165.71875 70.917969 167.679688 69.832031 169.125 C 68.589844 170.765625 65.476562 170.367188 65.050781 168.210938 C 65.398438 168.183594 65.742188 168.160156 66.085938 168.125 C 66.320312 168.980469 67.109375 169.640625 68.03125 169.414062 C 69.25 169.050781 69.53125 167.644531 69.773438 166.5625 C 68.816406 167.195312 67.597656 167.511719 66.496094 167.0625 Z M 66.496094 167.0625 "/>
<path style=" stroke:none;fill-rule:nonzero;fill:rgb(0%,0%,0%);fill-opacity:1;" d="M 74.21875 162.195312 C 75.46875 161.523438 77.175781 162.042969 77.8125 163.320312 C 78.65625 165.066406 78.671875 167.234375 77.710938 168.941406 C 76.710938 170.554688 74.042969 170.492188 73.109375 168.839844 C 72.3125 167.304688 72.304688 165.441406 72.847656 163.820312 C 73.085938 163.140625 73.546875 162.492188 74.21875 162.195312 Z M 74.21875 162.195312 "/>
<path style=" stroke:none;fill-rule:nonzero;fill:rgb(0%,0%,0%);fill-opacity:1;" d="M 80.613281 163.015625 C 81.515625 161.78125 83.382812 161.617188 84.660156 162.332031 C 85.804688 162.96875 86.273438 164.730469 85.359375 165.746094 C 84.226562 167.195312 81.804688 167.167969 81.113281 169.019531 C 82.683594 169.253906 84.277344 169.089844 85.855469 169.144531 C 85.839844 169.425781 85.832031 169.710938 85.824219 169.996094 C 83.859375 169.988281 81.894531 170.003906 79.929688 169.988281 C 79.949219 168.730469 80.609375 167.511719 81.75 166.941406 C 82.792969 166.230469 84.398438 165.941406 84.75 164.542969 C 84.839844 163.410156 83.738281 162.628906 82.679688 162.859375 C 81.617188 162.789062 81.3125 163.945312 81.113281 164.757812 C 80.792969 164.753906 80.472656 164.75 80.152344 164.753906 C 80.222656 164.15625 80.203125 163.496094 80.613281 163.015625 Z M 80.613281 163.015625 "/>
<path style=" stroke:none;fill-rule:nonzero;fill:rgb(100%,100%,100%);fill-opacity:1;" d="M 67.378906 162.890625 C 68.195312 162.703125 69.222656 162.992188 69.449219 163.894531 C 70.027344 165.125 68.953125 166.765625 67.53125 166.433594 C 65.667969 166.378906 65.628906 163.148438 67.378906 162.890625 Z M 67.378906 162.890625 "/>
<path style=" stroke:none;fill-rule:nonzero;fill:rgb(100%,100%,100%);fill-opacity:1;" d="M 74.949219 162.90625 C 75.507812 162.796875 76.230469 162.792969 76.589844 163.320312 C 77.433594 164.433594 77.332031 165.921875 77.234375 167.238281 C 77.148438 168.210938 76.550781 169.488281 75.375 169.304688 C 74.28125 169.367188 73.8125 168.136719 73.722656 167.238281 C 73.664062 166.074219 73.519531 164.824219 74.039062 163.738281 C 74.238281 163.378906 74.511719 162.976562 74.949219 162.90625 Z M 74.949219 162.90625 "/>
<path style=" stroke:none;fill-rule:nonzero;fill:rgb(0%,0%,0%);fill-opacity:1;" d="M 184.09375 163.710938 C 187.101562 163.730469 190.105469 163.730469 193.113281 163.710938 C 193.09375 165.039062 193.152344 166.367188 193.082031 167.691406 C 191.851562 167.433594 190.59375 167.515625 189.347656 167.515625 C 189.292969 168.832031 189.398438 170.15625 189.292969 171.476562 C 188.925781 172.246094 187.953125 172.292969 187.230469 172.480469 C 187.011719 172.054688 186.785156 171.636719 186.535156 171.234375 C 187.050781 171.222656 187.570312 171.207031 188.089844 171.179688 C 188.160156 169.957031 188.121094 168.734375 188.117188 167.511719 C 186.765625 167.515625 185.417969 167.492188 184.070312 167.550781 C 184.152344 166.273438 184.136719 164.988281 184.09375 163.710938 Z M 184.09375 163.710938 "/>
<path style=" stroke:none;fill-rule:nonzero;fill:rgb(100%,100%,100%);fill-opacity:1;" d="M 185.328125 164.757812 C 187.519531 164.695312 189.710938 164.742188 191.902344 164.730469 C 191.90625 165.363281 191.90625 165.992188 191.894531 166.625 C 189.707031 166.585938 187.511719 166.726562 185.332031 166.542969 C 185.324219 165.945312 185.328125 165.351562 185.328125 164.757812 Z M 185.328125 164.757812 "/>
<path style=" stroke:none;fill-rule:nonzero;fill:rgb(0%,0%,0%);fill-opacity:1;" d="M 182.113281 171.074219 C 183.324219 170.304688 184.46875 169.445312 185.433594 168.378906 C 185.792969 168.574219 186.15625 168.773438 186.523438 168.96875 C 185.425781 169.875 184.351562 170.824219 183.164062 171.621094 C 182.808594 171.441406 182.457031 171.257812 182.113281 171.074219 Z M 182.113281 171.074219 "/>
<path style=" stroke:none;fill-rule:nonzero;fill:rgb(0%,0%,0%);fill-opacity:1;" d="M 190.886719 169.238281 C 190.683594 168.738281 191.414062 168.703125 191.742188 168.617188 C 192.886719 169.132812 193.871094 169.964844 194.8125 170.785156 C 194.394531 170.980469 193.917969 171.558594 193.4375 171.207031 C 192.597656 170.539062 191.734375 169.898438 190.886719 169.238281 Z M 190.886719 169.238281 "/>
<path style=" stroke:none;fill-rule:nonzero;fill:rgb(0.784314%,56.470588%,24.705882%);fill-opacity:1;" d="M 107.042969 177.679688 C 109.492188 177.457031 111.953125 177.652344 114.40625 177.597656 C 120.621094 177.820312 126.839844 177.746094 133.054688 177.726562 C 137.023438 177.769531 141 177.378906 144.964844 177.691406 C 144.667969 178.523438 144.226562 179.289062 143.753906 180.035156 C 138.558594 188.875 133.414062 197.753906 128.246094 206.613281 C 127.5 207.832031 126.855469 209.117188 126 210.269531 C 123.964844 207.242188 122.324219 203.972656 120.398438 200.878906 C 116.503906 194.125 112.542969 187.40625 108.628906 180.660156 C 108.058594 179.6875 107.382812 178.765625 107.042969 177.679688 Z M 107.042969 177.679688 "/>
<path style=" stroke:none;fill-rule:nonzero;fill:rgb(0%,0%,0%);fill-opacity:1;" d="M 51.28125 193.960938 C 52.410156 193.777344 53.640625 193.761719 54.671875 194.316406 C 56.230469 195.125 57.402344 196.789062 57.367188 198.582031 C 57.5 200.820312 55.796875 202.984375 53.613281 203.449219 C 52.476562 203.640625 51.246094 203.597656 50.21875 203.027344 C 48.617188 202.179688 47.507812 200.414062 47.679688 198.578125 C 47.566406 196.425781 49.242188 194.476562 51.28125 193.960938 Z M 51.28125 193.960938 "/>
<path style=" stroke:none;fill-rule:nonzero;fill:rgb(0%,0%,0%);fill-opacity:1;" d="M 198.691406 193.980469 C 200.121094 193.679688 201.71875 193.824219 202.898438 194.761719 C 204.15625 195.691406 204.992188 197.234375 204.824219 198.828125 C 204.945312 201.019531 203.179688 203.003906 201.09375 203.460938 C 200.007812 203.628906 198.84375 203.589844 197.847656 203.085938 C 196.203125 202.25 195.023438 200.445312 195.140625 198.574219 C 195.125 196.480469 196.6875 194.527344 198.691406 193.980469 Z M 198.691406 193.980469 "/>
<path style=" stroke:none;fill-rule:nonzero;fill:rgb(0%,0%,0%);fill-opacity:1;" d="M 169.460938 206.265625 C 170.683594 206.085938 171.773438 206.996094 172.402344 207.957031 C 172.777344 208.707031 171.992188 209.328125 171.503906 209.796875 C 170.839844 210.265625 170.355469 211.039062 169.515625 211.207031 C 169.410156 210.480469 169.796875 209.835938 169.953125 209.15625 C 169.777344 208.191406 169.261719 207.273438 169.460938 206.265625 Z M 169.460938 206.265625 "/>
<path style=" stroke:none;fill-rule:nonzero;fill:rgb(0%,0%,0%);fill-opacity:1;" d="M 165.046875 211.234375 C 165.429688 210.769531 165.835938 210.292969 166.429688 210.097656 C 166.367188 210.996094 166.734375 212.152344 165.929688 212.816406 C 164.664062 213.25 163.523438 212 163.269531 210.867188 C 163.863281 210.972656 164.457031 211.085938 165.046875 211.234375 Z M 165.046875 211.234375 "/>
<path style=" stroke:none;fill-rule:nonzero;fill:rgb(0%,0%,0%);fill-opacity:1;" d="M 170.851562 211.664062 C 171.371094 211.441406 171.945312 211.535156 172.492188 211.554688 C 172.488281 211.902344 172.734375 212.417969 172.332031 212.644531 C 171.445312 213.226562 170.433594 213.578125 169.4375 213.929688 C 169.488281 214.339844 169.582031 214.746094 169.691406 215.152344 C 170.875 215.390625 171.671875 214.265625 172.800781 214.226562 C 172.796875 214.523438 172.792969 214.824219 172.796875 215.128906 C 171.855469 215.90625 170.320312 216.136719 169.972656 217.472656 C 170.09375 218.035156 170.496094 218.488281 170.789062 218.972656 C 169.46875 220.363281 167.785156 221.3125 166.273438 222.460938 C 165.625 222.972656 164.847656 222.445312 164.3125 222.03125 C 164.503906 221.761719 164.765625 221.609375 165.089844 221.582031 C 166.160156 221.511719 167.011719 220.804688 167.9375 220.34375 C 168.390625 220.132812 168.566406 219.644531 168.785156 219.234375 C 168.480469 218.90625 168.175781 218.578125 167.867188 218.257812 C 166.867188 218.644531 165.691406 220.046875 164.648438 218.996094 C 165.886719 218.175781 167.238281 217.515625 168.320312 216.476562 C 168.097656 216.085938 167.878906 215.464844 167.316406 215.570312 C 166.402344 215.746094 165.929688 216.828125 165.042969 217.074219 C 164.660156 216.996094 164.148438 216.910156 164.066406 216.460938 C 164.164062 216.089844 164.523438 215.921875 164.828125 215.753906 C 165.96875 215.140625 167.191406 214.652344 168.175781 213.789062 C 169.046875 213.058594 169.765625 212.089844 170.851562 211.664062 Z M 170.851562 211.664062 "/>
<path style=" stroke:none;fill-rule:nonzero;fill:rgb(0%,0%,0%);fill-opacity:1;" d="M 77.238281 214.96875 C 78.292969 215.269531 79.304688 216.261719 79.074219 217.445312 C 79.125 219.574219 76.402344 220.230469 76.121094 222.203125 C 77.140625 222.527344 78.226562 222.457031 79.269531 222.675781 C 80.90625 223.054688 82.503906 223.628906 84.167969 223.871094 C 85.179688 224.078125 85.972656 223.234375 86.925781 223.128906 C 88.019531 223.699219 88.957031 224.613281 89.378906 225.792969 C 89.082031 226.523438 88.242188 226.851562 87.550781 226.441406 C 85.089844 225.351562 82.523438 224.546875 79.96875 223.714844 C 78.210938 223.058594 76.382812 223.890625 74.589844 223.855469 C 73.753906 223.636719 73.519531 222.644531 73.746094 221.910156 C 74.351562 220.796875 75.492188 220.078125 76.015625 218.914062 C 76.351562 218.121094 76.855469 217.421875 77.234375 216.65625 C 77.265625 216.09375 77.210938 215.527344 77.238281 214.96875 Z M 77.238281 214.96875 "/>
<path style=" stroke:none;fill-rule:nonzero;fill:rgb(0%,0%,0%);fill-opacity:1;" d="M 92.890625 215.746094 C 94.40625 215.710938 94.765625 217.425781 95.160156 218.558594 C 95.441406 219.277344 94.609375 219.753906 93.988281 219.664062 C 93.078125 219.757812 92.28125 219.226562 91.785156 218.507812 C 92.339844 217.671875 92.734375 216.742188 92.890625 215.746094 Z M 92.890625 215.746094 "/>
<path style=" stroke:none;fill-rule:nonzero;fill:rgb(0%,0%,0%);fill-opacity:1;" d="M 174.0625 216.15625 C 174.484375 215.839844 175 215.769531 175.511719 215.84375 C 175.480469 216.179688 175.636719 216.628906 175.292969 216.863281 C 174.515625 217.457031 173.5625 217.78125 172.796875 218.398438 C 172.332031 218.832031 171.664062 218.609375 171.117188 218.535156 C 171.71875 217.359375 173.007812 216.839844 174.0625 216.15625 Z M 174.0625 216.15625 "/>
<path style=" stroke:none;fill-rule:nonzero;fill:rgb(0%,0%,0%);fill-opacity:1;" d="M 108.679688 216.457031 C 108.785156 216.292969 108.996094 215.960938 109.101562 215.796875 C 110.035156 215.875 111.320312 216.386719 111.304688 217.496094 C 111.476562 218.933594 110.574219 220.160156 110.253906 221.5 C 110.359375 222.089844 110.601562 222.644531 110.757812 223.222656 C 110.382812 223.554688 109.984375 223.863281 109.628906 224.21875 C 109.753906 224.351562 110.003906 224.625 110.132812 224.761719 C 110.796875 224.367188 111.378906 223.855469 111.90625 223.292969 C 112.855469 222.304688 113.863281 221.328125 114.519531 220.113281 C 114.640625 219.527344 114.507812 218.925781 114.542969 218.335938 C 116.332031 218.0625 117.675781 220.679688 116.375 221.972656 C 114.917969 223.726562 113.25 225.550781 110.9375 226.105469 C 109.308594 226.46875 109.386719 228.394531 108.542969 229.503906 C 107.851562 230.34375 107.820312 231.46875 107.480469 232.460938 C 107.164062 233.738281 106.917969 235.339844 105.574219 235.960938 C 104.878906 236.125 104.269531 235.558594 103.984375 234.976562 C 103.726562 234.4375 103.371094 233.902344 103.425781 233.277344 C 104.152344 233.03125 105.253906 233.214844 105.601562 232.363281 C 106.289062 230.753906 106.769531 229.046875 106.972656 227.3125 C 104.542969 227.847656 103.074219 230.21875 100.71875 230.933594 C 100.234375 231.007812 99.558594 231.128906 99.328125 230.574219 C 99.703125 229.832031 100.582031 229.769531 101.28125 229.527344 C 102.238281 229.273438 102.980469 228.582031 103.699219 227.941406 C 104.625 227.09375 105.617188 226.3125 106.4375 225.355469 C 106.710938 225.089844 106.722656 224.699219 106.800781 224.351562 C 105.550781 224.117188 104.617188 225.0625 103.503906 225.371094 C 102.613281 225.339844 101.847656 225.789062 101.035156 226.078125 C 100.617188 226.035156 100.214844 225.914062 99.808594 225.828125 C 99.359375 226.085938 98.929688 226.46875 98.378906 226.453125 C 98.148438 226.183594 98.121094 225.898438 98.296875 225.601562 C 98.566406 224.832031 99.097656 224.195312 99.609375 223.578125 C 100.332031 223.636719 101.085938 223.828125 101.777344 223.5 C 102.640625 223.046875 103.503906 223.996094 104.375 223.585938 C 105.269531 223.175781 106.363281 223.773438 107.171875 223.089844 C 107.980469 222.414062 109.03125 221.65625 109.003906 220.488281 C 109.089844 219.476562 109.324219 218.492188 109.476562 217.496094 C 109.386719 217.054688 108.929688 216.804688 108.679688 216.457031 Z M 108.679688 216.457031 "/>
<path style=" stroke:none;fill-rule:nonzero;fill:rgb(0%,0%,0%);fill-opacity:1;" d="M 83.519531 218.878906 C 82.992188 218.199219 82.667969 217.027344 83.460938 216.414062 C 84.265625 216.160156 84.691406 217.230469 85.441406 217.28125 C 86.0625 217.316406 86.691406 217.285156 87.308594 217.402344 C 86.660156 218.238281 86.027344 219.109375 85.257812 219.84375 C 84.503906 220.148438 83.917969 219.410156 83.519531 218.878906 Z M 83.519531 218.878906 "/>
<path style=" stroke:none;fill-rule:nonzero;fill:rgb(0%,0%,0%);fill-opacity:1;" d="M 143.613281 217.476562 C 144.648438 217.222656 145.679688 216.949219 146.703125 216.65625 C 147.070312 216.519531 147.421875 216.78125 147.761719 216.898438 C 147.804688 217.160156 147.851562 217.421875 147.90625 217.6875 C 145.882812 218.492188 143.675781 218.703125 141.671875 219.5625 C 141.726562 220.113281 142.058594 220.671875 141.917969 221.21875 C 140.363281 223 137.597656 223.710938 136.835938 226.152344 C 138.28125 226.058594 139.585938 225.355469 141.007812 225.148438 C 140.289062 226.035156 139.167969 226.402344 138.152344 226.820312 C 137.121094 227.179688 136.042969 227.625 134.929688 227.460938 C 134.167969 227.300781 134.328125 226.296875 134.46875 225.738281 C 136.480469 224.679688 138.40625 223.214844 139.546875 221.210938 C 138.554688 220.382812 137.179688 221.261719 136.078125 220.722656 C 135.695312 220.515625 135.105469 220.339844 135.113281 219.816406 C 136.683594 219.320312 138.324219 219.082031 139.9375 218.792969 C 141.226562 218.53125 142.339844 217.777344 143.613281 217.476562 Z M 143.613281 217.476562 "/>
<path style=" stroke:none;fill-rule:nonzero;fill:rgb(0%,0%,0%);fill-opacity:1;" d="M 178.140625 218.222656 C 178.828125 217.996094 179.492188 217.378906 180.253906 217.648438 C 180.6875 217.875 180.871094 218.359375 181.132812 218.75 C 180.917969 219.019531 180.71875 219.296875 180.480469 219.542969 C 179.671875 219.746094 178.828125 219.472656 178.015625 219.625 C 177.035156 219.800781 176.085938 220.15625 175.085938 220.183594 C 175.617188 218.96875 177.050781 218.71875 178.140625 218.222656 Z M 178.140625 218.222656 "/>
<path style=" stroke:none;fill-rule:nonzero;fill:rgb(0%,0%,0%);fill-opacity:1;" d="M 171.605469 222.546875 C 171.980469 221.242188 172.816406 220.113281 173.050781 218.757812 C 173.226562 218.832031 173.574219 218.976562 173.746094 219.046875 C 173.792969 219.59375 174.070312 220.167969 173.894531 220.710938 C 173.371094 221.570312 172.4375 222.035156 171.605469 222.546875 Z M 171.605469 222.546875 "/>
<path style=" stroke:none;fill-rule:nonzero;fill:rgb(0%,0%,0%);fill-opacity:1;" d="M 168.027344 222.753906 C 168.625 222.621094 169.171875 221.960938 169.796875 222.277344 C 169.871094 222.875 169.417969 223.332031 169.097656 223.777344 C 168.679688 224.410156 167.808594 224.167969 167.183594 224.417969 C 166.9375 224.726562 166.820312 225.113281 166.65625 225.46875 C 166.109375 225.46875 165.5625 225.453125 165.023438 225.425781 C 164.441406 225.988281 163.824219 226.523438 163.070312 226.84375 C 162.003906 227.296875 161.304688 228.300781 160.273438 228.804688 C 159.652344 229.109375 158.945312 228.9375 158.324219 228.742188 C 158.332031 228.457031 158.339844 228.179688 158.347656 227.90625 C 158.917969 227.683594 159.535156 227.726562 160.132812 227.660156 C 160.785156 227.160156 161.496094 226.757812 162.28125 226.503906 C 164.476562 225.683594 165.71875 223.324219 168.027344 222.753906 Z M 168.027344 222.753906 "/>
<path style=" stroke:none;fill-rule:nonzero;fill:rgb(0%,0%,0%);fill-opacity:1;" d="M 174.253906 223.125 C 175.15625 222.519531 176.289062 222.679688 177.285156 222.957031 C 177.304688 223.761719 177.414062 224.621094 176.96875 225.339844 C 176.515625 226.09375 177.042969 227.117188 176.445312 227.804688 C 175.472656 227.953125 174.65625 228.511719 173.75 228.84375 C 172.871094 228.953125 172.0625 229.300781 171.320312 229.773438 C 170.390625 229.113281 169.835938 228.109375 169.207031 227.1875 C 168.871094 226.632812 168.214844 226.46875 167.671875 226.191406 C 167.671875 226.058594 167.667969 225.789062 167.664062 225.65625 C 168.359375 225.664062 169.097656 225.59375 169.738281 225.929688 C 170.816406 226.457031 171.074219 227.855469 172.121094 228.410156 C 173.308594 228.179688 174.496094 227.550781 175.191406 226.542969 C 175.234375 225.691406 175.285156 224.8125 174.949219 224.011719 C 174.34375 224.296875 173.773438 224.644531 173.195312 224.988281 C 172.957031 224.136719 173.699219 223.617188 174.253906 223.125 Z M 174.253906 223.125 "/>
<path style=" stroke:none;fill-rule:nonzero;fill:rgb(0%,0%,0%);fill-opacity:1;" d="M 144.808594 223.421875 C 146.484375 223.214844 148.320312 223.398438 149.582031 224.644531 C 149.582031 224.914062 149.585938 225.1875 149.59375 225.464844 C 148.777344 225.585938 148.027344 225.25 147.363281 224.8125 C 146.582031 224.289062 145.644531 224.140625 144.730469 224.074219 C 144.753906 223.855469 144.78125 223.636719 144.808594 223.421875 Z M 144.808594 223.421875 "/>
<path style=" stroke:none;fill-rule:nonzero;fill:rgb(0%,0%,0%);fill-opacity:1;" d="M 120.101562 223.917969 C 120.910156 223.46875 121.839844 223.992188 122.4375 224.5625 C 123 225.089844 123.105469 226.257812 122.339844 226.652344 C 121.011719 226.816406 119.867188 225.964844 118.644531 225.613281 C 117.632812 225.664062 116.566406 225.671875 115.742188 224.984375 C 115.742188 224.800781 115.738281 224.433594 115.738281 224.253906 C 117.183594 223.988281 118.714844 224.503906 120.101562 223.917969 Z M 120.101562 223.917969 "/>
<path style=" stroke:none;fill-rule:nonzero;fill:rgb(0%,0%,0%);fill-opacity:1;" d="M 142.972656 227.3125 C 144.308594 227.347656 143.8125 229.246094 144.898438 229.691406 C 146.050781 229.570312 147.34375 228.710938 148.40625 229.558594 C 147.773438 230.695312 146.21875 230.484375 145.234375 231.167969 C 144.402344 231.511719 144.359375 232.488281 144.277344 233.257812 C 144.214844 234.144531 143.664062 234.917969 143.679688 235.828125 C 145.585938 236.421875 147.28125 234.800781 149.1875 234.917969 C 150.011719 234.847656 150.90625 235.242188 151.210938 236.054688 C 150.410156 236.804688 149.371094 236.238281 148.433594 236.273438 C 147.558594 236.292969 146.636719 236.136719 145.816406 236.523438 C 145.058594 236.871094 144.207031 236.8125 143.402344 236.941406 C 142.554688 237.035156 141.839844 237.539062 141.054688 237.8125 C 139.878906 238.234375 138.699219 238.640625 137.5 238.976562 C 136.566406 239.242188 135.128906 238.621094 135.378906 237.484375 C 136.265625 237.019531 137.175781 237.699219 138.105469 237.546875 C 139.464844 237.382812 140.789062 236.902344 141.957031 236.183594 C 142.039062 235.03125 142.222656 233.816406 141.753906 232.71875 C 140.292969 232.5625 138.8125 233.003906 137.371094 232.617188 C 137.402344 232.46875 137.460938 232.171875 137.492188 232.019531 C 138.960938 231.722656 140.542969 231.609375 141.847656 230.804688 C 142.929688 229.980469 142.371094 228.40625 142.972656 227.3125 Z M 142.972656 227.3125 "/>
<path style=" stroke:none;fill-rule:nonzero;fill:rgb(0%,0%,0%);fill-opacity:1;" d="M 114.015625 228.816406 C 113.910156 228.292969 114.414062 227.851562 114.925781 227.96875 C 115.941406 228.078125 116.984375 228.558594 117.542969 229.453125 C 117.675781 229.875 117.617188 230.375 117.296875 230.707031 C 116.519531 231.617188 115.507812 232.597656 114.210938 232.507812 C 114.234375 231.738281 114.769531 231.167969 115.117188 230.53125 C 115.035156 229.828125 114.335938 229.410156 114.015625 228.816406 Z M 114.015625 228.816406 "/>
<path style=" stroke:none;fill-rule:nonzero;fill:rgb(0%,0%,0%);fill-opacity:1;" d="M 112.71875 234.195312 C 112.839844 234.214844 113.074219 234.25 113.195312 234.269531 C 113.675781 235.367188 114.5625 236.175781 115.585938 236.777344 C 115.5625 237.269531 115.710938 237.886719 115.28125 238.25 C 114.765625 238.691406 114.03125 238.519531 113.414062 238.496094 C 113.328125 237.476562 112.714844 236.644531 112.320312 235.734375 C 112.074219 235.179688 112.390625 234.628906 112.71875 234.195312 Z M 112.71875 234.195312 "/>
</g>
</svg>