<?xml version="1.0" encoding="UTF-8" standalone="no"?>
<!-- Generator: Adobe Illustrator 24.0.1, SVG Export Plug-In . SVG Version: 6.00 Build 0)  -->

<svg
   version="1.1"
   id="图层_1"
   x="0px"
   y="0px"
   viewBox="0 0 160 170"
   xml:space="preserve"
   sodipodi:docname="20220611132023!Shanghai_Conservatory_of_Music_logo.svg"
   inkscape:version="1.2 (dc2aedaf03, 2022-05-15)"
   width="160"
   height="170"
   xmlns:inkscape="http://www.inkscape.org/namespaces/inkscape"
   xmlns:sodipodi="http://sodipodi.sourceforge.net/DTD/sodipodi-0.dtd"
   xmlns="http://www.w3.org/2000/svg"
   xmlns:svg="http://www.w3.org/2000/svg"><defs
   id="defs462" /><sodipodi:namedview
   id="namedview460"
   pagecolor="#ffffff"
   bordercolor="#000000"
   borderopacity="0.25"
   inkscape:showpageshadow="2"
   inkscape:pageopacity="0.0"
   inkscape:pagecheckerboard="0"
   inkscape:deskcolor="#d1d1d1"
   showgrid="false"
   inkscape:zoom="1.7811321"
   inkscape:cx="-13.193856"
   inkscape:cy="93.760591"
   inkscape:window-width="1440"
   inkscape:window-height="829"
   inkscape:window-x="-8"
   inkscape:window-y="-8"
   inkscape:window-maximized="1"
   inkscape:current-layer="图层_1" />
<style
   type="text/css"
   id="style287">
	.st0{fill:none;}
	.st1{fill:#A47848;}
	.st2{fill:#FFFFFF;}
</style>
<g
   id="g343"
   transform="matrix(0.63834098,0,0,0.63834098,-1.2902935,-0.35896798)">
	<path
   d="m 18.52,253.81 c 0.72,0 1.22,0.04 1.5,0.13 0.28,0.08 0.42,0.25 0.42,0.49 0,0.22 -0.09,0.42 -0.27,0.59 -0.7,-0.32 -1.34,-0.48 -1.94,-0.48 -0.42,0 -0.72,0.08 -0.89,0.25 -0.17,0.17 -0.26,0.4 -0.26,0.69 0,0.31 0.1,0.55 0.31,0.74 0.21,0.18 0.6,0.36 1.18,0.55 0.69,0.21 1.21,0.44 1.56,0.71 0.35,0.27 0.54,0.7 0.56,1.3 0,0.67 -0.23,1.17 -0.68,1.51 -0.46,0.34 -1.15,0.51 -2.09,0.51 -0.65,0 -1.15,-0.05 -1.49,-0.14 -0.34,-0.09 -0.51,-0.26 -0.51,-0.52 0,-0.23 0.1,-0.43 0.29,-0.61 0.66,0.36 1.34,0.54 2.05,0.54 0.49,0 0.83,-0.08 1.04,-0.24 0.21,-0.16 0.31,-0.4 0.31,-0.74 0,-0.4 -0.15,-0.7 -0.44,-0.89 -0.3,-0.2 -0.77,-0.4 -1.42,-0.61 -0.63,-0.19 -1.08,-0.43 -1.34,-0.72 -0.27,-0.29 -0.4,-0.67 -0.4,-1.14 0,-0.59 0.22,-1.05 0.65,-1.4 0.42,-0.34 1.04,-0.52 1.86,-0.52 z"
   id="path289" />
	<path
   d="m 23.58,253.91 h 2.09 c 0.04,0.1 0.06,0.2 0.06,0.29 0,0.08 -0.02,0.14 -0.05,0.17 -0.03,0.03 -0.09,0.05 -0.17,0.05 h -0.35 c -0.02,0.46 -0.03,1.25 -0.03,2.36 h 2.95 c 0,-1.11 -0.02,-1.9 -0.04,-2.36 h -0.51 c -0.04,-0.11 -0.06,-0.22 -0.06,-0.31 0,-0.07 0.02,-0.12 0.05,-0.15 0.04,-0.03 0.09,-0.05 0.17,-0.05 h 2.09 c 0.04,0.1 0.06,0.2 0.06,0.29 0,0.08 -0.02,0.14 -0.05,0.17 -0.03,0.03 -0.09,0.05 -0.17,0.05 h -0.4 c -0.02,0.46 -0.03,1.22 -0.03,2.28 0,1.86 0.01,3.02 0.04,3.48 h 0.56 c 0.04,0.1 0.06,0.2 0.06,0.29 0,0.08 -0.02,0.14 -0.05,0.17 -0.03,0.03 -0.09,0.05 -0.17,0.05 h -2.09 c -0.04,-0.11 -0.06,-0.22 -0.06,-0.31 0,-0.07 0.02,-0.12 0.05,-0.15 0.04,-0.03 0.09,-0.05 0.17,-0.05 h 0.35 c 0.02,-0.39 0.04,-1.31 0.04,-2.76 h -2.95 c 0,1.44 0.02,2.36 0.04,2.76 h 0.51 c 0.04,0.1 0.06,0.2 0.06,0.29 0,0.08 -0.02,0.14 -0.05,0.17 -0.03,0.03 -0.09,0.05 -0.17,0.05 h -2.09 c -0.04,-0.11 -0.06,-0.22 -0.06,-0.31 0,-0.07 0.02,-0.12 0.05,-0.15 0.03,-0.03 0.09,-0.05 0.17,-0.05 H 24 c 0.03,-0.46 0.04,-1.64 0.04,-3.54 0,-1.02 -0.02,-1.76 -0.04,-2.22 h -0.56 c -0.04,-0.11 -0.06,-0.22 -0.06,-0.31 0,-0.07 0.02,-0.12 0.05,-0.15 0.02,-0.03 0.07,-0.05 0.15,-0.05 z"
   id="path291" />
	<path
   d="m 35.22,253.84 c 0.37,0 0.59,0.01 0.64,0.04 0.05,0.03 0.38,0.95 1,2.78 0.62,1.82 1.04,3 1.26,3.53 h 0.44 c 0.04,0.1 0.06,0.2 0.06,0.29 0,0.08 -0.02,0.14 -0.05,0.17 -0.03,0.03 -0.09,0.05 -0.17,0.05 h -2.06 c -0.04,-0.11 -0.06,-0.22 -0.06,-0.31 0,-0.07 0.02,-0.12 0.05,-0.15 0.04,-0.03 0.09,-0.05 0.17,-0.05 h 0.27 c -0.06,-0.29 -0.22,-0.86 -0.48,-1.7 h -2.24 c -0.23,0.83 -0.37,1.4 -0.42,1.7 h 0.46 c 0.04,0.1 0.06,0.2 0.06,0.29 0,0.08 -0.02,0.14 -0.05,0.17 -0.03,0.03 -0.09,0.05 -0.17,0.05 H 32.1 c -0.04,-0.11 -0.06,-0.22 -0.06,-0.31 0,-0.07 0.02,-0.12 0.05,-0.15 0.03,-0.03 0.09,-0.05 0.17,-0.05 h 0.29 c 0.22,-0.6 0.58,-1.69 1.09,-3.27 0.51,-1.58 0.82,-2.48 0.94,-2.72 0.11,-0.24 0.33,-0.36 0.64,-0.36 z m -1.01,4.01 h 1.87 c -0.6,-1.92 -0.93,-2.88 -0.97,-2.88 -0.04,0 -0.34,0.96 -0.9,2.88 z"
   id="path293" />
	<path
   d="m 41.14,253.91 h 1.58 c 0.53,0.96 1.04,1.84 1.51,2.64 0.47,0.79 0.99,1.74 1.54,2.84 v -2.75 c 0,-1.02 -0.01,-1.76 -0.03,-2.22 h -0.51 c -0.04,-0.11 -0.06,-0.22 -0.06,-0.31 0,-0.07 0.02,-0.12 0.05,-0.15 0.03,-0.03 0.09,-0.05 0.17,-0.05 h 1.87 c 0.04,0.1 0.06,0.2 0.06,0.29 0,0.08 -0.02,0.14 -0.05,0.17 -0.03,0.03 -0.09,0.05 -0.17,0.05 h -0.4 c -0.02,0.46 -0.04,1.22 -0.04,2.28 v 3.59 c 0,0.2 -0.03,0.32 -0.09,0.37 -0.06,0.05 -0.19,0.08 -0.41,0.08 -0.41,0 -0.65,-0.02 -0.71,-0.05 -0.06,-0.03 -0.46,-0.65 -1.21,-1.85 -0.74,-1.2 -1.37,-2.32 -1.87,-3.37 0,2.67 0.01,4.24 0.04,4.7 h 0.49 c 0.04,0.1 0.06,0.2 0.06,0.29 0,0.08 -0.02,0.14 -0.05,0.17 -0.03,0.03 -0.09,0.05 -0.18,0.05 h -1.85 c -0.04,-0.11 -0.06,-0.22 -0.06,-0.31 0,-0.07 0.02,-0.12 0.05,-0.15 0.03,-0.03 0.09,-0.05 0.17,-0.05 h 0.42 c 0.02,-0.46 0.03,-1.64 0.03,-3.54 0,-1.02 -0.01,-1.76 -0.04,-2.22 h -0.47 c -0.04,-0.11 -0.06,-0.22 -0.06,-0.31 0,-0.07 0.02,-0.12 0.05,-0.15 0.04,-0.02 0.1,-0.04 0.17,-0.04 z"
   id="path295" />
	<path
   d="m 54.24,259.87 c 0,-0.63 -0.01,-1.05 -0.02,-1.27 -0.02,-0.22 -0.04,-0.37 -0.06,-0.44 -0.02,-0.07 -0.07,-0.11 -0.12,-0.14 -0.05,-0.02 -0.12,-0.03 -0.2,-0.03 -0.04,-0.09 -0.06,-0.17 -0.06,-0.25 0,-0.1 0.02,-0.17 0.07,-0.2 0.05,-0.04 0.14,-0.06 0.27,-0.06 h 0.82 c 0.17,0 0.28,0.03 0.33,0.08 0.05,0.05 0.08,0.16 0.08,0.33 v 1.22 c 0,0.37 0.02,0.89 0.06,1.55 -0.14,0.02 -0.29,0.03 -0.47,0.03 -0.05,0 -0.15,-0.12 -0.3,-0.35 -0.64,0.3 -1.26,0.45 -1.88,0.45 -0.94,0 -1.63,-0.24 -2.07,-0.71 -0.44,-0.48 -0.66,-1.3 -0.66,-2.46 0,-1.29 0.27,-2.25 0.81,-2.87 0.54,-0.62 1.34,-0.93 2.39,-0.93 0.62,0 1.07,0.05 1.35,0.14 0.28,0.09 0.42,0.24 0.42,0.45 0,0.21 -0.08,0.41 -0.24,0.62 -0.63,-0.32 -1.23,-0.48 -1.8,-0.48 -0.56,0 -0.98,0.19 -1.28,0.58 -0.29,0.39 -0.44,1.07 -0.44,2.05 0,1.11 0.14,1.87 0.43,2.28 0.29,0.41 0.76,0.62 1.42,0.62 0.38,-0.01 0.77,-0.07 1.15,-0.21 z"
   id="path297" />
	<path
   d="m 58.24,253.91 h 2.09 c 0.04,0.1 0.06,0.2 0.06,0.29 0,0.08 -0.02,0.14 -0.05,0.17 -0.03,0.03 -0.09,0.05 -0.17,0.05 h -0.35 c -0.02,0.46 -0.03,1.25 -0.03,2.36 h 2.95 c 0,-1.11 -0.02,-1.9 -0.04,-2.36 h -0.51 c -0.04,-0.11 -0.06,-0.22 -0.06,-0.31 0,-0.07 0.02,-0.12 0.05,-0.15 0.03,-0.03 0.09,-0.05 0.17,-0.05 h 2.09 c 0.04,0.1 0.06,0.2 0.06,0.29 0,0.08 -0.02,0.14 -0.05,0.17 -0.03,0.03 -0.09,0.05 -0.17,0.05 h -0.4 c -0.02,0.46 -0.03,1.22 -0.03,2.28 0,1.86 0.01,3.02 0.04,3.48 h 0.56 c 0.04,0.1 0.06,0.2 0.06,0.29 0,0.08 -0.02,0.14 -0.05,0.17 -0.03,0.03 -0.09,0.05 -0.17,0.05 H 62.2 c -0.04,-0.11 -0.06,-0.22 -0.06,-0.31 0,-0.07 0.02,-0.12 0.05,-0.15 0.03,-0.03 0.09,-0.05 0.17,-0.05 h 0.35 c 0.02,-0.39 0.04,-1.31 0.04,-2.76 H 59.8 c 0,1.44 0.02,2.36 0.04,2.76 h 0.51 c 0.04,0.1 0.06,0.2 0.06,0.29 0,0.08 -0.02,0.14 -0.05,0.17 -0.03,0.03 -0.09,0.05 -0.17,0.05 H 58.1 c -0.04,-0.11 -0.06,-0.22 -0.06,-0.31 0,-0.07 0.02,-0.12 0.05,-0.15 0.03,-0.03 0.09,-0.05 0.17,-0.05 h 0.4 c 0.03,-0.46 0.04,-1.64 0.04,-3.54 0,-1.02 -0.02,-1.76 -0.04,-2.22 H 58.1 c -0.04,-0.11 -0.06,-0.22 -0.06,-0.31 0,-0.07 0.02,-0.12 0.05,-0.15 0.02,-0.03 0.07,-0.05 0.15,-0.05 z"
   id="path299" />
	<path
   d="m 69.88,253.84 c 0.37,0 0.59,0.01 0.64,0.04 0.05,0.03 0.38,0.95 1,2.78 0.62,1.82 1.04,3 1.26,3.53 h 0.44 c 0.04,0.1 0.06,0.2 0.06,0.29 0,0.08 -0.02,0.14 -0.05,0.17 -0.03,0.03 -0.09,0.05 -0.17,0.05 H 71 c -0.04,-0.11 -0.06,-0.22 -0.06,-0.31 0,-0.07 0.02,-0.12 0.05,-0.15 0.04,-0.03 0.09,-0.05 0.17,-0.05 h 0.27 c -0.06,-0.29 -0.22,-0.86 -0.48,-1.7 H 68.7 c -0.23,0.83 -0.37,1.4 -0.42,1.7 h 0.46 c 0.04,0.1 0.06,0.2 0.06,0.29 0,0.08 -0.02,0.14 -0.05,0.17 -0.03,0.03 -0.09,0.05 -0.17,0.05 h -1.83 c -0.04,-0.11 -0.06,-0.22 -0.06,-0.31 0,-0.07 0.02,-0.12 0.05,-0.15 0.03,-0.03 0.09,-0.05 0.17,-0.05 h 0.29 c 0.22,-0.6 0.58,-1.69 1.09,-3.27 0.51,-1.58 0.82,-2.48 0.94,-2.72 0.12,-0.24 0.34,-0.36 0.65,-0.36 z m -1.01,4.01 h 1.87 c -0.6,-1.92 -0.93,-2.88 -0.97,-2.88 -0.04,0 -0.34,0.96 -0.9,2.88 z"
   id="path301" />
	<path
   d="m 75.71,253.91 h 2.24 c 0.04,0.1 0.06,0.2 0.06,0.29 0,0.08 -0.02,0.14 -0.05,0.17 -0.03,0.03 -0.09,0.05 -0.17,0.05 h -0.45 c -0.02,0.46 -0.03,1.22 -0.03,2.28 0,1.86 0.01,3.02 0.04,3.48 h 0.61 c 0.04,0.1 0.06,0.2 0.06,0.29 0,0.08 -0.02,0.14 -0.05,0.17 -0.03,0.03 -0.09,0.05 -0.17,0.05 h -2.24 c -0.04,-0.11 -0.06,-0.22 -0.06,-0.31 0,-0.07 0.02,-0.12 0.05,-0.15 0.03,-0.03 0.09,-0.05 0.17,-0.05 h 0.45 c 0.03,-0.46 0.04,-1.64 0.04,-3.54 0,-1.02 -0.02,-1.76 -0.04,-2.22 h -0.61 c -0.04,-0.11 -0.06,-0.22 -0.06,-0.31 0,-0.07 0.02,-0.12 0.05,-0.15 0.02,-0.03 0.08,-0.05 0.16,-0.05 z"
   id="path303" />
	<path
   d="m 88.07,260.07 c 0.59,0 1.12,-0.15 1.59,-0.46 0.18,0.18 0.26,0.37 0.26,0.57 0,0.19 -0.21,0.33 -0.64,0.45 -0.43,0.11 -0.94,0.17 -1.54,0.17 -0.96,0 -1.66,-0.23 -2.12,-0.68 -0.45,-0.45 -0.68,-1.27 -0.68,-2.45 0,-1.32 0.27,-2.3 0.8,-2.92 0.53,-0.62 1.32,-0.93 2.36,-0.93 0.58,0 1.01,0.05 1.31,0.14 0.29,0.09 0.44,0.25 0.44,0.47 0,0.18 -0.09,0.36 -0.27,0.54 -0.6,-0.28 -1.17,-0.43 -1.71,-0.43 -0.56,0 -0.99,0.2 -1.27,0.61 -0.28,0.41 -0.43,1.09 -0.43,2.06 0,1.07 0.15,1.82 0.45,2.23 0.3,0.42 0.78,0.63 1.45,0.63 z"
   id="path305" />
	<path
   d="m 92.3,257.64 c 0,-1.31 0.27,-2.27 0.81,-2.89 0.54,-0.62 1.31,-0.93 2.29,-0.93 0.9,0 1.59,0.23 2.06,0.68 0.47,0.45 0.71,1.28 0.71,2.48 0,1.31 -0.27,2.27 -0.81,2.89 -0.54,0.62 -1.31,0.93 -2.29,0.93 -0.9,0 -1.59,-0.23 -2.06,-0.68 -0.47,-0.45 -0.71,-1.28 -0.71,-2.48 z m 1.22,-0.46 c 0,1.11 0.15,1.86 0.45,2.27 0.3,0.41 0.74,0.61 1.33,0.61 0.55,0 0.96,-0.21 1.24,-0.62 0.28,-0.41 0.42,-1.09 0.42,-2.02 0,-1.12 -0.15,-1.88 -0.45,-2.28 -0.3,-0.4 -0.74,-0.6 -1.33,-0.6 -0.55,0 -0.96,0.21 -1.24,0.62 -0.28,0.41 -0.42,1.09 -0.42,2.02 z"
   id="path307" />
	<path
   d="m 101.19,253.91 h 1.58 c 0.53,0.96 1.04,1.84 1.51,2.64 0.47,0.79 0.99,1.74 1.54,2.84 v -2.75 c 0,-1.02 -0.01,-1.76 -0.03,-2.22 h -0.51 c -0.04,-0.11 -0.06,-0.22 -0.06,-0.31 0,-0.07 0.02,-0.12 0.05,-0.15 0.03,-0.03 0.09,-0.05 0.17,-0.05 h 1.87 c 0.04,0.1 0.06,0.2 0.06,0.29 0,0.08 -0.02,0.14 -0.05,0.17 -0.03,0.03 -0.09,0.05 -0.17,0.05 h -0.4 c -0.02,0.46 -0.04,1.22 -0.04,2.28 v 3.59 c 0,0.2 -0.03,0.32 -0.09,0.37 -0.06,0.05 -0.19,0.08 -0.41,0.08 -0.41,0 -0.65,-0.02 -0.71,-0.05 -0.06,-0.03 -0.46,-0.65 -1.21,-1.85 -0.74,-1.2 -1.37,-2.32 -1.87,-3.37 0,2.67 0.01,4.24 0.04,4.7 h 0.49 c 0.04,0.1 0.06,0.2 0.06,0.29 0,0.08 -0.02,0.14 -0.05,0.17 -0.03,0.03 -0.09,0.05 -0.18,0.05 h -1.85 c -0.04,-0.11 -0.06,-0.22 -0.06,-0.31 0,-0.07 0.02,-0.12 0.05,-0.15 0.03,-0.03 0.09,-0.05 0.17,-0.05 h 0.42 c 0.02,-0.46 0.03,-1.64 0.03,-3.54 0,-1.02 -0.01,-1.76 -0.04,-2.22 h -0.47 c -0.04,-0.11 -0.06,-0.22 -0.06,-0.31 0,-0.07 0.02,-0.12 0.05,-0.15 0.03,-0.02 0.09,-0.04 0.17,-0.04 z"
   id="path309" />
	<path
   d="m 112.57,253.81 c 0.72,0 1.22,0.04 1.5,0.13 0.28,0.08 0.42,0.25 0.42,0.49 0,0.22 -0.09,0.42 -0.27,0.59 -0.7,-0.32 -1.34,-0.48 -1.94,-0.48 -0.42,0 -0.72,0.08 -0.89,0.25 -0.17,0.17 -0.26,0.4 -0.26,0.69 0,0.31 0.1,0.55 0.31,0.74 0.21,0.18 0.6,0.36 1.18,0.55 0.69,0.21 1.21,0.44 1.56,0.71 0.35,0.27 0.54,0.7 0.56,1.3 0,0.67 -0.23,1.17 -0.68,1.51 -0.46,0.34 -1.15,0.51 -2.09,0.51 -0.65,0 -1.15,-0.05 -1.49,-0.14 -0.34,-0.09 -0.51,-0.26 -0.51,-0.52 0,-0.23 0.1,-0.43 0.29,-0.61 0.66,0.36 1.34,0.54 2.05,0.54 0.49,0 0.83,-0.08 1.04,-0.24 0.21,-0.16 0.31,-0.4 0.31,-0.74 0,-0.4 -0.15,-0.7 -0.44,-0.89 -0.3,-0.2 -0.77,-0.4 -1.42,-0.61 -0.63,-0.19 -1.08,-0.43 -1.34,-0.72 -0.27,-0.29 -0.4,-0.67 -0.4,-1.14 0,-0.59 0.22,-1.05 0.65,-1.4 0.42,-0.34 1.05,-0.52 1.86,-0.52 z"
   id="path311" />
	<path
   d="m 117.64,253.91 h 4.26 c 0.19,0 0.32,0.03 0.39,0.08 0.07,0.05 0.1,0.16 0.1,0.32 0,0.2 -0.06,0.41 -0.19,0.63 -0.63,-0.25 -1.49,-0.38 -2.58,-0.38 h -0.43 c -0.02,0.37 -0.03,1.12 -0.03,2.23 h 2.6 c 0.04,0.13 0.06,0.27 0.06,0.41 0,0.09 -0.02,0.15 -0.05,0.19 -0.03,0.03 -0.1,0.05 -0.19,0.05 h -2.43 c 0,1.43 0.01,2.31 0.03,2.63 h 0.7 c 1.06,0 1.89,-0.12 2.49,-0.35 0.11,0.18 0.16,0.37 0.16,0.57 0,0.15 -0.05,0.25 -0.14,0.32 -0.1,0.07 -0.29,0.1 -0.59,0.1 l -4.31,0.01 c -0.04,-0.11 -0.06,-0.22 -0.06,-0.32 0,-0.07 0.02,-0.12 0.05,-0.15 0.03,-0.03 0.09,-0.05 0.17,-0.05 H 118 c 0.02,-0.46 0.03,-1.65 0.03,-3.55 0,-1.02 -0.01,-1.76 -0.03,-2.22 h -0.53 c -0.04,-0.11 -0.06,-0.22 -0.06,-0.31 0,-0.07 0.02,-0.12 0.05,-0.15 0.04,-0.04 0.1,-0.06 0.18,-0.06 z"
   id="path313" />
	<path
   d="m 126.85,260.19 h 0.71 c 0.04,0.1 0.06,0.2 0.06,0.29 0,0.08 -0.02,0.14 -0.05,0.17 -0.03,0.03 -0.09,0.05 -0.17,0.05 h -2.34 c -0.04,-0.11 -0.06,-0.22 -0.06,-0.31 0,-0.07 0.02,-0.12 0.05,-0.15 0.03,-0.03 0.09,-0.05 0.17,-0.05 h 0.45 c 0.03,-0.46 0.04,-1.64 0.04,-3.54 0,-1.02 -0.01,-1.76 -0.04,-2.22 h -0.58 c -0.04,-0.11 -0.06,-0.22 -0.06,-0.31 0,-0.07 0.02,-0.12 0.05,-0.15 0.04,-0.03 0.09,-0.05 0.17,-0.05 h 2.14 c 1.01,0 1.73,0.14 2.16,0.42 0.43,0.28 0.64,0.72 0.64,1.32 0,0.92 -0.55,1.54 -1.65,1.88 0.31,0.1 0.57,0.27 0.77,0.53 0.2,0.26 0.4,0.62 0.62,1.1 0.22,0.48 0.39,0.77 0.51,0.88 0.12,0.11 0.3,0.16 0.53,0.15 0.07,0.24 0.06,0.4 -0.02,0.49 -0.09,0.08 -0.3,0.13 -0.64,0.13 -0.39,0 -0.68,-0.05 -0.85,-0.15 -0.17,-0.1 -0.35,-0.47 -0.54,-1.1 -0.19,-0.63 -0.39,-1.07 -0.59,-1.32 -0.21,-0.26 -0.51,-0.38 -0.9,-0.38 -0.21,0 -0.41,0.02 -0.61,0.05 0,1.11 0.01,1.88 0.03,2.27 z m -0.04,-2.98 h 0.42 c 0.58,0 1.01,-0.1 1.31,-0.3 0.3,-0.2 0.44,-0.5 0.44,-0.9 0,-0.47 -0.13,-0.82 -0.4,-1.04 -0.27,-0.22 -0.65,-0.33 -1.15,-0.33 -0.23,0 -0.42,0.02 -0.58,0.05 -0.03,0.29 -0.04,0.96 -0.04,2.01 z"
   id="path315" />
	<path
   d="m 137.11,253.91 h 1.8 c 0.04,0.1 0.06,0.2 0.06,0.29 0,0.08 -0.02,0.14 -0.05,0.17 -0.03,0.03 -0.09,0.05 -0.17,0.05 h -0.23 c -0.2,0.6 -0.55,1.71 -1.05,3.31 -0.5,1.6 -0.81,2.51 -0.94,2.72 -0.12,0.21 -0.35,0.32 -0.68,0.32 -0.38,0 -0.6,-0.01 -0.64,-0.04 -0.04,-0.03 -0.36,-0.95 -0.95,-2.78 -0.59,-1.82 -1,-3 -1.22,-3.53 h -0.39 c -0.04,-0.11 -0.06,-0.22 -0.06,-0.31 0,-0.07 0.02,-0.12 0.05,-0.15 0.03,-0.03 0.09,-0.05 0.17,-0.05 h 2 c 0.04,0.1 0.06,0.2 0.06,0.29 0,0.08 -0.02,0.14 -0.05,0.17 -0.03,0.03 -0.09,0.05 -0.18,0.05 h -0.25 c 0.09,0.42 0.37,1.4 0.84,2.94 0.47,1.54 0.73,2.31 0.77,2.31 0.05,0 0.28,-0.77 0.69,-2.3 0.41,-1.53 0.64,-2.51 0.68,-2.95 h -0.44 c -0.04,-0.11 -0.06,-0.22 -0.06,-0.31 0,-0.07 0.02,-0.12 0.05,-0.15 0.05,-0.03 0.11,-0.05 0.19,-0.05 z"
   id="path317" />
	<path
   d="m 143.36,253.84 c 0.37,0 0.59,0.01 0.64,0.04 0.05,0.03 0.38,0.95 1,2.78 0.62,1.82 1.04,3 1.26,3.53 h 0.44 c 0.04,0.1 0.06,0.2 0.06,0.29 0,0.08 -0.02,0.14 -0.05,0.17 -0.03,0.03 -0.09,0.05 -0.17,0.05 h -2.06 c -0.04,-0.11 -0.06,-0.22 -0.06,-0.31 0,-0.07 0.02,-0.12 0.05,-0.15 0.04,-0.03 0.09,-0.05 0.17,-0.05 h 0.27 c -0.06,-0.29 -0.22,-0.86 -0.48,-1.7 h -2.24 c -0.23,0.83 -0.37,1.4 -0.42,1.7 h 0.46 c 0.04,0.1 0.06,0.2 0.06,0.29 0,0.08 -0.02,0.14 -0.05,0.17 -0.03,0.03 -0.09,0.05 -0.17,0.05 h -1.83 c -0.04,-0.11 -0.06,-0.22 -0.06,-0.31 0,-0.07 0.02,-0.12 0.05,-0.15 0.03,-0.03 0.09,-0.05 0.17,-0.05 h 0.29 c 0.22,-0.6 0.58,-1.69 1.09,-3.27 0.51,-1.58 0.82,-2.48 0.94,-2.72 0.11,-0.24 0.33,-0.36 0.64,-0.36 z m -1.01,4.01 h 1.87 c -0.6,-1.92 -0.93,-2.88 -0.97,-2.88 -0.04,0 -0.34,0.96 -0.9,2.88 z"
   id="path319" />
	<path
   d="m 150.1,260.19 c 0.03,-0.46 0.04,-1.64 0.04,-3.54 0,-1.02 -0.01,-1.71 -0.04,-2.09 -1.18,0.05 -1.84,0.07 -1.99,0.07 -0.15,0 -0.25,-0.02 -0.3,-0.07 -0.06,-0.05 -0.08,-0.13 -0.08,-0.26 0,-0.19 0.05,-0.39 0.14,-0.61 0.56,0.15 1.38,0.22 2.45,0.22 h 3.11 c 0.15,0 0.25,0.02 0.31,0.07 0.06,0.05 0.09,0.14 0.09,0.26 0,0.23 -0.07,0.45 -0.2,0.66 -0.55,-0.23 -1.27,-0.35 -2.16,-0.35 h -0.17 c -0.03,0.37 -0.04,1.09 -0.04,2.15 0,1.86 0.01,3.02 0.04,3.48 h 0.71 c 0.04,0.1 0.06,0.2 0.06,0.29 0,0.08 -0.02,0.14 -0.05,0.17 -0.03,0.03 -0.09,0.05 -0.17,0.05 h -2.44 c -0.04,-0.11 -0.06,-0.22 -0.06,-0.31 0,-0.07 0.02,-0.12 0.05,-0.15 0.03,-0.03 0.09,-0.05 0.17,-0.05 h 0.53 z"
   id="path321" />
	<path
   d="m 155.87,257.64 c 0,-1.31 0.27,-2.27 0.81,-2.89 0.54,-0.62 1.31,-0.93 2.29,-0.93 0.9,0 1.59,0.23 2.06,0.68 0.47,0.45 0.71,1.28 0.71,2.48 0,1.31 -0.27,2.27 -0.81,2.89 -0.54,0.62 -1.31,0.93 -2.29,0.93 -0.9,0 -1.59,-0.23 -2.06,-0.68 -0.48,-0.45 -0.71,-1.28 -0.71,-2.48 z m 1.21,-0.46 c 0,1.11 0.15,1.86 0.45,2.27 0.3,0.41 0.74,0.61 1.33,0.61 0.55,0 0.96,-0.21 1.24,-0.62 0.28,-0.41 0.42,-1.09 0.42,-2.02 0,-1.12 -0.15,-1.88 -0.45,-2.28 -0.3,-0.4 -0.74,-0.6 -1.33,-0.6 -0.55,0 -0.96,0.21 -1.24,0.62 -0.28,0.41 -0.42,1.09 -0.42,2.02 z"
   id="path323" />
	<path
   d="m 166.28,260.19 h 0.71 c 0.04,0.1 0.06,0.2 0.06,0.29 0,0.08 -0.02,0.14 -0.05,0.17 -0.03,0.03 -0.09,0.05 -0.17,0.05 h -2.34 c -0.04,-0.11 -0.06,-0.22 -0.06,-0.31 0,-0.07 0.02,-0.12 0.05,-0.15 0.03,-0.03 0.09,-0.05 0.17,-0.05 h 0.45 c 0.03,-0.46 0.04,-1.64 0.04,-3.54 0,-1.02 -0.01,-1.76 -0.04,-2.22 h -0.58 c -0.04,-0.11 -0.06,-0.22 -0.06,-0.31 0,-0.07 0.02,-0.12 0.05,-0.15 0.03,-0.03 0.09,-0.05 0.17,-0.05 h 2.14 c 1.01,0 1.73,0.14 2.16,0.42 0.43,0.28 0.64,0.72 0.64,1.32 0,0.92 -0.55,1.54 -1.65,1.88 0.31,0.1 0.57,0.27 0.77,0.53 0.2,0.26 0.4,0.62 0.62,1.1 0.22,0.48 0.39,0.77 0.51,0.88 0.12,0.11 0.3,0.16 0.53,0.15 0.07,0.24 0.06,0.4 -0.02,0.49 -0.09,0.08 -0.3,0.13 -0.64,0.13 -0.39,0 -0.68,-0.05 -0.85,-0.15 -0.17,-0.1 -0.35,-0.47 -0.54,-1.1 -0.19,-0.63 -0.39,-1.07 -0.59,-1.32 -0.21,-0.26 -0.51,-0.38 -0.9,-0.38 -0.21,0 -0.41,0.02 -0.61,0.05 0,1.11 0.01,1.88 0.03,2.27 z m -0.04,-2.98 h 0.42 c 0.58,0 1.01,-0.1 1.31,-0.3 0.3,-0.2 0.44,-0.5 0.44,-0.9 0,-0.47 -0.13,-0.82 -0.4,-1.04 -0.27,-0.22 -0.65,-0.33 -1.15,-0.33 -0.23,0 -0.42,0.02 -0.58,0.05 -0.03,0.29 -0.04,0.96 -0.04,2.01 z"
   id="path325" />
	<path
   d="m 177.7,254.43 c -0.34,0.63 -1,1.98 -2,4.06 0,0.67 0.01,1.24 0.03,1.7 h 0.74 c 0.04,0.1 0.06,0.2 0.06,0.29 0,0.08 -0.02,0.14 -0.05,0.17 -0.03,0.03 -0.09,0.05 -0.18,0.05 h -2.46 c -0.04,-0.11 -0.06,-0.22 -0.06,-0.31 0,-0.07 0.02,-0.12 0.05,-0.15 0.03,-0.03 0.09,-0.05 0.17,-0.05 h 0.55 c 0.03,-0.46 0.04,-1 0.04,-1.6 -1.09,-2.19 -1.8,-3.57 -2.14,-4.16 h -0.39 c -0.04,-0.11 -0.06,-0.22 -0.06,-0.31 0,-0.07 0.02,-0.12 0.05,-0.15 0.04,-0.03 0.09,-0.05 0.17,-0.05 h 2 c 0.04,0.1 0.06,0.2 0.06,0.29 0,0.08 -0.02,0.14 -0.05,0.17 -0.03,0.03 -0.09,0.05 -0.17,0.05 h -0.25 c 0.15,0.44 0.42,1.11 0.81,2.01 0.39,0.9 0.61,1.35 0.64,1.35 0.04,0 0.23,-0.44 0.57,-1.32 0.35,-0.88 0.58,-1.56 0.71,-2.05 h -0.43 c -0.04,-0.11 -0.06,-0.22 -0.06,-0.31 0,-0.07 0.02,-0.12 0.05,-0.15 0.04,-0.03 0.09,-0.05 0.17,-0.05 h 1.8 c 0.04,0.1 0.06,0.2 0.06,0.29 0,0.08 -0.02,0.14 -0.05,0.17 -0.03,0.03 -0.09,0.05 -0.17,0.05 h -0.21 z"
   id="path327" />
	<path
   d="m 184.8,257.64 c 0,-1.31 0.27,-2.27 0.81,-2.89 0.54,-0.62 1.31,-0.93 2.29,-0.93 0.9,0 1.59,0.23 2.06,0.68 0.47,0.45 0.71,1.28 0.71,2.48 0,1.31 -0.27,2.27 -0.81,2.89 -0.54,0.62 -1.31,0.93 -2.29,0.93 -0.9,0 -1.59,-0.23 -2.06,-0.68 -0.47,-0.45 -0.71,-1.28 -0.71,-2.48 z m 1.22,-0.46 c 0,1.11 0.15,1.86 0.45,2.27 0.3,0.41 0.74,0.61 1.33,0.61 0.55,0 0.96,-0.21 1.24,-0.62 0.28,-0.41 0.42,-1.09 0.42,-2.02 0,-1.12 -0.15,-1.88 -0.45,-2.28 -0.3,-0.4 -0.74,-0.6 -1.33,-0.6 -0.55,0 -0.96,0.21 -1.24,0.62 -0.28,0.41 -0.42,1.09 -0.42,2.02 z"
   id="path329" />
	<path
   d="m 193.59,253.91 h 4.25 c 0.19,0 0.32,0.03 0.39,0.08 0.07,0.05 0.1,0.16 0.1,0.32 0,0.2 -0.06,0.41 -0.19,0.63 -0.63,-0.25 -1.49,-0.38 -2.58,-0.38 h -0.43 c -0.02,0.37 -0.03,1.17 -0.03,2.38 h 2.46 c 0.04,0.13 0.06,0.27 0.06,0.41 0,0.09 -0.02,0.16 -0.05,0.19 -0.03,0.03 -0.1,0.05 -0.19,0.05 h -2.28 c 0,1.36 0.01,2.23 0.03,2.61 h 0.8 c 0.04,0.1 0.06,0.2 0.06,0.29 0,0.08 -0.02,0.14 -0.05,0.17 -0.03,0.03 -0.09,0.05 -0.17,0.05 h -2.34 c -0.04,-0.11 -0.06,-0.22 -0.06,-0.31 0,-0.07 0.02,-0.12 0.05,-0.15 0.03,-0.03 0.09,-0.05 0.17,-0.05 h 0.37 c 0.02,-0.46 0.04,-1.64 0.04,-3.54 0,-1.02 -0.01,-1.76 -0.04,-2.22 h -0.53 c -0.04,-0.11 -0.06,-0.22 -0.06,-0.31 0,-0.07 0.02,-0.12 0.05,-0.15 0.03,-0.05 0.09,-0.07 0.17,-0.07 z"
   id="path331" />
	<path
   d="m 205.08,253.91 h 2.04 c 0.16,0.58 0.38,1.31 0.67,2.2 0.29,0.89 0.51,1.61 0.67,2.17 0.16,0.56 0.25,0.84 0.27,0.84 0.02,0 0.25,-0.71 0.67,-2.14 0.42,-1.43 0.7,-2.45 0.85,-3.07 h 2.01 c 0.04,0.1 0.06,0.2 0.06,0.29 0,0.08 -0.02,0.14 -0.05,0.17 -0.03,0.03 -0.09,0.05 -0.17,0.05 h -0.33 c -0.01,0.61 0,1.61 0.03,2.99 0.03,1.39 0.07,2.31 0.1,2.77 h 0.48 c 0.04,0.1 0.06,0.2 0.06,0.29 0,0.08 -0.02,0.14 -0.05,0.17 -0.03,0.03 -0.09,0.05 -0.18,0.05 h -1.95 c -0.04,-0.11 -0.06,-0.22 -0.06,-0.31 0,-0.07 0.02,-0.12 0.05,-0.15 0.03,-0.03 0.09,-0.05 0.17,-0.05 h 0.29 c 0.03,-0.58 0.02,-2.33 -0.03,-5.26 -0.26,0.99 -0.56,2.01 -0.89,3.04 -0.34,1.03 -0.56,1.64 -0.67,1.83 -0.11,0.19 -0.29,0.28 -0.53,0.28 -0.35,0 -0.55,-0.01 -0.59,-0.04 -0.04,-0.03 -0.26,-0.61 -0.67,-1.74 -0.4,-1.13 -0.76,-2.26 -1.06,-3.4 -0.01,2.95 0,4.71 0.02,5.28 h 0.46 c 0.04,0.1 0.06,0.2 0.06,0.29 0,0.08 -0.02,0.14 -0.05,0.17 -0.03,0.03 -0.09,0.05 -0.17,0.05 h -1.83 c -0.04,-0.11 -0.06,-0.22 -0.06,-0.31 0,-0.07 0.02,-0.12 0.05,-0.15 0.04,-0.03 0.09,-0.05 0.17,-0.05 h 0.36 c 0.04,-0.46 0.07,-1.38 0.1,-2.77 0.03,-1.39 0.04,-2.38 0.04,-2.99 h -0.5 c -0.04,-0.11 -0.06,-0.22 -0.06,-0.31 0,-0.07 0.02,-0.12 0.05,-0.15 0.03,-0.02 0.09,-0.04 0.17,-0.04 z"
   id="path333" />
	<path
   d="m 219.38,254.43 h -0.56 c -0.04,-0.11 -0.06,-0.22 -0.06,-0.31 0,-0.07 0.02,-0.12 0.05,-0.15 0.03,-0.03 0.09,-0.05 0.17,-0.05 h 1.92 c 0.04,0.1 0.06,0.2 0.06,0.29 0,0.08 -0.02,0.14 -0.05,0.17 -0.03,0.03 -0.09,0.05 -0.17,0.05 h -0.35 c -0.02,0.46 -0.02,1.57 -0.02,3.34 0,1.19 -0.23,1.99 -0.69,2.41 -0.46,0.42 -1.15,0.62 -2.08,0.62 -0.79,0 -1.35,-0.15 -1.67,-0.45 -0.32,-0.3 -0.48,-0.9 -0.48,-1.78 0,-2.3 -0.01,-3.67 -0.04,-4.14 h -0.44 c -0.04,-0.11 -0.06,-0.22 -0.06,-0.31 0,-0.07 0.02,-0.12 0.05,-0.15 0.03,-0.03 0.09,-0.05 0.17,-0.05 h 1.94 c 0.04,0.1 0.06,0.2 0.06,0.29 0,0.08 -0.02,0.14 -0.05,0.17 -0.03,0.03 -0.09,0.05 -0.18,0.05 h -0.32 c -0.03,0.54 -0.04,1.66 -0.04,3.36 0,0.95 0.12,1.57 0.36,1.86 0.24,0.29 0.59,0.43 1.06,0.43 0.55,0 0.92,-0.14 1.13,-0.43 0.21,-0.29 0.31,-0.83 0.31,-1.63 0.01,-1.86 0,-3.05 -0.02,-3.59 z"
   id="path335" />
	<path
   d="m 225.95,253.81 c 0.72,0 1.22,0.04 1.5,0.13 0.28,0.08 0.42,0.25 0.42,0.49 0,0.22 -0.09,0.42 -0.27,0.59 -0.7,-0.32 -1.34,-0.48 -1.94,-0.48 -0.42,0 -0.72,0.08 -0.89,0.25 -0.17,0.17 -0.26,0.4 -0.26,0.69 0,0.31 0.1,0.55 0.31,0.74 0.21,0.18 0.6,0.36 1.18,0.55 0.69,0.21 1.21,0.44 1.56,0.71 0.35,0.27 0.54,0.7 0.56,1.3 0,0.67 -0.23,1.17 -0.68,1.51 -0.46,0.34 -1.15,0.51 -2.09,0.51 -0.65,0 -1.15,-0.05 -1.49,-0.14 -0.34,-0.09 -0.51,-0.26 -0.51,-0.52 0,-0.23 0.1,-0.43 0.29,-0.61 0.66,0.36 1.34,0.54 2.05,0.54 0.49,0 0.83,-0.08 1.04,-0.24 0.21,-0.16 0.31,-0.4 0.31,-0.74 0,-0.4 -0.15,-0.7 -0.44,-0.89 -0.3,-0.2 -0.77,-0.4 -1.42,-0.61 -0.63,-0.19 -1.08,-0.43 -1.34,-0.72 -0.27,-0.29 -0.4,-0.67 -0.4,-1.14 0,-0.59 0.22,-1.05 0.65,-1.4 0.42,-0.34 1.05,-0.52 1.86,-0.52 z"
   id="path337" />
	<path
   d="m 231.02,253.91 h 2.24 c 0.04,0.1 0.06,0.2 0.06,0.29 0,0.08 -0.02,0.14 -0.05,0.17 -0.03,0.03 -0.09,0.05 -0.17,0.05 h -0.45 c -0.02,0.46 -0.03,1.22 -0.03,2.28 0,1.86 0.01,3.02 0.04,3.48 h 0.61 c 0.04,0.1 0.06,0.2 0.06,0.29 0,0.08 -0.02,0.14 -0.05,0.17 -0.03,0.03 -0.09,0.05 -0.17,0.05 h -2.24 c -0.04,-0.11 -0.06,-0.22 -0.06,-0.31 0,-0.07 0.02,-0.12 0.05,-0.15 0.03,-0.03 0.09,-0.05 0.17,-0.05 h 0.45 c 0.03,-0.46 0.04,-1.64 0.04,-3.54 0,-1.02 -0.02,-1.76 -0.04,-2.22 h -0.61 c -0.04,-0.11 -0.06,-0.22 -0.06,-0.31 0,-0.07 0.02,-0.12 0.05,-0.15 0.02,-0.03 0.08,-0.05 0.16,-0.05 z"
   id="path339" />
	<path
   d="m 239.15,260.07 c 0.59,0 1.12,-0.15 1.59,-0.46 0.18,0.18 0.26,0.37 0.26,0.57 0,0.19 -0.21,0.33 -0.64,0.45 -0.43,0.11 -0.94,0.17 -1.54,0.17 -0.96,0 -1.66,-0.23 -2.12,-0.68 -0.45,-0.45 -0.68,-1.27 -0.68,-2.45 0,-1.32 0.27,-2.3 0.8,-2.92 0.53,-0.62 1.32,-0.93 2.36,-0.93 0.58,0 1.01,0.05 1.31,0.14 0.29,0.09 0.44,0.25 0.44,0.47 0,0.18 -0.09,0.36 -0.27,0.54 -0.6,-0.28 -1.17,-0.43 -1.71,-0.43 -0.56,0 -0.99,0.2 -1.27,0.61 -0.28,0.41 -0.43,1.09 -0.43,2.06 0,1.07 0.15,1.82 0.45,2.23 0.29,0.42 0.77,0.63 1.45,0.63 z"
   id="path341" />
</g>
<g
   id="g405"
   transform="matrix(0.63834098,0,0,0.63834098,-1.2902935,-0.35896798)">
	<path
   class="st0"
   d="m 113.17,235.57 c -0.12,-0.02 -0.24,-0.03 -0.33,-0.02 -0.12,0 -0.24,0.01 -0.3,0.04 -0.12,0.08 -0.17,1.18 -0.06,1.42 0.16,0.37 0.81,0.49 1.25,0.34 0.24,-0.09 1.13,-0.57 1.13,-0.83 0.01,-0.41 -1.01,-0.85 -1.69,-0.95 z"
   id="path345" />
	<path
   d="m 107.9,211.01 c 0.45,0 2.77,0.17 3.33,0.05 v 0 0 c 0.01,0 0.01,0 0.02,0 0.08,-0.02 0.37,-0.1 0.67,-0.31 0.09,-0.06 0.17,-0.12 0.24,-0.19 v 0 c 0.04,-0.03 0.07,-0.07 0.09,-0.11 0,0 0.01,-0.01 0.01,-0.01 v 0 c 0,-0.01 0.01,-0.02 0.02,-0.03 0.02,-0.1 0,-0.23 -0.04,-0.36 0,0 0,0 0,0 -0.01,-0.04 -0.03,-0.08 -0.04,-0.11 -0.1,-0.22 -0.32,-0.48 -0.32,-0.48 -0.32,-0.32 -0.95,-0.95 -1.07,-1.07 -0.07,-0.07 -0.24,-0.08 -0.44,-0.07 v 0 c 0,0 0,0 0,0 -0.09,0 -0.19,0.01 -0.29,0.02 -0.64,0.03 -1.08,-0.06 -1.08,-0.06 l -0.45,-0.01 c -0.41,-0.01 -0.63,0.1 -0.67,0.11 -0.16,0.11 -0.28,0.26 -0.32,0.45 -0.05,0.27 -0.98,0.77 -1.15,1.04 -0.16,0.26 1,1.14 1.49,1.14 z"
   id="path347" />
	<path
   d="m 104.01,215.62 c 0.05,0.08 0.1,0.15 0.17,0.2 l 0.62,0.72 c 0,0 0.2,0.22 0.73,0.25 l 0.77,0.03 c 0,0 0.41,-0.03 0.73,-0.08 0.1,-0.01 0.28,-0.04 0.5,-0.04 v 0 c 0,0 0.01,0 0.03,0 0,0 0,0 0,0 0.25,-0.01 1.93,-0.06 2.81,0.21 0.29,0.09 0.53,0.19 0.53,0.19 0,0 0,0 0.33,0.11 0.19,0.06 0.38,0.18 0.51,0.27 v 0 c 0,0 0.15,0.09 0.35,-0.01 0.03,-0.02 0.06,-0.04 0.09,-0.06 0,0 0,0 0,0 v 0 c 0.15,-0.09 0.35,-0.21 0.53,-0.31 0.38,-0.22 1.48,-0.17 1.7,-0.28 0.14,-0.07 0.76,-0.31 1.17,-0.47 v 0 c 0.33,-0.13 0.44,-0.52 0.44,-0.52 l 0.04,-0.22 c 0.07,-0.96 -0.33,-1.59 -0.33,-1.59 0,-0.17 -0.22,-0.66 -0.49,-0.71 -0.27,-0.05 -1.53,0.39 -2.19,0.61 -0.66,0.22 -2.19,0 -2.47,0.06 -0.27,0.05 -2.52,0.27 -3.02,0.27 -0.35,0 -1.78,-0.14 -2.56,-0.22 -0.48,-0.05 -0.71,0.06 -0.79,0.11 -0.19,0.14 -0.41,0.39 -0.43,0.77 0,0 0.02,0.31 0.14,0.59 0.04,0.03 0.06,0.08 0.09,0.12 z"
   id="path349" />
	<path
   d="m 118.11,226.71 c -0.01,-0.01 -0.02,-0.01 -0.04,-0.01 v 0 c -0.29,-0.09 -1.14,0.04 -1.73,0.04 -0.66,0 -2.46,0.05 -2.74,0 -0.15,-0.03 -0.6,-0.2 -0.96,-0.34 -0.14,-0.06 -0.25,-0.13 -0.34,-0.21 v 0 c -0.36,-0.3 -0.88,-0.07 -1.06,0.03 -0.02,0.01 -0.03,0.02 -0.05,0.03 -0.01,0.01 -0.02,0.01 -0.02,0.01 v 0 c -0.03,0.02 -0.06,0.03 -0.1,0.04 -0.39,0.11 -1.59,0.66 -1.86,0.93 -0.06,0.06 -0.16,0.09 -0.29,0.12 -1.16,0.23 -3.5,0.77 -3.5,0.77 v 0 c -0.09,0.04 -0.19,0.07 -0.27,0.1 -0.1,0.03 -0.28,0.06 -0.5,0.09 v 0 l -3.85,0.63 c -0.39,0.08 -0.95,0.15 -1.13,0.15 -0.28,0 -3.34,0.33 -3.73,0.44 -0.38,0.11 -2.36,0.39 -2.79,0.33 -0.44,-0.06 -1.04,-0.16 -1.32,0 -0.18,0.11 -1.01,0.45 -1.51,0.66 v 0 c -0.2,0.06 -0.29,0.2 -0.3,0.2 -0.02,0.04 -0.04,0.09 -0.06,0.15 -0.05,0.19 -0.06,0.44 0.16,0.64 0.04,0.04 0.09,0.08 0.14,0.11 v 0 c 0.25,0.14 0.78,0.45 1.07,0.69 0.3,0.26 1.36,0.78 1.89,1.15 v 0 c 0,0 0.57,0.44 1.44,0.26 0.69,-0.13 1.49,-0.34 1.77,-0.37 0.49,-0.06 5.04,-1.59 6.3,-1.81 1.26,-0.22 2.74,-0.66 3.61,-0.87 0.87,-0.22 2.96,-0.66 3.79,-0.6 0.82,0.06 2.35,0.33 2.9,-0.17 0.55,-0.49 0.93,-0.77 1.81,-0.71 0.88,0.06 3.24,-0.05 3.24,-0.05 0.8,-0.59 0.77,-1.7 0.77,-1.7 0.06,-0.39 -0.58,-0.66 -0.74,-0.73 z"
   id="path351" />
	<path
   d="m 117.33,238.06 c -0.03,-0.78 -0.12,-2.55 -0.2,-3.01 -0.11,-0.6 -2.14,-1.54 -2.41,-1.65 -0.27,-0.11 -1.86,-0.27 -2.25,-0.44 -0.38,-0.16 -1.04,-0.22 -1.54,-0.16 -0.49,0.06 -0.44,0.11 -1.59,0.22 -1.15,0.11 -1.1,0.49 -1.43,0.82 -0.32,0.32 -1.42,1.15 -1.81,1.21 0,0 -0.49,0.15 -1.03,0.36 -0.11,0.07 -0.3,0.14 -0.48,0.21 -0.28,0.13 -0.53,0.28 -0.68,0.42 0,0 -0.57,0.72 -0.66,1.2 v 0.01 c 0,0 -0.11,0.87 -0.11,1.2 0,0.33 0.6,0.71 0.77,0.99 0.03,0.04 0.05,0.1 0.07,0.17 v 0 c 0,0 0.39,1.18 0.91,1.01 0.21,-0.08 0.34,-0.24 0.39,-0.32 0.01,-0.02 0.02,-0.03 0.03,-0.05 v 0 0 c 0.32,-0.49 1.53,-1.66 1.67,-1.75 0.17,-0.11 0.6,-1.1 0.83,-1.42 0.09,-0.13 0.19,-0.24 0.29,-0.33 v 0 c 0.11,-0.1 0.73,-0.51 0.74,-0.52 v 0 0 c 0,0 0.55,-0.4 0.9,-0.5 0.05,-0.01 0.09,-0.02 0.14,-0.03 0.5,-0.11 0.72,0.1 0.83,0.6 0.1,0.49 -0.23,0.6 -0.39,0.93 -0.17,0.32 -0.33,2.36 -0.49,2.96 -0.15,0.53 -0.8,1.32 -1.14,1.57 v 0 c 0,0 -0.28,0.2 -0.16,0.51 0.08,0.27 0.25,0.6 0.37,0.87 0.19,0.43 1.05,0.57 1.6,0.42 v 0 c 0,0 0.7,-0.15 1.44,-0.08 0.24,0.05 0.46,0.11 0.58,0.11 0.32,0 0.71,-0.82 0.93,-1.15 0.21,-0.33 0.11,-1.32 0.11,-1.32 0,0 0.49,0.22 0.71,0.22 0.22,0 0.99,-0.49 1.31,-1.04 0.26,-0.42 0.9,-0.85 1.26,-1.07 v 0 c 0.51,-0.4 0.49,-1.17 0.49,-1.17 z m -3.59,-0.7 c -0.44,0.15 -1.09,0.03 -1.25,-0.34 -0.11,-0.24 -0.06,-1.34 0.06,-1.42 0.05,-0.03 0.17,-0.04 0.3,-0.04 0.09,-0.01 0.2,0 0.33,0.02 0.68,0.1 1.69,0.54 1.69,0.96 0,0.24 -0.89,0.73 -1.13,0.82 z"
   id="path353" />
	<path
   d="m 113.65,218.74 c -0.6,0 -1.48,0 -1.59,-0.27 -0.06,-0.14 -0.11,-0.26 -0.15,-0.33 -0.04,-0.08 -0.13,0 -0.13,0 v 0 c -0.13,0.19 -0.44,0.6 -0.81,0.72 -0.05,0.02 -0.09,0.03 -0.13,0.04 v 0 c 0,0 -0.93,0.27 -1.57,0.6 -0.01,0 -0.01,0.01 -0.02,0.01 -0.02,0.01 -0.04,0.02 -0.07,0.04 v 0 c -0.07,0.03 -0.13,0.06 -0.19,0.08 -0.23,0.08 -0.97,0.26 -1.39,0.36 0,0 -0.43,0.11 -0.82,0.44 -0.1,0.09 -0.19,0.18 -0.23,0.27 v 0 c 0,0 -0.01,0.02 -0.02,0.05 0,0.01 -0.01,0.02 -0.01,0.02 0,0 0,0.01 0,0.01 -0.01,0.05 -0.03,0.11 -0.04,0.2 v 0 c 0,0 -0.01,0.03 -0.01,0.09 0,0.01 0,0.01 0,0.02 -0.02,0.15 -0.03,0.43 0,0.8 0,0.04 0.01,0.08 0.01,0.12 0,0.01 0,0.02 0,0.03 v 0 c 0.03,0.24 0.08,0.5 0.18,0.71 0.01,0.03 0.02,0.05 0.04,0.08 v 0 0 c 0.02,0.02 0.04,0.05 0.06,0.07 0,0 0,0 0,0.01 0.02,0.02 0.04,0.04 0.07,0.07 0,0 0,0 0.01,0.01 v 0 c 0.2,0.18 0.52,0.33 0.73,0.44 0.33,0.16 0.61,0.22 0.94,-0.05 0.33,-0.27 0.88,-0.5 1.47,-0.55 0.61,-0.05 2.14,0.22 2.2,0.55 0.03,0.19 0.11,0.42 0.18,0.59 0.01,0 0.47,0.43 1.33,0 0.21,-0.13 0.46,-0.31 0.79,-0.41 v 0 c 1.25,-0.37 1.98,-1.23 1.98,-1.23 v 0 c 0.07,-0.08 0.14,-0.15 0.22,-0.21 v 0 c 0.57,-0.52 0.4,-1.28 0.21,-1.76 v 0 c -0.11,-0.39 -0.29,-0.72 -0.41,-0.9 -0.27,-0.46 -0.65,-0.52 -0.65,-0.52 -0.72,-0.11 -1.79,-0.2 -2.18,-0.2 z"
   id="path355" />
	<path
   d="m 38.88,234.29 c -1.81,-0.18 -6.13,0.41 -7.65,0.47 -1.51,0.06 -3.73,-0.06 -4.2,-0.35 -0.46,-0.29 -1.11,-0.88 -1.11,-0.88 0,0 1.22,-1.64 1.58,-2.04 0.35,-0.41 1.17,-6.43 1.22,-7.18 0.06,-0.76 0.53,-1.87 1,-2.1 0.47,-0.23 1.87,-0.76 2.28,-0.76 0.41,0 4.2,0.23 4.67,0.06 0.47,-0.18 1.35,-0.76 1.58,-1.05 0.24,-0.3 1.17,-2.57 0.59,-3.1 -0.59,-0.52 -0.52,-0.87 -3.15,-0.7 -2.63,0.18 -7.01,0.24 -7.01,0.24 0,0 -0.53,-0.35 -0.53,-0.7 0,-0.35 0.3,-0.76 0.3,-1.16 0,-0.41 -0.06,-2.1 -0.47,-2.63 -0.41,-0.53 -1.69,-0.94 -1.93,-1.28 -0.23,-0.35 -0.76,-1.05 -0.76,-1.05 0,0 -0.47,-0.41 -0.94,-0.24 -0.41,0.15 -0.96,0.71 -1.13,1.27 v 0 c 0,0 -0.35,1.08 -0.5,2.06 -0.02,0.1 -0.03,0.2 -0.04,0.32 -0.02,0.17 -0.02,0.33 -0.02,0.47 v 0 c -0.01,1.22 0.2,3.26 0.34,6.86 0,0 0.24,6.72 0.29,7.88 0.06,1.17 0.12,3.62 0.76,4.32 0.64,0.7 1.17,1.05 0.93,1.4 -0.23,0.35 -0.64,0.76 -1.99,0.93 -1.34,0.17 -7.71,0 -9.05,0.35 -1.35,0.35 -1.29,1.05 -1.35,1.98 -0.06,0.94 0,1.46 1.58,2.1 1.58,0.64 4.2,0.94 8.7,0.59 4.5,-0.36 7.53,-0.7 10.22,-0.53 2.69,0.17 6.19,-0.29 7.01,-2.16 0.83,-1.88 0.59,-3.22 -1.22,-3.39 z"
   id="path357" />
	<path
   d="m 150.45,207.76 v 0 c 0.01,-0.53 -0.05,-0.92 -0.08,-1.13 -0.01,-0.05 -0.02,-0.1 -0.03,-0.15 v -0.01 0 c -0.02,-0.08 -0.06,-0.15 -0.09,-0.22 -0.07,-0.09 -0.15,-0.19 -0.25,-0.29 -0.18,-0.15 -0.38,-0.25 -0.52,-0.3 v 0 c 0,0 -0.01,0 -0.01,0 -0.04,-0.02 -0.07,-0.03 -0.1,-0.03 -0.63,-0.2 -1.75,-0.22 -1.96,-0.22 -0.01,0 -0.01,0 -0.02,0 -0.01,0 -0.01,0 -0.02,0 v 0 c -0.3,0.05 -0.49,0.53 -0.49,0.53 0,0 -0.33,0.44 -0.26,1.42 0.01,0.12 0.02,0.25 0.04,0.39 0,0.34 -0.06,0.75 -0.17,0.89 -0.11,0.14 -0.32,0.44 -0.47,0.72 v 0 c 0,0 -0.22,0.43 -0.3,0.52 -0.21,0.25 -0.55,0.66 -0.82,0.85 -0.06,0.04 -0.11,0.07 -0.16,0.1 v 0 c 0,0 -0.39,0.3 -0.38,0.64 0,0.12 0.02,0.22 0.1,0.24 0.22,0.05 0.77,-0.11 0.93,-0.11 0.03,0 0.06,-0.01 0.09,-0.02 0,0 0.59,-0.18 1.27,-0.42 v 0 l 0.64,-0.19 v 0 c 0.45,-0.13 1,-0.31 1.39,-0.45 0.02,-0.01 0.56,-0.22 1.06,-0.74 0.04,-0.04 0.07,-0.08 0.11,-0.12 0.33,-0.43 0.41,-0.75 0.42,-0.8 0.09,-0.64 0.08,-1.1 0.08,-1.1 z"
   id="path359" />
	<path
   d="m 179.47,230.04 c -0.41,-0.34 -1.08,-1.15 -1.17,-1.66 -0.09,-0.5 -0.21,-1.66 -0.32,-1.99 -0.08,-0.26 -0.19,-0.67 -0.56,-0.85 -0.04,-0.02 -0.08,-0.04 -0.12,-0.05 -0.02,-0.01 -0.04,-0.01 -0.06,-0.02 -0.02,-0.01 -0.04,-0.01 -0.07,-0.01 -0.01,0 -0.03,0 -0.04,0 -0.12,-0.01 -0.23,0.01 -0.3,0.03 -0.19,0.07 -0.6,0.24 -0.81,0.43 -0.29,0.25 -0.56,0.86 -0.69,1.29 -0.07,0.22 -0.15,0.53 -0.24,0.79 0,0 -0.58,1.69 0.26,2.54 0.24,0.25 0.52,0.52 0.83,0.77 0.76,0.62 1.05,0.87 1.57,0.76 0.52,-0.11 1.18,-0.23 1.47,-0.23 0.28,0 0.67,-0.22 0.76,-0.41 0.08,-0.2 -0.09,-1.05 -0.51,-1.39 z"
   id="path361" />
	<path
   d="m 197.97,234.07 c -0.1,-0.22 -1.7,-0.22 -2.04,-0.29 -0.34,-0.07 -0.31,-0.11 -1.92,-0.27 -1.62,-0.16 -1.5,-0.15 -1.9,-0.34 -0.45,-0.69 0.01,-1.64 0.01,-1.64 0.15,-0.28 0.15,-0.51 0.1,-0.73 v 0 c -0.13,-0.91 0.4,-1.61 0.4,-1.61 v 0 c 0.08,-0.11 0.15,-0.22 0.18,-0.34 0.13,-0.45 -0.47,-1.22 -0.81,-1.35 -0.34,-0.13 -0.9,-0.16 -1.06,-0.14 -0.01,0 -0.03,0.01 -0.04,0.01 -0.03,0.01 -0.07,0.02 -0.11,0.02 -1.63,0.6 -3.28,0.9 -3.28,0.9 -0.02,0.01 -0.04,0.01 -0.06,0.02 -0.15,0.05 -0.28,0.09 -0.37,0.12 l -0.09,0.03 c -0.01,0 -0.01,0 -0.01,0.01 -0.02,0.01 -0.03,0.01 -0.03,0.01 v 0 c -0.5,0.2 -0.58,0.9 -0.59,1.06 -0.04,0.76 1.37,0.77 1.89,0.88 0.52,0.11 1.07,0.27 1.87,0.66 0.48,0.23 0.55,0.52 0.53,0.76 -0.01,0.17 -0.02,0.5 -0.07,0.74 -0.01,0.05 -0.02,0.11 -0.04,0.17 -0.01,0.03 -0.02,0.06 -0.04,0.09 v 0 c -0.06,0.12 -0.16,0.26 -0.33,0.43 -0.51,0.56 -1.4,0.63 -1.94,0.63 -0.54,0 -2.25,0.24 -3.85,0.57 -1.61,0.34 -1.69,1.26 -1.75,1.96 -0.06,0.7 1.16,0.72 1.55,0.7 0.33,-0.02 0.6,-0.11 0.79,-0.25 v 0 c 0,0 0.32,-0.17 1.2,-0.2 0.55,-0.01 1.17,-0.02 1.51,-0.14 0.62,-0.22 2.15,-0.01 2.66,0.1 0,0 0.13,0.07 0.16,0.21 0.11,0.41 0.3,1.39 -0.15,2.02 v 0 c -0.4,0.48 -1.05,1.58 -1.47,2.18 -0.5,0.72 -2.29,0.72 -2.55,0.82 -0.27,0.11 -2.49,-0.13 -2.84,-0.07 -0.37,0.06 -0.81,0.7 -0.85,0.99 -0.03,0.29 0.54,0.5 0.93,0.86 0.4,0.36 1.78,0.69 2.26,0.67 0.14,-0.01 0.32,-0.07 0.5,-0.16 v 0 0 c 0.04,-0.02 0.09,-0.05 0.13,-0.07 0.09,-0.05 0.23,-0.11 0.39,-0.18 0.95,-0.39 2.07,-0.39 2.22,-0.39 v 0 c 0.01,0 0.02,0 0.02,0 v 0 c 0.42,0.01 0.83,-0.26 1.44,-0.62 0.7,-0.41 2.26,-2.01 2.34,-3.18 0.06,-0.94 -0.41,-2.21 -0.41,-2.71 0,0 0,0 0,0 0,-0.01 0,-0.01 0,-0.02 0,-0.03 0,-0.06 0.01,-0.08 0.01,-0.02 0.02,-0.05 0.03,-0.07 0.25,-0.38 1.46,-0.51 1.46,-0.51 v 0 c 0.33,-0.09 1.05,-0.06 1.36,-0.04 0.34,0.02 1.35,0.2 1.63,0.21 0.29,0.02 1.28,-0.29 1.44,-1.13 0.17,-0.83 -0.31,-1.08 -0.41,-1.3 z"
   id="path363" />
	<g
   id="g369">
		<path
   d="m 201.65,220.74 c -0.02,-0.28 -0.05,-0.68 -0.16,-0.93 v 0 c -0.14,-0.69 -1.86,-0.73 -1.86,-0.73 -0.37,-0.03 -1.39,0.15 -2.32,0.27 -1.07,0.15 -5.87,0.78 -6.48,0.82 -0.6,0.03 -0.95,0.35 -1.8,0.46 -0.65,0.08 -3.6,0.16 -4.99,0.16 -0.49,0 -0.65,-0.34 -0.67,-0.38 -0.04,-0.15 -0.06,-0.29 -0.06,-0.43 0.07,-0.5 0.37,-0.96 0.51,-1.16 v 0 c 0.28,-0.46 0.13,-1.68 0.13,-1.68 -0.25,-0.91 -0.36,-2.11 -0.36,-2.11 -0.04,-0.53 -0.03,-2.16 0.04,-2.33 0.07,-0.18 0.31,-0.49 -0.15,-0.71 -0.46,-0.21 -0.81,-0.28 -1.09,-0.14 -0.16,0.08 -0.52,0.26 -0.81,0.4 -0.44,0.22 -0.56,0.78 -0.56,0.78 l -0.11,0.52 c -0.02,0.07 -0.15,0.44 -0.28,0.89 v 0 0 c 0,0.02 -0.13,0.87 -0.18,1.91 -0.03,0.65 -0.04,1.37 0.03,2.01 0.02,0.19 0.05,0.38 0.09,0.55 v 0 0 c 0.14,0.33 0.42,0.78 0.55,0.94 0.18,0.21 0.42,1.06 0.74,1.24 0.17,0.09 0.32,0.22 0.43,0.32 0,0 0.05,0.06 0.1,0.16 0,0 0.18,0.42 -0.19,0.75 -0.31,0.31 -0.85,0.77 -1.44,0.96 -0.18,0.05 -0.31,0.09 -0.31,0.25 0,0.25 0.31,0.67 0.63,0.78 0.33,0.1 0.78,0.67 1.27,0.56 0.5,-0.1 2.51,-0.43 3.11,-0.53 0.6,-0.1 3.01,-0.92 3.82,-1.2 0.82,-0.28 3.75,-0.84 5.27,-0.84 1.52,0 2.58,-0.22 2.72,0.1 0.14,0.32 0.78,0.89 0.21,1.17 -0.57,0.29 -2.05,1.49 -2.26,1.7 -0.21,0.21 0,0.25 0.11,0.43 0.1,0.17 0.1,0.31 0.74,-0.04 0.39,-0.21 1.12,-0.71 1.71,-1.08 0.01,0 0.26,-0.12 0.58,-0.24 0.19,-0.06 0.35,-0.12 0.51,-0.17 0.82,-0.3 1.23,-0.56 1.23,-0.56 l 1.42,-1.37 c 0.31,-0.27 0.16,-1.12 0.13,-1.5 z"
   id="path365" />
		<path
   d="m 186.76,216.79 c 0,0.01 0.01,0.01 0.02,0.02 0.06,0.07 0.15,0.17 0.27,0.26 0,0 0.01,0.01 0.01,0.01 0,0 0.01,0 0.01,0.01 0.29,0.2 0.76,0.33 1.43,-0.07 v 0 c 0.34,-0.24 1.23,-0.74 1.52,-0.91 0.31,-0.19 1.52,-1.3 2.06,-1.92 v 0 c 0,0 0.79,-0.71 1.36,-1.08 0.19,-0.11 0.38,-0.21 0.56,-0.28 0.03,-0.01 0.07,-0.02 0.1,-0.03 0.03,-0.01 0.05,-0.02 0.08,-0.02 0.01,0 0.02,-0.01 0.03,-0.01 0.12,-0.03 0.24,-0.06 0.34,-0.1 v 0 0 c 0.02,-0.01 0.03,-0.02 0.05,-0.02 0.13,-0.05 0.46,-0.16 0.67,0.07 v 0 c 0.25,0.26 1.12,0.69 1.18,0.82 0.08,0.14 0.18,0.56 -0.78,1.63 -0.94,1.06 -0.94,0.96 -1.09,1.17 -0.14,0.21 0.1,0.38 0.1,0.38 0,0 1.09,-0.74 1.2,-0.85 0.11,-0.1 0.78,-0.63 1.06,-0.81 0.24,-0.15 1.42,-1.07 1.8,-1.36 0.47,-0.54 -0.07,-0.9 -0.07,-0.9 v 0 c -0.26,-0.11 -0.57,-0.27 -0.77,-0.39 -0.28,-0.17 -1.42,-0.53 -1.7,-0.53 -0.05,0 -0.08,-0.01 -0.11,-0.04 0.61,-0.31 0.93,-0.65 0.97,-0.69 0,0 0,0 0,0 0,0 0,0 0,0 0,0 1.16,-0.77 1.26,-0.85 0.04,-0.02 0.08,-0.06 0.13,-0.1 v 0 c 0.01,0 0.01,-0.01 0.01,-0.01 0.01,-0.01 0.03,-0.03 0.04,-0.04 0.54,-0.51 0.96,-1.19 1.1,-1.44 0.01,-0.01 0.02,-0.02 0.02,-0.03 0.01,-0.02 0.02,-0.04 0.03,-0.05 0,-0.01 0.01,-0.01 0.01,-0.01 v 0 c 0.16,-0.4 0.04,-1.62 0,-1.98 -0.03,-0.39 -0.63,-0.67 -0.99,-0.67 -0.36,0 -1.13,0.56 -1.31,0.92 -0.18,0.35 -1.17,0.88 -1.45,1.06 -0.28,0.17 -0.64,0.42 -1.52,1.38 -0.88,0.95 -2.05,3.08 -2.15,3.25 -0.03,0.05 -0.09,0.11 -0.17,0.18 0,0 0,0 0,0 -0.13,0.11 -0.29,0.23 -0.45,0.31 -0.37,0.25 -0.86,0.58 -1.05,0.62 v 0 c -0.25,0.09 -0.47,0.09 -0.64,0.05 v 0 c -0.61,-0.08 -1.23,-1.15 -1.23,-1.15 v 0 c -0.1,-0.12 -0.19,-0.23 -0.25,-0.32 v 0 c 0,0 -0.68,-0.77 -1.5,-0.2 -0.12,0.13 -0.28,0.38 -0.32,0.85 -0.01,0.15 -0.02,0.3 -0.01,0.44 0.04,0.49 0.11,0.89 -0.03,1.77 -0.14,0.88 0.07,1.52 0.14,1.66 0,-0.04 0.01,-0.02 0.03,0 z"
   id="path367" />
	</g>
	<path
   d="m 239.68,213.83 c -0.69,-0.09 -2.56,0.05 -3.11,0.5 -0.56,0.46 -3.35,1.01 -4.36,1.1 -1.01,0.09 -3.66,0.37 -4.49,0.32 -0.82,-0.05 -1.05,-0.69 -1.1,-1.01 -0.05,-0.32 -0.27,-0.55 -0.59,-0.55 -0.6,0 -0.51,0.68 -0.51,1.33 0,0.64 -0.18,1.1 -0.87,1.83 -0.68,0.73 -0.68,2.11 0.14,2.57 0.82,0.46 1.37,-0.32 1.88,-0.78 0.5,-0.45 2.02,-1.42 2.56,-1.65 0.55,-0.23 2.66,-0.14 3.4,-0.18 0.73,-0.05 2.25,0 2.47,0.13 0.23,0.14 0.18,0.78 0,1.01 -0.18,0.23 -0.91,0.45 -1.74,0.91 -0.83,0.46 -0.59,2.02 -0.59,1.65 0,-0.36 1.56,-0.87 1.83,-1.1 0.27,-0.23 1.47,-1.38 2.15,-1.7 0.69,-0.32 2.84,-1.83 3.53,-2.38 0.69,-0.55 0.82,-1.42 0.82,-1.74 0.01,-0.3 -0.73,-0.16 -1.42,-0.26 z"
   id="path371" />
	<path
   d="m 221.17,214.98 c -0.32,-1.05 -1.38,-1.83 -2.25,-2.2 -0.87,-0.36 -1.37,-0.87 -2.29,-0.55 0,0 -0.87,0.64 -0.87,1.24 0,0.6 0.42,1.1 1.01,1.1 0.6,0 2.43,0.28 2.8,0.64 0.37,0.36 0.91,0.92 0.87,1.24 -0.05,0.32 -0.55,1.24 -0.78,1.65 -0.23,0.41 -0.27,1.19 -0.09,2.06 0.18,0.87 0.32,1.6 0.32,2.06 0,0.31 -0.06,0.64 -0.19,0.91 v 0 c 0,0 -0.01,0.01 -0.02,0.04 -0.01,0.03 -0.03,0.05 -0.04,0.07 -0.11,0.2 -0.34,0.6 -0.48,0.64 v 0 c -0.05,0.03 -0.11,0.05 -0.19,0.05 -0.04,0 -0.08,-0.01 -0.14,-0.02 -0.55,-0.09 -0.73,-0.09 -1.06,-0.32 -0.32,-0.23 -0.41,-0.59 -0.36,-0.82 0.04,-0.23 0.09,-2.34 0,-2.75 -0.02,-0.09 -0.05,-0.15 -0.08,-0.21 v 0 c 0,0 0,-0.01 -0.01,-0.01 -0.01,-0.02 -0.03,-0.05 -0.05,-0.07 -0.19,-0.32 -0.24,-1.07 -0.24,-1.07 v 0 c -0.03,-0.49 -0.15,-0.94 -0.68,-1.49 -0.35,-0.37 -0.72,0 -0.72,0.14 0,0.13 0.16,0.23 0.16,0.41 0,0.18 0.05,7.93 -0.14,9.81 -0.18,1.88 -1.01,6.05 -1.56,7.42 -0.55,1.38 -0.32,1.65 -0.32,1.88 0,0.23 0.92,1.06 1.06,1.51 0.14,0.46 0.41,1.38 0.5,1.52 0.09,0.14 0.69,0.23 0.87,0.19 0.18,-0.05 0.41,-0.28 0.46,-0.74 0.04,-0.46 0.41,-1.33 0.69,-3.07 0.27,-1.74 0.36,-4.77 0.46,-5.68 0.09,-0.91 0.32,-1.88 0.14,-2.47 -0.14,-0.45 -0.59,-1.16 -0.84,-1.62 -0.42,-0.83 0.24,-1.05 0.25,-1.05 0.46,-0.05 2.08,-0.18 2.29,-0.22 0.23,-0.05 0.96,-0.46 1.15,-0.92 0.18,-0.46 0.32,-0.91 0.46,-1.47 0.14,-0.55 -0.41,-1.74 -0.28,-2.52 0.06,-0.33 0.09,-0.61 0.09,-0.82 0.02,-0.47 0.15,-1.38 0.15,-1.38 l 0.09,-0.5 v 0 c 0.13,-0.5 0.18,-1.56 -0.14,-2.61 z"
   id="path373" />
	<path
   d="m 232.58,221.4 c 0,0 -0.37,0.32 -0.87,0.46 -0.51,0.13 -1.37,0.09 -1.78,0.13 -0.35,0.04 -1.22,0.01 -1.61,-0.05 v 0 c 0,0 0,0 0,0 0,0 0,0 0,0 -0.01,0 -0.01,0 -0.03,0 -0.02,0 -0.04,-0.01 -0.06,-0.01 -0.04,-0.01 -0.08,-0.01 -0.12,-0.01 -0.21,-0.02 -0.54,-0.02 -0.86,0.1 -0.14,0.06 -0.24,0.16 -0.27,0.18 -0.17,0.23 -0.36,0.76 -0.21,1.17 0.18,0.5 1.11,0.87 1.29,0.91 0.18,0.04 2.61,0.32 3.21,0.23 0.59,-0.09 1.88,-0.09 1.97,-0.96 0.08,-0.87 -0.66,-1.97 -0.66,-2.15 z"
   id="path375" />
	<path
   d="m 242.43,236.47 c -0.21,-0.18 -0.48,-0.05 -0.57,0.08 v 0 l -0.99,1.12 c -0.1,0.14 -0.73,0.83 -1.28,1.21 -0.32,0.22 -0.61,0.27 -0.61,0.27 v 0 c -0.59,0.11 -1.74,0.39 -2.52,0.35 -0.82,-0.05 -3.39,0.27 -5.04,-0.87 -1.53,-1.06 -1.76,-1.62 -2.23,-1.72 v 0 0 c 0,0 -0.01,0 -0.01,0 -0.13,-0.03 -1.61,-0.43 -1.52,-0.91 0.1,-0.38 0.74,-0.8 0.74,-0.8 0.32,-0.18 1.69,-1.88 2.38,-2.33 0.69,-0.46 2.56,-1.83 3.03,-2.06 0.46,-0.23 0.78,-0.74 0.78,-1.47 0,-0.74 0.23,-1.14 -0.55,-1.55 -0.78,-0.42 -1.15,-0.78 -2.11,-0.64 -0.93,0.13 -4.14,0.09 -7.13,1 -0.31,0.09 -0.56,0.29 -0.58,0.31 -0.21,0.18 -0.45,0.44 -0.45,0.7 0,0.46 0.69,1.24 1.37,1.24 0.69,0 0.87,-0.18 1.74,-0.18 0.87,0 2.15,-0.04 2.52,0.37 0.18,0.2 0.33,0.45 0.43,0.7 0.13,0.42 -0.53,0.64 -0.54,0.64 -0.16,0.03 -0.29,0.03 -0.29,0.03 0,0 -0.41,-0.03 -0.8,0.2 -0.53,0.36 -1.79,1.55 -2.34,1.99 v 0 l -1.07,1.13 c -0.55,0.55 -1.11,1.12 -1.29,1.27 -0.26,0.22 -0.48,0.4 -0.56,0.46 -0.23,0.19 -0.55,0.6 -0.45,1.19 0.08,0.6 0.32,0.96 1,0.92 0.7,-0.05 1.29,-0.74 1.79,-0.97 0.5,-0.23 1.56,-0.54 1.97,-0.09 0.41,0.46 4.17,5.04 8.53,5.27 4.35,0.23 6.88,-4.26 7.06,-5.14 0.19,-0.89 -0.13,-1.49 -0.41,-1.72 z"
   id="path377" />
	<path
   d="m 164.43,219.92 c -0.01,-0.2 -0.03,-0.45 -0.04,-0.68 v 0 c -0.04,-0.77 -0.37,-1.21 -0.37,-1.21 -0.07,-0.1 -0.26,-0.41 -0.43,-0.75 -0.25,-0.53 -0.3,-1.08 -0.3,-1.08 -0.04,-0.4 -0.48,-0.96 -1.18,-0.89 -0.78,0.07 -1.02,0.57 -1.02,0.78 0,0.21 0.14,1.84 0.03,2.12 -0.03,0.09 -0.1,0.2 -0.17,0.32 v 0 c 0,0 -0.28,0.46 -0.53,1.11 -0.02,0.08 -0.05,0.16 -0.09,0.24 0,0 0,0.01 0,0.01 v 0 c -0.07,0.15 -0.15,0.31 -0.26,0.45 -0.32,0.39 -1.63,2.05 -1.98,2.23 -0.36,0.18 -1.31,0.46 -1.49,0.63 -0.06,0.07 -0.13,0.2 -0.16,0.34 v 0 0 c -0.02,0.07 -0.02,0.14 -0.02,0.2 0,0.08 0.01,0.15 0.02,0.21 0.1,0.36 0.47,0.36 0.54,0.35 0,0 0,0 0,0 0.1,-0.01 0.23,-0.01 0.36,0 0.29,0 1.09,-0.04 1.83,-0.41 0.33,-0.18 0.69,-0.37 0.89,-0.44 0.39,-0.14 2.26,-1.35 2.83,-1.74 0.36,-0.25 0.9,-0.66 1.24,-1 0.33,-0.31 0.3,-0.78 0.3,-0.79 z"
   id="path379" />
	<path
   d="m 234.97,209.87 v 0 c 0,0 0,0 0,0 -0.03,-0.04 -0.05,-0.07 -0.08,-0.1 -0.14,-0.23 -0.19,-0.62 -0.21,-0.83 0,-0.01 0,-0.03 0,-0.04 0,-0.03 0,-0.06 -0.01,-0.09 v 0 0 c -0.03,-0.18 -0.15,-0.32 -0.39,-0.56 -0.03,-0.03 -0.06,-0.05 -0.1,-0.08 v 0 0 c -0.01,-0.01 -0.02,-0.01 -0.02,-0.02 -0.31,-0.2 -0.59,-0.46 -0.78,-0.68 v 0 c 0,0 0,0 0,0 -0.02,-0.02 -0.04,-0.05 -0.06,-0.07 -0.34,-0.37 -0.64,-0.47 -0.8,-0.49 -0.27,-0.01 -0.55,0.02 -0.7,0.1 -0.23,0.14 -0.69,1.15 -0.69,1.6 0,0.46 -0.04,0.96 -0.23,1.33 -0.18,0.36 -0.96,1.05 -1.24,1.56 -0.28,0.51 0.09,0.83 0.09,0.83 0.41,0.32 1.14,-0.32 1.46,-0.64 0.32,-0.32 1.33,-0.55 1.88,-0.55 0.55,0 1.75,-0.46 1.92,-0.64 0.15,-0.17 0.11,-0.42 -0.04,-0.63 z"
   id="path381" />
	<path
   d="m 148.11,232.59 c 0.01,-0.01 0.01,-0.02 0.02,-0.02 0.08,-0.1 0.24,-0.17 0.24,-0.17 l 4.48,-0.65 c 0.19,-0.01 0.32,-0.02 0.38,-0.04 0.29,-0.09 1.31,-0.15 1.73,-0.35 v 0 c 0,0 0.58,-0.24 1.62,-0.17 0.83,0.05 1.77,0.14 2.13,0.14 0.65,0 2.08,-0.33 2.03,-0.99 -0.05,-0.66 -0.38,-1.04 -1.31,-1.26 -0.93,-0.22 -1.75,0.33 -2.25,0.33 -0.49,0 -1.37,0.11 -1.92,0.44 -0.54,0.33 -1.48,0.22 -2.14,0.22 -0.66,0 -0.66,0 -0.98,-0.22 -0.33,-0.22 -0.82,-0.11 -1.21,-0.27 -0.38,-0.17 -0.6,-0.88 -0.27,-1.31 0.32,-0.44 1.53,-0.5 1.92,-0.5 0.38,0 0.49,-0.61 0.44,-1.42 -0.06,-0.82 0.77,-3.13 0.82,-3.67 0.06,-0.55 0.38,-2.3 0.49,-2.8 0.11,-0.49 0.66,-2.85 0.77,-3.29 0.11,-0.44 -0.06,-2.85 -0.17,-3.23 -0.11,-0.38 -1.32,-1.98 -1.64,-2.19 -0.02,-0.02 -0.05,-0.03 -0.08,-0.04 v 0 c 0,0 0,0 -0.01,0 -0.05,-0.02 -0.1,-0.02 -0.15,-0.01 -0.31,0.03 -0.64,0.35 -0.79,0.52 -0.01,0.01 -0.02,0.01 -0.02,0.02 v 0 c 0,0 -0.01,0.01 -0.01,0.01 -0.02,0.02 -0.04,0.05 -0.06,0.07 -0.78,1.02 -1.65,1.07 -1.65,1.07 v 0 c -0.59,0.05 -1.02,0.26 -1.07,0.44 -0.05,0.22 0.71,0.66 1.15,0.71 0.44,0.06 0.99,0.38 1.43,1.1 0.44,0.71 -0.22,3.89 -0.38,4.99 -0.17,1.1 -0.11,3.62 -0.11,4 0,0.38 -0.56,0.5 -1.21,0.55 -0.31,0.03 -0.58,-0.03 -0.8,-0.13 -0.55,-0.37 -0.69,-1.01 -0.69,-1.01 -0.23,-1.27 0.23,-1.85 0.23,-1.85 0.23,-0.22 0.49,-0.4 0.6,-0.68 0.21,-0.55 0.38,-1.04 0.33,-1.69 -0.06,-0.66 -0.82,-1.1 -1.26,-1.21 -0.44,-0.11 -0.5,0.22 -0.83,0.44 -0.33,0.22 -1.2,-0.44 -1.48,-0.6 -0.27,-0.17 -0.38,-0.88 -0.32,-1.37 0.06,-0.49 -0.1,-0.92 -0.26,-1.5 -0.11,-0.4 -0.89,-0.09 -1.27,0.02 -0.38,0.11 -0.44,0.55 -0.22,0.88 0.22,0.33 0,2.08 0.11,3.83 0.04,0.61 0.12,0.97 0.22,1.19 0,0 0.14,0.82 -0.09,1.21 0,0 -0.21,0.51 -0.81,0.52 v 0 c -0.46,0.03 -1.69,-0.01 -2.17,0.04 -0.55,0.06 -0.77,-0.38 -1.04,-0.49 -0.27,-0.11 -0.6,-0.44 -0.82,-0.66 -0.22,-0.22 -0.11,-2.25 -0.11,-2.74 0,-0.49 -0.11,-0.82 -0.27,-1.04 -0.07,-0.09 -0.21,-0.24 -0.34,-0.38 -0.33,-0.36 -0.58,-0.05 -0.6,-0.01 -0.11,0.19 -0.24,0.42 -0.32,0.62 -0.16,0.44 -0.82,3.18 -0.98,3.78 -0.16,0.6 -0.05,1.37 0.05,2.03 0.11,0.66 1.04,2.69 1.26,3.01 0.22,0.33 0.93,0.33 1.48,0.22 0.55,-0.11 0.99,-1.75 1.16,-2.02 0.16,-0.28 1.04,-0.99 1.42,-1.26 0.39,-0.27 1.54,0 1.81,0.06 0.27,0.05 0.27,0.44 0.6,0.77 0.33,0.33 -0.05,1.7 -0.22,2.47 -0.16,0.77 0.17,1.59 0.33,1.87 0.16,0.27 0.87,0.38 1.26,0.38 0.38,0 0.93,-0.55 1.53,-0.55 0.6,0 0.99,0.17 1.42,0.22 0.44,0.06 0.55,0.22 0.88,0.49 0.33,0.28 0.27,0.71 0,0.99 -0.28,0.27 -1.7,0.66 -2.3,0.66 -0.6,0 -2.64,0 -3.29,0.11 -0.66,0.11 -3.24,0.39 -4.34,0.33 -0.99,-0.05 -8.94,0.17 -10.56,0.21 v 0 c -0.34,0.01 -1.07,-0.1 -1.07,-0.1 0,0 -1.08,-0.21 -1.75,0.28 -0.11,0.08 -0.2,0.18 -0.28,0.3 0,0 -0.01,0.01 -0.01,0.01 v 0 c 0,0 -0.01,0.01 -0.03,0.04 -0.02,0.03 -0.03,0.05 -0.05,0.08 v 0 0 c -0.16,0.28 -0.49,0.99 0.03,1.41 v 0 c 0.55,0.42 1.75,1.54 2.15,1.54 0.5,0 2.42,0.17 2.85,0.05 0.31,-0.08 0.73,-0.18 1.21,-0.31 v 0 c 0,0 1.89,-0.3 3.82,-0.17 0.17,0.01 0.31,0.03 0.4,0.04 0.55,0.05 0.66,-0.05 1.48,-0.27 0.82,-0.22 2.14,-0.27 2.9,-0.44 0.77,-0.17 0.99,-0.06 1.21,0.05 0.15,0.07 0.49,0.43 0.69,0.73 0.04,0.06 0.21,0.38 -0.01,0.75 -0.13,0.19 -0.3,0.35 -0.4,0.49 -0.17,0.22 -0.55,0.33 -0.93,0.33 -0.39,0 -1.04,0.11 -1.43,0.22 -0.25,0.07 -0.6,0.19 -0.84,0.33 v 0 c 0,0 -0.38,0.22 -0.69,0.55 -0.07,0.07 -0.14,0.14 -0.19,0.22 -0.03,0.05 -0.1,0.22 0.02,0.43 0.11,0.2 0.29,0.51 0.43,0.72 0.22,0.33 0.99,0.44 1.48,0.27 0.49,-0.16 1.2,-0.33 1.53,-0.33 0.24,0 0.51,-0.09 0.76,-0.26 v 0 c 0,0 0.28,-0.14 0.43,-0.18 0.28,-0.08 0.69,-0.18 1.09,-0.22 v 0 c 0.56,-0.03 1.67,-0.17 2.1,-0.21 0.12,-0.01 0.2,-0.02 0.25,-0.02 0.01,0 0.2,0.02 0.15,0.29 -0.07,0.35 -0.23,1.01 -0.5,1.51 v 0 c 0,0 -0.34,0.72 -0.42,2.05 -0.04,0.64 -0.08,1.32 -0.08,1.64 0,0.66 0.17,1.15 0.49,1.31 0.33,0.17 1.47,-0.11 1.58,-0.38 0.02,-0.06 0.03,-0.12 0.02,-0.19 v 0 c -0.13,-1.3 0.62,-2.1 0.62,-2.1 0,0 0.18,-0.16 0.29,-0.4 0.05,-0.11 0.09,-0.22 0.1,-0.36 v 0 c 0.05,-0.36 0.02,-0.97 0.02,-1.24 0,-0.33 0.05,-0.58 0.16,-0.84 0.12,-0.31 0.13,-0.57 0.08,-1.06 -0.05,-0.49 -0.12,-0.79 0.26,-0.84 0.39,-0.05 0.72,-0.03 1.11,-0.2 0.36,-0.16 3.95,-0.05 4.33,-0.05 0.39,0 0.34,0.03 0.61,0.08 0.27,0.06 0.37,0.46 0.37,0.85 0,0.38 -0.71,0.71 -1.15,0.88 -0.44,0.17 -0.88,0.44 -0.93,0.66 -0.06,0.21 0.71,0.21 1.09,0.11 0.18,-0.05 0.47,-0.19 0.76,-0.35 v 0 c 0,0 0,0 0.01,-0.01 0.02,-0.01 0.05,-0.03 0.07,-0.04 0.21,-0.11 0.84,-0.42 1.67,-0.55 v 0 l 0.23,-0.05 0.36,-0.11 c 0,0 0.96,-0.28 1.26,-0.35 0.01,0 0.02,0 0.02,-0.01 0.45,-0.12 0.64,-0.34 0.65,-0.35 0.07,-0.11 0.14,-0.26 0.2,-0.42 v 0 c 0,0 0,0 0,-0.01 0.15,-0.51 -0.08,-0.93 -0.27,-1.17 -0.11,-0.14 -0.2,-0.22 -0.2,-0.22 -0.01,-0.01 -0.02,-0.02 -0.03,-0.03 -0.01,-0.01 -0.02,-0.02 -0.03,-0.03 -0.24,-0.2 -0.51,-0.34 -0.75,-0.43 -0.39,-0.14 -0.7,-0.17 -0.7,-0.17 v 0 0 c -1.21,-0.02 -5.33,-0.1 -5.75,-0.1 -0.03,0 -0.07,0 -0.1,0 v 0 c -0.13,0 -1.18,0.04 -1.75,0.06 -0.1,0 -0.19,0.01 -0.26,0.01 -0.07,0 -0.11,0 -0.11,0 v 0 c -0.26,0.01 -0.58,0.01 -0.62,0 -0.27,-0.05 0.05,-1.45 0,-1.67 -0.06,-0.22 -0.71,-0.22 -1.32,-0.6 -0.01,-0.01 -0.02,-0.02 -0.04,-0.02 -0.22,-0.18 -0.18,-0.47 -0.18,-0.47 -0.02,-0.06 -0.01,-0.1 0.01,-0.13 z m 1.45,-6.93 c -0.18,0.5 -0.43,0.81 -0.78,0.89 -0.36,0.07 -0.92,0.39 -1.45,0.25 -0.19,-0.05 -0.34,-0.09 -0.48,-0.13 v 0 c -0.01,0 -0.01,0 -0.02,-0.01 0,0 -0.01,0 -0.01,0 -0.08,-0.02 -0.15,-0.05 -0.22,-0.09 -0.02,-0.01 -0.04,-0.02 -0.06,-0.03 0,0 0,0 0,0 -0.04,-0.02 -0.07,-0.05 -0.11,-0.08 -0.08,-0.07 -0.15,-0.15 -0.2,-0.23 -0.01,-0.01 -0.02,-0.03 -0.04,-0.04 v 0 c -0.05,-0.07 -0.08,-0.14 -0.11,-0.22 -0.01,-0.03 -0.02,-0.07 -0.03,-0.1 v 0 0 c -0.1,-0.48 0.12,-1.12 0.12,-1.12 v 0 c 0.1,-0.18 0.16,-0.48 0.18,-0.67 0.03,-0.21 0,-1.05 -0.11,-1.54 v 0 c -0.09,-0.67 0.27,-1.07 0.27,-1.07 0.16,-0.13 0.33,-0.24 0.45,-0.26 0.25,-0.04 0.64,-0.03 0.85,0.25 0.08,0.11 0.19,0.25 0.3,0.4 0.11,0.19 0.25,0.55 0.17,1.09 v 0 c 0,0 0,0.01 -0.01,0.03 0,0.01 0,0.01 0,0.02 -0.02,0.1 -0.05,0.36 -0.03,0.58 0,0.01 0,0.02 0,0.03 0,0.01 0,0.03 0.01,0.04 0.05,0.3 0.18,0.72 0.47,1.08 0.06,0.05 0.24,0.22 0.51,0.34 0.22,0.11 0.44,0.28 0.33,0.59 z m -2.13,10.35 c -0.18,0 -0.36,0.04 -0.53,0.11 v 0 c -1.77,0.55 -2.73,-0.11 -2.73,-0.11 -0.07,-0.07 -0.08,-0.15 -0.09,-0.26 0,-0.21 -0.04,-0.4 -0.1,-0.55 -0.03,-0.09 -0.05,-0.14 -0.08,-0.18 -0.13,-0.24 -0.29,-0.38 -0.29,-0.38 v 0 c -0.18,-0.2 -0.49,-0.38 -0.49,-0.65 0,-0.01 0,-0.03 0,-0.04 0.01,-0.07 0.06,-0.22 0.33,-0.27 0.79,-0.13 2.79,-0.47 3.46,-0.72 v 0 c 0,0 0.22,-0.07 0.38,0.14 0.12,0.18 0.35,0.6 0.35,1.19 0,0.24 0,0.52 0,0.73 0.01,0.52 0.12,0.99 -0.21,0.99 z"
   id="path383" />
	<path
   class="st0"
   d="m 64.25,232.61 c -0.38,0 -0.86,0.5 -1.17,1.16 0,0 -1.17,2.29 -0.93,3.46 v 0 c 0.01,0.11 0.05,0.18 0.14,0.19 0.48,-0.26 2.79,-2.93 2.79,-3.71 -0.01,-0.61 -0.62,-1.1 -0.83,-1.1 z"
   id="path385" />
	<path
   class="st0"
   d="m 71.5,232.34 v 0 c 0,0 -0.01,0 -0.01,0 -0.04,-0.01 -0.08,-0.01 -0.13,-0.01 -1.01,-0.09 -2.35,0.13 -2.9,0.22 -0.07,0.01 -0.14,0.02 -0.21,0.04 -0.02,0 -0.04,0.01 -0.04,0.01 v 0 c -0.96,0.31 -1.33,1.75 -1.83,2.71 -0.53,1.06 -1.53,1.36 -1.64,2.11 v 0 c 0,0 -0.47,1.19 0.52,1.32 0,0 1.03,0.2 1.46,0.23 0,0 0.58,0.13 0.65,0.3 0.04,0.09 0.08,0.2 0.1,0.33 1.57,-1.35 5.52,-1.08 5.52,-4.47 l 0.3,-0.91 c 0.09,-0.17 0.13,-0.35 0.13,-0.48 0,-2.28 1.47,-0.94 -1.92,-1.4 z"
   id="path387" />
	<path
   class="st0"
   d="m 64.25,232.61 c -0.38,0 -0.86,0.5 -1.17,1.16 0,0 -1.17,2.29 -0.93,3.46 v 0 c 0.01,0.11 0.05,0.18 0.14,0.19 0.48,-0.26 2.79,-2.93 2.79,-3.71 -0.01,-0.61 -0.62,-1.1 -0.83,-1.1 z"
   id="path389" />
	<path
   class="st0"
   d="m 64.25,232.61 c -0.38,0 -0.86,0.5 -1.17,1.16 0,0 -1.17,2.29 -0.93,3.46 v 0 c 0.01,0.11 0.05,0.18 0.14,0.19 0.48,-0.26 2.79,-2.93 2.79,-3.71 -0.01,-0.61 -0.62,-1.1 -0.83,-1.1 z"
   id="path391" />
	<path
   class="st0"
   d="m 75.12,227.58 v -0.06 c 0,0 0,0.04 0,0.11 -0.01,-0.02 0,-0.04 0,-0.05 z"
   id="path393" />
	<path
   class="st0"
   d="m 71.5,232.34 v 0 c 0,0 -0.01,0 -0.01,0 -0.04,-0.01 -0.08,-0.01 -0.13,-0.01 -1.01,-0.09 -2.35,0.13 -2.9,0.22 -0.07,0.01 -0.14,0.02 -0.21,0.04 -0.02,0 -0.04,0.01 -0.04,0.01 v 0 c -0.96,0.31 -1.33,1.75 -1.83,2.71 -0.53,1.06 -1.53,1.36 -1.64,2.11 v 0 c 0,0 -0.47,1.19 0.52,1.32 0,0 1.03,0.2 1.46,0.23 0,0 0.41,0.09 0.58,0.22 v 0 c 0,0 0,0 0.01,0.01 0.01,0.01 0.01,0.01 0.02,0.02 0.07,0.06 0.3,0.23 0.58,0.08 v 0 c 1.76,-1.02 5.08,-1.06 5.08,-4.16 l 0.3,-0.91 c 0.09,-0.17 0.13,-0.35 0.13,-0.48 0,-2.29 1.47,-0.95 -1.92,-1.41 z"
   id="path395" />
	<path
   class="st0"
   d="m 64.25,232.61 c -0.38,0 -0.86,0.5 -1.17,1.16 0,0 -1.17,2.29 -0.93,3.46 v 0 c 0.01,0.11 0.05,0.18 0.14,0.19 0.48,-0.26 2.79,-2.93 2.79,-3.71 -0.01,-0.61 -0.62,-1.1 -0.83,-1.1 z"
   id="path397" />
	<path
   class="st0"
   d="m 72.46,222.45 c -0.17,0.35 -0.26,0.7 -0.26,1.04 l -0.13,1.04 c -0.12,0.87 -0.75,1.52 -1.11,2.43 v 0 c 0,0 -0.63,1.13 -0.68,1.83 v 0 c 0,0 -0.34,1.05 1.13,0.89 0.57,-0.02 1.12,-0.11 1.53,-0.17 0.41,-0.05 0.76,-0.08 0.82,-0.08 v 0 c 0.32,-0.01 0.64,-0.05 0.96,-0.13 0.21,-0.16 0.33,-0.55 0.35,-0.81 v 0 c 0.01,-0.08 0.03,-0.63 0.04,-0.87 0,-0.02 0,-0.03 0,-0.04 v -0.06 -0.46 c 0.01,-2.26 -1.04,-3.57 -2.65,-4.61 z"
   id="path399" />
	<path
   class="st0"
   d="m 71.5,232.34 v 0 c 0,0 -0.01,0 -0.01,0 -0.04,-0.01 -0.08,-0.01 -0.13,-0.01 -1.01,-0.09 -2.35,0.13 -2.9,0.22 -0.07,0.01 -0.14,0.02 -0.21,0.04 -0.02,0 -0.04,0.01 -0.04,0.01 v 0 c -0.96,0.31 -1.33,1.75 -1.83,2.71 -0.53,1.06 -1.53,1.36 -1.64,2.11 v 0 c 0,0 -0.47,1.19 0.52,1.32 0,0 1.03,0.2 1.46,0.23 0,0 0.41,0.09 0.58,0.22 v 0 c 0,0 0,0 0.01,0.01 0.01,0.01 0.01,0.01 0.02,0.02 0.07,0.06 0.3,0.23 0.58,0.08 v 0 c 1.76,-1.02 5.08,-1.06 5.08,-4.16 l 0.3,-0.91 c 0.09,-0.17 0.13,-0.35 0.13,-0.48 0,-2.29 1.47,-0.95 -1.92,-1.41 z"
   id="path401" />
	<path
   d="m 84.77,230.65 v 0 c -0.3,-1.12 -0.8,-1.62 -5.09,-1.77 -0.35,0 -0.57,0.09 -0.83,0.09 -0.36,0 -0.92,-0.11 -1.35,-0.29 -0.02,-0.01 -0.03,-0.01 -0.05,-0.02 -0.02,-0.01 -0.04,-0.02 -0.05,-0.03 -0.4,-0.24 -0.12,-0.97 -0.12,-0.97 v 0 c 0.16,-0.3 0.22,-0.67 0.22,-1 0,-0.99 -0.27,-3.14 -1.27,-4.37 v 0 c 0,0 0,0 0,0 -0.18,-0.22 -0.39,-0.41 -0.62,-0.56 -0.29,-0.24 -0.62,-0.48 -0.94,-0.7 -0.84,-0.59 -1.64,-1.05 -1.64,-1.05 -0.76,-0.36 -1.25,-0.47 -1.51,-0.5 l -0.05,-0.02 c -0.04,0 -0.08,0 -0.13,0.01 -0.04,0 -0.06,0 -0.06,0 -0.93,0.08 -1.73,0.8 -1.73,1.9 0,0.78 0.48,1.17 0.48,2.04 0,1.22 -0.35,2.52 -1,3.61 -0.67,0.67 -0.75,1.89 -1.73,2.43 v 0 c -0.01,0 -0.02,0.01 -0.03,0.01 -0.16,0.08 -0.34,0.15 -0.55,0.19 -2.15,0.65 -2.11,-0.53 -2.11,-0.53 v 0 c -0.01,-0.05 -0.01,-0.1 -0.01,-0.15 0,-1.02 0.42,-2.13 0.96,-3.17 v 0 c 0.29,-0.6 2.06,-4.23 2.06,-4.23 0.61,-1.16 1.46,-2.79 1.64,-3.2 v 0 c 0.03,-0.06 0.06,-0.12 0.08,-0.18 0.35,-0.87 0.77,-1.8 1.37,-2.46 v 0 c 0.4,-0.63 3.34,-2.59 3.45,-2.67 0.3,-0.39 0.53,-0.84 0.53,-1.35 0,-1.26 -2.3,-1.22 -2.39,-1.22 -1.61,0 -3.35,1.22 -4.48,1.78 -0.52,0.26 -1,0.3 -1.48,0.43 -0.61,0.43 -1.17,0.65 -1.7,0.65 -0.91,0 -1.35,-0.43 -1.35,-1.26 0,-0.7 0.36,-1.56 0.6,-2.53 0.08,-0.43 0.02,-1.15 0.02,-1.15 v 0 c -0.19,-0.71 -0.44,-1.84 -1,-1.84 -1,0 -1.13,0.43 -1.13,1.26 0,0.57 0.13,1.22 0.13,1.91 0,1.52 -0.85,2.69 -0.95,4.17 v 0 c 0,0 -0.05,0.87 0,1.5 0,0.09 0.01,0.18 0.03,0.26 0,0.02 0.01,0.04 0.01,0.06 0,0.02 0.01,0.04 0.01,0.06 0.01,0.05 0.02,0.09 0.03,0.12 v 0 c 0.3,0.93 1.33,1.05 3.04,1.05 h 0.39 c 0.96,0 2.17,-1.43 2.96,-1.43 0.35,0 0.57,0.22 0.65,0.74 -0.26,0.57 -0.65,1.09 -1.09,1.56 l -0.78,1.43 c -0.26,0.35 -0.48,0.74 -0.61,1.22 l -0.65,1.35 c -1.17,2.04 -0.96,1.87 -1.26,2.96 -0.22,0.65 -1.13,1.52 -1.26,2.78 -0.26,2.04 -0.28,2.98 -2.87,3.13 -0.43,0.04 -0.87,0.17 -1.26,0.39 l -0.74,0.43 c -0.48,0.22 -1.43,0.57 -1.61,0.57 -0.61,0 -0.91,-0.43 -0.91,-1.22 0,-0.7 0.22,-1.52 0.22,-2.26 0,-0.43 -0.04,-0.78 -0.04,-1.17 l 0.09,-2.61 c -0.22,-1.13 -0.26,-2.09 -0.26,-3.13 0,-0.22 0.04,-0.43 0.04,-0.65 0,-1.22 -0.61,-5.39 -1.56,-5.82 -1.02,0.35 -1.08,6.82 -1.09,8.94 v 0 c 0,0 -0.1,1.14 -0.19,2.46 -0.08,1.17 -0.16,2.48 -0.17,3.26 0,0.04 0,0.08 0,0.12 -0.02,0.14 -0.45,3.64 -0.47,3.96 v 0 c 0,0.04 -0.01,0.09 -0.02,0.13 v 0 c -0.01,0.17 -0.02,0.35 -0.02,0.52 v 0.3 c -0.39,1.87 -0.7,4 -0.7,5.83 0,0.65 0.17,1.83 0.96,2.09 1.48,-0.22 0.39,-1.78 2.96,-5.61 0.13,-0.3 0.22,-0.65 0.26,-1 l -0.13,-2 c 0,-0.78 0.3,-1.17 0.96,-1.17 0.52,0 1.78,0.17 2.43,0.17 0.35,0 0.7,-0.09 1.04,-0.09 0.48,0 0.74,0.26 0.74,0.78 0,0.43 -0.09,0.96 -0.26,1.48 l -0.48,1.56 c 0,0 -0.16,0.45 -0.27,0.61 -0.33,0.43 -0.94,1.47 0.25,2.15 0,0 2.64,2.67 6.16,2.57 0,0 2.86,-0.42 3.92,-0.29 0,0 2.56,-0.21 5.12,-2.82 l 0.43,-0.43 c 0.39,-0.35 0.61,-0.78 0.61,-1.3 0,-0.13 -0.04,-0.3 -0.04,-0.39 0,-2.19 0.85,-4.15 2.14,-4.52 v 0 c 0,0 3.17,-0.85 5.97,-0.06 0.06,-0.04 0.13,-0.08 0.19,-0.12 0.33,-0.26 1.09,-0.68 0.94,-1.71 z m -22.48,6.77 c -0.09,-0.01 -0.13,-0.09 -0.14,-0.19 v 0 c -0.24,-1.17 0.93,-3.46 0.93,-3.46 0.31,-0.66 0.79,-1.16 1.17,-1.16 0.22,0 0.83,0.49 0.83,1.1 -0.01,0.78 -2.31,3.45 -2.79,3.71 z m 11,-3.19 -0.3,0.91 c 0,3.11 -3.32,3.14 -5.08,4.16 v 0 c -0.28,0.15 -0.51,-0.02 -0.58,-0.08 -0.01,-0.01 -0.01,-0.01 -0.02,-0.02 0,0 -0.01,-0.01 -0.01,-0.01 v 0 c -0.17,-0.13 -0.58,-0.22 -0.58,-0.22 -0.43,-0.03 -1.46,-0.23 -1.46,-0.23 -0.99,-0.14 -0.52,-1.32 -0.52,-1.32 v 0 c 0.11,-0.76 1.11,-1.05 1.64,-2.11 0.5,-0.97 0.87,-2.41 1.83,-2.71 v 0 c 0,0 0.02,0 0.04,-0.01 0.07,-0.02 0.14,-0.03 0.21,-0.04 0.55,-0.1 1.89,-0.31 2.9,-0.22 0.04,0 0.08,0.01 0.13,0.01 0,0 0.01,0 0.01,0 v 0 c 0.95,0.13 1.52,0.12 1.85,0.08 0,0 0.23,-0.02 0.19,0.38 -0.03,0.09 -0.05,0.2 -0.07,0.33 v 0 0 c -0.03,0.17 -0.04,0.37 -0.04,0.62 -0.01,0.13 -0.05,0.31 -0.14,0.48 z m 1.83,-6.71 v 0.06 c 0,0.01 0,0.03 0,0.04 -0.01,0.24 -0.03,0.79 -0.04,0.87 v 0 c -0.01,0.26 -0.14,0.64 -0.35,0.81 -0.32,0.08 -0.64,0.12 -0.96,0.13 v 0 c -0.06,0 -0.41,0.04 -0.82,0.08 -0.41,0.07 -0.96,0.16 -1.53,0.17 -1.48,0.16 -1.13,-0.89 -1.13,-0.89 v 0 c 0.06,-0.7 0.68,-1.83 0.68,-1.83 v 0 c 0.35,-0.91 0.98,-1.56 1.11,-2.43 l 0.13,-1.04 c 0,-0.35 0.09,-0.7 0.26,-1.04 1.61,1.04 2.65,2.35 2.65,4.61 z"
   id="path403" />
</g>
<g
   id="g457"
   transform="matrix(0.63834098,0,0,0.63834098,-1.2902935,-0.35896798)">
	<g
   id="XMLID_79_">
		<path
   id="XMLID_80_"
   class="st1"
   d="m 76.62,140.19 3.35,8.86 c 0.2,-0.1 20.64,-10.26 47.95,-10.26 27.31,0 47.75,10.16 47.94,10.26 l 3.36,-8.86 c -0.89,-0.45 -22.13,-11.06 -51.3,-11.06 -29.17,0 -50.41,10.6 -51.3,11.06 z" />
	</g>
	<g
   id="XMLID_28_">
		<path
   id="XMLID_78_"
   class="st1"
   d="m 159.99,143.87 c 0.27,-0.16 0.57,-0.33 0.89,-0.36 0.24,0.58 0.79,0.83 1.07,1.37 0.3,0.58 0.43,1.14 0.77,1.7 1.56,0.49 4.96,-3.35 6.02,-1.63 -0.88,0.7 -4.19,0.94 -3.67,2.48 0.18,0.55 0.92,0.68 0.97,1.33 0.04,0.41 -0.72,1.31 -1.1,1.52 -0.71,0.4 -0.9,-0.21 -1.48,-0.77 -0.65,-0.65 -0.82,-0.99 -1.69,-0.78 -0.6,0.15 -1.27,0.54 -1.88,0.51 -0.72,-0.04 -1.03,-0.69 -1.17,-1.64 0.91,-0.39 2.03,-0.37 3,-0.62 -0.08,-1.31 -1.9,-1.66 -1.73,-3.11" />
		<g
   id="XMLID_73_">
			<path
   id="XMLID_74_"
   class="st1"
   d="m 92.97,161.5 c 0.64,-0.7 1.19,-2.02 1.07,-3.03 -0.56,-0.18 -0.98,0.72 -1.32,1.05 -0.47,0.45 -1.05,0.88 -1.63,1.15 -0.44,0.2 -1.45,0.55 -1.86,0.19 -0.51,-0.44 -0.17,-1.51 0.06,-1.99 0.55,-1.07 1.57,-2.06 1.76,-3.25 0.23,-1.44 -0.22,-3.08 -1.13,-4.07 -0.73,-0.8 -1.9,-0.59 -2.69,-1.37 1.2,-0.07 2.07,-1.73 0.91,-2.58 -1.23,-0.91 -2.03,0 -3.12,0.57 v 0.08 c 0.08,0.55 -0.24,0.49 -0.44,0.83 -0.07,0.12 -0.26,0.17 -0.33,0.29 -0.07,0.13 0.07,0.44 0,0.58 -0.32,0.63 -1.04,0.59 -1.5,1.03 0.82,1.07 2.72,-1.22 3.55,0.37 -0.82,0.4 -0.79,1.02 -0.38,1.73 -0.37,0.4 -1.14,-0.02 -1.6,0.21 -0.47,0.24 -0.86,0.97 -0.86,1.52 0.94,0.04 2.57,-1.22 2.87,0.64 0.25,1.52 -1.25,2.26 -2.17,2.91 -1.11,0.79 -2.02,1.91 -2.15,3.36 -0.12,1.44 0.57,3.35 1.95,3.79 0.37,0.12 1.02,0.25 1.37,0.09 -0.15,0.49 -0.73,1.31 -0.46,1.82 0.4,0.77 0.57,-0.7 0.78,-0.98 0.44,-0.61 0.9,-0.5 1.54,-0.38 0.31,0.05 1.77,0.4 1.46,-0.41 -0.17,-0.42 -1.67,-0.1 -1.42,-0.98 0.08,-0.32 1.26,-0.48 1.56,-0.46 0.69,0.05 0.82,0.72 1.39,0.93 0.47,0.16 1.37,-0.19 1.18,-0.75 -0.21,-0.66 -1.5,-0.4 -1.28,-1.35 1.03,-0.25 2.12,-0.68 2.89,-1.54 z m -6.69,-12.01 c -0.9,-0.19 -0.76,-1.31 0.16,-1.2 0.44,0.3 1.04,1.47 -0.16,1.2 z m 1.9,2.86 0.2,-0.1 c 1.24,-0.18 1.48,2.32 0.55,2.62 -0.96,0.29 -1.53,-2.21 -0.75,-2.52 z" />
		</g>
		<g
   id="XMLID_64_">
			<path
   id="XMLID_65_"
   class="st1"
   d="m 95.9,143.3 c 0,0 0,0.01 0,0.01 0.02,0.03 0.06,0.06 0.08,0.08 z m 4.92,7.72 c 0.08,-1.41 -0.2,-2.38 -0.24,-3.82 -0.06,-2.09 -1.46,-0.44 -2.17,-1.68 -0.58,-1 0.47,-2.38 0.14,-3.49 -1.72,-0.7 -1.01,1.39 -1.23,2.44 -0.36,1.71 -1.32,-0.34 -1.43,-1.16 -0.32,-0.36 -0.71,-1.22 -1.26,-0.82 -0.46,0.34 -0.1,0.92 0.14,1.29 0.68,1.05 1.81,1.48 1.86,2.79 -0.9,0.03 -1.43,-0.14 -2.06,0.62 -0.59,0.7 -0.79,1.97 -0.97,2.95 -0.18,0.92 -0.39,1.66 -0.52,2.56 -0.11,0.74 -0.58,1.93 -0.48,2.57 0.51,0.16 1.33,-0.64 1.82,-0.88 0.62,-0.3 1.14,-0.48 1.87,-0.55 0.72,-0.06 1.53,-0.15 2.25,0.07 0.66,0.2 1.36,0.99 2.06,0.8 0.36,-1.02 0.16,-2.61 0.22,-3.69 z m -4.67,-3.19 v 0 l 0.08,-0.01 c -0.03,0.01 -0.05,0.01 -0.08,0.01 0.13,0.37 0.08,1.3 -0.2,1.63 -0.15,0.16 -1.14,0.64 -1.35,0.62 0.11,-1.06 0.38,-2.26 1.55,-2.25 z m -1.85,5.43 c -0.08,-0.78 0.42,-1.2 0.82,-1.74 l -0.08,0.17 c 0.43,-0.42 0.68,-0.94 1.29,-1 -0.46,0.81 -0.85,2.83 -2.03,2.57 z m 3.71,-5.94 v 0.09 c 0.92,-0.07 1.52,0.98 1.5,1.89 -0.03,1.26 -0.81,0.56 -1.6,0.31 -0.05,-0.72 0.08,-1.51 0.1,-2.29 z m 0.09,5.28 c -0.46,-0.51 -0.33,-1.13 -0.31,-1.91 1.15,0.44 2.03,1.28 1.95,2.77 -0.53,-0.07 -1.25,-0.44 -1.64,-0.86 z" />
		</g>
		<path
   id="XMLID_63_"
   class="st1"
   d="m 104.12,150.63 c -0.38,-0.1 -0.57,-0.67 -0.95,-0.64 -0.42,0.04 -0.6,0.72 -0.65,1.12 1.52,0.25 0.51,2.99 -0.15,3.72 -0.81,0.89 -2.83,1.59 -2.87,3.07 -0.02,1.08 0.98,0.86 1.11,1.53 0.17,0.95 -1.07,1.06 -1.62,1.11 -0.73,0.07 -1.18,-0.01 -1.93,-0.23 -0.54,-0.16 -1.68,-0.87 -2.18,-0.13 -0.05,0 -0.1,0.02 -0.15,0.06 -0.01,0.53 0.43,0.83 0.51,1.32 0.1,0.58 -0.25,1.07 -0.13,1.64 0.55,0.04 0.96,0.38 1.56,0.29 0.11,-0.66 -0.32,-1.07 0.12,-1.6 0.32,-0.4 1.01,-0.4 1.46,-0.57 0.27,-0.09 0.51,-0.3 0.78,-0.35 0.84,-0.13 1.54,0.6 2.35,0.5 0.42,-0.04 1.09,-0.44 1.07,-1.03 0.48,0 1.02,0.12 1.28,-0.41 0.36,-0.72 -0.37,-0.75 -0.54,-1.18 -0.21,-0.53 0.15,-0.41 0.69,-0.76 0.37,-0.24 0.6,-0.68 0.95,-0.96 0.58,-0.44 1.83,-1.09 2.49,-1.12 0.43,-0.03 2.4,1.41 2.07,0.14 -0.53,-0.14 -0.75,-0.51 -1.01,-0.99 -0.3,-0.55 -0.09,-0.98 -0.3,-1.53 -0.55,-1.45 -1.11,0.82 -0.76,1.64 -0.39,0.35 -0.91,0.36 -1.43,0.44 -0.67,0.1 -1.18,0.28 -1.77,0.39 -0.02,-0.39 -0.02,-0.83 0.04,-1.21 1.15,0.1 1.39,-0.65 1.51,-1.76 0.11,-0.87 0.46,-1.85 0.35,-2.72 -0.67,-0.48 -1.3,-0.08 -1.9,0.22" />
		<path
   id="XMLID_62_"
   class="st1"
   d="m 117.17,156.17 c -0.52,-0.66 -1.05,-0.51 -0.72,-1.54 0.2,-0.59 0.65,-1.49 0.94,-2.09 0.35,-0.75 0.97,-0.88 1.55,-1.38 0.27,-0.23 1.21,-1.73 0.29,-1.58 -0.36,1.05 -1.3,-0.95 -1.02,-1.69 0.37,-1.04 1.63,-0.85 2.07,0.03 0.48,-0.65 1.44,-0.24 1.65,0.39 0.2,0.59 0.03,1.71 -0.01,2.36 -0.82,0.15 -1.51,0.15 -1.07,1.33 0.28,0.74 0.98,1.21 1.69,1.36 1.11,0.22 1.07,-0.52 1.6,-1.33 0.67,-1 0.8,-1.11 1.97,-0.9 -0.02,0.8 -0.97,2.24 -1.43,2.88 -0.73,1 -1.86,0.63 -2.85,0.1 -0.74,-0.38 -2.38,-0.69 -2.29,0.78 0.07,1.03 1.52,1.93 2.31,2.25 -0.14,1.27 -2.2,0.58 -3.06,0.66 -0.36,0.03 -1.37,0.11 -1.62,0.43 -0.37,0.47 0.01,0.85 0.13,1.3 -1.65,0.41 -3.94,0.34 -4.95,-1.39 1.89,0.13 3.58,-0.39 5.23,-1.17 0,-0.38 -0.41,-0.8 -0.41,-0.8 z" />
		<g
   id="XMLID_54_">
			<path
   id="XMLID_56_"
   class="st1"
   d="m 119.39,138.63 c -0.38,-0.08 -1,-0.08 -1.13,0.38 -0.9,-0.13 -0.65,-0.25 -1.3,0.23 -0.25,0.17 -0.5,0.49 -0.73,0.7 -0.52,0.45 -0.88,0.47 -0.96,0.69 -0.1,0.29 -0.25,0.37 -0.39,0.66 -0.14,0.29 -1.44,1.37 -2.21,1.17 -0.72,-0.19 -1.23,-1.07 -1.82,-1.57 -0.65,-0.56 -1.4,-1.45 -2.15,-1.61 -0.58,-0.12 -3.15,0.08 -2.75,0.93 h -0.08 c 1.11,0.56 2.28,0.97 3.25,1.68 0.4,0.29 1.31,1.02 1.28,1.6 -0.03,0.69 -0.63,0.56 -1.04,0.89 -1.06,0.84 -1.13,2.78 -1.21,4.12 -0.08,1.21 -0.51,2.83 -0.13,4.06 0.32,0.04 0.6,-0.02 0.9,-0.13 1.24,-0.46 2.3,-1.57 3.7,-1.46 0.94,0.07 1.77,0.43 2.64,0.75 0.85,0.31 0.99,0.42 1.06,-0.68 0.09,-1.6 0.11,-3.28 -0.01,-4.86 -0.05,-0.65 -0.01,-1.56 -0.35,-2.08 -0.44,-0.7 -1.13,-0.25 -1.63,-0.72 0.03,-0.08 0.14,-0.34 0.19,-0.41 0.91,-0.33 1.85,-1.3 2.59,-1.91 0.44,-0.36 0.8,-0.81 1.24,-1.13 0.49,-0.35 1.22,-0.47 1.04,-1.3 z m -8.05,10.96 c -0.45,0.02 -1.2,0.54 -1.52,0.46 -0.53,-0.13 -0.32,-1.16 -0.3,-1.82 -0.02,0.03 -0.05,0.06 -0.08,0.1 l 0.08,-0.18 c 0,0.03 0,0.05 0,0.08 0.36,-0.41 1.34,-0.24 1.84,-0.21 0.02,0.53 0.01,1.06 -0.02,1.57 z m -0.04,-2.92 c -0.51,0.09 -1.07,0.22 -1.59,0.24 -0.04,-0.32 -0.02,-1.36 0.17,-1.6 0.2,-0.24 1.26,-0.28 1.37,-0.13 l 0.16,-0.09 c -0.14,0.49 -0.07,1.06 -0.11,1.58 z m 3.9,3.09 c -0.66,-0.01 -1.46,-0.16 -2.15,-0.22 -0.02,-0.55 0.03,-1.05 -0.14,-1.58 l 0.08,0.18 c 0.11,-0.46 1.49,-0.55 1.85,-0.3 0.44,0.29 0.44,1.38 0.36,1.92 z m -0.73,-4.85 c 0.21,0.24 0.24,1.28 0.46,1.66 -0.66,0.04 -1.34,0.02 -1.99,-0.03 -0.02,-0.49 0,-1 0.01,-1.49 h 0.08 c 0.31,-0.2 1.13,-0.51 1.44,-0.14 z" />
		</g>
		<g
   id="XMLID_47_">
			<path
   id="XMLID_48_"
   class="st1"
   d="m 129.44,140.97 c 0.71,-0.51 2.46,-1.51 2.22,-2.68 -0.5,-0.07 -1.45,0.01 -1.94,0.17 -0.46,0.16 -1.04,0.83 -1.51,1.13 -0.74,0.48 -1.94,1.09 -2.79,1.02 -0.83,-0.05 -1.57,-0.72 -2.45,-0.92 -1,-0.23 -1.27,-0.55 -1.83,-1.46 l 0.25,-0.09 c -0.32,0 -1.68,0.33 -1.9,0.69 -0.61,0.97 0.69,1.14 1.23,1.27 1.38,0.32 2.41,1.23 3.61,1.98 0.42,0.27 1.19,0.63 1.09,1.37 -0.1,0.66 -0.84,0.66 -1.35,0.92 -1.2,0.63 -1.07,2.69 -1.31,3.99 -0.16,0.88 -0.29,1.7 -0.27,2.64 1.28,0.09 2.43,-0.3 3.77,-0.27 0.62,0.01 1.24,0 1.85,0.03 0.92,0.04 1.65,0.56 2.47,0.65 0.21,-1.42 -0.2,-3.14 -0.23,-4.61 -0.07,-2.41 -0.86,-2.8 -2.92,-3.42 0.12,-1.39 1.02,-1.69 2.01,-2.41 z m -3.65,8.96 c -0.66,0.28 -1.34,-0.14 -2.04,0.29 0.09,-0.48 0.14,-1.42 0.37,-1.83 v 0.09 c 0.76,0.02 1.53,0.07 2.16,-0.12 0.02,0.71 0.14,1.31 -0.49,1.57 z m 0.66,-2.48 c -0.68,0.03 -1.52,0.1 -2.14,-0.13 -0.02,-0.57 -0.17,-1.56 0.3,-1.9 -0.05,0.02 -0.08,0.04 -0.13,0.06 l 0.16,-0.08 c -0.01,0.01 -0.02,0.02 -0.03,0.03 0.51,-0.23 1.1,-0.3 1.63,-0.33 0.21,0.57 0.24,1.73 0.21,2.35 z m 1.1,-2.27 0.08,-0.09 c 1.6,0.09 1.82,0.5 1.73,2.15 -1.62,0.06 -1.84,-0.27 -1.81,-2.06 z m -0.05,3.02 c 0.52,0.01 1.62,-0.14 1.95,0.37 0.19,0.29 0.04,1.15 0.02,1.52 -0.68,0.1 -1.33,-0.25 -1.98,-0.31 0.03,-0.54 -0.13,-1.03 -0.07,-1.58 z" />
		</g>
		<path
   id="XMLID_46_"
   class="st1"
   d="m 131.08,142.77 c 0.05,-0.33 1.38,-0.96 1.93,-1.51 -0.42,-0.53 -1.07,-0.8 -1.57,-1.21 -1.52,-1.26 0.47,-1.97 1.41,-0.97 0.2,0.22 0.67,0.7 0.8,0.91 0.13,0.2 0.14,0.73 0.25,0.85 0.51,0.55 1.51,-0.3 1.94,-0.61 0.55,-0.41 1,-0.88 1.61,-1.21 0.3,-0.17 1.93,-1.03 2.31,-0.61 0.5,0.56 -0.71,1.1 -1.04,1.27 -1.12,0.57 -2.12,1.25 -3.28,1.64 -0.05,0.7 0.38,0.62 0.7,0.96 0.09,0.11 0.74,0.78 0.78,0.86 0.3,0.74 -0.41,0.46 -0.51,1.14 -0.14,0.75 0.41,0.6 0.87,0.79 0.43,0.16 2.12,1.25 2.24,0.13 0.03,-0.37 -0.43,-0.73 -0.54,-1.11 -0.06,-0.2 -0.29,-1.26 -0.26,-1.4 0.1,-0.57 0.94,-1.01 1.44,-1.01 0.86,-0.01 0.79,0.85 1.28,1.24 0.51,0.4 0.92,-0.14 1.43,-0.33 0.64,-0.23 1.45,-0.06 1.15,-1.02 -0.17,-0.55 -2.88,-2.85 -0.95,-2.67 0.91,0.09 2.4,1.88 2.62,2.87 1.39,0.86 2.79,-2.01 4.19,-1.61 1.37,0.4 0.04,1.34 -0.52,1.66 -0.84,0.48 -1.87,0.81 -2.6,1.39 0.3,0.64 1.75,1.63 1.53,2.39 -0.06,0.2 -0.95,0.87 -1.13,0.85 -0.29,-0.02 -0.5,-0.63 -0.69,-0.89 -0.29,-0.42 -0.56,-0.85 -0.85,-1.25 -0.1,-0.15 -0.7,-1.13 -0.83,-1.19 -0.42,-0.18 -0.6,0.39 -0.93,0.59 -0.68,0.41 -1.49,0.23 -2.13,0.59 0.14,0.84 -0.91,1.09 -0.92,1.94 -0.02,0.85 0.62,1.56 1.28,1.73 2.46,0.65 1.26,-3.72 3.14,-3.1 0.2,1.55 0.19,3.69 -1.26,4.27 -1.3,0.52 -2.25,-1.77 -3.13,0.22 -0.7,1.56 0.29,3.42 0.13,5.11 -0.15,1.52 -1.55,2.43 -1.01,4.02 0.08,0.25 0.45,0.63 0.39,0.92 -0.16,0.84 -1.84,-0.14 -2.41,-0.3 -0.82,-0.24 -1.79,-0.25 -2.56,-0.6 -0.03,-0.66 -0.39,-0.79 -0.28,-1.46 0.11,-0.76 0.71,-1.3 0.99,-1.98 0.49,-1.22 0.99,-2.39 1.42,-3.57 0.69,-1.83 -0.09,-3.15 -0.97,-4.68 -0.33,-0.58 -0.65,-0.93 -0.94,-1.52 -0.29,-0.61 -0.07,-0.42 -0.65,-0.88 -0.23,-0.17 -0.43,-0.24 -0.64,-0.45 0.31,-1.28 -0.09,-1.9 -1.15,-1.05 -0.37,0.29 -1.2,0.96 -1.47,0.8 -0.3,-0.15 -0.66,-0.62 -0.61,-0.95 z" />
		<path
   id="XMLID_45_"
   class="st1"
   d="m 149.09,144.83 c 1.12,-0.18 2.2,-0.38 3.3,-0.45 1.2,-0.08 1,-0.61 0.3,-1.36 -0.35,-0.38 -0.66,-0.66 -1.16,-0.88 -0.57,-0.24 -1.64,-0.17 -2.08,-0.64 -1.36,-1.45 3.28,-0.91 3.73,-0.98 0.17,1.09 0.5,2.19 1.06,3.05 0.72,-0.08 6.76,-3.09 6.6,-0.6 -0.93,0.2 -1.92,0.27 -2.83,0.56 -0.32,0.1 -0.91,0.45 -1.33,0.62 -0.14,0.05 -0.87,0.24 -0.98,0.37 -0.73,0.8 0.43,0.99 1.07,1.4 0.52,0.34 1.1,0.83 1.32,1.44 0.26,0.72 0.13,1.64 0.23,2.36 0.1,0.7 0.61,1.11 0.78,1.88 0.51,2.3 -1.16,2.16 -2.58,1.79 -1.06,-0.27 -2.95,-0.24 -2.06,1.39 0.68,1.24 1.52,2.36 0.94,3.88 -0.79,2.05 -2.53,0.45 -3.87,0.13 -1.86,-0.45 -1.95,1.16 -0.94,2.44 -1.01,0.33 -2.57,-0.22 -3.51,-0.67 -1.1,-0.53 -2.24,-1.46 -2.34,-2.85 0.52,0.21 0.8,0.27 1.29,0.26 1.14,0 2.88,-0.27 3.87,-0.73 0.73,-0.33 0.66,-0.92 0.45,-1.81 -0.2,-0.82 -0.73,-1.48 -0.32,-2.34 0.29,-0.6 1.49,-1.49 2.03,-1.89 -0.34,-0.75 -0.92,-0.8 -1.01,-1.73 -0.08,-0.71 0.41,-1.97 1.22,-2.12 1.3,-0.24 2.64,2.88 1.13,3.09 0.09,1.44 1.52,2.11 2.79,1.82 1.4,-0.32 0.12,-2.61 -0.43,-3.36 0.43,-0.06 1.13,-0.16 1.01,-0.74 -0.57,-0.21 -1.12,-0.87 -1.58,-1.25 -0.37,-0.31 -0.79,-0.59 -1.05,-1.01 -1.72,0.2 -3.12,1.31 -4.79,1.44 -0.16,-0.51 0.05,-0.77 0,-1.24 -0.02,-0.44 -0.22,-0.81 -0.26,-1.27" />
		<g
   id="XMLID_40_">
			<path
   id="XMLID_41_"
   class="st1"
   d="m 173.09,156.36 c 0.14,0.14 0.19,0.34 0.32,0.49 0.31,-0.61 0.05,-0.88 -0.05,-1.4 -0.1,-0.59 -0.09,-1.15 -0.07,-1.76 0.02,-0.68 0.02,-1.18 -0.19,-1.83 -0.16,-0.54 -0.54,-0.93 -0.72,-1.28 -0.15,-0.27 -0.36,-0.07 -0.3,-0.52 0.35,-0.02 0.83,0.42 1.1,0.01 0.3,-0.46 -0.32,-1.14 -0.57,-1.42 -0.55,-0.63 -1.8,-1.39 -2.6,-1.21 h -0.08 c -1.09,-0.55 -0.67,1.64 -0.6,2.08 -1.57,0.27 -2.7,0.48 -3.25,2.37 -0.57,1.99 0.77,3.62 0.64,5.67 -0.18,2.69 -3.21,0.93 -4.26,-0.05 -1.07,-0.98 -1.55,-2.41 -1.48,-3.95 -0.64,0.06 -0.33,2.41 -0.35,3 -0.05,1.16 0.17,2.07 1.07,2.71 0.46,0.33 0.82,0.23 1.29,0.44 0.57,0.24 0.48,0.37 0.73,1.05 0.35,0.95 0.59,2.51 1.61,2.9 0.72,1.44 2.9,1.12 4.09,1.65 0.97,0.44 1.24,1.6 0.76,2.57 0.59,0.16 1.26,-0.16 1.85,-0.28 0.73,-0.16 1.17,-0.26 0.6,-1.1 -0.4,-0.6 -1.16,-0.72 -0.97,-1.67 0.16,-0.77 1,-1.33 1.24,-2.11 0.84,-2.69 -0.4,-4.12 -1.84,-6.23 -0.47,-0.68 -1.18,-1.99 -0.5,-2.85 1,-1.29 2.06,2.24 2.53,2.72 z m -3.83,-4.96 c 0.2,0.57 -0.07,1.48 -0.78,1.42 -1.09,-0.09 -0.96,-1.86 0.11,-1.87 -0.01,0 0.55,0.13 0.67,0.45 z m 0.97,-2.12 c -0.08,-0.49 0.25,-0.87 0.63,-1.03 -0.04,0 -0.1,-0.01 -0.15,-0.01 l 0.17,0.01 c -0.01,0 -0.01,0 -0.02,0 0.37,0.07 0.72,0.46 0.51,0.89 -0.23,0.46 -0.76,0.14 -1.14,0.14 z" />
		</g>
	</g>
	<path
   class="st1"
   d="m 180.53,119.68 c 3.15,-0.64 5.39,-3.56 5.11,-6.84 -0.28,-3.28 -2.99,-5.76 -6.21,-5.85 l -0.69,-7.91 c 3.12,-0.66 5.34,-3.56 5.05,-6.83 -0.29,-3.26 -2.96,-5.73 -6.15,-5.85 l -0.69,-7.91 c 3.15,-0.64 5.39,-3.56 5.11,-6.84 -0.29,-3.28 -3,-5.77 -6.21,-5.85 l -0.5,-5.78 c -0.22,-2.49 -2.42,-4.34 -4.91,-4.12 -2.36,0.21 -4.14,2.78 -4.14,5.11 0,0.13 0.01,0.27 0.02,0.4 l 10.38,107.6 c 0,0 -20.45,-10.38 -48.32,-10.38 -27.87,0 -48.32,10.38 -48.32,10.38 l 9.48,-108.2 c 0.01,-0.14 0.02,-0.27 0.02,-0.4 0,-2.32 -1.78,-4.3 -4.14,-4.51 -2.49,-0.22 -4.69,1.62 -4.91,4.12 L 80,65.8 c -3.21,0.09 -5.92,2.57 -6.21,5.85 -0.29,3.28 1.95,6.19 5.1,6.84 l -0.69,7.9 c -3.22,0.09 -5.93,2.57 -6.21,5.85 -0.29,3.28 1.95,6.2 5.1,6.84 l -0.69,7.9 c -3.22,0.09 -5.92,2.57 -6.21,5.85 -0.29,3.28 1.95,6.2 5.11,6.84 l -5.97,68.59 c -0.11,1.24 1.25,2.07 2.31,1.4 7.02,-4.47 27.85,-15.99 56.25,-15.99 28.43,0 49.27,11.51 56.29,15.99 1.05,0.67 2.41,-0.16 2.31,-1.4 z M 79.65,173.91 c 4.2,-1.97 23.61,-10.41 48.66,-10.41 25.05,0 44.46,8.44 48.66,10.41 l 0.17,2.04 0.03,0.4 c 0,0 -20.68,-10.7 -48.86,-10.7 -28.18,0 -48.87,10.7 -48.87,10.7 l 0.04,-0.46 z"
   id="path425" />
	<rect
   x="123.39"
   y="49.599998"
   class="st0"
   width="3.52"
   height="56.810001"
   id="rect427" />
	<rect
   x="128.94"
   y="49.599998"
   class="st0"
   width="3.52"
   height="56.810001"
   id="rect429" />
	<rect
   x="117.84"
   y="49.599998"
   class="st0"
   width="3.52"
   height="56.810001"
   id="rect431" />
	<path
   class="st0"
   d="m 106.7,56.88 -0.09,-0.19 c 0.53,3.05 1.54,6.79 1.65,13.98 0.23,15.26 -3.85,24.12 -3.85,29.36 0,5.47 0.97,12.51 5.32,12.66 h 0.11 c 1.47,0 2.7,-1.07 2.99,-2.49 l 0.03,-0.16 c 0.33,-1.69 0.21,-3.63 0.21,-3.63 h 2.72 V 49.6 H 110 c -1.17,0.1 -4.48,0.95 -3.3,7.28 z"
   id="path433" />
	<path
   class="st0"
   d="m 148.77,56.88 c 1.24,-6.67 -2.51,-7.24 -3.49,-7.28 h -5.24 v 56.81 h 2.3 c 0,0 -0.11,1.94 0.21,3.63 l 0.03,0.16 c 0.29,1.42 1.51,2.49 2.99,2.49 h 0.12 c 4.34,-0.15 5.32,-7.19 5.32,-12.66 0,-5.24 -4.08,-14.1 -3.85,-29.36 0.11,-7.04 1.08,-10.78 1.61,-13.79 z"
   id="path435" />
	<rect
   x="134.49001"
   y="49.599998"
   class="st0"
   width="3.52"
   height="56.810001"
   id="rect437" />
	<path
   class="st1"
   d="m 124.53,117.99 c -0.28,0 -0.52,0.1 -0.71,0.29 -0.2,0.19 -0.29,0.42 -0.29,0.71 0,0.29 0.1,0.52 0.29,0.71 0.19,0.2 0.42,0.29 0.71,0.29 0.28,0 0.52,-0.09 0.71,-0.29 0.2,-0.2 0.29,-0.43 0.29,-0.71 0,-0.28 -0.1,-0.51 -0.29,-0.7 -0.2,-0.2 -0.43,-0.3 -0.71,-0.3 z"
   id="path439" />
	<path
   class="st1"
   d="m 175.28,45.9 c -0.79,-1.35 -1.71,-1.79 -2.81,-2.35 -3.5,-1.77 -9.4,-1.41 -14.31,0.03 -3.48,1.02 -5.96,1.88 -12.76,1.88 h -35.25 c -6.81,0 -9.28,-0.85 -12.76,-1.88 -4.91,-1.45 -10.8,-1.8 -14.31,-0.03 -1.11,0.56 -2.02,1 -2.81,2.35 -1.49,2.53 0.3,4.79 1.41,5.39 1.83,0.99 3.37,-0.05 6.6,0.49 2.67,0.45 6.22,1.99 8.76,5.15 3.89,4.82 4.21,10.51 4.09,15.1 -0.24,8.88 -5.61,16.85 -5.77,30.12 -0.1,8.33 2.8,14.95 7.47,19.79 5.31,5.51 14.44,9.11 22.3,9.75 h 5.76 c 7.86,-0.64 16.53,-4.24 21.84,-9.75 4.67,-4.84 7.57,-11.46 7.47,-19.79 -0.17,-14.75 -5.09,-17.71 -5.84,-29.75 -0.29,-4.58 0.66,-11.12 4.16,-15.46 2.54,-3.15 6.1,-4.7 8.77,-5.15 3.24,-0.54 4.77,0.5 6.6,-0.49 1.09,-0.61 2.88,-2.87 1.39,-5.4 z m -59.48,60.51 h -2.72 c 0,0 0.11,1.94 -0.21,3.63 l -0.03,0.16 c -0.29,1.42 -1.52,2.49 -2.99,2.49 h -0.11 c -4.35,-0.15 -5.32,-7.19 -5.32,-12.66 0,-5.24 4.08,-14.1 3.85,-29.36 -0.11,-7.19 -1.12,-10.93 -1.65,-13.98 l 0.09,0.19 c -1.18,-6.33 2.12,-7.17 3.31,-7.28 h 5.79 v 56.81 z m 5.04,16.46 h -0.73 v -4.67 c 0,-0.04 -0.03,-0.07 -0.07,-0.07 h -0.83 l 0.34,-0.55 c 0.07,-0.11 0.18,-0.17 0.31,-0.17 h 0.64 c 0.2,0 0.36,0.16 0.36,0.36 v 5.1 z m 0.52,-16.46 h -3.52 V 49.6 h 3.52 z m 4.74,13.34 c -0.11,0.26 -0.26,0.54 -0.46,0.82 l -1.65,2.46 -0.61,-0.39 1.33,-2.01 c -0.1,0.02 -0.21,0.03 -0.31,0.03 -0.45,0 -0.83,-0.16 -1.13,-0.49 -0.3,-0.32 -0.45,-0.73 -0.45,-1.2 0,-0.48 0.17,-0.89 0.5,-1.21 0.34,-0.33 0.76,-0.49 1.24,-0.49 0.49,0 0.89,0.17 1.22,0.5 0.32,0.33 0.48,0.74 0.48,1.21 -0.01,0.25 -0.06,0.51 -0.16,0.77 z m 0.81,-13.34 h -3.52 V 49.6 h 3.52 z m 4.28,16.52 h -3.31 c -0.11,0 -0.2,-0.06 -0.24,-0.16 -0.04,-0.1 -0.02,-0.21 0.05,-0.28 l 1.76,-1.9 c 0.34,-0.37 0.59,-0.67 0.75,-0.89 0.14,-0.2 0.21,-0.44 0.21,-0.69 0,-0.25 -0.1,-0.47 -0.3,-0.67 -0.21,-0.2 -0.45,-0.29 -0.76,-0.29 -0.3,0 -0.55,0.1 -0.75,0.3 -0.2,0.21 -0.31,0.5 -0.34,0.88 l -0.01,0.1 h -0.72 l 0.01,-0.11 c 0.03,-0.57 0.22,-1.02 0.57,-1.36 0.35,-0.34 0.78,-0.52 1.28,-0.52 0.55,0 1.01,0.2 1.35,0.61 0.23,0.26 0.36,0.6 0.39,0.95 0.03,0.39 -0.07,0.76 -0.28,1.09 -0.16,0.27 -0.42,0.6 -0.79,1 l -1.15,1.24 h 2.3 v 0.7 z m 1.27,-16.52 h -3.52 V 49.6 h 3.52 z m 3.72,11.55 -2.61,5.01 -0.62,-0.32 2.29,-4.39 c 0.02,-0.05 0.02,-0.1 0,-0.14 -0.03,-0.05 -0.07,-0.07 -0.13,-0.07 h -2.2 v -0.71 h 2.9 c 0.15,0 0.29,0.08 0.36,0.21 0.07,0.12 0.08,0.27 0.01,0.41 z m 1.83,-11.55 h -3.52 V 49.6 h 3.52 z m 7.68,6.28 h -0.12 c -1.47,0 -2.7,-1.07 -2.99,-2.49 l -0.03,-0.16 c -0.33,-1.69 -0.21,-3.63 -0.21,-3.63 h -2.3 V 49.6 h 5.24 c 0.98,0.04 4.73,0.61 3.49,7.28 -0.53,3.01 -1.51,6.75 -1.62,13.79 -0.23,15.26 3.85,24.12 3.85,29.36 0.01,5.47 -0.96,12.51 -5.31,12.66 z"
   id="path441" />
	<path
   class="st2"
   d="M 130.21,18.46 Z"
   id="path443" />
	<polygon
   class="st2"
   points=""
   id="polygon445" />
	<path
   class="st1"
   d="m 126.77,35.96 c 0,0 -1.12,0.01 -1.58,0.32 -0.02,0.01 -0.22,0.16 -0.23,0.52 0,0.01 0,0.03 0,0.04 0,0.04 0.01,0.09 0.01,0.14 0.02,0.13 0.06,0.27 0.15,0.4 0.09,0.12 0.22,0.22 0.41,0.26 0.16,0.03 0.34,0.06 0.53,0.07 0.01,0 0.04,0 0.1,0 h 0.04 l 2.15,-0.04 c 0.04,0 0.07,-0.01 0.07,-0.01 0,0 0,0 -0.01,0.01 h 0.14 v 0 c 0.47,0.01 1.04,0 1.45,-0.07 0.29,-0.05 0.42,-0.2 0.46,-0.28 0.08,-0.16 0.16,-0.42 0.07,-0.7 -0.08,-0.26 -0.29,-0.4 -0.45,-0.48 -0.03,-0.01 -0.05,-0.02 -0.08,-0.04 -0.06,-0.02 -0.1,-0.03 -0.12,-0.04 -0.45,-0.09 -0.91,-0.13 -1.35,-0.15 v 0 c 0,0 0,0 0,0 -0.01,0 -0.02,0 -0.02,0 -0.88,-0.02 -1.6,0.04 -1.74,0.05 z"
   id="path447" />
	<path
   class="st1"
   d="m 129.23,38.36 v 0 c -0.46,-0.01 -0.91,-0.03 -1.37,-0.02 -0.65,0.02 -1.3,0.05 -1.95,0.09 -0.04,0 -0.07,0 -0.11,0.01 -0.13,0.02 -0.24,0.05 -0.32,0.08 -0.15,0.07 -0.2,0.16 -0.21,0.18 -0.05,0.12 -0.04,0.29 0.12,0.54 0.15,0.21 0.38,0.42 0.71,0.58 v 0 c 0.05,0.03 0.1,0.05 0.15,0.07 0.06,0.03 0.13,0.05 0.19,0.07 v 0 c 0,0 0.01,0 0.01,0 0.03,0.01 0.06,0.02 0.08,0.03 0.03,0.01 0.07,0.01 0.11,0.02 0.68,0.15 1.42,0.09 1.42,0.09 v 0 c 0.08,0 0.16,0 0.24,-0.01 0.33,-0.03 0.84,-0.13 1.22,-0.42 0.02,-0.02 0.04,-0.03 0.06,-0.05 0.02,-0.02 0.04,-0.03 0.06,-0.05 0.11,-0.11 0.22,-0.22 0.31,-0.35 0.11,-0.15 0.15,-0.27 0.16,-0.37 0,-0.02 0,-0.04 0,-0.05 0,-0.01 0,-0.01 0,-0.02 -0.05,-0.42 -0.88,-0.42 -0.88,-0.42 z"
   id="path449" />
	<path
   class="st1"
   d="m 128.76,30.33 v 0 c -0.02,-0.27 -0.21,-0.28 -0.4,-0.29 l -1.27,0.03 c 0,0 -0.28,0 -0.31,0.27 0,0 0,0.01 0,0.01 v 0 c 0,0 0,0.01 0,0.01 0,0 -0.01,0.21 0.09,0.37 v 0 c 0.03,0.05 0.07,0.09 0.12,0.12 v 0 c 0,0 0.01,0 0.01,0 0.3,0.2 0.92,0.15 0.92,0.15 0.18,-0.01 0.36,-0.03 0.51,-0.11 0.04,-0.01 0.13,-0.05 0.21,-0.13 0,0 0.01,0 0.01,-0.01 v 0 c 0.07,-0.08 0.14,-0.2 0.14,-0.38 0,0 0,-0.01 0,-0.01 0,-0.01 0,-0.01 0,-0.01 -0.03,0 -0.03,-0.01 -0.03,-0.02 z"
   id="path451" />
	<path
   class="st1"
   d="m 145.4,24.55 c 0,-2.69 -1.82,-4.87 -4.07,-4.87 h -1.71 l -0.96,-7.69 c -0.52,-3.96 -4.02,-7.03 -8.97,-7.03 h -0.14 -3.26 -0.14 c -4.96,0 -8.45,3.07 -8.97,7.03 l -0.96,7.69 h -1.72 c -2.24,0 -4.06,2.18 -4.06,4.87 0,2.69 1.82,4.88 4.06,4.88 h 0.5 l -2.09,16.74 c 0,0.6 0.37,1.08 0.96,1.08 h 14.05 14.05 c 0.58,0 0.96,-0.48 0.96,-1.08 l -2.09,-16.74 h 0.49 c 2.25,0 4.07,-2.19 4.07,-4.88 z m -22.48,3.27 c 0.05,-0.25 0.13,-0.54 0.5,-0.54 0.37,0.01 0.73,0.01 1.1,0 1.45,-0.01 2.9,-0.01 4.35,-0.03 0.82,-0.01 1.63,-0.05 2.45,-0.06 0.12,0 0.32,0.11 0.35,0.2 0.04,0.12 -0.02,0.4 -0.11,0.48 -0.13,0.11 -0.32,0.15 -0.5,0.15 -0.41,0.02 -0.83,0.01 -1.24,0.01 l -1.44,0.03 -0.66,0.03 -2.69,0.05 c -0.56,0 -1.11,0.05 -1.67,0.05 -0.26,0 -0.49,-0.09 -0.44,-0.37 z m 8.66,1.92 c -0.03,0.02 -0.06,0.03 -0.08,0.03 -0.52,0.12 -1.06,0.2 -1.59,0.28 -0.24,0.03 -0.37,0.11 -0.33,0.37 0.03,0.3 -0.02,0.53 -0.09,0.7 0,0.01 0,0.01 -0.01,0.02 -0.02,0.04 -0.04,0.07 -0.06,0.11 -0.02,0.03 -0.04,0.05 -0.06,0.08 -0.01,0.01 -0.01,0.01 -0.02,0.02 -0.02,0.02 -0.04,0.04 -0.06,0.06 -0.01,0.01 -0.03,0.03 -0.04,0.04 0,0 0,0 0,0 -0.16,0.13 -0.36,0.2 -0.36,0.2 v 0 c -0.23,0.07 -0.44,0.2 -0.59,0.38 -0.04,0.06 -0.07,0.14 -0.1,0.25 -0.02,0.1 -0.07,0.4 0.1,0.54 0.03,0.02 0.07,0.04 0.11,0.05 0.18,0.04 0.47,0.08 0.79,0 0.15,-0.03 0.3,-0.09 0.45,-0.17 0,0 0.52,-0.22 0.63,-1.34 0,0 0,0 0,0 0,-0.01 0.01,-0.03 0.01,-0.04 v 0 l 0.03,-0.1 v 0 c 0.02,-0.09 0.1,-0.33 0.32,-0.3 0.17,0.03 0.36,0.12 0.38,0.31 v 0 c 0,0.01 0.01,0.03 0.01,0.05 v 0 0 c 0,0.01 0,0.03 0,0.05 -0.03,0.55 -0.39,1.25 -0.43,1.34 -0.42,0.8 -1.58,0.96 -1.58,0.96 v 0 c -0.04,0.01 -0.07,0.02 -0.11,0.02 -0.02,0 -0.06,0.01 -0.1,0.02 -0.06,0.01 -0.11,0.01 -0.16,0.02 -0.01,0 -0.02,0 -0.03,0 0,0 0,0 0,0 -0.16,0.01 -0.26,0.04 -0.33,0.08 -0.1,0.05 -0.14,0.17 -0.14,0.23 -0.02,0.19 -0.04,0.45 -0.02,0.68 0.01,0.08 0.05,0.2 0.15,0.28 0.01,0.01 0.02,0.01 0.03,0.02 0.01,0.01 0.03,0.01 0.04,0.02 0.08,0.04 0.2,0.07 0.36,0.08 0.25,0.02 0.96,0.06 1.45,0.07 v 0 0 c 0.05,0 0.11,0 0.15,0 0.29,0.02 0.89,0.15 1.07,0.82 0,0.01 0,0.02 0.01,0.03 0,0.02 0.01,0.03 0.01,0.05 0.05,0.23 0.08,0.52 0.08,0.9 0,0.01 0,0.01 0,0.02 0,0.03 0,0.06 0,0.09 v -0.01 c 0,0.16 -0.02,0.32 -0.04,0.48 -0.05,0.42 -0.16,0.82 -0.31,1.2 v 0 c 0,0 -0.23,0.73 -0.72,1.3 -0.24,0.26 -0.73,0.67 -1.55,0.75 -0.3,0.03 -0.54,0.04 -0.54,0.04 0,0 0,0 0.01,0 -0.34,0.01 -0.62,0 -0.62,0 h -0.02 v 0 c -0.4,0.01 -0.72,0 -0.98,-0.02 -0.08,-0.01 -0.17,-0.02 -0.25,-0.04 0,0 -0.01,0 -0.01,0 -0.2,-0.04 -0.39,-0.1 -0.54,-0.16 -0.52,-0.23 -0.86,-0.58 -0.97,-0.72 -0.48,-0.61 -0.59,-1.26 -0.59,-1.26 v 0 c -0.04,-0.18 -0.07,-0.39 -0.09,-0.63 v 0 c -0.07,-0.37 -0.07,-1.18 -0.07,-1.37 0,-0.01 0,-0.02 0,-0.03 0,-0.01 0,-0.01 0,-0.01 0,-0.35 0.04,-0.6 0.1,-0.77 0.02,-0.05 0.03,-0.09 0.05,-0.12 0.01,-0.03 0.02,-0.05 0.03,-0.07 0,-0.01 0.01,-0.01 0.01,-0.02 0.02,-0.03 0.04,-0.05 0.06,-0.08 0.08,-0.1 0.24,-0.21 0.49,-0.26 0.64,-0.1 1.28,-0.14 1.93,-0.2 0.03,0 0.07,-0.01 0.12,-0.02 0.01,0 0.02,0 0.03,-0.01 0.03,-0.01 0.05,-0.01 0.08,-0.02 0.22,-0.09 0.27,-0.32 0.27,-0.33 0.03,-0.33 0.01,-0.81 0.01,-0.84 -0.07,-0.22 -0.28,-0.25 -0.67,-0.26 -0.05,0 -0.1,0 -0.14,0 -0.32,-0.02 -1.84,-0.15 -2.04,-1.34 l -0.12,-0.54 -0.04,-0.29 c 0,0 -0.1,-0.51 0.13,-0.56 v 0 c 0.01,0 0.22,-0.06 0.36,0.16 0,0 0.14,0.21 0.2,0.45 v 0 c 0.04,0.14 0.06,0.28 0.07,0.36 0,0 0.08,0.87 1,1.08 0.09,0.01 0.18,0.03 0.27,0.04 0.01,0 0.01,0 0.02,0 0.01,0 0.03,0 0.04,0 0.21,0.02 0.75,0.05 0.89,-0.18 0.01,-0.03 0.02,-0.05 0.03,-0.08 0.01,-0.13 0.01,-0.24 0.01,-0.33 0,-0.01 0,-0.02 0,-0.02 v 0 c 0,-0.02 0,-0.04 -0.01,-0.06 0,-0.02 0,-0.03 -0.01,-0.05 -0.05,-0.23 -0.22,-0.35 -0.37,-0.42 v 0 c 0,0 -0.01,-0.01 -0.02,-0.01 0,0 -0.01,0 -0.01,0 -0.02,-0.01 -0.03,-0.01 -0.05,-0.02 v 0 0 c -0.01,0 -0.02,0 -0.03,-0.01 -0.07,-0.02 -0.15,-0.05 -0.17,-0.05 -0.12,-0.05 -0.23,-0.1 -0.26,-0.12 -0.42,-0.26 -0.5,-0.73 -0.5,-0.73 v 0 c -0.02,-0.1 -0.04,-0.19 -0.03,-0.29 0.02,-0.44 -0.14,-0.56 -0.57,-0.52 -0.59,0.05 -1.17,0.08 -1.76,0.1 -0.05,0 -0.1,-0.01 -0.15,-0.02 -0.04,0 -0.08,-0.01 -0.11,-0.02 0,0 -0.01,0 -0.01,0 -0.14,-0.05 -0.2,-0.14 -0.22,-0.22 -0.03,-0.13 0.01,-0.27 0.03,-0.33 0.04,-0.09 0.11,-0.16 0.16,-0.2 0.26,-0.18 0.67,-0.19 0.67,-0.19 v 0 c 0.02,0 0.04,-0.01 0.06,-0.01 1.33,-0.04 2.65,-0.02 3.98,-0.05 0.94,-0.02 1.89,-0.07 2.83,-0.1 0.23,-0.01 0.48,-0.01 0.69,0.06 0.01,0 0.02,0.01 0.03,0.01 v 0 c 0,0 0,0 0.01,0.01 0.03,0.02 0.06,0.04 0.09,0.06 0.04,0.03 0.08,0.07 0.09,0.1 0,0.01 0.05,0.09 0.03,0.22 -0.03,0.1 -0.07,0.19 -0.18,0.27 z m 1.22,-4.94 v 0 c 0,0.04 -0.01,0.08 -0.02,0.1 -0.01,0.02 -0.02,0.04 -0.04,0.06 -0.19,0.26 -1.23,0.21 -1.65,0.18 -0.7,-0.03 -2.05,-0.05 -2.06,-0.05 -0.1,0 -0.2,0 -0.31,0 -0.58,0.01 -1.16,-0.01 -1.74,0.02 v 0 c 0,0 -1.39,0.06 -2.44,0.12 h -0.05 c -0.05,0 -0.11,0.01 -0.16,0.01 -0.06,0 -0.17,0.01 -0.31,0.02 -0.06,0 -0.11,0.01 -0.16,0.01 v 0 0 c -0.03,0 -0.07,0 -0.1,0.01 v 0 0 c -0.11,0.01 -0.19,0.01 -0.26,0.02 -0.33,0.02 -0.8,0.02 -1.09,-0.06 -0.29,-0.12 -0.21,-0.42 -0.21,-0.42 v 0 c 0,0 0.02,-0.23 0.48,-0.27 l 2.24,-0.09 v 0 l 1.07,-0.08 c 0.21,-0.01 0.27,-0.22 0.27,-0.24 0,-0.01 0,-0.02 0,-0.03 0.01,-0.65 0,-1.31 0,-1.96 0,-0.21 0.01,-0.42 0.01,-0.63 0.02,-0.67 0.01,-1.33 0.07,-2 0.01,-0.24 0.04,-0.44 0.08,-0.61 v 0 c 0,-0.01 0.01,-0.02 0.01,-0.03 0,-0.01 0,-0.01 0,-0.02 0.04,-0.22 0.11,-0.38 0.19,-0.49 0.07,-0.1 0.14,-0.17 0.19,-0.21 0.05,-0.03 0.08,-0.05 0.08,-0.05 0.48,-0.27 1.01,-0.26 1.53,-0.28 0.14,-0.01 0.28,-0.01 0.42,-0.01 v 0 c 0,0 0.6,0 0.9,-0.34 0.28,-0.38 0.06,-0.63 -0.04,-0.71 -0.07,-0.05 -0.15,-0.1 -0.24,-0.12 -0.34,-0.09 -0.7,-0.15 -1.05,-0.19 -0.41,-0.05 -0.82,-0.04 -1.23,-0.08 -0.88,-0.1 -1.06,-0.23 -1.03,-1.14 0.03,-1.18 -0.08,-0.84 0.01,-2.02 0.02,-0.33 0.31,-0.65 0.56,-0.7 0.23,-0.04 0.36,0.07 0.38,0.26 0,0.01 0,0.01 0,0.02 0.01,0.15 -0.02,0.39 -0.07,0.62 0,0 -0.05,0.32 -0.08,0.71 -0.01,0.1 -0.05,0.51 0.04,0.87 0.05,0.16 0.13,0.32 0.27,0.41 0.06,0.04 0.14,0.07 0.23,0.08 0.01,0 0.02,0 0.04,0 0.09,0.01 0.2,0.02 0.32,0.03 v 0 c 0.18,0.02 0.37,0.04 0.53,0.06 0.04,0.01 0.59,0.09 1.07,0.22 0.07,0.02 0.14,0.04 0.21,0.06 0.04,0.01 0.1,0.03 0.16,0.05 v 0 c 0,0 0.01,0 0.01,0 v 0 c 0.03,0.01 0.17,0.06 0.31,0.13 0.15,0.07 0.43,0.26 0.53,0.69 0.03,0.16 0.08,0.55 -0.07,1.03 -0.02,0.05 -0.03,0.1 -0.06,0.15 -0.08,0.17 -0.18,0.29 -0.25,0.36 -0.02,0.02 -0.04,0.04 -0.06,0.05 v 0 c -0.68,0.52 -2.19,0.54 -2.19,0.54 v 0 c -0.49,0.01 -0.66,0.08 -0.72,0.72 0,0.04 -0.01,0.08 -0.02,0.12 v 0 c 0,0 -0.13,1.06 0.17,1.11 0.05,0.01 0.1,0.02 0.16,0.02 0.83,0 1.65,0.02 2.48,-0.01 0.07,0 0.14,0 0.21,0.01 v 0 c 0,0 0.66,-0.01 0.89,0.35 0.02,0.04 0.06,0.14 0.03,0.32 -0.03,0.1 -0.08,0.2 -0.18,0.28 -0.18,0.14 -0.41,0.18 -0.65,0.16 -0.44,-0.03 -0.88,-0.08 -1.32,-0.12 -0.06,0 -1.41,-0.08 -1.68,0.11 0,0 -0.12,0.06 -0.21,0.24 -0.03,0.07 -0.06,0.21 -0.08,0.49 v 0 c 0,0 -0.02,0.5 -0.02,0.56 0,0.27 0,0.58 0.04,0.78 0.03,0.14 0.07,0.23 0.15,0.25 v 0 c 0.1,0.02 0.24,0.02 0.45,0.03 1.23,0 2,-0.05 3.22,0.02 0.27,0.02 0.5,0.01 0.72,0.02 v 0 c 1.21,0.03 1.12,0.48 1.12,0.48 z"
   id="path453" />
	<polygon
   class="st2"
   points=""
   id="polygon455" />
</g>
</svg>
