<?xml version="1.0" encoding="UTF-8"?>
<svg xmlns="http://www.w3.org/2000/svg" xmlns:xlink="http://www.w3.org/1999/xlink" width="252pt" height="252pt" viewBox="0 0 252 252" version="1.1">
<g id="surface1">
<path style=" stroke:none;fill-rule:nonzero;fill:rgb(0%,38.039216%,65.098039%);fill-opacity:1;" d="M 125.933594 0.546875 C 56.621094 0.554688 0.25 56.925781 0.242188 126.242188 C 0.25 195.546875 56.621094 251.925781 125.933594 251.925781 C 195.246094 251.925781 251.625 195.546875 251.625 126.242188 C 251.625 56.925781 195.246094 0.554688 125.933594 0.546875 Z M 206.359375 206.535156 C 185.75 227.109375 157.3125 239.851562 125.933594 239.851562 C 94.554688 239.851562 66.117188 227.117188 45.5 206.535156 C 24.890625 185.957031 12.132812 157.5625 12.132812 126.242188 C 12.132812 94.910156 24.890625 66.523438 45.5 45.945312 C 66.109375 25.363281 94.554688 12.628906 125.933594 12.628906 C 157.3125 12.628906 185.75 25.371094 206.359375 45.945312 C 226.96875 66.523438 239.726562 94.917969 239.726562 126.242188 C 239.734375 157.5625 226.976562 185.949219 206.359375 206.535156 Z M 206.359375 206.535156 "/>
<path style=" stroke:none;fill-rule:nonzero;fill:rgb(0%,38.039216%,65.098039%);fill-opacity:1;" d="M 117.066406 84.976562 C 116.910156 84.808594 116.726562 84.691406 116.546875 84.609375 C 116.28125 84.484375 116.007812 84.421875 115.71875 84.378906 C 115.433594 84.34375 115.128906 84.328125 114.796875 84.328125 C 113.636719 84.328125 112.203125 84.511719 110.777344 84.695312 C 109.359375 84.882812 107.960938 85.050781 107 85.050781 C 106.253906 85.050781 105.714844 85 105.367188 84.917969 C 105.109375 84.859375 104.960938 84.785156 104.886719 84.742188 L 104.789062 84.652344 C 104.761719 84.609375 104.722656 84.519531 104.703125 84.34375 C 104.679688 84.164062 104.679688 83.914062 104.679688 83.601562 C 104.679688 82.164062 104.679688 77.101562 104.679688 75.253906 L 104.710938 75.230469 C 104.804688 75.171875 104.988281 75.089844 105.25 75.015625 C 105.691406 74.890625 106.328125 74.785156 107.039062 74.683594 C 108.101562 74.535156 109.335938 74.386719 110.496094 74.121094 C 111.070312 73.988281 111.632812 73.820312 112.160156 73.582031 C 112.675781 73.351562 113.15625 73.058594 113.554688 72.652344 C 114.324219 71.859375 114.679688 70.90625 114.679688 70.019531 C 114.679688 68.984375 114.242188 68.078125 113.660156 67.398438 C 113.363281 67.058594 113.015625 66.777344 112.640625 66.570312 C 112.261719 66.363281 111.847656 66.230469 111.398438 66.230469 C 111.117188 66.230469 110.828125 66.265625 110.503906 66.324219 C 109.378906 66.523438 107.835938 66.996094 106.535156 67.425781 C 106.179688 67.542969 105.847656 67.65625 105.542969 67.757812 C 105.757812 66.429688 106.039062 64.351562 106.039062 62.402344 C 106.03125 61.152344 105.9375 59.960938 105.566406 58.972656 L 105.550781 58.933594 L 105.535156 58.90625 C 104.9375 57.664062 103.867188 56.851562 102.730469 56.371094 C 101.582031 55.882812 100.34375 55.691406 99.234375 55.691406 C 98.398438 55.691406 97.636719 55.792969 97.015625 56.007812 C 96.707031 56.121094 96.425781 56.253906 96.167969 56.46875 C 96.039062 56.578125 95.914062 56.703125 95.820312 56.875 C 95.722656 57.042969 95.65625 57.257812 95.65625 57.480469 C 95.65625 57.929688 95.753906 58.402344 95.878906 58.914062 C 96.195312 60.191406 96.507812 61.617188 96.675781 62.039062 C 97.171875 65.238281 97.066406 80.101562 97.066406 81.824219 C 97.066406 82.777344 96.882812 83.972656 96.550781 84.84375 C 96.386719 85.28125 96.1875 85.628906 96.019531 85.828125 C 95.929688 85.925781 95.855469 85.984375 95.804688 86.003906 L 95.695312 86.035156 C 95.273438 86.035156 94.636719 86.085938 93.816406 86.167969 C 91.371094 86.398438 87.371094 86.847656 84.859375 86.847656 C 84.070312 86.847656 83.464844 86.847656 82.976562 86.863281 C 82.613281 86.878906 82.316406 86.898438 82.035156 86.957031 C 81.828125 87.003906 81.628906 87.0625 81.421875 87.1875 C 81.277344 87.277344 81.128906 87.410156 81.015625 87.558594 C 80.855469 87.785156 80.796875 88.03125 80.765625 88.230469 C 80.734375 88.429688 80.734375 88.613281 80.734375 88.796875 C 80.734375 88.902344 80.734375 89.011719 80.734375 89.132812 C 80.734375 89.582031 80.800781 90.113281 80.9375 90.691406 C 81.128906 91.546875 81.460938 92.492188 81.976562 93.292969 C 82.234375 93.691406 82.554688 94.058594 82.953125 94.339844 C 83.34375 94.621094 83.847656 94.820312 84.386719 94.8125 C 84.957031 94.8125 85.71875 94.71875 86.632812 94.578125 C 88 94.371094 89.664062 94.058594 91.164062 93.808594 C 91.910156 93.683594 92.621094 93.566406 93.21875 93.484375 C 93.816406 93.402344 94.3125 93.359375 94.59375 93.359375 C 95.117188 93.359375 95.847656 93.304688 96.800781 93.226562 C 99.640625 92.996094 104.40625 92.539062 110.125 92.539062 C 111.632812 92.539062 112.839844 92.382812 113.820312 92.101562 C 115.285156 91.6875 116.265625 90.941406 116.808594 90.054688 C 117.355469 89.167969 117.464844 88.222656 117.464844 87.445312 C 117.464844 86.773438 117.382812 86.183594 117.390625 85.878906 C 117.414062 85.554688 117.28125 85.207031 117.066406 84.976562 Z M 117.066406 84.976562 "/>
<path style=" stroke:none;fill-rule:nonzero;fill:rgb(0%,38.039216%,65.098039%);fill-opacity:1;" d="M 148.917969 72.679688 C 148.363281 72.238281 147.644531 71.914062 146.816406 71.914062 C 145.828125 71.914062 144.800781 71.914062 144.007812 71.90625 C 143.476562 71.90625 143.054688 71.90625 142.847656 71.898438 C 142.894531 71.816406 142.945312 71.726562 143.011719 71.617188 C 143.226562 71.300781 143.566406 70.878906 144.0625 70.367188 C 144.410156 70 144.59375 69.578125 144.769531 69.125 C 145.03125 68.453125 145.230469 67.699219 145.464844 67.019531 C 145.695312 66.347656 145.976562 65.765625 146.242188 65.503906 C 146.839844 64.890625 147.394531 64.195312 147.816406 63.457031 C 148.230469 62.726562 148.53125 61.949219 148.539062 61.128906 C 148.539062 60.8125 148.4375 60.515625 148.304688 60.28125 C 148.050781 59.867188 147.71875 59.59375 147.363281 59.347656 C 146.832031 58.988281 146.226562 58.707031 145.722656 58.457031 C 145.472656 58.328125 145.242188 58.21875 145.074219 58.128906 C 144.992188 58.085938 144.917969 58.042969 144.875 58.011719 L 144.824219 57.976562 L 144.808594 57.96875 C 144.511719 57.671875 144.164062 57.488281 143.765625 57.332031 C 143.367188 57.183594 142.929688 57.082031 142.464844 57.082031 C 142.050781 57.082031 141.59375 57.160156 141.179688 57.472656 C 140.980469 57.628906 140.800781 57.847656 140.691406 58.101562 C 140.582031 58.351562 140.527344 58.625 140.527344 58.90625 C 140.527344 60.421875 140.359375 63.148438 138.910156 66.050781 C 138.128906 67.617188 137.300781 69.628906 136.546875 71.511719 C 135.792969 73.398438 135.121094 75.164062 134.675781 76.199219 L 134.667969 76.214844 L 134.675781 76.199219 C 134.410156 76.835938 134.09375 77.21875 133.839844 77.484375 C 133.714844 77.617188 133.605469 77.714844 133.5 77.800781 C 133.449219 77.847656 133.398438 77.890625 133.332031 77.964844 C 133.292969 78 133.257812 78.046875 133.199219 78.136719 C 133.152344 78.214844 133.070312 78.347656 133.066406 78.59375 C 133.066406 78.695312 133.085938 78.816406 133.132812 78.925781 C 133.21875 79.132812 133.375 79.257812 133.480469 79.324219 C 133.671875 79.433594 133.765625 79.433594 133.847656 79.457031 C 133.964844 79.472656 134.054688 79.480469 134.164062 79.480469 C 134.269531 79.480469 134.386719 79.480469 134.535156 79.480469 C 135.023438 79.480469 135.464844 79.375 135.851562 79.25 C 137.019531 78.84375 137.757812 78.289062 139.730469 78.273438 C 140.179688 78.273438 140.535156 78.304688 140.808594 78.363281 C 141.007812 78.410156 141.15625 78.460938 141.261719 78.519531 C 141.414062 78.609375 141.476562 78.675781 141.542969 78.808594 C 141.609375 78.941406 141.660156 79.160156 141.660156 79.496094 C 141.660156 80.0625 141.503906 80.929688 141.195312 82.058594 C 140.792969 83.5 140.484375 84.898438 140.160156 85.863281 C 139.996094 86.34375 139.820312 86.714844 139.6875 86.898438 C 139.632812 86.964844 139.605469 87.003906 139.582031 87.019531 C 139.5625 87.011719 139.523438 86.996094 139.464844 86.957031 C 139.367188 86.898438 139.234375 86.789062 139.074219 86.617188 C 138.214844 85.730469 137.617188 84.910156 137.144531 84.277344 C 136.90625 83.957031 136.707031 83.691406 136.492188 83.457031 C 136.382812 83.335938 136.273438 83.226562 136.109375 83.125 C 135.953125 83.027344 135.738281 82.917969 135.460938 82.917969 C 135.296875 82.917969 135.125 82.953125 134.992188 83.027344 C 134.851562 83.09375 134.742188 83.183594 134.660156 83.269531 C 134.484375 83.457031 134.425781 83.640625 134.386719 83.78125 C 134.359375 83.929688 134.351562 84.054688 134.351562 84.171875 C 134.351562 84.4375 134.386719 84.703125 134.445312 85 C 134.640625 86.035156 135.097656 87.496094 135.496094 88.886719 C 135.695312 89.582031 135.886719 90.253906 136.019531 90.824219 C 136.152344 91.386719 136.234375 91.867188 136.226562 92.078125 C 136.226562 92.507812 136.351562 92.914062 136.566406 93.246094 C 136.894531 93.742188 137.375 94.039062 137.855469 94.222656 C 138.339844 94.40625 138.859375 94.480469 139.355469 94.480469 C 139.753906 94.480469 140.128906 94.429688 140.492188 94.328125 C 140.847656 94.214844 141.195312 94.066406 141.488281 93.765625 C 141.726562 93.519531 142.09375 93.085938 142.570312 92.480469 C 143.277344 91.578125 144.203125 90.320312 145.058594 88.984375 C 145.917969 87.636719 146.699219 86.21875 147.144531 84.933594 C 147.691406 83.328125 148.28125 81.328125 148.820312 79.640625 C 149.09375 78.800781 149.34375 78.039062 149.566406 77.460938 C 149.675781 77.175781 149.78125 76.9375 149.863281 76.761719 C 149.90625 76.671875 149.945312 76.605469 149.964844 76.5625 L 149.996094 76.515625 L 150.003906 76.507812 C 150.15625 76.347656 150.261719 76.152344 150.320312 75.96875 C 150.378906 75.777344 150.402344 75.59375 150.410156 75.40625 C 150.410156 75 150.296875 74.609375 150.128906 74.226562 C 149.878906 73.6875 149.472656 73.125 148.917969 72.679688 Z M 150.003906 76.539062 Z M 150.003906 76.539062 "/>
<path style=" stroke:none;fill-rule:nonzero;fill:rgb(0%,38.039216%,65.098039%);fill-opacity:1;" d="M 170.953125 74.203125 C 170.117188 73.085938 169.023438 72.191406 167.886719 71.625 C 167.101562 71.234375 166.269531 71.09375 165.460938 71.09375 C 164.125 71.09375 162.855469 71.46875 161.90625 71.832031 C 160.960938 72.191406 160.328125 72.554688 160.304688 72.570312 L 159.832031 72.84375 C 159.832031 70.277344 159.832031 68.164062 159.832031 66.324219 C 159.832031 65.410156 160.082031 64.640625 160.371094 63.8125 C 160.652344 62.992188 161 62.105469 161 61.035156 C 161 60.671875 160.902344 60.324219 160.761719 60.023438 C 160.511719 59.480469 160.113281 59.023438 159.640625 58.601562 C 158.929688 57.980469 158.058594 57.449219 157.15625 57.058594 C 156.253906 56.675781 155.351562 56.414062 154.527344 56.414062 C 153.640625 56.414062 152.878906 56.726562 152.351562 57.222656 C 151.828125 57.714844 151.53125 58.382812 151.53125 59.0625 C 151.53125 59.601562 151.730469 60.167969 152.144531 60.589844 L 152.136719 60.582031 L 152.144531 60.589844 C 152.457031 60.902344 152.847656 61.625 153.105469 62.363281 C 153.238281 62.734375 153.351562 63.117188 153.425781 63.457031 C 153.5 63.796875 153.535156 64.101562 153.535156 64.292969 C 153.535156 64.292969 153.535156 70.316406 153.535156 73.375 C 153.535156 73.972656 153.484375 75 153.410156 76.242188 C 153.179688 79.980469 152.714844 85.746094 152.714844 89.25 C 152.714844 90.152344 152.746094 90.898438 152.824219 91.472656 L 153.640625 91.355469 L 152.824219 91.472656 C 152.972656 92.515625 153.238281 93.246094 153.71875 93.773438 C 153.957031 94.03125 154.253906 94.222656 154.546875 94.328125 C 154.84375 94.4375 155.132812 94.464844 155.390625 94.464844 C 155.722656 94.464844 156.019531 94.414062 156.269531 94.378906 C 156.519531 94.339844 156.734375 94.3125 156.867188 94.3125 C 157.199219 94.3125 157.519531 94.1875 157.753906 94.015625 C 158.167969 93.707031 158.40625 93.300781 158.605469 92.855469 C 158.894531 92.183594 159.078125 91.371094 159.210938 90.492188 C 159.335938 89.617188 159.394531 88.695312 159.394531 87.835938 C 159.394531 86.625 159.507812 83.972656 159.617188 81.253906 C 159.726562 78.527344 159.839844 75.726562 159.839844 74.113281 C 159.839844 73.996094 159.839844 73.894531 159.839844 73.773438 L 160.378906 74.027344 C 161.464844 74.519531 162.667969 75.710938 163.621094 77.011719 C 164.582031 78.3125 165.316406 79.738281 165.589844 80.582031 C 165.800781 81.230469 166.074219 81.917969 166.496094 82.503906 C 166.703125 82.796875 166.957031 83.070312 167.265625 83.285156 C 167.578125 83.5 167.976562 83.65625 168.410156 83.648438 C 168.949219 83.648438 169.476562 83.425781 169.949219 83.050781 C 170.421875 82.671875 170.878906 82.148438 171.359375 81.421875 C 172.070312 80.359375 172.386719 79.234375 172.378906 78.15625 C 172.363281 76.679688 171.789062 75.320312 170.953125 74.203125 Z M 170.953125 74.203125 "/>
<path style=" stroke:none;fill-rule:nonzero;fill:rgb(0%,38.039216%,65.098039%);fill-opacity:1;" d="M 96.5 181.859375 L 97.082031 181.859375 L 97.082031 157.371094 L 93.707031 157.371094 L 93.640625 157.84375 C 93.441406 159.269531 92.894531 160.253906 92.035156 160.910156 C 91.179688 161.566406 89.9375 161.929688 88.238281 161.929688 L 87.667969 161.914062 L 87.054688 161.894531 L 87.054688 165.359375 L 92.824219 165.359375 L 92.824219 181.859375 Z M 96.5 181.859375 "/>
<path style=" stroke:none;fill-rule:nonzero;fill:rgb(0%,38.039216%,65.098039%);fill-opacity:1;" d="M 112.925781 178.949219 L 112.707031 178.941406 L 112.667969 178.941406 C 111.507812 178.941406 110.726562 178.660156 110.15625 178.152344 C 109.59375 177.640625 109.21875 176.84375 109.097656 175.660156 L 109.039062 175.164062 L 104.929688 175.164062 L 104.976562 175.75 C 105.109375 177.753906 105.824219 179.371094 107.140625 180.472656 C 108.464844 181.582031 110.324219 182.148438 112.644531 182.238281 L 112.683594 182.238281 C 115.617188 182.15625 117.972656 180.90625 119.535156 178.609375 C 121.09375 176.3125 121.929688 173.015625 122.113281 168.714844 L 122.113281 168.683594 C 122.015625 165.070312 121.261719 162.292969 119.746094 160.347656 C 118.234375 158.40625 115.933594 157.398438 113.074219 157.363281 L 113.046875 157.363281 C 110.480469 157.488281 108.417969 158.28125 107.007812 159.75 C 105.589844 161.222656 104.851562 163.304688 104.710938 165.941406 L 104.710938 165.988281 C 104.796875 168.492188 105.5 170.480469 106.882812 171.871094 C 108.265625 173.257812 110.28125 173.96875 112.792969 174.058594 L 112.839844 174.058594 C 114.804688 174.003906 116.40625 173.464844 117.574219 172.492188 C 117.183594 174.464844 116.652344 175.992188 115.988281 177.035156 C 115.105469 178.386719 114.152344 178.941406 112.925781 178.949219 Z M 116.246094 169.171875 C 115.59375 169.917969 114.6875 170.316406 113.324219 170.371094 L 113.089844 170.371094 C 111.613281 170.371094 110.628906 170.007812 109.976562 169.34375 C 109.328125 168.683594 108.953125 167.628906 108.953125 166.113281 L 108.953125 165.855469 C 108.996094 164.28125 109.386719 163.164062 110.058594 162.433594 C 110.726562 161.703125 111.679688 161.289062 113.082031 161.199219 C 114.488281 161.25 115.453125 161.632812 116.132812 162.320312 C 116.8125 163.015625 117.234375 164.082031 117.324219 165.601562 C 117.273438 167.25 116.886719 168.433594 116.246094 169.171875 Z M 116.246094 169.171875 "/>
<path style=" stroke:none;fill-rule:nonzero;fill:rgb(0%,38.039216%,65.098039%);fill-opacity:1;" d="M 134.609375 181.859375 L 138.734375 181.859375 L 138.734375 176.273438 L 142.355469 176.273438 L 142.355469 172.792969 L 138.734375 172.792969 L 138.734375 157.941406 L 135.28125 157.941406 L 123.996094 172.785156 L 123.996094 176.273438 L 134.609375 176.273438 Z M 128.503906 172.785156 L 134.609375 164.480469 L 134.609375 172.785156 Z M 128.503906 172.785156 "/>
<path style=" stroke:none;fill-rule:nonzero;fill:rgb(0%,38.039216%,65.098039%);fill-opacity:1;" d="M 152.464844 157.371094 L 152.410156 157.371094 C 149.847656 157.496094 147.785156 158.285156 146.375 159.757812 C 144.957031 161.226562 144.214844 163.3125 144.070312 165.949219 L 144.070312 165.996094 C 144.15625 168.5 144.859375 170.488281 146.242188 171.878906 C 147.625 173.265625 149.640625 173.976562 152.152344 174.066406 L 152.199219 174.066406 C 154.164062 174.011719 155.765625 173.472656 156.933594 172.5 C 156.542969 174.472656 156.011719 176 155.347656 177.042969 C 154.480469 178.386719 153.519531 178.941406 152.292969 178.957031 L 152.070312 178.949219 L 152.035156 178.949219 C 150.882812 178.949219 150.085938 178.667969 149.523438 178.160156 C 148.960938 177.648438 148.582031 176.851562 148.457031 175.667969 L 148.398438 175.171875 L 144.296875 175.171875 L 144.335938 175.757812 C 144.476562 177.757812 145.183594 179.378906 146.507812 180.480469 C 147.832031 181.585938 149.691406 182.15625 152.011719 182.246094 L 152.058594 182.246094 C 154.984375 182.164062 157.347656 180.914062 158.902344 178.617188 C 160.460938 176.320312 161.292969 173.023438 161.480469 168.722656 L 161.480469 168.691406 C 161.382812 165.078125 160.628906 162.300781 159.113281 160.355469 C 157.621094 158.414062 155.316406 157.40625 152.464844 157.371094 Z M 155.621094 169.171875 C 154.96875 169.917969 154.058594 170.316406 152.699219 170.371094 L 152.472656 170.371094 C 150.992188 170.371094 150.003906 170.007812 149.359375 169.34375 C 148.710938 168.683594 148.332031 167.628906 148.332031 166.113281 L 148.332031 165.855469 C 148.371094 164.28125 148.761719 163.164062 149.441406 162.433594 C 150.097656 161.703125 151.066406 161.289062 152.464844 161.199219 C 153.859375 161.25 154.835938 161.632812 155.515625 162.320312 C 156.195312 163.015625 156.609375 164.082031 156.699219 165.601562 C 156.644531 167.25 156.261719 168.433594 155.621094 169.171875 Z M 155.621094 169.171875 "/>
<path style=" stroke:none;fill-rule:nonzero;fill:rgb(0%,38.039216%,65.098039%);fill-opacity:1;" d="M 66.339844 136.722656 C 60.429688 133.796875 56.460938 134.378906 56.460938 134.378906 C 48.210938 136.148438 52.691406 141.695312 52.691406 141.695312 C 57.132812 145.4375 65.1875 141.742188 65.1875 141.742188 C 71.925781 145.8125 77.484375 141.453125 77.484375 141.453125 C 90.144531 139.019531 84.386719 128.289062 84.386719 128.289062 C 82.863281 124.898438 74.867188 119.097656 69.390625 117.148438 C 65.355469 115.714844 66.8125 110.859375 69.390625 110.605469 C 71.972656 110.363281 71.453125 111.597656 74.824219 112.417969 C 78.195312 113.238281 81.328125 109.949219 81.171875 108.632812 C 81.046875 107.613281 79.582031 108.078125 78.933594 108.335938 C 79.222656 108.210938 79.441406 108.117188 78.230469 108.632812 C 76.40625 109.417969 73.871094 107.929688 73.871094 107.929688 C 69.746094 105.34375 68.839844 106.246094 68.839844 106.246094 C 54.425781 110.894531 52.128906 120.066406 52.128906 120.066406 C 52.011719 128.535156 58.996094 128.949219 58.996094 128.949219 C 72.007812 130.929688 72.480469 134.09375 72.480469 134.09375 C 75.976562 139.390625 66.339844 136.722656 66.339844 136.722656 Z M 62.609375 140.542969 C 60.074219 142.886719 56.820312 141.535156 56.820312 141.535156 C 50.945312 138.820312 56.023438 137.542969 56.023438 137.542969 C 59.121094 137.253906 62.609375 140.253906 62.609375 140.253906 Z M 69.046875 124.765625 C 69.046875 124.765625 65.039062 123.804688 63.324219 123.15625 C 61.566406 122.480469 55.269531 119.28125 61.550781 114.226562 L 62.089844 114.042969 C 62.089844 114.042969 60.554688 119.472656 67.738281 121.394531 C 74.921875 123.308594 88.199219 132.53125 79.480469 138.535156 C 79.480469 138.527344 81.195312 129.066406 69.046875 124.765625 Z M 69.046875 124.765625 "/>
<path style=" stroke:none;fill-rule:nonzero;fill:rgb(0%,38.039216%,65.098039%);fill-opacity:1;" d="M 141.828125 136.722656 C 135.917969 133.796875 131.949219 134.378906 131.949219 134.378906 C 123.703125 136.148438 128.179688 141.695312 128.179688 141.695312 C 132.621094 145.4375 140.675781 141.742188 140.675781 141.742188 C 147.417969 145.8125 152.972656 141.453125 152.972656 141.453125 C 165.632812 139.019531 159.875 128.289062 159.875 128.289062 C 158.355469 124.898438 150.359375 119.097656 144.882812 117.148438 C 140.847656 115.714844 142.300781 110.859375 144.882812 110.605469 C 147.460938 110.363281 146.941406 111.597656 150.3125 112.417969 C 153.683594 113.238281 156.824219 109.949219 156.660156 108.632812 C 156.535156 107.613281 155.074219 108.078125 154.429688 108.335938 C 154.71875 108.210938 154.9375 108.117188 153.71875 108.632812 C 151.902344 109.417969 149.359375 107.929688 149.359375 107.929688 C 145.234375 105.34375 144.328125 106.246094 144.328125 106.246094 C 129.917969 110.894531 127.617188 120.066406 127.617188 120.066406 C 127.5 128.535156 134.484375 128.949219 134.484375 128.949219 C 147.496094 130.929688 147.96875 134.09375 147.96875 134.09375 C 151.472656 139.390625 141.828125 136.722656 141.828125 136.722656 Z M 138.097656 140.542969 C 135.5625 142.886719 132.3125 141.535156 132.3125 141.535156 C 126.4375 138.820312 131.511719 137.542969 131.511719 137.542969 C 134.609375 137.253906 138.097656 140.253906 138.097656 140.253906 Z M 144.542969 124.765625 C 144.542969 124.765625 140.535156 123.804688 138.820312 123.15625 C 137.0625 122.480469 130.765625 119.28125 137.039062 114.226562 L 137.582031 114.042969 C 137.582031 114.042969 136.042969 119.472656 143.226562 121.394531 C 150.410156 123.308594 163.6875 132.53125 154.96875 138.535156 C 154.96875 138.527344 156.683594 129.066406 144.542969 124.765625 Z M 144.542969 124.765625 "/>
<path style=" stroke:none;fill-rule:nonzero;fill:rgb(0%,38.039216%,65.098039%);fill-opacity:1;" d="M 113.652344 123.089844 C 114.730469 126.457031 114.988281 134.601562 114.035156 136.382812 C 113.082031 138.164062 110.976562 137.019531 110.976562 137.019531 C 112.957031 131.800781 110.976562 122.007812 110.976562 122.007812 C 111.550781 109.351562 114.671875 107.953125 114.671875 107.953125 C 116.652344 105.410156 114.226562 106.238281 114.226562 106.238281 C 107.15625 109.359375 103.210938 107.703125 103.210938 107.703125 C 89.523438 103.628906 89.003906 115.460938 89.003906 115.460938 L 89.042969 115.765625 C 89.746094 116.601562 90.210938 115.519531 90.210938 115.519531 C 95.621094 109.351562 103.710938 113.164062 103.710938 113.164062 C 101.671875 115.078125 101.863281 119.785156 101.863281 119.785156 C 98.871094 119.273438 94.734375 119.96875 91.296875 122.453125 C 87.851562 124.9375 89.640625 127.285156 89.640625 127.285156 C 92.125 125.503906 98.945312 124.9375 98.945312 124.9375 C 106.777344 124.683594 103.015625 134.917969 103.015625 134.917969 C 96.335938 134.179688 90.691406 135.820312 88.820312 140.136719 C 87.085938 144.140625 89.199219 143.316406 89.199219 143.316406 C 91.429688 140.195312 97.164062 138.992188 101.488281 139.6875 C 105.816406 140.386719 105.242188 142.355469 115.113281 143.441406 C 115.179688 143.449219 115.246094 143.457031 115.3125 143.460938 C 124.914062 144.238281 119.328125 122.710938 119.328125 122.710938 C 117.921875 109.992188 123.339844 107.636719 123.339844 107.636719 C 125.253906 106.046875 122.445312 106.171875 122.445312 106.171875 C 110.339844 106.164062 113.652344 123.089844 113.652344 123.089844 Z M 113.652344 123.089844 "/>
<path style=" stroke:none;fill-rule:nonzero;fill:rgb(0%,38.039216%,65.098039%);fill-opacity:1;" d="M 188.691406 108.132812 C 188.691406 108.132812 188.636719 107.863281 188.003906 107.761719 C 188.003906 107.761719 179.007812 108.398438 176.8125 105.757812 C 176.8125 105.757812 171.53125 109.925781 166.511719 109.503906 L 166.496094 109.5 L 166.144531 109.445312 C 166.144531 109.445312 165.09375 110.390625 166.082031 111.183594 C 166.082031 111.183594 169.800781 114.507812 176.710938 111.871094 L 176.710938 118.460938 C 176.710938 118.460938 162.484375 125.535156 165.824219 135.710938 C 165.824219 135.710938 172.949219 151.324219 192.613281 139.507812 C 192.613281 139.507812 194.867188 143.460938 196.070312 143.832031 C 197.277344 144.203125 202.355469 143.9375 200.675781 139.828125 C 200.675781 139.828125 197.59375 137.394531 197.640625 134.5 L 197.640625 111.292969 C 197.640625 111.292969 201.976562 108.449219 200.253906 106.285156 C 200.253906 106.285156 195.496094 108.65625 193.558594 106.917969 C 193.558594 106.917969 192.355469 106.652344 191.832031 107.703125 C 191.832031 107.703125 190.996094 109.859375 190.210938 110.554688 L 186.316406 112.957031 L 186.316406 111.078125 C 187.476562 110.585938 188.519531 109.703125 188.691406 108.132812 Z M 174.324219 123.53125 C 174.324219 123.53125 175.527344 122.277344 176.710938 122.296875 L 176.695312 123.28125 L 176.695312 128.628906 C 176.695312 128.628906 176.59375 134.292969 172.402344 134.78125 C 172.402344 134.78125 168.464844 130.457031 174.324219 123.53125 Z M 173.835938 136.433594 C 173.835938 136.433594 181.359375 135.347656 182.519531 127.640625 L 182.519531 118.921875 L 183.597656 118.226562 L 183.597656 139.074219 C 180.78125 139.355469 177.425781 138.820312 173.835938 136.433594 Z M 191.230469 113.332031 L 191.757812 113.578125 L 191.757812 135.621094 C 191.757812 135.621094 189.664062 137.527344 186.308594 138.535156 L 186.308594 116.488281 Z M 183.597656 114.632812 L 182.675781 115.203125 L 182.675781 111.722656 C 182.675781 111.722656 183.042969 111.738281 183.597656 111.699219 Z M 183.597656 114.632812 "/>
<path style=" stroke:none;fill-rule:nonzero;fill:rgb(0%,38.039216%,65.098039%);fill-opacity:1;" d="M 236.3125 140.351562 L 222.742188 149.285156 C 223.742188 145.03125 224.414062 140.949219 224.871094 137.179688 C 239.023438 125.335938 237.160156 116.230469 237.160156 116.230469 C 235.429688 114.929688 228.773438 122.171875 225.675781 125.734375 C 225.824219 118.742188 225.261719 114.359375 225.261719 114.359375 C 225.085938 113.222656 224.878906 112.097656 224.671875 110.992188 C 234.101562 96.351562 229.0625 88.84375 229.0625 88.84375 C 227.15625 89.476562 223.0625 99.078125 222.234375 101.066406 C 220.6875 95.9375 218.789062 91.148438 216.640625 86.683594 C 221.761719 75.628906 217.023438 64.226562 217.023438 64.226562 C 213.792969 66.664062 212.605469 76.019531 212.324219 78.675781 C 209.808594 74.460938 207.089844 70.589844 204.289062 67.058594 C 206.152344 54.6875 198.171875 44.664062 198.171875 44.664062 C 197.171875 43.03125 196.820312 44.664062 196.820312 44.664062 C 196.390625 53.984375 198.601562 60.175781 198.601562 60.175781 L 198.746094 60.582031 C 195.527344 57.09375 192.296875 54.027344 189.207031 51.359375 C 189.257812 48.648438 188.28125 42.027344 179.46875 33.210938 C 179.46875 33.210938 177.996094 31.859375 178.09375 34.347656 C 178.09375 34.347656 177.929688 39.109375 179.46875 43.769531 C 173.421875 39.550781 169.289062 37.527344 169.289062 37.527344 C 157.953125 28.511719 144.960938 31.652344 144.960938 31.652344 C 141.894531 31.875 143.433594 32.839844 143.433594 32.839844 C 150.875 41.6875 166.1875 42.898438 166.1875 42.898438 C 170.445312 44.945312 174.375 47.132812 178.003906 49.433594 C 174.117188 49.171875 167.4375 49.121094 164.457031 51.417969 C 164.457031 51.417969 163.179688 52.277344 165.597656 53.265625 C 165.597656 53.265625 176.171875 57.53125 186.125 55.160156 C 189.511719 57.804688 192.570312 60.554688 195.339844 63.382812 C 191.957031 62.816406 183.367188 61.847656 178.476562 65.503906 C 178.476562 65.503906 177.621094 65.859375 178.476562 66.503906 C 178.476562 66.503906 183.242188 71.1875 201.246094 70.042969 C 204.230469 73.78125 206.765625 77.609375 208.929688 81.445312 C 206.417969 80.664062 196.988281 78 190.078125 80.019531 C 190.078125 80.019531 189.296875 81.015625 191.289062 82.082031 C 191.289062 82.082031 202.589844 90.121094 212.605469 88.730469 C 215.070312 94.261719 216.824219 99.734375 218.066406 104.953125 C 209.949219 99.320312 202.035156 99.085938 202.035156 99.085938 C 199.621094 98.589844 200.253906 100.082031 200.253906 100.082031 C 208.976562 109.800781 216.585938 112.097656 219.566406 112.644531 C 220.464844 118.5 220.761719 123.835938 220.753906 128.3125 C 213.46875 120.167969 204.460938 115.941406 204.460938 115.941406 C 202.820312 115.160156 203.109375 116.652344 203.109375 116.652344 C 208.191406 126.695312 217.6875 134.261719 220.421875 136.300781 C 220.105469 139.996094 219.683594 142.140625 219.683594 142.140625 C 219.070312 144.816406 218.390625 147.386719 217.652344 149.863281 C 216.210938 147.808594 210.976562 140.914062 204.460938 138.917969 C 204.460938 138.917969 205.042969 149.722656 215.011719 157.660156 C 213.363281 161.988281 211.539062 165.964844 209.601562 169.601562 L 209.582031 169.585938 C 209.582031 169.585938 207.230469 154.933594 202.324219 152.300781 C 202.324219 152.300781 198.878906 162.550781 205.101562 177.214844 C 202.804688 180.714844 200.441406 183.828125 198.097656 186.5625 C 195.761719 166.054688 193.359375 168.449219 193.359375 168.449219 C 188.902344 172.402344 192.3125 188.195312 193.175781 191.867188 C 186.140625 198.835938 180.042969 202.425781 177.828125 203.617188 L 171.042969 191.636719 L 130.441406 191.636719 L 125.964844 195.644531 L 121.476562 191.636719 L 80.875 191.636719 L 80.382812 192.511719 L 74.078125 203.640625 C 71.898438 202.472656 65.765625 198.878906 58.691406 191.875 C 59.554688 188.210938 62.964844 172.410156 58.507812 168.457031 C 58.507812 168.457031 56.105469 166.0625 53.769531 186.570312 C 51.425781 183.828125 49.0625 180.722656 46.765625 177.21875 C 52.957031 162.558594 49.511719 152.308594 49.511719 152.308594 C 44.605469 154.9375 42.257812 169.59375 42.257812 169.59375 L 42.234375 169.609375 C 40.296875 165.972656 38.472656 161.996094 36.824219 157.667969 C 46.800781 149.738281 47.378906 138.933594 47.378906 138.933594 C 40.859375 140.921875 35.628906 147.824219 34.1875 149.878906 C 33.449219 147.402344 32.761719 144.835938 32.152344 142.15625 C 32.152344 142.15625 31.734375 140.011719 31.414062 136.316406 C 34.148438 134.269531 43.644531 126.703125 48.730469 116.667969 C 48.730469 116.667969 49.019531 115.171875 47.378906 115.957031 C 47.378906 115.957031 38.367188 120.175781 31.082031 128.328125 C 31.074219 123.847656 31.371094 118.515625 32.273438 112.660156 C 35.242188 112.113281 42.855469 109.808594 51.582031 100.097656 C 51.582031 100.097656 52.226562 98.605469 49.800781 99.101562 C 49.800781 99.101562 41.886719 99.335938 33.773438 104.96875 C 35.007812 99.75 36.765625 94.273438 39.234375 88.746094 C 49.238281 90.144531 60.546875 82.097656 60.546875 82.097656 C 62.542969 81.03125 61.757812 80.035156 61.757812 80.035156 C 54.839844 78.015625 45.410156 80.675781 42.90625 81.460938 C 45.070312 77.617188 47.605469 73.796875 50.59375 70.058594 C 68.59375 71.203125 73.359375 66.519531 73.359375 66.519531 C 74.21875 65.875 73.359375 65.519531 73.359375 65.519531 C 68.46875 61.863281 59.882812 62.828125 56.488281 63.398438 C 59.261719 60.570312 62.320312 57.820312 65.703125 55.175781 C 75.660156 57.546875 86.234375 53.28125 86.234375 53.28125 C 88.652344 52.285156 87.371094 51.433594 87.371094 51.433594 C 84.386719 49.136719 77.707031 49.1875 73.828125 49.445312 C 77.453125 47.140625 81.386719 44.953125 85.644531 42.914062 C 85.644531 42.914062 100.960938 41.703125 108.398438 32.855469 C 108.398438 32.855469 109.925781 31.886719 106.867188 31.667969 C 106.867188 31.667969 93.875 28.527344 82.539062 37.542969 C 82.539062 37.542969 78.410156 39.558594 72.363281 43.785156 C 73.90625 39.121094 73.738281 34.363281 73.738281 34.363281 C 73.832031 31.875 72.363281 33.226562 72.363281 33.226562 C 63.53125 42.019531 62.554688 48.640625 62.609375 51.351562 C 59.527344 54.019531 56.289062 57.09375 53.066406 60.574219 L 53.214844 60.167969 C 53.214844 60.167969 55.417969 53.976562 54.996094 44.65625 C 54.996094 44.65625 54.640625 43.023438 53.644531 44.65625 C 53.644531 44.65625 45.664062 54.679688 47.523438 67.050781 C 44.722656 70.582031 42.003906 74.453125 39.492188 78.667969 C 39.210938 76.019531 38.023438 66.65625 34.792969 64.21875 C 34.792969 64.21875 30.054688 75.621094 35.175781 86.675781 C 33.027344 91.140625 31.125 95.9375 29.582031 101.058594 C 28.746094 99.0625 24.652344 89.472656 22.753906 88.835938 C 22.753906 88.835938 17.714844 96.351562 27.144531 110.992188 C 26.929688 112.097656 26.730469 113.222656 26.550781 114.359375 C 26.550781 114.359375 26 118.742188 26.136719 125.734375 C 23.042969 122.179688 16.382812 114.9375 14.65625 116.230469 C 14.65625 116.230469 12.792969 125.335938 26.953125 137.179688 C 27.402344 140.949219 28.082031 145.023438 29.078125 149.285156 L 15.511719 140.351562 C 17.863281 153.160156 32.332031 160.414062 32.332031 160.414062 C 33.519531 163.753906 34.925781 167.132812 36.589844 170.503906 C 33.773438 169.144531 23.921875 164.582031 21.128906 166.039062 C 21.128906 166.039062 25.503906 176.503906 40.957031 178.335938 C 43.195312 181.90625 45.757812 185.421875 48.707031 188.816406 L 48.515625 188.734375 C 48.515625 188.734375 38.414062 185.816406 32.152344 187.597656 C 32.152344 187.597656 34.925781 194.425781 55.988281 196.273438 L 56.015625 196.234375 C 60.582031 200.320312 65.835938 204.121094 71.867188 207.488281 L 66.472656 217.023438 L 118.824219 217.023438 L 118.949219 217.132812 L 108.117188 227.96875 L 111.558594 231.417969 L 122.585938 220.386719 L 125.933594 223.378906 L 129.28125 220.386719 L 140.308594 231.417969 L 143.75 227.96875 L 132.917969 217.132812 L 133.035156 217.023438 L 185.394531 217.023438 L 179.984375 207.476562 C 186 204.113281 191.238281 200.320312 195.796875 196.242188 L 195.828125 196.273438 C 216.890625 194.425781 219.660156 187.597656 219.660156 187.597656 C 213.402344 185.816406 203.300781 188.734375 203.300781 188.734375 L 203.109375 188.816406 C 206.054688 185.421875 208.621094 181.914062 210.859375 178.335938 C 226.3125 176.503906 230.6875 166.039062 230.6875 166.039062 C 227.894531 164.582031 218.042969 169.144531 215.226562 170.503906 C 216.890625 167.132812 218.292969 163.753906 219.484375 160.414062 C 219.492188 160.414062 233.96875 153.160156 236.3125 140.351562 Z M 82.851562 195.074219 L 120.140625 195.074219 L 121.078125 195.910156 L 125.933594 200.550781 L 130.855469 195.851562 L 131.726562 195.074219 L 169.023438 195.074219 L 177.398438 209.855469 L 130.375 209.855469 L 125.941406 213.824219 L 121.5 209.855469 L 74.476562 209.855469 Z M 131.785156 213.59375 L 125.933594 219.1875 L 120.082031 213.59375 L 72.355469 213.59375 L 73.582031 211.429688 L 120.902344 211.429688 L 125.941406 215.9375 L 130.980469 211.429688 L 178.300781 211.429688 L 179.527344 213.59375 Z M 131.785156 213.59375 "/>
</g>
</svg>
