<?xml version="1.0" encoding="UTF-8"?>
<svg xmlns="http://www.w3.org/2000/svg" xmlns:xlink="http://www.w3.org/1999/xlink" width="252pt" height="252pt" viewBox="0 0 252 252" version="1.1">
<g id="surface1">
<path style=" stroke:none;fill-rule:nonzero;fill:rgb(71.372549%,14.509804%,21.568627%);fill-opacity:1;" d="M 126 0 C 56.523438 0 0 56.523438 0 126 C 0 195.476562 56.523438 252 126 252 C 195.476562 252 252 195.476562 252 126 C 252 56.523438 195.476562 0 126 0 Z M 248.917969 126 C 248.917969 193.777344 193.777344 248.917969 126 248.917969 C 58.222656 248.917969 3.078125 193.777344 3.078125 126 C 3.078125 58.222656 58.222656 3.078125 126 3.078125 C 193.777344 3.078125 248.917969 58.222656 248.917969 126 Z M 248.917969 126 "/>
<path style=" stroke:none;fill-rule:nonzero;fill:rgb(71.372549%,14.509804%,21.568627%);fill-opacity:1;" d="M 126 4.699219 C 59.113281 4.699219 4.695312 59.113281 4.695312 126 C 4.695312 192.886719 59.113281 247.300781 126 247.300781 C 192.886719 247.300781 247.300781 192.886719 247.300781 126 C 247.300781 59.113281 192.886719 4.699219 126 4.699219 Z M 246.148438 126 C 246.148438 192.25 192.25 246.148438 126 246.148438 C 59.75 246.148438 5.855469 192.25 5.855469 126 C 5.855469 59.75 59.75 5.855469 126 5.855469 C 192.25 5.855469 246.148438 59.75 246.148438 126 Z M 246.148438 126 "/>
<path style=" stroke:none;fill-rule:evenodd;fill:rgb(71.372549%,14.509804%,21.568627%);fill-opacity:1;" d="M 87.695312 17.695312 C 87.523438 22.226562 91.726562 19.847656 94.402344 19.640625 C 95.34375 19.570312 103.804688 16.265625 102.617188 19.742188 C 101.878906 21.902344 99.105469 21.191406 97.390625 21.386719 C 95.335938 21.625 93.023438 22.367188 91.144531 23.230469 C 89.308594 24.070312 90.675781 25.25 92.144531 24.882812 C 93.492188 24.539062 94.769531 24.417969 96.167969 24.496094 C 99.5 24.691406 103.015625 25.660156 105.761719 27.605469 C 107.160156 28.597656 111.148438 32.542969 108.632812 33.738281 C 107.113281 34.460938 105.023438 32.34375 103.941406 31.398438 C 102.191406 29.871094 101.03125 28.523438 98.730469 27.796875 C 94.582031 26.492188 90.347656 27.300781 87.058594 30.148438 C 84.0625 32.746094 81.859375 35.695312 81.160156 39.617188 C 80.871094 41.238281 80.171875 47.058594 77.5 45.128906 C 74.546875 42.996094 78.753906 36.074219 79.53125 34.84375 C 79.914062 34.226562 80.652344 33.410156 81.441406 32.554688 C 81.953125 31.996094 83.105469 30.644531 83.984375 29.640625 C 84.460938 29.09375 86.027344 27.605469 86.652344 27.113281 C 87.578125 26.382812 87.964844 25.078125 86.242188 25.15625 C 84.617188 25.226562 83.898438 26.195312 81.914062 27.027344 C 79.933594 27.867188 74.84375 32.550781 73.875 29.777344 C 72.679688 26.339844 80.289062 24.957031 82.351562 24.136719 C 82.828125 23.945312 83.476562 23.722656 83.980469 23.53125 C 84.386719 23.378906 84.917969 23.023438 84.988281 22.929688 C 85.410156 22.371094 85.714844 21.558594 85.550781 21.152344 C 85.132812 20.132812 84.378906 18.871094 84.375 17.808594 C 85.210938 17.050781 86.808594 16.996094 87.695312 17.695312 Z M 87.695312 17.695312 "/>
<path style=" stroke:none;fill-rule:evenodd;fill:rgb(71.372549%,14.509804%,21.568627%);fill-opacity:1;" d="M 80.976562 156.792969 L 72.070312 152.03125 L 69.113281 157.183594 C 71.246094 158.640625 72.277344 160.84375 72.566406 163.390625 L 88.449219 171.894531 L 93.3125 163.398438 L 85.359375 159.144531 L 109.945312 113.363281 C 110.058594 113.179688 110.011719 112.988281 109.78125 112.859375 L 106.023438 110.851562 C 105.761719 110.730469 105.59375 110.796875 105.488281 110.988281 L 80.976562 156.796875 Z M 80.976562 156.792969 "/>
<path style=" stroke:none;fill-rule:evenodd;fill:rgb(71.372549%,14.509804%,21.568627%);fill-opacity:1;" d="M 95.667969 160.363281 L 160.257812 160.363281 C 161.570312 160.363281 162.644531 161.445312 162.644531 162.765625 L 162.644531 177.617188 C 162.644531 178.941406 161.570312 180.019531 160.257812 180.019531 L 95.667969 180.019531 C 94.351562 180.019531 93.273438 178.941406 93.273438 177.617188 L 93.273438 162.765625 C 93.273438 161.441406 94.351562 160.363281 95.667969 160.363281 M 96.460938 162.453125 L 159.242188 162.453125 C 159.960938 162.453125 160.542969 163.039062 160.542969 163.761719 L 160.542969 176.621094 C 160.542969 177.339844 159.960938 177.929688 159.242188 177.929688 L 96.769531 177.929688 C 96.050781 177.929688 95.464844 177.339844 95.464844 176.621094 L 95.464844 163.445312 C 95.464844 162.902344 95.914062 162.457031 96.457031 162.457031 Z M 96.460938 162.453125 "/>
<path style=" stroke:none;fill-rule:evenodd;fill:rgb(71.372549%,14.509804%,21.568627%);fill-opacity:1;" d="M 91.339844 86.832031 L 91.339844 91.625 L 113.277344 91.625 L 113.277344 86.832031 Z M 91.339844 86.832031 "/>
<path style=" stroke:none;fill-rule:evenodd;fill:rgb(71.372549%,14.509804%,21.568627%);fill-opacity:1;" d="M 91.339844 94.121094 L 91.339844 98.914062 L 113.277344 98.914062 L 113.277344 94.121094 Z M 91.339844 94.121094 "/>
<path style=" stroke:none;fill-rule:evenodd;fill:rgb(71.372549%,14.509804%,21.568627%);fill-opacity:1;" d="M 91.339844 101.414062 L 91.339844 106.203125 L 113.277344 106.203125 L 113.277344 101.414062 Z M 91.339844 101.414062 "/>
<path style=" stroke:none;fill-rule:evenodd;fill:rgb(71.372549%,14.509804%,21.568627%);fill-opacity:1;" d="M 175.675781 133.386719 L 177.042969 133.386719 C 177.425781 133.386719 177.730469 133.640625 177.730469 133.9375 L 177.730469 135.515625 C 178.425781 135.125 178.902344 134.386719 178.902344 133.539062 L 178.902344 126.992188 C 178.902344 126.144531 178.425781 125.398438 177.730469 125.015625 L 177.730469 126.300781 C 177.730469 126.597656 177.421875 126.855469 177.042969 126.855469 L 175.675781 126.855469 C 175.296875 126.855469 174.984375 126.605469 174.984375 126.300781 L 174.984375 125.015625 C 174.289062 125.398438 173.820312 126.144531 173.820312 126.992188 L 173.820312 133.539062 C 173.820312 134.386719 174.289062 135.125 174.984375 135.515625 L 174.984375 133.9375 C 174.984375 133.636719 175.292969 133.386719 175.675781 133.386719 Z M 86.78125 114.515625 C 86.007812 114.503906 85.277344 114.5625 84.878906 115.183594 C 83.691406 117.0625 83.960938 122.234375 83.960938 124.300781 L 78.316406 124.300781 L 76.910156 122.921875 L 76.910156 113.503906 C 78.277344 111.300781 81.710938 109.660156 88.046875 109.667969 L 101.757812 109.683594 C 102.1875 109.683594 102.351562 110.050781 102.222656 110.28125 L 94.703125 124.285156 L 86.78125 124.300781 L 86.78125 114.511719 Z M 106.34375 126.8125 L 126.359375 126.8125 C 127.039062 126.8125 127.589844 127.367188 127.589844 128.039062 L 127.589844 129.289062 C 127.589844 129.960938 127.03125 130.515625 126.359375 130.515625 L 104.835938 130.515625 C 105.972656 131.429688 107.167969 133.304688 107.757812 134.453125 L 109.410156 134.453125 C 109.410156 134.453125 112.527344 136.296875 112.164062 138.699219 C 111.796875 141.09375 111.058594 141.644531 108.859375 143.488281 C 106.660156 145.335938 102.617188 149.394531 100.96875 151.613281 C 99.3125 153.824219 99.3125 157.144531 101.148438 157.144531 L 127.578125 157.144531 L 127.578125 157.148438 L 154.191406 157.148438 C 154.449219 157.148438 154.667969 157.082031 154.855469 156.960938 C 155.996094 156.234375 155.796875 153.511719 154.375 151.613281 C 152.722656 149.398438 148.6875 145.335938 146.484375 143.488281 C 144.28125 141.644531 143.550781 141.09375 143.179688 138.699219 C 143.035156 137.726562 143.453125 136.851562 144.011719 136.144531 C 144.023438 136.125 144.039062 136.105469 144.050781 136.09375 L 144.058594 136.089844 C 144.070312 136.070312 144.082031 136.0625 144.089844 136.046875 C 144.089844 136.046875 144.09375 136.039062 144.09375 136.035156 C 144.105469 136.019531 144.121094 136.003906 144.128906 135.996094 C 144.128906 135.992188 144.128906 135.988281 144.132812 135.988281 C 144.148438 135.972656 144.164062 135.957031 144.175781 135.945312 C 144.175781 135.945312 144.175781 135.9375 144.175781 135.9375 C 144.195312 135.925781 144.203125 135.910156 144.21875 135.890625 L 144.222656 135.890625 C 144.238281 135.875 144.25 135.855469 144.269531 135.839844 L 144.269531 135.835938 C 144.285156 135.820312 144.300781 135.796875 144.316406 135.785156 L 144.378906 135.726562 C 144.382812 135.714844 144.398438 135.703125 144.40625 135.6875 C 145.148438 134.925781 145.929688 134.460938 145.941406 134.457031 L 147.589844 134.457031 C 148.488281 132.355469 149.984375 130.648438 151.453125 129.363281 C 153.597656 127.488281 155.664062 126.515625 155.664062 126.515625 L 160.441406 126.515625 C 164.417969 121.945312 169.609375 120.367188 174.992188 119.453125 L 174.992188 122.257812 C 173.117188 122.429688 171.636719 124.019531 171.636719 125.929688 L 171.636719 134.671875 C 171.636719 136.59375 173.117188 138.175781 174.992188 138.347656 L 174.992188 143.226562 C 173.117188 143.390625 171.636719 144.984375 171.636719 146.898438 L 171.636719 155.460938 C 171.636719 157.492188 173.289062 159.148438 175.320312 159.148438 L 177.410156 159.148438 C 179.433594 159.148438 181.097656 157.492188 181.097656 155.460938 L 181.097656 146.898438 C 181.097656 144.984375 179.613281 143.390625 177.742188 143.226562 L 177.742188 138.347656 C 179.613281 138.175781 181.097656 136.59375 181.097656 134.671875 L 181.097656 125.929688 C 181.097656 124.019531 179.613281 122.429688 177.742188 122.257812 L 177.742188 119.035156 C 178.402344 118.945312 179.054688 118.785156 179.71875 118.699219 C 186.613281 117.554688 186.582031 114.984375 186.582031 115.199219 L 186.582031 109.726562 L 110.867188 109.726562 L 113.996094 111.359375 C 114.253906 111.472656 114.421875 111.773438 114.21875 112.101562 L 106.347656 126.808594 Z M 177.734375 145.984375 L 177.734375 147.179688 C 177.734375 147.484375 177.425781 147.734375 177.046875 147.734375 L 175.675781 147.734375 C 175.296875 147.734375 174.984375 147.484375 174.984375 147.179688 L 174.984375 145.984375 C 174.289062 146.367188 173.820312 147.113281 173.820312 147.960938 L 173.820312 154.328125 C 173.820312 155.570312 174.839844 156.585938 176.074219 156.585938 L 176.644531 156.585938 C 177.882812 156.585938 178.902344 155.566406 178.902344 154.328125 L 178.902344 147.960938 C 178.902344 147.113281 178.433594 146.375 177.734375 145.984375 Z M 108.914062 149.519531 L 146.121094 149.519531 C 146.796875 149.519531 147.355469 150.078125 147.355469 150.75 L 147.355469 152 C 147.355469 152.675781 146.796875 153.230469 146.121094 153.230469 L 108.914062 153.230469 C 108.234375 153.230469 107.683594 152.675781 107.683594 152 L 107.683594 150.75 C 107.683594 150.078125 108.234375 149.519531 108.914062 149.519531 Z M 115.449219 141.484375 L 139.585938 141.484375 C 140.261719 141.484375 140.816406 142.046875 140.816406 142.71875 L 140.816406 143.96875 C 140.816406 144.644531 140.261719 145.199219 139.585938 145.199219 L 115.449219 145.199219 C 114.777344 145.199219 114.214844 144.644531 114.214844 143.96875 L 114.214844 142.71875 C 114.214844 142.046875 114.769531 141.484375 115.449219 141.484375 Z M 116.371094 133.917969 L 138.664062 133.917969 C 139.335938 133.917969 139.894531 134.476562 139.894531 135.148438 L 139.894531 136.398438 C 139.894531 137.070312 139.335938 137.625 138.664062 137.625 L 116.371094 137.625 C 115.703125 137.625 115.144531 137.074219 115.144531 136.398438 L 115.144531 135.148438 C 115.144531 134.472656 115.695312 133.917969 116.371094 133.917969 Z M 135.734375 126.8125 L 145.734375 126.8125 C 146.410156 126.8125 146.960938 127.367188 146.960938 128.039062 L 146.960938 129.289062 C 146.960938 129.960938 146.402344 130.515625 145.734375 130.515625 L 135.734375 130.515625 C 135.082031 130.515625 134.507812 129.960938 134.507812 129.289062 L 134.507812 128.039062 C 134.507812 127.359375 135.0625 126.8125 135.734375 126.8125 Z M 135.734375 126.8125 "/>
<path style=" stroke:none;fill-rule:evenodd;fill:rgb(71.372549%,14.509804%,21.568627%);fill-opacity:1;" d="M 115.046875 86.832031 L 115.046875 91.625 L 118.828125 91.625 L 118.828125 86.832031 Z M 115.046875 86.832031 "/>
<path style=" stroke:none;fill-rule:evenodd;fill:rgb(71.372549%,14.509804%,21.568627%);fill-opacity:1;" d="M 94.203125 82.464844 C 100.910156 82.097656 108.164062 79.84375 114.488281 76.636719 L 116.457031 80.992188 C 109.496094 84.339844 101.660156 86.574219 95.347656 86.890625 Z M 94.203125 82.464844 "/>
<path style=" stroke:none;fill-rule:evenodd;fill:rgb(71.372549%,14.509804%,21.568627%);fill-opacity:1;" d="M 121.566406 78.476562 L 119.585938 74.195312 L 119.585938 74.191406 L 116.152344 75.847656 L 118.121094 80.148438 Z M 121.566406 78.476562 "/>
<path style=" stroke:none;fill-rule:evenodd;fill:rgb(71.372549%,14.509804%,21.568627%);fill-opacity:1;" d="M 115.046875 94.121094 L 115.046875 98.914062 L 118.828125 98.914062 L 118.828125 94.121094 Z M 115.046875 94.121094 "/>
<path style=" stroke:none;fill-rule:evenodd;fill:rgb(71.372549%,14.509804%,21.568627%);fill-opacity:1;" d="M 115.046875 101.414062 L 115.046875 106.203125 L 118.828125 106.203125 L 118.828125 101.414062 Z M 115.046875 101.414062 "/>
<path style=" stroke:none;fill-rule:evenodd;fill:rgb(71.372549%,14.509804%,21.568627%);fill-opacity:1;" d="M 141.789062 79.8125 L 148.726562 75.984375 L 163.316406 102.464844 L 156.382812 106.285156 Z M 146.203125 83.480469 L 149.316406 81.738281 L 150.160156 83.207031 L 147.042969 84.945312 Z M 147.976562 86.667969 L 151.097656 84.929688 L 151.941406 86.394531 L 148.816406 88.128906 Z M 147.976562 86.667969 "/>
<path style=" stroke:none;fill-rule:evenodd;fill:rgb(71.372549%,14.509804%,21.568627%);fill-opacity:1;" d="M 133.621094 72.542969 L 141.960938 72.542969 L 141.960938 106.257812 L 133.621094 106.257812 Z M 121.554688 69.433594 L 130.886719 69.433594 L 130.886719 106.261719 L 121.554688 106.261719 Z M 124.433594 74.191406 L 128.003906 74.191406 L 128.003906 75.855469 L 124.433594 75.855469 Z M 124.433594 77.847656 L 128.003906 77.847656 L 128.003906 79.511719 L 124.433594 79.511719 Z M 124.433594 81.5 L 128.003906 81.5 L 128.003906 83.164062 L 124.433594 83.164062 Z M 124.433594 85.152344 L 128.003906 85.152344 L 128.003906 86.816406 L 124.433594 86.816406 Z M 136.003906 77.847656 L 139.578125 77.847656 L 139.578125 79.511719 L 136.003906 79.511719 Z M 136.003906 81.5 L 139.578125 81.5 L 139.578125 83.164062 L 136.003906 83.164062 Z M 136.003906 85.152344 L 139.578125 85.152344 L 139.578125 86.816406 L 136.003906 86.816406 Z M 136.003906 85.152344 "/>
<path style=" stroke:none;fill-rule:evenodd;fill:rgb(71.372549%,14.509804%,21.568627%);fill-opacity:1;" d="M 125.976562 197.675781 C 86.488281 197.675781 54.335938 165.503906 54.335938 126.042969 C 54.335938 86.539062 86.488281 54.367188 125.976562 54.367188 C 165.464844 54.367188 197.664062 86.539062 197.664062 126.042969 C 197.664062 165.503906 165.464844 197.675781 125.976562 197.675781 Z M 213.269531 123.6875 L 206.425781 122.800781 C 206.15625 122.757812 205.976562 122.667969 205.800781 122.445312 C 205.753906 121.332031 205.710938 120.222656 205.625 119.15625 C 205.710938 118.933594 205.890625 118.800781 206.15625 118.757812 L 212.828125 116.976562 C 212.917969 116.933594 213.046875 116.890625 213.046875 116.621094 C 212.960938 116.042969 212.917969 115.378906 212.785156 114.625 L 212.785156 114.535156 C 212.691406 113.820312 212.605469 113.15625 212.515625 112.578125 C 212.472656 112.3125 212.339844 112.3125 212.203125 112.3125 L 205.308594 112.3125 C 205.046875 112.3125 204.824219 112.222656 204.6875 112.046875 C 204.464844 110.980469 204.242188 109.914062 204.019531 108.800781 C 204.113281 108.578125 204.242188 108.449219 204.507812 108.359375 L 210.914062 105.691406 C 211.003906 105.648438 211.136719 105.601562 211.046875 105.335938 C 210.914062 104.757812 210.78125 104.136719 210.558594 103.425781 L 210.558594 103.335938 C 210.335938 102.625 210.15625 101.960938 210.023438 101.382812 C 209.933594 101.160156 209.804688 101.160156 209.667969 101.160156 L 202.820312 102.09375 C 202.554688 102.136719 202.378906 102.09375 202.152344 101.914062 C 201.84375 100.847656 201.488281 99.828125 201.085938 98.804688 C 201.175781 98.539062 201.308594 98.359375 201.53125 98.226562 L 207.535156 94.804688 C 207.625 94.757812 207.714844 94.671875 207.625 94.449219 C 207.449219 93.871094 207.179688 93.25 206.914062 92.582031 L 206.867188 92.539062 L 206.867188 92.496094 C 206.558594 91.78125 206.292969 91.203125 206.066406 90.628906 C 205.976562 90.40625 205.84375 90.449219 205.710938 90.449219 L 199.042969 92.273438 C 198.773438 92.359375 198.550781 92.316406 198.328125 92.140625 C 197.882812 91.160156 197.394531 90.226562 196.90625 89.296875 C 196.90625 88.984375 197.039062 88.804688 197.265625 88.628906 L 202.734375 84.453125 C 202.820312 84.359375 202.910156 84.273438 202.820312 84.050781 C 202.511719 83.519531 202.199219 82.941406 201.84375 82.316406 C 201.84375 82.316406 201.84375 82.273438 201.800781 82.273438 L 201.800781 82.230469 C 201.398438 81.5625 201.085938 80.984375 200.777344 80.496094 C 200.644531 80.273438 200.507812 80.320312 200.375 80.363281 L 194.015625 83.03125 C 193.746094 83.164062 193.527344 83.117188 193.261719 82.984375 C 192.679688 82.09375 192.105469 81.25 191.523438 80.40625 C 191.433594 80.09375 191.523438 79.875 191.746094 79.652344 L 196.636719 74.765625 C 196.730469 74.675781 196.816406 74.585938 196.683594 74.363281 C 196.332031 73.917969 195.929688 73.386719 195.484375 72.765625 L 195.441406 72.765625 L 195.441406 72.71875 L 195.398438 72.71875 C 194.949219 72.097656 194.550781 71.609375 194.195312 71.121094 C 194.015625 70.941406 193.882812 70.984375 193.792969 71.074219 L 187.832031 74.496094 C 187.566406 74.675781 187.300781 74.675781 187.035156 74.542969 C 186.367188 73.785156 185.699219 72.988281 184.988281 72.234375 C 184.898438 71.964844 184.941406 71.699219 185.121094 71.476562 L 189.347656 66.011719 C 189.433594 65.921875 189.480469 65.789062 189.300781 65.609375 C 188.902344 65.164062 188.457031 64.679688 187.921875 64.1875 L 187.921875 64.144531 L 187.878906 64.144531 L 187.878906 64.101562 L 187.832031 64.101562 C 187.34375 63.566406 186.855469 63.121094 186.414062 62.722656 C 186.234375 62.542969 186.101562 62.632812 186.011719 62.675781 L 180.542969 66.898438 C 180.320312 67.074219 180.050781 67.121094 179.785156 67.03125 C 179.03125 66.363281 178.230469 65.652344 177.46875 65.03125 C 177.339844 64.71875 177.339844 64.5 177.519531 64.234375 L 180.984375 58.234375 C 181.03125 58.144531 181.074219 58.011719 180.898438 57.878906 C 180.40625 57.480469 179.917969 57.078125 179.296875 56.632812 L 179.296875 56.589844 L 179.25 56.589844 L 179.25 56.546875 C 178.628906 56.101562 178.09375 55.703125 177.652344 55.34375 C 177.429688 55.210938 177.339844 55.300781 177.25 55.390625 L 172.359375 60.277344 C 172.136719 60.5 171.914062 60.589844 171.648438 60.542969 C 170.757812 59.921875 169.914062 59.34375 169.023438 58.765625 C 168.890625 58.542969 168.847656 58.277344 168.980469 58.011719 L 171.648438 51.65625 C 171.691406 51.523438 171.738281 51.390625 171.511719 51.257812 C 171.023438 50.945312 170.445312 50.636719 169.78125 50.234375 L 169.738281 50.234375 C 169.738281 50.234375 169.738281 50.191406 169.695312 50.191406 C 169.070312 49.835938 168.488281 49.523438 167.957031 49.210938 C 167.734375 49.125 167.644531 49.210938 167.558594 49.300781 L 163.378906 54.769531 C 163.199219 55.035156 163.019531 55.125 162.710938 55.125 C 161.777344 54.632812 160.839844 54.144531 159.863281 53.703125 C 159.683594 53.480469 159.640625 53.257812 159.730469 52.992188 L 161.554688 46.324219 C 161.554688 46.234375 161.597656 46.058594 161.375 45.96875 C 160.796875 45.746094 160.21875 45.480469 159.507812 45.167969 L 159.417969 45.167969 C 158.75 44.859375 158.128906 44.636719 157.550781 44.414062 C 157.332031 44.324219 157.238281 44.457031 157.195312 44.546875 L 153.773438 50.5 C 153.636719 50.769531 153.457031 50.902344 153.191406 50.945312 C 152.167969 50.546875 151.148438 50.191406 150.078125 49.878906 C 149.902344 49.699219 149.855469 49.480469 149.902344 49.210938 L 150.835938 42.371094 C 150.835938 42.234375 150.835938 42.105469 150.613281 42.058594 C 150.035156 41.882812 149.367188 41.703125 148.65625 41.527344 L 148.65625 41.480469 L 148.570312 41.480469 C 147.855469 41.304688 147.230469 41.125 146.652344 40.992188 C 146.386719 40.949219 146.34375 41.035156 146.300781 41.171875 L 143.628906 47.527344 C 143.542969 47.789062 143.410156 47.925781 143.1875 48.011719 C 142.078125 47.789062 141.007812 47.570312 139.941406 47.347656 C 139.765625 47.214844 139.671875 46.992188 139.671875 46.722656 L 139.671875 39.835938 C 139.671875 39.746094 139.671875 39.570312 139.40625 39.570312 C 138.828125 39.4375 138.160156 39.347656 137.449219 39.257812 L 137.363281 39.257812 C 136.605469 39.171875 135.9375 39.082031 135.359375 39.039062 C 135.09375 38.992188 135.046875 39.125 135.046875 39.214844 L 133.226562 45.878906 C 133.179688 46.144531 133.046875 46.324219 132.824219 46.457031 C 131.761719 46.367188 130.644531 46.28125 129.53125 46.234375 C 129.355469 46.101562 129.222656 45.878906 129.222656 45.613281 L 128.332031 38.769531 C 128.289062 38.679688 128.242188 38.546875 128.023438 38.546875 C 127.707031 38.503906 127.398438 38.503906 127.042969 38.503906 L 124.871094 38.503906 C 124.515625 38.503906 124.203125 38.503906 123.894531 38.546875 C 123.671875 38.546875 123.625 38.679688 123.625 38.769531 L 122.730469 45.613281 C 122.6875 45.878906 122.59375 46.101562 122.375 46.234375 C 121.261719 46.28125 120.191406 46.367188 119.082031 46.457031 C 118.90625 46.324219 118.773438 46.144531 118.726562 45.878906 L 116.949219 39.214844 C 116.902344 39.125 116.859375 38.992188 116.636719 39.039062 C 116.015625 39.082031 115.347656 39.171875 114.636719 39.257812 L 114.546875 39.257812 C 113.792969 39.347656 113.125 39.4375 112.546875 39.570312 C 112.324219 39.570312 112.28125 39.746094 112.28125 39.835938 L 112.28125 46.722656 C 112.324219 46.992188 112.238281 47.214844 112.054688 47.347656 C 110.945312 47.570312 109.878906 47.789062 108.8125 48.011719 C 108.542969 47.925781 108.410156 47.789062 108.324219 47.527344 L 105.699219 41.171875 C 105.65625 41.035156 105.5625 40.949219 105.34375 40.992188 C 104.761719 41.125 104.097656 41.304688 103.386719 41.480469 L 103.339844 41.480469 C 103.296875 41.480469 103.296875 41.480469 103.296875 41.527344 C 102.585938 41.703125 101.917969 41.882812 101.382812 42.058594 C 101.117188 42.105469 101.164062 42.234375 101.164062 42.371094 L 102.050781 49.210938 C 102.097656 49.480469 102.050781 49.699219 101.875 49.878906 C 100.851562 50.191406 99.785156 50.546875 98.761719 50.945312 C 98.539062 50.902344 98.359375 50.769531 98.226562 50.5 L 94.757812 44.546875 C 94.714844 44.457031 94.625 44.324219 94.402344 44.414062 C 93.824219 44.636719 93.246094 44.859375 92.535156 45.167969 L 92.445312 45.167969 C 91.777344 45.480469 91.15625 45.746094 90.621094 45.96875 C 90.402344 46.058594 90.402344 46.234375 90.445312 46.324219 L 92.222656 52.992188 C 92.3125 53.257812 92.269531 53.480469 92.136719 53.703125 C 91.15625 54.144531 90.179688 54.632812 89.246094 55.125 C 88.980469 55.125 88.757812 55.035156 88.578125 54.769531 L 84.441406 49.300781 C 84.351562 49.210938 84.265625 49.125 84.042969 49.210938 C 83.550781 49.523438 82.929688 49.835938 82.308594 50.191406 L 82.308594 50.234375 L 82.21875 50.234375 C 81.59375 50.636719 81.019531 50.945312 80.484375 51.257812 C 80.304688 51.390625 80.351562 51.523438 80.394531 51.65625 L 83.019531 58.011719 C 83.152344 58.277344 83.152344 58.542969 82.972656 58.765625 C 82.128906 59.34375 81.238281 59.921875 80.394531 60.542969 C 80.085938 60.589844 79.859375 60.5 79.640625 60.277344 L 74.792969 55.390625 C 74.703125 55.300781 74.570312 55.210938 74.390625 55.34375 C 73.902344 55.703125 73.367188 56.101562 72.789062 56.546875 L 72.746094 56.589844 L 72.699219 56.589844 L 72.699219 56.632812 C 72.125 57.078125 71.589844 57.480469 71.144531 57.878906 C 70.925781 58.011719 71.011719 58.144531 71.054688 58.234375 L 74.523438 64.234375 C 74.660156 64.5 74.703125 64.71875 74.570312 65.03125 C 73.769531 65.652344 73.011719 66.363281 72.257812 67.03125 C 71.945312 67.121094 71.679688 67.074219 71.457031 66.898438 L 65.988281 62.675781 C 65.898438 62.632812 65.765625 62.542969 65.585938 62.722656 C 65.140625 63.121094 64.695312 63.566406 64.164062 64.101562 L 64.121094 64.144531 C 64.121094 64.144531 64.121094 64.1875 64.074219 64.1875 C 63.585938 64.679688 63.097656 65.164062 62.695312 65.609375 C 62.515625 65.789062 62.609375 65.921875 62.652344 66.011719 L 66.875 71.476562 C 67.054688 71.699219 67.097656 71.964844 67.007812 72.234375 C 66.34375 72.988281 65.671875 73.785156 65.007812 74.542969 C 64.695312 74.675781 64.472656 74.675781 64.207031 74.496094 L 58.203125 71.074219 C 58.117188 70.984375 57.984375 70.941406 57.847656 71.121094 C 57.449219 71.609375 57.046875 72.097656 56.601562 72.71875 L 56.558594 72.71875 L 56.558594 72.765625 C 56.070312 73.386719 55.667969 73.917969 55.355469 74.363281 C 55.179688 74.585938 55.269531 74.675781 55.355469 74.765625 L 60.25 79.652344 C 60.472656 79.875 60.5625 80.09375 60.515625 80.40625 C 59.894531 81.25 59.316406 82.09375 58.738281 82.984375 C 58.515625 83.117188 58.25 83.164062 57.984375 83.03125 L 51.621094 80.363281 C 51.535156 80.320312 51.402344 80.273438 51.265625 80.496094 C 50.953125 80.984375 50.601562 81.5625 50.242188 82.230469 L 50.199219 82.230469 L 50.199219 82.316406 C 49.800781 82.941406 49.488281 83.519531 49.222656 84.050781 C 49.085938 84.273438 49.175781 84.359375 49.265625 84.453125 L 54.777344 88.628906 C 55.003906 88.804688 55.09375 88.984375 55.09375 89.296875 C 54.601562 90.226562 54.160156 91.160156 53.667969 92.140625 C 53.445312 92.316406 53.222656 92.359375 52.957031 92.273438 L 46.285156 90.449219 C 46.199219 90.449219 46.0625 90.40625 45.929688 90.628906 C 45.707031 91.203125 45.441406 91.78125 45.171875 92.496094 L 45.128906 92.496094 L 45.128906 92.582031 C 44.820312 93.25 44.597656 93.871094 44.375 94.449219 C 44.285156 94.671875 44.417969 94.757812 44.507812 94.804688 L 50.464844 98.226562 C 50.734375 98.359375 50.867188 98.539062 50.910156 98.804688 C 50.511719 99.828125 50.199219 100.847656 49.84375 101.914062 C 49.667969 102.09375 49.445312 102.136719 49.175781 102.09375 L 42.328125 101.160156 C 42.238281 101.160156 42.0625 101.160156 42.015625 101.382812 C 41.839844 101.960938 41.660156 102.625 41.484375 103.335938 L 41.441406 103.335938 L 41.441406 103.425781 C 41.261719 104.136719 41.082031 104.757812 40.949219 105.335938 C 40.90625 105.601562 41.039062 105.648438 41.128906 105.691406 L 47.484375 108.359375 C 47.753906 108.449219 47.886719 108.578125 47.976562 108.800781 C 47.753906 109.914062 47.53125 110.980469 47.355469 112.046875 C 47.175781 112.269531 46.953125 112.3125 46.6875 112.3125 L 39.796875 112.3125 C 39.703125 112.3125 39.570312 112.3125 39.527344 112.578125 C 39.4375 113.15625 39.304688 113.820312 39.214844 114.535156 L 39.214844 114.625 C 39.125 115.378906 39.039062 116.042969 38.992188 116.621094 C 38.949219 116.890625 39.082031 116.933594 39.171875 116.976562 L 45.84375 118.757812 C 46.109375 118.800781 46.285156 118.933594 46.421875 119.15625 C 46.332031 120.222656 46.242188 121.332031 46.199219 122.445312 C 46.0625 122.667969 45.886719 122.757812 45.574219 122.800781 L 38.726562 123.6875 C 38.636719 123.6875 38.503906 123.734375 38.503906 123.957031 C 38.460938 124.578125 38.460938 125.246094 38.460938 125.953125 L 38.460938 126.085938 C 38.460938 126.796875 38.460938 127.464844 38.503906 128.085938 C 38.503906 128.308594 38.636719 128.355469 38.726562 128.355469 L 45.574219 129.242188 C 45.886719 129.289062 46.0625 129.375 46.199219 129.601562 C 46.242188 130.707031 46.332031 131.777344 46.421875 132.886719 C 46.285156 133.109375 46.109375 133.242188 45.84375 133.285156 L 39.171875 135.0625 C 39.082031 135.109375 38.949219 135.152344 38.992188 135.417969 C 39.039062 135.996094 39.125 136.664062 39.214844 137.375 L 39.214844 137.507812 C 39.304688 138.21875 39.390625 138.886719 39.527344 139.464844 C 39.527344 139.730469 39.703125 139.730469 39.796875 139.730469 L 46.6875 139.730469 C 46.953125 139.730469 47.175781 139.773438 47.355469 139.949219 C 47.53125 141.0625 47.753906 142.128906 47.976562 143.242188 C 47.886719 143.460938 47.753906 143.597656 47.484375 143.683594 L 41.128906 146.351562 C 40.996094 146.398438 40.90625 146.4375 40.949219 146.707031 C 41.082031 147.238281 41.261719 147.90625 41.441406 148.617188 L 41.441406 148.707031 L 41.484375 148.707031 C 41.660156 149.417969 41.839844 150.085938 42.015625 150.660156 C 42.0625 150.882812 42.238281 150.882812 42.328125 150.882812 L 49.175781 149.949219 C 49.445312 149.90625 49.667969 149.949219 49.84375 150.128906 C 50.15625 151.195312 50.511719 152.21875 50.910156 153.238281 C 50.867188 153.503906 50.734375 153.683594 50.464844 153.773438 L 44.507812 157.238281 C 44.417969 157.28125 44.285156 157.371094 44.375 157.59375 C 44.597656 158.171875 44.820312 158.792969 45.128906 159.460938 L 45.128906 159.546875 C 45.441406 160.261719 45.707031 160.835938 45.929688 161.414062 C 46.019531 161.59375 46.199219 161.59375 46.285156 161.550781 L 52.957031 159.773438 C 53.222656 159.683594 53.445312 159.726562 53.667969 159.90625 C 54.113281 160.839844 54.601562 161.816406 55.09375 162.75 C 55.09375 163.058594 55.003906 163.238281 54.734375 163.417969 L 49.265625 167.59375 C 49.175781 167.683594 49.085938 167.769531 49.175781 167.992188 C 49.488281 168.527344 49.800781 169.101562 50.15625 169.726562 C 50.199219 169.726562 50.199219 169.769531 50.199219 169.769531 L 50.199219 169.816406 L 50.242188 169.816406 C 50.601562 170.480469 50.953125 171.058594 51.265625 171.546875 C 51.355469 171.726562 51.488281 171.726562 51.621094 171.679688 L 57.984375 169.011719 C 58.25 168.878906 58.515625 168.925781 58.738281 169.058594 C 59.316406 169.949219 59.894531 170.792969 60.515625 171.636719 C 60.5625 171.949219 60.472656 172.171875 60.25 172.394531 L 55.355469 177.28125 C 55.269531 177.371094 55.179688 177.457031 55.355469 177.679688 C 55.667969 178.125 56.070312 178.65625 56.515625 179.28125 L 56.558594 179.28125 L 56.558594 179.324219 L 56.601562 179.324219 C 57.046875 179.945312 57.449219 180.433594 57.847656 180.921875 C 57.984375 181.101562 58.117188 181.054688 58.203125 180.96875 L 64.207031 177.546875 C 64.472656 177.371094 64.695312 177.371094 65.007812 177.5 C 65.671875 178.257812 66.34375 179.058594 67.007812 179.8125 C 67.097656 180.078125 67.054688 180.347656 66.875 180.570312 L 62.652344 186.03125 C 62.609375 186.125 62.515625 186.257812 62.695312 186.433594 C 63.097656 186.878906 63.539062 187.367188 64.074219 187.855469 C 64.074219 187.855469 64.074219 187.898438 64.121094 187.898438 L 64.121094 187.941406 L 64.164062 187.941406 C 64.695312 188.476562 65.140625 188.921875 65.585938 189.320312 C 65.765625 189.5 65.898438 189.410156 65.988281 189.367188 L 71.457031 185.144531 C 71.679688 184.964844 71.945312 184.921875 72.210938 185.011719 C 72.96875 185.679688 73.769531 186.390625 74.523438 187.011719 C 74.660156 187.320312 74.660156 187.585938 74.480469 187.8125 L 71.054688 193.808594 C 70.964844 193.898438 70.925781 194.03125 71.097656 194.210938 C 71.589844 194.566406 72.125 194.964844 72.699219 195.410156 L 72.699219 195.457031 L 72.746094 195.457031 L 72.746094 195.496094 C 73.367188 195.941406 73.902344 196.34375 74.390625 196.699219 C 74.570312 196.832031 74.660156 196.742188 74.746094 196.65625 L 79.640625 191.765625 C 79.859375 191.542969 80.085938 191.453125 80.394531 191.5 C 81.238281 192.121094 82.085938 192.699219 82.972656 193.277344 C 83.105469 193.496094 83.152344 193.765625 83.019531 194.03125 L 80.351562 200.386719 C 80.304688 200.519531 80.304688 200.652344 80.484375 200.785156 C 80.972656 201.101562 81.550781 201.40625 82.21875 201.808594 L 82.261719 201.808594 C 82.261719 201.851562 82.308594 201.851562 82.308594 201.851562 C 82.929688 202.210938 83.507812 202.519531 84.042969 202.832031 C 84.265625 202.921875 84.351562 202.832031 84.441406 202.742188 L 88.578125 197.273438 C 88.757812 197.011719 88.933594 196.917969 89.246094 196.917969 C 90.179688 197.410156 91.15625 197.898438 92.089844 198.34375 C 92.269531 198.5625 92.3125 198.789062 92.222656 199.054688 L 90.445312 205.675781 C 90.402344 205.808594 90.402344 205.941406 90.621094 206.03125 C 91.15625 206.253906 91.734375 206.519531 92.445312 206.832031 L 92.492188 206.832031 C 92.535156 206.832031 92.535156 206.832031 92.535156 206.875 C 93.203125 207.140625 93.824219 207.40625 94.402344 207.582031 C 94.625 207.675781 94.714844 207.582031 94.757812 207.453125 L 98.226562 201.542969 C 98.316406 201.277344 98.492188 201.140625 98.761719 201.101562 C 99.785156 201.5 100.804688 201.851562 101.875 202.164062 C 102.050781 202.339844 102.097656 202.566406 102.050781 202.832031 L 101.117188 209.632812 C 101.117188 209.765625 101.117188 209.894531 101.339844 209.941406 C 101.917969 210.117188 102.585938 210.296875 103.296875 210.515625 L 103.386719 210.515625 C 104.097656 210.738281 104.761719 210.875 105.296875 211.007812 C 105.5625 211.097656 105.609375 210.964844 105.65625 210.875 L 108.324219 204.472656 C 108.410156 204.25 108.542969 204.121094 108.769531 204.03125 C 109.878906 204.25 110.945312 204.472656 112.054688 204.652344 C 112.238281 204.785156 112.28125 205.007812 112.28125 205.273438 L 112.28125 212.164062 C 112.28125 212.292969 112.28125 212.429688 112.546875 212.472656 C 113.125 212.5625 113.792969 212.652344 114.503906 212.738281 L 114.636719 212.738281 C 115.347656 212.875 116.015625 212.917969 116.59375 213.007812 C 116.859375 213.007812 116.902344 212.871094 116.949219 212.785156 L 118.726562 206.117188 C 118.773438 205.851562 118.90625 205.675781 119.082031 205.585938 C 120.152344 205.675781 121.261719 205.71875 122.375 205.761719 C 122.59375 205.941406 122.6875 206.117188 122.730469 206.386719 L 123.617188 213.230469 C 123.617188 213.316406 123.664062 213.449219 123.886719 213.496094 L 128.015625 213.496094 C 128.238281 213.449219 128.28125 213.316406 128.324219 213.230469 L 129.214844 206.386719 C 129.214844 206.117188 129.347656 205.941406 129.527344 205.761719 C 130.636719 205.71875 131.753906 205.675781 132.816406 205.585938 C 133.042969 205.675781 133.171875 205.851562 133.261719 206.117188 L 135.042969 212.785156 C 135.042969 212.871094 135.132812 213.007812 135.351562 213.007812 C 135.933594 212.917969 136.597656 212.871094 137.355469 212.738281 L 137.441406 212.738281 C 138.199219 212.652344 138.824219 212.5625 139.445312 212.472656 C 139.664062 212.429688 139.664062 212.296875 139.664062 212.164062 L 139.664062 205.273438 C 139.664062 205.007812 139.757812 204.785156 139.933594 204.652344 C 141 204.472656 142.109375 204.25 143.179688 204.03125 C 143.402344 204.121094 143.578125 204.25 143.667969 204.472656 L 146.292969 210.875 C 146.335938 210.964844 146.425781 211.097656 146.648438 211.007812 C 147.222656 210.875 147.847656 210.738281 148.601562 210.515625 L 148.695312 210.515625 C 149.40625 210.296875 150.027344 210.117188 150.609375 209.941406 C 150.828125 209.894531 150.828125 209.765625 150.828125 209.632812 L 149.894531 202.832031 C 149.847656 202.566406 149.9375 202.339844 150.074219 202.164062 C 151.140625 201.851562 152.160156 201.5 153.1875 201.101562 C 153.453125 201.140625 153.628906 201.277344 153.765625 201.542969 L 157.1875 207.453125 C 157.277344 207.582031 157.367188 207.675781 157.589844 207.582031 C 158.121094 207.40625 158.742188 207.140625 159.457031 206.875 L 159.457031 206.832031 L 159.5 206.832031 C 160.210938 206.519531 160.835938 206.253906 161.367188 206.03125 C 161.589844 205.941406 161.546875 205.808594 161.546875 205.675781 L 159.722656 199.054688 C 159.675781 198.789062 159.675781 198.5625 159.855469 198.34375 C 160.832031 197.898438 161.769531 197.410156 162.746094 196.917969 C 163.011719 196.917969 163.238281 197.011719 163.371094 197.273438 L 167.59375 202.742188 C 167.636719 202.832031 167.773438 202.921875 167.949219 202.832031 C 168.480469 202.519531 169.058594 202.210938 169.730469 201.851562 L 169.730469 201.808594 L 169.773438 201.808594 C 170.4375 201.40625 171.015625 201.101562 171.503906 200.785156 C 171.730469 200.652344 171.683594 200.519531 171.640625 200.386719 L 169.023438 194.03125 C 168.890625 193.765625 168.890625 193.496094 169.023438 193.277344 C 169.914062 192.699219 170.800781 192.121094 171.648438 191.5 C 171.914062 191.453125 172.179688 191.542969 172.359375 191.765625 L 177.25 196.65625 C 177.339844 196.742188 177.429688 196.832031 177.652344 196.699219 C 178.140625 196.34375 178.671875 195.941406 179.25 195.496094 L 179.25 195.457031 L 179.296875 195.457031 C 179.296875 195.457031 179.296875 195.410156 179.339844 195.410156 C 179.917969 194.964844 180.453125 194.566406 180.898438 194.210938 C 181.074219 194.03125 181.03125 193.898438 180.988281 193.808594 L 177.519531 187.808594 C 177.339844 187.585938 177.339844 187.320312 177.46875 187.011719 C 178.273438 186.390625 179.027344 185.679688 179.785156 185.011719 C 180.09375 184.921875 180.320312 184.964844 180.585938 185.144531 L 186.054688 189.367188 C 186.144531 189.410156 186.234375 189.5 186.414062 189.320312 C 186.855469 188.921875 187.34375 188.476562 187.878906 187.941406 L 187.878906 187.898438 L 187.921875 187.898438 L 187.921875 187.855469 C 188.457031 187.367188 188.945312 186.878906 189.347656 186.433594 C 189.480469 186.257812 189.433594 186.125 189.347656 186.03125 L 185.164062 180.570312 C 184.941406 180.347656 184.898438 180.078125 184.988281 179.8125 C 185.699219 179.058594 186.363281 178.257812 187.035156 177.5 C 187.300781 177.367188 187.5625 177.367188 187.832031 177.546875 L 193.792969 180.96875 C 193.882812 181.054688 194.015625 181.101562 194.195312 180.921875 C 194.550781 180.433594 194.949219 179.945312 195.4375 179.324219 L 195.4375 179.28125 L 195.484375 179.28125 C 195.925781 178.65625 196.328125 178.125 196.683594 177.679688 C 196.816406 177.457031 196.726562 177.367188 196.636719 177.28125 L 191.746094 172.390625 C 191.523438 172.171875 191.480469 171.949219 191.523438 171.636719 C 192.101562 170.792969 192.679688 169.949219 193.257812 169.058594 C 193.523438 168.925781 193.746094 168.878906 194.011719 169.011719 L 200.417969 171.679688 C 200.507812 171.722656 200.640625 171.722656 200.773438 171.546875 C 201.085938 171.058594 201.398438 170.480469 201.796875 169.816406 L 201.796875 169.769531 L 201.839844 169.769531 L 201.839844 169.726562 C 202.195312 169.101562 202.554688 168.523438 202.820312 167.992188 C 202.953125 167.769531 202.820312 167.683594 202.730469 167.59375 L 197.261719 163.414062 C 197.035156 163.238281 196.90625 163.058594 196.90625 162.75 C 197.390625 161.816406 197.882812 160.835938 198.324219 159.902344 C 198.546875 159.726562 198.773438 159.683594 199.039062 159.773438 L 205.710938 161.546875 C 205.84375 161.59375 205.976562 161.59375 206.066406 161.414062 C 206.332031 160.835938 206.597656 160.261719 206.863281 159.546875 L 206.863281 159.503906 L 206.910156 159.457031 C 207.175781 158.792969 207.445312 158.171875 207.621094 157.59375 C 207.710938 157.371094 207.621094 157.28125 207.53125 157.234375 L 201.527344 153.773438 C 201.304688 153.683594 201.171875 153.503906 201.128906 153.238281 C 201.484375 152.21875 201.839844 151.195312 202.152344 150.128906 C 202.375 149.949219 202.550781 149.90625 202.816406 149.949219 L 209.664062 150.882812 C 209.800781 150.882812 209.933594 150.882812 210.019531 150.660156 C 210.15625 150.085938 210.335938 149.417969 210.554688 148.707031 L 210.554688 148.617188 C 210.777344 147.90625 210.910156 147.238281 211.046875 146.707031 C 211.132812 146.4375 211 146.394531 210.910156 146.351562 L 204.507812 143.683594 C 204.242188 143.59375 204.109375 143.460938 204.015625 143.242188 C 204.285156 142.128906 204.460938 141.0625 204.683594 139.949219 C 204.820312 139.773438 205.042969 139.730469 205.304688 139.730469 L 212.199219 139.730469 C 212.335938 139.730469 212.46875 139.730469 212.511719 139.464844 C 212.601562 138.886719 212.691406 138.21875 212.78125 137.507812 L 212.78125 137.375 C 212.914062 136.664062 212.957031 135.996094 213.046875 135.417969 C 213.046875 135.152344 212.914062 135.109375 212.824219 135.0625 L 206.152344 133.285156 C 205.890625 133.242188 205.710938 133.109375 205.621094 132.886719 C 205.707031 131.773438 205.75 130.707031 205.796875 129.601562 C 205.976562 129.375 206.152344 129.289062 206.421875 129.242188 L 213.265625 128.355469 C 213.355469 128.355469 213.488281 128.308594 213.535156 128.085938 L 213.535156 123.953125 C 213.488281 123.734375 213.355469 123.6875 213.265625 123.6875 Z M 213.269531 123.6875 "/>
<path style=" stroke:none;fill-rule:evenodd;fill:rgb(71.372549%,14.509804%,21.568627%);fill-opacity:1;" d="M 119.542969 172.824219 C 119.542969 173.140625 119.253906 173.40625 118.90625 173.40625 L 112.625 173.40625 C 112.273438 173.40625 111.992188 173.144531 111.992188 172.824219 L 111.992188 171.554688 C 111.992188 171.234375 112.273438 170.976562 112.625 170.976562 L 118.90625 170.976562 C 119.261719 170.976562 119.542969 171.234375 119.542969 171.554688 Z M 112.09375 167.441406 C 112.09375 167.125 112.378906 166.863281 112.730469 166.863281 L 118.800781 166.863281 C 119.15625 166.863281 119.445312 167.125 119.445312 167.441406 L 119.445312 168.675781 C 119.445312 168.992188 119.15625 169.253906 118.800781 169.253906 L 112.730469 169.253906 C 112.378906 169.253906 112.09375 168.992188 112.09375 168.675781 Z M 121.605469 170.085938 L 121.523438 170.050781 L 121.3125 169.972656 L 121.515625 169.875 L 121.59375 169.839844 C 122.09375 169.597656 122.414062 169.0625 122.414062 168.476562 L 122.414062 166.59375 C 122.414062 165.800781 121.683594 165.105469 120.855469 165.105469 L 110.554688 165.105469 C 109.738281 165.105469 109.074219 165.773438 109.074219 166.59375 L 109.074219 168.476562 C 109.074219 169.058594 109.394531 169.59375 109.890625 169.839844 L 109.96875 169.878906 L 110.167969 169.972656 L 109.960938 170.054688 L 109.878906 170.085938 C 109.316406 170.292969 108.941406 170.863281 108.941406 171.496094 L 108.941406 173.679688 C 108.941406 174.5 109.558594 175.167969 110.316406 175.167969 L 121.171875 175.167969 C 121.929688 175.167969 122.550781 174.5 122.550781 173.679688 L 122.550781 171.496094 C 122.550781 170.863281 122.171875 170.292969 121.605469 170.085938 Z M 121.605469 170.085938 "/>
<path style=" stroke:none;fill-rule:evenodd;fill:rgb(71.372549%,14.509804%,21.568627%);fill-opacity:1;" d="M 104.917969 175.160156 L 101.730469 175.160156 L 101.730469 167.578125 C 101.722656 167.285156 101.484375 167.273438 101.371094 167.269531 C 101.210938 167.269531 101.03125 167.308594 100.859375 167.34375 L 98.488281 167.898438 L 98.488281 166.078125 L 100.992188 165.445312 C 101.101562 165.417969 101.214844 165.386719 101.324219 165.355469 C 101.753906 165.238281 102.199219 165.117188 102.613281 165.113281 L 104.523438 165.113281 C 104.78125 165.117188 104.917969 165.257812 104.917969 165.527344 Z M 104.917969 175.160156 "/>
<path style=" stroke:none;fill-rule:evenodd;fill:rgb(71.372549%,14.509804%,21.568627%);fill-opacity:1;" d="M 32.507812 73.550781 C 31.722656 72.6875 33.3125 70.195312 34.105469 71.75 C 34.222656 72.792969 33.222656 73.804688 32.507812 73.550781 Z M 49.105469 61.863281 C 47.71875 61.90625 42.9375 62.605469 41.917969 63.160156 C 39.480469 64.480469 38.515625 65.757812 37.007812 68.03125 C 36.394531 68.949219 35.726562 70.210938 34.671875 69.261719 C 33.886719 68.5625 33.125 69.632812 32.21875 69.359375 C 31.234375 69.070312 31.273438 68.195312 30.890625 67.449219 C 30.339844 66.382812 29.0625 67.546875 28.339844 67.671875 C 27.765625 67.277344 28.148438 65.648438 27.578125 65.25 C 25.703125 65.226562 25.285156 66.390625 25.710938 67.921875 C 26.164062 69.535156 24.65625 70.46875 24.765625 72.007812 C 25.28125 72.503906 26.054688 72.34375 26.59375 72.007812 C 27.304688 72.320312 27.566406 73.132812 27.792969 73.796875 C 28.171875 74.910156 28.660156 74.3125 29.542969 74.277344 C 34.023438 74.082031 30.902344 79.617188 30.308594 81.78125 C 29.988281 82.949219 29.550781 84.632812 30.1875 85.769531 C 30.582031 86.472656 31.683594 88.605469 31.910156 89.070312 C 32.933594 90.8125 37.953125 93.25 36.203125 89.445312 C 35.0625 86.972656 32.761719 85.472656 33.203125 82.5 C 33.71875 79.019531 34.359375 76.460938 35.800781 73.257812 C 36.988281 70.625 39.472656 68.421875 41.691406 66.683594 C 42.785156 65.828125 43.921875 65.117188 45.355469 65.097656 C 46.796875 65.078125 48.332031 65.59375 49.726562 64.988281 C 50.355469 64.128906 49.769531 62.519531 49.105469 61.863281 Z M 41.566406 78.824219 C 41.566406 78.835938 41.5625 78.84375 41.5625 78.851562 C 41.417969 80.753906 39.710938 80.835938 39.515625 80.214844 C 39.371094 79.78125 40.359375 77.609375 41.335938 78.167969 C 41.414062 78.214844 41.582031 78.519531 41.578125 78.601562 C 41.578125 78.648438 41.578125 78.699219 41.570312 78.75 C 41.570312 78.773438 41.566406 78.800781 41.566406 78.824219 Z M 38.082031 77.882812 C 37.175781 76.550781 38.785156 74.941406 39.148438 73.632812 C 39.304688 73.417969 39.390625 73.125 39.765625 73.097656 C 40.140625 73.074219 39.835938 73.058594 40.5 73.460938 C 41.160156 73.863281 38.980469 79.214844 38.082031 77.882812 Z M 44.863281 68.519531 C 44.765625 68.539062 44.617188 68.703125 44.589844 68.765625 C 43.949219 70.242188 45.339844 74.953125 42.972656 74.980469 C 42.152344 73.675781 43.597656 70.976562 41.675781 70.113281 C 40.230469 69.457031 39.199219 70.359375 38.503906 71.558594 C 37.019531 74.109375 35.335938 77.003906 35.632812 80.246094 C 36.117188 81.105469 37.359375 80.988281 37.882812 81.796875 C 37.550781 82.832031 36.234375 83.105469 36.617188 84.703125 C 36.632812 84.769531 36.808594 84.976562 36.875 85 C 40.800781 86.578125 40.765625 81.371094 43.597656 81.761719 C 44.113281 82.183594 43.40625 83.828125 44.160156 84.4375 C 46.40625 84.675781 47.542969 81.453125 46.535156 79.769531 C 45.019531 77.238281 46.230469 76.472656 46.96875 74.019531 C 47.171875 72.3125 48.945312 70.71875 47.472656 68.925781 C 47.167969 68.488281 45.433594 68.402344 44.863281 68.519531 Z M 29.09375 63.953125 C 29.644531 63.570312 29.863281 63.59375 30.171875 62.9375 C 30.476562 62.289062 30.953125 61.789062 31.710938 61.757812 C 32.644531 62.847656 30.710938 64.667969 32.191406 65.589844 C 33.652344 65.707031 33.09375 64.257812 34.554688 64.375 C 35.722656 65.953125 33.441406 66.445312 34.136719 68.316406 C 36.457031 69.089844 37.15625 65.761719 37.097656 64.136719 C 37.054688 63.050781 36.816406 61.429688 35.953125 60.679688 C 35.015625 59.867188 33.742188 58.796875 32.578125 58.355469 C 30.910156 57.71875 29.914062 58.886719 29.210938 60.246094 C 28.542969 61.535156 27.269531 62.683594 27.351562 64.253906 C 27.410156 65.335938 28.71875 64.214844 29.09375 63.953125 Z M 29.542969 76.011719 C 29.488281 75.929688 29.0625 75.792969 28.933594 75.820312 C 27.414062 76.140625 27.304688 79 26.488281 78.421875 C 25.667969 77.84375 27.015625 76.003906 26.0625 75.046875 C 23.300781 74.410156 24.949219 77.828125 23.109375 78.847656 C 22.667969 78.703125 22.351562 78.679688 22.238281 78.265625 C 22.125 77.851562 24.109375 74.550781 23.445312 74.230469 C 21.683594 73.082031 21.539062 74.867188 21.414062 76.222656 C 21.363281 76.757812 21.003906 77.664062 20.9375 77.777344 C 19.90625 79.550781 21.300781 80.613281 23.027344 81.296875 C 24.378906 81.832031 27.269531 82.714844 28.3125 81.34375 C 29.277344 80.078125 30.609375 77.550781 29.542969 76.011719 Z M 29.542969 76.011719 "/>
<path style=" stroke:none;fill-rule:evenodd;fill:rgb(71.372549%,14.509804%,21.568627%);fill-opacity:1;" d="M 173.195312 26.070312 C 173.164062 26.0625 173 25.917969 172.945312 25.855469 C 171.714844 24.417969 169.128906 23.421875 167.246094 23.300781 C 167.140625 23.292969 166.953125 23.25 166.835938 23.207031 C 166.835938 23.207031 166.714844 23.125 166.707031 23.113281 C 166.324219 22.683594 165.710938 20.976562 167.101562 21.417969 C 168.625 21.902344 168.617188 22.011719 169.75 22.417969 C 170.761719 22.777344 172.425781 23.320312 173.328125 23.746094 C 173.359375 23.761719 173.394531 23.777344 173.425781 23.792969 C 173.492188 23.828125 173.550781 23.863281 173.609375 23.890625 L 173.589844 23.890625 C 173.75 23.984375 173.902344 24.085938 174.042969 24.21875 C 175.234375 25.304688 174.816406 26.496094 173.195312 26.070312 Z M 168.878906 30.109375 C 169.183594 28.292969 171.5 30.246094 170.945312 31.453125 C 170.917969 31.515625 170.726562 31.613281 170.675781 31.597656 C 170.363281 31.5 170.136719 31.300781 169.925781 31.082031 C 169.617188 30.773438 168.871094 30.179688 168.878906 30.109375 Z M 171.707031 35.394531 C 171.316406 36.515625 168.3125 34.523438 168.375 33.121094 C 168.375 33.066406 168.449219 32.941406 168.476562 32.9375 C 169.410156 32.8125 172.101562 34.253906 171.707031 35.394531 Z M 169.410156 40.296875 C 169.359375 40.371094 169.085938 40.523438 169.003906 40.53125 C 167.382812 40.597656 164.878906 39.75 164.835938 37.890625 C 164.8125 36.832031 165.632812 36.199219 166.617188 36.074219 C 166.972656 36.03125 167.265625 36.128906 167.535156 36.273438 C 167.972656 36.503906 168.441406 36.660156 168.875 36.960938 C 168.972656 37.023438 169.0625 37.089844 169.148438 37.160156 C 170.203125 38.035156 170.210938 39.214844 169.410156 40.296875 Z M 163.691406 32.558594 C 163.226562 32.347656 161.566406 31.464844 161.765625 30.769531 C 161.96875 30.226562 162.902344 29.875 164.742188 31.109375 C 164.816406 31.160156 164.945312 31.496094 164.929688 31.617188 C 164.847656 32.347656 164.71875 33.035156 163.691406 32.558594 Z M 160.367188 36.925781 C 159.378906 36.304688 158.636719 35.21875 158.871094 34.707031 C 159.886719 32.996094 163.496094 33.261719 163.511719 35.574219 C 163.519531 36.945312 161.339844 37.539062 160.367188 36.925781 Z M 164.304688 28.414062 C 164.652344 27.46875 166.082031 27.992188 166.273438 28.800781 C 166.289062 28.867188 166.15625 29.023438 166.089844 29.035156 C 165.457031 29.15625 164.910156 29.179688 164.328125 28.640625 C 164.304688 28.617188 164.289062 28.464844 164.304688 28.414062 Z M 154.445312 32.515625 C 154.800781 32.171875 155.390625 31.757812 156.464844 32.648438 C 156.519531 32.695312 156.660156 32.941406 156.667969 33.007812 C 157.097656 36.179688 152.1875 34.78125 154.445312 32.515625 Z M 149.628906 34.269531 C 148.632812 33.839844 150.136719 28.15625 151.996094 29.417969 C 153.851562 30.675781 150.621094 34.699219 149.628906 34.269531 Z M 177.019531 23.304688 C 173.480469 21.300781 169.851562 19.765625 165.828125 19.054688 C 163.867188 18.710938 161.960938 22.960938 163.9375 24.109375 C 164.722656 24.566406 167.800781 24.4375 167.683594 25.746094 L 167.683594 25.75 C 167.542969 26.570312 164.53125 25.015625 162.160156 26.335938 C 162.015625 26.417969 161.90625 26.488281 161.835938 26.550781 C 161.125 27.035156 160.539062 27.886719 159.878906 28.496094 C 159.203125 29.121094 158.226562 30.527344 157.15625 30.347656 C 156.300781 30.199219 154.832031 28.800781 154.925781 28.613281 C 155.3125 27.851562 156.40625 28.332031 157.085938 27.457031 C 158.320312 25.867188 158.054688 24.015625 158.753906 22.269531 C 159.503906 20.386719 162.535156 20.917969 162.570312 18.214844 C 162.585938 17.113281 161.558594 16.488281 160.804688 15.75 L 159.867188 15.082031 C 159.421875 14.804688 157.574219 14.832031 157.871094 16.203125 C 158.015625 16.867188 159.21875 18.714844 158.007812 19.019531 C 156.363281 19.429688 154.078125 18.699219 152.488281 18.292969 C 152.210938 18.222656 150.214844 17.519531 149.910156 17.566406 C 149.664062 17.605469 149.453125 17.671875 149.320312 17.796875 C 148.652344 18.46875 148.707031 19.648438 149.253906 20.304688 C 149.261719 20.3125 149.269531 20.324219 149.28125 20.335938 C 149.308594 20.367188 149.40625 20.449219 149.453125 20.460938 C 149.808594 20.550781 151.109375 20.632812 151.136719 20.632812 C 151.882812 20.625 153.195312 20.925781 154.152344 21.347656 L 154.152344 21.339844 C 155.191406 21.828125 155.765625 22.203125 154.632812 22.546875 C 154.613281 22.554688 154.59375 22.558594 154.574219 22.566406 C 154.570312 22.566406 154.5625 22.566406 154.558594 22.570312 C 152.921875 23.128906 149.980469 21.683594 148.355469 22.511719 C 148.300781 22.535156 148.1875 22.621094 148.164062 22.65625 C 148.019531 22.90625 147.570312 23.828125 148.09375 24.109375 C 148.585938 24.371094 149.285156 24.527344 149.6875 24.5625 C 150.007812 24.589844 152.085938 24.554688 153.050781 24.515625 C 153.335938 24.503906 153.710938 24.398438 153.800781 24.363281 C 153.976562 24.285156 154.167969 24.222656 154.382812 24.191406 C 155.074219 24.089844 155.65625 24.222656 155.339844 25.070312 C 154.9375 26.128906 151.105469 27.1875 150.09375 26.941406 C 149.078125 26.703125 147.953125 28.035156 147.914062 28.238281 C 147.734375 29.171875 147.824219 30.207031 147.390625 31.195312 C 146.816406 32.519531 145.621094 34.335938 146.273438 35.8125 C 146.445312 36.292969 149.429688 36.4375 152.851562 36.917969 C 153.085938 36.949219 153.316406 36.988281 153.546875 37.015625 C 155.714844 37.347656 157.992188 37.820312 159.796875 38.601562 C 160.496094 38.902344 161.078125 39.136719 161.558594 39.320312 C 164.050781 40.589844 166.617188 42.183594 167.019531 42.648438 C 169 44.9375 172.0625 48.703125 173.238281 47.09375 C 173.15625 45.484375 172.234375 44.3125 171.546875 42.9375 C 171.257812 42.351562 172.046875 42.097656 172.355469 41.695312 C 173.507812 40.210938 173.800781 37.949219 174.1875 36.167969 C 174.507812 34.679688 174.722656 33.164062 175.109375 31.691406 C 175.554688 30 173.253906 28.84375 171.742188 28.410156 C 171.542969 28.351562 171.1875 27.976562 171.21875 27.859375 C 171.496094 26.652344 173.707031 27.625 175.078125 28.496094 C 175.605469 28.832031 176.964844 28.753906 177.25 28.269531 C 177.675781 27.539062 177.957031 26.617188 178.332031 26.03125 C 179.230469 24.621094 178.167969 23.957031 177.019531 23.304688 Z M 177.019531 23.304688 "/>
<path style=" stroke:none;fill-rule:nonzero;fill:rgb(71.372549%,14.509804%,21.568627%);fill-opacity:1;" d="M 15.636719 132.5625 C 15.585938 131.804688 15.613281 130.03125 15.617188 128.828125 C 16.34375 128.910156 17.210938 128.957031 18.09375 128.964844 L 18.101562 129.066406 C 17.339844 130.023438 16.863281 131.320312 16.953125 132.707031 C 17.03125 133.925781 17.6875 134.683594 18.746094 134.617188 C 19.503906 134.566406 19.945312 134.21875 20.4375 133.492188 C 21.171875 132.410156 21.589844 131.140625 22.457031 129.964844 C 23.4375 128.65625 24.417969 128.320312 25.640625 128.242188 C 26.835938 128.160156 29.203125 128.679688 29.492188 133.175781 C 29.550781 134.015625 29.59375 135.339844 29.550781 136.460938 C 28.917969 136.335938 28.003906 136.203125 27.15625 136.113281 L 27.148438 136.007812 C 27.792969 135.394531 28.289062 134.6875 28.183594 133.113281 C 28.085938 131.621094 27.21875 130.941406 26.339844 131 C 25.28125 131.066406 24.691406 131.253906 23.472656 133.863281 C 21.960938 137.125 20.964844 137.273438 19.707031 137.355469 C 18.1875 137.453125 15.914062 136.761719 15.636719 132.5625 Z M 15.636719 132.5625 "/>
<path style=" stroke:none;fill-rule:nonzero;fill:rgb(71.372549%,14.509804%,21.568627%);fill-opacity:1;" d="M 24.996094 150.175781 C 23.4375 150.445312 19.902344 151.167969 18.4375 151.738281 C 18.351562 150.941406 18.296875 150.652344 18.191406 150.074219 C 18.105469 149.621094 18.027344 149.207031 17.785156 148.222656 C 19.667969 148.042969 22.480469 147.605469 23.9375 147.335938 C 23.796875 146.355469 23.726562 145.875 23.589844 145.128906 C 23.449219 144.386719 23.296875 143.664062 23.101562 142.84375 C 20.917969 143.273438 19.03125 143.648438 17.046875 144.253906 C 16.964844 143.496094 16.855469 142.917969 16.796875 142.585938 C 16.707031 142.109375 16.636719 141.71875 16.394531 140.753906 C 18.265625 140.621094 21.550781 140.097656 23.027344 139.820312 C 24.46875 139.554688 29.199219 138.800781 29.628906 138.035156 L 29.707031 138.019531 C 29.816406 138.832031 29.894531 139.355469 30 139.933594 C 30.113281 140.535156 30.242188 141.132812 30.398438 141.746094 C 29.054688 141.738281 27.121094 142.097656 24.621094 142.5625 C 24.753906 143.628906 24.835938 144.0625 24.980469 144.828125 C 25.117188 145.574219 25.183594 145.925781 25.457031 147.050781 C 28.464844 146.472656 29.851562 146.253906 31.03125 145.480469 L 31.097656 145.488281 C 31.160156 146.160156 31.25 146.636719 31.390625 147.402344 C 31.5 147.980469 31.660156 148.742188 31.792969 149.230469 C 30.015625 149.328125 26.8125 149.859375 24.996094 150.175781 Z M 24.996094 150.175781 "/>
<path style=" stroke:none;fill-rule:nonzero;fill:rgb(71.372549%,14.509804%,21.568627%);fill-opacity:1;" d="M 31.0625 156.46875 L 31.035156 156.386719 C 29.296875 156.363281 27.789062 156.386719 26.183594 156.449219 C 26.308594 156.960938 26.414062 157.347656 26.566406 157.808594 C 26.78125 158.46875 26.894531 158.742188 27.089844 159.210938 C 28.414062 158.355469 29.804688 157.390625 31.0625 156.46875 Z M 22.347656 164.171875 C 22.144531 163.554688 21.964844 163.011719 21.691406 162.375 C 23.0625 161.859375 25.011719 160.597656 25.929688 159.988281 C 25.765625 159.355469 25.589844 158.75 25.398438 158.167969 C 25.207031 157.589844 24.960938 156.960938 24.796875 156.527344 C 23.664062 156.546875 21.234375 156.722656 20.042969 157.332031 C 19.839844 156.648438 19.773438 156.316406 19.609375 155.816406 C 19.429688 155.273438 19.253906 154.800781 19.035156 154.253906 C 19.871094 154.421875 21.375 154.574219 21.996094 154.613281 C 23.308594 154.691406 25.152344 154.773438 26.597656 154.808594 C 27.894531 154.847656 29.992188 154.871094 31.605469 154.851562 C 32.074219 154.855469 32.835938 154.871094 33.246094 154.578125 L 33.363281 154.539062 C 33.570312 155.183594 33.753906 155.671875 33.90625 156.070312 C 34.113281 156.640625 34.335938 157.191406 34.589844 157.769531 C 34.207031 157.960938 33.503906 158.390625 32.898438 158.789062 C 31.683594 159.585938 30.183594 160.609375 29.050781 161.402344 C 27.148438 162.734375 26.074219 163.507812 25.128906 164.234375 C 24.726562 164.546875 23.738281 165.332031 22.945312 166.191406 C 22.707031 165.339844 22.535156 164.753906 22.347656 164.171875 Z M 22.347656 164.171875 "/>
<path style=" stroke:none;fill-rule:nonzero;fill:rgb(71.372549%,14.509804%,21.568627%);fill-opacity:1;" d="M 34.253906 175.050781 C 33.421875 175.449219 29.972656 177.054688 28.515625 177.917969 C 28.152344 177.109375 27.734375 176.375 27.289062 175.726562 C 28.328125 174.085938 30.328125 171.164062 31.230469 169.894531 L 33.953125 166.023438 L 33.925781 165.964844 L 30.402344 167.65625 C 29.734375 167.976562 26.199219 169.925781 25.0625 170.84375 C 24.878906 170.371094 24.714844 169.980469 24.507812 169.546875 C 24.308594 169.128906 24.058594 168.664062 23.835938 168.28125 C 25.796875 167.878906 30.5625 165.664062 31.480469 165.222656 C 32.1875 164.886719 35.097656 163.585938 36.042969 162.550781 L 36.132812 162.503906 C 36.351562 163.050781 36.625 163.667969 36.917969 164.277344 C 37.214844 164.902344 37.515625 165.484375 37.789062 165.957031 C 37.101562 166.753906 35.589844 168.644531 34.875 169.710938 C 33.476562 171.804688 32.574219 173.078125 31.800781 174.238281 L 31.828125 174.296875 L 34.175781 173.171875 C 35.53125 172.523438 39.003906 170.625 39.660156 169.867188 C 39.789062 170.226562 40.035156 170.785156 40.234375 171.203125 C 40.507812 171.773438 40.535156 171.828125 40.878906 172.410156 C 39.152344 172.84375 35.214844 174.589844 34.253906 175.046875 Z M 34.253906 175.050781 "/>
<path style=" stroke:none;fill-rule:nonzero;fill:rgb(71.372549%,14.509804%,21.568627%);fill-opacity:1;" d="M 39.125 188.980469 C 38.660156 189.257812 37.734375 189.820312 36.835938 190.535156 C 35.472656 189.117188 34.71875 188.152344 33.734375 186.660156 C 31.347656 183.039062 31.734375 180.164062 35.953125 177.386719 C 38.546875 175.679688 42.308594 174.613281 45.570312 179.570312 C 46.464844 180.921875 47.421875 182.558594 47.863281 183.375 C 46.929688 183.636719 46.199219 183.945312 45.339844 184.355469 L 45.257812 184.234375 C 45.578125 183.117188 45.351562 181.605469 44.378906 180.125 C 42.863281 177.824219 40.445312 178.234375 37.71875 180.03125 C 33.902344 182.542969 33.914062 184.347656 35.316406 186.476562 C 35.949219 187.441406 36.539062 187.203125 37.058594 186.863281 L 38.261719 186.070312 C 38.816406 185.707031 39.484375 185.265625 39.921875 184.398438 L 40.015625 184.359375 C 40.308594 184.875 40.660156 185.445312 40.996094 185.957031 C 41.4375 186.625 41.5625 186.820312 42.019531 187.402344 C 41.351562 187.664062 40.003906 188.425781 39.125 188.980469 Z M 39.125 188.980469 "/>
<path style=" stroke:none;fill-rule:nonzero;fill:rgb(71.372549%,14.509804%,21.568627%);fill-opacity:1;" d="M 51.117188 197.539062 C 49.914062 198.566406 47.246094 200.996094 46.28125 202.234375 C 45.796875 201.59375 45.605469 201.371094 45.214844 200.929688 C 44.910156 200.582031 44.632812 200.265625 43.917969 199.546875 C 45.445312 198.429688 47.640625 196.617188 48.757812 195.636719 C 48.132812 194.867188 47.828125 194.488281 47.328125 193.921875 C 46.828125 193.351562 46.328125 192.8125 45.742188 192.207031 C 44.085938 193.6875 42.652344 194.976562 41.253906 196.511719 C 40.800781 195.902344 40.410156 195.457031 40.191406 195.203125 C 39.871094 194.839844 39.605469 194.539062 38.910156 193.835938 C 40.449219 192.765625 43.003906 190.632812 44.132812 189.644531 C 45.234375 188.679688 48.914062 185.613281 48.894531 184.738281 L 48.953125 184.683594 C 49.464844 185.328125 49.796875 185.738281 50.183594 186.179688 C 50.589844 186.636719 51.003906 187.082031 51.453125 187.53125 C 50.292969 188.214844 48.816406 189.507812 46.902344 191.1875 C 47.566406 192.035156 47.855469 192.367188 48.371094 192.949219 C 48.871094 193.523438 49.105469 193.789062 49.914062 194.621094 C 52.207031 192.582031 53.289062 191.6875 53.90625 190.417969 L 53.964844 190.390625 C 54.363281 190.9375 54.683594 191.300781 55.195312 191.886719 C 55.585938 192.332031 56.113281 192.902344 56.476562 193.253906 C 55 194.242188 52.519531 196.339844 51.117188 197.539062 Z M 51.117188 197.539062 "/>
<path style=" stroke:none;fill-rule:nonzero;fill:rgb(71.372549%,14.509804%,21.568627%);fill-opacity:1;" d="M 59.554688 199.855469 L 59.492188 199.800781 C 57.980469 200.664062 56.699219 201.460938 55.351562 202.332031 C 55.722656 202.707031 56.007812 202.988281 56.371094 203.304688 C 56.894531 203.761719 57.128906 203.941406 57.535156 204.242188 C 58.238281 202.835938 58.945312 201.292969 59.554688 199.859375 Z M 55.988281 210.929688 C 55.5 210.503906 55.070312 210.128906 54.507812 209.714844 C 55.425781 208.574219 56.460938 206.496094 56.9375 205.503906 C 56.472656 205.042969 56.011719 204.613281 55.550781 204.210938 C 55.09375 203.808594 54.558594 203.394531 54.199219 203.105469 C 53.230469 203.699219 51.230469 205.089844 50.519531 206.222656 C 49.992188 205.738281 49.765625 205.484375 49.371094 205.140625 C 48.941406 204.765625 48.550781 204.449219 48.082031 204.089844 C 48.882812 203.808594 50.253906 203.171875 50.8125 202.886719 C 51.980469 202.285156 53.605469 201.417969 54.867188 200.707031 C 56.007812 200.078125 57.820312 199.03125 59.199219 198.1875 C 59.601562 197.953125 60.265625 197.574219 60.46875 197.117188 L 60.550781 197.027344 C 61.054688 197.46875 61.464844 197.800781 61.796875 198.0625 C 62.269531 198.449219 62.738281 198.808594 63.253906 199.179688 C 63.023438 199.535156 62.636719 200.265625 62.320312 200.917969 C 61.679688 202.222656 60.910156 203.867188 60.34375 205.128906 C 59.386719 207.242188 58.851562 208.457031 58.417969 209.566406 C 58.226562 210.039062 57.78125 211.21875 57.535156 212.363281 C 56.894531 211.75 56.449219 211.332031 55.988281 210.929688 Z M 55.988281 210.929688 "/>
<path style=" stroke:none;fill-rule:nonzero;fill:rgb(71.372549%,14.509804%,21.568627%);fill-opacity:1;" d="M 61.09375 214.753906 C 60.582031 214.386719 60.230469 214.152344 59.488281 213.667969 C 61.085938 211.957031 62.78125 209.644531 63.703125 208.359375 C 65.027344 206.523438 66.925781 204.035156 67.191406 202.546875 L 67.226562 202.5 C 67.734375 202.914062 68.164062 203.25 68.660156 203.605469 C 69.152344 203.964844 69.726562 204.324219 70.332031 204.738281 C 69.074219 205.980469 66.878906 209.066406 66.433594 209.683594 C 65.695312 210.707031 63.566406 213.625 62.460938 215.8125 C 61.730469 215.238281 61.402344 214.976562 61.09375 214.753906 Z M 61.09375 214.753906 "/>
<path style=" stroke:none;fill-rule:nonzero;fill:rgb(71.372549%,14.509804%,21.568627%);fill-opacity:1;" d="M 76.914062 216.550781 C 76.007812 218.183594 75.007812 220.03125 74.640625 220.699219 C 73.53125 222.695312 71.742188 223.582031 67.367188 221.753906 L 67.757812 220.53125 C 69.539062 221.265625 70.601562 221.257812 71.757812 219.515625 C 72.183594 218.878906 73.132812 217.207031 73.832031 215.945312 C 75.046875 213.753906 77.039062 210.550781 77.03125 209.082031 L 77.082031 208.992188 C 77.707031 209.382812 78.25 209.710938 78.765625 209.992188 C 79.28125 210.277344 79.785156 210.535156 80.414062 210.839844 C 79.128906 212.375 77.640625 215.238281 76.914062 216.550781 Z M 76.914062 216.550781 "/>
<path style=" stroke:none;fill-rule:nonzero;fill:rgb(71.372549%,14.509804%,21.568627%);fill-opacity:1;" d="M 80.421875 225.964844 C 79.597656 225.535156 79.226562 225.335938 78.882812 225.175781 C 78.3125 224.90625 77.921875 224.75 77.105469 224.410156 C 78.355469 222.429688 79.589844 219.84375 80.261719 218.410156 C 81.222656 216.359375 82.625 213.5625 82.613281 212.050781 L 82.636719 211.996094 C 83.210938 212.3125 83.699219 212.558594 84.25 212.820312 C 84.804688 213.078125 85.429688 213.324219 86.105469 213.621094 C 85.097656 215.074219 83.511719 218.515625 83.1875 219.203125 C 82.65625 220.347656 81.105469 223.605469 80.417969 225.964844 Z M 80.421875 225.964844 "/>
<path style=" stroke:none;fill-rule:nonzero;fill:rgb(71.372549%,14.509804%,21.568627%);fill-opacity:1;" d="M 91.613281 218.871094 L 91.53125 218.84375 C 90.445312 220.199219 89.542969 221.410156 88.605469 222.714844 C 89.089844 222.929688 89.457031 223.082031 89.914062 223.246094 C 90.566406 223.480469 90.851562 223.558594 91.339844 223.691406 C 91.476562 222.125 91.566406 220.433594 91.613281 218.871094 Z M 92.351562 230.484375 C 91.738281 230.261719 91.203125 230.074219 90.527344 229.894531 C 90.960938 228.496094 91.164062 226.183594 91.246094 225.085938 C 90.644531 224.828125 90.058594 224.59375 89.480469 224.390625 C 88.90625 224.183594 88.257812 223.996094 87.816406 223.859375 C 87.132812 224.765625 85.785156 226.792969 85.539062 228.109375 C 84.871094 227.847656 84.566406 227.695312 84.070312 227.519531 C 83.535156 227.328125 83.054688 227.175781 82.484375 227.019531 C 83.132812 226.460938 84.171875 225.363281 84.585938 224.894531 C 85.453125 223.90625 86.648438 222.503906 87.5625 221.382812 C 88.390625 220.378906 89.691406 218.742188 90.667969 217.449219 C 90.953125 217.085938 91.4375 216.488281 91.457031 215.988281 L 91.5 215.875 C 92.132812 216.101562 92.636719 216.261719 93.039062 216.382812 C 93.621094 216.570312 94.1875 216.730469 94.800781 216.886719 C 94.71875 217.304688 94.628906 218.121094 94.570312 218.84375 C 94.453125 220.296875 94.34375 222.105469 94.273438 223.484375 C 94.160156 225.808594 94.109375 227.128906 94.109375 228.320312 C 94.105469 228.832031 94.121094 230.09375 94.3125 231.25 C 93.496094 230.914062 92.925781 230.6875 92.351562 230.484375 Z M 92.351562 230.484375 "/>
<path style=" stroke:none;fill-rule:nonzero;fill:rgb(71.372549%,14.509804%,21.568627%);fill-opacity:1;" d="M 100.539062 225.957031 C 99.871094 229.050781 100.253906 231.367188 102.601562 231.871094 C 105.359375 232.464844 106.410156 229.863281 106.984375 227.199219 C 107.523438 224.691406 107.707031 221.65625 105.03125 221.082031 C 102.335938 220.5 101.164062 223.035156 100.539062 225.957031 Z M 110.121094 227.832031 C 109.464844 230.890625 107.804688 234.386719 102.316406 233.207031 C 98.980469 232.488281 96.207031 230.886719 97.414062 225.261719 C 98.117188 221.992188 99.761719 218.550781 105.234375 219.730469 C 109.925781 220.738281 111.050781 223.503906 110.121094 227.832031 Z M 110.121094 227.832031 "/>
<path style=" stroke:none;fill-rule:nonzero;fill:rgb(71.372549%,14.509804%,21.568627%);fill-opacity:1;" d="M 127.222656 223.960938 L 127.101562 223.957031 C 126.644531 223.71875 125.226562 223.386719 123.480469 223.324219 C 123.464844 223.746094 123.300781 226.464844 123.199219 229.351562 C 123.09375 232.195312 123.261719 235.105469 123.347656 235.574219 C 122.511719 235.5 122.277344 235.472656 121.542969 235.445312 C 120.910156 235.421875 120.449219 235.40625 119.667969 235.4375 C 120.027344 233.6875 120.203125 229.960938 120.257812 228.601562 C 120.308594 227.160156 120.359375 224.554688 120.390625 223.210938 C 118.914062 223.160156 117.019531 223.25 116.460938 223.570312 L 116.332031 223.566406 C 116.480469 222.988281 116.636719 222.171875 116.65625 221.652344 C 118.605469 221.84375 120.203125 221.921875 121.988281 221.984375 C 123.925781 222.054688 125.796875 222.125 127.714844 222.054688 C 127.507812 222.507812 127.355469 223.285156 127.222656 223.960938 Z M 127.222656 223.960938 "/>
<path style=" stroke:none;fill-rule:nonzero;fill:rgb(71.372549%,14.509804%,21.568627%);fill-opacity:1;" d="M 131.128906 228.871094 C 131.394531 232.027344 132.4375 234.132812 134.828125 233.929688 C 137.636719 233.695312 137.890625 230.898438 137.660156 228.183594 C 137.445312 225.625 136.734375 222.667969 134.007812 222.898438 C 131.257812 223.128906 130.878906 225.894531 131.128906 228.871094 Z M 140.84375 227.871094 C 141.105469 230.988281 140.542969 234.816406 134.945312 235.289062 C 131.546875 235.574219 128.421875 234.851562 127.941406 229.117188 C 127.660156 225.785156 128.230469 222.019531 133.808594 221.546875 C 138.589844 221.144531 140.472656 223.460938 140.84375 227.871094 Z M 140.84375 227.871094 "/>
<path style=" stroke:none;fill-rule:nonzero;fill:rgb(71.372549%,14.509804%,21.568627%);fill-opacity:1;" d="M 153.609375 225.457031 C 153.808594 226.359375 154.59375 230.082031 155.105469 231.695312 C 154.238281 231.867188 153.429688 232.109375 152.695312 232.398438 C 151.332031 231.015625 148.9375 228.410156 147.902344 227.242188 L 144.746094 223.71875 L 144.683594 223.730469 L 145.535156 227.546875 C 145.699219 228.269531 146.800781 232.148438 147.4375 233.464844 C 146.9375 233.539062 146.523438 233.609375 146.050781 233.714844 C 145.597656 233.8125 145.085938 233.949219 144.667969 234.085938 C 144.714844 232.082031 143.632812 226.941406 143.410156 225.945312 C 143.242188 225.183594 142.628906 222.054688 141.832031 220.898438 L 141.808594 220.800781 C 142.394531 220.710938 143.058594 220.585938 143.714844 220.4375 C 144.390625 220.285156 145.023438 220.125 145.546875 219.964844 C 146.167969 220.8125 147.671875 222.71875 148.546875 223.648438 C 150.273438 225.484375 151.308594 226.648438 152.269531 227.667969 L 152.328125 227.652344 L 151.761719 225.109375 C 151.433594 223.644531 150.371094 219.835938 149.78125 219.019531 C 150.160156 218.980469 150.757812 218.867188 151.210938 218.765625 C 151.828125 218.628906 151.890625 218.613281 152.53125 218.40625 C 152.5625 220.1875 153.378906 224.421875 153.609375 225.457031 Z M 153.609375 225.457031 "/>
<path style=" stroke:none;fill-rule:nonzero;fill:rgb(71.372549%,14.509804%,21.568627%);fill-opacity:1;" d="M 168.285156 223.910156 C 168.449219 224.425781 168.78125 225.453125 169.277344 226.488281 C 167.578125 227.496094 166.46875 228.007812 164.789062 228.625 C 160.71875 230.113281 158.007812 229.078125 156.273438 224.335938 C 155.203125 221.421875 155.03125 217.515625 160.601562 215.476562 C 162.125 214.917969 163.9375 214.359375 164.832031 214.117188 C 164.875 215.085938 165.003906 215.867188 165.210938 216.796875 L 165.070312 216.847656 C 164.058594 216.277344 162.53125 216.15625 160.871094 216.761719 C 158.285156 217.710938 158.128906 220.15625 159.25 223.222656 C 160.820312 227.515625 162.582031 227.914062 164.972656 227.039062 C 166.058594 226.644531 165.964844 226.015625 165.75 225.433594 L 165.253906 224.078125 C 165.027344 223.457031 164.75 222.703125 164.007812 222.082031 L 163.992188 221.980469 C 164.558594 221.816406 165.199219 221.601562 165.773438 221.390625 C 166.523438 221.117188 166.738281 221.039062 167.410156 220.730469 C 167.515625 221.4375 167.945312 222.921875 168.285156 223.910156 Z M 168.285156 223.910156 "/>
<path style=" stroke:none;fill-rule:nonzero;fill:rgb(71.372549%,14.509804%,21.568627%);fill-opacity:1;" d="M 182.726562 209.144531 C 183.46875 210.476562 184.347656 212.074219 185.140625 213.398438 C 186.433594 215.566406 186.480469 217.78125 182.863281 219.9375 C 179.070312 222.199219 177.351562 221.285156 175.914062 218.878906 C 175.546875 218.257812 174.597656 216.585938 173.929688 215.464844 C 173.457031 214.675781 171.882812 211.832031 170.824219 211.25 L 170.792969 211.199219 C 171.285156 210.953125 171.890625 210.613281 172.433594 210.289062 C 172.972656 209.964844 173.410156 209.707031 174.082031 209.238281 C 174.640625 210.910156 176.507812 213.996094 176.988281 214.808594 C 178.1875 216.820312 178.988281 218.117188 179.496094 218.5625 C 180.210938 219.183594 181.316406 219.273438 182.363281 218.644531 C 184.84375 217.171875 184.128906 215.609375 182.570312 212.996094 C 180.386719 209.328125 179.617188 207.917969 178.222656 206.769531 C 178.621094 206.578125 178.976562 206.386719 179.605469 206.011719 C 180.167969 205.675781 180.464844 205.476562 180.878906 205.183594 C 181.410156 206.898438 182.273438 208.34375 182.726562 209.144531 Z M 182.726562 209.144531 "/>
<path style=" stroke:none;fill-rule:nonzero;fill:rgb(71.372549%,14.509804%,21.568627%);fill-opacity:1;" d="M 194.847656 203.25 C 195.421875 203.972656 197.761719 206.972656 198.921875 208.203125 C 198.21875 208.738281 197.601562 209.304688 197.0625 209.886719 C 195.234375 209.242188 191.941406 207.945312 190.5 207.351562 L 186.117188 205.5625 L 186.070312 205.601562 L 188.503906 208.660156 C 188.964844 209.238281 191.65625 212.246094 192.804688 213.152344 C 192.382812 213.433594 192.042969 213.679688 191.660156 213.980469 C 191.300781 214.269531 190.902344 214.613281 190.582031 214.917969 C 189.75 213.097656 186.527344 208.949219 185.890625 208.148438 C 185.40625 207.539062 183.488281 204.992188 182.261719 204.300781 L 182.199219 204.222656 C 182.6875 203.886719 183.226562 203.480469 183.753906 203.0625 C 184.296875 202.632812 184.792969 202.210938 185.195312 201.835938 C 186.125 202.328125 188.308594 203.382812 189.503906 203.839844 C 191.859375 204.730469 193.300781 205.328125 194.609375 205.820312 L 194.65625 205.78125 L 193.035156 203.742188 C 192.097656 202.566406 189.476562 199.609375 188.589844 199.136719 C 188.90625 198.933594 189.398438 198.566406 189.761719 198.28125 C 190.253906 197.886719 190.304688 197.847656 190.792969 197.382812 C 191.601562 198.96875 194.1875 202.417969 194.84375 203.25 Z M 194.847656 203.25 "/>
<path style=" stroke:none;fill-rule:nonzero;fill:rgb(71.372549%,14.509804%,21.568627%);fill-opacity:1;" d="M 203.152344 204.164062 C 202.699219 204.601562 202.414062 204.910156 201.804688 205.554688 C 200.398438 203.679688 198.417969 201.609375 197.3125 200.476562 C 195.738281 198.847656 193.621094 196.546875 192.199219 196.027344 L 192.160156 195.980469 C 192.652344 195.554688 193.058594 195.1875 193.496094 194.765625 C 193.9375 194.339844 194.390625 193.84375 194.90625 193.3125 C 195.910156 194.769531 198.5625 197.472656 199.09375 198.019531 C 199.972656 198.925781 202.472656 201.527344 204.433594 203.003906 C 203.742188 203.621094 203.425781 203.898438 203.152344 204.164062 Z M 203.152344 204.164062 "/>
<path style=" stroke:none;fill-rule:nonzero;fill:rgb(71.372549%,14.509804%,21.568627%);fill-opacity:1;" d="M 204.734375 185.957031 C 205.386719 187.070312 206.417969 188.757812 207.308594 190.246094 C 208.203125 191.730469 209.96875 194.6875 210.761719 195.949219 C 210.253906 196.511719 209.765625 197.171875 209.351562 197.839844 C 207.191406 196.878906 204.992188 195.964844 202.722656 195.039062 C 200.953125 194.332031 199.277344 193.640625 198.089844 193.203125 C 197.367188 192.941406 196.359375 192.636719 195.871094 192.65625 L 195.808594 192.605469 C 196.25 192.179688 196.71875 191.664062 197.15625 191.125 C 197.621094 190.582031 198.058594 190.042969 198.4375 189.539062 C 198.863281 189.902344 199.628906 190.335938 200.167969 190.628906 C 201.050781 191.113281 202.625 191.796875 204.332031 192.515625 C 205.597656 193.042969 206.488281 193.449219 207.554688 193.835938 L 207.613281 193.773438 C 207.070312 192.835938 205.898438 191.03125 205.316406 190.167969 C 203.871094 188.070312 202.742188 186.519531 201.601562 185.847656 C 201.976562 185.472656 202.277344 185.152344 202.636719 184.738281 C 202.976562 184.339844 203.253906 184.019531 203.578125 183.546875 C 203.898438 184.433594 204.347656 185.292969 204.734375 185.957031 Z M 204.734375 185.957031 "/>
<path style=" stroke:none;fill-rule:nonzero;fill:rgb(71.372549%,14.509804%,21.568627%);fill-opacity:1;" d="M 220.238281 183.101562 C 219.035156 184.726562 218.34375 185.78125 217.585938 186.898438 C 216.785156 188.082031 216.546875 188.429688 215.308594 190.359375 C 213.730469 188.933594 212.117188 187.8125 209.949219 186.339844 C 207.707031 184.820312 204.964844 182.828125 204.011719 182.917969 L 203.960938 182.882812 C 204.824219 181.714844 205.910156 180.117188 206.527344 179.210938 C 207.023438 178.480469 207.871094 177.195312 208.960938 175.519531 C 209.21875 175.925781 209.910156 176.546875 210.324219 176.828125 L 210.277344 176.898438 C 209.386719 177.566406 208.265625 178.964844 207.09375 180.691406 C 208.089844 181.542969 209.9375 182.746094 210.816406 183.34375 C 211.5625 182.246094 212.136719 181.367188 212.710938 180.125 C 213.101562 180.519531 213.648438 180.992188 214.152344 181.359375 C 213.09375 182.269531 212.472656 183.222656 211.90625 184.058594 L 213.878906 185.398438 C 215.753906 186.671875 216.1875 186.636719 216.886719 185.605469 C 217.773438 184.300781 218.503906 182.867188 218.664062 181.703125 L 218.734375 181.597656 C 219.246094 182.273438 219.707031 182.664062 220.234375 183.101562 Z M 220.238281 183.101562 "/>
<path style=" stroke:none;fill-rule:nonzero;fill:rgb(71.372549%,14.509804%,21.568627%);fill-opacity:1;" d="M 213.226562 170.296875 C 212.933594 170.855469 212.75 171.257812 212.617188 171.640625 C 213.414062 172.148438 214.464844 172.695312 214.765625 172.851562 C 215.546875 173.261719 215.984375 173.507812 216.710938 173.890625 C 216.964844 173.449219 217.117188 173.199219 217.28125 172.878906 C 217.910156 171.667969 217.816406 170.546875 215.964844 169.585938 C 214.402344 168.773438 213.625 169.53125 213.226562 170.296875 Z M 226.105469 172.109375 C 225.816406 172.671875 225.617188 173.136719 225.277344 173.835938 C 224.230469 173.503906 223.089844 173.269531 221.800781 173.050781 C 220.515625 172.832031 219.558594 172.710938 219.054688 172.949219 C 218.546875 173.183594 218.285156 173.734375 217.902344 174.507812 C 218.898438 174.980469 222.226562 176.660156 223.617188 177.027344 C 223.308594 177.535156 222.992188 178.101562 222.695312 178.664062 C 222.40625 179.222656 222.152344 179.753906 221.929688 180.277344 C 220.335938 179.121094 217.019531 177.417969 215.972656 176.871094 C 214.175781 175.9375 210.917969 174.171875 209.847656 174.1875 L 209.792969 174.15625 C 210.316406 173.195312 210.703125 172.449219 211.199219 171.496094 C 211.773438 170.394531 212.183594 169.5625 212.796875 168.390625 C 214.054688 165.960938 215.679688 165.878906 217.15625 166.648438 C 218.683594 167.445312 219.542969 169.050781 218.820312 171.046875 L 218.855469 171.066406 C 219.40625 170.09375 220.15625 169.824219 221.058594 169.914062 C 221.683594 169.976562 221.871094 170.003906 222.972656 170.148438 C 224.386719 170.335938 226.105469 170.589844 226.957031 170.347656 L 227.0625 170.402344 C 226.628906 171.148438 226.339844 171.660156 226.105469 172.109375 Z M 226.105469 172.109375 "/>
<path style=" stroke:none;fill-rule:nonzero;fill:rgb(71.372549%,14.509804%,21.568627%);fill-opacity:1;" d="M 229.09375 165.355469 C 228.824219 166.066406 228.058594 167.664062 227.554688 168.757812 C 226.925781 168.378906 226.160156 167.972656 225.359375 167.597656 L 225.398438 167.5 C 226.488281 166.949219 227.464844 165.972656 227.964844 164.675781 C 228.402344 163.535156 228.125 162.574219 227.132812 162.191406 C 226.425781 161.921875 225.878906 162.050781 225.125 162.503906 C 224.007812 163.179688 223.09375 164.160156 221.816406 164.863281 C 220.378906 165.640625 219.34375 165.535156 218.203125 165.097656 C 217.082031 164.667969 215.152344 163.207031 216.765625 159.003906 C 217.070312 158.214844 217.582031 156.992188 218.09375 155.996094 C 218.613281 156.375 219.386719 156.875 220.121094 157.3125 L 220.082031 157.410156 C 219.242188 157.699219 218.496094 158.132812 217.929688 159.605469 C 217.394531 161 217.898438 161.984375 218.71875 162.300781 C 219.714844 162.679688 220.328125 162.757812 222.523438 160.894531 C 225.261719 158.566406 226.230469 158.847656 227.40625 159.300781 C 228.828125 159.847656 230.601562 161.429688 229.09375 165.355469 Z M 229.09375 165.355469 "/>
<path style=" stroke:none;fill-rule:nonzero;fill:rgb(71.372549%,14.509804%,21.568627%);fill-opacity:1;" d="M 232.140625 155.945312 C 231.964844 156.550781 231.867188 156.960938 231.660156 157.820312 C 229.507812 156.890625 226.761719 156.070312 225.242188 155.625 C 223.066406 154.992188 220.085938 154.039062 218.597656 154.285156 L 218.539062 154.269531 C 218.761719 153.652344 218.933594 153.132812 219.101562 152.550781 C 219.273438 151.960938 219.425781 151.304688 219.609375 150.589844 C 221.199219 151.363281 224.84375 152.398438 225.574219 152.613281 C 226.789062 152.964844 230.246094 153.992188 232.679688 154.304688 C 232.382812 155.183594 232.246094 155.582031 232.140625 155.945312 Z M 232.140625 155.945312 "/>
<path style=" stroke:none;fill-rule:nonzero;fill:rgb(71.372549%,14.509804%,21.568627%);fill-opacity:1;" d="M 223.871094 139.574219 L 223.84375 139.699219 C 223.539062 140.109375 222.980469 141.457031 222.640625 143.171875 C 223.054688 143.253906 225.714844 143.847656 228.546875 144.410156 C 231.335938 144.96875 234.238281 145.265625 234.710938 145.253906 C 234.507812 146.074219 234.445312 146.296875 234.296875 147.015625 C 234.175781 147.636719 234.085938 148.089844 233.992188 148.863281 C 232.320312 148.230469 228.671875 147.460938 227.335938 147.195312 C 225.921875 146.914062 223.359375 146.445312 222.039062 146.203125 C 221.75 147.648438 221.539062 149.535156 221.761719 150.140625 L 221.742188 150.265625 C 221.195312 150.027344 220.414062 149.742188 219.898438 149.640625 C 220.402344 147.746094 220.734375 146.179688 221.082031 144.425781 C 221.460938 142.527344 221.828125 140.691406 222.0625 138.785156 C 222.480469 139.0625 223.222656 139.335938 223.871094 139.574219 Z M 223.871094 139.574219 "/>
<path style=" stroke:none;fill-rule:nonzero;fill:rgb(71.372549%,14.509804%,21.568627%);fill-opacity:1;" d="M 224.597656 128.742188 C 225.636719 129.570312 226.714844 130.355469 230.550781 132.828125 C 231.871094 132.9375 232.589844 133 233.550781 133.015625 C 234.457031 133.027344 235.582031 133.039062 236.234375 132.921875 C 236.113281 133.675781 236.070312 134.175781 236.023438 134.742188 C 235.972656 135.332031 235.949219 135.644531 235.925781 136.613281 C 235.34375 136.394531 234.035156 136.160156 233.355469 136.101562 C 232.398438 136.023438 231.664062 135.898438 230.34375 135.789062 C 227.117188 137.101562 224.347656 138.476562 223.65625 138.820312 C 223.214844 139.035156 222.410156 139.539062 222.097656 139.875 L 222.019531 139.867188 C 222.121094 139.15625 222.199219 138.46875 222.257812 137.753906 C 222.316406 137.039062 222.359375 136.304688 222.386719 135.503906 C 222.886719 135.527344 223.398438 135.421875 223.832031 135.265625 C 224.910156 134.890625 226.394531 134.445312 228.753906 133.417969 L 228.757812 133.355469 C 227.496094 132.550781 225.648438 131.59375 224.5625 131.082031 C 224.042969 130.828125 223.296875 130.617188 222.792969 130.617188 C 222.875 130.097656 222.925781 129.742188 222.988281 129.007812 C 223.03125 128.464844 223.078125 127.941406 223.058594 127.453125 C 223.578125 127.984375 224.296875 128.527344 224.597656 128.742188 Z M 224.597656 128.742188 "/>
<path style=" stroke:none;fill-rule:evenodd;fill:rgb(71.372549%,14.509804%,21.568627%);fill-opacity:1;" d="M 223.707031 72.457031 C 223.59375 74.398438 221.542969 75.703125 219.925781 76.609375 C 218.339844 77.492188 216.234375 75.410156 215.878906 74.085938 C 215.707031 73.445312 215.535156 71.425781 216.109375 70.964844 C 216.769531 70.433594 217.722656 70.847656 218.390625 70.296875 C 218.453125 70.25 218.527344 69.953125 218.515625 69.871094 C 218.285156 67.960938 221.179688 69.164062 222.699219 70.359375 C 223.15625 70.722656 223.726562 72.109375 223.707031 72.457031 Z M 227.625 84.921875 C 227.5 84.371094 227.09375 82.90625 227.046875 81.945312 L 227.046875 81.949219 C 226.996094 79.433594 226.390625 77.246094 226.050781 74.761719 C 225.90625 73.683594 225.320312 69.675781 227.195312 69.707031 C 227.308594 69.707031 227.648438 69.292969 227.660156 69.164062 C 227.828125 67.191406 226.546875 66.414062 224.789062 67.128906 C 223.8125 67.527344 223.257812 67.660156 222.328125 67.050781 C 222.128906 66.921875 220.230469 65.839844 218.488281 64.683594 C 217.386719 63.953125 214.027344 61.390625 214.027344 61.390625 C 212.496094 60.476562 210.972656 58.15625 210.0625 60.808594 C 211.234375 63.164062 213.878906 64.003906 215.691406 65.648438 C 216.582031 66.429688 217.191406 68.136719 215.378906 67.53125 C 213.601562 66.898438 211.574219 64.707031 210.484375 64.085938 C 209.464844 63.492188 207.109375 63.261719 207.921875 65.136719 C 208.402344 66.238281 209.289062 67.214844 210.390625 67.726562 C 211 68.007812 213.140625 68.710938 213.265625 69.191406 C 213.597656 69.875 213.449219 71.582031 212.964844 72.183594 C 212.167969 73.160156 210.039062 71.601562 209.011719 70.796875 C 208.953125 70.75 208.511719 70.464844 207.902344 70.101562 C 207.230469 69.699219 205.757812 69.003906 204.773438 68.558594 C 204.265625 68.332031 203.222656 67.960938 202.917969 67.871094 C 201.835938 67.550781 198.410156 66.703125 199.085938 69.128906 C 199.097656 69.167969 199.183594 69.292969 199.300781 69.371094 C 199.648438 69.621094 200.476562 70.160156 201.414062 70.675781 C 202.316406 71.167969 206.433594 72.441406 207.941406 73.253906 C 209.363281 74.019531 211.003906 74.410156 212.214844 75.542969 C 212.726562 76.023438 212.910156 76.4375 213.015625 76.875 C 213.121094 77.316406 213.648438 79.964844 213.648438 80.910156 C 213.648438 83.3125 213.03125 86.152344 212.46875 87.96875 C 211.890625 89.851562 210.222656 92.953125 213.265625 93.066406 C 216.296875 93.179688 216.179688 83.214844 216.355469 81.023438 C 216.40625 80.355469 216.636719 77.355469 217.957031 78.457031 C 220.152344 80.296875 219.578125 83.285156 219.84375 85.738281 C 219.917969 86.441406 220.535156 86.632812 221.144531 86.816406 C 221.347656 86.878906 222.136719 86.84375 222.230469 86.699219 C 222.730469 85.898438 222.804688 84.882812 222.753906 83.960938 C 222.667969 82.359375 221.902344 80.128906 222.535156 78.53125 C 222.972656 77.617188 223.664062 77.304688 223.984375 78.425781 C 224 78.472656 224.011719 78.507812 224.027344 78.546875 C 224.121094 78.882812 224.261719 79.929688 224.253906 80.152344 C 224.214844 81.953125 224.898438 86.722656 224.992188 86.839844 C 225.699219 87.78125 227 88.292969 227.910156 87.050781 C 228.222656 86.675781 227.746094 85.472656 227.625 84.921875 Z M 227.625 84.921875 "/>
<path style=" stroke:none;fill-rule:evenodd;fill:rgb(71.372549%,14.509804%,21.568627%);fill-opacity:1;" d="M 136.9375 168.863281 C 136.9375 169.183594 136.652344 169.441406 136.300781 169.441406 L 130.085938 169.441406 C 129.730469 169.441406 129.441406 169.183594 129.441406 168.863281 L 129.441406 167.4375 C 129.441406 167.125 129.730469 166.863281 130.085938 166.863281 L 130.085938 166.871094 L 136.300781 166.871094 C 136.644531 166.871094 136.9375 167.132812 136.9375 167.445312 Z M 138.621094 165.105469 L 127.765625 165.105469 C 127.003906 165.105469 126.390625 165.773438 126.390625 166.597656 L 126.390625 169.769531 C 126.390625 170.589844 127.003906 171.257812 127.765625 171.257812 L 132.027344 171.257812 L 136.300781 171.261719 C 136.644531 171.261719 136.9375 171.527344 136.9375 171.839844 L 136.9375 172.832031 C 136.9375 173.148438 136.652344 173.40625 136.300781 173.40625 L 130.082031 173.40625 C 129.828125 173.40625 129.617188 173.273438 129.515625 173.085938 L 126.390625 173.085938 L 126.390625 173.679688 C 126.390625 174.5 127.003906 175.167969 127.765625 175.167969 L 138.621094 175.167969 C 139.378906 175.167969 139.996094 174.5 139.996094 173.675781 L 139.996094 166.597656 C 139.996094 165.773438 139.378906 165.105469 138.621094 165.105469 Z M 138.621094 165.105469 "/>
<path style=" stroke:none;fill-rule:evenodd;fill:rgb(71.372549%,14.509804%,21.568627%);fill-opacity:1;" d="M 146.894531 171.40625 C 146.894531 171.089844 147.175781 170.832031 147.527344 170.832031 L 153.742188 170.832031 C 154.097656 170.832031 154.386719 171.089844 154.386719 171.40625 L 154.386719 172.832031 C 154.386719 173.148438 154.097656 173.410156 153.742188 173.410156 L 153.742188 173.402344 L 147.527344 173.402344 C 147.183594 173.402344 146.894531 173.136719 146.894531 172.828125 Z M 145.203125 175.167969 L 156.066406 175.167969 C 156.820312 175.167969 157.441406 174.5 157.441406 173.675781 L 157.441406 170.503906 C 157.441406 169.683594 156.820312 169.015625 156.066406 169.015625 L 151.800781 169.011719 L 147.527344 169.011719 C 147.183594 169.011719 146.894531 168.746094 146.894531 168.433594 L 146.894531 167.441406 C 146.894531 167.125 147.175781 166.867188 147.527344 166.867188 L 153.75 166.867188 C 154 166.867188 154.210938 166.996094 154.316406 167.1875 L 157.441406 167.1875 L 157.441406 166.589844 C 157.441406 165.769531 156.820312 165.105469 156.066406 165.105469 L 145.203125 165.105469 C 144.449219 165.105469 143.835938 165.773438 143.835938 166.597656 L 143.835938 173.675781 C 143.835938 174.5 144.449219 175.167969 145.203125 175.167969 Z M 145.203125 175.167969 "/>
</g>
</svg>
