<?xml version="1.0" encoding="UTF-8" standalone="no"?>
<!-- Generator: Adobe Illustrator 24.0.1, SVG Export Plug-In . SVG Version: 6.00 Build 0)  -->

<svg
   version="1.1"
   id="图层_1"
   x="0px"
   y="0px"
   viewBox="0 0 127.56 127.56"
   xml:space="preserve"
   sodipodi:docname="未标题-1.svg"
   width="127.56"
   height="127.56"
   inkscape:version="1.2 (dc2aedaf03, 2022-05-15)"
   xmlns:inkscape="http://www.inkscape.org/namespaces/inkscape"
   xmlns:sodipodi="http://sodipodi.sourceforge.net/DTD/sodipodi-0.dtd"
   xmlns="http://www.w3.org/2000/svg"
   xmlns:svg="http://www.w3.org/2000/svg"><defs
   id="defs161" /><sodipodi:namedview
   id="namedview159"
   pagecolor="#ffffff"
   bordercolor="#000000"
   borderopacity="0.25"
   inkscape:showpageshadow="2"
   inkscape:pageopacity="0.0"
   inkscape:pagecheckerboard="0"
   inkscape:deskcolor="#d1d1d1"
   showgrid="false"
   inkscape:zoom="4.72"
   inkscape:cx="77.542373"
   inkscape:cy="66.313559"
   inkscape:window-width="1440"
   inkscape:window-height="829"
   inkscape:window-x="-8"
   inkscape:window-y="-8"
   inkscape:window-maximized="1"
   inkscape:current-layer="图层_1" />
<style
   type="text/css"
   id="style2">
	.st0{fill-rule:evenodd;clip-rule:evenodd;fill:#C6000B;}
	.st1{fill-rule:evenodd;clip-rule:evenodd;fill:#7C7B7C;}
	.st2{fill-rule:evenodd;clip-rule:evenodd;fill:#030000;}
</style>
<path
   class="st0"
   d="m 63.78,4.89 c 32.44,0 58.89,26.45 58.89,58.89 0,32.44 -26.45,58.89 -58.89,58.89 C 31.34,122.67 4.89,96.22 4.89,63.78 4.89,31.34 31.34,4.89 63.78,4.89 Z m 0,0.86 c -31.96,0 -58.03,26.07 -58.03,58.03 0,31.96 26.07,58.03 58.03,58.03 31.96,0 58.03,-26.07 58.03,-58.03 0,-31.96 -26.07,-58.03 -58.03,-58.03 z"
   id="path4" />
<path
   class="st1"
   d="m 68.35,30.84 v 20.67 c 0,0.95 0.27,1.26 1.22,1.28 0.95,0.01 1.27,-0.41 1.33,-1.33 V 39.92 l 2.71,-0.03 v 11.64 c 0,0.88 0.5,1.26 1.27,1.25 0.73,0.02 1.2,-0.48 1.19,-1.36 l 0.07,-18.78 c 0,-0.94 -0.42,-1.53 -1.27,-1.79 -0.31,-0.19 -1.26,-0.05 -1.26,1.54 l -0.01,5.29 -2.76,-0.01 0.01,-6.56 c 0.04,-1.06 -0.39,-1.63 -1.19,-1.77 -0.82,-0.13 -1.32,0.22 -1.31,1.5 z"
   id="path6" />
<path
   class="st1"
   d="m 32.44,52.78 6.22,-0.04 c 0.98,0.07 1.95,-0.53 1.85,-1.76 L 40.5,48.41 c 0.02,-0.96 -0.01,-1.53 -1.53,-1.92 h -2.92 c 0.71,-1.4 1.41,-2.08 2.6,-3.67 -0.23,2.76 2.17,2.25 2.11,0.8 L 40.74,39.1 c -0.01,-0.94 -0.31,-1.39 -1.31,-0.47 -2.29,2.12 -4.32,4.7 -5.91,7.53 -0.55,1 0.13,2.15 1.26,2.14 0.89,-0.01 1.78,-0.02 2.67,-0.03 1.37,-0.01 1.57,2.31 -0.03,2.36 l -3.49,0.02 c 1.07,-2.16 -1.39,-2.99 -2.37,-0.67 -0.64,1.54 -0.66,2.56 0.88,2.8 z"
   id="path8" />
<path
   class="st1"
   d="m 50.64,33.37 0.01,17.35 c 0.01,1.1 0.4,1.77 1.61,1.88 1.29,0.11 2.75,0.17 4.14,0.03 1.28,0.04 1.98,-0.44 2.04,-2.01 V 30.94 c 0,-1.07 -0.76,-1.54 -2.1,-1.27 -1.34,0.27 -3.51,0.84 -4.57,1.3 -1.07,0.45 -1.13,1.2 -1.13,2.4 z m 2.48,0.14 c 0,-1.16 2.76,-1.77 2.76,-0.53 v 16.45 c 0,1.64 -2.65,1.79 -2.75,0.04 z"
   id="path10" />
<path
   class="st1"
   d="m 59.5,50.63 c 0,2.74 7.72,2.73 7.72,-0.11 v -8.21 c 0,-1.69 -2.6,-1.79 -2.59,-0.06 l 0.03,7.36 C 64.67,51.12 61.99,50.89 62,49.46 L 62.01,31.9 c 0,-1.26 2.76,-1.01 2.77,0.04 l 0.01,3.74 c 0.04,1.26 2.53,1.24 2.54,-0.08 l -0.01,-3.82 c 0.05,-2.89 -0.98,-2.82 -3.81,-2.93 -2.83,-0.11 -4.05,0.3 -4.02,2.29 z"
   id="path12" />
<path
   class="st1"
   d="m 77.25,33.86 -0.01,16.8 c -0.09,1.07 0.58,1.85 1.72,1.99 1.14,0.13 2.33,0.19 3.67,0.03 1.34,-0.16 1.93,-0.94 1.89,-2.06 L 84.51,37.6 c 0,-2.24 -2.33,-3.48 -5.09,-4.92 -2.07,-1.08 -2.17,0.24 -2.17,1.18 z m 2.29,2.8 c 0.06,-1.43 2.61,-0.42 2.62,1.01 l 0.07,11.8 c -0.1,1.75 -2.86,1.35 -2.7,0.08 z"
   id="path14" />
<path
   class="st1"
   d="m 49.27,34.14 0.01,16.61 c 0.09,1.07 -0.64,1.73 -1.85,1.86 -1.2,0.13 -2.2,0.13 -3.54,-0.03 C 42.55,52.42 41.96,51.71 42,50.59 l 0.01,-12.72 c 0,-2.13 2.47,-3.41 5.09,-4.92 2,-1.16 2.17,0.25 2.17,1.19 z m -2.29,3.06 c -0.06,-1.51 -2.62,-0.5 -2.62,1.01 v 11.31 c 0.01,1.65 2.66,1.42 2.64,0 z"
   id="path16" />
<path
   class="st1"
   d="m 85.58,38.83 c -0.01,-0.88 0.85,-1.24 1.52,-0.77 0.67,0.47 0.94,1.42 0.96,2.05 v 9.62 c 0,1.09 1.54,1.35 1.54,-0.01 v -6.2 c 0,-1.92 1.25,-1.72 1.78,-0.75 0.53,0.98 0.48,1.56 0.47,2.54 v 4.45 c 0,0.88 1.4,1.04 1.42,0.03 l 0.01,-0.61 c 0.04,-1.9 1.73,-1.65 1.94,0.12 l 0.06,0.54 c 0.1,0.81 -0.08,1.71 -0.7,2.46 -0.88,0.68 -2.08,0.53 -2.91,0.02 -0.5,-0.21 -0.64,-0.49 -0.92,-0.51 -0.28,-0.03 -0.28,0.06 -0.91,0.43 -1.6,1.2 -4.19,0.33 -4.24,-1.96 -0.05,-2.28 0,-10.57 -0.02,-11.45 z"
   id="path18" />
<path
   class="st1"
   d="m 30.83,74.46 c -0.09,-1.63 1.34,-1.79 1.99,-0.23 0.96,3.03 1.89,4.66 3.15,6.56 1.17,1.77 1.97,1.81 1.97,-0.03 l -0.02,-6.39 c -0.01,-1.24 1.82,-1.6 2.01,0.08 v 10.49 c 0,0.95 -1.52,1.9 -2.8,0.77 -1.3,-1.12 -4.23,-5.85 -6.3,-11.25 z"
   id="path20" />
<path
   class="st1"
   d="m 48.14,74.18 c 0.06,-1.27 2.02,-1.34 2.09,-0.07 v 19.94 c -0.15,1.8 -2.09,1.3 -2.09,-0.63 z"
   id="path22" />
<path
   class="st1"
   d="m 50.86,74.51 c 0.18,-1.61 2.2,-1.56 2.32,0 l 1.5,15.12 2.41,-15.05 c 0.16,-1.72 2.24,-1.72 2.18,0 l -3.88,21.68 c -0.71,1.49 -1.85,0.72 -1.97,-0.66 z"
   id="path24" />
<path
   class="st1"
   d="m 64.46,73.26 c 1.07,0 1.08,2.09 0,2.09 h -2.62 v 7.12 h 1.83 c 1.13,0 1.13,2.13 -0.01,2.14 h -1.83 v 10.81 c 0.01,0.79 -0.07,0.98 0.85,0.93 l 1.46,0.08 c 1.38,0.08 1.33,1.87 -0.08,1.86 -1.47,-0.01 -2.52,-0.04 -3.46,-0.16 -0.88,-0.09 -1,-0.55 -1,-1.78 V 75.36 c -0.04,-1.09 0.37,-2.1 1.48,-2.09 h 3.38 z"
   id="path26" />
<path
   class="st1"
   d="m 65.76,74.27 c 0.04,-0.83 0.33,-0.97 1.32,-0.97 h 3.22 c 0.86,0 1.27,0.31 1.27,0.97 v 7.88 c 0,1.34 -1.18,1.47 -1.08,1.55 0.73,0.56 0.99,1.33 0.99,4.02 v 9 c -0.03,1.19 -2.08,1.43 -2.08,0.31 v -9.32 c 0.01,-1.55 -0.22,-3.31 -1.46,-3.44 v 12.97 c 0.01,1.05 -2.11,1.5 -2.19,0.17 V 74.27 Z m 3.69,1.85 c 0.08,-1.17 -1.69,-0.98 -1.5,-0.04 v 5.27 c 0,0.82 1.47,0.8 1.48,0.03 z"
   id="path28" />
<path
   class="st1"
   d="m 72.7,74.55 c -0.01,-0.74 0.57,-1.33 1.49,-1.29 h 2.98 c 0.79,0.08 1.29,0.49 1.34,1.29 l -0.02,4.8 c -0.01,1.29 -2.05,1.13 -2.04,-0.05 l 0.01,-3.07 c 0.01,-1.26 -1.72,-1.27 -1.72,-0.02 v 3.31 c 0.07,0.96 0.19,1.47 0.73,1.91 l 1.67,1.47 c 0.92,0.63 1.28,1.62 1.24,2.74 l -0.01,7.98 c -0.03,0.86 0.05,1.4 -0.95,1.85 -0.91,0.4 -2.21,0.88 -3.32,1.16 -1.1,0.28 -1.37,-0.25 -1.37,-1.18 l -0.01,-8.57 c -0.02,-1.39 1.97,-1.52 2.01,-0.33 l -0.01,7.08 c -0.02,0.95 1.65,0.9 1.65,-0.25 v -6.29 c 0.06,-1.35 -0.03,-1.99 -0.89,-2.73 l -1.69,-1.53 c -0.61,-0.45 -1.05,-1.43 -1.1,-2.31 z"
   id="path30" />
<path
   class="st1"
   d="m 79.75,74.28 c -0.01,-1.4 2.17,-1.38 2.17,0.01 l 0.03,17.94 c 0,1.58 -2.18,2.11 -2.18,0.78 z"
   id="path32" />
<path
   class="st1"
   d="m 83.93,75.37 -0.88,-0.01 c -1.13,-0.01 -1.16,-2.09 0,-2.09 h 3.89 c 1.24,0 1.17,2.1 0,2.1 h -0.95 l 0.03,13.64 c 0.08,1.83 -1.97,2.78 -2.09,1.26 z"
   id="path34" />
<path
   class="st1"
   d="m 88.24,74.89 c -0.68,-1.47 1.05,-2.3 1.87,-0.72 l 2.51,4.86 c 0.9,-1.65 1.58,-3.86 2.03,-4.94 0.45,-1.08 2.12,-1.35 1.76,0.6 -0.35,1.95 -3.21,8.39 -7.9,13.1 -1.41,1.08 -2.43,-0.49 -1.2,-1.68 1.12,-1.23 3.11,-3.45 3.97,-5.14 -1.27,-2.47 -2.36,-4.6 -3.04,-6.08 z"
   id="path36" />
<path
   class="st1"
   d="m 41.08,74.23 c 0.13,-1.36 1.87,-1.25 1.94,0.01 l 2.06,9.7 v -9.71 c -0.07,-1.09 1.79,-1.44 1.99,0.11 V 92.7 c -0.03,1.92 -1.51,1.01 -1.99,-1.12 L 43.1,82.74 v 7.27 c 0,1.34 -2,1.02 -2,-1.24 z"
   id="path38" />
<path
   class="st2"
   d="m 76.07,54.97 c -0.57,-0.69 -0.22,-1.05 0.8,-0.79 2.09,1.26 2.87,3.11 1.92,5.5 -0.17,0.44 -0.72,0.92 -0.58,0.95 2.21,0.49 2.75,3.47 1.11,5.69 -1.36,2.04 -1.17,3.67 0.61,5.07 0.35,0.72 -0.9,1.09 -1.67,0 -1.07,-1.43 -1.01,-3.09 -0.6,-4.2 0.18,-0.49 -0.09,-0.83 -0.71,-1.07 -1.72,-0.67 -1.65,-2.46 -1.39,-3.43 0.03,-0.39 0.49,-1.15 1.63,-2.51 1.64,-1.96 0.87,-3.87 -0.22,-4.57 -0.44,-0.36 -0.64,-0.36 -0.9,-0.64 z m 0.94,7.33 c -0.5,0.72 -0.44,1.22 -0.21,2.1 0.33,0.66 0.96,1.21 1.51,0.9 0.51,-0.24 1.16,-1.72 0.73,-2.81 -0.42,-0.68 -1.56,-1.09 -2.03,-0.19 z"
   id="path40" />
<g
   id="g50"
   transform="translate(-136.01,-136.1)">
	<path
   class="st2"
   d="m 168.29,200.61 c -0.64,2.07 -0.44,4.31 1.57,4.59 0.95,0.08 2.25,0.16 3.2,0.24 0.75,0.21 0.71,1.02 0.35,1.14 -0.5,0.24 -0.95,0.18 -1.51,0.14 l -1.95,0.06 c -1.17,0.17 -1.25,0.9 0.06,1.1 0.87,0 1.86,0 2.74,0 1.31,-0.09 1.97,-0.46 2.09,-1.36 0.07,-0.36 -0.1,-0.79 0.19,-0.86 0.77,-0.19 1.11,-0.1 1.91,-0.12 0.83,0.01 2.26,-0.48 2.59,-2.47 0.02,-0.5 0.12,-1.4 0.14,-1.91 -0.05,-0.74 -1.17,-0.55 -1.27,0.16 -0.02,0.57 -0.14,1.54 -0.16,2.12 -0.23,0.57 -0.67,0.87 -1.11,1.01 -0.58,0.14 -1.16,0.24 -1.74,0.12 -0.52,-0.05 -0.75,-0.68 -0.29,-1.06 1.16,-0.27 1.78,-0.8 1.78,-1.85 -0.05,-0.77 -0.31,-1.22 -1.45,-1.31 -0.83,-0.05 -1.65,-0.01 -2.48,0.12 -1.12,0.18 -1.99,0.49 -1.95,1.3 -0.05,0.74 0.4,1.31 1.39,1.51 0.8,0.18 1.22,0.32 1.21,0.62 -0.01,0.3 0.02,0.59 -0.59,0.62 l -2.47,-0.19 c -0.48,-0.09 -1.3,-0.41 -1.22,-1.3 l 0.23,-2.41 c -0.1,-0.71 -0.84,-0.68 -1.26,-0.01 z m 4.15,0.88 c 0.15,-0.12 0.22,-0.07 0.38,-0.11 0.66,-0.13 1.49,-0.16 2.17,-0.1 0.87,0.08 0.74,0.88 0.44,1.14 -0.26,0.23 -0.59,0.24 -0.92,0.24 -0.16,0 -0.33,0 -0.49,-0.03 -0.43,-0.09 -0.83,-0.19 -1.21,-0.39 -0.53,-0.21 -0.52,-0.63 -0.37,-0.75 z"
   id="path42" />
	<path
   class="st2"
   d="m 166.46,192.44 c -0.08,-0.56 -0.07,-1.02 0.1,-1.55 0.2,-0.49 0.67,-0.44 0.95,-0.15 0.15,0.26 0.32,0.45 0.48,0.65 0.61,0.07 1.2,0.06 1.81,0.05 0.43,0.02 0.5,0.87 0.04,0.84 l -1.3,0.13 c -0.88,0.09 -1.21,1.22 -0.81,1.2 0.62,0.09 1.57,0.18 2.19,0.27 0.73,0.13 0.52,0.49 -0.01,0.52 -0.6,0.04 -1.53,0.07 -2.13,0.1 -0.46,0.05 -0.49,0.67 -0.08,0.98 0.25,0.45 1.36,0.66 2.21,0.8 0.6,0.13 0.55,0.53 0.18,0.59 -0.85,-0.01 -1.97,-0.02 -2.82,-0.03 -0.56,-0.1 -0.9,-0.41 -1.02,-0.94 0,-0.33 -0.29,-0.59 -0.43,-0.75 -0.38,-0.33 -0.39,-0.71 -0.16,-1.11 0.32,-0.44 0.8,-1.17 0.8,-1.6 z"
   id="path44" />
	<path
   class="st2"
   d="m 179.25,192.04 c -0.53,-0.09 -0.63,-0.51 -0.03,-0.59 0.77,0.03 1.49,-0.3 1.8,-0.73 0.52,-0.54 0.84,-0.41 1.05,0.1 0.2,1.5 0.03,2.99 -0.38,4.47 -0.38,0.91 -0.92,1.55 -1.7,1.8 -0.42,0.1 -0.84,0.06 -1.26,-0.05 -0.7,-0.23 -0.77,-0.45 -0.22,-0.67 0.6,-0.03 1.13,-0.19 1.58,-0.5 0.48,-0.57 0.38,-1.01 -0.31,-1.32 -0.41,-0.12 -0.84,-0.15 -1.28,-0.15 -0.61,-0.04 -0.63,-0.58 -0.1,-0.7 0.66,-0.06 1.32,-0.12 1.99,-0.17 0.83,-0.15 0.9,-1.11 0.37,-1.38 -0.42,-0.19 -0.92,-0.17 -1.51,-0.11 z"
   id="path46" />
	<path
   class="st2"
   d="m 172.3,191.12 c -0.22,-0.4 0.1,-0.77 0.48,-0.64 0.37,0.26 0.76,0.47 1.17,0.65 l 1.25,-0.12 c 0.31,-0.03 0.48,-0.22 0.71,-0.4 0.37,-0.24 0.7,-0.06 0.44,0.35 -0.17,0.47 -0.38,0.66 -0.19,0.95 0.97,0.81 0.6,2.02 -0.02,2.83 -0.56,0.53 -0.67,0.98 -0.17,1.37 l 0.77,0.61 c 0.35,0.42 0.19,0.82 -0.41,0.61 -0.45,-0.12 -1.33,-0.9 -2.12,-0.66 -0.45,0.27 -1.04,0.96 0.52,0.93 1.56,-0.04 3.74,0.13 5.1,0.26 1.21,0.25 1.92,0.69 1.99,1.9 0.14,1.68 0.13,3.75 -0.07,5.38 0.09,0.74 -1.07,0.97 -0.99,0.09 l 0.16,-4.83 c -0.04,-0.7 -0.19,-1.22 -1.1,-1.5 -4.04,-0.46 -8.09,-0.37 -12.14,0.19 -0.61,0.22 -1.05,0.57 -1.08,1.35 l -0.09,4.1 c 0.09,1.32 -0.96,1.48 -1.01,0.65 0,-1.54 0,-3.08 -0.01,-4.62 -0.17,-1.21 0.54,-2.18 2.49,-2.67 l 2.04,-0.07 c 1.39,-0.03 2.62,-0.44 2.87,-1.58 0.07,-0.59 -0.08,-1.06 -0.68,-1.27 -0.86,-0.71 -0.9,-1.33 -0.03,-1.9 0.77,-0.7 0.99,-1.17 0.12,-1.96 z m 2.5,1.38 c -0.17,0 -0.36,0.01 -0.58,0.04 -0.85,0.2 -1.6,0.7 -1.56,1.34 0.19,0.56 0.57,0.81 1.02,0.95 0.25,0.05 0.48,0.08 0.69,0.08 0.83,0 1.36,-0.41 1.47,-1.41 0.05,-0.56 -0.13,-1 -1.04,-1 z"
   id="path48" />
</g>
<path
   class="st2"
   d="m 47.34,64.45 c 0.24,1.11 1.07,1.18 1.25,-0.03 0.03,-4.54 -0.05,-7.12 5.44,-6.97 0.6,-0.1 0.84,0.14 0.73,0.72 0.2,4.12 -0.77,5.39 -0.92,5.76 -0.88,2.19 -4.49,5.2 -6.02,5.91 -0.85,0.4 -0.37,1.42 0.49,1.09 2.59,-1.29 4.18,-2.87 5.62,-4.65 0.44,-0.55 0.68,-1.2 1,-1.83 0.27,-0.56 0.64,-0.53 0.96,-0.08 0.07,0.23 0.29,0.7 1.1,1.93 1.25,1.9 2.9,3.94 3.96,4.59 1.06,0.66 1.48,-0.26 0.71,-0.92 -1.65,-1.41 -4.49,-5.09 -5.12,-7.51 -0.37,-2.02 -0.42,-2.72 -0.28,-4.23 0.11,-0.76 0.34,-0.74 0.86,-0.79 4.29,-0.43 5.09,2.78 4.64,6.61 0.07,0.9 0.87,1.42 1.2,0.17 0.05,-1.36 0.02,-2.57 -0.21,-3.93 -0.4,-2.81 -1.74,-3.62 -4.42,-3.89 -2.19,-0.22 -1.94,-1.04 -2.05,-1.98 -0.09,-0.8 -1.15,-0.7 -1.31,-0.24 -0.2,1.09 -0.11,2.07 -1.3,2.19 -1.83,0.13 -4.3,0.29 -5.26,1.94 -1.18,2.4 -0.97,4.34 -1.07,6.14 z"
   id="path52" />
<path
   class="st2"
   d="m 64.6,54.99 c -0.73,-0.6 0.04,-1.22 1.12,-0.84 2.12,1.02 2.92,2.87 1.91,5.73 -0.12,0.21 -0.14,0.42 -0.05,0.62 2.05,1.49 1.39,3.02 -0.02,5.55 -1.21,2.17 0.57,4.46 1.74,5.06 0.35,0.72 0.05,1.01 -1.01,0.54 -1.26,-0.86 -2.77,-2.39 -2.41,-4.89 0.08,-0.53 0.34,-0.92 -0.21,-1.04 -1.67,-0.66 -1.85,-1.62 -1.61,-3.06 0.08,-0.49 0.59,-2.08 1.98,-2.59 1.15,-1.72 0.9,-3.58 0.01,-4.34 C 65.18,55 65.01,55.32 64.6,54.99 Z m 2.13,6.62 c -0.26,0.01 -0.78,0.11 -1.05,0.5 -0.5,0.72 -0.71,1.27 -0.43,2.13 0.14,0.43 0.65,0.61 1.03,0.61 1.43,-0.14 1.45,-1.28 1.25,-2.21 -0.13,-0.57 -0.42,-1.04 -0.8,-1.03 z"
   id="path54" />
<path
   class="st2"
   d="m 70.32,55.02 c -0.5,-0.97 0.18,-1.13 1.2,-0.87 2.09,1.02 2.81,2.87 1.91,5.73 -0.12,0.21 -0.14,0.42 -0.05,0.62 2.09,1.74 2,3.4 -0.35,6.25 -0.45,1.71 -0.05,2.54 1.58,4.39 0.35,0.72 -0.11,1.01 -1.17,0.54 -1.46,-1.36 -2.07,-3.23 -1.6,-4.79 0.21,-0.44 0.13,-0.83 -0.43,-1.03 -1.49,-0.78 -1.79,-1.8 -1.74,-2.9 0.04,-0.88 0.81,-2 1.84,-2.61 1.57,-1.43 1.18,-4.26 0.01,-4.69 -0.48,-0.3 -0.99,-0.3 -1.2,-0.64 z m 0.89,7.5 c -0.28,0.77 -0.27,0.8 -0.17,1.67 0.26,0.94 1.23,1.1 2.03,0.5 0.39,-0.29 0.66,-0.55 0.58,-1.61 -0.12,-1.75 -1.77,-1.91 -2.44,-0.56 z"
   id="path56" />
<path
   class="st2"
   d="m 90.27,69.87 0.05,-0.51 c -0.56,-0.49 -1.3,-0.81 -2.1,-0.98 -0.58,-0.13 -1.05,0.39 -0.63,0.77 0.51,0.26 2.58,0.97 2.68,0.72 z M 86.7,68.91 c 0.43,0.69 1.12,1.57 2.51,1.88 0.38,0.09 0.87,0.2 0.63,0.61 -0.6,1.03 -3.22,-0.83 -3.41,-1.35 -0.26,-0.25 -0.45,-0.25 -0.58,0.03 -0.91,0.87 -1.91,1.41 -2.9,1.44 -0.66,-0.02 -0.87,-0.55 -0.3,-0.78 0.79,-0.21 1.59,-0.48 1.72,-0.95 0.12,-0.44 -0.63,-0.3 -1.77,0.1 -0.64,-0.01 -0.99,-0.45 -0.32,-0.75 0.53,-0.29 1.05,-0.6 1.83,-0.73 0.35,-0.12 0.7,-0.18 0.94,0.12 0.33,0.43 0.54,0.32 0.62,-0.07 0.03,-0.47 -0.27,-0.36 -0.68,-0.44 -1.01,-0.09 -1.67,-0.5 -1.88,-1.63 -0.02,-0.95 0,-1.77 0.05,-2.72 0.22,-0.7 0.63,-1.06 1.09,-1.18 0.41,-0.01 0.93,-0.05 1.34,-0.06 0.12,-0.97 0.42,-1.22 1.73,-1.39 0.87,-0.15 1.02,-1.32 0.1,-0.94 -0.92,0.38 -2.77,0.04 -2.69,1.02 -0.6,1.25 -1.46,1.36 -2.77,1.41 -0.71,-0.07 -0.84,-0.72 -0.37,-0.92 0.46,-0.21 1.14,0.05 1.66,-0.3 0.52,-0.35 0.65,-0.64 0.06,-0.99 -0.35,-0.3 -0.52,-0.32 -0.81,-0.68 -0.61,-0.73 -0.01,-1.24 0.73,-0.85 0.43,0.57 1.14,0.88 1.85,0.83 0.93,-0.07 0.87,-0.36 0.64,-0.62 -0.23,-0.26 0.08,-0.8 -0.41,-0.91 -0.39,-0.09 -1.27,-0.18 -1.57,-0.23 -0.97,-0.17 -1.09,-1.15 -0.88,-2.5 0.19,-0.65 0.79,-0.66 0.9,-0.11 0.01,0.49 0.05,0.96 0.18,1.42 0.28,0.44 1.4,0.35 1.48,-0.17 l 0.08,-1.91 c 0.05,-1.01 1.04,-1.09 1.09,-0.31 l 0.25,2.17 c -0.02,0.51 1.19,0.44 1.27,-0.19 l 0.11,-0.88 c -0.11,-0.78 0.79,-0.76 0.8,-0.21 l 0.02,1.11 c 0.01,0.77 -0.72,1.35 -1.38,1.37 -0.62,0.02 -0.91,0.24 -0.88,0.9 -0.04,0.53 0.19,0.77 0.52,0.74 0.47,-0.05 0.47,-0.02 0.94,0.05 1.2,0.17 0.82,1.9 0.05,2.23 -0.84,0.35 -1.4,0.3 -1.19,0.59 0.21,0.3 0.73,0.28 1.39,0.36 0.7,0.08 0.93,0.55 0.99,1.01 l -0.16,2.91 c -0.02,0.59 -0.49,1.4 -1.36,1.6 -0.95,0.13 -1.69,0.17 -1.26,0.87 z m -0.64,-1.49 c 0.27,0 1.57,-0.16 1.35,-0.43 -0.1,-0.12 -0.87,-0.43 -1.07,-0.58 -0.03,0 -0.06,0 -0.09,0.01 -0.14,0.14 -0.85,0.34 -1.02,0.6 -0.03,0.47 0.55,0.4 0.83,0.4 z m -0.57,-3.68 c 0.05,-0.24 -0.46,-0.33 -0.72,-0.33 -0.03,0 -0.07,0 -0.1,0.01 -0.27,0.05 -0.68,0.44 -0.72,0.65 0.01,0.33 0.09,0.61 0.33,0.59 0.48,-0.03 1.34,-0.33 1.21,-0.92 z m 2.6,0.81 c 0.36,0.03 0.35,-0.4 0.24,-0.85 -0.01,-0.25 -0.54,-0.48 -0.88,-0.48 -0.05,0 -0.09,0 -0.13,0.01 -0.4,0.01 -0.61,0.27 -0.49,0.52 0.08,0.24 0.19,0.43 0.63,0.56 0.01,0 0.62,0.24 0.63,0.24 z m 0.13,1.81 c 0.26,0 0.53,-0.49 0.3,-0.66 -0.07,-0.05 -1.14,-0.72 -1.31,-0.86 -0.31,-0.24 -0.57,0.34 -0.39,0.64 0.14,0.23 0.84,0.67 1.06,0.75 0.09,0.01 0.27,0.13 0.34,0.13 z m -3.83,0.07 c 0.12,0 0.09,-0.01 0.1,-0.01 0.35,0 1.22,-0.6 1.25,-0.96 0.05,-0.27 -0.1,-0.4 -0.48,-0.4 -0.08,0 -0.21,0.1 -0.28,0.13 -0.26,0.21 -1.07,0.4 -1.07,0.69 -0.02,0.37 0.24,0.55 0.48,0.55 z"
   id="path58" />
<path
   class="st2"
   d="m 90.47,55.96 c -0.18,-0.69 0.22,-0.94 0.62,-0.46 0.32,0.26 0.13,0.81 0.5,0.97 0.53,0.22 1.18,-0.17 1.08,-0.72 0.01,-0.57 0.1,-1.01 0.11,-1.58 -0.03,-0.73 1.16,-0.83 1.12,0 0.01,0.49 0.07,0.98 0.08,1.47 0.13,0.38 0.27,0.61 0.67,0.6 0.61,0.12 1.05,-0.17 1.04,-0.6 L 95.58,55 c 0.13,-0.8 0.65,-0.55 0.8,0.01 0.18,0.41 0.23,0.82 0.12,1.27 -0.12,0.5 -0.54,0.91 -1.39,0.93 -0.7,0 -1.13,0.11 -1.12,0.68 l -0.13,0.93 c -0.08,0.6 -0.88,0.52 -1.04,0.07 0.1,-0.89 -0.07,-1.66 -1.07,-1.39 -1.46,0.09 -1.25,-1.21 -1.28,-1.54 z"
   id="path60" />
<path
   class="st2"
   d="m 90.89,60.54 c -0.61,-0.2 -0.63,-0.59 -0.08,-0.96 0.58,-0.28 1.62,-0.1 2.52,0.16 0.99,0.28 1.27,0.69 1.25,1.65 -0.01,0.53 0.05,1 -0.05,1.54 -0.15,0.82 1.52,0.73 1.8,0.09 0.2,-0.46 0.32,-0.96 0.21,-1.88 0.16,-0.93 0.42,-0.91 0.79,-0.25 0.17,0.73 0.23,1.27 0.1,2.03 -0.14,0.99 -1.05,1.6 -2.17,1.65 -0.77,0.03 -0.98,0.8 -0.38,1.15 1.7,0.61 2.24,1.8 2.47,3.67 0.1,1.26 0.05,1.93 -0.1,2.13 -0.29,0.38 -0.72,0.13 -0.79,-0.47 0.08,-0.43 0,-4.51 -2.07,-4.13 l 0.01,4.55 c -0.02,0.87 -1.09,0.75 -1.04,-0.13 -0.07,-1.38 0.02,-2.47 -0.04,-3.85 -0.01,-0.37 -0.43,-0.57 -0.79,-0.42 -1.11,0.28 -1.64,2.07 -1.68,4.14 -0.09,0.59 -0.68,0.6 -0.77,0 -0.14,-1.69 0.24,-3.43 1.44,-4.72 0.32,-0.34 0.86,-0.5 1.57,-0.82 0.44,-0.52 0.28,-1.05 -0.54,-1.13 -1.18,0.09 -2.21,-0.17 -2.22,-1.69 -0.05,-0.35 0.29,-1.68 0.87,-0.88 l 0.28,1.17 c 0.07,0.6 1.65,0.53 1.79,0.14 0.13,-0.39 0.09,-0.97 0.07,-1.51 0.03,-0.39 0.04,-0.78 -0.71,-0.98 -1.46,-0.41 -1.45,-0.28 -1.74,-0.25 z"
   id="path62" />
<path
   class="st2"
   d="m 75.43,109.06 2.92,-1.1 c 0.95,-0.36 1.79,-0.52 2.37,-0.41 0.58,0.1 0.95,0.46 1.25,1 0.45,0.81 0.46,1.61 -0.35,2.11 0.49,-0.08 0.85,0.03 1.26,0.6 l 1.23,2.37 -1.73,0.74 -0.91,-1.82 c -0.42,-0.85 -1.62,-0.34 -2.79,0.08 l 1.1,2.59 -1.66,0.65 z m 2.06,0.57 0.68,1.68 c 0.95,-0.3 3.11,-0.85 2.36,-1.96 -0.58,-0.86 -2.33,0.01 -3.04,0.28 z"
   id="path64" />
<path
   class="st2"
   d="m 11.35,75.19 c 0.29,1.22 0.7,2.04 1.28,2.44 0.56,0.4 1.24,0.35 2.14,0.12 l 4.38,-1.14 -0.45,-2.03 -4.38,1.09 c -0.59,0.15 -1.02,0.15 -1.29,0.01 -0.24,-0.13 -0.4,-0.39 -0.5,-0.79 -0.09,-0.4 -0.05,-0.72 0.12,-0.94 0.19,-0.22 0.57,-0.4 1.14,-0.54 l 4.38,-1.09 -0.45,-2.03 -4.38,1.09 c -0.92,0.23 -1.62,0.48 -1.95,1.15 -0.31,0.59 -0.31,1.48 -0.04,2.66 z"
   id="path66" />
<polygon
   class="st2"
   points="157,217.88 152.64,219.47 156.16,215.6 155.45,213.62 148.72,216.02 149.35,217.86 153.49,216.34 150.15,220.04 150.9,222.18 157.63,219.71 "
   id="polygon68"
   transform="translate(-136.01,-136.1)" />
<polygon
   class="st2"
   points="244.91,208.19 249.48,208.98 244.49,210.58 244.12,212.65 251.15,213.94 251.52,212.03 247.18,211.27 251.92,209.74 252.34,207.51 245.27,206.28 "
   id="polygon70"
   transform="translate(-136.01,-136.1)" />
<polygon
   class="st2"
   points="235.75,229.09 234.51,230.51 238.05,233.5 232.95,232.36 231.56,233.96 237.04,238.58 238.28,237.16 234.91,234.32 239.78,235.38 240.85,234.11 241.24,233.72 "
   id="polygon72"
   transform="translate(-136.01,-136.1)" />
<polygon
   class="st2"
   points="161.18,226.47 157.67,220.19 156.52,220.87 157.81,223.05 152.79,225.78 153.74,227.73 156.7,226.08 158.83,224.92 160.03,227.15 "
   id="polygon74"
   transform="translate(-136.01,-136.1)" />
<path
   class="st2"
   d="m 27.81,93.05 c -0.82,-1.18 -1.54,-1.69 -2.27,-1.86 -0.67,-0.15 -1.58,0.18 -2.69,0.95 -1.08,0.75 -1.73,1.55 -1.99,2.38 -0.22,0.7 0.03,1.48 0.91,2.75 0.87,1.26 1.45,1.63 2.11,1.64 0.81,0.02 1.79,-0.35 2.94,-1.16 1.09,-0.76 1.71,-1.51 1.83,-2.25 0.1,-0.67 -0.07,-1.32 -0.84,-2.45 z m -5.41,2.21 c 0.21,-0.36 0.76,-0.85 1.65,-1.49 0.83,-0.58 1.43,-0.83 1.82,-0.73 0.36,0.07 0.67,0.3 0.95,0.7 0.29,0.41 0.39,0.78 0.31,1.12 -0.1,0.32 -0.56,0.76 -1.39,1.33 -0.92,0.66 -1.6,1 -2.05,1.03 -0.33,0 -0.65,-0.22 -0.94,-0.63 -0.38,-0.55 -0.49,-0.99 -0.35,-1.33 z"
   id="path76" />
<path
   class="st2"
   d="m 31.9,104.61 -0.6,1.76 1.55,1.46 2.56,-7.31 -1.45,-1.36 -6.93,3.45 1.56,1.36 1.65,-0.83 z m 0.97,-2.78 -0.55,1.55 -0.93,-0.82 z"
   id="path78" />
<path
   class="st2"
   d="m 112.43,80.46 1.85,-0.19 0.64,-2 -7.71,0.71 -0.65,1.81 6.03,4.86 0.65,-1.93 -1.44,-1.15 z m -2.93,0.26 1.64,-0.15 -0.36,1.18 z"
   id="path80" />
<polygon
   class="st2"
   points="181.37,244.01 181.91,242.94 176.17,240 172.9,246.39 174.87,247.4 176.19,244.81 178.84,246.16 179.39,245.09 176.74,243.74 177.59,242.08 "
   id="polygon82"
   transform="translate(-136.01,-136.1)" />
<path
   class="st2"
   d="m 47.15,114.92 c 1.15,0.41 2.04,0.49 2.68,0.23 0.62,-0.27 1.1,-0.84 1.42,-1.71 l 1.51,-4.24 -2.08,-0.74 -1.51,4.24 c -0.2,0.57 -0.44,0.93 -0.7,1.08 -0.23,0.13 -0.54,0.13 -0.92,0 -0.38,-0.13 -0.61,-0.34 -0.7,-0.6 -0.07,-0.28 -0.01,-0.69 0.18,-1.24 l 1.51,-4.24 -2.08,-0.74 -1.51,4.24 c -0.32,0.89 -0.3,1.65 0.05,2.29 0.33,0.55 1.05,1.03 2.15,1.43 z"
   id="path84" />
<polygon
   class="st2"
   points="193.17,253.49 193.44,252.32 190.52,251.64 191.88,245.83 189.83,245.33 188.2,252.32 "
   id="polygon86"
   transform="translate(-136.01,-136.1)" />
<polygon
   class="st2"
   points="199.15,253.95 199.28,252.75 196.2,252.41 196.85,246.48 194.86,246.25 194.08,253.38 "
   id="polygon88"
   transform="translate(-136.01,-136.1)" />
<path
   class="st2"
   d="m 84.86,105.17 c -1.24,0.74 -1.85,1.36 -2.06,2.07 -0.2,0.66 0.07,1.58 0.76,2.75 0.67,1.13 1.43,1.83 2.24,2.15 0.68,0.27 1.54,0.14 2.86,-0.66 1.31,-0.79 1.85,-1.45 1.91,-2.11 0.07,-0.8 -0.23,-1.81 -0.96,-3.01 -0.69,-1.14 -1.39,-1.81 -2.12,-1.97 -0.66,-0.16 -1.46,0.08 -2.63,0.78 z m 1.84,5.54 c -0.34,-0.23 -0.8,-0.81 -1.37,-1.74 -0.52,-0.87 -0.73,-1.49 -0.61,-1.86 0.09,-0.35 0.35,-0.65 0.76,-0.9 0.43,-0.26 0.81,-0.33 1.13,-0.23 0.31,0.12 0.72,0.61 1.23,1.48 0.59,0.96 0.89,1.67 0.89,2.11 -0.03,0.33 -0.26,0.63 -0.7,0.89 -0.55,0.33 -1,0.42 -1.33,0.25 z"
   id="path90" />
<path
   class="st2"
   d="m 73.79,114.49 c -0.01,0.01 -0.01,0.02 0.01,0.04 0.01,0.04 0.02,0.09 0.02,0.14 -0.01,0.12 -0.1,0.27 -0.26,0.47 -0.29,0.3 -0.67,0.51 -1.14,0.62 -0.44,0.1 -0.81,0.02 -1.13,-0.25 -0.3,-0.29 -0.55,-0.83 -0.75,-1.61 -0.26,-1.08 -0.31,-1.83 -0.14,-2.25 0.18,-0.37 0.48,-0.61 0.89,-0.72 0.4,-0.09 0.73,-0.08 0.97,0.05 0.23,0.13 0.39,0.34 0.47,0.65 l 2.08,-0.49 c -0.16,-0.67 -0.59,-1.14 -1.3,-1.4 -0.62,-0.24 -1.45,-0.23 -2.5,0.01 -0.98,0.23 -1.76,0.68 -2.33,1.36 -0.51,0.63 -0.58,1.71 -0.22,3.26 0.27,1.17 0.78,1.97 1.52,2.39 0.66,0.37 1.54,0.33 2.7,0.16 0.58,-0.08 1.11,-0.56 1.51,-0.93 l 0.14,0.58 1.77,-0.45 -0.84,-3.6 -3.62,0.84 0.27,1.17 1.78,-0.42 z"
   id="path92" />
<polygon
   class="st2"
   points="228.95,241.53 226.88,237.7 228.2,236.61 231.81,239.37 229.92,235.28 231.34,234.08 234.53,241.33 233.34,242.4 228.96,238.78 231.39,243.83 230.31,244.7 223.87,240.05 225.39,238.83 "
   id="polygon94"
   transform="translate(-136.01,-136.1)" />
<polygon
   class="st2"
   points="244.71,224.69 240.73,221.17 241.85,219.16 248.22,222.21 247.57,223.52 243.63,221.99 246.96,224.81 246,226.24 241.59,225.44 245.47,227.81 244.74,229.3 238.4,225.53 239.6,223.52 "
   id="polygon96"
   transform="translate(-136.01,-136.1)" />
<g
   id="g100"
   transform="translate(-136.01,-136.1)">
	<path
   class="st2"
   d="m 209.54,146.1 c -0.67,-0.05 -0.62,-0.53 -0.08,-0.46 0.15,0.05 0.46,-0.11 0.5,-0.2 0.61,0.03 1.3,-0.16 1.38,-0.52 0.16,-0.17 0.52,-0.15 0.53,0 -0.21,1.48 1.78,1.69 2.92,0.84 0.38,-0.21 0.7,-0.16 0.71,0.18 -0.02,0.43 0.21,0.61 0.54,0.71 0.41,0.46 0.29,0.71 -0.14,0.86 -0.48,0.11 -1.02,0.14 -1.57,0.04 -0.63,-0.16 -0.94,0.21 -0.32,0.51 0.41,0.13 0.78,0.32 1.11,0.55 0.32,0.31 0.28,0.5 -0.08,0.53 -0.5,0.02 -1.11,-0.04 -1.67,-0.16 -0.29,0 -0.36,0.21 -0.3,0.43 0.02,0.27 0.61,0.41 1.2,0.55 0.69,0.2 0.74,0.47 0.34,0.8 -0.54,0.54 -0.67,0.92 -0.19,1.21 0.35,0.19 0.59,0.39 0.68,0.69 0.09,0.77 0.63,1.49 1.68,1.69 1.37,0.65 0.63,2.25 -0.64,2.08 -0.53,-0.12 -1.04,-0.69 -1.54,-1.79 -0.18,-0.31 -0.32,-0.63 -0.45,-0.96 -0.24,-0.7 -1.41,-0.67 -1.72,-0.24 -0.37,0.42 -0.64,0.95 -0.88,1.52 -0.09,0.39 -0.12,0.69 0.01,0.93 0.35,0.12 0.92,0.43 1.22,0.66 0.52,0.49 -0.47,1.05 -0.89,0.83 -0.29,-0.2 -0.56,-0.64 -0.76,-0.74 -0.76,-0.21 -1.63,-0.4 -2.57,-0.32 -0.22,0.03 -0.82,-0.06 -1.25,-0.23 -0.32,-0.19 -0.48,-0.45 -0.2,-0.86 0.23,-0.44 0.81,-0.34 1.15,-0.79 0.3,-0.51 0.44,-0.62 0.61,-1.05 0.13,-0.22 0.24,-0.71 0.3,-0.91 0.03,-0.74 -0.16,-0.87 -1.24,-0.64 -0.57,0.23 -1.16,0.42 -1.77,0.55 -0.47,0.09 -0.96,0.18 -1.39,0.09 -1.12,-0.26 -1.03,-0.82 0.03,-1.51 0.25,0.01 1.47,0.04 2.29,-0.06 0.59,-0.18 1.43,-0.34 1.79,-0.85 0.02,-0.28 -0.37,-0.59 -0.36,-0.86 -0.06,-0.57 0.15,-0.62 0.97,-0.46 l 1.19,0.06 c 0.95,0.04 0.92,-0.74 0.26,-0.8 h -0.57 c -0.8,0.06 -1,-0.6 -0.23,-0.6 l 0.88,-0.05 c 0.54,-0.08 0.54,-1.15 -0.34,-1.23 -0.37,-0.01 -0.76,-0.02 -1.14,-0.02 z m -0.44,8.89 c 0,0 0,0 0,0 z m 0.71,0.17 c 0.25,-0.01 0.55,-0.05 0.62,-0.09 0.28,-0.38 0.18,-0.63 -0.13,-0.79 -0.19,-0.09 -0.5,-0.14 -0.78,-0.13 -0.1,0 -0.21,0.01 -0.32,0.03 -0.17,0.19 -0.29,0.57 -0.09,0.81 z m 1.06,-1.72 c 0.04,0 0.08,0 0.11,-0.01 0.01,0 0.06,0.07 0.07,0.07 0.56,0.15 1.03,-0.67 0.11,-0.82 -0.01,-0.01 -0.01,-0.03 -0.02,-0.03 -0.12,-0.05 -0.59,-0.18 -0.69,-0.18 -0.26,0.01 -0.47,0.15 -0.55,0.29 0.02,0.3 0.63,0.69 0.97,0.68 z m 0.48,-1.3 c 0.01,0 0.01,0 0.02,0 0.58,0.13 0.67,-0.23 0.68,-0.57 -0.11,-0.21 -0.47,-0.26 -0.74,-0.32 -0.23,-0.02 -0.76,0.07 -0.86,0.19 -0.03,0.03 -0.05,0.07 -0.06,0.1 0.05,0.43 0.72,0.55 0.96,0.6 0,0 0,0 0,0 z m 0.19,-1.35 v 0 c 0.81,-0.06 1.17,-0.21 0.93,-0.52 -0.15,-0.18 -0.3,-0.31 -0.55,-0.35 -0.49,-0.3 -1.37,-0.09 -1.31,0.51 l 0.21,0.15 c -0.06,0.11 0.38,0.22 0.72,0.21 z m -1.73,4.37 -0.71,-0.17 c 0.13,0.14 0.43,0.17 0.71,0.17 z"
   id="path98" />
</g>
<path
   class="st2"
   d="m 89.16,16.95 c -0.44,-0.6 0.08,-1.28 0.77,-0.88 0.59,0.6 1.17,0.92 1.63,1.13 1,0.3 1.75,0.78 2.53,1.29 0.45,0.41 0.08,1.56 -0.54,0.92 -0.39,-0.32 -0.76,-0.51 -1.26,-0.46 -0.88,0.05 -1.3,0.53 -1.07,1.36 0.22,0.39 0.62,0.78 1.16,1.19 0.46,0.37 0.16,0.83 -0.28,0.64 -0.72,-0.46 -1.3,-0.45 -1.8,-0.11 -0.3,0.24 -0.2,0.73 0.26,1.46 0.43,0.62 0.74,1.26 0.98,1.91 0.29,0.84 0.71,1.68 1.47,2.52 0.72,0.59 0.48,0.93 -0.54,0.99 -0.6,0.04 -1.12,-0.02 -1.43,-0.37 -0.48,-0.58 -0.83,-1.27 -0.98,-2.15 l -0.3,-2.63 -0.15,-1.23 c -0.1,-0.59 -0.41,-0.77 -0.91,-0.6 -0.98,0.55 -2,0.85 -3.06,0.85 -0.94,0.03 -1.58,-0.27 -1.91,-1.04 -0.09,-0.6 -0.07,-1.03 0.3,-1.09 0.44,-0.11 1.56,0.06 2.96,0.29 1.07,0.03 1.69,-0.08 1.25,-0.76 -0.4,-0.34 -0.78,-0.75 -1.11,-1.25 -0.47,-0.81 0.1,-1.3 0.66,-1.07 0.28,0.13 0.83,0.65 1.39,1.21 0.66,0.48 1.59,-0.26 1.3,-0.86 C 90,17.89 89.52,17.43 89.16,16.95 Z"
   id="path102" />
<path
   class="st2"
   d="m 96.53,29.5 c 0.12,0.53 0.81,1.17 1.83,1.88 0.72,0.3 1.12,0.02 1.23,-0.57 -0.09,-0.91 0.08,-1.31 0.54,-1.31 0.67,-0.01 0.94,-0.15 0.79,-0.78 0.01,-0.44 0.16,-0.82 0.42,-1.13 0.46,-0.46 0.49,-0.83 -0.28,-0.91 -0.6,-0.01 -1.24,-0.05 -1.91,0.02 -0.39,0.02 -0.55,0.27 -0.41,0.79 0.22,0.8 -0.01,1.29 -0.53,1.25 -0.8,-0.04 -1.73,0.04 -1.68,0.76 z"
   id="path104" />
<path
   class="st2"
   d="m 99.74,32.41 c -0.37,0.32 -0.37,0.8 -0.08,1.26 0.68,1.64 1.42,3.24 2.17,4.85 0.14,0.39 0.48,0.65 1.31,0.53 l 1.25,-0.27 c 0.66,-0.34 0.43,-0.59 -0.13,-0.72 -0.32,-0.13 -0.83,-0.61 -1.4,-1.21 -0.57,-0.61 -0.93,-1.21 -1.21,-2.07 -0.18,-0.24 -0.33,-0.53 -0.45,-0.86 -0.08,-1 0.05,-1.67 0.44,-1.93 0.71,-0.45 1.42,-0.5 2.13,-0.08 0.31,0.18 0.33,0.66 0.14,1.18 l -0.36,0.42 c -0.34,0.41 -0.23,0.59 0.35,0.54 l 1.12,0.03 c 0.86,0.12 0.9,0.84 0.35,1.08 l -0.88,0.3 c -0.82,0.48 -0.49,0.99 0.59,1.03 0.74,-0.09 1.38,-0.38 1.9,-0.85 0.46,-0.41 0.53,-0.89 -0.24,-1.54 -0.54,-0.53 -0.59,-1.06 -0.2,-1.43 0.41,-0.43 0.55,-0.68 0.1,-0.73 l -0.86,-0.03 c -0.79,-0.09 -1.31,-0.36 -1.42,-0.88 v -0.65 c 0.08,-0.45 -0.88,-0.82 -1.77,-0.92 -0.27,-0.03 -0.49,-0.03 -0.5,0.32 -0.17,1.01 -0.96,1.7 -2.35,2.63 z"
   id="path106" />
<path
   class="st2"
   d="m 110.98,42.26 c 0.21,-0.59 0.57,-0.66 0.86,-0.27 0.34,1.28 0.81,2.47 1.51,3.27 0.3,0.27 0.48,0.49 0.59,0.78 0.26,0.78 0.05,1.14 -0.64,1.06 -0.41,-0.57 -0.82,-1.12 -1.26,-1.64 -0.48,-0.69 -0.76,-1.4 -0.92,-2.25 z"
   id="path108" />
<path
   class="st2"
   d="m 109.11,44.91 c -0.18,0.41 0.38,0.88 0.58,0.9 0.39,0.06 0.66,0.03 1.01,-0.39 0.16,-0.39 -0.15,-1.14 -0.55,-1.1 -0.36,0.23 -0.84,0.24 -1.04,0.59 z"
   id="path110" />
<path
   class="st2"
   d="m 110.94,48.47 c -0.02,-0.34 0.17,-0.51 0.42,-0.34 0.18,0.2 0.88,0.38 0.75,0.71 -0.13,0.34 -0.35,0.47 -0.85,0.36 -0.29,-0.11 -0.28,-0.41 -0.32,-0.73 z"
   id="path112" />
<path
   class="st2"
   d="m 107.92,41.02 c -0.5,0.52 -1.13,0.92 -1.86,1.07 -0.98,0.08 -1.37,0.38 -0.91,0.97 0.77,1.13 1.34,2.37 1.61,3.81 l 0.55,2.75 c 0.02,0.66 0.44,1.33 1.15,1.76 0.41,0.23 0.83,0.4 1.27,0.45 0.68,0.05 0.93,-0.3 0.57,-0.81 -1.18,-1.11 -2.03,-2.15 -2.05,-3.15 -0.07,-1.48 -0.81,-3.06 -1.38,-3.84 -0.13,-0.42 0.06,-1.21 0.32,-1.3 0.64,-0.19 1.14,-0.51 1.46,-0.99 0.15,-0.67 -0.22,-1.09 -0.73,-0.72 z"
   id="path114" />
<path
   class="st2"
   d="m 115.72,55.55 c 0.04,0.22 0.35,0.4 0.65,0.48 0.13,0.03 0.11,0.17 0.17,0.24 0.39,-0.02 0.56,-0.16 0.39,-0.58 -0.13,-0.25 -0.31,-0.53 -0.58,-0.61 -0.37,-0.05 -0.63,0.06 -0.63,0.47 z"
   id="path116" />
<path
   class="st2"
   d="m 116.51,59.18 c -0.18,-0.58 -0.06,-0.74 0.26,-0.75 0.4,0.05 0.72,0.23 0.86,0.44 0.21,0.34 -0.06,0.68 -0.44,0.7 -0.29,-0.1 -0.59,-0.18 -0.68,-0.39 z"
   id="path118" />
<path
   class="st2"
   d="m 116.71,61.68 c -0.09,0.38 0.15,0.66 0.42,0.64 0.26,-0.01 0.53,-0.21 0.71,-0.49 0.14,-0.32 -0.07,-0.52 -0.54,-0.59 -0.26,0.05 -0.48,0.15 -0.59,0.44 z"
   id="path120" />
<path
   class="st2"
   d="m 117.7,55.73 c 0.21,-0.7 0.48,-0.72 0.78,-0.35 0.4,0.67 0.63,1.4 0.94,2.1 0.3,0.56 1.02,0.66 0.67,1.22 -0.18,0.21 -0.26,0.39 -0.51,0.65 -0.02,0.76 0.06,1.38 0.04,2.09 -0.29,0.97 -0.75,1.16 -1.19,0.4 -0.09,-0.97 -0.06,-2 -0.02,-3.06 -0.37,-0.94 -0.64,-1.94 -0.71,-3.05 z"
   id="path122" />
<path
   class="st2"
   d="m 113.9,56.41 c 0.12,-0.7 0.68,-0.7 0.98,-0.2 0.14,0.65 0.48,1.53 0.57,2.49 0.04,0.81 0.13,1.65 0.17,2.46 0.05,0.72 -0.29,0.79 -0.7,0.88 -1.15,0.36 -1.7,0.64 -1.82,0.96 -0.21,0.47 -0.21,1.04 -0.13,1.71 0.02,1.05 -0.33,1.56 -1.43,0.78 -0.41,-0.39 -0.46,-1 -0.15,-1.75 0.23,-0.64 0.63,-1.08 1.17,-1.37 0.68,-0.33 1.42,-0.61 1.98,-1.03 0.49,-0.36 0.31,-1.55 0.17,-2.33 -0.13,-0.89 -0.82,-1.44 -0.81,-2.6 z"
   id="path124" />
<path
   class="st2"
   d="m 113.01,60.85 c -0.11,-0.13 -0.04,-0.4 0.14,-0.5 0.23,-0.06 0.4,0.01 0.52,0.21 0.13,0.22 0.14,0.34 -0.14,0.47 -0.22,0.04 -0.35,0 -0.52,-0.18 z"
   id="path126" />
<path
   class="st2"
   d="m 112.54,55.76 c 0.38,0.22 0.34,0.49 0.04,0.66 -0.29,0.21 -0.62,0.2 -0.98,0.3 -0.18,0.07 -0.34,0.62 -0.16,0.92 0.15,0.27 0.51,0.4 0.74,0.58 0.26,0.26 -0.05,0.6 -0.24,0.76 -0.27,0.45 -0.25,0.84 -0.24,1.32 -0.02,0.36 -0.42,0.47 -0.82,0.4 -0.53,-0.1 -0.79,0.2 -0.85,0.85 -0.03,0.33 -0.05,0.54 -0.05,0.87 0.02,0.55 -0.48,0.96 -1.13,0.2 -0.12,-0.29 -0.13,-0.7 0.3,-1.28 0.23,-0.24 0.34,-0.4 0.4,-0.78 0.11,-0.67 -0.01,-1.25 -0.47,-1.25 l -1.34,0.02 c -0.34,-0.03 -0.33,-0.2 -0.02,-0.44 0.2,-0.19 0.56,-0.43 0.84,-0.59 0.54,-0.23 0.47,-0.66 -0.02,-1.02 -0.4,-0.45 -0.74,-0.97 -0.88,-1.54 -0.23,-0.78 -0.04,-0.9 0.48,-0.73 0.51,0.33 0.98,0.93 1.38,1.96 0.4,0.57 0.77,0.32 0.77,-0.03 -0.06,-0.8 0.26,-1.13 0.78,-1.28 0.44,-0.16 1.05,-0.1 1.47,0.1 z"
   id="path128" />
<path
   class="st2"
   d="m 11.68,60.42 c -0.34,-0.16 -0.59,-0.54 -0.24,-1.01 0.33,-0.29 0.65,-0.26 0.95,-0.12 0.23,0.22 0.42,0.32 0.74,0.25 0.22,-0.04 0.39,-0.17 0.6,-0.27 0.57,-0.28 0.96,-1.12 1.15,-1.53 0.58,-0.84 0.56,-0.95 0.94,-1.85 0.29,-0.91 0.47,-1.61 0.94,-2.41 0.33,-0.47 0.65,-0.49 0.91,-0.27 0.46,0.24 0.79,0.96 0.42,2.31 -0.42,1.18 -1.27,2.41 -2.6,3.69 -0.8,0.56 -1,1.12 -0.67,1.69 0.64,1.09 1.43,2.07 2.32,3.14 0.51,0.64 0.75,1.17 0.32,1.58 -0.21,0.24 -0.5,0.15 -0.7,-0.15 -0.09,-0.56 -0.12,-0.77 -0.69,-1.12 -0.4,-0.27 -0.83,-0.74 -1.17,-1.22 -0.85,-1.19 -2.12,-2.3 -3.22,-2.71 z"
   id="path130" />
<g
   id="g138"
   transform="translate(-136.01,-136.1)">
	<path
   class="st2"
   d="m 148.64,182.95 c 0.09,-0.56 0.15,-0.98 -0.06,-1.26 l -0.47,-0.52 c -0.37,-0.35 -0.22,-0.72 0.25,-0.83 0.94,-0.09 1.44,-0.41 1.49,-1.19 0.32,-0.83 0.69,-1.58 0.96,-2.79 0.07,-0.5 0.2,-0.77 0.39,-1.1 0.27,-0.49 0.75,-0.39 0.86,-0.09 0.18,0.45 0.58,0.79 1.06,1.08 0.34,0.38 0.35,0.6 -0.06,0.77 l -0.89,0.16 c -0.53,0.1 -0.84,0.41 -1.02,0.73 -0.76,1.68 -1.4,3.39 -1.87,5.35 -0.09,0.85 -0.1,1.33 0.44,1.63 0.26,0.19 0.96,0.43 1.05,0.7 0.22,0.36 0.01,0.52 -0.46,0.54 -0.65,0.06 -1.62,-0.02 -1.9,-0.36 -0.43,-0.42 -0.49,-0.75 -0.26,-1.31 0.29,-0.28 0.46,-0.81 0.49,-1.51 z"
   id="path132" />
	<path
   class="st2"
   d="m 152.08,178.85 c 0.47,-0.28 0.96,0.04 0.69,0.48 0.04,0.34 -0.15,0.81 -0.46,1.33 -0.25,0.33 -0.36,0.94 -0.37,1.73 0.06,0.48 -0.12,0.7 -0.41,0.79 -0.27,0.14 -0.45,-0.01 -0.63,-0.36 0.09,-0.27 0.15,-0.52 0.11,-0.69 -0.07,-0.22 -0.03,-0.55 0.15,-1.02 0.21,-0.49 0.26,-0.83 0.29,-1.22 0.04,-0.58 0.42,-1.06 0.63,-1.04 z"
   id="path134" />
	<path
   class="st2"
   d="m 153.71,179.31 c -0.28,0.35 -0.42,1.03 -0.23,1.73 0.13,0.73 -0.1,1.69 -0.61,2.54 -0.22,0.37 -0.35,0.84 -0.45,1.35 -0.01,0.4 0.43,0.63 0.87,0.38 0.21,-0.21 0.4,-0.43 0.55,-0.74 0.49,-0.31 0.85,-0.28 1.13,0.22 0.22,0.8 0.3,1.68 0.31,2.61 0.03,0.42 0.18,0.65 0.44,0.67 0.63,0.19 0.9,0.01 0.81,-0.53 0,-0.87 -0.05,-1.77 -0.22,-2.73 -0.02,-0.49 -0.24,-0.95 -0.95,-1.31 -0.12,-0.15 -0.39,-0.27 -0.83,-0.39 -0.52,-0.35 -0.73,-0.77 -0.24,-1.33 0.56,-0.19 0.99,-0.15 1.37,-0.01 0.88,0.5 1.48,0.44 1.89,0.01 0.22,-0.57 0.64,-1.18 1.33,-1.85 0.43,-0.57 0.73,-0.94 0.96,-1.33 0.47,-0.47 0.42,-1.28 0.15,-1.9 -0.4,-0.85 -0.9,-0.93 -1.25,-0.09 -0.01,0.61 -0.81,2.05 -0.7,2.73 -0.21,0.99 -0.73,1.64 -1.72,1.67 -0.36,-0.04 -0.72,-0.14 -1.09,-0.48 -0.29,-0.16 -0.54,-0.36 -0.58,-0.66 -0.03,-0.35 -0.01,-0.55 -0.1,-0.68 -0.26,-0.32 -0.52,-0.33 -0.84,0.12 z"
   id="path136" />
</g>
<path
   class="st2"
   d="m 21.11,30.45 c -0.1,-0.71 0.14,-1.24 0.83,-1.3 1.01,-0.11 1.82,-0.21 2.74,-0.38 1.41,-0.27 2.47,-0.65 3.02,-1.19 0.51,-0.41 1.1,-0.74 1.58,-0.76 0.35,-0.03 0.69,0.02 1.01,0.11 0.45,0.11 0.41,0.55 0.13,1.13 -0.46,0.6 -1.6,0.93 -3.04,1.14 -1.34,-0.03 -2.48,0.11 -3.8,0.44 -0.59,0.04 -0.96,0.3 -0.95,0.99 -0.04,0.32 -0.06,0.9 0.03,1.5 0.07,0.39 0.28,0.5 0.58,0.4 0.23,-0.08 0.43,-0.18 0.58,-0.32 0.8,-0.68 1.49,-2.1 1.82,-2.1 0.79,-0.16 1,0.01 0.71,0.54 -0.51,0.41 -0.79,0.75 -0.99,1.05 -0.68,0.98 0.69,1.93 0.95,0.87 0.3,-0.63 0.67,-0.98 1.02,-0.92 0.76,-0.06 0.98,0.16 0.72,0.6 -0.5,0.47 -0.79,0.92 -0.93,1.34 -0.2,0.57 -0.08,1.12 0.51,1.61 0.42,0.21 0.73,0.47 0.97,0.76 0.36,0.59 -0.36,0.8 -1.09,0.43 -0.35,-0.26 -0.82,-0.52 -1.45,-0.8 -0.37,-0.03 -0.61,-0.33 -0.68,-0.77 -0.04,-0.25 -0.06,-0.58 0.05,-0.91 -0.01,-0.36 -0.35,-0.61 -0.81,-0.46 -0.48,0.22 -0.54,0.31 -1.07,0.41 -0.56,0.12 -0.96,0.49 -1.14,1.12 0.03,1.23 -0.03,2.34 -0.13,3.39 -0.1,0.58 -0.64,0.75 -1.41,0.2 -0.32,-0.48 -0.37,-0.94 0.02,-1.42 0.32,-0.67 0.5,-1.35 0.54,-2.04 -0.04,-1.56 -0.05,-3.1 -0.32,-4.66 z"
   id="path140" />
<path
   class="st2"
   d="m 33.25,21.04 c 0.18,-0.46 0.1,-0.76 0.04,-1.17 -0.1,-0.2 -0.2,-0.45 -0.31,-0.65 -0.1,-1.14 0.24,-1.54 1.01,-1.3 0.44,0.26 0.83,0.58 1.28,0.84 0.51,0.22 1.09,0.17 1.7,-0.02 0.73,-0.67 2.24,-1.32 3.05,-1.95 0.46,-0.49 0.8,-0.37 1.01,0.36 -0.03,1.09 -0.36,1.55 -0.9,1.57 -0.59,-0.1 -1.08,-0.11 -1.32,0.1 -1.15,0.6 -2.43,1.05 -2.44,1.55 -0.26,1.1 0.2,1.49 1.41,1.26 0.85,-0.1 1.42,-1.05 2.12,-1.09 0.78,-0.1 0.96,0.16 0.91,0.73 -0.08,1.24 0.1,1.79 0.48,1.86 0.75,0.44 0.44,1.25 -0.36,1.76 -0.62,0.43 -1.9,0.71 -2.48,1.19 0.09,0.55 -1.27,1.61 -1.81,1.34 -0.56,-0.2 -0.95,-0.73 -1.39,-0.71 -0.39,0 -0.98,-0.53 -1.2,-0.86 -0.21,-0.61 -0.18,-1.03 0.11,-1.22 0.32,-0.4 0.7,-0.82 1.22,-1.22 0.27,-1.01 -0.1,-1.7 -1.05,-1.47 -0.81,0.06 -1.39,1.82 -2,2.05 -0.25,0.79 -0.65,1.32 -1.26,1.09 -0.81,-0.61 -0.8,-1.44 -0.15,-2.03 0.76,-1.21 1.88,-1.16 2.33,-2.01 z m 2.68,3.95 c -0.47,0.71 0.53,1.2 1.6,0.55 0.36,-0.48 1.27,-1.14 1.84,-1.36 0.73,-0.26 0.58,-1.19 -0.1,-1.19 -1.31,-0.33 -2.98,0.65 -3.34,2 z"
   id="path142" />
<g
   id="g150"
   transform="translate(-136.01,-136.1)">
	<path
   class="st2"
   d="m 185.9,148.41 c -1.24,0.44 -1.17,0.93 0.08,0.82 0.64,0.07 1.2,0.08 1.7,0.05 0.82,-0.06 0.81,0.81 0.23,1.14 -1.42,1.07 -2.93,1.46 -4.52,1.49 -0.74,-0.04 -1.29,0.04 -1.69,0.41 -0.19,0.18 -0.51,0.25 -0.75,0.35 -0.45,0.03 -0.83,0.83 -0.11,1.22 1,0.57 1.85,0.4 2.46,-0.83 0.08,-0.98 2.12,-0.72 2.88,-0.82 1.1,0.02 1.02,0.07 1.05,0.73 -0.1,0.34 -0.14,1.57 0.04,1.88 0.25,0.44 0.7,0.84 1.09,0.84 0.62,-0.18 1.93,0.08 2.56,-0.21 0.26,-0.14 0.52,-0.26 0.77,-0.35 1.02,-0.41 0.87,-1.5 0.18,-2.91 -0.53,-0.38 -0.42,-0.98 0.07,-1.19 0.56,-0.29 1.3,-0.29 2.05,-0.22 0.47,0.06 0.79,0 0.97,-0.2 0.34,-0.3 0.45,-0.66 0.05,-1.14 -0.19,-0.34 -0.63,-0.42 -1.33,-0.23 -0.89,0.37 -1.95,0.55 -3.33,0.65 -0.71,0.04 -0.79,-0.89 -0.3,-1.17 0.19,-0.24 0.66,-0.17 0.99,-0.25 0.92,-0.46 0.89,-0.85 -0.08,-1.16 -0.26,-0.09 -0.65,-0.16 -1.02,-0.16 -0.52,-0.07 -0.92,-0.23 -1.08,-0.74 -0.4,-0.45 -0.72,-0.56 -0.86,0.09 -0.07,1.07 -0.91,1.62 -2.1,1.91 z m 2.57,3.87 c 0.46,-0.65 1.32,-0.64 2.03,-0.18 0.79,0.78 0.81,1.42 0.07,1.91 -0.59,0.08 -1.16,0.07 -1.69,-0.05 -0.74,-0.12 -0.82,-1.09 -0.41,-1.68 z"
   id="path144" />
	<path
   class="st2"
   d="m 180.96,149.5 c 0.41,-0.54 1.05,-0.74 1.84,-0.72 0.9,0.33 1.06,0.77 0.47,1.34 -0.44,0.36 -1,0.55 -1.68,0.58 -0.86,-0.05 -1.07,-0.45 -0.63,-1.2 z"
   id="path146" />
	<path
   class="st2"
   d="m 182.9,155.67 c 0.54,-0.56 0.78,-0.81 1.47,-1.19 0.93,-0.69 1.53,0.23 1,0.95 -0.11,0.29 -0.57,1.05 -1.01,1.45 -0.31,0.29 -0.78,0.54 -1.16,0.2 -0.76,-0.4 -0.65,-1.13 -0.3,-1.41 z"
   id="path148" />
</g>
<path
   class="st0"
   d="m 63.78,0 c 35.13,0 63.78,28.65 63.78,63.78 0,35.13 -28.65,63.78 -63.78,63.78 C 28.65,127.56 0,98.91 0,63.78 0,28.65 28.65,0 63.78,0 Z m 0,2.45 C 30,2.45 2.45,30 2.45,63.78 c 0,33.78 27.55,61.33 61.33,61.33 33.78,0 61.33,-27.55 61.33,-61.33 C 125.11,30 97.56,2.45 63.78,2.45 Z"
   id="path152" />
<path
   class="st0"
   d="m 63.78,21.58 c 23.24,0 42.2,18.95 42.2,42.2 0,23.24 -18.96,42.19 -42.2,42.19 -23.24,0 -42.2,-18.95 -42.2,-42.19 0,-23.24 18.96,-42.2 42.2,-42.2 z m 0,2.1 c -22.09,0 -40.1,18.01 -40.1,40.1 0,22.09 18.01,40.1 40.1,40.1 22.09,0 40.1,-18.01 40.1,-40.1 0,-22.09 -18.01,-40.1 -40.1,-40.1 z"
   id="path154" />
<path
   class="st0"
   d="m 63.78,25.61 c 21.02,0 38.17,17.15 38.17,38.17 0,21.02 -17.15,38.17 -38.17,38.17 -21.02,0 -38.17,-17.15 -38.17,-38.17 0,-21.02 17.15,-38.17 38.17,-38.17 z m 0,0.9 c -20.61,0 -37.42,16.74 -37.42,37.27 0,20.53 16.81,37.27 37.42,37.27 20.61,0 37.42,-16.74 37.42,-37.27 0,-20.53 -16.81,-37.27 -37.42,-37.27 z"
   id="path156" />
</svg>
