<?xml version="1.0" encoding="UTF-8" standalone="no"?>
<!-- Generator: Adobe Illustrator 24.0.1, SVG Export Plug-In . SVG Version: 6.00 Build 0)  -->

<svg
   version="1.1"
   id="图层_1"
   x="0px"
   y="0px"
   viewBox="0 0 219.99999 219.99999"
   xml:space="preserve"
   sodipodi:docname="LOGO.svg"
   width="219.99998"
   height="220"
   inkscape:version="1.2 (dc2aedaf03, 2022-05-15)"
   xmlns:inkscape="http://www.inkscape.org/namespaces/inkscape"
   xmlns:sodipodi="http://sodipodi.sourceforge.net/DTD/sodipodi-0.dtd"
   xmlns="http://www.w3.org/2000/svg"
   xmlns:svg="http://www.w3.org/2000/svg"><defs
   id="defs47" /><sodipodi:namedview
   id="namedview45"
   pagecolor="#ffffff"
   bordercolor="#000000"
   borderopacity="0.25"
   inkscape:showpageshadow="2"
   inkscape:pageopacity="0.0"
   inkscape:pagecheckerboard="0"
   inkscape:deskcolor="#d1d1d1"
   showgrid="false"
   inkscape:zoom="8"
   inkscape:cx="94.5625"
   inkscape:cy="-3.625"
   inkscape:window-width="1440"
   inkscape:window-height="829"
   inkscape:window-x="-8"
   inkscape:window-y="-8"
   inkscape:window-maximized="1"
   inkscape:current-layer="g42" />
<style
   type="text/css"
   id="style2">
	.st0{fill:#ED6C00;}
	.st1{fill-rule:evenodd;clip-rule:evenodd;fill:#ED6C00;}
</style>
<g
   id="g42"
   transform="matrix(0.89629829,0,0,0.89629829,-279.02661,-153.5807)"
   style="stroke-width:1.1157">
	<circle
   style="fill:#ffffff;stroke-width:0.421683"
   id="path382"
   cx="434.03699"
   cy="294.077"
   r="122.72699" /><path
   class="st0"
   d="m 343.59498,333.73198 v 0 l -0.539,-1.001 c 0.583,-0.286 1.045,-0.605 1.364,-0.946 0.319,-0.341 0.528,-0.748 0.605,-1.232 0.099,-0.473 0.033,-0.968 -0.154,-1.452 -0.165,-0.429 -0.418,-0.781 -0.715,-1.023 -0.308,-0.253 -0.671,-0.396 -1.056,-0.429 -0.385,-0.033 -0.781,0.022 -1.144,0.176 -0.374,0.154 -0.693,0.363 -0.902,0.627 -0.231,0.275 -0.363,0.616 -0.418,1.045 -0.033,0.286 -0.033,0.869 0,1.749 0.044,0.88 0,1.529 -0.11,1.936 -0.154,0.517 -0.407,0.979 -0.77,1.353 -0.374,0.385 -0.847,0.682 -1.386,0.913 -0.638,0.231 -1.254,0.341 -1.881,0.308 -0.627,-0.022 -1.177,-0.209 -1.65,-0.572 -0.462,-0.352 -0.803,-0.825 -1.023,-1.386 -0.264,-0.638 -0.33,-1.243 -0.242,-1.837 0.099,-0.594 0.385,-1.133 0.858,-1.606 0.462,-0.484 1.034,-0.869 1.749,-1.188 l 0.55,1.034 c -0.748,0.363 -1.243,0.781 -1.496,1.276 -0.286,0.484 -0.286,1.067 -0.011,1.716 0.275,0.671 0.649,1.111 1.122,1.276 0.484,0.154 0.979,0.143 1.474,-0.055 0.451,-0.165 0.77,-0.429 0.968,-0.759 0.198,-0.319 0.264,-1.001 0.198,-2.024 -0.066,-1.034 -0.066,-1.76 0.022,-2.189 0.132,-0.616 0.396,-1.166 0.814,-1.595 0.407,-0.418 0.935,-0.759 1.584,-1.034 0.649,-0.253 1.309,-0.363 1.991,-0.33 0.682,0.033 1.265,0.22 1.782,0.583 0.506,0.374 0.891,0.825 1.122,1.441 0.308,0.77 0.396,1.474 0.286,2.112 -0.11,0.649 -0.429,1.243 -0.968,1.793 -0.55,0.528 -1.199,0.968 -2.024,1.32 m -5.379,-7.887 v 0 c -2.09,0.583 -3.85,0.66 -5.247,0.22 -1.408,-0.451 -2.277,-1.309 -2.629,-2.541 -0.231,-0.803 -0.154,-1.617 0.209,-2.431 0.363,-0.803 1.001,-1.518 1.903,-2.145 0.902,-0.627 1.991,-1.111 3.223,-1.463 1.276,-0.363 2.475,-0.506 3.597,-0.429 1.111,0.077 2.024,0.363 2.717,0.88 0.704,0.517 1.166,1.155 1.386,1.925 0.22,0.825 0.154,1.639 -0.242,2.453 -0.385,0.803 -1.023,1.529 -1.925,2.145 -0.88,0.605 -1.87,1.078 -2.992,1.386 m -0.308,-1.21 v 0 c 1.518,-0.429 2.618,-1.056 3.344,-1.87 0.715,-0.814 0.946,-1.661 0.693,-2.53 -0.231,-0.858 -0.88,-1.463 -1.914,-1.771 -1.034,-0.319 -2.376,-0.242 -4.004,0.209 -1.012,0.286 -1.892,0.66 -2.574,1.133 -0.693,0.44 -1.199,0.968 -1.496,1.54 -0.286,0.594 -0.341,1.177 -0.176,1.749 0.231,0.825 0.825,1.419 1.815,1.782 0.979,0.385 2.431,0.286 4.312,-0.242 m -10.219,-14.091 v 0 l -0.22,-1.177 7.436,-1.386 c 1.298,-0.242 2.343,-0.33 3.157,-0.275 0.792,0.066 1.474,0.308 2.057,0.759 0.572,0.44 0.935,1.089 1.1,1.969 0.154,0.836 0.077,1.562 -0.242,2.167 -0.319,0.605 -0.836,1.1 -1.584,1.474 -0.759,0.363 -1.815,0.671 -3.179,0.946 l -7.436,1.364 -0.231,-1.188 7.447,-1.375 c 1.133,-0.22 1.936,-0.429 2.442,-0.671 0.506,-0.242 0.869,-0.561 1.089,-0.968 0.22,-0.407 0.286,-0.869 0.187,-1.375 -0.154,-0.88 -0.572,-1.441 -1.199,-1.694 -0.627,-0.286 -1.76,-0.253 -3.377,0.044 z m 12.276,-8.03 v 0 l -11.528,0.869 0.22,3.003 -1.54,0.11 -0.539,-7.205 1.54,-0.121 0.22,3.003 11.55,-0.88 z m -0.517,-5.654 v 0 l -13.101,-0.429 0.044,-1.199 5.401,0.165 0.154,-4.719 -5.401,-0.176 0.033,-1.21 13.112,0.429 -0.044,1.199 -6.171,-0.209 -0.154,4.73 6.16,0.198 z m 0.242,-9.317 v 0 l -13.013,-1.573 0.781,-6.545 1.529,0.187 -0.649,5.346 3.993,0.473 0.605,-5.005 1.529,0.187 -0.605,5.005 4.444,0.539 0.682,-5.555 1.496,0.187 z m 1.089,-8.569 v 0 l -12.892,-2.387 0.737,-3.982 c 0.143,-0.792 0.385,-1.375 0.682,-1.771 0.319,-0.363 0.781,-0.616 1.408,-0.759 0.627,-0.132 1.309,-0.132 2.013,-0.011 0.913,0.187 1.65,0.517 2.211,1.056 0.539,0.528 0.814,1.232 0.825,2.123 0.275,-0.286 0.528,-0.473 0.77,-0.594 0.528,-0.264 1.155,-0.495 1.903,-0.671 l 3.795,-0.902 -0.275,1.463 -2.904,0.693 c -0.847,0.198 -1.496,0.385 -1.936,0.528 -0.462,0.154 -0.781,0.297 -0.979,0.44 -0.198,0.154 -0.319,0.308 -0.44,0.484 -0.066,0.121 -0.132,0.341 -0.187,0.649 l -0.253,1.375 5.72,1.056 z m -6.985,-2.53 v 0 l 0.462,-2.552 c 0.11,-0.55 0.11,-0.979 0,-1.309 -0.099,-0.341 -0.33,-0.616 -0.638,-0.836 -0.33,-0.22 -0.693,-0.374 -1.111,-0.451 -0.616,-0.121 -1.144,-0.055 -1.595,0.176 -0.462,0.242 -0.726,0.682 -0.858,1.353 l -0.539,2.838 z m 8.943,-6.567 v 0 l -12.628,-3.49799 0.33,-1.188 11.187,-1.881 -9.922,-2.75 0.319,-1.111 12.628,3.487 -0.33,1.199 -11.198,1.87 9.922,2.75 z m -3.817,-26.08099 v 0 l 0.55,-1.078 6.754,3.399 c 1.177,0.616 2.057,1.166 2.662,1.705 0.605,0.539 1.001,1.155 1.199,1.848 0.198,0.715 0.077,1.441 -0.319,2.222 -0.385,0.77 -0.891,1.298 -1.518,1.584 -0.616,0.286 -1.331,0.363 -2.167,0.209 -0.814,-0.143 -1.848,-0.539 -3.08,-1.166 l -6.765,-3.41 0.55,-1.078 6.754,3.41 c 1.023,0.517 1.804,0.825 2.343,0.946 0.561,0.11 1.045,0.077 1.463,-0.121 0.418,-0.187 0.759,-0.517 0.979,-0.979 0.407,-0.792 0.429,-1.463 0.077,-2.079 -0.352,-0.594 -1.254,-1.265 -2.728,-2.013 z m 13.266,2.937 v 0 l -11.044,-7.062 0.671,-1.045 11.242,1.518 -8.657,-5.555 0.616,-0.979 11.033,7.073 -0.66,1.045 -11.253,-1.518 8.679,5.544 z m 5.302,-7.953 v 0 l -10.626,-7.689 0.715,-0.979 10.626,7.689 z m 3.674,-4.829 v 0 l -12.199,-5.951 0.847,-0.968 8.756,4.455 c 0.704,0.363 1.353,0.704 1.936,1.045 -0.451,-0.572 -0.88,-1.166 -1.287,-1.771 l -5.577,-8.107 0.803,-0.935 7.557,11.286 z m 3.949,-4.609 v 0 l -9.086,-9.46 4.763,-4.554 1.067,1.1 -3.883,3.729 2.772,2.904 3.641,-3.487 1.078,1.111 -3.641,3.487 3.102,3.223 4.026,-3.872 1.067,1.111 z m 6.204,-6.017 v 0 l -8.184,-10.252 3.157,-2.519 c 0.649,-0.517 1.199,-0.803 1.672,-0.88 0.484,-0.088 1.012,0.033 1.573,0.341 0.561,0.308 1.078,0.737 1.529,1.309 0.583,0.726 0.902,1.474 0.979,2.233 0.066,0.77 -0.187,1.474 -0.77,2.156 0.396,-0.033 0.726,0 0.979,0.066 0.572,0.143 1.177,0.385 1.87,0.737 l 3.465,1.804 -1.177,0.946 -2.651,-1.386 c -0.77,-0.396 -1.364,-0.693 -1.804,-0.869 -0.44,-0.198 -0.781,-0.286 -1.034,-0.308 -0.242,-0.022 -0.451,0.011 -0.649,0.077 -0.132,0.044 -0.319,0.165 -0.561,0.363 l -1.1,0.88 3.63,4.543 z m -3.63,-6.49 v 0 l 2.035,-1.617 c 0.429,-0.352 0.715,-0.671 0.858,-1.001 0.132,-0.319 0.154,-0.671 0.066,-1.056 -0.121,-0.385 -0.286,-0.737 -0.55,-1.067 -0.385,-0.484 -0.825,-0.781 -1.309,-0.913 -0.506,-0.11 -1.012,0.044 -1.54,0.473 l -2.255,1.793 z m 8.272,-2.695 v 0 l 0.858,-0.737 c 0.418,0.517 0.803,0.902 1.199,1.155 0.407,0.242 0.836,0.363 1.342,0.363 0.473,-0.011 0.935,-0.154 1.375,-0.44 0.385,-0.253 0.671,-0.55 0.858,-0.913 0.198,-0.363 0.275,-0.737 0.22,-1.122 -0.044,-0.385 -0.176,-0.737 -0.385,-1.078 -0.231,-0.352 -0.506,-0.594 -0.803,-0.77 -0.319,-0.154 -0.671,-0.22 -1.1,-0.187 -0.286,0.022 -0.858,0.121 -1.716,0.33 -0.869,0.22 -1.507,0.308 -1.925,0.275 -0.539,-0.033 -1.023,-0.209 -1.485,-0.484 -0.429,-0.297 -0.825,-0.704 -1.155,-1.199 -0.352,-0.561 -0.583,-1.155 -0.682,-1.782 -0.077,-0.616 0,-1.188 0.253,-1.716 0.253,-0.517 0.638,-0.946 1.155,-1.298 0.572,-0.363 1.166,-0.55 1.76,-0.572 0.594,-0.022 1.177,0.154 1.749,0.517 0.561,0.363 1.067,0.858 1.496,1.496 l -0.902,0.737 c -0.506,-0.66 -1.034,-1.067 -1.551,-1.232 -0.55,-0.154 -1.1,-0.055 -1.683,0.341 -0.616,0.396 -0.957,0.858 -1.023,1.342 -0.077,0.495 0.033,0.979 0.341,1.452 0.253,0.396 0.561,0.649 0.924,0.781 0.363,0.121 1.045,0.055 2.046,-0.209 1.001,-0.264 1.705,-0.407 2.145,-0.407 0.638,0 1.21,0.165 1.716,0.484 0.506,0.308 0.946,0.77 1.331,1.342 0.363,0.605 0.605,1.21 0.715,1.881 0.099,0.671 0.022,1.287 -0.22,1.859 -0.253,0.561 -0.66,1.034 -1.199,1.375 -0.693,0.462 -1.364,0.682 -2.013,0.704 -0.66,0.011 -1.309,-0.198 -1.947,-0.605 -0.649,-0.396 -1.221,-0.957 -1.694,-1.683 m 10.065,-1.441 v 0 l -6.501,-11.374 1.045,-0.616 6.512,11.396 z m 5.093,-2.75 v 0 l -5.159,-10.351 -2.695,1.342 -0.693,-1.375 6.468,-3.223 0.704,1.375 -2.684,1.331 5.159,10.362 z m 7.436,-3.388 v 0 l -2.079,-5.159 -6.072,-5.698 1.342,-0.55 3.146,3.003 c 0.594,0.561 1.155,1.122 1.694,1.705 0,-0.737 0.033,-1.584 0.077,-2.53 l 0.198,-4.235 1.309,-0.528 -0.572,8.36 2.057,5.159 z m 9.779,-10.021 v 0 c -0.495,-2.112 -0.484,-3.861 0.033,-5.247 0.517,-1.375 1.408,-2.211 2.651,-2.497 0.825,-0.198 1.628,-0.088 2.431,0.33 0.781,0.407 1.463,1.078 2.046,1.991 0.572,0.924 1.023,2.035 1.309,3.3 0.297,1.287 0.374,2.497 0.253,3.597 -0.121,1.111 -0.462,2.002 -1.012,2.684 -0.55,0.671 -1.21,1.111 -1.969,1.287 -0.847,0.187 -1.65,0.088 -2.453,-0.352 -0.792,-0.429 -1.474,-1.1 -2.035,-2.024 -0.583,-0.924 -1.001,-1.947 -1.254,-3.069 m 1.221,-0.242 v 0 c 0.352,1.54 0.913,2.684 1.694,3.421 0.759,0.759 1.617,1.034 2.464,0.836 0.891,-0.209 1.496,-0.814 1.892,-1.837 0.352,-1.023 0.352,-2.354 -0.033,-3.993 -0.231,-1.034 -0.572,-1.925 -0.99,-2.64 -0.429,-0.715 -0.924,-1.232 -1.496,-1.551 -0.561,-0.319 -1.133,-0.418 -1.727,-0.275 -0.836,0.187 -1.463,0.759 -1.87,1.727 -0.396,0.946 -0.385,2.387 0.066,4.312 m 10.472,4.345 v 0 l -1.573,-13.013 6.127,-0.748 0.187,1.54 -4.917,0.583 0.484,4.059 4.268,-0.517 0.187,1.529 -4.257,0.517 0.715,5.907 z m 13.92599,-5.269 v 0 l 1.144,-0.11 c 0.022,0.66 0.143,1.21 0.33,1.628 0.176,0.429 0.473,0.781 0.88,1.056 0.396,0.275 0.869,0.418 1.386,0.429 0.462,0.022 0.869,-0.066 1.221,-0.242 0.363,-0.187 0.627,-0.462 0.814,-0.792 0.187,-0.341 0.286,-0.715 0.286,-1.111 0.011,-0.418 -0.055,-0.77 -0.209,-1.078 -0.154,-0.319 -0.418,-0.583 -0.792,-0.803 -0.242,-0.143 -0.77,-0.385 -1.617,-0.693 -0.825,-0.319 -1.397,-0.605 -1.738,-0.869 -0.418,-0.341 -0.737,-0.759 -0.913,-1.254 -0.22,-0.495 -0.297,-1.045 -0.286,-1.65 0.033,-0.66 0.187,-1.287 0.462,-1.848 0.275,-0.55 0.682,-0.99 1.199,-1.276 0.506,-0.275 1.078,-0.407 1.683,-0.396 0.66,0.022 1.265,0.209 1.771,0.528 0.506,0.319 0.891,0.803 1.144,1.419 0.253,0.616 0.374,1.309 0.374,2.09 l -1.166,0.088 c -0.044,-0.825 -0.231,-1.452 -0.572,-1.892 -0.341,-0.429 -0.858,-0.671 -1.573,-0.693 -0.726,-0.022 -1.265,0.154 -1.617,0.528 -0.341,0.374 -0.528,0.825 -0.55,1.375 0,0.473 0.099,0.869 0.319,1.177 0.22,0.308 0.825,0.638 1.793,0.99 0.968,0.341 1.639,0.649 2.002,0.891 0.506,0.363 0.891,0.825 1.122,1.375 0.231,0.539 0.341,1.155 0.308,1.859 0,0.704 -0.165,1.342 -0.462,1.958 -0.286,0.605 -0.704,1.078 -1.254,1.397 -0.528,0.33 -1.111,0.484 -1.771,0.462 -0.825,-0.022 -1.507,-0.231 -2.057,-0.594 -0.539,-0.363 -0.946,-0.891 -1.243,-1.595 -0.286,-0.693 -0.429,-1.474 -0.418,-2.354 m 15.906,0.847 v 0 l 1.144,0.572 c -0.418,1.397 -0.99,2.398 -1.738,3.069 -0.737,0.649 -1.584,0.946 -2.53,0.825 -0.968,-0.11 -1.738,-0.495 -2.266,-1.133 -0.55,-0.649 -0.913,-1.529 -1.1,-2.651 -0.198,-1.122 -0.209,-2.299 -0.066,-3.542 0.176,-1.342 0.495,-2.508 0.979,-3.476 0.484,-0.979 1.078,-1.672 1.815,-2.123 0.726,-0.44 1.496,-0.605 2.288,-0.517 0.902,0.11 1.628,0.539 2.156,1.265 0.539,0.737 0.858,1.727 0.957,2.959 l -1.221,0.253 c -0.088,-0.968 -0.319,-1.705 -0.66,-2.178 -0.352,-0.473 -0.825,-0.748 -1.43,-0.836 -0.704,-0.077 -1.309,0.088 -1.815,0.506 -0.539,0.429 -0.935,1.034 -1.243,1.804 -0.264,0.792 -0.462,1.606 -0.572,2.464 -0.143,1.111 -0.143,2.079 -0.022,2.937 0.121,0.858 0.407,1.518 0.825,1.98 0.429,0.462 0.924,0.737 1.463,0.803 0.66,0.066 1.276,-0.143 1.793,-0.627 0.528,-0.484 0.935,-1.265 1.243,-2.354 m 2.431,5.181 v 0 l 2.387,-12.892 1.188,0.22 -2.387,12.881 z m 3.443,0.671 v 0 l 3.52,-12.628 6.358,1.771 -0.429,1.485 -5.181,-1.441 -1.078,3.872 4.862,1.353 -0.429,1.485 -4.84,-1.342 -1.188,4.29 5.379,1.518 -0.407,1.485 z m 8.305,2.244 v 0 l 4.884,-12.166 1.155,0.462 0.605,11.33 3.839,-9.548 1.078,0.429 -4.895,12.166 -1.155,-0.473 -0.605,-11.33 -3.839,9.548 z m 16.577,2.277 v 0 l 0.88,0.946 c -0.869,1.155 -1.749,1.914 -2.684,2.288 -0.924,0.363 -1.804,0.341 -2.651,-0.088 -0.88,-0.44 -1.463,-1.067 -1.76,-1.848 -0.297,-0.792 -0.33,-1.738 -0.132,-2.86 0.209,-1.122 0.594,-2.244 1.155,-3.355 0.616,-1.21 1.331,-2.2 2.112,-2.937 0.77,-0.737 1.595,-1.199 2.431,-1.364 0.825,-0.176 1.617,-0.066 2.321,0.286 0.814,0.418 1.353,1.056 1.617,1.936 0.231,0.88 0.209,1.903 -0.121,3.102 l -1.243,-0.176 c 0.253,-0.946 0.286,-1.705 0.132,-2.277 -0.176,-0.572 -0.528,-0.99 -1.078,-1.265 -0.594,-0.308 -1.243,-0.363 -1.87,-0.143 -0.638,0.22 -1.243,0.638 -1.771,1.287 -0.55,0.638 -1.001,1.342 -1.375,2.123 -0.528,0.99 -0.847,1.914 -1.012,2.75 -0.187,0.836 -0.143,1.551 0.099,2.123 0.231,0.594 0.594,1.012 1.089,1.254 0.605,0.308 1.243,0.308 1.903,0.022 0.66,-0.297 1.32,-0.891 1.958,-1.804 m 0.484,5.401 v 0 l 7.128,-11 5.533,3.586 -0.836,1.298 -4.51,-2.926 -2.189,3.377 4.224,2.75 -0.836,1.276 -4.224,-2.739 -2.42,3.751 4.697,3.036 -0.847,1.287 z m 11.033,7.403 v 0 l 11.253,-7.59 0.99,0.869 -5.786,12.331 -1.034,-0.891 1.793,-3.696 -2.893,-2.53 -3.366,2.354 z m 5.533,-2.332 v 0 l 2.343,2.046 1.65,-3.366 c 0.517,-1.012 0.946,-1.848 1.298,-2.497 -0.649,0.572 -1.32,1.078 -2.024,1.573 z m 1.749,8.668 v 0 l 9.515,-9.009 0.869,0.891 -4.202,10.56 7.491,-7.073 0.792,0.847 -9.526,8.998 -0.858,-0.891 4.191,-10.56 -7.48,7.062 z m 6.402,6.82 v 0 l 10.23,-8.173 1.969,2.453 c 0.462,0.561 0.737,1.012 0.869,1.375 0.198,0.517 0.22,1.067 0.088,1.639 -0.143,0.737 -0.495,1.485 -1.067,2.244 -0.561,0.759 -1.298,1.496 -2.2,2.233 -0.781,0.616 -1.529,1.1 -2.222,1.452 -0.704,0.352 -1.331,0.605 -1.892,0.704 -0.55,0.121 -1.034,0.154 -1.43,0.088 -0.418,-0.055 -0.814,-0.198 -1.188,-0.451 -0.396,-0.231 -0.748,-0.572 -1.1,-1.012 z m 1.947,-0.011 v 0 l 1.221,1.518 c 0.363,0.462 0.726,0.792 1.067,0.957 0.341,0.154 0.682,0.231 1.045,0.209 0.495,-0.033 1.056,-0.198 1.716,-0.517 0.638,-0.308 1.342,-0.77 2.123,-1.386 1.078,-0.858 1.793,-1.639 2.167,-2.343 0.396,-0.704 0.55,-1.309 0.451,-1.815 -0.055,-0.363 -0.319,-0.836 -0.77,-1.386 l -1.188,-1.496 z m 8.283,14.564 v 0 l 9.999,-5.83 -1.518,-2.596 1.331,-0.77 3.641,6.248 -1.342,0.781 -1.518,-2.607 -9.988,5.83 z m 2.673,4.939 v 0 l 11.946,-5.401 2.717,5.995 -1.408,0.638 -2.222,-4.895 -3.674,1.65 2.079,4.587 -1.419,0.638 -2.057,-4.587 -4.081,1.837 2.321,5.104 -1.408,0.638 z m 9.966,12.507 v 0 l -0.011,1.298 c -1.43,0.231 -2.607,0.154 -3.531,-0.209 -0.935,-0.385 -1.54,-1.012 -1.859,-1.892 -0.319,-0.935 -0.308,-1.793 0.033,-2.563 0.33,-0.77 0.968,-1.485 1.892,-2.145 0.924,-0.66 1.969,-1.21 3.168,-1.617 1.287,-0.451 2.453,-0.671 3.542,-0.66 1.089,0.011 1.98,0.242 2.695,0.704 0.715,0.462 1.21,1.067 1.463,1.815 0.308,0.88 0.253,1.716 -0.187,2.497 -0.418,0.803 -1.166,1.529 -2.222,2.167 l -0.77,-0.99 c 0.836,-0.517 1.375,-1.023 1.661,-1.551 0.286,-0.517 0.308,-1.078 0.11,-1.639 -0.22,-0.66 -0.649,-1.133 -1.254,-1.43 -0.605,-0.275 -1.342,-0.385 -2.156,-0.297 -0.836,0.088 -1.661,0.275 -2.486,0.55 -1.045,0.374 -1.925,0.803 -2.629,1.287 -0.704,0.484 -1.188,1.012 -1.43,1.595 -0.231,0.583 -0.253,1.144 -0.066,1.672 0.22,0.638 0.682,1.078 1.353,1.342 0.704,0.253 1.584,0.275 2.684,0.066 m -3.498,4.29 v 0 l 12.771,-2.948 0.275,1.177 -5.269,1.21 1.056,4.60899 5.269,-1.221 0.275,1.166 -12.782,2.959 -0.275,-1.177 6.028,-1.386 -1.067,-4.59799 -6.006,1.37499 z m 2.068,9.05299 v 0 l 13.024,-1.573 0.154,1.221 -9.647,5.995 10.21899,-1.243 0.143,1.155 -13.01299,1.573 -0.154,-1.243 9.658,-5.973 -10.23,1.221 z m 7.48,8.712 v 0 c 2.167,-0.077 3.883,0.275 5.137,1.056 1.25399,0.781 1.89199,1.804 1.94699,3.091 0.022,0.847 -0.253,1.617 -0.792,2.31 -0.56099,0.693 -1.35299,1.243 -2.37599,1.628 -1.001,0.385 -2.189,0.594 -3.498,0.638 -1.32,0.044 -2.508,-0.099 -3.575,-0.44 -1.045,-0.341 -1.87,-0.847 -2.431,-1.507 -0.55,-0.671 -0.858,-1.408 -0.88,-2.2 -0.022,-0.858 0.253,-1.639 0.825,-2.332 0.561,-0.693 1.364,-1.243 2.387,-1.628 1.023,-0.374 2.09,-0.572 3.256,-0.616 m 0,1.265 v 0 c -1.584,0.044 -2.816,0.374 -3.707,0.99 -0.88,0.616 -1.298,1.375 -1.276,2.266 0.033,0.913 0.517,1.65 1.452,2.2 0.924,0.561 2.255,0.803 3.927,0.759 1.067,-0.044 1.991,-0.198 2.772,-0.473 0.792,-0.286 1.386,-0.66 1.815,-1.166 0.418,-0.484 0.627,-1.034 0.594,-1.639 -0.033,-0.847 -0.473,-1.573 -1.331,-2.156 -0.869,-0.605 -2.266,-0.858 -4.246,-0.781 m -6.182,9.317 v 0 l 13.07899,0.99 -0.088,1.199 -11.51699,-0.858 -0.363,4.477 -1.518,-0.121 z m 5.808,7.645 v 0 c 2.145,0.253 3.795,0.858 4.928,1.815 1.122,0.946 1.60599,2.079 1.441,3.355 -0.088,0.836 -0.473,1.562 -1.122,2.156 -0.649,0.605 -1.507,1.012 -2.585,1.243 -1.067,0.242 -2.255,0.275 -3.553,0.11 -1.32,-0.154 -2.475,-0.484 -3.476,-0.99 -0.99,-0.484 -1.716,-1.111 -2.178,-1.837 -0.451,-0.759 -0.638,-1.529 -0.539,-2.299 0.11,-0.858 0.506,-1.584 1.166,-2.189 0.671,-0.605 1.551,-1.012 2.607,-1.232 1.067,-0.231 2.167,-0.286 3.311,-0.132 m -0.187,1.232 v 0 c -1.562,-0.187 -2.838,-0.044 -3.795,0.44 -0.979,0.484 -1.518,1.166 -1.628,2.046 -0.099,0.902 0.264,1.705 1.1,2.398 0.836,0.693 2.101,1.133 3.773,1.342 1.045,0.121 1.991,0.11 2.816,-0.055 0.814,-0.154 1.463,-0.451 1.958,-0.88 0.495,-0.418 0.759,-0.924 0.836,-1.529 0.121,-0.858 -0.22,-1.628 -0.979,-2.343 -0.759,-0.704 -2.134,-1.166 -4.081,-1.419 m -3.894,13.871 v 0 l 1.474,0.429 -1.067,3.696 -4.675,-1.342 c -0.473,-0.759 -0.814,-1.496 -0.957,-2.2 -0.143,-0.704 -0.132,-1.364 0.055,-2.013 0.242,-0.847 0.726,-1.573 1.463,-2.112 0.748,-0.55 1.661,-0.858 2.761,-0.913 1.1,-0.077 2.288,0.066 3.52,0.429 1.221,0.363 2.299,0.869 3.267,1.529 0.946,0.66 1.595,1.419 1.925,2.222 0.319,0.814 0.341,1.661 0.088,2.541 -0.187,0.649 -0.484,1.166 -0.946,1.595 -0.429,0.418 -0.968,0.704 -1.562,0.847 -0.627,0.143 -1.375,0.154 -2.266,0.066 l -0.088,-1.177 c 0.66,0.055 1.221,0.044 1.639,-0.055 0.429,-0.088 0.792,-0.264 1.122,-0.561 0.319,-0.308 0.561,-0.671 0.682,-1.111 0.154,-0.528 0.154,-1.023 0.044,-1.474 -0.11,-0.462 -0.33,-0.869 -0.649,-1.21 -0.319,-0.352 -0.682,-0.649 -1.089,-0.913 -0.704,-0.451 -1.518,-0.803 -2.431,-1.078 -1.122,-0.319 -2.112,-0.462 -2.948,-0.418 -0.836,0.044 -1.507,0.286 -2.024,0.693 -0.517,0.407 -0.869,0.902 -1.034,1.463 -0.143,0.506 -0.143,1.034 0,1.595 0.143,0.561 0.33,1.001 0.583,1.342 l 2.354,0.682 z m -7.403,6.545 5.159,2.079 8.327,-0.462 -0.55,1.353 -4.345,0.187 c -0.825,0.033 -1.617,0.055 -2.409,0.044 0.528,0.517 1.122,1.111 1.76,1.793 l 2.926,3.091 -0.517,1.309 -5.643,-6.193 -5.159,-2.079 z"
   id="path4"
   style="stroke-width:1.1157" />
	<path
   class="st0"
   d="m 491.50097,351.55198 v 0 c -15.345,15.356 -35.75,23.804 -57.464,23.804 -21.71399,0 -42.11899,-8.448 -57.46399,-23.804 -15.356,-15.345 -23.804,-35.75 -23.804,-57.464 0,-21.714 8.437,-42.11899 23.804,-57.47499 15.345,-15.356 35.761,-23.804 57.46399,-23.804 21.703,0 42.119,8.459 57.464,23.804 15.356,15.356 23.804,35.76099 23.804,57.47499 0,21.714 -8.448,42.119 -23.804,57.464 m 1.243,-116.15999 c -15.697,-15.675 -36.542,-24.321 -58.707,-24.321 -22.16499,0 -43.02099,8.646 -58.69599,24.321 -15.675,15.675 -24.321,36.51999 -24.321,58.69599 0,22.165 8.635,43.021 24.321,58.696 15.675,15.675 36.531,24.31 58.69599,24.31 22.165,0 43.01,-8.635 58.707,-24.31 15.664,-15.675 24.31,-36.52 24.31,-58.696 0,-22.176 -8.646,-43.02099 -24.31,-58.69599"
   id="path6"
   style="stroke-width:1.1157" />
	<path
   class="st0"
   d="m 518.62697,378.67798 v 0 c -22.594,22.59399 -52.635,35.04599 -84.59,35.04599 -31.95499,0 -61.99599,-12.441 -84.58999,-35.04599 -22.594,-22.594 -35.03499,-52.635 -35.03499,-84.59 0,-31.95499 12.44099,-62.00699 35.03499,-84.58999 22.594,-22.594 52.635,-35.057 84.58999,-35.057 31.966,0 62.007,12.463 84.59,35.057 22.59399,22.594 35.02399,52.646 35.02399,84.58999 0,31.944 -12.43,62.007 -35.02399,84.59 m 2.189,-171.37999 c -23.177,-23.188 -53.999,-35.948 -86.779,-35.948 -32.77999,0 -63.59099,12.771 -86.77899,35.948 -23.177,23.188 -35.94799,53.999 -35.94799,86.78999 0,32.791 12.77099,63.602 35.94799,86.77899 23.177,23.177 53.999,35.937 86.77899,35.937 32.78,0 63.602,-12.76 86.779,-35.937 23.17699,-23.17699 35.94799,-53.99899 35.94799,-86.77899 0,-32.77999 -12.771,-63.60199 -35.94799,-86.78999"
   id="path8"
   style="stroke-width:1.1157" />
	<path
   class="st1"
   d="m 353.54998,361.77098 v 0 c -0.539,0.935 -0.803,0.473 -1.606,0.55 -0.572,0.055 -1.111,0.33 -1.782,0.22 -0.22,-0.033 -0.638,-0.099 -0.869,-0.143 -0.363,-0.099 -0.539,-0.264 -0.902,-0.264 -0.781,0 -1.43,0.891 -0.902,2.156 0.726,1.76 0.022,1.573 1.65,2.233 1.056,0.451 3.201,1.001 3.74,1.914 -0.099,0.341 -0.715,1.034 -1.364,0.858 -0.264,-0.088 -0.099,-0.066 -0.363,-0.176 l -0.363,-0.143 c -0.55,0.924 0.198,0.462 -0.583,1.958 l 1.265,1.243 c 2.2,-0.88 1.419,-3.575 3.696,-2.805 0.781,0.253 0.869,0.055 1.54,0.154 0.836,1.606 -0.385,1.243 -0.847,2.827 -0.341,1.199 1.056,2.519 1.056,2.519 1.144,0.11 1.936,-1.529 2.673,-2.519 l 2.497,-3.179 c 0.396,-0.506 1.397,-1.474 2.42,-2.838 0.44,-0.572 0.803,-0.715 1.386,-1.342 0.572,-0.605 0.803,-0.968 1.331,-1.694 0.374,-0.528 0.836,-0.869 1.276,-1.452 0.759,-1.045 0.627,-1.188 0.33,-1.683 -0.858,-1.397 -0.858,-2.255 -2.409,-2.409 -0.638,-0.055 -0.913,0.22 -1.463,0.198 l -3.223,-0.099 c -0.693,0.011 -1.067,0.143 -1.65,-0.209 0.55,-0.572 0.649,-0.638 1.364,-0.748 0.704,-0.099 0.792,-0.308 1.43,-0.363 2.563,-0.264 0.363,-0.297 3.102,0.011 0.671,0.088 1.023,-0.132 1.419,-0.814 0.715,-1.265 -0.308,-0.517 0.176,-2.442 0.143,-0.594 0.099,-0.407 0.418,-0.693 0.693,-0.627 0.814,-0.594 1.331,-1.551 -0.803,-2.134 -1.606,-1.617 -1.606,-1.617 0.033,0.044 -0.077,0.055 -0.088,0.066 l -3.564,2.519 c -1.518,0.957 -4.84,-0.011 -6.424,-0.649 -0.814,-0.341 -0.374,0.066 -1.122,-0.297 l -3.421,-1.463 c -0.693,-0.176 -0.517,-0.22 -1.1,-0.044 -0.44,0.11 -0.572,0.231 -0.869,0.737 0.33,0.803 0.308,1.023 1.265,1.639 1.463,0.946 5.434,2.035 6.105,2.849 -0.033,0.297 0.176,0.044 -0.209,0.44 -0.319,0.374 -2.541,1.166 -2.937,1.089 -0.924,-0.154 -0.638,-0.77 -1.837,-0.176 -0.77,0.385 -0.946,0.858 -1.672,0.979 -0.451,0.066 -0.418,0.011 -0.836,0.143 -0.561,0.176 -0.297,0.154 -0.924,0.187 -2.035,0.099 -1.023,0.407 -2.618,0.363 -0.704,-0.033 -1.243,0.209 -1.771,0.187 -0.55,-0.022 -0.693,-0.187 -1.034,-0.242 -0.858,-0.132 -2.717,1.507 -0.979,2.75 1.562,1.122 1.177,-1.243 7.161,-1.045 0.616,0.044 1.364,0.132 1.716,0.726 0.165,0.242 0.187,0.495 0.341,0.792 0.231,0.385 0.407,0.462 0.649,0.792 m -3.256,3.377 v 0 c 0.627,-0.022 1.463,0.044 2.442,0.044 0.462,0 0.803,0.022 1.298,0.033 0.561,0 0.781,0 1.298,0.462 -0.275,0.495 -0.308,0.616 -0.781,0.715 l -0.209,0.022 c -0.946,0.055 -3.751,-0.671 -4.048,-1.276 m 5.698,-3.74 v 0 l 0.836,-1.331 2.112,-0.187 c 0.55,-0.033 1.683,-0.209 2.167,0.242 -0.286,0.803 -0.396,0.418 -1.166,0.737 -0.66,0.275 -0.55,0.352 -1.331,0.418 -0.682,0.066 -1.903,1.056 -2.618,0.121 m 1.672,8.536 -0.517,-0.308 0.198,-0.682 c 0.088,-0.275 0.154,-0.319 0.066,-0.627 -0.165,-0.506 -0.528,-0.649 -0.759,-1.034 0.319,-0.627 0.968,-0.924 1.573,-1.331 0.352,-0.22 0.385,-0.231 0.748,-0.517 0.506,-0.396 0.528,-0.275 0.88,-0.638 0.11,-0.77 -0.396,-0.891 0,-1.837 0.44,-0.187 0.44,-0.099 0.88,-0.143 l 2.574,-0.264 c -0.264,1.1 -1.892,2.937 -2.684,3.762 -0.517,0.572 -2.156,3.3 -2.959,3.619"
   id="path10"
   style="stroke-width:1.1157" />
	<path
   class="st1"
   d="m 507.16497,368.12898 v 0 c 0,-0.044 0,-0.099 0.011,-0.132 0.011,-0.022 0.011,-0.088 0.033,-0.121 l 0.451,-2.849 c 0.231,-2.079 0.429,-1.221 0.693,-2.871 0.396,-2.398 0.858,-1.958 0.902,-3.003 0.088,-1.111 0.429,-0.462 0.792,-1.441 0.341,-0.957 -0.264,-0.396 0.836,-1.298 0.385,2.222 -1.144,2.629 0.077,3.839 -0.33,0.429 -0.946,2.178 -1.1,2.739 -0.286,0.946 -0.451,1.617 -1.089,2.618 -0.99,1.562 -1.056,1.034 -0.66,1.727 1.232,-0.033 1.936,-1.606 2.519,-2.376 0,-0.154 1.155,-2.2 1.331,-2.574 0.374,-0.858 0.561,-1.958 1.463,-2.728 0.517,1.826 -1.122,3.905 -0.946,4.576 0.275,0.957 1.001,0.858 0.968,1.419 0.088,0.627 0.154,0.132 -0.308,0.748 l -1.683,2.101 c -0.528,0.803 -2.486,2.2 -2.64,2.64 1.419,1.716 6.083,-4.719 7.37,-4.719 0.297,0.077 0.066,-0.154 0.517,0.341 0.132,0.143 0.231,0.308 0.297,0.462 0.396,0.869 0.165,1.969 -0.506,2.706 0.583,0.506 -0.022,-0.143 0.451,0.275 0.517,0.451 0.099,0.55 0.825,1.397 1.859,-0.011 3.696,-0.528 3.058,-2.783 -0.143,-0.517 -0.132,-0.781 -0.33,-1.265 -0.451,-1.034 -1.683,-2.321 -1.749,-3.52 2.717,-2.398 5.654,-3.179 3.74,-5.049 -0.462,-0.429 -0.495,-0.22 -0.748,-0.77 -0.077,-0.165 0.055,-0.968 -0.77,-0.616 -0.77,0.33 -1.474,1.441 -2.123,2.024 -1.188,1.023 -2.145,2.2 -2.321,2.332 -0.77,-0.198 -1.001,-0.396 -1.023,-1.331 l -0.286,-3.806 c 0.011,-0.605 -0.319,-1.419 -0.979,-1.661 -0.858,-0.297 -0.979,0.495 -1.749,0.539 -0.385,-0.671 0.099,-1.045 0.429,-1.595 0.253,-0.429 0.726,-1.012 1.034,-1.518 0.264,-0.429 0.099,-0.396 0.286,-0.858 0.165,-0.363 0.275,-0.374 0.341,-0.726 0.088,-0.363 -0.099,-2.002 -1.342,-1.188 -0.165,0.11 -0.451,0.352 -0.616,0.473 -0.396,0.319 -0.836,0.594 -1.188,0.979 -0.396,0.44 -1.441,4.785 -2.651,5.951 -0.495,-0.737 -0.143,-0.011 -0.154,-0.561 l 0.352,-1.518 c 0.781,-3.069 0.341,-2.024 0.605,-4.114 0.132,-0.968 0.836,-1.144 0.209,-2.046 -0.924,-0.308 -1.32,0.165 -2.079,0.231 -0.605,-1.155 1.562,-2.024 -0.693,-2.541 l -0.979,0.011 c -0.44,-0.88 -0.242,-1.1 -1.331,-1.287 -1.705,0.935 -0.363,2.431 -0.121,3.696 0.154,0.715 -0.077,0.341 -0.121,0.957 -0.077,0.825 0.242,-0.22 -0.176,1.32 -0.033,0.121 -0.055,0.286 -0.099,0.418 -0.132,0.374 -0.253,0.528 -0.638,0.759 -0.484,-0.297 -0.286,-0.55 -1.078,-0.638 -1.54,-0.143 -1.584,1.562 -1.463,2.563 -0.462,0.33 -0.682,0.275 -1.122,0.429 l -0.231,0.737 c -0.341,1.287 1.243,3.168 2.013,4.147 0.55,0.671 0.605,1.298 0.913,1.551 0.275,0.198 1.034,0.319 1.518,0.198 1.012,-0.231 0.979,-0.374 1.32,-1.056 0.605,-1.199 1.012,-0.528 0.748,-1.474 -0.11,-0.418 -0.781,-0.99 0.275,-1.144 l -0.033,0.649 c 0,0.022 0,0.066 0,0.099 -0.088,2.53 -0.649,3.179 -0.594,3.795 0.121,1.474 -1.078,3.3 -1.43,4.345 -0.561,1.782 0.803,2.376 1.243,2.651 0.649,-0.506 1.144,-0.836 1.529,-1.265 m -0.539,-13.233 v 0 c -0.286,-0.528 -0.11,-1.133 0.33,-1.628 0.286,0.66 0.275,1.177 -0.33,1.628 m 4.62,2.629 c 0.297,-1.419 -0.275,-0.968 1.1,-1.606 0.297,0.858 -0.132,1.1 -0.462,1.804 -0.374,0.825 0.011,1.166 -0.924,1.672 l -0.033,-1.012 c 0.099,-0.572 0.176,-0.253 0.319,-0.858"
   id="path12"
   style="stroke-width:1.1157" />
	<path
   class="st0"
   d="m 430.68198,345.45798 v -21.912 c -0.099,-1.518 -1.386,-2.728 -2.915,-2.728 l 0.066,-0.033 c -8.503,-0.198 -16.302,-1.056 -22.583,-2.365 -0.572,-0.11 -1.364,-0.088 -1.705,0.495 -0.363,0.616 -0.209,1.089 0,1.826 0.198,0.737 1.133,3.839 1.133,3.839 0.594,2.618 4.081,3.245 6.292,3.718 l 9.922,2.145 c 4.763,1.045 6.072,4.741 6.072,9.636 v 4.312 0.044 c 0,3.817 -0.638,6.281 -3.168,6.391 -3.212,0.154 -5.555,-3.058 -6.809,-5.841 -0.033,-0.055 -0.066,-0.121 -0.077,-0.176 l -0.044,-0.099 c -0.11,-0.253 -0.209,-0.484 -0.297,-0.715 -0.847,-2.112 -2.739,-6.71 -2.739,-6.71 0,0 -0.253,-0.825 -0.649,-1.089 -0.396,-0.286 -0.748,-0.374 -1.254,-0.374 h -3.355 l 4.323,14.982 c 0.88,3.058 1.969,6.6 4.389,8.866 2.97,2.794 7.832,4.312 14.26699,4.312 6.446,0 11.308,-1.518 14.278,-4.312 2.409,-2.266 3.509,-5.797 4.4,-8.866 l 4.312,-14.982 h -3.366 c -0.484,0 -0.847,0.088 -1.243,0.374 -0.396,0.264 -0.649,1.089 -0.649,1.089 0,0 -1.881,4.598 -2.728,6.71 -0.099,0.22 -0.198,0.462 -0.297,0.715 l -0.033,0.099 c -0.033,0.055 -0.044,0.121 -0.077,0.176 -1.265,2.783 -3.619,5.995 -6.831,5.841 -2.53,-0.11 -3.157,-2.574 -3.157,-6.391 v -0.044 -4.312 c 0,-4.895 1.298,-8.602 6.083,-9.636 l 9.889,-2.145 c 2.222,-0.473 5.709,-1.1 6.303,-3.718 0,0 0.913,-3.102 1.133,-3.839 0.209,-0.737 0.374,-1.21 0,-1.826 -0.341,-0.583 -1.111,-0.605 -1.705,-0.495 -6.292,1.309 -14.058,2.167 -22.572,2.365 l 0.066,0.033 c -1.54,0 -2.816,1.21 -2.915,2.728 v 21.912 c 0,0.484 -0.385,0.88 -0.88,0.88 -0.484,0.011 -0.87999,-0.396 -0.87999,-0.88"
   id="path14"
   style="stroke-width:1.1157" />
	<path
   class="st0"
   d="m 432.05697,233.20299 c 0,0 -6.72099,3.762 -9.14099,8.822 -1.023,2.145 -0.429,3.531 3.465,1.122 5.53299,-3.41 10.52699,-5.984 16.45599,-8.096 6.556,-2.31 18.557,-5.115 19.404,-4.708 0.363,0.176 0.385,0.858 -0.319,1.485 -16.984,15.609 -18.81,27.236 -14.179,29.062 2.277,0.913 6.138,0.396 9.581,-0.737 3.443,-1.122 6.798,-2.574 10.659,-2.695 9.064,-0.275 12.859,16.91799 3.069,33.19799 -5.489,9.152 -20.108,20.768 -21.153,20.339 -0.462,-0.187 -0.638,-0.704 -0.429,-1.551 0.132,-0.561 5.379,-12.1 1.221,-13.937 -0.649,-0.286 -2.277,0.176 -3.817,3.839 -1.991,4.741 -3.498,5.61 -4.312,5.412 -0.825,-0.198 -0.539,-1.507 -0.396,-2.387 0.121,-0.891 0.308,-1.639 -0.187,-1.309 -0.473,0.319 -5.159,5.566 -6.622,5.467 -0.539,-0.055 -0.858,-0.616 -0.517,-1.397 0.319,-0.781 0.682,-1.837 0.682,-1.837 0,0 -8.05199,7.821 -17.89699,9.702 -0.737,0.143 -2.684,0.616 -3.311,0.286 -0.341,-0.176 -0.561,-0.99 0.055,-1.419 0.638,-0.418 11.066,-5.819 15.576,-13.409 1.36399,-2.31 1.38599,-3.476 1.02299,-4.092 -0.91299,-1.562 -5.35699,-0.011 -8.26099,1.232 -2.915,1.243 -7.282,3.784 -12.837,4.719 -6.886,1.188 -15.092,-0.913 -19.338,-6.193 -4.895,-6.094 -5.192,-12.1 -4.488,-18.172 2.167,-19.07399 20.394,-31.15199 26.719,-35.04599 7.634,-4.697 18.94199,-9.592 19.82199,-9.229 0.462,0.154 0.66,0.825 -0.528,1.529"
   id="path16"
   style="stroke-width:1.1157" />
	<g
   id="g22"
   style="stroke-width:1.01427"
   transform="matrix(1.0999999,0,0,1.0999999,-31.130983,-17.134989)">
		<path
   class="st1"
   d="m 472,351.24 c 0.35,0.82 0.74,0.85 1.14,1.55 -0.15,0.53 -0.46,1.1 -0.65,1.65 -0.29,0.88 -0.12,1.01 -0.89,1.62 -1.01,-1.3 -0.78,-3.59 -1.27,-4.96 -0.92,-2.55 -3.55,-2.07 -3.73,-0.43 -0.11,1.24 1.44,2.32 2.42,5.01 0.55,1.52 0.79,3.12 0.23,4.65 -0.9,2.52 -3.79,4.61 -5.86,6.26 -2.39,1.89 -0.01,3.35 1.47,2.77 0.96,-0.38 1.68,-1.04 2.39,-1.79 1.06,-1.1 2.91,-4.47 3.53,-3.82 0.7,0.72 -0.29,-0.58 0.15,0.17 0.2,0.31 0.08,0.71 0.09,1.1 0.02,0.8 -0.31,2.03 -0.81,2.68 l -4.67,4.96 c -0.57,0.47 -1.12,0.7 -1.18,1.2 0.24,-0.03 -0.01,0.05 0.31,-0.12 0.05,-0.03 0.18,-0.12 0.23,-0.16 1.38,-0.9 1.01,-0.71 2.67,-0.96 1.9,-0.28 3.2,-1.42 4.46,-3.15 2.52,-3.48 1.68,-4.54 1.23,-7.67 -0.08,-0.59 -0.23,-1.58 -0.06,-2.07 l 2.63,-5.44 c 0.73,-1.63 1.86,-2.51 0.08,-3.6 -0.62,-0.37 -1.24,-0.45 -1.89,-0.3 -0.43,0.07 -1.88,0.74 -2.02,0.85"
   id="path18"
   style="stroke-width:1.01427" />
		<path
   class="st1"
   d="m 476.38,360.35 c -0.29,0.1 0.24,-0.23 -0.44,0.15 -0.16,0.1 -0.22,0.14 -0.36,0.26 -0.25,0.21 -0.46,0.47 -0.66,0.69 -3.47,3.96 2.36,2.59 4.85,2.86 0.28,0.03 0.46,0 0.75,0.02 2.81,0.22 2.88,0.96 3.46,-1.32 0.36,-1.37 -1.3,-2.6 -1.58,-2.85 -1.32,-1.17 -0.79,-1.78 -2.88,-1.31 -0.77,0.19 -0.86,0.43 -1.6,0.69 -1.59,0.56 -0.81,0.56 -1.54,0.81"
   id="path20"
   style="stroke-width:1.01427" />
	</g>
	<g
   id="g30"
   style="stroke-width:1.01427"
   transform="matrix(1.0999999,0,0,1.0999999,-31.130983,-17.134989)">
		<path
   class="st0"
   d="m 434.94,375.16 v -0.01 c 0.11,-0.14 0.22,-0.27 0.27,-0.41 0.26,-0.8 1.33,-1.4 1.9,-2.65 0.05,-0.09 0.22,-0.32 0.1,-0.3 -0.12,0.01 -2.03,1.83 -2.14,1.92 -0.09,0.08 -0.16,0.12 -0.22,0.16 -0.02,-0.73 -0.18,-1.56 -0.18,-1.59 0,-0.09 0,-0.18 0,-0.27 0,-0.02 0,-0.04 0,-0.06 -0.03,-0.12 0,-0.17 0.12,-0.21 0.02,-0.01 0.07,-0.03 0.07,-0.04 0.01,-0.07 0.06,-0.09 0.1,-0.12 0.08,-0.08 0.18,-0.16 0.28,-0.2 0.1,-0.05 0.19,-0.11 0.28,-0.16 0.11,-0.06 0.24,-0.11 0.35,-0.16 0.13,-0.05 0.28,-0.11 0.41,-0.17 0.01,-0.01 0.02,-0.02 0.03,-0.02 1.76,-1.21 0.3,-1.55 0.27,-1.55 -0.09,-0.02 -0.59,-0.17 -1.96,0.25 -0.09,0.02 -0.23,-0.2 -0.24,-0.31 -0.01,-0.07 -0.04,-0.14 -0.03,-0.21 0,-0.01 -0.07,-1.45 -0.11,-1.59 0,-0.05 -0.01,-0.11 -0.01,-0.17 -0.01,-0.08 -0.01,-0.17 0,-0.25 0,-0.01 0,-0.02 -0.01,-0.03 0.01,-0.06 0.02,-0.13 0.02,-0.19 0.03,-0.05 0.03,-0.1 0.02,-0.15 0.07,-0.68 0.06,-0.96 -0.67,-1.31 -0.93,-0.44 -2.36,-0.43 -2.97,0.03 -0.49,0.35 -0.48,0.67 -0.25,1.22 0.03,0.05 0.04,0.1 0.07,0.14 0.03,0.07 0.07,0.15 0.11,0.23 0,0.03 0.01,0.06 0.02,0.08 0.03,0.09 0.73,3.33 0.75,3.42 0,0.05 0.01,0.08 0.02,0.12 0.01,0.1 0.01,0.21 0.02,0.31 0.01,0.17 0.02,0.33 0.03,0.5 0,0.04 0,0.07 -0.05,0.09 -0.01,0.01 -0.03,0.03 -0.03,0.05 0,0.08 -0.05,0.13 -0.09,0.19 -0.02,0.06 -0.8,0.58 -1.61,1.12 -0.34,0.23 -0.55,0.59 -0.85,0.81 -0.48,0.31 -1,0.44 -1.02,0.47 -0.01,0.01 -0.03,0.02 -0.05,0.03 -0.1,0.05 -0.2,0.1 -0.28,0.17 -0.06,0.05 -0.11,0.1 -0.16,0.16 -0.06,0.07 -0.08,0.22 0,0.24 0.41,0.07 0.37,1.17 0.95,1.1 0.01,0.01 0.02,0.02 0.03,0.03 0.14,0.05 0.29,0.12 0.45,0.16 0.05,0 0.27,-0.04 0.33,-0.06 0.03,-0.02 0.55,-0.37 1.08,-0.89 0.57,-0.56 1.35,-0.91 1.37,-0.93 0.01,-0.02 0.05,-0.04 0.07,-0.04 0.04,0 0.08,-0.02 0.11,-0.05 0.06,-0.04 0.11,-0.08 0.16,-0.11 0.02,-0.02 0.03,-0.02 0.05,-0.02 0.01,0.02 0.02,0.04 0.02,0.07 0,0.13 0.01,0.25 0.01,0.38 -0.01,0.15 0.25,1.83 0.23,1.98 -0.02,0.08 -0.02,0.16 -0.03,0.24 0,0.06 -0.03,0.11 -0.08,0.16 -0.04,0.04 -0.08,0.1 -0.12,0.14 -0.09,0.09 -3.01,3.4 -3.05,3.44 -0.06,0.06 -0.11,0.11 -0.18,0.14 -0.02,0 -0.03,0.02 -0.05,0.03 -0.07,0.06 -0.11,0.17 -0.18,0.22 -0.01,0 -0.01,0 -0.02,0.01 -0.01,0.08 -0.06,0.1 -0.13,0.12 -0.06,0.01 -0.46,0.69 -0.47,1.05 0,0.36 0.4,0.59 0.49,0.97 0.11,0.51 0.62,0.68 0.95,0.64 0.45,-0.05 0.75,-0.39 0.78,-0.41 0.03,-0.03 0.94,-2.34 0.97,-2.4 0.02,-0.09 0.99,0.68 1.41,1.27 0.17,0.25 0.48,0.71 0.37,1.3 -0.12,0.66 0.43,1.35 1.12,1.34 1.03,-0.02 2.05,-1.51 1.82,-3.21 -0.17,-1.27 -0.13,-1.57 -0.13,-1.64 -0.01,-0.14 -0.05,-0.29 -0.08,-0.43 0,-0.07 0,-0.13 0,-0.18 0,-0.17 -0.01,-0.33 -0.05,-0.5 -0.02,-0.09 -0.43,-3.25 -0.45,-3.3 -0.01,-0.08 -0.03,-0.14 -0.06,-0.2 m -2.11,5.14 c 0,0.01 -0.06,0.58 -0.04,0.58 -0.83,-0.48 -1.56,-0.65 -1.57,-0.65 -0.02,-0.04 1.17,-2.17 1.2,-2.22 0.01,-0.03 0.02,-0.04 0.03,-0.05 0.01,-0.01 0.03,-0.01 0.05,-0.02 -0.01,0.01 0.34,2.23 0.33,2.36"
   id="path24"
   style="stroke-width:1.01427" />
		<path
   class="st0"
   d="m 443.29,376.89 c 0,0 0.69,2.17 0.71,2.14 0.02,-0.01 0.74,0.37 0.75,0.38 0.07,0.05 0.14,0.07 0.22,0.08 0.02,0 0.05,0.02 0.06,0.03 0.06,0.05 0.11,0.07 0.17,0.08 0.03,0.01 0.05,0.03 0.08,0.03 0.06,0.02 0.1,0.05 0.15,0.06 0.06,0.01 1.82,0.77 3.05,1.11 1.23,0.34 1.92,0.27 1.98,0.3 0.01,0.01 0.02,0.02 0.02,0.01 0.1,-0.01 0.19,-0.03 0.28,-0.05 0.06,-0.02 0.13,-0.03 0.19,0 0.03,0.02 0.06,0.02 0.08,0.02 0.11,0 0.94,-0.06 0.99,-0.56 0.08,-0.03 0.09,-0.12 0.14,-0.19 0.04,-0.07 0.08,-0.89 1.28,-1.62 0.58,-0.34 1.34,-0.57 1.27,-0.82 -0.34,-1.22 -4.13,-0.93 -4.28,-0.92 -0.09,0 -5.03,-0.37 -5.22,-0.39 0.01,-0.03 -1.92,0.31 -1.92,0.31"
   id="path26"
   style="stroke-width:1.01427" />
		<path
   class="st0"
   d="m 448,377.37 1.17,-0.2 c -1.38,-0.12 -2.69,-0.36 -3.39,-0.56 0.03,-0.05 1.95,-3.75 1.95,-3.75 0.19,-0.43 0.14,-0.57 -0.03,-1.02 -0.03,0.02 -0.31,-0.95 -1.38,-0.76 -0.06,0.01 -1.71,0.75 -1.83,0.81 -0.02,0.01 -0.25,0.07 -0.35,0.09 -0.05,0.02 -0.07,0.03 -0.11,0.06 -0.03,0.01 -0.06,0.03 -0.11,0.06 0.01,-0.06 0.01,-0.09 0.03,-0.14 0.01,-0.07 -0.15,-1.18 -0.17,-1.29 -0.01,-0.07 -0.12,-0.62 0.09,-0.98 0.22,-0.4 4.05,-2.01 4.16,-2.15 1.07,-1.13 0.33,-1.4 -0.21,-2.3 -0.2,-0.36 -0.85,-0.27 -2.03,0.08 -0.19,0.05 -2.03,0.93 -2.07,0.95 -0.02,0 -0.01,0.08 -0.02,0.07 -0.02,-0.01 -0.02,-0.04 -0.02,-0.06 0,-0.04 0,-0.08 0,-0.13 0,-0.07 -0.35,-2.17 -0.4,-2.21 -0.04,-0.04 -0.29,-0.62 -1.3,-0.67 -0.2,0 -0.67,0.03 -0.88,0.07 -0.2,0.03 -0.64,0.3 -0.81,0.33 -0.33,0.06 -0.46,0.45 -0.47,0.45 -0.02,0.02 -0.03,0.06 -0.06,0.07 -0.05,0.03 -0.03,0.08 -0.05,0.11 -0.02,0.07 0.03,0.08 0.07,0.11 0.02,0.01 0.03,0.01 0.05,0.02 0.14,0.09 0.24,0.19 0.22,0.37 0,0.17 0.49,3.38 0.49,3.51 0,0.16 0.01,0.31 -0.05,0.46 -0.01,0.03 -0.03,0.07 -0.03,0.11 -0.03,0.09 -0.03,0.17 -0.04,0.25 -0.01,0.06 -0.03,0.11 -0.07,0.16 -0.03,0.03 -0.07,0.06 -0.1,0.1 -0.07,0.08 -2,1.97 -2.1,2.04 -0.05,0.04 -0.08,0.07 -0.14,0.1 -0.08,0.03 -0.17,0.03 -0.25,0.06 -0.42,0.1 -0.51,0.66 -0.54,0.7 -0.02,0.04 -0.02,0.1 -0.02,0.15 0.01,0.04 0,0.2 0.05,0.21 0.02,0.01 0.21,0.66 0.63,0.53 0.75,-0.24 0.99,0.28 1.44,-0.12 0.01,-0.01 0.03,-0.01 0.05,-0.03 0.02,-0.01 0.03,-0.02 0.06,-0.03 0.13,-0.07 0.63,-0.76 0.69,-0.81 0.12,-0.13 0.42,-0.56 0.53,-0.69 0.02,-0.01 0.03,-0.01 0.03,-0.01 0,-0.07 0.21,1.76 0.22,1.8 0,0.01 0.03,0.1 0.05,0.55 0.05,1.3 -2.97,2.2 -3.13,2.22 -0.03,0 -0.38,0.11 0.19,0.44 0.17,0.1 0.92,0.53 2.15,0.8 0.72,0.15 1.29,0.52 1.34,0.52 0.01,0.03 0.13,0.04 0.19,0.09 -0.02,0.03 -0.05,0.06 -0.06,0.08 -0.01,0.03 -0.04,0.06 -0.05,0.09 -0.03,0.04 -0.06,0.07 -0.08,0.11 -0.02,0.04 -0.05,0.08 -0.08,0.12 -0.05,0.08 -0.68,0.94 -1.77,1.05 -0.04,0.01 -0.07,0 -0.12,0 -0.14,0.02 -4.14,-0.39 -4.22,-0.38 -0.02,0 -0.38,-0.09 -0.39,-0.09 l 0.06,0.39 c 0.01,0 0.36,0.1 0.37,0.1 0.11,-0.03 1.78,0.47 1.88,0.45 0.01,0 0.01,0.01 0.01,0.01 0.04,0.04 2.09,0.8 2.11,0.83 0.01,0 0.01,0.01 0.01,0.01 -0.02,0.02 -0.03,0.03 -0.05,0.05 0.03,0.06 0.1,0.03 0.15,0.07 -0.06,0.04 -0.12,0.07 -0.16,0.06 -0.13,-0.05 -0.27,-0.02 -0.41,-0.05 -0.02,0 -0.04,0.01 -0.06,0.01 0.05,0.05 0.11,0.06 0.15,0.1 0.03,0.04 0.09,0.03 0.14,0.06 0.05,0.02 0.61,0.37 0.7,0.44 0.02,0.02 0.05,0.03 0.08,0.03 0.12,0 0.26,0 0.4,-0.01 0.08,0 0.15,0.02 0.22,0.06 0.05,0.03 0.1,0.09 0.16,0.04 0.01,0 0.03,0 0.03,0 0.03,0.01 0.91,0.43 1.72,-0.1 0.51,-0.33 1.03,-1.13 1.03,-1.15 0.03,-0.01 0.59,-1.13 0.65,-1.18 0.01,-0.01 0.04,-0.01 0.05,0 0.05,0.05 0.13,0.08 0.2,0.08 0.02,0 0.04,0.01 0.05,0.03 0.02,0.01 4.04,0.23 4.38,0.31 0.01,0.01 -0.01,0 0,0 z m -4.77,-1.76 -0.5,0.64 c -0.35,0.11 -1.3,-0.07 -1.3,-0.08 0.02,0 -0.75,-0.14 -0.58,-0.3 0.05,-0.05 2.63,-1.62 3.02,-1.68 0.15,-0.02 -0.12,0.67 -0.64,1.42"
   id="path28"
   style="stroke-width:1.01427" />
	</g>
	<g
   id="g34"
   style="stroke-width:1.01427"
   transform="matrix(1.0999999,0,0,1.0999999,-31.130983,-17.134989)">
		<path
   class="st1"
   d="m 414.88,369.34 c -0.36,-0.67 -1.17,-0.59 -1.37,0.03 -0.33,0.96 0.15,0.81 -0.8,1.51 -0.38,0.28 -0.86,0.82 -1.2,1 -1.06,0.55 -1.54,0.95 -1.54,0.95 -0.09,-0.78 0.26,-2.43 0.55,-2.81 1.12,-1.46 0.5,-0.27 1.37,-2.16 0.51,-1.13 0.95,-2.35 1.04,-3.66 0.05,-0.88 0.28,-1.54 0.3,-2.21 0.04,-1.07 -0.86,-3.1 -1.69,-3.34 -0.25,1 -0.17,2.47 -0.24,3.55 -0.09,1.42 -0.41,2.04 -0.58,3.27 -0.16,1.05 -1.35,4.2 -1.72,4.73 -0.3,0.44 -0.23,0.35 -0.53,0.42 -0.57,-1.13 0.39,-1.32 0.82,-1.88 0.25,-0.88 0.01,-1.51 -0.75,-1.69 -0.88,-0.21 -1.31,0.21 -1.66,0.72 -0.46,0.65 -0.82,0.81 -1.28,1.21 -0.6,0.5 -0.63,1.09 -1.44,1.09 -0.25,-0.49 0,-0.29 -0.42,-1.2 -0.23,-0.54 -0.07,-0.65 0.17,-1.25 0.31,-0.76 0.08,-0.54 0,-1.21 -0.06,-0.53 0.09,-1.09 0,-1.58 l -0.2,-0.62 c -0.56,-1.58 -2.54,-1.36 -3.29,-0.73 l -0.3,0.26 c -0.25,0.2 -0.1,0.04 -0.32,0.24 -1.29,1.19 -1.45,2.02 -2.31,2.7 -0.68,0.54 -0.83,0.98 -2.63,2.35 -0.53,0.41 -1.61,1.12 -1.81,1.66 0.51,-0.05 0.31,-0.13 0.77,-0.17 0.93,-0.09 0.38,0.11 0.67,0.26 l 1.72,0.17 c 0.97,-0.09 2.06,-0.78 2.72,-0.76 0.12,0 0.17,-0.01 0.19,-0.03 -0.14,-0.1 0.05,-0.04 0,0 0.04,0.03 0.08,0.07 0.18,0.12 -1.68,1.06 -0.32,0.86 -1.97,1.75 -0.79,0.41 -0.65,0.22 -1.36,0.16 -0.37,-0.03 -2.01,0.9 -2.48,1.12 -0.53,0.25 -2.18,0.92 -2.69,0.96 -0.91,0.09 -1,-0.16 -1.6,-0.36 -1.63,1.27 -0.62,2.47 -0.02,2.61 1.56,0.36 4.96,-1.42 6.29,-1.99 0.48,-0.2 0.96,-0.52 1.36,-0.69 1.06,-0.45 1.06,-0.38 1.36,-0.16 -0.21,0.48 -1.39,2.06 -1.81,2.32 -0.57,0.34 -0.71,0.32 -1.05,1.05 -0.25,0.58 -0.52,0.99 -0.43,1.69 0.42,0.45 0.84,0.83 1.44,0.89 0.97,0.08 0.85,-0.56 1.57,-0.78 0.3,0.63 0.26,1.43 0.6,1.91 0.39,0.56 1.5,0.64 1.93,0.18 l 2.28,-6.18 c 0.24,-0.39 0.04,0.22 0.24,-0.5 0.38,-1.43 0.8,-1.33 2.13,-2.75 0.31,-0.34 1.03,-1.06 1.68,-0.99 -0.03,1.38 -0.93,1.85 -1.32,3.22 -0.44,1.53 -1.53,0.77 -1.36,3.13 1.04,0.42 0.99,0.69 1.84,-0.06 0.41,-0.37 1.2,-0.94 1.89,-0.78 0.31,1.01 -0.78,4.1 -1.13,5.36 -0.59,2.16 0.33,0.38 -1.16,3.47 -0.85,1.75 -1.01,2.28 0.01,2.92 0.64,0.39 2.21,0.71 2.45,-1.47 l 0.31,-4.43 c 0.08,-0.68 1.62,-2.9 1.42,-5.86 -0.1,-1.63 1.04,-1.83 2.92,-2.86 1.52,-0.84 3.23,-2.03 2.24,-3.82 m -7.32,4.39 c -0.08,-0.22 -0.15,-0.44 -0.03,-0.73 0.14,-0.35 0.28,-0.34 0.69,-0.36 -0.15,0.51 -0.11,1.05 -0.66,1.09"
   id="path32"
   style="stroke-width:1.01427" />
	</g>
	<g
   id="g40"
   style="stroke-width:1.01427"
   transform="matrix(1.0999999,0,0,1.0999999,-31.130983,-17.134989)">
		<path
   class="st1"
   d="m 385.63,363.05 c -0.95,-1.98 -2.89,-2.2 -4.7,-3.1 -0.86,-0.43 -0.54,-0.6 -1.25,-0.81 -0.32,-0.09 -0.88,0.03 -1.29,0.03 -1.76,-0.03 -5.74,-1.48 -7.64,-1.99 -1.35,-0.36 -4.36,-1.23 -5.49,-1.2 0,0 -0.73,0.14 -0.92,0.3 -0.35,0.29 -0.09,1.26 -0.09,1.26 0.71,0.57 3.55,1.67 4.58,1.68 l 4.57,0.96 c 0.77,0.22 0.8,0.01 1.4,0.02 0.42,0.01 1.1,0.16 1.51,0.25 -0.44,0.69 -0.81,0.58 -1.46,0.78 -0.7,0.21 -0.98,0.39 -1.59,0.58 l -2.57,0.23 c -0.26,-0.03 -0.3,-0.07 -0.53,-0.1 -0.6,-0.1 -0.12,-0.05 -0.52,-0.05 -1.02,0 -2.27,0.15 -3.52,0.06 -2.34,-0.17 -2.03,-0.84 -2.85,1.5 3.61,3.64 3.77,1.26 5.27,2.29 0.15,0.89 -0.53,0.43 0.39,2.28 1.1,2.23 2.31,1.39 4.54,1.11 1.02,-0.12 1.38,-0.4 2.29,-0.78 2.29,-0.96 4.53,-0.92 5.16,-2.98 0.24,-0.77 0.26,-0.59 -0.07,-1.24 -0.28,-0.55 -0.93,-1.76 -0.77,-2.28 2.87,0.57 4.38,4.02 5.55,1.2 m -8.42,1.36 -0.54,0.33 c -0.53,0.35 -0.11,0.18 -0.75,0.37 -0.03,0.01 -0.09,0.01 -0.12,0.02 -0.98,0.26 -0.7,0.59 -2.23,0.55 -0.48,-0.01 -0.6,-0.05 -1.3,-0.58 l -0.23,-0.22 c 0.77,-0.89 0.39,0.15 2.97,-0.26 0.75,-0.11 0.65,-0.27 1.36,-0.5 1.44,-0.5 0.53,-0.58 1.39,-0.47 0.03,0.54 -0.15,0.53 -0.55,0.76"
   id="path36"
   style="stroke-width:1.01427" />
		<path
   class="st1"
   d="m 376.29,353.66 c 0.03,1.15 0.04,1.43 1.06,2.33 1.45,1.3 3.05,3.77 4.42,3.54 1.13,-0.18 1.61,-1.09 1.69,-2.14 0.08,-0.95 -0.38,-1.55 -0.67,-2.44 -0.32,-1 -1.05,-1.32 -1.85,-2.09 -1.46,-1.41 -2.52,-1.75 -3.93,-0.65 z"
   id="path38"
   style="stroke-width:1.01427" />
	</g>
</g>
</svg>
