<?xml version="1.0" encoding="UTF-8"?>
<svg xmlns="http://www.w3.org/2000/svg" xmlns:xlink="http://www.w3.org/1999/xlink" width="252pt" height="252pt" viewBox="0 0 252 252" version="1.1">
<g id="surface1">
<path style=" stroke:none;fill-rule:nonzero;fill:rgb(0%,31.764706%,55.686275%);fill-opacity:1;" d="M 170.734375 195.035156 C 170.882812 194.988281 170.996094 194.957031 171.101562 194.957031 C 171.363281 194.957031 171.578125 194.976562 171.816406 195 C 171.816406 195.21875 171.761719 195.570312 171.660156 195.796875 L 171.828125 195.867188 L 171.648438 195.820312 C 171.636719 195.878906 171.613281 195.933594 171.601562 195.980469 C 171.304688 195.742188 170.953125 195.433594 170.792969 195.160156 C 170.769531 195.113281 170.746094 195.082031 170.734375 195.035156 M 174.609375 192.128906 L 174.792969 192.140625 C 174.863281 191.035156 176.628906 189.164062 177.496094 188.207031 C 177.597656 188.117188 177.632812 188.046875 177.722656 187.992188 C 177.789062 187.957031 177.871094 187.933594 178.019531 187.96875 C 178.210938 188.046875 178.328125 188.164062 178.40625 188.300781 C 178.53125 188.503906 178.542969 188.800781 178.519531 189.132812 C 178.496094 189.710938 178.429688 190.316406 178.382812 190.851562 L 178.371094 190.863281 L 178.382812 190.886719 C 178.496094 191.867188 178.90625 193.859375 177.960938 194.351562 C 177.90625 194.386719 177.859375 194.40625 177.789062 194.429688 C 177.496094 194.191406 177.230469 193.953125 176.980469 193.703125 L 176.9375 193.667969 L 176.890625 193.65625 C 176.664062 193.621094 176.457031 193.644531 176.296875 193.609375 C 176.136719 193.554688 175.832031 193.417969 175.535156 193.222656 C 175.214844 193.039062 174.988281 192.824219 174.871094 192.640625 C 174.863281 192.617188 174.851562 192.597656 174.851562 192.574219 L 174.839844 192.550781 L 174.828125 192.539062 L 174.828125 192.527344 C 174.769531 192.449219 174.769531 192.3125 174.792969 192.140625 Z M 175.933594 195.296875 L 176.082031 195.207031 L 176.433594 195.082031 C 176.503906 195.125 176.570312 195.171875 176.671875 195.230469 C 176.683594 195.375 176.742188 195.480469 176.742188 195.535156 C 176.695312 195.671875 176.605469 195.777344 176.492188 195.84375 C 176.367188 195.925781 176.195312 195.945312 175.976562 195.878906 C 175.875 195.660156 175.886719 195.535156 175.933594 195.296875 M 165.09375 193.335938 L 164.910156 193.449219 L 165.171875 193.609375 C 165.574219 193.851562 165.984375 194.125 166.394531 194.363281 C 167.363281 195.101562 168.59375 196.027344 169.242188 197.132812 C 169.242188 197.121094 169.242188 197.132812 169.253906 197.144531 C 169.355469 197.335938 169.492188 197.519531 169.59375 197.703125 C 169.789062 198.042969 169.902344 198.351562 169.753906 198.636719 L 169.742188 198.648438 L 169.734375 198.660156 C 168.730469 198.589844 167.828125 197.839844 166.484375 198.613281 C 166.324219 198.703125 166.175781 198.808594 166.003906 198.945312 L 165.960938 198.980469 L 165.9375 199.035156 C 165.925781 199.058594 165.890625 199.171875 165.949219 199.253906 C 165.949219 199.261719 165.960938 199.273438 165.984375 199.296875 L 166.003906 199.332031 L 166.050781 199.34375 C 166.929688 199.652344 168.546875 200.515625 169.140625 201.394531 C 169.253906 201.589844 169.332031 201.828125 169.46875 202.054688 C 169.585938 202.25 169.742188 202.453125 169.996094 202.589844 L 170.015625 202.601562 L 170.050781 202.613281 C 170.425781 202.671875 170.816406 202.738281 171.191406 202.796875 L 171.28125 202.820312 L 171.351562 202.75 C 171.535156 202.558594 171.523438 202.316406 171.488281 202.078125 C 171.375 201.359375 170.984375 200.378906 171.542969 199.71875 C 171.921875 199.546875 172.25 199.671875 172.71875 199.628906 L 172.753906 199.617188 L 172.785156 199.605469 C 172.902344 199.527344 172.921875 199.46875 172.96875 199.457031 L 173.070312 199.398438 L 173.058594 199.285156 C 173.039062 199 173.003906 198.695312 172.980469 198.429688 L 172.980469 198.398438 L 172.96875 198.375 C 172.878906 198.179688 172.808594 197.929688 172.695312 197.679688 L 172.867188 197.304688 L 173.652344 195.59375 C 173.6875 195.582031 173.734375 195.570312 173.765625 195.546875 C 173.890625 195.617188 174.121094 195.765625 174.199219 195.914062 C 174.234375 195.980469 174.246094 196.027344 174.246094 196.082031 L 174.246094 196.105469 C 174.222656 196.164062 174.121094 196.289062 174.050781 196.355469 L 173.949219 196.472656 L 174.050781 196.621094 L 174.097656 196.6875 L 174.175781 196.699219 C 174.347656 196.722656 174.507812 196.664062 174.632812 196.628906 C 174.828125 196.871094 174.988281 197.085938 175.238281 197.316406 L 175.25 197.324219 L 175.261719 197.335938 C 175.535156 197.484375 176.023438 197.609375 176.011719 197.679688 L 176 197.703125 L 176 197.726562 C 175.957031 198.285156 175.214844 199.445312 174.644531 200.230469 C 174.554688 200.390625 174.484375 200.515625 174.417969 200.597656 L 174.382812 200.632812 C 173.164062 202.613281 171.933594 204.550781 170.691406 206.546875 C 170.246094 207.390625 168.648438 208.585938 169.320312 209.851562 C 169.34375 209.886719 169.367188 209.929688 169.402344 209.964844 L 169.4375 210.011719 L 169.492188 210.023438 C 170.121094 210.183594 170.769531 210.296875 171.417969 210.34375 C 171.851562 210.320312 172.25 210.113281 172.410156 210.207031 L 172.546875 210.25 L 172.640625 210.136719 C 173.550781 208.996094 173.253906 208.359375 173.414062 207.949219 C 174.109375 206.101562 175.144531 204.324219 176.386719 202.582031 C 176.695312 202.214844 176.96875 201.816406 177.277344 201.453125 C 177.789062 200.78125 178.316406 199.914062 179.101562 199.445312 C 179.160156 199.410156 179.214844 199.390625 179.273438 199.355469 C 179.285156 199.355469 179.285156 199.355469 179.285156 199.355469 C 179.351562 199.503906 179.386719 199.664062 179.386719 199.789062 C 179.398438 200.222656 179.113281 200.664062 178.988281 201.144531 C 178.851562 201.917969 178.578125 202.738281 178.304688 203.457031 C 178.167969 203.753906 177.777344 204.1875 177.769531 204.621094 C 177.789062 204.769531 177.835938 204.882812 177.894531 204.972656 C 177.960938 205.085938 178.03125 205.191406 178.085938 205.28125 C 178.132812 205.359375 178.144531 205.40625 178.15625 205.453125 L 178.15625 205.496094 C 178.15625 205.507812 178.15625 205.507812 178.144531 205.519531 C 177.984375 205.851562 177.21875 206.625 176.980469 206.96875 C 176.652344 207.550781 176.285156 208.128906 175.886719 208.632812 C 174.988281 209.714844 173.539062 210.582031 173.1875 211.902344 L 173.164062 212.007812 L 173.230469 212.074219 C 173.480469 212.3125 174.097656 212.460938 174.78125 212.554688 C 175.464844 212.632812 176.207031 212.632812 176.683594 212.359375 C 176.742188 212.335938 176.789062 212.300781 176.820312 212.257812 C 177.414062 211.710938 177.652344 210.921875 177.871094 210.375 C 178.167969 209.65625 178.964844 208.359375 179.726562 207.640625 C 179.773438 207.582031 179.84375 207.539062 179.921875 207.46875 C 180.117188 207.628906 180.320312 207.902344 180.570312 208.140625 C 180.789062 208.359375 180.960938 208.574219 181.085938 208.78125 C 181.359375 209.257812 181.371094 209.679688 181.210938 210.101562 C 181.027344 210.683594 180.433594 211.265625 179.695312 211.835938 C 179.613281 211.902344 179.511719 211.960938 179.410156 212.015625 C 179.054688 212.222656 178.632812 212.40625 178.234375 212.621094 C 178.085938 212.710938 177.9375 212.816406 177.800781 212.929688 C 177.734375 212.976562 177.6875 213.089844 177.699219 213.113281 L 177.699219 213.144531 L 177.640625 213.386719 L 177.894531 213.375 C 178.566406 213.328125 179.273438 213.019531 179.851562 213.03125 C 180.9375 213.03125 181.835938 212.996094 182.898438 212.996094 L 182.941406 212.996094 C 182.988281 212.976562 183.054688 212.976562 183.136719 212.929688 C 183.179688 212.90625 183.226562 212.859375 183.25 212.792969 C 183.625 211.949219 183.625 209.839844 182.929688 208.609375 C 182.851562 208.460938 182.761719 208.335938 182.65625 208.222656 C 182.132812 207.652344 181.484375 207.117188 181.128906 206.5 C 181.074219 206.410156 181.027344 206.308594 180.992188 206.214844 C 181.003906 206.148438 181.210938 205.851562 181.449219 205.632812 C 181.6875 205.382812 181.972656 205.144531 182.042969 205.109375 L 183.398438 204.324219 L 183.421875 204.300781 C 183.886719 203.742188 183.71875 203.058594 183.773438 202.601562 L 183.773438 202.582031 C 183.773438 202.488281 183.75 202.398438 183.707031 202.339844 C 183.558594 202.089844 183.285156 202.125 183.261719 202.113281 L 183.214844 202.113281 C 182.828125 202.125 182.464844 202.261719 182.132812 202.445312 C 181.90625 202.570312 181.699219 202.726562 181.507812 202.875 C 181.300781 203.046875 181.117188 203.195312 180.960938 203.332031 L 179.273438 204.3125 C 179.273438 204.3125 179.273438 204.3125 179.261719 204.3125 C 179.214844 204.300781 179.078125 204.1875 179.019531 204.085938 C 179 204.050781 178.988281 204.015625 178.988281 204.003906 C 178.988281 203.992188 178.976562 203.992188 178.976562 203.992188 C 179.203125 203.308594 180.011719 202.648438 180.421875 201.863281 C 180.492188 201.75 180.605469 201.589844 180.683594 201.429688 C 181.0625 200.527344 181.324219 199.664062 181.644531 198.820312 C 181.78125 198.421875 182.234375 197.472656 181.871094 196.789062 C 181.78125 196.640625 181.652344 196.515625 181.484375 196.425781 C 181.027344 196.128906 180.480469 196.253906 180.023438 196.515625 C 179.421875 196.882812 178.882812 197.496094 178.621094 197.90625 C 178.566406 198.03125 178.464844 198.125 178.40625 198.285156 C 177.597656 199.445312 176.59375 200.597656 175.613281 201.769531 C 175.273438 202.25 174.863281 202.71875 174.578125 203.230469 C 174.359375 203.527344 173.699219 204.632812 173.390625 204.800781 C 173.378906 204.800781 173.378906 204.800781 173.378906 204.800781 C 173.207031 204.324219 173.765625 203.570312 174.0625 203 L 175.238281 200.960938 L 177.117188 197.621094 C 177.242188 197.472656 177.496094 197.316406 177.777344 197.167969 C 177.9375 197.085938 178.132812 197.007812 178.316406 196.894531 C 178.578125 196.734375 178.828125 196.550781 178.988281 196.289062 C 180.058594 194.613281 179.625 192.46875 179.773438 190.726562 C 179.820312 190.03125 180.105469 187.761719 179.421875 186.566406 C 179.214844 186.214844 178.90625 185.941406 178.472656 185.882812 C 178.042969 185.8125 177.527344 185.949219 176.914062 186.316406 L 176.878906 186.339844 L 176.855469 186.363281 C 176.296875 187.066406 175.429688 189.699219 174.371094 190.796875 C 174.304688 190.28125 174.53125 189.632812 174.769531 188.949219 C 175.019531 188.171875 175.273438 187.332031 174.851562 186.578125 C 174.828125 186.554688 174.828125 186.53125 174.816406 186.519531 L 174.804688 186.507812 C 174.667969 186.316406 174.460938 186.28125 174.210938 186.234375 C 173.425781 186.109375 172.046875 186.203125 171.214844 186.566406 L 171.078125 186.625 L 171.089844 186.761719 C 171.144531 187.160156 171.511719 187.613281 171.636719 187.96875 L 171.648438 188.128906 L 171.773438 189.816406 C 171.816406 190.375 172 191.035156 172.011719 191.648438 C 172.023438 192.265625 171.886719 192.753906 171.328125 193.085938 C 171.101562 193.210938 170.792969 193.324219 170.394531 193.382812 C 170.269531 193.40625 170.222656 193.429688 170.152344 193.429688 C 169.300781 193.496094 168.59375 193.121094 167.667969 193.097656 C 167.246094 193.039062 166.871094 193.164062 166.507812 193.164062 C 166.140625 193.164062 165.664062 193.019531 165.152344 193.257812 L 164.96875 193.347656 Z M 144.246094 214.570312 C 144.144531 214.84375 144.15625 215.140625 144.234375 215.425781 C 144.644531 216.90625 146.824219 218.433594 147.585938 219.082031 C 147.804688 219.242188 147.953125 219.449219 148.214844 219.640625 C 148.40625 219.789062 148.667969 219.949219 149.011719 219.972656 C 149.25 219.984375 149.480469 219.960938 149.695312 219.90625 L 149.707031 219.90625 C 150.984375 219.5625 151.703125 218.242188 152.226562 217.683594 C 152.339844 217.523438 152.660156 217.273438 152.957031 217 C 153.238281 216.722656 153.523438 216.441406 153.558594 216.074219 L 153.570312 215.859375 L 153.367188 215.859375 C 152.964844 215.859375 152.648438 215.902344 152.28125 215.902344 L 152.28125 216.109375 L 152.269531 215.902344 C 151.988281 215.925781 151.722656 215.972656 151.460938 216.039062 C 150.902344 216.1875 150.390625 216.40625 149.878906 216.542969 C 149.535156 216.632812 149.195312 216.691406 148.828125 216.679688 C 148.488281 216.679688 148.101562 216.566406 147.679688 216.394531 C 146.605469 215.984375 145.535156 215.140625 144.839844 214.445312 L 144.761719 214.367188 L 144.417969 214.457031 L 144.316406 214.480469 Z M 140.601562 215.972656 C 140.941406 218.105469 140.328125 219.425781 139.210938 220.519531 C 138.035156 221.660156 136.292969 222.515625 134.582031 223.609375 L 134.515625 223.652344 L 134.503906 223.746094 C 134.492188 223.800781 134.433594 223.90625 134.480469 224.085938 L 134.515625 224.203125 L 134.628906 224.234375 C 135.335938 224.429688 136.222656 224.167969 136.90625 224.085938 C 137.160156 224.054688 137.386719 223.996094 137.625 223.9375 C 141.042969 223.039062 142.9375 219.894531 143.234375 217.203125 C 143.289062 215.824219 143.359375 214.445312 143.425781 213.121094 C 143.78125 212.757812 144.144531 212.394531 144.5 212.074219 L 144.507812 212.0625 L 144.519531 212.050781 C 144.863281 211.652344 145.488281 211.152344 146.105469 210.605469 L 145.96875 210.457031 L 146.105469 210.605469 C 147.027344 209.726562 148.191406 208.550781 148.441406 207.628906 L 148.453125 207.59375 L 148.453125 207.5625 C 148.453125 207.527344 148.441406 207.492188 148.441406 207.46875 C 148.292969 207.035156 147.816406 206.898438 147.289062 206.75 C 146.753906 206.625 146.140625 206.558594 145.660156 206.5 C 145.613281 206.5 144.601562 206.5 144.234375 206.5 L 144.191406 206.5 C 144.132812 206.511719 144.054688 206.582031 144.03125 206.648438 C 144.007812 206.71875 144.019531 206.761719 144.03125 206.796875 C 144.089844 206.980469 144.246094 207.152344 144.40625 207.402344 C 144.566406 207.628906 144.726562 207.878906 144.761719 208.003906 C 144.773438 208.039062 144.773438 208.0625 144.773438 208.0625 C 144.738281 208.449219 143.859375 209.417969 143.359375 209.886719 C 143.050781 207.59375 143.882812 205.507812 143.5625 203.183594 L 143.550781 203.105469 L 143.496094 203.058594 C 142.777344 202.453125 140.519531 201.632812 139.347656 201.863281 L 139.253906 201.886719 L 139.210938 201.964844 C 139.164062 202.054688 139.164062 202.113281 139.164062 202.160156 C 139.164062 202.167969 139.164062 202.167969 139.164062 202.179688 L 139.140625 202.203125 L 139.140625 202.261719 C 139.128906 202.558594 139.175781 202.863281 139.253906 203.160156 C 139.425781 203.789062 139.722656 204.425781 139.882812 205.054688 C 139.9375 205.28125 139.984375 205.507812 139.996094 205.726562 C 140.179688 208.039062 140.496094 210.308594 140.53125 212.542969 C 139.4375 213.714844 138.207031 214.867188 136.792969 215.847656 C 136.257812 216.257812 135.4375 216.382812 134.707031 216.863281 C 134.652344 216.882812 134.628906 216.917969 134.605469 216.929688 L 134.398438 216.988281 L 134.492188 217.203125 C 134.957031 218.207031 135.734375 219.664062 136.941406 219.402344 C 137.019531 219.378906 137.089844 219.355469 137.167969 219.324219 C 137.863281 218.992188 138.445312 218.46875 138.980469 217.785156 C 139.472656 217.144531 139.996094 216.554688 140.601562 215.972656 M 102.269531 214.933594 C 102.316406 214.730469 102.667969 214.296875 103.238281 213.40625 C 103.808594 212.519531 104.742188 211.9375 104.742188 211.9375 C 104.664062 212.234375 104.5625 212.234375 104.480469 212.460938 C 104.402344 212.691406 102.703125 214.867188 102.476562 215.003906 C 102.246094 215.152344 102.214844 215.152344 102.269531 214.933594 M 115.628906 205.203125 C 115.949219 204.78125 116.917969 204.6875 116.917969 204.6875 C 116.960938 205.179688 116.199219 205.519531 116.105469 205.589844 C 116.003906 205.65625 115.96875 205.792969 115.902344 205.917969 C 115.832031 206.046875 115.492188 206.113281 115.492188 206.113281 C 115.492188 206.113281 115.296875 205.613281 115.628906 205.203125 M 98.839844 218.742188 C 98.75 219.347656 98.441406 219.925781 98.40625 220.304688 C 98.394531 220.40625 98.613281 220.851562 99.042969 220.917969 C 100.082031 221.089844 100.09375 220.769531 100.824219 219.8125 C 101.394531 219.0625 101.949219 218.695312 102.488281 217.851562 C 103.011719 217.007812 103.195312 217.066406 103.332031 216.792969 C 103.46875 216.519531 103.511719 216.109375 103.84375 215.335938 C 104.171875 214.558594 104.699219 213.304688 104.867188 212.859375 C 105.050781 212.40625 105.269531 212.074219 105.5625 211.539062 C 105.871094 210.992188 106.441406 210.84375 106.875 210.820312 C 107.308594 210.796875 108.777344 211.402344 108.8125 211.617188 C 108.824219 211.664062 108.824219 211.800781 108.8125 211.960938 C 108.800781 212.109375 108.789062 212.1875 108.789062 212.300781 C 108.777344 212.828125 108.710938 212.976562 108.710938 212.976562 C 108.710938 212.976562 107.773438 213.132812 107.71875 213.417969 C 107.660156 213.703125 107.558594 213.945312 107.910156 214.089844 C 108.265625 214.238281 108.46875 214.433594 108.46875 214.433594 C 108.46875 214.433594 108.515625 214.765625 108.414062 215.300781 C 108.355469 215.574219 108.289062 215.5625 108.277344 215.628906 C 108.265625 215.722656 107.605469 215.765625 107.492188 215.824219 C 107.113281 216.039062 107.089844 216.585938 107.535156 217.113281 C 107.695312 217.304688 107.957031 217.136719 108.027344 217.339844 C 108.117188 217.636719 107.753906 218.035156 107.683594 218.113281 C 107.445312 218.421875 107.011719 218.890625 106.441406 219.003906 C 105.871094 219.117188 105.277344 219.335938 103.71875 218.992188 C 103.488281 218.945312 103.273438 219.164062 103.136719 219.402344 C 103.148438 219.574219 103.148438 219.769531 103.035156 219.984375 C 103.046875 220.007812 103.058594 220.03125 103.078125 220.042969 C 103.308594 220.257812 103.625 220.53125 103.808594 220.839844 C 103.980469 221.148438 103.808594 221.296875 104.4375 221.464844 C 105.335938 221.695312 105.554688 221.03125 106.292969 221.238281 C 107.035156 221.453125 106.328125 221.96875 106.246094 222.273438 C 106.167969 222.582031 105.152344 223.253906 105.277344 223.792969 C 105.394531 224.328125 105.382812 224.988281 105.449219 225.285156 C 105.519531 225.582031 105.917969 225.992188 105.972656 226.367188 C 106.03125 226.742188 106.773438 227.257812 107.089844 227.117188 C 107.410156 226.980469 108.585938 225.855469 108.960938 225.433594 C 109.335938 225 109.519531 224.714844 109.621094 224.339844 C 109.710938 223.960938 109.964844 220.738281 110.261719 220.566406 C 110.542969 220.40625 112.140625 220.394531 112.550781 220.257812 C 112.960938 220.121094 114.011719 220.03125 114.75 219.90625 C 115.480469 219.769531 115.867188 219.632812 116.128906 219.597656 C 116.378906 219.5625 116.824219 219.300781 117.167969 219.210938 C 117.519531 219.117188 118.148438 218.980469 118.363281 218.742188 C 118.582031 218.492188 118.773438 218.332031 118.796875 218.070312 C 118.820312 217.808594 118.660156 217.511719 118.488281 217.328125 C 118.214844 217.019531 117.929688 217.28125 117.304688 216.839844 C 116.675781 216.394531 115.9375 216.507812 115.671875 216.109375 C 115.410156 215.710938 114.011719 214.96875 113.917969 214.820312 C 113.816406 214.867188 113.917969 214.820312 113.871094 215.003906 C 113.871094 215.105469 114 215.378906 114.25 216.097656 C 114.558594 216.988281 114.945312 217.785156 114.671875 217.863281 C 114.167969 218.023438 113.292969 218.023438 113.050781 218.09375 C 112.824219 218.148438 112.621094 218.21875 112.367188 218.296875 C 112.105469 218.378906 111.925781 218.421875 111.683594 218.503906 C 111.445312 218.582031 111.34375 218.640625 111.082031 218.558594 C 110.808594 218.492188 110.523438 218.242188 110.417969 217.886719 C 110.316406 217.535156 110.328125 217.386719 110.683594 217.292969 C 111.035156 217.203125 111.890625 216.863281 111.945312 216.441406 C 112.015625 216.019531 111.855469 216.019531 111.683594 215.734375 C 111.515625 215.449219 110.75 216.324219 111.160156 214.808594 C 111.183594 214.742188 111.195312 214.570312 111.238281 214.546875 C 111.285156 214.46875 112.0625 214.492188 112.152344 214.46875 C 112.230469 214.445312 112.324219 214.421875 112.484375 214.386719 C 112.871094 214.296875 113.746094 214.101562 114.101562 213.839844 C 114.203125 213.761719 114.386719 213.238281 114.421875 213.15625 C 114.453125 213.042969 114.601562 212.816406 114.167969 212.597656 C 113.726562 212.382812 113.839844 212.644531 113.304688 212.746094 C 112.757812 212.847656 111.515625 212.894531 111.515625 212.894531 C 111.515625 212.894531 111.582031 212.496094 111.617188 212.121094 C 111.628906 212.027344 111.628906 211.914062 111.660156 211.824219 C 111.671875 211.800781 111.671875 211.789062 111.671875 211.789062 C 111.671875 211.789062 111.820312 211.402344 112.609375 210.820312 C 113.40625 210.226562 116.277344 209.667969 117.234375 209.53125 C 118.203125 209.394531 119.832031 209.191406 120.152344 209.15625 C 120.484375 209.132812 120.519531 208.710938 120.324219 208.246094 C 120.117188 207.765625 119.675781 207.960938 119.558594 208.039062 C 119.445312 208.121094 118.96875 208.003906 118.523438 207.992188 C 118.066406 207.992188 117.417969 208.121094 116.824219 208.222656 C 116.222656 208.324219 115.023438 208.609375 114.648438 208.632812 C 114.261719 208.667969 113.703125 208.882812 113.429688 208.941406 C 113.15625 208.996094 113.179688 208.894531 113.472656 208.484375 C 113.769531 208.074219 114.523438 208.0625 114.820312 208.0625 C 115.117188 208.0625 115.605469 207.847656 116.140625 207.605469 C 116.675781 207.367188 117.199219 206.992188 117.554688 206.683594 C 117.90625 206.375 118.75 205.75 118.855469 205.644531 C 118.957031 205.542969 119.414062 205.371094 119.890625 204.722656 C 120.371094 204.074219 120.152344 203.96875 119.9375 203.527344 C 119.730469 203.082031 119.105469 203.136719 118.808594 203.128906 C 118.511719 203.105469 117.78125 203.070312 117.703125 203.105469 C 117.613281 203.136719 117.40625 203.390625 117.132812 203.480469 C 116.871094 203.570312 116.484375 203.695312 116.347656 203.605469 C 116.210938 203.527344 116.425781 202.71875 116.503906 202.238281 C 116.585938 201.757812 116.105469 201.335938 115.640625 200.800781 C 115.171875 200.265625 114.589844 199.285156 113.792969 199.09375 C 112.984375 198.898438 112.402344 200.425781 112.207031 200.972656 C 112.027344 201.507812 111.855469 201.875 111.777344 202.285156 C 111.695312 202.695312 111.515625 202.785156 111.433594 202.945312 C 111.355469 203.105469 111.171875 203.925781 111.011719 204.359375 C 110.851562 204.78125 110.554688 204.996094 110.375 205.019531 C 110.191406 205.042969 110.125 205.316406 109.941406 205.496094 C 109.757812 205.679688 109.144531 205.929688 109.222656 206.226562 C 109.3125 206.535156 109.988281 206.148438 110.101562 206.160156 C 110.214844 206.171875 110.316406 206.511719 110.339844 206.59375 C 110.351562 206.671875 110.167969 207.140625 110.054688 207.6875 C 109.941406 208.222656 109.757812 209.304688 109.644531 209.648438 C 109.519531 209.988281 109.15625 209.863281 108.925781 209.921875 C 108.699219 209.964844 107.96875 210.125 107.890625 210.089844 C 107.820312 210.058594 107.753906 209.898438 107.855469 209.394531 C 107.957031 208.882812 107.570312 208.53125 107.308594 208.40625 C 107.035156 208.277344 106.636719 207.867188 106.523438 207.71875 C 106.394531 207.574219 105.917969 207.21875 105.722656 206.921875 C 105.53125 206.625 105.941406 206.035156 105.984375 205.816406 C 106.042969 205.601562 107.089844 204.710938 107.226562 204.621094 C 107.363281 204.527344 107.660156 204.632812 107.785156 204.507812 C 107.921875 204.382812 108.058594 204.382812 108.367188 204.382812 C 108.675781 204.371094 109.585938 204.710938 109.769531 204.527344 C 110.066406 204.210938 110.054688 204.289062 110.292969 204.152344 C 110.542969 204.015625 110.429688 203.753906 110.566406 203.207031 C 110.703125 202.648438 109.792969 201.726562 109.394531 201.394531 C 108.984375 201.0625 108.847656 200.789062 108.617188 200.621094 C 108.402344 200.449219 107.695312 199.925781 107.410156 199.664062 C 107.125 199.398438 106.589844 198.921875 106.214844 199.058594 C 105.828125 199.195312 106.078125 199.617188 106.488281 200.449219 C 106.898438 201.292969 106.648438 201.578125 106.511719 202.136719 C 106.441406 202.433594 106.375 202.238281 106.667969 202.648438 C 106.964844 203.058594 107.011719 203.492188 106.785156 204.015625 C 106.542969 204.539062 105.691406 205.566406 105.496094 205.738281 C 105.300781 205.898438 104.835938 206.011719 104.835938 206.011719 C 104.664062 206.570312 104.058594 206.695312 103.980469 206.84375 C 103.890625 206.992188 103.898438 207.652344 104.027344 208.425781 C 104.152344 209.191406 103.921875 210.5 103.761719 211.070312 C 103.605469 211.640625 102.804688 212.882812 102.554688 213.238281 C 102.292969 213.589844 101.746094 214.320312 100.960938 215.597656 C 100.171875 216.871094 99.957031 217.101562 99.820312 217.054688 C 99.671875 217.019531 99.203125 217.546875 99.035156 217.738281 C 98.816406 217.957031 98.941406 218.136719 98.839844 218.742188 M 129.214844 152.714844 C 129.226562 153.230469 129.464844 153.695312 129.953125 154.105469 C 130.445312 154.503906 131.175781 154.777344 132.019531 154.777344 C 132.851562 154.777344 133.578125 154.503906 134.082031 154.105469 C 134.570312 153.695312 134.820312 153.230469 134.820312 152.714844 C 134.820312 152.214844 134.570312 151.734375 134.082031 151.324219 C 133.578125 150.9375 132.851562 150.652344 132.019531 150.652344 L 132.007812 150.652344 C 131.164062 150.652344 130.445312 150.925781 129.945312 151.324219 C 129.464844 151.734375 129.214844 152.214844 129.214844 152.714844 M 120.949219 152.648438 C 120.949219 152.167969 120.710938 151.703125 120.175781 151.28125 C 119.640625 150.871094 118.84375 150.585938 117.917969 150.585938 C 117.007812 150.585938 116.199219 150.871094 115.671875 151.28125 C 115.136719 151.691406 114.898438 152.15625 114.898438 152.648438 C 114.898438 153.125 115.136719 153.59375 115.671875 154.015625 C 116.199219 154.414062 117.007812 154.710938 117.917969 154.710938 C 118.84375 154.710938 119.640625 154.425781 120.175781 154.015625 C 120.710938 153.59375 120.949219 153.125 120.949219 152.648438 M 114.683594 159.65625 C 114.683594 160.136719 114.933594 160.625 115.503906 161.058594 C 116.074219 161.480469 116.9375 161.789062 117.929688 161.789062 C 118.921875 161.789062 119.789062 161.480469 120.359375 161.058594 C 120.929688 160.625 121.179688 160.136719 121.179688 159.65625 C 121.179688 159.167969 120.929688 158.6875 120.359375 158.253906 C 119.789062 157.832031 118.921875 157.527344 117.929688 157.527344 L 117.917969 157.527344 C 116.9375 157.527344 116.074219 157.832031 115.515625 158.253906 C 114.933594 158.6875 114.683594 159.167969 114.683594 159.65625 M 92.332031 114.535156 C 92.332031 114.5 92.492188 112.347656 92.914062 109.292969 C 93.347656 106.226562 94.042969 102.269531 95.160156 98.601562 C 95.910156 96.148438 96.84375 93.835938 98.085938 91.945312 C 98.589844 91.203125 99.136719 90.519531 99.761719 89.9375 C 98.886719 85.320312 97.882812 82.941406 97.835938 82.847656 C 97.472656 82.027344 97.847656 81.070312 98.667969 80.707031 C 99.488281 80.339844 100.445312 80.71875 100.8125 81.539062 C 100.890625 81.71875 104.550781 90.15625 104.265625 106.441406 C 104.117188 114.578125 103 124.6875 99.945312 136.691406 C 99.75 137.433594 99.078125 137.933594 98.347656 137.921875 C 98.222656 137.921875 98.097656 137.898438 97.972656 137.875 C 97.105469 137.660156 96.570312 136.769531 96.800781 135.90625 C 99.785156 124.128906 100.878906 114.285156 101.015625 106.394531 C 101.097656 101.699219 100.84375 97.699219 100.445312 94.40625 C 100.082031 95.019531 99.730469 95.714844 99.398438 96.492188 C 98.496094 98.578125 97.78125 101.128906 97.222656 103.636719 C 96.105469 108.664062 95.671875 113.542969 95.589844 114.578125 C 95.578125 114.714844 95.578125 114.785156 95.578125 114.785156 C 95.511719 115.683594 94.804688 116.378906 93.960938 116.378906 C 93.914062 116.378906 93.882812 116.378906 93.835938 116.378906 C 92.9375 116.3125 92.261719 115.480469 92.332031 114.535156 M 105.269531 149.457031 C 105.269531 148.703125 105.929688 148.089844 106.738281 148.089844 C 107.546875 148.089844 108.207031 148.703125 108.207031 149.457031 L 108.207031 163.15625 C 108.207031 163.917969 107.546875 164.535156 106.738281 164.535156 C 105.929688 164.535156 105.269531 163.917969 105.269531 163.15625 Z M 111.742188 159.65625 C 111.742188 158.210938 112.550781 156.933594 113.679688 156.101562 L 113.746094 156.066406 C 112.699219 155.246094 111.96875 154.027344 111.96875 152.648438 C 111.96875 151.234375 112.734375 149.992188 113.816406 149.160156 C 114.921875 148.316406 116.359375 147.847656 117.929688 147.847656 C 119.492188 147.847656 120.941406 148.328125 122.035156 149.160156 C 123.128906 149.992188 123.890625 151.234375 123.890625 152.648438 C 123.890625 154.027344 123.160156 155.234375 122.113281 156.066406 L 122.171875 156.113281 C 123.296875 156.945312 124.109375 158.222656 124.109375 159.667969 C 124.109375 161.117188 123.296875 162.390625 122.171875 163.222656 C 121.03125 164.066406 119.550781 164.546875 117.917969 164.546875 C 116.300781 164.535156 114.808594 164.066406 113.667969 163.222656 C 112.539062 162.382812 111.742188 161.105469 111.742188 159.65625 M 125.589844 114.714844 C 125.589844 111.730469 125.738281 109.199219 125.953125 107.046875 C 126.046875 106.15625 126.84375 105.507812 127.734375 105.597656 C 128.621094 105.691406 129.269531 106.488281 129.179688 107.375 C 128.976562 109.417969 128.839844 111.84375 128.839844 114.714844 C 128.839844 118.96875 129.132812 124.1875 129.964844 130.546875 C 130.082031 131.4375 129.453125 132.257812 128.5625 132.371094 C 128.496094 132.382812 128.425781 132.382812 128.359375 132.382812 C 127.550781 132.382812 126.855469 131.789062 126.753906 130.96875 C 125.898438 124.472656 125.589844 119.117188 125.589844 114.714844 M 126.285156 152.714844 C 126.320312 149.902344 129.007812 147.917969 132.019531 147.917969 C 134.355469 147.917969 136.496094 149.125 137.351562 150.984375 C 137.410156 151.0625 137.453125 151.144531 137.5 151.222656 C 137.558594 151.335938 138.035156 152.429688 138.035156 154.105469 C 138.082031 156.820312 136.589844 161.011719 130.480469 164.339844 C 130.25 164.464844 129.988281 164.535156 129.738281 164.535156 C 129.238281 164.535156 128.746094 164.296875 128.472656 163.863281 C 128.0625 163.203125 128.289062 162.371094 128.984375 161.980469 C 132.007812 160.285156 133.554688 158.597656 134.332031 157.105469 C 133.613281 157.378906 132.828125 157.527344 132.007812 157.527344 C 129.007812 157.515625 126.320312 155.542969 126.285156 152.714844 M 138.949219 132.371094 C 138.136719 132.371094 137.441406 131.777344 137.339844 130.957031 C 136.496094 124.472656 136.1875 119.117188 136.1875 114.714844 C 136.1875 111.730469 136.335938 109.199219 136.554688 107.046875 C 136.644531 106.15625 137.441406 105.507812 138.332031 105.597656 C 139.222656 105.691406 139.871094 106.488281 139.78125 107.375 C 139.574219 109.417969 139.4375 111.84375 139.4375 114.714844 C 139.4375 118.96875 139.734375 124.1875 140.566406 130.546875 C 140.679688 131.4375 140.054688 132.257812 139.164062 132.371094 C 139.085938 132.371094 139.015625 132.371094 138.949219 132.371094 M 139.746094 162.402344 C 139.984375 161.675781 140.816406 161.277344 141.582031 161.503906 C 142.105469 161.664062 142.8125 161.730469 143.65625 161.777344 C 143.792969 161.789062 143.929688 161.789062 144.078125 161.789062 C 145.113281 161.800781 146.195312 161.550781 146.9375 161.136719 C 147.691406 160.707031 148.078125 160.226562 148.191406 159.507812 C 148.203125 159.371094 148.214844 159.234375 148.214844 159.121094 C 148.179688 158.140625 147.792969 157.777344 146.972656 157.320312 C 146.152344 156.910156 144.921875 156.738281 144.03125 156.738281 C 143.632812 156.738281 143.300781 156.773438 143.175781 156.808594 C 142.71875 156.96875 142.21875 156.910156 141.820312 156.660156 C 141.421875 156.398438 141.171875 155.976562 141.179688 155.507812 L 141.25 149.707031 C 141.273438 148.953125 141.921875 148.339844 142.71875 148.339844 L 148.511719 148.339844 C 149.320312 148.339844 149.980469 148.953125 149.980469 149.71875 C 149.980469 150.480469 149.320312 151.085938 148.511719 151.085938 L 144.167969 151.085938 L 144.132812 153.992188 C 145.339844 154.015625 146.878906 154.199219 148.316406 154.882812 C 149.785156 155.542969 151.175781 157.046875 151.144531 159.121094 C 151.144531 159.347656 151.132812 159.601562 151.097656 159.851562 C 150.882812 161.527344 149.753906 162.792969 148.417969 163.507812 C 147.097656 164.238281 145.546875 164.535156 144.066406 164.546875 C 143.859375 164.546875 143.667969 164.535156 143.449219 164.535156 C 142.570312 164.476562 141.648438 164.410156 140.703125 164.136719 C 139.929688 163.886719 139.507812 163.121094 139.746094 162.402344 M 151.371094 138.082031 C 150.46875 138.082031 149.742188 137.351562 149.742188 136.464844 L 149.742188 116.460938 L 144.625 116.460938 C 143.699219 116.460938 142.960938 115.730469 142.960938 114.832031 C 142.960938 113.929688 143.699219 113.199219 144.625 113.199219 L 149.742188 113.199219 L 149.742188 106.886719 L 144.625 106.886719 C 143.699219 106.886719 142.960938 106.15625 142.960938 105.257812 C 142.960938 104.355469 143.699219 103.625 144.625 103.625 L 149.742188 103.625 L 149.742188 97.277344 L 144.625 97.277344 C 143.699219 97.277344 142.960938 96.546875 142.960938 95.648438 C 142.960938 94.746094 143.699219 94.03125 144.625 94.03125 L 146.640625 94.03125 C 146.675781 93.503906 146.699219 92.96875 146.699219 92.433594 C 146.699219 89.890625 146.253906 86.996094 144.863281 82.835938 C 144.578125 81.984375 145.035156 81.046875 145.890625 80.761719 C 146.742188 80.476562 147.65625 80.933594 147.953125 81.789062 C 149.421875 86.175781 149.957031 89.480469 149.957031 92.433594 C 149.957031 92.980469 149.933594 93.503906 149.902344 94.03125 L 152.75 94.03125 C 152.714844 93.503906 152.691406 92.980469 152.691406 92.433594 C 152.691406 89.480469 153.230469 86.175781 154.699219 81.789062 C 154.984375 80.933594 155.90625 80.464844 156.761719 80.761719 C 157.617188 81.046875 158.074219 81.984375 157.789062 82.835938 C 156.398438 86.996094 155.953125 89.890625 155.953125 92.433594 C 155.953125 92.980469 155.976562 93.503906 156.011719 94.03125 L 158.027344 94.03125 C 158.949219 94.03125 159.691406 94.757812 159.691406 95.648438 C 159.691406 96.546875 158.949219 97.277344 158.027344 97.277344 L 153.011719 97.277344 L 153.011719 103.625 L 158.027344 103.625 C 158.949219 103.625 159.691406 104.355469 159.691406 105.257812 C 159.691406 106.15625 158.949219 106.886719 158.027344 106.886719 L 153.011719 106.886719 L 153.011719 113.199219 L 158.027344 113.199219 C 158.949219 113.199219 159.691406 113.929688 159.691406 114.832031 C 159.691406 115.730469 158.949219 116.460938 158.027344 116.460938 L 153.011719 116.460938 L 153.011719 136.464844 C 152.988281 137.363281 152.261719 138.082031 151.371094 138.082031 M 141.855469 92.683594 C 141.855469 94.738281 141.613281 96.605469 141.308594 98.417969 C 141.171875 99.203125 140.484375 99.761719 139.710938 99.761719 C 139.621094 99.761719 139.527344 99.75 139.425781 99.738281 C 138.539062 99.582031 137.957031 98.75 138.105469 97.859375 C 138.402344 96.148438 138.605469 94.484375 138.605469 92.683594 C 138.605469 89.984375 138.148438 86.90625 136.769531 82.792969 C 136.484375 81.9375 136.941406 81.023438 137.796875 80.730469 C 138.652344 80.445312 139.5625 80.898438 139.859375 81.753906 C 141.328125 86.121094 141.867188 89.609375 141.855469 92.683594 M 136.566406 92.457031 C 136.566406 94.257812 136.371094 95.921875 136.109375 97.574219 C 135.835938 99.238281 135.496094 100.890625 135.175781 102.726562 C 134.640625 105.816406 134.136719 109.507812 134.136719 114.761719 C 134.136719 120.027344 134.640625 126.855469 136.121094 136.121094 C 136.257812 137.011719 135.652344 137.84375 134.777344 137.980469 C 134.683594 137.988281 134.605469 138 134.515625 138 C 133.726562 138 133.042969 137.433594 132.90625 136.632812 C 131.402344 127.230469 130.890625 120.234375 130.890625 114.761719 C 130.890625 109.3125 131.414062 105.371094 131.972656 102.167969 C 132.304688 100.277344 132.644531 98.625 132.894531 97.0625 C 133.144531 95.5 133.316406 94.03125 133.316406 92.457031 C 133.316406 89.847656 132.871094 86.917969 131.480469 82.792969 C 131.199219 81.9375 131.652344 81.023438 132.507812 80.730469 C 133.363281 80.445312 134.273438 80.898438 134.570312 81.753906 C 136.03125 86.109375 136.566406 89.460938 136.566406 92.457031 M 131.265625 92.683594 C 131.265625 94.738281 131.027344 96.605469 130.71875 98.417969 C 130.582031 99.203125 129.898438 99.761719 129.121094 99.761719 C 129.03125 99.761719 128.941406 99.75 128.839844 99.738281 C 127.949219 99.582031 127.355469 98.75 127.515625 97.859375 C 127.8125 96.148438 128.015625 94.484375 128.015625 92.683594 C 128.015625 89.984375 127.5625 86.90625 126.183594 82.792969 C 125.898438 81.9375 126.351562 81.023438 127.207031 80.730469 C 128.0625 80.445312 128.976562 80.898438 129.269531 81.753906 C 130.730469 86.121094 131.265625 89.609375 131.265625 92.683594 M 119.902344 114.535156 C 119.96875 115.480469 119.296875 116.3125 118.398438 116.378906 C 118.351562 116.378906 118.316406 116.378906 118.273438 116.378906 C 117.429688 116.378906 116.722656 115.695312 116.652344 114.785156 C 116.652344 114.785156 116.652344 114.761719 116.644531 114.703125 C 116.644531 114.648438 116.632812 114.558594 116.621094 114.429688 C 116.597656 114.191406 116.574219 113.839844 116.527344 113.40625 C 116.4375 112.515625 116.300781 111.261719 116.09375 109.792969 C 115.683594 106.851562 115 103.046875 113.976562 99.671875 C 113.359375 97.664062 112.621094 95.808594 111.777344 94.417969 C 111.375 97.722656 111.125 101.710938 111.207031 106.40625 C 111.34375 114.292969 112.4375 124.140625 115.421875 135.914062 C 115.640625 136.78125 115.117188 137.671875 114.25 137.886719 C 114.125 137.921875 114 137.933594 113.871094 137.933594 C 113.132812 137.945312 112.460938 137.453125 112.277344 136.703125 C 109.234375 124.6875 108.105469 114.589844 107.957031 106.453125 C 107.671875 90.167969 111.332031 81.730469 111.410156 81.550781 C 111.777344 80.730469 112.734375 80.351562 113.554688 80.71875 C 114.375 81.082031 114.75 82.039062 114.386719 82.859375 C 114.386719 82.859375 114.386719 82.859375 114.386719 82.871094 C 114.386719 82.882812 114.375 82.894531 114.363281 82.929688 C 114.339844 82.984375 114.304688 83.066406 114.261719 83.179688 C 114.167969 83.40625 114.042969 83.773438 113.882812 84.25 C 113.566406 85.21875 113.144531 86.691406 112.722656 88.648438 C 112.628906 89.058594 112.550781 89.492188 112.460938 89.949219 C 113.085938 90.53125 113.632812 91.203125 114.125 91.957031 C 114.839844 93.027344 115.445312 94.246094 115.980469 95.558594 C 117.042969 98.167969 117.816406 101.117188 118.386719 103.910156 C 119.550781 109.507812 119.902344 114.488281 119.902344 114.535156 Z M 78.484375 118.03125 C 78.769531 128.246094 80.933594 138.960938 86.496094 148.921875 C 99.488281 172.195312 121.007812 183.261719 126 185.5625 C 126 185.5625 149.363281 177.800781 165.492188 148.921875 C 171.066406 138.960938 173.21875 128.234375 173.515625 118.03125 C 166.679688 115.503906 162.085938 110.375 162.359375 104.664062 C 162.585938 100.011719 165.992188 96.046875 171.042969 93.710938 C 168.125 80.523438 163.738281 71.394531 163.738281 71.394531 C 144.078125 78.347656 126.011719 62.183594 126.011719 62.183594 C 126.011719 62.183594 107.921875 78.347656 88.273438 71.394531 C 88.273438 71.394531 83.875 80.523438 80.96875 93.710938 C 86.015625 96.046875 89.425781 100.011719 89.652344 104.664062 C 89.902344 110.375 85.300781 115.515625 78.484375 118.03125 M 84.035156 150.527344 C 78.164062 140.019531 75.90625 128.734375 75.613281 118.136719 L 75.554688 115.855469 L 77.558594 115.117188 C 80.511719 114.019531 82.90625 112.390625 84.46875 110.601562 C 86.039062 108.800781 86.769531 106.953125 86.78125 105.140625 C 86.78125 105.039062 86.78125 104.925781 86.769531 104.835938 C 86.691406 103.285156 86.109375 101.8125 84.945312 100.367188 C 83.785156 98.929688 82.027344 97.585938 79.828125 96.570312 L 77.617188 95.546875 L 78.175781 93.003906 C 81.171875 79.453125 85.652344 70.128906 85.722656 69.980469 L 86.847656 67.632812 L 89.175781 68.453125 C 92.789062 69.742188 96.34375 70.242188 99.761719 70.242188 L 99.84375 70.242188 C 112.550781 70.242188 123.183594 60.554688 124.257812 59.734375 C 124.324219 59.6875 124.335938 59.675781 124.335938 59.675781 L 126.011719 58.402344 L 127.6875 59.675781 C 127.6875 59.675781 127.699219 59.6875 127.777344 59.734375 C 128.847656 60.566406 139.527344 70.289062 152.269531 70.242188 C 155.679688 70.242188 159.234375 69.730469 162.847656 68.453125 L 165.171875 67.632812 L 166.300781 69.980469 C 166.371094 70.117188 170.425781 78.5625 173.402344 91.042969 C 173.472656 91.316406 173.527344 91.589844 173.597656 91.863281 C 173.617188 91.976562 173.640625 92.082031 173.675781 92.195312 C 173.710938 92.355469 173.746094 92.523438 173.789062 92.683594 C 173.8125 92.789062 173.835938 92.902344 173.859375 93.003906 L 174.121094 94.1875 L 174.417969 95.546875 L 172.195312 96.570312 C 169.996094 97.585938 168.238281 98.929688 167.078125 100.367188 C 165.914062 101.8125 165.332031 103.285156 165.253906 104.835938 C 165.242188 104.925781 165.242188 105.027344 165.242188 105.140625 C 165.242188 106.953125 165.972656 108.800781 167.554688 110.601562 C 169.117188 112.390625 171.523438 114.019531 174.472656 115.117188 L 176.480469 115.855469 L 176.433594 117.726562 L 176.421875 118.136719 C 176.125 128.734375 173.871094 140.019531 168 150.527344 C 154.449219 174.722656 132.449219 185.960938 127.164062 188.425781 L 126.035156 188.789062 L 124.90625 188.425781 C 119.582031 185.960938 97.585938 174.722656 84.035156 150.527344 M 80.945312 152.523438 C 95.191406 177.871094 117.804688 189.335938 123.457031 191.980469 L 126 192.984375 L 128.542969 191.980469 C 134.195312 189.324219 156.808594 177.871094 171.066406 152.523438 C 177.3125 141.328125 179.683594 129.351562 179.988281 118.25 L 180 118.023438 L 180.136719 113.121094 C 180.136719 113.121094 173.890625 111.207031 172.035156 109.964844 C 169.183594 108.058594 168.398438 105.828125 169.777344 102.921875 C 171.101562 100.148438 178.609375 97.8125 178.609375 97.8125 L 177.355469 92.113281 C 177.277344 91.738281 177.199219 91.375 177.105469 91.007812 C 174.019531 77.605469 169.652344 68.523438 169.503906 68.203125 L 166.972656 62.9375 L 161.730469 64.785156 C 158.515625 65.921875 155.347656 66.378906 152.28125 66.378906 C 140.625 66.480469 130.25 56.941406 129.785156 56.519531 L 126.023438 53.625 L 122.261719 56.519531 L 122.273438 56.519531 C 121.804688 56.941406 111.433594 66.480469 99.773438 66.378906 C 96.707031 66.378906 93.539062 65.910156 90.324219 64.785156 L 85.082031 62.9375 L 82.550781 68.203125 C 82.394531 68.535156 77.800781 78.109375 74.699219 92.113281 L 73.445312 97.8125 C 73.445312 97.8125 80.957031 100.140625 82.277344 102.921875 C 83.65625 105.828125 82.871094 108.058594 80.023438 109.964844 C 78.164062 111.207031 71.917969 113.121094 71.917969 113.121094 L 72.054688 118.261719 C 72.316406 129.351562 74.6875 141.328125 80.945312 152.523438 M 80.125 195.421875 C 80.328125 195.023438 80.671875 195.101562 80.671875 195.101562 C 80.671875 195.101562 80.773438 194.863281 81.003906 194.921875 C 81.550781 195.046875 81.480469 195.558594 81.390625 195.480469 C 81.296875 195.410156 80.125 195.421875 80.125 195.421875 M 62.777344 199.980469 C 62.164062 200.449219 63.679688 202.511719 65.089844 203.230469 C 66.503906 203.949219 70.515625 202.898438 71.484375 202.453125 C 72.453125 202.011719 75.074219 199.707031 76.054688 198.808594 C 77.035156 197.90625 78.359375 196.800781 78.359375 196.800781 C 78.359375 196.800781 76.363281 200.984375 75.601562 202.992188 C 74.835938 204.996094 74.632812 207.9375 75.28125 208.804688 C 75.929688 209.65625 77.742188 209.566406 78.085938 209.679688 C 78.425781 209.792969 80.214844 210.34375 81.140625 210.636719 C 82.0625 210.933594 82.3125 210.238281 81.902344 209.953125 C 81.492188 209.679688 81.378906 209.578125 80.570312 209.066406 C 79.773438 208.550781 78.6875 207.699219 78.621094 207.539062 C 78.550781 207.367188 78.550781 206.433594 78.574219 205.761719 C 78.597656 205.085938 78.597656 201.621094 78.746094 200.539062 C 78.90625 199.445312 79.625 196.789062 79.625 196.789062 C 79.625 196.789062 80.808594 196.710938 82.585938 196.984375 C 84.363281 197.246094 84.742188 196.960938 84.96875 196.757812 C 85.207031 196.550781 85.457031 196.277344 84.742188 196.105469 C 84.023438 195.933594 82.835938 194.964844 82.746094 194.886719 C 82.644531 194.808594 82.472656 194.589844 82.121094 194.589844 C 81.777344 194.589844 81.527344 194.25 81.527344 194.25 C 81.527344 194.25 81.4375 194.019531 81.628906 193.78125 C 81.824219 193.542969 81.71875 192.722656 81.71875 192.722656 C 82.074219 193.300781 84.011719 193.507812 84.832031 193.40625 C 85.640625 193.3125 87.226562 193.222656 87.863281 193.109375 C 88.511719 192.984375 88.753906 193.449219 89.652344 192.949219 C 90.234375 192.628906 89.824219 192.914062 90.394531 192.539062 C 90.953125 192.164062 90.828125 191.980469 90.644531 191.648438 C 90.460938 191.320312 89.871094 191.160156 89.378906 190.875 C 88.890625 190.601562 88.238281 190.28125 87.945312 190.121094 C 87.648438 189.972656 87.796875 190.078125 86.941406 189.972656 C 86.085938 189.871094 85.027344 189.449219 83.964844 189.175781 C 82.90625 188.902344 82.460938 188.664062 82.222656 188.480469 C 81.992188 188.300781 81.855469 188.082031 81.277344 188.300781 C 80.695312 188.515625 81.015625 189.289062 81.082031 189.691406 C 81.152344 190.078125 80.855469 190.214844 81.035156 190.554688 C 81.230469 190.886719 81.160156 191.207031 81.160156 191.207031 C 81.160156 191.207031 80.945312 191 80.582031 190.75 C 80.214844 190.5 79.929688 191.058594 79.703125 191.34375 C 79.488281 191.617188 78.835938 192.492188 78.550781 192.722656 C 78.265625 192.9375 77.980469 193.359375 77.6875 193.722656 C 77.402344 194.101562 76.410156 194.957031 76.410156 194.957031 C 75.78125 195.046875 71.28125 194.511719 70.503906 194.40625 C 69.730469 194.304688 69.113281 192.859375 69.113281 192.859375 C 68.328125 193.175781 68.269531 194.328125 68.269531 194.328125 C 67.429688 195.652344 68.054688 196.140625 68.054688 196.140625 C 68.054688 196.140625 67.953125 196.5625 68.351562 197.304688 C 68.75 198.03125 70.015625 198.453125 71.292969 198.214844 C 72.566406 197.976562 74.503906 197.234375 74.503906 197.234375 C 73.71875 198.441406 73.035156 199.117188 70.140625 200.769531 C 67.246094 202.421875 65.945312 201.40625 65.078125 201.03125 C 64.238281 200.699219 63.152344 199.695312 62.777344 199.980469 M 37.292969 170.027344 L 34.089844 171.828125 C 35.675781 174.988281 37.40625 178.050781 39.289062 181.015625 L 42.480469 179.214844 L 40.792969 176.21875 L 51.984375 169.902344 C 51.367188 168.867188 50.777344 167.816406 50.195312 166.757812 L 39.015625 173.070312 Z M 46.808594 159.75 L 31.652344 166.597656 C 32.128906 167.703125 32.632812 168.808594 33.144531 169.890625 L 48.304688 163.042969 C 47.777344 161.960938 47.277344 160.855469 46.808594 159.75 M 38.011719 156.410156 L 34.980469 156.796875 C 34.011719 156.898438 32.621094 157.148438 31.605469 157.273438 L 31.59375 157.242188 C 32.484375 156.738281 33.703125 156.066406 34.546875 155.578125 L 37.222656 154.039062 Z M 42.46875 146.777344 L 27.71875 155.863281 C 28.1875 157.410156 28.6875 158.9375 29.234375 160.445312 L 46.445312 158.871094 C 45.964844 157.707031 45.511719 156.535156 45.078125 155.335938 L 41.351562 155.804688 L 40.265625 152.5 L 43.503906 150.585938 C 43.128906 149.332031 42.785156 148.066406 42.46875 146.777344 M 40.324219 134.21875 L 23.890625 136.929688 C 24.003906 138.023438 24.140625 139.117188 24.289062 140.210938 L 28.199219 139.5625 C 30.683594 139.152344 32.996094 138.683594 35.148438 138.128906 L 35.160156 138.183594 C 33.316406 139.097656 31.21875 140.234375 29.691406 141.238281 L 24.9375 144.191406 L 25.007812 144.625 C 25.234375 145.890625 25.484375 147.132812 25.769531 148.375 L 42.207031 145.648438 C 41.953125 144.578125 41.726562 143.507812 41.511719 142.425781 L 37.613281 143.074219 C 34.921875 143.519531 32.414062 143.972656 30.179688 144.417969 L 30.167969 144.363281 C 32.085938 143.394531 34.160156 142.160156 35.8125 141.113281 L 40.769531 138.070312 C 40.597656 136.792969 40.449219 135.503906 40.324219 134.21875 M 33.429688 126.34375 L 23.308594 126.742188 C 23.320312 127.949219 23.34375 129.15625 23.398438 130.367188 L 33.566406 129.964844 C 35.84375 129.875 36.507812 130.617188 36.550781 131.765625 C 36.574219 132.347656 36.472656 132.90625 36.347656 133.351562 L 39.914062 133.613281 C 40.152344 132.917969 40.246094 131.9375 40.222656 131.199219 C 40.085938 127.960938 38.226562 126.160156 33.429688 126.34375 M 40.097656 120.6875 L 23.480469 120.003906 C 23.410156 121.203125 23.363281 122.410156 23.332031 123.617188 L 39.949219 124.300781 C 39.972656 123.09375 40.027344 121.886719 40.097656 120.6875 M 41.964844 107.332031 L 25.496094 104.800781 C 25.269531 105.871094 25.0625 106.953125 24.871094 108.039062 L 28.789062 108.640625 C 31.285156 109.027344 33.621094 109.300781 35.84375 109.4375 L 35.832031 109.496094 C 33.792969 109.792969 31.445312 110.214844 29.679688 110.691406 L 24.242188 112.027344 C 24.050781 113.429688 23.890625 114.839844 23.753906 116.265625 L 40.222656 118.796875 C 40.3125 117.691406 40.425781 116.597656 40.550781 115.515625 L 36.632812 114.910156 C 33.941406 114.5 31.410156 114.148438 29.15625 113.882812 L 29.167969 113.828125 C 31.285156 113.507812 33.644531 112.984375 35.539062 112.492188 L 41.191406 111.148438 C 41.441406 109.859375 41.691406 108.585938 41.964844 107.332031 M 39.367188 89.824219 L 31.011719 86.929688 C 30.558594 88.035156 30.125 89.152344 29.714844 90.269531 L 29.703125 90.304688 L 38.71875 93.4375 C 41.246094 94.316406 42.261719 95.410156 41.792969 96.777344 C 41.328125 98.121094 39.730469 98.304688 37.328125 97.460938 L 28.3125 94.328125 C 27.933594 95.476562 27.59375 96.628906 27.261719 97.792969 L 35.480469 100.628906 C 40.597656 102.40625 43.628906 101.402344 44.839844 97.917969 C 46.082031 94.359375 44.28125 91.535156 39.367188 89.824219 M 52.53125 81.117188 L 37.761719 73.410156 C 37.203125 74.359375 36.65625 75.316406 36.117188 76.273438 L 39.652344 78.117188 C 41.886719 79.28125 44.007812 80.308594 46.070312 81.152344 L 46.046875 81.207031 C 44.015625 80.820312 41.65625 80.476562 39.835938 80.351562 L 34.226562 79.851562 C 33.589844 81.117188 32.972656 82.40625 32.390625 83.691406 L 47.164062 91.410156 C 47.609375 90.40625 48.0625 89.402344 48.542969 88.410156 L 45.054688 86.585938 C 42.636719 85.320312 40.359375 84.183594 38.308594 83.203125 L 38.351562 83.144531 C 40.460938 83.53125 42.867188 83.785156 44.816406 83.941406 L 50.582031 84.488281 C 51.210938 83.363281 51.859375 82.234375 52.53125 81.117188 M 55.347656 76.820312 L 41.5 67.597656 C 40.816406 68.589844 40.140625 69.59375 39.492188 70.609375 L 53.339844 79.828125 C 53.988281 78.8125 54.652344 77.8125 55.347656 76.820312 M 60.667969 69.933594 L 50.640625 56.203125 C 49.773438 57.136719 48.929688 58.082031 48.109375 59.027344 L 52.371094 64.386719 C 53.511719 65.832031 54.789062 67.359375 56.179688 68.933594 L 56.15625 68.964844 C 54.265625 67.839844 52.609375 66.949219 50.878906 66.105469 L 44.847656 63.027344 L 44.667969 63.257812 C 43.925781 64.214844 43.195312 65.195312 42.5 66.175781 L 57.910156 73.332031 C 58.800781 72.179688 59.710938 71.050781 60.667969 69.933594 M 57.285156 54.695312 L 61 51.152344 L 58.539062 48.566406 C 57.730469 49.273438 56.917969 49.988281 56.132812 50.71875 L 53.957031 52.792969 C 53.351562 53.386719 52.757812 53.988281 52.167969 54.59375 L 63.65625 66.640625 C 65.71875 64.476562 67.90625 62.414062 70.230469 60.441406 L 67.734375 57.820312 L 63.816406 61.558594 L 61.671875 59.3125 L 65.171875 55.972656 L 62.652344 53.328125 L 59.152344 56.667969 Z M 69.386719 49.214844 L 68.625 49.773438 L 66.265625 46.546875 C 66.378906 46.398438 66.640625 46.148438 67.1875 45.75 C 68.167969 45.066406 69.113281 45.238281 69.867188 46.261719 C 70.609375 47.265625 70.484375 48.40625 69.386719 49.214844 M 73.105469 48.507812 C 73.683594 47.503906 73.8125 45.542969 72.566406 43.847656 C 71.597656 42.511719 70.492188 41.828125 69.320312 41.667969 C 68.417969 41.554688 67.65625 41.441406 66.527344 42.273438 C 65.558594 42.992188 65.46875 43.027344 64.941406 43.425781 C 64.007812 44.121094 63.085938 44.828125 62.171875 45.542969 C 61.945312 45.761719 61.742188 45.976562 61.558594 46.171875 L 71.324219 59.53125 C 72.25 58.777344 73.183594 58.035156 74.140625 57.316406 L 70.527344 52.371094 L 70.996094 52.03125 C 71.894531 51.367188 72.558594 51.414062 74.039062 52.839844 C 75.417969 54.128906 76.398438 54.9375 76.910156 55.300781 C 77.949219 54.582031 78.996094 53.886719 80.046875 53.214844 C 79.429688 52.816406 77.652344 51.128906 76.316406 49.988281 C 75.191406 49.019531 74.164062 48.441406 73.160156 48.585938 Z M 77.96875 40.394531 C 77.617188 39.742188 77.914062 39.023438 78.882812 38.5 C 80.078125 37.839844 81.171875 37.773438 81.835938 37.773438 L 80.773438 34.671875 C 79.75 34.671875 78.574219 34.898438 77.160156 35.6875 C 74.1875 37.328125 73.558594 39.902344 74.9375 42.457031 C 76.101562 44.597656 78.152344 45.238281 80.613281 44.996094 C 82.246094 44.828125 82.996094 44.941406 83.375 45.648438 C 83.773438 46.375 83.488281 47.117188 82.40625 47.710938 C 81.230469 48.359375 79.816406 48.554688 78.847656 48.496094 L 79.988281 52.019531 C 80.886719 52.085938 82.53125 51.789062 83.941406 51.015625 C 87.394531 49.125 87.816406 46.089844 86.472656 43.605469 C 85.378906 41.589844 83.65625 40.722656 81.023438 40.941406 C 79.15625 41.078125 78.359375 41.121094 77.96875 40.394531 M 93.597656 46.238281 L 87.042969 30.980469 L 83.714844 32.402344 L 90.28125 47.675781 C 91.375 47.175781 92.480469 46.695312 93.597656 46.238281 M 101.277344 43.539062 L 97.347656 31.320312 L 100.675781 30.25 L 99.546875 26.738281 C 98.851562 26.921875 98.15625 27.113281 97.460938 27.320312 L 91.636719 29.199219 C 90.917969 29.453125 90.210938 29.714844 89.492188 29.988281 L 90.621094 33.484375 L 93.894531 32.4375 L 97.824219 44.65625 C 98.976562 44.257812 100.117188 43.878906 101.277344 43.539062 M 111.125 34.375 L 113.65625 24.039062 C 112.484375 24.175781 111.308594 24.34375 110.132812 24.527344 L 109.703125 24.605469 L 109.28125 28.550781 C 109.164062 29.734375 109.0625 30.703125 108.996094 31.753906 L 108.960938 31.765625 C 108.46875 30.761719 108.082031 29.964844 107.5 28.882812 L 105.699219 25.347656 L 104.878906 25.496094 C 103.820312 25.710938 102.761719 25.953125 101.710938 26.214844 L 107.628906 35.21875 L 108.800781 41.679688 C 109.976562 41.441406 111.160156 41.226562 112.347656 41.042969 Z M 124.871094 39.914062 C 123.8125 38.011719 122.855469 35.128906 122.695312 31.390625 C 122.546875 27.980469 123.117188 25.28125 123.878906 23.332031 C 123.046875 23.355469 122.203125 23.375 121.371094 23.410156 C 120.5625 25.132812 119.800781 27.832031 119.9375 31.503906 C 120.109375 35.605469 121.359375 38.421875 122.410156 40.015625 C 122.71875 40.003906 123.023438 39.992188 123.320312 39.984375 Z M 133.273438 28.925781 C 133.191406 30.375 132.257812 31.230469 130.84375 31.148438 C 130.46875 31.125 130.226562 31.09375 130.023438 31.058594 L 130.261719 26.761719 C 130.445312 26.726562 130.808594 26.691406 131.34375 26.726562 C 132.714844 26.785156 133.339844 27.671875 133.273438 28.925781 M 135.3125 33.085938 C 136.199219 32.1875 136.746094 30.714844 136.839844 29.019531 C 136.929688 27.296875 136.394531 25.757812 135.527344 24.871094 C 134.640625 23.921875 133.417969 23.546875 131.480469 23.445312 C 129.429688 23.332031 127.871094 23.273438 126.878906 23.410156 L 125.964844 39.925781 C 125.976562 39.925781 126 39.925781 126.011719 39.925781 C 127.195312 39.925781 128.371094 39.949219 129.542969 39.992188 L 129.851562 34.476562 C 130.070312 34.511719 130.386719 34.558594 130.730469 34.582031 C 132.53125 34.695312 134.136719 34.25 135.3125 33.085938 M 147.484375 29.234375 L 148.109375 25.691406 C 147.324219 25.519531 146.527344 25.347656 145.730469 25.199219 L 142.160156 24.574219 C 141.273438 24.4375 140.382812 24.300781 139.484375 24.1875 L 136.601562 40.585938 C 139.621094 40.960938 142.582031 41.488281 145.5 42.160156 L 146.128906 38.625 L 140.792969 37.679688 L 141.328125 34.625 L 146.09375 35.46875 L 146.730469 31.878906 L 141.96875 31.035156 L 142.433594 28.355469 Z M 150.367188 43.4375 L 154.757812 27.386719 C 153.605469 27.058594 152.429688 26.738281 151.257812 26.441406 L 146.867188 42.488281 C 148.054688 42.773438 149.21875 43.09375 150.367188 43.4375 M 160.191406 39.710938 L 167.761719 32.140625 C 166.542969 31.59375 165.308594 31.082031 164.066406 30.578125 L 161.652344 33.757812 C 160.945312 34.71875 160.351562 35.480469 159.75 36.347656 L 159.714844 36.335938 C 159.816406 35.230469 159.894531 34.339844 159.953125 33.109375 L 160.238281 29.15625 L 159.792969 28.984375 C 158.664062 28.585938 157.527344 28.21875 156.375 27.855469 L 156.761719 38.582031 L 154.414062 44.722656 C 155.554688 45.121094 156.671875 45.542969 157.789062 45.988281 Z M 171.738281 37.554688 C 171.453125 38.535156 171.054688 39.878906 170.792969 40.816406 L 169.949219 43.777344 L 167.726562 42.625 L 169.617188 40.234375 C 170.234375 39.480469 171.054688 38.328125 171.691406 37.542969 Z M 171.269531 52.632812 L 175.429688 35.960938 C 174.019531 35.183594 172.570312 34.433594 171.113281 33.714844 L 159.964844 46.753906 C 161.128906 47.253906 162.277344 47.777344 163.40625 48.324219 L 165.742188 45.386719 L 168.832031 46.992188 L 167.851562 50.652344 C 169.015625 51.277344 170.152344 51.9375 171.269531 52.632812 M 181.210938 59.972656 L 191.011719 46.503906 C 190.15625 45.808594 189.300781 45.121094 188.425781 44.449219 L 186.109375 47.640625 C 184.628906 49.683594 183.308594 51.632812 182.167969 53.546875 L 182.121094 53.511719 C 182.792969 51.5625 183.488281 49.28125 183.875 47.492188 L 185.1875 42.058594 C 184.023438 41.238281 182.851562 40.4375 181.652344 39.664062 L 171.851562 53.136719 C 172.785156 53.714844 173.710938 54.332031 174.609375 54.949219 L 176.945312 51.746094 C 178.554688 49.546875 180.011719 47.460938 181.289062 45.566406 L 181.335938 45.601562 C 180.652344 47.628906 180.035156 49.976562 179.589844 51.871094 L 178.1875 57.535156 C 179.214844 58.332031 180.21875 59.140625 181.210938 59.972656 M 198.683594 59.425781 L 201.589844 57.523438 C 201.394531 56.726562 200.699219 55.472656 199.398438 54.195312 C 196.289062 51.105469 191.867188 50.628906 187.730469 54.765625 C 186.019531 56.484375 185.128906 58.21875 184.972656 60.167969 C 184.8125 62.058594 185.507812 63.90625 187.398438 65.785156 C 188.652344 67.027344 190.375 67.964844 191.375 68.363281 L 197.679688 62.117188 L 193.929688 58.402344 L 191.46875 60.886719 L 192.742188 62.152344 L 190.703125 64.214844 C 190.53125 64.15625 190.144531 63.871094 189.804688 63.53125 C 188.230469 61.96875 188.367188 59.53125 190.578125 57.296875 C 192.996094 54.867188 195.320312 55.128906 196.894531 56.691406 C 198 57.761719 198.429688 58.605469 198.683594 59.425781 M 207.117188 78.734375 L 214.46875 73.8125 C 213.863281 72.785156 213.238281 71.769531 212.585938 70.757812 L 212.5625 70.722656 L 204.621094 76.023438 C 202.398438 77.503906 200.90625 77.664062 200.105469 76.464844 C 199.320312 75.28125 200.140625 73.902344 202.261719 72.488281 L 210.195312 67.1875 C 209.5 66.195312 208.792969 65.21875 208.0625 64.257812 L 200.835938 69.101562 C 196.324219 72.113281 195.296875 75.121094 197.347656 78.210938 C 199.457031 81.34375 202.796875 81.617188 207.117188 78.734375 M 206.113281 94.484375 L 221.179688 87.363281 C 220.769531 86.347656 220.335938 85.332031 219.894531 84.332031 L 216.292969 86.027344 C 214.011719 87.113281 211.914062 88.183594 209.988281 89.324219 L 209.964844 89.265625 C 211.492188 87.875 213.191406 86.210938 214.386719 84.820312 L 218.171875 80.660156 C 217.546875 79.382812 216.894531 78.128906 216.210938 76.875 L 201.144531 84 C 201.679688 84.957031 202.203125 85.925781 202.707031 86.917969 L 206.261719 85.242188 C 208.722656 84.078125 211.015625 82.953125 213.03125 81.902344 L 213.054688 81.960938 C 211.46875 83.417969 209.816406 85.175781 208.519531 86.632812 L 204.609375 90.894531 C 205.132812 92.082031 205.632812 93.277344 206.113281 94.484375 M 207.855469 99.328125 L 223.5625 93.847656 C 223.1875 92.695312 222.789062 91.554688 222.367188 90.429688 L 206.660156 95.910156 C 207.082031 97.039062 207.480469 98.179688 207.855469 99.328125 M 210.125 107.71875 L 227.128906 108.003906 C 226.914062 106.75 226.664062 105.507812 226.402344 104.277344 L 219.550781 104.445312 C 217.703125 104.480469 215.722656 104.585938 213.625 104.742188 L 213.613281 104.710938 C 215.652344 103.878906 217.363281 103.089844 219.082031 102.226562 L 225.179688 99.273438 L 225.113281 99 C 224.792969 97.824219 224.453125 96.664062 224.097656 95.511719 L 209.097656 103.476562 C 209.464844 104.867188 209.804688 106.292969 210.125 107.71875 M 224.898438 119.320312 L 228.453125 118.910156 C 228.382812 117.839844 228.292969 116.769531 228.179688 115.695312 L 227.835938 112.722656 C 227.722656 111.878906 227.609375 111.046875 227.484375 110.214844 L 210.945312 112.09375 C 211.425781 115.046875 211.753906 118.042969 211.925781 121.078125 L 215.515625 120.664062 L 214.902344 115.285156 L 217.976562 114.933594 L 218.523438 119.742188 L 222.148438 119.332031 L 221.601562 114.523438 L 224.316406 114.214844 Z M 225.488281 127.527344 C 225.445312 128.722656 224.738281 129.375 223.460938 129.351562 C 222.207031 129.328125 221.375 128.542969 221.398438 127.175781 L 221.410156 126.238281 L 225.410156 126.308594 C 225.457031 126.488281 225.5 126.84375 225.488281 127.527344 M 227.4375 131.675781 C 228.066406 131.027344 228.625 130.492188 228.644531 129.089844 C 228.65625 127.890625 228.679688 127.789062 228.691406 127.140625 C 228.703125 125.976562 228.691406 124.804688 228.667969 123.652344 C 228.636719 123.332031 228.589844 123.046875 228.542969 122.785156 L 211.996094 122.511719 C 212.039062 123.699219 212.0625 124.894531 212.0625 126.089844 L 218.183594 126.195312 L 218.171875 126.773438 C 218.148438 127.890625 217.714844 128.382812 215.6875 128.710938 C 213.828125 129.042969 212.585938 129.328125 211.996094 129.523438 C 211.949219 130.785156 211.871094 132.03125 211.765625 133.28125 C 212.449219 133.03125 214.878906 132.632812 216.585938 132.257812 C 218.046875 131.9375 219.128906 131.480469 219.621094 130.59375 L 219.722656 130.59375 C 220.179688 131.664062 221.660156 132.941406 223.757812 132.988281 C 225.398438 132.988281 226.605469 132.519531 227.4375 131.675781 M 226.128906 145.023438 C 226.742188 144.203125 227.265625 143.128906 227.496094 141.535156 C 227.984375 138.171875 226.308594 136.121094 223.4375 135.675781 C 221.019531 135.3125 219.289062 136.566406 217.988281 138.675781 C 217.144531 140.085938 216.597656 140.601562 215.800781 140.484375 C 214.980469 140.359375 214.558594 139.6875 214.742188 138.46875 C 214.933594 137.148438 215.628906 135.894531 216.257812 135.164062 L 212.757812 133.945312 C 212.164062 134.628906 211.414062 136.109375 211.175781 137.707031 C 210.605469 141.601562 212.757812 143.769531 215.5625 144.203125 C 217.832031 144.542969 219.5625 143.699219 220.964844 141.464844 C 221.980469 139.90625 222.421875 139.242188 223.242188 139.371094 C 223.972656 139.484375 224.359375 140.144531 224.203125 141.238281 C 224.007812 142.582031 223.402344 143.507812 223.003906 144.03125 Z M 209.15625 148.28125 L 225.285156 152.261719 L 226.148438 148.75 L 210.011719 144.761719 C 209.75 145.945312 209.464844 147.121094 209.15625 148.28125 M 217.636719 163.566406 L 221.113281 164.785156 C 221.386719 164.125 221.648438 163.453125 221.910156 162.769531 L 223.929688 156.988281 C 224.15625 156.261719 224.371094 155.542969 224.589844 154.8125 L 221.113281 153.59375 L 219.972656 156.839844 L 207.855469 152.613281 C 207.480469 153.765625 207.082031 154.902344 206.660156 156.03125 L 218.777344 160.261719 Z M 208.039062 169.414062 L 214.753906 177.675781 C 215.34375 176.652344 215.925781 175.613281 216.496094 174.578125 L 216.691406 174.1875 L 213.808594 171.476562 C 212.917969 170.667969 212.222656 170.007812 211.425781 169.3125 L 211.449219 169.277344 C 212.542969 169.492188 213.40625 169.664062 214.628906 169.847656 L 218.535156 170.542969 L 218.914062 169.800781 C 219.367188 168.820312 219.824219 167.839844 220.257812 166.835938 L 209.511719 166.121094 L 203.652344 163.167969 C 203.128906 164.25 202.589844 165.320312 202.023438 166.382812 Z M 204.917969 178.359375 C 208.039062 180.332031 210.773438 180.96875 212.667969 181.105469 C 213.113281 180.410156 213.542969 179.707031 213.976562 179 C 211.902344 178.691406 209.269531 177.8125 206.398438 176.011719 C 203.230469 174.007812 201.167969 171.738281 200.050781 169.878906 L 200.003906 169.960938 C 199.605469 170.632812 199.183594 171.304688 198.773438 171.976562 C 199.640625 173.6875 201.441406 176.160156 204.917969 178.359375 M 236.25 125.964844 C 236.25 186.863281 186.953125 236.238281 126.148438 236.238281 C 65.34375 236.238281 16.046875 186.863281 16.046875 125.964844 C 16.046875 65.070312 65.34375 15.695312 126.148438 15.695312 C 186.953125 15.695312 236.25 65.070312 236.25 125.964844 M 243.863281 110.476562 L 237.777344 103.761719 L 240.820312 95.226562 L 233.921875 89.355469 L 235.816406 80.5 L 228.214844 75.578125 L 228.953125 66.550781 L 220.757812 62.664062 L 220.304688 53.613281 L 211.6875 50.820312 L 210.070312 41.921875 L 201.15625 40.277344 L 198.375 31.664062 L 189.324219 31.207031 L 185.449219 23.023438 L 176.421875 23.753906 L 171.511719 16.148438 L 162.65625 18.054688 L 156.785156 11.160156 L 148.257812 14.203125 L 141.535156 8.113281 L 133.476562 12.242188 L 126.023438 7.089844 L 119.296875 11.738281 L 118.582031 12.230469 L 110.523438 8.105469 L 103.796875 14.191406 L 95.273438 11.148438 L 89.402344 18.042969 L 80.546875 16.140625 L 75.632812 23.753906 L 66.605469 23.023438 L 62.730469 31.207031 L 53.671875 31.664062 L 50.890625 40.277344 L 41.976562 41.910156 L 40.335938 50.808594 L 31.71875 53.601562 L 31.273438 62.640625 L 23.089844 66.527344 L 23.785156 75.578125 L 16.183594 80.5 L 18.089844 89.355469 L 11.191406 95.226562 L 14.234375 103.761719 L 8.148438 110.476562 L 12.285156 118.546875 L 7.136719 126 L 12.285156 133.453125 L 8.148438 141.511719 L 14.234375 148.238281 L 11.191406 156.761719 L 18.089844 162.632812 L 16.183594 171.488281 L 23.785156 176.410156 L 23.046875 185.449219 L 31.230469 189.335938 L 31.683594 198.386719 L 40.300781 201.167969 L 41.941406 210.070312 L 50.855469 211.710938 L 53.636719 220.328125 L 62.6875 220.769531 L 66.574219 228.953125 L 75.601562 228.214844 L 80.523438 235.828125 L 89.378906 233.933594 L 95.25 240.832031 L 103.773438 237.796875 L 110.488281 243.875 L 118.558594 239.734375 L 126.011719 244.886719 L 133.464844 239.734375 L 141.535156 243.875 L 148.246094 237.808594 L 156.773438 240.839844 L 162.644531 233.945312 L 171.5 235.839844 L 176.410156 228.226562 L 185.4375 228.964844 L 189.3125 220.792969 L 198.375 220.335938 L 201.15625 211.722656 L 210.070312 210.078125 L 211.699219 201.179688 L 220.316406 198.398438 L 220.769531 189.347656 L 228.964844 185.460938 L 228.226562 176.433594 L 235.839844 171.523438 L 233.933594 162.664062 L 240.832031 156.796875 L 237.789062 148.257812 L 243.863281 141.546875 L 239.734375 133.488281 L 244.886719 126.035156 L 239.734375 118.582031 Z M 241.09375 103.089844 L 247.351562 110.007812 L 243.097656 118.316406 L 248.398438 126 L 243.097656 133.683594 L 247.339844 141.96875 L 241.082031 148.898438 L 244.214844 157.671875 L 237.113281 163.714844 L 239.074219 172.84375 L 231.234375 177.90625 L 231.996094 187.203125 L 223.550781 191.207031 L 223.085938 200.515625 L 214.207031 203.378906 L 212.53125 212.554688 L 203.355469 214.238281 L 200.484375 223.105469 L 191.171875 223.574219 L 187.171875 232.007812 L 177.871094 231.246094 L 172.808594 239.074219 L 163.679688 237.125 L 157.628906 244.226562 L 148.839844 241.105469 L 141.921875 247.351562 L 133.625 243.097656 L 125.941406 248.398438 L 118.273438 243.097656 L 109.964844 247.351562 L 103.046875 241.105469 L 94.257812 244.226562 L 88.226562 237.125 L 79.097656 239.085938 L 74.039062 231.246094 L 64.738281 232.007812 L 60.738281 223.574219 L 51.414062 223.105469 L 48.554688 214.226562 L 39.378906 212.542969 L 37.691406 203.378906 L 28.824219 200.515625 L 28.355469 191.207031 L 19.921875 187.203125 L 20.675781 177.914062 L 12.84375 172.84375 L 14.792969 163.726562 L 7.691406 157.683594 L 10.828125 148.898438 L 4.570312 141.980469 L 8.832031 133.691406 L 3.535156 126.011719 L 8.832031 118.328125 L 4.582031 110.019531 L 10.839844 103.113281 L 7.703125 94.328125 L 14.804688 88.285156 L 12.855469 79.167969 L 20.6875 74.105469 L 19.933594 64.816406 L 28.355469 60.804688 L 28.835938 51.496094 L 37.691406 48.621094 L 39.378906 39.445312 L 48.554688 37.773438 L 51.414062 28.894531 L 60.738281 28.425781 L 64.726562 19.992188 L 74.027344 20.742188 L 79.085938 12.902344 L 88.207031 14.863281 L 94.257812 7.761719 L 103.035156 10.894531 L 109.953125 4.640625 L 118.261719 8.890625 L 125.929688 3.589844 L 133.613281 8.890625 L 141.910156 4.640625 L 148.828125 10.894531 L 157.617188 7.761719 L 163.667969 14.863281 L 172.785156 12.902344 L 177.847656 20.742188 L 187.136719 19.992188 L 191.136719 28.425781 L 200.460938 28.894531 L 203.332031 37.773438 L 212.507812 39.445312 L 214.183594 48.621094 L 223.0625 51.496094 L 223.527344 60.804688 L 231.972656 64.816406 L 231.210938 74.105469 L 239.050781 79.167969 L 237.101562 88.285156 L 244.203125 94.328125 Z M 252 126 C 252 56.40625 195.582031 0 126 0 C 56.417969 0 0 56.40625 0 126 C 0 195.59375 56.417969 252 126 252 C 195.582031 252 252 195.582031 252 126 "/>
</g>
</svg>
