<?xml version="1.0" encoding="UTF-8"?>
<svg xmlns="http://www.w3.org/2000/svg" xmlns:xlink="http://www.w3.org/1999/xlink" width="252pt" height="253pt" viewBox="0 0 252 253" version="1.1">
<g id="surface1">
<path style=" stroke:none;fill-rule:evenodd;fill:rgb(0%,35.686275%,67.45098%);fill-opacity:1;" d="M 7.136719 126.4375 C 7.136719 192.34375 60.386719 245.878906 126.007812 245.878906 L 126.007812 240.910156 C 63.058594 240.910156 12.109375 189.671875 12.109375 126.4375 C 12.109375 63.328125 63.058594 11.847656 126.007812 11.847656 C 188.828125 11.847656 240.015625 63.328125 240.015625 126.4375 C 240.015625 189.671875 188.828125 240.910156 126.007812 240.910156 L 126.007812 245.878906 C 191.496094 245.878906 244.863281 192.34375 244.863281 126.4375 C 244.863281 60.667969 191.496094 7.121094 126.007812 7.121094 C 60.386719 7.121094 7.136719 60.667969 7.136719 126.4375 "/>
<path style=" stroke:none;fill-rule:evenodd;fill:rgb(0%,35.686275%,67.45098%);fill-opacity:1;" d="M 40.128906 126.4375 C 40.128906 174.046875 78.574219 212.808594 126.007812 212.808594 L 126.007812 209.542969 C 80.398438 209.542969 43.402344 172.351562 43.402344 126.4375 C 43.402344 80.648438 80.398438 43.457031 126.007812 43.457031 C 171.601562 43.457031 208.597656 80.648438 208.597656 126.4375 C 208.597656 172.351562 171.601562 209.542969 126.007812 209.542969 L 126.007812 212.808594 C 173.304688 212.808594 211.871094 174.046875 211.871094 126.4375 C 211.871094 78.953125 173.304688 40.191406 126.007812 40.191406 C 78.574219 40.191406 40.128906 78.953125 40.128906 126.4375 "/>
<path style=" stroke:none;fill-rule:evenodd;fill:rgb(0%,35.686275%,67.45098%);fill-opacity:1;" d="M 97.980469 58.484375 C 97.738281 59.460938 97.378906 60.425781 96.648438 61.636719 C 95.675781 62.601562 94.945312 63.328125 93.984375 64.050781 L 94.945312 66.222656 C 96.648438 65.015625 97.738281 63.691406 98.714844 62.363281 L 102.828125 71.433594 L 106.230469 69.875 L 100.894531 57.390625 Z M 97.980469 58.484375 "/>
<path style=" stroke:none;fill-rule:evenodd;fill:rgb(0%,35.686275%,67.45098%);fill-opacity:1;" d="M 115.808594 65.265625 L 115.808594 67.570312 C 114.472656 67.6875 113.503906 67.570312 112.78125 67.207031 C 111.566406 66.722656 111.078125 65.980469 110.472656 64.898438 L 114.238281 64.050781 C 114.472656 64.660156 114.71875 64.898438 115.082031 65.015625 C 115.199219 65.265625 115.445312 65.265625 115.808594 65.265625 M 115.808594 53.515625 L 115.808594 55.574219 C 115.558594 55.574219 115.445312 55.574219 115.199219 55.8125 C 114.472656 55.8125 113.875 56.183594 113.503906 56.550781 C 113.140625 56.914062 112.902344 57.753906 113.140625 58.484375 C 113.140625 59.460938 113.503906 60.0625 114.109375 60.425781 C 114.472656 60.667969 115.199219 60.773438 115.808594 60.667969 L 115.808594 62.71875 C 114.109375 62.957031 112.78125 62.71875 111.449219 62 C 110.234375 61.386719 109.507812 60.425781 109.261719 59.089844 C 109.144531 57.753906 109.507812 56.550781 110.597656 55.457031 C 111.566406 54.46875 113.140625 53.886719 115.082031 53.515625 Z M 120.179688 54.46875 C 119.085938 53.640625 117.507812 53.273438 115.808594 53.515625 L 115.808594 55.574219 C 116.179688 55.574219 116.785156 55.8125 117.386719 56.183594 C 117.875 56.550781 118.359375 57.144531 118.476562 57.878906 C 118.476562 58.730469 118.359375 59.203125 117.875 59.828125 C 117.507812 60.179688 116.785156 60.667969 116.179688 60.667969 L 115.808594 60.667969 L 115.808594 62.71875 C 117.144531 62.601562 118.359375 62 119.203125 61.011719 C 119.203125 62.601562 119.085938 63.691406 118.722656 64.289062 C 118.121094 64.898438 117.507812 65.265625 116.785156 65.265625 C 116.421875 65.390625 116.054688 65.390625 115.808594 65.265625 L 115.808594 67.570312 L 116.785156 67.570312 C 118.839844 67.207031 120.65625 66.222656 121.753906 65.015625 C 123.09375 63.691406 123.449219 61.75 123.09375 59.203125 C 122.722656 56.914062 121.753906 55.210938 120.179688 54.46875 "/>
<path style=" stroke:none;fill-rule:evenodd;fill:rgb(0%,35.686275%,67.45098%);fill-opacity:1;" d="M 133.035156 53.148438 L 133.035156 55.210938 C 132.671875 55.457031 132.546875 55.457031 132.308594 55.457031 C 131.9375 55.574219 131.574219 55.9375 131.335938 56.425781 C 130.972656 57.144531 130.730469 58.367188 130.609375 59.828125 C 130.367188 61.386719 130.367188 62.601562 130.609375 63.089844 C 130.730469 63.691406 130.972656 64.050781 131.335938 64.410156 C 131.699219 64.660156 132.0625 64.898438 132.546875 64.898438 L 133.035156 64.898438 L 133.035156 66.96875 L 132.308594 66.96875 C 130.367188 66.722656 128.90625 66.222656 127.699219 64.898438 C 126.726562 63.933594 126.117188 62 126.609375 59.203125 C 126.726562 56.789062 127.699219 55.09375 129.027344 54.125 C 130.246094 53.273438 131.335938 52.910156 133.035156 53.148438 M 133.878906 53.148438 L 133.035156 53.148438 L 133.035156 55.210938 C 133.277344 55.210938 133.398438 55.210938 133.640625 55.457031 C 134.003906 55.457031 134.367188 55.457031 134.855469 55.8125 C 135.214844 55.9375 135.332031 56.425781 135.582031 56.914062 C 135.703125 57.507812 135.703125 58.847656 135.582031 60.425781 C 135.332031 62 135.214844 63.089844 134.855469 63.691406 C 134.613281 64.289062 134.25 64.660156 133.878906 64.660156 C 133.640625 64.898438 133.277344 64.898438 133.035156 64.898438 L 133.035156 66.96875 C 134.613281 67.207031 135.941406 66.722656 137.035156 66.222656 C 138.488281 65.265625 139.34375 63.328125 139.585938 60.773438 C 139.957031 58.367188 139.585938 56.425781 138.253906 55.09375 C 137.273438 54.125 135.703125 53.273438 133.878906 53.148438 "/>
<path style=" stroke:none;fill-rule:evenodd;fill:rgb(0%,35.686275%,67.45098%);fill-opacity:1;" d="M 145.523438 55.457031 L 144.554688 57.507812 L 152.804688 61.011719 C 150.503906 61.75 148.554688 62.71875 146.859375 64.050781 C 145.167969 65.636719 143.953125 67.207031 143.21875 68.902344 L 146.738281 70.234375 C 147.101562 69.144531 147.828125 68.175781 148.925781 66.722656 C 150.128906 65.636719 151.46875 64.660156 153.042969 63.691406 C 154.5 62.957031 156.078125 62.363281 157.167969 62 L 158.019531 60.179688 Z M 145.523438 55.457031 "/>
<path style=" stroke:none;fill-rule:evenodd;fill:rgb(0%,35.686275%,67.45098%);fill-opacity:1;" d="M 56.738281 59.203125 C 55.773438 58.121094 53.476562 55.8125 51.039062 54.125 C 48.867188 52.304688 46.554688 51.222656 45.21875 52.183594 C 43.886719 53.148438 44.25 53.640625 44.136719 54.84375 C 43.765625 55.574219 43.160156 56.183594 42.550781 56.789062 C 41.824219 57.390625 40.128906 58.484375 39.28125 59.6875 C 39.15625 60.425781 37.941406 60.0625 37.824219 60.667969 C 37.578125 61.148438 37.214844 61.636719 37.453125 62.121094 C 38.1875 64.660156 43.523438 69.875 43.523438 69.875 C 43.523438 69.875 46.074219 72.417969 46.074219 72.179688 C 47.769531 74.113281 49.707031 75.6875 50.199219 76.050781 C 51.164062 76.164062 52.378906 76.050781 52.128906 75.6875 C 51.164062 73.863281 48.492188 72.179688 47.40625 70.597656 C 45.828125 68.542969 44.136719 66.96875 42.550781 65.015625 C 42.195312 64.660156 41.824219 63.933594 41.460938 63.328125 C 41.21875 63.089844 41.21875 62.601562 41.460938 62 C 41.582031 61.636719 42.195312 61.011719 42.796875 60.179688 C 43.523438 58.847656 44.738281 57.507812 45.21875 56.183594 C 45.703125 55.8125 46.429688 55.210938 46.429688 55.210938 C 47.039062 54.605469 48.132812 54.84375 48.742188 55.09375 C 49.472656 55.210938 51.648438 57.144531 54.316406 59.828125 C 56.132812 61.636719 56.628906 61.386719 57.101562 63.445312 C 57.355469 64.289062 56.375 64.050781 56.375 64.410156 C 56.019531 65.390625 56.019531 66.222656 57.960938 66.722656 C 58.320312 66.96875 59.050781 67.316406 59.410156 66.96875 C 59.652344 66.722656 59.410156 66.347656 59.289062 65.636719 C 58.4375 63.328125 58.925781 62.363281 56.738281 59.203125 "/>
<path style=" stroke:none;fill-rule:evenodd;fill:rgb(0%,35.686275%,67.45098%);fill-opacity:1;" d="M 47.527344 61.148438 C 47.527344 60.667969 47.15625 60.0625 46.554688 59.828125 C 45.703125 59.6875 44.25 61.75 44.492188 62.121094 C 44.492188 62.71875 44.738281 63.328125 45.101562 63.089844 C 45.464844 63.089844 47.769531 62.121094 47.527344 61.148438 "/>
<path style=" stroke:none;fill-rule:evenodd;fill:rgb(0%,35.686275%,67.45098%);fill-opacity:1;" d="M 51.410156 62.957031 C 50.4375 63.089844 49.347656 63.328125 49.109375 63.328125 C 48.378906 64.289062 48.132812 64.898438 47.039062 65.980469 C 47.15625 65.980469 46.792969 66.96875 47.15625 67.316406 C 47.40625 67.925781 48.015625 68.292969 48.742188 68.65625 C 49.347656 68.902344 50.800781 69.257812 51.410156 67.6875 C 51.648438 66.96875 50.675781 66.585938 50.199219 66.347656 L 50.199219 65.980469 L 50.800781 65.980469 C 50.800781 65.867188 52.128906 66.347656 52.5 66.347656 C 52.988281 65.390625 53.714844 64.050781 52.988281 62.957031 C 52.5 62.363281 52.128906 62.71875 51.410156 62.957031 "/>
<path style=" stroke:none;fill-rule:evenodd;fill:rgb(0%,35.686275%,67.45098%);fill-opacity:1;" d="M 91.800781 24.570312 C 92.035156 24.441406 92.035156 24.441406 92.289062 24.207031 C 91.4375 23.238281 90.347656 21.535156 89.984375 21.660156 C 89.730469 21.898438 89.613281 21.898438 89.367188 22.507812 C 89.011719 23.121094 89.125 23.59375 90.347656 24.441406 C 90.945312 24.570312 91.308594 24.570312 91.800781 24.570312 "/>
<path style=" stroke:none;fill-rule:evenodd;fill:rgb(0%,35.686275%,67.45098%);fill-opacity:1;" d="M 100.53125 25.882812 C 100.648438 26.148438 100.894531 26.503906 100.894531 26.867188 C 100.648438 27.710938 100.285156 28.074219 100.042969 28.4375 C 99.679688 29.050781 99.921875 29.769531 100.285156 30.011719 C 101.621094 30.382812 101.863281 28.1875 101.863281 26.378906 C 101.863281 25.535156 101.621094 24.800781 101.621094 24.207031 C 101.863281 23.59375 102.949219 23.121094 103.199219 23.238281 C 103.320312 23.839844 103.554688 24.800781 104.164062 25.785156 C 104.527344 26.734375 105.503906 27.710938 105.867188 27.835938 C 107.566406 28.4375 106.832031 27.105469 106.832031 25.882812 C 106.832031 25.785156 106.59375 25.785156 106.46875 25.785156 C 105.988281 25.785156 105.625 25.882812 105.253906 25.535156 C 105.136719 25.414062 103.925781 22.882812 103.925781 22.507812 C 104.164062 22.144531 105.136719 21.660156 105.253906 21.175781 C 105.503906 20.679688 105.253906 19.964844 105.136719 19.964844 C 104.644531 20.210938 101.984375 23.238281 101.621094 23.59375 C 101.265625 23.839844 100.894531 23.839844 100.648438 23.59375 C 100.53125 23.46875 100.285156 22.144531 102.347656 19.351562 C 102.949219 18.390625 102.828125 18.390625 102.347656 18.019531 C 101.984375 17.902344 101.496094 18.390625 100.894531 18.390625 C 100.285156 18.390625 99.921875 18.257812 99.921875 18.019531 C 99.679688 17.664062 99.921875 17.058594 99.679688 16.695312 C 99.316406 15.71875 97.738281 16.332031 97.015625 17.296875 C 96.285156 18.257812 93.984375 22.625 94.945312 23.46875 C 95.921875 23.957031 96.898438 21.898438 97.738281 20.929688 C 98.714844 19.964844 99.679688 19.964844 99.921875 19.964844 C 100.894531 19.964844 98.714844 23.238281 99.558594 25.785156 C 99.558594 26.378906 98.589844 27.105469 97.980469 26.734375 C 97.980469 26.734375 97.015625 25.171875 96.285156 24.800781 C 95.921875 24.800781 95.3125 26.378906 95.921875 27.105469 C 96.285156 28.074219 98.226562 27.710938 95.3125 31.597656 C 94.582031 32.308594 94.582031 33.417969 94.582031 34.253906 C 94.582031 35.34375 94.945312 36.3125 95.675781 36.3125 C 96.648438 36.550781 97.261719 35.34375 97.378906 34.972656 C 97.738281 34.625 98.34375 33.054688 98.589844 31.339844 C 98.714844 30.144531 98.34375 29.050781 98.714844 28.074219 C 99.195312 27.34375 99.679688 26.734375 100.53125 25.882812 "/>
<path style=" stroke:none;fill-rule:evenodd;fill:rgb(0%,35.686275%,67.45098%);fill-opacity:1;" d="M 91.066406 28.804688 C 92.035156 27.472656 91.671875 26.378906 90.101562 25.414062 C 89.613281 25.171875 89.984375 26.503906 89.984375 27.472656 C 90.101562 27.710938 89.984375 28.804688 89.984375 29.167969 C 89.730469 29.652344 89.984375 30.984375 91.066406 28.804688 "/>
<path style=" stroke:none;fill-rule:evenodd;fill:rgb(0%,35.686275%,67.45098%);fill-opacity:1;" d="M 93.015625 38.617188 L 93.015625 35.949219 C 92.769531 35.34375 91.671875 33.890625 90.703125 30.984375 C 90.457031 30.382812 89.730469 30.382812 89.730469 30.984375 C 89.730469 31.339844 90.945312 34.972656 91.066406 37.28125 C 91.308594 39.230469 91.4375 41.160156 91.671875 43.09375 C 91.800781 44.183594 93.621094 46.371094 93.984375 46.128906 C 94.34375 45.996094 94.582031 45.636719 94.105469 43.820312 C 93.734375 42.136719 93.371094 40.429688 93.015625 38.617188 "/>
<path style=" stroke:none;fill-rule:evenodd;fill:rgb(0%,35.686275%,67.45098%);fill-opacity:1;" d="M 114.109375 23.238281 C 113.875 23.121094 113.503906 23.46875 113.140625 23.46875 C 111.566406 23.59375 110.234375 23.839844 109.144531 23.59375 C 108.773438 23.59375 108.292969 23.46875 108.292969 23.121094 C 108.171875 22.882812 108.292969 22.507812 108.292969 21.898438 C 108.292969 21.535156 108.171875 20.929688 107.808594 20.929688 C 107.195312 20.929688 106.59375 21.535156 106.46875 21.898438 C 105.988281 22.261719 105.867188 22.507812 105.867188 23.59375 C 105.625 24.207031 105.625 24.570312 105.988281 24.800781 C 106.46875 25.171875 107.441406 25.171875 108.292969 25.171875 C 110.113281 25.414062 112.167969 25.785156 112.902344 25.414062 C 113.746094 25.171875 114.472656 24.570312 114.71875 24.441406 C 114.84375 23.957031 114.84375 23.46875 114.109375 23.238281 "/>
<path style=" stroke:none;fill-rule:evenodd;fill:rgb(0%,35.686275%,67.45098%);fill-opacity:1;" d="M 107.808594 28.679688 C 107.195312 28.4375 106.832031 28.804688 106.230469 29.417969 C 105.625 30.011719 105.988281 32.433594 105.253906 33.417969 C 105.253906 33.292969 104.890625 33.054688 104.644531 32.433594 C 104.527344 32.078125 104.527344 31.597656 103.925781 31.339844 C 103.554688 31.097656 103.554688 31.714844 103.199219 32.078125 C 102.589844 32.921875 102.226562 33.417969 101.984375 33.636719 C 101.011719 34.011719 101.496094 32.078125 100.648438 31.597656 C 100.285156 30.984375 99.558594 32.078125 99.679688 33.054688 C 99.679688 33.636719 100.042969 34.625 100.042969 35.210938 C 100.285156 35.832031 100.285156 36.675781 100.285156 36.921875 C 100.648438 37.890625 100.894531 39.097656 101.496094 39.835938 C 101.984375 40.554688 102.828125 40.429688 102.347656 38.617188 C 102.347656 37.644531 101.496094 35.949219 101.984375 34.972656 C 102.347656 34.378906 103.199219 34.378906 103.554688 34.863281 C 103.925781 35.34375 103.925781 36.550781 104.28125 36.675781 C 104.644531 37.28125 105.253906 36.550781 105.503906 35.949219 C 105.625 35.832031 105.625 34.972656 105.988281 34.011719 C 105.988281 33.417969 106.46875 33.054688 106.59375 32.433594 C 106.832031 31.714844 106.832031 31.097656 107.441406 31.097656 C 108.171875 30.984375 108.53125 31.960938 108.894531 32.433594 C 108.894531 33.054688 109.144531 33.417969 109.261719 34.253906 C 109.507812 34.863281 109.261719 36.675781 109.261719 37.890625 C 109.144531 38.496094 109.144531 38.867188 109.144531 39.097656 C 109.507812 39.464844 109.871094 39.589844 110.234375 36.921875 C 110.472656 34.011719 110.597656 34.011719 110.234375 31.960938 C 110.234375 30.382812 108.53125 28.804688 107.808594 28.679688 "/>
<path style=" stroke:none;fill-rule:evenodd;fill:rgb(0%,35.686275%,67.45098%);fill-opacity:1;" d="M 164.941406 23.957031 C 163.964844 24.441406 161.78125 25.882812 160.453125 27.710938 C 159 29.417969 158.746094 30.011719 158.132812 29.652344 C 157.65625 29.652344 157.777344 29.652344 156.804688 29.050781 C 155.714844 28.679688 154.863281 28.679688 154.019531 28.4375 C 153.167969 28.1875 152.078125 29.050781 151.839844 29.652344 C 151.46875 30.382812 151.839844 30.382812 152.433594 30.746094 C 152.804688 31.097656 154.863281 31.714844 155.476562 31.714844 C 155.835938 31.597656 156.441406 31.714844 156.324219 32.078125 C 156.324219 32.308594 153.78125 34.253906 152.804688 34.972656 C 151.839844 35.585938 149.898438 36.921875 149.535156 37.519531 C 148.800781 38.253906 149.773438 38.867188 150.378906 38.867188 C 150.734375 38.867188 151.707031 38.128906 153.167969 37.644531 C 154.863281 37.28125 156.078125 36.550781 156.804688 35.949219 C 157.65625 35.34375 159.109375 33.636719 159.472656 33.417969 C 159.957031 33.292969 163.113281 35.585938 163.964844 35.585938 C 164.324219 35.34375 164.941406 34.863281 165.417969 34.378906 C 166.027344 33.890625 165.65625 33.292969 164.941406 33.292969 C 164.085938 33.054688 162.386719 32.433594 161.417969 31.960938 C 160.453125 31.339844 161.289062 30.984375 161.78125 30.382812 C 162.261719 29.769531 164.574219 27.710938 165.65625 26.503906 C 166.992188 25.414062 167.242188 24.570312 166.992188 24.441406 C 166.753906 23.839844 165.90625 23.839844 164.941406 23.957031 "/>
<path style=" stroke:none;fill-rule:evenodd;fill:rgb(0%,35.686275%,67.45098%);fill-opacity:1;" d="M 160.3125 37.644531 C 159.957031 37.644531 159.472656 38.617188 159.109375 39.097656 C 159 39.464844 159.355469 40.191406 159.355469 40.917969 C 159.472656 41.769531 160.453125 43.457031 161.046875 43.820312 C 161.417969 44.066406 161.78125 43.457031 162.632812 42.375 C 163.351562 41.160156 163.351562 41.160156 162.386719 39.835938 C 161.652344 38.617188 161.046875 37.644531 160.3125 37.644531 "/>
<path style=" stroke:none;fill-rule:evenodd;fill:rgb(0%,35.686275%,67.45098%);fill-opacity:1;" d="M 218.542969 60.667969 C 218.179688 59.828125 215.753906 59.089844 215.140625 58.730469 C 214.171875 58.367188 214.898438 57.753906 214.898438 57.507812 C 214.785156 57.144531 213.9375 57.390625 213.570312 56.914062 C 213.207031 56.550781 213.207031 55.9375 213.449219 55.8125 C 213.449219 55.574219 213.570312 55.457031 213.207031 55.09375 C 212.84375 54.605469 212.84375 55.09375 211.628906 55.09375 C 210.539062 55.09375 210.539062 55.210938 210.539062 55.457031 C 210.539062 55.8125 210.539062 56.183594 209.929688 56.425781 C 209.203125 56.550781 208.597656 56.789062 208.238281 57.390625 C 207.625 58.121094 207.261719 58.367188 207.261719 58.484375 C 207.261719 58.730469 207.625 58.847656 207.871094 58.847656 C 208.238281 58.847656 209.566406 58.121094 210.167969 57.878906 C 210.539062 57.753906 211.871094 57.390625 212.117188 57.507812 C 212.480469 57.753906 212.480469 58.367188 212.234375 58.367188 C 212.117188 58.484375 211.871094 58.484375 211.515625 58.367188 C 210.902344 58.367188 209.328125 58.847656 208.832031 59.203125 C 208.238281 59.6875 207.988281 60.179688 208.351562 60.425781 C 208.832031 61.011719 212.117188 61.011719 212.84375 60.773438 C 212.960938 60.773438 213.207031 59.828125 214.171875 59.828125 C 214.785156 59.828125 215.511719 60.425781 215.875 60.667969 C 216.230469 61.011719 216.605469 61.011719 216.480469 61.386719 C 216.480469 61.75 215.875 61.75 215.261719 62 C 214.898438 62 214.785156 61.75 214.785156 61.386719 C 214.785156 61.011719 214.539062 60.773438 213.9375 61.011719 C 213.449219 61.011719 212.597656 61.636719 211.871094 61.75 C 210.902344 62 208.964844 62.121094 208.597656 62.121094 C 208.238281 62.121094 206.296875 59.203125 205.683594 58.847656 C 205.332031 58.367188 205.5625 58.121094 205.5625 57.753906 C 205.5625 57.507812 209.203125 55.457031 210.289062 54.84375 C 211.628906 54.230469 211.871094 53.640625 211.871094 53.148438 C 211.628906 52.304688 210.289062 52.671875 209.566406 53.273438 C 208.832031 53.640625 207.015625 55.09375 206.652344 55.574219 C 206.171875 55.9375 205.5625 56.789062 205.199219 56.550781 C 204.59375 56.425781 204.59375 55.210938 204.355469 54.84375 C 204.230469 54.46875 203.867188 54.46875 203.257812 54.46875 C 202.40625 54.605469 202.042969 55.457031 200.234375 56.425781 C 199.375 56.914062 199.019531 56.914062 198.65625 57.390625 C 198.410156 57.507812 198.410156 58.121094 198.65625 58.367188 C 199.019531 58.730469 199.984375 58.484375 200.589844 58.367188 C 201.078125 58.367188 201.5625 57.878906 201.925781 57.753906 C 202.042969 57.753906 203.257812 59.089844 203.984375 59.6875 C 204.71875 60.179688 207.261719 63.328125 207.625 63.445312 C 208.964844 64.289062 210.539062 66.585938 210.539062 66.722656 C 210.65625 66.96875 210.902344 67.316406 210.539062 67.570312 C 209.929688 67.925781 209.929688 67.925781 209.929688 68.292969 C 210.167969 68.542969 211.628906 69.625 212.117188 69.875 C 212.597656 69.875 213.9375 69.875 214.171875 69.257812 C 214.539062 69.144531 213.9375 68.65625 213.8125 68.292969 C 213.449219 67.925781 213.449219 66.96875 212.84375 66.585938 C 212.117188 66.222656 209.566406 63.089844 209.566406 63.089844 C 209.566406 62.957031 211.265625 62.601562 211.628906 62.71875 C 212.117188 62.957031 212.117188 63.691406 212.84375 63.933594 C 213.207031 63.933594 213.207031 63.691406 213.570312 63.691406 C 214.171875 63.445312 214.171875 63.691406 216.113281 63.691406 C 218.054688 63.445312 218.179688 63.328125 218.542969 62.601562 C 218.90625 62.121094 219.144531 61.386719 218.542969 60.667969 "/>
<path style=" stroke:none;fill-rule:evenodd;fill:rgb(0%,35.686275%,67.45098%);fill-opacity:1;" d="M 205.683594 65.265625 C 205.5625 64.898438 203.257812 62.363281 202.652344 62 C 202.042969 61.75 201.679688 61.75 201.316406 62 C 201.078125 62.363281 200.589844 62.957031 200.351562 63.089844 C 200.234375 63.328125 200.953125 63.933594 201.316406 64.050781 C 201.679688 64.410156 202.289062 65.265625 202.652344 65.390625 C 203.257812 65.636719 203.984375 65.390625 203.867188 65.980469 C 203.867188 66.347656 202.652344 67.316406 202.042969 67.207031 C 200.953125 67.207031 199.984375 65.390625 198.769531 64.410156 C 198.410156 64.050781 197.679688 64.050781 197.320312 64.050781 C 196.957031 63.691406 196.46875 64.050781 196.46875 64.289062 C 196.46875 64.660156 196.957031 65.015625 196.957031 65.390625 C 197.078125 65.980469 197.441406 66.222656 198.046875 66.585938 C 199.019531 67.207031 199.984375 68.175781 200.351562 68.542969 C 200.589844 68.902344 200.953125 69.257812 199.738281 69.875 C 198.769531 70.476562 197.441406 70.839844 196.34375 70.476562 C 195.132812 69.875 194.402344 69.144531 194.28125 68.292969 C 194.039062 67.6875 193.679688 68.542969 193.429688 69.144531 C 193.3125 69.625 192.703125 70.476562 192.835938 70.839844 C 193.066406 71.195312 193.066406 71.433594 194.039062 71.808594 C 195.015625 71.929688 197.320312 72.535156 198.292969 72.417969 C 200.351562 72.179688 201.078125 70.597656 201.5625 70.597656 C 201.679688 70.597656 202.042969 71.195312 202.40625 71.433594 C 202.652344 71.566406 203.257812 72.78125 203.984375 72.78125 C 204.59375 72.78125 205.332031 72.535156 204.957031 71.195312 C 204.71875 70.597656 204.230469 70.597656 203.378906 69.5 C 203.378906 69.144531 203.867188 68.292969 203.984375 68.292969 C 204.230469 68.542969 206.652344 68.542969 207.015625 68.292969 C 207.261719 68.175781 207.625 66.96875 207.507812 66.722656 C 207.507812 66.347656 205.925781 65.390625 205.683594 65.265625 "/>
<path style=" stroke:none;fill-rule:evenodd;fill:rgb(0%,35.686275%,67.45098%);fill-opacity:1;" d="M 76.640625 123.652344 C 76.394531 124.023438 76.152344 124.261719 75.90625 124.503906 C 73.964844 127.652344 71.296875 138.1875 72.148438 143.035156 C 73 147.515625 73.363281 150.421875 76.640625 154.425781 Z M 76.640625 81.257812 L 76.640625 91.066406 C 74.699219 92.886719 72.636719 93.25 73.476562 94.449219 C 73.964844 95.421875 75.179688 95.308594 76.640625 95.789062 L 76.640625 102.445312 C 76.027344 102.207031 75.304688 102.207031 74.578125 102.207031 C 70.570312 102.445312 68.265625 104.511719 68.265625 106.210938 C 68.265625 108.027344 70.207031 128.246094 69.605469 131.648438 C 68.992188 135.164062 64.625 146.542969 65.960938 152.117188 C 67.539062 157.449219 73.121094 162.535156 74.453125 162.535156 C 74.9375 162.414062 75.78125 162.039062 76.640625 161.675781 L 76.640625 181.796875 C 72.148438 176.84375 63.417969 166.652344 60.625 160.59375 C 56.738281 152.242188 59.289062 147.152344 60.386719 138.667969 C 61.59375 130.191406 61.230469 116.496094 60.015625 108.988281 C 58.683594 98.699219 61.71875 97.980469 64.996094 94.699219 C 68.019531 91.679688 71.296875 91.066406 72.148438 86.585938 C 72.511719 83.308594 70.207031 81.851562 69.964844 80.050781 C 69.71875 78.589844 74.214844 79.316406 76.640625 81.257812 M 76.640625 91.066406 L 76.640625 81.257812 C 77.121094 81.621094 77.605469 82.105469 77.847656 82.589844 C 79.421875 85.246094 79.539062 88.152344 77.242188 90.453125 C 77.121094 90.703125 76.878906 90.945312 76.640625 91.066406 M 76.640625 102.445312 C 78.820312 102.941406 80.273438 104.511719 81.363281 104.871094 L 81.363281 105.125 L 81.363281 99.191406 C 81.117188 98.699219 80.875 98.578125 80.519531 98.230469 C 79.183594 96.644531 77.722656 96.039062 76.640625 95.789062 Z M 76.640625 154.425781 C 76.878906 154.796875 77.121094 155.035156 77.484375 155.390625 C 78.574219 156.472656 80.148438 157.328125 81.363281 158.054688 L 81.363281 147.996094 C 81.117188 147.640625 80.875 147.265625 80.875 147.152344 C 79.539062 144.730469 78.09375 140.132812 79.066406 134.800781 C 79.792969 129.710938 79.421875 128 81.117188 127.050781 L 81.363281 126.917969 L 81.363281 118.8125 C 79.421875 120.746094 77.605469 122.441406 76.640625 123.652344 Z M 76.640625 181.796875 C 78.339844 183.742188 79.421875 184.824219 79.421875 184.824219 C 79.421875 184.824219 78.820312 186.765625 78.09375 188.339844 C 77.484375 190.042969 79.066406 190.398438 79.917969 190.398438 C 80.148438 190.398438 80.875 189.671875 81.363281 188.703125 L 81.363281 171.5 C 79.539062 170.40625 78.09375 168.472656 77.484375 166.894531 C 77.121094 165.457031 75.542969 164.46875 78.09375 163.875 C 78.574219 163.875 79.917969 163.875 81.363281 164 L 81.363281 160.726562 C 80.519531 160.964844 79.539062 160.964844 78.820312 160.964844 C 77.960938 161.082031 77.242188 161.328125 76.640625 161.675781 Z M 82.214844 171.992188 L 82.214844 186.882812 C 81.972656 187.246094 81.609375 187.972656 81.363281 188.460938 L 81.363281 171.5 C 81.609375 171.75 81.972656 171.863281 82.214844 171.992188 M 82.214844 160.726562 L 82.214844 164.117188 C 81.972656 164.117188 81.609375 164.117188 81.363281 164 L 81.363281 160.726562 Z M 82.214844 149.460938 L 82.214844 158.535156 L 81.363281 158.054688 L 81.363281 147.996094 C 81.609375 148.488281 81.972656 148.972656 82.214844 149.460938 M 82.214844 117.960938 L 82.214844 126.320312 C 81.972656 126.4375 81.609375 126.679688 81.363281 126.917969 L 81.363281 118.8125 Z M 82.214844 100.511719 L 82.214844 105.125 C 81.972656 105.242188 81.734375 105.125 81.363281 105.125 L 81.363281 99.191406 C 81.734375 99.550781 81.972656 100.035156 82.214844 100.511719 M 94.582031 193.1875 C 96.648438 194.035156 98.589844 194.640625 100.042969 195.003906 L 100.042969 183.136719 C 98.953125 182.890625 97.980469 182.273438 98.714844 180.457031 C 98.953125 179.621094 99.558594 178.648438 100.042969 177.675781 L 100.042969 171.75 C 98.589844 173.933594 96.285156 176.578125 94.582031 177.675781 Z M 100.042969 108.402344 C 97.980469 108.402344 95.675781 108.402344 94.582031 108.152344 L 94.582031 111.898438 C 96.285156 111.285156 98.589844 110.699219 100.042969 110.699219 Z M 94.582031 146.542969 C 95.921875 141.457031 97.738281 135.890625 98.589844 132.867188 C 98.714844 132.492188 99.558594 132.613281 100.042969 132.253906 L 100.042969 128.621094 C 99.921875 128.621094 99.679688 128.375 99.921875 128 C 99.921875 127.894531 100.042969 127.40625 100.042969 127.050781 L 100.042969 119.410156 L 100.042969 119.53125 C 99.558594 121.113281 98.953125 123.039062 98.226562 124.980469 C 97.261719 128.375 98.34375 129.347656 95.558594 129.960938 L 94.582031 129.960938 L 94.582031 132.867188 C 95.3125 132.867188 95.921875 132.867188 95.675781 132.988281 C 95.558594 133.582031 95.3125 135.527344 94.582031 137.824219 Z M 100.042969 156.371094 C 98.714844 156.117188 96.285156 156.371094 94.582031 156.371094 L 94.582031 159.261719 C 95.558594 159.386719 96.402344 159.386719 97.015625 159.625 C 98.34375 159.625 98.953125 159.746094 100.042969 161.921875 L 100.042969 162.171875 Z M 100.042969 195.003906 L 100.042969 183.136719 C 100.648438 183.253906 101.496094 183.253906 101.984375 183.253906 C 102.347656 183.253906 102.828125 183.492188 103.199219 183.492188 L 103.199219 195.480469 C 102.347656 195.480469 101.621094 195.480469 100.894531 195.242188 C 100.648438 195.242188 100.285156 195.003906 100.042969 195.003906 M 100.042969 127.050781 L 100.042969 119.410156 C 101.496094 115.539062 102.347656 112.75 102.347656 111.058594 C 102.347656 110.699219 101.621094 110.445312 100.042969 110.699219 L 100.042969 108.402344 L 103.199219 108.402344 L 103.199219 117.960938 C 102.226562 120.5 101.011719 124.023438 100.042969 127.050781 M 100.042969 132.253906 C 100.285156 132.253906 100.648438 132.253906 100.894531 131.878906 C 101.011719 131.53125 101.265625 130.191406 101.011719 129.347656 C 101.011719 128.746094 100.53125 128.746094 100.042969 128.621094 Z M 103.199219 158.90625 L 103.199219 174.660156 C 102.226562 175.253906 101.011719 176.339844 100.042969 177.675781 L 100.042969 171.75 C 101.011719 170.53125 101.621094 169.679688 101.621094 169.203125 C 101.984375 167.863281 101.011719 164.46875 100.042969 162.171875 L 100.042969 156.371094 C 100.285156 156.371094 100.53125 156.472656 100.648438 156.472656 C 101.863281 156.964844 102.347656 157.328125 103.199219 158.90625 M 103.199219 195.480469 C 104.644531 195.605469 106.230469 195.847656 107.441406 195.847656 L 107.441406 183.492188 C 106.46875 184.105469 104.890625 183.742188 103.199219 183.492188 Z M 103.199219 117.960938 C 103.925781 115.300781 104.527344 113.605469 104.644531 113.238281 C 104.890625 112.617188 106.46875 112.75 107.441406 112.75 L 107.441406 108.988281 C 106.832031 108.632812 105.136719 108.402344 103.199219 108.402344 Z M 107.441406 166.167969 C 105.253906 166.40625 104.527344 166.40625 103.683594 162.171875 C 103.554688 160.59375 103.320312 159.625 103.199219 158.90625 L 103.199219 174.660156 C 103.320312 174.414062 103.683594 174.414062 103.683594 174.414062 C 104.527344 174.414062 105.503906 177.5625 105.867188 179.007812 C 106.230469 179.851562 106.957031 180.941406 107.441406 181.921875 L 107.441406 182.164062 L 107.441406 171.992188 C 107.195312 171.378906 106.957031 171.011719 107.441406 170.40625 Z M 107.441406 125.347656 C 106.59375 127.289062 105.625 129.234375 105.253906 130.191406 C 103.320312 135.402344 102.949219 140.371094 104.164062 144.242188 C 105.253906 147.882812 106.46875 150.421875 107.441406 152.242188 L 107.441406 152.480469 Z M 107.441406 195.847656 L 107.441406 183.492188 C 107.808594 183.136719 107.808594 182.765625 107.441406 182.164062 L 107.441406 172.101562 C 107.566406 172.351562 107.808594 172.714844 107.929688 173.3125 C 108.53125 175.007812 109.261719 176.214844 110.234375 179.488281 C 111.078125 181.558594 111.566406 182.765625 112.167969 183.253906 L 112.167969 202.148438 C 111.078125 203.003906 109.507812 201.535156 109.507812 201.535156 C 109.507812 201.535156 109.871094 200.445312 110.113281 199.484375 C 110.472656 198.871094 110.472656 198.144531 110.839844 197.425781 C 111.203125 196.21875 109.871094 196.21875 107.441406 195.847656 M 107.441406 112.75 C 107.566406 112.75 107.566406 112.75 107.808594 112.617188 C 108.773438 112.273438 109.144531 110.089844 107.441406 108.988281 Z M 112.167969 116.496094 L 112.167969 126.917969 C 110.839844 128 110.472656 131.53125 110.234375 133.582031 C 109.625 137.710938 110.839844 140.730469 112.167969 143.277344 L 112.167969 171.136719 C 111.804688 171.011719 111.449219 171.011719 111.078125 170.761719 C 108.773438 169.679688 108.53125 169.203125 107.566406 170.40625 L 107.441406 170.40625 L 107.441406 166.167969 C 107.566406 166.167969 107.566406 165.929688 107.808594 165.929688 C 110.113281 165.929688 111.929688 165.929688 111.929688 164 C 111.929688 162.296875 111.203125 158.90625 110.234375 157.449219 C 109.507812 156.117188 108.53125 154.664062 107.441406 152.480469 L 107.441406 125.347656 C 108.292969 123.164062 109.261719 121.113281 109.871094 119.894531 C 110.597656 118.199219 111.203125 117.597656 112.167969 116.496094 M 112.167969 98.578125 L 112.167969 103.183594 C 111.566406 102.570312 111.203125 101.863281 111.449219 100.269531 C 111.566406 99.550781 111.804688 98.949219 112.167969 98.578125 M 112.167969 202.148438 C 112.167969 202.027344 112.414062 202.027344 112.414062 202.027344 C 112.78125 201.421875 113.257812 200.207031 113.503906 198.75 C 113.875 196.941406 114.238281 196.460938 114.238281 196.460938 C 114.238281 196.460938 116.785156 196.578125 119.691406 196.804688 L 119.691406 185.800781 C 119.203125 185.667969 118.839844 185.429688 118.722656 185.0625 C 117.507812 183.136719 118.476562 180.582031 119.691406 177.3125 L 119.691406 167.863281 C 118.476562 168.101562 118.121094 164.59375 118.121094 162.652344 C 117.875 160.964844 117.386719 160.726562 117.75 158.054688 C 117.75 157.09375 118.722656 157.699219 119.691406 158.417969 L 119.691406 152.117188 C 117.75 150.90625 115.445312 148.972656 114.109375 146.914062 C 113.503906 145.949219 112.78125 144.730469 112.167969 143.402344 L 112.167969 143.277344 L 112.167969 171.136719 C 113.875 172.101562 114.84375 172.949219 115.808594 173.3125 C 117.023438 173.933594 117.386719 174.769531 116.542969 178.164062 C 115.558594 181.558594 115.082031 183.742188 113.746094 183.847656 C 113.140625 183.847656 112.53125 183.847656 112.167969 183.253906 Z M 119.691406 101.964844 C 118.722656 100.882812 118.121094 99.667969 117.386719 99.191406 C 116.421875 98.328125 113.503906 96.890625 112.167969 98.578125 L 112.167969 103.183594 C 113.140625 103.910156 114.71875 103.785156 116.421875 104.386719 C 118.476562 104.871094 119.203125 106.820312 118.722656 107.78125 C 117.023438 110.699219 115.082031 112.617188 113.257812 114.925781 C 112.78125 115.664062 112.414062 116.144531 112.167969 116.496094 L 112.167969 126.917969 C 112.414062 126.679688 112.414062 126.4375 112.78125 126.4375 C 114.238281 126.082031 117.507812 130.191406 119.691406 131.648438 L 119.691406 124.140625 C 118.359375 121.707031 116.785156 118.449219 118.121094 115.539062 C 118.359375 114.5625 118.839844 113.726562 119.691406 112.75 Z M 126.117188 139.632812 L 126.117188 161.203125 C 125.636719 160.964844 125.15625 161.203125 124.785156 161.328125 C 123.8125 161.675781 123.449219 163.496094 122.722656 166.769531 C 122.117188 170.167969 121.753906 170.042969 120.417969 174.660156 C 120.179688 175.382812 120.0625 176.339844 119.691406 177.191406 L 119.691406 177.3125 L 119.691406 167.863281 C 120.789062 167.746094 121.03125 164.46875 121.152344 163.023438 C 121.753906 160.726562 122.117188 160.238281 121.03125 159.386719 C 120.789062 159.261719 120.179688 158.90625 119.691406 158.417969 L 119.691406 152.117188 L 119.691406 152.242188 C 120.789062 152.84375 121.753906 153.199219 122.480469 153.199219 C 123.332031 153.199219 125.027344 145.332031 126.117188 139.632812 M 126.117188 129.585938 L 126.117188 132.988281 C 124.664062 132.613281 121.996094 132.988281 120.417969 132.253906 C 120.179688 132.128906 120.0625 131.878906 119.691406 131.648438 L 119.691406 124.140625 L 119.691406 124.371094 C 120.179688 125.46875 121.03125 126.4375 121.390625 127.289062 C 122.359375 128.621094 124.296875 129.347656 126.117188 129.585938 M 119.691406 196.804688 L 119.691406 185.800781 L 119.691406 186.042969 C 121.152344 186.527344 123.8125 186.15625 126.117188 185.667969 L 126.117188 196.941406 L 125.753906 196.941406 C 124.421875 196.941406 121.996094 196.941406 119.691406 196.804688 M 126.117188 104.871094 L 126.117188 108.027344 C 125.15625 108.402344 124.421875 108.746094 123.449219 109.359375 C 122.117188 110.320312 120.789062 111.417969 119.691406 112.75 L 119.691406 101.964844 C 120.789062 103.785156 121.996094 105.242188 122.722656 105.125 C 123.449219 105.125 124.785156 104.871094 126.117188 104.871094 M 126.117188 196.941406 C 128.0625 196.941406 132.308594 196.804688 136.191406 196.804688 L 136.304688 196.804688 L 136.304688 186.394531 L 136.191406 186.394531 C 134.367188 187 133.277344 186.527344 133.878906 185.429688 C 134.25 184.710938 135.332031 183.253906 136.191406 182.765625 L 136.304688 182.765625 L 136.304688 177.925781 C 136.304688 177.925781 136.191406 177.925781 136.191406 178.164062 C 135.941406 179.851562 131.9375 183.492188 129.640625 184.710938 C 128.90625 184.824219 127.453125 185.429688 126.117188 185.667969 Z M 136.304688 162.652344 L 136.191406 162.535156 C 133.878906 159.746094 126.363281 155.515625 126.363281 155.515625 C 126.117188 155.152344 126.117188 154.796875 126.117188 154.425781 L 126.117188 153.457031 C 126.363281 148.839844 129.640625 139.167969 130.246094 135.527344 C 130.246094 134.921875 130.367188 134.195312 130.609375 132.988281 C 130.972656 132.128906 133.398438 132.988281 132.902344 129.710938 C 132.902344 128.984375 132.308594 127.289062 132.308594 126.917969 C 133.640625 122.695312 134.976562 117.960938 136.191406 114.5625 L 136.304688 114.324219 L 136.304688 102.941406 L 136.191406 102.941406 C 133.878906 102.941406 131.699219 103.183594 130.003906 103.910156 C 128.90625 104.386719 127.453125 104.761719 126.117188 104.871094 L 126.117188 108.027344 C 127.453125 107.65625 129.027344 107.175781 130.972656 106.457031 C 134.25 105.484375 134.613281 107.65625 134.613281 107.65625 C 134.613281 107.65625 134.976562 109.484375 133.035156 114.6875 C 131.09375 120.144531 129.640625 128.984375 128.304688 129.585938 C 127.699219 129.710938 126.972656 129.710938 126.117188 129.585938 L 126.117188 132.988281 C 126.726562 132.988281 126.972656 133.210938 126.972656 133.582031 C 126.972656 133.949219 126.726562 136.257812 126.117188 139.167969 L 126.117188 161.203125 C 127.089844 161.328125 128.0625 162.535156 129.394531 163.023438 C 131.335938 164.234375 132.671875 164.832031 133.035156 168.839844 C 133.398438 172.949219 135.941406 175.742188 136.191406 177.5625 L 136.304688 177.5625 Z M 136.304688 114.324219 C 137.273438 111.65625 138 109.484375 138.253906 109.121094 C 138.980469 107.78125 141.515625 107.070312 142.253906 106.820312 C 144.433594 106.695312 143.953125 105.484375 142.976562 104.386719 C 142.492188 103.785156 140.320312 103.433594 137.644531 103.183594 C 137.035156 102.941406 136.671875 102.941406 136.304688 102.941406 Z M 146.859375 120.5 L 146.859375 137.710938 C 146.738281 139.042969 146.25 140.371094 146.132812 141.457031 C 145.894531 144.367188 146.132812 146.542969 146.859375 147.882812 L 146.859375 174.289062 C 145.894531 175.007812 144.917969 175.628906 143.953125 176.339844 C 141.277344 177.925781 141.277344 179.851562 141.890625 181.796875 C 142.136719 183.492188 144.917969 184.824219 146.859375 185.0625 L 146.859375 200.816406 C 145.773438 202.027344 143.953125 201.179688 143.953125 201.179688 C 143.953125 199.84375 143.589844 200.207031 144.191406 199.113281 C 144.554688 197.792969 144.796875 196.804688 144.796875 196.804688 L 136.304688 196.804688 L 136.304688 186.394531 C 138.253906 185.667969 138.488281 185.667969 138.859375 183.847656 C 138.980469 182.515625 137.882812 182.273438 136.917969 182.515625 C 136.671875 182.515625 136.554688 182.515625 136.304688 182.765625 L 136.304688 162.652344 C 136.671875 162.902344 136.917969 163.265625 136.917969 163.636719 C 137.882812 166.167969 138.980469 175.007812 140.1875 175.253906 C 141.277344 175.382812 144.433594 171.75 144.917969 170.042969 C 146.132812 166.539062 141.277344 162.535156 139.824219 160 C 138.253906 157.449219 135.941406 147.152344 138.488281 138.667969 C 139.585938 134.558594 143.589844 126.320312 146.859375 120.5 M 146.859375 200.816406 C 147.226562 200.445312 147.464844 199.84375 147.589844 199.113281 C 147.828125 197.894531 147.828125 196.941406 148.191406 195.847656 C 148.4375 195.605469 149.773438 195.480469 152.078125 194.878906 C 152.679688 194.878906 153.167969 194.640625 153.78125 194.515625 L 153.78125 182.164062 C 153.167969 182.164062 153.042969 181.429688 153.042969 179.621094 C 153.042969 178.289062 153.410156 176.703125 153.78125 175.382812 L 153.78125 165.570312 L 153.53125 165.804688 C 153.042969 166.539062 152.679688 167.140625 152.078125 166.894531 C 151.46875 166.894531 150.734375 165.929688 149.535156 163.636719 C 148.554688 161.675781 148.074219 159.261719 149.773438 157.449219 C 150.503906 156.730469 151.230469 156.371094 152.078125 156.371094 C 152.679688 156.117188 153.167969 156.371094 153.78125 156.371094 L 153.78125 152.117188 C 153.167969 151.878906 152.679688 151.878906 152.078125 151.753906 C 150.734375 151.753906 149.773438 151.148438 149.171875 150.90625 C 148.4375 150.171875 147.464844 149.460938 146.859375 147.996094 L 146.859375 147.882812 L 146.859375 174.289062 C 148.074219 173.4375 148.925781 172.714844 149.898438 172.101562 C 150.503906 171.75 151.707031 171.378906 152.078125 172.101562 C 152.203125 172.480469 152.203125 173.074219 152.078125 174.046875 C 151.839844 174.414062 151.839844 174.660156 151.839844 174.769531 C 150.503906 178.289062 149.773438 184.824219 147.828125 185.0625 L 146.859375 185.0625 Z M 153.78125 111.898438 C 153.167969 112.273438 152.679688 112.75 152.078125 113.238281 C 150.867188 114.199219 149.898438 115.183594 149.410156 116.144531 C 148.800781 117.234375 147.828125 118.574219 146.859375 120.25 L 146.859375 137.710938 L 146.859375 137.460938 C 147.828125 132.988281 149.410156 128.621094 149.898438 127.652344 C 150.734375 126.320312 151.105469 127.050781 152.078125 127.894531 C 152.433594 128 152.679688 128.375 153.042969 128.375 C 153.167969 128.375 153.53125 128.621094 153.78125 128.746094 Z M 153.78125 98.328125 C 153.167969 98.328125 152.679688 98.328125 152.078125 98.578125 C 151.46875 98.578125 151.105469 98.699219 150.734375 99.191406 C 148.191406 101.601562 149.773438 102.941406 152.078125 103.785156 C 152.679688 103.910156 153.167969 104.140625 153.78125 104.140625 Z M 158.382812 149.578125 L 158.382812 158.417969 C 157.050781 161.203125 156.441406 165.570312 155.835938 167.863281 C 155.476562 169.433594 154.863281 171.378906 154.382812 173.4375 C 154.136719 174.046875 154.019531 174.660156 153.78125 175.382812 L 153.78125 165.570312 C 154.019531 165.210938 154.136719 164.832031 154.382812 164.46875 C 154.5 163.496094 154.746094 162.171875 155.109375 160.363281 C 155.835938 157.699219 155.351562 156.964844 154.382812 156.730469 C 154.136719 156.472656 154.019531 156.472656 154.019531 156.472656 L 153.78125 156.371094 L 153.78125 152.117188 L 154.382812 152.117188 C 155.476562 152.117188 156.679688 151.878906 157.414062 151.511719 C 157.777344 151.398438 158.019531 150.542969 158.382812 149.578125 M 153.78125 194.515625 L 153.78125 182.164062 C 154.019531 182.273438 154.136719 182.273438 154.382812 182.273438 C 155.109375 182.164062 156.324219 181.558594 158.132812 180.941406 L 158.382812 180.941406 L 158.382812 192.589844 C 156.804688 193.308594 155.476562 193.914062 154.382812 194.277344 C 154.136719 194.277344 154.019531 194.277344 153.78125 194.515625 M 158.382812 108.746094 L 158.382812 113.238281 C 157.777344 113.726562 157.414062 114.324219 157.050781 114.6875 C 155.714844 116.992188 154.863281 117.597656 155.351562 121.707031 C 155.476562 124.742188 156.804688 126.4375 158.382812 127.40625 L 158.382812 131.648438 C 157.050781 131.28125 155.476562 129.960938 154.382812 129.234375 C 154.136719 128.984375 154.019531 128.746094 153.78125 128.746094 L 153.78125 111.898438 C 154.019531 111.65625 154.136719 111.65625 154.382812 111.417969 C 155.476562 110.445312 157.050781 109.726562 158.382812 108.746094 M 158.382812 99.910156 L 158.382812 105.722656 C 157.65625 105.242188 156.804688 104.871094 156.078125 104.761719 C 155.714844 104.511719 154.863281 104.511719 154.382812 104.386719 C 154.136719 104.386719 154.019531 104.386719 153.78125 104.140625 L 153.78125 98.328125 L 154.382812 98.328125 C 155.476562 98.578125 156.804688 99.191406 158.019531 99.667969 C 158.019531 99.667969 158.132812 99.910156 158.382812 99.910156 M 158.382812 68.902344 L 158.382812 70.476562 C 155.714844 69.144531 155.714844 68.292969 158.382812 68.902344 M 158.382812 192.589844 C 159.355469 192.21875 160.3125 191.605469 161.417969 191.242188 L 161.417969 179.488281 C 160.453125 179.984375 159.355469 180.582031 158.382812 180.941406 Z M 161.417969 103.183594 C 160.691406 101.863281 159.472656 100.636719 158.382812 99.910156 L 158.382812 105.722656 C 159.355469 106.210938 160.3125 106.820312 161.046875 107.175781 C 160.3125 107.65625 159.355469 108.152344 158.382812 108.746094 L 158.382812 113.238281 C 159.109375 112.273438 160.3125 111.285156 161.417969 110.320312 Z M 161.417969 150.90625 C 160.816406 150.785156 161.046875 148.839844 161.417969 145.699219 L 161.417969 128.246094 C 160.453125 128.375 159.355469 128.246094 158.382812 127.40625 L 158.382812 131.648438 C 158.746094 131.878906 159.109375 132.128906 159.472656 132.128906 C 160.3125 131.878906 161.289062 131.648438 161.417969 131.53125 L 161.417969 131.648438 C 161.289062 132.867188 160.453125 138.667969 159.71875 141.332031 C 159.355469 143.277344 159 147.265625 158.382812 149.578125 L 158.382812 158.417969 C 158.746094 157.449219 159.109375 156.964844 159.71875 156.472656 C 160.3125 156.371094 160.816406 155.996094 161.417969 155.746094 Z M 161.417969 69.875 C 161.046875 69.875 160.816406 69.625 160.453125 69.5 C 159.71875 69.257812 159 69.144531 158.382812 68.902344 L 158.382812 70.476562 C 159 70.839844 159.472656 70.960938 160.3125 71.433594 C 160.691406 71.808594 161.046875 71.929688 161.417969 72.179688 Z M 82.214844 105.125 C 83.304688 105 83.667969 102.941406 82.214844 100.511719 Z M 82.214844 126.320312 L 82.214844 117.960938 C 86.21875 114.324219 90.347656 110.699219 90.101562 109.960938 C 89.984375 106.695312 88.402344 107.78125 86.460938 105.722656 C 85.003906 103.539062 85.855469 99.667969 90.945312 102.570312 C 93.253906 103.910156 91.671875 106.695312 93.984375 108.027344 C 94.105469 108.152344 94.34375 108.152344 94.582031 108.152344 L 94.582031 111.898438 C 94.105469 112.023438 93.734375 112.273438 93.253906 112.394531 C 90.703125 114.199219 89.613281 114.199219 88.035156 116.871094 C 85.128906 122.195312 88.035156 123.039062 89.125 125.710938 C 90.703125 128.746094 92.402344 129.960938 94.582031 129.960938 L 94.582031 132.867188 C 93.371094 132.867188 91.671875 132.988281 90.703125 132.492188 C 89.011719 131.53125 87.789062 130.191406 85.367188 127.050781 C 84.15625 125.597656 83.1875 125.832031 82.214844 126.320312 M 82.214844 186.882812 L 82.214844 171.992188 C 82.585938 172.101562 82.941406 172.226562 83.425781 172.351562 C 84.039062 172.480469 85.003906 170.40625 85.367188 168.472656 C 85.734375 166.539062 86.699219 165.210938 85.734375 164.59375 C 85.609375 164.59375 84.039062 164.363281 82.214844 164.117188 L 82.214844 160.726562 C 83.667969 160.726562 84.757812 160.726562 84.757812 160.238281 C 84.757812 159.871094 83.667969 159.261719 82.214844 158.535156 L 82.214844 149.460938 C 85.128906 153.199219 88.152344 154.796875 89.125 154.664062 C 90.347656 154.425781 91.066406 147.996094 92.769531 144 C 93.371094 142.296875 94.105469 139.996094 94.582031 137.824219 L 94.582031 146.667969 C 93.253906 151.753906 92.289062 155.996094 92.769531 156.117188 C 93.015625 156.371094 93.734375 156.371094 94.582031 156.371094 L 94.582031 159.261719 C 93.015625 159.019531 91.4375 159.261719 91.066406 160 C 90.945312 160.964844 93.371094 164.234375 93.015625 165.457031 C 92.035156 167.5 89.367188 165.210938 89.011719 166.40625 C 87.789062 170.042969 86.699219 173.675781 86.460938 174.660156 C 86.335938 176.214844 88.035156 175.980469 89.367188 176.960938 C 90.945312 177.675781 91.066406 179.488281 93.371094 178.53125 C 93.734375 178.289062 94.105469 178.164062 94.582031 177.675781 L 94.582031 193.1875 C 89.613281 191.003906 84.394531 187.972656 82.453125 186.394531 C 82.453125 186.394531 82.335938 186.527344 82.214844 186.882812 M 168.449219 174.046875 L 168.449219 186.882812 C 168.207031 187.132812 167.847656 187.378906 167.597656 187.484375 C 165.417969 188.949219 163.351562 190.042969 161.417969 191.003906 L 161.417969 179.488281 C 164.574219 177.5625 167.355469 175.132812 168.449219 174.046875 M 168.449219 150.542969 L 168.449219 155.152344 C 168.207031 154.914062 167.847656 154.796875 167.597656 154.796875 C 165.90625 154.796875 163.351562 155.152344 161.417969 155.746094 L 161.417969 150.90625 C 163.597656 151.261719 166.753906 150.542969 168.449219 150.542969 M 168.449219 104.140625 L 168.449219 117.597656 C 167.722656 119.894531 166.992188 122.320312 166.265625 124.980469 C 166.027344 125.960938 167.597656 126.917969 167.597656 128 C 167.355469 131.53125 164.941406 130.917969 164.691406 132.128906 C 163.351562 137.085938 162.261719 142.058594 161.417969 145.574219 L 161.417969 128.246094 C 161.78125 128 162.015625 128 162.261719 128 C 163.351562 127.40625 163.964844 123.402344 164.574219 120.746094 C 165.054688 117.960938 166.992188 112.273438 167.597656 110.445312 C 168.207031 108.988281 167.96875 106.085938 165.417969 107.65625 C 164.324219 108.152344 162.988281 109.121094 161.417969 110.320312 L 161.417969 103.183594 C 162.386719 104.386719 162.988281 105.242188 163.351562 106.085938 C 165.054688 105.242188 166.382812 104.761719 166.992188 104.511719 C 167.480469 104.386719 167.96875 104.265625 168.449219 104.140625 M 168.449219 73.625 L 168.449219 78.109375 C 166.265625 75.8125 163.839844 73.625 161.417969 72.179688 L 161.417969 69.875 C 163.722656 70.722656 166.140625 72.046875 168.449219 73.625 M 168.449219 78.109375 L 168.449219 73.625 C 171.964844 76.164062 175.359375 79.316406 178.277344 82.34375 L 178.523438 82.34375 L 178.523438 91.066406 L 178.277344 91.066406 C 177.546875 89.738281 176.8125 88.402344 175.605469 86.949219 C 174.152344 85.011719 171.480469 81.386719 168.449219 78.109375 M 168.449219 117.597656 L 168.449219 104.140625 C 170.628906 103.785156 172.207031 104.386719 172.207031 104.386719 C 172.207031 104.386719 179.605469 105.722656 171.964844 108.152344 C 171.480469 108.269531 170.148438 112.15625 168.449219 117.597656 M 168.449219 186.882812 L 168.449219 174.046875 L 168.574219 173.933594 C 170.027344 172.351562 172.335938 166.894531 172.335938 165.210938 C 172.335938 163.636719 170.511719 156.847656 168.449219 155.152344 L 168.449219 150.542969 C 168.8125 150.421875 169.058594 150.542969 169.300781 150.542969 C 170.628906 151.148438 172.941406 158.417969 173.179688 159.019531 C 173.179688 159.019531 172.207031 124.023438 174.269531 115.539062 C 175.003906 112.273438 176.8125 109.726562 178.277344 107.78125 L 178.523438 107.78125 L 178.523438 114.5625 L 178.277344 114.5625 C 177.796875 115.664062 177.546875 116.628906 177.546875 117.234375 C 177.546875 118.574219 177.796875 120.25 178.277344 120.144531 L 178.523438 120.144531 L 178.523438 163.496094 C 178.523438 163.636719 178.523438 163.636719 178.277344 163.636719 C 178.277344 164 178.160156 164.46875 177.910156 164.832031 C 176.582031 168.234375 174.878906 170.40625 174.878906 170.40625 C 173.179688 173.074219 172.335938 175.253906 175.847656 172.480469 C 176.8125 171.378906 177.546875 170.40625 178.277344 169.433594 C 178.523438 169.433594 178.523438 169.203125 178.523438 169.203125 L 178.523438 177.5625 L 178.277344 177.5625 C 175.847656 180.21875 172.453125 183.972656 168.449219 186.882812 M 190.523438 96.890625 C 189.066406 94.699219 184.222656 88.511719 178.523438 82.34375 L 178.523438 91.066406 C 182.890625 98.230469 184.097656 103.539062 184.097656 103.539062 C 184.097656 103.539062 181.183594 104.871094 178.523438 107.78125 L 178.523438 114.5625 C 179.488281 112.394531 181.183594 110.089844 182.398438 108.988281 C 184.460938 107.070312 185.425781 108.988281 185.1875 109.960938 C 185.0625 112.273438 183.253906 113.957031 181.910156 114.6875 C 178.636719 117.234375 179.605469 119.410156 178.636719 119.894531 C 178.523438 119.894531 178.523438 119.894531 178.523438 120.144531 L 178.523438 163.496094 C 180.457031 158.300781 180.21875 155.152344 180.089844 148.839844 C 179.851562 141.457031 179.488281 134.195312 180.21875 135.402344 C 181.183594 136.492188 183.488281 145.949219 183.488281 150.542969 C 183.253906 159.625 183.253906 163.023438 178.523438 169.203125 L 178.523438 177.5625 C 179.488281 176.578125 180.457031 175.628906 181.183594 174.769531 C 187.492188 168.839844 189.066406 159.625 190.15625 156.730469 C 191.125 153.699219 190.398438 149.460938 188.46875 144 C 186.890625 138.800781 184.832031 131.53125 183.851562 127.050781 C 182.761719 122.695312 182.398438 118.929688 183.726562 116.992188 C 184.832031 115.183594 185.0625 114.925781 186.890625 115.902344 C 188.46875 116.628906 189.191406 118.574219 188.46875 126.4375 C 187.738281 134.800781 188.707031 136.730469 191.007812 131.648438 C 192.835938 127.050781 192.703125 122.078125 192.835938 118.929688 C 193.3125 115.664062 193.800781 112.75 194.652344 111.285156 C 195.378906 109.726562 193.3125 101.238281 190.523438 96.890625 "/>
<path style=" stroke:none;fill-rule:evenodd;fill:rgb(0%,35.686275%,67.45098%);fill-opacity:1;" d="M 25.09375 159.625 C 24.726562 159.386719 24.363281 159.261719 24 159.019531 C 22.058594 158.054688 20.722656 156.371094 20.113281 154.050781 C 19.632812 151.878906 19.996094 149.824219 20.96875 147.882812 C 22.058594 145.949219 24 144.625 26.421875 144 C 27.023438 143.761719 27.875 143.628906 28.363281 143.628906 L 28.609375 143.628906 L 28.609375 146.542969 C 28.238281 146.542969 27.875 146.667969 27.269531 146.667969 C 24.605469 147.265625 22.785156 148.488281 21.699219 149.933594 C 20.722656 151.148438 20.722656 152.480469 20.96875 153.820312 C 21.332031 155.390625 22.300781 156.472656 23.753906 157.09375 C 24.238281 157.328125 24.605469 157.449219 24.96875 157.449219 C 25.332031 157.699219 25.691406 157.699219 26.296875 157.699219 L 26.421875 157.699219 C 26.90625 157.699219 27.269531 157.699219 27.394531 157.449219 L 28.363281 157.449219 L 28.609375 157.328125 L 28.609375 160.238281 C 27.394531 160.238281 26.296875 160 25.09375 159.625 M 28.609375 160.238281 C 29.335938 160.238281 29.941406 160 30.667969 159.746094 C 32.96875 159.019531 34.910156 157.929688 36.125 155.996094 C 37.214844 153.820312 37.578125 151.878906 36.972656 149.824219 C 36.488281 147.640625 35.273438 146.195312 33.332031 144.96875 C 32.96875 144.730469 32.613281 144.625 32.359375 144.367188 C 32.242188 144.367188 32.242188 144.367188 32.242188 144.242188 C 31.886719 144.242188 31.507812 144 31.03125 144 L 31.03125 143.761719 C 30.667969 143.761719 30.300781 143.761719 29.941406 143.628906 L 28.609375 143.628906 L 28.609375 146.542969 C 30.179688 146.195312 31.277344 146.195312 32.359375 146.304688 L 32.359375 146.542969 C 32.847656 146.542969 33.210938 146.667969 33.582031 146.667969 C 34.910156 147.265625 35.644531 148.488281 36.125 149.824219 C 36.488281 151.398438 36.246094 152.726562 35.519531 153.820312 C 34.308594 155.152344 32.359375 156.371094 29.699219 157.09375 C 29.335938 157.328125 28.964844 157.328125 28.609375 157.328125 Z M 28.609375 160.238281 "/>
<path style=" stroke:none;fill-rule:evenodd;fill:rgb(0%,35.686275%,67.45098%);fill-opacity:1;" d="M 19.996094 132.867188 L 32.359375 131.878906 L 32.613281 134.445312 C 32.847656 134.921875 32.613281 135.527344 32.359375 135.890625 C 32.242188 136.492188 32.003906 136.730469 31.507812 137.085938 C 31.277344 137.222656 30.667969 137.222656 29.941406 137.460938 L 30.179688 138.074219 L 33.945312 137.460938 L 32.96875 124.023438 L 29.210938 124.023438 L 29.210938 124.503906 C 29.941406 124.503906 30.550781 124.503906 30.914062 124.980469 C 31.507812 125.105469 31.640625 125.46875 31.886719 125.960938 C 32.003906 126.320312 32.003906 126.917969 32.242188 127.652344 L 32.242188 129.585938 L 19.757812 130.566406 C 18.78125 130.566406 18.292969 130.566406 17.816406 130.316406 C 17.445312 130.191406 17.089844 129.585938 17.089844 128.746094 L 17.089844 128.246094 L 16.71875 128.375 L 17.089844 135.402344 L 17.683594 135.402344 L 17.683594 134.800781 C 17.445312 134.195312 17.683594 133.582031 17.816406 133.210938 C 18.292969 132.988281 18.78125 132.988281 19.996094 132.867188 "/>
<path style=" stroke:none;fill-rule:evenodd;fill:rgb(0%,35.686275%,67.45098%);fill-opacity:1;" d="M 46.429688 175.628906 C 47.039062 175.742188 47.40625 175.980469 47.769531 176.703125 L 48.015625 177.3125 L 48.378906 177.191406 L 45.828125 171.992188 L 45.21875 172.101562 L 45.703125 172.480469 C 45.828125 173.074219 46.074219 173.675781 45.828125 174.046875 C 45.703125 174.414062 45.101562 174.769531 44.25 175.382812 L 35.644531 179.621094 L 42.195312 164.832031 L 40.128906 160.964844 L 39.765625 160.964844 C 40.128906 161.570312 40.128906 161.675781 40.128906 162.171875 C 40.253906 162.535156 40.253906 163.023438 40.128906 163.265625 C 40.128906 163.636719 40.128906 164 39.765625 164.832031 L 29.335938 170.042969 C 28.609375 170.40625 27.996094 170.53125 27.644531 170.53125 C 27.023438 170.53125 26.90625 170.167969 26.421875 169.679688 L 26.296875 169.085938 L 25.691406 169.203125 L 28.363281 174.414062 L 28.726562 174.289062 L 28.609375 173.675781 C 28.238281 173.074219 28.238281 172.480469 28.363281 172.101562 C 28.609375 171.992188 28.964844 171.5 29.941406 171.011719 L 38.917969 166.40625 L 32.003906 182.273438 L 32.242188 182.515625 L 44.738281 176.214844 C 45.703125 175.742188 46.199219 175.628906 46.429688 175.628906 "/>
<path style=" stroke:none;fill-rule:evenodd;fill:rgb(0%,35.686275%,67.45098%);fill-opacity:1;" d="M 55.65625 197.894531 L 56.019531 197.792969 L 51.773438 192.6875 L 51.410156 193.1875 C 52.015625 193.546875 52.128906 194.035156 52.128906 194.277344 L 52.128906 195.003906 C 52.015625 195.480469 51.648438 195.847656 51.039062 196.21875 L 47.40625 199.484375 C 46.792969 199.113281 46.199219 198.871094 45.828125 198.507812 C 45.21875 198.273438 44.855469 197.792969 44.25 197.425781 C 43.765625 196.578125 43.402344 195.605469 43.160156 194.515625 C 42.914062 193.308594 43.160156 191.976562 43.765625 190.628906 C 44.25 189.421875 45.21875 188.339844 46.429688 187.132812 C 48.015625 186.042969 49.707031 185.195312 51.410156 185.0625 C 53.351562 184.824219 55.042969 185.429688 56.375 187.132812 C 57.355469 188.339844 57.722656 189.671875 57.722656 191.003906 C 57.597656 191.976562 57.101562 192.9375 56.628906 194.035156 L 56.738281 194.515625 L 60.625 190.761719 L 60.261719 190.398438 C 59.902344 190.628906 59.652344 190.761719 59.410156 190.761719 C 59.289062 190.761719 59.050781 190.761719 59.050781 190.628906 C 58.925781 190.398438 58.683594 190.265625 58.683594 189.671875 C 58.320312 188.949219 57.960938 188.339844 57.722656 187.726562 C 57.597656 187.378906 57.101562 186.765625 56.738281 186.394531 C 55.773438 185.0625 54.441406 184.222656 53.351562 183.742188 C 51.648438 183.253906 50.074219 183.136719 48.132812 183.492188 C 46.792969 183.847656 45.464844 184.46875 44.25 185.429688 C 42.796875 186.765625 41.824219 188.339844 41.460938 190.265625 C 40.855469 192.9375 41.582031 195.480469 43.765625 197.894531 C 44.492188 198.75 45.21875 199.484375 46.074219 200.082031 C 46.792969 200.445312 47.769531 201.054688 48.492188 201.421875 L 52.5 198.144531 C 53.105469 197.550781 53.714844 197.179688 54.085938 197.179688 C 54.441406 196.941406 55.042969 197.425781 55.410156 197.792969 Z M 55.65625 197.894531 "/>
<path style=" stroke:none;fill-rule:evenodd;fill:rgb(0%,35.686275%,67.45098%);fill-opacity:1;" d="M 69.84375 200.445312 C 70.328125 200.207031 70.816406 200.445312 71.296875 200.816406 L 71.90625 201.179688 L 72.148438 200.816406 L 66.566406 196.460938 L 66.328125 196.804688 L 66.6875 197.179688 C 67.175781 197.425781 67.292969 197.792969 67.539062 198.144531 L 67.539062 198.871094 C 67.539062 199.113281 67.175781 199.484375 66.566406 200.207031 L 59.410156 209.054688 C 59.050781 209.65625 58.683594 209.894531 58.320312 209.894531 C 57.960938 210.019531 57.722656 210.019531 57.597656 209.894531 C 57.355469 209.65625 57.355469 209.296875 57.597656 208.933594 C 57.722656 208.214844 57.722656 207.601562 57.722656 207.351562 C 57.722656 206.984375 57.597656 206.984375 57.355469 206.746094 C 57.101562 206.390625 56.738281 206.390625 56.375 206.390625 C 56.019531 206.390625 55.773438 206.625 55.65625 206.984375 C 55.285156 207.351562 55.042969 207.726562 55.285156 208.316406 C 55.285156 208.933594 55.773438 209.542969 56.375 209.894531 C 56.984375 210.503906 57.960938 210.875 58.683594 210.875 C 59.652344 210.875 60.386719 210.503906 60.992188 210.019531 C 61.71875 209.65625 62.558594 209.054688 63.296875 207.972656 L 68.511719 201.777344 C 68.992188 200.816406 69.480469 200.445312 69.84375 200.445312 "/>
<path style=" stroke:none;fill-rule:evenodd;fill:rgb(0%,35.686275%,67.45098%);fill-opacity:1;" d="M 75.542969 203.488281 L 76.152344 203.960938 C 76.515625 204.085938 76.757812 204.332031 76.878906 204.6875 C 77.121094 204.9375 77.121094 205.300781 77.121094 205.417969 C 77.121094 205.652344 76.757812 206.269531 76.515625 206.984375 L 70.933594 216.199219 C 70.570312 217.054688 70.207031 217.53125 69.84375 217.773438 C 69.480469 218.011719 68.875 217.773438 68.265625 217.53125 L 67.65625 217.167969 L 67.539062 217.53125 L 73.601562 221.285156 L 73.847656 220.679688 L 73.476562 220.433594 C 73.121094 220.316406 72.871094 219.953125 72.511719 219.714844 C 72.273438 219.34375 72.273438 219.101562 72.273438 218.984375 C 72.273438 218.5 72.636719 218.144531 73.121094 217.398438 L 78.457031 208.214844 C 79.066406 207.351562 79.421875 206.746094 79.539062 206.625 C 80.148438 206.390625 80.753906 206.625 81.363281 206.984375 L 81.734375 207.226562 L 81.859375 206.746094 L 75.90625 203.355469 Z M 75.542969 203.488281 "/>
<path style=" stroke:none;fill-rule:evenodd;fill:rgb(0%,35.686275%,67.45098%);fill-opacity:1;" d="M 106.832031 216.449219 L 107.441406 216.5625 C 108.171875 216.804688 108.53125 217.054688 108.773438 217.53125 C 108.894531 217.773438 108.894531 218.5 108.53125 219.476562 L 106.957031 226.015625 C 106.59375 227.816406 105.988281 228.90625 105.625 229.769531 C 105.136719 230.25 104.527344 230.738281 103.554688 230.855469 C 102.347656 231.226562 101.621094 231.226562 100.53125 230.855469 C 99.558594 230.738281 98.953125 230.5 98.589844 229.894531 C 97.980469 229.523438 97.617188 229.15625 97.378906 228.558594 C 97.261719 227.941406 97.261719 227.464844 97.378906 226.496094 C 97.378906 225.644531 97.378906 224.925781 97.617188 224.3125 L 99.558594 217.167969 C 99.679688 216.199219 99.921875 215.828125 100.285156 215.472656 C 100.53125 215.234375 101.011719 215.109375 101.621094 215.234375 L 102.347656 215.472656 L 102.347656 215.109375 L 95.558594 213.289062 L 95.3125 213.777344 L 96.039062 213.894531 C 96.648438 214.148438 97.015625 214.265625 97.261719 214.742188 C 97.378906 215.109375 97.378906 215.710938 97.261719 216.5625 L 95.558594 222.988281 C 95.070312 224.925781 94.945312 226.253906 94.945312 226.976562 C 95.070312 228.191406 95.558594 229.15625 96.285156 229.894531 C 97.015625 230.855469 98.34375 231.464844 100.042969 232.070312 C 101.621094 232.433594 103.199219 232.433594 104.164062 232.070312 C 105.253906 231.464844 105.988281 230.855469 106.59375 230.136719 C 107.195312 229.28125 107.566406 227.941406 107.929688 226.496094 L 109.625 219.953125 C 109.871094 218.984375 110.113281 218.375 110.234375 218.144531 C 110.839844 217.773438 111.449219 217.53125 111.929688 217.773438 L 112.53125 218.011719 L 112.78125 217.53125 L 106.957031 216.066406 Z M 106.832031 216.449219 "/>
<path style=" stroke:none;fill-rule:evenodd;fill:rgb(0%,35.686275%,67.45098%);fill-opacity:1;" d="M 127.699219 218.375 L 128.304688 218.375 C 129.027344 218.375 129.394531 218.5 129.640625 218.984375 C 129.765625 219.101562 130.003906 219.953125 130.003906 220.796875 L 129.640625 230.5 L 120.0625 217.53125 L 115.445312 217.398438 L 115.445312 218.011719 C 116.054688 218.011719 116.421875 218.011719 116.542969 218.144531 C 117.023438 218.375 117.386719 218.375 117.507812 218.5 C 117.875 218.738281 118.121094 219.101562 118.722656 219.953125 L 118.359375 231.226562 C 118.359375 232.183594 118.121094 232.800781 117.875 233.164062 C 117.507812 233.535156 117.144531 233.773438 116.421875 233.773438 L 115.808594 233.773438 L 115.808594 234.121094 L 121.507812 234.359375 L 121.507812 234.007812 L 121.03125 234.007812 C 120.417969 234.007812 119.816406 233.535156 119.691406 233.402344 C 119.453125 233.035156 119.203125 232.433594 119.453125 231.226562 L 119.691406 221.285156 L 130.246094 234.980469 L 130.609375 234.980469 L 130.972656 220.796875 C 130.972656 219.953125 131.09375 219.34375 131.335938 219.101562 C 131.699219 218.738281 132.0625 218.5 132.902344 218.5 L 133.398438 218.5 L 133.398438 218.144531 L 127.699219 217.773438 Z M 127.699219 218.375 "/>
<path style=" stroke:none;fill-rule:evenodd;fill:rgb(0%,35.686275%,67.45098%);fill-opacity:1;" d="M 146.5 232.070312 L 145.285156 232.070312 C 144.917969 231.820312 144.796875 231.820312 144.554688 231.707031 C 144.554688 231.226562 144.433594 230.738281 144.191406 229.894531 L 142.253906 219.34375 C 141.890625 218.375 141.890625 217.773438 142.136719 217.398438 C 142.492188 217.054688 142.863281 216.804688 143.464844 216.5625 L 143.953125 216.449219 L 143.953125 216.066406 L 136.917969 217.398438 L 137.035156 217.773438 L 138.859375 217.773438 C 138.980469 218.011719 139.21875 218.011719 139.34375 218.144531 C 139.585938 218.375 139.585938 219.101562 139.824219 219.953125 L 141.890625 230.5 C 142.136719 231.464844 142.136719 232.070312 141.890625 232.433594 C 141.890625 232.800781 141.277344 233.035156 140.550781 233.164062 L 140.1875 233.402344 L 140.1875 233.773438 L 147.101562 232.433594 L 147.101562 232.070312 Z M 146.5 232.070312 "/>
<path style=" stroke:none;fill-rule:evenodd;fill:rgb(0%,35.686275%,67.45098%);fill-opacity:1;" d="M 160.453125 211.238281 L 160.691406 211.84375 L 160.816406 211.601562 C 161.417969 211.601562 161.78125 211.601562 162.261719 211.84375 C 162.386719 211.84375 162.632812 211.957031 162.632812 212.199219 C 162.75 212.5625 162.75 213.289062 162.75 214.265625 L 162.261719 224.683594 L 155.109375 216.804688 C 154.382812 216.066406 154.019531 215.710938 154.019531 215.234375 C 153.78125 214.867188 153.78125 214.742188 154.019531 214.507812 C 154.136719 214.148438 154.5 213.894531 155.351562 213.535156 L 155.109375 213.171875 L 148.800781 215.472656 L 148.800781 215.828125 C 149.410156 215.710938 149.773438 215.710938 150.128906 215.710938 C 150.378906 215.710938 150.734375 215.828125 151.105469 215.828125 C 151.105469 216.066406 151.46875 216.199219 152.078125 217.054688 L 162.632812 228.558594 L 162.988281 228.316406 L 163.964844 213.171875 C 163.964844 212.199219 164.085938 211.601562 164.324219 210.992188 C 164.691406 210.625 164.941406 210.261719 165.417969 210.019531 L 165.300781 209.65625 Z M 160.453125 211.238281 "/>
<path style=" stroke:none;fill-rule:evenodd;fill:rgb(0%,35.686275%,67.45098%);fill-opacity:1;" d="M 186.160156 210.875 C 186.410156 211.957031 186.160156 212.9375 186.160156 213.535156 C 186.039062 214.148438 185.796875 214.742188 185.558594 214.867188 C 185.1875 215.234375 184.832031 215.710938 183.851562 216.199219 L 181.546875 217.773438 C 181.183594 218.011719 180.941406 218.011719 180.578125 218.011719 C 180.457031 218.144531 180.457031 218.011719 180.21875 218.011719 C 180.089844 217.773438 179.851562 217.53125 179.488281 216.804688 L 176.457031 212.445312 L 179.488281 210.261719 C 180.089844 209.894531 180.457031 209.65625 180.941406 209.65625 C 181.183594 209.65625 181.546875 209.65625 181.910156 209.894531 C 182.15625 209.894531 182.519531 210.503906 183.125 210.992188 L 183.253906 210.625 L 180.21875 205.777344 L 179.851562 206.269531 C 180.457031 206.984375 180.457031 207.601562 180.457031 208.214844 C 180.21875 208.558594 179.851562 209.054688 179.128906 209.65625 L 175.96875 211.601562 L 172.335938 206.027344 L 176.210938 203.488281 C 176.9375 203.105469 177.308594 202.761719 177.796875 202.761719 C 178.160156 202.511719 178.523438 202.761719 178.878906 203.003906 C 179.242188 203.105469 179.851562 203.355469 180.457031 204.085938 L 180.816406 203.960938 L 178.636719 200.816406 L 167.96875 207.726562 L 168.207031 208.316406 L 168.695312 207.972656 C 169.058594 207.601562 169.664062 207.351562 170.027344 207.601562 C 170.511719 207.601562 170.882812 208.214844 171.363281 209.054688 L 177.308594 218.011719 C 177.796875 218.738281 178.160156 219.101562 178.160156 219.476562 C 178.160156 219.714844 178.160156 219.953125 177.910156 220.316406 C 177.796875 220.679688 177.546875 220.796875 177.183594 221.046875 L 176.8125 221.417969 L 176.9375 221.773438 L 187.738281 214.867188 L 186.523438 210.503906 Z M 186.160156 210.875 "/>
<path style=" stroke:none;fill-rule:evenodd;fill:rgb(0%,35.686275%,67.45098%);fill-opacity:1;" d="M 191.125 191.003906 L 191.125 192.6875 L 191.007812 192.6875 C 190.398438 192.6875 190.042969 192.9375 189.429688 193.308594 C 189.191406 193.546875 189.066406 193.675781 188.828125 193.914062 C 188.46875 194.035156 188.101562 194.640625 187.738281 195.242188 L 191.125 199.113281 L 191.125 202.511719 L 187.128906 198.273438 C 186.410156 197.550781 185.796875 196.941406 185.558594 196.941406 C 185.0625 196.941406 184.578125 197.179688 184.097656 197.550781 L 183.726562 198.144531 L 183.253906 197.792969 L 187.738281 193.546875 C 189.066406 192.34375 190.042969 191.605469 190.769531 191.242188 C 191.007812 191.003906 191.125 191.003906 191.125 191.003906 M 204.355469 198.871094 C 203.867188 199.113281 202.652344 199.113281 201.5625 198.75 L 195.617188 197.792969 C 196.46875 196.578125 196.957031 195.480469 196.957031 194.515625 C 196.714844 193.308594 196.34375 192.589844 195.617188 191.730469 C 195.015625 191.242188 194.28125 190.628906 193.3125 190.628906 L 192.703125 190.628906 C 192.339844 190.628906 191.738281 190.628906 191.371094 190.761719 L 191.125 191.003906 L 191.125 192.6875 L 191.371094 192.6875 C 192.339844 192.6875 193.066406 193.1875 193.800781 193.914062 C 194.652344 194.640625 194.765625 195.480469 194.765625 196.578125 C 194.652344 197.550781 194.039062 198.75 192.835938 199.84375 C 192.835938 199.84375 192.703125 199.84375 192.703125 200.082031 C 192.703125 200.082031 192.460938 200.207031 192.339844 200.207031 L 191.125 199.113281 L 191.125 202.511719 L 194.652344 206.027344 C 195.132812 206.625 195.617188 207.226562 195.617188 207.351562 C 195.742188 207.972656 195.617188 208.558594 195.015625 209.054688 L 194.652344 209.542969 L 194.765625 209.894531 L 199.984375 204.6875 L 199.738281 204.445312 L 199.261719 204.9375 C 198.769531 205.417969 198.410156 205.417969 197.914062 205.417969 C 197.441406 205.417969 196.957031 205.050781 196.34375 204.332031 L 192.835938 200.816406 C 193.066406 200.816406 193.066406 200.691406 193.3125 200.691406 C 193.3125 200.445312 193.429688 200.445312 193.429688 200.445312 C 193.679688 200.207031 193.800781 199.84375 194.28125 199.714844 L 203.621094 201.179688 L 206.90625 198.273438 L 206.527344 197.894531 C 205.683594 198.507812 204.957031 198.871094 204.355469 198.871094 "/>
<path style=" stroke:none;fill-rule:evenodd;fill:rgb(0%,35.686275%,67.45098%);fill-opacity:1;" d="M 214.296875 180.832031 C 213.8125 180.457031 213.207031 180.21875 212.597656 180.21875 C 211.871094 179.984375 211.265625 180.21875 210.539062 180.457031 C 209.804688 180.457031 208.597656 180.941406 207.015625 181.796875 C 205.199219 182.765625 203.867188 183.253906 203.015625 183.253906 C 202.40625 183.492188 202.042969 183.253906 201.5625 183.136719 C 201.078125 182.515625 200.710938 182.164062 200.589844 181.429688 C 200.589844 180.582031 200.710938 179.851562 201.078125 179.007812 C 201.5625 178.53125 202.042969 178.164062 202.894531 177.675781 C 203.621094 177.3125 204.355469 177.191406 205.199219 177.3125 C 205.925781 177.3125 206.652344 177.5625 207.625 178.164062 L 207.988281 177.675781 L 203.257812 174.414062 L 203.015625 174.769531 C 203.257812 175.007812 203.378906 175.382812 203.378906 175.382812 L 203.378906 175.980469 C 203.257812 176.214844 202.894531 176.339844 202.40625 176.703125 C 201.5625 177.3125 200.953125 177.925781 200.351562 178.648438 C 199.625 179.621094 199.261719 180.941406 199.375 182.164062 C 199.625 183.492188 200.234375 184.46875 201.078125 185.195312 C 201.679688 185.429688 202.289062 185.800781 202.894531 185.800781 C 203.621094 186.042969 204.230469 185.800781 204.957031 185.667969 C 205.683594 185.429688 206.90625 184.824219 208.351562 184.222656 C 209.804688 183.492188 210.65625 183.136719 211.144531 182.890625 C 211.628906 182.765625 212.234375 182.765625 212.597656 182.765625 C 213.207031 182.765625 213.449219 182.890625 213.8125 183.253906 C 214.539062 183.742188 214.898438 184.222656 214.898438 185.0625 C 214.898438 185.800781 214.785156 186.765625 214.171875 187.484375 C 213.570312 188.339844 212.960938 188.703125 212.234375 189.058594 C 211.515625 189.421875 210.902344 189.671875 210.167969 189.671875 C 209.328125 189.671875 208.597656 189.308594 207.507812 188.949219 L 207.261719 189.058594 L 211.871094 192.589844 L 212.117188 192.21875 C 211.871094 191.730469 211.628906 191.605469 211.628906 191.363281 C 211.628906 191.242188 211.628906 191.242188 211.871094 191.003906 C 211.871094 190.761719 212.234375 190.398438 212.960938 189.785156 C 213.570312 189.421875 214.171875 189.058594 214.171875 188.949219 C 214.539062 188.460938 214.898438 188.339844 215.140625 187.726562 C 216.113281 186.527344 216.230469 185.195312 216.230469 183.847656 C 215.875 182.515625 215.261719 181.558594 214.296875 180.832031 "/>
<path style=" stroke:none;fill-rule:evenodd;fill:rgb(0%,35.686275%,67.45098%);fill-opacity:1;" d="M 224.367188 170.042969 C 224.117188 170.40625 224 170.53125 223.511719 170.761719 C 223.390625 171.011719 223.152344 171.011719 222.789062 171.011719 C 222.546875 171.011719 222.058594 170.761719 221.457031 170.40625 L 211.871094 165.570312 C 210.902344 164.957031 210.289062 164.59375 210.167969 164.46875 C 209.929688 163.875 209.929688 163.496094 210.289062 162.902344 L 210.539062 162.296875 L 210.167969 162.171875 L 207.015625 168.472656 L 207.507812 168.714844 L 207.625 168.101562 C 207.871094 167.746094 207.988281 167.5 208.351562 167.269531 C 208.597656 167.140625 208.964844 166.894531 209.203125 166.894531 C 209.328125 167.140625 209.929688 167.269531 210.65625 167.746094 L 220.242188 172.480469 C 221.210938 172.949219 221.695312 173.3125 221.820312 173.675781 C 222.058594 174.046875 222.058594 174.660156 221.695312 175.253906 L 221.457031 175.742188 L 221.820312 175.980469 L 225.09375 169.679688 L 224.726562 169.433594 Z M 224.367188 170.042969 "/>
<path style=" stroke:none;fill-rule:evenodd;fill:rgb(0%,35.686275%,67.45098%);fill-opacity:1;" d="M 230.0625 152.84375 C 229.941406 153.457031 229.699219 153.820312 229.335938 154.050781 C 228.972656 154.183594 228.371094 154.183594 227.398438 153.820312 L 215.140625 150.542969 L 215.753906 148.238281 C 215.875 147.640625 216.113281 147.152344 216.480469 146.667969 C 216.84375 146.542969 217.214844 146.195312 217.816406 146.195312 C 218.054688 145.949219 218.542969 145.949219 219.144531 146.195312 L 219.386719 145.699219 L 215.753906 144.730469 L 212.117188 158.054688 L 215.753906 159.261719 L 215.875 158.664062 C 215.140625 158.417969 214.785156 158.054688 214.296875 157.699219 C 213.9375 157.328125 213.8125 156.964844 213.8125 156.472656 C 213.8125 156.117188 213.8125 155.515625 213.9375 154.796875 L 214.539062 152.84375 L 226.785156 156.117188 C 227.757812 156.371094 228.125 156.730469 228.488281 156.964844 C 228.726562 157.328125 228.726562 157.929688 228.488281 158.417969 L 228.488281 159.019531 L 228.972656 159.261719 L 230.667969 152.242188 L 230.3125 152.242188 Z M 230.0625 152.84375 "/>
<path style=" stroke:none;fill-rule:evenodd;fill:rgb(0%,35.686275%,67.45098%);fill-opacity:1;" d="M 233.941406 129.710938 L 233.703125 130.316406 C 233.703125 130.917969 233.578125 131.53125 233.09375 131.648438 C 232.976562 131.878906 232.128906 132.128906 231.285156 131.878906 L 227.03125 131.648438 L 221.09375 127.289062 C 220.242188 126.679688 219.757812 126.082031 219.515625 125.710938 C 219.144531 125.46875 218.90625 125.105469 218.78125 124.503906 C 218.542969 124.140625 218.542969 124.023438 218.542969 123.652344 L 218.542969 123.402344 L 218.054688 123.402344 L 217.578125 129.234375 L 218.179688 129.234375 C 218.179688 128.746094 218.179688 128.375 218.417969 128.246094 C 218.542969 128 218.542969 127.894531 218.78125 127.894531 C 218.90625 127.652344 219.144531 127.652344 219.386719 127.652344 C 219.878906 127.652344 220.242188 128 221.09375 128.375 L 226.066406 132.128906 L 220.484375 135.164062 C 219.515625 135.527344 219.144531 135.890625 218.78125 135.890625 C 218.417969 135.765625 218.179688 135.527344 218.054688 135.164062 C 217.816406 134.921875 217.816406 134.558594 217.816406 134.195312 L 217.816406 133.820312 L 217.445312 133.820312 L 216.84375 140.984375 L 217.214844 140.984375 C 217.214844 140.488281 217.445312 140.371094 217.445312 140.132812 C 217.816406 139.632812 218.054688 139.167969 218.417969 139.042969 C 218.542969 138.800781 219.144531 138.667969 219.878906 138.074219 L 227.148438 133.949219 L 231.039062 134.445312 C 232.003906 134.445312 232.613281 134.445312 232.738281 134.800781 C 233.34375 134.921875 233.578125 135.527344 233.34375 136.257812 L 233.34375 136.855469 L 233.703125 136.855469 L 234.308594 129.710938 Z M 233.941406 129.710938 "/>
</g>
</svg>
