<?xml version="1.0" encoding="UTF-8"?>
<svg xmlns="http://www.w3.org/2000/svg" xmlns:xlink="http://www.w3.org/1999/xlink" width="252pt" height="252pt" viewBox="0 0 252 252" version="1.1">
<g id="surface1">
<path style=" stroke:none;fill-rule:nonzero;fill:rgb(0%,0%,60%);fill-opacity:1;" d="M 119.796875 14.914062 C 118.714844 15.0625 116.351562 15.308594 114.484375 15.453125 C 96.8125 17.175781 79.390625 23.527344 64.082031 33.863281 C 54.484375 40.359375 44.691406 49.660156 37.601562 59.0625 C 25.742188 74.8125 17.914062 94.597656 16.09375 113.644531 C 15.945312 115.320312 15.652344 118.175781 15.453125 119.898438 C 14.914062 125.410156 15.503906 135.597656 16.882812 143.816406 C 17.667969 148.589844 19.589844 155.972656 21.3125 160.996094 C 30.566406 187.71875 49.859375 209.96875 75.15625 223.15625 C 95.042969 233.492188 118.519531 237.53125 140.519531 234.429688 C 176.597656 229.308594 207.703125 207.0625 224.042969 174.628906 C 232.015625 158.78125 235.808594 142.882812 235.808594 125.066406 C 235.808594 117.535156 235.414062 112.90625 234.28125 106.3125 C 230.394531 83.574219 219.171875 62.359375 202.386719 46.070312 C 184.421875 28.597656 162.078125 18.0625 137.125 15.355469 C 132.449219 14.816406 122.554688 14.570312 119.796875 14.914062 Z M 119.796875 14.914062 "/>
<path style=" stroke:none;fill-rule:nonzero;fill:rgb(100%,100%,100%);fill-opacity:1;" d="M 133.085938 19.097656 C 156.417969 20.867188 178.074219 29.875 195.496094 45.132812 C 225.667969 71.5625 238.367188 112.167969 228.71875 150.953125 C 226.703125 159.125 222.714844 169.117188 218.582031 176.449219 C 216.414062 180.289062 211.148438 188.113281 208.34375 191.609375 C 205.242188 195.449219 196.824219 203.960938 192.886719 207.160156 C 163.40625 231.132812 124.472656 237.726562 89.085938 224.734375 C 64.671875 215.726562 44 197.664062 31.695312 174.480469 C 13.683594 140.519531 15.601562 99.273438 36.71875 67.183594 C 41.539062 59.851562 45.722656 54.78125 52.074219 48.675781 C 70.53125 30.859375 93.367188 20.820312 119.652344 19 C 122.703125 18.800781 129.59375 18.851562 133.085938 19.097656 Z M 133.085938 19.097656 "/>
<path style=" stroke:none;fill-rule:nonzero;fill:rgb(0%,25.098039%,0%);fill-opacity:1;" d="M 121.226562 22.886719 C 112.414062 23.527344 107.050781 24.363281 100.457031 26.085938 C 86.378906 29.726562 74.125 35.878906 62.113281 45.28125 C 58.226562 48.332031 49.464844 57.042969 46.265625 61.03125 C 36.371094 73.433594 29.1875 88.445312 25.9375 103.800781 C 24.265625 111.53125 23.96875 114.875 23.96875 125.113281 C 23.96875 135.007812 24.167969 137.222656 25.542969 144.457031 C 28.300781 158.925781 34.402344 172.90625 43.214844 185.113281 C 49.21875 193.429688 58.421875 202.585938 66.496094 208.292969 C 81.308594 218.726562 97.304688 224.832031 115.613281 226.949219 C 119.601562 227.390625 132.546875 227.390625 136.484375 226.949219 C 149.574219 225.421875 160.355469 222.171875 171.96875 216.316406 C 183.488281 210.460938 194.21875 202.238281 203.125 192.394531 C 206.523438 188.605469 212.082031 180.535156 215.675781 174.136719 C 221.730469 163.257812 225.863281 150.660156 227.585938 137.515625 C 228.226562 132.839844 228.277344 118.714844 227.734375 114.136719 C 225.519531 96.074219 219.664062 80.667969 209.523438 66.148438 C 203.273438 57.191406 194.414062 48.332031 184.914062 41.539062 C 182.011719 39.472656 175.023438 35.242188 171.773438 33.664062 C 160.945312 28.300781 149.132812 24.804688 137.171875 23.476562 C 133.480469 23.035156 123.835938 22.691406 121.226562 22.886719 Z M 121.226562 22.886719 "/>
<path style=" stroke:none;fill-rule:nonzero;fill:rgb(100%,100%,100%);fill-opacity:1;" d="M 111.039062 29.433594 C 111.039062 29.582031 110.839844 29.679688 110.59375 29.679688 C 110.347656 29.679688 110.101562 29.828125 110.003906 30.074219 C 109.90625 30.269531 110.445312 32.925781 111.136719 35.929688 C 111.824219 38.980469 112.414062 41.738281 112.414062 42.03125 C 112.414062 42.378906 112.121094 43.066406 111.777344 43.558594 C 110.101562 46.019531 105.96875 46.214844 104.738281 43.855469 C 104.394531 43.214844 101.832031 32.730469 101.832031 32.042969 C 101.832031 31.941406 101.488281 31.894531 101.09375 31.894531 C 99.175781 31.894531 102.078125 30.566406 104.097656 30.515625 C 104.785156 30.515625 104.738281 31.058594 104.046875 31.253906 C 103.753906 31.351562 103.507812 31.5 103.507812 31.695312 C 103.507812 32.484375 106.117188 43.3125 106.460938 43.804688 C 107.296875 45.183594 110.101562 44.839844 111.039062 43.261719 C 111.332031 42.769531 111.578125 42.132812 111.578125 41.785156 C 111.578125 41.441406 111.039062 38.785156 110.347656 35.832031 C 109.660156 32.878906 109.117188 30.417969 109.117188 30.367188 C 109.117188 30.269531 108.773438 30.269531 108.429688 30.367188 C 107.886719 30.464844 107.738281 30.367188 107.789062 30.074219 C 107.839844 29.828125 108.378906 29.53125 109.265625 29.335938 C 110.691406 28.941406 111.039062 28.988281 111.039062 29.433594 Z M 111.039062 29.433594 "/>
<path style=" stroke:none;fill-rule:nonzero;fill:rgb(100%,100%,100%);fill-opacity:1;" d="M 125.261719 28.152344 C 125.261719 28.398438 124.964844 28.546875 124.523438 28.546875 L 123.785156 28.546875 L 123.933594 30.417969 C 124.03125 31.449219 124.226562 34.304688 124.375 36.765625 C 124.523438 39.226562 124.71875 41.6875 124.769531 42.277344 C 124.867188 43.066406 124.820312 43.3125 124.523438 43.3125 C 124.328125 43.3125 122.40625 40.457031 120.242188 36.914062 L 116.351562 30.515625 L 116.5 32.535156 C 117.191406 42.671875 117.191406 42.871094 117.929688 43.066406 C 118.273438 43.164062 118.667969 43.363281 118.714844 43.558594 C 118.8125 43.804688 118.371094 43.902344 117.289062 43.953125 C 116.402344 43.953125 115.566406 44 115.417969 44 C 115.222656 44 115.023438 43.855469 114.976562 43.707031 C 114.875 43.507812 115.074219 43.363281 115.46875 43.363281 C 115.8125 43.363281 116.15625 43.164062 116.253906 42.917969 C 116.453125 42.378906 115.613281 29.875 115.367188 29.433594 C 115.269531 29.285156 114.875 29.136719 114.53125 29.136719 C 114.1875 29.136719 113.84375 28.988281 113.84375 28.84375 C 113.84375 28.496094 114.976562 28.203125 116.105469 28.351562 C 116.992188 28.449219 117.191406 28.695312 120.390625 33.960938 C 122.210938 37.011719 123.734375 39.425781 123.785156 39.425781 C 123.933594 39.277344 123.097656 29.136719 122.898438 28.890625 C 122.800781 28.742188 122.457031 28.644531 122.210938 28.742188 C 121.914062 28.84375 121.621094 28.695312 121.570312 28.496094 C 121.375 28.003906 121.914062 27.859375 123.835938 27.808594 C 124.917969 27.757812 125.261719 27.859375 125.261719 28.152344 Z M 125.261719 28.152344 "/>
<path style=" stroke:none;fill-rule:nonzero;fill:rgb(100%,100%,100%);fill-opacity:1;" d="M 136.433594 28.203125 C 136.730469 28.25 136.925781 28.449219 136.925781 28.644531 C 136.925781 28.890625 136.484375 28.941406 135.546875 28.890625 C 134.761719 28.84375 134.171875 28.890625 134.171875 29.039062 C 134.171875 29.1875 133.972656 31.796875 133.777344 34.847656 C 133.53125 37.898438 133.332031 40.949219 133.332031 41.589844 L 133.332031 42.722656 L 134.664062 42.96875 C 136.238281 43.261719 136.1875 43.804688 134.613281 43.707031 C 129.839844 43.460938 128.609375 43.261719 128.609375 42.871094 C 128.609375 42.523438 128.855469 42.476562 129.839844 42.574219 C 130.625 42.671875 131.167969 42.625 131.265625 42.425781 C 131.511719 42.082031 132.496094 29.089844 132.300781 28.792969 C 132.25 28.695312 131.609375 28.546875 130.921875 28.546875 C 129.988281 28.546875 129.691406 28.449219 129.691406 28.105469 C 129.691406 27.710938 130.085938 27.660156 132.839844 27.859375 C 134.5625 28.003906 136.1875 28.152344 136.433594 28.203125 Z M 136.433594 28.203125 "/>
<path style=" stroke:none;fill-rule:nonzero;fill:rgb(100%,100%,100%);fill-opacity:1;" d="M 144.308594 29.234375 C 145.835938 29.628906 146.277344 30.171875 145.246094 30.320312 C 144.605469 30.417969 144.605469 30.417969 144.507812 35.140625 C 144.457031 37.75 144.507812 40.164062 144.605469 40.554688 C 144.753906 41.097656 145.195312 40.457031 147.261719 36.617188 C 148.640625 34.109375 149.773438 31.84375 149.773438 31.695312 C 149.773438 31.550781 149.574219 31.304688 149.378906 31.253906 C 149.132812 31.15625 148.9375 30.910156 148.9375 30.761719 C 148.9375 30.464844 149.183594 30.464844 150.460938 30.761719 C 151.347656 30.957031 152.085938 31.203125 152.183594 31.304688 C 152.429688 31.550781 151.988281 31.992188 151.59375 31.84375 C 151.050781 31.648438 150.460938 32.535156 146.96875 39.078125 C 145.195312 42.378906 143.621094 45.085938 143.472656 45.085938 C 143.03125 45.085938 142.785156 41.539062 142.785156 35.09375 C 142.785156 29.972656 142.734375 29.726562 142.242188 29.582031 C 141.601562 29.433594 141.75 28.941406 142.488281 28.941406 C 142.734375 28.84375 143.523438 29.039062 144.308594 29.234375 Z M 144.308594 29.234375 "/>
<path style=" stroke:none;fill-rule:nonzero;fill:rgb(100%,100%,100%);fill-opacity:1;" d="M 159.910156 33.664062 L 163.800781 35.140625 L 163.898438 36.914062 C 163.949219 38.242188 163.898438 38.636719 163.601562 38.636719 C 163.355469 38.636719 163.0625 38.144531 162.914062 37.457031 C 162.765625 36.816406 162.421875 36.027344 162.226562 35.78125 C 161.734375 35.191406 158.433594 33.8125 158.140625 34.109375 C 157.796875 34.453125 155.925781 39.226562 156.074219 39.472656 C 156.121094 39.570312 156.910156 39.917969 157.746094 40.210938 L 159.320312 40.753906 L 160.109375 39.769531 C 160.550781 39.226562 160.945312 38.882812 161.042969 38.980469 C 161.289062 39.226562 159.417969 44.148438 159.074219 43.953125 C 158.925781 43.855469 158.828125 43.3125 158.828125 42.671875 C 158.828125 41.6875 158.730469 41.492188 157.796875 41.046875 C 155.679688 40.0625 155.679688 40.0625 154.300781 43.609375 C 153.613281 45.378906 153.167969 46.855469 153.316406 47.003906 C 153.414062 47.101562 154.300781 47.496094 155.1875 47.839844 C 157.203125 48.578125 158.289062 48.429688 159.617188 47.300781 C 160.996094 46.070312 161.042969 46.707031 159.714844 48.53125 L 158.582031 50.054688 L 157.007812 49.414062 C 156.121094 49.070312 154.203125 48.332031 152.726562 47.742188 C 151.101562 47.101562 150.019531 46.5625 150.019531 46.316406 C 150.019531 46.070312 150.265625 45.96875 150.804688 46.070312 C 151.59375 46.214844 151.59375 46.214844 153.859375 40.164062 C 155.136719 36.816406 156.171875 33.863281 156.171875 33.617188 C 156.171875 33.371094 155.972656 33.074219 155.777344 32.976562 C 155.285156 32.78125 155.234375 32.238281 155.679688 32.238281 C 155.875 32.1875 157.796875 32.878906 159.910156 33.664062 Z M 159.910156 33.664062 "/>
<path style=" stroke:none;fill-rule:nonzero;fill:rgb(100%,100%,100%);fill-opacity:1;" d="M 173.003906 39.964844 C 174.332031 40.800781 175.367188 42.277344 175.367188 43.214844 C 175.367188 44.296875 174.332031 46.070312 173.347656 46.660156 C 172.855469 46.953125 171.96875 47.199219 171.28125 47.199219 C 169.953125 47.199219 170 47.054688 169.507812 51.582031 C 169.214844 54.089844 169.261719 54.484375 169.65625 54.929688 C 170.347656 55.714844 169.855469 55.8125 168.671875 55.222656 C 167.394531 54.582031 167.394531 54.484375 167.984375 49.957031 C 168.523438 46.117188 168.523438 46.214844 167.640625 45.824219 C 167.246094 45.625 166.902344 45.527344 166.851562 45.578125 C 166.800781 45.625 166.0625 47.003906 165.179688 48.578125 C 163.75 51.136719 163.652344 51.53125 164.046875 51.828125 C 164.539062 52.171875 164.6875 52.910156 164.242188 52.714844 C 163.109375 52.320312 160.601562 50.890625 160.699219 50.695312 C 160.75 50.546875 161.140625 50.398438 161.585938 50.398438 C 162.324219 50.398438 162.617188 50.007812 165.523438 44.691406 C 167.246094 41.589844 168.671875 38.832031 168.671875 38.636719 C 168.671875 38.441406 168.476562 38.195312 168.230469 38.046875 C 167.984375 37.898438 167.835938 37.652344 167.933594 37.503906 C 168.179688 37.210938 170.492188 38.339844 173.003906 39.964844 Z M 173.003906 39.964844 "/>
<path style=" stroke:none;fill-rule:nonzero;fill:rgb(100%,100%,100%);fill-opacity:1;" d="M 74.761719 51.582031 C 79.636719 55.46875 80.667969 56.160156 81.308594 56.058594 C 82.589844 55.863281 82.441406 56.257812 80.71875 57.636719 C 79.488281 58.621094 79.046875 58.816406 78.945312 58.519531 C 78.847656 58.273438 78.898438 58.027344 79.046875 57.929688 C 79.191406 57.832031 79.292969 57.636719 79.292969 57.4375 C 79.292969 57.042969 76.140625 54.4375 75.648438 54.4375 C 75.5 54.4375 74.714844 54.929688 74.023438 55.519531 L 72.695312 56.550781 L 73.433594 58.273438 C 74.417969 60.488281 74.8125 60.933594 75.601562 60.734375 C 75.945312 60.636719 76.238281 60.6875 76.238281 60.835938 C 76.238281 61.277344 73.730469 63.097656 73.386719 62.902344 C 73.1875 62.804688 73.238281 62.605469 73.433594 62.410156 C 73.632812 62.210938 73.730469 61.917969 73.730469 61.71875 C 73.730469 61.523438 72.402344 58.324219 70.824219 54.683594 C 68.265625 48.875 67.921875 47.9375 68.265625 47.445312 C 68.464844 47.152344 68.710938 46.90625 68.808594 46.90625 C 68.90625 46.953125 71.5625 49.023438 74.761719 51.582031 Z M 74.761719 51.582031 "/>
<path style=" stroke:none;fill-rule:nonzero;fill:rgb(100%,100%,100%);fill-opacity:1;" d="M 85.296875 37.503906 C 85.394531 37.652344 85.199219 37.898438 84.902344 38.046875 C 84.605469 38.195312 84.3125 38.488281 84.3125 38.6875 C 84.3125 38.882812 85.835938 41.738281 87.660156 45.035156 C 89.480469 48.332031 91.003906 51.238281 91.003906 51.382812 C 91.003906 51.925781 90.613281 51.679688 84.359375 47.546875 C 81.113281 45.378906 78.453125 43.609375 78.355469 43.609375 C 78.308594 43.609375 79.585938 46.019531 81.160156 48.921875 C 84.015625 54.089844 84.113281 54.238281 84.902344 54.089844 C 86.28125 53.796875 86.035156 54.386719 84.410156 55.273438 C 83.476562 55.765625 82.738281 56.011719 82.589844 55.863281 C 82.441406 55.714844 82.539062 55.46875 82.933594 55.273438 C 83.277344 55.074219 83.523438 54.878906 83.523438 54.730469 C 83.523438 54.535156 77.222656 43.015625 76.929688 42.769531 C 76.878906 42.722656 76.484375 42.820312 76.140625 42.96875 C 74.863281 43.558594 75.15625 42.671875 76.484375 41.886719 L 77.714844 41.148438 L 88.839844 48.53125 L 87.804688 46.660156 C 87.265625 45.625 86.082031 43.507812 85.199219 41.933594 C 83.621094 39.078125 83.621094 39.078125 82.738281 39.226562 C 81.40625 39.472656 81.605469 38.980469 83.277344 37.996094 C 84.902344 37.160156 85.050781 37.109375 85.296875 37.503906 Z M 85.296875 37.503906 "/>
<path style=" stroke:none;fill-rule:nonzero;fill:rgb(100%,100%,100%);fill-opacity:1;" d="M 183.191406 46.460938 C 183.882812 46.808594 184.816406 47.644531 185.257812 48.285156 C 185.703125 48.921875 186.34375 49.464844 186.589844 49.464844 C 187.226562 49.464844 187.226562 49.515625 186.195312 51.136719 C 185.011719 53.105469 184.621094 52.960938 184.765625 50.746094 C 184.867188 48.972656 184.867188 48.921875 183.882812 47.9375 C 183.144531 47.199219 182.699219 46.953125 181.914062 46.953125 C 180.632812 46.953125 179.648438 47.59375 179.253906 48.675781 C 178.910156 49.613281 179.15625 50.398438 180.730469 53.648438 C 181.273438 54.78125 181.765625 56.109375 181.765625 56.503906 C 181.765625 58.421875 180.140625 60.441406 178.269531 60.785156 C 176.300781 61.128906 175.023438 60.390625 172.808594 57.636719 C 172.660156 57.4375 172.316406 57.289062 171.96875 57.289062 C 171.429688 57.289062 171.476562 57.144531 172.414062 55.320312 C 173.003906 54.238281 173.59375 53.351562 173.839844 53.351562 C 174.136719 53.351562 174.183594 53.5 174.085938 53.84375 C 173.988281 54.089844 173.839844 54.929688 173.742188 55.617188 C 173.347656 58.914062 176.695312 61.03125 179.007812 58.964844 C 180.335938 57.78125 180.289062 56.453125 178.714844 53.15625 C 177.039062 49.613281 177.089844 48.332031 179.007812 46.855469 C 180.582031 45.722656 181.519531 45.625 183.191406 46.460938 Z M 183.191406 46.460938 "/>
<path style=" stroke:none;fill-rule:nonzero;fill:rgb(100%,100%,100%);fill-opacity:1;" d="M 134.023438 48.628906 C 162.570312 51.828125 186.882812 70.234375 197.464844 96.664062 C 200.417969 104.046875 201.796875 110.199219 202.878906 120.683594 L 203.078125 122.703125 L 205.046875 121.519531 C 207.605469 119.996094 210.605469 117.582031 213.609375 114.582031 L 216.019531 112.21875 L 216.019531 113.105469 C 216.019531 114.976562 214.839844 122.257812 214.296875 123.882812 C 212.328125 129.59375 209.230469 133.1875 204.207031 135.648438 C 203.125 136.1875 202.191406 136.730469 202.09375 136.925781 C 201.992188 137.125 201.945312 142.929688 202.042969 149.871094 L 202.191406 162.472656 L 205.242188 162.472656 L 208.246094 167.046875 L 211.246094 171.625 L 212.722656 171.625 C 213.511719 171.625 214.152344 171.722656 214.101562 171.871094 C 214.050781 172.019531 213.019531 173.742188 211.835938 175.761719 L 209.671875 179.402344 L 184.964844 179.402344 L 182.058594 181.960938 C 175.121094 188.015625 164.539062 194.757812 156.761719 198.007812 C 142.785156 203.863281 126.886719 205.683594 111.921875 203.078125 C 103.210938 201.550781 94.84375 198.597656 87.066406 194.316406 C 80.324219 190.625 75.796875 187.128906 71.023438 182.011719 L 68.316406 179.105469 L 55.566406 179.15625 L 42.820312 179.207031 L 40.554688 175.613281 C 39.324219 173.644531 38.242188 171.871094 38.195312 171.675781 C 38.09375 171.429688 38.488281 171.332031 39.671875 171.332031 L 41.292969 171.332031 L 43.363281 167.292969 L 45.429688 163.257812 L 46.808594 163.160156 L 48.183594 163.0625 L 48.285156 137.171875 L 45.871094 135.941406 C 40.0625 132.941406 36.472656 127.28125 34.402344 117.683594 C 33.617188 114.039062 33.222656 111.675781 33.320312 111.675781 C 33.371094 111.675781 34.355469 112.660156 35.585938 113.84375 C 38.933594 117.089844 47.054688 122.554688 48.53125 122.554688 C 48.875 122.554688 49.023438 121.867188 49.316406 118.714844 C 50.890625 100.355469 58.621094 83.820312 71.664062 70.777344 C 73.878906 68.5625 77.027344 65.707031 78.601562 64.476562 C 89.773438 55.8125 103.0625 50.300781 116.699219 48.628906 C 120.488281 48.332031 130.578125 48.285156 134.023438 48.628906 Z M 134.023438 48.628906 "/>
<path style=" stroke:none;fill-rule:nonzero;fill:rgb(100%,100%,100%);fill-opacity:1;" d="M 62.113281 53.796875 C 61.964844 54.386719 62.605469 55.074219 66.59375 59.011719 C 69.152344 61.523438 71.417969 63.589844 71.664062 63.640625 C 71.910156 63.6875 72.253906 63.589844 72.449219 63.394531 C 72.746094 63.148438 72.84375 63.148438 72.84375 63.441406 C 72.84375 63.835938 70.628906 66.199219 70.285156 66.199219 C 70.1875 66.199219 70.136719 65.855469 70.234375 65.511719 C 70.382812 64.871094 70.085938 64.527344 67.972656 62.507812 L 65.511719 60.242188 L 63.738281 62.066406 L 61.964844 63.886719 L 64.230469 66.148438 C 66.394531 68.363281 67.234375 68.808594 67.625 68.167969 C 67.773438 67.921875 67.871094 67.921875 68.117188 68.167969 C 68.316406 68.363281 68.019531 68.855469 67.035156 69.839844 C 65.65625 71.21875 65.164062 71.417969 65.460938 70.382812 C 65.609375 69.742188 63.6875 67.625 58.519531 62.851562 C 56.257812 60.785156 55.714844 60.390625 55.371094 60.6875 C 55.175781 60.882812 54.828125 60.933594 54.632812 60.835938 C 54.4375 60.6875 54.78125 60.144531 55.667969 59.257812 C 56.40625 58.519531 57.09375 57.882812 57.242188 57.882812 C 57.339844 57.882812 57.390625 58.226562 57.289062 58.667969 C 57.144531 59.359375 57.339844 59.652344 59.257812 61.472656 L 61.425781 63.542969 L 63.148438 61.621094 L 64.871094 59.703125 L 63 57.78125 C 61.03125 55.765625 60.390625 55.421875 59.800781 55.914062 C 59.554688 56.109375 59.359375 56.160156 59.257812 56.011719 C 59.0625 55.714844 61.574219 52.8125 61.867188 53.007812 C 62.164062 53.058594 62.210938 53.402344 62.113281 53.796875 Z M 62.113281 53.796875 "/>
<path style=" stroke:none;fill-rule:nonzero;fill:rgb(100%,100%,100%);fill-opacity:1;" d="M 194.710938 56.699219 C 196.382812 58.421875 197.121094 59.308594 196.925781 59.503906 C 196.726562 59.703125 196.433594 59.503906 196.039062 58.964844 C 195.695312 58.472656 195.152344 58.128906 194.808594 58.128906 C 194.167969 58.128906 184.816406 66.886719 184.816406 67.480469 C 184.816406 67.675781 185.210938 68.265625 185.652344 68.808594 C 186.144531 69.347656 186.390625 69.839844 186.242188 69.941406 C 186.097656 70.039062 184.867188 68.90625 183.4375 67.378906 C 182.011719 65.855469 181.027344 64.625 181.222656 64.574219 C 181.421875 64.527344 181.960938 64.871094 182.503906 65.410156 L 183.4375 66.347656 L 184.867188 64.96875 C 189.492188 60.589844 193.183594 56.847656 193.183594 56.453125 C 193.183594 56.207031 192.886719 55.714844 192.496094 55.371094 C 191.804688 54.730469 191.609375 54.238281 192.003906 54.238281 C 192.148438 54.191406 193.332031 55.320312 194.710938 56.699219 Z M 194.710938 56.699219 "/>
<path style=" stroke:none;fill-rule:nonzero;fill:rgb(100%,100%,100%);fill-opacity:1;" d="M 52.714844 63.640625 C 52.566406 64.425781 52.714844 64.574219 56.652344 67.429688 C 62.703125 71.859375 63.148438 72.351562 62.753906 74.664062 C 62.359375 76.730469 59.605469 78.699219 57.929688 78.109375 C 57.488281 77.960938 55.027344 76.339844 52.515625 74.515625 C 48.136719 71.316406 47.199219 70.824219 46.808594 71.464844 C 46.707031 71.613281 46.511719 71.664062 46.363281 71.613281 C 46.214844 71.515625 46.609375 70.726562 47.25 69.792969 C 48.382812 68.167969 49.023438 67.871094 48.726562 69.101562 C 48.578125 69.695312 49.023438 70.085938 52.613281 72.695312 C 57.734375 76.4375 58.273438 76.730469 59.40625 76.730469 C 61.128906 76.730469 62.410156 74.371094 61.671875 72.546875 C 61.425781 71.957031 59.949219 70.726562 56.75 68.363281 C 54.238281 66.542969 51.976562 65.019531 51.777344 65.019531 C 51.582031 65.019531 51.335938 65.214844 51.238281 65.410156 C 51.136719 65.609375 50.890625 65.757812 50.695312 65.65625 C 50.398438 65.558594 50.597656 65.164062 51.285156 64.132812 C 52.46875 62.65625 52.960938 62.457031 52.714844 63.640625 Z M 52.714844 63.640625 "/>
<path style=" stroke:none;fill-rule:nonzero;fill:rgb(100%,100%,100%);fill-opacity:1;" d="M 203.222656 66.59375 C 204.355469 68.167969 205.488281 69.742188 205.683594 70.039062 C 206.03125 70.53125 205.929688 70.726562 204.800781 71.910156 C 203.421875 73.386719 202.832031 73.386719 203.765625 71.910156 C 204.109375 71.367188 204.355469 70.726562 204.355469 70.382812 C 204.355469 69.496094 203.765625 68.363281 203.324219 68.363281 C 203.125 68.363281 200.617188 70.085938 197.664062 72.203125 C 193.578125 75.15625 192.347656 76.191406 192.347656 76.632812 C 192.347656 76.976562 192.496094 77.324219 192.640625 77.421875 C 192.886719 77.570312 192.886719 77.667969 192.640625 77.914062 C 192.496094 78.0625 192.296875 78.160156 192.25 78.109375 C 192.199219 78.0625 191.558594 77.125 190.820312 76.09375 C 189.492188 74.222656 189.296875 73.386719 190.378906 74.371094 C 190.773438 74.714844 191.117188 74.8125 191.460938 74.617188 C 192.9375 73.925781 202.042969 67.085938 202.042969 66.640625 C 202.09375 65.804688 200.664062 64.96875 199.632812 65.164062 C 198.15625 65.460938 197.808594 65.410156 197.664062 65.117188 C 197.5625 64.820312 199.878906 63.6875 200.664062 63.640625 C 200.960938 63.6875 202.09375 65.019531 203.222656 66.59375 Z M 203.222656 66.59375 "/>
<path style=" stroke:none;fill-rule:nonzero;fill:rgb(100%,100%,100%);fill-opacity:1;" d="M 45.035156 74.371094 C 45.035156 74.863281 46.265625 75.945312 50.890625 79.539062 C 54.289062 82.144531 56.652344 84.164062 56.503906 84.3125 C 56.355469 84.460938 54.4375 83.917969 51.976562 83.03125 C 49.613281 82.195312 47.644531 81.554688 47.644531 81.554688 C 47.59375 81.605469 49.21875 82.984375 51.238281 84.65625 C 53.402344 86.429688 54.78125 87.757812 54.632812 87.90625 C 54.484375 88.050781 51.582031 87.167969 47.59375 85.789062 C 42.378906 83.96875 40.605469 83.425781 39.964844 83.574219 L 39.128906 83.769531 L 39.917969 82.34375 C 40.703125 80.964844 41.34375 80.523438 41.246094 81.507812 C 41.195312 81.851562 41.539062 82.097656 42.378906 82.390625 C 43.015625 82.636719 45.183594 83.375 47.152344 84.113281 C 49.167969 84.851562 50.644531 85.296875 50.5 85.148438 C 48.53125 83.375 44.738281 80.472656 44 80.175781 C 43.410156 79.929688 42.671875 79.832031 42.082031 79.929688 L 41.148438 80.128906 L 41.886719 78.601562 C 42.625 77.125 43.066406 76.832031 43.066406 77.863281 C 43.066406 78.257812 44.101562 78.75 47.644531 80.03125 C 50.152344 80.964844 52.222656 81.652344 52.171875 81.652344 C 49.316406 79.292969 44.886719 75.945312 44.59375 75.945312 C 44.347656 75.945312 44.148438 76.09375 44 76.238281 C 43.902344 76.4375 43.707031 76.4375 43.558594 76.289062 C 43.363281 76.09375 43.507812 75.601562 43.855469 74.863281 C 44.542969 73.582031 45.035156 73.386719 45.035156 74.371094 Z M 45.035156 74.371094 "/>
<path style=" stroke:none;fill-rule:nonzero;fill:rgb(100%,100%,100%);fill-opacity:1;" d="M 209.476562 75.796875 C 210.015625 76.78125 210.3125 77.667969 210.164062 77.765625 C 210.015625 77.863281 209.722656 77.714844 209.523438 77.421875 C 209.328125 77.125 209.03125 76.976562 208.835938 77.027344 C 208.492188 77.175781 203.765625 82.390625 203.863281 82.492188 C 203.960938 82.589844 210.804688 81.703125 211.050781 81.554688 C 211.199219 81.457031 211.246094 81.113281 211.148438 80.71875 C 210.851562 79.488281 211.691406 80.03125 212.527344 81.605469 C 213.414062 83.277344 213.363281 83.722656 212.28125 83.03125 C 211.640625 82.589844 211.296875 82.589844 207.457031 83.03125 C 203.46875 83.476562 203.222656 83.523438 200.863281 84.753906 C 198.402344 86.035156 198.402344 86.035156 198.597656 86.96875 C 198.894531 88.445312 198.253906 88.003906 197.21875 85.984375 C 195.988281 83.574219 196.039062 83.621094 196.382812 83.523438 C 196.578125 83.476562 196.777344 83.671875 196.875 83.96875 C 197.121094 84.753906 197.515625 84.707031 199.976562 83.375 C 201.796875 82.390625 202.484375 81.800781 204.996094 78.898438 C 206.867188 76.730469 207.898438 75.355469 207.898438 74.910156 C 207.898438 74.371094 208.097656 73.925781 208.34375 73.925781 C 208.441406 73.976562 208.933594 74.761719 209.476562 75.796875 Z M 209.476562 75.796875 "/>
<path style=" stroke:none;fill-rule:nonzero;fill:rgb(100%,100%,100%);fill-opacity:1;" d="M 99.816406 202.140625 C 100.703125 202.976562 100.601562 203.46875 99.175781 205.144531 C 97.304688 207.359375 97.15625 207.652344 97.945312 208.246094 C 98.734375 208.835938 98.4375 209.425781 97.402344 209.230469 C 96.664062 209.082031 96.566406 209.179688 96.027344 210.460938 C 95.679688 211.246094 95.335938 212.429688 95.238281 213.167969 L 95.089844 214.496094 L 95.925781 213.511719 C 96.371094 212.96875 96.765625 212.429688 96.765625 212.328125 C 96.8125 211.789062 97.355469 212.183594 97.355469 212.773438 C 97.355469 214.003906 94.058594 217.941406 93.074219 217.941406 C 92.53125 217.941406 92.53125 217.988281 93.171875 214.25 L 93.417969 212.921875 L 89.578125 213.066406 C 84.851562 213.265625 84.015625 213.117188 83.179688 212.035156 C 82.835938 211.542969 82.636719 211.050781 82.785156 210.953125 C 82.933594 210.804688 83.769531 210.953125 84.65625 211.246094 C 85.691406 211.589844 87.214844 211.789062 88.9375 211.789062 C 91.25 211.835938 91.695312 211.738281 91.988281 211.34375 C 92.335938 210.851562 92.480469 210.113281 92.1875 210.113281 C 92.089844 210.113281 91.597656 210.3125 91.054688 210.507812 C 89.28125 211.246094 88.644531 210.359375 90.019531 209.082031 C 91.003906 208.144531 90.757812 207.753906 89.035156 207.605469 C 87.707031 207.457031 87.511719 207.359375 87.066406 206.570312 C 86.429688 205.488281 86.722656 205.242188 88.101562 205.734375 C 88.691406 205.929688 89.726562 206.175781 90.464844 206.324219 C 91.152344 206.421875 92.285156 206.667969 92.972656 206.914062 C 95.582031 207.703125 95.78125 207.652344 96.960938 205.785156 C 97.503906 204.898438 98.242188 203.519531 98.488281 202.78125 C 98.734375 202.042969 99.027344 201.453125 99.078125 201.453125 C 99.125 201.550781 99.472656 201.796875 99.816406 202.140625 Z M 99.816406 202.140625 "/>
<path style=" stroke:none;fill-rule:nonzero;fill:rgb(100%,100%,100%);fill-opacity:1;" d="M 95.976562 205.046875 C 96.566406 205.585938 95.878906 206.277344 94.695312 206.277344 C 93.761719 206.277344 92.382812 205.292969 92.382812 204.601562 C 92.382812 204.160156 95.433594 204.554688 95.976562 205.046875 Z M 95.976562 205.046875 "/>
<path style=" stroke:none;fill-rule:nonzero;fill:rgb(100%,100%,100%);fill-opacity:1;" d="M 101.488281 206.914062 C 101.933594 207.359375 101.882812 208.539062 101.339844 209.128906 C 100.75 209.769531 100.308594 209.820312 99.816406 209.230469 C 99.519531 208.882812 99.570312 208.738281 99.914062 208.34375 C 100.160156 208.097656 100.457031 207.554688 100.554688 207.261719 C 100.800781 206.472656 100.996094 206.421875 101.488281 206.914062 Z M 101.488281 206.914062 "/>
<path style=" stroke:none;fill-rule:nonzero;fill:rgb(100%,100%,100%);fill-opacity:1;" d="M 88.347656 210.359375 C 88.152344 211.148438 87.066406 211.296875 86.527344 210.605469 C 86.132812 210.113281 86.082031 210.164062 87.363281 209.375 C 88.199219 208.882812 88.347656 208.835938 88.445312 209.230469 C 88.496094 209.476562 88.445312 209.96875 88.347656 210.359375 Z M 88.347656 210.359375 "/>
<path style=" stroke:none;fill-rule:nonzero;fill:rgb(0%,30.196078%,0%);fill-opacity:1;" d="M 91.398438 208.246094 C 91.203125 208.589844 92.039062 209.621094 92.53125 209.621094 C 93.023438 209.621094 93.613281 208.785156 93.320312 208.492188 C 92.875 208.046875 91.597656 207.898438 91.398438 208.246094 Z M 91.398438 208.246094 "/>
<path style=" stroke:none;fill-rule:nonzero;fill:rgb(0%,30.196078%,0%);fill-opacity:1;" d="M 93.761719 209.328125 C 93.367188 210.261719 93.464844 211.050781 93.957031 211.246094 C 94.304688 211.34375 95.140625 209.769531 95.140625 208.933594 C 95.140625 208.144531 94.105469 208.441406 93.761719 209.328125 Z M 93.761719 209.328125 "/>
<path style=" stroke:none;fill-rule:nonzero;fill:rgb(100%,100%,100%);fill-opacity:1;" d="M 118.566406 209.277344 C 118.566406 209.621094 118.175781 210.410156 117.730469 211.050781 C 116.894531 212.183594 116.894531 212.183594 116.894531 211.445312 C 116.894531 211 117.089844 209.96875 117.335938 209.128906 C 117.78125 207.703125 117.828125 207.605469 118.175781 208.097656 C 118.371094 208.390625 118.566406 208.882812 118.566406 209.277344 Z M 118.566406 209.277344 "/>
<path style=" stroke:none;fill-rule:nonzero;fill:rgb(100%,100%,100%);fill-opacity:1;" d="M 126.492188 208.492188 C 126.738281 209.230469 126.296875 210.015625 125.261719 210.753906 C 124.277344 211.445312 124.226562 212.183594 125.066406 212.574219 C 125.851562 212.921875 125.851562 213.609375 125.015625 213.953125 C 124.523438 214.152344 124.425781 214.398438 124.523438 214.988281 C 124.621094 215.382812 124.574219 215.773438 124.425781 215.875 C 124.03125 216.121094 123.292969 217.695312 123.589844 217.695312 C 123.734375 217.695312 123.933594 217.496094 124.03125 217.300781 C 124.226562 216.757812 125.457031 216.757812 125.703125 217.300781 C 125.902344 217.84375 125.164062 218.433594 123.734375 218.875 C 123.144531 219.074219 122.257812 219.613281 121.765625 220.15625 C 121.273438 220.648438 120.683594 221.089844 120.4375 221.089844 C 120.042969 221.089844 120.042969 220.992188 120.585938 220.304688 C 121.226562 219.464844 121.128906 218.875 120.4375 218.875 C 119.699219 218.875 120.042969 218.285156 120.832031 218.136719 C 121.421875 218.039062 121.667969 217.84375 121.667969 217.449219 C 121.667969 216.90625 121.273438 216.757812 120.980469 217.203125 C 120.683594 217.644531 119.796875 217.546875 119.601562 217.054688 C 119.503906 216.757812 119.652344 216.316406 119.945312 215.972656 C 120.636719 215.183594 121.128906 213.953125 120.980469 213.511719 C 120.882812 213.3125 120.488281 212.96875 120.09375 212.773438 C 119.257812 212.378906 119.207031 212.429688 121.324219 211.640625 C 121.914062 211.445312 122.308594 211 122.503906 210.460938 C 122.75 209.769531 122.898438 209.671875 123.144531 209.917969 C 123.636719 210.410156 123.980469 210.3125 123.785156 209.671875 C 123.589844 209.03125 124.179688 208.882812 124.375 209.523438 C 124.621094 210.214844 125.015625 210.015625 125.410156 208.984375 C 125.804688 207.851562 126.246094 207.652344 126.492188 208.492188 Z M 126.492188 208.492188 "/>
<path style=" stroke:none;fill-rule:nonzero;fill:rgb(100%,100%,100%);fill-opacity:1;" d="M 117.828125 213.558594 L 118.566406 214.445312 L 117.632812 216.414062 C 117.089844 217.496094 116.402344 219.269531 116.058594 220.304688 C 115.566406 221.730469 115.320312 222.171875 114.925781 222.171875 C 114.1875 222.171875 113.746094 220.941406 114.238281 220.15625 C 114.433594 219.8125 114.828125 218.777344 115.121094 217.890625 C 115.367188 216.957031 115.761719 215.972656 115.960938 215.675781 C 116.15625 215.382812 116.402344 214.59375 116.5 213.953125 C 116.597656 213.3125 116.796875 212.773438 116.894531 212.773438 C 116.945312 212.675781 117.386719 213.066406 117.828125 213.558594 Z M 117.828125 213.558594 "/>
<path style=" stroke:none;fill-rule:nonzero;fill:rgb(100%,100%,100%);fill-opacity:1;" d="M 124.671875 220.695312 C 125.3125 222.074219 124.425781 222.765625 122.898438 222.171875 C 122.457031 221.976562 122.457031 221.925781 122.851562 221.632812 C 123.097656 221.433594 123.292969 220.84375 123.292969 220.304688 C 123.292969 219.417969 123.34375 219.367188 123.835938 219.710938 C 124.128906 219.859375 124.523438 220.351562 124.671875 220.695312 Z M 124.671875 220.695312 "/>
<path style=" stroke:none;fill-rule:nonzero;fill:rgb(0%,30.196078%,0%);fill-opacity:1;" d="M 121.472656 212.675781 C 121.226562 213.066406 121.570312 213.511719 122.160156 213.511719 C 122.503906 213.511719 122.703125 213.3125 122.703125 212.96875 C 122.75 212.378906 121.816406 212.183594 121.472656 212.675781 Z M 121.472656 212.675781 "/>
<path style=" stroke:none;fill-rule:nonzero;fill:rgb(0%,30.196078%,0%);fill-opacity:1;" d="M 121.765625 214.542969 C 121.421875 214.890625 121.621094 215.183594 122.308594 215.183594 C 122.75 215.183594 122.996094 215.035156 122.996094 214.742188 C 122.996094 214.347656 122.160156 214.199219 121.765625 214.542969 Z M 121.765625 214.542969 "/>
<path style=" stroke:none;fill-rule:nonzero;fill:rgb(0%,30.196078%,0%);fill-opacity:1;" d="M 121.519531 215.675781 C 121.273438 215.726562 121.027344 215.972656 121.027344 216.167969 C 121.027344 216.414062 121.226562 216.511719 121.570312 216.414062 C 122.652344 216.121094 122.605469 215.429688 121.519531 215.675781 Z M 121.519531 215.675781 "/>
<path style=" stroke:none;fill-rule:nonzero;fill:rgb(100%,100%,100%);fill-opacity:1;" d="M 143.914062 211.050781 C 144.308594 211.246094 144.457031 211.640625 144.457031 212.476562 C 144.457031 213.460938 144.507812 213.558594 144.898438 213.265625 C 145.34375 212.871094 146.128906 213.066406 146.128906 213.558594 C 146.128906 213.757812 145.785156 214.050781 145.292969 214.347656 C 144.800781 214.644531 144.457031 215.035156 144.457031 215.429688 C 144.457031 215.875 144.703125 216.070312 145.539062 216.167969 C 147.410156 216.464844 147.902344 218.039062 146.128906 218.039062 C 145.539062 218.039062 145.34375 217.941406 145.441406 217.644531 C 145.539062 217.351562 145.34375 217.105469 144.851562 216.957031 C 144.457031 216.808594 144.0625 216.710938 144.0625 216.757812 C 144.0625 216.808594 143.769531 217.351562 143.472656 217.941406 C 143.128906 218.628906 142.636719 219.171875 142.144531 219.320312 C 141.011719 219.710938 140.914062 219.320312 141.847656 218.285156 C 142.785156 217.300781 143.421875 216.167969 143.226562 215.921875 C 143.128906 215.824219 142.585938 216.019531 141.996094 216.367188 C 140.960938 216.957031 140.914062 216.957031 140.617188 216.414062 C 140.222656 215.773438 140.570312 215.429688 141.847656 215.183594 C 143.226562 214.890625 143.375 214.496094 142.929688 212.773438 C 142.4375 210.707031 142.636719 210.359375 143.914062 211.050781 Z M 143.914062 211.050781 "/>
<path style=" stroke:none;fill-rule:nonzero;fill:rgb(100%,100%,100%);fill-opacity:1;" d="M 161.042969 205.882812 C 161.140625 206.375 161.09375 206.769531 160.796875 207.0625 C 160.550781 207.359375 160.453125 207.753906 160.550781 208.046875 C 160.847656 208.785156 160.15625 209.375 159.46875 209.03125 C 159.171875 208.882812 159.027344 208.636719 159.074219 208.492188 C 159.171875 208.34375 159.027344 207.753906 158.828125 207.113281 C 158.484375 206.078125 158.484375 205.929688 158.828125 205.785156 C 159.027344 205.683594 159.171875 205.4375 159.125 205.242188 C 158.925781 204.699219 159.222656 204.601562 160.058594 204.898438 C 160.550781 205.09375 160.894531 205.488281 161.042969 205.882812 Z M 161.042969 205.882812 "/>
<path style=" stroke:none;fill-rule:nonzero;fill:rgb(100%,100%,100%);fill-opacity:1;" d="M 163.75 198.648438 C 164.339844 199.1875 164.441406 200.023438 163.898438 200.222656 C 163.703125 200.320312 163.75 200.371094 163.996094 200.417969 C 164.242188 200.417969 164.636719 200.074219 164.832031 199.679688 C 165.128906 199.140625 165.375 198.941406 165.867188 198.992188 C 167.195312 199.140625 167.6875 200.269531 166.800781 201.007812 C 166.359375 201.355469 165.964844 202.238281 165.71875 203.222656 C 165.671875 203.46875 165.523438 203.914062 165.425781 204.257812 C 165.226562 204.996094 165.523438 205.09375 166.015625 204.40625 C 166.261719 204.0625 166.457031 204.011719 166.949219 204.308594 C 167.640625 204.699219 167.539062 205.488281 166.65625 207.0625 C 165.671875 208.835938 166.210938 209.96875 167.589844 208.984375 C 168.277344 208.492188 168.425781 208.441406 168.671875 208.785156 C 168.871094 209.082031 168.722656 209.375 168.230469 209.769531 C 167.34375 210.460938 167.34375 210.65625 168.230469 211.9375 C 169.066406 213.117188 169.066406 213.609375 168.425781 214.152344 C 167.738281 214.742188 166.605469 214.890625 165.816406 214.496094 L 165.179688 214.152344 L 166.0625 213.707031 C 167.046875 213.214844 167.097656 213.019531 166.554688 212.28125 C 166.210938 211.835938 166.113281 211.835938 165.277344 212.921875 C 164.390625 214.050781 163.554688 214.398438 163.160156 213.757812 C 163.0625 213.558594 163.457031 213.066406 164.09375 212.527344 C 165.324219 211.492188 165.570312 210.707031 164.933594 209.671875 C 164.636719 209.230469 164.734375 208.933594 165.277344 207.898438 C 165.917969 206.667969 165.917969 206.078125 165.277344 206.472656 C 165.128906 206.570312 164.488281 207.652344 163.898438 208.835938 C 162.324219 211.9375 161.535156 212.773438 160.355469 212.675781 C 159.027344 212.574219 158.925781 212.082031 160.109375 211.394531 C 161.09375 210.804688 163.652344 207.753906 163.652344 207.113281 C 163.652344 206.914062 163.40625 206.816406 162.964844 206.964844 C 162.421875 207.113281 162.324219 207.015625 162.421875 206.71875 C 162.519531 206.472656 162.371094 206.03125 162.125 205.785156 C 161.683594 205.292969 161.683594 205.242188 162.226562 204.945312 C 162.570312 204.75 162.816406 204.453125 162.816406 204.207031 C 162.816406 203.960938 162.964844 203.816406 163.160156 203.765625 C 163.355469 203.765625 163.75 203.714844 164.046875 203.714844 C 164.636719 203.667969 165.226562 202.4375 164.636719 202.4375 C 164.441406 202.4375 164.09375 202.632812 163.949219 202.832031 C 163.703125 203.125 163.457031 203.175781 163.109375 202.976562 C 162.765625 202.78125 162.570312 202.832031 162.472656 203.125 C 162.175781 203.863281 161.632812 203.617188 161.832031 202.878906 C 161.980469 202.339844 161.878906 202.09375 161.4375 201.894531 C 160.699219 201.5 160.945312 201.058594 161.929688 201.058594 C 162.617188 201.058594 162.667969 201.007812 162.472656 199.925781 C 162.175781 198.15625 162.667969 197.710938 163.75 198.648438 Z M 163.75 198.648438 "/>
<path style=" stroke:none;fill-rule:nonzero;fill:rgb(0%,30.196078%,0%);fill-opacity:1;" d="M 170.148438 39.769531 C 170 39.964844 169.3125 41.195312 168.574219 42.476562 L 167.292969 44.839844 L 168.378906 45.476562 C 169.558594 46.167969 171.132812 46.316406 172.019531 45.824219 C 172.660156 45.476562 173.644531 43.609375 173.644531 42.769531 C 173.644531 41.785156 172.90625 40.703125 171.773438 40.0625 C 170.492188 39.324219 170.492188 39.324219 170.148438 39.769531 Z M 170.148438 39.769531 "/>
<path style=" stroke:none;fill-rule:nonzero;fill:rgb(0%,30.196078%,0%);fill-opacity:1;" d="M 70.53125 51.730469 C 71.070312 53.007812 71.710938 54.4375 71.910156 54.976562 C 72.351562 55.960938 72.5 55.960938 74.171875 54.535156 L 75.109375 53.746094 L 72.648438 51.777344 C 71.269531 50.695312 70.039062 49.710938 69.839844 49.613281 C 69.695312 49.515625 69.988281 50.449219 70.53125 51.730469 Z M 70.53125 51.730469 "/>
<path style=" stroke:none;fill-rule:nonzero;fill:rgb(0%,30.196078%,0%);fill-opacity:1;" d="M 119.40625 51.039062 C 119.011719 51.089844 117.582031 51.285156 116.207031 51.433594 C 95.289062 53.945312 75.648438 66.394531 63.6875 84.707031 C 62.605469 86.378906 60.636719 89.875 59.359375 92.480469 C 56.058594 99.175781 54.140625 104.984375 52.761719 112.414062 C 52.222656 115.46875 51.484375 122.898438 51.679688 123.097656 C 51.777344 123.195312 52.46875 123.046875 53.253906 122.75 L 54.683594 122.308594 L 54.683594 120.488281 C 54.683594 118.074219 55.566406 112.121094 56.503906 108.332031 C 58.964844 98.289062 63.886719 88.398438 70.480469 80.226562 C 72.992188 77.078125 78.257812 71.859375 81.457031 69.300781 C 89.578125 62.703125 101.195312 57.242188 111.285156 55.222656 C 117.238281 53.992188 119.453125 53.796875 126.195312 53.796875 C 133.578125 53.796875 136.828125 54.191406 143.472656 55.863281 C 152.875 58.226562 161.289062 62.3125 169.507812 68.464844 C 172.5625 70.777344 179.253906 77.273438 181.714844 80.375 C 190.871094 91.890625 196.578125 106.410156 197.316406 120.144531 L 197.464844 123.242188 L 200.515625 123.242188 L 200.320312 120.535156 C 198.941406 101.339844 191.214844 84.753906 177.382812 71.367188 C 165.570312 59.949219 150.558594 53.007812 133.777344 51.089844 C 131.414062 50.890625 120.980469 50.792969 119.40625 51.039062 Z M 119.40625 51.039062 "/>
<path style=" stroke:none;fill-rule:nonzero;fill:rgb(0%,30.196078%,0%);fill-opacity:1;" d="M 72.84375 179.746094 C 73.285156 180.582031 78.160156 185.113281 80.667969 187.082031 C 89.183594 193.675781 101.832031 198.792969 114.382812 200.714844 C 120.144531 201.601562 131.070312 201.601562 136.777344 200.714844 C 147.851562 198.992188 157.648438 195.398438 166.703125 189.789062 C 168.671875 188.558594 177.433594 182.109375 179.5 180.335938 L 180.484375 179.5 L 178.171875 179.5 C 176.890625 179.5 175.613281 179.597656 175.316406 179.746094 C 175.023438 179.894531 173.054688 181.371094 170.984375 182.945312 C 160.847656 190.773438 149.082031 195.792969 136.484375 197.710938 C 131.808594 198.449219 120.535156 198.449219 116.15625 197.710938 C 104.097656 195.742188 93.710938 191.953125 86.082031 186.734375 C 82.882812 184.570312 81.457031 183.4375 78.40625 180.78125 L 76.535156 179.15625 L 74.566406 179.15625 C 72.746094 179.253906 72.597656 179.304688 72.84375 179.746094 Z M 72.84375 179.746094 "/>
<path style=" stroke:none;fill-rule:nonzero;fill:rgb(0%,0%,60%);fill-opacity:1;" d="M 122.996094 71.761719 C 122.996094 72.253906 123.195312 72.300781 124.964844 72.300781 C 126.738281 72.300781 126.933594 72.253906 126.933594 71.761719 C 126.933594 71.269531 126.738281 71.21875 124.964844 71.21875 C 123.195312 71.171875 122.996094 71.269531 122.996094 71.761719 Z M 122.996094 71.761719 "/>
<path style=" stroke:none;fill-rule:nonzero;fill:rgb(0%,0%,60%);fill-opacity:1;" d="M 122.210938 74.023438 C 121.765625 75.355469 121.816406 75.894531 122.554688 76.632812 L 123.242188 77.324219 L 122.554688 79.390625 C 121.964844 81.113281 121.867188 81.949219 121.867188 84.507812 C 121.867188 86.230469 122.011719 88.152344 122.257812 88.890625 L 122.652344 90.21875 L 124.964844 90.21875 C 127.230469 90.21875 127.28125 90.21875 127.574219 89.480469 C 128.558594 86.921875 128.410156 80.71875 127.328125 78.453125 L 126.789062 77.371094 L 127.425781 76.976562 C 128.265625 76.4375 128.460938 75.304688 127.96875 74.125 L 127.574219 73.238281 L 122.503906 73.238281 Z M 122.210938 74.023438 "/>
<path style=" stroke:none;fill-rule:nonzero;fill:rgb(0%,0%,60%);fill-opacity:1;" d="M 109.019531 91.988281 C 108.921875 94.253906 108.96875 94.449219 109.5625 94.796875 C 110.152344 95.140625 110.199219 95.433594 110.199219 97.601562 L 110.199219 100.011719 L 108.625 100.800781 C 107.738281 101.242188 106.410156 101.636719 105.625 101.6875 C 104.441406 101.785156 103.949219 101.6875 102.375 100.847656 C 100.210938 99.71875 97.996094 98.09375 97.15625 96.910156 L 96.566406 96.074219 L 96.566406 97.207031 C 96.566406 97.847656 96.765625 99.472656 97.011719 100.898438 C 97.75 105.328125 97.109375 106.753906 93.8125 107.738281 C 90.757812 108.625 88.003906 108.183594 85.097656 106.363281 C 83.375 105.277344 83.277344 105.230469 83.476562 105.820312 C 84.605469 108.824219 87.363281 112.515625 89.234375 113.644531 C 90.167969 114.1875 90.757812 114.335938 92.1875 114.335938 C 93.761719 114.335938 94.15625 114.238281 95.386719 113.398438 C 96.125 112.90625 98.140625 111.921875 99.816406 111.234375 L 102.867188 110.003906 L 126.050781 109.953125 L 149.230469 109.90625 L 151.988281 110.890625 C 153.511719 111.429688 155.480469 112.316406 156.367188 112.859375 C 157.894531 113.792969 158.089844 113.84375 159.664062 113.644531 C 161.140625 113.5 161.535156 113.300781 162.964844 112.070312 C 164.785156 110.546875 165.179688 110.054688 166.851562 106.953125 C 168.03125 104.738281 168.03125 104.640625 166.308594 105.96875 C 164.390625 107.492188 160.109375 108.035156 156.761719 107.148438 C 153.414062 106.261719 152.578125 104.984375 153.316406 101.785156 C 153.5625 100.75 153.808594 99.078125 153.90625 97.996094 L 154.054688 96.027344 L 153.367188 97.011719 C 152.578125 98.140625 150.265625 99.964844 148.445312 100.898438 C 146.820312 101.734375 144.308594 101.6875 141.847656 100.847656 L 140.078125 100.210938 L 140.078125 97.75 C 140.078125 95.335938 140.078125 95.289062 140.914062 94.695312 C 141.75 94.105469 141.75 94.105469 141.699219 91.84375 L 141.601562 89.578125 L 137.664062 89.382812 L 137.171875 91.25 L 132.644531 91.300781 C 128.757812 91.351562 128.117188 91.300781 128.117188 90.957031 C 128.117188 90.613281 127.625 90.5625 125.3125 90.5625 C 123.046875 90.5625 122.503906 90.660156 122.503906 90.957031 C 122.503906 91.300781 121.816406 91.351562 118.074219 91.351562 L 113.644531 91.351562 L 113.398438 90.464844 C 113.152344 89.578125 113.105469 89.578125 111.136719 89.480469 L 109.167969 89.382812 Z M 109.019531 91.988281 "/>
<path style=" stroke:none;fill-rule:nonzero;fill:rgb(0%,0%,60%);fill-opacity:1;" d="M 62.164062 115.121094 C 59.703125 119.898438 59.308594 120.4375 57.535156 122.160156 C 54.878906 124.671875 52.714844 125.558594 49.90625 125.359375 C 46.460938 125.113281 44.492188 124.179688 40.457031 120.78125 C 38.441406 119.109375 36.816406 117.828125 36.765625 117.878906 C 36.472656 118.175781 38.933594 124.917969 40.0625 126.984375 C 41.738281 129.9375 44.691406 132.890625 47.300781 134.171875 L 49.070312 135.054688 L 200.8125 135.054688 L 203.078125 133.726562 C 208.34375 130.675781 210.953125 127.328125 212.722656 121.375 C 213.3125 119.40625 213.707031 117.78125 213.660156 117.78125 C 213.558594 117.78125 211.886719 119.109375 209.917969 120.78125 C 205.832031 124.179688 204.257812 124.964844 200.863281 125.359375 C 198.792969 125.605469 198.402344 125.558594 196.679688 124.917969 C 195.152344 124.328125 194.414062 123.835938 192.691406 122.113281 C 190.773438 120.191406 190.425781 119.699219 188.113281 115.023438 C 186.734375 112.269531 185.554688 110.003906 185.457031 110.003906 C 185.359375 110.003906 184.175781 112.269531 182.75 115.121094 C 180.386719 119.75 179.992188 120.390625 178.171875 122.160156 C 174.675781 125.605469 171.476562 126.246094 166.65625 124.574219 C 164.980469 123.980469 164.046875 123.390625 160.996094 120.832031 C 158.976562 119.160156 157.304688 117.828125 157.253906 117.878906 C 157.203125 117.929688 157.648438 119.550781 158.1875 121.472656 C 159.027344 124.328125 159.519531 125.359375 160.75 127.179688 C 161.585938 128.410156 162.765625 129.988281 163.40625 130.675781 C 164.046875 131.363281 164.6875 132.152344 164.933594 132.398438 C 165.277344 132.839844 163.355469 132.890625 125.261719 132.890625 L 85.246094 132.890625 L 86.675781 131.265625 C 87.460938 130.378906 88.839844 128.609375 89.773438 127.28125 C 91.152344 125.210938 91.546875 124.375 92.382812 121.421875 C 92.925781 119.550781 93.320312 117.929688 93.269531 117.878906 C 93.21875 117.828125 91.546875 119.109375 89.628906 120.734375 C 85.542969 124.128906 83.917969 124.964844 80.375 125.3125 C 78.308594 125.507812 77.960938 125.507812 76.339844 124.820312 C 75.15625 124.328125 73.925781 123.488281 72.546875 122.308594 C 70.578125 120.535156 70.433594 120.289062 67.871094 115.222656 C 66.445312 112.316406 65.214844 109.953125 65.117188 109.953125 C 64.917969 109.90625 63.640625 112.21875 62.164062 115.121094 Z M 62.164062 115.121094 "/>
<path style=" stroke:none;fill-rule:nonzero;fill:rgb(0%,0%,60%);fill-opacity:1;" d="M 117.386719 111.875 C 117.089844 112.023438 116.894531 112.367188 116.894531 112.660156 C 116.894531 113.644531 117.535156 113.792969 121.078125 113.746094 C 124.425781 113.644531 124.523438 113.644531 124.621094 113.007812 C 124.820312 111.777344 124.328125 111.578125 120.929688 111.578125 C 119.257812 111.578125 117.632812 111.726562 117.386719 111.875 Z M 117.386719 111.875 "/>
<path style=" stroke:none;fill-rule:nonzero;fill:rgb(0%,0%,60%);fill-opacity:1;" d="M 127.230469 111.824219 C 127.035156 111.972656 126.886719 112.414062 126.933594 112.859375 L 127.035156 113.644531 L 130.480469 113.746094 C 133.925781 113.792969 134.664062 113.644531 134.664062 112.808594 C 134.664062 111.824219 133.875 111.578125 130.675781 111.578125 C 129.003906 111.578125 127.425781 111.675781 127.230469 111.824219 Z M 127.230469 111.824219 "/>
<path style=" stroke:none;fill-rule:nonzero;fill:rgb(0%,0%,60%);fill-opacity:1;" d="M 137.222656 111.972656 C 137.023438 112.21875 136.925781 112.660156 136.976562 113.007812 C 137.074219 113.644531 137.171875 113.644531 140.273438 113.746094 C 144.210938 113.84375 144.753906 113.746094 144.753906 112.808594 C 144.753906 111.777344 143.964844 111.578125 140.617188 111.578125 C 138.253906 111.578125 137.46875 111.675781 137.222656 111.972656 Z M 137.222656 111.972656 "/>
<path style=" stroke:none;fill-rule:nonzero;fill:rgb(0%,0%,60%);fill-opacity:1;" d="M 107.492188 112.167969 C 107 112.660156 107.050781 113.105469 107.542969 113.644531 C 107.886719 113.992188 108.625 114.089844 111.085938 114.089844 C 112.808594 114.089844 114.382812 113.992188 114.582031 113.84375 C 114.777344 113.695312 114.925781 113.253906 114.875 112.808594 L 114.777344 112.023438 L 111.285156 111.921875 C 108.824219 111.875 107.738281 111.921875 107.492188 112.167969 Z M 107.492188 112.167969 "/>
<path style=" stroke:none;fill-rule:nonzero;fill:rgb(0%,0%,60%);fill-opacity:1;" d="M 102.128906 112.464844 C 97.257812 113.792969 97.011719 113.941406 97.304688 115.121094 C 97.503906 115.910156 98.042969 115.960938 100.457031 115.417969 C 103.902344 114.582031 104.933594 114.136719 104.933594 113.398438 C 104.933594 112.167969 104.097656 111.921875 102.128906 112.464844 Z M 102.128906 112.464844 "/>
<path style=" stroke:none;fill-rule:nonzero;fill:rgb(0%,0%,60%);fill-opacity:1;" d="M 147.707031 112.316406 C 147.3125 112.710938 147.558594 114.039062 148 114.285156 C 148.296875 114.433594 149.921875 114.925781 151.644531 115.320312 C 154.742188 116.105469 154.792969 116.105469 155.1875 115.566406 C 155.726562 114.828125 155.679688 114.089844 155.039062 113.746094 C 154.25 113.300781 149.429688 112.070312 148.589844 112.070312 C 148.199219 112.121094 147.804688 112.21875 147.707031 112.316406 Z M 147.707031 112.316406 "/>
<path style=" stroke:none;fill-rule:nonzero;fill:rgb(0%,0%,60%);fill-opacity:1;" d="M 71.269531 119.601562 L 72.203125 120.636719 L 80.128906 120.535156 L 88.050781 120.4375 L 89.183594 119.503906 L 90.265625 118.566406 L 80.324219 118.566406 L 70.332031 118.519531 Z M 71.269531 119.601562 "/>
<path style=" stroke:none;fill-rule:nonzero;fill:rgb(0%,0%,60%);fill-opacity:1;" d="M 93.664062 119.160156 C 93.566406 119.503906 93.515625 119.945312 93.515625 120.144531 C 93.515625 120.4375 100.0625 120.488281 125.261719 120.488281 C 150.460938 120.488281 157.007812 120.4375 157.007812 120.144531 C 157.007812 119.945312 156.910156 119.503906 156.859375 119.160156 L 156.710938 118.519531 L 93.910156 118.519531 Z M 93.664062 119.160156 "/>
<path style=" stroke:none;fill-rule:nonzero;fill:rgb(0%,0%,60%);fill-opacity:1;" d="M 160.75 119.550781 L 161.878906 120.488281 L 170.050781 120.4375 L 178.222656 120.339844 L 178.910156 119.453125 L 179.648438 118.519531 L 169.65625 118.566406 L 159.664062 118.566406 Z M 160.75 119.550781 "/>
<path style=" stroke:none;fill-rule:nonzero;fill:rgb(0%,0%,60%);fill-opacity:1;" d="M 92.828125 122.160156 C 92.679688 122.703125 92.828125 122.703125 125.113281 122.703125 C 155.875 122.703125 157.550781 122.703125 157.449219 122.210938 C 157.351562 121.765625 155.582031 121.71875 125.164062 121.667969 C 93.171875 121.621094 92.972656 121.621094 92.828125 122.160156 Z M 92.828125 122.160156 "/>
<path style=" stroke:none;fill-rule:nonzero;fill:rgb(0%,0%,60%);fill-opacity:1;" d="M 164.09375 122.308594 C 164.933594 122.996094 165.03125 122.996094 170.394531 122.996094 L 175.859375 122.996094 L 176.5 122.308594 L 177.136719 121.621094 L 163.257812 121.621094 Z M 164.09375 122.308594 "/>
<path style=" stroke:none;fill-rule:nonzero;fill:rgb(0%,0%,60%);fill-opacity:1;" d="M 73.878906 122.457031 C 74.371094 122.996094 74.714844 122.996094 79.882812 122.996094 C 84.953125 122.996094 85.445312 122.949219 86.035156 122.457031 L 86.675781 121.914062 L 80.03125 121.914062 C 73.386719 121.867188 73.335938 121.867188 73.878906 122.457031 Z M 73.878906 122.457031 "/>
<path style=" stroke:none;fill-rule:nonzero;fill:rgb(0%,0%,60%);fill-opacity:1;" d="M 91.695312 124.917969 C 91.105469 126.148438 91.003906 126.640625 91.003906 129.101562 L 91.003906 131.90625 L 93.464844 131.90625 L 93.464844 127.722656 C 93.464844 123.734375 93.417969 123.539062 92.925781 123.539062 C 92.53125 123.539062 92.136719 123.980469 91.695312 124.917969 Z M 91.695312 124.917969 "/>
<path style=" stroke:none;fill-rule:nonzero;fill:rgb(0%,0%,60%);fill-opacity:1;" d="M 94.304688 127.722656 L 94.304688 131.90625 L 96.8125 131.90625 L 96.8125 123.539062 L 94.304688 123.539062 Z M 94.304688 127.722656 "/>
<path style=" stroke:none;fill-rule:nonzero;fill:rgb(0%,0%,60%);fill-opacity:1;" d="M 97.648438 127.722656 L 97.648438 131.90625 L 100.160156 131.90625 L 100.160156 123.539062 L 97.648438 123.539062 Z M 97.648438 127.722656 "/>
<path style=" stroke:none;fill-rule:nonzero;fill:rgb(0%,0%,60%);fill-opacity:1;" d="M 100.996094 127.722656 L 100.996094 131.90625 L 103.261719 131.90625 L 103.261719 123.539062 L 100.996094 123.539062 Z M 100.996094 127.722656 "/>
<path style=" stroke:none;fill-rule:nonzero;fill:rgb(0%,0%,60%);fill-opacity:1;" d="M 104.34375 127.722656 L 104.34375 131.90625 L 106.558594 131.90625 L 106.558594 123.539062 L 104.34375 123.539062 Z M 104.34375 127.722656 "/>
<path style=" stroke:none;fill-rule:nonzero;fill:rgb(0%,0%,60%);fill-opacity:1;" d="M 107.394531 127.722656 L 107.394531 131.90625 L 109.90625 131.90625 L 109.90625 123.539062 L 107.394531 123.539062 Z M 107.394531 127.722656 "/>
<path style=" stroke:none;fill-rule:nonzero;fill:rgb(0%,0%,60%);fill-opacity:1;" d="M 110.742188 127.722656 L 110.742188 131.90625 L 113.253906 131.90625 L 113.253906 123.539062 L 110.742188 123.539062 Z M 110.742188 127.722656 "/>
<path style=" stroke:none;fill-rule:nonzero;fill:rgb(0%,0%,60%);fill-opacity:1;" d="M 114.089844 127.722656 L 114.089844 131.90625 L 116.597656 131.90625 L 116.597656 123.539062 L 114.089844 123.539062 Z M 114.089844 127.722656 "/>
<path style=" stroke:none;fill-rule:nonzero;fill:rgb(0%,0%,60%);fill-opacity:1;" d="M 117.4375 127.722656 L 117.4375 131.90625 L 119.652344 131.90625 L 119.652344 123.539062 L 117.4375 123.539062 Z M 117.4375 127.722656 "/>
<path style=" stroke:none;fill-rule:nonzero;fill:rgb(0%,0%,60%);fill-opacity:1;" d="M 120.78125 127.722656 L 120.78125 131.90625 L 122.996094 131.90625 L 122.996094 123.539062 L 120.78125 123.539062 Z M 120.78125 127.722656 "/>
<path style=" stroke:none;fill-rule:nonzero;fill:rgb(0%,0%,60%);fill-opacity:1;" d="M 123.835938 127.722656 L 123.835938 131.90625 L 126.34375 131.90625 L 126.34375 123.539062 L 123.835938 123.539062 Z M 123.835938 127.722656 "/>
<path style=" stroke:none;fill-rule:nonzero;fill:rgb(0%,0%,60%);fill-opacity:1;" d="M 127.179688 127.722656 L 127.179688 131.90625 L 129.691406 131.90625 L 129.691406 123.539062 L 127.179688 123.539062 Z M 127.179688 127.722656 "/>
<path style=" stroke:none;fill-rule:nonzero;fill:rgb(0%,0%,60%);fill-opacity:1;" d="M 130.527344 127.722656 L 130.527344 131.90625 L 133.039062 131.90625 L 133.039062 123.539062 L 130.527344 123.539062 Z M 130.527344 127.722656 "/>
<path style=" stroke:none;fill-rule:nonzero;fill:rgb(0%,0%,60%);fill-opacity:1;" d="M 133.875 127.722656 L 133.875 131.90625 L 136.089844 131.90625 L 136.089844 123.539062 L 133.875 123.539062 Z M 133.875 127.722656 "/>
<path style=" stroke:none;fill-rule:nonzero;fill:rgb(0%,0%,60%);fill-opacity:1;" d="M 137.222656 127.722656 L 137.222656 131.90625 L 139.4375 131.90625 L 139.4375 123.539062 L 137.222656 123.539062 Z M 137.222656 127.722656 "/>
<path style=" stroke:none;fill-rule:nonzero;fill:rgb(0%,0%,60%);fill-opacity:1;" d="M 140.273438 127.722656 L 140.273438 131.90625 L 142.785156 131.90625 L 142.785156 123.539062 L 140.273438 123.539062 Z M 140.273438 127.722656 "/>
<path style=" stroke:none;fill-rule:nonzero;fill:rgb(0%,0%,60%);fill-opacity:1;" d="M 143.621094 127.722656 L 143.621094 131.90625 L 146.128906 131.90625 L 146.128906 123.539062 L 143.621094 123.539062 Z M 143.621094 127.722656 "/>
<path style=" stroke:none;fill-rule:nonzero;fill:rgb(0%,0%,60%);fill-opacity:1;" d="M 146.96875 127.722656 L 146.96875 131.90625 L 149.476562 131.90625 L 149.476562 123.539062 L 146.96875 123.539062 Z M 146.96875 127.722656 "/>
<path style=" stroke:none;fill-rule:nonzero;fill:rgb(0%,0%,60%);fill-opacity:1;" d="M 150.3125 127.722656 L 150.3125 131.90625 L 152.527344 131.90625 L 152.527344 123.539062 L 150.3125 123.539062 Z M 150.3125 127.722656 "/>
<path style=" stroke:none;fill-rule:nonzero;fill:rgb(0%,0%,60%);fill-opacity:1;" d="M 153.367188 127.722656 L 153.367188 131.90625 L 155.875 131.90625 L 155.875 123.539062 L 153.367188 123.539062 Z M 153.367188 127.722656 "/>
<path style=" stroke:none;fill-rule:nonzero;fill:rgb(0%,0%,60%);fill-opacity:1;" d="M 156.710938 127.722656 L 156.710938 131.90625 L 159.171875 131.90625 L 159.171875 129.003906 C 159.171875 125.457031 158.535156 123.539062 157.351562 123.539062 L 156.664062 123.539062 L 156.664062 127.722656 Z M 156.710938 127.722656 "/>
<path style=" stroke:none;fill-rule:nonzero;fill:rgb(0%,0%,60%);fill-opacity:1;" d="M 88.890625 129.003906 C 88.050781 130.132812 87.757812 130.675781 87.855469 131.21875 C 87.953125 131.855469 88.101562 131.90625 89.085938 131.90625 L 90.167969 131.90625 L 90.167969 129.691406 C 90.167969 128.460938 90.121094 127.476562 90.121094 127.476562 C 90.019531 127.476562 89.480469 128.164062 88.890625 129.003906 Z M 88.890625 129.003906 "/>
<path style=" stroke:none;fill-rule:nonzero;fill:rgb(0%,0%,60%);fill-opacity:1;" d="M 160.058594 129.691406 L 160.058594 131.90625 L 161.289062 131.90625 C 162.371094 131.90625 162.519531 131.808594 162.519531 131.316406 C 162.519531 130.824219 160.453125 127.425781 160.109375 127.425781 C 160.109375 127.476562 160.058594 128.460938 160.058594 129.691406 Z M 160.058594 129.691406 "/>
<path style=" stroke:none;fill-rule:nonzero;fill:rgb(0%,0%,60%);fill-opacity:1;" d="M 123.589844 135.792969 C 123.589844 135.992188 111.285156 136.089844 87.214844 136.089844 L 50.890625 136.089844 L 50.890625 139.4375 L 67.871094 139.4375 C 82.785156 139.4375 84.851562 139.484375 84.851562 139.832031 C 84.851562 140.175781 82.785156 140.273438 67.726562 140.273438 L 50.597656 140.273438 L 50.597656 165.078125 L 48.628906 165.179688 L 46.660156 165.277344 L 44.886719 168.671875 L 43.117188 172.070312 L 84.65625 171.96875 L 86.820312 167.097656 L 88.988281 162.226562 L 87.265625 162.125 C 85.691406 162.027344 85.542969 161.980469 85.640625 161.488281 C 85.789062 160.945312 86.328125 160.945312 126.984375 160.945312 C 166.113281 160.945312 168.179688 160.996094 168.132812 161.4375 C 168.082031 161.878906 167.640625 161.929688 165.179688 162.027344 C 163.601562 162.078125 162.324219 162.226562 162.371094 162.371094 C 162.816406 163.554688 166.949219 171.824219 167.195312 171.871094 C 167.34375 171.921875 176.746094 171.921875 188.015625 171.824219 L 208.539062 171.675781 L 206.375 168.277344 L 204.207031 164.882812 L 199.582031 164.882812 L 199.582031 140.273438 L 182.699219 140.222656 C 169.507812 140.175781 165.769531 140.078125 165.671875 139.832031 C 165.570312 139.535156 169.015625 139.484375 182.304688 139.484375 L 199.039062 139.484375 L 199.039062 136.140625 L 163.257812 136.140625 C 139.683594 136.140625 127.425781 136.039062 127.328125 135.84375 C 127.230469 135.695312 126.34375 135.546875 125.359375 135.546875 C 124.375 135.546875 123.589844 135.648438 123.589844 135.792969 Z M 123.589844 135.792969 "/>
<path style=" stroke:none;fill-rule:nonzero;fill:rgb(100%,100%,100%);fill-opacity:1;" d="M 100.75 139.832031 C 100.75 140.175781 99.816406 140.273438 94.058594 140.273438 C 88.296875 140.273438 87.363281 140.222656 87.363281 139.832031 C 87.363281 139.484375 88.296875 139.4375 94.058594 139.4375 C 99.816406 139.4375 100.75 139.484375 100.75 139.832031 Z M 100.75 139.832031 "/>
<path style=" stroke:none;fill-rule:nonzero;fill:rgb(100%,100%,100%);fill-opacity:1;" d="M 104.835938 139.78125 C 104.640625 140.324219 103.210938 140.371094 103.210938 139.878906 C 103.210938 139.585938 103.507812 139.4375 104.097656 139.4375 C 104.640625 139.4375 104.933594 139.585938 104.835938 139.78125 Z M 104.835938 139.78125 "/>
<path style=" stroke:none;fill-rule:nonzero;fill:rgb(100%,100%,100%);fill-opacity:1;" d="M 123.589844 139.832031 C 123.589844 140.175781 122.554688 140.222656 115.46875 140.175781 C 109.265625 140.125 107.296875 140.027344 107.246094 139.78125 C 107.148438 139.484375 108.921875 139.4375 115.367188 139.4375 C 122.503906 139.4375 123.589844 139.484375 123.589844 139.832031 Z M 123.589844 139.832031 "/>
<path style=" stroke:none;fill-rule:nonzero;fill:rgb(100%,100%,100%);fill-opacity:1;" d="M 143.816406 139.78125 C 143.71875 140.027344 141.847656 140.125 135.546875 140.125 C 129.25 140.125 127.378906 140.027344 127.28125 139.78125 C 127.179688 139.484375 128.953125 139.4375 135.546875 139.4375 C 142.144531 139.4375 143.914062 139.484375 143.816406 139.78125 Z M 143.816406 139.78125 "/>
<path style=" stroke:none;fill-rule:nonzero;fill:rgb(100%,100%,100%);fill-opacity:1;" d="M 147.804688 139.878906 C 147.804688 140.175781 147.558594 140.273438 147.066406 140.222656 C 145.984375 140.078125 145.882812 139.4375 146.96875 139.4375 C 147.507812 139.4375 147.804688 139.585938 147.804688 139.878906 Z M 147.804688 139.878906 "/>
<path style=" stroke:none;fill-rule:nonzero;fill:rgb(100%,100%,100%);fill-opacity:1;" d="M 163.40625 139.832031 C 163.40625 140.175781 162.472656 140.273438 156.859375 140.273438 C 151.25 140.273438 150.3125 140.222656 150.3125 139.832031 C 150.3125 139.484375 151.25 139.4375 156.859375 139.4375 C 162.472656 139.4375 163.40625 139.484375 163.40625 139.832031 Z M 163.40625 139.832031 "/>
<path style=" stroke:none;fill-rule:nonzero;fill:rgb(100%,100%,100%);fill-opacity:1;" d="M 84.851562 150.117188 C 84.851562 154.597656 84.953125 158.679688 85.050781 159.171875 C 85.246094 160.058594 85.199219 160.058594 84.214844 160.058594 L 83.179688 160.058594 L 83.179688 141.945312 L 84.851562 141.945312 Z M 84.851562 150.117188 "/>
<path style=" stroke:none;fill-rule:nonzero;fill:rgb(100%,100%,100%);fill-opacity:1;" d="M 98.832031 144.113281 L 100.703125 146.277344 L 100.703125 152.527344 C 100.703125 155.972656 100.800781 159.074219 100.847656 159.417969 L 100.996094 160.058594 L 93.957031 160.058594 C 87.660156 160.058594 86.96875 160.011719 87.117188 159.617188 C 87.214844 159.371094 87.265625 156.269531 87.265625 152.726562 L 87.265625 146.277344 L 89.234375 144.113281 L 91.203125 141.945312 L 96.8125 141.945312 Z M 98.832031 144.113281 "/>
<path style=" stroke:none;fill-rule:nonzero;fill:rgb(100%,100%,100%);fill-opacity:1;" d="M 104.984375 151.003906 L 105.082031 160.058594 L 104 160.058594 C 103.015625 160.058594 102.964844 160.011719 103.113281 159.417969 C 103.210938 159.074219 103.261719 154.988281 103.261719 150.363281 L 103.261719 141.945312 L 104.933594 141.945312 Z M 104.984375 151.003906 "/>
<path style=" stroke:none;fill-rule:nonzero;fill:rgb(100%,100%,100%);fill-opacity:1;" d="M 141.800781 144.0625 L 143.769531 146.230469 L 143.914062 153.121094 L 144.0625 160.058594 L 132.742188 160.058594 L 132.742188 146.375 L 117.976562 146.375 L 117.976562 160.058594 L 107 160.058594 L 107.148438 153.121094 L 107.296875 146.230469 L 109.214844 144.0625 L 111.136719 141.945312 L 139.832031 141.945312 Z M 141.800781 144.0625 "/>
<path style=" stroke:none;fill-rule:nonzero;fill:rgb(100%,100%,100%);fill-opacity:1;" d="M 147.804688 150.363281 C 147.804688 154.988281 147.902344 159.074219 147.953125 159.417969 C 148.097656 160.011719 148 160.058594 147.066406 160.058594 L 145.984375 160.058594 L 146.082031 151.003906 L 146.179688 141.945312 L 147.851562 141.945312 L 147.851562 150.363281 Z M 147.804688 150.363281 "/>
<path style=" stroke:none;fill-rule:nonzero;fill:rgb(100%,100%,100%);fill-opacity:1;" d="M 161.386719 144.160156 L 163.40625 146.328125 L 163.40625 160.011719 L 150.019531 160.011719 L 150.167969 159.371094 C 150.265625 159.027344 150.3125 155.925781 150.3125 152.480469 L 150.3125 146.179688 L 152.28125 144.015625 L 154.25 141.847656 L 159.371094 141.847656 Z M 161.386719 144.160156 "/>
<path style=" stroke:none;fill-rule:nonzero;fill:rgb(100%,100%,100%);fill-opacity:1;" d="M 168.132812 151.003906 L 168.132812 160.058594 L 165.621094 160.058594 L 165.621094 141.945312 L 168.132812 141.945312 Z M 168.132812 151.003906 "/>
<path style=" stroke:none;fill-rule:nonzero;fill:rgb(100%,100%,100%);fill-opacity:1;" d="M 60.292969 145.144531 C 60.390625 146.476562 60.097656 146.671875 57.832031 146.671875 C 55.617188 146.671875 55.320312 146.476562 55.320312 145.097656 L 55.320312 143.867188 L 57.734375 143.964844 L 60.195312 144.0625 Z M 60.292969 145.144531 "/>
<path style=" stroke:none;fill-rule:nonzero;fill:rgb(100%,100%,100%);fill-opacity:1;" d="M 69.496094 145.144531 C 69.59375 146.476562 69.300781 146.671875 66.886719 146.671875 C 64.722656 146.671875 64.230469 146.476562 64.230469 145.539062 C 64.230469 143.914062 64.378906 143.867188 66.988281 143.914062 L 69.398438 144.015625 Z M 69.496094 145.144531 "/>
<path style=" stroke:none;fill-rule:nonzero;fill:rgb(100%,100%,100%);fill-opacity:1;" d="M 77.914062 145.097656 C 77.914062 145.835938 77.765625 146.375 77.570312 146.425781 C 76.976562 146.621094 74.566406 146.671875 73.730469 146.476562 C 72.941406 146.328125 72.894531 146.230469 72.894531 145.046875 L 72.894531 143.816406 L 77.914062 143.816406 Z M 77.914062 145.097656 "/>
<path style=" stroke:none;fill-rule:nonzero;fill:rgb(100%,100%,100%);fill-opacity:1;" d="M 177.039062 145.097656 C 177.039062 145.835938 176.890625 146.375 176.695312 146.425781 C 176.105469 146.621094 173.691406 146.671875 172.855469 146.476562 C 172.070312 146.328125 172.019531 146.230469 172.019531 145.046875 L 172.019531 143.816406 L 177.039062 143.816406 Z M 177.039062 145.097656 "/>
<path style=" stroke:none;fill-rule:nonzero;fill:rgb(100%,100%,100%);fill-opacity:1;" d="M 186.195312 145.195312 C 186.242188 145.835938 186.242188 146.375 186.195312 146.375 C 186.144531 146.375 185.457031 146.476562 184.667969 146.523438 C 183.882812 146.621094 182.75 146.621094 182.207031 146.523438 C 181.273438 146.328125 181.222656 146.328125 181.222656 145.097656 L 181.222656 143.867188 L 183.683594 143.964844 L 186.097656 144.0625 Z M 186.195312 145.195312 "/>
<path style=" stroke:none;fill-rule:nonzero;fill:rgb(100%,100%,100%);fill-opacity:1;" d="M 194.808594 145 C 194.90625 146.277344 194.316406 146.671875 192.394531 146.671875 C 189.933594 146.671875 189.589844 146.523438 189.589844 145.292969 C 189.589844 144.753906 189.6875 144.160156 189.789062 144.0625 C 189.886719 143.964844 191.066406 143.914062 192.347656 143.964844 L 194.710938 144.0625 Z M 194.808594 145 "/>
<path style=" stroke:none;fill-rule:nonzero;fill:rgb(100%,100%,100%);fill-opacity:1;" d="M 132.203125 153.613281 C 132.203125 159.8125 132.203125 160.011719 131.660156 160.011719 C 131.117188 160.011719 131.117188 159.8125 131.117188 154.003906 L 131.117188 148 L 119.796875 148 L 119.898438 154.003906 C 119.996094 159.863281 119.945312 160.011719 119.40625 160.011719 C 118.863281 160.011719 118.8125 159.863281 118.8125 153.613281 L 118.8125 147.214844 L 132.203125 147.214844 Z M 132.203125 153.613281 "/>
<path style=" stroke:none;fill-rule:nonzero;fill:rgb(0%,0%,60%);fill-opacity:1;" d="M 94.203125 162.175781 C 93.269531 163.109375 93.417969 163.109375 125.804688 163.109375 C 154.644531 163.109375 157.550781 163.0625 157.402344 162.667969 C 157.304688 162.421875 157.253906 162.175781 157.253906 162.125 C 157.253906 161.929688 94.402344 161.980469 94.203125 162.175781 Z M 94.203125 162.175781 "/>
<path style=" stroke:none;fill-rule:nonzero;fill:rgb(0%,0%,60%);fill-opacity:1;" d="M 93.121094 164.6875 C 93.023438 165.128906 94.648438 165.179688 125.703125 165.078125 C 151.59375 165.03125 158.386719 164.933594 158.289062 164.6875 C 158.1875 164.390625 151.25 164.339844 125.703125 164.292969 C 94.992188 164.242188 93.269531 164.242188 93.121094 164.6875 Z M 93.121094 164.6875 "/>
<path style=" stroke:none;fill-rule:nonzero;fill:rgb(0%,0%,60%);fill-opacity:1;" d="M 92.285156 166.851562 C 92.136719 167.246094 95.976562 167.246094 125.804688 167.246094 C 155.628906 167.246094 159.46875 167.195312 159.320312 166.851562 C 159.171875 166.457031 155.234375 166.410156 125.804688 166.410156 C 96.371094 166.457031 92.433594 166.507812 92.285156 166.851562 Z M 92.285156 166.851562 "/>
<path style=" stroke:none;fill-rule:nonzero;fill:rgb(0%,0%,60%);fill-opacity:1;" d="M 91.449219 168.871094 C 91.351562 168.96875 91.25 169.164062 91.25 169.3125 C 91.25 169.460938 106.804688 169.558594 125.804688 169.558594 C 153.316406 169.558594 160.355469 169.507812 160.257812 169.214844 C 160.15625 168.917969 152.972656 168.871094 125.851562 168.820312 C 107.050781 168.722656 91.546875 168.769531 91.449219 168.871094 Z M 91.449219 168.871094 "/>
<path style=" stroke:none;fill-rule:nonzero;fill:rgb(0%,0%,60%);fill-opacity:1;" d="M 90.367188 171.183594 C 90.21875 171.722656 90.367188 171.722656 125.851562 171.722656 C 145.441406 171.722656 161.488281 171.625 161.488281 171.476562 C 161.488281 170.59375 160.945312 170.59375 125.65625 170.59375 C 90.710938 170.640625 90.464844 170.640625 90.367188 171.183594 Z M 90.367188 171.183594 "/>
<path style=" stroke:none;fill-rule:nonzero;fill:rgb(0%,0%,60%);fill-opacity:1;" d="M 40.851562 173.691406 C 40.851562 173.839844 41.148438 174.429688 41.492188 174.921875 L 42.132812 175.90625 L 209.671875 175.90625 L 210.359375 174.875 C 210.753906 174.285156 211.050781 173.742188 211.050781 173.644531 C 211.050781 173.546875 172.757812 173.445312 125.949219 173.445312 C 68.609375 173.398438 40.851562 173.496094 40.851562 173.691406 Z M 40.851562 173.691406 "/>
<path style=" stroke:none;fill-rule:nonzero;fill:rgb(0%,0%,60%);fill-opacity:1;" d="M 42.917969 177.53125 L 43.558594 178.566406 L 125.902344 178.613281 L 208.246094 178.664062 L 208.785156 177.875 C 209.082031 177.484375 209.425781 176.941406 209.523438 176.746094 C 209.671875 176.449219 192.886719 176.398438 126 176.398438 L 42.230469 176.398438 Z M 42.917969 177.53125 "/>
<path style=" stroke:none;fill-rule:nonzero;fill:rgb(0%,0%,60%);fill-opacity:1;" d="M 78.160156 179.351562 C 78.160156 179.402344 78.75 179.796875 79.4375 180.191406 L 80.71875 180.929688 L 170.984375 180.929688 L 174.039062 179.351562 L 126.050781 179.351562 C 99.765625 179.253906 78.160156 179.304688 78.160156 179.351562 Z M 78.160156 179.351562 "/>
<path style=" stroke:none;fill-rule:nonzero;fill:rgb(0%,30.196078%,0%);fill-opacity:1;" d="M 107.839844 185.652344 C 107.347656 185.851562 107.347656 185.898438 107.789062 186.046875 C 108.183594 186.195312 108.28125 186.589844 108.28125 188.210938 C 108.28125 189.984375 108.230469 190.230469 107.640625 190.425781 C 107.148438 190.625 107.394531 190.671875 108.675781 190.671875 C 109.953125 190.671875 110.199219 190.625 109.707031 190.425781 C 109.117188 190.179688 109.070312 190.035156 109.070312 187.820312 C 109.070312 185.308594 109.019531 185.210938 107.839844 185.652344 Z M 107.839844 185.652344 "/>
<path style=" stroke:none;fill-rule:nonzero;fill:rgb(0%,30.196078%,0%);fill-opacity:1;" d="M 118.617188 185.703125 C 118.125 186.195312 118.222656 187.277344 118.863281 187.621094 C 119.40625 187.917969 119.40625 187.917969 118.667969 188.558594 C 117.828125 189.296875 117.929688 189.984375 119.011719 190.378906 C 120.042969 190.773438 121.128906 190.722656 121.867188 190.230469 C 122.703125 189.640625 122.652344 188.902344 121.71875 188.261719 L 120.980469 187.71875 L 121.570312 187.375 C 122.503906 186.882812 122.210938 185.40625 121.175781 185.40625 C 120.882812 185.40625 120.882812 185.503906 121.226562 185.851562 C 121.621094 186.242188 121.621094 186.390625 121.273438 186.882812 C 120.734375 187.71875 120.390625 187.769531 119.550781 186.980469 C 118.863281 186.390625 118.8125 186.292969 119.257812 185.851562 C 119.601562 185.503906 119.652344 185.359375 119.355469 185.359375 C 119.109375 185.40625 118.765625 185.554688 118.617188 185.703125 Z M 118.617188 185.703125 "/>
<path style=" stroke:none;fill-rule:nonzero;fill:rgb(100%,100%,100%);fill-opacity:1;" d="M 120.832031 188.65625 C 121.71875 189.148438 121.867188 189.984375 121.175781 190.230469 C 119.550781 190.871094 118.175781 189.6875 119.257812 188.605469 C 119.796875 188.066406 119.796875 188.066406 120.832031 188.65625 Z M 120.832031 188.65625 "/>
<path style=" stroke:none;fill-rule:nonzero;fill:rgb(0%,30.196078%,0%);fill-opacity:1;" d="M 131.070312 185.308594 C 128.902344 186.097656 129.445312 188.753906 131.757812 188.703125 L 132.59375 188.703125 L 131.710938 188.3125 C 130.480469 187.769531 130.132812 186.636719 130.921875 185.800781 C 131.511719 185.210938 132.054688 185.257812 132.695312 185.898438 C 133.234375 186.441406 133.480469 188.113281 132.988281 188.113281 C 132.839844 188.113281 132.792969 188.261719 132.839844 188.507812 C 133.039062 189 131.117188 190.328125 130.132812 190.378906 C 129.742188 190.378906 129.640625 190.476562 129.886719 190.527344 C 130.132812 190.574219 130.871094 190.527344 131.5625 190.328125 C 134.464844 189.542969 135.402344 186.242188 132.890625 185.359375 C 132.054688 185.113281 131.757812 185.0625 131.070312 185.308594 Z M 131.070312 185.308594 "/>
<path style=" stroke:none;fill-rule:nonzero;fill:rgb(0%,30.196078%,0%);fill-opacity:1;" d="M 141.898438 185.652344 C 141.160156 186.097656 141.308594 186.488281 142.09375 186.097656 C 142.882812 185.652344 144.113281 185.851562 144.308594 186.390625 C 144.507812 186.835938 143.769531 187.621094 143.128906 187.621094 C 142.882812 187.621094 143.078125 187.820312 143.570312 188.015625 C 145.492188 188.851562 144.898438 190.230469 142.636719 190.132812 C 141.847656 190.082031 141.40625 190.179688 141.503906 190.378906 C 141.898438 191.019531 144.800781 190.527344 145.292969 189.738281 C 145.6875 189.148438 145.539062 188.164062 144.949219 187.820312 C 144.457031 187.523438 144.457031 187.472656 144.851562 186.980469 C 145.539062 186.195312 145 185.503906 143.523438 185.457031 C 142.929688 185.40625 142.144531 185.503906 141.898438 185.652344 Z M 141.898438 185.652344 "/>
</g>
</svg>
