<?xml version="1.0" encoding="UTF-8"?>
<svg xmlns="http://www.w3.org/2000/svg" xmlns:xlink="http://www.w3.org/1999/xlink" width="252pt" height="252pt" viewBox="0 0 252 252" version="1.1">
<g id="surface1">
<path style=" stroke:none;fill-rule:nonzero;fill:rgb(78.823529%,16.862745%,18.431373%);fill-opacity:1;" d="M 35.160156 122.203125 C 35.046875 123.027344 34.988281 123.609375 34.976562 123.960938 C 34.964844 124.289062 34.984375 124.867188 35.039062 125.6875 C 34.332031 125.992188 33.613281 126.320312 32.859375 126.683594 C 32.109375 127.046875 31.214844 127.472656 30.171875 127.980469 C 30.773438 128.390625 31.511719 128.875 32.375 129.441406 C 33.242188 130.007812 34.070312 130.546875 34.851562 131.046875 C 34.753906 131.519531 34.699219 131.839844 34.695312 132.011719 C 34.679688 132.390625 34.710938 132.714844 34.78125 132.984375 L 34.65625 132.980469 L 32.148438 131.050781 C 31.796875 130.785156 31.445312 130.519531 31.097656 130.253906 C 30.742188 129.992188 30.394531 129.722656 30.042969 129.457031 C 29.691406 129.1875 29.339844 128.925781 28.992188 128.660156 L 28.523438 128.917969 C 27.929688 129.21875 27.324219 129.527344 26.707031 129.84375 C 26.089844 130.160156 25.496094 130.464844 24.933594 130.753906 C 24.367188 131.039062 23.773438 131.332031 23.144531 131.636719 C 22.523438 131.9375 21.910156 132.222656 21.308594 132.484375 C 21.324219 132.292969 21.351562 132.011719 21.386719 131.644531 C 21.425781 131.277344 21.453125 130.992188 21.460938 130.800781 C 21.464844 130.605469 21.460938 130.316406 21.445312 129.9375 C 21.4375 129.558594 21.429688 129.273438 21.425781 129.097656 C 21.992188 128.851562 22.710938 128.511719 23.585938 128.09375 C 24.457031 127.667969 25.421875 127.203125 26.484375 126.695312 L 23.730469 124.785156 L 22.273438 123.914062 C 22.15625 123.847656 22.042969 123.773438 21.925781 123.6875 C 21.808594 123.605469 21.707031 123.539062 21.621094 123.496094 C 21.699219 122.953125 21.742188 122.664062 21.746094 122.621094 C 21.757812 122.257812 21.738281 121.929688 21.6875 121.621094 C 22.214844 121.996094 23.109375 122.644531 24.363281 123.558594 C 25.617188 124.476562 26.746094 125.28125 27.75 125.984375 Z M 32.921875 140.371094 C 32.5 140.390625 31.886719 140.40625 31.082031 140.429688 C 30.277344 140.449219 29.609375 140.476562 29.082031 140.511719 C 28.511719 140.550781 27.808594 140.621094 26.964844 140.71875 C 26.117188 140.8125 25.464844 140.878906 25.007812 140.921875 C 24.679688 140.957031 24.195312 141.015625 23.554688 141.09375 C 22.910156 141.179688 22.429688 141.238281 22.121094 141.273438 C 22.117188 141.105469 22.113281 140.847656 22.113281 140.492188 C 22.113281 140.144531 22.113281 139.882812 22.101562 139.722656 C 22.0625 139.132812 21.988281 138.554688 21.886719 137.984375 C 24.007812 138.019531 26.421875 137.9375 29.132812 137.75 L 30.183594 137.675781 C 30.605469 137.648438 31.066406 137.609375 31.558594 137.5625 C 32.046875 137.515625 32.429688 137.484375 32.691406 137.464844 C 33.84375 137.34375 34.722656 137.230469 35.34375 137.132812 C 35.316406 137.910156 35.316406 138.445312 35.335938 138.738281 C 35.355469 139.035156 35.433594 139.566406 35.570312 140.332031 C 34.394531 140.332031 33.511719 140.347656 32.921875 140.371094 Z M 35.144531 146.957031 C 35.074219 146.8125 35.035156 146.6875 35.015625 146.585938 C 34.957031 146.246094 35.027344 145.898438 35.230469 145.53125 C 35.433594 145.203125 35.757812 145.003906 36.203125 144.921875 C 36.878906 144.804688 37.375 144.984375 37.683594 145.472656 C 37.824219 145.695312 37.921875 145.960938 37.972656 146.25 C 38.082031 146.859375 37.921875 147.347656 37.492188 147.71875 C 37.191406 147.933594 36.847656 148.078125 36.464844 148.144531 C 35.457031 148.324219 34.523438 148.15625 33.664062 147.652344 C 33.003906 147.242188 32.535156 146.675781 32.265625 145.957031 L 33.066406 145.816406 C 33.210938 146.167969 33.53125 146.480469 34.039062 146.757812 C 34.378906 146.960938 34.75 147.027344 35.144531 146.957031 Z M 24.609375 155.167969 L 28.257812 155.507812 C 32.4375 155.917969 36.050781 156.179688 39.089844 156.289062 C 39.105469 156.355469 39.121094 156.4375 39.136719 156.527344 C 39.148438 156.621094 39.164062 156.710938 39.183594 156.804688 C 39.199219 156.902344 39.21875 156.980469 39.238281 157.042969 C 39.273438 157.140625 39.320312 157.253906 39.378906 157.367188 C 39.441406 157.484375 39.5 157.597656 39.546875 157.703125 L 39.28125 157.949219 C 35.710938 160.816406 32.171875 163.773438 28.652344 166.820312 L 28.492188 166.992188 L 28.316406 167.054688 C 28.265625 166.867188 28.191406 166.59375 28.105469 166.234375 C 28.011719 165.878906 27.941406 165.605469 27.878906 165.417969 C 27.710938 164.894531 27.511719 164.382812 27.285156 163.886719 C 28.824219 162.792969 29.96875 161.941406 30.695312 161.339844 C 30.621094 161.113281 30.519531 160.761719 30.390625 160.296875 C 30.257812 159.832031 30.15625 159.480469 30.082031 159.246094 C 29.921875 158.765625 29.660156 158.015625 29.285156 156.996094 L 28.996094 156.992188 C 28.34375 156.972656 27.667969 156.953125 26.964844 156.933594 C 26.269531 156.914062 25.625 156.929688 25.039062 156.972656 C 25.003906 156.667969 24.9375 156.363281 24.835938 156.050781 C 24.742188 155.769531 24.621094 155.492188 24.46875 155.214844 Z M 30.570312 157.113281 L 31.6875 160.546875 C 32.695312 159.769531 33.972656 158.730469 35.515625 157.449219 C 33.773438 157.277344 32.1875 157.171875 30.757812 157.121094 Z M 31.273438 173.019531 C 31.191406 172.757812 31.09375 172.515625 30.988281 172.292969 C 30.859375 172.023438 30.695312 171.765625 30.507812 171.519531 C 31.832031 171.023438 33.195312 170.464844 34.585938 169.847656 C 35.980469 169.226562 37.480469 168.523438 39.082031 167.742188 C 39.398438 167.585938 39.871094 167.351562 40.503906 167.03125 C 41.125 166.714844 41.605469 166.476562 41.929688 166.320312 C 42.292969 166.140625 42.566406 165.996094 42.761719 165.878906 C 42.875 166.300781 42.96875 166.578125 43.035156 166.722656 C 43.113281 166.878906 43.285156 167.136719 43.542969 167.480469 C 43.113281 168.5625 42.722656 169.566406 42.359375 170.496094 C 42.003906 171.429688 41.609375 172.46875 41.164062 173.613281 C 40.722656 174.761719 40.347656 175.742188 40.027344 176.554688 C 39.707031 177.367188 39.34375 178.265625 38.933594 179.246094 L 42.824219 177.347656 L 44.8125 176.378906 C 45.101562 176.238281 45.46875 176.039062 45.898438 175.789062 C 46.332031 175.539062 46.65625 175.351562 46.878906 175.234375 L 47.222656 175.027344 C 47.339844 175.449219 47.429688 175.730469 47.5 175.871094 C 47.558594 175.992188 47.640625 176.125 47.742188 176.277344 C 47.84375 176.429688 47.925781 176.550781 47.984375 176.648438 C 47.519531 176.828125 47.1875 176.96875 46.972656 177.074219 C 46.082031 177.421875 45.3125 177.734375 44.671875 178.023438 C 44.292969 178.195312 43.984375 178.335938 43.753906 178.4375 C 43.511719 178.542969 43.222656 178.664062 42.894531 178.808594 C 42.5625 178.953125 42.253906 179.09375 41.96875 179.226562 C 41.6875 179.351562 41.457031 179.460938 41.265625 179.554688 L 39.472656 180.429688 L 35.742188 182.246094 C 35.742188 182.199219 35.71875 182.132812 35.675781 182.042969 C 35.636719 181.921875 35.566406 181.753906 35.460938 181.539062 C 35.304688 181.214844 35.164062 180.972656 35.039062 180.808594 C 36.523438 177.410156 37.746094 174.414062 38.714844 171.824219 L 39.796875 168.933594 C 38.691406 169.425781 37.890625 169.792969 37.40625 170.027344 L 35.769531 170.828125 C 33.75 171.8125 32.265625 172.589844 31.304688 173.148438 Z M 40.003906 192.613281 C 40.734375 193.238281 41.523438 193.261719 42.371094 192.691406 C 43.183594 192.152344 44.070312 191.511719 45.046875 190.75 C 45.359375 190.503906 45.828125 190.140625 46.453125 189.667969 C 47.074219 189.195312 47.535156 188.839844 47.828125 188.609375 C 48.0625 188.429688 48.410156 188.164062 48.882812 187.808594 C 49.359375 187.449219 49.710938 187.179688 49.953125 186.992188 C 50.128906 186.851562 50.382812 186.652344 50.714844 186.378906 C 51.042969 186.105469 51.296875 185.902344 51.464844 185.769531 C 51.664062 185.589844 51.980469 185.320312 52.398438 184.96875 C 52.816406 184.613281 53.125 184.347656 53.324219 184.164062 C 53.761719 184.859375 54.066406 185.316406 54.234375 185.527344 C 54.453125 185.808594 54.820312 186.214844 55.335938 186.738281 C 54.390625 187.378906 53.691406 187.863281 53.238281 188.191406 C 52.8125 188.5 52.171875 188.984375 51.332031 189.644531 C 51.1875 189.726562 50.992188 189.863281 50.738281 190.0625 C 50.335938 190.375 49.777344 190.824219 49.066406 191.414062 C 48.34375 192.003906 47.722656 192.5 47.195312 192.914062 L 46.246094 193.65625 C 45.21875 194.457031 44.320312 194.90625 43.554688 194.992188 C 42.054688 195.179688 40.695312 194.652344 39.472656 193.410156 Z M 58.777344 194.609375 C 58.464844 194.890625 57.996094 195.289062 57.386719 195.816406 C 56.773438 196.335938 56.269531 196.777344 55.882812 197.140625 C 55.464844 197.527344 54.960938 198.023438 54.367188 198.632812 C 53.765625 199.238281 53.300781 199.703125 52.976562 200.019531 C 52.742188 200.253906 52.402344 200.605469 51.953125 201.070312 C 51.507812 201.539062 51.171875 201.890625 50.949219 202.113281 C 50.84375 201.980469 50.679688 201.785156 50.457031 201.507812 C 50.234375 201.238281 50.070312 201.035156 49.960938 200.917969 C 49.558594 200.488281 49.140625 200.082031 48.699219 199.699219 C 50.367188 198.390625 52.195312 196.8125 54.183594 194.960938 L 54.953125 194.242188 C 55.265625 193.953125 55.59375 193.632812 55.949219 193.289062 C 56.296875 192.941406 56.578125 192.679688 56.769531 192.5 C 57.585938 191.683594 58.203125 191.035156 58.625 190.570312 C 59.089844 191.191406 59.425781 191.609375 59.625 191.824219 C 59.828125 192.039062 60.222656 192.40625 60.808594 192.914062 C 59.898438 193.65625 59.21875 194.226562 58.777344 194.609375 Z M 54.679688 205.917969 L 57.898438 204.15625 C 61.589844 202.160156 64.730469 200.355469 67.3125 198.75 C 67.367188 198.796875 67.425781 198.851562 67.488281 198.921875 C 67.546875 198.992188 67.613281 199.058594 67.679688 199.125 C 67.746094 199.195312 67.808594 199.25 67.859375 199.289062 C 67.941406 199.355469 68.042969 199.421875 68.15625 199.480469 C 68.273438 199.546875 68.382812 199.601562 68.484375 199.660156 L 68.402344 200.019531 C 67.046875 204.390625 65.761719 208.820312 64.550781 213.316406 L 64.515625 213.550781 L 64.398438 213.699219 C 64.253906 213.570312 64.042969 213.386719 63.765625 213.140625 C 63.492188 212.890625 63.277344 212.707031 63.121094 212.585938 C 62.691406 212.246094 62.238281 211.933594 61.777344 211.648438 C 62.441406 209.878906 62.910156 208.535156 63.179688 207.628906 C 62.988281 207.480469 62.707031 207.25 62.34375 206.9375 C 61.972656 206.625 61.691406 206.390625 61.496094 206.242188 C 61.097656 205.925781 60.460938 205.453125 59.578125 204.816406 L 59.339844 204.972656 C 58.785156 205.324219 58.214844 205.6875 57.621094 206.0625 C 57.03125 206.4375 56.511719 206.808594 56.046875 207.171875 C 55.851562 206.941406 55.621094 206.726562 55.363281 206.519531 C 55.128906 206.335938 54.871094 206.175781 54.589844 206.035156 Z M 60.710938 204.199219 L 63.554688 206.417969 C 63.957031 205.207031 64.4375 203.636719 65 201.710938 C 63.457031 202.539062 62.085938 203.339844 60.871094 204.097656 Z M 79.40625 221.539062 C 77.53125 221.847656 75.660156 221.441406 73.804688 220.328125 C 71.863281 219.164062 70.667969 217.679688 70.21875 215.875 C 69.753906 214.144531 70.070312 212.363281 71.164062 210.542969 C 72.285156 208.675781 73.855469 207.570312 75.886719 207.222656 C 77.769531 206.941406 79.632812 207.351562 81.464844 208.457031 C 83.019531 209.386719 84.09375 210.550781 84.699219 211.957031 C 85.199219 213.125 85.367188 214.21875 85.207031 215.234375 C 85.058594 216.261719 84.695312 217.257812 84.117188 218.222656 C 83.597656 219.085938 82.925781 219.808594 82.113281 220.390625 C 81.289062 220.976562 80.386719 221.355469 79.40625 221.539062 Z M 78.683594 219.261719 C 79.71875 218.644531 80.660156 217.632812 81.507812 216.222656 C 81.964844 215.453125 82.292969 214.632812 82.476562 213.757812 C 82.660156 212.882812 82.621094 212.058594 82.351562 211.273438 C 82.089844 210.492188 81.5625 209.859375 80.761719 209.378906 C 80.023438 208.9375 79.277344 208.746094 78.523438 208.8125 C 77.773438 208.871094 77.097656 209.097656 76.492188 209.496094 C 75.527344 210.125 74.585938 211.195312 73.671875 212.71875 C 73.203125 213.5 72.882812 214.304688 72.71875 215.136719 C 72.554688 215.96875 72.609375 216.761719 72.882812 217.511719 C 73.160156 218.261719 73.695312 218.878906 74.492188 219.359375 C 75.777344 220.128906 77.175781 220.097656 78.683594 219.261719 Z M 94.667969 217.761719 C 94.460938 218.273438 94.144531 219.03125 93.714844 220.03125 C 93.289062 221.035156 92.972656 221.789062 92.773438 222.292969 C 92.671875 222.546875 92.519531 222.933594 92.320312 223.449219 C 92.121094 223.96875 91.96875 224.363281 91.855469 224.636719 C 91.730469 224.949219 91.550781 225.441406 91.308594 226.113281 C 91.070312 226.785156 90.886719 227.277344 90.761719 227.59375 C 90.625 227.527344 90.394531 227.414062 90.066406 227.257812 C 89.730469 227.09375 89.480469 226.976562 89.304688 226.90625 C 89.148438 226.84375 88.898438 226.757812 88.5625 226.648438 C 88.222656 226.535156 87.964844 226.449219 87.789062 226.390625 C 87.917969 226.101562 88.109375 225.675781 88.375 225.113281 C 88.640625 224.550781 88.828125 224.125 88.941406 223.851562 C 90.078125 221.265625 90.949219 219.210938 91.566406 217.6875 C 91.785156 217.148438 92.078125 216.363281 92.453125 215.335938 C 92.097656 215.191406 91.554688 214.992188 90.820312 214.742188 C 90.113281 214.523438 89.496094 214.359375 88.972656 214.222656 C 89.097656 214.078125 89.230469 213.835938 89.363281 213.5 C 89.484375 213.199219 89.5625 212.984375 89.597656 212.839844 C 89.597656 212.820312 89.601562 212.777344 89.613281 212.71875 C 89.628906 212.65625 89.632812 212.617188 89.632812 212.59375 C 90.21875 212.875 90.675781 213.074219 90.988281 213.203125 C 92.292969 213.777344 93.386719 214.242188 94.277344 214.601562 L 96.164062 215.363281 C 96.476562 215.488281 96.945312 215.65625 97.554688 215.863281 C 98.167969 216.0625 98.660156 216.242188 99.042969 216.398438 C 98.882812 216.625 98.761719 216.859375 98.667969 217.097656 C 98.550781 217.386719 98.453125 217.695312 98.386719 218.027344 C 97.371094 217.417969 96.324219 216.898438 95.253906 216.46875 Z M 111 231.230469 C 109.339844 232.164062 107.445312 232.421875 105.316406 232.011719 C 103.097656 231.578125 101.46875 230.59375 100.425781 229.050781 C 99.398438 227.582031 99.082031 225.800781 99.492188 223.714844 C 99.90625 221.578125 101.003906 220.003906 102.792969 218.984375 C 104.464844 218.074219 106.355469 217.824219 108.457031 218.230469 C 110.238281 218.574219 111.644531 219.304688 112.691406 220.417969 C 113.5625 221.34375 114.09375 222.3125 114.289062 223.320312 C 114.503906 224.339844 114.503906 225.398438 114.289062 226.503906 C 114.09375 227.492188 113.714844 228.402344 113.144531 229.226562 C 112.574219 230.054688 111.855469 230.722656 111 231.230469 Z M 109.539062 229.335938 C 110.300781 228.40625 110.839844 227.132812 111.152344 225.515625 C 111.320312 224.636719 111.347656 223.75 111.21875 222.867188 C 111.09375 221.984375 110.773438 221.222656 110.253906 220.574219 C 109.742188 219.933594 109.027344 219.519531 108.113281 219.34375 C 107.265625 219.175781 106.5 219.253906 105.8125 219.574219 C 105.132812 219.886719 104.570312 220.332031 104.140625 220.910156 C 103.449219 221.832031 102.929688 223.160156 102.59375 224.90625 C 102.417969 225.796875 102.394531 226.664062 102.523438 227.5 C 102.652344 228.339844 102.976562 229.0625 103.488281 229.679688 C 104.003906 230.289062 104.71875 230.6875 105.632812 230.863281 C 107.105469 231.148438 108.40625 230.640625 109.539062 229.335938 Z M 120.324219 233.535156 C 120.054688 233.488281 119.792969 233.457031 119.550781 233.449219 C 119.25 233.4375 118.941406 233.457031 118.640625 233.507812 C 118.824219 232.105469 118.96875 230.640625 119.078125 229.121094 C 119.183594 227.597656 119.265625 225.945312 119.328125 224.164062 C 119.339844 223.808594 119.355469 223.285156 119.371094 222.578125 C 119.382812 221.878906 119.394531 221.34375 119.410156 220.980469 C 119.421875 220.582031 119.421875 220.265625 119.414062 220.042969 C 119.835938 220.140625 120.128906 220.1875 120.285156 220.195312 C 120.460938 220.199219 120.765625 220.171875 121.195312 220.105469 C 121.945312 220.988281 122.652344 221.808594 123.300781 222.566406 C 123.953125 223.316406 124.691406 224.152344 125.492188 225.082031 C 126.296875 226.007812 126.988281 226.800781 127.554688 227.46875 C 128.125 228.128906 128.746094 228.875 129.417969 229.699219 L 129.570312 225.371094 L 129.644531 223.160156 C 129.65625 222.835938 129.652344 222.421875 129.632812 221.925781 C 129.617188 221.425781 129.601562 221.050781 129.601562 220.800781 L 129.585938 220.398438 C 130.011719 220.496094 130.304688 220.546875 130.460938 220.550781 C 130.59375 220.554688 130.746094 220.546875 130.929688 220.527344 C 131.113281 220.507812 131.261719 220.492188 131.371094 220.488281 C 131.3125 220.980469 131.28125 221.34375 131.273438 221.578125 C 131.164062 222.53125 131.078125 223.355469 131.03125 224.058594 C 131.007812 224.472656 130.988281 224.808594 130.96875 225.058594 C 130.945312 225.320312 130.917969 225.632812 130.890625 225.992188 C 130.863281 226.355469 130.839844 226.691406 130.824219 227.003906 C 130.804688 227.3125 130.792969 227.570312 130.785156 227.78125 L 130.714844 229.777344 L 130.570312 233.925781 C 130.527344 233.902344 130.457031 233.890625 130.359375 233.886719 C 130.230469 233.863281 130.050781 233.847656 129.8125 233.835938 C 129.449219 233.824219 129.171875 233.835938 128.96875 233.871094 C 126.664062 230.964844 124.59375 228.476562 122.761719 226.40625 L 120.714844 224.089844 C 120.632812 225.300781 120.582031 226.175781 120.5625 226.71875 L 120.5 228.539062 C 120.421875 230.78125 120.40625 232.457031 120.453125 233.570312 Z M 146.261719 220.980469 C 145.128906 219.882812 143.734375 219.496094 142.085938 219.816406 C 140.5 220.125 139.363281 221.054688 138.671875 222.601562 C 138.167969 223.804688 138.070312 225.199219 138.382812 226.800781 C 138.539062 227.613281 138.84375 228.382812 139.289062 229.121094 C 139.734375 229.851562 140.285156 230.394531 140.933594 230.75 C 141.339844 230.964844 141.675781 231.101562 141.933594 231.15625 C 142.195312 231.21875 142.578125 231.261719 143.078125 231.289062 C 143.53125 231.285156 143.878906 231.257812 144.113281 231.210938 C 144.460938 231.144531 144.890625 231.011719 145.394531 230.808594 C 145.472656 230.792969 145.613281 230.742188 145.800781 230.648438 C 145.992188 230.558594 146.097656 230.492188 146.128906 230.449219 C 146.136719 230.4375 146.140625 230.402344 146.140625 230.347656 C 146.136719 230.289062 146.140625 230.257812 146.152344 230.253906 L 145.867188 228.773438 C 145.722656 228.042969 145.488281 227.050781 145.15625 225.792969 C 145.648438 225.757812 146.140625 225.695312 146.628906 225.597656 C 147.164062 225.496094 147.671875 225.367188 148.160156 225.210938 C 148.238281 226.121094 148.394531 227.179688 148.628906 228.390625 C 148.726562 228.882812 148.886719 229.605469 149.109375 230.550781 C 147.203125 231.496094 145.570312 232.101562 144.222656 232.367188 C 143.183594 232.566406 142.171875 232.625 141.191406 232.542969 C 140.207031 232.460938 139.304688 232.21875 138.476562 231.816406 C 137.652344 231.414062 136.957031 230.839844 136.386719 230.097656 C 135.820312 229.355469 135.433594 228.445312 135.222656 227.351562 C 134.996094 226.199219 135 225.128906 135.226562 224.148438 C 135.457031 223.160156 135.875 222.300781 136.492188 221.550781 C 137.101562 220.800781 137.863281 220.179688 138.773438 219.691406 C 139.6875 219.199219 140.703125 218.851562 141.820312 218.632812 C 143.546875 218.296875 145.164062 218.382812 146.683594 218.886719 C 146.574219 219.777344 146.527344 220.453125 146.53125 220.925781 Z M 167.503906 213.6875 C 167.582031 213.882812 167.695312 214.183594 167.851562 214.59375 C 168.003906 215 168.125 215.308594 168.203125 215.5 C 168.292969 215.726562 168.417969 216.0625 168.582031 216.519531 C 168.746094 216.976562 168.871094 217.320312 168.960938 217.539062 C 169.492188 218.964844 169.808594 220.101562 169.914062 220.949219 C 170.015625 221.796875 169.761719 222.683594 169.152344 223.609375 C 168.519531 224.605469 167.496094 225.390625 166.082031 225.960938 C 165.292969 226.28125 164.503906 226.488281 163.714844 226.585938 C 162.929688 226.6875 162.175781 226.613281 161.453125 226.375 C 160.730469 226.140625 160.109375 225.683594 159.589844 225.019531 C 159.4375 224.839844 159.25 224.539062 159.03125 224.105469 C 158.886719 223.855469 158.699219 223.449219 158.464844 222.867188 C 158.3125 222.492188 158.148438 222.089844 157.957031 221.65625 C 157.773438 221.230469 157.628906 220.886719 157.523438 220.628906 L 156.59375 218.324219 C 156.5 218.101562 156.355469 217.753906 156.160156 217.292969 C 155.957031 216.824219 155.8125 216.476562 155.722656 216.257812 C 155.691406 216.175781 155.636719 216.050781 155.558594 215.878906 C 155.476562 215.710938 155.417969 215.574219 155.378906 215.480469 C 156.128906 215.265625 156.644531 215.101562 156.941406 214.980469 C 157.242188 214.859375 157.714844 214.625 158.359375 214.277344 C 158.394531 214.371094 158.4375 214.523438 158.5 214.734375 C 158.558594 214.945312 158.601562 215.101562 158.636719 215.214844 C 159.191406 216.839844 159.71875 218.28125 160.226562 219.539062 C 160.898438 221.199219 161.398438 222.335938 161.726562 222.949219 C 162.058594 223.441406 162.34375 223.808594 162.574219 224.042969 C 162.8125 224.28125 163.140625 224.476562 163.550781 224.632812 C 164.316406 224.933594 165.121094 224.914062 165.957031 224.574219 C 166.800781 224.234375 167.402344 223.789062 167.769531 223.242188 C 168.136719 222.699219 168.324219 221.96875 168.332031 221.0625 C 168.316406 220.433594 167.910156 219.128906 167.109375 217.148438 C 166.117188 214.699219 165.328125 212.882812 164.738281 211.699219 C 165.210938 211.597656 165.53125 211.511719 165.703125 211.4375 C 165.886719 211.367188 166.1875 211.203125 166.59375 210.953125 C 166.625 211.089844 166.679688 211.28125 166.753906 211.515625 C 166.835938 211.757812 166.914062 212.007812 167.007812 212.269531 C 167.09375 212.535156 167.175781 212.757812 167.246094 212.941406 C 167.308594 213.128906 167.394531 213.378906 167.503906 213.6875 Z M 178.601562 219.550781 C 178.351562 219.664062 178.121094 219.789062 177.917969 219.921875 C 177.664062 220.085938 177.425781 220.277344 177.207031 220.492188 C 176.550781 219.238281 175.832031 217.953125 175.050781 216.648438 C 174.261719 215.339844 173.378906 213.9375 172.410156 212.441406 C 172.21875 212.144531 171.925781 211.707031 171.535156 211.121094 C 171.144531 210.539062 170.847656 210.089844 170.652344 209.792969 C 170.429688 209.453125 170.253906 209.195312 170.117188 209.019531 C 170.519531 208.855469 170.785156 208.730469 170.917969 208.644531 C 171.066406 208.546875 171.296875 208.347656 171.609375 208.046875 C 172.734375 208.34375 173.78125 208.609375 174.746094 208.855469 C 175.714844 209.089844 176.796875 209.359375 177.984375 209.660156 C 179.175781 209.957031 180.195312 210.207031 181.042969 210.429688 C 181.886719 210.648438 182.824219 210.898438 183.851562 211.191406 L 181.492188 207.558594 L 180.285156 205.703125 C 180.109375 205.429688 179.867188 205.09375 179.566406 204.699219 C 179.265625 204.296875 179.042969 203.996094 178.898438 203.792969 L 178.652344 203.476562 C 179.058594 203.308594 179.328125 203.183594 179.457031 203.097656 C 179.566406 203.027344 179.6875 202.929688 179.828125 202.808594 C 179.96875 202.6875 180.078125 202.589844 180.167969 202.519531 C 180.402344 202.960938 180.582031 203.277344 180.710938 203.476562 C 181.167969 204.316406 181.574219 205.039062 181.933594 205.640625 C 182.152344 205.996094 182.332031 206.285156 182.460938 206.5 C 182.589844 206.726562 182.75 207 182.929688 207.308594 C 183.117188 207.621094 183.292969 207.910156 183.457031 208.175781 C 183.617188 208.441406 183.753906 208.660156 183.871094 208.835938 L 184.957031 210.507812 L 187.21875 213.992188 C 187.171875 213.996094 187.105469 214.023438 187.023438 214.082031 C 186.90625 214.132812 186.746094 214.222656 186.546875 214.351562 C 186.246094 214.550781 186.023438 214.71875 185.875 214.863281 C 182.320312 213.804688 179.199219 212.953125 176.507812 212.308594 L 173.503906 211.585938 C 174.128906 212.625 174.59375 213.375 174.886719 213.824219 L 175.878906 215.355469 C 177.101562 217.238281 178.050781 218.617188 178.726562 219.503906 Z M 187.605469 199.867188 C 187.882812 200.191406 188.273438 200.664062 188.792969 201.285156 C 189.296875 201.90625 189.730469 202.414062 190.082031 202.808594 C 190.464844 203.234375 190.953125 203.746094 191.550781 204.351562 C 192.144531 204.960938 192.601562 205.433594 192.914062 205.765625 C 193.144531 206.007812 193.488281 206.351562 193.945312 206.804688 C 194.410156 207.257812 194.753906 207.601562 194.96875 207.828125 C 194.839844 207.933594 194.636719 208.09375 194.359375 208.3125 C 194.082031 208.523438 193.878906 208.6875 193.757812 208.796875 C 193.324219 209.191406 192.90625 209.605469 192.519531 210.035156 C 191.242188 208.34375 189.695312 206.492188 187.875 204.472656 L 187.171875 203.6875 C 186.886719 203.371094 186.574219 203.035156 186.238281 202.675781 C 185.898438 202.320312 185.636719 202.035156 185.460938 201.839844 C 184.660156 201.011719 184.023438 200.382812 183.5625 199.953125 C 184.191406 199.5 184.617188 199.167969 184.835938 198.972656 C 185.054688 198.773438 185.429688 198.386719 185.949219 197.808594 C 186.671875 198.734375 187.226562 199.421875 187.605469 199.867188 Z M 203.835938 199.191406 C 203.769531 199.25 203.660156 199.34375 203.507812 199.472656 C 203.355469 199.597656 203.242188 199.699219 203.167969 199.777344 C 202.957031 200 202.78125 200.238281 202.632812 200.480469 C 200.589844 199.613281 198.410156 198.71875 196.101562 197.804688 C 193.789062 196.890625 191.480469 196.003906 189.179688 195.140625 C 189.796875 194.601562 190.21875 194.207031 190.449219 193.957031 C 190.679688 193.710938 191.042969 193.261719 191.535156 192.613281 C 192.484375 193.085938 193.449219 193.53125 194.425781 193.953125 C 195.402344 194.371094 196.527344 194.839844 197.8125 195.367188 C 199.09375 195.890625 200.195312 196.34375 201.109375 196.730469 C 199.453125 193.097656 197.898438 189.96875 196.453125 187.339844 C 196.5 187.3125 196.539062 187.285156 196.566406 187.265625 C 196.589844 187.253906 196.613281 187.234375 196.636719 187.222656 C 197.121094 186.707031 197.460938 186.3125 197.671875 186.035156 C 198.214844 187.25 198.882812 188.730469 199.667969 190.46875 C 200.449219 192.207031 201.1875 193.800781 201.871094 195.25 C 202.566406 196.699219 203.214844 198.015625 203.835938 199.191406 Z M 199.113281 183.316406 C 199.324219 183.035156 199.625 182.636719 200.027344 182.128906 C 200.425781 181.617188 200.753906 181.183594 200.996094 180.835938 C 201.378906 180.292969 201.820312 179.632812 202.316406 178.871094 C 202.820312 178.109375 203.207031 177.527344 203.476562 177.128906 C 203.738281 177.332031 204.125 177.617188 204.65625 177.988281 C 204.71875 178.007812 204.789062 178.042969 204.875 178.101562 C 203.636719 179.585938 202.710938 180.769531 202.097656 181.644531 C 202.464844 181.929688 203.023438 182.332031 203.769531 182.855469 C 203.96875 182.996094 204.257812 183.203125 204.652344 183.492188 C 205.042969 183.777344 205.335938 183.988281 205.53125 184.125 L 207.988281 180.363281 C 208.269531 180.664062 208.496094 180.871094 208.664062 180.984375 C 208.808594 181.085938 209.039062 181.199219 209.351562 181.320312 C 208.519531 182.335938 207.800781 183.269531 207.207031 184.117188 C 207.152344 184.191406 207.058594 184.324219 206.925781 184.496094 C 206.792969 184.667969 206.695312 184.804688 206.632812 184.894531 L 208.691406 186.339844 L 210.71875 187.757812 C 211.417969 186.765625 212.214844 185.46875 213.117188 183.875 C 213.367188 184.078125 213.757812 184.359375 214.285156 184.734375 C 214.347656 184.75 214.417969 184.789062 214.503906 184.847656 C 214.269531 185.160156 213.914062 185.636719 213.429688 186.265625 C 212.949219 186.886719 212.597656 187.367188 212.371094 187.6875 C 212.21875 187.902344 212.003906 188.230469 211.714844 188.664062 C 211.429688 189.109375 211.21875 189.425781 211.078125 189.632812 C 210.867188 189.929688 210.550781 190.421875 210.121094 191.105469 C 210.027344 191.027344 209.878906 190.902344 209.671875 190.75 C 209.472656 190.597656 209.328125 190.484375 209.238281 190.402344 C 208.9375 190.179688 208.453125 189.828125 207.78125 189.324219 C 207.117188 188.828125 206.609375 188.460938 206.261719 188.21875 C 206 188.035156 205.597656 187.75 205.058594 187.359375 C 204.519531 186.96875 204.113281 186.679688 203.84375 186.488281 L 201.957031 185.167969 C 201.683594 184.972656 201.246094 184.6875 200.652344 184.316406 C 200.0625 183.945312 199.625 183.664062 199.335938 183.472656 Z M 214.632812 174.699219 C 214.011719 174.734375 213.625 174.761719 213.484375 174.78125 C 213.390625 174.789062 213.328125 174.816406 213.304688 174.867188 C 213.277344 174.921875 213.300781 174.96875 213.375 175 C 213.71875 175.167969 214.242188 175.414062 214.953125 175.738281 C 215.660156 176.0625 216.1875 176.304688 216.53125 176.472656 L 217.019531 176.710938 C 217.503906 176.925781 218.140625 177.179688 218.945312 177.476562 C 218.855469 177.636719 218.722656 177.871094 218.542969 178.179688 C 218.367188 178.484375 218.234375 178.71875 218.15625 178.878906 C 218.082031 179.03125 217.980469 179.28125 217.839844 179.621094 C 217.707031 179.957031 217.601562 180.203125 217.535156 180.359375 L 217.226562 180.171875 C 217.089844 180.101562 216.945312 180.023438 216.796875 179.941406 C 216.652344 179.859375 216.53125 179.789062 216.453125 179.746094 C 216.371094 179.695312 216.253906 179.628906 216.089844 179.523438 C 215.359375 179.097656 214.203125 178.503906 212.644531 177.742188 C 212.292969 177.570312 211.757812 177.3125 211.035156 176.972656 C 210.308594 176.628906 209.773438 176.375 209.417969 176.203125 C 208.589844 175.796875 207.261719 175.195312 205.445312 174.394531 L 206.089844 173.195312 C 206.226562 172.917969 206.425781 172.492188 206.679688 171.921875 C 206.9375 171.351562 207.140625 170.921875 207.277344 170.636719 C 207.96875 169.222656 208.550781 168.328125 209.03125 167.957031 C 210.132812 167.207031 211.25 167.109375 212.375 167.660156 C 213.214844 168.070312 213.789062 168.652344 214.101562 169.410156 C 214.410156 170.175781 214.445312 171.023438 214.21875 171.960938 C 215.253906 171.90625 217.421875 171.679688 220.722656 171.257812 L 222.039062 171.132812 C 221.945312 171.296875 221.800781 171.558594 221.601562 171.914062 C 221.402344 172.261719 221.257812 172.527344 221.171875 172.695312 C 220.917969 173.21875 220.683594 173.769531 220.472656 174.339844 L 215.855469 174.613281 Z M 209.859375 173.21875 L 211.25 173.898438 C 211.8125 174.171875 212.234375 174.390625 212.519531 174.550781 C 212.992188 173.585938 213.121094 172.78125 212.917969 172.144531 C 212.714844 171.5 212.1875 170.972656 211.332031 170.554688 C 210.984375 170.386719 210.671875 170.269531 210.394531 170.199219 C 210.011719 170.105469 209.6875 170.09375 209.414062 170.171875 C 209.148438 170.242188 208.921875 170.378906 208.738281 170.570312 C 208.554688 170.769531 208.382812 171.019531 208.226562 171.316406 C 208.066406 171.621094 207.914062 171.914062 207.761719 172.199219 Z M 215.433594 157.375 C 214.238281 157.433594 213.476562 157.980469 213.140625 159.019531 C 212.941406 159.640625 212.941406 160.191406 213.148438 160.675781 C 213.363281 161.152344 213.738281 161.476562 214.261719 161.648438 C 214.703125 161.789062 215.148438 161.71875 215.585938 161.445312 C 216.03125 161.164062 216.597656 160.683594 217.292969 159.996094 C 217.988281 159.3125 218.582031 158.785156 219.070312 158.414062 C 219.558594 158.039062 220.074219 157.828125 220.621094 157.785156 C 221.128906 157.714844 221.722656 157.792969 222.386719 158.011719 C 222.960938 158.195312 223.5 158.53125 224.007812 159.007812 C 224.660156 159.636719 225.046875 160.496094 225.175781 161.589844 C 225.28125 162.390625 225.171875 163.289062 224.847656 164.285156 C 224.46875 165.449219 223.882812 166.371094 223.085938 167.054688 C 222.238281 166.476562 221.511719 166.042969 220.894531 165.742188 L 221.007812 165.390625 C 221.683594 165.453125 222.273438 165.304688 222.773438 164.957031 C 223.273438 164.609375 223.632812 164.105469 223.84375 163.453125 C 224.042969 162.835938 224.050781 162.265625 223.859375 161.738281 C 223.671875 161.203125 223.277344 160.84375 222.683594 160.648438 C 222.15625 160.476562 221.601562 160.550781 221.015625 160.878906 C 220.40625 161.335938 219.785156 161.910156 219.152344 162.597656 C 218.957031 162.789062 218.699219 163.011719 218.375 163.273438 C 218.050781 163.535156 217.839844 163.707031 217.742188 163.792969 C 217.339844 164.121094 216.84375 164.308594 216.25 164.351562 C 215.65625 164.398438 215.078125 164.332031 214.503906 164.148438 C 213.292969 163.753906 212.464844 162.957031 212.027344 161.773438 C 211.816406 161.230469 211.714844 160.71875 211.726562 160.230469 C 211.742188 159.75 211.84375 159.195312 212.050781 158.570312 C 212.398438 157.488281 212.953125 156.632812 213.703125 156.011719 C 213.742188 156.007812 213.792969 155.976562 213.871094 155.910156 C 214.390625 156.300781 214.941406 156.691406 215.527344 157.085938 Z M 215.433594 157.375 "/>
<path style=" stroke:none;fill-rule:nonzero;fill:rgb(78.823529%,16.862745%,18.431373%);fill-opacity:1;" d="M 217.785156 148.320312 C 218.195312 148.425781 218.785156 148.585938 219.566406 148.800781 C 220.339844 149.019531 220.984375 149.1875 221.5 149.308594 C 222.058594 149.4375 222.75 149.578125 223.585938 149.730469 C 224.425781 149.890625 225.070312 150.015625 225.515625 150.105469 C 225.839844 150.171875 226.320312 150.257812 226.957031 150.367188 C 227.597656 150.472656 228.074219 150.558594 228.382812 150.617188 C 228.335938 150.777344 228.261719 151.027344 228.160156 151.363281 C 228.054688 151.699219 227.980469 151.945312 227.945312 152.101562 C 227.8125 152.679688 227.714844 153.253906 227.640625 153.832031 C 225.625 153.179688 223.292969 152.546875 220.648438 151.933594 L 219.617188 151.699219 C 219.203125 151.601562 218.757812 151.503906 218.273438 151.402344 C 217.789062 151.308594 217.414062 151.226562 217.160156 151.167969 C 216.023438 150.945312 215.148438 150.796875 214.523438 150.710938 C 214.777344 149.976562 214.933594 149.460938 215 149.175781 C 215.066406 148.886719 215.148438 148.355469 215.242188 147.582031 C 216.367188 147.925781 217.21875 148.171875 217.785156 148.320312 Z M 219.675781 137.882812 C 220.230469 137.9375 221.042969 138.035156 222.125 138.171875 C 223.207031 138.304688 224.019531 138.398438 224.554688 138.457031 C 224.828125 138.484375 225.238281 138.523438 225.792969 138.570312 C 226.347656 138.621094 226.769531 138.660156 227.058594 138.6875 C 227.398438 138.726562 227.921875 138.765625 228.632812 138.808594 C 229.34375 138.855469 229.867188 138.894531 230.203125 138.925781 C 230.179688 139.078125 230.136719 139.332031 230.074219 139.691406 C 230.007812 140.058594 229.964844 140.332031 229.945312 140.515625 C 229.925781 140.683594 229.914062 140.949219 229.90625 141.300781 C 229.890625 141.660156 229.878906 141.929688 229.867188 142.117188 C 229.554688 142.074219 229.09375 142.003906 228.480469 141.90625 C 227.867188 141.804688 227.40625 141.742188 227.109375 141.710938 C 224.3125 141.328125 222.09375 141.058594 220.460938 140.886719 C 219.886719 140.824219 219.050781 140.757812 217.953125 140.679688 C 217.914062 141.0625 217.875 141.640625 217.832031 142.410156 C 217.824219 143.152344 217.832031 143.792969 217.847656 144.332031 C 217.671875 144.253906 217.402344 144.195312 217.042969 144.15625 C 216.71875 144.121094 216.492188 144.109375 216.34375 144.113281 C 216.324219 144.121094 216.28125 144.128906 216.222656 144.132812 C 216.160156 144.132812 216.117188 144.140625 216.097656 144.148438 C 216.207031 143.503906 216.273438 143.011719 216.308594 142.675781 C 216.503906 141.265625 216.648438 140.082031 216.746094 139.128906 L 216.957031 137.105469 C 216.996094 136.769531 217.027344 136.273438 217.054688 135.632812 C 217.082031 134.988281 217.113281 134.464844 217.160156 134.054688 C 217.421875 134.140625 217.683594 134.195312 217.9375 134.222656 C 218.246094 134.253906 218.570312 134.261719 218.90625 134.234375 C 218.601562 135.378906 218.390625 136.527344 218.273438 137.671875 Z M 217.457031 130.230469 C 217.445312 129.875 217.386719 129.289062 217.273438 128.484375 C 217.558594 128.339844 217.835938 128.191406 218.125 128.039062 C 218.40625 127.894531 218.691406 127.746094 218.976562 127.605469 C 219.394531 127.390625 220 127.066406 220.796875 126.632812 C 221.167969 126.433594 221.730469 126.140625 222.484375 125.753906 C 222.847656 125.535156 223.054688 125.398438 223.109375 125.335938 C 223.109375 125.339844 223.101562 125.34375 223.097656 125.34375 C 223.074219 125.34375 222.9375 125.234375 222.703125 125.015625 C 222.527344 124.910156 222.320312 124.808594 222.085938 124.710938 C 221.65625 124.484375 220.867188 124.128906 219.71875 123.632812 C 219.332031 123.449219 218.785156 123.226562 218.082031 122.96875 C 217.90625 122.898438 217.71875 122.824219 217.507812 122.738281 C 217.300781 122.652344 217.15625 122.589844 217.066406 122.550781 C 217.078125 122.53125 217.085938 122.492188 217.097656 122.445312 C 217.105469 122.398438 217.113281 122.359375 217.121094 122.335938 C 217.144531 122.1875 217.144531 121.976562 217.132812 121.695312 C 217.125 121.390625 217.082031 121.058594 217.003906 120.703125 C 217.683594 121.035156 218.871094 121.640625 220.574219 122.53125 C 222.277344 123.425781 223.628906 124.089844 224.625 124.53125 C 225.632812 124.535156 226.390625 124.53125 226.898438 124.507812 C 227.535156 124.488281 228.773438 124.375 230.617188 124.160156 C 230.613281 124.34375 230.605469 124.628906 230.59375 125.007812 C 230.582031 125.386719 230.578125 125.675781 230.582031 125.867188 C 230.605469 126.429688 230.652344 126.984375 230.734375 127.53125 C 229.296875 127.433594 227.800781 127.414062 226.242188 127.46875 C 225.988281 127.457031 225.609375 127.460938 225.125 127.476562 C 224.511719 127.875 223.902344 128.246094 223.296875 128.601562 C 222.699219 128.960938 222.066406 129.332031 221.398438 129.710938 C 220.726562 130.089844 220.027344 130.484375 219.292969 130.898438 C 218.558594 131.320312 217.921875 131.679688 217.398438 131.996094 C 217.449219 131.175781 217.46875 130.589844 217.457031 130.230469 Z M 217.457031 130.230469 "/>
<path style=" stroke:none;fill-rule:evenodd;fill:rgb(78.823529%,16.862745%,18.431373%);fill-opacity:1;" d="M 126 0 C 195.574219 0 252 56.425781 252 126 C 252 195.574219 195.574219 252 126 252 C 56.421875 252 0 195.574219 0 126 C 0 56.425781 56.421875 0 126 0 Z M 126 4.738281 C 192.960938 4.738281 247.261719 59.039062 247.261719 126 C 247.261719 192.960938 192.960938 247.261719 126 247.261719 C 59.039062 247.261719 4.738281 192.960938 4.738281 126 C 4.738281 59.039062 59.039062 4.738281 126 4.738281 Z M 126 4.738281 "/>
<path style=" stroke:none;fill-rule:nonzero;fill:rgb(78.823529%,16.862745%,18.431373%);fill-opacity:1;" d="M 126 7.929688 C 158.597656 7.929688 188.117188 21.148438 209.484375 42.515625 C 230.851562 63.882812 244.070312 93.402344 244.070312 126 C 244.070312 158.597656 230.851562 188.117188 209.484375 209.484375 C 188.117188 230.851562 158.597656 244.070312 126 244.070312 C 93.402344 244.070312 63.882812 230.851562 42.515625 209.484375 C 21.148438 188.117188 7.929688 158.597656 7.929688 126 C 7.929688 93.402344 21.148438 63.882812 42.515625 42.515625 C 63.882812 21.148438 93.402344 7.929688 126 7.929688 Z M 207.742188 44.257812 C 186.820312 23.335938 157.917969 10.394531 126 10.394531 C 94.082031 10.394531 65.179688 23.335938 44.257812 44.257812 C 23.335938 65.179688 10.390625 94.082031 10.390625 126 C 10.390625 157.917969 23.335938 186.820312 44.257812 207.742188 C 65.179688 228.664062 94.082031 241.609375 126 241.609375 C 157.917969 241.609375 186.820312 228.664062 207.742188 207.742188 C 228.664062 186.820312 241.605469 157.917969 241.605469 126 C 241.605469 94.082031 228.664062 65.179688 207.742188 44.257812 Z M 207.742188 44.257812 "/>
<path style=" stroke:none;fill-rule:evenodd;fill:rgb(78.823529%,16.862745%,18.431373%);fill-opacity:1;" d="M 130.742188 44.980469 L 131.679688 53.980469 C 134.210938 54.179688 136.703125 54.511719 139.148438 54.964844 L 142.390625 46.507812 C 145.511719 47.152344 148.566406 47.980469 151.550781 48.972656 L 150.128906 57.914062 C 152.503906 58.761719 154.820312 59.726562 157.074219 60.804688 L 162.386719 53.484375 C 165.222656 54.917969 167.964844 56.511719 170.597656 58.25 L 166.910156 66.515625 C 168.972656 67.941406 170.957031 69.46875 172.859375 71.09375 L 179.882812 65.398438 C 182.25 67.507812 184.492188 69.75 186.601562 72.117188 L 180.90625 79.140625 C 182.53125 81.042969 184.058594 83.027344 185.484375 85.089844 L 193.746094 81.402344 C 195.488281 84.035156 197.082031 86.777344 198.511719 89.613281 L 191.191406 94.925781 C 192.273438 97.179688 193.234375 99.496094 194.085938 101.871094 L 203.027344 100.449219 C 204.019531 103.429688 204.847656 106.488281 205.492188 109.609375 L 197.035156 112.847656 C 197.488281 115.296875 197.820312 117.789062 198.019531 120.320312 L 207.019531 121.257812 C 207.109375 122.828125 207.160156 124.410156 207.160156 126 C 207.160156 127.589844 207.109375 129.171875 207.019531 130.742188 L 198.019531 131.683594 C 197.820312 134.210938 197.488281 136.703125 197.035156 139.152344 L 205.492188 142.390625 C 204.847656 145.511719 204.019531 148.566406 203.027344 151.550781 L 194.082031 150.128906 C 193.234375 152.503906 192.273438 154.820312 191.191406 157.074219 L 198.511719 162.386719 C 197.082031 165.222656 195.488281 167.964844 193.746094 170.597656 L 185.484375 166.910156 C 184.058594 168.972656 182.53125 170.957031 180.902344 172.859375 L 186.601562 179.882812 C 184.492188 182.25 182.25 184.492188 179.882812 186.601562 L 172.859375 180.90625 C 170.957031 182.53125 168.972656 184.058594 166.910156 185.484375 L 170.597656 193.75 C 167.964844 195.488281 165.222656 197.082031 162.386719 198.515625 L 157.074219 191.195312 C 154.820312 192.273438 152.503906 193.238281 150.128906 194.085938 L 151.550781 203.027344 C 148.566406 204.019531 145.511719 204.847656 142.390625 205.492188 L 139.148438 197.035156 C 136.703125 197.492188 134.207031 197.820312 131.679688 198.019531 L 130.742188 207.019531 C 129.171875 207.113281 127.589844 207.160156 126 207.160156 C 124.40625 207.160156 122.824219 207.113281 121.253906 207.019531 L 120.316406 198.019531 C 117.789062 197.820312 115.296875 197.488281 112.847656 197.035156 L 109.609375 205.492188 C 106.488281 204.847656 103.429688 204.019531 100.449219 203.027344 L 101.871094 194.085938 C 99.496094 193.238281 97.179688 192.273438 94.925781 191.195312 L 89.613281 198.515625 C 86.777344 197.082031 84.035156 195.488281 81.402344 193.75 L 85.089844 185.484375 C 83.027344 184.058594 81.039062 182.53125 79.136719 180.90625 L 72.113281 186.601562 C 69.746094 184.492188 67.507812 182.25 65.398438 179.882812 L 71.09375 172.859375 C 69.46875 170.957031 67.941406 168.972656 66.515625 166.910156 L 58.25 170.597656 C 56.507812 167.964844 54.917969 165.222656 53.484375 162.386719 L 60.804688 157.074219 C 59.726562 154.820312 58.761719 152.503906 57.914062 150.128906 L 48.972656 151.550781 C 47.976562 148.570312 47.152344 145.511719 46.503906 142.390625 L 54.960938 139.152344 C 54.507812 136.703125 54.179688 134.210938 53.980469 131.683594 L 44.980469 130.742188 C 44.886719 129.171875 44.835938 127.589844 44.835938 126 C 44.835938 124.410156 44.886719 122.828125 44.980469 121.257812 L 53.980469 120.320312 C 54.179688 117.789062 54.507812 115.296875 54.960938 112.847656 L 46.503906 109.609375 C 47.152344 106.488281 47.980469 103.433594 48.972656 100.449219 L 57.914062 101.871094 C 58.761719 99.496094 59.726562 97.179688 60.804688 94.925781 L 53.484375 89.613281 C 54.914062 86.777344 56.511719 84.035156 58.25 81.402344 L 66.515625 85.089844 C 67.941406 83.027344 69.46875 81.042969 71.09375 79.140625 L 65.398438 72.117188 C 67.503906 69.75 69.746094 67.507812 72.113281 65.398438 L 79.136719 71.09375 C 81.039062 69.46875 83.027344 67.941406 85.085938 66.515625 L 81.402344 58.25 C 84.035156 56.511719 86.777344 54.917969 89.613281 53.484375 L 94.925781 60.804688 C 97.179688 59.726562 99.496094 58.761719 101.871094 57.914062 L 100.449219 48.972656 C 103.429688 47.980469 106.488281 47.152344 109.609375 46.507812 L 112.847656 54.964844 C 115.296875 54.507812 117.789062 54.179688 120.316406 53.980469 L 121.253906 44.980469 C 122.824219 44.886719 124.40625 44.839844 126 44.839844 C 127.589844 44.839844 129.171875 44.886719 130.742188 44.980469 Z M 126 61.183594 C 161.699219 61.183594 190.816406 90.300781 190.816406 126 C 190.816406 161.699219 161.699219 190.816406 126 190.816406 C 90.300781 190.816406 61.183594 161.699219 61.183594 126 C 61.183594 90.300781 90.300781 61.183594 126 61.183594 Z M 126 61.183594 "/>
<path style=" stroke:none;fill-rule:evenodd;fill:rgb(78.823529%,16.862745%,18.431373%);fill-opacity:1;" d="M 87.828125 109.617188 C 107.679688 109.617188 127 109.617188 146.828125 109.617188 L 148.183594 111.335938 C 148.183594 111.371094 148.183594 111.410156 148.183594 111.445312 C 148.183594 116.390625 148.183594 121.28125 148.183594 126.242188 C 143.585938 127.644531 140.359375 128.433594 139.714844 133.578125 C 139.195312 138.972656 142.683594 142.351562 145.878906 146.015625 C 146.996094 147.296875 148.5 148.277344 149.59375 149.695312 C 149.617188 149.730469 149.644531 149.722656 149.59375 149.722656 C 137.917969 149.621094 116.207031 149.707031 104.539062 149.730469 C 104.042969 149.234375 109.410156 146.730469 110.265625 145.710938 C 112.335938 142.070312 113.742188 136.5 111.96875 132.707031 C 111.726562 132.191406 110.445312 130.242188 109.957031 129.789062 C 107.652344 128.28125 105.367188 126.5625 102.738281 125.617188 C 102.898438 124.453125 103.332031 123.140625 103.632812 122.054688 C 104.570312 118.648438 105.160156 117.464844 106.109375 114.046875 C 106.613281 112.558594 102.894531 110.210938 101.871094 113.207031 C 100.453125 117.351562 99.128906 120.105469 97.621094 124.488281 C 95.515625 124.050781 95.058594 123.804688 92.835938 123.761719 C 92.402344 123.753906 91.214844 123.386719 90.820312 123.21875 C 89.773438 122.789062 89.183594 122.492188 88.71875 121.449219 C 88.628906 121.242188 88.394531 120.664062 88.390625 120.449219 C 88.335938 117.011719 87.800781 113.539062 87.828125 109.617188 Z M 87.828125 109.617188 "/>
<path style=" stroke:none;fill-rule:evenodd;fill:rgb(78.823529%,16.862745%,18.431373%);fill-opacity:1;" d="M 149.347656 110.40625 L 167.96875 110.40625 C 167.984375 110.363281 168 110.320312 168.011719 110.28125 C 168.136719 109.898438 168.21875 109.851562 168.609375 109.664062 C 168.953125 109.503906 169.820312 109.179688 170.1875 109.175781 C 170.625 109.167969 171.644531 109.25 172.320312 109.441406 C 172.640625 109.53125 172.789062 110.167969 172.996094 110.40625 L 176.660156 110.40625 L 176.660156 110.417969 C 176.351562 111.304688 176.300781 111.386719 175.285156 112.25 C 175.011719 112.480469 174.488281 112.730469 174.027344 112.9375 C 173.800781 113.039062 173.695312 112.992188 173.4375 113.195312 C 173.421875 113.207031 173.417969 113.292969 173.414062 113.394531 C 173.4375 113.980469 173.363281 114.550781 173.410156 115.078125 C 173.523438 116.484375 172.65625 117.707031 171.378906 117.957031 C 171.378906 118.953125 171.378906 120.691406 171.378906 122.109375 C 171.667969 122.125 171.957031 122.148438 172.25 122.183594 C 173.195312 122.703125 173.40625 123.21875 173.523438 123.972656 C 173.769531 125.546875 173.636719 127.566406 173.75 129.125 C 173.71875 130.503906 172.933594 131.351562 172.101562 131.769531 C 172.027344 131.804688 171.753906 131.832031 171.40625 131.84375 C 171.40625 133.210938 171.40625 134.582031 171.40625 135.953125 C 172.230469 135.996094 172.816406 136.167969 173.21875 137.015625 C 173.820312 138.292969 173.722656 142.351562 173.425781 143.902344 C 173.261719 144.769531 172.605469 145.296875 171.90625 145.558594 C 171.667969 145.679688 169.789062 145.726562 169.460938 145.636719 C 168.792969 145.445312 168.363281 145.195312 168.082031 144.8125 C 166.972656 143.304688 167.101562 137.964844 168.039062 136.703125 C 168.316406 136.328125 168.679688 136.085938 169.164062 136.027344 C 169.382812 136 169.605469 135.980469 169.828125 135.964844 C 169.828125 134.589844 169.828125 133.21875 169.828125 131.84375 C 169.558594 131.835938 169.34375 131.816406 169.261719 131.792969 C 168.589844 131.605469 168.164062 131.355469 167.882812 130.96875 C 167.597656 130.585938 167.347656 130.074219 167.355469 129.347656 C 167.375 127.9375 167.457031 126.046875 167.355469 124.550781 C 167.609375 123.238281 167.742188 122.71875 168.945312 122.210938 C 169.15625 122.183594 169.589844 122.136719 169.808594 122.125 L 169.808594 117.671875 C 169.78125 117.65625 169.75 117.640625 169.722656 117.625 C 169.632812 117.570312 169.753906 117.261719 169.667969 117.199219 C 169.617188 117.164062 169.523438 117.148438 169.425781 117.136719 C 169.425781 117.140625 169.425781 117.140625 169.421875 117.140625 C 169.417969 117.136719 169.414062 117.136719 169.40625 117.136719 C 169.378906 117.136719 169.011719 117.078125 169.011719 117.082031 C 169 117.25 169.082031 117.4375 168.945312 117.558594 C 168.917969 117.574219 168.890625 117.59375 168.863281 117.617188 C 168.597656 117.730469 167.933594 118.089844 167.128906 119.082031 C 167.046875 119.136719 166.96875 119.191406 166.882812 119.246094 C 164.449219 120.839844 161.847656 122.109375 159.488281 122.992188 C 158.933594 123.199219 158.367188 123.34375 157.816406 123.480469 C 154.988281 124.1875 152.589844 124.664062 151.117188 125.011719 C 150.207031 125.222656 149.5625 125.203125 149.347656 125.21875 Z M 171.40625 137.265625 C 171.40625 137.417969 171.40625 137.566406 171.40625 137.71875 C 171.40625 138.507812 169.828125 138.472656 169.828125 137.757812 C 169.828125 137.609375 169.828125 137.460938 169.828125 137.308594 C 169.628906 137.324219 169.449219 137.28125 169.3125 137.296875 C 168.433594 137.363281 168.269531 143.011719 169 144.085938 C 169.464844 144.601562 171.972656 144.796875 172.261719 143.8125 C 172.648438 142.507812 172.789062 137.894531 171.96875 137.300781 C 171.8125 137.28125 171.621094 137.269531 171.40625 137.265625 Z M 171.378906 123.425781 C 171.378906 123.480469 171.378906 123.53125 171.378906 123.582031 C 171.285156 124.28125 169.734375 124.253906 169.808594 123.621094 L 169.808594 123.46875 C 169.546875 123.417969 169.101562 123.429688 169.039062 123.511719 C 168.324219 124.003906 168.582031 127.601562 168.570312 128.390625 C 168.5625 128.824219 168.609375 130.035156 168.796875 130.246094 C 168.949219 130.410156 169.347656 130.542969 169.828125 130.613281 C 169.828125 130.597656 169.828125 130.585938 169.828125 130.570312 C 169.828125 129.570312 171.40625 129.402344 171.40625 130.566406 C 171.40625 130.578125 171.40625 130.59375 171.40625 130.605469 C 171.917969 130.511719 172.269531 130.3125 172.367188 129.96875 C 172.503906 129.507812 172.648438 128.90625 172.609375 128.285156 C 172.5625 127.480469 172.527344 126.421875 172.546875 125.691406 C 172.488281 124.910156 172.640625 123.945312 171.96875 123.460938 C 171.808594 123.441406 171.605469 123.425781 171.378906 123.425781 Z M 171.378906 123.425781 "/>
<path style=" stroke:none;fill-rule:evenodd;fill:rgb(78.823529%,16.862745%,18.431373%);fill-opacity:1;" d="M 103.417969 150.53125 C 118.910156 150.53125 134.40625 150.53125 149.910156 150.53125 C 150.96875 150.664062 151.109375 151.144531 151.433594 151.558594 C 151.433594 152.851562 151.433594 154.148438 151.433594 155.449219 C 151.1875 155.449219 150.933594 155.453125 150.683594 155.453125 C 150.320312 155.457031 149.828125 155.070312 149.464844 155.070312 C 134.328125 155.128906 119.972656 155.097656 104.847656 155.164062 C 104.601562 155.164062 103.703125 155.648438 103.457031 155.648438 C 103.074219 155.652344 102.6875 155.652344 102.304688 155.652344 C 102.285156 154.882812 101.824219 150.53125 103.417969 150.53125 Z M 103.417969 150.53125 "/>
<path style=" stroke:none;fill-rule:evenodd;fill:rgb(78.823529%,16.862745%,18.431373%);fill-opacity:1;" d="M 101.527344 102.671875 L 124.457031 102.671875 L 124.457031 108.394531 L 101.527344 108.394531 Z M 121.71875 103.3125 L 122.304688 103.3125 L 122.304688 107.753906 L 121.71875 107.753906 Z M 121.71875 103.3125 "/>
<path style=" stroke:none;fill-rule:evenodd;fill:rgb(78.823529%,16.862745%,18.431373%);fill-opacity:1;" d="M 101.527344 95.96875 L 124.457031 95.96875 L 124.457031 101.691406 L 101.527344 101.691406 Z M 121.71875 96.609375 L 122.304688 96.609375 L 122.304688 101.046875 L 121.71875 101.046875 Z M 121.71875 96.609375 "/>
<path style=" stroke:none;fill-rule:evenodd;fill:rgb(78.823529%,16.862745%,18.431373%);fill-opacity:1;" d="M 101.527344 89.265625 L 124.457031 89.265625 L 124.457031 94.984375 L 101.527344 94.984375 Z M 121.71875 89.90625 L 122.304688 89.90625 L 122.304688 94.347656 L 121.71875 94.347656 Z M 121.71875 89.90625 "/>
<path style=" stroke:none;fill-rule:evenodd;fill:rgb(78.823529%,16.862745%,18.431373%);fill-opacity:1;" d="M 132.789062 76.757812 L 132.789062 108.292969 L 125.960938 108.292969 C 125.960938 97.828125 125.960938 87.359375 125.960938 76.890625 C 125.960938 75.414062 132.15625 75.121094 132.789062 76.757812 Z M 132.789062 76.757812 "/>
<path style=" stroke:none;fill-rule:evenodd;fill:rgb(78.823529%,16.862745%,18.431373%);fill-opacity:1;" d="M 139.457031 78.851562 L 139.457031 108.292969 L 133.78125 108.292969 C 133.78125 98.519531 133.78125 88.75 133.78125 78.972656 C 133.78125 77.597656 138.933594 77.320312 139.457031 78.851562 Z M 139.457031 78.851562 "/>
<path style=" stroke:none;fill-rule:evenodd;fill:rgb(78.823529%,16.862745%,18.431373%);fill-opacity:1;" d="M 144.140625 83.242188 L 159.660156 107.324219 L 154.449219 110.6875 C 149.296875 102.691406 144.144531 94.699219 138.992188 86.703125 C 138.265625 85.578125 142.851562 82.300781 144.140625 83.242188 Z M 144.140625 83.242188 "/>
<path style=" stroke:none;fill-rule:evenodd;fill:rgb(78.823529%,16.862745%,18.431373%);fill-opacity:1;" d="M 76.605469 172.617188 L 174.902344 172.617188 C 174.488281 173.222656 174.0625 173.824219 173.632812 174.414062 C 173.378906 174.761719 173.121094 175.109375 172.863281 175.453125 C 172.796875 175.539062 172.734375 175.625 172.667969 175.710938 C 172.503906 175.925781 172.34375 176.136719 172.179688 176.347656 L 79.324219 176.347656 C 79.203125 176.1875 79.078125 176.027344 78.953125 175.863281 C 78.808594 175.671875 78.664062 175.480469 78.515625 175.285156 C 78.316406 175.019531 78.121094 174.753906 77.921875 174.480469 C 77.476562 173.867188 77.039062 173.246094 76.605469 172.617188 Z M 76.605469 172.617188 "/>
<path style=" stroke:none;fill-rule:evenodd;fill:rgb(78.823529%,16.862745%,18.431373%);fill-opacity:1;" d="M 121.128906 88.707031 C 118.875 88.707031 116.617188 88.621094 114.363281 88.589844 C 112.230469 88.589844 110.105469 88.589844 107.984375 88.589844 C 107.433594 88.175781 107.125 87.976562 106.949219 87.527344 C 106.910156 87.421875 106.878906 87.4375 106.996094 87.429688 C 115.75 86.675781 116.417969 86.640625 116.382812 86.464844 C 110.386719 86.269531 105 86.863281 99.402344 88.730469 C 98.207031 89.007812 96.960938 89.363281 95.71875 89.335938 C 96.273438 87.699219 97.074219 87.425781 97.222656 85.414062 C 104.007812 83.996094 110.492188 82.875 117.605469 83.328125 C 120.109375 79.34375 126.953125 81.953125 123.996094 87.183594 C 123.058594 88.28125 122.511719 88.335938 121.128906 88.707031 Z M 119.617188 87.125 C 119.867188 86.660156 120.484375 86.371094 120.773438 85.878906 C 120.941406 85.851562 121.105469 85.820312 121.269531 85.808594 C 121.105469 84.402344 121.035156 84.566406 120.539062 83.46875 C 123.304688 83.980469 122.832031 85.605469 121.277344 86.613281 C 120.566406 87.074219 120.285156 86.976562 119.617188 87.125 Z M 119.617188 87.125 "/>
<path style=" stroke:none;fill-rule:evenodd;fill:rgb(78.823529%,16.862745%,18.431373%);fill-opacity:1;" d="M 84.953125 162.109375 C 86.0625 159.101562 103.191406 112.5625 103.101562 112.605469 L 105.167969 113.539062 C 105.167969 113.539062 105.339844 113.4375 104.8125 115.136719 C 104.285156 116.835938 98.628906 132.597656 98.628906 132.597656 L 87.714844 163.15625 Z M 84.953125 162.109375 "/>
<path style=" stroke:none;fill-rule:evenodd;fill:rgb(78.823529%,16.862745%,18.431373%);fill-opacity:1;" d="M 88.09375 162.363281 C 89.695312 162.996094 91.214844 163.601562 92.398438 164.078125 C 92.417969 164.242188 92.433594 164.40625 92.453125 164.570312 C 92.621094 164.855469 92.644531 165.179688 92.898438 165.355469 C 93.316406 165.652344 93.9375 165.742188 93.800781 166.078125 C 92.980469 168.113281 92.15625 170.144531 91.332031 172.179688 C 91.226562 172.449219 90.632812 172.128906 90.097656 172.054688 C 89.851562 172.023438 89.664062 172.148438 89.457031 172.21875 C 89.304688 172.3125 89.148438 172.40625 88.996094 172.5 C 85.847656 171.226562 80.335938 169.074219 77.1875 167.800781 C 77.167969 167.65625 77.152344 167.511719 77.132812 167.367188 C 77.0625 167.203125 77.050781 166.921875 76.933594 166.8125 C 76.429688 166.332031 75.539062 166.414062 75.753906 165.878906 C 76.570312 163.867188 77.382812 161.851562 78.199219 159.839844 C 78.3125 159.554688 78.875 159.808594 79.421875 159.890625 C 79.667969 159.925781 79.917969 159.820312 80.109375 159.800781 C 80.253906 159.691406 80.449219 159.496094 80.59375 159.382812 C 81.886719 159.910156 83.582031 160.578125 85.347656 161.277344 Z M 88.09375 162.363281 "/>
<path style=" stroke:none;fill-rule:evenodd;fill:rgb(78.823529%,16.862745%,18.431373%);fill-opacity:1;" d="M 95.40625 156.207031 L 158.257812 156.207031 L 158.257812 170.976562 L 95.40625 170.976562 Z M 113.339844 158.445312 L 111.113281 158.445312 C 110.8125 159.96875 109.792969 160.726562 108.050781 160.726562 L 108.050781 162.785156 L 110.386719 162.785156 L 110.386719 168.628906 L 113.339844 168.628906 Z M 122.183594 166.683594 C 121.105469 166.828125 120.53125 166.4375 120.457031 165.511719 C 120.457031 164.660156 120.921875 164.234375 121.851562 164.234375 C 122.703125 164.269531 123.148438 164.699219 123.1875 165.511719 C 123.1875 166.21875 122.851562 166.605469 122.183594 166.683594 Z M 121.796875 162.621094 C 120.976562 162.582031 120.550781 162.230469 120.515625 161.558594 C 120.550781 160.859375 120.996094 160.484375 121.851562 160.449219 C 122.632812 160.484375 123.039062 160.859375 123.074219 161.558594 C 123.039062 162.230469 122.609375 162.582031 121.796875 162.621094 Z M 119.121094 163.398438 C 117.972656 163.84375 117.417969 164.585938 117.453125 165.625 C 117.527344 167.628906 118.996094 168.667969 121.851562 168.742188 C 124.597656 168.667969 126.023438 167.628906 126.132812 165.625 C 126.132812 164.546875 125.578125 163.769531 124.464844 163.285156 C 125.355469 162.953125 125.800781 162.265625 125.800781 161.226562 C 125.652344 159.484375 124.355469 158.558594 121.90625 158.445312 C 119.273438 158.558594 117.898438 159.5 117.789062 161.285156 C 117.75 162.25 118.199219 162.953125 119.121094 163.398438 Z M 132.035156 163.285156 C 131.253906 163.25 130.847656 162.804688 130.808594 161.949219 C 130.847656 161.058594 131.273438 160.597656 132.089844 160.5625 C 132.90625 160.636719 133.351562 161.058594 133.425781 161.839844 C 133.425781 162.730469 132.960938 163.214844 132.035156 163.285156 Z M 128.082031 166.183594 C 128.414062 167.886719 129.769531 168.742188 132.144531 168.742188 C 134.964844 168.667969 136.425781 166.980469 136.539062 163.675781 C 136.539062 160.191406 134.984375 158.445312 131.867188 158.445312 C 129.230469 158.519531 127.878906 159.707031 127.804688 162.007812 C 127.992188 164.046875 129.121094 165.121094 131.199219 165.234375 C 132.089844 165.273438 132.882812 165.027344 133.589844 164.515625 C 133.589844 166.03125 133.070312 166.792969 132.035156 166.792969 C 131.402344 166.792969 130.992188 166.53125 130.808594 166.011719 Z M 142.773438 164.011719 C 143.585938 164.046875 144.015625 164.496094 144.054688 165.34375 C 144.015625 166.238281 143.570312 166.699219 142.71875 166.738281 C 141.902344 166.664062 141.453125 166.21875 141.382812 165.402344 C 141.417969 164.472656 141.882812 164.011719 142.773438 164.011719 Z M 146.722656 161.117188 C 146.390625 159.335938 145.035156 158.445312 142.664062 158.445312 C 139.84375 158.558594 138.375 160.28125 138.265625 163.621094 C 138.265625 167.035156 139.84375 168.742188 142.996094 168.742188 C 145.589844 168.667969 146.929688 167.515625 147 165.289062 C 146.816406 163.25 145.683594 162.175781 143.605469 162.0625 C 142.71875 162.027344 141.9375 162.265625 141.269531 162.785156 C 141.234375 161.265625 141.734375 160.484375 142.773438 160.449219 C 143.402344 160.449219 143.8125 160.726562 143.996094 161.285156 Z M 146.722656 161.117188 "/>
<path style=" stroke:none;fill-rule:evenodd;fill:rgb(78.823529%,16.862745%,18.431373%);fill-opacity:1;" d="M 169.246094 22.574219 C 167.621094 21.914062 165.699219 21.429688 164.582031 22.90625 C 163.4375 24.726562 162.890625 26.414062 163.535156 26.972656 C 163.917969 27.402344 165.777344 28.390625 168.035156 29.46875 L 167.617188 30.390625 L 166.46875 29.839844 C 163.503906 28.921875 160.953125 30.597656 157.964844 33.871094 C 156.039062 34.765625 153.203125 33.308594 154.515625 31.65625 C 156.113281 31.304688 156.964844 30.6875 157.429688 29.464844 C 157.855469 27.292969 158.039062 25.140625 159.253906 24.421875 C 163.632812 22.910156 162.898438 20.167969 160.84375 18.328125 C 159.085938 17.023438 157.347656 16.835938 157.636719 18.503906 C 158.183594 20.140625 159.152344 22.09375 156.585938 21.8125 L 149.378906 19.660156 C 147.335938 18.953125 146.046875 21.761719 148.707031 22.964844 C 150.152344 23.527344 151.78125 23.613281 153.0625 23.8125 C 154.871094 23.964844 154.742188 25.703125 152.585938 25.359375 L 147.371094 24.910156 C 145.574219 24.808594 144.582031 27.484375 148.253906 27.789062 C 149.859375 27.917969 151.59375 27.527344 153.234375 27.117188 C 154.660156 27.101562 154.835938 28.222656 153.851562 28.9375 C 152.804688 29.519531 151.386719 29.617188 149.75 29.628906 C 147.722656 29.519531 146.097656 30.039062 146.289062 32.125 L 144.65625 36.472656 C 143.65625 39.109375 144.582031 40.433594 146.265625 40.140625 L 151.039062 41.253906 C 160.875 43.015625 166.527344 45.898438 170.226562 52.355469 C 171.367188 54.132812 174.09375 54.480469 173.957031 51.992188 C 173.644531 50.839844 173.007812 49.78125 172.082031 48.691406 C 173.917969 45.984375 175.464844 43.042969 176.351562 40.140625 C 177.644531 36 174.78125 34.292969 173.28125 33.09375 L 171.765625 32.371094 L 172.222656 31.378906 C 174.761719 32.496094 177.035156 33.402344 177.6875 33.535156 C 179.046875 33.839844 179.550781 32.382812 180.359375 30.050781 C 180.996094 28.195312 179.171875 27.25 176.261719 25.722656 Z M 170.667969 34.078125 C 170.121094 33.695312 169.871094 34.125 169.714844 34.808594 C 169.632812 35.417969 170.917969 36.140625 171.550781 36.324219 C 172.355469 35.578125 171.296875 34.640625 170.667969 34.078125 Z M 165.304688 32.023438 C 164.914062 32.0625 164.441406 32.058594 164.59375 32.929688 C 164.777344 33.4375 166.125 33.851562 166.367188 33.289062 C 166.664062 32.539062 166.105469 32.167969 165.304688 32.023438 Z M 168.824219 38.257812 C 168.746094 37.234375 170.429688 37.855469 171.191406 38.535156 C 171.613281 38.957031 172.464844 39.679688 172.289062 40.234375 C 171.585938 41.644531 169.113281 40.019531 168.824219 38.257812 Z M 162.820312 34.746094 C 162.367188 34.6875 161.972656 34.96875 161.898438 35.863281 C 161.960938 36.496094 164.003906 37.351562 164.78125 36.90625 C 166.273438 35.832031 163.558594 34.902344 162.820312 34.746094 Z M 167.085938 41.210938 C 165.964844 40.792969 164.679688 41.964844 164.988281 43.726562 C 165.359375 44.765625 167.515625 45.332031 168.613281 45.914062 C 169.613281 46.054688 170.523438 44.589844 170.355469 43.585938 C 169.859375 42.875 168.25 42.046875 167.085938 41.210938 Z M 158.878906 38.660156 C 157.902344 39.574219 158.265625 40.410156 159.207031 41.28125 C 159.9375 41.855469 161.050781 42.148438 162.007812 41.894531 C 162.765625 41.464844 163.183594 40.09375 162.851562 39.414062 C 162.390625 38.496094 160.117188 37.542969 158.878906 38.660156 Z M 154.339844 36.558594 C 153.398438 36.421875 152.800781 37 152.753906 37.929688 C 152.746094 38.871094 153.785156 39.492188 154.753906 39 C 155.664062 38.277344 155.875 37.0625 154.339844 36.558594 Z M 148.953125 33.882812 L 147.6875 37.214844 C 147.882812 38.242188 149.3125 38.1875 149.574219 37.507812 L 150.855469 34.199219 C 150.8125 32.984375 149.523438 32.867188 148.953125 33.882812 Z M 168.28125 24.949219 C 167.292969 24.679688 166.847656 25.644531 167.160156 26.527344 C 167.546875 27.113281 172.871094 29.183594 175.652344 30.371094 C 177.300781 30.152344 176.605469 28.710938 175.109375 28.03125 Z M 168.28125 24.949219 "/>
<path style=" stroke:none;fill-rule:evenodd;fill:rgb(78.823529%,16.862745%,18.431373%);fill-opacity:1;" d="M 69.617188 34.339844 C 65.027344 35.910156 65.367188 40.40625 70.75 37.121094 C 73.738281 35.253906 76.796875 33.492188 79.851562 31.953125 L 79.847656 31.960938 C 80.578125 32.28125 80.925781 32.929688 81.003906 33.617188 C 76.683594 37.207031 71.683594 42.476562 70.28125 51.511719 C 69.910156 54.121094 73.570312 56.414062 74.378906 52.199219 C 74.773438 44.90625 78.488281 39.777344 81.332031 36.90625 C 83.519531 35.242188 86.558594 33.328125 90.976562 33.921875 C 96.144531 34.085938 98.867188 37.019531 102.796875 39.847656 C 104.859375 40.652344 106.9375 38.429688 103.929688 35.449219 C 99.859375 31.71875 91.960938 29.628906 84.726562 31.386719 C 84.726562 31.386719 84.042969 30.488281 84.484375 29.808594 L 84.476562 29.808594 C 87.714844 28.445312 90.902344 27.40625 93.9375 26.835938 C 97.886719 26.554688 98.566406 22.855469 93.984375 23.011719 C 90.699219 23.015625 82.636719 29.925781 81.058594 25.527344 C 79.738281 21.875 75.167969 22.777344 78.1875 27.25 C 80.421875 30.441406 73.519531 32.039062 69.617188 34.339844 Z M 69.617188 34.339844 "/>
<path style=" stroke:none;fill-rule:evenodd;fill:rgb(78.823529%,16.862745%,18.431373%);fill-opacity:1;" d="M 21.925781 77.660156 C 22.144531 77.023438 23.085938 75.144531 23.660156 74.914062 C 24.503906 74.628906 25.492188 75.058594 24.363281 76.757812 C 22.457031 79.738281 24.207031 82.316406 25.078125 79.644531 C 25.6875 76.34375 27.980469 75.203125 27.535156 78.394531 C 27.121094 80.230469 27.683594 81.21875 28.414062 80.28125 C 28.820312 79.972656 29.113281 78.257812 29.773438 77.789062 C 31.667969 76.871094 31.652344 79.8125 30.199219 82.183594 C 29.125 84.511719 26.625 84.683594 23.605469 83.246094 C 20.945312 81.824219 21.238281 79.980469 21.925781 77.660156 Z M 47.011719 72.265625 C 46.867188 67.867188 50.941406 71.25 50.480469 73.121094 C 49.859375 75.835938 48.726562 78.300781 47.453125 80.128906 C 48.683594 81.726562 49.253906 83.617188 48.5625 85.582031 C 47.480469 87.972656 45.207031 88.351562 45.464844 86.597656 C 46.515625 84.015625 45.039062 83.273438 43.671875 84.5 C 42.714844 85.46875 41.726562 88.035156 39.472656 87.9375 C 36.667969 87.5625 39.164062 84.886719 39.996094 83.777344 L 40.429688 83.425781 C 39.933594 83.6875 39.234375 83.75 38.164062 83.34375 C 36.238281 82.359375 37.292969 79.425781 38.515625 76.933594 C 39.855469 74.21875 40.910156 72.167969 42.292969 71.859375 C 45.371094 71.828125 45.570312 74.308594 44.667969 76.464844 C 45.53125 80.007812 47.402344 74.890625 47.011719 72.265625 Z M 40.980469 82.980469 L 40.988281 82.972656 C 42.554688 83.027344 44.054688 80.632812 42.574219 80.429688 L 41.558594 82.136719 C 41.398438 82.390625 41.222656 82.707031 40.980469 82.980469 Z M 40.035156 77.570312 C 39.675781 78.554688 39.238281 79.574219 39.664062 79.980469 C 40.628906 80.738281 41.789062 78.75 42.570312 76.628906 C 43.085938 73.4375 41.203125 74.941406 40.035156 77.570312 Z M 34.894531 93.796875 C 37.582031 96.300781 38.777344 93.28125 36.386719 90.917969 C 32.238281 85.058594 35.175781 79.839844 37.535156 75.253906 C 40.242188 70.734375 44.265625 66.167969 49.558594 67.351562 C 54.050781 68.367188 54.191406 63.675781 50.367188 63.621094 C 44.613281 62.839844 41.449219 66.363281 37.6875 71.785156 L 36.875 71.25 L 38.933594 67.847656 C 39.550781 66.15625 40.015625 63.976562 37.292969 61.347656 C 35.609375 59.871094 33.734375 58.824219 32.109375 60.097656 C 30.710938 61.644531 29.824219 63.585938 29.101562 65.492188 C 29.101562 65.710938 29.128906 65.867188 29.1875 65.972656 L 28.617188 66.296875 C 28.171875 66.660156 27.335938 67.101562 27.246094 68.109375 C 27.40625 68.910156 27.769531 69.289062 27.5625 70.335938 L 26.253906 72.109375 C 25.421875 73.164062 25.667969 74.386719 26.867188 74.089844 C 27.871094 73.644531 28.417969 73.796875 28.820312 74.132812 L 29.15625 75.445312 C 29.308594 76.410156 29.679688 76.839844 31.058594 75.902344 C 31.839844 75.679688 33.214844 76.28125 34.023438 77.425781 C 30.871094 83.152344 30.023438 88.992188 34.894531 93.796875 Z M 36.472656 73.554688 L 35.523438 74.960938 C 35.277344 75.332031 35.035156 75.710938 34.800781 76.089844 C 32.792969 74.101562 35.234375 72.722656 36.472656 73.554688 Z M 35.523438 70.367188 C 34.875 71.105469 33.253906 71.570312 32.847656 70.121094 C 33 68.089844 31.8125 67.625 30.996094 69.21875 C 30.503906 69.84375 29.34375 69.4375 29.597656 68.066406 L 30.464844 65.703125 C 30.871094 65.4375 31.332031 65.105469 31.765625 64.863281 C 32.890625 62.496094 34.980469 62.019531 34.179688 64.671875 C 33.558594 66.191406 34.242188 68.082031 35.371094 66.714844 C 36.46875 65.304688 37.566406 65.65625 37.132812 67.101562 C 36.296875 68.492188 35.957031 69.378906 35.523438 70.367188 Z M 35.523438 70.367188 "/>
<path style=" stroke:none;fill-rule:evenodd;fill:rgb(78.823529%,16.862745%,18.431373%);fill-opacity:1;" d="M 224.882812 74.152344 C 228.863281 72.289062 227.027344 68.503906 222.632812 70.253906 C 220.375 70.355469 213.898438 64.890625 211.316406 62.515625 C 209.457031 60.261719 206.679688 61.730469 208.863281 64.230469 C 211.851562 67.375 216.035156 70.527344 220.128906 72.242188 C 221.445312 72.820312 222.304688 74.679688 221.949219 76.148438 C 221.292969 80.34375 222.253906 88.175781 222.964844 90.605469 C 223.476562 92.484375 226.882812 92.933594 226.113281 90.429688 C 224.625 85.128906 224.664062 75.441406 224.882812 74.152344 Z M 224.882812 74.152344 "/>
<path style=" stroke:none;fill-rule:evenodd;fill:rgb(78.823529%,16.862745%,18.431373%);fill-opacity:1;" d="M 215.300781 70.214844 C 212.636719 69.457031 210.730469 68.542969 208.339844 66.308594 C 206.402344 64.679688 204.257812 65.859375 206.539062 68.714844 C 209.207031 71.496094 213.09375 72.808594 215.882812 73.316406 C 217.855469 73.25 217.792969 70.925781 215.300781 70.214844 Z M 215.300781 70.214844 "/>
<path style=" stroke:none;fill-rule:evenodd;fill:rgb(78.823529%,16.862745%,18.431373%);fill-opacity:1;" d="M 221.183594 80.746094 C 220.328125 83.378906 220.03125 85.472656 220.558594 88.703125 C 220.835938 91.214844 218.664062 92.34375 217.554688 88.859375 C 216.730469 85.09375 217.804688 81.136719 218.929688 78.535156 C 220.078125 76.933594 221.980469 78.277344 221.183594 80.746094 Z M 221.183594 80.746094 "/>
<path style=" stroke:none;fill-rule:evenodd;fill:rgb(78.823529%,16.862745%,18.431373%);fill-opacity:1;" d="M 214.816406 73.09375 C 212.414062 77.378906 215.601562 80.382812 218.394531 79.894531 L 217.453125 83.601562 C 216.5625 82.453125 214.773438 80.28125 214.171875 83.746094 C 213.964844 87.898438 213.59375 93.582031 212.050781 96.128906 C 210.304688 98.394531 207.726562 97.242188 208.605469 94.65625 C 209.832031 90.59375 211.128906 86.738281 211.070312 81.90625 C 210.921875 80.355469 210.683594 78.5 207.9375 77.085938 C 204.734375 75.609375 201.503906 74.25 198.121094 72.902344 C 194.875 71.355469 196.765625 68.617188 198.769531 69.308594 C 202.132812 70.453125 205.386719 72.203125 208.015625 74.234375 C 210.851562 76.328125 210.941406 73.664062 211.222656 71.894531 Z M 214.816406 73.09375 "/>
<path style=" stroke:none;fill-rule:evenodd;fill:rgb(78.823529%,16.862745%,18.431373%);fill-opacity:1;" d="M 216.425781 70.089844 C 216.113281 70.429688 215.609375 70.320312 214.953125 70.113281 L 214.816406 73.09375 L 216.320312 73.257812 C 217.378906 72.949219 218.101562 72.261719 218.464844 71.46875 Z M 216.425781 70.089844 "/>
<path style=" stroke:none;fill-rule:evenodd;fill:rgb(78.823529%,16.862745%,18.431373%);fill-opacity:1;" d="M 221.878906 77.324219 C 221.207031 77.667969 219.679688 77.378906 218.929688 78.535156 L 221.035156 81.210938 C 221.449219 80.585938 221.457031 80.089844 221.925781 79.828125 Z M 221.878906 77.324219 "/>
</g>
</svg>
