<svg xmlns="http://www.w3.org/2000/svg" viewBox="0 0 434.54 434.54"><defs><style>.cls-1,.cls-6,.cls-8{fill:none;}.cls-1{stroke:#c6cfcd;}.cls-1,.cls-6{stroke-miterlimit:10;}.cls-2,.cls-3{fill:#c8b582;}.cls-3{font-size:107.56px;}.cls-3,.cls-5,.cls-9{font-family:AdobeSongStd-Light-GBpc-EUC-H, Adobe Song Std;}.cls-4{fill:#867990;}.cls-5{font-size:72px;fill:#c6cfcd;}.cls-6{stroke:#7d8b7a;stroke-width:0.5px;}.cls-7,.cls-9{fill:#905052;}.cls-7{opacity:0.45;}.cls-8{stroke:#c79665;stroke-linecap:round;stroke-linejoin:round;stroke-width:4px;stroke-dasharray:2.03 8.12;}.cls-9{font-size:125.49px;}.cls-10{fill:#7d8b7a;}.cls-11{fill:#7a8da0;}</style></defs><g id="图层_2" data-name="图层 2"><g id="图层_10" data-name="图层 10"><circle class="cls-1" cx="220.77" cy="218.77" r="73"/><circle class="cls-1" cx="220.77" cy="217.02" r="59"/></g><g id="图层_9" data-name="图层 9"><line class="cls-2" x1="261.86" y1="3.31" x2="249.13" y2="65.42"/><text class="cls-3" transform="matrix(0.98, 0.2, -0.2, 0.98, 182.24, 121.98)">＊</text><circle class="cls-4" cx="254.76" cy="32.66" r="11.37"/><circle class="cls-4" cx="157.42" cy="38.48" r="11.37"/><circle class="cls-4" cx="76.04" cy="92.18" r="11.37"/><circle class="cls-4" cx="32.41" cy="179.39" r="11.37"/><circle class="cls-4" cx="38.22" cy="276.73" r="11.37"/><circle class="cls-4" cx="91.93" cy="358.11" r="11.37"/><circle class="cls-4" cx="179.13" cy="401.74" r="11.37"/><circle class="cls-4" cx="276.47" cy="395.93" r="11.37"/><circle class="cls-4" cx="357.86" cy="342.22" r="11.37"/><circle class="cls-4" cx="401.49" cy="255.02" r="11.37"/><circle class="cls-4" cx="395.67" cy="157.68" r="11.37"/><circle class="cls-4" cx="341.96" cy="76.29" r="11.37"/><text class="cls-5" transform="matrix(0.98, 0.2, -0.2, 0.98, 174.34, 245.77)">＊</text><circle class="cls-6" cx="288.86" cy="131.33" r="28"/><circle class="cls-6" cx="180.24" cy="113.93" r="28"/><circle class="cls-6" cx="110.86" cy="199.3" r="28"/><circle class="cls-6" cx="150.1" cy="302.07" r="28"/><circle class="cls-6" cx="258.72" cy="319.47" r="28"/><circle class="cls-6" cx="328.1" cy="234.1" r="28"/><circle class="cls-7" cx="153.4" cy="238.39" r="14.5"/><circle class="cls-8" cx="153.4" cy="238.39" r="48.5" transform="translate(-123.64 178.29) rotate(-45)"/><circle class="cls-7" cx="269" cy="262.89" r="14.5"/><circle class="cls-8" cx="269" cy="262.89" r="48.5" transform="translate(-91.72 156.34) rotate(-27.89)"/><circle class="cls-7" cx="232.41" cy="150.53" r="14.5"/><circle class="cls-8" cx="232.41" cy="150.53" r="48.5" transform="matrix(0.82, -0.57, 0.57, 0.82, -44.35, 159.21)"/><text class="cls-9" transform="matrix(0.67, 0.74, -0.74, 0.67, 126.82, 212.99)">＊</text><line class="cls-2" x1="172.68" y1="431.23" x2="185.41" y2="369.12"/><text class="cls-3" transform="matrix(-0.98, -0.2, 0.2, -0.98, 252.3, 312.56)">＊</text><line class="cls-2" x1="240.98" y1="434.54" x2="233.89" y2="371.53"/><text class="cls-3" transform="translate(280.03 297.07) rotate(173.58)">＊</text><line class="cls-2" x1="306.96" y1="416.58" x2="280.75" y2="358.85"/><text class="cls-3" transform="translate(301.62 273.77) rotate(155.58)">＊</text><line class="cls-2" x1="364.16" y1="379.11" x2="321.39" y2="332.3"/><text class="cls-3" transform="matrix(-0.74, 0.67, -0.67, -0.74, 314.95, 244.94)">＊</text><line class="cls-2" x1="406.98" y1="325.79" x2="351.84" y2="294.49"/><text class="cls-3" transform="matrix(-0.49, 0.87, -0.87, -0.49, 318.72, 213.4)">＊</text><line class="cls-2" x1="431.23" y1="261.86" x2="369.12" y2="249.13"/><text class="cls-3" transform="matrix(-0.2, 0.98, -0.98, -0.2, 312.56, 182.24)">＊</text><line class="cls-2" x1="434.54" y1="193.56" x2="371.53" y2="200.65"/><text class="cls-3" transform="translate(297.07 154.5) rotate(83.58)">＊</text><line class="cls-2" x1="416.58" y1="127.58" x2="358.85" y2="153.79"/><text class="cls-3" transform="translate(273.77 132.91) rotate(65.58)">＊</text><line class="cls-2" x1="379.11" y1="70.38" x2="332.3" y2="113.15"/><text class="cls-3" transform="matrix(0.67, 0.74, -0.74, 0.67, 244.94, 119.58)">＊</text><line class="cls-2" x1="325.79" y1="27.56" x2="294.49" y2="82.7"/><text class="cls-3" transform="translate(213.4 115.81) rotate(29.58)">＊</text><line class="cls-2" x1="193.56" x2="200.65" y2="63"/><text class="cls-3" transform="translate(154.5 137.47) rotate(-6.42)">＊</text><line class="cls-2" x1="127.58" y1="17.96" x2="153.79" y2="75.69"/><text class="cls-3" transform="translate(132.91 160.77) rotate(-24.42)">＊</text><line class="cls-2" x1="70.38" y1="55.43" x2="113.15" y2="102.24"/><text class="cls-3" transform="matrix(0.74, -0.67, 0.67, 0.74, 119.58, 189.6)">＊</text><line class="cls-2" x1="27.56" y1="108.75" x2="82.7" y2="140.04"/><text class="cls-3" transform="matrix(0.49, -0.87, 0.87, 0.49, 115.81, 221.14)">＊</text><line class="cls-2" x1="3.31" y1="172.68" x2="65.42" y2="185.41"/><text class="cls-3" transform="matrix(0.2, -0.98, 0.98, 0.2, 121.97, 252.3)">＊</text><line class="cls-2" y1="240.98" x2="63" y2="233.89"/><text class="cls-3" transform="translate(137.46 280.04) rotate(-96.42)">＊</text><line class="cls-2" x1="17.96" y1="306.96" x2="75.69" y2="280.75"/><text class="cls-3" transform="translate(160.77 301.63) rotate(-114.42)">＊</text><line class="cls-2" x1="55.43" y1="364.16" x2="102.24" y2="321.39"/><text class="cls-3" transform="matrix(-0.67, -0.74, 0.74, -0.67, 189.6, 314.96)">＊</text><line class="cls-2" x1="108.75" y1="406.98" x2="140.04" y2="351.84"/><text class="cls-3" transform="translate(221.14 318.73) rotate(-150.42)">＊</text><path class="cls-10" d="M298,241.11l1.39-4.5,25.38,7.81-1.38,4.5Zm11.58,15-4.19-1.29,7.81-25.39,4.19,1.29Z"/><path class="cls-10" d="M287.38,172l-2.55-4,22.3-14.42,2.56,4Zm18.93.77-3.68,2.38-14.43-22.3,3.68-2.39Z"/><path class="cls-10" d="M240.44,121.72l-.54,4.35-26.36-3.28.54-4.35Zm-12.75,14-4.68-.58,3.29-26.36,4.67.59Z"/><path class="cls-10" d="M158.93,139.33l3,3.21-19.46,18.08-3-3.21Zm2.53,18.77L158,161.31l-18.08-19.46,3.45-3.21Z"/><path class="cls-10" d="M136.06,223.22l.24,4.71-26.53,1.34-.24-4.71Zm-16-10.13,4.37-.22,1.34,26.53-4.37.22Z"/><path class="cls-10" d="M151.57,290.28l2.65-3.5,21.18,16-2.64,3.49Zm18.05-5.75,3.76,2.84-16,21.19-3.75-2.84Z"/><path class="cls-10" d="M298,241.11l1.39-4.5,25.38,7.81-1.38,4.5Zm11.58,15-4.19-1.29,7.81-25.39,4.19,1.29Z"/><path class="cls-10" d="M287.38,172l-2.55-4,22.3-14.42,2.56,4Zm18.93.77-3.68,2.38-14.43-22.3,3.68-2.39Z"/><path class="cls-10" d="M240.44,121.72l-.54,4.35-26.36-3.28.54-4.35Zm-12.75,14-4.68-.58,3.29-26.36,4.67.59Z"/><path class="cls-10" d="M158.93,139.33l3,3.21-19.46,18.08-3-3.21Zm2.53,18.77L158,161.31l-18.08-19.46,3.45-3.21Z"/><path class="cls-10" d="M136.06,223.22l.24,4.71-26.53,1.34-.24-4.71Zm-16-10.13,4.37-.22,1.34,26.53-4.37.22Z"/><path class="cls-10" d="M151.57,290.28l2.65-3.5,21.18,16-2.64,3.49Zm18.05-5.75,3.76,2.84-16,21.19-3.75-2.84Z"/><path class="cls-10" d="M231,315.75l-1-4.27,25.89-5.93,1,4.28Zm7.19-17.52,4.59-1.05,5.93,25.89-4.59,1.06Z"/><circle class="cls-11" cx="200.27" cy="161.27" r="3.5"/><circle class="cls-11" cx="166.65" cy="190.11" r="3.5"/><circle class="cls-11" cx="163.27" cy="234.27" r="3.5"/><circle class="cls-11" cx="192.11" cy="267.89" r="3.5"/><circle class="cls-11" cx="236.27" cy="271.27" r="3.5"/><circle class="cls-11" cx="269.89" cy="242.43" r="3.5"/><circle class="cls-11" cx="273.27" cy="198.27" r="3.5"/><circle class="cls-11" cx="244.43" cy="164.65" r="3.5"/></g></g></svg>