<svg xmlns="http://www.w3.org/2000/svg" xmlns:xlink="http://www.w3.org/1999/xlink" viewBox="0 0 612.9 569.16"><defs><style>.cls-1,.cls-10{fill:none;}.cls-2,.cls-6{opacity:0.11;}.cls-3{fill:url(#未命名的渐变_6);}.cls-11,.cls-4{opacity:0.5;font-family:WenYue-GuDianMingChaoTi-NC-W5-GBpc-EUC-H, "WenYue GuDianMingChaoTi (Non-Commercial Use)";}.cls-4{font-size:26.47px;}.cls-5{clip-path:url(#clip-path);}.cls-12,.cls-13,.cls-14,.cls-6,.cls-8{fill:#c8b582;}.cls-10,.cls-7{opacity:0.78;}.cls-9{opacity:0.43;}.cls-10{stroke:#c8b582;stroke-linecap:round;stroke-linejoin:round;stroke-width:0.5px;}.cls-11{font-size:11px;}.cls-12{font-size:51.41px;}.cls-12,.cls-13,.cls-14{font-family:AdobeSongStd-Light-GBpc-EUC-H, Adobe Song Std;}.cls-13{font-size:42.78px;}.cls-14{font-size:30.51px;}</style><linearGradient id="未命名的渐变_6" x1="233.67" y1="38.68" x2="230.76" y2="598.1" gradientUnits="userSpaceOnUse"><stop offset="0" stop-color="#ddb87a" stop-opacity="0"/><stop offset="0.86" stop-color="#d9b06b" stop-opacity="0.9"/></linearGradient><clipPath id="clip-path" transform="translate(0 30.6)"><circle class="cls-1" cx="232.5" cy="232.5" r="232.5"/></clipPath></defs><g id="图层_2" data-name="图层 2"><g id="图层_6" data-name="图层 6"><g class="cls-2"><circle class="cls-3" cx="232.5" cy="263.1" r="232.5"/></g><text class="cls-4" transform="translate(219.14 319.2) rotate(12.95) scale(0.98 1)">中</text><text class="cls-4" transform="matrix(0.98, 0.1, -0.1, 0.99, 245.96, 325.14)">国</text><text class="cls-4" transform="matrix(0.98, 0.04, -0.04, 1, 272.33, 327.78)">高</text><text class="cls-4" transform="translate(298.3 328.8) rotate(1.94) scale(0.98 1)">校</text><text class="cls-4" transform="translate(324.14 329.53) rotate(4.44) scale(0.98 1)">历</text><text class="cls-4" transform="matrix(0.97, 0.16, -0.17, 0.99, 349.73, 331.42)">史</text><text class="cls-4" transform="translate(374.9 335.55) rotate(17.28) scale(0.98 1)">沿</text><text class="cls-4" transform="matrix(0.87, 0.46, -0.47, 0.88, 399.11, 342.89)">革</text><g class="cls-5"><path class="cls-6" d="M593.56,323.66a53.63,53.63,0,0,1,4.61,30.27c-1.63,11.42-6.9,21.87-12.3,31.95Q573,410,558.54,433.07c-8.23,13.18-16.92,26.24-28.07,36.85-20.14,19.18-46.86,29.1-73.35,36.34a500.64,500.64,0,0,1-204,12.38c-12.89-1.89-26-4.36-37.49-10.65-17.69-9.63-30.57-27.52-49-35.46l-.48-.52C174,448.66,182.79,423.9,202,409.23c7.86-6,17.13-10,24.37-16.82s12.15-18,7.94-27.16S219.17,353,209.6,350.91L138,335.42c-22.36-4.84-45.75-10.18-63.23-25.51-2.52-2.2-5-5-5.16-8.37-.18-5.57,5.75-8.73,10-12,12.6-9.71,13.71-31.71,2.16-42.92-8-7.71-19.45-9.8-29-15.29-14.21-8.22-23.53-24.44-24.83-41.21s5-33.72,16-46c22.49-25.09,59-28.61,92.11-30.54l177-10.33c7-.41,15.91-2.41,17.13-9.6.53-3.17-.75-6.35-.92-9.56-.7-12.88,14.6-19.11,26.8-21.5l41.5-8.13c4.4-.86,8.94-1.78,12.57-4.46,10.48-7.73,7.57-25.44-.91-35.57S388.58-1.72,379.62-11.41l1.95.63A31.87,31.87,0,0,1,409.2-2.89c5.32,5,8.91,11.56,13.68,17.09s11.54,10.19,18.58,9.07l-2-1.24a105.42,105.42,0,0,1,30.95,23.1c1.71,1.85,3.42,3.88,4,6.38,1.38,6.33-5.05,11.33-10.83,13.77-22.18,9.41-47,8.92-70.68,13-7.16,1.22-14.47,3-20.3,7.39s-9.86,12.17-8.13,19.49c.71,3,2.24,6.3.61,8.82-1,1.55-2.88,2.17-4.62,2.66a240.3,240.3,0,0,1-66.37,9c-18.5-.08-37-2.3-55.46-2a205.17,205.17,0,0,0-78,16.79c-12.74,5.51-26.88,15.88-25.08,30.11,1.83,14.4,18.24,20.71,31.88,24l118.62,28.9c.48,4.89-4.05,8.45-7.66,11.61s-6.85,8.85-3.75,12.6c1.76,2.12,4.76,2.44,7.44,2.56,48.35,2.24,98.45-7.79,144.18,9,6.88,2.52,14.79,7.63,14,15.13-.26,2.56-1.57,4.89-1.87,7.44-.63,5.4,3.55,10.42,8.42,12.49s10.3,1.89,15.55,1.84a269.44,269.44,0,0,1,129.08,32" transform="translate(0 30.6)"/><path class="cls-6" d="M560.57,331.23a59,59,0,0,1,4.72,31.6c-1.54,11.91-6.68,22.78-11.95,33.26q-12.58,25-26.69,49.08c-8,13.7-16.55,27.27-27.49,38.28-19.76,19.89-46.07,30.08-72.17,37.48a467.23,467.23,0,0,1-201.23,11.72c-12.72-2-25.63-4.7-37-11.32-17.52-10.15-30.33-28.89-48.58-37.28l-.48-.54c7.61-24.31,16.17-50.09,35-65.29,7.72-6.23,16.84-10.35,23.94-17.4s11.89-18.66,7.68-28.29-15-12.89-24.41-15.1l-70.71-16.58c-22.1-5.18-45.21-10.89-62.55-27-2.5-2.31-5-5.21-5.14-8.76-.21-5.82,5.63-9.07,9.85-12.5,12.38-10.06,13.34-33,1.88-44.76-7.9-8.1-19.25-10.34-28.67-16.13C12.43,223.07,3.15,206.1,1.76,188.59A67.27,67.27,0,0,1,17.32,140.7c22-26,58.08-29.5,90.72-31.32L282.6,99.64c6.95-.39,15.7-2.42,16.85-9.92.51-3.3-.77-6.63-1-10-.77-13.44,14.3-19.85,26.32-22.27l40.91-8.24c4.33-.87,8.81-1.81,12.38-4.59,10.29-8,7.32-26.49-1.12-37.11s-20.57-16.94-29.47-27.1l1.93.68a30.56,30.56,0,0,1,27.31,8.39C382-5.31,385.61,1.61,390.34,7.41S401.8,18.1,408.73,17l-2-1.31A106.2,106.2,0,0,1,437.38,40c1.7,1.94,3.39,4.07,3.95,6.67,1.4,6.62-4.93,11.79-10.61,14.31C408.88,70.62,384.39,70,361,74c-7.05,1.23-14.25,3-20,7.59s-9.65,12.64-7.9,20.29c.7,3.09,2.23,6.57.64,9.2-1,1.61-2.83,2.24-4.54,2.75a224.83,224.83,0,0,1-65.44,9c-18.25-.2-36.49-2.62-54.74-2.43a191.89,191.89,0,0,0-76.89,17.07c-12.54,5.66-26.43,16.41-24.57,31.26,1.89,15,18.12,21.72,31.6,25.26L256.43,224.9c.51,5.11-3.94,8.8-7.49,12.07s-6.7,9.2-3.62,13.12c1.74,2.23,4.7,2.57,7.35,2.72C300.4,255.42,349.78,245.25,395,263c6.8,2.66,14.64,8,13.92,15.86-.25,2.67-1.52,5.1-1.8,7.76-.59,5.63,3.56,10.89,8.38,13.07s10.18,2,15.36,2c44-.17,88.2,11.65,127.55,34.08" transform="translate(0 30.6)"/><g class="cls-7"><path class="cls-8" d="M607.71,320.39a59.07,59.07,0,0,1,4.37,34,79.33,79.33,0,0,1-5,16.65c-2.2,5.37-4.79,10.57-7.4,15.74q-7.85,15.54-16.31,30.75-4.23,7.59-8.61,15.11c-2.93,5-5.9,10-9,14.88-6.25,9.75-13.14,19.22-21.62,27.17a111.07,111.07,0,0,1-13.51,11,139.7,139.7,0,0,1-15,8.86,204.52,204.52,0,0,1-32.3,12.87q-4.15,1.29-8.33,2.49c-2.8.79-5.6,1.52-8.4,2.28l-4.2,1.13c-1.41.37-2.82.68-4.23,1l-8.46,2a470.88,470.88,0,0,1-138.35,10.1l-8.66-.78-4.34-.39-4.32-.51-8.64-1-8.61-1.26c-5.74-.81-11.47-1.79-17.13-3.06a94.59,94.59,0,0,1-16.6-5.21,67.28,67.28,0,0,1-7.77-3.92,79.86,79.86,0,0,1-7.21-4.87c-4.64-3.5-9-7.39-13.24-11.3s-8.54-7.85-13.07-11.47a73.29,73.29,0,0,0-14.59-9.35l0,0-.48-.54a.1.1,0,0,1,0-.1c3.12-9.92,6.28-19.85,10.33-29.45s9-18.87,15.63-26.91A64.59,64.59,0,0,1,224,405.56c4.19-3.1,8.68-5.75,13-8.68s8.43-6.16,11.58-10.29a30.42,30.42,0,0,0,6.11-14.1,20.73,20.73,0,0,0-.34-7.69,18.62,18.62,0,0,0-3.32-6.93c-3.17-4.14-7.91-6.73-12.75-8.49s-10-2.79-15.05-4L208,341.81,177.6,334.7c-10.13-2.4-20.27-4.68-30.37-7.19s-20.11-5.52-29.58-9.9a91.72,91.72,0,0,1-13.57-7.71l-1.61-1.11-1.55-1.2c-1-.8-2.07-1.57-3-2.45a31.81,31.81,0,0,1-5.49-5.57,10.59,10.59,0,0,1-1.7-3.55,8.21,8.21,0,0,1,0-3.94c.62-2.63,2.52-4.67,4.48-6.35,1-.85,2-1.64,3.07-2.43a28.44,28.44,0,0,0,3-2.46c.47-.44,1-.86,1.41-1.33l1.24-1.49c.2-.25.42-.49.61-.75l.53-.81,1.05-1.62A34,34,0,0,0,110.15,260a35.09,35.09,0,0,0-2.79-15.14,28,28,0,0,0-9.88-11.69c-4.27-2.95-9.08-5-13.83-7.08s-9.53-4.32-13.66-7.54a49.3,49.3,0,0,1-10.75-11.3,60.36,60.36,0,0,1-10.49-29.12,66.29,66.29,0,0,1,4.85-30.62,65.56,65.56,0,0,1,7.53-13.68l1.15-1.58,1.22-1.53c.79-1,1.72-2,2.6-2.92s1.76-1.93,2.67-2.86l2.91-2.61L73.14,121c.51-.4,1-.78,1.56-1.18l3.13-2.35c1.07-.74,2.19-1.4,3.29-2.1a38,38,0,0,1,3.36-2L88,111.6c1.14-.62,2.37-1.08,3.55-1.62,2.36-1.12,4.83-2,7.28-2.86,1.21-.48,2.47-.81,3.72-1.2s2.48-.77,3.74-1.11l3.79-.94,1.9-.47,1.91-.39,3.83-.78,3.85-.65c2.57-.46,5.15-.76,7.73-1.11,10.33-1.3,20.74-1.85,31.12-2.44l124.63-7,31.15-1.73c5.19-.31,10.4-.53,15.57-.92a28.38,28.38,0,0,0,7.52-1.68,11.68,11.68,0,0,0,5.93-4.6,9.16,9.16,0,0,0,1.23-3.56,14.09,14.09,0,0,0-.14-3.83c-.36-2.54-1.09-5.12-.83-7.78a15.68,15.68,0,0,1,2.42-7.44c.38-.53.71-1.11,1.14-1.61l1.31-1.48,1.45-1.33c.48-.44,1-.81,1.55-1.21a44,44,0,0,1,14.22-6.42c2.51-.7,5.08-1.18,7.63-1.7l7.64-1.54,30.6-6.15a43.17,43.17,0,0,0,7.47-2,17.86,17.86,0,0,0,3.41-1.79c.27-.17.52-.37.78-.56s.48-.43.72-.64l.71-.65a3.93,3.93,0,0,0,.66-.69A16.47,16.47,0,0,0,430.7,25a23.07,23.07,0,0,0,.73-3.79l.12-1.93c.05-.64,0-1.29,0-1.93a32.46,32.46,0,0,0-1.21-7.64C430,8.4,429.54,7.2,429.13,6s-1-2.4-1.61-3.53a37.23,37.23,0,0,0-1.93-3.35A36.89,36.89,0,0,0,423.26-4a57,57,0,0,0-5.35-5.64c-7.56-7.09-16.49-12.72-23.41-20.61a.21.21,0,0,1,0-.29.21.21,0,0,1,.2,0l1.93.67h-.11a29.08,29.08,0,0,1,9.26-.38,31.83,31.83,0,0,1,8.92,2.48,32.65,32.65,0,0,1,7.82,5,42.58,42.58,0,0,1,6.2,6.88c3.7,4.94,6.76,10.35,11,14.79A27.73,27.73,0,0,0,447,4.36,14.66,14.66,0,0,0,455.85,6l-.07.34-2-1.31a.19.19,0,0,1-.06-.26.19.19,0,0,1,.25-.06A106.29,106.29,0,0,1,483.6,27.82a41,41,0,0,1,3,3.64,11.67,11.67,0,0,1,2,4.31,9.06,9.06,0,0,1-.28,4.76,12.3,12.3,0,0,1-2.43,4.09,23.06,23.06,0,0,1-7.69,5.49c-1.44.63-2.91,1.21-4.37,1.82l-4.46,1.57c-12,3.88-24.63,5.38-37.12,6.75-6.25.69-12.51,1.35-18.74,2.26s-12.48,1.89-18.28,4.32a28.74,28.74,0,0,0-7.95,4.92,22.93,22.93,0,0,0-5.48,7.53,19.27,19.27,0,0,0-1.78,9.09A21.24,21.24,0,0,0,381,93a17.57,17.57,0,0,1,.85,4.67,4.94,4.94,0,0,1-2.12,4.16,15.35,15.35,0,0,1-4.43,1.71c-3,.86-6.07,1.68-9.13,2.41-6.13,1.47-12.31,2.72-18.53,3.67a225,225,0,0,1-37.66,2.59c-12.6-.18-25.14-1.4-37.71-2a205.25,205.25,0,0,0-37.67,1.1,192.64,192.64,0,0,0-36.74,8.35q-9,3-17.58,6.84a58.76,58.76,0,0,0-15.9,10,34.59,34.59,0,0,0-6.08,7.14,22.17,22.17,0,0,0-3.31,8.72,21.61,21.61,0,0,0,5.32,17.4c4.23,4.68,9.9,7.77,15.7,10.11s12,3.74,18.07,5.37l36.52,9.62,73,19.23a.06.06,0,0,1,.06.06,9,9,0,0,1-1.47,5.65,23.44,23.44,0,0,1-3.86,4.46,36.22,36.22,0,0,0-4.14,4.17,14.55,14.55,0,0,0-2.64,5.2,6.53,6.53,0,0,0,.9,5.57,7.35,7.35,0,0,0,5.07,2.59c1.94.27,3.92.25,5.88.35l5.89.22c15.73.33,31.46-.34,47.19-.71q11.79-.31,23.6-.13c7.86.24,15.73.56,23.54,1.53,3.92.36,7.79,1.08,11.68,1.69,1.94.3,3.85.8,5.78,1.19s3.86.77,5.74,1.35l5.68,1.6a27.88,27.88,0,0,1,2.81.91l2.78,1,2.78,1c.93.31,1.85.67,2.75,1.07a32.87,32.87,0,0,1,5.17,2.84,21.27,21.27,0,0,1,4.4,3.91,12.48,12.48,0,0,1,2.68,5.21,11.57,11.57,0,0,1-.25,5.84,26.41,26.41,0,0,0-1.34,5.72c-.24,4,1.87,7.76,4.84,10.28s6.95,3.73,10.83,4.1,7.86.13,11.79.26,7.87.22,11.8.4c2,.1,3.92.3,5.88.45s3.92.31,5.87.56l5.86.67,5.84.87A261.13,261.13,0,0,1,605.55,325,261.2,261.2,0,0,0,517,293.87l-5.83-.86-5.86-.67c-1.95-.25-3.91-.41-5.87-.56s-3.92-.35-5.89-.44c-3.92-.19-7.85-.4-11.79-.4s-7.87.11-11.79-.26-7.88-1.47-10.87-4.1a13,13,0,0,1-4.86-10.33,26.32,26.32,0,0,1,1.34-5.74,11.56,11.56,0,0,0,.25-5.81,12.7,12.7,0,0,0-2.67-5.18,21.41,21.41,0,0,0-4.39-3.89,32.72,32.72,0,0,0-5.16-2.83c-.9-.4-1.81-.76-2.75-1.07l-2.78-1-2.78-1c-.92-.33-1.85-.67-2.8-.91l-5.68-1.59c-1.88-.58-3.82-.92-5.74-1.35s-3.83-.89-5.78-1.19c-3.88-.6-7.75-1.32-11.67-1.68-7.81-1-15.68-1.28-23.53-1.52s-15.74-.07-23.6.14c-15.72.37-31.45,1.05-47.19.73l-5.9-.22c-2-.1-3.93-.08-5.89-.35a7.44,7.44,0,0,1-5.15-2.64,6.65,6.65,0,0,1-.93-5.68,14.42,14.42,0,0,1,2.66-5.25,35.71,35.71,0,0,1,4.15-4.19,22.87,22.87,0,0,0,3.84-4.44,8.78,8.78,0,0,0,1.44-5.56l.06.07-73.05-19.21L194,185.33c-6.08-1.62-12.24-3-18.1-5.37s-11.52-5.44-15.78-10.16a21.73,21.73,0,0,1-5.37-17.56,22.39,22.39,0,0,1,3.33-8.81,34.44,34.44,0,0,1,6.12-7.18,59.1,59.1,0,0,1,15.95-10q8.63-3.86,17.59-6.85A192.42,192.42,0,0,1,234.52,111a205.83,205.83,0,0,1,37.72-1.12c12.57.63,25.11,1.84,37.7,2a224.25,224.25,0,0,0,37.6-2.61c6.22-1,12.39-2.19,18.51-3.67,3.06-.73,6.09-1.55,9.12-2.41a15.1,15.1,0,0,0,4.34-1.67,4.59,4.59,0,0,0,2-3.91,17.74,17.74,0,0,0-.83-4.59,21,21,0,0,1-.89-4.66,19.5,19.5,0,0,1,1.8-9.24,23.28,23.28,0,0,1,5.55-7.64,29,29,0,0,1,8-5c5.86-2.46,12.16-3.4,18.37-4.35s12.49-1.58,18.75-2.27c12.48-1.38,25.06-2.88,37.05-6.75l4.44-1.57c1.45-.6,2.91-1.18,4.35-1.81a22.72,22.72,0,0,0,7.56-5.4,11.93,11.93,0,0,0,2.36-4,8.62,8.62,0,0,0,.27-4.56,11.14,11.14,0,0,0-2-4.18,38.13,38.13,0,0,0-3-3.61A106.1,106.1,0,0,0,453.76,5l.19-.32L456,6a.19.19,0,0,1-.07.35,15.06,15.06,0,0,1-9.06-1.63,27.86,27.86,0,0,1-7.37-5.6c-4.31-4.49-7.37-9.91-11.05-14.82a42.43,42.43,0,0,0-6.15-6.82,32.3,32.3,0,0,0-7.72-4.91,31.05,31.05,0,0,0-8.81-2.45,29.15,29.15,0,0,0-9.13.37.2.2,0,0,1-.11,0l-1.92-.68.22-.32c6.86,7.83,15.78,13.45,23.39,20.58a59,59,0,0,1,5.39,5.67c.86,1,1.59,2.07,2.35,3.13a38.36,38.36,0,0,1,2,3.4c.64,1.14,1.09,2.37,1.62,3.57s.91,2.45,1.21,3.73A32.64,32.64,0,0,1,432,17.28c0,.66.07,1.31,0,2l-.12,2a24.34,24.34,0,0,1-.74,3.86A16.84,16.84,0,0,1,427.46,32a3.76,3.76,0,0,1-.67.71l-.74.67c-.24.22-.48.45-.73.66s-.53.4-.8.58A20.36,20.36,0,0,1,421,36.44a43.38,43.38,0,0,1-7.56,2.06l-30.59,6.17-7.64,1.54c-2.55.52-5.1,1-7.6,1.69a43.77,43.77,0,0,0-14.07,6.35c-.5.4-1,.76-1.52,1.19l-1.42,1.31-1.27,1.45c-.42.48-.74,1-1.12,1.56A15.38,15.38,0,0,0,345.9,67c-.25,2.57.46,5.1.83,7.69a14.43,14.43,0,0,1,.14,3.94,9.68,9.68,0,0,1-1.29,3.76,12.12,12.12,0,0,1-6.16,4.79,28.94,28.94,0,0,1-7.65,1.72c-5.21.4-10.39.61-15.59.93L285,91.55,160.39,98.48c-10.38.59-20.77,1.13-31.09,2.43-2.57.35-5.15.65-7.71,1.1l-3.84.65-3.82.77-1.91.39-1.89.47-3.78.94c-1.25.33-2.48.74-3.73,1.1s-2.5.72-3.7,1.19c-2.44.89-4.9,1.74-7.25,2.84-1.17.55-2.4,1-3.54,1.62l-3.44,1.81a36.27,36.27,0,0,0-3.35,2c-1.09.7-2.21,1.36-3.28,2.1L75,120.19c-.51.39-1,.77-1.55,1.17L72,122.66l-2.9,2.6c-.91.92-1.77,1.89-2.66,2.83S64.6,130,63.82,131l-1.21,1.52-1.15,1.57a67.34,67.34,0,0,0-12.32,44,60.09,60.09,0,0,0,10.41,28.94,49.18,49.18,0,0,0,10.66,11.22c4.1,3.19,8.84,5.39,13.59,7.49s9.58,4.15,13.89,7.13a28.44,28.44,0,0,1,10,11.83A35.7,35.7,0,0,1,110.5,260a34.5,34.5,0,0,1-4.16,15l-1.07,1.64-.53.83c-.2.26-.42.5-.63.76l-1.25,1.5c-.46.48-1,.9-1.43,1.35a30.82,30.82,0,0,1-3,2.48c-1,.79-2.07,1.58-3.06,2.42-1.94,1.66-3.78,3.65-4.38,6.17a8.05,8.05,0,0,0,0,3.78,10.41,10.41,0,0,0,1.65,3.44,30.83,30.83,0,0,0,5.44,5.51c1,.88,2,1.65,3,2.45l1.54,1.18,1.6,1.11a91.2,91.2,0,0,0,13.53,7.69c9.43,4.37,19.45,7.32,29.51,9.89s20.24,4.8,30.36,7.2L208,341.54l15.19,3.56a138.63,138.63,0,0,1,15.09,4c4.86,1.77,9.65,4.39,12.86,8.59a18.75,18.75,0,0,1,3.36,7,21.05,21.05,0,0,1,.35,7.79,30.61,30.61,0,0,1-6.17,14.21c-3.18,4.17-7.36,7.41-11.64,10.35s-8.79,5.58-13,8.67a63.76,63.76,0,0,0-11.28,10.68c-6.64,8-11.6,17.28-15.6,26.85s-7.22,19.5-10.34,29.42l0-.1.48.54,0,0A73.21,73.21,0,0,1,202,482.5c4.54,3.62,8.8,7.57,13.07,11.49s8.6,7.79,13.22,11.28a77.68,77.68,0,0,0,7.2,4.87,66.15,66.15,0,0,0,7.75,3.91,94.75,94.75,0,0,0,16.56,5.21c5.65,1.26,11.37,2.25,17.12,3.06l8.6,1.26,8.64,1,4.32.5,4.33.4,8.67.78a470.63,470.63,0,0,0,138.31-10l8.46-2c1.4-.35,2.82-.66,4.22-1l4.2-1.13c2.8-.76,5.61-1.48,8.4-2.27s5.57-1.63,8.33-2.49a204.9,204.9,0,0,0,32.29-12.85,138,138,0,0,0,15-8.85,110.81,110.81,0,0,0,13.51-10.94c8.47-7.94,15.36-17.4,21.61-27.14,3.13-4.89,6.1-9.87,9-14.88s5.8-10.05,8.62-15.11q8.48-15.21,16.32-30.74c2.61-5.17,5.2-10.37,7.4-15.74a79.25,79.25,0,0,0,5-16.64A59.07,59.07,0,0,0,607.71,320.39Z" transform="translate(0 30.6)"/></g></g><g class="cls-9"><circle class="cls-8" cx="215" cy="287.6" r="5"/><circle class="cls-8" cx="334" cy="105.6" r="5"/><circle class="cls-8" cx="225" cy="388.6" r="5"/><circle class="cls-8" cx="225" cy="416.6" r="5"/><circle class="cls-8" cx="214" cy="430.6" r="5"/><circle class="cls-8" cx="198" cy="443.6" r="5"/><circle class="cls-8" cx="233" cy="402.6" r="5"/></g><circle class="cls-10" cx="316.81" cy="257.93" r="4.31"/><circle class="cls-10" cx="333.81" cy="255.93" r="4.31"/><circle class="cls-10" cx="350.81" cy="255.93" r="4.31"/><circle class="cls-10" cx="366.81" cy="257.93" r="4.31"/><circle class="cls-10" cx="362.81" cy="430.93" r="4.31"/><circle class="cls-10" cx="375.81" cy="420.93" r="4.31"/><circle class="cls-10" cx="179.32" cy="175.79" r="3"/><circle class="cls-10" cx="189.94" cy="169.14" r="3"/><circle class="cls-10" cx="170.06" cy="182.06" r="3"/><text class="cls-11" transform="translate(118.36 128.64) rotate(-17.4)">H</text><text class="cls-11" transform="translate(126.3 126.2) rotate(-15)">I</text><text class="cls-11" transform="matrix(0.97, -0.23, 0.23, 0.97, 129.84, 125.24)">S</text><text class="cls-11" transform="translate(135.18 123.97) rotate(-11.16)">T</text><text class="cls-11" transform="translate(142 122.61) rotate(-8.85)">O</text><text class="cls-11" transform="translate(150.26 121.33) rotate(-6.8)">R</text><text class="cls-11" transform="matrix(1, -0.09, 0.09, 1, 157.74, 120.45)">Y</text><text class="cls-11" transform="matrix(1, -0.08, 0.08, 1, 164.48, 119.85)"> </text><text class="cls-11" transform="translate(166.64 119.66) rotate(-3.58)">O</text><text class="cls-11" transform="matrix(1, -0.05, 0.05, 1, 175.01, 119.15)">F</text><text class="cls-11" transform="matrix(1, -0.04, 0.04, 1, 180.67, 118.89)"> </text><text class="cls-11" transform="matrix(1, -0.03, 0.03, 1, 182.86, 118.79)">C</text><text class="cls-11" transform="translate(190.21 118.55) rotate(-1.57)">H</text><text class="cls-11" transform="matrix(1, -0.03, 0.03, 1, 198.6, 118.32)">I</text><text class="cls-11" transform="translate(202.3 118.22) rotate(-1.46)">N</text><text class="cls-11" transform="matrix(1, -0.03, 0.03, 1, 210.35, 118.02)">E</text><text class="cls-11" transform="matrix(1, -0.03, 0.03, 1, 216.38, 117.86)">S</text><text class="cls-11" transform="matrix(1, -0.03, 0.03, 1, 221.97, 117.72)">E</text><text class="cls-11" transform="translate(227.96 117.55) rotate(-1.7)"> </text><text class="cls-11" transform="matrix(1, -0.03, 0.03, 1, 230.15, 117.48)">U</text><text class="cls-11" transform="translate(238.51 117.22) rotate(-2.09)">N</text><text class="cls-11" transform="translate(246.54 116.92) rotate(-2.33)">I</text><text class="cls-11" transform="translate(250.26 116.77) rotate(-2.58)">V</text><text class="cls-11" transform="translate(257.53 116.44) rotate(-2.92)">E</text><text class="cls-11" transform="matrix(1, -0.06, 0.06, 1, 263.53, 116.14)">R</text><text class="cls-11" transform="matrix(1, -0.07, 0.07, 1, 271.08, 115.7)">S</text><text class="cls-11" transform="matrix(1, -0.07, 0.07, 1, 276.63, 115.33)">I</text><text class="cls-11" transform="translate(280.33 115.07) rotate(-4.51)">T</text><text class="cls-11" transform="translate(287.32 114.52) rotate(-4.95)">I</text><text class="cls-11" transform="translate(291.03 114.2) rotate(-5.38)">E</text><text class="cls-11" transform="translate(296.99 113.64) rotate(-5.93)">S</text><line class="cls-8" x1="138.39" y1="191.23" x2="138.39" y2="212.46"/><circle class="cls-8" cx="138.39" cy="191.59" r="6.72"/><line class="cls-8" x1="312.39" y1="113.23" x2="312.39" y2="134.46"/><circle class="cls-8" cx="312.39" cy="113.59" r="6.72"/><line class="cls-8" x1="154.39" y1="297.23" x2="154.39" y2="318.46"/><circle class="cls-8" cx="154.39" cy="297.59" r="6.72"/><line class="cls-8" x1="375.39" y1="356.23" x2="375.39" y2="377.46"/><circle class="cls-8" cx="375.39" cy="356.59" r="6.72"/><line class="cls-8" x1="238.39" y1="463.23" x2="238.39" y2="484.46"/><circle class="cls-8" cx="238.39" cy="463.59" r="6.72"/><line class="cls-8" x1="294.74" y1="439.86" x2="294.74" y2="409.56"/><text class="cls-12" transform="translate(320.63 376.66) rotate(180)">＊</text><line class="cls-8" x1="308.45" y1="419.86" x2="308.45" y2="394.65"/><text class="cls-13" transform="translate(330 367.27) rotate(180)">＊</text><line class="cls-8" x1="118.74" y1="474.86" x2="118.74" y2="444.56"/><text class="cls-12" transform="translate(144.63 411.66) rotate(180)">＊</text><text class="cls-13" transform="translate(158 439.27) rotate(180)">＊</text><text class="cls-13" transform="translate(84 391.27) rotate(180)">＊</text><line class="cls-8" x1="67.91" y1="165.86" x2="67.91" y2="147.88"/><text class="cls-14" transform="translate(83.28 128.35) rotate(180)">＊</text><line class="cls-8" x1="134.74" y1="306.86" x2="134.74" y2="276.56"/><text class="cls-12" transform="translate(160.63 243.66) rotate(180)">＊</text></g></g></svg>