<svg xmlns="http://www.w3.org/2000/svg" xmlns:xlink="http://www.w3.org/1999/xlink" viewBox="0 0 50.93 55.29"><defs><style>.cls-1{fill:url(#未命名的渐变_3);}.cls-2{fill:url(#未命名的渐变_19);}.cls-3{fill:#0071bc;fill-rule:evenodd;}</style><radialGradient id="未命名的渐变_3" cx="25.47" cy="29.83" r="25.47" gradientUnits="userSpaceOnUse"><stop offset="0.01" stop-color="#4972b8" stop-opacity="0.6"/><stop offset="1" stop-color="#4972b8" stop-opacity="0.1"/></radialGradient><radialGradient id="未命名的渐变_19" cx="25.47" cy="29.83" r="6.72" gradientUnits="userSpaceOnUse"><stop offset="0.01" stop-color="#4972b8" stop-opacity="0.6"/><stop offset="1" stop-color="#4972b8" stop-opacity="0.4"/></radialGradient></defs><g id="图层_2" data-name="图层 2"><g id="图例"><circle class="cls-1" cx="25.47" cy="29.83" r="25.47"/><circle class="cls-2" cx="25.47" cy="29.83" r="6.72"/><path class="cls-3" d="M24.6,0a1.31,1.31,0,0,0-1.3,1.32V26.57a1.31,1.31,0,0,0,1.3,1.32h.52a1.31,1.31,0,0,0,1.3-1.32V1.32A1.31,1.31,0,0,0,25.12,0Z"/><path class="cls-3" d="M28,1.36V16.55H45.88a.87.87,0,0,0,.63-1.46L40.91,9l5.6-6.15a.87.87,0,0,0-.63-1.45Z"/></g></g></svg>