<svg xmlns="http://www.w3.org/2000/svg" xmlns:xlink="http://www.w3.org/1999/xlink" viewBox="0 0 741.79 910.64"><defs><style>.cls-1{fill:#888988;}.cls-2{fill:#e3d6a3;}.cls-3,.cls-4,.cls-7,.cls-8{fill:#231815;}.cls-4{opacity:0.96;}.cls-4,.cls-7,.cls-8{font-size:40px;}.cls-11,.cls-26,.cls-4,.cls-7,.cls-8{font-family:FZQKBYSJW--GB1-0, FZQingKeBenYueSongS-R-GB;}.cls-5{fill:#595757;}.cls-35,.cls-36,.cls-6{fill:none;stroke-linecap:round;stroke-miterlimit:10;}.cls-6{stroke:#595757;stroke-dasharray:0.2 4.91;}.cls-36,.cls-6{stroke-width:2px;}.cls-11,.cls-28,.cls-29,.cls-33,.cls-7,.cls-9{opacity:0.99;}.cls-10{fill:url(#未命名的渐变_20);}.cls-11,.cls-26{font-size:25.8px;fill:#fff;}.cls-12{fill:url(#未命名的渐变_30);}.cls-13{fill:url(#未命名的渐变_30-2);}.cls-14{fill:url(#未命名的渐变_30-3);}.cls-15{fill:url(#未命名的渐变_30-4);}.cls-16{fill:url(#未命名的渐变_30-5);}.cls-17{fill:url(#未命名的渐变_30-6);}.cls-18{fill:url(#未命名的渐变_30-7);}.cls-19{fill:url(#未命名的渐变_30-8);}.cls-20{fill:url(#未命名的渐变_30-9);}.cls-21{fill:url(#未命名的渐变_30-10);}.cls-22{fill:url(#未命名的渐变_30-11);}.cls-23{fill:url(#未命名的渐变_30-12);}.cls-24{fill:url(#未命名的渐变_30-13);}.cls-25{fill:url(#未命名的渐变_30-14);}.cls-27{fill:url(#未命名的渐变_56);}.cls-28{fill:url(#未命名的渐变_69);}.cls-29{fill:url(#未命名的渐变_69-2);}.cls-30{fill:url(#未命名的渐变_77);}.cls-31{fill:url(#未命名的渐变_77-2);}.cls-32{fill:url(#未命名的渐变_82);}.cls-33{fill:url(#未命名的渐变_47);}.cls-34{fill:url(#未命名的渐变_89);}.cls-35{stroke:#040000;stroke-dasharray:1 4;}.cls-36{stroke:#b5b5b6;stroke-dasharray:6 15;}</style><linearGradient id="未命名的渐变_20" x1="210.92" y1="492.16" x2="451.83" y2="492.16" gradientUnits="userSpaceOnUse"><stop offset="0" stop-color="#8093b0"/><stop offset="0.64" stop-color="#8093b0" stop-opacity="0.6"/><stop offset="1" stop-color="#8093b0" stop-opacity="0"/></linearGradient><linearGradient id="未命名的渐变_30" x1="237.95" y1="538.39" x2="245.35" y2="538.39" gradientUnits="userSpaceOnUse"><stop offset="0" stop-color="#d1c698"/><stop offset="0.63" stop-color="#d1c698" stop-opacity="0.5"/><stop offset="1" stop-color="#d1c698" stop-opacity="0"/></linearGradient><linearGradient id="未命名的渐变_30-2" x1="237.17" y1="555.75" x2="239.34" y2="555.75" xlink:href="#未命名的渐变_30"/><linearGradient id="未命名的渐变_30-3" x1="243.95" y1="543.28" x2="246.13" y2="543.28" xlink:href="#未命名的渐变_30"/><linearGradient id="未命名的渐变_30-4" x1="237.17" y1="543.28" x2="239.34" y2="543.28" xlink:href="#未命名的渐变_30"/><linearGradient id="未命名的渐变_30-5" x1="233.51" y1="549.5" x2="234.99" y2="549.5" xlink:href="#未命名的渐变_30"/><linearGradient id="未命名的渐变_30-6" x1="228.97" y1="544.91" x2="235.51" y2="544.91" xlink:href="#未命名的渐变_30"/><linearGradient id="未命名的渐变_30-7" x1="237.86" y1="560.64" x2="245.26" y2="560.64" xlink:href="#未命名的渐变_30"/><linearGradient id="未命名的渐变_30-8" x1="228.97" y1="554.36" x2="235.69" y2="554.36" xlink:href="#未命名的渐变_30"/><linearGradient id="未命名的渐变_30-9" x1="248.3" y1="549.58" x2="249.78" y2="549.58" xlink:href="#未命名的渐变_30"/><linearGradient id="未命名的渐变_30-10" x1="247.61" y1="544.7" x2="254.17" y2="544.7" xlink:href="#未命名的渐变_30"/><linearGradient id="未命名的渐变_30-11" x1="243.87" y1="555.75" x2="246.04" y2="555.75" xlink:href="#未命名的渐变_30"/><linearGradient id="未命名的渐变_30-12" x1="247.52" y1="554.36" x2="254.26" y2="554.36" xlink:href="#未命名的渐变_30"/><linearGradient id="未命名的渐变_30-13" x1="210.92" y1="549.25" x2="451.83" y2="549.25" xlink:href="#未命名的渐变_30"/><linearGradient id="未命名的渐变_30-14" x1="236.8" y1="549.54" x2="246.43" y2="549.54" xlink:href="#未命名的渐变_30"/><linearGradient id="未命名的渐变_56" x1="210.92" y1="663.43" x2="451.83" y2="663.43" gradientUnits="userSpaceOnUse"><stop offset="0" stop-color="#82a384"/><stop offset="0.77" stop-color="#82a384" stop-opacity="0.5"/><stop offset="1" stop-color="#82a384" stop-opacity="0"/></linearGradient><linearGradient id="未命名的渐变_69" x1="244.64" y1="725.57" x2="250.69" y2="725.57" gradientUnits="userSpaceOnUse"><stop offset="0.02" stop-color="#a27baa"/><stop offset="0.77" stop-color="#a27baa" stop-opacity="0.5"/><stop offset="1" stop-color="#a27baa" stop-opacity="0"/></linearGradient><linearGradient id="未命名的渐变_69-2" x1="210.92" y1="720.52" x2="451.83" y2="720.52" xlink:href="#未命名的渐变_69"/><linearGradient id="未命名的渐变_77" x1="237.67" y1="784.63" x2="248.35" y2="784.63" gradientUnits="userSpaceOnUse"><stop offset="0" stop-color="#9b5c53"/><stop offset="0.67" stop-color="#9b5c53" stop-opacity="0.5"/><stop offset="0.99" stop-color="#9b5c53" stop-opacity="0"/></linearGradient><linearGradient id="未命名的渐变_77-2" x1="210.92" y1="777.61" x2="451.83" y2="777.61" xlink:href="#未命名的渐变_77"/><linearGradient id="未命名的渐变_82" x1="210.92" y1="834.7" x2="451.83" y2="834.7" gradientUnits="userSpaceOnUse"><stop offset="0" stop-color="#b6bfc8"/><stop offset="0.67" stop-color="#b6bfc8" stop-opacity="0.5"/><stop offset="0.99" stop-color="#b6bfc8" stop-opacity="0"/></linearGradient><linearGradient id="未命名的渐变_47" x1="212.88" y1="606.34" x2="523.17" y2="606.34" gradientUnits="userSpaceOnUse"><stop offset="0" stop-color="#cbb6b5"/><stop offset="0.8" stop-color="#cbb6b5" stop-opacity="0.5"/><stop offset="1" stop-color="#cbb6b5" stop-opacity="0"/></linearGradient><linearGradient id="未命名的渐变_89" x1="210.32" y1="890.89" x2="695.93" y2="890.89" gradientUnits="userSpaceOnUse"><stop offset="0" stop-color="#c0a081"/><stop offset="0.75" stop-color="#c0a081" stop-opacity="0.5"/><stop offset="0.99" stop-color="#c0a081" stop-opacity="0"/></linearGradient></defs><g id="图层_2" data-name="图层 2"><g id="图层_1-2" data-name="图层 1"><circle class="cls-1" cx="9.96" cy="328.69" r="9.96"/><path class="cls-2" d="M174.89,311.61,34.64,308.05v36.6L174.89,342Z"/><path class="cls-2" d="M184.11,341.77l425-8.18v-11l-425-10.79Z"/><circle class="cls-3" cx="454.77" cy="100.84" r="4.56"/><text class="cls-4" transform="translate(288.27 86.65)">主管部门</text><path class="cls-5" d="M164.44,123.49a2,2,0,0,0,.69.73,2.93,2.93,0,0,0,1,.32V125h-6.38v-.42a2.81,2.81,0,0,0,1.16-.34.91.91,0,0,0,.39-.77A4.35,4.35,0,0,0,161,122l-4.28-12.23h.18l-4,11.72a7.55,7.55,0,0,0-.42,1.72.93.93,0,0,0,.34.89,2.86,2.86,0,0,0,1.26.4V125h-4.62v-.42a2.65,2.65,0,0,0,1.05-.35,2.28,2.28,0,0,0,.75-.89,14.84,14.84,0,0,0,.77-1.83l5.19-14.14h1.27l5.3,14.72A10.73,10.73,0,0,0,164.44,123.49Zm-10.67-5.44h7.07l.2.6h-7.49Z"/><path class="cls-5" d="M167.34,115.88a5.64,5.64,0,0,1,2-2.17,5.45,5.45,0,0,1,2.87-.78,4.19,4.19,0,0,1,1.9.41,3.08,3.08,0,0,1,1.22,1.08v-5.5a1.18,1.18,0,0,0-.13-.67,1.26,1.26,0,0,0-.63-.33l-.72-.22v-.37l3.89-.44V123a1.3,1.3,0,0,0,.12.67,1.44,1.44,0,0,0,.64.34l.71.21v.37l-3.85.45v-2.13a3.8,3.8,0,0,1-1.56,1.62,4.65,4.65,0,0,1-2.36.62,4.46,4.46,0,0,1-2.42-.71,5.08,5.08,0,0,1-1.81-2.06,7.07,7.07,0,0,1-.69-3.26A6.59,6.59,0,0,1,167.34,115.88Zm2.74,6.75a3,3,0,0,0,2.55,1.41,3.25,3.25,0,0,0,1.65-.39,2.9,2.9,0,0,0,1.1-1.1V115a2.32,2.32,0,0,0-1-1,3.08,3.08,0,0,0-1.57-.4,3.19,3.19,0,0,0-2.72,1.44,7.51,7.51,0,0,0,0,7.56Z"/><path class="cls-5" d="M184.24,115.27h0v8.1a1.1,1.1,0,0,0,.23.82,2.39,2.39,0,0,0,1.16.35V125h-5.27v-.42a2.65,2.65,0,0,0,1.21-.37,1.13,1.13,0,0,0,.26-.87v-8.25a.8.8,0,0,0-.75-1l-.72-.22v-.37l3.85-.44Zm6.65-1.41a3.44,3.44,0,0,1,1,2.72v6.79a1.15,1.15,0,0,0,.23.82,2.44,2.44,0,0,0,1.16.35V125h-5.18v-.42a2.39,2.39,0,0,0,1.16-.35,1.15,1.15,0,0,0,.23-.82v-6.24a3.4,3.4,0,0,0-.67-2.3,2.42,2.42,0,0,0-1.93-.76,3,3,0,0,0-2.75,1.57v-.45a4.12,4.12,0,0,1,1.56-1.65,4.6,4.6,0,0,1,2.38-.61A4,4,0,0,1,190.89,113.86Zm7.59,0a3.46,3.46,0,0,1,1.1,2.81v6.64a1.13,1.13,0,0,0,.26.87,2.65,2.65,0,0,0,1.21.37V125h-5.27v-.42a2.35,2.35,0,0,0,1.16-.35,1.1,1.1,0,0,0,.23-.82v-6.24a3.4,3.4,0,0,0-.68-2.3,2.5,2.5,0,0,0-2-.76,3.48,3.48,0,0,0-1.71.4,2.9,2.9,0,0,0-1.15,1.2v-.46a3.86,3.86,0,0,1,1.62-1.68,4.78,4.78,0,0,1,2.38-.6A4.22,4.22,0,0,1,198.48,113.85Z"/><path class="cls-5" d="M206,123.3a1.13,1.13,0,0,0,.27.87,2.65,2.65,0,0,0,1.21.37V125H202.1v-.42a2.7,2.7,0,0,0,1.22-.37,1.17,1.17,0,0,0,.26-.87v-8.25a.8.8,0,0,0-.76-1l-.72-.22v-.37L206,113Zm-2.44-12.84a1.38,1.38,0,0,1,0-2,1.43,1.43,0,0,1,1-.4,1.37,1.37,0,0,1,1,.4,1.38,1.38,0,0,1,0,2,1.37,1.37,0,0,1-1,.4A1.43,1.43,0,0,1,203.54,110.46Z"/><path class="cls-5" d="M212.42,115.1a3.82,3.82,0,0,1,1.53-1.56,4.64,4.64,0,0,1,2.37-.61,4.51,4.51,0,0,1,2.9.91,3.4,3.4,0,0,1,1.12,2.78v6.68a1.64,1.64,0,0,0,.1.65.69.69,0,0,0,.41.37,4.57,4.57,0,0,0,1,.22V125h-5.28v-.42a2.39,2.39,0,0,0,1.16-.35,1.1,1.1,0,0,0,.23-.82v-6.25a3.21,3.21,0,0,0-.72-2.29,2.63,2.63,0,0,0-2-.76,3.24,3.24,0,0,0-1.66.4,2.87,2.87,0,0,0-1.09,1v7.86a1.15,1.15,0,0,0,.23.82,2.44,2.44,0,0,0,1.16.35V125h-5.27v-.42a2.65,2.65,0,0,0,1.21-.37,1.13,1.13,0,0,0,.27-.87v-8.25a.8.8,0,0,0-.76-1l-.72-.22v-.37l3.86-.44Z"/><path class="cls-5" d="M226.75,123.3a1.17,1.17,0,0,0,.26.87,2.7,2.7,0,0,0,1.22.37V125h-5.36v-.42a2.65,2.65,0,0,0,1.21-.37,1.13,1.13,0,0,0,.26-.87v-8.25a1.3,1.3,0,0,0-.12-.67,1.27,1.27,0,0,0-.63-.33l-.72-.22v-.37l3.88-.44Zm-2.44-12.84a1.35,1.35,0,0,1,0-2,1.49,1.49,0,0,1,2,0,1.38,1.38,0,0,1,0,2,1.49,1.49,0,0,1-2,0Z"/><path class="cls-5" d="M230.48,114.47a3.66,3.66,0,0,1,1.6-1.14,6.19,6.19,0,0,1,2.26-.4,8.72,8.72,0,0,1,2.19.24,4.28,4.28,0,0,1,1.33.51l.06,3h-.39a4,4,0,0,0-1.14-2.35,2.9,2.9,0,0,0-2-.81,2.72,2.72,0,0,0-1.81.55,1.79,1.79,0,0,0-.65,1.42,1.6,1.6,0,0,0,.62,1.34,5.7,5.7,0,0,0,1.75.85l.92.3a5.62,5.62,0,0,1,2.44,1.39,3.18,3.18,0,0,1,.86,2.3,2.85,2.85,0,0,1-.65,1.88,4.17,4.17,0,0,1-1.69,1.2,5.89,5.89,0,0,1-2.17.4,10.33,10.33,0,0,1-2.38-.26,5,5,0,0,1-1.67-.69l-.13-3.23h.39a5.12,5.12,0,0,0,.82,2,3.92,3.92,0,0,0,1.36,1.22,3.46,3.46,0,0,0,1.6.41,2.71,2.71,0,0,0,1.85-.6,1.91,1.91,0,0,0,.68-1.49,1.93,1.93,0,0,0-.56-1.43,4.37,4.37,0,0,0-1.75-.92l-.93-.31a6.55,6.55,0,0,1-2.47-1.34,2.79,2.79,0,0,1-.88-2.15A3,3,0,0,1,230.48,114.47Z"/><path class="cls-5" d="M241.48,114H240v-.29l3.71-2.9h.21v2.52l3.21-.15V114l-3.21-.13v7.93a2.54,2.54,0,0,0,.53,1.82,1.86,1.86,0,0,0,1.36.52,2.39,2.39,0,0,0,.84-.14,1.85,1.85,0,0,0,.66-.41V124a2.62,2.62,0,0,1-1,.84,3.84,3.84,0,0,1-1.71.37,3.43,3.43,0,0,1-1.55-.35,2.54,2.54,0,0,1-1.1-1.1,4.23,4.23,0,0,1-.4-2Z"/><path class="cls-5" d="M251.85,115.62a13.74,13.74,0,0,1,1.84-2,2.48,2.48,0,0,1,1.55-.66,1.12,1.12,0,0,1,.93.36,1.28,1.28,0,0,1,.29.84,1.61,1.61,0,0,1-.07.49,1.27,1.27,0,0,1-.17.35,3.27,3.27,0,0,0-.5-.08,5.27,5.27,0,0,0-.7,0,5.84,5.84,0,0,0-1.8.29,3.22,3.22,0,0,0-1.35.77v7.24a2,2,0,0,0,.1.72.74.74,0,0,0,.45.39,4.65,4.65,0,0,0,1.06.23V125H248v-.42a2.69,2.69,0,0,0,1.23-.36,1.14,1.14,0,0,0,.25-.83v-8.3a.8.8,0,0,0-.76-1l-.72-.22v-.37l3.86-.44Z"/><path class="cls-5" d="M258.75,124.37a2.6,2.6,0,0,1-1-2.12,2.78,2.78,0,0,1,.47-1.59,3.75,3.75,0,0,1,1.49-1.18,11.84,11.84,0,0,1,2.69-.86l3.21-.69v.51l-2,.45a5.68,5.68,0,0,0-2.66,1.14,2.41,2.41,0,0,0-.72,1.8,2.18,2.18,0,0,0,.67,1.71,2.32,2.32,0,0,0,1.62.6,3.18,3.18,0,0,0,1.41-.3,2.44,2.44,0,0,0,1-.9V116.8a3.13,3.13,0,0,0-.83-2.46,3.27,3.27,0,0,0-2.2-.71,4.64,4.64,0,0,0-1.56.26,3.13,3.13,0,0,0-1.17.72,1.92,1.92,0,0,0-.54,1.1h-.28a1.46,1.46,0,0,1,.36-1,1.08,1.08,0,0,1,.81-.39,1.17,1.17,0,0,1,.85.36,1.22,1.22,0,0,1,.36.9,1.2,1.2,0,0,1-.37.88,1.31,1.31,0,0,1-.91.35,1.23,1.23,0,0,1-.89-.36,1.17,1.17,0,0,1-.38-.9,1.87,1.87,0,0,1,.6-1.35,4.11,4.11,0,0,1,1.65-1,7.5,7.5,0,0,1,2.36-.35,5.5,5.5,0,0,1,3.24.88,3.13,3.13,0,0,1,1.24,2.76v6.23a1.55,1.55,0,0,0,.37,1.16,1.26,1.26,0,0,0,.93.36,1.59,1.59,0,0,0,.53-.08v.38a2.86,2.86,0,0,1-.76.34,3.38,3.38,0,0,1-1.09.16,2.85,2.85,0,0,1-1.08-.2,2.13,2.13,0,0,1-.79-.6,2.3,2.3,0,0,1-.42-.95,3.22,3.22,0,0,1-1.42,1.29,4.93,4.93,0,0,1-2.32.52A3.73,3.73,0,0,1,258.75,124.37Z"/><path class="cls-5" d="M271.15,114h-1.52v-.29l3.71-2.9h.21v2.52l3.21-.15V114l-3.21-.13v7.93a2.49,2.49,0,0,0,.54,1.82,1.84,1.84,0,0,0,1.35.52,2.39,2.39,0,0,0,.84-.14,1.85,1.85,0,0,0,.66-.41V124a2.65,2.65,0,0,1-1,.84,3.84,3.84,0,0,1-1.71.37,3.44,3.44,0,0,1-1.56-.35,2.52,2.52,0,0,1-1.09-1.1,4.11,4.11,0,0,1-.4-2Z"/><path class="cls-5" d="M281.53,123.3a1.13,1.13,0,0,0,.27.87,2.65,2.65,0,0,0,1.21.37V125h-5.36v-.42a2.7,2.7,0,0,0,1.22-.37,1.17,1.17,0,0,0,.26-.87v-8.25a1.18,1.18,0,0,0-.13-.67,1.23,1.23,0,0,0-.63-.33l-.72-.22v-.37l3.88-.44Zm-2.44-12.84a1.38,1.38,0,0,1,0-2,1.41,1.41,0,0,1,1-.4,1.37,1.37,0,0,1,1,.4,1.38,1.38,0,0,1,0,2,1.37,1.37,0,0,1-1,.4A1.41,1.41,0,0,1,279.09,110.46Z"/><path class="cls-5" d="M284.49,114.39a1.62,1.62,0,0,0-.56-.55,2.7,2.7,0,0,0-.83-.27v-.43h5.71v.43a3,3,0,0,0-1.08.29.66.66,0,0,0-.33.63,4.14,4.14,0,0,0,.29,1.23l2.53,7.07H290l2.48-7a4.22,4.22,0,0,0,.3-1.28.69.69,0,0,0-.34-.65,2.76,2.76,0,0,0-1.07-.3v-.43h3.93v.43a2.3,2.3,0,0,0-.84.29,1.91,1.91,0,0,0-.6.67,11.85,11.85,0,0,0-.64,1.4l-3.55,9h-.93L285,115.49A6.82,6.82,0,0,0,284.49,114.39Z"/><path class="cls-5" d="M296.07,115.9a5.25,5.25,0,0,1,1.92-2.17,5.35,5.35,0,0,1,2.94-.8,5.2,5.2,0,0,1,2.61.62,4.09,4.09,0,0,1,1.65,1.72,5.38,5.38,0,0,1,.57,2.52c0,.12,0,.23,0,.35s0,.22,0,.3H297V118l6.67-.06-.21.2c0-.12,0-.23,0-.35s0-.25,0-.38a5.46,5.46,0,0,0-.63-2.75,2.07,2.07,0,0,0-1.91-1.1,2.61,2.61,0,0,0-2.27,1.22,6.1,6.1,0,0,0-.82,3.46,7.41,7.41,0,0,0,.58,3A5,5,0,0,0,300,123.3a4.09,4.09,0,0,0,2.43.74,4.43,4.43,0,0,0,1.81-.34,3.86,3.86,0,0,0,1.27-.87v.42a4,4,0,0,1-1.7,1.39,6.1,6.1,0,0,1-2.64.54,5.84,5.84,0,0,1-3-.77,5.42,5.42,0,0,1-2.07-2.15,6.62,6.62,0,0,1-.75-3.21A7,7,0,0,1,296.07,115.9Z"/><path class="cls-5" d="M328.68,119.78a8.24,8.24,0,0,1-2.32,2.85,10.27,10.27,0,0,1-3.37,1.74,13.71,13.71,0,0,1-4,.59h-6v-.42a4.89,4.89,0,0,0,1.12-.26.81.81,0,0,0,.49-.45,2.34,2.34,0,0,0,.12-.84V109.3a2.34,2.34,0,0,0-.12-.84.81.81,0,0,0-.49-.45,4.89,4.89,0,0,0-1.12-.26v-.42h6a14.43,14.43,0,0,1,5.5,1,8.37,8.37,0,0,1,3.73,2.89,7.78,7.78,0,0,1,1.35,4.64A8.82,8.82,0,0,1,328.68,119.78Zm-3-8a7,7,0,0,0-2.74-2.85,9.15,9.15,0,0,0-4.36-1.1l-1.26,0v16.65l1.26,0a9.21,9.21,0,0,0,4.33-1.1,6.75,6.75,0,0,0,2.75-2.85,9.52,9.52,0,0,0,.95-4.4A9,9,0,0,0,325.66,111.81Z"/><path class="cls-5" d="M332.31,115.9a5.25,5.25,0,0,1,1.92-2.17,5.35,5.35,0,0,1,2.94-.8,5.2,5.2,0,0,1,2.61.62,4.09,4.09,0,0,1,1.65,1.72,5.26,5.26,0,0,1,.58,2.52c0,.12,0,.23,0,.35a2.16,2.16,0,0,1,0,.3h-8.75V118l6.66-.06-.21.2,0-.35c0-.12,0-.25,0-.38a5.46,5.46,0,0,0-.63-2.75,2.06,2.06,0,0,0-1.91-1.1,2.59,2.59,0,0,0-2.26,1.22,6.1,6.1,0,0,0-.83,3.46,7.58,7.58,0,0,0,.58,3,5,5,0,0,0,1.62,2.07,4.09,4.09,0,0,0,2.43.74,4.43,4.43,0,0,0,1.81-.34,4,4,0,0,0,1.28-.87v.42a4,4,0,0,1-1.71,1.39,6.1,6.1,0,0,1-2.64.54,5.86,5.86,0,0,1-3-.77,5.42,5.42,0,0,1-2.07-2.15,6.62,6.62,0,0,1-.75-3.21A7.08,7.08,0,0,1,332.31,115.9Z"/><path class="cls-5" d="M355.4,122.22a5.69,5.69,0,0,1-2.06,2.18,5.45,5.45,0,0,1-2.87.78,4.06,4.06,0,0,1-1.9-.42,3,3,0,0,1-1.22-1.08v5.14a1.94,1.94,0,0,0,.11.72.72.72,0,0,0,.44.39,5.27,5.27,0,0,0,1.06.23v.41h-5.49v-.41a5.3,5.3,0,0,0,1-.22.67.67,0,0,0,.41-.35,1.53,1.53,0,0,0,.1-.63V115.05a.8.8,0,0,0-.76-1l-.72-.22v-.37l3.86-.44v2.15a3.65,3.65,0,0,1,1.56-1.63,4.71,4.71,0,0,1,2.36-.61,4.43,4.43,0,0,1,2.41.71,5.21,5.21,0,0,1,1.82,2,7.1,7.1,0,0,1,.69,3.26A6.7,6.7,0,0,1,355.4,122.22Zm-2.74-6.75a3.06,3.06,0,0,0-2.57-1.4,3.37,3.37,0,0,0-1.64.38,2.9,2.9,0,0,0-1.1,1.1v7.52a2.4,2.4,0,0,0,1,1,3.14,3.14,0,0,0,1.57.4,3.17,3.17,0,0,0,2.71-1.44,7.55,7.55,0,0,0,0-7.56Z"/><path class="cls-5" d="M359.22,124.37a2.61,2.61,0,0,1-1-2.12,2.78,2.78,0,0,1,.47-1.59,3.79,3.79,0,0,1,1.5-1.18,11.74,11.74,0,0,1,2.68-.86l3.21-.69v.51l-2,.45A5.68,5.68,0,0,0,361.4,120a2.41,2.41,0,0,0-.72,1.8,2.21,2.21,0,0,0,.67,1.71,2.34,2.34,0,0,0,1.63.6,3.1,3.1,0,0,0,1.4-.3,2.38,2.38,0,0,0,1-.9V116.8a3.13,3.13,0,0,0-.82-2.46,3.3,3.3,0,0,0-2.21-.71,4.54,4.54,0,0,0-1.55.26,3,3,0,0,0-1.17.72,1.87,1.87,0,0,0-.55,1.1h-.28a1.42,1.42,0,0,1,.37-1,1,1,0,0,1,.8-.39,1.16,1.16,0,0,1,.85.36,1.22,1.22,0,0,1,.36.9,1.16,1.16,0,0,1-.37.88,1.29,1.29,0,0,1-.91.35,1.25,1.25,0,0,1-.89-.36,1.2,1.2,0,0,1-.38-.9,1.84,1.84,0,0,1,.61-1.35,4.13,4.13,0,0,1,1.64-1,7.55,7.55,0,0,1,2.36-.35,5.55,5.55,0,0,1,3.25.88,3.15,3.15,0,0,1,1.23,2.76v6.23a1.6,1.6,0,0,0,.37,1.16,1.27,1.27,0,0,0,.93.36,1.61,1.61,0,0,0,.54-.08v.38a2.94,2.94,0,0,1-.77.34,3.33,3.33,0,0,1-1.09.16,2.76,2.76,0,0,1-1.07-.2,2,2,0,0,1-1.21-1.55,3.28,3.28,0,0,1-1.42,1.29,5,5,0,0,1-2.33.52A3.68,3.68,0,0,1,359.22,124.37Z"/><path class="cls-5" d="M374.1,115.62a13.72,13.72,0,0,1,1.85-2,2.46,2.46,0,0,1,1.54-.66,1.14,1.14,0,0,1,.94.36,1.27,1.27,0,0,1,.28.84,1.61,1.61,0,0,1-.07.49,1.27,1.27,0,0,1-.17.35,3.06,3.06,0,0,0-.5-.08,5.18,5.18,0,0,0-.7,0,5.84,5.84,0,0,0-1.8.29,3.22,3.22,0,0,0-1.35.77v7.24a1.94,1.94,0,0,0,.11.72.72.72,0,0,0,.44.39,4.65,4.65,0,0,0,1.06.23V125h-5.49v-.42a2.69,2.69,0,0,0,1.23-.36,1.1,1.1,0,0,0,.25-.83v-8.3a1.18,1.18,0,0,0-.13-.67,1.23,1.23,0,0,0-.63-.33l-.72-.22v-.37l3.86-.44Z"/><path class="cls-5" d="M381.11,114h-1.52v-.29l3.71-2.9h.21v2.52l3.21-.15V114l-3.21-.13v7.93a2.49,2.49,0,0,0,.54,1.82,1.86,1.86,0,0,0,1.35.52,2.35,2.35,0,0,0,.84-.14,1.76,1.76,0,0,0,.66-.41V124a2.58,2.58,0,0,1-1,.84,3.84,3.84,0,0,1-1.71.37,3.44,3.44,0,0,1-1.56-.35,2.52,2.52,0,0,1-1.09-1.1,4.11,4.11,0,0,1-.4-2Z"/><path class="cls-5" d="M391.47,115.27h0v8.1a1.1,1.1,0,0,0,.24.82,2.39,2.39,0,0,0,1.16.35V125h-5.28v-.42a2.7,2.7,0,0,0,1.22-.37,1.17,1.17,0,0,0,.26-.87v-8.25a.8.8,0,0,0-.76-1l-.72-.22v-.37l3.86-.44Zm6.65-1.41a3.48,3.48,0,0,1,1,2.72v6.79a1.15,1.15,0,0,0,.23.82,2.39,2.39,0,0,0,1.16.35V125h-5.19v-.42a2.4,2.4,0,0,0,1.17-.35,1.15,1.15,0,0,0,.22-.82v-6.24a3.45,3.45,0,0,0-.66-2.3,2.44,2.44,0,0,0-1.94-.76,2.94,2.94,0,0,0-2.74,1.57v-.45a4,4,0,0,1,1.55-1.65,4.64,4.64,0,0,1,2.39-.61A4,4,0,0,1,398.12,113.86Zm7.59,0a3.46,3.46,0,0,1,1.09,2.81v6.64a1.17,1.17,0,0,0,.26.87,2.7,2.7,0,0,0,1.22.37V125H403v-.42a2.39,2.39,0,0,0,1.16-.35,1.15,1.15,0,0,0,.23-.82v-6.24a3.35,3.35,0,0,0-.69-2.3,2.46,2.46,0,0,0-1.95-.76,3.48,3.48,0,0,0-1.71.4,2.92,2.92,0,0,0-1.16,1.2v-.46a3.94,3.94,0,0,1,1.63-1.68,4.75,4.75,0,0,1,2.38-.6A4.24,4.24,0,0,1,405.71,113.85Z"/><path class="cls-5" d="M410.47,115.9a5.25,5.25,0,0,1,1.92-2.17,5.36,5.36,0,0,1,2.95-.8,5.18,5.18,0,0,1,2.6.62,4.09,4.09,0,0,1,1.65,1.72,5.26,5.26,0,0,1,.58,2.52c0,.12,0,.23,0,.35a2,2,0,0,1,0,.3h-8.75V118l6.66-.06-.2.2c0-.12,0-.23,0-.35s0-.25,0-.38a5.46,5.46,0,0,0-.63-2.75,2.06,2.06,0,0,0-1.91-1.1,2.59,2.59,0,0,0-2.26,1.22,6.1,6.1,0,0,0-.83,3.46,7.58,7.58,0,0,0,.58,3,5,5,0,0,0,1.62,2.07,4.09,4.09,0,0,0,2.43.74,4.4,4.4,0,0,0,1.81-.34,3.91,3.91,0,0,0,1.28-.87v.42a4.05,4.05,0,0,1-1.7,1.39,6.15,6.15,0,0,1-2.65.54,5.86,5.86,0,0,1-3-.77,5.42,5.42,0,0,1-2.07-2.15,6.62,6.62,0,0,1-.75-3.21A7.08,7.08,0,0,1,410.47,115.9Z"/><path class="cls-5" d="M425.6,115.1a3.88,3.88,0,0,1,1.53-1.56,4.66,4.66,0,0,1,2.38-.61,4.48,4.48,0,0,1,2.89.91,3.37,3.37,0,0,1,1.12,2.78v6.68a1.85,1.85,0,0,0,.1.65.71.71,0,0,0,.42.37,4.6,4.6,0,0,0,1,.22V125h-5.27v-.42a2.48,2.48,0,0,0,1.16-.35,1.15,1.15,0,0,0,.23-.82v-6.25a3.21,3.21,0,0,0-.72-2.29,2.65,2.65,0,0,0-2-.76,3.27,3.27,0,0,0-1.66.4,2.92,2.92,0,0,0-1.08,1v7.86a1.1,1.1,0,0,0,.23.82,2.39,2.39,0,0,0,1.16.35V125h-5.28v-.42a2.7,2.7,0,0,0,1.22-.37,1.17,1.17,0,0,0,.26-.87v-8.25a.8.8,0,0,0-.76-1l-.72-.22v-.37l3.86-.44Z"/><path class="cls-5" d="M437.42,114H435.9v-.29l3.71-2.9h.21v2.52l3.21-.15V114l-3.21-.13v7.93a2.49,2.49,0,0,0,.54,1.82,1.86,1.86,0,0,0,1.35.52,2.32,2.32,0,0,0,.84-.14,1.89,1.89,0,0,0,.67-.41V124a2.69,2.69,0,0,1-1,.84,3.84,3.84,0,0,1-1.71.37,3.44,3.44,0,0,1-1.56-.35,2.52,2.52,0,0,1-1.09-1.1,4.11,4.11,0,0,1-.4-2Z"/><circle class="cls-1" cx="526.1" cy="21.72" r="13.82"/><circle class="cls-6" cx="526.1" cy="173.21" r="13.82"/><text class="cls-7" transform="translate(581.79 34)">教育部</text><text class="cls-8" transform="translate(581.79 112.29)">中央部委</text><polygon class="cls-1" points="541.26 96.14 529.96 96.14 529.96 84.85 522.24 84.85 522.24 96.14 510.94 96.14 510.94 103.87 522.24 103.87 522.24 115.16 529.96 115.16 529.96 103.87 541.26 103.87 541.26 96.14"/><text class="cls-8" transform="translate(581.79 185.49)">地方</text><circle class="cls-3" cx="279.55" cy="235.25" r="4.56"/><text class="cls-7" transform="translate(298.58 406.42)">建校时间</text><path class="cls-5" d="M342.18,431.68h-.31a5.5,5.5,0,0,0-.49-1.35,2.3,2.3,0,0,0-.75-.85,3.16,3.16,0,0,0-1.16-.46,10.85,10.85,0,0,0-1.73-.19l-2.1-.08V435l2.74-.06a2.13,2.13,0,0,0,.91-.19,1.15,1.15,0,0,0,.48-.59,7.41,7.41,0,0,0,.32-1.15h.28v4.37h-.28a6.28,6.28,0,0,0-.3-1.14,1.12,1.12,0,0,0-.49-.59,2,2,0,0,0-.92-.2l-2.74-.06V442l2.47-.1a11.44,11.44,0,0,0,1.83-.2,3,3,0,0,0,1.2-.49,2.21,2.21,0,0,0,.74-.94,7.28,7.28,0,0,0,.48-1.58h.31l-.18,3.7H332.16v-.33a4,4,0,0,0,.89-.21.64.64,0,0,0,.39-.36,1.72,1.72,0,0,0,.1-.67v-10.9a1.72,1.72,0,0,0-.1-.67.64.64,0,0,0-.39-.36,4,4,0,0,0-.89-.21v-.33H342Z"/><path class="cls-5" d="M344.68,434.05a3,3,0,0,1,1.27-.92,5.15,5.15,0,0,1,1.8-.31,7.22,7.22,0,0,1,1.74.19,3.37,3.37,0,0,1,1.06.41l.05,2.39h-.31a3.21,3.21,0,0,0-.9-1.88,2.3,2.3,0,0,0-1.63-.64,2.19,2.19,0,0,0-1.44.44,1.38,1.38,0,0,0-.52,1.12,1.27,1.27,0,0,0,.5,1.07,4.39,4.39,0,0,0,1.39.68l.73.24a4.38,4.38,0,0,1,1.94,1.11,2.51,2.51,0,0,1,.69,1.83,2.26,2.26,0,0,1-.52,1.5,3.44,3.44,0,0,1-1.34,1,4.79,4.79,0,0,1-1.73.32,8.07,8.07,0,0,1-1.9-.21,4.12,4.12,0,0,1-1.32-.55l-.11-2.57h.31a4.07,4.07,0,0,0,.66,1.57,3.1,3.1,0,0,0,1.08,1,2.66,2.66,0,0,0,1.27.32,2.13,2.13,0,0,0,1.47-.47,1.52,1.52,0,0,0,.54-1.19,1.5,1.5,0,0,0-.44-1.13,3.33,3.33,0,0,0-1.39-.74l-.74-.25a5.16,5.16,0,0,1-2-1.06,2.23,2.23,0,0,1-.7-1.71A2.33,2.33,0,0,1,344.68,434.05Z"/><path class="cls-5" d="M353.44,433.64h-1.21v-.23l3-2.31h.16v2l2.56-.12v.65l-2.56-.11v6.32a2,2,0,0,0,.43,1.45,1.49,1.49,0,0,0,1.08.41,1.83,1.83,0,0,0,.66-.11,1.53,1.53,0,0,0,.53-.32v.33a2,2,0,0,1-.82.66,2.93,2.93,0,0,1-1.36.3,2.66,2.66,0,0,1-1.24-.28,1.93,1.93,0,0,1-.87-.87,3.35,3.35,0,0,1-.32-1.56Z"/><path class="cls-5" d="M359.73,441.93a2.08,2.08,0,0,1-.78-1.69,2.2,2.2,0,0,1,.37-1.27,3.09,3.09,0,0,1,1.19-.94,10,10,0,0,1,2.14-.68l2.56-.55v.41l-1.63.36a4.31,4.31,0,0,0-2.11.9,1.92,1.92,0,0,0-.58,1.44,1.74,1.74,0,0,0,.53,1.35,1.87,1.87,0,0,0,1.3.48,2.52,2.52,0,0,0,1.12-.23,1.92,1.92,0,0,0,.78-.72V435.9A2.5,2.5,0,0,0,364,434a2.59,2.59,0,0,0-1.76-.57,3.84,3.84,0,0,0-1.24.2,2.5,2.5,0,0,0-.93.58,1.45,1.45,0,0,0-.43.87h-.22a1.12,1.12,0,0,1,.29-.77.84.84,0,0,1,.64-.31.92.92,0,0,1,.67.29.94.94,0,0,1,.29.71.92.92,0,0,1-.3.7,1,1,0,0,1-.72.28,1,1,0,0,1-.71-.28,1,1,0,0,1-.3-.72,1.49,1.49,0,0,1,.48-1.08,3.5,3.5,0,0,1,1.31-.75,6.09,6.09,0,0,1,1.88-.28,4.38,4.38,0,0,1,2.58.7,2.5,2.5,0,0,1,1,2.2v5a1.27,1.27,0,0,0,.29.92,1,1,0,0,0,.74.29,1.25,1.25,0,0,0,.43-.07v.3a2,2,0,0,1-.61.28,3,3,0,0,1-.87.12,2.16,2.16,0,0,1-.86-.16,1.53,1.53,0,0,1-.62-.47,1.71,1.71,0,0,1-.34-.76,2.55,2.55,0,0,1-1.13,1,4,4,0,0,1-1.85.41A2.91,2.91,0,0,1,359.73,441.93Z"/><path class="cls-5" d="M377.8,440.22a4.51,4.51,0,0,1-1.65,1.73,4.3,4.3,0,0,1-2.29.62,3.4,3.4,0,0,1-1.64-.38,2.39,2.39,0,0,1-1-1l-1,1.19h-.69V429.63a1.06,1.06,0,0,0-.09-.53.93.93,0,0,0-.5-.27l-.57-.17v-.3l3.09-.35v6.56a3,3,0,0,1,1.23-1.27,3.72,3.72,0,0,1,1.87-.48,3.6,3.6,0,0,1,1.92.56,4,4,0,0,1,1.44,1.63,5.58,5.58,0,0,1,.55,2.6A5.33,5.33,0,0,1,377.8,440.22Zm-2.18-5.38a2.44,2.44,0,0,0-2.05-1.11,2.66,2.66,0,0,0-1.3.3,2.27,2.27,0,0,0-.87.87v6a2,2,0,0,0,.79.79,2.31,2.31,0,0,0,1.23.33,2.55,2.55,0,0,0,2.17-1.14,6,6,0,0,0,0-6Z"/><path class="cls-5" d="M382.82,441.07a.89.89,0,0,0,.21.69,2.06,2.06,0,0,0,1,.31v.33h-4.27v-.33a2.06,2.06,0,0,0,1-.31.89.89,0,0,0,.21-.69V429.63a.94.94,0,0,0-.1-.53,1,1,0,0,0-.5-.27l-.58-.17v-.3l3.09-.35Z"/><path class="cls-5" d="M388,441.07a.89.89,0,0,0,.21.69,2.06,2.06,0,0,0,1,.31v.33h-4.27v-.33a2.06,2.06,0,0,0,1-.31.89.89,0,0,0,.21-.69V434.5a.93.93,0,0,0-.1-.52,1,1,0,0,0-.5-.27l-.58-.18v-.29l3.09-.35ZM386,430.85a1,1,0,0,1-.34-.78,1.07,1.07,0,0,1,.34-.79,1.19,1.19,0,0,1,1.62,0,1.06,1.06,0,0,1,.33.79,1,1,0,0,1-.33.78,1.19,1.19,0,0,1-1.62,0Z"/><path class="cls-5" d="M391,434.05a2.92,2.92,0,0,1,1.26-.92,5.16,5.16,0,0,1,1.81-.31,7.35,7.35,0,0,1,1.74.19,3.48,3.48,0,0,1,1.06.41l0,2.39h-.31a3.21,3.21,0,0,0-.9-1.88,2.29,2.29,0,0,0-1.62-.64,2.2,2.2,0,0,0-1.45.44,1.41,1.41,0,0,0-.52,1.12,1.27,1.27,0,0,0,.5,1.07,4.39,4.39,0,0,0,1.39.68l.74.24a4.49,4.49,0,0,1,1.94,1.11,2.54,2.54,0,0,1,.68,1.83,2.26,2.26,0,0,1-.52,1.5,3.3,3.3,0,0,1-1.34,1,4.77,4.77,0,0,1-1.72.32,8,8,0,0,1-1.9-.21,4.09,4.09,0,0,1-1.33-.55l-.11-2.57h.31a4.07,4.07,0,0,0,.66,1.57,3.19,3.19,0,0,0,1.08,1,2.7,2.7,0,0,0,1.28.32,2.12,2.12,0,0,0,1.46-.47,1.5,1.5,0,0,0,.55-1.19,1.54,1.54,0,0,0-.44-1.13,3.38,3.38,0,0,0-1.4-.74l-.74-.25a5.16,5.16,0,0,1-2-1.06,2.23,2.23,0,0,1-.7-1.71A2.34,2.34,0,0,1,391,434.05Z"/><path class="cls-5" d="M401.71,434.51a3.32,3.32,0,0,1,1.22-1.22,3.71,3.71,0,0,1,1.87-.47,3.59,3.59,0,0,1,2.31.73,2.69,2.69,0,0,1,.89,2.21v5.31a1.42,1.42,0,0,0,.08.52.55.55,0,0,0,.33.3,5,5,0,0,0,.77.18v.33H405v-.33a2,2,0,0,0,.92-.29.84.84,0,0,0,.19-.65v-5a2.53,2.53,0,0,0-.58-1.83,2.12,2.12,0,0,0-1.61-.6,2.63,2.63,0,0,0-1.32.31,2.39,2.39,0,0,0-.87.83v6.26a.88.88,0,0,0,.19.65,2,2,0,0,0,.92.29v.33h-4.2v-.33a2.06,2.06,0,0,0,1-.31.89.89,0,0,0,.21-.69V429.63a.94.94,0,0,0-.1-.53,1,1,0,0,0-.5-.27l-.58-.17v-.3l3.09-.35Z"/><path class="cls-5" d="M413.08,434.68h0v6.45a.84.84,0,0,0,.19.65,2,2,0,0,0,.92.29v.33H410v-.33a2.06,2.06,0,0,0,1-.31.89.89,0,0,0,.21-.69V434.5a1,1,0,0,0-.1-.52,1,1,0,0,0-.5-.27l-.58-.18v-.29l3.07-.35Zm5.29-1.12a2.75,2.75,0,0,1,.83,2.17v5.4a.89.89,0,0,0,.18.65,2,2,0,0,0,.92.29v.33h-4.13v-.33a2,2,0,0,0,.93-.29.89.89,0,0,0,.18-.65v-5a2.77,2.77,0,0,0-.53-1.84,2,2,0,0,0-1.54-.6A2.37,2.37,0,0,0,413,435v-.36a3.26,3.26,0,0,1,1.24-1.31,3.68,3.68,0,0,1,1.9-.49A3.17,3.17,0,0,1,418.37,433.56Zm6.05,0a2.76,2.76,0,0,1,.87,2.24v5.28a.89.89,0,0,0,.21.69,2.05,2.05,0,0,0,1,.31v.33h-4.19v-.33a2,2,0,0,0,.92-.29.89.89,0,0,0,.18-.65v-5a2.71,2.71,0,0,0-.54-1.84,2,2,0,0,0-1.56-.6,2.73,2.73,0,0,0-1.36.32,2.34,2.34,0,0,0-.92.95v-.37a3.12,3.12,0,0,1,1.29-1.33,3.83,3.83,0,0,1,1.9-.48A3.41,3.41,0,0,1,424.42,433.55Z"/><path class="cls-5" d="M428.21,435.19a4.14,4.14,0,0,1,3.87-2.37,4.24,4.24,0,0,1,2.08.49,3.32,3.32,0,0,1,1.31,1.37,4.2,4.2,0,0,1,.46,2c0,.09,0,.19,0,.28s0,.17,0,.24h-7v-.38l5.31-.05-.17.15a2.45,2.45,0,0,0,0-.27c0-.1,0-.2,0-.31a4.37,4.37,0,0,0-.5-2.18,1.63,1.63,0,0,0-1.52-.88,2.06,2.06,0,0,0-1.8,1,4.84,4.84,0,0,0-.66,2.75,6.14,6.14,0,0,0,.46,2.42,3.88,3.88,0,0,0,1.29,1.64,3.22,3.22,0,0,0,1.94.6,3.4,3.4,0,0,0,1.44-.28,3.14,3.14,0,0,0,1-.68V441a3.14,3.14,0,0,1-1.35,1.1,4.85,4.85,0,0,1-2.11.43,4.63,4.63,0,0,1-2.38-.61,4.35,4.35,0,0,1-1.64-1.71,5.26,5.26,0,0,1-.6-2.56A5.57,5.57,0,0,1,428.21,435.19Z"/><path class="cls-5" d="M440.25,434.54a3.22,3.22,0,0,1,1.22-1.24,3.69,3.69,0,0,1,1.89-.48,3.59,3.59,0,0,1,2.31.73,2.69,2.69,0,0,1,.89,2.21v5.31a1.42,1.42,0,0,0,.08.52.55.55,0,0,0,.33.3,5,5,0,0,0,.77.18v.33h-4.2v-.33a2,2,0,0,0,.92-.29.89.89,0,0,0,.18-.65v-5a2.57,2.57,0,0,0-.57-1.83,2.12,2.12,0,0,0-1.61-.6,2.63,2.63,0,0,0-1.32.31,2.39,2.39,0,0,0-.87.83v6.26a.84.84,0,0,0,.19.65,2,2,0,0,0,.92.29v.33h-4.2v-.33a2.06,2.06,0,0,0,1-.31.89.89,0,0,0,.21-.69V434.5a1,1,0,0,0-.1-.52,1,1,0,0,0-.51-.27l-.57-.18v-.29l3.07-.35Z"/><path class="cls-5" d="M449.66,433.64h-1.21v-.23l3-2.31h.16v2l2.56-.12v.65l-2.56-.11v6.32a2,2,0,0,0,.43,1.45,1.49,1.49,0,0,0,1.08.41,1.92,1.92,0,0,0,.67-.11,1.58,1.58,0,0,0,.52-.32v.33a2,2,0,0,1-.82.66,2.93,2.93,0,0,1-1.36.3,2.63,2.63,0,0,1-1.24-.28,1.93,1.93,0,0,1-.87-.87,3.35,3.35,0,0,1-.32-1.56Z"/><text class="cls-9"/><circle class="cls-3" cx="184.18" cy="493.31" r="4.56"/><text class="cls-8" transform="translate(98.34 479.31)">颜色</text><g class="cls-9"><path class="cls-5" d="M115.69,504.83a8,8,0,0,1,1.93-2.8,8.3,8.3,0,0,1,2.85-1.73,10.1,10.1,0,0,1,3.46-.59,14,14,0,0,1,3.58.38,6.14,6.14,0,0,1,2,.87l.17,4h-.39a7,7,0,0,0-1-2.52,4.74,4.74,0,0,0-1.76-1.58,5.49,5.49,0,0,0-2.51-.54,5.37,5.37,0,0,0-3.27,1,6.28,6.28,0,0,0-2.1,2.81,11.33,11.33,0,0,0-.73,4.27,13.57,13.57,0,0,0,.4,3.36,9.7,9.7,0,0,0,1.19,2.82,6.12,6.12,0,0,0,1.94,1.95,5,5,0,0,0,2.65.7,5.57,5.57,0,0,0,2.38-.49,4.61,4.61,0,0,0,1.8-1.53,7.31,7.31,0,0,0,1.09-2.69h.39l-.17,4a4.78,4.78,0,0,1-1.25.63,12,12,0,0,1-2,.5,13.1,13.1,0,0,1-2.4.2,9.72,9.72,0,0,1-3.57-.64,8.31,8.31,0,0,1-2.87-1.84,8.4,8.4,0,0,1-1.9-2.9,10,10,0,0,1-.68-3.82A9.9,9.9,0,0,1,115.69,504.83Z"/><path class="cls-5" d="M134.87,517.06a5.66,5.66,0,0,1-2.16-2.13,6.75,6.75,0,0,1,0-6.41,5.92,5.92,0,0,1,2.2-2.16,6.09,6.09,0,0,1,3.08-.79,6.2,6.2,0,0,1,3,.76,5.59,5.59,0,0,1,2.16,2.13,6.17,6.17,0,0,1,.81,3.21,6.11,6.11,0,0,1-.82,3.19A5.83,5.83,0,0,1,141,517a6.45,6.45,0,0,1-6.11,0Zm5.59-1.31a7.68,7.68,0,0,0,.89-3.95,9.08,9.08,0,0,0-.43-2.95,4.61,4.61,0,0,0-1.21-2,2.61,2.61,0,0,0-1.8-.71,2.75,2.75,0,0,0-2.48,1.48,7.64,7.64,0,0,0-.89,3.94,9.08,9.08,0,0,0,.43,2.95,4.71,4.71,0,0,0,1.21,2,2.62,2.62,0,0,0,1.81.71A2.75,2.75,0,0,0,140.46,515.75Z"/><path class="cls-5" d="M149.53,515.94a1.13,1.13,0,0,0,.26.86,2.67,2.67,0,0,0,1.22.38v.42h-5.36v-.42a2.62,2.62,0,0,0,1.21-.38,1.09,1.09,0,0,0,.26-.86V501.56a1.3,1.3,0,0,0-.12-.67,1.27,1.27,0,0,0-.63-.33l-.72-.22V500l3.88-.44Z"/><path class="cls-5" d="M155.57,517.06a5.62,5.62,0,0,1-2.17-2.13,6.24,6.24,0,0,1-.81-3.22,6.09,6.09,0,0,1,.82-3.19,5.82,5.82,0,0,1,2.19-2.16,6.09,6.09,0,0,1,3.08-.79,6.2,6.2,0,0,1,3,.76,5.53,5.53,0,0,1,2.16,2.13,6.17,6.17,0,0,1,.81,3.21,6.11,6.11,0,0,1-.82,3.19,5.87,5.87,0,0,1-2.19,2.18,6.16,6.16,0,0,1-3.08.78A6,6,0,0,1,155.57,517.06Zm5.58-1.31a7.68,7.68,0,0,0,.89-3.95,9.08,9.08,0,0,0-.43-2.95,4.61,4.61,0,0,0-1.21-2,2.61,2.61,0,0,0-1.8-.71,2.75,2.75,0,0,0-2.48,1.48,7.64,7.64,0,0,0-.89,3.94,9.08,9.08,0,0,0,.43,2.95,4.81,4.81,0,0,0,1.21,2,2.62,2.62,0,0,0,1.81.71A2.75,2.75,0,0,0,161.15,515.75Z"/><path class="cls-5" d="M170.2,508.26a13.19,13.19,0,0,1,1.85-2,2.44,2.44,0,0,1,1.54-.66,1.12,1.12,0,0,1,.93.36,1.28,1.28,0,0,1,.29.84,1.61,1.61,0,0,1-.07.49,1.27,1.27,0,0,1-.17.35,3.27,3.27,0,0,0-.5-.08,5.27,5.27,0,0,0-.7,0,5.56,5.56,0,0,0-1.8.29,3.22,3.22,0,0,0-1.35.77v7.24a2,2,0,0,0,.1.72.74.74,0,0,0,.45.39,4.65,4.65,0,0,0,1.06.23v.42h-5.49v-.42a2.69,2.69,0,0,0,1.23-.36,1.16,1.16,0,0,0,.25-.83v-8.3a1.28,1.28,0,0,0-.13-.67,1.35,1.35,0,0,0-.63-.34l-.72-.22v-.36l3.86-.44Z"/></g><path class="cls-10" d="M210.92,472.41v39.5H451.83v-39.5ZM240.47,477a2.71,2.71,0,0,1,1.93-.77,2.55,2.55,0,0,1,1.88.77l5.93,5.92-2.63,2.66-.68-.6a2.59,2.59,0,0,0-1.94-.84,2.63,2.63,0,0,0-2,.84,2.76,2.76,0,0,0,0,3.94l.59.6-1.27,1.29-2-2.06a1.12,1.12,0,0,0-.66-.19.88.88,0,0,0-.61.19L237.84,490a1,1,0,0,1-1.35,0,1.15,1.15,0,0,1,0-1.28l1.35-1.29a1,1,0,0,0,0-1.2l-3.3-3.34Zm-13.13,17.24a2.78,2.78,0,0,1,0-3.95l5.84-6,2.63,2.83-.68.6a2.92,2.92,0,0,0,0,3.94,2.78,2.78,0,0,0,4,0l.6-.6,1.26,1.29-2,2a1.2,1.2,0,0,0,0,1.29l1.27,1.29a.93.93,0,0,1,0,1.28.74.74,0,0,1-.6.26,1,1,0,0,1-.67-.26l-1.27-1.28a.87.87,0,0,0-.6-.2,1.15,1.15,0,0,0-.67.2l-3.22,3.34Zm17.11,13.29a2.61,2.61,0,0,1-2,.86,2.55,2.55,0,0,1-1.95-.86l-5.93-5.83,2.63-2.75.67.69a2.72,2.72,0,0,0,1.94.77,3.44,3.44,0,0,0,2.13-.77,2.76,2.76,0,0,0,0-3.94l-.6-.69,1.27-1.29,1.95,2.06a1,1,0,0,0,.67.26.74.74,0,0,0,.6-.26l1.27-1.28a1,1,0,0,1,1.36,0,1.19,1.19,0,0,1,0,1.28l-1.36,1.29a1.19,1.19,0,0,0,0,1.28l3.3,3.35Zm13-13.29-5.84,5.91L249,497.49l.68-.68a3,3,0,0,0,0-3.95,2.8,2.8,0,0,0-4,0l-.6.61-1.26-1.29,1.94-2a.94.94,0,0,0,0-1.29l-1.27-1.29a1.19,1.19,0,0,1,0-1.28,1,1,0,0,1,.67-.26.74.74,0,0,1,.6.26l1.27,1.28a1,1,0,0,0,1.36,0l3.22-3.34,5.84,6A2.78,2.78,0,0,1,257.49,494.24Z"/><text class="cls-11" transform="translate(267.95 502.5)">综合类</text><path class="cls-12" d="M245.35,540.42c-1-3.26-2.44-5.46-3.74-5.46s-2.7,2-3.66,5.46a26.1,26.1,0,0,1,3.66,1.41C243,541.3,244.13,540.86,245.35,540.42Z"/><path class="cls-13" d="M237.17,554.78l.34,1.94c.53-.09,1.22-.44,1.83-.61C237.69,555.22,238.38,555.49,237.17,554.78Z"/><path class="cls-14" d="M246.13,544.3l-.35-2c-.52.26-1.22.44-1.83.71C245.78,544,244.13,543.06,246.13,544.3Z"/><path class="cls-15" d="M237.51,542.27l-.34,2a7.57,7.57,0,0,1,2.17-1.32C238.73,542.71,238.12,542.53,237.51,542.27Z"/><path class="cls-16" d="M233.51,549.5c.44.43,1,.88,1.48,1.32a12.65,12.65,0,0,1,0-2.65C234.47,548.61,234,549.05,233.51,549.5Z"/><path class="cls-17" d="M235,545.79c.09-1.4.35-2.73.52-4a6.68,6.68,0,0,0-1.3-.27,2.64,2.64,0,0,1-2.27,1.15,2.87,2.87,0,0,1-2.17-1.06.94.94,0,0,0-.61.53c-.87,1.68,1.56,4.67,2.78,6.08C232.82,547.47,234,546.59,235,545.79Z"/><path class="cls-18" d="M237.86,558.57a8,8,0,0,0,.44,1.33,2.85,2.85,0,0,1,2.26,1.41,2.72,2.72,0,0,1,.17,2.46c.35.09.7.36.88.36,1.39,0,2.78-2.12,3.65-5.56a31.64,31.64,0,0,1-3.74-1.41C240.21,557.69,239,558.13,237.86,558.57Z"/><path class="cls-19" d="M232.12,550.91c-1.4,1.32-3.83,4.31-3,5.9.35.66,1.34,1,2.76,1a15.7,15.7,0,0,0,3.77-.56,27.87,27.87,0,0,1-.53-4A20.86,20.86,0,0,1,232.12,550.91Z"/><path class="cls-20" d="M248.3,550.91c.53-.45,1-.89,1.48-1.33a19.69,19.69,0,0,0-1.48-1.32Z"/><path class="cls-21" d="M251.33,541.23a16.45,16.45,0,0,0-3.72.51,31.73,31.73,0,0,1,.52,4,29,29,0,0,1,3.05,2.46,9,9,0,0,0,.87-1,2.89,2.89,0,0,1,.17-2.65,2.84,2.84,0,0,1,1.92-1.41,1.5,1.5,0,0,0-.09-.88C253.63,541.46,252.54,541.23,251.33,541.23Z"/><path class="cls-22" d="M245.69,556.72a13,13,0,0,0,.35-1.94c-1.13.71-1.22.71-2.17,1.33C244.48,556.28,245,556.54,245.69,556.72Z"/><path class="cls-23" d="M248.13,553.29a17.25,17.25,0,0,1-.61,4,15.55,15.55,0,0,0,3.75.56c1.4,0,2.38-.34,2.78-1,1-1.59-1.57-4.58-2.87-5.9A22.39,22.39,0,0,1,248.13,553.29Z"/><path class="cls-24" d="M210.92,529.5V569H451.83V529.5Zm46.26,17.79a2.88,2.88,0,0,1-2.43,1.41,2.17,2.17,0,0,1-1.22-.35,10.59,10.59,0,0,1-.87,1c2.09,2.2,4.7,5.64,3.13,8.28-.85,1.52-2.59,2-4.48,2a16.42,16.42,0,0,1-4.14-.61c-1.13,4-3,7-5.48,7a3.62,3.62,0,0,1-2.09-.79,2.21,2.21,0,0,1-1.48.44,2.88,2.88,0,0,1-2.43-1.41,2.93,2.93,0,0,1,.87-3.87,3.21,3.21,0,0,1-.44-1.15,20.52,20.52,0,0,1-4.08.5c-1.91,0-3.67-.47-4.53-2-1.57-2.47,1-6,3.13-8.37-2-2.2-4.61-5.55-3.13-8.2a3.13,3.13,0,0,1,1.65-1.5,2.83,2.83,0,0,1,2.78-2.82,2.9,2.9,0,0,1,2.88,2.74,3.26,3.26,0,0,1,1.21.26c1.14-4,3.05-7,5.49-7,2.61,0,4.52,3,5.57,7a16.25,16.25,0,0,1,4.2-.64c1.83,0,3.53.48,4.41,2a3.79,3.79,0,0,1,.44,2.21A2.86,2.86,0,0,1,257.18,547.29Z"/><path class="cls-25" d="M241.69,544a31.79,31.79,0,0,0-4.7,2.82,19.27,19.27,0,0,0,0,5.47,27.77,27.77,0,0,0,4.7,2.73,45.59,45.59,0,0,0,4.61-2.73,27.76,27.76,0,0,0,0-5.47A32.64,32.64,0,0,0,241.69,544Zm-.08,8.37a2.77,2.77,0,0,1-2.79-2.82,2.89,2.89,0,0,1,2.79-2.9,2.86,2.86,0,1,1,0,5.72Z"/><text class="cls-26" transform="translate(267.95 557.25)">理工类</text><path class="cls-27" d="M210.92,643.68v39.5H451.83v-39.5Zm42.47,32.64H228.13a.77.77,0,1,1,0-1.54h5.55v-3.24h-1.53a3.13,3.13,0,0,1-3.12-3.16v-1.62h1.52a3.14,3.14,0,0,1,3.13,3.17v-4h-1.53a3.19,3.19,0,0,1-3.12-3.23v-1.55h1.52a3.13,3.13,0,0,1,3.13,3.16v-3.93h-1.53a3.13,3.13,0,0,1-3.12-3.16v-1.62h1.52a3.13,3.13,0,0,1,3.13,3.16V656.5a5,5,0,0,1-1.53-3.3c0-2.11,2.36-3.94,2.36-3.94s2.29,1.76,2.29,3.94a5.07,5.07,0,0,1-1.52,3.3v2.25a3.13,3.13,0,0,1,3.12-3.16h1.53v1.62a3.13,3.13,0,0,1-3.13,3.16h-1.52v3.93a3.13,3.13,0,0,1,3.12-3.16h1.53v1.55a3.2,3.2,0,0,1-3.13,3.23h-1.52v4a3.13,3.13,0,0,1,3.12-3.17h1.53v1.62a3.13,3.13,0,0,1-3.13,3.16h-1.52v3.24h11v-3.24h-1.6a3.13,3.13,0,0,1-3.12-3.16v-1.62h1.6a3.14,3.14,0,0,1,3.12,3.17v-4h-1.6a3.19,3.19,0,0,1-3.12-3.23v-1.55h1.6a3.13,3.13,0,0,1,3.12,3.16v-3.93h-1.6a3.13,3.13,0,0,1-3.12-3.16v-1.62h1.6a3.13,3.13,0,0,1,3.12,3.16V656.5a5.14,5.14,0,0,1-1.6-3.3c0-2.11,2.36-3.94,2.36-3.94s2.36,1.76,2.36,3.94a5.13,5.13,0,0,1-1.59,3.3v2.25a3.13,3.13,0,0,1,3.12-3.16h1.59v1.62a3.13,3.13,0,0,1-3.12,3.16h-1.59v3.93a3.13,3.13,0,0,1,3.12-3.16h1.59v1.55a3.19,3.19,0,0,1-3.12,3.23h-1.59v4a3.13,3.13,0,0,1,3.12-3.17h1.59v1.62a3.12,3.12,0,0,1-3.12,3.16h-1.59v3.24h5.55a.77.77,0,0,1,0,1.54Z"/><text class="cls-26" transform="translate(267.95 671.42)">农林类</text><path class="cls-28" d="M248.35,724.73c-.91-.54-1.66-1.15-1.74-1.69a1.21,1.21,0,0,1,1.06-1,1,1,0,0,1,.91,1,1.06,1.06,0,0,0,1,.92,1,1,0,0,0,1-.92,3.1,3.1,0,0,0-2-2.91v-.61a1,1,0,0,0-.91-1.07,1,1,0,0,0-1.06,1.07v.61a3.19,3.19,0,0,0-2,2.91c0,1.61,1.29,2.6,2.35,3.37.83.53,1.59,1.15,1.59,1.68a1,1,0,0,1-.91,1,1,1,0,0,1-1.06-1,1,1,0,0,0-.91-.92.94.94,0,0,0-1,.92,3,3,0,0,0,2,2.91v.61a1.14,1.14,0,0,0,1.05,1.07,1.08,1.08,0,0,0,1-1.07V731a3.18,3.18,0,0,0,2-2.91C250.69,726.48,249.33,725.49,248.35,724.73Z"/><path class="cls-29" d="M210.92,700.77v39.5H451.83v-39.5Zm25.26,7.43c4.16,0,7.63,1.6,7.63,3.67s-3.47,3.59-7.63,3.59-7.71-1.6-7.71-3.59S232,708.2,236.18,708.2Zm-7.71,7.57a5.69,5.69,0,0,0,1.36.77,18.88,18.88,0,0,0,6.27,1.07,16.69,16.69,0,0,0,3-.31,11.9,11.9,0,0,0-2.64,4.29H236a15.33,15.33,0,0,1-5.44-.92c-1.29-.61-2.12-1.38-2.12-2.14Zm-.07,6a4.41,4.41,0,0,0,1.28.77,18.78,18.78,0,0,0,6.2,1.07,18,18,0,0,0-.23,2.06,9.51,9.51,0,0,0,.23,2,16.28,16.28,0,0,1-5.29-1c-1.29-.54-2.12-1.3-2.12-2.07h-.07Zm7.7,11.79c-4.38,0-7.63-1.69-7.63-2.91v-2.91a4,4,0,0,0,1.36.76,18.63,18.63,0,0,0,6.27,1.08h.38a13.61,13.61,0,0,0,2.2,3.82C237.84,733.45,237,733.53,236.1,733.53Zm11.57,2.06a10.07,10.07,0,1,1,9.9-10.1A10,10,0,0,1,247.67,735.59Z"/><text class="cls-26" transform="translate(267.95 728.51)">财经、政法类</text><path class="cls-30" d="M247.52,782.68,245,782.3,243.89,780a1,1,0,0,0-1.78,0L241,782.3l-2.44.38a1.06,1.06,0,0,0-.67,1.72l1.85,1.73-.44,2.54a.92.92,0,0,0,.9,1.16.86.86,0,0,0,.43-.11l2.37-1.27,2.3,1.27a.81.81,0,0,0,.42.12,1,1,0,0,0,1-1.17l-.52-2.54L248,784.4A1,1,0,0,0,247.52,782.68Z"/><path class="cls-31" d="M210.92,757.86v39.5H451.83v-39.5ZM250,763.49,243.08,772l-7-8.55Zm-21.68,4.65,4.14-4.2a1.37,1.37,0,0,1,.79-.27.78.78,0,0,1,.69.35l8.14,9.89a10.61,10.61,0,0,0-7.18,3.75l-6.58-8.17A1.46,1.46,0,0,1,228.35,768.14Zm14.73,25.48a8.67,8.67,0,0,1-8.66-8.77,8.76,8.76,0,0,1,8.66-8.92,8.85,8.85,0,0,1,0,17.69Zm14.5-24.13-6.51,8.24a10.09,10.09,0,0,0-7.25-3.75L252,764a1,1,0,0,1,1.48-.08l4.22,4.2A1,1,0,0,1,257.58,769.49Z"/><text class="cls-26" transform="translate(267.95 785.6)">军事类</text><path class="cls-32" d="M210.92,815v39.5H451.83V815Zm25.11,6.3c3.58,0,5.95,2.55,7.17,4.86,1.22-2.31,3.41-4.86,7.08-4.86a8.24,8.24,0,0,1,8.13,8.57,8.78,8.78,0,0,1-1.14,4H247a2.61,2.61,0,0,0-1.54.49l-1.63-4.2a2.65,2.65,0,0,0-2.53-1.81A3.14,3.14,0,0,0,239,830l-1.62,3.88H229a7.47,7.47,0,0,1-1.14-4A8.24,8.24,0,0,1,236,821.25Zm15.55,19.2a65.74,65.74,0,0,0-7.49,7.58,1,1,0,0,1-1.46,0,83,83,0,0,0-7.49-7.58c-.49-.41-1-.82-1.38-1.23h5.45a2.61,2.61,0,0,0,2.2-1.16l1.22,3.05a2.72,2.72,0,0,0,2.27,1.81h.17a2.69,2.69,0,0,0,2.36-1.4l1.46-2.3H253C252.56,839.63,252.15,840,251.58,840.45Zm6.27-2.88h-10l-2,3.13a1,1,0,0,1-.81.41H245a1.05,1.05,0,0,1-.74-.58l-2.68-7L240,836.91a1,1,0,0,1-.73.49H229a.91.91,0,0,1,0-1.81h9.68l2.12-5c.08-.33.4-.49.81-.49a.8.8,0,0,1,.81.58l2.85,7.41,1.22-2.06a1.31,1.31,0,0,1,.82-.41h10.5a.91.91,0,0,1,.89.91A.94.94,0,0,1,257.85,837.57Z"/><text class="cls-26" transform="translate(267.95 842.69)">医药类</text><path class="cls-33" d="M212.88,586.59v39.5H523.17v-39.5Zm19.48,7.66h21.33a.94.94,0,0,1,.69,1.46,4.05,4.05,0,0,0-.69,2.22,4,4,0,0,0,.69,2.15.89.89,0,0,1-.69,1.46H232.36a3.65,3.65,0,0,1,0-7.29Zm18.87,9.1v7.29h-1.86v-7.29Zm-3.64,0v7.29h-16a.88.88,0,0,1-1-.83v-5.49a1,1,0,0,1,1-1ZM232.5,619.81h-2.81a1,1,0,0,1-1-1v-5.49a.92.92,0,0,1,1-.83h2.81Zm3.63-.07h-1.85v-7.29h1.85Zm18.39-.83a.9.9,0,0,1-.83.9H237.92v-7.22h15.77a.83.83,0,0,1,.83.83Zm1.92-9.1a1,1,0,0,1-.82.9H253v-7.29h2.61a.86.86,0,0,1,.82.9Z"/><text class="cls-26" transform="translate(274.98 614.33)">师范、语言类</text><path class="cls-34" d="M210.32,871.13v39.51H695.93V871.13Zm20.85,33.09H225.8c-.83,0-1.29-1.15-.68-1.61l2.87-2.83,4,4.05A1.08,1.08,0,0,1,231.17,904.22Zm8.92-2.91a3.09,3.09,0,0,1-2,.84,2.94,2.94,0,0,1-2.05-.84,1.2,1.2,0,0,0-.78-.29,1,1,0,0,0-.73.29l-1.06,1-4.15-4.21,1.06-1c.37-.39.45-1.23,0-1.53a2.59,2.59,0,0,1-.84-1.92,3.14,3.14,0,0,1,.91-2.22l.61-.69,9.67,9.88Zm14.36-14.39-12.32,12.47-9.75-9.87L244.7,877a2.68,2.68,0,0,1,2-.9,2.89,2.89,0,0,1,2.17,1.05l5.59,5.59A2.93,2.93,0,0,1,254.45,886.92Z"/><text class="cls-26" transform="translate(274.33 899.78)">民族类、艺术类、体育类</text><polyline class="cls-35" points="55.24 344.65 73.05 492.89 183.62 492.89"/><polyline class="cls-35" points="9.96 328.69 137.45 100.01 454.77 100.01"/><path class="cls-36" d="M623.44,444.29a470.46,470.46,0,0,1-4-213.33"/><polyline class="cls-35" points="179.62 318.73 210.92 235.25 279.55 235.25"/><line class="cls-35" x1="616.28" y1="411" x2="484.15" y2="411"/><circle class="cls-3" cx="484.15" cy="411" r="4.56"/><text class="cls-7" transform="translate(298.58 225.93)">更名事件</text><path class="cls-5" d="M310.27,253.19a3.3,3.3,0,0,1-1.08,1.15,4.56,4.56,0,0,1-1.58.66v-.33l2.21,4.24a18.32,18.32,0,0,0,1,1.62,3.15,3.15,0,0,0,.65.76,1.74,1.74,0,0,0,.57.3v.31h-2.8l-3.4-6.49h-2.2v5a1.48,1.48,0,0,0,.1.62.65.65,0,0,0,.38.34,4.46,4.46,0,0,0,.84.22v.33h-4.8v-.33a4.75,4.75,0,0,0,.9-.23.66.66,0,0,0,.38-.35,1.7,1.7,0,0,0,.1-.66v-10.9a1.74,1.74,0,0,0-.1-.68.65.65,0,0,0-.38-.36,3.91,3.91,0,0,0-.9-.19v-.33h4.93a7.28,7.28,0,0,1,4.2,1,3.34,3.34,0,0,1,1,4.32ZM308.12,250a2.71,2.71,0,0,0-1.23-1.23,5.05,5.05,0,0,0-2.25-.51l-1,0V255l1.32-.05a4.16,4.16,0,0,0,2.63-.86,2.93,2.93,0,0,0,1-2.37A3.72,3.72,0,0,0,308.12,250Z"/><path class="cls-5" d="M313.46,254.69A4.21,4.21,0,0,1,315,253a4.27,4.27,0,0,1,2.34-.63,4.13,4.13,0,0,1,2.08.49,3.3,3.3,0,0,1,1.31,1.36,4.27,4.27,0,0,1,.46,2,2.44,2.44,0,0,1,0,.27q0,.15,0,.24h-7v-.38l5.31-.05-.17.16a2.64,2.64,0,0,0,0-.28,2.81,2.81,0,0,0,0-.3,4.28,4.28,0,0,0-.5-2.19,1.65,1.65,0,0,0-1.52-.88,2.08,2.08,0,0,0-1.8,1,4.87,4.87,0,0,0-.66,2.76,5.92,5.92,0,0,0,.47,2.41,3.88,3.88,0,0,0,1.28,1.65,3.28,3.28,0,0,0,1.94.59,3.56,3.56,0,0,0,1.44-.27,3,3,0,0,0,1-.69v.33a3.23,3.23,0,0,1-1.35,1.11,5,5,0,0,1-2.1.42,4.58,4.58,0,0,1-2.38-.61,4.38,4.38,0,0,1-1.65-1.71,5.22,5.22,0,0,1-.6-2.55A5.61,5.61,0,0,1,313.46,254.69Z"/><path class="cls-5" d="M325.5,254.05a3.16,3.16,0,0,1,1.22-1.24,3.69,3.69,0,0,1,1.89-.48,3.58,3.58,0,0,1,2.31.72,2.69,2.69,0,0,1,.89,2.21v5.32a1.45,1.45,0,0,0,.08.52.57.57,0,0,0,.33.29,3.37,3.37,0,0,0,.77.18v.33h-4.2v-.33a2,2,0,0,0,.92-.28.92.92,0,0,0,.19-.65v-5a2.55,2.55,0,0,0-.58-1.83,2.12,2.12,0,0,0-1.61-.6,2.63,2.63,0,0,0-1.32.32,2.39,2.39,0,0,0-.87.83v6.26a.92.92,0,0,0,.19.65,2,2,0,0,0,.92.28v.33h-4.2v-.33a2.21,2.21,0,0,0,1-.3.9.9,0,0,0,.21-.69V254a.94.94,0,0,0-.1-.53,1.15,1.15,0,0,0-.5-.27l-.58-.17v-.29l3.07-.35Z"/><path class="cls-5" d="M334.93,261.43a2.07,2.07,0,0,1-.78-1.69,2.16,2.16,0,0,1,.38-1.26,2.93,2.93,0,0,1,1.19-.94,8.76,8.76,0,0,1,2.13-.68l2.56-.56v.41l-1.62.36a4.55,4.55,0,0,0-2.12.9,2,2,0,0,0-.57,1.44,1.71,1.71,0,0,0,.53,1.36,1.84,1.84,0,0,0,1.29.48A2.49,2.49,0,0,0,339,261a2,2,0,0,0,.79-.71v-4.89a2.48,2.48,0,0,0-.66-2,2.58,2.58,0,0,0-1.75-.57,3.55,3.55,0,0,0-1.24.21,2.29,2.29,0,0,0-.93.57,1.52,1.52,0,0,0-.44.87h-.22a1.12,1.12,0,0,1,.29-.76.84.84,0,0,1,.64-.31.93.93,0,0,1,.68.28,1,1,0,0,1,.28.72.93.93,0,0,1-.29.7,1.05,1.05,0,0,1-.73.28,1,1,0,0,1-.71-.29.94.94,0,0,1-.3-.71,1.49,1.49,0,0,1,.48-1.08,3.43,3.43,0,0,1,1.32-.76,6.05,6.05,0,0,1,1.88-.27,4.42,4.42,0,0,1,2.58.69,2.53,2.53,0,0,1,1,2.2v5a1.28,1.28,0,0,0,.29.93,1,1,0,0,0,.74.28,1.54,1.54,0,0,0,.43-.06v.3a2.35,2.35,0,0,1-.61.27,2.57,2.57,0,0,1-.87.13,2.3,2.3,0,0,1-.85-.16,1.61,1.61,0,0,1-1-1.23,2.56,2.56,0,0,1-1.14,1,3.91,3.91,0,0,1-1.85.41A3,3,0,0,1,334.93,261.43Z"/><path class="cls-5" d="M346.77,254.18h0v6.46a.92.92,0,0,0,.19.65,2,2,0,0,0,.92.28v.33h-4.2v-.33a2.21,2.21,0,0,0,1-.3.9.9,0,0,0,.21-.69V254a.94.94,0,0,0-.1-.53,1.15,1.15,0,0,0-.5-.27l-.58-.17v-.29l3.07-.35Zm5.3-1.12a2.78,2.78,0,0,1,.82,2.17v5.41a.92.92,0,0,0,.18.65,2,2,0,0,0,.92.28v.33h-4.13v-.33a2,2,0,0,0,.93-.28.92.92,0,0,0,.18-.65v-5a2.67,2.67,0,0,0-.53-1.83,1.91,1.91,0,0,0-1.54-.61,2.35,2.35,0,0,0-2.18,1.26v-.36a3.21,3.21,0,0,1,1.24-1.32,3.65,3.65,0,0,1,1.9-.48A3.2,3.2,0,0,1,352.07,253.06Zm6,0a2.74,2.74,0,0,1,.87,2.23v5.29a.9.9,0,0,0,.21.69,2.21,2.21,0,0,0,1,.3v.33H356v-.33a2,2,0,0,0,.93-.28.92.92,0,0,0,.18-.65v-5a2.67,2.67,0,0,0-.55-1.83,2,2,0,0,0-1.55-.61,2.79,2.79,0,0,0-1.36.32,2.36,2.36,0,0,0-.93.95v-.36a3.17,3.17,0,0,1,1.3-1.34,3.89,3.89,0,0,1,1.89-.47A3.35,3.35,0,0,1,358.11,253.06Z"/><path class="cls-5" d="M361.9,254.69a4.21,4.21,0,0,1,1.53-1.73,4.27,4.27,0,0,1,2.34-.63,4.13,4.13,0,0,1,2.08.49,3.3,3.3,0,0,1,1.31,1.36,4.27,4.27,0,0,1,.46,2,2.44,2.44,0,0,1,0,.27q0,.15,0,.24h-7v-.38l5.31-.05-.17.16a2.64,2.64,0,0,0,0-.28,2.81,2.81,0,0,0,0-.3,4.28,4.28,0,0,0-.5-2.19,1.65,1.65,0,0,0-1.52-.88,2.08,2.08,0,0,0-1.8,1,4.87,4.87,0,0,0-.66,2.76,5.92,5.92,0,0,0,.47,2.41,3.88,3.88,0,0,0,1.28,1.65,3.28,3.28,0,0,0,1.94.59,3.56,3.56,0,0,0,1.44-.27,3.16,3.16,0,0,0,1-.69v.33a3.26,3.26,0,0,1-1.36,1.11,5,5,0,0,1-2.1.42,4.58,4.58,0,0,1-2.38-.61,4.38,4.38,0,0,1-1.65-1.71,5.22,5.22,0,0,1-.6-2.55A5.61,5.61,0,0,1,361.9,254.69Z"/></g></g></svg>