<svg xmlns="http://www.w3.org/2000/svg" xmlns:xlink="http://www.w3.org/1999/xlink" viewBox="0 0 1048.13 758.04"><defs><style>.cls-1{fill:#888988;}.cls-2{fill:#e3d6a3;}.cls-11,.cls-12,.cls-3,.cls-4,.cls-8{fill:none;stroke-linecap:round;stroke-miterlimit:10;}.cls-11,.cls-12,.cls-3,.cls-4{stroke:#040000;}.cls-4{stroke-dasharray:1 3.99;}.cls-10,.cls-5,.cls-6,.cls-9{fill:#231815;}.cls-6{opacity:0.96;}.cls-10,.cls-6,.cls-9{font-size:40px;}.cls-10,.cls-15,.cls-30,.cls-6,.cls-9{font-family:FZQKBYSJW--GB1-0, FZQingKeBenYueSongS-R-GB;}.cls-7{fill:#595757;}.cls-8{stroke:#595757;stroke-width:2px;stroke-dasharray:0.2 4.91;}.cls-13,.cls-15,.cls-32,.cls-33,.cls-37,.cls-9{opacity:0.99;}.cls-11{stroke-dasharray:1.01 4.02;}.cls-12{stroke-dasharray:1 4;}.cls-14{fill:url(#未命名的渐变_20);}.cls-15,.cls-30{font-size:25.8px;fill:#fff;}.cls-16{fill:url(#未命名的渐变_30);}.cls-17{fill:url(#未命名的渐变_30-2);}.cls-18{fill:url(#未命名的渐变_30-3);}.cls-19{fill:url(#未命名的渐变_30-4);}.cls-20{fill:url(#未命名的渐变_30-5);}.cls-21{fill:url(#未命名的渐变_30-6);}.cls-22{fill:url(#未命名的渐变_30-7);}.cls-23{fill:url(#未命名的渐变_30-8);}.cls-24{fill:url(#未命名的渐变_30-9);}.cls-25{fill:url(#未命名的渐变_30-10);}.cls-26{fill:url(#未命名的渐变_30-11);}.cls-27{fill:url(#未命名的渐变_30-12);}.cls-28{fill:url(#未命名的渐变_30-13);}.cls-29{fill:url(#未命名的渐变_30-14);}.cls-31{fill:url(#未命名的渐变_56);}.cls-32{fill:url(#未命名的渐变_69);}.cls-33{fill:url(#未命名的渐变_69-2);}.cls-34{fill:url(#未命名的渐变_77);}.cls-35{fill:url(#未命名的渐变_77-2);}.cls-36{fill:url(#未命名的渐变_82);}.cls-37{fill:url(#未命名的渐变_47);}.cls-38{fill:url(#未命名的渐变_89);}</style><linearGradient id="未命名的渐变_20" x1="563.11" y1="335.93" x2="804.03" y2="335.93" gradientUnits="userSpaceOnUse"><stop offset="0" stop-color="#8093b0"/><stop offset="0.64" stop-color="#8093b0" stop-opacity="0.6"/><stop offset="1" stop-color="#8093b0" stop-opacity="0"/></linearGradient><linearGradient id="未命名的渐变_30" x1="590.14" y1="382.17" x2="597.54" y2="382.17" gradientUnits="userSpaceOnUse"><stop offset="0" stop-color="#d1c698"/><stop offset="0.63" stop-color="#d1c698" stop-opacity="0.5"/><stop offset="1" stop-color="#d1c698" stop-opacity="0"/></linearGradient><linearGradient id="未命名的渐变_30-2" x1="589.36" y1="399.53" x2="591.54" y2="399.53" xlink:href="#未命名的渐变_30"/><linearGradient id="未命名的渐变_30-3" x1="596.15" y1="387.06" x2="598.33" y2="387.06" xlink:href="#未命名的渐变_30"/><linearGradient id="未命名的渐变_30-4" x1="589.36" y1="387.06" x2="591.54" y2="387.06" xlink:href="#未命名的渐变_30"/><linearGradient id="未命名的渐变_30-5" x1="585.71" y1="393.27" x2="587.19" y2="393.27" xlink:href="#未命名的渐变_30"/><linearGradient id="未命名的渐变_30-6" x1="581.17" y1="388.69" x2="587.71" y2="388.69" xlink:href="#未命名的渐变_30"/><linearGradient id="未命名的渐变_30-7" x1="590.06" y1="404.42" x2="597.46" y2="404.42" xlink:href="#未命名的渐变_30"/><linearGradient id="未命名的渐变_30-8" x1="581.17" y1="398.13" x2="587.88" y2="398.13" xlink:href="#未命名的渐变_30"/><linearGradient id="未命名的渐变_30-9" x1="600.5" y1="393.36" x2="601.98" y2="393.36" xlink:href="#未命名的渐变_30"/><linearGradient id="未命名的渐变_30-10" x1="599.8" y1="388.48" x2="606.37" y2="388.48" xlink:href="#未命名的渐变_30"/><linearGradient id="未命名的渐变_30-11" x1="596.06" y1="399.53" x2="598.24" y2="399.53" xlink:href="#未命名的渐变_30"/><linearGradient id="未命名的渐变_30-12" x1="599.72" y1="398.13" x2="606.46" y2="398.13" xlink:href="#未命名的渐变_30"/><linearGradient id="未命名的渐变_30-13" x1="563.11" y1="393.02" x2="804.03" y2="393.02" xlink:href="#未命名的渐变_30"/><linearGradient id="未命名的渐变_30-14" x1="588.99" y1="393.32" x2="598.63" y2="393.32" xlink:href="#未命名的渐变_30"/><linearGradient id="未命名的渐变_56" x1="563.11" y1="507.2" x2="804.03" y2="507.2" gradientUnits="userSpaceOnUse"><stop offset="0" stop-color="#82a384"/><stop offset="0.77" stop-color="#82a384" stop-opacity="0.5"/><stop offset="1" stop-color="#82a384" stop-opacity="0"/></linearGradient><linearGradient id="未命名的渐变_69" x1="596.84" y1="569.34" x2="602.89" y2="569.34" gradientUnits="userSpaceOnUse"><stop offset="0.02" stop-color="#a27baa"/><stop offset="0.77" stop-color="#a27baa" stop-opacity="0.5"/><stop offset="1" stop-color="#a27baa" stop-opacity="0"/></linearGradient><linearGradient id="未命名的渐变_69-2" x1="563.11" y1="564.29" x2="804.03" y2="564.29" xlink:href="#未命名的渐变_69"/><linearGradient id="未命名的渐变_77" x1="589.87" y1="628.4" x2="600.54" y2="628.4" gradientUnits="userSpaceOnUse"><stop offset="0" stop-color="#9b5c53"/><stop offset="0.67" stop-color="#9b5c53" stop-opacity="0.5"/><stop offset="0.99" stop-color="#9b5c53" stop-opacity="0"/></linearGradient><linearGradient id="未命名的渐变_77-2" x1="563.11" y1="621.38" x2="804.03" y2="621.38" xlink:href="#未命名的渐变_77"/><linearGradient id="未命名的渐变_82" x1="563.11" y1="678.47" x2="804.03" y2="678.47" gradientUnits="userSpaceOnUse"><stop offset="0" stop-color="#b6bfc8"/><stop offset="0.67" stop-color="#b6bfc8" stop-opacity="0.5"/><stop offset="0.99" stop-color="#b6bfc8" stop-opacity="0"/></linearGradient><linearGradient id="未命名的渐变_47" x1="565.07" y1="450.11" x2="875.37" y2="450.11" gradientUnits="userSpaceOnUse"><stop offset="0" stop-color="#cbb6b5"/><stop offset="0.8" stop-color="#cbb6b5" stop-opacity="0.5"/><stop offset="1" stop-color="#cbb6b5" stop-opacity="0"/></linearGradient><linearGradient id="未命名的渐变_89" x1="562.52" y1="734.66" x2="1048.13" y2="734.66" gradientUnits="userSpaceOnUse"><stop offset="0" stop-color="#c0a081"/><stop offset="0.75" stop-color="#c0a081" stop-opacity="0.5"/><stop offset="0.99" stop-color="#c0a081" stop-opacity="0"/></linearGradient></defs><g id="图层_2" data-name="图层 2"><g id="图层_1-2" data-name="图层 1"><circle class="cls-1" cx="13.83" cy="100.84" r="13.82"/><path class="cls-2" d="M143.34,271.51,51.56,116.8l-39.75,25,98.58,150.45Z"/><path class="cls-2" d="M116.87,302.1Q266.24,530.07,415.6,758l11.91-7.48Q288.45,516.13,149.37,281.69Z"/><line class="cls-3" x1="13.83" y1="100.84" x2="14.33" y2="100.84"/><line class="cls-4" x1="18.32" y1="100.84" x2="415.43" y2="100.84"/><line class="cls-3" x1="417.43" y1="100.84" x2="417.93" y2="100.84"/><circle class="cls-5" cx="427.71" cy="100.84" r="4.56"/><text class="cls-6" transform="translate(261.21 86.65)">主管部门</text><path class="cls-7" d="M137.38,123.49a1.81,1.81,0,0,0,.69.73,2.86,2.86,0,0,0,1,.32V125h-6.39v-.42a2.81,2.81,0,0,0,1.17-.34.9.9,0,0,0,.38-.77A4.28,4.28,0,0,0,134,122l-4.29-12.23h.19l-4,11.72a7.17,7.17,0,0,0-.43,1.72,1,1,0,0,0,.35.89,2.77,2.77,0,0,0,1.26.4V125h-4.63v-.42a2.7,2.7,0,0,0,1.06-.35,2.27,2.27,0,0,0,.74-.89,13.24,13.24,0,0,0,.78-1.83l5.19-14.14h1.27l5.29,14.72A9.45,9.45,0,0,0,137.38,123.49Zm-10.67-5.44h7.07l.19.6h-7.48Z"/><path class="cls-7" d="M140.27,115.88a5.67,5.67,0,0,1,2.06-2.17,5.4,5.4,0,0,1,2.86-.77,4.23,4.23,0,0,1,1.91.4,3.15,3.15,0,0,1,1.22,1.08v-5.5a1.28,1.28,0,0,0-.13-.67,1.36,1.36,0,0,0-.63-.33l-.72-.22v-.37l3.88-.44V123a1.18,1.18,0,0,0,.13.67,1.38,1.38,0,0,0,.64.34l.71.21v.37l-3.86.45v-2.13a3.74,3.74,0,0,1-1.56,1.62,4.65,4.65,0,0,1-2.36.62,4.43,4.43,0,0,1-2.41-.71,5.1,5.1,0,0,1-1.82-2.06,7.07,7.07,0,0,1-.69-3.26A6.7,6.7,0,0,1,140.27,115.88Zm2.74,6.75a3,3,0,0,0,2.56,1.41,3.3,3.3,0,0,0,1.65-.39,3,3,0,0,0,1.1-1.1V115a2.35,2.35,0,0,0-1-1,3.08,3.08,0,0,0-1.57-.4,3.17,3.17,0,0,0-2.71,1.44,7.55,7.55,0,0,0,0,7.56Z"/><path class="cls-7" d="M157.18,115.27h0v8.1a1.15,1.15,0,0,0,.23.82,2.48,2.48,0,0,0,1.16.35V125h-5.27v-.42a2.7,2.7,0,0,0,1.22-.37,1.17,1.17,0,0,0,.26-.87v-8.25a1.18,1.18,0,0,0-.13-.67,1.27,1.27,0,0,0-.63-.33l-.72-.22v-.37l3.86-.44Zm6.65-1.41a3.48,3.48,0,0,1,1,2.72v6.79a1.1,1.1,0,0,0,.23.82,2.39,2.39,0,0,0,1.16.35V125h-5.19v-.42a2.4,2.4,0,0,0,1.17-.35,1.15,1.15,0,0,0,.22-.82v-6.24a3.45,3.45,0,0,0-.66-2.3,2.44,2.44,0,0,0-1.94-.76,3,3,0,0,0-2.74,1.58v-.46a4,4,0,0,1,1.55-1.64,4.54,4.54,0,0,1,2.39-.61A4,4,0,0,1,163.83,113.86Zm7.59,0a3.46,3.46,0,0,1,1.09,2.81v6.64a1.17,1.17,0,0,0,.26.87,2.7,2.7,0,0,0,1.22.37V125h-5.28v-.42a2.4,2.4,0,0,0,1.17-.35,1.15,1.15,0,0,0,.23-.82v-6.24a3.35,3.35,0,0,0-.69-2.3,2.46,2.46,0,0,0-1.95-.76,3.48,3.48,0,0,0-1.71.4,2.86,2.86,0,0,0-1.16,1.2v-.46a4,4,0,0,1,1.62-1.68,4.8,4.8,0,0,1,2.38-.59A4.25,4.25,0,0,1,171.42,113.85Z"/><path class="cls-7" d="M178.92,123.3a1.17,1.17,0,0,0,.26.87,2.7,2.7,0,0,0,1.22.37V125H175v-.42a2.65,2.65,0,0,0,1.21-.37,1.13,1.13,0,0,0,.26-.87v-8.25a1.3,1.3,0,0,0-.12-.67,1.27,1.27,0,0,0-.63-.33l-.72-.22v-.37l3.88-.44Zm-2.44-12.84a1.38,1.38,0,0,1,0-2,1.49,1.49,0,0,1,2,0,1.38,1.38,0,0,1,0,2,1.49,1.49,0,0,1-2,0Z"/><path class="cls-7" d="M185.35,115.1a4,4,0,0,1,1.53-1.56,4.65,4.65,0,0,1,2.38-.6,4.48,4.48,0,0,1,2.89.9,3.37,3.37,0,0,1,1.12,2.78v6.68a1.85,1.85,0,0,0,.1.65.74.74,0,0,0,.42.37,4.6,4.6,0,0,0,1,.22V125h-5.27v-.42a2.44,2.44,0,0,0,1.16-.35,1.15,1.15,0,0,0,.23-.82v-6.25a3.21,3.21,0,0,0-.72-2.29,2.65,2.65,0,0,0-2-.76,3.27,3.27,0,0,0-1.66.4,2.92,2.92,0,0,0-1.08,1v7.86a1.1,1.1,0,0,0,.23.82,2.39,2.39,0,0,0,1.16.35V125h-5.28v-.42a2.7,2.7,0,0,0,1.22-.37,1.17,1.17,0,0,0,.26-.87v-8.25a.8.8,0,0,0-.75-1l-.73-.22v-.37l3.86-.44Z"/><path class="cls-7" d="M199.68,123.3a1.13,1.13,0,0,0,.27.87,2.65,2.65,0,0,0,1.21.37V125H195.8v-.42a2.7,2.7,0,0,0,1.22-.37,1.17,1.17,0,0,0,.26-.87v-8.25a1.18,1.18,0,0,0-.13-.67,1.23,1.23,0,0,0-.63-.33l-.72-.22v-.37l3.88-.44Zm-2.44-12.84a1.38,1.38,0,0,1,0-2,1.41,1.41,0,0,1,1-.4,1.37,1.37,0,0,1,1,.4,1.38,1.38,0,0,1,0,2,1.37,1.37,0,0,1-1,.4A1.41,1.41,0,0,1,197.24,110.46Z"/><path class="cls-7" d="M203.42,114.47a3.63,3.63,0,0,1,1.59-1.14,6.25,6.25,0,0,1,2.27-.39,8.73,8.73,0,0,1,2.18.23,4.28,4.28,0,0,1,1.33.51l.06,3h-.39a4.07,4.07,0,0,0-1.13-2.35,2.9,2.9,0,0,0-2-.81,2.68,2.68,0,0,0-1.81.55,1.77,1.77,0,0,0-.66,1.42,1.61,1.61,0,0,0,.63,1.34,5.63,5.63,0,0,0,1.74.85l.93.3a5.58,5.58,0,0,1,2.43,1.39,3.15,3.15,0,0,1,.86,2.31,2.83,2.83,0,0,1-.65,1.88,4.21,4.21,0,0,1-1.68,1.19,5.89,5.89,0,0,1-2.17.4,10.42,10.42,0,0,1-2.39-.26,4.9,4.9,0,0,1-1.66-.69l-.14-3.23h.39a5.12,5.12,0,0,0,.83,2,3.83,3.83,0,0,0,1.36,1.22,3.43,3.43,0,0,0,1.6.41,2.7,2.7,0,0,0,1.84-.6,1.88,1.88,0,0,0,.68-1.49,1.94,1.94,0,0,0-.55-1.43,4.44,4.44,0,0,0-1.75-.92l-.93-.31a6.47,6.47,0,0,1-2.47-1.34,2.8,2.8,0,0,1-.89-2.15A3,3,0,0,1,203.42,114.47Z"/><path class="cls-7" d="M214.42,114H212.9v-.29l3.71-2.9h.21v2.52l3.21-.15V114l-3.21-.13v7.93a2.49,2.49,0,0,0,.54,1.82,1.86,1.86,0,0,0,1.35.52,2.32,2.32,0,0,0,.84-.14,2,2,0,0,0,.67-.4V124a2.69,2.69,0,0,1-1,.84,3.84,3.84,0,0,1-1.71.37,3.44,3.44,0,0,1-1.56-.35,2.52,2.52,0,0,1-1.09-1.1,4.11,4.11,0,0,1-.4-2Z"/><path class="cls-7" d="M224.78,115.62a13.72,13.72,0,0,1,1.85-2,2.46,2.46,0,0,1,1.54-.66,1.12,1.12,0,0,1,.94.36,1.28,1.28,0,0,1,.29.84,1.62,1.62,0,0,1-.08.49,1,1,0,0,1-.17.35,3.06,3.06,0,0,0-.5-.08,5.18,5.18,0,0,0-.7,0,5.84,5.84,0,0,0-1.8.29,3.12,3.12,0,0,0-1.34.77v7.24a2,2,0,0,0,.1.72.75.75,0,0,0,.44.39,4.76,4.76,0,0,0,1.07.23V125h-5.5v-.42a2.69,2.69,0,0,0,1.23-.36,1.1,1.1,0,0,0,.25-.83v-8.3a.8.8,0,0,0-.76-1l-.72-.22v-.37l3.86-.44Z"/><path class="cls-7" d="M231.69,124.37a2.61,2.61,0,0,1-1-2.12,2.78,2.78,0,0,1,.47-1.59,3.87,3.87,0,0,1,1.5-1.18,11.74,11.74,0,0,1,2.68-.86l3.21-.69v.51l-2,.45a5.63,5.63,0,0,0-2.66,1.14,2.37,2.37,0,0,0-.72,1.8,2.21,2.21,0,0,0,.66,1.71,2.34,2.34,0,0,0,1.63.6,3.1,3.1,0,0,0,1.4-.3,2.38,2.38,0,0,0,1-.9V116.8a3.13,3.13,0,0,0-.82-2.46,3.29,3.29,0,0,0-2.2-.71,4.56,4.56,0,0,0-1.56.26,3,3,0,0,0-1.17.72,1.87,1.87,0,0,0-.55,1.1h-.28a1.42,1.42,0,0,1,.37-1,1,1,0,0,1,.8-.39,1.16,1.16,0,0,1,.85.36,1.22,1.22,0,0,1,.36.9,1.16,1.16,0,0,1-.37.88,1.29,1.29,0,0,1-.91.35,1.25,1.25,0,0,1-.89-.36,1.2,1.2,0,0,1-.38-.9,1.84,1.84,0,0,1,.61-1.35,4.13,4.13,0,0,1,1.64-1,7.58,7.58,0,0,1,2.37-.34,5.54,5.54,0,0,1,3.24.87,3.15,3.15,0,0,1,1.24,2.76v6.23a1.58,1.58,0,0,0,.36,1.16,1.29,1.29,0,0,0,.93.36,1.61,1.61,0,0,0,.54-.08v.38a2.8,2.8,0,0,1-.77.34,3.33,3.33,0,0,1-1.09.16,2.79,2.79,0,0,1-1.07-.2,2,2,0,0,1-1.21-1.55,3.28,3.28,0,0,1-1.42,1.29,5,5,0,0,1-2.33.52A3.7,3.7,0,0,1,231.69,124.37Z"/><path class="cls-7" d="M244.08,114h-1.51v-.29l3.71-2.9h.21v2.52l3.21-.15V114l-3.21-.13v7.93a2.49,2.49,0,0,0,.53,1.82,1.86,1.86,0,0,0,1.36.52,2.3,2.3,0,0,0,.83-.14,1.93,1.93,0,0,0,.67-.4V124a2.62,2.62,0,0,1-1,.84,3.84,3.84,0,0,1-1.71.37,3.4,3.4,0,0,1-1.55-.35,2.54,2.54,0,0,1-1.1-1.1,4.11,4.11,0,0,1-.4-2Z"/><path class="cls-7" d="M254.47,123.3a1.17,1.17,0,0,0,.26.87,2.7,2.7,0,0,0,1.22.37V125h-5.36v-.42a2.65,2.65,0,0,0,1.21-.37,1.13,1.13,0,0,0,.26-.87v-8.25a1.3,1.3,0,0,0-.12-.67,1.27,1.27,0,0,0-.63-.33l-.72-.22v-.37l3.88-.44ZM252,110.46a1.35,1.35,0,0,1,0-2,1.49,1.49,0,0,1,2,0,1.38,1.38,0,0,1,0,2,1.49,1.49,0,0,1-2,0Z"/><path class="cls-7" d="M257.42,114.39a1.54,1.54,0,0,0-.56-.55,2.89,2.89,0,0,0-.83-.27v-.43h5.71v.43a3.27,3.27,0,0,0-1.07.29.67.67,0,0,0-.34.63,4.49,4.49,0,0,0,.29,1.23l2.54,7.07h-.24l2.47-7a4,4,0,0,0,.31-1.28.71.71,0,0,0-.34-.65,3,3,0,0,0-1.08-.3v-.43h3.93v.43a2.18,2.18,0,0,0-.83.29,1.74,1.74,0,0,0-.6.67,10.41,10.41,0,0,0-.64,1.4l-3.55,9h-.93L258,115.49A6,6,0,0,0,257.42,114.39Z"/><path class="cls-7" d="M269,115.9a5.25,5.25,0,0,1,1.92-2.17,5.35,5.35,0,0,1,2.95-.79,5.18,5.18,0,0,1,2.6.61,4.17,4.17,0,0,1,1.66,1.72,5.38,5.38,0,0,1,.57,2.52c0,.12,0,.23,0,.35a2,2,0,0,1,0,.3H269.9V118l6.66-.06-.2.2c0-.12,0-.23,0-.35s0-.25,0-.38a5.46,5.46,0,0,0-.63-2.75,2.06,2.06,0,0,0-1.91-1.1,2.59,2.59,0,0,0-2.26,1.22,6.12,6.12,0,0,0-.83,3.46,7.58,7.58,0,0,0,.58,3A5,5,0,0,0,273,123.3a4,4,0,0,0,2.43.74,4.4,4.4,0,0,0,1.81-.34,3.76,3.76,0,0,0,1.28-.87v.42a4,4,0,0,1-1.7,1.39,6.15,6.15,0,0,1-2.65.54,5.86,5.86,0,0,1-3-.77,5.42,5.42,0,0,1-2.07-2.15,6.62,6.62,0,0,1-.75-3.21A7.08,7.08,0,0,1,269,115.9Z"/><path class="cls-7" d="M301.61,119.78a8.22,8.22,0,0,1-2.31,2.85,10.32,10.32,0,0,1-3.38,1.74,13.66,13.66,0,0,1-4,.59h-6v-.42a5,5,0,0,0,1.13-.26.87.87,0,0,0,.49-.45,2.34,2.34,0,0,0,.12-.84V109.3a2.34,2.34,0,0,0-.12-.84A.87.87,0,0,0,287,108a5,5,0,0,0-1.13-.26v-.42h6a14.49,14.49,0,0,1,5.51,1,8.42,8.42,0,0,1,3.73,2.89,7.85,7.85,0,0,1,1.34,4.64A8.82,8.82,0,0,1,301.61,119.78Zm-3-8a6.9,6.9,0,0,0-2.74-2.85,9.15,9.15,0,0,0-4.36-1.1l-1.25,0v16.65l1.25,0a9.37,9.37,0,0,0,4.34-1.09,6.81,6.81,0,0,0,2.74-2.86,9.4,9.4,0,0,0,.95-4.4A9,9,0,0,0,298.59,111.81Z"/><path class="cls-7" d="M305.24,115.9a5.19,5.19,0,0,1,4.87-3,5.16,5.16,0,0,1,2.6.61,4.11,4.11,0,0,1,1.66,1.72,5.38,5.38,0,0,1,.57,2.52c0,.12,0,.23,0,.35a2,2,0,0,1,0,.3h-8.75V118l6.67-.06-.21.2c0-.12,0-.23,0-.35s0-.25,0-.38a5.46,5.46,0,0,0-.62-2.75,2.07,2.07,0,0,0-1.91-1.1,2.61,2.61,0,0,0-2.27,1.22,6.12,6.12,0,0,0-.82,3.46,7.41,7.41,0,0,0,.58,3,4.88,4.88,0,0,0,1.61,2.07,4.07,4.07,0,0,0,2.43.74,4.45,4.45,0,0,0,1.82-.34,3.81,3.81,0,0,0,1.27-.87v.42a4,4,0,0,1-1.7,1.39,6.1,6.1,0,0,1-2.64.54,5.81,5.81,0,0,1-3-.77,5.42,5.42,0,0,1-2.07-2.15,6.62,6.62,0,0,1-.75-3.21A7.08,7.08,0,0,1,305.24,115.9Z"/><path class="cls-7" d="M328.33,122.22a5.74,5.74,0,0,1-2.05,2.18,5.46,5.46,0,0,1-2.88.78,4.05,4.05,0,0,1-1.89-.42,2.94,2.94,0,0,1-1.22-1.08v5.14a2,2,0,0,0,.1.72.74.74,0,0,0,.45.39,5.27,5.27,0,0,0,1.06.23v.41h-5.49v-.41a5.3,5.3,0,0,0,1-.22.73.73,0,0,0,.41-.35,1.75,1.75,0,0,0,.09-.63V115.05a1.3,1.3,0,0,0-.12-.67,1.27,1.27,0,0,0-.63-.33l-.72-.22v-.37l3.85-.44v2.15a3.69,3.69,0,0,1,1.56-1.62,4.64,4.64,0,0,1,2.36-.61,4.45,4.45,0,0,1,2.42.7,5.19,5.19,0,0,1,1.81,2,7.1,7.1,0,0,1,.69,3.26A6.59,6.59,0,0,1,328.33,122.22Zm-2.74-6.75a3.06,3.06,0,0,0-2.57-1.4,3.33,3.33,0,0,0-1.63.38,2.84,2.84,0,0,0-1.1,1.1v7.52a2.35,2.35,0,0,0,1,1,3.07,3.07,0,0,0,1.56.4,3.19,3.19,0,0,0,2.72-1.44,7.51,7.51,0,0,0,0-7.56Z"/><path class="cls-7" d="M332.15,124.37a2.6,2.6,0,0,1-1-2.12,2.71,2.71,0,0,1,.47-1.59,3.75,3.75,0,0,1,1.49-1.18,11.84,11.84,0,0,1,2.69-.86l3.21-.69v.51l-2,.45a5.68,5.68,0,0,0-2.66,1.14,2.41,2.41,0,0,0-.72,1.8,2.21,2.21,0,0,0,.66,1.71,2.36,2.36,0,0,0,1.63.6,3.18,3.18,0,0,0,1.41-.3,2.51,2.51,0,0,0,1-.9V116.8a3.13,3.13,0,0,0-.83-2.46,3.27,3.27,0,0,0-2.2-.71,4.64,4.64,0,0,0-1.56.26,3.13,3.13,0,0,0-1.17.72,1.86,1.86,0,0,0-.54,1.1h-.28a1.42,1.42,0,0,1,.36-1,1.08,1.08,0,0,1,.81-.39,1.17,1.17,0,0,1,.85.36,1.22,1.22,0,0,1,.36.9,1.17,1.17,0,0,1-.38.88,1.32,1.32,0,0,1-1.8,0,1.19,1.19,0,0,1-.37-.9,1.87,1.87,0,0,1,.6-1.35,4.11,4.11,0,0,1,1.65-1,7.47,7.47,0,0,1,2.36-.34,5.52,5.52,0,0,1,3.24.87,3.13,3.13,0,0,1,1.24,2.76v6.23A1.54,1.54,0,0,0,341,124a1.25,1.25,0,0,0,.92.36,1.61,1.61,0,0,0,.54-.08v.38a2.86,2.86,0,0,1-.76.34,3.38,3.38,0,0,1-1.09.16,2.85,2.85,0,0,1-1.08-.2,2.05,2.05,0,0,1-.79-.6,2.3,2.3,0,0,1-.42-.95,3.22,3.22,0,0,1-1.42,1.29,5,5,0,0,1-2.32.52A3.71,3.71,0,0,1,332.15,124.37Z"/><path class="cls-7" d="M347,115.62a13.72,13.72,0,0,1,1.85-2,2.48,2.48,0,0,1,1.55-.66,1.12,1.12,0,0,1,.93.36,1.28,1.28,0,0,1,.29.84,2,2,0,0,1-.07.49,1,1,0,0,1-.18.35,3.06,3.06,0,0,0-.5-.08,5.12,5.12,0,0,0-.69,0,5.84,5.84,0,0,0-1.8.29,3.22,3.22,0,0,0-1.35.77v7.24a2,2,0,0,0,.1.72.74.74,0,0,0,.45.39,4.65,4.65,0,0,0,1.06.23V125h-5.49v-.42a2.59,2.59,0,0,0,1.22-.36,1.1,1.1,0,0,0,.25-.83v-8.3a1.3,1.3,0,0,0-.12-.67,1.27,1.27,0,0,0-.63-.33l-.72-.22v-.37L347,113Z"/><path class="cls-7" d="M354,114h-1.51v-.29l3.71-2.9h.21v2.52l3.21-.15V114l-3.21-.13v7.93a2.49,2.49,0,0,0,.53,1.82,1.86,1.86,0,0,0,1.36.52,2.3,2.3,0,0,0,.83-.14,1.93,1.93,0,0,0,.67-.4V124a2.62,2.62,0,0,1-1,.84,3.84,3.84,0,0,1-1.71.37,3.4,3.4,0,0,1-1.55-.35,2.54,2.54,0,0,1-1.1-1.1,4.23,4.23,0,0,1-.4-2Z"/><path class="cls-7" d="M364.41,115.27h0v8.1a1.15,1.15,0,0,0,.23.82,2.44,2.44,0,0,0,1.16.35V125h-5.27v-.42a2.65,2.65,0,0,0,1.21-.37,1.13,1.13,0,0,0,.26-.87v-8.25a1.3,1.3,0,0,0-.12-.67,1.27,1.27,0,0,0-.63-.33l-.72-.22v-.37l3.86-.44Zm6.64-1.41a3.44,3.44,0,0,1,1,2.72v6.79a1.1,1.1,0,0,0,.24.82,2.38,2.38,0,0,0,1.15.35V125h-5.18v-.42a2.39,2.39,0,0,0,1.16-.35,1.15,1.15,0,0,0,.23-.82v-6.24a3.4,3.4,0,0,0-.67-2.3,2.42,2.42,0,0,0-1.93-.76,3,3,0,0,0-2.75,1.58v-.46a4,4,0,0,1,1.56-1.64,4.51,4.51,0,0,1,2.38-.61A4,4,0,0,1,371.05,113.86Zm7.59,0a3.46,3.46,0,0,1,1.1,2.81v6.64a1.13,1.13,0,0,0,.26.87,2.65,2.65,0,0,0,1.21.37V125h-5.27v-.42a2.4,2.4,0,0,0,1.17-.35,1.15,1.15,0,0,0,.22-.82v-6.24a3.4,3.4,0,0,0-.68-2.3,2.49,2.49,0,0,0-1.95-.76,3.43,3.43,0,0,0-1.71.4,2.86,2.86,0,0,0-1.16,1.2v-.46a3.86,3.86,0,0,1,1.62-1.68,4.8,4.8,0,0,1,2.38-.59A4.2,4.2,0,0,1,378.64,113.85Z"/><path class="cls-7" d="M383.41,115.9a5.25,5.25,0,0,1,1.92-2.17,5.34,5.34,0,0,1,2.94-.79,5.19,5.19,0,0,1,2.61.61,4.09,4.09,0,0,1,1.65,1.72,5.38,5.38,0,0,1,.57,2.52c0,.12,0,.23,0,.35a2,2,0,0,1,0,.3H384.3V118l6.67-.06-.21.2c0-.12,0-.23,0-.35s0-.25,0-.38a5.46,5.46,0,0,0-.63-2.75,2.07,2.07,0,0,0-1.91-1.1,2.61,2.61,0,0,0-2.27,1.22,6.12,6.12,0,0,0-.82,3.46,7.41,7.41,0,0,0,.58,3,4.9,4.9,0,0,0,1.62,2.07,4,4,0,0,0,2.43.74,4.43,4.43,0,0,0,1.81-.34,3.71,3.71,0,0,0,1.27-.87v.42a4,4,0,0,1-1.7,1.39,6.1,6.1,0,0,1-2.64.54,5.84,5.84,0,0,1-3-.77,5.42,5.42,0,0,1-2.07-2.15,6.62,6.62,0,0,1-.75-3.21A7,7,0,0,1,383.41,115.9Z"/><path class="cls-7" d="M398.54,115.1a3.82,3.82,0,0,1,1.53-1.56,4.64,4.64,0,0,1,2.37-.6,4.51,4.51,0,0,1,2.9.9,3.4,3.4,0,0,1,1.12,2.78v6.68a1.64,1.64,0,0,0,.1.65.69.69,0,0,0,.41.37,4.57,4.57,0,0,0,1,.22V125h-5.28v-.42a2.39,2.39,0,0,0,1.16-.35,1.1,1.1,0,0,0,.23-.82v-6.25a3.21,3.21,0,0,0-.72-2.29,2.63,2.63,0,0,0-2-.76,3.21,3.21,0,0,0-1.66.4,2.87,2.87,0,0,0-1.09,1v7.86a1.15,1.15,0,0,0,.23.82,2.44,2.44,0,0,0,1.16.35V125h-5.27v-.42a2.65,2.65,0,0,0,1.21-.37,1.13,1.13,0,0,0,.27-.87v-8.25a.8.8,0,0,0-.76-1l-.72-.22v-.37l3.86-.44Z"/><path class="cls-7" d="M410.35,114h-1.51v-.29l3.71-2.9h.21v2.52l3.21-.15V114l-3.21-.13v7.93a2.54,2.54,0,0,0,.53,1.82,1.86,1.86,0,0,0,1.36.52,2.39,2.39,0,0,0,.84-.14,2,2,0,0,0,.66-.4V124a2.62,2.62,0,0,1-1,.84,3.84,3.84,0,0,1-1.71.37,3.43,3.43,0,0,1-1.55-.35,2.47,2.47,0,0,1-1.09-1.1,4.11,4.11,0,0,1-.41-2Z"/><circle class="cls-1" cx="499.04" cy="21.72" r="13.82"/><circle class="cls-8" cx="499.04" cy="173.21" r="13.82"/><text class="cls-9" transform="translate(554.72 34)">教育部</text><text class="cls-10" transform="translate(554.72 112.29)">中央部委</text><polygon class="cls-1" points="514.19 96.14 502.9 96.14 502.9 84.85 495.17 84.85 495.17 96.14 483.88 96.14 483.88 103.87 495.17 103.87 495.17 115.16 502.9 115.16 502.9 103.87 514.19 103.87 514.19 96.14"/><text class="cls-10" transform="translate(554.72 185.49)">地方</text><line class="cls-3" x1="149.98" y1="274.17" x2="150.48" y2="274.17"/><line class="cls-11" x1="154.5" y1="274.17" x2="599.77" y2="274.17"/><line class="cls-3" x1="601.78" y1="274.17" x2="602.28" y2="274.17"/><circle class="cls-5" cx="600.83" cy="274.24" r="4.56"/><text class="cls-9" transform="translate(639.49 258.79)">迁址事件</text><path class="cls-7" d="M650.18,283.11a3.33,3.33,0,0,1-1.08,1.16,4.56,4.56,0,0,1-1.58.66v-.33l2.21,4.23c.39.72.71,1.26,1,1.63a3.15,3.15,0,0,0,.65.76,1.74,1.74,0,0,0,.57.3v.31h-2.8l-3.4-6.5h-2.2v5a1.48,1.48,0,0,0,.1.62.68.68,0,0,0,.38.34,4.46,4.46,0,0,0,.84.22v.33H640v-.33a5.68,5.68,0,0,0,.9-.23.65.65,0,0,0,.38-.36,1.61,1.61,0,0,0,.1-.65v-10.9a1.8,1.8,0,0,0-.1-.69.66.66,0,0,0-.38-.35,3.91,3.91,0,0,0-.9-.19v-.34H645a7.27,7.27,0,0,1,4.2,1,3.2,3.2,0,0,1,1.41,2.74A3.13,3.13,0,0,1,650.18,283.11ZM648,280a2.81,2.81,0,0,0-1.23-1.23,5.34,5.34,0,0,0-2.25-.51l-1,0V285l1.32,0a4.16,4.16,0,0,0,2.63-.86,2.93,2.93,0,0,0,1-2.37A3.76,3.76,0,0,0,648,280Z"/><path class="cls-7" d="M653.37,284.62a4.41,4.41,0,0,1,6-1.87,3.24,3.24,0,0,1,1.31,1.36,4.2,4.2,0,0,1,.46,2,2.62,2.62,0,0,1,0,.28q0,.14,0,.24h-7v-.38l5.31-.05-.17.16c0-.1,0-.19,0-.28s0-.2,0-.31a4.26,4.26,0,0,0-.5-2.18,1.63,1.63,0,0,0-1.52-.88,2.06,2.06,0,0,0-1.8,1,4.84,4.84,0,0,0-.66,2.75,6.14,6.14,0,0,0,.46,2.42,3.88,3.88,0,0,0,1.29,1.64,3.22,3.22,0,0,0,1.94.6,3.56,3.56,0,0,0,1.44-.27,3.33,3.33,0,0,0,1-.69v.33a3.14,3.14,0,0,1-1.35,1.1,4.85,4.85,0,0,1-2.11.43,4.63,4.63,0,0,1-2.38-.61,4.29,4.29,0,0,1-1.64-1.71,5.26,5.26,0,0,1-.6-2.56A5.57,5.57,0,0,1,653.37,284.62Z"/><path class="cls-7" d="M665.43,290.5a.89.89,0,0,0,.21.69,2.06,2.06,0,0,0,1,.31v.33h-4.27v-.33a2.06,2.06,0,0,0,1-.31.89.89,0,0,0,.21-.69V279.06a1,1,0,0,0-.1-.53,1,1,0,0,0-.5-.27l-.58-.17v-.3l3.09-.35Z"/><path class="cls-7" d="M670.24,291.4a4.48,4.48,0,0,1-1.73-1.7,5.36,5.36,0,0,1,0-5.1,4.52,4.52,0,0,1,1.75-1.72,5.07,5.07,0,0,1,4.86,0,4.46,4.46,0,0,1,1.73,1.69,4.9,4.9,0,0,1,.64,2.55,5,5,0,0,1-.65,2.55,4.69,4.69,0,0,1-1.75,1.73,4.93,4.93,0,0,1-2.45.62A4.87,4.87,0,0,1,670.24,291.4Zm4.44-1a6,6,0,0,0,.71-3.14,7.28,7.28,0,0,0-.34-2.35,3.68,3.68,0,0,0-1-1.57,2.07,2.07,0,0,0-1.44-.57,2.19,2.19,0,0,0-2,1.18A6.08,6.08,0,0,0,670,287a7.32,7.32,0,0,0,.34,2.35,3.8,3.8,0,0,0,1,1.58,2.09,2.09,0,0,0,1.44.56A2.17,2.17,0,0,0,674.68,290.35Z"/><path class="cls-7" d="M681.41,291.39a4.36,4.36,0,0,1-1.63-1.72,5.22,5.22,0,0,1-.6-2.55,4.9,4.9,0,0,1,.63-2.49,4.68,4.68,0,0,1,1.71-1.74,4.9,4.9,0,0,1,2.48-.64,3.56,3.56,0,0,1,2.33.65,1.9,1.9,0,0,1,.78,1.48,1.05,1.05,0,0,1-.29.75,1,1,0,0,1-1.44-1.44.92.92,0,0,1,.67-.29.91.91,0,0,1,.65.29,1,1,0,0,1,.29.71h-.26a1.64,1.64,0,0,0-.71-1.16,2.69,2.69,0,0,0-1.59-.44,3,3,0,0,0-1.72.49,3.19,3.19,0,0,0-1.12,1.38,4.86,4.86,0,0,0-.4,2,5.27,5.27,0,0,0,.48,2.35,3.66,3.66,0,0,0,1.29,1.5,3.24,3.24,0,0,0,1.8.53,3.54,3.54,0,0,0,1.43-.27,3.31,3.31,0,0,0,1-.68v.34a3.23,3.23,0,0,1-1.36,1.09,4.76,4.76,0,0,1-2.09.43A4.5,4.5,0,0,1,681.41,291.39Z"/><path class="cls-7" d="M689.34,291.36a2.08,2.08,0,0,1-.78-1.69,2.15,2.15,0,0,1,.37-1.26,3,3,0,0,1,1.19-1,10,10,0,0,1,2.14-.68l2.56-.55v.41l-1.63.36a4.31,4.31,0,0,0-2.11.9,1.92,1.92,0,0,0-.58,1.44,1.74,1.74,0,0,0,.53,1.35,1.88,1.88,0,0,0,1.3.48,2.52,2.52,0,0,0,1.12-.23,1.92,1.92,0,0,0,.78-.72v-4.89a2.46,2.46,0,0,0-.65-1.95,2.59,2.59,0,0,0-1.76-.57,3.73,3.73,0,0,0-1.23.2,2.54,2.54,0,0,0-.94.58,1.5,1.5,0,0,0-.43.87H689a1.12,1.12,0,0,1,.29-.77.87.87,0,0,1,.64-.31.92.92,0,0,1,.67.29.94.94,0,0,1,.29.71.92.92,0,0,1-.3.7,1,1,0,0,1-.72.28,1,1,0,0,1-.71-.28,1,1,0,0,1-.3-.72,1.45,1.45,0,0,1,.48-1.07,3.38,3.38,0,0,1,1.31-.76,6.09,6.09,0,0,1,1.88-.28,4.38,4.38,0,0,1,2.58.7,2.5,2.5,0,0,1,1,2.2v5a1.27,1.27,0,0,0,.29.92,1,1,0,0,0,.74.29,1.25,1.25,0,0,0,.43-.07v.3a2,2,0,0,1-.61.28,3,3,0,0,1-.87.12,2.08,2.08,0,0,1-.85-.16,1.42,1.42,0,0,1-.63-.47,1.71,1.71,0,0,1-.34-.76,2.55,2.55,0,0,1-1.13,1,4,4,0,0,1-1.85.41A2.91,2.91,0,0,1,689.34,291.36Z"/><path class="cls-7" d="M699.2,283.07H698v-.23l3-2.3h.16v2l2.56-.12v.65l-2.56-.11v6.32a2,2,0,0,0,.43,1.45,1.49,1.49,0,0,0,1.08.42,1.93,1.93,0,0,0,.67-.12,1.74,1.74,0,0,0,.53-.32V291a2.15,2.15,0,0,1-.83.67,3.06,3.06,0,0,1-1.36.29,2.66,2.66,0,0,1-1.24-.28,1.93,1.93,0,0,1-.87-.87,3.35,3.35,0,0,1-.32-1.56Z"/><path class="cls-7" d="M707.47,290.5a.89.89,0,0,0,.21.69,2.06,2.06,0,0,0,1,.31v.33h-4.27v-.33a2.1,2.1,0,0,0,1-.31.89.89,0,0,0,.2-.69v-6.56a.94.94,0,0,0-.1-.53.93.93,0,0,0-.5-.27l-.57-.18v-.29l3.09-.35Zm-1.94-10.22a1,1,0,0,1-.34-.78,1,1,0,0,1,.34-.79,1.17,1.17,0,0,1,1.61,0,1.06,1.06,0,0,1,.33.79,1,1,0,0,1-.33.78,1.17,1.17,0,0,1-1.61,0Z"/><path class="cls-7" d="M712.25,291.4a4.53,4.53,0,0,1-1.72-1.7,5.4,5.4,0,0,1,0-5.1,4.66,4.66,0,0,1,1.75-1.72,5.09,5.09,0,0,1,4.87,0,4.53,4.53,0,0,1,1.73,1.69,5.36,5.36,0,0,1,0,5.1,4.76,4.76,0,0,1-1.75,1.73,5.17,5.17,0,0,1-4.87,0Zm4.45-1a6.06,6.06,0,0,0,.71-3.14,7.26,7.26,0,0,0-.35-2.35,3.68,3.68,0,0,0-1-1.57,2,2,0,0,0-1.43-.57,2.19,2.19,0,0,0-2,1.18A6,6,0,0,0,712,287a7.32,7.32,0,0,0,.34,2.35,3.79,3.79,0,0,0,1,1.58,2.13,2.13,0,0,0,1.45.56A2.18,2.18,0,0,0,716.7,290.35Z"/><path class="cls-7" d="M723.9,284a3.13,3.13,0,0,1,1.22-1.23,3.69,3.69,0,0,1,1.89-.49,3.54,3.54,0,0,1,2.3.73,2.66,2.66,0,0,1,.9,2.21v5.31a1.23,1.23,0,0,0,.08.52.55.55,0,0,0,.33.3,4.77,4.77,0,0,0,.76.18v.33h-4.19v-.33a2,2,0,0,0,.92-.29.89.89,0,0,0,.18-.65v-5a2.57,2.57,0,0,0-.57-1.83,2.12,2.12,0,0,0-1.61-.6,2.58,2.58,0,0,0-1.32.31,2.39,2.39,0,0,0-.87.83v6.26a.84.84,0,0,0,.19.65,2,2,0,0,0,.92.29v.33h-4.2v-.33a2.06,2.06,0,0,0,1-.31.89.89,0,0,0,.21-.69v-6.56a.93.93,0,0,0-.11-.53.89.89,0,0,0-.5-.27l-.57-.18v-.29l3.07-.35Z"/><polyline class="cls-12" points="285.38 537.39 402.72 370.5 524.41 370.5"/><circle class="cls-5" cx="521.11" cy="370.5" r="4.56"/><text class="cls-10" transform="translate(435.27 356.51)">颜色</text><g class="cls-13"><path class="cls-7" d="M452.62,382a7.75,7.75,0,0,1,1.93-2.8,8.3,8.3,0,0,1,2.85-1.73,10.09,10.09,0,0,1,3.46-.58,14,14,0,0,1,3.57.37,6.43,6.43,0,0,1,2.06.87l.17,4h-.39a7.4,7.4,0,0,0-1-2.52,4.7,4.7,0,0,0-1.77-1.58,5.58,5.58,0,0,0-2.5-.53,5.36,5.36,0,0,0-3.27,1,6.28,6.28,0,0,0-2.1,2.81,11.33,11.33,0,0,0-.73,4.27,13.57,13.57,0,0,0,.4,3.36,9.61,9.61,0,0,0,1.19,2.83,6.16,6.16,0,0,0,1.93,1.94,5,5,0,0,0,2.65.71,5.54,5.54,0,0,0,2.38-.5,4.54,4.54,0,0,0,1.8-1.53,7.15,7.15,0,0,0,1.1-2.69h.39l-.17,4a4.87,4.87,0,0,1-1.26.63,11.47,11.47,0,0,1-2,.5,13,13,0,0,1-2.4.2,9.7,9.7,0,0,1-3.56-.64,8.22,8.22,0,0,1-2.87-1.84,8.4,8.4,0,0,1-1.9-2.9,10,10,0,0,1-.69-3.82A9.71,9.71,0,0,1,452.62,382Z"/><path class="cls-7" d="M471.8,394.25a5.62,5.62,0,0,1-2.17-2.13,6.29,6.29,0,0,1-.8-3.21,6.19,6.19,0,0,1,.81-3.2,5.78,5.78,0,0,1,2.2-2.16,6.48,6.48,0,0,1,6.11,0,5.69,5.69,0,0,1,2.17,2.13,6.69,6.69,0,0,1,0,6.4,5.9,5.9,0,0,1-2.2,2.18,6.45,6.45,0,0,1-6.11,0Zm5.59-1.31a7.68,7.68,0,0,0,.89-3.95,9.07,9.07,0,0,0-.44-2.95,4.61,4.61,0,0,0-1.21-2,2.57,2.57,0,0,0-1.8-.71,2.77,2.77,0,0,0-2.47,1.48,7.54,7.54,0,0,0-.89,3.94,9.08,9.08,0,0,0,.43,3,4.71,4.71,0,0,0,1.21,2,2.6,2.6,0,0,0,1.81.71A2.76,2.76,0,0,0,477.39,392.94Z"/><path class="cls-7" d="M486.46,393.13a1.13,1.13,0,0,0,.26.87,2.65,2.65,0,0,0,1.21.37v.42h-5.36v-.42a2.7,2.7,0,0,0,1.22-.37,1.17,1.17,0,0,0,.26-.87V378.75a1.18,1.18,0,0,0-.13-.67,1.26,1.26,0,0,0-.63-.33l-.72-.22v-.37l3.89-.44Z"/><path class="cls-7" d="M492.49,394.25a5.53,5.53,0,0,1-2.16-2.13,6.75,6.75,0,0,1,0-6.41,5.85,5.85,0,0,1,2.2-2.16,6.48,6.48,0,0,1,6.11,0,5.69,5.69,0,0,1,2.17,2.13,6.69,6.69,0,0,1,0,6.4,5.9,5.9,0,0,1-2.2,2.18,6.45,6.45,0,0,1-6.11,0Zm5.59-1.31A7.68,7.68,0,0,0,499,389a9.07,9.07,0,0,0-.44-2.95,4.59,4.59,0,0,0-1.2-2,2.61,2.61,0,0,0-1.8-.71,2.77,2.77,0,0,0-2.48,1.48,7.54,7.54,0,0,0-.89,3.94,9.08,9.08,0,0,0,.43,3,4.71,4.71,0,0,0,1.21,2,2.62,2.62,0,0,0,1.81.71A2.76,2.76,0,0,0,498.08,392.94Z"/><path class="cls-7" d="M507.12,385.45a13.72,13.72,0,0,1,1.85-2,2.46,2.46,0,0,1,1.55-.66,1.12,1.12,0,0,1,.93.36,1.28,1.28,0,0,1,.29.84,1.62,1.62,0,0,1-.08.49,1,1,0,0,1-.17.35,3.06,3.06,0,0,0-.5-.08,5.12,5.12,0,0,0-.69,0,5.84,5.84,0,0,0-1.8.29,3.22,3.22,0,0,0-1.35.77V393a2,2,0,0,0,.1.72.74.74,0,0,0,.45.39,4.52,4.52,0,0,0,1.06.23v.42h-5.5v-.42a2.65,2.65,0,0,0,1.23-.36,1.1,1.1,0,0,0,.25-.83v-8.3a.8.8,0,0,0-.75-1l-.73-.22v-.37l3.86-.44Z"/></g><path class="cls-14" d="M563.11,316.18v39.5H804v-39.5Zm29.55,4.6a2.71,2.71,0,0,1,1.94-.77,2.47,2.47,0,0,1,1.87.77l5.93,5.91-2.62,2.66-.68-.6a2.65,2.65,0,0,0-2-.83,2.62,2.62,0,0,0-1.94.83,2.76,2.76,0,0,0,0,3.95l.59.6-1.27,1.28-1.95-2.05a1.15,1.15,0,0,0-.67-.2.87.87,0,0,0-.6.2L590,333.81a1,1,0,0,1-1.36,0,1.18,1.18,0,0,1,0-1.28l1.36-1.29a1.05,1.05,0,0,0,0-1.2l-3.3-3.35ZM579.54,338a2.76,2.76,0,0,1,0-3.94l5.84-6L588,330.9l-.68.6a2.92,2.92,0,0,0,0,3.94,2.78,2.78,0,0,0,4,0l.59-.6,1.27,1.29-2,2a1.2,1.2,0,0,0,0,1.29l1.27,1.28a.94.94,0,0,1,0,1.29.75.75,0,0,1-.6.26,1,1,0,0,1-.67-.26l-1.27-1.29a.88.88,0,0,0-.61-.19,1.12,1.12,0,0,0-.66.19L585.38,344Zm17.1,13.3a2.59,2.59,0,0,1-2,.85,2.55,2.55,0,0,1-2-.85l-5.92-5.84,2.62-2.74.68.69a2.71,2.71,0,0,0,1.93.77,3.4,3.4,0,0,0,2.13-.77,2.76,2.76,0,0,0,0-3.95l-.59-.68,1.27-1.29,2,2.06a1,1,0,0,0,.67.26.75.75,0,0,0,.6-.26l1.27-1.29A1,1,0,0,1,600,338a.94.94,0,0,1,.67.26,1.16,1.16,0,0,1,0,1.29l-1.35,1.28a1.16,1.16,0,0,0,0,1.29l3.3,3.34ZM609.69,338l-5.85,5.92-2.62-2.66.67-.68a2.93,2.93,0,0,0,0-3.95,2.8,2.8,0,0,0-4,0l-.59.6L596.05,336l2-2a.93.93,0,0,0,0-1.28l-1.27-1.29a1.15,1.15,0,0,1,0-1.28.91.91,0,0,1,.67-.26.72.72,0,0,1,.6.26l1.27,1.28a1,1,0,0,0,.68.26.94.94,0,0,0,.67-.26l3.22-3.34,5.85,6A2.76,2.76,0,0,1,609.69,338Z"/><text class="cls-15" transform="translate(620.14 346.27)">综合类</text><path class="cls-16" d="M597.54,384.2c-.95-3.27-2.43-5.47-3.74-5.47s-2.7,2-3.66,5.47a25.64,25.64,0,0,1,3.66,1.41C595.19,385.08,596.32,384.64,597.54,384.2Z"/><path class="cls-17" d="M589.36,398.56l.35,1.94c.52-.09,1.22-.44,1.83-.62C589.88,399,590.58,399.26,589.36,398.56Z"/><path class="cls-18" d="M598.33,388.07l-.35-2c-.52.26-1.22.44-1.83.7C598,387.81,596.32,386.84,598.33,388.07Z"/><path class="cls-19" d="M589.71,386.05l-.35,2a8.1,8.1,0,0,1,2.18-1.32C590.93,386.49,590.32,386.31,589.71,386.05Z"/><path class="cls-20" d="M585.71,393.27c.43.44.95.88,1.48,1.33a12.65,12.65,0,0,1,0-2.65A19.69,19.69,0,0,0,585.71,393.27Z"/><path class="cls-21" d="M587.19,389.57c.08-1.41.34-2.73.52-4a6.78,6.78,0,0,0-1.31-.27,2.61,2.61,0,0,1-2.26,1.15,2.91,2.91,0,0,1-2.18-1.06,1,1,0,0,0-.61.53c-.87,1.67,1.57,4.67,2.79,6.08C585,391.24,586.14,390.36,587.19,389.57Z"/><path class="cls-22" d="M590.06,402.35a7.52,7.52,0,0,0,.43,1.32,2.87,2.87,0,0,1,2.26,1.41,2.74,2.74,0,0,1,.18,2.47c.35.09.7.35.87.35,1.39,0,2.79-2.11,3.66-5.55a31.78,31.78,0,0,1-3.75-1.41C592.41,401.47,591.19,401.91,590.06,402.35Z"/><path class="cls-23" d="M584.31,394.68c-1.39,1.33-3.83,4.32-3,5.91.35.66,1.34,1,2.76,1a15.63,15.63,0,0,0,3.77-.56,27.85,27.85,0,0,1-.52-4A20.29,20.29,0,0,1,584.31,394.68Z"/><path class="cls-24" d="M600.5,394.68c.52-.44,1-.88,1.48-1.32-.44-.44-1-.88-1.48-1.32Z"/><path class="cls-25" d="M603.52,385a16.45,16.45,0,0,0-3.72.51,29.86,29.86,0,0,1,.53,4,29.15,29.15,0,0,1,3,2.47,9,9,0,0,0,.87-1.06,2.88,2.88,0,0,1,.18-2.64,2.79,2.79,0,0,1,1.91-1.41,1.49,1.49,0,0,0-.08-.88C605.83,385.24,604.74,385,603.52,385Z"/><path class="cls-26" d="M597.89,400.5a16.47,16.47,0,0,0,.35-1.94c-1.13.7-1.22.7-2.18,1.32C596.67,400.06,597.19,400.32,597.89,400.5Z"/><path class="cls-27" d="M600.33,397.06a17.34,17.34,0,0,1-.61,4,15.55,15.55,0,0,0,3.74.56c1.41,0,2.39-.34,2.79-1,1-1.59-1.57-4.58-2.88-5.91A20.82,20.82,0,0,1,600.33,397.06Z"/><path class="cls-28" d="M563.11,373.27v39.5H804v-39.5Zm46.27,17.8a2.88,2.88,0,0,1-2.44,1.41,2.21,2.21,0,0,1-1.22-.35,9.3,9.3,0,0,1-.87,1c2.09,2.2,4.7,5.64,3.14,8.28-.85,1.52-2.6,2-4.49,2a16.41,16.41,0,0,1-4.13-.61c-1.13,4-3,7-5.48,7a3.59,3.59,0,0,1-2.09-.79,2.28,2.28,0,0,1-1.48.44,2.88,2.88,0,0,1-2.44-1.41,4.59,4.59,0,0,0,.44-5,20.52,20.52,0,0,1-4.08.5c-1.91,0-3.68-.47-4.54-2-1.56-2.47,1-6,3.13-8.37-2-2.21-4.61-5.56-3.13-8.2a3.12,3.12,0,0,1,1.65-1.5,2.82,2.82,0,0,1,2.79-2.82,2.88,2.88,0,0,1,2.87,2.73,3.3,3.3,0,0,1,1.22.27c1.13-4,3-7,5.48-7,2.61,0,4.53,3,5.57,7a16.33,16.33,0,0,1,4.21-.65c1.83,0,3.53.49,4.41,2a3.69,3.69,0,0,1,.43,2.2A2.86,2.86,0,0,1,609.38,391.07Z"/><path class="cls-29" d="M593.89,387.81a31,31,0,0,0-4.7,2.82,19.2,19.2,0,0,0,0,5.46,27.81,27.81,0,0,0,4.7,2.74,47.56,47.56,0,0,0,4.61-2.74,29.27,29.27,0,0,0,0-5.46A32.64,32.64,0,0,0,593.89,387.81Zm-.09,8.37a2.77,2.77,0,0,1-2.79-2.82,2.9,2.9,0,0,1,2.79-2.91,2.87,2.87,0,1,1,0,5.73Z"/><text class="cls-30" transform="translate(620.14 401.02)">理工类</text><path class="cls-31" d="M563.11,487.45V527H804V487.45Zm42.47,32.65H580.32a.78.78,0,0,1,0-1.55h5.55v-3.23h-1.52a3.13,3.13,0,0,1-3.13-3.16v-1.62h1.53a3.13,3.13,0,0,1,3.12,3.16v-4h-1.52a3.2,3.2,0,0,1-3.13-3.23v-1.55h1.53a3.13,3.13,0,0,1,3.12,3.16v-3.93h-1.52a3.14,3.14,0,0,1-3.13-3.17v-1.61h1.53a3.12,3.12,0,0,1,3.12,3.16v-2.25a5.09,5.09,0,0,1-1.52-3.3c0-2.11,2.36-3.94,2.36-3.94S589,494.8,589,497a5.05,5.05,0,0,1-1.53,3.3v2.25a3.13,3.13,0,0,1,3.12-3.16h1.53V501a3.14,3.14,0,0,1-3.12,3.17h-1.53v3.93a3.13,3.13,0,0,1,3.12-3.16h1.53v1.55A3.19,3.19,0,0,1,589,509.7h-1.53v4a3.13,3.13,0,0,1,3.12-3.16h1.53v1.62a3.13,3.13,0,0,1-3.12,3.16h-1.53v3.23h11v-3.23h-1.6a3.13,3.13,0,0,1-3.12-3.16v-1.62h1.59a3.13,3.13,0,0,1,3.13,3.16v-4h-1.6a3.19,3.19,0,0,1-3.12-3.23v-1.55h1.59a3.13,3.13,0,0,1,3.13,3.16v-3.93h-1.6a3.13,3.13,0,0,1-3.12-3.17v-1.61h1.59a3.13,3.13,0,0,1,3.13,3.16v-2.25a5.11,5.11,0,0,1-1.6-3.3c0-2.11,2.36-3.94,2.36-3.94s2.36,1.76,2.36,3.94a5.11,5.11,0,0,1-1.6,3.3v2.25a3.13,3.13,0,0,1,3.13-3.16h1.59V501a3.14,3.14,0,0,1-3.12,3.17H600v3.93a3.13,3.13,0,0,1,3.13-3.16h1.59v1.55a3.19,3.19,0,0,1-3.12,3.23H600v4a3.13,3.13,0,0,1,3.13-3.16h1.59v1.62a3.13,3.13,0,0,1-3.12,3.16H600v3.23h5.55a.78.78,0,0,1,0,1.55Z"/><text class="cls-30" transform="translate(620.14 515.2)">农林类</text><path class="cls-32" d="M600.54,568.5c-.9-.53-1.66-1.15-1.73-1.68a1.21,1.21,0,0,1,1.06-1,1,1,0,0,1,.9,1,1.07,1.07,0,0,0,1.06.92,1,1,0,0,0,1-.92,3.09,3.09,0,0,0-2-2.91v-.61a1,1,0,0,0-.9-1.07,1,1,0,0,0-1.06,1.07v.61a3.17,3.17,0,0,0-2,2.91c0,1.61,1.29,2.6,2.34,3.37.84.53,1.59,1.14,1.59,1.68a1,1,0,0,1-.9,1,1,1,0,0,1-1.06-1,1,1,0,0,0-.91-.92.94.94,0,0,0-1,.92,3,3,0,0,0,2,2.91v.61a1.15,1.15,0,0,0,1.06,1.07,1.08,1.08,0,0,0,1-1.07v-.61a3.17,3.17,0,0,0,2-2.91C602.89,570.26,601.53,569.27,600.54,568.5Z"/><path class="cls-33" d="M563.11,544.54v39.51H804V544.54ZM588.38,552c4.15,0,7.63,1.61,7.63,3.68s-3.48,3.59-7.63,3.59-7.71-1.6-7.71-3.59S584.15,552,588.38,552Zm-7.71,7.58a5.67,5.67,0,0,0,1.36.76,18.59,18.59,0,0,0,6.27,1.08,17.8,17.8,0,0,0,3-.31,12,12,0,0,0-2.65,4.28h-.37a15.41,15.41,0,0,1-5.45-.91c-1.28-.62-2.11-1.38-2.11-2.15Zm-.08,6a4.43,4.43,0,0,0,1.29.76,18.44,18.44,0,0,0,6.2,1.07,18.2,18.2,0,0,0-.23,2.07,9,9,0,0,0,.23,2,16.33,16.33,0,0,1-5.3-1c-1.28-.53-2.11-1.29-2.11-2.06h-.08Zm7.71,11.78c-4.38,0-7.63-1.68-7.63-2.91v-2.9a4,4,0,0,0,1.36.76,18.59,18.59,0,0,0,6.27,1.07h.38a13.5,13.5,0,0,0,2.19,3.83C590,577.23,589.21,577.3,588.3,577.3Zm11.57,2.07a10.07,10.07,0,1,1,9.9-10.1A10,10,0,0,1,599.87,579.37Z"/><text class="cls-30" transform="translate(620.14 572.29)">财经、政法类</text><path class="cls-34" d="M599.71,626.46l-2.51-.38-1.12-2.32a1,1,0,0,0-.88-.57,1,1,0,0,0-.89.57l-1.11,2.32-2.44.38a1.06,1.06,0,0,0-.67,1.72l1.85,1.72-.44,2.55a.92.92,0,0,0,.89,1.16,1.06,1.06,0,0,0,.44-.11l2.37-1.27,2.29,1.27a.86.86,0,0,0,.43.11,1,1,0,0,0,1-1.16l-.52-2.55,1.85-1.72A1,1,0,0,0,599.71,626.46Z"/><path class="cls-35" d="M563.11,601.63v39.51H804V601.63Zm39.12,5.64-7,8.54-7-8.54Zm-21.69,4.65,4.15-4.2a1.34,1.34,0,0,1,.78-.27.81.81,0,0,1,.7.34l8.14,9.9a10.64,10.64,0,0,0-7.18,3.74l-6.59-8.16A1.46,1.46,0,0,1,580.54,611.92Zm14.73,25.48a8.85,8.85,0,0,1,0-17.69,8.85,8.85,0,0,1,0,17.69Zm14.51-24.13-6.52,8.24a10.05,10.05,0,0,0-7.25-3.75l8.22-10a1.05,1.05,0,0,1,1.48-.07l4.22,4.2A1,1,0,0,1,609.78,613.27Z"/><text class="cls-30" transform="translate(620.14 629.38)">军事类</text><path class="cls-36" d="M563.11,658.72v39.51H804V658.72ZM588.23,665c3.58,0,5.94,2.55,7.16,4.86,1.22-2.31,3.42-4.86,7.08-4.86a8.24,8.24,0,0,1,8.14,8.57,8.9,8.9,0,0,1-1.14,4H599.22a2.66,2.66,0,0,0-1.55.49l-1.63-4.2a2.64,2.64,0,0,0-2.52-1.82,3.16,3.16,0,0,0-2.36,1.65l-1.63,3.88h-8.3a7.59,7.59,0,0,1-1.14-4A8.24,8.24,0,0,1,588.23,665Zm15.55,19.2a64.94,64.94,0,0,0-7.49,7.58,1,1,0,0,1-1.47,0,81.77,81.77,0,0,0-7.48-7.58c-.49-.41-1-.83-1.39-1.24h5.45a2.59,2.59,0,0,0,2.2-1.15l1.22,3a2.74,2.74,0,0,0,2.28,1.81h.16a2.69,2.69,0,0,0,2.36-1.4l1.47-2.31h4.15C604.75,683.4,604.34,683.82,603.78,684.23Zm6.26-2.89H600l-1.95,3.14a1,1,0,0,1-.82.41h-.08a1,1,0,0,1-.73-.58l-2.68-7-1.55,3.38a1,1,0,0,1-.74.49H581.23a.91.91,0,0,1,0-1.81h9.69l2.11-5c.08-.33.41-.49.82-.49a.82.82,0,0,1,.81.57l2.85,7.42,1.22-2.06a1.31,1.31,0,0,1,.81-.41H610a.91.91,0,0,1,.9.91A.93.93,0,0,1,610,681.34Z"/><text class="cls-30" transform="translate(620.14 686.47)">医药类</text><path class="cls-37" d="M565.07,430.36v39.51h310.3V430.36ZM584.56,438h21.33a.94.94,0,0,1,.69,1.46,4.09,4.09,0,0,0-.69,2.23,4,4,0,0,0,.69,2.15.89.89,0,0,1-.69,1.46H584.56a3.65,3.65,0,0,1,0-7.3Zm18.86,9.11v7.29h-1.85v-7.29Zm-3.63,0v7.29h-16a.88.88,0,0,1-1-.83V448.1a1,1,0,0,1,1-1Zm-15.1,16.46h-2.81a1,1,0,0,1-1-1v-5.49a.92.92,0,0,1,1-.84h2.81Zm3.64-.07h-1.85v-7.29h1.85Zm18.38-.83a.9.9,0,0,1-.82.9H590.11v-7.23h15.78a.84.84,0,0,1,.82.84Zm1.92-9.1a1,1,0,0,1-.82.9H605.2v-7.3h2.61a.86.86,0,0,1,.82.91Z"/><text class="cls-30" transform="translate(627.18 458.11)">师范、语言类</text><path class="cls-38" d="M562.52,714.91v39.5h485.61v-39.5ZM583.36,748H578c-.83,0-1.28-1.14-.67-1.6l2.87-2.84,4,4.06A1.09,1.09,0,0,1,583.36,748Zm8.92-2.91a3,3,0,0,1-2,.85,2.9,2.9,0,0,1-2-.85,1.23,1.23,0,0,0-.78-.28,1,1,0,0,0-.73.28l-1.06,1-4.16-4.21,1.06-1a1.09,1.09,0,0,0,0-1.53,2.58,2.58,0,0,1-.83-1.91,3.14,3.14,0,0,1,.91-2.22l.6-.69,9.68,9.88Zm14.37-14.39-12.33,12.48-9.75-9.87,12.33-12.48a2.67,2.67,0,0,1,2-.9,2.87,2.87,0,0,1,2.17,1.05l5.6,5.59A2.94,2.94,0,0,1,606.65,730.69Z"/><text class="cls-30" transform="translate(626.52 743.56)">民族类、艺术类、体育类</text></g></g></svg>