<svg xmlns="http://www.w3.org/2000/svg" viewBox="0 0 402.85 283.75"><defs><style>.cls-1,.cls-22{fill:#e2ca66;}.cls-2{font-size:11.16px;font-family:FZCSJW--GB1-0, FZCuSong-B09S;}.cls-14,.cls-17,.cls-2,.cls-23{fill:#4f4338;}.cls-3{font-size:8.33px;font-family:MicrosoftYaHei, Microsoft YaHei;}.cls-4{letter-spacing:-0.01em;}.cls-5{fill:#06318e;}.cls-6{fill:#e69233;}.cls-7{fill:#fff;}.cls-23,.cls-7{fill-rule:evenodd;}.cls-8{fill:#a6d271;}.cls-9{fill:#b5b5b5;}.cls-10{fill:#c42a30;}.cls-11{fill:#4972b8;}.cls-12{fill:#eda7a2;}.cls-13,.cls-15,.cls-16,.cls-18{fill:none;}.cls-13{stroke:#fff;stroke-miterlimit:10;stroke-width:8px;}.cls-15,.cls-16,.cls-17,.cls-18{stroke:#000;stroke-linecap:round;stroke-linejoin:round;stroke-width:2px;}.cls-16{stroke-dasharray:2.15 5.38;}.cls-17,.cls-18{stroke-dasharray:2 5;}.cls-19{letter-spacing:-0.01em;}.cls-20{letter-spacing:-0.01em;}.cls-21{letter-spacing:0.03em;}.cls-22{font-size:33.33px;font-family:Impact;}</style></defs><g id="图层_2" data-name="图层 2"><g id="图层_17" data-name="图层 17"><ellipse class="cls-1" cx="6.24" cy="33.47" rx="6.24" ry="6.25"/><text class="cls-2" transform="translate(128.53 172.89)">颜色<tspan class="cls-3"><tspan x="0.76" y="14.58">Color</tspan></tspan></text><text class="cls-2" transform="translate(248.38 109.02)">事件<tspan class="cls-3"><tspan x="-3.4" y="14.58">E</tspan><tspan class="cls-4" x="1.18" y="14.58">v</tspan><tspan x="5.5" y="14.58">ents</tspan></tspan></text><text class="cls-2" transform="translate(293.12 90.36)">更名</text><text class="cls-2" transform="translate(293.12 116.36)">合并、拆分</text><text class="cls-2" transform="translate(293.12 142.36)">迁址</text><text class="cls-2" transform="translate(199.42 237.82)">财经类、政法类</text><text class="cls-2" transform="translate(199.42 262.85)">民族类、体育类、艺术类</text><rect class="cls-5" x="167.84" y="225.23" width="19.41" height="19.44" rx="7.77"/><rect class="cls-6" x="167.84" y="250.22" width="19.41" height="19.44" rx="7.77"/><path class="cls-7" d="M179.78,255.3a.89.89,0,0,0-.67.3l-4.17,4.23,3.3,3.34L182.4,259a1,1,0,0,0,0-1.4l-1.89-1.89a1,1,0,0,0-.73-.36"/><path class="cls-7" d="M174.48,260.24l-.2.24a1.05,1.05,0,0,0-.31.75.92.92,0,0,0,.28.65.36.36,0,0,1,0,.51l-.36.34,1.41,1.43.36-.34a.31.31,0,0,1,.24-.1.41.41,0,0,1,.27.1,1,1,0,0,0,.69.28,1,1,0,0,0,.69-.28l.2-.23-3.27-3.35Z"/><path class="cls-7" d="M173.46,263.3l-1,1c-.21.15-.05.54.23.54h1.81a.34.34,0,0,0,.28-.13l-1.35-1.37Z"/><path class="cls-7" d="M179.11,233.51c.18,0,.3.15.3.36v.2a1,1,0,0,1,.69,1,.34.34,0,0,1-.33.31.37.37,0,0,1-.36-.31.32.32,0,0,0-.3-.34.4.4,0,0,0-.35.34c0,.18.27.38.58.56s.78.59.78,1.13a1.08,1.08,0,0,1-.66,1v.2a.35.35,0,0,1-.33.36.38.38,0,0,1-.35-.36v-.2a1,1,0,0,1-.66-1,.32.32,0,0,1,.33-.31.34.34,0,0,1,.31.31.33.33,0,1,0,.65,0c0-.18-.25-.38-.53-.56a1.49,1.49,0,0,1-.78-1.13,1.08,1.08,0,0,1,.66-1v-.2a.34.34,0,0,1,.35-.36Zm0-1a3.38,3.38,0,1,0,3.31,3.36,3.33,3.33,0,0,0-3.31-3.36"/><path class="cls-7" d="M175.26,230.07c-1.41,0-2.58.54-2.58,1.23s1.17,1.21,2.58,1.21,2.56-.54,2.56-1.21-1.16-1.23-2.56-1.23"/><path class="cls-7" d="M172.68,232.61v.92c0,.26.28.52.71.72a5.1,5.1,0,0,0,1.82.31h.13a4,4,0,0,1,.88-1.44,5.87,5.87,0,0,1-1,.11,6.26,6.26,0,0,1-2.1-.36,2.22,2.22,0,0,1-.46-.26"/><path class="cls-7" d="M172.68,236.61v1c0,.41,1.09,1,2.56,1a8,8,0,0,0,.86-.05,4.38,4.38,0,0,1-.74-1.28h-.12a6.26,6.26,0,0,1-2.1-.36,1.23,1.23,0,0,1-.46-.26"/><path class="cls-7" d="M172.66,234.61v.95h0c0,.26.28.51.71.69a5.56,5.56,0,0,0,1.77.34,3.18,3.18,0,0,1-.07-.67c0-.23,0-.46.07-.69a6.17,6.17,0,0,1-2.07-.36,1.45,1.45,0,0,1-.43-.26"/><text class="cls-2" transform="translate(369.42 185.68)">理工类</text><text class="cls-2" transform="translate(369.42 210.73)">农林类</text><rect class="cls-1" x="337.84" y="173.24" width="19.41" height="19.44" rx="7.77"/><rect class="cls-8" x="337.84" y="198.23" width="19.41" height="19.44" rx="7.77"/><path class="cls-7" d="M344.63,201.7a2.89,2.89,0,0,0-1.1,1.84,2.4,2.4,0,0,0,.71,1.54v1a1.46,1.46,0,0,0-1.45-1.48h-.71v.76a1.46,1.46,0,0,0,1.45,1.47h.71v1.84a1.46,1.46,0,0,0-1.45-1.48h-.71V208a1.49,1.49,0,0,0,1.45,1.5h.71v1.87a1.45,1.45,0,0,0-1.45-1.47h-.71v.75a1.46,1.46,0,0,0,1.45,1.47h.71v1.51h-2.58a.37.37,0,0,0-.36.36.36.36,0,0,0,.36.36h11.76a.36.36,0,0,0,.36-.36.36.36,0,0,0-.36-.36h-2.58v-1.51h.74a1.45,1.45,0,0,0,1.45-1.47v-.75h-.74a1.45,1.45,0,0,0-1.45,1.47v-1.87h.74A1.48,1.48,0,0,0,353,208v-.73h-.74a1.46,1.46,0,0,0-1.45,1.48v-1.84h.74a1.45,1.45,0,0,0,1.45-1.47v-.76h-.74a1.46,1.46,0,0,0-1.45,1.48v-1a2.42,2.42,0,0,0,.74-1.54,2.77,2.77,0,0,0-1.1-1.84,2.89,2.89,0,0,0-1.1,1.84,2.38,2.38,0,0,0,.75,1.54v1a1.47,1.47,0,0,0-1.46-1.48h-.74v.76a1.46,1.46,0,0,0,1.45,1.47h.75v1.84a1.47,1.47,0,0,0-1.46-1.48h-.74V208a1.49,1.49,0,0,0,1.45,1.5h.75v1.87a1.46,1.46,0,0,0-1.46-1.47h-.74v.75a1.46,1.46,0,0,0,1.45,1.47h.75v1.51H345v-1.51h.71a1.45,1.45,0,0,0,1.45-1.47v-.75h-.71a1.45,1.45,0,0,0-1.45,1.47v-1.87h.71a1.48,1.48,0,0,0,1.45-1.5v-.73h-.71a1.46,1.46,0,0,0-1.45,1.48v-1.84h.71a1.45,1.45,0,0,0,1.45-1.47v-.76h-.71a1.46,1.46,0,0,0-1.45,1.48v-1a2.4,2.4,0,0,0,.71-1.54,2.78,2.78,0,0,0-1.07-1.84"/><path class="cls-7" d="M347.33,182a.86.86,0,0,0-.83.87.83.83,0,0,0,.83.85.86.86,0,1,0,0-1.72"/><path class="cls-7" d="M347.33,178.52c.39,0,.84.66,1.12,1.64l-1.12.42a10.23,10.23,0,0,0-1.09-.42c.29-1,.7-1.64,1.09-1.64Zm-1.22,2.2c.18.08.36.13.55.21a2.34,2.34,0,0,0-.66.39l.11-.6Zm2.47,0,.11.6c-.6-.37-.11-.08-.65-.39.18-.08.39-.13.54-.21Zm1.66-.31a.94.94,0,0,1,.82.28.45.45,0,0,1,0,.26.87.87,0,0,0-.57.43.86.86,0,0,0-.05.79c-.08.1-.16.21-.26.32a7.34,7.34,0,0,0-.91-.74,9.45,9.45,0,0,0-.16-1.19,4.88,4.88,0,0,1,1.11-.15Zm-5.12.09a2.7,2.7,0,0,1,.39.08c-.05.37-.13.77-.16,1.19-.31.24-.65.5-.91.74-.36-.42-1.09-1.32-.83-1.82a.29.29,0,0,1,.18-.16.86.86,0,0,0,.65.32.77.77,0,0,0,.68-.35Zm.23,2a5.06,5.06,0,0,0,0,.79c-.15-.13-.31-.27-.44-.4.13-.13.29-.26.44-.39Zm4,0c.15.13.31.27.44.4-.13.13-.29.26-.44.4v-.8Zm-2-1.27a10.29,10.29,0,0,1,1.38.85,9,9,0,0,1,0,1.64,14.79,14.79,0,0,1-1.38.82,8.82,8.82,0,0,1-1.41-.82,5.63,5.63,0,0,1,0-1.64,10.55,10.55,0,0,1,1.41-.85ZM346,184.47c.37.21.16.13.66.39-.19.06-.4.16-.55.19l-.11-.58Zm2.66,0a4.15,4.15,0,0,1-.1.58c-.21-.05-.37-.13-.55-.19l.65-.39Zm-4.17-1.16a7,7,0,0,0,.91.71,8.55,8.55,0,0,0,.16,1.19,4.7,4.7,0,0,1-1.13.17c-.42,0-.72-.11-.82-.3-.26-.48.47-1.38.88-1.77Zm5.71,0c.39.39,1.14,1.29.86,1.77a1,1,0,0,1-.84.3,4.77,4.77,0,0,1-1.12-.17,5.11,5.11,0,0,0,.19-1.19,6.84,6.84,0,0,0,.91-.71Zm-2.89,1.87a8,8,0,0,0,1.12.42c-.26,1-.68,1.67-1.1,1.67-.05,0-.15-.08-.26-.11a.81.81,0,0,0-.05-.74.86.86,0,0,0-.68-.42,2.67,2.67,0,0,1-.13-.4c.34-.13.71-.26,1.1-.42Zm0-7.29c-.73,0-1.31.9-1.64,2.09a.92.92,0,0,0-.37-.08.86.86,0,0,0-.86-.82.84.84,0,0,0-.83.84,1,1,0,0,0-.5.45c-.44.8.34,1.8.94,2.46-.62.71-1.41,1.77-.94,2.51a1.45,1.45,0,0,0,1.36.6,6,6,0,0,0,1.22-.15,1,1,0,0,0,.13.34.91.91,0,0,0-.26,1.17.87.87,0,0,0,.73.42.69.69,0,0,0,.44-.13,1.1,1.1,0,0,0,.63.23c.73,0,1.3-.89,1.64-2.08a5,5,0,0,0,1.24.18,1.43,1.43,0,0,0,1.34-.61c.47-.79-.31-1.82-.94-2.48a2.43,2.43,0,0,0,.26-.29.65.65,0,0,0,.37.1.86.86,0,0,0,.41-1.61,1.07,1.07,0,0,0-.13-.66,1.44,1.44,0,0,0-1.32-.59,4.68,4.68,0,0,0-1.26.2c-.31-1.19-.88-2.09-1.66-2.09"/><text class="cls-2" transform="translate(369.42 262.78)">军事类</text><text class="cls-2" transform="translate(369.42 237.75)">医药类</text><rect class="cls-9" x="337.84" y="225.23" width="19.41" height="19.44" rx="7.77"/><rect class="cls-10" x="337.84" y="250.22" width="19.41" height="19.44" rx="7.77"/><path class="cls-7" d="M347,233.56c-.13,0-.24.05-.26.16l-.68,1.58H343a.3.3,0,0,0,0,.59h3.28a.34.34,0,0,0,.24-.16l.49-1.09.86,2.25a.32.32,0,0,0,.23.18h0a.32.32,0,0,0,.26-.13l.63-1h3.2a.3.3,0,0,0,.29-.32.29.29,0,0,0-.29-.29h-3.36a.43.43,0,0,0-.26.13l-.39.66-.91-2.38a.26.26,0,0,0-.26-.18"/><path class="cls-7" d="M345.21,230.71a2.64,2.64,0,0,0-2.61,2.74,2.38,2.38,0,0,0,.37,1.3h2.66l.52-1.24a1,1,0,0,1,.75-.53.85.85,0,0,1,.81.58l.52,1.35a.83.83,0,0,1,.5-.16H352a2.85,2.85,0,0,0,.36-1.3,2.63,2.63,0,0,0-2.6-2.74,2.58,2.58,0,0,0-2.27,1.56,2.65,2.65,0,0,0-2.29-1.56"/><path class="cls-7" d="M346.93,236.1a.85.85,0,0,1-.7.37h-1.75c.13.13.29.26.44.39a26.41,26.41,0,0,1,2.4,2.43.28.28,0,0,0,.23.11.29.29,0,0,0,.24-.11,21.31,21.31,0,0,1,2.4-2.43c.18-.13.31-.26.46-.39h-1.32l-.47.74a.88.88,0,0,1-.76.45h-.05a.89.89,0,0,1-.73-.59l-.39-1Z"/><path class="cls-7" d="M347.52,261.28a.36.36,0,0,1,.31.2l.38.8.87.13a.35.35,0,0,1,.18.6l-.64.59.18.88a.36.36,0,0,1-.34.41.42.42,0,0,1-.15,0l-.79-.44-.82.44-.15,0a.32.32,0,0,1-.31-.4l.16-.88-.64-.59a.37.37,0,0,1,.23-.6l.84-.13.38-.8a.36.36,0,0,1,.31-.2Zm0-1.2a3,3,0,0,0-3,3.08,3,3,0,0,0,3,3,3.06,3.06,0,0,0,0-6.11"/><path class="cls-7" d="M350.91,255.84a.34.34,0,0,0-.27.12l-2.84,3.44a3.53,3.53,0,0,1,2.51,1.3l2.24-2.85a.34.34,0,0,0,.06-.47l-1.46-1.45a.34.34,0,0,0-.24-.09"/><polygon class="cls-7" points="345.14 255.78 347.55 258.73 349.95 255.78 345.14 255.78 345.14 255.78 345.14 255.78"/><path class="cls-7" d="M344.16,255.84a.48.48,0,0,0-.27.09l-1.43,1.45a.55.55,0,0,0,0,.47l2.28,2.82a3.66,3.66,0,0,1,2.47-1.29L344.4,256a.27.27,0,0,0-.24-.12"/><text class="cls-2" transform="translate(199.42 185.6)">综合类</text><text class="cls-2" transform="translate(199.42 210.64)">语言类、师范类</text><rect class="cls-11" x="167.84" y="173.24" width="19.41" height="19.44" rx="7.77"/><rect class="cls-12" x="167.84" y="198.23" width="19.41" height="19.44" rx="7.77"/><path class="cls-7" d="M174.72,181.08l-1.78,1.83a.85.85,0,0,0,0,1.21l1.78,1.83,1-1a.34.34,0,0,1,.2-.06.26.26,0,0,1,.18.06l.39.39a.3.3,0,0,0,.2.08.24.24,0,0,0,.19-.08.29.29,0,0,0,0-.39l-.39-.4a.35.35,0,0,1,0-.39l.62-.6-.39-.39-.18.18a.83.83,0,0,1-.6.25.85.85,0,0,1-.61-.25.9.9,0,0,1,0-1.21l.2-.18-.8-.86Z"/><path class="cls-7" d="M177.54,178.61a.81.81,0,0,0-.59.24l-1.81,1.8,1,1a.33.33,0,0,1,0,.36l-.42.4a.35.35,0,0,0,0,.39.3.3,0,0,0,.21.08.32.32,0,0,0,.21-.08l.38-.39a.27.27,0,0,1,.19-.06.34.34,0,0,1,.2.06l.59.63.39-.4-.18-.18a.86.86,0,0,1,0-1.21.82.82,0,0,1,.6-.25.78.78,0,0,1,.59.25l.21.19.8-.82-1.81-1.8a.76.76,0,0,0-.57-.24"/><path class="cls-7" d="M180.36,181.08l-1,1a.32.32,0,0,1-.21.08.3.3,0,0,1-.21-.08l-.39-.4a.21.21,0,0,0-.18-.07.29.29,0,0,0-.2.07.36.36,0,0,0,0,.4l.38.39a.27.27,0,0,1,0,.39l-.59.61.39.39.18-.18a.87.87,0,0,1,.61-.26.83.83,0,0,1,.6.26.89.89,0,0,1,0,1.2l-.2.21.8.81,1.78-1.8a.85.85,0,0,0,0-1.21l-1.78-1.83Z"/><path class="cls-7" d="M177.59,184l-.39.39.19.21a.86.86,0,0,1,0,1.21,1.1,1.1,0,0,1-.65.23.82.82,0,0,1-.59-.23l-.21-.21-.8.84,1.81,1.78a.77.77,0,0,0,.59.26.8.8,0,0,0,.62-.26L180,186.4l-1-1a.35.35,0,0,1,0-.39l.42-.39a.41.41,0,0,0,0-.4.31.31,0,0,0-.21-.07.3.3,0,0,0-.21.07l-.39.4a.22.22,0,0,1-.18.08.3.3,0,0,1-.2-.08l-.6-.63Z"/><path class="cls-7" d="M173.73,203.36a1.36,1.36,0,0,0,0,2.72h8a.34.34,0,0,0,.26-.55,1.44,1.44,0,0,1-.26-.8,1.46,1.46,0,0,1,.26-.83.35.35,0,0,0-.26-.54Z"/><polygon class="cls-7" points="180.07 206.75 180.76 206.75 180.76 209.47 180.07 209.47 180.07 206.75 180.07 206.75"/><path class="cls-7" d="M181.42,206.78v2.72h1a.38.38,0,0,0,.3-.34v-2a.31.31,0,0,0-.3-.33Z"/><path class="cls-7" d="M173.45,206.75a.37.37,0,0,0-.36.36v2a.33.33,0,0,0,.36.31h6v-2.72Z"/><polygon class="cls-7" points="174.45 210.15 175.14 210.15 175.14 212.87 174.45 212.87 174.45 210.15 174.45 210.15"/><path class="cls-7" d="M175.8,210.2v2.69h5.88a.34.34,0,0,0,.31-.33v-2.05a.32.32,0,0,0-.31-.31Z"/><path class="cls-7" d="M172.74,210.17a.35.35,0,0,0-.36.31v2.05a.36.36,0,0,0,.36.36h1v-2.72Z"/><polygon class="cls-1" points="91.53 282.15 86.74 283.75 2.78 44.28 14.95 40.22 91.53 282.15"/><line class="cls-13" x1="27.73" y1="115.4" x2="38.13" y2="111.92"/><line class="cls-14" x1="106.06" y1="177.19" x2="151.12" y2="177.19"/><line class="cls-15" x1="106.06" y1="177.19" x2="107.06" y2="177.19"/><line class="cls-16" x1="112.44" y1="177.19" x2="147.43" y2="177.19"/><line class="cls-15" x1="150.12" y1="177.19" x2="151.12" y2="177.19"/><line class="cls-17" x1="81.11" y1="249.4" x2="106.06" y2="177.19"/><line class="cls-18" x1="36.66" y1="113.31" x2="273.74" y2="113.31"/><text class="cls-2" transform="translate(194.45 29.78)">主管部门 <tspan class="cls-3"><tspan x="-60.52" y="14.58">Administrati</tspan><tspan class="cls-19" x="-11.89" y="14.58">v</tspan><tspan x="-7.57" y="14.58">e De</tspan><tspan class="cls-20" x="10.7" y="14.58">p</tspan><tspan x="15.9" y="14.58">a</tspan><tspan class="cls-21" x="20.51" y="14.58">r</tspan><tspan x="23.95" y="14.58">tment</tspan></tspan></text><line class="cls-18" x1="6" y1="35.47" x2="242.51" y2="35.47"/><circle class="cls-14" cx="245.97" cy="35.47" r="2.08"/><circle class="cls-14" cx="273.74" cy="114.01" r="2.08"/><circle class="cls-14" cx="153.2" cy="177.19" r="2.08"/><ellipse class="cls-1" cx="271.23" cy="6.25" rx="6.24" ry="6.25"/><text class="cls-2" transform="translate(293.12 9.59)">教育部</text><text class="cls-2" transform="translate(293.12 35.97)">中央部委</text><text class="cls-2" transform="translate(293.12 62.36)">地方</text><text class="cls-22" transform="translate(262.55 45.87)">+</text><path class="cls-23" d="M320.58,87.07a.54.54,0,0,0-.52.71l1.82,6.71a.48.48,0,0,0,.45.35.45.45,0,0,0,.36-.19l1-1.43,1.09,1.27,1.13,1.14a1.3,1.3,0,0,0,.95.37,1.34,1.34,0,0,0,.95-.37l.6-.61a1.32,1.32,0,0,0,0-1.89l-2.26-2.41,1.41-1a.46.46,0,0,0-.16-.82l-6.66-1.84h-.13"/><path class="cls-23" d="M353.58,113.07a.54.54,0,0,0-.52.71l1.82,6.71a.48.48,0,0,0,.45.35.45.45,0,0,0,.36-.19l1-1.43,1.09,1.27,1.13,1.14a1.3,1.3,0,0,0,.95.37,1.34,1.34,0,0,0,.95-.37l.6-.61a1.32,1.32,0,0,0,0-1.89l-2.26-2.41,1.41-1a.46.46,0,0,0-.16-.82l-6.66-1.84h-.13"/><path class="cls-23" d="M320.58,139.07a.54.54,0,0,0-.52.71l1.82,6.71a.48.48,0,0,0,.45.35.45.45,0,0,0,.36-.19l1-1.43,1.09,1.27,1.13,1.14a1.3,1.3,0,0,0,.95.37,1.34,1.34,0,0,0,.95-.37l.6-.61a1.32,1.32,0,0,0,0-1.89l-2.26-2.41,1.41-1a.46.46,0,0,0-.16-.82l-6.66-1.84h-.13"/></g></g></svg>