<svg xmlns="http://www.w3.org/2000/svg" xmlns:xlink="http://www.w3.org/1999/xlink" viewBox="0 0 176.8 329.52"><defs><style>.cls-1{fill:url(#未命名的渐变_17);}.cls-2{fill:url(#未命名的渐变_19);}.cls-3{fill:url(#未命名的渐变_19-2);}.cls-4{fill:url(#未命名的渐变_19-3);}.cls-5{fill:url(#未命名的渐变_3);}.cls-6{fill:url(#未命名的渐变_19-4);}.cls-7{fill:url(#未命名的渐变_17-2);}.cls-8{fill:url(#未命名的渐变_19-5);}.cls-10,.cls-9{fill:none;stroke-miterlimit:10;}.cls-9{stroke:url(#未命名的渐变_19-6);}.cls-10{stroke:url(#未命名的渐变_19-7);}.cls-11,.cls-13,.cls-14{fill:#0071bc;}.cls-12{font-size:16.98px;font-family:FZQKBYSJW--GB1-0, FZQingKeBenYueSongS-R-GB;}.cls-13{font-size:36px;font-family:AdobeSongStd-Light-GBpc-EUC-H, Adobe Song Std;}.cls-14{fill-rule:evenodd;}</style><radialGradient id="未命名的渐变_17" cx="32.54" cy="213.36" r="32.54" gradientUnits="userSpaceOnUse"><stop offset="0.01" stop-color="#4972b8" stop-opacity="0.3"/><stop offset="1" stop-color="#4972b8" stop-opacity="0.1"/></radialGradient><radialGradient id="未命名的渐变_19" cx="32.19" cy="213.1" r="6.72" gradientUnits="userSpaceOnUse"><stop offset="0.01" stop-color="#4972b8" stop-opacity="0.6"/><stop offset="1" stop-color="#4972b8" stop-opacity="0.4"/></radialGradient><radialGradient id="未命名的渐变_19-2" cx="20.87" cy="193.91" r="6.72" xlink:href="#未命名的渐变_19"/><radialGradient id="未命名的渐变_19-3" cx="72.58" cy="237.06" r="6.72" xlink:href="#未命名的渐变_19"/><radialGradient id="未命名的渐变_3" cx="29.75" cy="129.19" r="25.47" gradientUnits="userSpaceOnUse"><stop offset="0.01" stop-color="#4972b8" stop-opacity="0.6"/><stop offset="1" stop-color="#4972b8" stop-opacity="0.1"/></radialGradient><radialGradient id="未命名的渐变_19-4" cx="29.75" cy="129.19" r="6.72" xlink:href="#未命名的渐变_19"/><radialGradient id="未命名的渐变_17-2" cx="32.72" cy="296.13" r="32.54" gradientTransform="translate(0.03)" xlink:href="#未命名的渐变_17"/><radialGradient id="未命名的渐变_19-5" cx="32.36" cy="295.86" r="6.72" gradientTransform="translate(0.03)" xlink:href="#未命名的渐变_19"/><radialGradient id="未命名的渐变_19-6" cx="21.05" cy="276.67" r="7.22" gradientTransform="translate(0.03)" xlink:href="#未命名的渐变_19"/><radialGradient id="未命名的渐变_19-7" cx="72.25" cy="322.3" r="7.22" gradientTransform="translate(0.03)" xlink:href="#未命名的渐变_19"/></defs><g id="图层_2" data-name="图层 2"><g id="图例"><circle class="cls-1" cx="32.54" cy="213.36" r="32.54"/><circle class="cls-2" cx="32.19" cy="213.1" r="6.72"/><circle class="cls-3" cx="20.87" cy="193.91" r="6.72"/><circle class="cls-4" cx="72.58" cy="237.06" r="6.72"/><circle class="cls-5" cx="29.75" cy="129.19" r="25.47"/><circle class="cls-6" cx="29.75" cy="129.19" r="6.72"/><ellipse class="cls-7" cx="32.79" cy="296.13" rx="32.58" ry="32.54"/><ellipse class="cls-8" cx="32.43" cy="295.86" rx="6.73" ry="6.72"/><ellipse class="cls-9" cx="21.1" cy="276.67" rx="6.73" ry="6.72"/><ellipse class="cls-10" cx="72.37" cy="322.3" rx="6.73" ry="6.72"/><line class="cls-11" x1="29.75" y1="6.37" x2="29.75" y2="27.59"/><circle class="cls-11" cx="29.75" cy="6.72" r="6.72"/><text class="cls-12" transform="translate(91.92 19.58)">迁址</text><text class="cls-12" transform="translate(91.92 134.89)">建校</text><text class="cls-12" transform="translate(91.92 76.24)">更名</text><text class="cls-12" transform="translate(91.92 209.36)">院校<tspan x="0" y="20.37">合并、拆分</tspan></text><text class="cls-12" transform="translate(91.92 303.19)">院系<tspan x="0" y="20.37">合并、拆分</tspan></text><line class="cls-11" x1="30.16" y1="51.37" x2="30.16" y2="72.59"/><text class="cls-13" transform="translate(12.03 95.63)">＊</text><path class="cls-14" d="M28.89,99.36a1.32,1.32,0,0,0-1.31,1.32v25.25a1.32,1.32,0,0,0,1.31,1.32h.51a1.31,1.31,0,0,0,1.3-1.32V100.68a1.31,1.31,0,0,0-1.3-1.32Z"/><path class="cls-14" d="M32.32,100.72v15.19H50.16a.87.87,0,0,0,.63-1.46l-5.6-6.13,5.6-6.14a.87.87,0,0,0-.63-1.46Z"/></g></g></svg>